<?xml version="1.0" standalone="no"?>
<!DOCTYPE svg PUBLIC "-//W3C//DTD SVG 20010904//EN"
 "http://www.w3.org/TR/2001/REC-SVG-20010904/DTD/svg10.dtd">
<svg version="1.0" xmlns="http://www.w3.org/2000/svg"
 width="1000.000000pt" height="1000.000000pt" viewBox="0 0 1000.000000 1000.000000"
 preserveAspectRatio="xMidYMid meet">
<metadata>
Created by potrace 1.11, written by Peter Selinger 2001-2013
</metadata>
<g transform="translate(0.000000,1000.000000) scale(0.100000,-0.100000)"
fill="#000000" stroke="none">
<path d="M0 5000 l0 -5000 5000 0 5000 0 0 5000 0 5000 -5000 0 -5000 0 0
-5000z m2821 1873 c1 -237 -1 -567 -4 -570 -2 -1 -83 -3 -180 -3 l-177 -1 0
-42 c-3 -451 1 -1726 5 -1767 3 -30 10 -77 16 -105 5 -27 11 -59 13 -70 8 -39
48 -131 78 -178 67 -104 204 -193 329 -213 79 -12 195 -11 258 3 103 24 169
59 242 132 100 100 157 235 175 416 5 52 9 1659 5 1803 -1 22 -1 22 -181 22
l-180 0 0 350 0 350 1843 -2 1842 -3 0 -345 0 -345 -168 -5 c-168 -5 -168 -5
-150 -25 30 -34 375 -492 423 -563 25 -36 50 -67 55 -69 6 -1 32 31 59 72 27
42 84 124 128 183 44 59 87 117 96 130 37 50 94 128 105 142 26 32 87 120 87
125 0 3 -71 5 -158 5 l-158 0 1 348 0 347 910 0 910 0 0 -347 c0 -303 -2 -348
-15 -349 -8 0 -99 0 -201 0 l-186 0 -65 -87 c-93 -124 -486 -644 -501 -662 -7
-8 -94 -125 -195 -258 -126 -167 -181 -247 -174 -255 35 -47 635 -824 650
-842 4 -5 63 -82 131 -170 68 -88 127 -164 132 -169 5 -6 99 -10 211 -10 l203
-1 0 -347 c0 -228 -3 -348 -10 -349 -29 -3 -1872 -4 -1885 -1 -13 3 -15 48
-13 340 0 185 2 342 2 348 1 7 52 10 159 9 86 0 162 1 169 3 10 3 -26 61 -57
92 -3 3 -25 32 -50 65 -24 33 -50 66 -57 75 -61 74 -271 355 -300 402 -20 32
-39 58 -42 58 -4 0 -15 -15 -25 -32 -39 -67 -197 -301 -238 -353 -10 -13 -132
-183 -181 -252 -22 -32 -31 -53 -24 -55 7 -2 81 -3 165 -3 118 1 152 -2 153
-12 1 -17 1 -659 0 -675 -1 -10 -187 -13 -899 -12 -493 1 -902 2 -908 3 -8 1
-11 101 -10 349 l1 347 193 1 c106 0 196 4 200 10 5 5 103 135 218 289 114
154 212 285 216 290 5 6 32 42 61 80 28 39 55 72 58 75 3 3 10 12 15 21 5 9
21 32 36 50 148 188 337 452 331 462 -4 7 -23 33 -42 58 -20 25 -47 60 -61 79
-14 18 -52 68 -85 110 -33 43 -98 128 -145 190 -75 99 -164 215 -188 245 -20
26 -194 253 -280 367 l-96 127 -381 0 -380 0 -1 -897 c0 -992 -1 -1003 -51
-1217 -64 -272 -177 -490 -343 -655 -96 -97 -108 -107 -205 -172 -181 -121
-475 -229 -690 -254 -22 -3 -46 -7 -53 -9 -7 -3 -58 -8 -115 -11 -406 -28
-743 33 -1062 191 -395 196 -626 501 -714 945 -32 160 -34 229 -35 1175 l-1
900 -190 2 c-104 2 -201 3 -215 3 l-25 0 1 343 c1 188 2 345 3 350 0 4 420 7
931 7 l930 0 1 -127z"/>
</g>
</svg>
