<svg xmlns="http://www.w3.org/2000/svg" width="80" height="103" viewBox="0 0 80 103">
  <g fill-rule="evenodd" fill="currentColor">
    <path d="M7.40472988 64.0823991C8.2051135 64.0823991 8.88323502 64.0412929 9.5813806 63.8127732 11.0797172 63.2931979 12.2497754 61.8392831 12.2497754 59.9067043 12.2497754 58.2458945 11.4079959 56.8124354 9.84823934 56.3550065 10.9770941 55.7323732 11.6748546 54.5893854 11.6748546 53.1565108 11.6748546 51.5775238 10.8332676 50.3727792 9.68400374 49.8535935 8.96525655 49.5210419 8.18508949 49.4173995 7.13806368 49.4173995L.548039396 49.4173995.548039396 51.0172318 2.35443808 51.0172318 2.35443808 62.4626956.548039396 62.4626956.548039396 64.0823991 7.40472988 64.0823991zM4.40786399 51.1204845L7.13825622 51.1204845C7.75438027 51.1204845 8.22629276 51.2034763 8.63697797 51.4117351 9.25290947 51.7647424 9.58157314 52.4917972 9.58157314 53.3431449 9.58157314 54.6727668 8.76039532 55.5866506 7.44651079 55.5866506L4.40786399 55.5868454 4.40786399 51.1204845zM4.40786399 57.29032L7.65137203 57.29032C9.17069543 57.29032 10.1559163 58.2870007 10.1559163 59.8026724 10.1559163 60.9039695 9.62239136 61.8186325 8.78061188 62.1716399 8.39033582 62.3380131 7.89743657 62.3787297 7.48732901 62.3787297L4.40786399 62.3787297 4.40786399 57.29032zM18.1768886 64.0823991L18.1768886 62.524842 16.6371562 62.524842 16.6371562 59.7403311C16.6371562 57.6848233 17.5815588 55.4204722 19.7990277 55.4204722 20.1273063 55.4204722 20.3733709 55.4826186 20.3733709 55.4826186L20.3733709 53.4888676C20.3733709 53.4888676 20.1271138 53.446982 19.8600625 53.446982 18.2589102 53.446982 17.0476488 54.6521163 16.5751587 56.1888281L16.5343405 56.1888281C16.5343405 56.1888281 16.5751587 55.8773167 16.5751587 55.4619681L16.5751587 54.7972545C16.5751587 53.9455172 16.1442569 53.5716645 15.2410576 53.5716645L12.9007489 53.5716645 12.9007489 55.1296113 14.1942243 55.1296113C14.4814922 55.1296113 14.6457277 55.2749443 14.6457277 55.5866506L14.6457277 62.5244523 13.0853936 62.5244523 13.0853936 64.082594 18.1768886 64.0823991zM24.9507875 51.4744659L24.9507875 49.4177892 22.8571209 49.4177892 22.8571209 51.4744659 24.9507875 51.4744659zM26.5317233 64.0823991L26.5317233 62.524842 24.8891751 62.524842 24.8891751 53.5718593 21.1733694 53.5718593 21.1733694 55.1300009 22.8977466 55.1300009 22.8977466 62.5252316 21.2758001 62.5252316 21.2758001 64.0823991 26.5317233 64.0823991zM27.561228 67.5729246C28.5876522 68.0919156 29.8607185 68.4453125 31.1129906 68.4453125 33.7409522 68.4453125 36.3477345 67.1156905 36.3477345 63.6469845L36.3477345 55.5455443C36.3477345 55.275334 36.5323793 55.1300009 36.8000083 55.1300009L37.9494645 55.1300009 37.9494645 53.5718593 35.7323807 53.5718593C34.8699995 53.5718593 34.5417209 53.9665574 34.5417209 54.631271 34.5417209 54.9016761 34.5825391 55.047204 34.5825391 55.047204L34.5417209 55.047204C33.9671853 53.8420697 32.5302684 53.3226892 31.1749881 53.3226892 28.2805528 53.3226892 26.617403 55.5660001 26.617403 58.5780565 26.617403 61.6105686 28.3829835 63.9577166 31.2570096 63.9577166 32.776333 63.9577166 33.7617464 63.2933927 34.3776779 62.2548265L34.4184961 62.2548265C34.4184961 62.2548265 34.3570763 62.5867936 34.3570763 62.9193452L34.3570763 63.7502372C34.3570763 65.9111407 32.8789562 66.741643 31.0721724 66.741643 29.5114532 66.7412534 28.2185554 66.0348491 28.2185554 66.0348491L27.561228 67.5729246zM28.6492646 58.5367554C28.6492646 56.3970868 29.6760738 55.0672701 31.4616783 55.0672701 33.0838174 55.0672701 34.3977019 55.8566661 34.3977019 58.598707 34.3975094 61.3399686 33.0838174 62.2133306 31.6467081 62.2133306 29.7781193 62.2133306 28.6492646 60.7171406 28.6492646 58.5367554z"/>
    <path d="M42.9518141 64.0823991L42.9518141 62.524842 41.3102288 62.524842 41.3102288 59.1591938C41.3102288 56.9160777 42.7467603 55.171302 44.7793923 55.171302 46.4417719 55.171302 46.7498338 56.3345508 46.7498338 57.8097006L46.7498338 64.0829836 50.3632087 64.0829836 50.3632087 62.5254264 48.7418398 62.5254264 48.7418398 57.3522716C48.7418398 54.6727668 47.6124075 53.3222995 45.1698606 53.3222995 43.0964109 53.3222995 41.7419005 54.7140679 41.2900121 55.7317888L41.2493865 55.7317888C41.2493865 55.7317888 41.3104212 55.3577413 41.3104212 54.8592062L41.3104212 49.4172047 37.5948082 49.4172047 37.5948082 50.9749567 39.3395942 50.9749567 39.3395942 62.5246472 37.6976239 62.5246472 37.6972386 64.0823991 42.9518141 64.0823991zM55.325318 64.1655858C55.756412 64.1655858 56.0436799 64.1242847 56.0436799 64.1242847L56.0436799 62.4424347C56.0436799 62.4424347 55.8586501 62.4626956 55.5711898 62.4626956 54.7910229 62.4626956 53.3535283 62.1922904 53.3535283 60.0520374L53.3535283 55.1298061 55.837471 55.1298061 55.837471 53.5716645 53.3535283 53.5716645 53.3535283 50.6846802 51.4031108 50.6846802 51.4031108 53.5720542 49.616736 53.5720542 49.616736 55.1301958 51.3621001 55.1301958 51.3621001 60.2394508C51.3630625 63.7502372 54.0110482 64.1655858 55.325318 64.1655858z"/>
    <path d="M61.5015764 64.3315693C64.6022206 64.3315693 67.1069573 62.004877 67.1069573 58.8061865 67.1069573 55.6283413 64.602413 53.3224944 61.5015764 53.3224944 58.4011246 53.3224944 55.8973506 55.6283413 55.8973506 58.8061865 55.8973506 62.0054615 58.4011246 64.3315693 61.5015764 64.3315693zM61.5015764 55.0672701C63.451609 55.0672701 65.073748 56.6254117 65.073748 58.8061865 65.073748 61.0080015 63.4518013 62.5865988 61.5015764 62.5865988 59.5317122 62.586404 57.9295972 61.0080015 57.9295972 58.8061865 57.9295972 56.6256065 59.5311345 55.0672701 61.5015764 55.0672701zM72.7163818 64.0823991L72.7163818 62.524842 71.0734485 62.524842 71.0734485 59.2010793C71.0734485 57.1031015 72.4487529 55.1711072 74.5435746 55.1711072 76.2057616 55.1711072 76.4939922 56.334356 76.4939922 57.8095057L76.4939922 64.0827888 80.1273915 64.0827888 80.1273915 62.5252316 78.4850355 62.5252316 78.4850355 57.3520768C78.4850355 54.672572 77.4172156 53.3221047 75.0360887 53.3221047 72.4079345 53.3221047 71.1964806 55.3158558 70.9916194 55.876927L70.9506087 55.876927C70.9506087 55.876927 71.0120284 55.6069115 71.0120284 55.2745547L71.0120284 54.7347184C71.0120284 53.9659729 70.6009584 53.5712749 69.698144 53.5712749L67.3578355 53.5712749 67.3578355 55.1294165 68.6307092 55.1294165C68.9183621 55.1294165 69.0831753 55.2747495 69.0831753 55.5862609L69.0831753 62.5242575 67.4608436 62.5242575 67.4608436 64.0818147 72.7163818 64.0823991zM40.0005716 38.4083045L58.1298394 38.4083045 58.1298394 31.424769 54.7912003 31.424769 58.3996744 26.3750217C59.1005602 25.3536667 59.4767287 24.5484445 59.5842052 24.5484445L59.6922536 24.5484445C59.6922536 24.5484445 60.1764709 25.4072722 60.9305228 26.3750217L64.8088325 31.424769 61.3615734 31.424769 61.3615734 38.4083045 80.3786675 38.4083045 80.3786675 31.424769 76.3191339 31.424769 67.0555536 19.4473727 76.4803488 6.98467599 80.4844291 6.98467599 80.4844291 0 62.3300073 0 62.3300073 6.98410574 65.5611696 6.98410574 62.0058619 11.818861C61.2518097 12.8396457 60.8219028 13.6460085 60.8219028 13.5912625L60.7144263 13.5912625C60.7144263 13.5912625 60.2296374 12.7848997 59.4761571 11.818861L55.8145159 6.98410574 59.153155 6.98410574 59.153155 0 41.0707657 0 41.0707657 6.98410574 44.3013564 6.98410574 53.3488394 18.8023965 43.8703059 31.4253393 40 31.4253393 40 38.4083045 40.0005716 38.4083045 40.0005716 38.4083045z"/>
    <path d="M20.5893765 39.100346C25.6417112 39.100346 30.7488261 37.4331 33.7046759 33.7765781 35.6933121 31.3031158 36.8762228 27.5894965 36.8762228 23.7725308L36.8762228 6.99272689 41.5224913 6.99272689 41.5224913 0 22.5734479 0 22.5734479 6.99272689 26.1843779 6.99272689 26.1843779 23.7736727C26.1843779 25.5465491 25.9139005 26.9454371 25.3272955 28.0759669 24.3344039 29.9047988 22.7103985 30.7646867 20.6333148 30.7646867 18.4215632 30.7646867 16.6617484 29.742071 15.8046661 28.0200114 15.307079 26.9985377 14.9920927 25.4928775 14.9920927 23.7731017L14.9920927 6.99272689 18.6024521 6.99272689 18.6024521 0 0 0 0 6.99272689 4.30138907 6.99272689 4.30138907 23.7731017C4.30253031 27.8053249 5.26917308 31.3562164 7.52771619 33.937022 10.3220784 37.1641709 15.1062182 39.100346 20.5893765 39.100346zM3.17 102.412C3.068 101.766 3 101.154 3 100.576 3 92.008 14.934 90.954 14.934 85.038 14.934 82.556 13.166 80.992 10.616 80.992 7.454 80.992 5.652 84.188 5.652 84.188L3.272 82.556C3.272 82.556 5.448 78 10.888 78 15.274 78 18.47 80.754 18.47 84.902 18.47 92.62 6.74 93.878 6.672 99.624L16.464 99.624 16.464 96.428 19.422 96.428 19.422 102.412 3.17 102.412zM31.798 102.82C25.372 102.82 23.298 97.312 23.298 90.376 23.298 83.474 25.372 78 31.798 78 38.19 78 40.298 83.474 40.298 90.376 40.298 97.312 38.19 102.82 31.798 102.82zM31.798 99.794C35.708 99.794 36.83 95.68 36.83 90.376 36.83 85.14 35.708 80.992 31.798 80.992 27.854 80.992 26.766 85.14 26.766 90.376 26.766 95.68 27.854 99.794 31.798 99.794zM44.072 102.412L44.072 99.624 49.376 99.624 49.376 83.984C49.376 83.236 49.41 82.522 49.41 82.522L49.342 82.522C49.342 82.522 49.07 83.032 48.186 83.882L45.942 86.092 43.902 83.984 49.648 78.408 52.64 78.408 52.64 99.624 57.876 99.624 57.876 102.412 44.072 102.412zM60.46 95.646C60.46 91.804 63.656 89.594 64.336 89.118 62.636 87.996 61.412 86.5 61.412 84.29 61.412 81.094 63.86 78 68.892 78 73.38 78 76.508 80.516 76.508 84.324 76.508 87.622 74.094 90.172 73.652 90.614 75.624 91.77 77.086 93.368 77.086 95.816 77.086 99.488 73.856 102.82 68.858 102.82 64.064 102.82 60.46 99.76 60.46 95.646zM64.744 84.324C64.744 87.078 67.94 87.996 71.136 89.39 71.51 88.948 73.21 87.078 73.21 84.698 73.21 82.318 71.476 80.924 68.892 80.924 66.206 80.924 64.744 82.454 64.744 84.324zM63.86 95.306C63.86 98.06 66.206 99.862 68.824 99.862 71.34 99.862 73.652 98.162 73.652 95.816 73.652 93.028 70.456 92.246 66.716 90.546 66.036 91.056 63.86 92.62 63.86 95.306z"/>
  </g>
</svg>
