<svg xmlns="http://www.w3.org/2000/svg" width="100" height="136" viewBox="0 0 100 136">
  <g fill-rule="evenodd" fill="currentColor">
    <path d="M0 0L100 0 100 100 0 100 0 0zM51 22.9010235L54.2498872 22.9005352 63.1891097 34.5774106 53.8239945 47.0493096 50 47.0493096 50 53.9487179 67.9129012 53.9487179 67.9129012 47.0487462 64.6142116 47.0487462 68.1795074 42.0594231C68.8720065 41.0502895 69.2436738 40.2547024 69.3498643 40.2547024 69.4566198 40.2547024 69.9350431 41.1032536 70.6800721 42.0594231L74.5119747 47.0487462 71.1059648 47.0487462 71.1059648 53.9487179 89.8955039 53.9487179 89.8955039 47.0487462 85.884546 47.0487462 76.731812 35.2146691 86.0438318 22.9010987 90 22.9010987 90 16 72.0628106 16 72.0628106 22.9005352 75.2553094 22.9005352 71.7425439 27.6774388C70.9975145 28.6860089 70.5727518 29.4827229 70.5727518 29.428632 70.4665614 29.428632 69.9875733 28.631918 69.2431091 27.6774388L65.6252824 22.9005352 68.923972 22.9005352 68.923972 16 32.2893987 16 32.2893987 22.904183 35.8548911 22.904183 35.8548911 39.4726439C35.8548911 41.2230716 35.5878172 42.6042465 35.0085937 43.7204613 34.028196 45.526136 32.424626 46.3751357 30.373679 46.3751357 28.1897585 46.3751357 26.4520881 45.3654687 25.6057907 43.6652142 25.114465 42.6566747 24.8034422 41.1700796 24.8034422 39.4720801L24.8034422 22.904183 28.3683712 22.904183 28.3683712 16 10 16 10 22.904183 14.2472633 22.904183 14.2472633 39.4720801C14.2483901 43.4532462 15.2028693 46.9591753 17.4329924 49.507302 20.1921922 52.6935879 24.9161316 54.6052466 30.3302936 54.6052466 35.319053 54.6052466 40.3619034 52.9591117 43.2805587 49.3488897 45.2441713 46.9067471 46.412197 43.2401507 46.412197 39.4715164L46.412197 22.904183 51 22.904183 51 22.9010235zM11.1467001 79.2569296L17.8805623 79.2569296C18.6666081 79.2569296 19.332582 79.2165597 20.0182212 78.9921337 21.4897172 78.4818659 22.6388153 77.053996 22.6388153 75.1560368 22.6388153 73.5249781 21.8121151 72.1171975 20.2802995 71.6679628L20.2802995 71.6275929C21.3889324 71.0564832 22.0741934 69.9339705 22.0741934 68.5267638 22.0741934 66.9760623 21.2476824 65.792899 20.119006 65.2830138 19.4131342 64.9564194 18.6469428 64.8546337 17.618673 64.8546337L11.1467001 64.8546337 11.1467001 66.4258072 12.9207396 66.4258072 12.9207396 77.6662409 11.1467001 77.6662409 11.1467001 79.2569296zM14.9373812 70.9135623L14.9373812 66.5272102 17.6188621 66.5272102C18.2239491 66.5272102 18.687408 66.6087153 19.0907363 66.8132434 19.6956342 67.1599271 20.0184103 67.8739577 20.0184103 68.7100546 20.0184103 70.0158582 19.2119428 70.913371 17.9215947 70.913371L14.9373812 70.9135623zM14.9373812 77.5843531L14.9373812 72.5865215 18.1227861 72.5865215C19.6148929 72.5865215 20.5824649 73.565348 20.5824649 75.0538684 20.5824649 76.1354373 20.0584973 77.0337153 19.2317972 77.380399 18.8485124 77.5437919 18.3644428 77.5837791 17.9616817 77.5837791L14.9373812 77.5837791 14.9373812 77.5843531zM23.4596536 79.2569296L28.4597523 79.2569296 28.4597523 77.727274 26.9476021 77.727274 26.9476021 74.9926439C26.9476021 72.9739577 27.875087 70.7501694 30.052833 70.7501694 30.3752309 70.7501694 30.6168875 70.8112026 30.6168875 70.8112026L30.6168875 68.8531669C30.6168875 68.8531669 30.3750418 68.8120317 30.1127744 68.8120317 28.5403045 68.8120317 27.3507413 69.9955776 26.8867152 71.5047612L26.8466282 71.5047612C26.8466282 71.5047612 26.8867152 71.1988301 26.8867152 70.790922L26.8867152 70.1381159C26.8867152 69.3016362 26.4635325 68.9344807 25.5765127 68.9344807L23.2781275 68.9344807 23.2781275 70.4645189 24.548432 70.4645189C24.8305539 70.4645189 24.9918474 70.6072485 24.9918474 70.913371L24.9918474 77.7268914 23.4594645 77.7268914 23.4594645 79.257121 23.4596536 79.2569296zM33.0561446 66.8748506L35.1123059 66.8748506 35.1123059 64.8550164 33.0561446 64.8550164 33.0561446 66.8748506zM31.50334 79.2569296L36.6649214 79.2569296 36.6649214 77.727274 35.0517972 77.727274 35.0517972 68.934672 31.4025552 68.934672 31.4025552 70.4649016 33.0960425 70.4649016 33.0960425 77.7276567 31.5031509 77.7276567 31.5031509 79.2569296 31.50334 79.2569296zM47.6304215 79.2569296L52.7908684 79.2569296 52.7908684 77.727274 51.1786899 77.727274 51.1786899 74.4219169C51.1786899 72.2189832 52.5894878 70.5054628 54.585708 70.5054628 56.2183083 70.5054628 56.5208517 71.6478735 56.5208517 73.096598L56.5208517 79.2575036 60.0694979 79.2575036 60.0694979 77.727848 58.4771736 77.727848 58.4771736 72.6473633C58.4771736 70.0158582 57.3679736 68.6895827 54.9691816 68.6895827 52.932875 68.6895827 51.6026288 70.0564194 51.1588354 71.0559092L51.1189375 71.0559092C51.1189375 71.0559092 51.1788788 70.6885623 51.1788788 70.1989577L51.1788788 64.8544424 47.529826 64.8544424 47.529826 66.3842893 49.2433566 66.3842893 49.2433566 77.7270827 47.6308 77.7270827 47.6304215 79.2569296zM61.0514406 75.4828225C61.0514406 78.9307179 63.6519913 79.3386261 64.9427177 79.3386261 65.3660892 79.3386261 65.6482111 79.2980648 65.6482111 79.2980648L65.6482111 77.6463429C65.6482111 77.6463429 65.4664958 77.6662409 65.1841851 77.6662409 64.4179937 77.6662409 63.00625 77.4006796 63.00625 75.2987664L63.00625 70.4647102 65.4456962 70.4647102 65.4456962 68.9344807 63.00625 68.9344807 63.00625 66.0992128 61.0907715 66.0992128 61.0907715 68.9348633 59.3363972 68.9348633 59.3363972 70.4650929 61.0504955 70.4650929 61.0504955 75.4828225 61.0514406 75.4828225zM76.8600955 79.2569296L82.0222441 79.2569296 82.0222441 77.727274 80.4087417 77.727274 80.4087417 74.4630521C80.4087417 72.4026567 81.7594094 70.5052715 83.8167052 70.5052715 85.4491163 70.5052715 85.7321837 71.6476822 85.7321837 73.0964067L85.7321837 79.2573123 89.3004955 79.2573123 89.3004955 77.7276567 87.6875601 77.7276567 87.6875601 72.647172C87.6875601 70.0156669 86.6388688 68.6893914 84.3003965 68.6893914 81.7193222 68.6893914 80.5295698 70.6474271 80.3283785 71.1984475L80.2881024 71.1984475C80.2881024 71.1984475 80.3484219 70.9332689 80.3484219 70.6068659L80.3484219 70.0767C80.3484219 69.3217256 79.9447156 68.934098 79.058074 68.934098L76.7596889 68.934098 76.7596889 70.4643276 78.0097608 70.4643276C78.2922608 70.4643276 78.4541215 70.6070572 78.4541215 70.9129883L78.4541215 77.7267 76.8608517 77.7267 76.8608517 79.2563557 76.8600955 79.2563557 76.8600955 79.2569296zM65.5045031 74.0752332C65.5045031 77.2171975 67.9634253 79.5016363 71.0083368 79.5016363 74.0534372 79.5016363 76.5133049 77.2166235 76.5133049 74.0752332 76.5133049 70.9543148 74.053626 68.689774 71.0083368 68.689774 67.9634253 68.689774 65.5045031 70.9543148 65.5045031 74.0752332zM67.5003448 74.0752332C67.5003448 71.9337153 69.0731927 70.4032944 71.0083368 70.4032944 72.9234372 70.4032944 74.5165177 71.933524 74.5165177 74.0752332 74.5165177 76.2376057 72.923626 77.7879245 71.0083368 77.7879245 69.0737601 77.7877332 67.5003448 76.2376057 67.5003448 74.0752332zM38.3215361 81.1744041L37.6759839 82.6849271C38.6840211 83.194621 39.9342821 83.5416873 41.1641215 83.5416873 43.7450067 83.5416873 46.305092 82.2358837 46.305092 78.8293148L46.305092 70.8730011C46.305092 70.6076312 46.4864292 70.4649016 46.7492639 70.4649016L47.8781292 70.4649016 47.8781292 68.934672 45.7007614 68.934672C44.8538286 68.934672 44.5314307 69.3222995 44.5314307 69.9751057 44.5314307 70.2406669 44.5715177 70.3835878 44.5715177 70.3835878L44.5314307 70.3835878C43.9671871 69.2000419 42.5560107 68.6899653 41.2250084 68.6899653 38.382423 68.6899653 36.7490662 70.8930903 36.7490662 73.8511898 36.7490662 76.8293786 38.4830187 79.1344807 41.3055606 79.1344807 42.7976673 79.1344807 43.7654284 78.4820572 44.3703263 77.4620955L44.4104133 77.4620955C44.4104133 77.4620955 44.3500937 77.7881159 44.3500937 78.1147102L44.3500937 78.9307179C44.3500937 81.0529118 42.8984522 81.8685368 41.1240345 81.8685368 39.5912734 81.8681541 38.3215361 81.1744041 38.3215361 81.1744041zM41.6882781 77.4213429C39.8531626 77.4213429 38.7445298 75.9519551 38.7445298 73.8106286 38.7445298 71.7092893 39.7529451 70.4032944 41.5065629 70.4032944 43.0996436 70.4032944 44.3899916 71.1785495 44.3899916 73.8714705 44.3898025 76.5636261 43.0996436 77.4213429 41.6882781 77.4213429zM11.6406318 135.572993C11.5338801 134.8969 11.4627123 134.25639 11.4627123 133.651464 11.4627123 124.684324 23.9526563 123.581224 23.9526563 117.389628 23.9526563 114.792004 22.1022943 113.155145 19.4335028 113.155145 16.1242014 113.155145 14.2382554 116.50003 14.2382554 116.50003L11.7473834 114.792004C11.7473834 114.792004 14.0247521 110.023763 19.7181739 110.023763 24.3084952 110.023763 27.6533805 112.906058 27.6533805 117.247292 27.6533805 125.324834 15.3769398 126.641438 15.305772 132.655115L25.5539312 132.655115 25.5539312 129.310229 28.6497293 129.310229 28.6497293 135.572993 11.6406318 135.572993zM41.6022638 136C34.8769093 136 32.7062923 130.23541 32.7062923 122.976298 32.7062923 115.752769 34.8769093 110.023763 41.6022638 110.023763 48.2920344 110.023763 50.4982353 115.752769 50.4982353 122.976298 50.4982353 130.23541 48.2920344 136 41.6022638 136zM41.6022638 132.833034C45.6944107 132.833034 46.8686789 128.527384 46.8686789 122.976298 46.8686789 117.496379 45.6944107 113.155145 41.6022638 113.155145 37.474533 113.155145 36.3358487 117.496379 36.3358487 122.976298 36.3358487 128.527384 37.474533 132.833034 41.6022638 132.833034zM54.4480467 135.572993L54.4480467 132.655115 59.9991329 132.655115 59.9991329 116.286527C59.9991329 115.503682 60.0347168 114.75642 60.0347168 114.75642L59.963549 114.75642C59.963549 114.75642 59.6788779 115.290178 58.7536969 116.179775L56.4051604 118.492728 54.2701272 116.286527 60.283804 110.45077 63.4151859 110.45077 63.4151859 132.655115 68.8951044 132.655115 68.8951044 135.572993 54.4480467 135.572993zM71.5994797 128.4918C71.5994797 124.470821 74.944365 122.157868 75.6560427 121.659694 73.8768484 120.485426 72.5958285 118.919735 72.5958285 116.606782 72.5958285 113.261897 75.1578683 110.023763 80.4242835 110.023763 85.1213564 110.023763 88.3950739 112.656971 88.3950739 116.642366 88.3950739 120.094003 85.868618 122.762794 85.4060275 123.225385 87.4698929 124.435237 89 126.10768 89 128.669719 89 132.512779 85.6195308 136 80.3886996 136 75.3713716 136 71.5994797 132.79745 71.5994797 128.4918zM76.0830494 116.642366C76.0830494 119.524661 79.4279347 120.485426 82.7728199 121.944365 83.1642427 121.481774 84.943437 119.524661 84.943437 117.033789 84.943437 114.542917 83.1286588 113.083977 80.4242835 113.083977 77.6131565 113.083977 76.0830494 114.685252 76.0830494 116.642366zM75.1578683 128.135961C75.1578683 131.018256 77.6131565 132.904202 80.3531157 132.904202 82.9863233 132.904202 85.4060275 131.125008 85.4060275 128.669719 85.4060275 125.751841 82.0611422 124.933411 78.1469148 123.154217 77.435237 123.687975 75.1578683 125.324834 75.1578683 128.135961z"/>
  </g>
</svg>
