<svg xmlns="http://www.w3.org/2000/svg" width="81" height="69" viewBox="0 0 81 69">
  <g fill-rule="evenodd">
    <path d="M7.40472988,64.0823991 C8.2051135,64.0823991 8.88323502,64.0412929 9.5813806,63.8127732 C11.0797172,63.2931979 12.2497754,61.8392831 12.2497754,59.9067043 C12.2497754,58.2458945 11.4079959,56.8124354 9.84823934,56.3550065 C10.9770941,55.7323732 11.6748546,54.5893854 11.6748546,53.1565108 C11.6748546,51.5775238 10.8332676,50.3727792 9.68400374,49.8535935 C8.96525655,49.5210419 8.18508949,49.4173995 7.13806368,49.4173995 L0.548039396,49.4173995 L0.548039396,51.0172318 L2.35443808,51.0172318 L2.35443808,62.4626956 L0.548039396,62.4626956 L0.548039396,64.0823991 L7.40472988,64.0823991 Z M4.40786399,51.1204845 L7.13825622,51.1204845 C7.75438027,51.1204845 8.22629276,51.2034763 8.63697797,51.4117351 C9.25290947,51.7647424 9.58157314,52.4917972 9.58157314,53.3431449 C9.58157314,54.6727668 8.76039532,55.5866506 7.44651079,55.5866506 L4.40786399,55.5868454 L4.40786399,51.1204845 Z M4.40786399,57.29032 L7.65137203,57.29032 C9.17069543,57.29032 10.1559163,58.2870007 10.1559163,59.8026724 C10.1559163,60.9039695 9.62239136,61.8186325 8.78061188,62.1716399 C8.39033582,62.3380131 7.89743657,62.3787297 7.48732901,62.3787297 L4.40786399,62.3787297 L4.40786399,57.29032 Z M18.1768886,64.0823991 L18.1768886,62.524842 L16.6371562,62.524842 L16.6371562,59.7403311 C16.6371562,57.6848233 17.5815588,55.4204722 19.7990277,55.4204722 C20.1273063,55.4204722 20.3733709,55.4826186 20.3733709,55.4826186 L20.3733709,53.4888676 C20.3733709,53.4888676 20.1271138,53.446982 19.8600625,53.446982 C18.2589102,53.446982 17.0476488,54.6521163 16.5751587,56.1888281 L16.5343405,56.1888281 C16.5343405,56.1888281 16.5751587,55.8773167 16.5751587,55.4619681 L16.5751587,54.7972545 C16.5751587,53.9455172 16.1442569,53.5716645 15.2410576,53.5716645 L12.9007489,53.5716645 L12.9007489,55.1296113 L14.1942243,55.1296113 C14.4814922,55.1296113 14.6457277,55.2749443 14.6457277,55.5866506 L14.6457277,62.5244523 L13.0853936,62.5244523 L13.0853936,64.082594 L18.1768886,64.0823991 Z M24.9507875,51.4744659 L24.9507875,49.4177892 L22.8571209,49.4177892 L22.8571209,51.4744659 L24.9507875,51.4744659 Z M26.5317233,64.0823991 L26.5317233,62.524842 L24.8891751,62.524842 L24.8891751,53.5718593 L21.1733694,53.5718593 L21.1733694,55.1300009 L22.8977466,55.1300009 L22.8977466,62.5252316 L21.2758001,62.5252316 L21.2758001,64.0823991 L26.5317233,64.0823991 Z M27.561228,67.5729246 C28.5876522,68.0919156 29.8607185,68.4453125 31.1129906,68.4453125 C33.7409522,68.4453125 36.3477345,67.1156905 36.3477345,63.6469845 L36.3477345,55.5455443 C36.3477345,55.275334 36.5323793,55.1300009 36.8000083,55.1300009 L37.9494645,55.1300009 L37.9494645,53.5718593 L35.7323807,53.5718593 C34.8699995,53.5718593 34.5417209,53.9665574 34.5417209,54.631271 C34.5417209,54.9016761 34.5825391,55.047204 34.5825391,55.047204 L34.5417209,55.047204 C33.9671853,53.8420697 32.5302684,53.3226892 31.1749881,53.3226892 C28.2805528,53.3226892 26.617403,55.5660001 26.617403,58.5780565 C26.617403,61.6105686 28.3829835,63.9577166 31.2570096,63.9577166 C32.776333,63.9577166 33.7617464,63.2933927 34.3776779,62.2548265 L34.4184961,62.2548265 C34.4184961,62.2548265 34.3570763,62.5867936 34.3570763,62.9193452 L34.3570763,63.7502372 C34.3570763,65.9111407 32.8789562,66.741643 31.0721724,66.741643 C29.5114532,66.7412534 28.2185554,66.0348491 28.2185554,66.0348491 L27.561228,67.5729246 Z M28.6492646,58.5367554 C28.6492646,56.3970868 29.6760738,55.0672701 31.4616783,55.0672701 C33.0838174,55.0672701 34.3977019,55.8566661 34.3977019,58.598707 C34.3975094,61.3399686 33.0838174,62.2133306 31.6467081,62.2133306 C29.7781193,62.2133306 28.6492646,60.7171406 28.6492646,58.5367554 Z"/>
    <path d="M42.9518141,64.0823991 L42.9518141,62.524842 L41.3102288,62.524842 L41.3102288,59.1591938 C41.3102288,56.9160777 42.7467603,55.171302 44.7793923,55.171302 C46.4417719,55.171302 46.7498338,56.3345508 46.7498338,57.8097006 L46.7498338,64.0829836 L50.3632087,64.0829836 L50.3632087,62.5254264 L48.7418398,62.5254264 L48.7418398,57.3522716 C48.7418398,54.6727668 47.6124075,53.3222995 45.1698606,53.3222995 C43.0964109,53.3222995 41.7419005,54.7140679 41.2900121,55.7317888 L41.2493865,55.7317888 C41.2493865,55.7317888 41.3104212,55.3577413 41.3104212,54.8592062 L41.3104212,49.4172047 L37.5948082,49.4172047 L37.5948082,50.9749567 L39.3395942,50.9749567 L39.3395942,62.5246472 L37.6976239,62.5246472 L37.6972386,64.0823991 L42.9518141,64.0823991 Z M55.325318,64.1655858 C55.756412,64.1655858 56.0436799,64.1242847 56.0436799,64.1242847 L56.0436799,62.4424347 C56.0436799,62.4424347 55.8586501,62.4626956 55.5711898,62.4626956 C54.7910229,62.4626956 53.3535283,62.1922904 53.3535283,60.0520374 L53.3535283,55.1298061 L55.837471,55.1298061 L55.837471,53.5716645 L53.3535283,53.5716645 L53.3535283,50.6846802 L51.4031108,50.6846802 L51.4031108,53.5720542 L49.616736,53.5720542 L49.616736,55.1301958 L51.3621001,55.1301958 L51.3621001,60.2394508 C51.3630625,63.7502372 54.0110482,64.1655858 55.325318,64.1655858 Z"/>
    <path d="M61.5015764,64.3315693 C64.6022206,64.3315693 67.1069573,62.004877 67.1069573,58.8061865 C67.1069573,55.6283413 64.602413,53.3224944 61.5015764,53.3224944 C58.4011246,53.3224944 55.8973506,55.6283413 55.8973506,58.8061865 C55.8973506,62.0054615 58.4011246,64.3315693 61.5015764,64.3315693 Z M61.5015764,55.0672701 C63.451609,55.0672701 65.073748,56.6254117 65.073748,58.8061865 C65.073748,61.0080015 63.4518013,62.5865988 61.5015764,62.5865988 C59.5317122,62.586404 57.9295972,61.0080015 57.9295972,58.8061865 C57.9295972,56.6256065 59.5311345,55.0672701 61.5015764,55.0672701 Z M72.7163818,64.0823991 L72.7163818,62.524842 L71.0734485,62.524842 L71.0734485,59.2010793 C71.0734485,57.1031015 72.4487529,55.1711072 74.5435746,55.1711072 C76.2057616,55.1711072 76.4939922,56.334356 76.4939922,57.8095057 L76.4939922,64.0827888 L80.1273915,64.0827888 L80.1273915,62.5252316 L78.4850355,62.5252316 L78.4850355,57.3520768 C78.4850355,54.672572 77.4172156,53.3221047 75.0360887,53.3221047 C72.4079345,53.3221047 71.1964806,55.3158558 70.9916194,55.876927 L70.9506087,55.876927 C70.9506087,55.876927 71.0120284,55.6069115 71.0120284,55.2745547 L71.0120284,54.7347184 C71.0120284,53.9659729 70.6009584,53.5712749 69.698144,53.5712749 L67.3578355,53.5712749 L67.3578355,55.1294165 L68.6307092,55.1294165 C68.9183621,55.1294165 69.0831753,55.2747495 69.0831753,55.5862609 L69.0831753,62.5242575 L67.4608436,62.5242575 L67.4608436,64.0818147 L72.7163818,64.0823991 Z M40.0005716,38.4083045 L58.1298394,38.4083045 L58.1298394,31.424769 L54.7912003,31.424769 L58.3996744,26.3750217 C59.1005602,25.3536667 59.4767287,24.5484445 59.5842052,24.5484445 L59.6922536,24.5484445 C59.6922536,24.5484445 60.1764709,25.4072722 60.9305228,26.3750217 L64.8088325,31.424769 L61.3615734,31.424769 L61.3615734,38.4083045 L80.3786675,38.4083045 L80.3786675,31.424769 L76.3191339,31.424769 L67.0555536,19.4473727 L76.4803488,6.98467599 L80.4844291,6.98467599 L80.4844291,0 L62.3300073,0 L62.3300073,6.98410574 L65.5611696,6.98410574 L62.0058619,11.818861 C61.2518097,12.8396457 60.8219028,13.6460085 60.8219028,13.5912625 L60.7144263,13.5912625 C60.7144263,13.5912625 60.2296374,12.7848997 59.4761571,11.818861 L55.8145159,6.98410574 L59.153155,6.98410574 L59.153155,0 L41.0707657,0 L41.0707657,6.98410574 L44.3013564,6.98410574 L53.3488394,18.8023965 L43.8703059,31.4253393 L40,31.4253393 L40,38.4083045 L40.0005716,38.4083045 Z"/>
    <path d="M20.5893765,39.100346 C25.6417112,39.100346 30.7488261,37.4331 33.7046759,33.7765781 C35.6933121,31.3031158 36.8762228,27.5894965 36.8762228,23.7725308 L36.8762228,6.99272689 L41.5224913,6.99272689 L41.5224913,0 L22.5734479,0 L22.5734479,6.99272689 L26.1843779,6.99272689 L26.1843779,23.7736727 C26.1843779,25.5465491 25.9139005,26.9454371 25.3272955,28.0759669 C24.3344039,29.9047988 22.7103985,30.7646867 20.6333148,30.7646867 C18.4215632,30.7646867 16.6617484,29.742071 15.8046661,28.0200114 C15.307079,26.9985377 14.9920927,25.4928775 14.9920927,23.7731017 L14.9920927,6.99272689 L18.6024521,6.99272689 L18.6024521,0 L0,0 L0,6.99272689 L4.30138907,6.99272689 L4.30138907,23.7731017 C4.30253031,27.8053249 5.26917308,31.3562164 7.52771619,33.937022 C10.3220784,37.1641709 15.1062182,39.100346 20.5893765,39.100346 Z"/>
  </g>
</svg>
