<svg xmlns="http://www.w3.org/2000/svg" width="473" height="84" viewBox="0 0 473 84">
  <g fill-rule="evenodd" transform="translate(-.324 .635)">
    <path d="M122.761516 63.9099405L152.935468 63.9099405C156.457682 63.9099405 159.441864 63.7311608 162.514164 62.7372811 169.107831 60.4775392 174.256857 54.1541595 174.256857 45.7489703 174.256857 38.5257608 170.552473 32.2913473 163.688518 30.3018932L163.688518 30.1231135C168.656222 27.5939311 171.726827 22.6228378 171.726827 16.3909662 171.726827 9.52362162 168.023291 4.28393514 162.965773 2.02588784 159.802812.579551351 156.369564.128789189 151.761961.128789189L122.761516.128789189 122.761516 7.08679459 130.710859 7.08679459 130.710859 56.8655108 122.761516 56.8655108 122.761516 63.9099405 122.761516 63.9099405zM139.747285 26.961L139.747285 7.53586216 151.762808 7.53586216C154.474159 7.53586216 156.550885 7.89681081 158.35817 8.80257162 161.068674 10.3378743 162.515011 13.4999878 162.515011 17.202677 162.515011 22.9854811 158.901288 26.9601527 153.119331 26.9601527L139.747285 26.961 139.747285 26.961zM139.747285 56.5028676L139.747285 34.3697676 154.020855 34.3697676C160.706878 34.3697676 165.042499 38.7045405 165.042499 45.2965135 165.042499 50.0862851 162.694638 54.0643459 158.990254 55.5996486 157.272782 56.3232405 155.103701 56.5003257 153.298958 56.5003257L139.747285 56.5003257 139.747285 56.5028676 139.747285 56.5028676zM177.934974 63.9099405L200.340057 63.9099405 200.340057 57.1357986 193.56422 57.1357986 193.56422 45.0253784C193.56422 36.0855446 197.720214 26.2374081 207.478536 26.2374081 208.923178 26.2374081 210.006024 26.5076959 210.006024 26.5076959L210.006024 17.8364554C210.006024 17.8364554 208.922331 17.6542865 207.74713 17.6542865 200.701005 17.6542865 195.370658 22.8956676 193.291391 29.5791486L193.111764 29.5791486C193.111764 29.5791486 193.291391 28.2243203 193.291391 26.4178824L193.291391 23.5269041C193.291391 19.8225203 191.395139 18.1965568 187.420468 18.1965568L177.121569 18.1965568 177.121569 24.9723932 182.813712 24.9723932C184.07788 24.9723932 184.800624 25.604477 184.800624 26.9601527L184.800624 57.1341041 177.934127 57.1341041 177.934127 63.9107878 177.934974 63.9099405 177.934974 63.9099405zM220.936159 9.07540135L230.14967 9.07540135 230.14967.130483784 220.936159.130483784 220.936159 9.07540135 220.936159 9.07540135zM213.978154 63.9099405L237.106828 63.9099405 237.106828 57.1357986 229.878535 57.1357986 229.878535 18.1974041 213.526545 18.1974041 213.526545 24.9740878 221.114939 24.9740878 221.114939 57.1374932 213.977307 57.1374932 213.977307 63.9099405 213.978154 63.9099405 213.978154 63.9099405zM244.53 72.4015541L241.637327 79.0909662C246.154269 81.3481662 251.756599 82.8851635 257.26742 82.8851635 268.832181 82.8851635 280.303739 77.1023595 280.303739 62.0162311L280.303739 26.781373C280.303739 25.6061716 281.116297 24.9740878 282.294041 24.9740878L287.352405 24.9740878 287.352405 18.1974041 277.595777 18.1974041C273.800732 18.1974041 272.356091 19.9140284 272.356091 22.8050068 272.356091 23.9810554 272.535718 24.6139865 272.535718 24.6139865L272.356091 24.6139865C269.827755 19.3726054 263.504376 17.1137108 257.54025 17.1137108 244.80283 17.1137108 237.483876 26.8703392 237.483876 39.9704027 237.483876 53.1594324 245.253592 63.3676703 257.901199 63.3676703 264.587222 63.3676703 268.923689 60.4783865 271.634193 55.9614446L271.81382 55.9614446C271.81382 55.9614446 271.543532 57.4052392 271.543532 58.8515757L271.543532 62.4652986C271.543532 71.8635203 265.038831 75.4755486 257.087793 75.4755486 250.219601 75.4738541 244.53 72.4015541 244.53 72.4015541L244.53 72.4015541 244.53 72.4015541zM259.616128 55.7809703C251.393108 55.7809703 246.425404 49.273727 246.425404 39.7907757 246.425404 30.4849095 250.944041 24.7012581 258.801876 24.7012581 265.940355 24.7012581 271.722312 28.1345068 271.722312 40.0602162 271.721465 51.9825365 265.940355 55.7809703 259.616128 55.7809703L259.616128 55.7809703 259.616128 55.7809703z"/>
    <path d="M286.242446 63.9099405L309.366036 63.9099405 309.366036 57.1357986 302.14198 57.1357986 302.14198 42.4978905C302.14198 32.7421095 308.463665 25.1537149 317.408582 25.1537149 324.724147 25.1537149 326.079823 30.212927 326.079823 36.6286622L326.079823 63.9124824 341.981051 63.9124824 341.981051 57.1383405 334.845961 57.1383405 334.845961 34.6392081C334.845961 22.9854811 329.875715 17.1120162 319.126901 17.1120162 310.002357 17.1120162 304.04162 23.1651081 302.053014 27.5913892L301.874234 27.5913892C301.874234 27.5913892 302.142827 25.9645784 302.142827 23.7963446L302.142827.127941892 285.791684.127941892 285.791684 6.90293108 293.469892 6.90293108 293.469892 57.1349514 286.244141 57.1349514 286.242446 63.9099405 286.242446 63.9099405zM346.381066 47.1961541C346.381066 62.4652986 358.033946 64.2717365 363.817597 64.2717365 365.714696 64.2717365 366.978864 64.0921095 366.978864 64.0921095L366.978864 56.7773919C366.978864 56.7773919 366.164611 56.8655108 364.899596 56.8655108 361.466347 56.8655108 355.140426 55.6894622 355.140426 46.3810541L355.140426 24.9732405 366.071408 24.9732405 366.071408 18.1965568 355.140426 18.1965568 355.140426 5.64045811 346.557304 5.64045811 346.557304 18.1982514 338.69608 18.1982514 338.69608 24.9749351 346.37683 24.9749351 346.37683 47.1961541 346.381066 47.1961541 346.381066 47.1961541z"/>
    <path d="M366.334918 40.9625878C366.334918 54.8769041 377.353172 64.9936338 390.9972 64.9936338 404.642076 64.9936338 415.664566 54.8743622 415.664566 40.9625878 415.664566 27.1414743 404.642923 17.1128635 390.9972 17.1128635 377.353172 17.1128635 366.334918 27.1414743 366.334918 40.9625878L366.334918 40.9625878 366.334918 40.9625878zM375.278141 40.9625878C375.278141 31.4787892 382.325959 24.7012581 390.9972 24.7012581 399.578627 24.7012581 406.717107 31.4779419 406.717107 40.9625878 406.717107 50.5387419 399.579474 57.4043919 390.9972 57.4043919 382.328501 57.4035446 375.278141 50.5387419 375.278141 40.9625878L375.278141 40.9625878 375.278141 40.9625878zM417.218509 63.9099405L440.349726 63.9099405 440.349726 57.1357986 433.119738 57.1357986 433.119738 42.6800595C433.119738 33.5555149 439.171982 25.1528676 448.390577 25.1528676 455.705295 25.1528676 456.973699 30.2120797 456.973699 36.6278149L456.973699 63.9116351 472.963046 63.9116351 472.963046 57.1374932 465.7356 57.1374932 465.7356 34.6383608C465.7356 22.9846338 461.036489 17.1111689 450.557964 17.1111689 438.992355 17.1111689 433.661161 25.7824095 432.759636 28.2226257L432.579162 28.2226257C432.579162 28.2226257 432.84945 27.0482716 432.84945 25.6027824L432.84945 23.2549216C432.84945 19.9114865 431.04047 18.1948622 427.067493 18.1948622L416.768595 18.1948622 416.768595 24.9715459 422.370077 24.9715459C423.635939 24.9715459 424.361226 25.6036297 424.361226 26.9584581L424.361226 57.1332568 417.221899 57.1332568 417.221899 63.9073986 417.218509 63.9073986 417.218509 63.9099405 417.218509 63.9099405zM6.76821081 42.1225378C6.76821081 48.1078459 8.20353243 53.3797297 11.5588297 57.2129027 15.7088919 62.0035216 22.8177162 64.8784014 30.9619378 64.8784014 38.4672973 64.8784014 46.0548446 62.4025986 50.4446919 56.9748122 53.3983703 53.3026257 55.1565122 47.7892622 55.1565122 42.1233851L55.1565122 17.2086081 61.5451338 17.2086081 61.5451338 6.82667432 33.9113797 6.82667432 33.9113797 17.2086081 39.2756189 17.2086081 39.2756189 42.1225378C39.2756189 44.7525486 38.8731527 46.8318162 38.0021311 48.5094649 36.5269865 51.2250527 34.1138838 52.5010824 31.0288743 52.5010824 27.7430554 52.5010824 25.1291432 50.983573 23.8565027 48.4264297 23.1168122 46.9097676 22.6491041 44.67375 22.6491041 42.1216905L22.6491041 17.2086081 28.0124959 17.2086081 28.0124959 6.82667432.377894595 6.82667432.377894595 17.2086081 6.76736351 17.2086081 6.76736351 42.1216905 6.76821081 42.1216905 6.76821081 42.1225378 6.76821081 42.1225378z"/>
    <path d="M59.8107162,63.9209554 L86.6920703,63.9209554 L86.6920703,53.5390216 L81.7421595,53.5390216 L87.0919946,46.0328149 C88.1324757,44.5153054 88.6899973,43.3180743 88.8484419,43.3180743 L89.0085811,43.3180743 C89.0085811,43.3180743 89.7270892,44.5957986 90.8446743,46.0328149 L96.5944338,53.5390216 L91.4835365,53.5390216 L91.4835365,63.9209554 L119.681591,63.9209554 L119.681591,53.5390216 L113.662391,53.5390216 L99.9268541,35.7356108 L113.900481,17.2103027 L119.838341,17.2103027 L119.838341,6.82667432 L92.9188581,6.82667432 L92.9188581,17.2086081 L97.7103243,17.2086081 L92.4384405,24.3953838 C91.3200081,25.9120459 90.6828405,27.1109716 90.6828405,27.0287838 L90.5235486,27.0287838 C90.5235486,27.0287838 89.8033459,25.8307054 88.6874554,24.3953838 L83.2579743,17.2086081 L88.2078851,17.2086081 L88.2078851,6.82667432 L61.3968568,6.82667432 L61.3968568,17.2086081 L66.1866284,17.2086081 L79.6010392,34.775623 L65.5469189,53.5390216 L59.8081743,53.5390216 L59.8107162,63.9209554 L59.8107162,63.9209554 Z"/>
  </g>
</svg>
