<svg xmlns="http://www.w3.org/2000/svg" width="82" height="68" viewBox="0 0 82 68">
  <g fill="none" fill-rule="evenodd" transform="translate(-9.153 -15.472)">
    <rect width="99.654" height="99.654" x=".173" y=".173" fill="none"/>
    <g transform="translate(9.689 16.263)">
      <g fill="#C9003A" transform="translate(2.422 48.511)">
        <path d="M.166953767 14.381442L6.87751533 14.381442C7.66084128 14.381442 8.32451076 14.3412118 9.00777754 14.1175623 10.4741818 13.6090601 11.6193038 12.1861309 11.6193038 10.2947391 11.6193038 8.66932419 10.7954642 7.26641481 9.26894903 6.81873457L9.26894903 6.77850436C10.3737458 6.2093708 11.0566357 5.09074218 11.0566357 3.68840478 11.0566357 2.14306899 10.2329845.963999716 9.1082136.455878824 8.40478426.130414519 7.64124401.0289810042 6.61653228.0289810042L.166953767.0289810042.166953767 1.59471789 1.93485471 1.59471789 1.93485471 12.7962573.166953767 12.7962573.166953767 14.381442.166953767 14.381442zM3.94451827 6.06694443L3.94451827 1.69577007 6.61672073 1.69577007C7.21971401 1.69577007 7.68156917 1.77699315 8.0835019 1.9808135 8.68630675 2.32629758 9.00796599 3.03785749 9.00796599 3.87106135 9.00796599 5.17234657 8.204289 6.06675377 6.91840581 6.06675377L3.94451827 6.06694443 3.94451827 6.06694443zM3.94451827 12.7146529L3.94451827 7.73411481 7.11890107 7.73411481C8.60584484 7.73411481 9.57006879 8.70955439 9.57006879 10.1929242 9.57006879 11.2707507 9.04791429 12.1659205 8.22407471 12.5114046 7.84211616 12.674232 7.35972152 12.7140809 6.95835412 12.7140809L3.94451827 12.7140809 3.94451827 12.7146529 3.94451827 12.7146529zM12.4373019 14.381442L17.4200992 14.381442 17.4200992 12.8570793 15.9131813 12.8570793 15.9131813 10.1319116C15.9131813 8.12021045 16.837457 5.90411696 19.0076675 5.90411696 19.3289499 5.90411696 19.5697703 5.96493893 19.5697703 5.96493893L19.5697703 4.01367841C19.5697703 4.01367841 19.3287614 3.97268554 19.0674015 3.97268554 17.5003727 3.97268554 16.3149256 5.15213616 15.8525051 6.65609772L15.8125568 6.65609772C15.8125568 6.65609772 15.8525051 6.35122519 15.8525051 5.94472848L15.8525051 5.29418121C15.8525051 4.46059599 15.4307867 4.09471083 14.5468362 4.09471083L12.2564039 4.09471083 12.2564039 5.61945484 13.5223129 5.61945484C13.8034585 5.61945484 13.9641939 5.76169055 13.9641939 6.06675377L13.9641939 12.856698 12.4371134 12.856698 12.4371134 14.3816327 12.4373019 14.381442 12.4373019 14.381442zM22.000587 2.04220747L24.0496336 2.04220747 24.0496336.0293623332 22.000587.0293623332 22.000587 2.04220747 22.000587 2.04220747zM20.4531555 14.381442L25.5968766 14.381442 25.5968766 12.8570793 23.9893342 12.8570793 23.9893342 4.09490149 20.3527194 4.09490149 20.3527194 5.61983616 22.0403469 5.61983616 22.0403469 12.8574606 20.452967 12.8574606 20.452967 14.381442 20.4531555 14.381442 20.4531555 14.381442zM27.2477592 16.2922816L26.6044407 17.7975779C27.6089899 18.3055081 28.8549247 18.6513735 30.0805086 18.6513735 32.6524634 18.6513735 35.2036903 17.3500883 35.2036903 13.9553068L35.2036903 6.02652356C35.2036903 5.7620719 35.3844 5.61983616 35.6463253 5.61983616L36.7712844 5.61983616 36.7712844 4.09490149 34.6014508 4.09490149C33.7574486 4.09490149 33.4361663 4.48118779 33.4361663 5.13173505 33.4361663 5.39637737 33.4761146 5.53880377 33.4761146 5.53880377L33.4361663 5.53880377C32.873875 4.35935315 31.4675816 3.85104159 30.1411848 3.85104159 27.3084354 3.85104159 25.6807304 6.04654332 25.6807304 8.99440716 25.6807304 11.9622908 27.408683 14.2594167 30.2214583 14.2594167 31.708402 14.2594167 32.6728144 13.6092508 33.2756193 12.5928183L33.3155676 12.5928183C33.3155676 12.5928183 33.2554567 12.9177106 33.2554567 13.2431749L33.2554567 14.056359C33.2554567 16.1712097 31.8088381 16.9840124 30.0405603 16.9840124 28.5131029 16.9836311 27.2477592 16.2922816 27.2477592 16.2922816L27.2477592 16.2922816 27.2477592 16.2922816zM30.6028516 12.5522068C28.774086 12.5522068 27.6692892 11.0879034 27.6692892 8.9539863 27.6692892 6.8599181 28.6742152 5.55844221 30.4217651 5.55844221 32.0093334 5.55844221 33.2952166 6.33101478 33.2952166 9.01461761 33.2950281 11.6974578 32.0093334 12.5522068 30.6028516 12.5522068L30.6028516 12.5522068 30.6028516 12.5522068z"/>
        <path d="M36.5244339 14.381442L41.6670246 14.381442 41.6670246 12.8570793 40.0604246 12.8570793 40.0604246 9.56315938C40.0604246 7.3678483 41.4663408 5.66025706 43.4556536 5.66025706 45.0826048 5.66025706 45.3841014 6.79871478 45.3841014 8.24242637L45.3841014 14.382014 48.9204685 14.382014 48.9204685 12.8576513 47.333654 12.8576513 47.333654 7.79474612C47.333654 5.17234657 46.228292 3.85066028 43.8378003 3.85066028 41.8085398 3.85066028 40.4828965 5.21276747 40.0406388 6.20879882L40.0008789 6.20879882C40.0008789 6.20879882 40.0606128 5.84272298 40.0606128 5.35481253L40.0606128.0287903397 36.4241865.0287903397 36.4241865 1.55334369 38.1317879 1.55334369 38.1317879 12.8568887 36.5248111 12.8568887 36.5244339 14.381442 36.5244339 14.381442zM49.8990135 10.620394C49.8990135 14.056359 52.4905657 14.4628557 53.776826 14.4628557 54.1987325 14.4628557 54.4798782 14.4224348 54.4798782 14.4224348L54.4798782 12.7764282C54.4798782 12.7764282 54.2987917 12.7962573 54.0174578 12.7962573 53.2539176 12.7962573 51.8470588 12.531615 51.8470588 10.4369748L51.8470588 5.6196455 54.278064 5.6196455 54.278064 4.09471083 51.8470588 4.09471083 51.8470588 1.26925358 49.9382083 1.26925358 49.9382083 4.09509215 48.1899045 4.09509215 48.1899045 5.62002685 49.8980716 5.62002685 49.8980716 10.620394 49.8990135 10.620394 49.8990135 10.620394z"/>
        <path d="M54.3366675 9.21767529C54.3366675 12.3487678 56.7870813 14.6253019 59.8214567 14.6253019 62.8560204 14.6253019 65.3073765 12.3481957 65.3073765 9.21767529 65.3073765 6.10755595 62.8562087 3.85085093 59.8214567 3.85085093 56.7870813 3.85085093 54.3366675 6.10755595 54.3366675 9.21767529L54.3366675 9.21767529 54.3366675 9.21767529zM56.3256031 9.21767529C56.3256031 7.08356754 57.8930087 5.55844221 59.8214567 5.55844221 61.7299304 5.55844221 63.3174986 7.08337689 63.3174986 9.21767529 63.3174986 11.3725655 61.7301187 12.91752 59.8214567 12.91752 57.893574 12.9173293 56.3256031 11.3725655 56.3256031 9.21767529L56.3256031 9.21767529 56.3256031 9.21767529zM65.6529671 14.381442L70.7972536 14.381442 70.7972536 12.8570793 69.1893343 12.8570793 69.1893343 9.60415225C69.1893343 7.55088623 70.5353284 5.66006637 72.5855055 5.66006637 74.2122682 5.66006637 74.4943561 6.79852412 74.4943561 8.24223571L74.4943561 14.3818233 78.0503208 14.3818233 78.0503208 12.8574606 76.4429664 12.8574606 76.4429664 7.79455547C76.4429664 5.17215592 75.3979038 3.85046958 73.0675232 3.85046958 70.4953799 3.85046958 69.3097443 5.8017301 69.1092491 6.35084388L69.0691125 6.35084388C69.0691125 6.35084388 69.1292232 6.08658287 69.1292232 5.76130924L69.1292232 5.23297789C69.1292232 4.48061578 68.7269138 4.09432948 67.8433401 4.09432948L65.552908 4.09432948 65.552908 5.61926419 66.7986543 5.61926419C67.0801768 5.61926419 67.2414775 5.7614999 67.2414775 6.06637242L67.2414775 12.8565073 65.6537208 12.8565073 65.6537208 14.38087 65.6529671 14.38087 65.6529671 14.381442 65.6529671 14.381442z"/>
      </g>
      <g fill="#108BC1">
        <path d="M40.1389799,38.4083045 L58.2682478,38.4083045 L58.2682478,31.424769 L54.9296087,31.424769 L58.5380827,26.3750217 C59.2389685,25.3536667 59.615137,24.5484445 59.7226135,24.5484445 L59.8306619,24.5484445 C59.8306619,24.5484445 60.3148792,25.4072722 61.0689311,26.3750217 L64.9472408,31.424769 L61.4999817,31.424769 L61.4999817,38.4083045 L80.5170758,38.4083045 L80.5170758,31.424769 L76.4575422,31.424769 L67.1939619,19.4473727 L76.6187571,6.98467599 L80.6228374,6.98467599 L80.6228374,0 L62.4684156,0 L62.4684156,6.98410574 L65.6995779,6.98410574 L62.1442702,11.818861 C61.390218,12.8396457 60.9603111,13.6460085 60.9603111,13.5912625 L60.8528346,13.5912625 C60.8528346,13.5912625 60.3680457,12.7848997 59.6145654,11.818861 L55.9529242,6.98410574 L59.2915633,6.98410574 L59.2915633,0 L41.209174,0 L41.209174,6.98410574 L44.4397647,6.98410574 L53.4872478,18.8023965 L44.0087142,31.4253393 L40.1384083,31.4253393 L40.1384083,38.4083045 L40.1389799,38.4083045 L40.1389799,38.4083045 Z"/>
        <path d="M20.5893765,39.100346 C25.6417112,39.100346 30.7488261,37.4331 33.7046759,33.7765781 C35.6933121,31.3031158 36.8762228,27.5894965 36.8762228,23.7725308 L36.8762228,6.99272689 L41.5224913,6.99272689 L41.5224913,0 L22.5734479,0 L22.5734479,6.99272689 L26.1843779,6.99272689 L26.1843779,23.7736727 C26.1843779,25.5465491 25.9139005,26.9454371 25.3272955,28.0759669 C24.3344039,29.9047988 22.7103985,30.7646867 20.6333148,30.7646867 C18.4215632,30.7646867 16.6617484,29.742071 15.8046661,28.0200114 C15.307079,26.9985377 14.9920927,25.4928775 14.9920927,23.7731017 L14.9920927,6.99272689 L18.6024521,6.99272689 L18.6024521,0 L0,0 L0,6.99272689 L4.30138907,6.99272689 L4.30138907,23.7731017 C4.30253031,27.8053249 5.26917308,31.3562164 7.52771619,33.937022 C10.3220784,37.1641709 15.1062182,39.100346 20.5893765,39.100346 Z"/>
      </g>
    </g>
  </g>
</svg>
