<?xml version="1.0" encoding="UTF-8" standalone="no"?>
<!DOCTYPE svg PUBLIC "-//W3C//DTD SVG 1.1//EN" "http://www.w3.org/Graphics/SVG/1.1/DTD/svg11.dtd">
<svg width="100%" height="100%" viewBox="0 0 20817 4055" version="1.1" xmlns="http://www.w3.org/2000/svg" xmlns:xlink="http://www.w3.org/1999/xlink" xml:space="preserve" style="fill-rule:evenodd;clip-rule:evenodd;stroke-linejoin:round;stroke-miterlimit:1.41421;">
    <g transform="matrix(4.16667,0,0,4.16667,0,0)">
        <path d="M1383.69,585.331C1383.69,607.788 1380.06,629.089 1372.79,649.236C1365.53,669.381 1354.96,687.049 1341.09,702.241C1327.22,717.433 1310.54,729.487 1291.05,738.404C1271.57,747.321 1249.61,751.779 1225.17,751.779C1202.05,751.779 1180.75,747.321 1161.26,738.404C1141.78,729.487 1124.94,717.268 1110.74,701.745C1096.53,686.224 1085.47,668.39 1077.55,648.245C1069.62,628.099 1065.66,606.467 1065.66,583.35L1065.66,581.369C1065.66,558.911 1069.29,537.445 1076.55,516.969C1083.82,496.493 1094.39,478.825 1108.26,463.963C1122.13,449.102 1138.81,437.213 1158.29,428.296C1177.78,419.379 1199.41,414.92 1223.19,414.92C1246.97,414.92 1268.6,419.379 1288.08,428.296C1307.57,437.213 1324.41,449.267 1338.61,464.458C1352.81,479.65 1363.87,497.484 1371.8,517.959C1379.73,538.435 1383.69,560.232 1383.69,583.35L1383.69,585.331ZM1482.77,475.852C1468.9,443.157 1449.58,414.425 1424.81,389.656C1400.04,364.887 1370.65,345.402 1336.63,331.202C1302.61,317 1265.46,309.9 1225.17,309.9C1184.88,309.9 1147.72,317.165 1113.71,331.697C1079.69,346.228 1050.3,365.878 1025.53,390.647C1000.76,415.416 981.276,444.313 967.076,477.338C952.875,510.364 945.774,545.701 945.774,583.35L945.774,585.331C945.774,622.32 952.709,657.327 966.58,690.352C980.451,723.377 999.771,752.109 1024.54,776.548C1049.31,800.987 1078.7,820.306 1112.72,834.507C1146.73,848.708 1183.56,855.809 1223.19,855.809C1263.48,855.809 1300.8,848.543 1335.14,834.012C1369.49,819.481 1399.05,799.83 1423.82,775.062C1448.58,750.292 1468.07,721.396 1482.27,688.37C1496.47,655.345 1503.57,620.338 1503.57,583.35L1503.57,581.369C1503.57,543.719 1496.64,508.547 1482.77,475.852Z" style="fill:rgb(37,167,217);"/>
        <path d="M606.64,320.798L726.521,320.798L726.521,438.699C743.034,399.068 766.482,367.364 796.866,343.586C827.249,319.808 865.558,308.909 911.794,310.891L911.794,437.708L904.858,437.708C878.438,437.708 854.33,442.001 832.533,450.588C810.736,459.175 791.912,472.054 776.06,489.228C760.208,506.401 747.988,528.033 739.401,554.122C730.815,580.212 726.521,610.43 726.521,644.777L726.521,843.919L606.64,843.919L606.64,320.798Z" style="fill:rgb(37,167,217);"/>
        <path d="M413.147,387.179C413.147,423.507 399.772,453.23 373.021,476.348C346.271,499.465 309.778,511.024 263.542,511.024L121.863,511.024L121.863,261.353L263.542,261.353C309.117,261.353 345.445,271.756 372.526,292.561C399.607,313.368 413.147,344.246 413.147,385.198L413.147,387.179ZM518.663,287.113C506.443,258.71 488.94,234.272 466.153,213.796C443.365,193.32 415.624,177.634 382.929,166.735C350.233,155.837 313.741,150.388 273.45,150.388L0,150.388L0,843.919L121.863,843.919L121.863,620.998L259.579,620.998C297.889,620.998 333.886,615.879 367.572,605.642C401.258,595.404 430.65,580.377 455.75,560.562C480.849,540.746 500.664,516.143 515.195,486.75C529.727,457.358 536.992,423.177 536.992,384.207L536.992,382.225C536.992,347.218 530.882,315.515 518.663,287.113Z" style="fill:rgb(37,167,217);"/>
        <path d="M1819.33,750.44C1843.77,750.44 1865.73,745.982 1885.22,737.065C1904.7,728.148 1921.38,716.094 1935.25,700.902C1949.12,685.71 1959.69,668.042 1966.95,647.897C1974.22,627.75 1977.85,606.45 1977.85,583.993L1977.85,582.011C1977.85,558.893 1973.89,537.096 1965.96,516.62C1958.04,496.145 1946.97,478.311 1932.77,463.12C1918.57,447.928 1901.73,435.874 1882.24,426.957C1862.76,418.04 1841.13,413.581 1817.35,413.581C1793.57,413.581 1771.94,418.04 1752.45,426.957C1732.97,435.874 1716.29,447.763 1702.42,462.624C1688.55,477.486 1677.98,495.154 1670.72,515.63C1663.45,536.106 1659.82,557.572 1659.82,580.03L1659.82,582.011C1659.82,605.128 1663.78,626.76 1671.71,646.906C1679.63,667.051 1690.7,684.885 1704.9,700.407C1719.1,715.929 1735.94,728.148 1755.43,737.065C1774.91,745.982 1796.21,750.44 1819.33,750.44ZM1978.9,355.494C1964.05,345.596 1948.01,337.052 1930.79,329.863C1896.77,315.662 1859.62,308.561 1819.33,308.561C1779.04,308.561 1741.89,315.827 1707.87,330.358C1673.85,344.889 1644.46,364.539 1619.69,389.308C1594.92,414.077 1575.44,442.974 1561.24,475.999C1547.04,509.025 1539.94,544.362 1539.94,582.011L1539.94,583.993C1539.94,620.981 1546.87,655.988 1560.74,689.013C1574.61,722.038 1593.93,750.77 1618.7,775.209C1643.47,799.648 1672.86,818.967 1706.88,833.168C1740.89,847.37 1777.72,854.47 1817.35,854.47C1857.64,854.47 1894.96,847.204 1929.3,832.673C1947.12,825.133 1963.66,816.216 1978.9,805.92L1978.9,843.581L2098.06,843.581L2098.06,120.694L1978.9,120.694L1978.9,355.494Z" style="fill:rgb(37,167,217);"/>
        <path d="M2227.43,843.406L2227.41,151.187L2480.83,151.187C2642.37,151.187 2739.74,237.929 2739.74,366.44C2739.74,508.278 2624.05,592.19 2468.47,592.19L2300.07,592.19L2300.07,843.406L2227.43,843.406ZM2300.26,523.225L2471.48,523.225C2579.14,523.225 2667.27,470.234 2667.27,371.233L2667.27,369.329C2667.27,263.664 2581.22,220.004 2477,220.004L2300.08,220.004L2300.26,523.225ZM2974.68,852.097C2864.54,852.097 2772.56,787.034 2772.56,685.815L2772.56,683.879C2772.56,581.271 2854.47,511.776 2999.85,511.776C3063.8,511.776 3104.87,518.021 3151.93,529.775L3151.93,523.193C3151.93,423.488 3088.16,383.717 3000.82,383.717C2940.8,383.717 2886.06,402.552 2840.06,427.771L2813.55,364.506C2867.75,339.338 2922.49,316.109 3003.72,316.109C3084.95,316.109 3132.92,339.095 3168.74,374.911C3201.65,407.823 3221.38,455.745 3221.38,521.255L3221.38,843.406L3151.93,843.406L3151.93,778.723C3118.42,816.583 3055.05,852.797 2974.68,852.097ZM2977.58,784.678C3065.48,784.678 3152.85,731.119 3152.85,644.191L3152.85,596.952C3109.17,587.288 3067.07,577.208 2996.94,577.208C2894.4,577.208 2845.78,622.514 2845.78,680.975L2845.78,682.912C2845.78,744.36 2904.88,784.678 2977.58,784.678ZM3542.13,852.066C3421.53,852.066 3294.55,756.002 3294.55,588.24C3294.55,423.645 3414.59,320.693 3542.13,320.693C3617.73,320.693 3682.08,352.654 3730.46,413.071L3730.46,122.616L3800.28,122.616L3800.28,843.406L3730.46,843.406L3730.46,756.284C3683.89,812.777 3626.14,852.066 3542.13,852.066ZM3546.88,784.231C3647.79,784.231 3733.34,697.57 3733.34,587.288L3733.34,585.384C3733.34,471.096 3644.02,388.387 3546.88,388.387C3441.22,388.387 3367.97,467.984 3367.97,584.432L3367.97,586.336C3367.97,699.246 3445.03,784.231 3546.88,784.231Z" style="fill:rgb(37,167,217);"/>
        <path d="M4964.79,200.598C4946.39,115.067 4879.33,48.404 4793.69,30.514C4726.88,16.559 4660.08,7.51 4593.28,3.35L4542.27,1.123C4530.91,0.839 4519.55,0.693 4508.18,0.693C4413.42,0.693 4318.95,10.55 4224.77,30.264C4139.18,48.18 4072.17,114.814 4053.77,200.301C4042.23,253.928 4033.96,307.556 4028.95,361.185L4023.27,495.653C4023.38,508.47 4023.68,521.297 4024.16,534.132C4115.28,543.825 4288.05,511.348 4457.26,396.169C4371.09,374.679 4343.43,352.624 4342.21,327.377C4341.39,310.546 4365.55,296.797 4414.67,286.131L4760.84,233.211C4731.45,437.689 4714.02,553.285 4708.54,579.995C4700.32,620.061 4687.18,658.056 4663.38,652.405C4639.58,646.753 4612.7,612.942 4595.47,534.383C4475.86,713.726 4454.16,879.469 4455.79,967.517L4455.97,971.953C4473.43,972.65 4490.89,973 4508.35,973C4603.49,973 4698.87,962.671 4794.5,942.014C4879.49,923.654 4945.85,857.22 4964.13,772.207C4978.92,703.399 4988.41,634.592 4992.6,565.787L4993.99,534.14L4994.63,519.354C4994.94,507.583 4995.1,495.813 4995.1,484.042C4995.1,389.018 4985,294.537 4964.79,200.598ZM4327.18,667.39C4322.83,681.235 4286.63,767.298 4280.73,953.283C4261.79,950.003 4242.86,946.321 4223.92,942.222C4138.97,923.839 4072.65,857.435 4054.38,772.466C4049.85,751.406 4045.83,730.37 4042.29,709.358C4224.97,702.442 4313.96,672.218 4327.18,667.39Z" style="fill:rgb(37,167,217);"/>
    </g>
</svg>
