<svg width="400" height="234.993" xmlns="http://www.w3.org/2000/svg">
  <path d="M.13 0 0 234.993h5.564L5.694 0z" fill="#004f85"/>
  <path d="M371.702 199.87h5.303v5.433h.13c2.348-4.26 6.217-6.216 11.085-6.216 8.998 0 11.78 5.13 11.78 12.476v22.473h-5.607v-23.125c0-4.173-2.652-6.868-6.955-6.868-6.825 0-10.129 4.564-10.129 10.693v19.3h-5.607zm-21.647 29.993c5.868 0 10.65-4.607 10.65-12.866 0-8.346-4.782-12.954-10.65-12.954-5.869 0-10.65 4.608-10.65 12.954 0 8.259 4.781 12.866 10.65 12.866m0-30.776c10.823 0 16.605 7.868 16.605 17.91 0 9.954-5.782 17.822-16.605 17.822-10.824 0-16.605-7.868-16.605-17.822 0-10.042 5.78-17.91 16.605-17.91m-27.386.783h5.608v34.166h-5.608zm5.608-6.13h-5.608v-6.91h5.608zm-16.866 6.13h6.78v4.955h-6.78v21.213c0 2.565.695 3.043 4.216 3.043h2.565v4.955h-4.304c-5.78 0-8.128-1.173-8.128-7.476v-21.735h-5.825v-4.955h5.825V189.61h5.65zm-20.43 16.518c-2.174 1.565-6.434 1.652-10.172 2.304-3.695.652-6.912 2-6.912 6.172 0 3.695 3.217 5 6.607 5 7.434 0 10.476-4.608 10.476-7.738zm9.128 17.518c-1 .609-2.26.912-4.043.912-2.912 0-4.781-1.564-4.781-5.26-3.087 3.609-7.26 5.26-11.998 5.26-6.216 0-11.302-2.738-11.302-9.563 0-7.737 5.738-9.389 11.563-10.52 6.216-1.173 11.476-.781 11.476-5.042 0-4.868-4-5.65-7.607-5.65-4.738 0-8.26 1.434-8.52 6.476h-5.608c.348-8.476 6.869-11.432 14.476-11.432 6.129 0 12.823 1.348 12.823 9.39v17.56c0 2.652 0 3.826 1.782 3.826.479 0 1-.044 1.739-.304zm-41.295-23.082c-.826-4.26-3.826-6.781-8.434-6.781-8.128 0-10.65 6.39-10.65 13.345 0 6.26 2.826 12.475 9.955 12.475 5.434 0 8.694-3.173 9.39-8.302h5.78c-1.26 8.302-6.476 13.258-15.083 13.258-10.433 0-15.997-7.26-15.997-17.431 0-10.259 5.304-18.3 16.127-18.3 7.738 0 13.954 3.607 14.736 11.736zm-30.211 23.212h-5.304v-5.433h-.13c-2.347 4.26-6.172 6.216-11.084 6.216-8.998 0-11.78-5.13-11.78-12.476V199.87h5.65v23.125c0 4.173 2.609 6.868 6.912 6.868 6.825 0 10.128-4.564 10.128-10.693v-19.3h5.608zm-51.033-4.173c7.564 0 10.476-6.476 10.476-12.866 0-6.738-3.043-12.954-10.78-12.954-7.694 0-10.259 6.52-10.259 13.214 0 6.39 3.304 12.606 10.563 12.606m15.866 4.173h-5.607v-4.607h-.13c-1.826 3.738-6.216 5.39-10.911 5.39-10.52 0-15.736-8.303-15.736-17.953 0-9.65 5.173-17.779 15.606-17.779 3.52 0 8.52 1.304 11.04 5.347h.13v-17.605h5.608zm-67.463-47.207h32.601v5.303h-26.298v14.997h24.516v5.303h-24.516v16.301h26.516v5.303h-32.82zm-40.166 13.04h5.304v7.217h.13c2.695-5.52 6.477-8.216 12.562-7.999V205c-9.085 0-12.388 5.173-12.388 13.823v15.214h-5.608zm-21.212 29.994c5.868 0 10.65-4.607 10.65-12.866 0-8.346-4.782-12.954-10.65-12.954-5.912 0-10.65 4.608-10.65 12.954 0 8.259 4.738 12.866 10.65 12.866m0-30.776c10.823 0 16.605 7.868 16.605 17.91 0 9.954-5.782 17.822-16.605 17.822-10.868 0-16.605-7.868-16.605-17.822 0-10.042 5.737-17.91 16.605-17.91m-29.82 5.738h-5.738v-4.955h5.738v-5.086c0-5.564 3.304-8.476 9.433-8.476 1.087 0 2.608.217 3.651.521v4.913c-1-.348-2.173-.479-3.173-.479-2.695 0-4.303.87-4.303 3.825v4.782h6.607v4.955h-6.607v29.211h-5.608zm324.364-74.418h6.782v4.998h-6.782v21.213c0 2.565.696 3 4.217 3h2.565v4.999h-4.26c-5.825 0-8.172-1.218-8.172-7.477v-21.735h-5.782v-4.998h5.782V120.19h5.65zm-42.73 0h5.26v5.433h.174c2.347-4.216 6.172-6.216 11.084-6.216 8.998 0 11.78 5.173 11.78 12.52v22.473h-5.65v-23.17c0-4.129-2.609-6.867-6.912-6.867-6.825 0-10.128 4.564-10.128 10.693v19.344h-5.608zm-10.562 13.823c-.26-5.347-4.304-9.65-9.868-9.65-5.868 0-9.39 4.433-9.78 9.65zm5.39 9.52c-1.522 7.563-6.912 11.649-14.606 11.649-10.91 0-16.04-7.52-16.387-17.996 0-10.259 6.737-17.779 16.083-17.779 12.084 0 15.78 11.302 15.431 19.561h-25.56c-.173 5.955 3.174 11.259 10.65 11.259 4.608 0 7.868-2.26 8.868-6.695zm-83.895-23.343h5.26v5.042h.13c2.521-3.825 6.346-5.825 11.04-5.825 4.174 0 8 1.652 9.39 5.825 2.304-3.651 6.347-5.825 10.693-5.825 6.825 0 11.39 2.87 11.39 9.911v25.082h-5.608v-22.43c0-4.217-1.13-7.607-6.607-7.607-5.434 0-8.955 3.434-8.955 8.737v21.3h-5.607v-22.43c0-4.434-1.391-7.607-6.39-7.607-6.695 0-9.129 6.172-9.129 8.737v21.3h-5.607zm-11.606 0h6.824v4.998h-6.824v21.213c0 2.565.739 3 4.26 3h2.564v4.999h-4.303c-5.825 0-8.129-1.218-8.129-7.477v-21.735h-5.825v-4.998h5.825V120.19h5.608zm-32.254 0h5.303v7.215h.13c2.739-5.477 6.477-8.172 12.563-7.998v5.955c-9.042 0-12.345 5.173-12.345 13.823v15.215h-5.651zm-12.91 16.561c-2.174 1.565-6.39 1.652-10.172 2.304-3.695.652-6.868 1.956-6.868 6.13 0 3.694 3.173 5.042 6.607 5.042 7.39 0 10.433-4.652 10.433-7.738zm9.128 17.518c-1 .565-2.26.913-4.043.913-2.912 0-4.738-1.609-4.738-5.304-3.13 3.652-7.302 5.304-12.04 5.304-6.217 0-11.302-2.782-11.302-9.607 0-7.737 5.737-9.39 11.562-10.52 6.216-1.173 11.52-.782 11.52-4.998 0-4.869-4.043-5.695-7.608-5.695-4.781 0-8.302 1.478-8.52 6.477h-5.65c.347-8.433 6.868-11.432 14.475-11.432 6.172 0 12.823 1.39 12.823 9.39v17.604c0 2.652 0 3.825 1.782 3.825.479 0 1-.089 1.739-.347zm-51.728-29.906c-7.52 0-10.432 6.476-10.432 12.91 0 6.738 3.042 12.954 10.78 12.954 7.65 0 10.215-6.564 10.215-13.215 0-6.433-3.304-12.65-10.563-12.65m-15.866-4.129h5.607v4.608h.13c1.87-3.782 6.217-5.434 10.911-5.434 10.52 0 15.736 8.346 15.736 17.996 0 9.65-5.13 17.779-15.605 17.779-3.478 0-8.52-1.348-11.041-5.347h-.13v17.649h-5.608zm-10.65 13.78c-.26-5.347-4.303-9.65-9.867-9.65-5.869 0-9.39 4.433-9.78 9.65zm5.39 9.52c-1.521 7.563-6.911 11.649-14.605 11.649-10.91 0-16.04-7.52-16.388-17.996 0-10.259 6.738-17.779 16.083-17.779 12.085 0 15.78 11.302 15.475 19.561H81.808c-.173 5.955 3.173 11.259 10.65 11.259 4.608 0 7.868-2.26 8.868-6.695zm-67.203 5.563H50.12c4.304 0 15.867-1.173 15.867-18.56 0-11.26-4.173-18.084-15.736-18.084H39.643zm-6.26-41.904h16.171c14.562 0 22.691 7.26 22.691 22.474 0 15.779-6.955 24.734-22.69 24.734H33.383zm104.413-78.548c.956 2.608 2.826 3.521 4.26 2.87-3.216-.393-.609-5.87-4.738-5.87-.217 0-.435.045-.652.09-.696-.739-1.521-1.043-2.695-1.043-1.739 0-4.738 1.652-4.738 5.173 0 7.477 8.694 8.129 8.694 14.78 0 1.912-1.478 3.13-3.087 3.13-1.478 0-2.651-1.653-3.868-4.217-.61-1.217-1.87-2.913-3.217-4.652.392.26.869.436 1.304.436.478.044.912-.13 1.217-.436.304-.26.479-.695.522-1.173v-.045c0-.608-.26-1.217-.739-1.695a2.52 2.52 0 0 0-1.695-.826c-.479 0-.913.174-1.217.435a1.681 1.681 0 0 0-.479 1.174v.089c0 .26.045.522.13.739-1.869-2.434-3.651-4.825-3.651-6.13 0-1.173.826-2.216 1.826-3.433.044.044.347.217.347.217l.26-.304c.347-.392 1.043-1.174 2.565-2.782l.089-.13v.044l.347-.391-.912-.74c.217-.565.435-1.173.608-1.869.304 1.218.913 2 1.782 1.74-.565-1.261.566-2.913-.173-5.956.695 1.174 1.739 1.782 2.434 1.565-1.913-1.695.609-4.086-1.913-7.781.826.305 1.348.13 1.74-.26-2.305-.348-1.261-3.26-5.304-4.304 1.043-.173 1.608-.782 1.435-1.304-1.043.782-1.957-1.391-5.434-1.347-.217-1.305-1.435-2.696-2.782-3.348.217 1 0 1.913-.26 2.652L108.456 2.831c-.347-.305-.522-.392-.609-.26-.089.13-.089.303.13.565l9.738 12.215c-.74.26-1.478.565-2.217.825-.479.174-.87.652-.826 1.261-1.826.912-3.39 2-4.216 2.738-.566.522-1.043.653-.522 1.913.173.435-.435 1.608.956.782.955-.565 3.042-1.738 3.347-1 .173.392-.87.87-1.565 1.13-.74.304-1.478.826-1.391 1.086.13.305.695 0 .695.305.045.304.305.609.566.609.303 0 .652-.609.869-.39.26.173-.09 1.52-.304 1.825 1.086-.13 1.782-1.174 1.825-2 .045-.825.26-.999.436-1.13.173-.089.347.87.13 1.478.565-.13 1.173-.869 1.087-2.304.304-.217.609-.39.826-.39.391 0 1.13 1 2.173 1 1.913 0 3-1.566 3.086-2.305.13-.565.045-1.173-.26-1.608.696.565.913 1.434.913 2.086 0 2.739-4.825 4.043-6.825 5.912a.941.941 0 0 0-.174.217l-2.303-.912-.13.522c-.045.044-.045.13-.13.435-.261.782-.74 2.39-1.044 3.347l-.13.347.217.13c-1.347 1.783-2.434 3.782-2.695 5.825-.522-.565-1.043-1-1.652-1.478.09-.217.13-.435.13-.652.045-.609-.13-1.174-.521-1.608-.26-.304-.652-.479-1.043-.522-.392 0-.782.13-1.087.435-.09.044-.13.13-.217.174-.09-.045-.174-.13-.217-.174-.782-.565-1.695-1.26-2.26-1.87-.218-.26-.479-.39-1-.39-.175 0-.653-.044-1-.044s-.522.26-.913.608c-.173.174-.695.566-1.304 1l.87.869.39.522c.173-.13.305-.217.435-.304.217-.217.522-.26.826-.26.26 0 .695.216 1 .652.174.304 2 2.738 3.565 4.39-.217.089-.348.13-.522.217-.652.26-2.087.174-2.739.13-.652-.044-.782-.217-1.217.479a6.154 6.154 0 0 1-.609.869c-.217.26-.391.565.045 1.347.695 1.13 2.347 4.086 2.912 5.434.522 1.348 1.217 1.565 2.26 2 1.043.435 2.87 1.477 3.044 1.695l.089-1c-.304-.304-1.305-.696-1.696-.826-.392-.174-.478-.304-.044-.304.478 0 1.738.435 2.651.826-.304-1.043-1.26-2.13-1.825-2.739-.783-.26-1.522-.26-1.826 0 .044.217-.13.479-.435.479-.304 0-.522-.26-.435-.522.089-.305.565-.392.478-1-.089-.566-.826-.653-1.304-.696-.609-.956-1.391-2.304-1.739-2.87-.304-.564-.13-.868.13-1.085.566-.435 1.696.26 4 .39.825.045 1.825.13 2.869.174.303 2.651 1.347 5.216 5.085 6.129 1.826.479 3.695 1.826 4.347 3.564-7.433-.13-8.606 2.782-8.606 5.478 0 3.13 2.608 2.955 2.608 5.303 0 2.043-6.26 2.869-8.13 3.173-1.607.217-2.52.565-3.303 1.347-.739.783-1.521 1.522-2.956 2.913 0 0 .61.13 1.218.089l1.042-1.348c.304-.478.522-.869.74-.825.216.044.088.391-.174.869l-.87 1.478c3.652.26 3.913-1.13 3.913-1.652 0-.565-.913-.956-.392-1.304.522-.347 1-.13 1.435.392.39.478.521.912 1.564.521 0 0 7.999-3.347 8.998-3.781.913-.435.652-.826.13-1.26-.608-.523-.695-1.305-.695-2.13 0-2.435 1.435-3.174 4.043-3.13-.045.391-.09.825-.09 1.173 0 3.782 5.739 7.477 7.26 7.477.696 0 1.652-.522 1.695 1.739.045 1.695.392 2.868.09 4.825-.305 1.912-.87 2.216-2.044 3.042-1.13.826-2.26 3.39-2.738 3.913.522.347 1.087.391 1.521-.87.347-.999.739-1.738 1.217-2-.478 1.131-.825 2.783-.999 3.305 1.435.26 3.825-1.087 3.825-2.087 0-1.043-.825-.956-.825-1.652 0-.304.347-.652.825-.652.566 0 1 .479 1.043.696.652-.348 1.087-1 1.043-2.522 0-.565-.045-1.173-.045-1.825.045.089.09.173.13.26.26.435.74.696 1.304.739a2.39 2.39 0 0 0 1.609-.435c.565-.392.956-.956 1.086-1.521.044-.13.044-.26.044-.392 0-.304-.089-.609-.26-.87-.26-.391-.652-.608-1.087-.738a2.55 2.55 0 0 0-1.826.435c-.565.305-.912.826-1.086 1.39-.089-2.086-.26-3.998-.174-4.78.045-1.174.09-1.696-.303-1.87-.348-.173-.783.479-1.348.479-.565 0-2.26-1.522-2.26-3.174 0-1.651 1.782-3.738 1.695-5.998-.045-.696.392-1.043.695-.392.348.739.826 1.782 1.609 2.608-.479 2.826 2.608 5.564 5.173 3.521-1.261.217-2.13-.912-2.695-2.043.217.045.435.09.695.09.13 0 .217-.045.392-.045.869 1.13 3.695 1.042 4.433-1.739-.478.609-1.521 1.043-2.26.912 1.087-.825 1.652-2.173 1.652-3.651 0-7.129-8.694-7.955-8.694-14.432 0-2.434 2.13-3.999 3.608-3.999.565 0 1 .217 1.348.435-.566.609-.87 1.435-.826 2.522.217 5.129 8.607 4.868 8.694 7.302.956-3.695-5.303-2.564-5.52-7.563m-22.3-19.692c.391-.782 0-1.956 1.434-1.956.696 0 1.304.696 2.13 1-1.347.089-2.565.391-3.564.955m-7.65 15.736c-.045.392-.218.782-.48 1.043a.823.823 0 0 1-.521.217c-.479-.045-.87-.609-.87-1.26v-.09c0-.435.174-.782.436-1.042.13-.09.305-.217.565-.217.26.044.435.173.522.303.26.26.347.652.347 1.043m24.734 36.036c.089-.392.39-.783.782-1.043a1.6 1.6 0 0 1 1.304-.304c.174.045.435.13.566.39a.87.87 0 0 1 .13.696 1.634 1.634 0 0 1-.782 1.088c-.696.435-1.522.391-1.87-.09-.173-.26-.13-.521-.13-.738m-5.216-23.908c.044-.174.089-.479.304-.652.217-.217.478-.26.695-.26.392.044.826.216 1.174.608.304.347.522.782.478 1.217a.912.912 0 0 1-.26.652c-.217.217-.479.217-.696.217-.391 0-.825-.217-1.173-.565-.304-.347-.522-.826-.522-1.217M113.197 30.91c.392-1.26 1.13-3.782 1.13-3.782l1.348.522c-.392.173-.87.522-1.26.912.26.13.825.13 1.173-.089l-.522 1.304c-.13-.217-.479-.695-.87-.738-.26 1.042.392 1.434.913 1.695.783.392 1.304.478 1.522.089.26-.435-.26-1.086-.956-.783-.045-.695.347-1.087.782-1.087.39 0 .652.347.782.783-.089-1.13.436-2 1.478-2.304.392 1.087.045 1.825-.782 2.608.435-.174.956-.13 1.13.173.26.348.174.87-.435 1.218-.13-.696-1-.783-1.217-.304-.26.435.13.869.869 1.304.87.478 1.521.217 2-.566-.26-.089-.783-.044-1.218.26l.87-1.651c.044.26.173.652.565.956.13-.347.304-1 .044-1.565l1.87 1.087c-.61.045-1.087.522-1.348.826.478.174.912.089 1.13 0l-1 1.608c.045-.565-.173-.999-.39-1.217-.436.782-.305 1.521.521 2.043.739.435 1.304.522 1.565.09.305-.48-.174-1.131-.87-.913-.044-.696.391-1.043.826-1 .391 0 .653.435.696.87.304-1.087.782-1.74 1.913-1.957.217 1.088-.26 1.956-1.261 2.478.435-.13.87-.044 1.043.26.217.392.089.913-.522 1.174-.09-.695-.913-.869-1.174-.39-.217.347.09.782.87 1.26.434.304 1.13.696 1.912-.089-.26-.26-.87-.347-1.087-.347l.869-1.13c-.045.435.26.912.522 1.087.13-.565.217-1.13.13-1.521l1.13.869s-1.782 1.912-2.695 2.912zm11.737 29.559c-.522.695-1.304.912-1.826.565-.522-.392-.565-1.217-.09-1.913.436-.652 1.261-.912 1.783-.522.522.347.565 1.217.13 1.87m3.39-5.39c-.478.695-1.26.912-1.781.521-.566-.347-.609-1.217-.13-1.869.478-.695 1.304-.912 1.825-.565.522.391.565 1.26.09 1.912M107.28 41.861c-.435.13-.782.435-1 .825-.434.956.13 2.13 1.261 2.652.61.304 1.304.392 1.87.173.435-.173.782-.435.999-.825.173-.392.173-.87.044-1.304-.217-.566-.695-1.088-1.304-1.391-.608-.26-1.304-.348-1.869-.13m.565 2.825c-.739-.347-1.13-1.087-.869-1.652.13-.26.392-.392.566-.478.39-.13.869-.09 1.304.13.435.173.738.565.912.956.045.173.089.435-.044.695-.13.26-.348.39-.522.479-.391.13-.87.089-1.348-.13m13.65 20.648c-.436.391-.696 1.042-.696 1.738v.045c0 .652.217 1.304.652 1.695.304.347.739.565 1.173.565.435 0 .826-.173 1.174-.521.435-.392.696-1.043.696-1.74a2.234 2.234 0 0 0-.479-1.564c-.347-.435-.826-.696-1.304-.739-.435 0-.869.174-1.217.522m1.13 3.26c-.304 0-.522-.13-.652-.304-.304-.26-.479-.739-.435-1.217 0-.478.173-.912.478-1.217.13-.13.348-.304.652-.26.61 0 1.13.695 1.088 1.521 0 .479-.174.956-.479 1.217-.13.13-.347.304-.652.26m-13.736-39.21c-.869.695-1.13 1.913-.565 2.652.565.738 1.782.782 2.695.044.479-.347.782-.912.87-1.434.044-.435-.045-.87-.305-1.174-.217-.305-.608-.522-1-.565-.565-.09-1.174.13-1.695.478m-.13 1.695c0-.347.217-.782.608-1.087.347-.26.74-.39 1.087-.347.174 0 .392.089.566.305.13.174.173.435.13.609-.045.347-.26.695-.609.956-.565.435-1.304.478-1.652.044-.089-.13-.13-.26-.13-.478m16.127 39.076c-.392.26-.609.608-.696 1.042a1.723 1.723 0 0 0 .435 1.478c.348.392.87.696 1.478.783.566.089 1.13 0 1.609-.217.522-.304.825-.696.956-1.217.173-1-.696-2-1.913-2.26-.652-.09-1.347 0-1.87.39m1.348 2.566c-.825-.13-1.434-.783-1.304-1.348a.94.94 0 0 1 .391-.609c.347-.26.826-.347 1.304-.26.739.13 1.304.695 1.304 1.26v.13c-.13.61-.869 1-1.695.826m9.52-5.26a2.913 2.913 0 0 0 2.912 2.913c1.565 0 2.87-1.304 2.87-2.912 0-1.609-1.305-2.913-2.87-2.913a2.913 2.913 0 0 0-2.912 2.913m.739 0a2.18 2.18 0 0 1 2.173-2.174c1.174 0 2.13 1 2.13 2.174 0 1.173-.956 2.173-2.13 2.173a2.18 2.18 0 0 1-2.173-2.173M69.898 50.859c.26-.696-1.043-1.522-1.217-2.565-.13-1.043 0-2-1.218-3.39-1.13-1.348-5.172-5.652-6.39-7.043.304-.044 1.043-.173 1.783.522a65.29 65.29 0 0 1 2.086 2c1.087-2.695 2.391-4.738 4.26-6.868.26-.26.479-.522.74-.783-.696.217-1.74.391-2.392.783-.044-1.174.045-2.13-.739-2.87.304-1.651.045-3.65-3.694-6.128 1.912.478 3.042 2.173 4.477.869-1.304-.045-1.304-2.913-6.042-5.26 1.825-.044 3.216 2.87 5.303 1.217-1.956-.217-2.608-3.695-6.13-4.781 1.218.13 2.479.739 3.522-.696-1.217.305-1.956-.826-3.26-.912.478-1.522.347-2.478-.174-3.608-.913.044-1.826.347-2.521.869-.13-.826-1-.87-1.782-.826.044.39.217.913-.174.956-.609.13-2.739.695-4.347 1.347-1.608.61-3.477 1.783-4 2.13-.346.217-.608-.304-.825-.521-.565.478-1.13 1.087-.695 1.738-.913.09-1.913.304-2.739 1 0 1.042.87 2.043 2.13 2.608-2.173 2.173-.217 4.173-2.13 6.042 2.739.13 2.26-3.651 3.608-4.173-.13 2.652-1.608 3.13-1.608 5.955 0 1.522.912 3.217.089 4.217 2.26-.652 1.652-5.651 3.086-7.13.217.87.09 1.696-.217 2.522-.782 2.347.09 5.52-1.13 6.564 2.304-.217 2.565-3.912 4.477-5.26-1.652 3.304-3.303 10.39-5.738 13.954-3.912 5.303-6.216 11.78-9.824 11.78-1.608 0-2.782-1-2.782-3 0-6.042 10.303-10.171 10.303-16.605 0-2.825-2.304-3.955-3.782-3.955-1 0-2.174.521-3.174 1.347a2.53 2.53 0 0 0-1.217-.304c-3.651 0-2.651 6.564-5.868 6.52 1.26.696 3.478-.695 4.738-2.52-.522 4.26-6.65 3.13-6.216 8.258.87-3.999 10.65-3.434 10.65-9.52 0-.695-.347-1.26-.826-1.695.74-.478 1.391-.652 2.043-.652 1.174 0 2.217.87 2.217 2.609 0 5.39-10.258 9.91-10.258 16.518 0 1.13.347 2.043.869 2.782-.74.305-1.478.13-2.087-.566-.044 1.696 2.348 2.782 3.912 1.913.304.13.696.174 1.043.217-.478 1.26-2.043 1.652-2.869 1.565 2.565 2 6.912-.609 6.694-2.826 2-1.651 3.26-4.39 4.695-6.216-.089.435-.174.826-.217 1.261-1.478 2.695-2.869 5.086-3.26 8.607-.304 2.956-1.782 5.607-3.869 5.607-.435 0-1.217-.608-1.565-.303-.652.565-.044 1.173-.044 1.695 0 .869-1.609 1.695-1.609 4.26 0 1.173.696 2.564.436 3.347.652-.347 1.521-1.435 1.912-2.87.696 3.435-1.478 3.261.09 6.304.216-1 1.216-1.391 1.825-1 .609.435.305.695-.13 1.173-.479.435-.87 2.739 1.173 2.608-.347-.26-.39-.869.652-1.087 1.435-.304 1.826.347 3.348.347.955 0 1.217-1.217 1.956-1.217.739 0 .739.609.478 1 1.217-.304 1.435-.956 1.435-1.652s-.566-1.086-.13-1.348c.434-.26 1.825.045 1.26 1.174.695-.13 1.086-.652 1.086-1.522 0-.912-1-1.39-1.913-1.26-.173-.522-.999-.826-1.738-.826-1.696 0-1.435 1.348-2.565 1.348-1.87 0-3.651-2.435-3.651-6.477 0-2.174 2.347-2.739 3.999-3.434 1.652-.696 4.52-2.478 6.26-5.39 1.39-2.304 1.434-4.782 1.26-7.738 2.304 1.304 2.565 3.26 2.565 4.651 0 1.783-.913 2.522-1.652 2.87-.652.303-.826.173-.913.521-.089.479.217.74.522.87.826.434.652 1.26.87 2.13.26.868 1.042 2.26 2.347 3.26.13-.566.089-1.392 0-2.522 1.782.87.347 4.478 3.825 4.478-.609-.392-.479-1.348-.09-1.478.348-.13.827.26 1.522 1.173.652.956.479.87 2.13.87 1.608 0 .913-.566 1.782-.566.87 0 .783 1 .304 1.739 1.478-.435 1.913-1.565 1.435-2.695 1.304-.696 1.956.303 2.173.999 1.26-1.26 0-2.825-1-2.912 0-.479-.434-.956-.955-1-.522-.044-1.043-.089-1.652-.044-.609.044-.912.912-1.608.912-2.217 0-6.52-3.955-6.52-5.65 0-1.74 4.129-2.783 4.129-5.39 0-3.478-3.39-4.652-6.26-6.869 1-1.174 4-1.434 5.695-.609.173-.956.782-.739 1.043-2.39.608 1.477-.045 2.738.565 3.347.478-.696 1.739-.609 1.652-2.391.391 1.086-.479 2.825.391 3.608.13-.956.696-1.13 1.043-1.13s.652.26.652.825c0 1.391-1.695.74-1.695 2.304 0 .652.826.87.826 1.304 0 .392-.696 1.087-1.522.522.304.609.826 1.13 1.565 1.13s1.565-.608 1.87-1.39c.39.999.088 2.086-.61 2.26.74.347 2.522 0 2.304-2.304 1.043.173 1.565.869.956 2.086.826-.217 1.565-.608 1.565-1.478 0-.695-.695-.912-.392-1.782m-19.517-31.21c-.956.089-.913-.826-2.565-1.218 1.13-.217 2.652-.825 3.956-1.304.26 1.087-.217 2.435-1.391 2.522m6.65 7.085c-1.217.522-2.13-.565-2.347-1.26-.26-.74-.435-1.348-.173-1.61.522-.521.695-.912.391-1.564-.391-.739-1.173-.392-2-.173.393-.74.436-1.218-.13-1.174-.651.089-.651 1.13-.999 1-.347-.13-.173-.739-.173-1.042 0-.436.305-.61.739-.783l3.52-1.347c.436-.174.74-.26 1.043.044.26.26.826.522.652.87-.173.347-.912-.391-1.434 0-.435.347-.045.695.739.912-.783.435-1.565.739-1.304 1.521.217.696.608.826 1.347.87.392 0 .652.565 1 1.26.347.652.435 1.913-.87 2.478m.217-9.78c-.912.738-2.173.044-2.738-.913 1.304-.522 2.782-1.13 3.782-1.739-.913 1.434-.304 2.043-1.043 2.652m-2.133-8.91c.26.391.348.61.392.913-.217-.089-.435-.26-.695-.608l.13 1.565c.173-.305.347-.479.565-.566-.044 1-.478 1.435-.826 1.478-.391.13-.738-.173-.782-.522-.089-.435.305-.695.696-.303.089-.956-.696-.913-1-.522.392-.913.217-1.522-.608-2-.479.826-.26 1.391.391 2.043-.652-.304-1.217.217-.652.913.13-.609.652-.479.783 0 .089.435-.305.956-.956 1.173-1 .26-1.304-.347-1.522-.869.217-.13.696-.089 1.26.26l-.478-1.52c-.217.521-.522.738-.912.912-.045-.435.305-1.348.305-1.348l-1.87.783s.87.391 1.174.738c-.391.13-.782.217-1.347 0l.739 1.391c.173-.608.478-.999.738-1.042.174.522.392 1.173-.478 1.652-.652.303-1.304.217-1.521-.13-.26-.436.044-.913.565-.566-.09-.869-.87-.869-1.087-.217 0-.912-.26-1.434-1.217-1.695-.217.912.089 1.434.999 1.825-.522-.089-1.043.436-.347 1.088 0-.566.478-.652.739-.26.173.26.13.695-.217.912-.305.217-.913.217-1.652-.522.217-.09.478-.045.825.044l-1-1.217c.044.435 0 .739-.089.956-.174-.26-.26-.478-.347-.956l-.783.696c.74.435 1.565 1.087 2.565 2.477 1.043-.652 2.956-1.565 4.086-2.043 1.174-.478 3.173-1.13 4.39-1.39-.26-1.696-.13-2.74.09-3.565zm-7.78-2.086.565 1.174.652-.826c.044 0 .044 0 .089.045.044.392.089 1.087.089 1.434 0 .479.392.87.869.87.435 0 .826-.391.826-.87 0-.303-.174-.608-.435-.739-.348-.26-.696-.608-.956-.869 0-.044.044-.089.044-.13l1.13.09-.435-1.175-.869.696h-.044l-.045-1.26-1.173.434.782.956c-.045 0-.045.045-.045.09zm4.303.913a.682.682 0 0 0 0-.956.682.682 0 0 0-.956 0 .682.682 0 0 0 0 .956c.26.26.696.26.956 0m1.521-1.13a.683.683 0 0 0 0-.956.682.682 0 0 0-.956 0 .682.682 0 0 0 0 .956c.26.26.696.26.956 0m1.783.304a.682.682 0 0 0 0-.956.683.683 0 0 0-.956 0 .683.683 0 0 0 0 .956c.26.26.695.26.956 0m.13 1.435c.26.26.695.26.956 0a.683.683 0 0 0 0-.956.683.683 0 0 0-.956 0 .683.683 0 0 0 0 .956m-7.65 1.217c.391 0 .695-.304.695-.652a.686.686 0 0 0-.696-.696c-.347 0-.652.304-.652.696 0 .347.304.652.652.652m-1.782.13c.39 0 .696-.304.696-.652a.687.687 0 0 0-.696-.695c-.347 0-.652.303-.652.695a.67.67 0 0 0 .652.652m-.391.783a.669.669 0 0 0-.652-.652c-.392 0-.696.303-.696.652 0 .391.304.695.696.695.347 0 .652-.304.652-.695m.26 1.825a.687.687 0 0 0-.695-.695c-.347 0-.652.305-.652.695a.67.67 0 0 0 .652.652c.39 0 .696-.305.696-.652m44.946 48.381a.456.456 0 0 0 .217.13c1.088.304 2.304-.478 2.956-.303-.869-.305-1.39.217-2.216.044.478 0 .999-.089.999-.217-.347.217-1.391-.174-1.826.09-.044.044-.089.044-.089.088-.347.089-.609.26-.609.479 0 .738 2.739.173 2.739.391 0 .217-.522.392-1.26.392-.566 0-1.479-.347-2.696-.089.09-.217.347-.522.217-.652.13-.045.174-.09.174-.174-.045-.089-.13-.089-.174-.089.045-.089 0-.13-.044-.173-.045 0-.045-.09-.09-.13 0 0-.088-.09-.216-.13-.09-.09-.174-.09-.217-.09-.045 0-.13.045-.174.045-.044 0-.089 0-.13.044-.045-.044-.089-.089-.174-.089-.044.09-.044.174 0 .304-.13 0-.217.217-.303.217l.089.089c-.09.13-.09.304-.217.304.089.044.089.089.13.13-.045.217-.09.479-.045.652-.173-.173-.435-.565-.608-.652-.13-.13-.174-.174-.174-.347 0-.13.089-.26.089-.392 0 0-.045-.089-.045-.13a.236.236 0 0 0-.217-.13c.045.044.09.089.09.13-.045.044-.045.089-.045.089-.045.044-.089.089 0 .13v.089c0 .045 0 .045-.045 0-.044-.089-.089-.217-.173-.217h-.045v-.044c0-.09-.089-.174-.217-.045 0 0 .09 0 .09.045 0 .044-.045.089-.045.089 0 .089.089.13.173.13.045 0 .045 0 .045.044v.045c.044 0 0 0 0 0-.174-.09-.26 0-.26.089v.089c-.045.044-.09.13.044.217 0-.045 0-.13.045-.13h.044l.045.044s.044 0 .089-.044h.044l.045.044c-.09.13-.09.26.044.304h.045c0 .217-.305.174-.26-.045-.174.26.088.479.303.348.044-.045.044 0 .044 0 0 .044.045.089.09.089 0 0 0-.045.044-.045 0 .09.044.13.13.174-.044-.045 0-.09 0-.09.045 0 0 .306.304.523.089.173.217.26.392.26.089.13.13.26.13.26-.045 0-.435-.044-.522 0-.089.045-.26.13-.347.13l-.045.045v-.044c-.089 0-.173 0-.217-.045-.089-.089-.044-.13-.089-.173-.044-.09-.089-.13-.13-.13h-.089c-.044-.045-.174-.09-.26-.045.089.044.13.044.173.13-.044 0-.044.045-.044.045-.045.089 0 .13.217.217v.044h-.13c-.09-.089-.09-.174-.217-.13l-.045.044h-.044c-.09-.044-.26.09-.174.217 0 0 .044-.089.13-.089v.045c0 .13.09.217.305.089.045-.045.045 0 .045 0-.09.089-.217.173-.09.26 0 0 0 .045.045.045v.044c-.044.13.09.217.174.217-.045-.044-.09-.089-.045-.217l.045.045c.13-.045.044-.217.13-.26 0 0 .044 0 .044.044s.045.173.174.173c.13 0 .174-.13.174-.217.044.045.089.09.089.13 0 0 .089-.044.089-.088.044.089.044.173-.045.26.045 0 .174-.089.217-.26 0 .044.045.044.045.089h.304v.13s.045-.045.09-.045c.044 0 0 .13.044.217.044-.347.26-.217.478-.39v.044a.096.096 0 0 1-.089.09c.09 0 .348-.09.348-.218 0-.044.13-.217.173-.608h.09c.303 0 .434-.217.738-.26-.089.088-.089.303-.089.434 0 .174.174.347.26.392v.044c-.13 0-.216 0-.216.045-.26.13-.26-.347-.522-.26l-.045.044c-.13 0-.26.13-.217.217.045-.044.09-.089.13-.089v.045c0 .044.045.089.13.089.045 0 .045-.045.09-.045l.044.045c0 .089-.347-.045-.26.217 0 0 0 .044.044.089-.044.089.045.13.174.089 0 0-.09-.045-.045-.09h.045s.044 0 .044-.044c.045 0 .045 0 .045.045 0 0-.045 0-.045.044l.045.09c0 .088.13.173.26.088-.044 0-.13 0-.13-.044l.044-.045c.045 0 .045-.044.045-.089 0-.044 0-.044.044-.044h.045c.044 0 .044 0 .044.044.045.045.13.09.217.045.13-.045 0-.174.13-.217h.13c.131.044.218.044.261 0 .045-.09 0-.304-.13-.391-.089-.045.13-.565-.26-.826.173.045.782.13.869 0 .217.045.391.174.435.174 0 .044.044.089 0 .13-.174.09-.174.174-.26.174-.045-.045-.13-.13-.174-.13-.045-.045-.09-.045-.13 0-.09-.045-.174 0-.217.088.044 0 .089-.044.173 0v.045c-.044 0 0 .044 0 .089h.045s0 .044-.045.044c-.089-.044-.26-.044-.217.045 0 .044.045.044.045.089-.09.044-.09.174-.045.217 0-.045 0-.089.09-.089.044 0 .044.044.044.044.044.045.173-.089.26-.044-.089.044-.173.089-.13.174v.044c0 .09 0 .174.13.217 0 0-.044-.089 0-.13h.09c.173-.09.088-.217.13-.26.044-.09.13.088.303-.045 0 0 .045-.045 0-.13.045.044.09.089.174.044-.13-.089 0-.13.044-.217h.045c.044 0 .089 0 .173-.089-.089 0-.26-.13-.173-.173.173-.09.26-.174.173-.26-.173-.218-.478-.218-.478-.436h.26c.956 0 1.522-.26 1.522-.522-.045-.652-2.826.045-2.826-.435 0-.13.217-.217.392-.304m-2 .09c.045.044.217.13.305.13-.13.044-.089.089-.173.089-.09 0-.13-.13-.13-.217m-.174-.09c-.045.045-.13.13-.217.045-.045-.044 0-.089-.09-.217.09.09.261.174.306.174m-.305.652c.044-.09.044-.13.089-.13.044 0 .089 0 .089-.045.044-.089-.045-.089-.09-.13.045 0 .09-.045.045-.09 0 0-.089.045-.089 0l.045-.044c.044-.044.044-.044.089 0l.217.09c.044.044.089.044.089.088 0 0 0 .09-.045.09 0 0 0-.09-.044-.09-.045 0-.045.045-.045.09-.044 0-.089-.045-.13 0 0 .044 0 .088.045.13 0 .044 0 .089-.045.13 0 .044-.089.13-.174.089-.089-.045-.089-.13-.044-.174m3.36-4.564c0 .045.09.09.174.13 1.086.305 2.304-.478 2.956-.303-.826-.304-1.391.217-2.174.044.479 0 .956-.089 1-.217-.391.217-1.435-.173-1.87.09l-.044.044c-.609 0-1.087 0-1.087.391 0 .826 2.217.348 2.912.348.696 0 .609.089.609.217 0 .173-.782.217-1.174.217-.609 0-2.434-.304-3.52-.09.088-.173.26-.391.173-.521.089-.045.173-.13.173-.217-.089-.045-.13-.09-.217-.09.045-.044 0-.13-.044-.173 0 0-.045-.13-.09-.13 0-.045-.088-.089-.216-.174-.13-.044-.217-.044-.26-.044-.045-.045-.13 0-.13 0-.09 0-.13 0-.13.089-.09-.09-.131-.09-.218-.09-.044.09-.044.131-.044.261-.09.045-.174.26-.26.26.044.045.044.09.088.09-.089.173-.13.347-.217.347.045.044.045.089.09.089-.045.089-.045.217-.045.304h-.174c-.13-.045-.173 0-.435-.174-.13-.089-.13-.174-.13-.304 0-.173.044-.304.044-.435 0 0-.044-.089-.044-.13-.045-.089-.174-.174-.217-.13.044 0 .089.044.089.13l-.09.089c0 .044-.044.089 0 .13l.045.045s0 .044-.044.089c-.045-.13-.09-.26-.174-.26h-.044v-.045c0-.13-.13-.174-.26-.09.044.045.088.045.088.09 0 .044-.044.089-.044.089 0 .13.089.173.217.173h.044v.045c0 .044 0 .044 0 0-.217-.045-.305.044-.305.089v.089c-.044.044-.089.173.045.217 0 0 0-.09.044-.09 0 0 .045 0 .045-.044 0 .045.044.045.044.09.045 0 .045 0 .13-.045 0-.045 0-.045.045 0 0 0 .045 0 .045.044-.13.13-.09.26.044.304.045 0 .045 0 .045.045 0 .217-.304.173-.304-.045-.174.26.13.435.347.305h.044c0 .045.045.09.09.09 0 0 0-.045.044-.045v.044c0 .045.044.13.13.13-.044-.044 0-.089 0-.089.045 0 .045-.089.347.045 0 .089.045.089.09.13l.216-.045c-.044.174.045.392 0 .392-.044 0-.391 0-.478.045-.174.089-.565.217-.652.044-.045-.044-.045-.089-.09-.173-.044-.045-.088-.09-.13-.09h-.088c-.045-.088-.217-.088-.26-.044.044 0 .088 0 .13.09v.088c-.045.045-.045.13.216.217 0 0 .045.045 0 .045-.044 0-.089 0-.13-.045-.089-.044-.089-.174-.217-.089 0 0-.044 0-.089.045v-.045c-.13 0-.304.13-.217.26 0-.044.045-.089.13-.089v.045c.045.13.09.26.348.089.044-.045.044 0 .044 0-.089.089-.217.217-.13.304.044 0 .044 0 .089.044h-.045c0 .174.13.26.217.26a.33.33 0 0 1-.089-.216h.09c.13-.045.088-.174.13-.217h.044c0 .044.045.217.174.173.173 0 .217-.13.217-.173v-.045c.044.045.089.09.089.174l.089-.09c.044.045.044.131-.045.261.045-.044.174-.13.217-.26.045 0 .045.044.045.044h.044c.045.045.13.045.26 0h.045c-.044.09-.044.13 0 .174 0-.045.045-.09.045-.09.044 0 0 .174.089.218.044-.347.347-.26.565-.392.044-.044.044-.044.044 0-.044.045-.044.09-.089.13.217.13.479-.217.566-.391 0-.045.044-.045.044-.09.045.045.045.09-.044.13.26 0 .217-.173.347-.173.695.045.13-.608 1.304-.391.089 0 .217-.09.304-.13-.09.13-.09.478.089.478.089.044.217.089.26.13-.089.045-.173.045-.217.09-.26.173-.26-.393-.522-.261-.044 0-.089 0-.089.044-.089 0-.26.13-.217.217.045-.044.09-.089.174-.089v.045c0 .044 0 .089.089.089h.133c0 .13-.303-.045-.26.217l.044.089c0 .089.045.173.217.13a.096.096 0 0 1-.089-.09h.09v-.044h.088c0 .045-.044.045-.044.045 0 .044 0 .089.044.13-.044.09.13.174.26.09-.044 0-.13 0-.13-.09h.045c.045-.044.045-.089.045-.13h.089c.044-.045.044 0 .089 0 0 .089.089.13.173.089.174-.09.045-.217.174-.26h.13c.13.044.304.044.347 0 .045-.09.045-.348-.13-.436-.089-.044 0-.13-.089-.26.174.044.347.13.522.13.392 0 .565-.044.782-.173.217-.13.435-.045.479-.045.044 0 .089.045.044.09-.089.216-.044.216-.089.304-.089.089-.217.044-.347 0-.044 0-.13.044-.13.044-.09.045-.217.13-.26.26a.33.33 0 0 1 .216-.088s-.044 0-.044.044c0 .13.13.174.26.045 0 0 .045 0 0 .044-.089.045-.26.174-.13.217 0 0 0 .045.045.045-.045.089 0 .173.089.173-.045-.044-.045-.044.044-.13h.045c.089 0 .089-.173.217-.217 0-.044.044-.044 0 0-.045.09-.09.217 0 .217l.044.045c0 .089.09.13.217.044l-.089-.044c.045-.045.09-.13.09-.13.13-.174-.045-.174-.045-.26.044-.131.217-.045.26-.261.045-.045.045-.09-.044-.13.044 0 .13 0 .173-.09-.173.045-.089-.088-.089-.173v-.045c.09-.044.13-.089.13-.217-.044.09-.217.13-.217 0 0 0 0-.089-.13-.044-.26 0-.652-.045-1.13-.089 0 0-.045-.045 0-.045.478-.044 1.478-.089 1.478-.39 0-.26-.045-.435-.87-.435-.868 0-2.738.305-2.738-.174 0-.217.347-.217.826-.173m-2.739-.045c-.044.045-.13.13-.217.045-.044-.09.045-.09-.044-.217.044.044.217.13.26.173m.174.479c-.045 0-.045-.09-.09-.09-.044 0-.044.045 0 .09-.088 0-.13-.045-.173.044 0 .045 0 .045.045.13v.09c-.045.088-.13.173-.217.13-.09-.045-.09-.174-.045-.217.045-.045.045-.09.09-.09a.096.096 0 0 0 .088-.088c.045-.045 0-.09-.089-.13.09 0 .09-.045.09-.09-.045 0-.13.045-.13 0l.044-.044c.044-.045.044-.045.089 0l.26.089c.044.044.089.044.044.089 0 .044.045.089 0 .089m.13-.174c-.088 0-.13-.13-.088-.217.044.045.217.09.303.13-.13.045-.13.09-.217.09m6.317-2.496v-.045c.09 0 .13-.089.09-.217-.045.09-.217.174-.217 0 0 0 0-.089-.174-.089-.26.045-.522 0-1-.044-.044 0-.088-.045 0-.045.48-.044 1.392-.13 1.392-.435 0-.26-.26-.435-1.174-.435-.87 0-3.565.304-3.565-.174 0-.304.913-.217 1.609-.173 0 .044.089.089.173.13 1.13.304 2.435-.522 3.087-.347-.87-.305-1.435.217-2.304.044.522 0 1.043-.089 1.087-.217-.392.26-1.478-.173-1.956.13-.045 0-.045 0-.089.045-.826 0-1.826-.09-1.826.39 0 .87 3.043.348 3.782.348.739 0 .913.089.913.217 0 .217-.74.26-1.174.26-.652 0-3.521-.39-4.695-.044.09-.174.347-.479.217-.61.13-.044.174-.13.217-.26-.089-.044-.173-.089-.217-.089 0-.044-.044-.089-.089-.13 0 0 0-.13-.044-.173-.045-.045-.13-.09-.26-.174-.13-.044-.218-.044-.261-.044-.045-.045-.13 0-.174 0-.044 0-.13 0-.13.089-.044-.09-.13-.09-.217-.09-.044.09-.044.174 0 .305-.13 0-.217.26-.347.217.044.09.089.13.13.13-.089.13-.13.348-.217.348.045.089.09.13.13.13 0 .089-.044.174-.044.26l-.13-.044h-.13c-.045-.045-.09-.045-.13-.045-.174 0-.261-.26-.523-.391-.13-.09-.173-.174-.173-.347 0-.174.089-.304.089-.436 0 0-.045-.089-.045-.13-.044-.089-.173-.173-.217-.13.045 0 .09.045.09.13l-.09.09c0 .044-.044.088 0 .13l.045.044c0 .044 0 .044-.045.089-.044-.13-.089-.26-.173-.304h-.09c0-.13-.13-.217-.26-.089.045 0 .09.045.13.045-.044.044-.044.13-.044.13 0 .13.089.173.174.173h.044s0 .045.045.045c0 .044-.045.044-.045.044-.174-.089-.26 0-.26.09v.044c-.09.089-.09.174.044.26 0-.044 0-.089.045-.13.044 0 .044.045.089.045 0 0 .044 0 .089-.045h.044c.045 0 .045.045.09.045v.044c-.174.13-.131.26.044.26l.044.045c0 .26-.347.217-.347-.044-.174.303.13.521.39.347 0 0 .045 0 .045.044 0 .045.045.09.09.09-.045-.045 0-.09.044-.09v.045c0 .044.044.173.13.173v-.13c.089 0 .217.39.608.565-.044 0 .13-.089.174-.13.045.09.089.13.13.174l.09-.045c-.045.174.173.348.13.348-.045 0-.392-.045-.522 0-.13.089-.566.26-.696.089 0-.09 0-.13-.044-.217-.045-.045-.09-.09-.13-.09h-.09c-.089-.088-.26-.088-.305-.044.045.045.13.045.174.13-.044 0-.044.045-.044.045-.045.089-.045.173.217.26.044 0 .044 0 .044.045-.044 0-.089 0-.174-.045-.089-.089-.089-.173-.217-.13 0 0-.044.044-.089.044-.13 0-.303.13-.217.26 0-.044.045-.088.13-.13 0 .045.045.09.045.09 0 .13.045.26.305.089.045-.045.045 0 .045 0-.045.089-.26.217-.09.305 0 0 0 .044.045.044v.045c-.044.13.13.26.217.217-.044 0-.089-.09-.089-.217a.138.138 0 0 0 .089.044c.13-.044.045-.217.13-.26h.045c0 .089.044.217.173.217.174 0 .217-.13.217-.217v-.045a.33.33 0 0 1 .09.174s.088-.045.088-.09c.045.045.045.174-.044.261.044-.044.217-.089.26-.26 0 .044.045.044.045.089.044 0 .173 0 .305-.045.044 0 .044.045.044.045v.13s.045-.045.09-.045c.044 0-.045.13.088.217 0-.391.217-.217.479-.391v.044a.096.096 0 0 1-.09.09c.09.088.436-.131.436-.305 0 0 .13-.044.26-.044.26 0 .217-.174.305-.174 1.434.174.609-.608 2.304-.435.089 0 .13-.13.173-.173-.089.173-.089.478.09.522a.47.47 0 0 1 .303.13c-.13.044-.217.044-.26.089-.26.173-.26-.392-.522-.305-.045 0-.089.044-.089.044-.13 0-.26.174-.26.26a.33.33 0 0 1 .173-.088v.044c0 .045.045.09.13.09h.134c0 .13-.347-.045-.304.26.045 0 .045.044.09.089-.045.089.044.173.216.13-.044-.045-.089-.09-.089-.13h.09l.044-.045s.044 0 .044.045c0 0-.044 0-.044.044 0 0 0 .09.044.09-.044.088.13.216.26.088-.044 0-.13 0-.13-.044.045-.045.045-.045.09-.045v-.089c0-.044.044-.044.044-.044h.089c.044 0 .044 0 .044.044.045.045.09.09.217.045.174-.045 0-.217.174-.217.044 0 .089-.045.13 0 .13 0 .347 0 .392-.045.044-.089 0-.347-.174-.435-.089-.045 0-.174-.044-.305.13.09.303.13.522.13.391 0 .565-.044.738-.173.174-.09.436-.045.479-.045.044 0 .089.045.089.13-.089.174 0 .217-.089.304-.045.09-.174 0-.304 0-.089 0-.13.045-.13.045-.089.044-.217.13-.217.217.044 0 .089-.045.174-.09v.045c0 .174.13.217.26.09 0 0 .044 0 0 .044-.089.089-.217.217-.13.26.044 0 .044 0 .089.045 0 .089.044.173.13.173-.045-.044-.045-.089 0-.173h.089c.089 0 .044-.174.174-.217-.045.089-.09.217 0 .26h.089c.044.089.13.13.217.089 0-.045-.045-.045-.09-.089l.09-.089c.089-.217-.09-.217-.09-.304 0-.13.218-.044.218-.26 0-.045 0-.13-.09-.13V54c.09 0 .13.045.174-.044-.173 0-.089-.13-.13-.217m-6.303-1.652c.045.044.217.13.347.173-.173.045-.13.09-.217.09-.13 0-.13-.13-.13-.261m-.217-.089c-.044.089-.13.13-.217.089-.089-.089 0-.089-.089-.26.09.044.26.173.305.173m-.347.696c.044-.045.089-.09.13-.09.044 0 .089 0 .089-.088.044-.045-.045-.09-.089-.13.044 0 .089-.045.044-.09-.044 0-.089.045-.089 0-.044 0 .045-.044.045-.044.044-.045.044-.045.089 0l.26.089c.045.044.09.044.09.089 0 .044 0 .089-.045.089s-.045-.089-.09-.089c-.044 0-.044.044 0 .089-.088 0-.13-.045-.173.044 0 .045 0 .09.045.13 0 .045 0 .09-.045.13 0 .09-.089.131-.173.09-.13-.045-.09-.13-.09-.217m-.216-.392zm.089-.304h-.045.045m-5.512-5.015c0-.26-.26-.479-1.174-.479-.869 0-3.564.348-3.564-.13 0-.304.912-.173 1.608-.173 0 .044.09.089.174.13 1.13.305 2.304-.435 3.13-.174-.653-.609-1.478.045-2.348-.13.522 0 1.043-.089 1.043-.217-.347.26-1.478-.174-1.913.089l-.089.089c-.825 0-1.825-.13-1.825.392 0 .869 3.042.347 3.781.347.74 0 .913.089.913.217 0 .217-.739.26-1.174.26-.652 0-3.52-.391-4.694-.044.089-.174.347-.479.217-.652.13-.045.173-.09.173-.174-.044-.089-.13-.089-.173-.13 0-.045-.045-.09-.09-.13 0-.045 0-.13-.044-.174-.044-.044-.13-.089-.26-.174-.13-.044-.217-.044-.26-.044-.045-.045-.13 0-.174 0-.045 0-.13 0-.13.089a.33.33 0 0 0-.217-.089c-.045.089-.045.174 0 .304-.13 0-.217.26-.304.217 0 .089.044.13.089.13-.09.13-.13.347-.217.347 0 .045.044.09.089.09-.045.088-.045.173-.045.303l-.089-.045h-.13c-.044-.044-.089-.044-.13-.044-.174 0-.26-.26-.479-.392-.173-.089-.217-.173-.217-.347 0-.13.09-.304.09-.435 0 0-.045-.089-.045-.13-.045-.09-.174-.174-.217-.174.044.045.044.09.089.174l-.09.089c-.044.044-.044.089 0 .13l.045.044s0 .045-.044.09c-.045-.13-.09-.26-.217-.304h-.045c0-.13-.13-.217-.26-.09a.138.138 0 0 0 .089.045v.13c0 .13.089.174.174.174h.044v.044c.045.045 0 .045 0 .045-.173-.089-.26 0-.26.089v.089c-.09.044-.09.13.044.217 0-.045-.044-.13.045-.13.044 0 .044.044.044.044.045 0 .09 0 .13-.044h.045s.044.044.089.044v.045c-.174.13-.13.26.044.26l.045.045c-.045.26-.347.217-.347-.045-.174.305.13.522.391.392 0-.045 0-.045.045 0 0 .044 0 .089.044.089 0-.045.045-.045.09-.045 0-.044 0 0 0 0 0 .09.044.13.13.174 0-.045 0-.13.044-.13.045 0 .217.347.565.565.045-.044.174-.044.174-.13 0 .044.045.089.089.089 0 .173.13.39.089.39-.044 0-.609-.044-.739.045s-.522.217-.652.044c-.044-.044-.044-.089-.089-.173-.044-.09-.089-.13-.13-.13h-.09a.263.263 0 0 0-.303-.045c.045 0 .13.045.174.13l-.045.045c-.044.089 0 .173.217.26h.045c-.045.045-.09.045-.13 0-.13-.089-.13-.173-.261-.13 0 .045-.044.045-.089.045-.13 0-.305.13-.217.26 0 0 .045-.089.13-.13 0 .044.045.089.045.089 0 .13.044.26.347.089 0-.045 0 0 0 0-.045.13-.217.217-.09.304l.045.044v.045c-.044.13.13.26.217.26-.044-.045-.089-.13-.089-.26a.138.138 0 0 0 .09.044c.13-.044.044-.217.13-.26h.044c0 .089.045.217.174.217.173-.045.217-.13.217-.217 0 0 0-.045 0 0 .089 0 .13.089.089.13.044 0 .089-.045.13-.09 0 .045 0 .174-.09.261.09 0 .218-.089.261-.26 0 .044.045.044.045.089.044 0 .173 0 .304-.045.044 0 .044 0 .044.045v.13s.045-.089.09-.089c.044 0 0 .174.088.26 0-.391.479-.173.739-.347 0 .045-.044.09-.089.13.089.045.217-.044.304-.13 0 .045-.045.045-.045.045l.39-.174c.045-.044.045-.089.045-.13h.13c.218 0 .218-.217.304-.174 1.435.174.61-.608 2.304-.478.09.044.09 0 .174-.09-.09.174-.09.436.089.48a.47.47 0 0 1 .304.13h-.045c-.089.044-.174.044-.217.089-.26.173-.26-.391-.522-.304a.096.096 0 0 0-.089.089c-.13 0-.26.089-.26.217.044 0 .089-.09.173-.09v.045c0 .045 0 .09.13.09h.134c0 .13-.347-.045-.304.26l.09.089c-.045.089.044.173.216.13-.044-.045-.089-.09-.089-.13h.09V48.8h.044v.09s0 .088.044.088c-.044.13.13.217.26.13 0 0-.13-.044-.13-.089l.09-.044v-.09l.044-.044h.133c0 .09.09.13.217.13.174-.088.045-.26.174-.26 0-.044.09-.044.09 0 .173 0 .39 0 .434-.044.045-.09 0-.348-.13-.435-.13-.045 0-.174-.13-.304.173.089.347.13.565.13.435 0 .522-.045.696-.174.217-.089.435-.044.478-.044.045 0 .09.044.09.089-.045.217 0 .26-.045.347-.045.089-.217 0-.304 0-.09 0-.13.045-.13.045-.13.044-.217.13-.217.26.044-.045.089-.09.173-.09.045.175.174.218.26.131.045-.044.045 0 .045 0-.089.045-.217.217-.089.26l.045.045c0 .089.044.174.13.174 0-.045-.045-.09 0-.174h.089c.089 0 .044-.174.13-.217h.044c-.044.089-.089.217.045.26h.044c.045.09.13.13.26.09-.044 0-.088-.045-.13-.09l.09-.089c.044-.217-.13-.217-.13-.304 0-.13.216-.045.216-.26 0-.045-.044-.131-.089-.131.045 0 .13 0 .13-.09-.13 0-.088-.13-.13-.216v-.045c.045-.044.13-.089.09-.217-.045.09-.218.174-.218 0-.044 0-.044-.089-.173-.089-.305.045-.479 0-.956-.089.478 0 1.391-.13 1.391-.435m-6.39-.739c.045.045.217.13.347.13-.173.045-.13.09-.217.09-.13 0-.13-.13-.13-.217m-.217-.09c-.044.09-.13.13-.217.045-.089-.044 0-.089-.089-.217.09.045.26.174.304.174m-.304.695c0-.044.045-.089.09-.089a.096.096 0 0 0 .088-.089c.045-.089-.044-.089-.089-.13.045-.044.09-.044.045-.089 0-.044-.09 0-.09 0-.044-.044 0-.044.045-.089.045-.044.045 0 .09 0l.26.13c.044 0 .088.045.088.09 0 .044 0 .088-.044.088 0 0 0-.089-.089-.089-.045 0-.045.045 0 .09-.089 0-.13-.045-.174 0 0 .088 0 .13.045.13 0 .044 0 .088-.045.173 0 .045-.089.13-.173.089-.09-.044-.09-.174-.045-.217m7.308-3.928c0-.305-.348-.478-1.26-.478-.913 0-3 .347-3-.174 0-.26.435-.217.912-.173.045.044.09.044.174.089 1.217.347 2.608-.26 3.347-.09-.87-.652-1.565.045-2.478-.173.522 0 .696-.13.739-.26-.435.26-1.217-.174-1.695.13 0 .044-.045.044-.045.089-.652-.045-1.217-.045-1.217.39 0 .913 2.478.392 3.26.392.782 0 .913.09.913.217 0 .217-.74.304-1.174.304-.696 0-2.695-.39-3.912-.13.089-.217.304-.435.173-.609.13-.045.217-.13.217-.217-.089-.045-.173-.089-.217-.089.045-.089-.044-.13-.089-.174 0-.044 0-.13-.044-.173-.045-.045-.13-.13-.26-.174-.13-.089-.26-.089-.304-.089l-.13.045c-.09-.045-.174-.045-.174.044a.33.33 0 0 0-.217-.089c-.045.13-.045.174-.045.347-.089 0-.217.26-.303.26l.089.09c-.09.173-.13.39-.217.39.044.09.089.13.13.13v.348l-.217-.09h-.045c-.044 0-.044 0-.089-.044.045 0 .09.045.09.045l-.09-.045c-.13-.089-.26-.26-.435-.347-.173-.089-.173-.174-.173-.39 0-.13.13-.305.13-.436-.045-.044-.045-.089-.045-.13-.044-.13-.173-.217-.26-.173.044.044.089.044.089.173-.045 0-.045.045-.09.09 0 .044-.044.088 0 .13l.045.044s-.044.044-.044.089c-.045-.13-.09-.304-.174-.304h-.089c0-.13-.13-.217-.26-.089.044 0 .089 0 .089.045v.13c-.045.13.044.13.174.173h.044v.045c.045.044 0 .044 0 .044-.217-.13-.305 0-.305.09v.088c-.089.045-.089.174 0 .26 0-.044 0-.13.09-.13v-.044c.044.045.044.045.088.045 0 .044.045 0 .13 0 0-.045 0-.045.045 0h.044v.044c-.173.174-.13.304.045.304.044 0 .044.044.044.044-.044.26-.39.217-.347-.044-.217.305.13.522.392.392 0-.045 0 0 0 0 .044.044.044.089.089.089 0 0 .044-.045.089-.045 0 .09 0 .174.13.174-.044-.045 0-.09.045-.09.044 0 .13.174.347.304.173.09.304.26.391.174 0 .174.174.347.13.347-.044 0-.565 0-.651.045-.174.089-.61.26-.74.089-.044-.09 0-.13-.088-.217-.045-.09-.09-.13-.13-.13h-.09c-.089-.09-.26-.09-.303-.045.044.045.13.045.173.13 0 .045-.044.09-.044.09-.045.044 0 .13.26.216v.045c-.044.044-.089.044-.13 0-.13-.09-.13-.217-.26-.13 0 0-.045.044-.09.044h-.044c-.089-.044-.305.13-.217.26a.587.587 0 0 1 .174-.13v.09c.044.13.089.26.391.088 0-.044 0 0 0 0-.044.13-.26.217-.089.304 0 0 .045.045.045.089-.045.174.13.304.217.26-.045-.044-.09-.089-.09-.217h.09c.13-.044.089-.217.173-.26.045.089.045.26.217.217.13 0 .217-.13.217-.217.09 0 .13.089.09.174.044-.045.088-.09.13-.13 0 .088.044.173-.09.26.09 0 .218-.09.261-.26.045.044.045.044.045.088h.044c.045 0 .174.045.304 0 .044-.044.044 0 .044 0-.044.09-.044.13 0 .174 0-.044.045-.089.09-.089.044 0-.045.174.088.26.045-.435.26-.26.522-.435v.045c0 .044-.044.089-.089.13.26.045.696-.392.783-.565.13 0 .217-.045.26 0 .826.044.26-.74 1.521-.522.09 0 .26-.09.347-.13-.089.173-.089.522.09.565.044 0 .216.044.303.13h-.044c-.09 0-.217.045-.217.09-.304.173-.304-.436-.609-.305l-.044.045c-.13 0-.304.13-.26.26.044-.044.088-.089.173-.089v.045c0 .044.044.089.13.089h.133c0 .13-.347-.045-.303.26l.089.09c-.045.088.044.173.217.13a.096.096 0 0 1-.09-.09h.09v-.089h.044v.134s0 .044.045.089c-.045.089.13.217.303.089-.044 0-.13 0-.173-.09h.089c.044-.044.044-.088.044-.13h.09c.044-.044.044 0 .044 0 .044.09.13.13.26.09.174-.045 0-.217.174-.26.044 0 .089-.045.089 0 .173.044.392 0 .435-.045.044-.09.044-.347-.13-.435-.09-.09 0-.174-.09-.348.174.09.348.174.566.174.435 0 .522-.089.739-.217.217-.089.435-.044.522-.044.044.044.089.044.044.13-.044.217.045.217 0 .347-.044.089-.217 0-.347 0-.089 0-.13.044-.13.044-.09.045-.217.13-.217.26a.587.587 0 0 1 .174-.13v.045c.044.174.173.217.304.13 0-.044.045 0 0 0-.089.09-.217.217-.089.26l.045.045c0 .09.089.174.174.217-.045-.044-.045-.089 0-.173h.089c.089 0 .044-.217.13-.26 0 0 .044 0 0 0 0 .13-.045.26.044.26.045 0 .045.044.09.044.044.09.13.13.26.09 0-.045-.09-.09-.09-.131 0 0 .045-.045.045-.09.09-.216-.13-.216-.13-.304 0-.13.217-.044.217-.26 0-.045 0-.13-.09-.174.045 0 .131 0 .175-.089-.174.045-.13-.089-.174-.217l.044-.044c.045 0 .09-.09.045-.217-.045.089-.217.173-.26 0 0 0 0-.09-.174-.09-.26.045-.479 0-1-.088.608 0 1.521-.13 1.521-.479m-5.738-.782a.82.82 0 0 0 .347.13c-.173.045-.13.089-.217.089-.13 0-.173-.13-.13-.217m-.217-.13c-.044.089-.173.173-.26.089-.045-.09.044-.13-.09-.26.09.088.261.173.348.173m-.347.739c.044-.045.044-.09.089-.09.044 0 .089-.044.13-.088 0-.09-.045-.09-.13-.13.089-.045.13-.09.089-.09-.045-.044-.13 0-.13 0 0-.044.044-.088.044-.088.045-.045.089 0 .089 0l.304.13c.044 0 .089.044.089.089-.045 0 0 .089-.045.089-.044 0-.044-.09-.089-.09-.044 0-.044.045 0 .09-.089 0-.13-.045-.173.044-.045.045-.045.09 0 .13.044 0 0 .09 0 .13-.045.09-.13.174-.217.09-.09-.045-.09-.13-.045-.217m.74 1.608zm4.235-4.979c.912 0 1.39-.304 1.39-.608 0-1-2.564-.391-2.564-1 0-.13.044-.217.174-.305h.044c1.304-.089 1.304-.999 2.217-1.173-1.087-.174-1.26.695-1.739.739.26-.13.347-.435.347-.522-.217.304-.738.347-1 .695a.33.33 0 0 0-.089.174c-.13.089-.26.217-.26.392 0 .955 2.608.303 2.608.999 0 .26-.435.435-1.174.435-.522 0-.912-.39-1.913-.13 0-.174.348-.479.217-.652.09-.045.174-.13.174-.174-.089-.089-.13-.089-.217-.089.045-.089 0-.13-.044-.173 0 0-.045-.09-.045-.13a.864.864 0 0 0-.217-.13c-.13-.09-.217-.09-.26-.09-.045 0-.13.045-.13.045-.09-.045-.13-.045-.13.044a.33.33 0 0 0-.218-.089c0 .09-.044.174 0 .26-.089.045-.173.26-.26.26 0 .045.044.09.089.09-.09.13-.13.304-.217.304.044.044.044.089.089.089-.09.217-.13.478-.174.608-.044-.089-.13-.13-.173-.173-.174-.09-.174-.174-.13-.305 0-.13.088-.26.13-.39l-.045-.09c0-.089-.13-.173-.217-.13.045 0 .09.045.09.13-.045 0-.09.045-.09.045-.044.044-.044.089 0 .13v.045l-.044.044c0 .045 0 0 0 0 0-.089-.045-.217-.13-.217h-.09c0-.044.045-.044.045-.044 0-.09-.089-.174-.26-.045.044 0 .089 0 .089.045l-.045.089c0 .089.09.13.174.13h.044v.089c-.173-.09-.305 0-.305.089v.044c-.089.045-.13.13 0 .217 0-.044 0-.089.045-.13h.044c0 .045.045.045.045.045s.044 0 .13-.045h.044c0 .045 0 .045.045.045v.044c-.13.089-.13.217 0 .26h.044c-.044.217-.347.174-.303-.044-.217.26.044.435.303.305h.045c0 .044 0 .089.044.089 0 0 0-.045.045-.045.044 0 .044 0 .044.045 0 .044 0 .13.09.13 0-.044 0-.089.044-.089s.089.174.217.305c-.174.13-.565.217-.565.217-.045 0-.348-.045-.479 0-.13.089-.478.217-.609.044-.044-.044 0-.089-.044-.173-.045-.045-.089-.09-.13-.09h-.09c-.088-.044-.216-.088-.26-.044.045.045.09.045.13.09 0 .044 0 .088-.044.088 0 .045 0 .13.217.217.045 0 .045.045.045.045-.045 0-.09 0-.13-.045-.09-.044-.13-.173-.218-.089 0 0-.044 0-.089.045-.13-.045-.26.089-.217.217l.13-.13c0 .044.045.089.045.089 0 .13.045.217.305.044.045 0 .045 0 0 .045-.044.089-.174.173-.089.26 0 0 .045.045.089.045-.044 0-.044 0-.044.044 0 .13.13.217.217.217a.33.33 0 0 1-.09-.217c.045 0 .09.045.09.045.13-.045.044-.217.13-.26l.044.044c0 .044 0 .173.13.173.13-.044.217-.13.217-.217-.044 0 0 0 0 0 .045.045.09.09.09.13l.088-.089c0 .045.045.174-.044.217.044 0 .173-.044.217-.217 0 .045 0 .045.044.09.045 0 .13 0 .26-.045.045 0 .045.044.045.044-.044.045-.044.09 0 .13l.045-.088c.044 0 0 .13.089.26.044-.347.217-.217.435-.392.044 0 .044 0 .044.045-.044 0-.044.089-.089.089.045 0 .26-.09.26-.174 0-.044.045-.089.131-.13.089 0 .217-.044.26-.13 0 .044.045.173 0 .173.217.045.435-.26.566-.26.478-.089-.348-.478.695-.392.045 0 .217-.044.26-.13-.044.174-.044.479.09.479.089 0 .217.089.26.13-.089.044-.174.044-.217.089-.217.13-.26-.347-.522-.26l-.044.044c-.09 0-.26.13-.217.217.044-.045.089-.09.173-.09v.045c0 .045 0 .09.09.09.044 0 .044-.045.088-.045.045 0 .045 0 .045.044 0 .09-.305-.044-.26.217 0 0 .044.045.044.09 0 .044.044.13.173.088 0 0-.044-.044-.044-.089h.044c.045 0 .045 0 .045-.044h.044v.178c0 .089.13.174.26.089-.044 0-.088-.045-.13-.09h.09v-.088c0-.045.044-.045.044-.045h.134c0 .09.089.13.173.09.174-.045.045-.174.174-.218h.089c.13.045.347.045.347-.044.044-.045.044-.305-.089-.392-.13-.044 0-.13-.089-.26.13.089.304.13.478.13.348 0 .045-.044.174-.174.174-.089.392-.044.435-.044.045.044.09.044.09.089-.045.217 0 .217-.045.305 0 .089-.174 0-.26 0-.09 0-.13.044-.13.044-.09.045-.175.13-.175.217 0 0 .09-.089.13-.089v.045c.045.13.174.173.261.089 0 0 .045 0 .045.044-.09.045-.217.13-.13.217h.088c-.044.09.045.174.13.174-.044-.045-.044-.045 0-.13h.045c.09 0 .045-.174.13-.217h.045c-.045.089-.09.217 0 .217 0 0 .044.044.089.044 0 .045.089.13.217.045a.096.096 0 0 1-.09-.09l.045-.044c.045-.217-.089-.217-.089-.304 0-.089.174 0 .174-.217 0-.044 0-.089-.09-.13.045 0 .09 0 .131-.044-.13 0-.089-.13-.13-.217l.044-.045c.045 0 .045-.089.045-.173-.045.044-.217.13-.217 0 0 0 0-.09-.174-.09-.217.045-.347-.088-.782-.13-.045 0-.045-.044 0-.044m-2.869-1.043h-.044.044m.652-.173c.045.044.217.13.304.13-.13.044-.089.089-.174.089-.089 0-.13-.13-.13-.217m-.173-.09c-.045.09-.13.131-.217.045-.045-.044.044-.089-.045-.217.045.09.217.174.26.174m-.303.609c.044-.045.044-.09.089-.09.044 0 .089 0 .089-.044.044-.089-.045-.089-.09-.13.09 0 .09-.045.09-.09-.045 0-.09.045-.13 0l.044-.044c.044-.044.044-.044.089 0l.26.13c.045 0 .045 0 .045.045v.09c-.045 0-.045-.09-.09-.09-.044 0-.044.045 0 .09-.088-.045-.13-.045-.173 0 0 .044 0 .088.045.13 0 .044 0 .088-.045.13 0 .044-.089.13-.173.089-.09-.045-.045-.13-.045-.217m3.482 14.666h-.217v-.217c.045-.782-.435-1.347-1.26-1.347-.739 0-2.174.956-4.173.956-.826 0-1.87-.391-2.478-.783l-.26.609v-.089a.483.483 0 0 0-.479-.478c-.304 0-.522.216-.522.478 0 .304.217.522.522.522.13 0 .26-.09.347-.174l-.217.566c.09.044.174.089.26.13-.303 3.043 1.957 6.868 5.913 8.085.565-.174 1.173-.089 1.173.565 0 .392-.217.566-.565.566-.217 0-.347-.13-.347-.304 0-.26.435-.13.478-.305.09-.217-.089-.347-.347-.347-.304 0-.695.173-.695.652 0 .565.435.869.869.869.478 0 1.39-.26 1.26-1.348.217 0 .435 0 .522-.217l.045-.608-.217-.045.13-6.955.173.045c.26 0 .479-.13.522-.392 0-.304-.217-.39-.435-.435m-7.172.565 4.825 6.912c-2.565-1-5.13-3.304-4.825-6.912m4.955 6.26-4.39-6.303h.392c.26 0 .478-.045.695-.045l3.521 5.043c-.089.478-.13.912-.217 1.304m.347-2-3.13-4.477c.348-.09.696-.174 1-.26l2.347 3.303c-.089.479-.173.956-.217 1.435m.74-4.912h-.174c-.217 0-.479.089-.479.347-.044.26.174.435.39.435h.13v.217c-.044.392-.173 1.043-.303 1.782l-1.956-2.782c.912-.391 1.695-.782 2.086-.782.304 0 .348.13.304.782m11.997-7.17c.173-.09.304-.174.347-.305-.174.045-.347-.044-.392-.044.13-.09.304 0 .13-.26-.13-.218-.217-.218-.391-.09-.174.174-1.174-.044-1.174-.782.09.13.217.217.347.304.045 0 .09 0 .13.044h.13a.8.8 0 0 0 .304.09h.045v-.045c.217-.045.392-.174.392-.391.044-.435-.348-.609-.783-1-.173-.13-.303-.26-.435-.391-.13-.305-.044-.565-.435-1.13 0-.13-.044-.26-.13-.479-.174.347-.26 1.043.26 1.652.435.435 1.348.913 1.304 1.304a.44.44 0 0 1-.26.217c-.044-.044-.089-.044-.089-.044h-.089c-.089-.045-.13-.045-.217-.09-.089-.088-.174-.173-.304-.26-.391-.347-.739-.869-.956-1.173-.435-.522-.217-1.043-.173-1.522.304-.391-.174-1.217-.435-1.434 0 0 .044-.217-.045-.435-.044.044-.173 0-.26 0-.09-.13-.09-.174-.217-.174-.174-.044-.174-.13-.174-.217-.13.09-.173.174-.26.217-.174 0-.217-.044-.305.045-.09.089-.13.089-.304.089s-.174.13-.13.217c0 .089 0 .217.13.26h.045l.13.174.089-.174c.089-.045.304-.089.347.089.044.13.044.13-.089.174h-.39c-.09 0-.09.13-.09.217 0 .089.13.173.348.089.173-.045.565-.09.565.089 0 .478-.522.478-.652 1-.13-.089-.26-.174-.304-.305a3.312 3.312 0 0 0-.392-.478c-.13-.09-.26-.217-.39-.305-.174-.13-.217-.217-.217-.39 0-.175.089-.306.089-.48 0 0-.045-.088-.045-.13-.044-.089-.173-.173-.26-.173.044.044.089.089.089.173-.045.045-.045.09-.045.09-.044.044-.089.13 0 .173v.089c0 .044 0 .044-.044 0-.045-.089-.09-.26-.174-.26h-.089v-.045c0-.13-.13-.217-.26-.089a.138.138 0 0 0 .089.045v.13c0 .13.089.173.217.173 0 0 .044 0 .044.045v.044c-.217-.089-.303 0-.347.09 0 .044 0 .088.045.13-.09.044-.09.13.044.217 0-.045-.044-.09.045-.13.044.044.044.044.089.044 0 0 .044 0 .089-.045h.089c0 .045.044.045.044.045v.044c-.13.13-.089.26.045.304-.09.13-.305.09-.305-.13-.174.26.13.478.347.347.044.13.044.347.044.347 0-.044.045-.089.09-.089v.045c0 .089.044.13.13.173 0-.044 0-.089.044-.089a.33.33 0 0 1 .09.174c.13.217.39.782.912 1-.26.173-.436.391-.61.608-.173.174-.39.304-.521.217-.089-.044-.089-.089-.174-.13-.089-.045-.13-.09-.173-.045 0 0-.045 0-.09.045-.088-.045-.26 0-.304.044.089 0 .13 0 .217.045v.089c-.045.089.044.173.305.13.044 0 .044 0 .044.045-.044.044-.089.044-.13.044-.13-.044-.217-.13-.304-.044 0 .044 0 .089-.044.089h-.045c-.089.044-.217.26-.089.347 0-.045.045-.13.09-.174a.138.138 0 0 1 .044.09c.089.088.173.173.391-.131v.044c0 .13-.13.304.045.348h.089v.044c.044.13.26.174.304.13-.045-.044-.13-.089-.174-.173h.09c.088-.13 0-.26.044-.347h.044c.045.089.09.217.26.13.09-.045.09-.13.13-.174.174-.089.348-.13.48-.089-.045-.13.088-.26.303-.304.174-.044.26 0 .347.09 0-.13.09-.261.217-.392-.044.825 1.043.825 1.304 1.304-.347-.174-.695-.217-.912-.174-.26.045-.696.26-.782.565-.045.26.217.696.478.87-.305.044-.435-.045-.695.044h-.045c-.217 0-.26-.392-.565-.305l-.09.045c-.088 0-.26.13-.26.26.045-.044.09-.089.217-.089v.045c0 .044 0 .089.09.089h.13v.044c0 .089-.348-.089-.26.217l.044.089c0 .089.044.217.217.13a.096.096 0 0 1-.09-.089h.09s.044 0 .044-.044v-.045l.045.045v.178c0 .089.173.217.305.089-.045 0-.13 0-.13-.045 0-.044.044-.044.044-.044.044-.045.044-.09.044-.13h.045s.044 0 .089-.045l.044.045c.045.044.13.13.217.089.09 0 .09-.045.09-.09.044.045.088.045.13.09 0-.09.044-.217.303-.045l.174-.13s.26.089.347 0c.13-.13.09-.13.09-.26-.131-.261-.174-.218-.218-.48-.089-.39.479-.608.782-.564.09.26.436.956 1 1.13.391.13.522-.26.652-.217.044 0 .044.044.089.13-.045.174 0 .347-.045.435-.044.09-.26 0-.391 0-.09 0-.13.045-.13.045-.13.044-.26.13-.26.26a.33.33 0 0 1 .216-.089v.044c.045.13.217.217.305.09 0 0 .044 0 .044.044-.089.044-.26.217-.13.26 0 0 .045.045.09.045 0 .089.088.173.13.217 0-.09 0-.09.044-.217h.044c.13 0 .09-.174.174-.217 0-.045.045 0 .045 0-.045.089-.09.217.044.26 0 0 .045 0 .089.045 0 .089.13.13.26.044-.044 0-.089-.044-.13-.089l.09-.089c.088-.26-.13-.26-.13-.347 0-.13.216-.044.216-.26v-.045c.13-.089.217-.13.26-.217-.173 0-.303-.044-.303-.089zm2.26 1.39c.217.131.13.523-.174.48-.26-2.348-1.13-4.608-2.477-6.564h.044c.26-.09.479-.304.566-.696-.392-.044-.696.13-.826.392-.09-.13-.174-.26-.304-.392-.826-1.043-1.739-1.912-2.782-2.608a11.027 11.027 0 0 0-3.086-1.435c0-.217.347-.26.478-.044.045-.435-.347-.609-.522-.522-.13.045-.217.13-.26.304-.089-.174-.305-.26-.565-.304 0 .26.044.479.173.609-.173 0-.26.089-.347.173-.089.174.045.566.479.61-.217-.175-.13-.48.13-.48v5.043c-.26-.089-.566-.044-.87.217.306.26.61.304.87.217v5.477c-.26 0-.347-.305-.13-.478-.436 0-.566.347-.479.565.045.13.174.217.392.217-.13.13-.217.304-.217.565a.76.76 0 0 0 .565-.217c0 .217.09.347.217.392.174.089.565-.045.565-.479-.13.217-.478.13-.478-.089h3.782c-.045.217-.045.566.217.826.26-.26.303-.609.217-.826h4.26c0 .26-.304.304-.479.13 0 .392.392.566.565.48.13-.09.217-.218.217-.436.13.13.305.174.566.174a.838.838 0 0 0-.217-.566c.217.045.347-.044.391-.173.09-.217-.089-.566-.478-.566m-3.651-6.65c-.13.089-.174.26-.13.347.044.13.13.217.39.26-.174.13-.26.304-.304.522.217.045.435 0 .609-.13-.045.217 0 .347.13.435.089.045.217.089.347 0a15.014 15.014 0 0 1 1.913 5.26c-.13-.13-.26-.174-.479-.174 0 .304.13.479.26.609h-3.216c.045-.217-.089-.392-.217-.435-.13-.045-.26 0-.435.173 0-.173-.09-.391-.26-.565a.779.779 0 0 0-.217.565c-.174-.173-.304-.217-.436-.173-.13.044-.26.217-.217.435h-2.738a.955.955 0 0 0 .174-.565c-.217.044-.436.13-.566.216v-4.428c.217 0 .392-.09.435-.217.045-.13.045-.305-.13-.436.174 0 .392-.089.565-.26-.173-.174-.391-.217-.565-.26.174-.13.174-.304.13-.435-.044-.13-.217-.217-.435-.217v-3.74c.13.09.304.174.479.174.044-.217-.045-.39-.13-.522.869.26 1.695.696 2.477 1.217.956.609 1.782 1.391 2.565 2.348m12.039 8.216c-.479-.347-1.218-1.043-1.609-1.87-.478-.999-2.521-5.042-2.825-5.563-.304-.479-.435-.87-.435-1.217 0-.436.217-.783.435-1.088.173-.173.608-.608.782-.869.13-.217.26-.347.347-.478-.739-1.304-1.478-2.26-2.477-3.39-1.218-1.348-2.522-2.522-4-3.435.783-.522 1.609-1.26 1.609-2.478 0-.739-.304-1.304-.826-1.782.826-2.652 2.304-5.825 3.565-7.216l-2.652-1.13c.652 1.086.739 2.304.565 3-.695-.479-1.304-1.13-1.478-2-.13.826-.565 2.086-.956 2.869.74-.347 1.348-.522 2.13-.174-.435.609-1.565 1.522-3.347 1.086-.912-.217-1.87-.695-1.826-1.434.045-.435.348-.956.956-.913.566.045.609.956.435 1.348.74-.435 1.522-2.652.348-3-.956-.26-1.783 1.043-2.087 2-.173-1.174-.695-2.304-1.608-2.26-1.217.089-.826 2.347-.392 2.912.045-.782.479-1.217.87-1.174.303.045.738.26.651.956-.044.74-1.087 1.174-2.26 1.174-1.13 0-3.086-.347-3.26-2.521.695.13 1.869.695 2.347 1.434-.174-1.304-.174-2.26 0-3.608-.609.87-1.608 1.304-2.304 1.435.174-.956.956-1.913 1.913-2.521h-4.825c.956.608 1.738 1.565 1.912 2.477-.695-.089-1.695-.565-2.26-1.39.13 1.347.13 2.303 0 3.607.478-.739 1.565-1.26 2.304-1.39-.174 2.13-2.13 2.477-3.26 2.477-1.174 0-2.217-.435-2.26-1.174-.09-.695.347-.912.651-.956.392-.044.826.392.87 1.174.435-.565.825-2.825-.392-2.912-.956-.045-1.435 1.087-1.609 2.26-.303-.956-1.173-2.26-2.086-2-1.174.348-.39 2.565.347 3-.173-.392-.13-1.304.435-1.348.609-.044.913.479.956.913.045.739-.912 1.217-1.869 1.434-1.739.435-2.869-.478-3.304-1.086.783-.347 1.391-.173 2.174.174-.392-.782-.826-2.043-.956-2.87-.217.87-.826 1.566-1.521 2.044-.174-.739-.13-1.956.565-3.043l-2.652 1.13c1.26 1.391 2.782 4.608 3.608 7.26-.522.435-.826 1-.826 1.738 0 1.218.783 1.956 1.565 2.478a18.403 18.403 0 0 0-3.955 3.434c-1.826 2.043-3.26 4.434-4.26 7.086.347.347 1.956 2.086 2.347 2.564.652.826 1.043 1.652 1.043 2.304.044 1.217.304 1.695.956 2.478.173.26.478 1.217.522 1.782H84.24v14.345c-.478 0-1.043.173-1.478.695 1.522.609 2.956 1.174 4.434 1.609.13-.913.304-1.522.782-2.087 0 0-1.912-.173-2.956-.26V50.858H97.89a18.133 18.133 0 0 1-1.042 5.695 15.806 15.806 0 0 1-2.87 4.999 14.39 14.39 0 0 1-4.26 3.39c-.26.13-.26.304-.521.391-.26.26-.479.695-.652 1.174-.174.435-.217.739-.304 1.304.608.173.956.26 1.521.435 4.521 1.13 5.651.782 5.912.609v-.045c1-.782 1.956-1.652 2.825-2.652a21.609 21.609 0 0 0 4.217-7.085 24.628 24.628 0 0 0 1.565-8.694c0-.565.044-.739 0-1.26m-20.04.956H71.07c.044-2.043.391-4 1.042-5.869.696-1.869 1.652-3.564 2.913-5.042 1.217-1.435 2.651-2.565 4.26-3.347 1.565-.783 3.26-1.217 4.955-1.217zm.261-21.952c-4.39 0-7.433 1.304-9.172 2.478-1.043-.61-1.478-1.174-1.478-1.87 0-2.52 7.042-2.738 10.65-2.738 3.565 0 10.65.217 10.65 2.738 0 .696-.479 1.26-1.478 1.87-1.782-1.174-4.782-2.478-9.172-2.478m.522 21.952V34.6c1.608.089 3.173.478 4.695 1.217a13.579 13.579 0 0 1 4.26 3.347c1.217 1.478 2.216 3.173 2.869 5.042.695 1.87 1.042 3.826 1.087 5.869zm44.036 32.038c-.045-.174-.26-.26-.435-.217-4.13 1.217-9.26-2.217-14.215-5.52-4.173-2.74-8.128-5.391-11.475-5.391-1.261 0-2.348.26-3.304.782-1.174.652-2.087 1.696-2.652 3.043-.565 1.391-1.173 2.347-1.651 3.086-.566.913-.956 1.565-.956 2.391 0 .652.26 1.26.825 1.826.479.478 1.174.956 2.174 1.478.217.13.435.217.652.304.826.435 1.304.695 1.39 1.13-1.607.739-3.737 1.347-6.128 1.739-2.695.478-5.651.739-8.781.739-3.173 0-6.13-.26-8.824-.74-2.39-.391-4.521-1-6.173-1.738.09-.696.609-.956 1.478-1.391.217-.09.435-.174.652-.305.826-.435 1.609-.87 2.13-1.304.566-.522.826-1.086.826-1.739 0-.826-.392-1.478-.956-2.39-.522-.74-1.087-1.696-1.652-3.087-.565-1.347-1.478-2.39-2.651-3.043-.956-.522-2.043-.782-3.304-.782-3.347 0-7.303 2.652-11.476 5.39-4.955 3.304-10.041 6.738-14.17 5.52-.218-.044-.392.045-.479.261-.045.174 0 .392.217.435 1.217.566 2.347 1.435 3.434 2.26 1.478 1.174 2.869 2.261 4.434 2.261 1.434 0 3.043-.435 4.955-1.435 1.652-.912 3.39-2.086 5.043-3.216 3.26-2.217 6.65-4.521 9.824-4.782-.348.347-.652.652-.956.913-.956.825-1.783 1.565-1.783 3.043 0 1.173.436 2 .956 3.173l.566 1.13c.347.782.478 1.434.695 2.304.09.39.217.782.347 1.304.174.739.566 2.173 2.913 3.347 2.738 1.391 7.39 2.086 13.953 2.086 6.52 0 11.172-.695 13.91-2.086 2.348-1.174 2.739-2.608 2.913-3.347.13-.522.26-.913.347-1.304.217-.87.347-1.522.695-2.304.26-.565.522-1.043.74-1.478.478-.913.868-1.608.868-2.695 0-1.478-.825-2.26-1.825-3.13-.304-.305-.652-.609-1-.956 3.217.26 6.564 2.565 9.824 4.782 1.652 1.13 3.39 2.304 5.043 3.173 1.912 1 3.52 1.478 4.999 1.478 1.521 0 2.912-1.087 4.433-2.26 1.043-.826 2.174-1.696 3.434-2.26.174-.045.26-.261.174-.48m-41.38-4.215c-.218 0-.392.045-.566.09v-3.522c-1.565-.089-3.39-.305-5.173-.782v4.303c-.217-.044-.391-.089-.608-.089-1.261 0-2 1.043-2 2 0 .913.522 1.739.956 2.26.26-.522.478-.999.782-.999.609 0 .304 3.086 2.13 3.173-.089.13-.089.304-.089.479 0 .782.609 1.39 1.391 1.39.783 0 1.391-.608 1.391-1.39a1.54 1.54 0 0 0-.089-.479c1.783-.089 1.478-3.173 2.087-3.173.347 0 .522.435.782 1 .479-.523 1-1.348 1-2.261 0-.956-.738-2-2-2M84.5 85.59a.778.778 0 0 1-.783-.782c0-.435.347-.782.783-.782.435 0 .782.347.782.782a.778.778 0 0 1-.782.782m4.173-4.433c-.174-.436-.522-.653-.783-.653-1.173 0-.739 3.174-2.13 3.174-.652 0-.999-.391-.999-.826 0-.435.304-.609.304-.956s-.26-.478-.566-.478c-.303 0-.608.13-.608.478 0 .347.304.522.304.956 0 .435-.304.826-.956.826-1.435 0-.956-3.174-2.13-3.174-.305 0-.609.217-.826.653-.217-.479-.347-.913-.347-1.261 0-.565.435-1.391 1.39-1.391 1.61 0 1.218 2.217 1.957 2.217.347 0 .609-.217.609-.565 0-.61-1.13-1.218-1.13-2.087 0-.912.825-1.652 1.738-2.39.87.738 1.696 1.477 1.696 2.39 0 .87-1.13 1.478-1.13 2.087 0 .347.26.565.608.565.782 0 .392-2.217 2-2.217.955 0 1.39.826 1.39 1.391 0 .347-.13.782-.391 1.26m.83-11.954c-2.912-.738-6.433-2-9.693-3.477v-.045c.089-.695-.174-1.434-.696-2a2.345 2.345 0 0 0-2.738-.738c-.479-.435-.913-.912-1.348-1.391-1.26-1.435-2.216-3.13-2.868-5.042a16.725 16.725 0 0 1-.87-3.304c-.173.956-1.217 2.217-3.086 2.217.045-.174 0-.652-.13-.739-.522.565-1.217 1.13-2.912.565a23.82 23.82 0 0 0 1.087 3.826c1 2.651 2.434 5.042 4.26 7.085.565.696 1.217 1.304 1.869 1.87 0 .13-.045.26-.045.39 0 .696.696 1.783 1.652 2.261.783.392 1.609.26 2.391-.26a26.692 26.692 0 0 0 5.216 2c2.217.608 4.347.955 5.999.955 1.434 0 3.347-.652 5.216-1.825.74-.479 1.435-1 1.956-1.522.09-.044.174-.13.217-.173-1.478.173-3.651-.217-5.477-.653m-10.78-4.433-.304-.217c-.565-.436-1.042-.436-1.565 0-.26.217-.478.478-.695.695l-.304.392.217.173c.609.479.695 1 .522 1.304-.045.13-.174.217-.305.26-.304.045-.739-.044-1.174-.304l-.217-.13-.13.217a.587.587 0 0 0-.13.173c-.045.09-.09.13-.13.26-.26.436-.392.783-.392 1.043 0 .09 0 .174.044.217.09.348.348.522.566.61l.13.088c.304.174.695.435.956.565-.522.305-1.086.348-1.608.09-.826-.391-1.305-1.305-1.305-1.783 0-.695.304-1.565.87-2.477l.089-.13-.09-.174a3.34 3.34 0 0 1-.391-.783c.305.045.565.09.869.174l.174.045.13-.13c.305-.392 1.565-1.653 2.738-1.653.522 0 1.043.304 1.435.74.305.347.478.738.522 1.13-.13-.13-.348-.26-.522-.392m1.912 5.607a1.262 1.262 0 0 1 0-2.52 1.262 1.262 0 0 1 0 2.52m5.521 1.696c-.652 0-1.13-.522-1.13-1.174 0-.609.478-1.13 1.13-1.13.652 0 1.174.522 1.174 1.13 0 .652-.522 1.174-1.174 1.174m-.087-67.163c-.652-.522-1.173-1.26-1.26-2.086.739.13 1.608.695 2.13 1.347V.956c-.522.653-1.391 1.217-2.13 1.348.089-.782.565-1.478 1.217-2.304h-3.13c.652.826 1.13 1.521 1.217 2.304-.739-.13-1.608-.696-2.086-1.348v3.217c.478-.652 1.347-1.217 2.086-1.347-.089.825-.565 1.564-1.26 2.086zm-4.477 3.912c.304 1.304 1.478 2.304 2.869 2.304 1.39 0 2.564-1 2.869-2.304zm3.477-1.173h2.304c-.217-1.174-1.13-2.13-2.304-2.348zm-1.217 0V5.303c-1.173.217-2.086 1.174-2.304 2.348zm2.217 4.433c-.347.174-.695.26-1.043.304v4.043h1.043zm-3.217 4.347h1.043v-3.999c-.347-.089-.695-.173-1.043-.347zm3.434-5.086c0 .522.392.956.913.956a.964.964 0 0 0 .956-.956c0-.522-.435-.912-.956-.912a.891.891 0 0 0-.913.912m3.13-.087c.522 0 .913-.435.913-.955a.918.918 0 0 0-.913-.913c-.522 0-.956.435-.956.913 0 .521.435.955.956.955m2.304-.652a.964.964 0 0 0 .956-.955c0-.522-.435-.913-.956-.913a.89.89 0 0 0-.912.913c0 .521.391.955.912.955m6.607 2.087c.522 0 .913-.435.913-.956a.89.89 0 0 0-.913-.912c-.522 0-.956.39-.956.912s.436.956.956.956m-1.825-1.608a.918.918 0 0 0 .912-.913c0-.522-.392-.956-.912-.956a.964.964 0 0 0-.956.956c0 .479.435.913.956.913m-2.348-.696a.964.964 0 0 0 .956-.956c0-.522-.435-.912-.956-.912a.89.89 0 0 0-.912.912c0 .522.392.956.912.956m5.043 7.129a.891.891 0 0 0-.913.912c0 .522.392.956.913.956a.964.964 0 0 0 .956-.956c0-.521-.435-.912-.956-.912m.478-2.304a.964.964 0 0 0-.956.956c0 .522.435.913.956.913a.891.891 0 0 0 .912-.913c0-.522-.391-.956-.912-.956m-1.26-1.304c0 .522.434.913.912.913.522 0 .956-.391.956-.913a.964.964 0 0 0-.956-.956c-.479 0-.913.435-.913.956m-16.692-1.608c.522 0 .913-.435.913-.956a.891.891 0 0 0-.913-.913c-.522 0-.956.392-.956.913 0 .522.435.956.956.956m-2.173-1.044c.478 0 .912-.435.912-.955 0-.479-.435-.913-.912-.913-.522 0-.956.435-.956.913 0 .521.435.955.956.955m-2.348-.652a.964.964 0 0 0 .956-.955c0-.522-.435-.913-.956-.913a.89.89 0 0 0-.912.913c0 .521.392.955.912.955m-6.607 2.087a.964.964 0 0 0 .956-.956c0-.522-.435-.912-.956-.912a.89.89 0 0 0-.912.912c0 .522.391.956.912.956m1.826-1.608c.522 0 .956-.436.956-.913a.964.964 0 0 0-.956-.956c-.522 0-.913.435-.913.956 0 .479.392.913.913.913m2.347-.696c.522 0 .913-.435.913-.956a.891.891 0 0 0-.913-.912c-.522 0-.956.39-.956.912s.435.956.956.956m-4.086 8.042c0-.522-.435-.913-.956-.913a.891.891 0 0 0-.912.913c0 .522.39.956.912.956a.964.964 0 0 0 .956-.956m-.478-2.26c0-.522-.435-.956-.912-.956a.964.964 0 0 0-.956.955c0 .522.435.913.956.913a.918.918 0 0 0 .912-.913m-.609-1.347a.918.918 0 0 0 .913-.913c0-.522-.392-.956-.913-.956a.964.964 0 0 0-.955.956c0 .479.435.913.955.913m21.822.608c.522 1.043 1 1.652.912 2.435-.089.782-.912 1.347-1.304 2.173-.347-.956-.956-1.652-.869-2.39.045-.696 1.086-1.696 1.26-2.218m-13.866 0c-.522 1.043-1 1.652-.912 2.435.044.782.912 1.347 1.304 2.173.347-.956.956-1.652.869-2.39-.045-.696-1.087-1.696-1.26-2.218"/>
</svg>
