<?xml version="1.0" encoding="utf-8"?>
<!-- Generator: Adobe Illustrator 19.2.1, SVG Export Plug-In . SVG Version: 6.00 Build 0)  -->
<svg version="1.1" id="layer" xmlns="http://www.w3.org/2000/svg" xmlns:xlink="http://www.w3.org/1999/xlink" x="0px" y="0px"
	 viewBox="0 0 652 652" style="enable-background:new 0 0 652 652;" xml:space="preserve">
<style type="text/css">
	.st0{fill:#5D6439;}
</style>
<g>
	<path class="st0" d="M120.6,278.7h-15v72.7h15V278.7z M57.3,304.1L99,251.2H79.5l-36.9,47.3v-47.3H26.1v100.2h16.5v-40.2l32.7,40.2
		h22.1L57.3,304.1z M122.4,260.6c0-5.5-3.9-9.4-9.3-9.4c-5.4,0-9.3,4-9.3,9.4c0,5.5,3.9,9.4,9.3,9.4
		C118.5,270.1,122.4,266.1,122.4,260.6 M180.7,351.4h15.1v-42.5c0-21.4-10.4-31.8-31.8-31.8c-15.3,0-28.3,5.4-28.3,5.4v68.9h15.1
		V293c4.7-1,8.7-1.6,11.7-1.6c11.5,0,18.2,3.1,18.2,19V351.4z M251.5,335.4c-2.5,0.7-5.7,1.2-9.1,1.2c-15.2,0-22.9-7.8-22.9-23.1
		c0-15.2,7.5-22.6,23-22.6c2.9,0,5.8,0.4,9,1.1V335.4z M266.6,349.6V282c0,0-9.6-4.8-24.5-4.8c-23.7,0-37.8,13.6-37.8,36.4
		c0,22.8,14.1,36.4,37.8,36.4c3.1,0,6.5-0.4,9.5-1v1.2c0,11.5-7.1,18-19.5,18c-8.2,0-16.2-2.5-16.2-2.5l-3.1,12.9
		c0,0,8.7,3.4,19.3,3.4C252.7,381.9,266.6,368.9,266.6,349.6 M341.7,275.5C341.7,275.5,341.7,275.5,341.7,275.5
		c0.3,0.1,0.5,0.1,0.7,0.2C342.1,275.7,341.9,275.6,341.7,275.5 M292.1,281.1L292.1,281.1C292.1,281.1,292.1,281.1,292.1,281.1
		c-7.2,1.7-13.1,3.5-16.5,4.7l2.3-0.8C281.4,283.8,284.9,282.7,292.1,281.1C292.1,281.1,292.1,281.1,292.1,281.1L292.1,281.1z
		 M275.5,286c0,0-0.1,0-0.1,0c-0.1,0-0.2,0-0.2,0.1C275.3,286,275.4,286,275.5,286 M274.3,286.3L274.3,286.3
		c-0.2,0.1-0.4,0.1-0.6,0.2c-0.2,0-0.3,0.1-0.4,0.1c0,0,0,0,0,0c0,0,0,0,0,0c0,0,0,0,0.1,0C273.6,286.5,273.9,286.4,274.3,286.3
		 M287,283.3L287,283.3c1.1-0.2,2.2-0.4,3.3-0.6c0,0,0,0,0,0C289.2,282.9,288,283.1,287,283.3 M278.4,285.2
		C278.4,285.2,278.4,285.2,278.4,285.2c0.8-0.2,1.7-0.4,2.6-0.6l0,0C280.1,284.8,279.3,285,278.4,285.2 M282.7,284.2
		C282.7,284.2,282.6,284.2,282.7,284.2c0.4-0.1,0.9-0.2,1.3-0.3C283.5,284,283.1,284.1,282.7,284.2 M388.9,243.6
		c19.6,1.1,37,5.7,37,5.7s-40.2-18.1-73.6-18.6c-0.4,0-0.8,0-1.2,0c-29.4,0-49,16.2-58.4,48.7h0c-1.5,0.4-2.9,0.9-4.2,1.3
		c-0.1,0-0.1,0-0.1,0c-6.8,2.3-12.1,4.4-14.5,5.5c0,0,0,0,0,0c-0.4,0.2-0.8,0.3-1,0.5c-0.1,0-0.1,0-0.2,0.1
		c-0.2,0.1-0.3,0.1-0.3,0.1s0.3-0.1,0.5-0.2c0,0,0,0,0,0c-0.2,0.1-0.5,0.1-0.5,0.1c2.4-0.6,4.6-1,6.8-1.5c1-0.2,1.9-0.4,2.8-0.5
		c0.9-0.2,1.7-0.3,2.5-0.4c2.5-0.4,4.8-0.7,7-1c-0.9,3.6-1.7,7.3-2.4,11.2c-4.8,29.1-6.3,72.6-6.5,101v18.7c0,2.7,0.1,5,0.1,6.6h0.1
		h0.3h0.3c4.5-16.2,30-114.4,33-124.2c1.2-3.8,2.3-7.3,3.4-10.7c0.5,0.1,0.9,0.2,1.4,0.4c0,0,0.1,0,0.1,0c0,0,0,0,0,0
		c0,0,0.1,0,0.1,0c0,0,0.1,0,0.1,0c0,0,0,0,0,0c2.9,1.1,5.5,2.6,7.7,4.3c0,0,0,0,0.1,0.1h0c0.5,0.4,0.9,0.8,1.3,1.2
		c3.1,2.8,5.5,6.4,7.1,10.9c0,0,0,0,0,0.1c0.8,2.2,1.4,4.7,1.8,7.3c0,0,0,0.1,0,0.1c0.4,2.7,0.6,5.6,0.6,8.8
		c0,37.1-30.9,66.7-30.9,66.7s59.6-33.4,60.6-70.4c0.5-19.8-9.8-31.8-21.6-37.6c-1.4-0.7-2.9-1.3-4.4-1.8c0,0,0,0,0,0l0,0
		c-0.7-0.2-1.4-0.4-2.1-0.6c-4.8-1.3-10.1-1.9-15.4-1.9c-0.3,0-0.6,0-1,0c0,0,0.1,0,0.1,0c-0.1,0-0.2,0-0.2,0h0h-0.1H325h0
		c-0.2,0-0.3,0-0.5,0C334.1,251.6,348.4,241.2,388.9,243.6 M368.9,267.2c4-4.1,4-10,0-14c-1.8-1.8-4.1-2.7-6.4-2.7c-2.5,0-5,1-7,3.1
		c-3.6,3.7-3.6,9.6,0,13.3c2.1,2.1,4.6,3.1,7,3.1C364.8,269.9,367.1,269,368.9,267.2 M341.2,275.4
		C341.2,275.4,341.1,275.4,341.2,275.4C341.1,275.4,341.2,275.4,341.2,275.4L341.2,275.4z M338.9,274.9
		C338.9,274.9,339,274.9,338.9,274.9l0.1,0C339,274.9,338.9,274.9,338.9,274.9 M338,274.7C338,274.7,338,274.7,338,274.7L338,274.7
		C338,274.7,338,274.7,338,274.7 M336.6,274.4c0.1,0,0.2,0,0.2,0l0.1,0C336.8,274.5,336.6,274.4,336.6,274.4 M331.7,273.9
		C331.8,273.9,331.8,273.9,331.7,273.9l0.1,0C331.8,273.9,331.8,273.9,331.7,273.9 M329.4,273.7L329.4,273.7
		C329.4,273.7,329.4,273.7,329.4,273.7L329.4,273.7z M328.2,273.7c0.1,0,0.2,0,0.2,0h0.1C328.5,273.7,328.3,273.7,328.2,273.7
		 M327.1,273.7c0.1,0,0.2,0,0.2,0h0.1C327.4,273.7,327.2,273.7,327.1,273.7 M438.9,329.3c0-14.9-12.8-18.7-22.5-20.3l-6-1
		c-9-1.5-12-2.8-12-7.5c0-2.2,0-9,16.7-9c9,0,16.2,3.1,16.2,3.1l3-13.3c0,0-9.7-3.6-18.7-3.6c-19.9,0-31.8,8.7-31.8,23.2
		c0,13.7,8.9,18,22.4,20.3l6,1c9.1,1.5,12.1,3.4,12.1,7.5c0,7.9-8.7,9-17.2,9c-10.1,0-20.2-4.1-20.2-4.1l-3,13.8c0,0,12.1,4,23.7,4
		C428.7,352.4,438.9,344.8,438.9,329.3 M492.6,351.4h15.1v-42.5c0-26.3-15.9-31.8-29.3-31.8c-5.5,0-10.5,0.9-15.7,2.8v-28.8h-15.1
		v100.2h15.1v-57.4c4.8-1.7,9.2-2.6,13.2-2.6c10,0,16.7,3.2,16.7,19V351.4z M564.9,307.6h-33.9c1.4-10.8,7.9-17.2,17.7-17.2
		C559.2,290.4,564.7,296.2,564.9,307.6 M579.8,320.9l0.2-5.3c0.4-13.4-2.4-23.6-8.6-30.1c-5.3-5.6-12.9-8.4-22.7-8.4
		c-19.9,0-33.3,15.1-33.3,37.6c0,25,13.7,37.6,40.8,37.6c7,0,14.1-1.4,18.1-2.9l1.2-0.4l-3.1-13.2l-0.3,0.1
		c-2.5,1.1-8.7,2.7-15.3,2.7c-16,0-23.9-5.5-25.7-17.7H579.8z M626.1,293v-14.1c0,0-5.3-0.7-9.8-0.7c-16.7,0-26.8,4.3-26.8,4.3v68.9
		h15.1v-58.1c3.5-0.6,7.4-0.9,10.7-0.9C621.8,292.4,626.1,293,626.1,293"/>
</g>
</svg>
