<svg fill="none" height="173" viewBox="0 0 1383 173" width="1383" xmlns="http://www.w3.org/2000/svg"><path d="m315.306 173h-36.739v-102.777l-55.109 55.109-55.109-55.109v102.777h-36.739v-173h19.532l72.781 72.78 71.851-72.78h19.532z" fill="#fff"/><path d="m94.871 77.712h-94.871l94.871 94.87z" fill="#f23a1d"/><path d="m531.529 172.491h-167.854v-172.491h160.762v35.54h-123.881v28.433h81.326v34.593h-81.326v39.332h130.973zm226.787.001h-41.07l-45.319-70.229h-59.953v70.229h-36.35v-171.564h115.186c16.995 0 30.213 4.242 40.598 12.254 11.33 8.955 16.995 21.682 16.995 38.178 0 11.312-3.305 21.21-9.441 30.165-6.61 8.955-15.107 15.082-25.965 18.853zm-47.207-121.132c0-4.713-1.416-8.484-4.721-11.312-3.304-2.357-8.969-3.77-16.05-3.77h-78.364v31.578h78.364c7.553 0 12.746-1.413 16.05-4.241 3.305-4.242 4.721-8.013 4.721-12.255zm266.648 121.132h-43.018l-63.818-85.782-26 22.152v63.63h-36.873v-171.564h36.873v64.1l76.109-64.1h51.054l-74.69 63.158zm197.603-.001h-154.87v-172.491h36.83v137.898h118.04zm207.59 0h-167.86v-172.491h160.76v35.54h-124.35v28.433h81.33v34.593h-81.33v39.332h131.45z" fill="#fff"/></svg>