<?xml version="1.0" encoding="utf-8"?>
<!-- Generator: Adobe Illustrator 23.0.3, SVG Export Plug-In . SVG Version: 6.00 Build 0)  -->
<svg version="1.1" id="Layer_1" xmlns="http://www.w3.org/2000/svg" xmlns:xlink="http://www.w3.org/1999/xlink" x="0px" y="0px"
	 viewBox="0 0 136 32" style="enable-background:new 0 0 136 32;" xml:space="preserve">
<style type="text/css">
	.st0{fill:#388DFF;}
</style>
<path class="st0" d="M69.7,15.8v7.3h-3.1v-6.3c0-1.7-0.8-2.6-2.3-2.6c-1.3,0-2.4,0.9-2.4,2.6v6.3h-3.1v-6.3c0-1.7-0.8-2.6-2.3-2.6
	c-1.3,0-2.4,0.9-2.4,2.6v6.3H51V11.6h3v1.4c0.8-1.2,2.1-1.7,3.4-1.7c1.7,0,3,0.7,3.8,2c0.9-1.5,2.4-2,3.9-2
	C67.9,11.3,69.7,13.1,69.7,15.8z"/>
<path class="st0" d="M84.2,17.3c0,3.5-2.7,6.1-6.3,6.1c-3.6,0-6.2-2.6-6.2-6.1c0-3.5,2.6-6.1,6.2-6.1C81.6,11.3,84.2,13.9,84.2,17.3
	z M74.9,17.3c0,1.9,1.3,3.2,3.1,3.2c1.8,0,3.1-1.3,3.1-3.2c0-1.9-1.3-3.2-3.1-3.2C76.2,14.2,74.9,15.5,74.9,17.3z"/>
<path class="st0" d="M97.3,15.8v7.3h-3.1v-6.3c0-1.7-0.8-2.6-2.3-2.6c-1.3,0-2.4,0.9-2.4,2.6v6.3h-3.1V11.6h3v1.4
	c0.8-1.2,2.1-1.7,3.4-1.7C95.4,11.3,97.3,13.1,97.3,15.8z"/>
<path class="st0" d="M110.7,17.3c0,0.4,0,0.8-0.1,1h-8.2c0.3,1.7,1.5,2.4,3,2.4c1,0,2.1-0.4,2.9-1.1l1.8,2c-1.3,1.2-3,1.7-4.9,1.7
	c-3.5,0-6-2.4-6-6s2.4-6.1,5.8-6.1C108.5,11.3,110.7,13.7,110.7,17.3z M102.5,16.3h5.1c-0.3-1.5-1.2-2.3-2.5-2.3
	C103.6,13.9,102.8,14.8,102.5,16.3z"/>
<path class="st0" d="M117.4,13.8c-1.2,0-1.8,0.4-1.8,1c0,0.7,0.8,0.8,1.9,1l1,0.2c2.5,0.4,3.9,1.5,3.9,3.5c0,2.4-2,3.9-5.3,3.9
	c-1.6,0-3.6-0.3-5.1-1.4l1.2-2.4c1,0.7,2.2,1.1,3.9,1.1c1.4,0,2.1-0.4,2.1-1.1c0-0.6-0.6-0.9-1.9-1.1l-0.9-0.1c-2.7-0.4-4-1.5-4-3.5
	c0-2.4,1.8-3.8,4.9-3.8c1.8,0,3.3,0.3,4.8,1.1l-1,2.4C120.1,14.3,118.7,13.8,117.4,13.8z"/>
<path class="st0" d="M135.2,17.3c0,0.4,0,0.8-0.1,1h-8.2c0.3,1.7,1.5,2.4,3,2.4c1,0,2.1-0.4,2.9-1.1l1.8,2c-1.3,1.2-3,1.7-4.9,1.7
	c-3.5,0-6-2.4-6-6s2.4-6.1,5.8-6.1C132.9,11.3,135.2,13.7,135.2,17.3z M126.9,16.3h5.1c-0.3-1.5-1.2-2.3-2.5-2.3
	C128,13.9,127.2,14.8,126.9,16.3z"/>
<path class="st0" d="M36.7,0.3c-2-0.8-4.2-0.2-5.7,1.3L20,13.7L8.9,1.7C7.5,0.1,5.3-0.4,3.3,0.3C1.5,1,0.3,2.6,0,4.5
	c0,0,0,0.1,0,0.1c0,0,0,0,0,0.1c0,0,0,0,0,0c0,0.1,0,0.2,0,0.4c0,0,0,0,0,0v21.9c0,2.1,1.3,4,3.3,4.7C3.9,31.9,4.5,32,5.2,32
	c1.4,0,2.8-0.6,3.8-1.7l4.3-4.7l3.1,4.4c0.8,1.2,2.2,1.9,3.7,1.9c1.5,0,2.8-0.7,3.7-1.9l3.1-4.4l4.3,4.7c1.4,1.6,3.7,2.1,5.7,1.3
	c2-0.8,3.3-2.6,3.3-4.7V5.1C40,3,38.7,1.1,36.7,0.3z M6.6,28.3c-0.9,0.9-1.9,0.6-2.2,0.5c-0.3-0.1-1.3-0.6-1.3-1.9V11.1L11.4,23
	L6.6,28.3z M3.5,6.2C3.2,5.9,3.1,5.5,3.1,5.1c0-1.3,1-1.7,1.3-1.8c0.1-0.1,0.4-0.1,0.8-0.1c0.4,0,1,0.1,1.5,0.7L17.9,16l-4.3,4.7
	L3.5,6.2z M21.1,28.3c-0.3,0.4-0.7,0.6-1.1,0.6s-0.9-0.2-1.1-0.6l-3.5-5l4.6-5l4.6,5L21.1,28.3z M26.4,20.7L22.1,16L33.4,3.7
	c0.9-0.9,1.9-0.6,2.2-0.5c0.3,0.1,1.3,0.6,1.3,1.9c0,0.4-0.1,0.8-0.4,1.2L26.4,20.7z M36.9,26.9c0,1.3-1,1.7-1.3,1.9
	c-0.3,0.1-1.4,0.4-2.2-0.5L28.6,23l8.3-11.9V26.9z"/>
</svg>
