<?xml version="1.0" encoding="UTF-8"?>
<svg width="443px" height="185px" viewBox="0 0 443 185" version="1.1" xmlns="http://www.w3.org/2000/svg" xmlns:xlink="http://www.w3.org/1999/xlink">
    <!-- Generator: Sketch 47 (45396) - http://www.bohemiancoding.com/sketch -->
    <title>Group Copy 2</title>
    <desc>Created with Sketch.</desc>
    <defs>
        <polygon id="path-1" points="76.0393587 0.329165858 0.521493079 0.329165858 0.521493079 92.0711209 76.0393587 92.0711209 76.0393587 0.329165858"></polygon>
        <polygon id="path-3" points="61.8895351 121.444997 0.332617539 121.444997 0.332617539 0.503079188 61.8895351 0.503079188 61.8895351 121.444997"></polygon>
        <polygon id="path-5" points="61.6251073 121.444997 0.000319599022 121.444997 0.000319599022 0.508476744 61.6251073 0.508476744 61.6251073 121.444997"></polygon>
    </defs>
    <g id="Banner" stroke="none" stroke-width="1" fill="none" fill-rule="evenodd">
        <g id="Group-Copy-2">
            <g id="Page-1">
                <g id="Group-3" transform="translate(366.559781, 0.000000)">
                    <mask id="mask-2" fill="white">
                        <use xlink:href="#path-1"></use>
                    </mask>
                    <g id="Clip-2"></g>
                    <path d="M23.6738618,63.2453744 C22.3788114,63.2530439 21.3301644,64.3056803 21.3225239,65.6056574 L21.3225239,68.7443927 C21.3301644,70.0443698 22.3788114,71.0970062 23.6738618,71.1046757 L58.0882027,71.1046757 C59.3832531,71.0970062 60.4319001,70.0443698 60.4395406,68.7443927 L60.4395406,65.6056574 C60.4319001,64.3056803 59.3832531,63.2530439 58.0882027,63.2453744 L23.6452102,63.2453744 L23.6738618,63.2453744 Z M23.6738618,47.5421109 C22.3788114,47.5497804 21.3301644,48.6024167 21.3225239,49.9023939 L21.3225239,53.0392118 C21.3301644,54.339189 22.3788114,55.3918253 23.6738618,55.4014122 L58.0882027,55.4014122 C59.3832531,55.3918253 60.4319001,54.339189 60.4395406,53.0392118 L60.4395406,49.9023939 C60.4319001,48.6024167 59.3832531,47.5497804 58.0882027,47.5421109 L23.6452102,47.5421109 L23.6738618,47.5421109 Z M23.6738618,31.8081695 C22.3788114,31.815839 21.3301644,32.8684753 21.3225239,34.1684524 L21.3225239,37.3071878 C21.3301644,38.6071649 22.3788114,39.6598012 23.6738618,39.6674707 L58.0882027,39.6674707 C59.3832531,39.6598012 60.4319001,38.6071649 60.4395406,37.3071878 L60.4395406,34.1684524 C60.4319001,32.8684753 59.3832531,31.815839 58.0882027,31.8081695 L23.6452102,31.8081695 L23.6738618,31.8081695 Z M23.6738618,16.104906 C22.3788114,16.1125755 21.3301644,17.1652118 21.3225239,18.4671063 L21.3225239,21.6039243 C21.3301644,22.9039014 22.3788114,23.9565377 23.6738618,23.9642072 L58.0882027,23.9642072 C59.3832531,23.9565377 60.4319001,22.9039014 60.4395406,21.6039243 L60.4395406,18.4671063 C60.4319001,17.1652118 59.3832531,16.1125755 58.0882027,16.104906 L23.6452102,16.104906 L23.6738618,16.104906 Z M13.4490759,10.6058877 C13.4567163,9.30591056 14.5053633,8.25327421 15.8004137,8.24560473 L65.8585052,8.24560473 C67.1535556,8.25327421 68.2022026,9.30591056 68.209843,10.6058877 L68.209843,76.588355 C68.2022026,77.8883321 67.1535556,78.9409685 65.8585052,78.9486379 L15.8156946,78.9486379 C14.5206442,78.9409685 13.4719971,77.8883321 13.4643567,76.588355 L13.4643567,10.5176886 L13.4490759,10.6058877 Z M5.61956024,2.7044043 L5.61956024,72.5120255 C5.63102086,74.2970974 5.39034778,76.0725824 4.9032713,77.7905462 C4.1602409,81.0750017 0.521493079,92.0711209 0.521493079,92.0711209 L10.4406623,88.215289 C12.1502053,87.505862 13.9399726,87.0130978 15.7717622,86.7504181 L73.6880208,86.7504181 C74.9830712,86.7408312 76.0317182,85.6881949 76.0393587,84.3882177 L76.0393587,2.68906534 C76.0317182,1.38908821 74.9830712,0.336451865 73.6880208,0.328782383 L7.95752734,0.328782383 C6.67584766,0.351790828 5.62720065,1.40442717 5.61956024,2.7044043 Z" id="Fill-1" fill="#FFCF01" mask="url(#mask-2)"></path>
                </g>
                <path d="M129.242783,90.534732 C123.961346,90.5021367 118.815526,92.206679 114.592287,95.3856791 C109.941184,98.9692444 106.078954,103.480817 103.24627,108.632791 L101.947399,97.590655 C101.851894,96.0126592 101.233021,94.5151929 100.190104,93.3340928 C98.8473009,92.3562339 97.1969712,91.9075692 95.5485516,92.0686283 L69.3992299,92.0686283 L69.3992299,102.478032 C69.1413659,105.210285 71.0973122,107.653015 73.8115698,107.982803 C74.3253877,107.982803 75.0149352,108.212887 75.9508861,108.347103 C76.886837,108.481319 79.1598606,108.90314 82.7317548,109.555046 L82.7317548,165.158788 L75.9508861,166.366731 C75.0149352,166.556551 74.2699947,166.692684 73.8115698,166.731031 C71.1125931,167.08958 69.1719276,169.511218 69.3992299,172.233884 L69.3992299,182.645206 L117.839463,182.645206 L117.839463,172.3681 C118.087777,169.639682 116.135651,167.204622 113.427124,166.865247 C112.911395,166.865247 112.223758,166.633245 111.249605,166.500947 C110.275452,166.366731 108.040631,165.94491 104.468737,165.293004 L104.468737,126.351211 C106.281425,122.081227 109.083547,118.305925 112.643981,115.343588 C115.982842,112.793485 120.080015,111.443656 124.276513,111.508847 C126.324145,111.478169 128.367956,111.683327 130.369745,112.124323 C131.548279,112.482871 132.766925,112.689947 133.998942,112.737881 C134.835567,112.770476 135.662642,112.542309 136.367471,112.085975 C137.032187,111.518434 137.4505,110.713138 137.532634,109.842652 L140.359588,93.4683087 C137.034097,91.3802923 133.162316,90.3391602 129.242783,90.4772109 L129.242783,90.534732 Z" id="Fill-4" fill="#0E0E0F"></path>
                <path d="M186.220417,65.7624983 C186.237608,63.8643016 185.840306,61.9852786 185.055254,60.2596453 C184.340875,58.6030372 183.315149,57.0998188 182.03729,55.8305196 C180.75943,54.5612204 179.238987,53.5622705 177.567647,52.8969429 C175.837092,52.1491685 173.970921,51.7714465 172.085649,51.7848681 C170.246219,51.7752813 168.423979,52.1530032 166.737358,52.8969429 C165.1195,53.6082874 163.639169,54.6014852 162.36322,55.8305196 C161.100641,57.0921494 160.105477,58.5992025 159.440761,60.2596453 C158.695821,61.9967828 158.31953,63.8700537 158.332901,65.7624983 C158.32526,67.5916696 158.703461,69.3997499 159.440761,71.0736143 C160.16278,72.6727012 161.152214,74.1394895 162.36322,75.4068714 C163.614338,76.6665837 165.100399,77.6636163 166.737358,78.3404481 C168.422069,79.0882225 170.244308,79.4659445 172.085649,79.4525229 C173.970921,79.4659445 175.837092,79.0882225 177.567647,78.3404481 C179.221796,77.6406079 180.736509,76.64741 182.03729,75.4068714 C183.303688,74.1644153 184.327504,72.6937922 185.055254,71.0736143 C185.823115,69.4074194 186.220417,67.5974217 186.220417,65.7624983 L186.220417,65.7624983 Z M191.950729,167.036085 L190.842868,166.846265 L188.187824,166.384179 C186.927155,166.154095 185.16986,165.868406 182.97324,165.446585 L182.97324,92.2222097 L147.884633,92.2222097 L147.884633,102.631614 C147.636319,105.360032 149.588445,107.797009 152.296973,108.136384 L153.404833,108.328121 L156.059877,108.786373 C157.320546,109.018374 159.077841,109.30598 161.274461,109.727801 L161.274461,165.331543 L156.059877,166.271054 L153.404833,166.731223 L152.296973,166.92296 C149.599906,167.281508 147.65733,169.703147 147.884633,172.425813 L147.884633,182.837134 L196.324866,182.837134 L196.324866,172.425813 C196.58273,169.714651 194.643975,167.291095 191.950729,166.95939 L191.950729,167.036085 Z" id="Fill-6" fill="#0E0E0F"></path>
                <path d="M304.856967,166.845115 L302.259225,166.384946 C300.960355,166.154862 299.241261,165.869173 297.044642,165.447352 L297.044642,125.182574 C297.132507,120.458173 296.488802,115.749111 295.134538,111.224117 C293.971285,107.249408 292.022979,103.552718 289.404227,100.352627 C286.816036,97.2714129 283.544028,94.844022 279.853707,93.2583566 C275.708782,91.5135496 271.244869,90.6603198 266.750395,90.7466014 C263.90625,90.7140061 261.067836,91.0111985 258.288635,91.6285918 C255.767298,92.2018856 253.318545,93.0647022 250.992038,94.1978681 C248.736206,95.3195298 246.587339,96.6482675 244.574089,98.1649075 C242.524548,99.7160601 240.608714,101.434024 238.843778,103.305378 L237.353897,96.1152385 C236.698731,93.6264918 234.372225,91.9583795 231.814596,92.1443645 L204.920334,92.1443645 L204.920334,102.555686 C204.66247,105.287938 206.620326,107.728751 209.332673,108.058539 L210.440534,108.252193 L213.095578,108.710445 C214.356247,108.940529 216.113542,109.230052 218.310162,109.649956 L218.310162,165.253697 L213.095578,166.195126 L210.440534,166.655295 L209.332673,166.845115 C206.627966,167.205581 204.683481,169.638724 204.920334,172.367142 L204.920334,182.78038 L253.360567,182.78038 L253.360567,172.367142 C253.639442,169.631054 251.673945,167.17682 248.948227,166.864289 L247.840367,166.674469 L245.185323,166.212383 C243.924654,165.982298 242.205561,165.69661 239.970739,165.272871 L239.970739,117.338611 C242.709828,114.541168 245.859589,112.180885 249.311147,110.342127 C252.579335,108.654841 256.200892,107.772851 259.874021,107.772851 C264.9931,107.772851 268.794206,109.266482 271.334644,112.353448 C273.875082,115.442332 275.154852,119.679721 275.154852,125.238177 L275.154852,183.008547 L310.262561,183.008547 L310.262561,172.597226 C310.600649,169.866891 308.667624,167.378144 305.945726,167.038769 L304.856967,166.845115 Z" id="Fill-8" fill="#0E0E0F"></path>
                <g id="Group-12" transform="translate(306.879888, 62.944824)">
                    <mask id="mask-4" fill="white">
                        <use xlink:href="#path-3"></use>
                    </mask>
                    <g id="Clip-11"></g>
                    <path d="M38.1851464,121.445572 C42.5249023,121.445572 46.8398269,120.747649 50.9637411,119.376729 C54.9539481,118.076752 58.6633697,116.015579 61.8895351,113.306335 L55.376081,102.57673 C54.9997906,102.045619 54.5642869,101.558606 54.0772104,101.127198 C53.6168754,100.793576 53.0572149,100.630599 52.4918242,100.663194 C51.9302537,100.663194 51.3801438,100.824254 50.906438,101.127198 C50.39071,101.455068 49.7985778,101.784856 49.0918394,102.170248 C48.331618,102.582482 47.5389249,102.931444 46.7233106,103.215214 C45.6230908,103.562258 44.4732083,103.717565 43.3233258,103.679218 C41.1859196,103.771252 39.1191872,102.893096 37.6885194,101.282505 C36.1852677,99.39773 35.4345969,97.0106039 35.5874052,94.5927998 L35.5874052,45.0287752 L59.3872991,45.0287752 L59.3872991,29.3120901 L35.6256073,29.3120901 L35.6256073,0.507434665 L24.3368935,0.507434665 C23.187011,0.459500405 22.0562296,0.808461817 21.1279191,1.49296305 C20.2683724,2.1889685 19.6896109,3.18024899 19.5043308,4.27698486 L14.9009806,29.2737427 L0.345989264,31.6704556 L0.345989264,40.4270862 C0.244753761,41.725146 0.722279722,43.0001973 1.64485988,43.9071135 C2.47002474,44.6683095 3.54732331,45.0882137 4.66282395,45.0862963 L13.8313224,45.0862963 L13.8313224,96.1401177 C13.8313224,104.047353 15.9706387,110.251964 20.1919682,114.717519 C24.4132977,119.183075 30.3728217,121.445572 38.1851464,121.445572" id="Fill-10" fill="#0E0E0F" mask="url(#mask-4)"></path>
                </g>
                <g id="Group-15" transform="translate(0.000000, 62.944824)">
                    <mask id="mask-6" fill="white">
                        <use xlink:href="#path-5"></use>
                    </mask>
                    <g id="Clip-14"></g>
                    <path d="M37.9207186,121.445572 C42.2604745,121.445572 46.5753991,120.747649 50.6993133,119.376729 C54.6895202,118.076752 58.3989419,116.015579 61.6251073,113.306335 L55.1116532,102.578647 C54.7353627,102.045619 54.299859,101.558606 53.8127826,101.127198 C53.3524475,100.793576 52.7927871,100.630599 52.2273964,100.665112 C51.6639157,100.657442 51.1138058,100.818501 50.6420102,101.127198 C50.0880801,101.456986 49.53415,101.784856 48.8274115,102.172165 C48.0652801,102.582482 47.272587,102.931444 46.4588828,103.215214 C45.358663,103.562258 44.2087804,103.719483 43.0588979,103.679218 C40.9195816,103.780839 38.8490291,102.900766 37.4240916,101.282505 C35.9208399,99.3996474 35.170169,97.0125212 35.3229774,94.5947172 L35.3229774,45.0306925 L59.0273661,45.0306925 L59.0273661,29.3140074 L35.2656742,29.3140074 L35.2656742,0.513186776 L24.0151626,0.513186776 C22.8652801,0.463335146 21.7344986,0.810379187 20.8061881,1.49871516 C19.9447313,2.19280324 19.3678799,3.18408373 19.1825999,4.28273697 L14.5792496,29.2775774 L0.0242583188,31.6742904 L0.0242583188,40.430921 C-0.220234973,42.745187 1.43582506,44.8197818 3.72221936,45.0671226 C3.91513985,45.0882137 4.10806034,45.0958831 4.30289093,45.090131 L13.5095915,45.090131 L13.5095915,96.1420351 C13.5095915,104.047353 15.6107057,110.251964 19.8320352,114.717519 C24.0533647,119.183075 30.1083939,121.445572 37.9207186,121.445572" id="Fill-13" fill="#0E0E0F" mask="url(#mask-6)"></path>
                </g>
            </g>
        </g>
    </g>
</svg>