<?xml version="1.0" encoding="UTF-8" standalone="no"?>
<!-- Created with Inkscape (http://www.inkscape.org/) -->
<svg xmlns:rdf="http://www.w3.org/1999/02/22-rdf-syntax-ns#" xmlns="http://www.w3.org/2000/svg" xml:space="preserve" height="111.26" viewBox="0 0 350 111.25986" width="350" version="1.1" xmlns:cc="http://creativecommons.org/ns#" xmlns:dc="http://purl.org/dc/elements/1.1/"><metadata><rdf:RDF><cc:Work rdf:about=""><dc:format>image/svg+xml</dc:format><dc:type rdf:resource="http://purl.org/dc/dcmitype/StillImage"/><dc:title/></cc:Work></rdf:RDF></metadata><defs><linearGradient id="linearGradient45020" gradientUnits="userSpaceOnUse" gradientTransform="matrix(85.278 0 0 85.278 253.78 596.49)"><stop stop-color="#1c3a62" offset="0"/><stop stop-color="#1c3a62" offset=".58496"/><stop stop-color="#44aae4" offset="1"/></linearGradient><linearGradient id="linearGradient45042" gradientUnits="userSpaceOnUse" gradientTransform="matrix(0 -40.717 40.717 0 311.82 646.75)"><stop stop-color="#44aae4" offset="0"/><stop stop-color="#44aae4" offset=".3"/><stop stop-color="#1c3a62" offset=".88281"/><stop stop-color="#1c3a62" offset=".9"/><stop stop-color="#1c3a62" offset="1"/></linearGradient><linearGradient id="linearGradient45060" gradientUnits="userSpaceOnUse" gradientTransform="matrix(65.293 0 0 65.293 253.78 622.36)"><stop stop-color="#1c3a62" offset="0"/><stop stop-color="#1c3a62" offset=".67807"/><stop stop-color="#44aae4" offset="1"/></linearGradient><linearGradient id="linearGradient45080" gradientUnits="userSpaceOnUse" gradientTransform="matrix(65.293 0 0 65.293 253.78 655.01)"><stop stop-color="#44aae4" offset="0"/><stop stop-color="#1c3a62" offset=".24490"/><stop stop-color="#1c3a62" offset=".97670"/><stop stop-color="#1c3a62" offset="1"/></linearGradient><linearGradient id="linearGradient45100" gradientUnits="userSpaceOnUse" gradientTransform="matrix(65.293 0 0 65.293 253.78 629.99)"><stop stop-color="#44aae4" offset="0"/><stop stop-color="#1c3a62" offset=".18646"/><stop stop-color="#1c3a62" offset=".92808"/><stop stop-color="#1c3a62" offset="1"/></linearGradient><linearGradient id="linearGradient45120" gradientUnits="userSpaceOnUse" gradientTransform="matrix(69.021 0 0 69.021 322.75 600.47)"><stop stop-color="#44aae4" offset="0"/><stop stop-color="#44aae4" offset=".41856"/><stop stop-color="#44aae4" offset=".59154"/><stop stop-color="#1f436d" offset="1"/></linearGradient><linearGradient id="linearGradient45138" gradientUnits="userSpaceOnUse" gradientTransform="matrix(65.293 0 0 65.293 326.48 630.52)"><stop stop-color="#44aae4" offset="0"/><stop stop-color="#44aae4" offset=".74594"/><stop stop-color="#1c3a62" offset="1"/></linearGradient><linearGradient id="linearGradient45158" gradientUnits="userSpaceOnUse" gradientTransform="matrix(0 -32.647 32.647 0 333.79 679.49)"><stop stop-color="#44aae4" offset="0"/><stop stop-color="#44aae4" offset=".15"/><stop stop-color="#44aae4" offset=".37358"/><stop stop-color="#1c3a62" offset="1"/></linearGradient></defs><g stroke-width=".19633" transform="translate(-253.78 -571.7)"><g fill="#44aae4"><path d="m448.23 583.11-0.12565-0.0214-8.3382 23.041h-4.1897l-8.2911-22.956-0.12958 0.0214 0.59881 13.657v4.893l3.3298 0.64103v3.7427h-12.887v-3.7427l3.3141-0.64103v-22.336l-3.3141-0.64103v-3.7641h11.458l7.9299 22.937h0.12958l7.9947-22.937h11.497v3.7641l-3.3318 0.64103v22.336l3.3318 0.64103v3.7427h-12.88v-3.7427l3.3141-0.64103v-4.893l0.59685-13.743"/><path d="m459.18 594.35c-0.0569-3.4458 0.964-6.2705 2.8959-8.4729 1.8926-2.2578 4.602-3.3039 8.0064-3.3039 3.3946-0.00078 6.0942 1.0981 8.0261 3.2947 1.9123 2.1428 2.8959 5.0218 2.8959 8.4822v0.45098c-0.002 3.4572-0.96596 6.3095-2.8959 8.4975-1.9496 2.1489-4.5922 3.2794-7.9829 3.2794-3.4751-0.0185-6.1177-1.0928-8.0496-3.2794-1.9712-2.2256-2.8959-5.0202-2.8959-8.4975zm6.2434 0.45098c-0.0432 2.089 0.3691 3.8008 1.1093 5.077 0.7225 1.264 1.9398 1.9113 3.5929 1.9113 1.5687-0.0583 2.786-0.64123 3.534-1.9235 0.70876-1.2885 1.123-2.9703 1.123-5.0648v-0.45098c-0.0216-2.0493-0.37696-3.7219-1.1328-5.0188-0.79122-1.3266-1.9437-1.9478-3.5674-1.9478-1.6492-0.0338-2.8076 0.64947-3.5497 1.9478-0.75981 1.2685-1.1093 2.9695-1.1093 5.0188v0.45098"/><path d="m483.19 602.39 2.9901-0.64103v-14.342l-3.3141-0.64122v-3.761h9.1295l0.27683 3.3131c0.74607-1.1872 1.7179-2.1013 2.8449-2.7579 1.0661-0.65791 2.3835-0.98461 3.7814-0.98461 2.3265-0.00078 4.1583 0.73468 5.4698 2.2025 1.3135 1.4534 1.9692 3.7702 1.9692 6.9054v10.065l2.9921 0.64103v3.7427h-11.927v-3.7427l2.6721-0.64103v-10.044c-0.01-1.5875-0.3161-2.6552-0.9424-3.3041-0.6479-0.69325-1.5746-0.97243-2.8449-0.97243-0.88153-0.0475-1.5667 0.16806-2.2205 0.5032-0.68913 0.3159-1.2016 0.80987-1.6433 1.4234v12.393l2.517 0.64103v3.7427h-11.75v-3.7427"/><path d="m521.89 606.58c-3.3534-0.0185-6.0019-1.0682-7.9986-3.2057-2.0281-2.1995-2.9901-4.8516-2.9901-8.1447v-0.85601c-0.0196-3.4388 0.9424-6.2589 2.8311-8.4822 1.8416-2.2839 4.4234-3.33 7.602-3.3161 3.0903-0.00078 5.5405 0.94102 7.2643 2.8223 1.6944 1.8559 2.5857 4.4259 2.5857 7.6324v3.3958h-13.808l-0.0393 0.12899c0.10798 1.5116 0.62041 2.7808 1.5235 3.7641 0.85208 0.95634 2.1361 1.4725 3.6891 1.4725 1.341-0.0583 2.5288-0.13822 3.4417-0.41426 0.90116-0.32906 1.9084-0.71623 2.9901-1.316l1.6904 3.8469c-0.95614 0.71327-2.1911 1.392-3.7087 1.905-1.5255 0.48632-3.2081 0.76688-5.0732 0.76688zm-0.55562-19.194c-1.1839-0.0338-2.0693 0.44312-2.7408 1.3282-0.70091 0.86504-1.0818 2.0446-1.2389 3.482l0.0648 0.10719h7.6511v-0.55523c-0.0314-1.3728-0.31021-2.3835-0.93062-3.1751-0.66753-0.82814-1.555-1.187-2.8056-1.187"/><path d="m557.53 586.77-2.1597 0.32218-8.5071 22.508c-0.70287 1.6243-1.5667 3.0622-2.6839 4.1874-1.1701 1.063-2.8017 1.6902-5.0536 1.6902-0.53206-0.0383-1.0229-0.043-1.4882-0.12879-0.49279-0.14431-1.0052-0.20478-1.6315-0.36204l0.72447-4.5524c0.14332-0.03 0.4064 0.0567 0.62041 0.0858 0.21203 0.007 0.39855 0.043 0.55758 0.043 0.98166-0.0361 1.8357-0.25386 2.3933-0.76079 0.5517-0.54914 0.98167-1.1366 1.282-1.8928l0.70484-1.7517-7.3311-19.044-2.1597-0.34358v-3.761h11.332v3.761l-2.5896 0.42957 3.1649 9.2306 0.3161 1.6688 0.12958 0.0216 3.6577-10.921-2.6093-0.42957v-3.761h11.33v3.761"/><path d="m568.35 597.75c-0.0609-1.701 0.46334-3.1297 1.3881-4.3468 0.86386-1.2302 2.3364-2.4911 4.231-3.8163-1.0013-1.359-1.6904-2.507-2.1695-3.5892-0.5085-1.1136-0.71465-2.1887-0.71465-3.3162-0.055-2.5009 0.76962-4.4336 2.3069-5.9082 1.502-1.507 3.6007-2.215 6.1786-2.215 2.2598-0.0122 4.1053 0.70268 5.5228 2.1076 1.4057 1.3429 2.1282 3.103 2.1282 5.0986-0.002 1.339-0.34948 2.6719-1.0484 3.8253-0.74214 1.1289-1.6531 2.1658-2.8625 3.0371l-1.9888 1.411 5.8998 6.8777c0.51046-0.85896 0.91294-1.78 1.1976-2.7761 0.27682-1.0561 0.428-2.0501 0.428-3.1629h4.6609c-0.004 1.9129-0.24345 3.7757-0.72839 5.43-0.50654 1.6219-1.2251 3.1197-2.2225 4.4022l4.4469 5.215-0.0432 0.10739h-6.9266l-1.6472-1.9021c-1.2624 0.76315-2.4561 1.3714-3.7401 1.764-1.3292 0.37107-2.6564 0.58586-4.123 0.58586-3.1551-0.0185-5.5778-0.81596-7.4174-2.4481-1.9005-1.6849-2.7565-3.7586-2.7565-6.3808zm10.494 4.0403c0.73036-0.0583 1.5098-0.096 2.2637-0.28842 0.69698-0.2193 1.4823-0.48003 2.1813-0.86504l-6.4122-7.4361-0.40445 0.27604c-0.74606 0.64731-1.2232 1.349-1.4882 1.9971-0.30824 0.60117-0.39463 1.3007-0.39463 1.957-0.0452 1.2234 0.3907 2.3124 1.1741 3.1323 0.74214 0.7761 1.8122 1.2271 3.0805 1.2271zm-2.1813-19.173c-0.0177 0.59823 0.15314 1.2448 0.45942 1.8928 0.26898 0.59136 0.76766 1.3643 1.3822 2.1473l1.8338-1.1962c0.73428-0.55994 1.3351-1.04 1.6138-1.5799 0.26505-0.58605 0.41623-1.1336 0.41623-1.7762-0.0196-0.75234-0.26113-1.3453-0.78141-1.9021-0.54187-0.61727-1.1996-0.83441-2.0379-0.83441-0.98951-0.0444-1.6394 0.31001-2.1381 0.92963-0.50261 0.59195-0.74803 1.3928-0.74803 2.3191"/><path d="m433.01 613.29c3.5261-0.0308 6.373 0.91648 8.4325 2.7487 2.0262 1.8 3.0883 4.2288 3.0883 7.1936-0.0137 2.9711-1.0288 5.3717-3.0883 7.1814-2.0929 1.7633-4.871 2.7119-8.4325 2.7119h-5.2578v6.9054l3.3298 0.64103v3.7427h-12.887v-3.7427l3.3141-0.64103v-22.336l-3.3141-0.64103v-3.7641h3.3141zm-5.2578 15.032h5.2578c1.7022-0.002 3.051-0.47316 3.9424-1.4203 0.85012-1.0009 1.337-2.1573 1.337-3.6261-0.0294-1.5184-0.44764-2.7333-1.337-3.7089-0.93258-1.0062-2.2048-1.4662-3.9424-1.4662h-5.2578v10.221"/><path d="m456.71 644.87c-3.3534-0.0185-6.0019-1.0682-7.9986-3.2057-2.0281-2.1995-2.9901-4.8516-2.9901-8.1447v-0.85601c-0.0196-3.4388 0.94239-6.2589 2.8311-8.4822 1.8416-2.2839 4.4234-3.33 7.602-3.3161 3.0903-0.00078 5.5405 0.94102 7.2643 2.8223 1.6944 1.8559 2.5857 4.4259 2.5857 7.6324v3.3958h-13.808l-0.0393 0.12899c0.10798 1.5116 0.62041 2.7808 1.5235 3.7641 0.85208 0.95634 2.1361 1.4725 3.6891 1.4725 1.341-0.0583 2.5288-0.13822 3.4417-0.41427 0.90117-0.32905 1.9084-0.71622 2.9902-1.316l1.6904 3.8469c-0.95614 0.71327-2.1911 1.392-3.7087 1.905-1.5255 0.48632-3.2081 0.76688-5.0732 0.76688zm-0.55562-19.194c-1.1839-0.0338-2.0694 0.44312-2.7408 1.3282-0.7009 0.86504-1.0818 2.0446-1.2388 3.482l0.0648 0.1072h7.6511v-0.55523c-0.0314-1.3728-0.3102-2.3835-0.93061-3.1751-0.66753-0.82813-1.555-1.187-2.8056-1.187"/><path d="m468.46 640.68 2.9902-0.64103v-14.342l-3.3141-0.64122v-3.761h9.1295l0.27683 3.3131c0.74607-1.1872 1.7179-2.1013 2.8449-2.7579 1.0661-0.65791 2.3835-0.98461 3.7814-0.98461 2.3265-0.00078 4.1583 0.73468 5.4698 2.2025 1.3135 1.4534 1.9692 3.7702 1.9692 6.9054v10.065l2.9921 0.64103v3.7427h-11.927v-3.7427l2.6721-0.64103v-10.044c-0.01-1.5875-0.3161-2.6552-0.9424-3.3041-0.6479-0.69325-1.5746-0.97243-2.8449-0.97243-0.88153-0.0475-1.5667 0.16806-2.2205 0.5032-0.68912 0.3159-1.2016 0.80987-1.6433 1.4234v12.393l2.517 0.64103v3.7427h-11.75v-3.7427"/><path d="m515.16 629.24h-4.1858l-0.6636-2.8867c-0.44764-0.34123-0.96792-0.62591-1.6158-0.85287-0.65182-0.27153-1.3645-0.34358-2.144-0.34358-1.1073-0.0591-1.9692 0.24699-2.6112 0.73939-0.69502 0.44705-0.96007 1.1067-0.96007 1.8467-0.0609 0.69482 0.30628 1.2815 0.9208 1.7456 0.57133 0.39876 1.8377 0.87113 3.6734 1.2271 2.8409 0.5568 4.9868 1.4081 6.369 2.5125 1.3311 1.1012 2.0733 2.6228 2.0733 4.5616-0.0216 2.0638-0.89331 3.7794-2.6839 5.0986-1.8318 1.3029-4.1406 1.9755-7.0621 1.9755-1.8278-0.0185-3.4162-0.25995-4.9044-0.77925-1.5373-0.53991-2.8115-1.2638-3.9659-2.2333l-0.0628-5.1965h4.3606l0.85601 3.0155c0.31806 0.25916 0.87368 0.54522 1.5137 0.69639 0.6106 0.12507 1.3135 0.22402 2.0124 0.22402 1.2192-0.0338 2.2303-0.22794 2.8939-0.68422 0.63219-0.45785 0.99344-1.0767 0.99344-1.862-0.0353-0.71857-0.33572-1.2738-1.0052-1.7731-0.69698-0.53225-1.9005-0.94023-3.695-1.3252-2.7604-0.60588-4.7787-1.3782-6.1688-2.4665-1.3998-1.1028-2.0831-2.5753-2.0831-4.4573-0.0353-1.971 0.79907-3.6092 2.3933-5.0126 1.5471-1.468 3.8717-2.1076 6.8226-2.1076 1.7611-0.0153 3.4928 0.24247 5.0948 0.72702 1.5746 0.42349 2.8606 1.1059 3.7735 1.8622l0.0609 5.7488"/><path d="m518.28 640.68 3.0137-0.64103v-14.342l-3.3337-0.64122v-3.761h9.5771v18.744l2.9882 0.64103v3.7427h-12.245zm9.2571-24.922h-6.2434v-4.6814h6.2434v4.6814"/><path d="m532.22 632.64c-0.0569-3.4458 0.96399-6.2705 2.8959-8.4729 1.8926-2.2578 4.602-3.3039 8.0064-3.3039 3.3946-0.00078 6.0942 1.0981 8.0261 3.2947 1.9123 2.1428 2.8959 5.0218 2.8959 8.4822v0.45098c-0.002 3.4572-0.96596 6.3095-2.8959 8.4975-1.9496 2.1489-4.5922 3.2794-7.9829 3.2794-3.4751-0.0185-6.1177-1.0928-8.0496-3.2794-1.9712-2.2256-2.8959-5.0202-2.8959-8.4975zm6.2434 0.45098c-0.0432 2.089 0.36911 3.8008 1.1093 5.077 0.7225 1.264 1.9398 1.9113 3.5929 1.9113 1.5687-0.0583 2.786-0.64123 3.534-1.9235 0.70876-1.2885 1.123-2.9703 1.123-5.0648v-0.45098c-0.0216-2.0493-0.37696-3.7219-1.1328-5.0188-0.79122-1.3266-1.9437-1.9478-3.5674-1.9478-1.6492-0.0338-2.8076 0.64947-3.5497 1.9478-0.75981 1.2685-1.1093 2.9695-1.1093 5.0188v0.45098"/><path d="m556.03 640.68 2.9902-0.64103v-14.342l-3.3141-0.64122v-3.761h9.1295l0.27683 3.3131c0.74607-1.1872 1.7179-2.1013 2.8449-2.7579 1.0661-0.65791 2.3835-0.98461 3.7814-0.98461 2.3265-0.00078 4.1583 0.73468 5.4698 2.2025 1.3135 1.4534 1.9692 3.7702 1.9692 6.9054v10.065l2.9921 0.64103v3.7427h-11.927v-3.7427l2.6721-0.64103v-10.044c-0.01-1.5875-0.3161-2.6552-0.9424-3.3041-0.6479-0.69325-1.5746-0.97243-2.8449-0.97243-0.88153-0.0475-1.5667 0.16806-2.2205 0.5032-0.68913 0.3159-1.2016 0.80987-1.6433 1.4234v12.393l2.517 0.64103v3.7427h-11.75v-3.7427"/><path d="m602.92 629.24h-4.1858l-0.6636-2.8867c-0.44764-0.34123-0.96792-0.62591-1.6158-0.85287-0.65182-0.27153-1.3645-0.34358-2.144-0.34358-1.1073-0.0591-1.9692 0.24699-2.6112 0.73939-0.69502 0.44705-0.96007 1.1067-0.96007 1.8467-0.0609 0.69482 0.30628 1.2815 0.9208 1.7456 0.57133 0.39876 1.8377 0.87113 3.6734 1.2271 2.8409 0.5568 4.9868 1.4081 6.369 2.5125 1.3311 1.1012 2.0733 2.6228 2.0733 4.5616-0.0216 2.0638-0.89331 3.7794-2.6839 5.0986-1.8318 1.3029-4.1407 1.9755-7.0621 1.9755-1.8278-0.0185-3.4162-0.25995-4.9044-0.77925-1.5373-0.53991-2.8115-1.2638-3.9659-2.2333l-0.0628-5.1965h4.3605l0.85601 3.0155c0.31806 0.25916 0.87368 0.54522 1.5137 0.69639 0.6106 0.12507 1.3135 0.22402 2.0124 0.22402 1.2192-0.0338 2.2303-0.22794 2.8939-0.68422 0.63219-0.45785 0.99345-1.0767 0.99345-1.862-0.0353-0.71857-0.33573-1.2738-1.0052-1.7731-0.69698-0.53225-1.9005-0.94023-3.695-1.3252-2.7604-0.60588-4.7787-1.3782-6.1688-2.4665-1.3998-1.1028-2.0831-2.5753-2.0831-4.4573-0.0353-1.971 0.79907-3.6092 2.3933-5.0126 1.5471-1.468 3.8717-2.1076 6.8226-2.1076 1.7611-0.0153 3.4928 0.24247 5.0948 0.72702 1.5746 0.42349 2.8606 1.1059 3.7735 1.8622l0.0609 5.7488"/><path d="m441.84 661.32h-4.6825l-0.81282-4.2763c-0.57721-0.36282-1.3331-0.63965-2.3737-0.89567-1.07-0.30765-2.1459-0.38658-3.3141-0.38658-1.7434-0.0522-3.0294 0.36047-3.962 1.0798-0.9581 0.70091-1.3998 1.6496-1.3998 2.7885-0.0177 1.0231 0.4869 1.9219 1.4627 2.5983 0.93258 0.62885 2.6623 1.3928 5.0536 2.1475 3.4064 0.91098 6.0392 2.2172 7.8121 3.7855 1.7611 1.5047 2.6642 3.6253 2.6642 6.1752-0.053 2.6383-1.0563 4.7672-3.1668 6.3072-2.1518 1.5031-4.8867 2.3069-8.3343 2.3069-2.4797-0.0184-4.6904-0.39188-6.6792-1.1748-2.0006-0.80222-3.6439-1.8659-4.9692-3.2487v-6.5004h4.8317l0.66361 4.4265c0.5674 0.50163 1.4745 0.93808 2.5523 1.2732 1.019 0.28979 2.2775 0.50006 3.6007 0.50006 1.6944-0.0139 3.0098-0.34829 3.8992-1.0461 0.88546-0.75784 1.337-1.6329 1.337-2.8009-0.0589-1.2394-0.42408-2.1604-1.2722-2.8867-0.87368-0.78611-2.3324-1.4089-4.4548-2.0493-3.7362-1.1012-6.4829-2.3375-8.3775-3.804-1.8985-1.4754-2.8449-3.4786-2.8449-6.0309-0.0353-2.547 1.068-4.584 3.2061-6.1876 2.0811-1.6604 4.8258-2.4265 8.0594-2.4695 2.3305-0.0193 4.5726 0.36419 6.5398 1.092 1.9515 0.67028 3.6204 1.6949 4.9613 2.9051v6.3716"/><path d="m455.53 682.95c-3.3534-0.0184-6.0019-1.0682-7.9986-3.2057-2.0281-2.1995-2.9902-4.8516-2.9902-8.1447v-0.85601c-0.0196-3.4388 0.9424-6.2589 2.8311-8.4822 1.8416-2.2839 4.4234-3.33 7.602-3.316 3.0903-0.00079 5.5405 0.94102 7.2643 2.8223 1.6944 1.8559 2.5857 4.4259 2.5857 7.6324v3.3958h-13.808l-0.0393 0.12899c0.10798 1.5116 0.62041 2.7809 1.5235 3.7641 0.85208 0.95633 2.1361 1.4725 3.6891 1.4725 1.341-0.0583 2.5288-0.13821 3.4417-0.41426 0.90116-0.32905 1.9084-0.71622 2.9901-1.316l1.6904 3.8469c-0.95614 0.71328-2.1911 1.392-3.7087 1.905-1.5255 0.48631-3.2081 0.76687-5.0732 0.76687zm-0.55562-19.194c-1.1839-0.0338-2.0693 0.44312-2.7408 1.3282-0.70091 0.86505-1.0818 2.0446-1.2389 3.482l0.0648 0.1072h7.6511v-0.55523c-0.0314-1.3728-0.31021-2.3835-0.93062-3.1751-0.66753-0.82813-1.555-1.187-2.8056-1.187"/><path d="m468.1 678.76 2.9941-0.64102v-14.342l-3.3121-0.64123v-3.7609h9.1255l0.27879 3.3775c0.50654-1.2247 1.2389-2.132 2.0929-2.8007 0.84227-0.6795 1.8455-1.0062 2.9725-1.0062 0.30432-0.00079 0.67146 0.0259 1.0327 0.0766 0.32591 0.023 0.66753 0.10975 0.91099 0.18102l-0.66165 5.6876-2.5641-0.0644c-0.96595-0.063-1.6688 0.17787-2.2676 0.53363-0.61256 0.31138-1.0523 0.86209-1.3645 1.5186v11.24l2.9882 0.64102v3.7427h-12.226v-3.7427"/><path d="m496.09 663.14-2.1813 0.40798 3.0569 10.344 0.40837 2.1781h0.12566l0.44763-2.1781 3.0157-10.323-2.2244-0.42958v-3.7609h10.494v3.7609l-2.0085 0.32219-6.8206 19.044h-5.9606l-6.8402-19.044-2.0085-0.32219v-3.7609h10.496v3.7609"/><path d="m511.41 678.76 3.0137-0.64102v-14.342l-3.3337-0.64123v-3.7609h9.5771v18.744l2.9882 0.64102v3.7427h-12.245zm9.2571-24.922h-6.2434v-4.6814h6.2434v4.6814"/><path d="m536.01 678.17c1.0995-0.0583 2.0006-0.32375 2.6701-0.97263 0.62041-0.70935 1.0052-1.5131 1.0052-2.5951h5.6446l0.0609 0.12565c-0.004 2.3146-0.81871 4.294-2.6289 5.8686-1.8455 1.5583-4.0602 2.3621-6.7519 2.3621-3.4594-0.0184-6.1059-1.0898-7.9731-3.2701-1.9044-2.2211-2.7997-4.9804-2.7997-8.4024v-0.64123c-0.0196-3.4395 0.95811-6.2012 2.8743-8.3962 1.8553-2.2486 4.6511-3.2946 8.1988-3.2946 1.82-0.00079 3.5379 0.2784 5.0202 0.83441 1.4646 0.53913 2.7153 1.3406 3.6989 2.3528l0.0864 6.1784h-5.0693l-1.0229-3.6139c-0.34947-0.28979-0.7009-0.49378-1.1564-0.67166-0.49868-0.23776-0.97577-0.26995-1.5569-0.26995-1.8122-0.0338-3.0137 0.64259-3.7421 1.9264-0.76766 1.2608-1.0896 2.9342-1.0896 4.9542v0.64123c-0.006 2.014 0.33573 3.7327 1.0033 4.9943 0.65772 1.2424 1.8475 1.8897 3.5281 1.8897"/><path d="m559 682.95c-3.3534-0.0184-6.0019-1.0682-7.9986-3.2057-2.0281-2.1995-2.9902-4.8516-2.9902-8.1447v-0.85601c-0.0196-3.4388 0.9424-6.2589 2.8311-8.4822 1.8416-2.2839 4.4234-3.33 7.602-3.316 3.0903-0.00079 5.5405 0.94102 7.2643 2.8223 1.6944 1.8559 2.5857 4.4259 2.5857 7.6324v3.3958h-13.808l-0.0393 0.12899c0.10799 1.5116 0.62041 2.7809 1.5235 3.7641 0.85209 0.95633 2.1361 1.4725 3.6891 1.4725 1.341-0.0583 2.5288-0.13821 3.4417-0.41426 0.90117-0.32905 1.9084-0.71622 2.9902-1.316l1.6904 3.8469c-0.95614 0.71328-2.1911 1.392-3.7087 1.905-1.5255 0.48631-3.2081 0.76687-5.0732 0.76687zm-0.55563-19.194c-1.1839-0.0338-2.0693 0.44312-2.7408 1.3282-0.7009 0.86505-1.0818 2.0446-1.2389 3.482l0.0648 0.1072h7.6511v-0.55523c-0.0314-1.3728-0.3102-2.3835-0.93061-3.1751-0.66753-0.82813-1.555-1.187-2.8056-1.187"/></g><path fill="url(#linearGradient45020)" d="m321.99 571.88-10.91 5.4643-4.6315 2.3183-52.664 26.373v13.526c0 1.2883 1.3527 2.1228 2.5013 1.543l13.806-6.9068 52.664-26.373 4.5058-2.2616 11.802-5.91-15.524-7.7726c-0.24345-0.12212-0.5085-0.18259-0.77551-0.18259-0.26505 0-0.5301 0.0605-0.77355 0.18259"/><path fill="url(#linearGradient45042)" d="m304.56 613.29v26.206l14.511 7.2559v-40.72z"/><path fill="url(#linearGradient45060)" d="m316.57 599.13-62.787 31.392v13.523c0 1.2862 1.3527 2.1243 2.5052 1.5491l62.787-31.394v-13.521c0-1.0054-0.8246-1.734-1.7316-1.734-0.2572 0-0.52028 0.0575-0.77355 0.18475"/><path fill="url(#linearGradient45080)" d="m253.78 645.78c0 0.65575 0.36911 1.2548 0.9581 1.5493l64.334 32.167v-16.323l-65.292-32.648"/><path fill="url(#linearGradient45100)" d="m253.78 621.29c0 0.65575 0.37107 1.2548 0.9581 1.5469l7.2054 3.6052 16.321 8.1617 24.485 12.241 13.818 6.9109c1.1525 0.57349 2.5072-0.26309 2.5072-1.5508v-13.522l-16.325-8.1631-8.1615-4.0778-24.5-12.26-16.31-8.15"/><path fill="url(#linearGradient45120)" d="m327.26 585.56-4.5058 2.2616 66.521 33.288c1.1466 0.57133 2.4993-0.26308 2.4993-1.5514v-13.526l-52.713-26.383"/><path fill="url(#linearGradient45138)" d="m327.44 638.21c-0.58703 0.29077-0.95614 0.88978-0.95614 1.5469v15.253l16.323-8.1617 48.013-24.008c0.58704-0.29214 0.95614-0.89115 0.95614-1.5446v-15.255"/><path fill="url(#linearGradient45158)" d="m326.48 655.01v24.485l14.609-7.3057v-24.485z"/></g></svg>
