<svg xmlns="http://www.w3.org/2000/svg" viewBox="0 0 73 16">
  <path fill="#3A2206" fill-rule="evenodd" d="M7.34758971.389166137L3.063436.389166137 3.063436.755048829 4.42765575.755048829 4.42765575 7.86410203C4.42765575 10.0004768 3.83511586 10.602045 2.51413679 10.602045 1.68306039 10.602045 1.54621076 9.97101613 1.54621076 9.64457274 1.54621076 8.86719082 1.50344525 8.39154332.794963305 8.39154332.0831551574 8.39154332 0 9.11095422 0 9.33048384 0 10.3088637.435733025 11.0582104 2.38013819 11.0582104 4.69897915 11.0582104 5.93870376 10.2756016 5.93870376 7.67640896L5.93870376.752672968 7.34758971.755048829 7.34758971.389166137M7.92349857 9.4084121C7.68448689 9.4084121 7.48729037 9.48443967 7.3271573 9.64837412 7.16179733 9.81278375 7.08006769 10.0076044 7.08006769 10.2447154 7.08006769 10.4804009 7.16179733 10.673796 7.32905799 10.8296525 7.49441796 10.9931118 7.69256482 11.0719904 7.92349857 11.0719904 8.1582337 11.0719904 8.35590539 10.9931118 8.52554191 10.8296525 8.68900119 10.673796 8.77168118 10.4804009 8.77168118 10.2447154 8.77168118 10.0057037 8.68900119 9.81040789 8.52554191 9.64837412 8.3625578 9.48443967 8.16536129 9.4084121 7.92349857 9.4084121M17.4369238 9.4084121C17.2012383 9.4084121 17.0030914 9.48443967 16.8405825 9.64837412 16.6775984 9.81278375 16.5987198 10.0076044 16.5987198 10.2447154 16.5987198 10.4804009 16.6775984 10.673796 16.8405825 10.8296525 17.0144956 10.9931118 17.20599 11.0719904 17.4369238 11.0719904 17.6759354 11.0719904 17.8750326 10.9931118 18.0432436 10.8296525 18.2090788 10.673796 18.2908084 10.4804009 18.2908084 10.2447154 18.2908084 10.0057037 18.2090788 9.81040789 18.0446692 9.64837412 17.8778837 9.48443967 17.6778361 9.4084121 17.4369238 9.4084121M13.8788334 6.02423478L13.0220977 6.02423478 13.0220977.801140545 13.7980541.791161926C16.3017371.791161926 16.8477101 1.82086036 16.8477101 3.48919041 16.8477101 5.16749907 15.8636282 6.02423478 13.8788334 6.02423478M14.451416.389166137L10.2570699.390116481 10.2570699.755048829 11.4896669.755048829 11.4896669 8.86433978C11.4896669 9.50249622 11.4497524 9.66833136 11.3794269 9.85222305 11.3029242 10.058923 11.1299614 10.221432 10.8757442 10.326445 10.6861505 10.4072243 10.3981961 10.4490395 10.0156823 10.4599685L10.0156823 10.7954401 14.531245 10.7954401 14.531245 10.4637698C14.1482561 10.453316 13.8565003 10.4100754 13.6650058 10.3421257 13.3955831 10.2352119 13.2202445 10.0784051 13.1356638 9.86647822 13.0610618 9.68401205 13.0220977 9.52292863 13.0220977 9.20266248L13.0220977 6.42480505 14.139703 6.42147884C17.3846548 6.42147884 18.2960353 5.14088942 18.2960353 3.3932056 18.2960353 1.62699005 17.7372327.389166137 14.451416.389166137M31.6754626 9.8256134C31.616066 9.63792033 31.5875557 9.40983761 31.5875557 9.11665629L31.5875557.755048829C31.5875557.755048829 32.68853.748871589 32.6752251.744595038 32.6628707.744595038 32.6752251.413399925 32.6752251.413399925L30.0118842.413399925C29.9743456.509859908 26.8325062 8.34069988 26.8325062 8.34069988 26.8187262 8.36921022 26.7902159 8.38726676 26.7607552 8.38726676 26.7246421 8.38726676 26.6961317 8.36921022 26.6847276 8.34069988 26.6847276 8.34069988 23.3361882.509859908 23.2976992.413399925L20.3426025.413399925 20.3426025.748871589 21.6250927.748871589 21.6250927 8.80209221C21.6250927 8.80209221 21.5970575 9.53433276 21.5970575 9.53575828 21.5766251 9.72962859 21.5167534 9.90211615 21.4212437 10.0399161 21.3214575 10.1891202 21.1594238 10.3031616 20.9484473 10.3777636 20.8082714 10.4238554 20.6010963 10.4542664 20.3426025 10.4599685L20.3426025 10.7954401 23.274891 10.7954401 23.274891 10.464245C23.0254255 10.4542664 22.9175614 10.4290823 22.7712083 10.3806147 22.5559552 10.3102892 22.3943967 10.2033754 22.2874829 10.0498947 22.1929236 9.90781821 22.1302008 9.73723135 22.1088181 9.53575828 22.1088181 9.53575828 22.0760312 8.80304255 22.0760312 8.80209221L22.0760312 1.84651967 22.2485187 1.84651967C22.2485187 1.84651967 26.0403939 10.698505 26.0803084 10.7954401L26.3967732 10.7954401 29.9857498 1.94440517 30.0765077 1.94440517 30.0765077 9.11665629C30.0765077 9.42361761 30.0446711 9.6607286 29.9857498 9.84462029 29.9154243 10.058923 29.7624188 10.221432 29.5405133 10.3307216 29.3761037 10.403423 29.1247375 10.4466636 28.7940176 10.4599685L28.7940176 10.7954401 32.8866768 10.7954401 32.8866768 10.4599685C32.5597583 10.4438126 32.3064914 10.4000967 32.1349542 10.323594 31.8968929 10.2067016 31.742937 10.0399161 31.6754626 9.8256134M37.1522988 10.6405339C35.5101033 10.6405339 35.2573116 9.82038651 35.2573116 7.19125801 35.2573116 5.15894597 35.3837074 3.63364279 37.1522988 3.63364279 39.0624916 3.63364279 39.0715199 5.21264044 39.0715199 7.06343666 39.0715199 9.72345135 38.6172551 10.6405339 37.1522988 10.6405339M37.1812843 3.17367598C34.9969171 3.17367598 33.6265201 4.62152606 33.6265201 7.15039319 33.6265201 10.8553118 36.5093907 11.1000256 37.1318664 11.1000256 38.3639883 11.1000256 40.6994603 10.3316719 40.6994603 7.08054286 40.6994603 4.54977504 39.2059936 3.17367598 37.1812843 3.17367598M46.4138827 3.28676699C45.1076339 3.28676699 44.6999361 4.05892203 44.3402306 4.84485706 44.3402306 4.84485706 44.2456713 4.83772947 44.2366431 4.84153085 44.2261893 4.84485706 44.0494252 3.69779106 43.982901 3.3604187 43.472566 3.3604187 41.4540339 3.35519181 41.4540339 3.35519181L41.4540339 3.7434076 42.8225302 3.7434076C42.8225302 3.7434076 42.8144523 4.90520394 42.8144523 5.32383076L42.8144523 8.88097081C42.8144523 9.39035555 42.7579068 9.74530928 42.648142 9.96103751 42.5079661 10.2143044 42.1948276 10.3421257 41.6754642 10.3421257L41.4540339 10.3421257 41.4540339 10.7954401 45.6901952 10.7954401 45.6901952 10.3421257 45.4630628 10.3421257C44.906636 10.3421257 44.666674 10.221432 44.5174699 9.98004441 44.382521 9.76811755 44.3221741 9.4084121 44.3221741 8.88097081L44.3221741 6.21287819C44.3221741 5.31385215 44.9992946 4.28938061 45.8118393 4.28938061 46.6600219 4.28938061 46.6395895 5.59610451 47.6018135 5.07056391 48.124503 4.78451017 48.0370713 3.28676699 46.4138827 3.28676699M61.0715235 9.24732868C61.0715235 9.27393833 61.0686724 9.29104453 61.0463393 9.30625005L61.0140276 9.3361859C60.2884395 9.99477475 59.7343885 10.2295099 59.3285914 10.2295099 58.2903398 10.2295099 58.1344833 9.36469624 58.1344833 8.93228942 58.1344833 7.54668692 60.0323216 6.85388566 61.0715235 6.85388566L61.0715235 9.24732868zM63.2910534 10.0346892C62.837739 10.0346892 62.6937618 9.78237272 62.6604997 9.36232038 62.6604997 9.36232038 62.6338901 8.41150055 62.6338901 8.41007504L62.6338901 5.29437008C62.6338901 4.62152606 62.5255508 4.16868683 62.1283067 3.77286829 61.7381903 3.37609939 60.9826662 3.17367598 59.8902451 3.17367598 58.8415397 3.17367598 58.0627323 3.36754629 57.5676027 3.74768415 57.0838773 4.11499236 56.8952339 4.45569092 56.8952339 4.94274256 56.8952339 5.16939976 56.9560559 5.32905766 57.0838773 5.43597143 57.2112235 5.54953762 57.3613779 5.6013314 57.5452696 5.6013314 57.9657971 5.6013314 58.2029081 5.38702868 58.2903398 4.83392809 58.3549633 4.42242886 58.4442957 4.1881689 58.6471943 3.97386618 58.8629225 3.74768415 59.2012452 3.63364279 59.6578858 3.63364279 60.1886533 3.63364279 60.5649898 3.77666966 60.7754911 4.06272341 60.9698366 4.33119577 61.0715235 4.69707846 61.0715235 5.14896735L61.0715235 6.39676988C59.7139561 6.51936434 56.5089188 6.77690774 56.6519457 9.21786799 56.705165 10.1734395 57.5471703 11.0121187 58.6353149 11.0121187 59.8394016 11.0121187 60.6011029 10.326445 61.1176152 9.77809617 61.2002952 10.2979347 61.6835454 10.9189849 62.5597632 10.9189849 63.546221 10.9189849 64.1359098 10.4352595 64.2043346 9.22594592L63.9505926 9.22594592C63.8840685 9.75148652 63.5590506 10.0346892 63.2910534 10.0346892L63.2910534 10.0346892zM71.9781539 9.98146993C71.8327512 9.76811755 71.7130078 9.40983761 71.7130078 8.87621909L71.732965 5.50582177C71.732965 5.01829496 71.666916 4.60109365 71.4844499 4.25896958 71.2996078 3.92634895 71.0392134 3.67355727 70.7165714 3.50772213 70.3882273 3.34283733 70.0114157 3.26110769 69.5980157 3.26110769 68.1093008 3.26110769 67.5120092 4.16963718 67.1865162 4.70373088L67.0501417 4.69897915 66.7849955 3.34711388 64.4813601 3.34283733 64.4813601 3.73105312C64.9142421 3.7486345 65.6350785 3.75623725 65.6350785 3.75623725L65.6350785 8.87241771C65.6350785 9.27013695 65.6037171 9.55571552 65.5452709 9.74530928 65.4844489 9.97196648 65.3376206 10.1301989 65.1195165 10.221432 64.980291 10.2813037 64.7612366 10.3140906 64.4813601 10.326445L64.4813601 10.7954401 68.1435132 10.7954401 68.1435132 10.323594C67.7752547 10.2936581 67.5257892 10.193872 67.3946416 10.0057037 67.2516148 9.80518099 67.1865162 9.45878036 67.1865162 8.95367218L67.1865162 6.9888346C67.1865162 6.16678647 67.1822396 5.37324869 67.4621161 4.88239567 67.7648009 4.34640129 68.3183767 4.05131927 68.9389517 4.05131927 69.496804 4.05131927 69.7899854 4.22998407 69.973877 4.58446262 70.1235563 4.87241705 70.2214418 5.72915276 70.2214418 6.31931679L70.2033853 8.75362463C70.2033853 9.1594218 70.2547039 9.45878036 70.2214418 9.65170033 70.1796267 9.87503132 70.078415 10.0498947 69.902126 10.1658368 69.7743047 10.2542188 69.5733068 10.3003106 69.314813 10.3193175L69.314813 10.7954401 72.8448682 10.7954401 72.8448682 10.326445C72.3977311 10.2979347 72.1059753 10.1891202 71.9781539 9.98146993M51.7538693 8.29460816C50.790695 8.29460816 50.2394951 7.94488133 50.2394951 5.98479547 50.2394951 4.60109365 50.721795 3.57187039 51.7538693 3.57187039 52.9555801 3.57187039 53.3072076 4.50891022 53.3072076 5.95533479 53.3072076 8.02375993 52.6557464 8.29460816 51.7538693 8.29460816M55.3970155 2.87336707C55.1789114 2.94226706 55.0335087 3.13661254 54.957006 3.46543179 54.8995101 3.76811656 54.7845184 3.94345515 54.6315129 3.9923979 54.4780322 4.0370641 54.3074454 4.02423445 54.1031213 3.95438411 53.7244089 3.60228142 52.9954946 3.17367598 51.71443 3.17367598 49.6521821 3.17367598 48.7422271 4.64338399 48.7422271 5.98479547 48.7422271 7.5538145 49.3461711 8.31313988 50.6733274 8.59301638 50.7536315 8.60917224 50.7536315 8.69897981 50.683306 8.71418533 49.5514456 8.94321839 48.5483568 9.27488867 48.5483568 10.351154 48.5483568 10.9992891 48.9208919 11.354718 49.3970145 11.5485883 49.9230303 11.7624158 50.6614481 11.873131 51.5894597 11.889762 52.401054 11.8987903 52.9760125 11.9273006 53.3504483 11.9719668 53.7552951 12.0180585 54.0755613 12.1335254 54.3126723 12.306013 54.5564357 12.4951315 54.6852074 12.7731074 54.6852074 13.1366142 54.6852074 13.6345948 54.4195861 14.0346899 53.8888186 14.3307222 53.3946393 14.6063222 52.7198946 14.7507746 51.8807403 14.7507746 51.1608542 14.7507746 50.5716405 14.6723711 50.0403979 14.341176 49.6455297 14.0974126 49.5690269 13.6174886 49.6521821 13.2729886 49.7248835 12.9232618 49.5999131 12.5554784 49.1955415 12.4870536 48.9722105 12.4490398 48.6918588 12.5706839 48.5626119 12.7731074 48.4409678 12.9603253 48.3982023 13.1841314 48.3982023 13.4516534 48.3982023 14.3368995 49.0819753 14.7507746 49.6041897 14.9037801 50.4010537 15.1465931 50.9294453 15.2055145 51.662161 15.2055145 52.6334133 15.2055145 53.4221993 15.0567856 53.9857537 14.771207 54.5497833 14.4861036 54.9427508 14.1382775 55.1532521 13.7377072 55.3742073 13.3338107 55.4801707 12.9218363 55.4801707 12.5264929 55.4801707 11.991924 55.3628031 11.5557158 55.1342452 11.2340242 54.397253 10.221432 53.3504483 10.351154 50.9973949 10.2390133 49.8650593 10.2390133 49.6469552 10.0346892 49.6469552 9.68638791 49.6469552 9.17557766 50.0665324 8.97457976 51.7049265 8.72273843 53.3186118 8.47279778 54.8211067 7.88073306 54.8211067 5.91066859 54.8211067 5.34426317 54.6885336 4.85721154 54.5293509 4.51698815 54.8629218 4.59063986 55.1736845 4.59063986 55.4573624 4.49798126 55.7828555 4.39676955 55.9943071 4.23331027 56.1169016 4.00570273 56.2390209 3.77571932 56.2670561 3.56046625 56.1995816 3.34948974 56.0603561 2.90805465 55.7975858 2.74982226 55.3970155 2.87336707"/>
</svg>
