<svg xmlns="http://www.w3.org/2000/svg" width="808" height="196" viewBox="0 0 808 196">
  <path fill="#2F3231" fill-rule="evenodd" d="M141.84 149.307L141.871 149.307C141.871 149.307 159.727 147.233 159.727 131.536L159.727 81.572C159.727 57.248 139.918 37.47 115.594 37.47 101.127 37.47 88.302 44.456 80.216 55.241 71.827 44.456 58.6 37.47 44.109 37.47 33.936 37.47 24.555 40.923 17.096 46.742 17.096 46.742 7.295 55.187 0 50.341L0 149.307C0 149.307 17.716 147.233 17.863 131.73L17.863 81.572C17.863 66.452 29.02 54.195 44.109 54.195 59.081 54.195 71.261 66.252 71.486 81.135L71.486 149.307 71.517 149.307C71.517 149.307 89.148 147.246 89.404 131.858L89.404 81.572C89.404 81.445 89.373 81.305 89.373 81.202 89.567 66.27 100.591 54.195 115.594 54.195 130.707 54.195 141.84 66.452 141.84 81.572L141.84 149.307M235.477 134.907C213.186 134.907 195.104 116.85 195.104 94.586 195.104 72.34 213.186 54.284 235.477 54.284 257.738 54.284 275.826 72.34 275.826 94.586 275.826 116.85 257.738 134.907 235.477 134.907M263.621 45.048L263.591 45.048C255.28 40.318 245.704 37.613 235.477 37.613 203.975 37.613 178.428 63.117 178.428 94.586 178.428 126.067 203.975 151.578 235.477 151.578 245.704 151.578 255.28 148.884 263.591 144.154L263.621 144.154C287.184 130.548 292.496 138.859 292.496 138.859L292.496 50.344C292.496 50.344 287.209 58.661 263.621 45.048M327.898 94.588C327.898 72.336 345.949 54.28 368.216 54.28 390.508 54.28 408.565 72.336 408.565 94.588 408.565 116.853 390.508 134.909 368.216 134.909 345.949 134.909 327.898 116.853 327.898 94.588zM425.204 0C424.158.158 408.084 2.529 407.549 17.072L407.549 53.38C397.346 43.634 383.505 37.609 368.216 37.609 336.744 37.609 311.198 63.12 311.198 94.588 311.198 126.069 336.744 151.58 368.216 151.58 378.474 151.58 388.05 148.868 396.361 144.157 419.948 130.544 425.259 138.861 425.259 138.861L425.259 0 425.204 0 425.204 0zM500.815 134.907C478.523 134.907 461.117 116.85 461.117 94.586 461.117 72.34 478.523 54.284 500.815 54.284 523.136 54.284 541.163 72.34 541.163 94.586 541.163 116.85 523.136 134.907 500.815 134.907zM557.834 50.344C557.834 50.344 552.522 58.643 528.929 45.048L528.929 45.024C520.618 40.318 511.072 37.613 500.815 37.613 469.312 37.613 443.797 63.117 443.797 94.586 443.797 126.067 469.312 151.578 500.815 151.578 516.578 151.578 530.821 145.212 541.133 134.864L541.133 138.378C541.103 141.175 540.768 145.224 540.117 148.063 535.086 169.762 513.445 183.29 491.744 178.292 486.657 177.106 481.827 174.93 477.477 171.878 476.236 171.033 467.25 164.862 455.666 173.817 463.94 184.542 475.469 191.619 487.99 194.494L487.96 194.525C518.671 201.614 549.298 182.469 556.361 151.821 557.322 147.723 557.779 143.619 557.803 139.582L557.803 95.267C557.803 95.054 557.834 94.811 557.834 94.586L557.834 50.344 557.834 50.344zM632.764 54.212C651.466 54.224 667.345 67.271 670.625 85.735L593.998 85.735C597.952 67.271 612.535 54.224 632.764 54.212zM670.509 102.929C670.509 102.929 679.726 103.269 684.1 98.582 687.976 94.478 687.519 91 687.549 88.149 687.549 88.149 687.605 82.732 685.262 75.26 685.177 74.84 685.037 74.372 684.867 73.892 684.386 72.579 683.876 71.308 683.34 70.08 683.224 69.8 683.139 69.545 682.999 69.277 682.744 68.682 681.983 67.046 681.843 66.79 678.594 60.407 674.549 55.312 670.059 51.275 670.004 51.202 669.919 51.166 669.864 51.075 669.383 50.637 668.842 50.205 668.337 49.78 660.933 43.578 649.714 39.487 639.517 38.149 637.254 37.851 635.107 37.681 633.129 37.681 632.989 37.681 632.904 37.711 632.788 37.711 632.649 37.711 632.539 37.681 632.424 37.681L632.424 37.724C599.594 38.064 576.482 62.511 576.482 94.873 576.482 126.269 602.022 151.792 633.385 151.792 653.218 151.792 671.531 141.638 682.324 124.627 669.268 117.544 662.235 123.387 660.397 125.107 652.939 131.588 643.442 135.291 633.385 135.291 613.892 135.291 597.587 121.356 593.858 102.929L670.509 102.929 670.509 102.929zM762.047 94.287L807.054 40.124 793.719 40.124C789.478 40.264 785.268 41.115 781.655 44.95L751.455 81.302 729.949 54.944C719.862 42.823 706.076 40.294 697.059 40.124L695.593 40.124 694.857 40.167 739.865 95.247 694.772 149.531 706.837 149.531C711.472 149.531 716.388 148.632 720.403 144.425L750.464 108.231 772.189 134.894C782.756 147.349 797.96 149.349 805.333 149.531L807.14 149.531 762.047 94.287"/>
</svg>
