<?xml version="1.0" encoding="UTF-8" standalone="no"?><!DOCTYPE svg PUBLIC "-//W3C//DTD SVG 1.1//EN" "http://www.w3.org/Graphics/SVG/1.1/DTD/svg11.dtd"><svg width="100%" height="100%" viewBox="0 0 911 178" version="1.1" xmlns="http://www.w3.org/2000/svg" xmlns:xlink="http://www.w3.org/1999/xlink" xml:space="preserve" style="fill-rule:evenodd;clip-rule:evenodd;stroke-linejoin:round;stroke-miterlimit:1.41421;"><path d="M127.568,70.752c1.772,-8.2 9.856,-13.412 18.057,-11.64c8.2,1.772 13.412,9.856 11.64,18.056c-1.772,8.201 -9.856,13.412 -18.056,11.641c-8.201,-1.772 -13.412,-9.856 -11.641,-18.057Z" style="fill:#f7901d;fill-rule:nonzero;"/><path d="M75.807,77.466c2.712,-12.552 15.086,-20.528 27.638,-17.816c12.551,2.712 20.528,15.085 17.816,27.637c-2.712,12.552 -15.086,20.529 -27.637,17.817c-12.552,-2.712 -20.529,-15.086 -17.817,-27.638Z" style="fill:#f47420;fill-rule:nonzero;"/><path d="M117.715,108.498c2.278,-10.543 12.672,-17.244 23.216,-14.966c10.544,2.279 17.244,12.673 14.966,23.216c-2.278,10.544 -12.672,17.244 -23.216,14.966c-10.543,-2.278 -17.244,-12.672 -14.966,-23.216Z" style="fill:#f15f73;fill-rule:nonzero;"/><path d="M175.648,90.271c1.483,-6.861 8.247,-11.222 15.109,-9.739c6.861,1.482 11.222,8.246 9.739,15.108c-1.482,6.862 -8.247,11.222 -15.108,9.74c-6.862,-1.483 -11.222,-8.247 -9.74,-15.109Z" style="fill:#88a744;fill-rule:nonzero;"/><path d="M63.826,124.835c1.265,-5.857 7.04,-9.58 12.897,-8.314c5.858,1.265 9.58,7.04 8.315,12.897c-1.266,5.858 -7.04,9.58 -12.898,8.315c-5.857,-1.266 -9.58,-7.04 -8.314,-12.898Z" style="fill:#f7be14;fill-rule:nonzero;"/><path d="M110.906,47.69c1.158,-5.355 6.437,-8.759 11.793,-7.602c5.355,1.158 8.758,6.437 7.601,11.792c-1.157,5.356 -6.436,8.759 -11.792,7.602c-5.355,-1.157 -8.759,-6.436 -7.602,-11.792Z" style="fill:#f7be14;fill-rule:nonzero;"/><path d="M52.261,4.648c0.687,-3.18 3.822,-5.201 7.001,-4.514c3.18,0.687 5.201,3.822 4.514,7.002c-0.687,3.18 -3.822,5.201 -7.002,4.513c-3.179,-0.687 -5.2,-3.821 -4.513,-7.001Z" style="fill:#9279b7;fill-rule:nonzero;"/><path d="M0.127,148.586c0.65,-3.012 3.62,-4.926 6.633,-4.276c3.012,0.651 4.927,3.621 4.276,6.633c-0.651,3.013 -3.621,4.927 -6.634,4.276c-3.012,-0.65 -4.926,-3.62 -4.275,-6.633Z" style="fill:#8b9597;fill-rule:nonzero;"/><path d="M107.575,167.683c0.904,-4.184 5.029,-6.842 9.213,-5.938c4.184,0.904 6.843,5.028 5.939,9.212c-0.904,4.184 -5.029,6.843 -9.213,5.939c-4.184,-0.904 -6.843,-5.029 -5.939,-9.213Z" style="fill:#0590b5;fill-rule:nonzero;"/><path d="M42.521,83.006c0.904,-4.184 5.029,-6.843 9.213,-5.939c4.184,0.904 6.843,5.029 5.939,9.213c-0.904,4.184 -5.029,6.843 -9.213,5.939c-4.184,-0.904 -6.843,-5.029 -5.939,-9.213Z" style="fill:#46c5e8;fill-rule:nonzero;"/><path d="M96.778,115.788c0.831,-3.85 4.626,-6.296 8.475,-5.464c3.849,0.831 6.296,4.626 5.464,8.475c-0.832,3.85 -4.626,6.296 -8.476,5.464c-3.849,-0.832 -6.295,-4.626 -5.463,-8.475Z" style="fill:#f47420;fill-rule:nonzero;"/><path d="M167.65,29.053c0.94,-4.352 5.231,-7.117 9.582,-6.177c4.352,0.941 7.117,5.23 6.177,9.581c-0.941,4.352 -5.23,7.117 -9.581,6.177c-4.352,-0.94 -7.117,-5.23 -6.178,-9.581Z" style="fill:#46c5e8;fill-rule:nonzero;"/><path d="M169.154,139.984c-0.569,-3.55 1.845,-6.89 5.397,-7.461c3.55,-0.57 6.89,1.845 7.461,5.396c0.57,3.551 -1.845,6.89 -5.395,7.461c-3.551,0.57 -6.891,-1.845 -7.463,-5.396Z" style="fill:#f7901d;fill-rule:nonzero;"/><path d="M304.671,92.762c0,8.223 -1.682,14.896 -4.86,19.29c-2.955,4.075 -7.252,6.055 -13.136,6.055c-10.779,0 -15.604,-8.836 -15.604,-17.593l0,-17.876c0,-8.733 9.407,-14.526 15.628,-14.526c5.877,0 10.165,1.976 13.109,6.037c3.317,4.589 4.863,10.503 4.863,18.613Zm-17.881,-36.8l-0.206,0c-5.294,0.025 -10.839,1.886 -15.5,5.009l-0.025,-30.131l-12.126,-0.063l0,69.749c0,17.512 11.383,29.742 27.766,29.742l0.091,0c9.355,-0.042 16.829,-3.531 22.21,-10.365c5.255,-6.651 7.81,-15.525 7.81,-27.129c0,-11.299 -2.482,-19.703 -7.809,-26.445c-5.397,-6.837 -12.87,-10.324 -22.211,-10.367Z" style="fill:#444749;fill-rule:nonzero;"/><path d="M466.319,55.951c-17.044,0 -27.219,10.931 -27.219,29.239l0,43.88l12.15,0l0,-43.988c0,-15.339 10.546,-16.994 15.081,-16.994c4.534,0 15.081,1.655 15.081,16.994l0,44l12.149,0l0,-43.896c-0.019,-18.306 -10.203,-29.235 -27.242,-29.235Z" style="fill:#444749;fill-rule:nonzero;"/><path d="M361,68.641c-1.709,-0.44 -3.303,-0.553 -4.487,-0.553c-4.535,0 -15.081,1.655 -15.081,16.994l0,43.988l-12.15,0l0,-43.88c0,-18.308 10.175,-29.239 27.219,-29.239c2.733,0 5.29,0.281 7.657,0.829l-3.158,11.861Z" style="fill:#444749;fill-rule:nonzero;"/><path d="M551.784,82.638l0,17.888c0,8.757 -4.825,17.593 -15.604,17.593c-5.884,0 -10.182,-1.98 -13.133,-6.05c-3.227,-4.462 -4.863,-10.954 -4.863,-19.295c0,-8.121 1.545,-14.034 4.864,-18.613c2.937,-4.062 7.225,-6.037 13.114,-6.037l0.013,0c6.214,0 15.609,5.788 15.609,14.514Zm-0.012,-51.866l-0.025,30.177c-4.65,-3.108 -10.201,-4.974 -15.5,-4.998l-0.205,0c-9.356,0.042 -16.83,3.53 -22.211,10.364c-5.327,6.743 -7.808,15.147 -7.808,26.447c0,11.59 2.553,20.463 7.808,27.129c5.398,6.836 12.871,10.323 22.23,10.365l0.178,0c16.3,0 27.683,-12.231 27.683,-29.742l0,-69.749l-12.15,0.007Z" style="fill:#444749;fill-rule:nonzero;"/><path d="M815.068,68.088c4.56,0 8.461,1.307 11.591,3.882c2.649,2.185 4.052,5.206 4.294,9.573l11.795,-0.606c-0.346,-8.157 -2.935,-13.834 -8.152,-18.23c-5.357,-4.499 -11.923,-6.781 -19.515,-6.781c-9.435,0 -16.975,3.492 -22.413,10.383c-5.252,6.676 -7.805,15.442 -7.805,26.8c0,11.37 2.555,20.131 7.811,26.784c5.444,6.884 12.982,10.375 22.407,10.375c7.605,0 14.172,-2.282 19.515,-6.78c5.2,-4.368 7.791,-10.211 8.151,-18.374l-11.794,-0.64c-0.242,4.376 -1.645,7.566 -4.29,9.747c-3.134,2.579 -7.035,3.886 -11.595,3.886c-5.929,0 -10.25,-1.981 -13.203,-6.05c-3.28,-4.537 -4.876,-10.739 -4.876,-18.959c0,-8.236 1.595,-14.436 4.873,-18.954c2.956,-4.076 7.277,-6.056 13.206,-6.056Z" style="fill:#444749;fill-rule:nonzero;"/><path d="M885.337,55.951c-6.293,0 -10.759,1.507 -15.249,4.474c-0.581,0.382 -1.146,0.785 -1.693,1.208l0,-30.744l-12.148,0l0,98.181l12.148,0l0,-43.506c0,-9.063 5.983,-17.296 15.996,-17.296c9.375,0 14.345,8.024 14.345,16.786l0,44.004l12.197,0l0,-42.897c0,-26.151 -17.639,-30.21 -25.596,-30.21Z" style="fill:#444749;fill-rule:nonzero;"/><path d="M774.1,117.376c-2.95,2.293 -6.473,1.883 -9.288,-0.124c-2.059,-1.468 -3.842,-4.2 -3.842,-8.326c0,-6.602 0,-39.07 0,-39.07l12.998,0l0,-12.187l-13.011,0l0,-14.365l-12.223,0l0,14.352l-7.827,0l0,12.188l7.839,0l0,39.058c0,10.049 4.619,16.755 10.952,19.872c6.754,3.268 15.334,2.522 21.182,-2.304l-6.78,-9.094Z" style="fill:#444749;fill-rule:nonzero;"/><path d="M718.107,103.233c0,11.032 -8.945,14.945 -16.604,14.945c-4.578,0 -15.224,-0.992 -15.224,-10.188c0,-2.576 0.697,-6.109 4.023,-8.315c3.288,-2.185 8.057,-2.354 14.438,-2.354l13.367,0l0,0.723l-0.001,0l0.001,0.014l0,5.175Zm12.137,-22.979c0,-7.785 -2.608,-13.899 -7.751,-18.171c-4.891,-4.069 -11.336,-6.132 -19.158,-6.132c-7.709,0 -14.077,2.057 -18.925,6.114c-4.569,3.819 -7.033,8.52 -7.324,13.974l11.793,0.998c0.28,-2.307 1.401,-4.203 3.431,-5.795c2.663,-2.094 6.376,-3.154 11.037,-3.154c4.969,0 8.763,1.103 11.279,3.28c2.35,2.032 3.493,4.904 3.493,8.778l0,4.977l-13.559,0c-7.591,0 -15.521,0.37 -21.734,4.788c-5.601,3.981 -8.685,10.324 -8.685,17.863c0,13.664 10.74,22.494 27.362,22.494c6.454,0 13.431,-1.685 18.897,-5.709l0.39,4.511l9.454,0l0,-25.834c0,-0.001 0,-0.002 0,-0.003l0,-22.979Z" style="fill:#444749;fill-rule:nonzero;"/><path d="M413.514,103.233c0,11.032 -8.945,14.945 -16.604,14.945c-4.578,0 -15.225,-0.992 -15.225,-10.188c0,-2.576 0.698,-6.109 4.024,-8.315c3.287,-2.185 8.057,-2.354 14.437,-2.354l13.368,0l0,0.723l-0.002,0l0.002,0.014l0,5.175Zm12.137,-22.979c0,-7.785 -2.609,-13.899 -7.752,-18.171c-4.891,-4.069 -11.336,-6.132 -19.158,-6.132c-7.709,0 -14.076,2.057 -18.924,6.114c-4.57,3.819 -7.034,8.52 -7.324,13.974l11.793,0.998c0.28,-2.307 1.401,-4.203 3.43,-5.795c2.663,-2.094 6.377,-3.154 11.038,-3.154c4.968,0 8.762,1.103 11.278,3.28c2.351,2.032 3.493,4.904 3.493,8.778l0,4.977l-13.558,0c-7.591,0 -15.522,0.37 -21.734,4.788c-5.601,3.981 -8.685,10.324 -8.685,17.863c0,13.664 10.739,22.494 27.362,22.494c6.454,0 13.431,-1.685 18.897,-5.709l0.39,4.511l9.454,0l0,-25.834c0,-0.001 0,-0.002 0,-0.003l0,-22.979Z" style="fill:#444749;fill-rule:nonzero;"/><path d="M658.186,57.148l-14.912,51.917l-14.911,-51.917l-11.5,0l-14.912,51.917l-14.911,-51.917l-11.5,0l20.661,71.936l11.5,0l14.912,-51.916l14.911,51.916l11.5,0l20.662,-71.936l-11.5,0Z" style="fill:#444749;fill-rule:nonzero;"/></svg>