<?xml version="1.0" encoding="UTF-8" standalone="no"?><!DOCTYPE svg PUBLIC "-//W3C//DTD SVG 1.1//EN" "http://www.w3.org/Graphics/SVG/1.1/DTD/svg11.dtd"><svg width="100%" height="100%" viewBox="0 0 400 150" version="1.1" xmlns="http://www.w3.org/2000/svg" xmlns:xlink="http://www.w3.org/1999/xlink" xml:space="preserve" style="fill-rule:evenodd;clip-rule:evenodd;stroke-linejoin:round;stroke-miterlimit:1.41421;"><g id="Layer-1"><rect x="49.237" y="51.941" width="20.601" height="20.601" style="fill:#e5214b;fill-rule:nonzero;"/><path d="M65.294,60.727l-4.241,0l0,-4.241l-3.03,0l0,4.241l-4.241,0l0,3.03l4.241,0l0,4.241l3.03,0l0,-4.241l4.241,0l0,-3.03Z" style="fill:#fff;fill-rule:nonzero;"/><rect x="74.443" y="77.147" width="20.601" height="20.601" style="fill:#8cc641;fill-rule:nonzero;"/><path d="M89.885,84.448l-2.142,-2.142l-3,2.999l-2.999,-2.999l-2.143,2.142l3,2.999l-3,2.999l2.143,2.142l2.999,-2.999l2.999,2.999l2.142,-2.142l-2.998,-2.999l2.999,-2.999Z" style="fill:#fff;fill-rule:nonzero;"/><rect x="74.443" y="51.941" width="20.601" height="20.601" style="fill:#faad21;fill-rule:nonzero;"/><rect x="78.987" y="60.727" width="11.512" height="3.03" style="fill:#fff;fill-rule:nonzero;"/><rect x="49.237" y="77.147" width="20.601" height="20.601" style="fill:#22a9e1;fill-rule:nonzero;"/><rect x="53.782" y="85.932" width="11.512" height="3.03" style="fill:#fff;fill-rule:nonzero;"/><path d="M59.538,84.115c0.837,0 1.515,-0.678 1.515,-1.515c0,-0.836 -0.678,-1.515 -1.515,-1.515c-0.837,0 -1.515,0.679 -1.515,1.515c0,0.837 0.678,1.515 1.515,1.515" style="fill:#fff;fill-rule:nonzero;"/><path d="M59.538,90.78c-0.837,0 -1.515,0.678 -1.515,1.515c0,0.836 0.678,1.515 1.515,1.515c0.837,0 1.515,-0.679 1.515,-1.515c0,-0.837 -0.678,-1.515 -1.515,-1.515" style="fill:#fff;fill-rule:nonzero;"/><path d="M139.906,67.298c-2.528,-3.882 -6.047,-6.582 -11.373,-6.582c-8.209,0 -14.168,6.312 -14.163,14.155c0,7.844 5.954,14.147 14.167,14.147c5.142,0 8.841,-2.609 11.369,-6.581l8.205,4.876c-3.875,6.13 -11.275,10.544 -19.574,10.544c-15.246,0 -24.09,-11.448 -24.089,-22.986c0,-11.538 8.843,-22.991 24.085,-22.991c9.294,0 15.339,4.417 19.579,10.547l-8.206,4.871Z" style="fill:#202020;fill-rule:nonzero;"/><path d="M150.72,51.947l8.848,0l0,5.95l0.186,0.002c1.53,-3.611 4.782,-5.952 8.566,-5.952c2.075,0 3.88,0.541 5.141,1.349l-3.331,9.285c-0.909,-0.718 -2.62,-1.264 -3.522,-1.264c-3.434,0 -6.492,2.62 -6.492,6.583l0,29.862l-9.396,0l0,-45.815Z" style="fill:#202020;fill-rule:nonzero;"/><path d="M175.539,51.947l9.38,0l0,25.535c0,6.402 4.696,10.997 10.561,10.997c5.86,0 10.558,-4.595 10.554,-10.997l0.004,-25.535l9.383,0l0,26.348c0,12.259 -9.567,19.562 -19.948,19.562c-10.373,0 -19.934,-7.303 -19.934,-19.564l0,-26.346Z" style="fill:#202020;fill-rule:nonzero;"/><path d="M218.906,51.943l9.384,0l0,6.607l0.182,0c2.616,-4.054 7.398,-6.671 13.357,-6.671c9.201,0 16.951,7.665 16.951,18.483l0,27.4l-9.379,0l0,-25.322c0,-7.94 -4.152,-11.189 -10.373,-11.189c-6.044,0.003 -10.738,3.884 -10.738,11.001l0,25.51l-9.384,0l0,-45.819Z" style="fill:#202020;fill-rule:nonzero;"/><path d="M296.783,67.295c-2.524,-3.879 -6.043,-6.581 -11.366,-6.579c-8.213,-0.002 -14.17,6.311 -14.17,14.156c0,7.835 5.955,14.146 14.17,14.146c5.138,0 8.839,-2.609 11.364,-6.578l8.214,4.873c-3.88,6.127 -11.282,10.544 -19.578,10.544c-15.241,0 -24.09,-11.448 -24.09,-22.989c0,-11.542 8.849,-22.988 24.09,-22.988c9.29,0 15.335,4.417 19.578,10.547l-8.212,4.868Z" style="fill:#202020;fill-rule:nonzero;"/><path d="M307.542,40.071l9.387,-0.003l0,18.483l0.176,0c2.616,-4.055 7.395,-6.671 13.351,-6.671c9.198,0 16.957,7.665 16.957,18.482l0,27.4l-9.384,0l0,-25.329c0,-7.931 -4.146,-11.182 -10.367,-11.178c-6.049,-0.004 -10.733,3.873 -10.733,10.997l0,25.51l-9.387,0l0,-57.691Z" style="fill:#202020;fill-rule:nonzero;"/></g></svg>