<?xml version="1.0" encoding="UTF-8" standalone="no"?><!DOCTYPE svg PUBLIC "-//W3C//DTD SVG 1.1//EN" "http://www.w3.org/Graphics/SVG/1.1/DTD/svg11.dtd"><svg width="100%" height="100%" viewBox="0 0 226 62" version="1.1" xmlns="http://www.w3.org/2000/svg" xmlns:xlink="http://www.w3.org/1999/xlink" xml:space="preserve" style="fill-rule:evenodd;clip-rule:evenodd;stroke-linejoin:round;stroke-miterlimit:1.41421;"><path d="M24.953,45.829c-0.154,-0.12 -0.347,-0.247 -0.578,-0.385c-0.231,-0.136 -0.501,-0.265 -0.808,-0.385c-0.308,-0.119 -0.642,-0.218 -1.001,-0.296c-0.36,-0.076 -0.737,-0.114 -1.13,-0.114c-0.822,0 -1.511,0.145 -2.067,0.435c-0.556,0.292 -1.005,0.681 -1.348,1.169c-0.342,0.487 -0.59,1.061 -0.744,1.72c-0.154,0.659 -0.231,1.356 -0.231,2.091c0,1.746 0.437,3.086 1.309,4.018c0.873,0.933 2.028,1.4 3.466,1.4c0.821,0 1.484,-0.039 1.99,-0.117c0.504,-0.076 0.885,-0.158 1.142,-0.243l0,-9.293Zm1.669,10.448c-0.497,0.172 -1.13,0.333 -1.9,0.489c-0.77,0.153 -1.746,0.231 -2.927,0.231c-0.975,0 -1.861,-0.16 -2.657,-0.476c-0.796,-0.317 -1.48,-0.774 -2.053,-1.373c-0.574,-0.6 -1.019,-1.327 -1.335,-2.183c-0.317,-0.856 -0.475,-1.821 -0.475,-2.901c0,-1.009 0.132,-1.938 0.398,-2.784c0.265,-0.847 0.654,-1.579 1.168,-2.196c0.513,-0.615 1.142,-1.094 1.887,-1.437c0.744,-0.343 1.595,-0.513 2.554,-0.513c0.873,0 1.63,0.124 2.271,0.372c0.642,0.248 1.109,0.484 1.4,0.705l0,-7.136l1.669,-0.307l0,19.509Z" style="fill:#00aeef;fill-rule:nonzero;"/><path d="M38.636,48.987c-0.035,-1.386 -0.36,-2.465 -0.976,-3.234c-0.616,-0.771 -1.489,-1.156 -2.618,-1.156c-0.6,0 -1.135,0.12 -1.605,0.359c-0.471,0.24 -0.882,0.561 -1.232,0.962c-0.351,0.404 -0.625,0.87 -0.822,1.401c-0.197,0.53 -0.312,1.086 -0.346,1.668l7.599,0Zm-9.422,1.053c0,-1.165 0.168,-2.179 0.501,-3.042c0.333,-0.864 0.77,-1.588 1.309,-2.17c0.539,-0.581 1.155,-1.014 1.848,-1.296c0.694,-0.283 1.408,-0.425 2.144,-0.425c1.626,0 2.922,0.532 3.889,1.593c0.967,1.06 1.451,2.694 1.451,4.902c0,0.138 -0.005,0.275 -0.013,0.411c-0.009,0.138 -0.022,0.265 -0.039,0.386l-9.318,0c0.051,1.625 0.453,2.875 1.206,3.748c0.753,0.873 1.951,1.308 3.594,1.308c0.907,0 1.625,-0.085 2.156,-0.255c0.531,-0.173 0.916,-0.317 1.156,-0.438l0.307,1.438c-0.239,0.138 -0.688,0.3 -1.347,0.488c-0.659,0.188 -1.433,0.282 -2.323,0.282c-1.164,0 -2.156,-0.17 -2.978,-0.513c-0.822,-0.343 -1.498,-0.822 -2.028,-1.437c-0.531,-0.617 -0.916,-1.348 -1.155,-2.196c-0.24,-0.846 -0.36,-1.775 -0.36,-2.784Z" style="fill:#00aeef;fill-rule:nonzero;"/><path d="M45.772,55.507c0.958,0 1.749,-0.159 2.374,-0.475c0.624,-0.316 0.937,-0.851 0.937,-1.605c0,-0.359 -0.055,-0.666 -0.167,-0.924c-0.112,-0.256 -0.295,-0.487 -0.552,-0.693c-0.257,-0.204 -0.595,-0.401 -1.014,-0.591c-0.419,-0.187 -0.937,-0.41 -1.553,-0.666c-0.497,-0.206 -0.967,-0.416 -1.412,-0.63c-0.445,-0.214 -0.838,-0.462 -1.181,-0.744c-0.342,-0.282 -0.616,-0.62 -0.821,-1.014c-0.205,-0.394 -0.309,-0.873 -0.309,-1.437c0,-1.078 0.407,-1.951 1.22,-2.619c0.813,-0.667 1.929,-1.002 3.35,-1.002c0.908,0 1.656,0.078 2.246,0.231c0.591,0.156 1.006,0.292 1.245,0.411l-0.384,1.49c-0.206,-0.104 -0.552,-0.24 -1.041,-0.411c-0.487,-0.172 -1.202,-0.257 -2.143,-0.257c-0.376,0 -0.731,0.039 -1.065,0.116c-0.334,0.078 -0.629,0.197 -0.886,0.36c-0.256,0.163 -0.462,0.369 -0.616,0.617c-0.154,0.25 -0.231,0.554 -0.231,0.913c0,0.36 0.068,0.67 0.206,0.926c0.136,0.259 0.338,0.485 0.603,0.682c0.265,0.199 0.59,0.382 0.975,0.552c0.385,0.171 0.826,0.358 1.323,0.561c0.513,0.205 1.004,0.414 1.476,0.627c0.47,0.214 0.885,0.47 1.245,0.769c0.359,0.299 0.65,0.659 0.872,1.077c0.222,0.421 0.334,0.946 0.334,1.58c0,1.197 -0.449,2.104 -1.348,2.721c-0.898,0.616 -2.127,0.925 -3.683,0.925c-1.165,0 -2.054,-0.1 -2.67,-0.297c-0.617,-0.195 -1.028,-0.345 -1.232,-0.448l0.436,-1.515c0.051,0.035 0.162,0.09 0.334,0.166c0.17,0.078 0.401,0.163 0.693,0.258c0.29,0.094 0.637,0.175 1.039,0.243c0.403,0.068 0.869,0.103 1.4,0.103Z" style="fill:#00aeef;fill-rule:nonzero;"/><path d="M54.679,56.688l-1.668,0l0,-13.272l1.668,0l0,13.272Zm0.385,-17.277c0,0.394 -0.12,0.706 -0.359,0.938c-0.24,0.231 -0.531,0.346 -0.873,0.346c-0.342,0 -0.634,-0.115 -0.872,-0.346c-0.241,-0.232 -0.36,-0.544 -0.36,-0.938c0,-0.394 0.119,-0.705 0.36,-0.936c0.238,-0.231 0.53,-0.348 0.872,-0.348c0.342,0 0.633,0.117 0.873,0.348c0.239,0.231 0.359,0.542 0.359,0.936Z" style="fill:#00aeef;fill-rule:nonzero;"/><path d="M66.693,45.033c-0.292,-0.085 -0.668,-0.166 -1.13,-0.243c-0.462,-0.078 -1.121,-0.117 -1.977,-0.117c-0.718,0 -1.356,0.126 -1.912,0.373c-0.556,0.249 -1.031,0.6 -1.425,1.052c-0.394,0.455 -0.693,0.994 -0.898,1.617c-0.205,0.625 -0.308,1.315 -0.308,2.067c0,0.873 0.119,1.622 0.359,2.247c0.24,0.625 0.552,1.133 0.937,1.527c0.385,0.394 0.826,0.681 1.323,0.861c0.496,0.179 1,0.269 1.514,0.269c0.753,0 1.441,-0.111 2.066,-0.335c0.625,-0.221 1.108,-0.479 1.451,-0.769l0,-8.549Zm0.025,10.115c-0.102,0.086 -0.256,0.183 -0.462,0.295c-0.205,0.112 -0.458,0.226 -0.757,0.347c-0.299,0.12 -0.642,0.217 -1.026,0.295c-0.386,0.077 -0.818,0.115 -1.297,0.115c-0.77,0 -1.514,-0.12 -2.233,-0.359c-0.72,-0.24 -1.348,-0.617 -1.887,-1.13c-0.54,-0.513 -0.971,-1.177 -1.297,-1.989c-0.325,-0.813 -0.488,-1.802 -0.488,-2.965c0,-0.941 0.146,-1.814 0.437,-2.618c0.291,-0.805 0.706,-1.503 1.245,-2.093c0.539,-0.59 1.198,-1.052 1.977,-1.387c0.778,-0.333 1.656,-0.5 2.631,-0.5c1.232,0 2.221,0.082 2.965,0.245c0.744,0.162 1.356,0.321 1.835,0.474l0,12.117c0,1.985 -0.513,3.401 -1.54,4.248c-1.027,0.848 -2.576,1.271 -4.646,1.271c-0.856,0 -1.631,-0.065 -2.324,-0.192c-0.693,-0.129 -1.287,-0.279 -1.783,-0.45l0.333,-1.515c0.411,0.188 0.971,0.351 1.681,0.489c0.71,0.136 1.425,0.204 2.144,0.204c1.574,0 2.717,-0.303 3.427,-0.911c0.71,-0.608 1.065,-1.646 1.065,-3.118l0,-0.873Z" style="fill:#00aeef;fill-rule:nonzero;"/><path d="M71.751,43.878c0.496,-0.136 1.163,-0.29 2.002,-0.462c0.838,-0.171 1.865,-0.257 3.08,-0.257c1.01,0 1.853,0.145 2.529,0.437c0.676,0.291 1.215,0.705 1.617,1.245c0.403,0.539 0.689,1.184 0.861,1.938c0.17,0.753 0.256,1.583 0.256,2.49l0,7.419l-1.669,0l0,-6.879c0,-0.942 -0.063,-1.737 -0.192,-2.388c-0.129,-0.65 -0.343,-1.182 -0.642,-1.592c-0.299,-0.41 -0.693,-0.706 -1.181,-0.886c-0.487,-0.18 -1.1,-0.27 -1.835,-0.27c-0.787,0 -1.468,0.044 -2.041,0.129c-0.573,0.085 -0.946,0.163 -1.117,0.231l0,11.655l-1.668,0l0,-12.81Z" style="fill:#00aeef;fill-rule:nonzero;"/><rect x="90.515" y="36.588" width="1.592" height="24.849" style="fill:#00aeef;fill-rule:nonzero;"/><path d="M109.246,43.416c0.153,0.856 0.353,1.766 0.601,2.733c0.247,0.966 0.519,1.951 0.817,2.951c0.298,1.002 0.615,1.989 0.949,2.966c0.335,0.975 0.674,1.892 1.017,2.747c0.293,-0.649 0.601,-1.44 0.928,-2.372c0.326,-0.932 0.652,-1.915 0.98,-2.949c0.326,-1.034 0.63,-2.077 0.912,-3.132c0.285,-1.054 0.521,-2.035 0.709,-2.944l1.644,0c-0.617,2.606 -1.293,4.988 -2.021,7.141c-0.729,2.156 -1.534,4.199 -2.41,6.131l-1.547,0c-0.259,-0.605 -0.531,-1.279 -0.816,-2.022c-0.284,-0.744 -0.578,-1.539 -0.879,-2.386c-0.302,-0.847 -0.594,-1.735 -0.876,-2.667c-0.282,-0.932 -0.552,-1.885 -0.807,-2.86c-0.256,0.978 -0.525,1.933 -0.806,2.866c-0.281,0.935 -0.572,1.825 -0.872,2.672c-0.301,0.846 -0.592,1.642 -0.875,2.388c-0.283,0.744 -0.552,1.414 -0.808,2.009l-1.605,0c-0.877,-1.932 -1.68,-3.977 -2.406,-6.134c-0.727,-2.156 -1.398,-4.535 -2.012,-7.138l1.772,0c0.189,0.907 0.425,1.887 0.709,2.938c0.284,1.053 0.588,2.096 0.915,3.131c0.327,1.035 0.657,2.015 0.991,2.941c0.335,0.924 0.648,1.711 0.94,2.363c0.328,-0.853 0.656,-1.768 0.986,-2.745c0.329,-0.976 0.638,-1.961 0.928,-2.955c0.289,-0.992 0.561,-1.972 0.816,-2.94c0.255,-0.967 0.485,-1.879 0.688,-2.733l1.438,0Z" style="fill:#00aeef;fill-rule:nonzero;"/><path d="M128.174,48.987c-0.034,-1.386 -0.36,-2.465 -0.975,-3.234c-0.617,-0.771 -1.489,-1.156 -2.619,-1.156c-0.599,0 -1.134,0.12 -1.605,0.359c-0.47,0.24 -0.881,0.561 -1.231,0.962c-0.352,0.404 -0.626,0.87 -0.822,1.401c-0.197,0.53 -0.313,1.086 -0.347,1.668l7.599,0Zm-9.421,1.053c0,-1.165 0.166,-2.179 0.499,-3.042c0.335,-0.864 0.771,-1.588 1.311,-2.17c0.539,-0.581 1.155,-1.014 1.848,-1.296c0.693,-0.283 1.408,-0.425 2.144,-0.425c1.625,0 2.921,0.532 3.889,1.593c0.966,1.06 1.449,2.694 1.449,4.902c0,0.138 -0.004,0.275 -0.012,0.411c-0.009,0.138 -0.022,0.265 -0.039,0.386l-9.318,0c0.051,1.625 0.453,2.875 1.206,3.748c0.754,0.873 1.952,1.308 3.594,1.308c0.907,0 1.627,-0.085 2.157,-0.255c0.53,-0.173 0.915,-0.317 1.155,-0.438l0.308,1.438c-0.24,0.138 -0.69,0.3 -1.348,0.488c-0.659,0.188 -1.433,0.282 -2.323,0.282c-1.164,0 -2.157,-0.17 -2.979,-0.513c-0.82,-0.343 -1.497,-0.822 -2.028,-1.437c-0.53,-0.617 -0.914,-1.348 -1.155,-2.196c-0.238,-0.846 -0.358,-1.775 -0.358,-2.784Z" style="fill:#00aeef;fill-rule:nonzero;"/><path d="M134.258,55.122c0.257,0.085 0.637,0.167 1.143,0.243c0.503,0.078 1.167,0.117 1.989,0.117c1.437,0 2.592,-0.467 3.465,-1.4c0.873,-0.932 1.31,-2.272 1.31,-4.018c0,-0.735 -0.077,-1.432 -0.231,-2.091c-0.155,-0.659 -0.403,-1.233 -0.746,-1.72c-0.341,-0.488 -0.79,-0.877 -1.347,-1.169c-0.557,-0.29 -1.245,-0.435 -2.067,-0.435c-0.393,0 -0.769,0.038 -1.128,0.114c-0.36,0.078 -0.693,0.177 -1.002,0.296c-0.309,0.12 -0.577,0.249 -0.808,0.385c-0.231,0.138 -0.425,0.265 -0.578,0.385l0,9.293Zm0,-10.911c0.291,-0.221 0.758,-0.457 1.398,-0.705c0.642,-0.248 1.4,-0.372 2.273,-0.372c0.959,0 1.81,0.17 2.554,0.513c0.744,0.343 1.374,0.822 1.887,1.437c0.513,0.617 0.902,1.349 1.167,2.196c0.266,0.846 0.399,1.775 0.399,2.784c0,1.08 -0.158,2.045 -0.475,2.901c-0.317,0.856 -0.762,1.583 -1.334,2.183c-0.574,0.599 -1.258,1.056 -2.055,1.373c-0.795,0.316 -1.681,0.476 -2.656,0.476c-1.181,0 -2.157,-0.078 -2.927,-0.231c-0.771,-0.156 -1.403,-0.317 -1.899,-0.489l0,-19.202l1.668,-0.307l0,7.443Z" style="fill:#00aeef;fill-rule:nonzero;"/><rect x="151.715" y="36.588" width="1.59" height="24.849" style="fill:#00aeef;fill-rule:nonzero;"/><path d="M163.548,54.3c0.153,0.121 0.347,0.248 0.578,0.386c0.231,0.137 0.499,0.265 0.808,0.385c0.308,0.119 0.642,0.218 1.001,0.294c0.36,0.078 0.735,0.117 1.129,0.117c0.822,0 1.51,-0.141 2.067,-0.424c0.557,-0.282 1.006,-0.668 1.347,-1.155c0.343,-0.488 0.591,-1.062 0.746,-1.721c0.154,-0.659 0.231,-1.355 0.231,-2.091c0,-1.746 -0.437,-3.086 -1.31,-4.018c-0.873,-0.933 -2.028,-1.4 -3.465,-1.4c-0.822,0 -1.486,0.039 -1.99,0.117c-0.505,0.077 -0.885,0.158 -1.142,0.243l0,9.267Zm0,7.137l-1.669,0l0,-17.559c0.497,-0.171 1.129,-0.333 1.9,-0.487c0.77,-0.155 1.746,-0.232 2.927,-0.232c0.975,0 1.861,0.159 2.656,0.476c0.797,0.316 1.481,0.773 2.054,1.373c0.572,0.599 1.017,1.326 1.335,2.182c0.317,0.856 0.475,1.822 0.475,2.901c0,1.009 -0.134,1.938 -0.399,2.784c-0.265,0.848 -0.654,1.576 -1.167,2.183c-0.513,0.608 -1.143,1.083 -1.887,1.425c-0.744,0.341 -1.596,0.514 -2.554,0.514c-0.873,0 -1.631,-0.126 -2.273,-0.373c-0.64,-0.248 -1.107,-0.483 -1.398,-0.707l0,5.52Z" style="fill:#00aeef;fill-rule:nonzero;"/><path d="M180.336,43.159c0.547,0 1.065,0.043 1.554,0.128c0.487,0.087 0.825,0.172 1.014,0.258l-0.335,1.437c-0.137,-0.068 -0.414,-0.141 -0.834,-0.219c-0.419,-0.076 -0.971,-0.114 -1.656,-0.114c-0.718,0 -1.296,0.051 -1.732,0.153c-0.437,0.102 -0.724,0.189 -0.861,0.257l0,11.629l-1.668,0l0,-12.656c0.428,-0.188 1.017,-0.38 1.771,-0.577c0.753,-0.197 1.67,-0.296 2.747,-0.296Z" style="fill:#00aeef;fill-rule:nonzero;"/><path d="M186.061,56.688l-1.669,0l0,-13.272l1.669,0l0,13.272Zm0.384,-17.277c0,0.394 -0.119,0.706 -0.358,0.938c-0.24,0.231 -0.532,0.346 -0.873,0.346c-0.343,0 -0.634,-0.115 -0.873,-0.346c-0.24,-0.232 -0.36,-0.544 -0.36,-0.938c0,-0.394 0.12,-0.705 0.36,-0.936c0.239,-0.231 0.53,-0.348 0.873,-0.348c0.341,0 0.633,0.117 0.873,0.348c0.239,0.231 0.358,0.542 0.358,0.936Z" style="fill:#00aeef;fill-rule:nonzero;"/><path d="M189.45,43.878c0.496,-0.136 1.163,-0.29 2.001,-0.462c0.839,-0.171 1.866,-0.257 3.081,-0.257c1.01,0 1.853,0.145 2.529,0.437c0.676,0.291 1.216,0.705 1.617,1.245c0.402,0.539 0.689,1.184 0.861,1.938c0.17,0.753 0.256,1.583 0.256,2.49l0,7.419l-1.669,0l0,-6.879c0,-0.942 -0.063,-1.737 -0.192,-2.388c-0.129,-0.65 -0.343,-1.182 -0.642,-1.592c-0.299,-0.41 -0.693,-0.706 -1.181,-0.886c-0.487,-0.18 -1.1,-0.27 -1.835,-0.27c-0.787,0 -1.468,0.044 -2.042,0.129c-0.573,0.085 -0.945,0.163 -1.116,0.231l0,11.655l-1.668,0l0,-12.81Z" style="fill:#00aeef;fill-rule:nonzero;"/><path d="M204.595,43.416l5.288,0l0,1.412l-5.288,0l0,7.06c0,0.753 0.063,1.364 0.192,1.835c0.129,0.47 0.312,0.835 0.552,1.09c0.239,0.258 0.53,0.428 0.873,0.514c0.343,0.087 0.719,0.128 1.129,0.128c0.702,0 1.266,-0.08 1.694,-0.243c0.428,-0.163 0.762,-0.312 1.002,-0.45l0.411,1.386c-0.241,0.155 -0.659,0.331 -1.258,0.528c-0.6,0.195 -1.249,0.294 -1.952,0.294c-0.821,0 -1.51,-0.107 -2.066,-0.321c-0.556,-0.214 -1,-0.539 -1.335,-0.975c-0.334,-0.436 -0.569,-0.98 -0.706,-1.63c-0.136,-0.651 -0.205,-1.42 -0.205,-2.31l0,-12.221l1.669,-0.307l0,4.21Z" style="fill:#00aeef;fill-rule:nonzero;"/><path d="M20.78,20.705c-0.983,1.277 -2.27,2.027 -3.887,2.217c-0.571,0.078 -0.87,-0.187 -0.894,-0.774c-0.032,-0.618 0.241,-0.956 0.809,-1.014c1.166,-0.121 2.098,-0.634 2.815,-1.537c0.695,-0.885 1.013,-1.932 0.955,-3.137l-0.252,-5.136c-0.059,-1.205 -0.475,-2.234 -1.261,-3.102c-0.796,-0.887 -1.772,-1.365 -2.942,-1.442c-0.567,-0.036 -0.87,-0.343 -0.894,-0.921c-0.031,-0.61 0.241,-0.891 0.812,-0.847c1.626,0.135 2.975,0.827 4.071,2.06c1.066,1.197 1.632,2.613 1.714,4.268l0.253,5.031c0.077,1.653 -0.346,3.095 -1.299,4.334Zm-8.837,-1.542c-0.629,0.047 -0.963,-0.238 -0.998,-0.863c-0.024,-0.646 0.279,-0.989 0.917,-1.024c0.599,-0.031 0.913,0.27 0.944,0.907c0.029,0.606 -0.252,0.936 -0.863,0.98Zm-1.348,-8.697c-0.031,-0.657 0.272,-0.976 0.91,-0.956c0.602,0.015 0.916,0.35 0.949,0.987c0.022,0.615 -0.257,0.918 -0.856,0.914c-0.637,-0.009 -0.972,-0.323 -1.003,-0.945Zm14.334,10.124l0,-0.032l-0.003,-0.043l0,-0.031l-0.009,-0.031l0,-0.008l0,-0.027l0,-0.038l0,-0.036l0,-0.035l-0.668,-13.257l0,-0.04l-0.009,-0.038l-0.004,-0.031l-0.003,-0.03l0,-0.036l0,-0.031l-0.004,-0.039l-0.004,-0.034l0,-0.035l-0.007,-0.036l0,-0.031l-0.009,-0.039l-0.007,-0.031l0,-0.036l-0.008,-0.033l-0.004,-0.04l-0.003,-0.026l0,-0.04l-0.009,-0.031l-0.004,-0.031l-0.003,-0.04l-0.008,-0.033l-0.007,-0.031l0,-0.04l-0.013,-0.031l-0.003,-0.031l-0.013,-0.039l-0.002,-0.031l-0.009,-0.031l-0.004,-0.036l-0.011,-0.031l-0.009,-0.034l-0.003,-0.035l-0.008,-0.035l-0.004,-0.035l-0.012,-0.031l-0.011,-0.031l-0.008,-0.031l-0.007,-0.036l-0.009,-0.035l-0.007,-0.031l-0.008,-0.035l-0.011,-0.034l-0.008,-0.028l-0.008,-0.034l-0.011,-0.032l-0.009,-0.027l-0.015,-0.043l-0.007,-0.031l-0.016,-0.031l-0.004,-0.031l-0.011,-0.035l-0.009,-0.027l-0.011,-0.035l-0.016,-0.031l-0.008,-0.035l-0.016,-0.031l-0.004,-0.027l-0.016,-0.035l-0.011,-0.036l-0.011,-0.031l-0.011,-0.026l-0.02,-0.036l-0.008,-0.028l-0.016,-0.031l-0.011,-0.034l-0.011,-0.032l-0.016,-0.031l-0.008,-0.031l-0.016,-0.031l-0.016,-0.035l-0.011,-0.027l-0.015,-0.027l-0.016,-0.031l-0.011,-0.035l-0.016,-0.027l-0.015,-0.031l-0.015,-0.028l-0.018,-0.034l-0.006,-0.028l-0.016,-0.031l-0.024,-0.031l-0.007,-0.031l-0.02,-0.027l-0.015,-0.035l-0.016,-0.027l-0.015,-0.031l-0.016,-0.024l-0.015,-0.035l-0.02,-0.027l-0.016,-0.031l-0.015,-0.024l-0.016,-0.038l-0.022,-0.024l-0.017,-0.031l-0.016,-0.027l-0.015,-0.031l-0.018,-0.024l-0.016,-0.035l-0.02,-0.027l-0.015,-0.027l-0.016,-0.027l-0.024,-0.028l-0.015,-0.027l-0.02,-0.031l-0.016,-0.024l-0.018,-0.031l-0.024,-0.031l-0.015,-0.027l-0.016,-0.024l-0.024,-0.031l-0.015,-0.026l-0.023,-0.023l-0.02,-0.028l-0.015,-0.035l-0.027,-0.019l-0.015,-0.031l-0.024,-0.024l-0.016,-0.026l-0.022,-0.032l-0.016,-0.023l-0.024,-0.027l-0.02,-0.024l-0.019,-0.023l-0.008,-0.008l-0.015,-0.02l-0.024,-0.031l-0.023,-0.023l-0.015,-0.026l-0.024,-0.024l-0.022,-0.027l-0.024,-0.028l-0.016,-0.019l-0.023,-0.028l-0.028,-0.022l-0.018,-0.024l-0.024,-0.027l-0.024,-0.027l-0.023,-0.024l-0.024,-0.024l-0.022,-0.027l-0.02,-0.019l-0.027,-0.027l-0.024,-0.023l-0.015,-0.024l-0.027,-0.024l-0.027,-0.018l-0.024,-0.024l-0.024,-0.027l-0.022,-0.024l-0.024,-0.018l-0.019,-0.024l-0.028,-0.024l-0.022,-0.023l-0.031,-0.019l-0.02,-0.023l-0.027,-0.024l-0.024,-0.027l-0.022,-0.019l-0.024,-0.02l-0.032,-0.023l-0.023,-0.024l-0.027,-0.015l-0.02,-0.027l-0.031,-0.02l-0.022,-0.019l-0.029,-0.02l-0.022,-0.019l-0.027,-0.023l-0.028,-0.023l-0.031,-0.017l-0.023,-0.023l-0.028,-0.019l-0.023,-0.02l-0.031,-0.018l-0.023,-0.02l-0.032,-0.02l-0.022,-0.02l-0.031,-0.019l-0.024,-0.016l-0.023,-0.022l-0.032,-0.02l-0.031,-0.016l-0.023,-0.015l-0.026,-0.02l-0.031,-0.02l-0.029,-0.018l-0.022,-0.015l-0.031,-0.02l-0.031,-0.016l-0.024,-0.019l-0.031,-0.02l-0.031,-0.012l-0.024,-0.015l-0.031,-0.02l-0.031,-0.015l-0.023,-0.016l-0.031,-0.02l-0.028,-0.015l-0.031,-0.015l-0.027,-0.016l-0.031,-0.015l-0.031,-0.016l-0.031,-0.011l-0.031,-0.016l-0.024,-0.015l-0.031,-0.012l-0.031,-0.015l-0.031,-0.016l-0.031,-0.015l-0.031,-0.009l-0.024,-0.019l-0.038,-0.012l-0.024,-0.011l-0.031,-0.015l-0.031,-0.009l-0.027,-0.015l-0.039,-0.016l-0.023,-0.011l-0.035,-0.011l-0.031,-0.013l-0.031,-0.016l-0.031,-0.011l-0.036,-0.008l-0.026,-0.012l-0.031,-0.011l-0.033,-0.009l-0.031,-0.011l-0.031,-0.011l-0.031,-0.011l-0.034,-0.009l-0.032,-0.011l-0.031,-0.009l-0.034,-0.011l-0.024,-0.008l-0.039,-0.011l-0.032,-0.005l-0.03,-0.015l-0.034,-0.003l-0.029,-0.008l-0.038,-0.008l-0.031,-0.012l-0.031,-0.003l-0.032,-0.009l-0.034,-0.007l-0.035,-0.008l-0.031,0l-0.036,-0.011l-0.035,-0.009l-0.027,-0.003l-0.039,-0.012l-0.034,0l-0.032,-0.007l-0.031,-0.005l-0.038,-0.004l-0.031,-0.004l-0.031,-0.003l-7.131,-0.957l-0.035,-0.003l-0.043,-0.004l-0.03,-0.004l-0.047,-0.008l-0.009,0l-0.031,0l-0.038,-0.004l-0.039,-0.008l-0.039,0l-0.008,0l-0.035,-0.007l-0.035,0l-0.042,0l-0.036,0l-0.007,0l-0.008,0l-0.031,-0.009l-0.038,-0.003l-0.035,0l-0.04,0l-0.004,0l-0.012,0l-0.026,0l-0.036,0l-0.035,0l-0.042,0l-0.004,0l-0.016,0l-0.02,0l-0.038,0l-0.039,0l-0.038,0l-0.004,0l-0.02,0l-0.011,0l-0.04,0l-0.042,0l-0.036,0.003l-0.007,0l-0.019,0l-0.013,0l-0.038,0.009l-0.04,0l-0.033,0l-0.005,0l-0.028,0l-0.011,0.007l-0.035,0l-0.038,0l-0.036,0.008l-0.004,0l-0.035,0.004l-0.038,0.008l-0.04,0l-0.035,0.004l-0.003,0l-0.031,0.004l-0.043,0.003l-0.036,0.008l-0.031,0.004l-0.046,0.003l-0.031,0.013l-0.038,0.003l-0.032,0.008l-0.054,0.004l-0.027,0.012l-0.04,0.008l-0.026,0l-0.056,0.016l-0.022,0.002l-0.035,0.009l-0.027,0.007l-0.071,0.016l-0.015,0.004l-0.031,0.008l-0.027,0.007l-0.059,0.02l-0.023,0l-0.039,0.016l-0.023,0.004l-0.07,0.022l-0.011,0l-0.036,0.013l-0.024,0.007l-0.065,0.024l-0.019,0.007l-0.031,0.004l-0.016,0.007l-0.079,0.029l-0.011,0.007l-0.038,0.015l-0.013,0.004l-0.077,0.027l-0.012,0.004l-0.035,0.016l-0.015,0.011l-0.063,0.024l-0.024,0.004l-0.03,0.023l-0.016,0l-0.065,0.031l-0.02,0.004l-0.035,0.02l-0.011,0.011l-0.064,0.02l-0.022,0.02l-0.04,0.015l-0.015,0.007l-0.047,0.027l-0.031,0.017l-0.031,0.018l-0.02,0.013l-0.038,0.018l-0.004,0.004l-0.035,0.016l-0.027,0.02l-0.031,0.011l-0.024,0.02l-0.007,0.004l-0.031,0.02l-0.035,0.022l-1.155,0.704l-4.848,2.962l-0.026,0.012l-0.016,0.015l-0.024,0.016l-0.011,0.008l-0.029,0.016l-0.026,0.015l-0.023,0.016l-0.004,0.004l-0.009,0.004l-0.015,0.007l-0.027,0.02l-0.019,0.02l-0.032,0.015l-0.007,0.007l-0.015,0.012l-0.024,0.019l-0.031,0.012l-0.024,0.024l0,0.004l-0.023,0.015l-0.024,0.02l-0.026,0.018l-0.023,0.016l0,0.004l-0.004,0l-0.024,0.016l-0.023,0.019l-0.024,0.016l-0.026,0.024l-0.02,0.023l-0.023,0.015l-0.02,0.02l-0.028,0.022l-0.022,0.02l-0.024,0.02l-0.023,0.019l-0.024,0.023l-0.004,0l-0.016,0.02l-0.026,0.024l-0.02,0.022l-0.018,0.016l-0.024,0.024l-0.023,0.022l-0.024,0.02l-0.02,0.024l-0.004,0.003l-0.018,0.015l-0.02,0.024l-0.02,0.027l-0.022,0.024l-0.005,0l-0.004,0.004l-0.011,0.016l-0.024,0.018l-0.023,0.028l-0.012,0.016l-0.018,0.015l-0.009,0.016l-0.023,0.02l-0.015,0.027l-0.016,0.015l-0.017,0.027l-0.011,0.004l-0.015,0.024l-0.02,0.023l-0.011,0.011l-0.027,0.031l0,0.008l-0.02,0.023l-0.015,0.028l-0.004,0.007l-0.039,0.044l-0.015,0.022l-0.016,0.024l-0.004,0.007l-0.039,0.055l-0.012,0.02l-0.019,0.018l0,0.005l-0.043,0.062l-0.008,0.011l-0.016,0.028l-0.046,0.073l0,0.009l-0.007,0.003c-0.234,0.389 -0.405,0.816 -0.509,1.265l-0.005,0.011l-0.008,0.022l-0.016,0.086l0,0.02l-0.015,0.027l0,0.009l-0.007,0.066l-0.008,0.022l-0.005,0.035l0,0.008l-0.011,0.055l0,0.004l-0.004,0.027l-0.003,0.039l0,0.016l-0.009,0.038l0,0.039l-0.007,0.035l0,0.016l-0.008,0.027l0,0.053l-0.007,0.033l0,0.069l-0.009,0.035l0,0.07l-0.004,0.027l0,0.339l0.004,0.038l0.538,12.993l0,0.067l0.007,0.035l0,0.069l0.008,0.035l0,0.071l0.007,0.034l0,0.028l0.009,0.038l0,0.039l0.007,0.027l0.004,0.035l0.004,0.036l0,0.015l0.007,0.027l0,0.02l0.009,0.038l0.007,0.028l0.004,0.015l0.004,0.036l0.007,0.015l0,0.031l0.009,0.034l0,0.008l0.015,0.051l0,0.005l0.007,0.031l0.004,0.038l0.005,0.004l0.015,0.058l0.007,0.031l0.005,0.015l0.024,0.098l0.002,0.015l0.005,0.013l0.035,0.115c0.159,0.495 0.396,0.949 0.692,1.35l0.016,0.019l0.004,0.005l0.049,0.073l0.024,0.024l0.007,0.015l0.048,0.058l0,0.005l0.023,0.022l0.015,0.02l0.04,0.042l0.007,0.013l0.02,0.015l0.024,0.031l0.026,0.032l0.012,0.019l0.026,0.018l0.016,0.024l0.008,0.005l0.023,0.031l0.015,0.007l0.024,0.028l0.02,0.023l0.012,0.011l0.011,0.008l0.019,0.023l0.024,0.02l0.023,0.028l0.016,0.011l0.008,0.011l0.022,0.016l0.029,0.024l0.018,0.022l0.024,0.016l0.004,0.004l0.02,0.023l0.023,0.019l0.024,0.02l0.022,0.02l0.004,0.004l0.027,0.018l0.024,0.024l0.023,0.02l0.046,0.038l0.024,0.02l0.027,0.024l0.027,0.015l0.024,0.016l0.024,0.018l0.022,0.02l0.024,0.02l0.031,0.019l0.031,0.023l0.016,0.015l0.027,0.009l0.004,0.007l0.027,0.016l0.026,0.019l0.028,0.02l0.027,0.02l0.024,0.011l0.023,0.024l0.031,0.011l0.02,0.016l0.011,0l0.02,0.02l0.035,0.018l0.023,0.017l0.03,0.011l0.024,0.016l0.024,0.019l0.034,0.012l0.005,0.007l0.03,0.013l0.02,0.011l0.027,0.019l0.031,0.012l0.008,0.007l0.023,0.008l0.024,0.016l0.027,0.015l0.031,0.011l0.004,0.005l0.031,0.011l0.024,0.016l0.023,0.012l0.035,0.016l0.035,0.011l0.02,0.011l0.031,0.012l0.027,0.012l0.042,0.02l0.02,0.011l0.031,0.007l0.024,0.013l0.046,0.016l0.02,0.006l0.027,0.012l0.022,0.008l0.06,0.024l0.004,0l0.034,0.016l0.028,0.007l0.046,0.015l0.019,0.005l0.028,0.015l0.031,0.004l0.038,0.016l0.024,0.007l0.031,0.008l0.02,0.007l0.058,0.012l0.015,0.008l0.031,0.004l0.024,0.007l0.031,0.013l1.24,0.326l5.217,1.385l0.012,0l0.082,0.026l0.016,0l0.042,0.011l0.004,0.005l0.089,0.019l0.016,0.005l0.035,0.003l0.02,0l0.077,0.019l0.011,0.005l0.04,0.007l0.02,0l0.069,0.015l0.024,0.004l0.038,0.009l0.024,0l0.058,0.007l0.028,0.008l0.038,0.007l0.039,0.005l0.051,0.004l0.027,0.003l0.038,0.004l0.039,0.004l0.043,0l0.035,0.009l0.04,0l0.037,0.003l0,0.004l0.078,0l0.04,0.004l0.039,0.004l0.505,0l0.039,-0.004l0.034,-0.004l0.082,0l0.039,-0.004l0.038,-0.003l0.04,-0.005l0.024,-0.004l0.058,0l0.035,-0.008l0.038,-0.003l0.031,0l0.009,-0.004l0.004,0l0.033,-0.005l0.044,0l0.036,-0.015l0.042,0l0.042,-0.007l0.035,-0.005l0.043,-0.008l0.039,-0.007l7.091,-1.217l0.04,-0.008l0.031,-0.007l0.038,-0.005l0.031,-0.007l0.031,-0.004l0.031,-0.008l0.031,-0.007l0.031,-0.005l0.004,-0.004l0.036,-0.002l0.026,-0.013l0.035,-0.007l0.032,-0.009l0.03,-0.011l0.032,-0.004l0.039,-0.007l0.023,-0.009l0.008,-0.004l0.031,-0.007l0.031,-0.011l0.039,-0.013l0.023,-0.007l0.031,-0.011l0.031,-0.009l0.04,-0.011l0.022,-0.012l0.04,-0.012l0.031,-0.007l0.031,-0.013l0.031,-0.016l0.031,-0.011l0.031,-0.011l0.031,-0.008l0.024,-0.016l0.031,-0.011l0.035,-0.016l0.027,-0.008l0.031,-0.014l0.031,-0.013l0.031,-0.011l0.031,-0.016l0.024,-0.015l0.035,-0.012l0.027,-0.015l0.027,-0.013l0.031,-0.018l0.035,-0.013l0.027,-0.011l0.028,-0.02l0.023,-0.015l0.039,-0.02l0.023,-0.015l0.031,-0.012l0.023,-0.02l0.032,-0.011l0.031,-0.02l0.026,-0.019l0.029,-0.012l0.026,-0.019l0.027,-0.012l0.024,-0.019l0.035,-0.019l0.027,-0.015l0.023,-0.02l0.024,-0.02l0.031,-0.02l0.031,-0.015l0.031,-0.02l0.024,-0.018l0.022,-0.013l0.024,-0.019l0.031,-0.023l0.023,-0.015l0.031,-0.024l0.024,-0.016l0.027,-0.022l0.028,-0.02l0.027,-0.02l0.019,-0.023l0.032,-0.019l0.026,-0.016l0.02,-0.024l0.027,-0.022l0.026,-0.02l0.024,-0.02l0.024,-0.019l0.023,-0.023l0.024,-0.024l0.027,-0.018l0.022,-0.02l0.02,-0.02l0.028,-0.024l0.027,-0.023l0.023,-0.024l0.024,-0.022l0.022,-0.02l0.024,-0.024l0.024,-0.022l0.023,-0.02l0.024,-0.027l0.022,-0.024l0.024,-0.022l0.023,-0.024l0.024,-0.023l0.019,-0.02l0.019,-0.026l0.024,-0.029l0.022,-0.022l0.016,-0.028l0.028,-0.019l0.027,-0.024l0.015,-0.022l0.024,-0.029l0.019,-0.022l0.019,-0.028l0.024,-0.027l0.023,-0.02l0.015,-0.026l0.024,-0.023l0.02,-0.033l0.018,-0.026l0.024,-0.02l0.016,-0.023l0.024,-0.03l0.016,-0.029l0.022,-0.022l0.024,-0.024l0.015,-0.031l0.016,-0.027l0.023,-0.023l0.015,-0.028l0.024,-0.027l0.02,-0.031l0.011,-0.02l0,-0.006l0.022,-0.024l0.016,-0.027l0.02,-0.031l0.015,-0.024l0.024,-0.031l0.016,-0.024l0.015,-0.027l0.02,-0.031l0.016,-0.027l0.019,-0.027l0.016,-0.028l0.018,-0.031l0.016,-0.031l0.015,-0.027l0.016,-0.027l0.015,-0.028l0.02,-0.031l0.013,-0.022l0.018,-0.036l0.013,-0.026l0.018,-0.028l0.013,-0.032l0.015,-0.026l0.018,-0.031l0.013,-0.029l0.016,-0.031l0.015,-0.03l0.016,-0.032l0.007,-0.027l0.019,-0.03l0.016,-0.027l0.011,-0.031l0.016,-0.035l0.016,-0.027l0.012,-0.033l0.012,-0.026l0.015,-0.032l0.015,-0.031l0.009,-0.03l0.007,-0.027l0.015,-0.031l0.016,-0.036l0.008,-0.028l0.019,-0.034l0.012,-0.031l0.007,-0.028l0.016,-0.034l0.013,-0.035l0.007,-0.031l0.011,-0.031l0.009,-0.028l0.006,-0.035l0.016,-0.027l0.008,-0.035l0.016,-0.032l0.007,-0.035l0.008,-0.031l0.016,-0.027l0.007,-0.035l0.009,-0.035l0.008,-0.027l0.015,-0.035l0.007,-0.031l0.009,-0.031l0.007,-0.035l0.004,-0.031l0.012,-0.034l0.008,-0.036l0.007,-0.031l0.009,-0.03l0.007,-0.036l0.008,-0.031l0.007,-0.035l0.008,-0.027l0.003,-0.039l0.013,-0.031l0.007,-0.036l0.004,-0.031l0.009,-0.035l0.003,-0.034l0.008,-0.032l0.007,-0.034l0,-0.031l0.013,-0.035l0.003,-0.036l0.008,-0.026l0.004,-0.04l0.003,-0.031l0,-0.039l0.008,-0.031l0.005,-0.034l0.007,-0.035l0.004,-0.031l0,-0.032l0,-0.039l0.007,-0.031l0.009,-0.04l0,-0.03l0,-0.032l0.007,-0.037l0,-0.032l0.004,-0.039l0.004,-0.031l0,-0.035l0,-0.038l0,-0.031l0,-0.04l0,-0.031l0,-0.031l0.009,-0.042l0,-0.031l0.003,-0.04l0,-0.031l0,-0.035l0,-0.031l0,-0.038Z" style="fill:#00aeef;fill-rule:nonzero;"/><path d="M30.271,23.477l4.229,0l0,-12.57l2.919,0l0,-2.829l-2.919,0l0,-0.923c0,-1.281 0.477,-1.758 1.609,-1.758c0.536,0 1.042,0.03 1.549,0.09l0,-3.158c-0.715,-0.029 -1.49,-0.119 -2.234,-0.119c-3.455,0 -5.153,1.966 -5.153,4.676l0,1.192l-2.532,0l0,2.829l2.532,0l0,12.57Zm17.394,-5.957c0,0.923 -0.119,3.544 -3.425,3.544c-1.37,0 -2.591,-0.387 -2.591,-1.966c0,-1.548 1.191,-1.995 2.502,-2.263c1.31,-0.239 2.8,-0.268 3.514,-0.894l0,1.579Zm-5.54,-4.706c0.149,-1.668 1.192,-2.324 2.8,-2.324c1.489,0 2.74,0.269 2.74,2.085c0,1.728 -2.412,1.639 -5.004,2.026c-2.621,0.357 -5.242,1.191 -5.242,4.676c0,3.157 2.324,4.617 5.242,4.617c1.877,0 3.843,-0.507 5.183,-1.906c0.03,0.506 0.149,1.012 0.298,1.489l4.289,0c-0.387,-0.626 -0.536,-2.026 -0.536,-3.425l0,-8.013c0,-3.693 -3.693,-4.378 -6.761,-4.378c-3.455,0 -7,1.191 -7.238,5.153l4.229,0Zm26.479,0.685c-0.268,-3.932 -3.604,-5.838 -7.237,-5.838c-5.004,0 -7.864,3.544 -7.864,8.34c0,4.616 3.128,7.893 7.774,7.893c4.051,0 6.881,-2.234 7.417,-6.315l-4.081,0c-0.268,1.877 -1.4,3.128 -3.366,3.128c-2.65,0 -3.514,-2.651 -3.514,-4.855c0,-2.264 0.893,-5.004 3.604,-5.004c1.757,0 2.859,0.923 3.127,2.651l4.14,0Zm15.876,3.306c0.298,-4.736 -2.234,-9.144 -7.476,-9.144c-4.676,0 -7.863,3.515 -7.863,8.131c0,4.766 3.008,8.102 7.863,8.102c3.485,0 6.017,-1.549 7.208,-5.183l-3.723,0c-0.268,0.953 -1.638,1.996 -3.336,1.996c-2.353,0 -3.663,-1.221 -3.783,-3.902l11.11,0Zm-11.11,-2.681c0.06,-1.191 0.834,-3.276 3.515,-3.276c2.055,0 2.979,1.132 3.366,3.276l-6.881,0Z" style="fill:#00aeef;fill-rule:nonzero;"/><path d="M85.97,23.477l1.876,0l0,-8.578c0.03,-3.217 1.34,-5.659 4.587,-5.659c2.383,0 3.247,1.727 3.217,3.812l0,10.425l1.876,0l0,-8.697c0,-2.86 0.924,-5.54 4.17,-5.54c2.681,0 3.634,1.37 3.634,3.901l0,10.336l1.876,0l0,-10.425c0,-3.634 -1.727,-5.391 -5.093,-5.391c-2.025,0 -3.961,0.983 -4.885,3.008c-0.566,-2.025 -2.382,-3.008 -4.408,-3.008c-2.442,0 -4.051,1.191 -5.034,3.038l-0.089,0l0,-2.591l-1.727,0l0,15.369Zm36.546,-7.178c0.149,-4.319 -1.817,-8.638 -6.761,-8.638c-4.885,0 -6.94,4.08 -6.94,8.131c0,4.379 2.055,8.132 6.94,8.132c3.872,0 5.897,-2.026 6.701,-5.511l-1.876,0c-0.596,2.324 -2.085,3.932 -4.825,3.932c-3.604,0 -5.034,-3.306 -5.064,-6.046l11.825,0Zm-11.825,-1.579c0.298,-2.8 1.995,-5.48 5.064,-5.48c3.038,0 4.795,2.65 4.884,5.48l-9.948,0Zm14.386,1.072c0,-3.187 1.46,-6.552 5.034,-6.552c3.991,0 5.392,3.365 5.392,6.552c0,3.187 -1.401,6.553 -5.392,6.553c-3.574,0 -5.034,-3.366 -5.034,-6.553Zm12.302,-13.582l-1.876,0l0,8.817l-0.061,0c-0.804,-2.204 -3.037,-3.366 -5.331,-3.366c-4.677,0 -6.91,3.783 -6.91,8.131c0,4.349 2.233,8.132 6.91,8.132c2.234,0 4.677,-1.371 5.481,-3.366l0.059,0l0,2.919l1.728,0l0,-21.267Zm2.413,21.267l1.876,0l0,-15.369l-1.876,0l0,15.369Zm0,-18.258l1.876,0l0,-3.009l-1.876,0l0,3.009Zm14.118,12.301c0.03,3.008 -2.502,4.825 -5.361,4.825c-1.757,0 -3.425,-1.162 -3.425,-3.038c0,-3.008 3.961,-2.979 7.148,-3.545c0.506,-0.089 1.34,-0.238 1.578,-0.685l0.06,0l0,2.443Zm-8.132,-4.706c0.061,-2.502 1.787,-3.574 4.111,-3.574c2.204,0 4.021,0.625 4.021,3.157c0,1.698 -0.864,1.906 -2.413,2.085c-4.051,0.476 -8.25,0.625 -8.25,4.944c0,3.098 2.323,4.498 5.152,4.498c2.949,0 4.289,-1.132 5.6,-3.128l0.06,0c0,1.609 0.297,2.681 2.204,2.681c0.506,0 0.804,-0.03 1.221,-0.119l0,-1.579c-0.149,0.06 -0.388,0.119 -0.596,0.119c-0.745,0 -1.102,-0.417 -1.102,-1.132l0,-8.161c0,-4.11 -2.948,-4.944 -5.658,-4.944c-3.516,0 -6.047,1.549 -6.226,5.153l1.876,0Zm18.736,8.906c-3.455,0 -5.064,-3.009 -5.064,-6.106c0,-3.187 1.49,-6.374 5.064,-6.374c3.544,0 4.944,3.365 4.944,6.374c0,3.127 -1.697,6.106 -4.944,6.106Zm6.821,-13.612l-1.877,0l0,2.651l-0.059,0c-0.745,-1.698 -2.651,-3.098 -4.885,-3.098c-4.438,0 -6.94,3.515 -6.94,7.744c0,4.378 2.025,7.893 6.94,7.893c2.204,0 4.021,-1.281 4.885,-3.157l0.059,0l0,2.085c0,3.753 -1.488,5.808 -4.944,5.808c-2.085,0 -4.081,-0.804 -4.498,-3.068l-1.877,0c0.269,3.276 3.307,4.647 6.375,4.647c5.034,0 6.791,-2.8 6.821,-7.387l0,-14.118Zm2.383,15.369l1.877,0l0,-8.191c0,-3.187 2.322,-5.689 5.718,-5.51l0,-1.877c-2.77,-0.119 -4.855,1.341 -5.808,3.813l-0.06,0l0,-3.604l-1.727,0l0,15.369Zm14.147,-15.816c-4.706,0 -7.268,3.723 -7.268,8.131c0,4.408 2.562,8.132 7.268,8.132c4.706,0 7.268,-3.724 7.268,-8.132c0,-4.408 -2.562,-8.131 -7.268,-8.131Zm0,1.579c3.605,0 5.392,3.276 5.392,6.552c0,3.277 -1.787,6.553 -5.392,6.553c-3.604,0 -5.392,-3.276 -5.392,-6.553c0,-3.276 1.788,-6.552 5.392,-6.552Zm21.326,-1.132l-1.876,0l0,8.071c0,3.128 -1.4,6.166 -4.617,6.166c-2.978,0 -4.021,-1.459 -4.11,-4.23l0,-10.007l-1.876,0l0,9.978c0,3.574 1.518,5.838 5.39,5.838c2.293,0 4.319,-1.162 5.302,-3.217l0.06,0l0,2.77l1.727,0l0,-15.369Zm14.654,7.684c0,3.187 -1.459,6.553 -5.034,6.553c-3.991,0 -5.39,-3.366 -5.39,-6.553c0,-3.485 1.25,-6.552 5.39,-6.552c3.575,0 5.034,3.365 5.034,6.552Zm-12.301,13.374l1.877,0l0,-8.608l0.058,0c0.805,2.204 3.039,3.366 5.332,3.366c4.676,0 6.91,-3.783 6.91,-8.132c0,-4.348 -2.234,-8.131 -6.91,-8.131c-2.472,0 -4.617,1.281 -5.48,3.366l-0.06,0l0,-2.919l-1.727,0l0,21.058Z" style="fill:#00aeef;fill-rule:nonzero;"/></svg>