<?xml version="1.0" encoding="UTF-8" standalone="no"?><!DOCTYPE svg PUBLIC "-//W3C//DTD SVG 1.1//EN" "http://www.w3.org/Graphics/SVG/1.1/DTD/svg11.dtd"><svg width="100%" height="100%" viewBox="0 0 384 143" version="1.1" xmlns="http://www.w3.org/2000/svg" xmlns:xlink="http://www.w3.org/1999/xlink" xml:space="preserve" style="fill-rule:evenodd;clip-rule:evenodd;stroke-linejoin:round;stroke-miterlimit:1.41421;"><g id="Layer-1"><path d="M275.434,0l0,55.42l22.976,-17.848c-0.512,-1.658 -0.866,-3.39 -0.866,-5.214c0,-9.787 7.931,-17.72 17.717,-17.72c9.788,0 17.717,7.933 17.717,17.72c0,7.89 -5.193,14.501 -12.323,16.798c0.139,10.265 0.293,21.365 0.413,29.84c4.646,1.058 8.575,3.941 11.038,7.863c10.099,-4.068 24.328,-9.8 35.393,-14.254c0,-0.053 -0.012,-0.1 -0.012,-0.147c0,-9.321 7.223,-16.878 16.364,-17.584l0,-54.874l-108.417,0Zm94.668,81.606l-35.3,14.215c0.007,0.147 0.046,0.28 0.046,0.419c0,4.727 -1.883,9.002 -4.898,12.177l53.901,0l0,-18.375c-5.846,-0.453 -10.866,-3.689 -13.749,-8.436m-66.658,-36.132c-8.143,6.324 -19.322,15.014 -28.01,21.758l0,41.185l28.875,0c-3.022,-3.175 -4.9,-7.45 -4.9,-12.177c0,-7.897 5.2,-14.508 12.338,-16.797c-0.14,-10.113 -0.293,-21.332 -0.414,-29.834c-3.003,-0.68 -5.686,-2.145 -7.889,-4.135" style="fill:#ed3193;fill-rule:nonzero;"/><path d="M13.163,94.904l0,-80.861l-12.973,0l0,-13.513l36.9,0l28.407,73.972l28.714,-73.972l37.327,0l0,13.513l-13.08,0l0,80.861l13.08,0l0,13.515l-40.648,0l0,-13.515l12.866,0l0,-80.861l-37.25,95.459l-3.184,0l-36.863,-95.459l0,80.861l11.891,0l0,13.515l-38.16,0l0,-13.515l12.973,0Z" style="fill:#ed3193;fill-rule:nonzero;"/><path d="M151.15,95.291l0,-48.875l-12.5,0l0,-13.125l27.25,0l0,9.465c8.881,-7.059 17.582,-10.59 26.104,-10.59c8.57,0 14.484,3.906 17.738,11.715c9.808,-7.809 18.941,-11.715 27.402,-11.715c4.877,0 8.885,1.074 12.026,3.219c3.14,2.146 5.255,4.861 6.345,8.142c1.09,3.284 1.635,8.131 1.635,14.541l0,37.223l13.125,0l0,13.125l-27.875,0l0,-47.656c0,-4.34 -0.195,-7.401 -0.586,-9.184c-0.391,-1.781 -1.377,-3.254 -2.963,-4.416c-1.586,-1.162 -3.494,-1.744 -5.728,-1.744c-6.344,0 -13.543,3.229 -21.598,9.682l0,40.193l12.875,0l0,13.125l-27.625,0l0,-49.051c0,-4.908 -0.711,-8.461 -2.129,-10.656c-1.418,-2.195 -3.83,-3.293 -7.234,-3.293c-5.573,0 -12.742,3.229 -21.512,9.682l0,40.193l13.25,0l0,13.125l-41.375,0l0,-13.125l13.375,0Z" style="fill:#ed3193;fill-rule:nonzero;"/><path d="M3.014,138.621l0,-18.825l-3.014,0l0,-3.141l8.591,0l6.606,17.21l6.678,-17.21l8.682,0l0,3.141l-3.032,0l0,18.825l3.032,0l0,3.141l-9.458,0l0,-3.141l2.996,0l0,-18.825l-8.663,22.219l-0.74,0l-8.574,-22.219l0,18.825l2.762,0l0,3.141l-8.88,0l0,-3.141l3.014,0Z" style="fill:#ed3193;fill-rule:nonzero;"/><path d="M46.714,131.402c-0.241,-1.227 -0.879,-2.337 -1.913,-3.33c-1.035,-0.992 -2.305,-1.488 -3.809,-1.488c-1.372,0 -2.545,0.447 -3.52,1.343c-0.974,0.898 -1.57,2.056 -1.786,3.475l11.028,0Zm3.537,2.491l-14.692,0c0.217,1.613 0.855,2.918 1.913,3.916c1.059,1 2.413,1.499 4.061,1.499c2.395,0 4.29,-0.963 5.686,-2.888l3.032,1.336c-0.987,1.528 -2.268,2.663 -3.844,3.402c-1.577,0.739 -3.225,1.11 -4.946,1.11c-2.671,0 -4.954,-0.834 -6.85,-2.5c-1.895,-1.666 -2.842,-3.914 -2.842,-6.741c0,-2.684 0.923,-4.892 2.771,-6.624c1.847,-1.733 3.967,-2.599 6.362,-2.599c2.346,0 4.473,0.845 6.38,2.536c1.907,1.69 2.897,4.208 2.969,7.553" style="fill:#ed3193;fill-rule:nonzero;"/><path d="M56.912,133.008c0,1.925 0.544,3.405 1.633,4.441c1.089,1.035 2.392,1.552 3.908,1.552c1.468,0 2.771,-0.545 3.908,-1.635c1.136,-1.087 1.705,-2.595 1.705,-4.521c0,-1.937 -0.58,-3.398 -1.741,-4.385c-1.162,-0.987 -2.464,-1.48 -3.908,-1.48c-1.552,0 -2.858,0.581 -3.917,1.742c-1.059,1.161 -1.588,2.59 -1.588,4.286m17.724,5.704l0,3.05l-6.57,0l0,-2.563c-1.708,1.902 -3.79,2.852 -6.244,2.852c-2.275,0 -4.272,-0.776 -5.993,-2.328c-1.721,-1.553 -2.581,-3.761 -2.581,-6.624c0,-2.876 0.884,-5.145 2.653,-6.805c1.769,-1.66 3.766,-2.49 5.992,-2.49c2.359,0 4.416,0.938 6.173,2.815l0,-6.914l-3.357,0l0,-3.049l6.786,0l0,22.056l3.141,0Z" style="fill:#ed3193;fill-rule:nonzero;"/><path d="M78.155,118.353c0,-0.554 0.195,-1.035 0.587,-1.444c0.39,-0.41 0.887,-0.614 1.489,-0.614c0.566,0 1.052,0.199 1.462,0.595c0.409,0.399 0.614,0.885 0.614,1.463c0,0.577 -0.205,1.067 -0.614,1.471c-0.41,0.403 -0.896,0.604 -1.462,0.604c-0.577,0 -1.068,-0.204 -1.472,-0.614c-0.402,-0.408 -0.604,-0.896 -0.604,-1.461m0.487,20.359l0,-11.371l-2.707,0l0,-3.05l6.137,0l0,14.421l2.707,0l0,3.05l-8.844,0l0,-3.05l2.707,0Z" style="fill:#ed3193;fill-rule:nonzero;"/><path d="M98.334,135.264c-1.48,-1.155 -2.979,-1.732 -4.495,-1.732c-0.95,0 -1.744,0.277 -2.382,0.831c-0.638,0.552 -0.956,1.269 -0.956,2.147c0.001,0.818 0.281,1.504 0.84,2.058c0.558,0.553 1.32,0.83 2.282,0.83c1.662,0 3.231,-0.698 4.712,-2.094l-0.001,-2.04Zm6.335,3.448l0.001,3.05l-5.992,0l0,-2.13c-1.66,1.613 -3.514,2.419 -5.559,2.419c-1.589,0 -2.969,-0.517 -4.143,-1.553c-1.173,-1.034 -1.76,-2.357 -1.76,-3.97c0,-1.624 0.623,-2.971 1.868,-4.043c1.246,-1.071 2.747,-1.606 4.504,-1.606c1.636,0 3.219,0.493 4.747,1.48l0,-1.734c0,-0.889 -0.085,-1.575 -0.253,-2.056c-0.168,-0.482 -0.562,-0.914 -1.182,-1.301c-0.62,-0.384 -1.429,-0.577 -2.428,-0.577c-1.72,0 -2.966,0.685 -3.736,2.057l-3.285,-0.865c1.456,-2.721 3.971,-4.079 7.545,-4.079c1.311,0 2.445,0.177 3.402,0.531c0.957,0.356 1.669,0.813 2.139,1.372c0.469,0.56 0.785,1.164 0.947,1.815c0.163,0.649 0.244,1.684 0.244,3.103l0,8.087l2.942,0Z" style="fill:#ed3193;fill-rule:nonzero;"/><path d="M119.486,138.712l0,-11.371l-2.906,0l0,-3.051l6.336,0l0,2.202c2.066,-1.647 4.089,-2.471 6.071,-2.471c1.994,0 3.37,0.907 4.126,2.724c2.275,-1.817 4.392,-2.724 6.353,-2.724c1.132,0 2.061,0.249 2.789,0.748c0.728,0.499 1.219,1.132 1.471,1.894c0.253,0.765 0.38,1.894 0.38,3.385l0,8.664l3.049,0l0,3.05l-6.479,0l0,-11.1c0,-1.011 -0.045,-1.723 -0.136,-2.139c-0.09,-0.415 -0.318,-0.758 -0.685,-1.029c-0.368,-0.27 -0.81,-0.406 -1.327,-0.406c-1.468,0 -3.134,0.752 -5,2.256l0,9.368l2.996,0l0,3.05l-6.425,0l0,-11.425c0,-1.143 -0.165,-1.971 -0.495,-2.481c-0.33,-0.512 -0.891,-0.768 -1.684,-0.768c-1.295,0 -2.964,0.752 -5.004,2.256l0,9.368l3.068,0l0,3.05l-9.621,0l0,-3.05l3.123,0Z" style="fill:#ed3193;fill-rule:nonzero;"/><path d="M151.399,133.018c0,1.725 0.539,3.138 1.615,4.239c1.077,1.103 2.392,1.654 3.944,1.654c1.577,0 2.897,-0.557 3.961,-1.672c1.066,-1.114 1.598,-2.521 1.598,-4.221c0,-1.713 -0.541,-3.123 -1.624,-4.23c-1.083,-1.11 -2.394,-1.664 -3.935,-1.664c-1.613,0 -2.942,0.567 -3.989,1.699c-1.047,1.133 -1.57,2.531 -1.57,4.195m-3.628,0.009c0,-2.695 0.89,-4.906 2.672,-6.633c1.78,-1.728 3.952,-2.59 6.515,-2.59c2.515,0 4.675,0.851 6.48,2.554c1.805,1.702 2.707,3.925 2.707,6.669c0,2.743 -0.899,4.97 -2.698,6.679c-1.799,1.708 -3.962,2.562 -6.489,2.562c-2.599,0 -4.78,-0.867 -6.542,-2.6c-1.764,-1.732 -2.645,-3.946 -2.645,-6.641" style="fill:#ed3193;fill-rule:nonzero;"/><path d="M171.397,138.712l0,-19.007l-3.104,0l0,-3.05l6.535,0l0,22.057l2.671,0l0,3.05l-9.206,0l0,-3.05l3.105,0Z" style="fill:#ed3193;fill-rule:nonzero;"/><path d="M194.627,131.402c-0.24,-1.227 -0.879,-2.337 -1.913,-3.33c-1.035,-0.992 -2.305,-1.488 -3.809,-1.488c-1.371,0 -2.545,0.447 -3.519,1.343c-0.975,0.898 -1.571,2.056 -1.787,3.475l11.028,0Zm3.537,2.491l-14.691,0c0.216,1.613 0.854,2.918 1.913,3.916c1.058,1 2.412,1.499 4.061,1.499c2.394,0 4.289,-0.963 5.685,-2.888l3.032,1.336c-0.986,1.528 -2.267,2.663 -3.845,3.402c-1.575,0.739 -3.224,1.11 -4.944,1.11c-2.671,0 -4.955,-0.834 -6.85,-2.5c-1.895,-1.666 -2.843,-3.914 -2.843,-6.741c0,-2.684 0.924,-4.892 2.771,-6.624c1.847,-1.733 3.967,-2.599 6.362,-2.599c2.346,0 4.473,0.845 6.38,2.536c1.908,1.69 2.898,4.208 2.969,7.553" style="fill:#ed3193;fill-rule:nonzero;"/><path d="M217.405,124.29l0,6.606l-3.068,0c-0.158,-1.263 -0.671,-2.231 -1.544,-2.906c-0.872,-0.674 -1.886,-1.011 -3.041,-1.011c-1.54,0 -2.792,0.545 -3.754,1.634c-0.963,1.089 -1.444,2.518 -1.444,4.286c0,1.649 0.456,3.103 1.371,4.36c0.915,1.256 2.239,1.886 3.972,1.886c2.405,0 4.151,-1.143 5.235,-3.43l2.833,1.337c-1.565,3.477 -4.302,5.215 -8.213,5.215c-2.768,0 -4.946,-0.944 -6.534,-2.834c-1.588,-1.888 -2.382,-4.067 -2.382,-6.534c0,-2.634 0.866,-4.809 2.599,-6.524c1.733,-1.715 3.73,-2.571 5.992,-2.571c1.937,0 3.574,0.571 4.91,1.713l0,-1.227l3.068,0.001Z" style="fill:#ed3193;fill-rule:nonzero;"/><path d="M239.244,138.712l0,3.05l-6.442,0l0,-2.003c-2.011,1.527 -3.936,2.292 -5.777,2.292c-1.167,0 -2.133,-0.255 -2.896,-0.768c-0.764,-0.51 -1.273,-1.173 -1.526,-1.985c-0.253,-0.812 -0.379,-2.12 -0.379,-3.926l0,-8.031l-2.473,0l0,-3.051l5.902,0l0,10.65c0,1.288 0.037,2.154 0.109,2.598c0.073,0.447 0.283,0.813 0.632,1.101c0.349,0.29 0.788,0.433 1.318,0.433c1.588,0 3.284,-0.756 5.09,-2.273l0,-9.458l-3.087,0l0,-3.051l6.515,0l0,14.422l3.014,0Z" style="fill:#ed3193;fill-rule:nonzero;"/><path d="M243.451,138.712l0,-19.007l-3.105,0l0,-3.05l6.534,0l0,22.057l2.671,0l0,3.05l-9.205,0l0,-3.05l3.105,0Z" style="fill:#ed3193;fill-rule:nonzero;"/><path d="M266.68,131.402c-0.241,-1.227 -0.878,-2.337 -1.913,-3.33c-1.035,-0.992 -2.305,-1.488 -3.809,-1.488c-1.372,0 -2.545,0.447 -3.518,1.343c-0.975,0.898 -1.571,2.056 -1.787,3.475l11.027,0Zm3.538,2.491l-14.692,0c0.216,1.613 0.854,2.918 1.914,3.916c1.058,1 2.412,1.499 4.06,1.499c2.395,0 4.29,-0.963 5.686,-2.888l3.032,1.336c-0.987,1.528 -2.268,2.663 -3.845,3.402c-1.576,0.739 -3.224,1.11 -4.945,1.11c-2.672,0 -4.954,-0.834 -6.85,-2.5c-1.895,-1.666 -2.842,-3.914 -2.842,-6.741c0,-2.684 0.924,-4.892 2.77,-6.624c1.848,-1.733 3.968,-2.599 6.364,-2.599c2.345,0 4.472,0.845 6.378,2.536c1.909,1.69 2.898,4.208 2.97,7.553" style="fill:#ed3193;fill-rule:nonzero;"/></g></svg>