<?xml version="1.0" encoding="UTF-8" standalone="no"?><!DOCTYPE svg PUBLIC "-//W3C//DTD SVG 1.1//EN" "http://www.w3.org/Graphics/SVG/1.1/DTD/svg11.dtd"><svg width="100%" height="100%" viewBox="0 0 199 47" version="1.1" xmlns="http://www.w3.org/2000/svg" xmlns:xlink="http://www.w3.org/1999/xlink" xml:space="preserve" style="fill-rule:evenodd;clip-rule:evenodd;stroke-linejoin:round;stroke-miterlimit:1.41421;"><g><path d="M20.629,16.411l-6.876,-0.916l-2.64,-4.534l9.516,5.45ZM10.871,0.85l2.807,5.2l-2.807,4.59l0,-9.79ZM10.871,20.806l-2.8,-5.201l2.8,-4.589l0,9.79ZM1.024,16.312l4.232,-5.509l5.247,0l-9.479,5.509ZM1.111,5.194l6.875,0.916l2.641,4.534l-9.516,-5.45ZM20.715,5.294l-4.231,5.509l-5.247,0l9.478,-5.509ZM21.724,4.7l-7.707,0.933l-3.152,-5.601l-3.088,5.637l-7.686,-1.052l4.662,6.208l-4.753,6.129l7.708,-0.933l3.151,5.602l3.09,-5.638l7.683,1.053l-4.662,-6.208l4.754,-6.13Z" style="fill:#231f20;fill-rule:nonzero;"/><path d="M15.675,39.643c0,3.188 -1.722,4.717 -5.234,4.717c-3.511,0 -5.251,-1.529 -5.251,-4.717l0,-7.052l3.545,0l0,6.263c0,1.175 0,2.64 1.723,2.64c1.674,0 1.674,-1.465 1.674,-2.64l0,-6.263l3.543,0l0,7.052Z" style="fill:#231f20;fill-rule:nonzero;"/><path d="M18.054,35.73l3.076,0l0,1.063l0.033,0c0.595,-0.837 1.449,-1.272 2.721,-1.272c1.498,0 2.867,0.918 2.867,2.834l0,5.732l-3.189,0l0,-4.38c0,-0.965 -0.112,-1.642 -1.048,-1.642c-0.547,0 -1.271,0.274 -1.271,1.61l0,4.412l-3.189,0l0,-8.357Z" style="fill:#231f20;fill-rule:nonzero;"/><path d="M32.385,34.83l-3.188,0l0,-2.239l3.188,0l0,2.239ZM29.197,35.73l3.188,0l0,8.357l-3.188,0l0,-8.357Z" style="fill:#231f20;fill-rule:nonzero;"/><path d="M40.324,44.087l-3.77,0l-2.736,-8.357l3.365,0l1.305,5.088l0.031,0l1.321,-5.088l3.253,0l-2.769,8.357Z" style="fill:#231f20;fill-rule:nonzero;"/><path d="M47.133,40.625c0.081,0.949 0.628,1.626 1.627,1.626c0.516,0 1.079,-0.193 1.336,-0.596l2.981,0c-0.645,1.804 -2.401,2.64 -4.3,2.64c-2.675,0 -4.688,-1.577 -4.688,-4.362c0,-2.431 1.773,-4.412 4.413,-4.412c3.319,0 4.751,1.852 4.751,5.104l-6.12,0ZM50.193,38.967c0,-0.773 -0.579,-1.401 -1.4,-1.401c-0.951,0 -1.499,0.499 -1.644,1.401l3.044,0Z" style="fill:#231f20;fill-rule:nonzero;"/><path d="M55.23,35.73l3.062,0l0,1.337l0.032,0c0.515,-0.998 1.191,-1.546 2.351,-1.546c0.323,0 0.628,0.048 0.935,0.129l0,2.817c-0.323,-0.112 -0.612,-0.209 -1.258,-0.209c-1.256,0 -1.933,0.741 -1.933,2.528l0,3.301l-3.189,0l0,-8.357Z" style="fill:#231f20;fill-rule:nonzero;"/><path d="M67.854,38.162c-0.016,-0.274 -0.161,-0.483 -0.37,-0.628c-0.193,-0.161 -0.451,-0.242 -0.709,-0.242c-0.45,0 -0.966,0.097 -0.966,0.644c0,0.242 0.193,0.355 0.37,0.435c0.531,0.225 1.739,0.29 2.802,0.644c1.063,0.338 1.998,0.966 1.998,2.334c0,2.319 -2.224,2.946 -4.253,2.946c-1.965,0 -4.123,-0.789 -4.171,-2.946l3.044,0c0.017,0.291 0.146,0.532 0.387,0.741c0.16,0.145 0.468,0.242 0.853,0.242c0.419,0 1.079,-0.161 1.079,-0.644c0,-0.483 -0.274,-0.628 -1.754,-0.886c-2.433,-0.419 -3.415,-1.191 -3.415,-2.624c0,-2.109 2.27,-2.657 3.946,-2.657c1.804,0 3.978,0.5 4.058,2.641l-2.899,0Z" style="fill:#231f20;fill-rule:nonzero;"/><path d="M76.164,34.83l-3.19,0l0,-2.239l3.19,0l0,2.239ZM72.974,35.73l3.19,0l0,8.357l-3.19,0l0,-8.357Z" style="fill:#231f20;fill-rule:nonzero;"/><path d="M82.459,35.73l1.707,0l0,1.965l-1.707,0l0,2.914c0,0.772 0.176,1.111 0.981,1.111c0.242,0 0.484,-0.016 0.726,-0.048l0,2.415c-0.645,0 -1.37,0.096 -2.045,0.096c-1.354,0 -2.852,-0.21 -2.852,-2.495l0,-3.993l-1.417,0l0,-1.965l1.417,0l0,-2.543l3.19,0l0,2.543Z" style="fill:#231f20;fill-rule:nonzero;"/><path d="M92.991,43.442c-0.259,0.741 -0.548,1.69 -1.048,2.319c-0.838,1.046 -2.126,1.03 -3.365,1.03l-1.451,0l0,-2.544l0.742,0c0.321,0 0.741,0.033 0.966,-0.08c0.194,-0.097 0.305,-0.258 0.305,-0.628c0,-0.403 -1.223,-3.478 -1.4,-3.96l-1.417,-3.849l3.414,0l1.337,4.798l0.031,0l1.354,-4.798l3.301,0l-2.769,7.712Z" style="fill:#231f20;fill-rule:nonzero;"/><path d="M105.968,37.84c-1.208,0 -1.369,1.175 -1.369,2.061c0,0.885 0.161,2.077 1.369,2.077c1.208,0 1.369,-1.192 1.369,-2.077c0,-0.886 -0.161,-2.061 -1.369,-2.061ZM105.968,44.295c-3.14,0 -4.557,-2.076 -4.557,-4.394c0,-2.319 1.417,-4.38 4.557,-4.38c3.141,0 4.558,2.061 4.558,4.38c0,2.318 -1.417,4.394 -4.558,4.394Z" style="fill:#231f20;fill-rule:nonzero;"/><path d="M113.083,37.695l-1.304,0l0,-1.965l1.304,0c-0.032,-0.821 0.048,-1.738 0.661,-2.35c0.692,-0.692 1.497,-0.789 2.786,-0.789c0.483,0 0.949,0.048 1.433,0.065l0,2.189c-0.257,-0.032 -0.516,-0.113 -0.774,-0.113c-0.772,0 -1.03,0.226 -0.981,0.998l1.674,0l0,1.965l-1.611,0l0,6.392l-3.188,0l0,-6.392Z" style="fill:#231f20;fill-rule:nonzero;"/><path d="M127.784,37.067l1.869,0c0.741,0 1.205,-0.209 1.205,-0.95c0,-0.58 -0.481,-0.789 -1.205,-0.789l-1.869,0l0,1.739ZM124.241,32.591l6.298,0c3.026,0 3.672,1.707 3.672,2.882c0,1.159 -0.565,1.787 -1.418,2.254c1.03,0.354 1.997,1.175 1.997,2.866c0,2.302 -1.997,3.494 -4.026,3.494l-6.523,0l0,-11.496ZM127.784,41.349l2.078,0c0.741,0 1.385,-0.209 1.385,-1.094c0,-0.676 -0.404,-1.047 -1.24,-1.047l-2.223,0l0,2.141Z" style="fill:#231f20;fill-rule:nonzero;"/><path d="M136.769,35.73l3.06,0l0,1.337l0.033,0c0.515,-0.998 1.191,-1.546 2.351,-1.546c0.322,0 0.628,0.048 0.933,0.129l0,2.817c-0.322,-0.112 -0.611,-0.209 -1.255,-0.209c-1.257,0 -1.933,0.741 -1.933,2.528l0,3.301l-3.189,0l0,-8.357Z" style="fill:#231f20;fill-rule:nonzero;"/><path d="M147.813,34.83l-3.188,0l0,-2.239l3.188,0l0,2.239ZM144.625,35.73l3.188,0l0,8.357l-3.188,0l0,-8.357Z" style="fill:#231f20;fill-rule:nonzero;"/><path d="M158.796,43.008c0,1.658 -0.435,3.992 -4.349,3.992c-1.981,0 -4.074,-0.531 -4.364,-2.785l3.156,0c0.032,0.08 0.113,0.194 0.178,0.289c0.193,0.291 0.531,0.614 0.934,0.614c1.03,0 1.255,-1.225 1.255,-1.917l0,-0.773l-0.032,0c-0.514,0.741 -1.288,1.159 -2.237,1.159c-2.465,0 -3.576,-1.835 -3.576,-4.073c0,-2.173 1.24,-3.993 3.623,-3.993c0.935,0 1.82,0.371 2.19,1.224l0.032,0l0,-1.015l3.19,0l0,7.278ZM154.383,41.543c1.176,0 1.305,-1.127 1.305,-2.061c0,-0.918 -0.452,-1.642 -1.386,-1.642c-0.902,0 -1.352,0.773 -1.352,1.658c0,0.95 0.289,2.045 1.433,2.045Z" style="fill:#231f20;fill-rule:nonzero;"/><path d="M161.063,32.591l3.189,0l0,4.041l0.032,0c0.548,-0.643 1.257,-1.111 2.61,-1.111c1.497,0 2.866,0.918 2.866,2.834l0,5.732l-3.189,0l0,-4.38c0,-0.965 -0.112,-1.642 -1.048,-1.642c-0.546,0 -1.271,0.274 -1.271,1.61l0,4.412l-3.189,0l0,-11.496Z" style="fill:#231f20;fill-rule:nonzero;"/><path d="M175.975,35.73l1.707,0l0,1.965l-1.707,0l0,2.914c0,0.772 0.176,1.111 0.982,1.111c0.241,0 0.482,-0.016 0.725,-0.048l0,2.415c-0.645,0 -1.369,0.096 -2.045,0.096c-1.353,0 -2.851,-0.21 -2.851,-2.495l0,-3.993l-1.417,0l0,-1.965l1.417,0l0,-2.543l3.189,0l0,2.543Z" style="fill:#231f20;fill-rule:nonzero;"/><path d="M183.543,37.84c-1.208,0 -1.369,1.175 -1.369,2.061c0,0.885 0.161,2.077 1.369,2.077c1.208,0 1.368,-1.192 1.368,-2.077c0,-0.886 -0.16,-2.061 -1.368,-2.061ZM183.543,44.295c-3.141,0 -4.559,-2.076 -4.559,-4.394c0,-2.319 1.418,-4.38 4.559,-4.38c3.14,0 4.557,2.061 4.557,4.38c0,2.318 -1.417,4.394 -4.557,4.394Z" style="fill:#231f20;fill-rule:nonzero;"/><path d="M190.127,35.73l3.076,0l0,1.063l0.031,0c0.597,-0.837 1.451,-1.272 2.723,-1.272c1.498,0 2.866,0.918 2.866,2.834l0,5.732l-3.188,0l0,-4.38c0,-0.965 -0.114,-1.642 -1.047,-1.642c-0.548,0 -1.274,0.274 -1.274,1.61l0,4.412l-3.187,0l0,-8.357Z" style="fill:#231f20;fill-rule:nonzero;"/></g></svg>