<svg width="100" height="100" viewBox="0 0 100 100" fill="none" xmlns="http://www.w3.org/2000/svg">
<rect width="100" height="100" fill="#00CB00"/>
<path d="M6 6H94V94H6V6Z" fill="white"/>
<path fill-rule="evenodd" clip-rule="evenodd" d="M6 6V94H94V6H6ZM22.4249 77.8315C22.7895 77.3302 22.9718 76.633 22.9718 75.7397V62.0815H27.757V75.7397C27.757 77.0067 27.4607 78.1369 26.8683 79.1304C26.2849 80.1239 25.4646 80.894 24.4073 81.4409C23.3592 81.9878 22.1879 82.2612 20.8937 82.2612C18.7244 82.2612 17.0382 81.7144 15.8351 80.6206C14.632 79.5269 14.0304 77.9774 14.0304 75.9722H18.8429C18.8429 76.8836 18.9978 77.5444 19.3077 77.9546C19.6267 78.3647 20.1554 78.5698 20.8937 78.5698C21.559 78.5698 22.0695 78.3237 22.4249 77.8315ZM48.2095 72.4448C48.2095 74.3862 47.8495 76.1043 47.1295 77.5991C46.4094 79.0939 45.384 80.2469 44.0533 81.0581C42.7317 81.8602 41.2232 82.2612 39.5279 82.2612C37.8326 82.2612 36.3287 81.8739 35.0162 81.0991C33.7037 80.3153 32.6783 79.1987 31.94 77.7495C31.2108 76.3003 30.828 74.6369 30.7916 72.7593V71.6382C30.7916 69.6877 31.147 67.9696 31.858 66.4839C32.578 64.9891 33.6034 63.8361 34.9341 63.0249C36.274 62.2137 37.7961 61.8081 39.5005 61.8081C41.1867 61.8081 42.6907 62.2091 44.0123 63.0112C45.3339 63.8133 46.3593 64.9572 47.0884 66.4429C47.8267 67.9194 48.2004 69.6147 48.2095 71.5288V72.4448ZM43.3287 71.6108C43.3287 69.633 42.996 68.1336 42.3306 67.1128C41.6744 66.0828 40.731 65.5679 39.5005 65.5679C37.0943 65.5679 35.8228 67.3726 35.6861 70.9819L35.6724 72.4448C35.6724 74.3953 35.996 75.8947 36.6431 76.9429C37.2903 77.9911 38.2519 78.5151 39.5279 78.5151C40.7401 78.5151 41.6744 78.0002 42.3306 76.9702C42.9869 75.9403 43.3196 74.4591 43.3287 72.5269V71.6108ZM64.8066 80.4976C63.5762 81.4728 61.7487 81.9696 59.3242 81.9878H51.2441V62.0815H58.3945C60.9557 62.0815 62.9017 62.5509 64.2324 63.4897C65.5723 64.4285 66.2422 65.7912 66.2422 67.5776C66.2422 68.6076 66.0052 69.4871 65.5312 70.2163C65.0573 70.9455 64.36 71.4832 63.4395 71.8296C64.4785 72.103 65.276 72.6134 65.832 73.3608C66.388 74.1082 66.666 75.0197 66.666 76.0952C66.666 78.0457 66.0462 79.5132 64.8066 80.4976ZM61.8809 76.0269C61.8809 74.368 61.056 73.534 59.4062 73.5249H56.043V78.2964H59.1875C60.0534 78.2964 60.7188 78.1004 61.1836 77.7085C61.6484 77.3075 61.8809 76.7469 61.8809 76.0269ZM60.7324 66.3472C60.2493 65.9735 59.4701 65.7866 58.3945 65.7866H56.043V70.3804H58.5449C59.5931 70.3713 60.3405 70.1798 60.7871 69.8062C61.2337 69.4325 61.457 68.881 61.457 68.1519C61.457 67.3133 61.2155 66.7118 60.7324 66.3472ZM80.1459 76.6968C80.1459 75.995 79.8953 75.4481 79.394 75.0562C78.9018 74.6642 78.0314 74.2586 76.7827 73.8394C75.534 73.4201 74.5131 73.0145 73.7202 72.6226C71.1407 71.3556 69.851 69.6147 69.851 67.3999C69.851 66.297 70.17 65.3263 70.808 64.4878C71.4552 63.6401 72.3666 62.9839 73.5424 62.519C74.7182 62.0451 76.0398 61.8081 77.5073 61.8081C78.9383 61.8081 80.2189 62.0633 81.3491 62.5737C82.4884 63.0841 83.3725 63.8133 84.0014 64.7612C84.6303 65.7 84.9448 66.7756 84.9448 67.9878H80.1596C80.1596 67.1766 79.909 66.5477 79.4077 66.1011C78.9155 65.6545 78.2455 65.4312 77.3979 65.4312C76.5411 65.4312 75.8621 65.6226 75.3608 66.0054C74.8686 66.3791 74.6225 66.8576 74.6225 67.4409C74.6225 67.9513 74.8959 68.4162 75.4428 68.8354C75.9897 69.2456 76.9513 69.674 78.3276 70.1206C79.7039 70.5581 80.8341 71.0321 81.7182 71.5425C83.8692 72.7821 84.9448 74.4911 84.9448 76.6694C84.9448 78.4103 84.2885 79.7775 82.976 80.771C81.6635 81.7645 79.8634 82.2612 77.5756 82.2612C75.9623 82.2612 74.4995 81.9741 73.187 81.3999C71.8836 80.8166 70.8992 80.0236 70.2338 79.021C69.5776 78.0093 69.2495 76.8472 69.2495 75.5347H74.062C74.062 76.6011 74.3354 77.3895 74.8823 77.8999C75.4383 78.4012 76.336 78.6519 77.5756 78.6519C78.3686 78.6519 78.9929 78.4832 79.4487 78.146C79.9135 77.7996 80.1459 77.3166 80.1459 76.6968ZM49.8427 51.9167H65.8518V45.7498H62.9036L66.0901 41.2906C66.3903 40.8532 66.623 40.4606 66.7939 40.1723C66.9754 39.8662 67.0872 39.6776 67.1361 39.6776H67.2315C67.2315 39.6776 67.6591 40.436 68.325 41.2906L71.7497 45.7498H68.7056V51.9167H85.4988V45.7498H81.914L73.7337 35.1731L82.0563 24.1679H85.5922V18H69.5608V24.1674H72.4141L69.2746 28.4367C68.8349 29.0319 68.52 29.5446 68.3568 29.8103C68.2729 29.9469 68.2291 30.0183 68.2291 30.0018H68.1341C68.1341 30.0018 67.7061 29.2898 67.0407 28.4367L63.8073 24.1674H66.7555V18H51.0644H50.7877H34.3313V24.175H37.52V38.9935C37.52 40.559 37.2811 41.7943 36.7631 42.7926C35.8863 44.4076 34.4523 45.1669 32.6181 45.1669C30.665 45.1669 29.111 44.2639 28.3541 42.7432C27.9147 41.8412 27.6366 40.5116 27.6366 38.993V24.175H30.8247V18H14.3977V24.175H18.1961V38.993C18.1971 42.5537 19.0507 45.6893 21.0451 47.9683C23.5127 50.818 27.7373 52.5278 32.5793 52.5278C37.0408 52.5278 41.5506 51.0555 44.1608 47.8266C45.9169 45.6424 46.9615 42.3631 46.9615 38.9925V24.175H51.0644V24.1674H53.6405L61.6299 34.6036L53.2598 45.7503H49.8422V51.9167H49.8427Z" fill="#00CB00"/>
</svg>
