<svg width="100" height="100" viewBox="0 0 100 100" fill="none" xmlns="http://www.w3.org/2000/svg">
<rect width="100" height="100" fill="#C9003A"/>
<path d="M6 6H94V94H6V6Z" fill="white"/>
<path fill-rule="evenodd" clip-rule="evenodd" d="M6 94V6H94V94H6ZM27.757 62.0815H22.9718V75.7397C22.9718 76.633 22.7895 77.3302 22.4249 77.8315C22.0695 78.3237 21.559 78.5698 20.8937 78.5698C20.1554 78.5698 19.6267 78.3647 19.3077 77.9546C18.9978 77.5444 18.8429 76.8836 18.8429 75.9722H14.0304C14.0304 77.9774 14.632 79.5269 15.8351 80.6206C17.0382 81.7144 18.7244 82.2612 20.8937 82.2612C22.1879 82.2612 23.3592 81.9878 24.4073 81.4409C25.4646 80.894 26.2849 80.1239 26.8683 79.1304C27.4607 78.1369 27.757 77.0067 27.757 75.7397V62.0815ZM47.1295 77.5991C47.8495 76.1043 48.2095 74.3862 48.2095 72.4448V71.5288C48.2004 69.6147 47.8267 67.9194 47.0884 66.4429C46.3593 64.9572 45.3339 63.8133 44.0123 63.0112C42.6907 62.2091 41.1867 61.8081 39.5005 61.8081C37.7961 61.8081 36.274 62.2137 34.9341 63.0249C33.6034 63.8361 32.578 64.9891 31.858 66.4839C31.147 67.9696 30.7916 69.6877 30.7916 71.6382V72.7593C30.828 74.6369 31.2108 76.3003 31.94 77.7495C32.6783 79.1987 33.7037 80.3153 35.0162 81.0991C36.3287 81.8739 37.8326 82.2612 39.5279 82.2612C41.2232 82.2612 42.7317 81.8602 44.0533 81.0581C45.384 80.2469 46.4094 79.0939 47.1295 77.5991ZM42.3306 67.1128C42.996 68.1336 43.3287 69.633 43.3287 71.6108V72.5269C43.3196 74.4591 42.9869 75.9403 42.3306 76.9702C41.6744 78.0002 40.7401 78.5151 39.5279 78.5151C38.2519 78.5151 37.2903 77.9911 36.6431 76.9429C35.996 75.8947 35.6724 74.3953 35.6724 72.4448L35.6861 70.9819C35.8228 67.3726 37.0943 65.5679 39.5005 65.5679C40.731 65.5679 41.6744 66.0828 42.3306 67.1128ZM51.2441 62.0815V81.9878H59.3242C61.7487 81.9696 63.5762 81.4728 64.8066 80.4976C66.0462 79.5132 66.666 78.0457 66.666 76.0952C66.666 75.0197 66.388 74.1082 65.832 73.3608C65.276 72.6134 64.4785 72.103 63.4395 71.8296C64.36 71.4832 65.0573 70.9455 65.5312 70.2163C66.0052 69.4871 66.2422 68.6076 66.2422 67.5776C66.2422 65.7912 65.5723 64.4285 64.2324 63.4897C62.9017 62.5509 60.9557 62.0815 58.3945 62.0815H51.2441ZM56.043 78.2964V73.5249H59.4062C61.056 73.534 61.8809 74.368 61.8809 76.0269C61.8809 76.7469 61.6484 77.3075 61.1836 77.7085C60.7188 78.1004 60.0534 78.2964 59.1875 78.2964H56.043ZM58.5449 70.3804H56.043V65.7866H58.3945C59.4701 65.7866 60.2493 65.9735 60.7324 66.3472C61.2155 66.7118 61.457 67.3133 61.457 68.1519C61.457 68.881 61.2337 69.4325 60.7871 69.8062C60.3405 70.1798 59.5931 70.3713 58.5449 70.3804ZM79.394 75.0562C79.8953 75.4481 80.1459 75.995 80.1459 76.6968C80.1459 77.3166 79.9135 77.7996 79.4487 78.146C78.9929 78.4832 78.3686 78.6519 77.5756 78.6519C76.336 78.6519 75.4383 78.4012 74.8823 77.8999C74.3354 77.3895 74.062 76.6011 74.062 75.5347H69.2495C69.2495 76.8472 69.5776 78.0093 70.2338 79.021C70.8992 80.0236 71.8836 80.8166 73.187 81.3999C74.4995 81.9741 75.9623 82.2612 77.5756 82.2612C79.8634 82.2612 81.6635 81.7645 82.976 80.771C84.2885 79.7775 84.9448 78.4103 84.9448 76.6694C84.9448 74.4911 83.8692 72.7821 81.7182 71.5425C80.8341 71.0321 79.7039 70.5581 78.3276 70.1206C76.9513 69.674 75.9897 69.2456 75.4428 68.8354C74.8959 68.4162 74.6225 67.9513 74.6225 67.4409C74.6225 66.8576 74.8686 66.3791 75.3608 66.0054C75.8621 65.6226 76.5411 65.4312 77.3979 65.4312C78.2455 65.4312 78.9155 65.6545 79.4077 66.1011C79.909 66.5477 80.1596 67.1766 80.1596 67.9878H84.9448C84.9448 66.7756 84.6303 65.7 84.0014 64.7612C83.3725 63.8133 82.4884 63.0841 81.3491 62.5737C80.2189 62.0633 78.9383 61.8081 77.5073 61.8081C76.0398 61.8081 74.7182 62.0451 73.5424 62.519C72.3666 62.9839 71.4552 63.6401 70.808 64.4878C70.17 65.3263 69.851 66.297 69.851 67.3999C69.851 69.6147 71.1407 71.3556 73.7202 72.6226C74.5131 73.0145 75.534 73.4201 76.7827 73.8394C78.0314 74.2586 78.9018 74.6642 79.394 75.0562ZM49.8427 51.9167H65.8518V45.7498H62.9036L66.0901 41.2906C66.3902 40.8532 66.623 40.4607 66.7939 40.1724L66.794 40.1723L66.794 40.1722C66.9754 39.8662 67.0872 39.6776 67.1361 39.6776H67.2315C67.2315 39.6776 67.6591 40.436 68.325 41.2906L71.7497 45.7498H68.7056V51.9167H85.4988V45.7498H81.914L73.7337 35.1731L82.0563 24.1679H85.5922V18H69.5608V24.1674H72.4141L69.2746 28.4367C68.8349 29.0319 68.52 29.5446 68.3568 29.8103L68.3568 29.8103C68.2729 29.947 68.2291 30.0183 68.2291 30.0018H68.1341C68.1341 30.0018 67.7061 29.2898 67.0407 28.4367L63.8073 24.1674H66.7555V18H51.0644H50.7877H34.3313V24.175H37.52V38.9935C37.52 40.559 37.2811 41.7943 36.7631 42.7926C35.8863 44.4076 34.4523 45.1669 32.6181 45.1669C30.665 45.1669 29.111 44.2639 28.3541 42.7432C27.9147 41.8412 27.6366 40.5116 27.6366 38.993V24.175H30.8247V18H14.3977V24.175H18.1961V38.993C18.1971 42.5537 19.0507 45.6893 21.0451 47.9683C23.5127 50.818 27.7373 52.5278 32.5793 52.5278C37.0408 52.5278 41.5506 51.0555 44.1608 47.8266C45.9169 45.6424 46.9615 42.3631 46.9615 38.9925V24.175H51.0644V24.1674H53.6405L61.6299 34.6036L53.2598 45.7503H49.8422V51.9167H49.8427Z" fill="#C9003A"/>
</svg>
