<svg xmlns="http://www.w3.org/2000/svg" viewBox="0 0 409 409">
  <defs>
    <linearGradient id="instagram-a" x1="50%" x2="50%" y1="99.709%" y2=".777%">
      <stop offset="0%" stop-color="#E09B3D"/>
      <stop offset="30%" stop-color="#C74C4D"/>
      <stop offset="60%" stop-color="#C21975"/>
      <stop offset="100%" stop-color="#7024C4"/>
    </linearGradient>
    <linearGradient id="instagram-b" x1="50%" x2="50%" y1="146.099%" y2="-45.16%">
      <stop offset="0%" stop-color="#E09B3D"/>
      <stop offset="30%" stop-color="#C74C4D"/>
      <stop offset="60%" stop-color="#C21975"/>
      <stop offset="100%" stop-color="#7024C4"/>
    </linearGradient>
    <linearGradient id="instagram-c" x1="50%" x2="50%" y1="658.141%" y2="-140.029%">
      <stop offset="0%" stop-color="#E09B3D"/>
      <stop offset="30%" stop-color="#C74C4D"/>
      <stop offset="60%" stop-color="#C21975"/>
      <stop offset="100%" stop-color="#7024C4"/>
    </linearGradient>
  </defs>
  <g fill="none">
    <path fill="url(#instagram-a)" d="M287.156695,0 L121.843305,0 C54.6586236,0 0,54.6586236 0,121.843305 L0,287.156695 C0,354.341376 54.6586236,409 121.843305,409 L287.156695,409 C354.341376,409 409,354.341376 409,287.156695 L409,121.843305 C408.999258,54.6586236 354.340634,0 287.156695,0 Z M367.854615,287.156695 C367.854615,331.724552 331.724552,367.854615 287.156695,367.854615 L121.843305,367.854615 C77.2754476,367.854615 41.1453849,331.724552 41.1453849,287.156695 L41.1453849,121.843305 C41.1453849,77.2747054 77.2754476,41.1453849 121.843305,41.1453849 L287.156695,41.1453849 C331.724552,41.1453849 367.854615,77.2747054 367.854615,121.843305 L367.854615,287.156695 Z"/>
    <path fill="url(#instagram-b)" d="M204.5,99 C146.327207,99 99,146.327373 99,204.49963 C99,262.671887 146.327207,310 204.5,310 C262.672793,310 310,262.672627 310,204.49963 C310,146.326632 262.672793,99 204.5,99 Z M204.5,268.964881 C168.897072,268.964881 140.035715,240.103423 140.035715,204.50037 C140.035715,168.897317 168.897812,140.035859 204.5,140.035859 C240.102928,140.035859 268.964285,168.897317 268.964285,204.50037 C268.964285,240.102683 240.102188,268.964881 204.5,268.964881 Z"/>
    <circle cx="310.5" cy="99.5" r="25.5" fill="url(#instagram-c)"/>
  </g>
</svg>
