<svg xmlns="http://www.w3.org/2000/svg" viewBox="0 0 409 409">
  <path fill="#0077B7" d="M372.002631,0 L36.9973691,0 C16.5645,0 0,16.5645 0,36.9973691 L0,372.00156 C0,392.4355 16.5645,409 36.9973691,409 L372.00156,409 C392.4355,409 409,392.4355 409,372.00156 L409,36.9973691 C409,16.5645 392.4355,0 372.002631,0 Z M126.561945,353.157581 C126.561945,359.104141 121.741741,363.924346 115.795181,363.924346 L69.9636257,363.924346 C64.0170654,363.924346 59.1968613,359.104141 59.1968613,353.157581 L59.1968613,161.033579 C59.1968613,155.087018 64.0170654,150.266814 69.9636257,150.266814 L115.795181,150.266814 C121.741741,150.266814 126.561945,155.087018 126.561945,161.033579 L126.561945,353.157581 Z M92.8794031,132.156251 C68.8329869,132.156251 49.3391047,112.662369 49.3391047,88.6159529 C49.3391047,64.5695366 68.8329869,45.0756545 92.8794031,45.0756545 C116.925819,45.0756545 136.419702,64.5695366 136.419702,88.6159529 C136.419702,112.662369 116.92689,132.156251 92.8794031,132.156251 Z M366.076414,354.024832 C366.076414,359.491728 361.643796,363.924346 356.176901,363.924346 L306.996257,363.924346 C301.529361,363.924346 297.096743,359.491728 297.096743,354.024832 L297.096743,263.907785 C297.096743,250.464319 301.04006,204.997866 261.9645,204.997866 C231.654602,204.997866 225.506754,236.11827 224.272259,250.084228 L224.272259,354.024832 C224.272259,359.491728 219.840712,363.924346 214.372746,363.924346 L166.806688,363.924346 C161.339793,363.924346 156.907175,359.491728 156.907175,354.024832 L156.907175,160.166327 C156.907175,154.699432 161.339793,150.266814 166.806688,150.266814 L214.372746,150.266814 C219.839641,150.266814 224.272259,154.699432 224.272259,160.166327 L224.272259,176.927832 C235.511194,160.061401 252.213812,147.042995 287.776469,147.042995 C366.52717,147.042995 366.076414,220.615885 366.076414,261.040503 L366.076414,354.024832 Z"/>
</svg>
