<svg xmlns="http://www.w3.org/2000/svg" width="16" height="15" viewBox="0 0 16 15">
  <path d="M0.0580551524,6.17437577 C0.0580551524,6.99467867 0.228350266,7.78919361 0.568940493,8.55792059 C0.909530721,9.32664756 1.37397194,9.98853868 1.96226415,10.5435939 C2.5453959,11.1035612 3.2394775,11.5444126 4.04450895,11.8661482 C4.8495404,12.1878837 5.68295436,12.3487515 6.54475085,12.3487515 L6.57571359,12.3413835 L6.63763909,12.3487515 C7.88646992,12.3487515 9.03725206,12.027016 10.0899855,11.3835448 L14,15 L16,13 L12.0019352,9.55628326 C12.6882761,8.53458862 13.0314465,7.43675808 13.0314465,6.26279165 L13.0237059,6.20384773 L13.0314465,6.17437577 C13.0314465,5.35407286 12.8624415,4.56078592 12.5244315,3.79451494 C12.1864215,3.02824396 11.7258507,2.36266885 11.1427189,1.7977896 C10.5544267,1.24273434 9.85776488,0.804338928 9.05273343,0.482603357 C8.24770198,0.160867786 7.41170779,0 6.54475085,0 C5.66231253,0 4.82115788,0.164551781 4.02128689,0.493655342 C3.2214159,0.81784691 2.53507499,1.25255833 1.96226415,1.7977896 C1.37397194,2.35775686 0.909530721,3.02210397 0.568940493,3.79083095 C0.228350266,4.55955792 0.0580551524,5.35407286 0.0580551524,6.17437577 Z M2.29511369,6.17437577 C2.29511369,5.42775276 2.48347041,4.74989767 2.86018384,4.14081048 C3.23689727,3.5218993 3.75165296,3.03192796 4.4044509,2.67089644 C5.05724883,2.30986492 5.77068215,2.12934916 6.54475085,2.12934916 C7.32914046,2.12934916 8.04386389,2.30863692 8.68892114,2.66721244 C9.33913885,3.03069996 9.85389453,3.5218993 10.2331882,4.14081048 C10.6124819,4.75972165 10.8021287,5.43757675 10.8021287,6.17437577 C10.8021287,6.92099877 10.6111917,7.60130986 10.2293179,8.21530905 C9.85260442,8.83422022 9.33913885,9.32419157 8.68892114,9.68522309 C8.03870343,10.0462546 7.32398,10.2267704 6.54475085,10.2267704 C5.76036123,10.2267704 5.04821803,10.0450266 4.40832124,9.68153909 C3.75810353,9.32296357 3.24334785,8.83422022 2.86405418,8.21530905 C2.48476052,7.59639787 2.29511369,6.91608678 2.29511369,6.17437577 Z"/>
</svg>
