<svg xmlns="http://www.w3.org/2000/svg" viewBox="0 0 409 409">
  <g fill="none">
    <path fill="#ECB32D" d="M265.318683,25.2312422 C258.948327,6.08404036 238.496132,-4.32935012 219.385065,1.71713467 C200.273997,8.09953529 189.880259,28.5904004 195.915333,47.7376023 L290.129543,337.968872 C296.499898,355.772411 315.946248,365.849886 334.386751,360.475233 C353.833101,354.764664 365.567967,334.273798 359.197611,315.462512 C359.197611,314.790681 265.318683,25.2312422 265.318683,25.2312422 Z"/>
    <path fill="#63C1A0" d="M119.177196,72.3103789 C112.80684,53.163177 92.3546455,42.7497866 73.2435781,48.7962714 C54.1325106,55.178672 43.7387722,75.6695371 49.7738461,94.816739 L143.988056,385.048009 C150.358411,402.851548 169.804761,412.929022 188.245264,407.554369 C207.691614,401.8438 219.42648,381.352935 213.056124,362.541649 C213.056124,361.869817 119.177196,72.3103789 119.177196,72.3103789 Z"/>
    <path fill="#E01A59" d="M383.792154,265.175966 C402.921601,258.818394 413.325336,238.407242 407.284458,219.334527 C400.907975,200.261811 380.436111,189.888931 361.306664,195.911894 L71.0089172,290.271644 C53.2218876,296.629216 43.1537577,316.036541 48.523427,334.440038 C54.2287006,353.847363 74.7005649,365.558679 93.4944074,359.201107 C94.1656161,359.201107 383.792154,265.175966 383.792154,265.175966 Z"/>
    <path fill="#331433" d="M132.395753,347.208633 C151.238863,341.151919 175.802202,333.076301 202.047962,324.664199 C195.991248,305.821089 187.91563,281.25775 179.503527,255.01199 L109.851319,277.556425 L132.395753,347.208633 Z"/>
    <path fill="#D62027" d="M277.556425,299.148681 C303.802185,290.736579 328.365524,282.66096 347.208633,276.604247 C341.151919,257.761137 333.076301,233.197798 324.664199,206.952038 L255.01199,229.496473 L277.556425,299.148681 Z"/>
    <path fill="#89D3DF" d="M336.689621,119.177196 C355.836823,112.80684 366.250213,92.3546455 360.203729,73.2435781 C353.821328,54.1325106 333.330463,43.7387722 314.183261,49.7738461 L23.9519909,143.988056 C6.14845231,150.358411 -3.92902235,169.804761 1.4456308,188.245264 C7.15619977,207.691614 27.6470649,219.42648 46.4583509,213.056124 C47.1301826,213.056124 336.689621,119.177196 336.689621,119.177196 Z"/>
    <path fill="#258B74" d="M84.3358014,202.047962 C103.178911,195.991248 127.74225,187.91563 153.98801,179.503527 C145.575907,153.257768 137.500289,128.694428 131.443575,109.851319 L61.7913669,132.395753 L84.3358014,202.047962 Z"/>
    <path fill="#819C3C" d="M229.496473,153.98801 C255.742232,145.575907 280.305572,137.500289 299.148681,131.443575 C290.736579,105.197815 282.66096,80.6344764 276.604247,61.7913669 L206.952038,84.3358014 L229.496473,153.98801 Z"/>
  </g>
</svg>
