    <svg aria-hidden="true" style="position: absolute; width: 0; height: 0; overflow: hidden;" version="1.1" xmlns="http://www.w3.org/2000/svg" xmlns:xlink="http://www.w3.org/1999/xlink">
      <defs>
        <symbol id="icon-phone" viewBox="0 0 32 32">
          <title>phone</title>
          <path d="M22 20c-2 2-2 4-4 4s-4-2-6-4-4-4-4-6 2-2 4-4-4-8-6-8-6 6-6 6c0 4 4.109 12.109 8 16s12 8 16 8c0 0 6-4 6-6s-6-8-8-6z"></path>
        </symbol>
        <symbol id="icon-location" viewBox="0 0 32 32">
          <title>location</title>
          <path d="M16 0c-5.523 0-10 4.477-10 10 0 10 10 22 10 22s10-12 10-22c0-5.523-4.477-10-10-10zM16 16c-3.314 0-6-2.686-6-6s2.686-6 6-6 6 2.686 6 6-2.686 6-6 6z"></path>
        </symbol>
        <symbol id="icon-sphere" viewBox="0 0 32 32">
          <title>sphere</title>
          <path d="M15 2c-8.284 0-15 6.716-15 15s6.716 15 15 15c8.284 0 15-6.716 15-15s-6.716-15-15-15zM23.487 22c0.268-1.264 0.437-2.606 0.492-4h3.983c-0.104 1.381-0.426 2.722-0.959 4h-3.516zM6.513 12c-0.268 1.264-0.437 2.606-0.492 4h-3.983c0.104-1.381 0.426-2.722 0.959-4h3.516zM21.439 12c0.3 1.28 0.481 2.62 0.54 4h-5.979v-4h5.439zM16 10v-5.854c0.456 0.133 0.908 0.355 1.351 0.668 0.831 0.586 1.625 1.488 2.298 2.609 0.465 0.775 0.867 1.638 1.203 2.578h-4.852zM10.351 7.422c0.673-1.121 1.467-2.023 2.298-2.609 0.443-0.313 0.895-0.535 1.351-0.668v5.854h-4.852c0.336-0.94 0.738-1.803 1.203-2.578zM14 12v4h-5.979c0.059-1.38 0.24-2.72 0.54-4h5.439zM2.997 22c-0.533-1.278-0.854-2.619-0.959-4h3.983c0.055 1.394 0.224 2.736 0.492 4h-3.516zM8.021 18h5.979v4h-5.439c-0.3-1.28-0.481-2.62-0.54-4zM14 24v5.854c-0.456-0.133-0.908-0.355-1.351-0.668-0.831-0.586-1.625-1.488-2.298-2.609-0.465-0.775-0.867-1.638-1.203-2.578h4.852zM19.649 26.578c-0.673 1.121-1.467 2.023-2.298 2.609-0.443 0.312-0.895 0.535-1.351 0.668v-5.854h4.852c-0.336 0.94-0.738 1.802-1.203 2.578zM16 22v-4h5.979c-0.059 1.38-0.24 2.72-0.54 4h-5.439zM23.98 16c-0.055-1.394-0.224-2.736-0.492-4h3.516c0.533 1.278 0.855 2.619 0.959 4h-3.983zM25.958 10h-2.997c-0.582-1.836-1.387-3.447-2.354-4.732 1.329 0.636 2.533 1.488 3.585 2.54 0.671 0.671 1.261 1.404 1.766 2.192zM5.808 7.808c1.052-1.052 2.256-1.904 3.585-2.54-0.967 1.285-1.771 2.896-2.354 4.732h-2.997c0.504-0.788 1.094-1.521 1.766-2.192zM4.042 24h2.997c0.583 1.836 1.387 3.447 2.354 4.732-1.329-0.636-2.533-1.488-3.585-2.54-0.671-0.671-1.261-1.404-1.766-2.192zM24.192 26.192c-1.052 1.052-2.256 1.904-3.585 2.54 0.967-1.285 1.771-2.896 2.354-4.732h2.997c-0.504 0.788-1.094 1.521-1.766 2.192z"></path>
        </symbol>
        <symbol id="icon-earth" viewBox="0 0 32 32">
          <title>earth</title>
          <path d="M16 0c-8.837 0-16 7.163-16 16s7.163 16 16 16 16-7.163 16-16-7.163-16-16-16zM16 30c-1.967 0-3.84-0.407-5.538-1.139l7.286-8.197c0.163-0.183 0.253-0.419 0.253-0.664v-3c0-0.552-0.448-1-1-1-3.531 0-7.256-3.671-7.293-3.707-0.188-0.188-0.442-0.293-0.707-0.293h-4c-0.552 0-1 0.448-1 1v6c0 0.379 0.214 0.725 0.553 0.894l3.447 1.724v5.871c-3.627-2.53-6-6.732-6-11.489 0-2.147 0.484-4.181 1.348-6h3.652c0.265 0 0.52-0.105 0.707-0.293l4-4c0.188-0.188 0.293-0.442 0.293-0.707v-2.419c1.268-0.377 2.61-0.581 4-0.581 2.2 0 4.281 0.508 6.134 1.412-0.13 0.109-0.256 0.224-0.376 0.345-1.133 1.133-1.757 2.64-1.757 4.243s0.624 3.109 1.757 4.243c1.139 1.139 2.663 1.758 4.239 1.758 0.099 0 0.198-0.002 0.297-0.007 0.432 1.619 1.211 5.833-0.263 11.635-0.014 0.055-0.022 0.109-0.026 0.163-2.541 2.596-6.084 4.208-10.004 4.208z"></path>
        </symbol>
        <symbol id="icon-mail" viewBox="0 0 32 32">
          <title>mail</title>
          <path d="M26.666 0h-21.332c-2.934 0-5.334 2.4-5.334 5.333v21.333c0 2.934 2.4 5.334 5.334 5.334h21.332c2.936 0 5.334-2.4 5.334-5.334v-21.333c0-2.934-2.398-5.333-5.334-5.333zM8 8h16c0.286 0 0.563 0.061 0.817 0.177l-8.817 10.286-8.817-10.287c0.254-0.116 0.531-0.177 0.817-0.177zM6 22v-12c0-0.042 0.002-0.084 0.004-0.125l5.864 6.842-5.8 5.8c-0.045-0.167-0.069-0.34-0.069-0.517zM24 24h-16c-0.177 0-0.35-0.024-0.517-0.069l5.691-5.691 2.826 3.297 2.826-3.297 5.691 5.691c-0.167 0.045-0.34 0.069-0.517 0.069zM26 22c0 0.177-0.024 0.35-0.069 0.517l-5.8-5.8 5.864-6.842c0.003 0.041 0.004 0.083 0.004 0.125v12z"></path>
        </symbol>
        <symbol id="icon-facebook" viewBox="0 0 32 32">
          <title>facebook</title>
          <path d="M19 6h5v-6h-5c-3.86 0-7 3.14-7 7v3h-4v6h4v16h6v-16h5l1-6h-6v-3c0-0.542 0.458-1 1-1z"></path>
        </symbol>
        <symbol id="icon-facebook2" viewBox="0 0 32 32">
          <title>facebook2</title>
          <path d="M29 0h-26c-1.65 0-3 1.35-3 3v26c0 1.65 1.35 3 3 3h13v-14h-4v-4h4v-2c0-3.306 2.694-6 6-6h4v4h-4c-1.1 0-2 0.9-2 2v2h6l-1 4h-5v14h9c1.65 0 3-1.35 3-3v-26c0-1.65-1.35-3-3-3z"></path>
        </symbol>
        <symbol id="icon-instagram" viewBox="0 0 32 32">
          <title>instagram</title>
          <path d="M16 2.881c4.275 0 4.781 0.019 6.462 0.094 1.563 0.069 2.406 0.331 2.969 0.55 0.744 0.288 1.281 0.638 1.837 1.194 0.563 0.563 0.906 1.094 1.2 1.838 0.219 0.563 0.481 1.412 0.55 2.969 0.075 1.688 0.094 2.194 0.094 6.463s-0.019 4.781-0.094 6.463c-0.069 1.563-0.331 2.406-0.55 2.969-0.288 0.744-0.637 1.281-1.194 1.837-0.563 0.563-1.094 0.906-1.837 1.2-0.563 0.219-1.413 0.481-2.969 0.55-1.688 0.075-2.194 0.094-6.463 0.094s-4.781-0.019-6.463-0.094c-1.563-0.069-2.406-0.331-2.969-0.55-0.744-0.288-1.281-0.637-1.838-1.194-0.563-0.563-0.906-1.094-1.2-1.837-0.219-0.563-0.481-1.413-0.55-2.969-0.075-1.688-0.094-2.194-0.094-6.463s0.019-4.781 0.094-6.463c0.069-1.563 0.331-2.406 0.55-2.969 0.288-0.744 0.638-1.281 1.194-1.838 0.563-0.563 1.094-0.906 1.838-1.2 0.563-0.219 1.412-0.481 2.969-0.55 1.681-0.075 2.188-0.094 6.463-0.094zM16 0c-4.344 0-4.887 0.019-6.594 0.094-1.7 0.075-2.869 0.35-3.881 0.744-1.056 0.412-1.95 0.956-2.837 1.85-0.894 0.888-1.438 1.781-1.85 2.831-0.394 1.019-0.669 2.181-0.744 3.881-0.075 1.713-0.094 2.256-0.094 6.6s0.019 4.887 0.094 6.594c0.075 1.7 0.35 2.869 0.744 3.881 0.413 1.056 0.956 1.95 1.85 2.837 0.887 0.887 1.781 1.438 2.831 1.844 1.019 0.394 2.181 0.669 3.881 0.744 1.706 0.075 2.25 0.094 6.594 0.094s4.888-0.019 6.594-0.094c1.7-0.075 2.869-0.35 3.881-0.744 1.050-0.406 1.944-0.956 2.831-1.844s1.438-1.781 1.844-2.831c0.394-1.019 0.669-2.181 0.744-3.881 0.075-1.706 0.094-2.25 0.094-6.594s-0.019-4.887-0.094-6.594c-0.075-1.7-0.35-2.869-0.744-3.881-0.394-1.063-0.938-1.956-1.831-2.844-0.887-0.887-1.781-1.438-2.831-1.844-1.019-0.394-2.181-0.669-3.881-0.744-1.712-0.081-2.256-0.1-6.6-0.1v0z"></path>
          <path d="M16 7.781c-4.537 0-8.219 3.681-8.219 8.219s3.681 8.219 8.219 8.219 8.219-3.681 8.219-8.219c0-4.537-3.681-8.219-8.219-8.219zM16 21.331c-2.944 0-5.331-2.387-5.331-5.331s2.387-5.331 5.331-5.331c2.944 0 5.331 2.387 5.331 5.331s-2.387 5.331-5.331 5.331z"></path>
          <path d="M26.462 7.456c0 1.060-0.859 1.919-1.919 1.919s-1.919-0.859-1.919-1.919c0-1.060 0.859-1.919 1.919-1.919s1.919 0.859 1.919 1.919z"></path>
        </symbol>
        <symbol id="icon-twitter" viewBox="0 0 32 32">
          <title>twitter</title>
          <path d="M32 7.075c-1.175 0.525-2.444 0.875-3.769 1.031 1.356-0.813 2.394-2.1 2.887-3.631-1.269 0.75-2.675 1.3-4.169 1.594-1.2-1.275-2.906-2.069-4.794-2.069-3.625 0-6.563 2.938-6.563 6.563 0 0.512 0.056 1.012 0.169 1.494-5.456-0.275-10.294-2.888-13.531-6.862-0.563 0.969-0.887 2.1-0.887 3.3 0 2.275 1.156 4.287 2.919 5.463-1.075-0.031-2.087-0.331-2.975-0.819 0 0.025 0 0.056 0 0.081 0 3.181 2.263 5.838 5.269 6.437-0.55 0.15-1.131 0.231-1.731 0.231-0.425 0-0.831-0.044-1.237-0.119 0.838 2.606 3.263 4.506 6.131 4.563-2.25 1.762-5.075 2.813-8.156 2.813-0.531 0-1.050-0.031-1.569-0.094 2.913 1.869 6.362 2.95 10.069 2.95 12.075 0 18.681-10.006 18.681-18.681 0-0.287-0.006-0.569-0.019-0.85 1.281-0.919 2.394-2.075 3.275-3.394z"></path>
        </symbol>
        <symbol id="icon-youtube" viewBox="0 0 32 32">
          <title>youtube</title>
          <path d="M31.681 9.6c0 0-0.313-2.206-1.275-3.175-1.219-1.275-2.581-1.281-3.206-1.356-4.475-0.325-11.194-0.325-11.194-0.325h-0.012c0 0-6.719 0-11.194 0.325-0.625 0.075-1.987 0.081-3.206 1.356-0.963 0.969-1.269 3.175-1.269 3.175s-0.319 2.588-0.319 5.181v2.425c0 2.587 0.319 5.181 0.319 5.181s0.313 2.206 1.269 3.175c1.219 1.275 2.819 1.231 3.531 1.369 2.563 0.244 10.881 0.319 10.881 0.319s6.725-0.012 11.2-0.331c0.625-0.075 1.988-0.081 3.206-1.356 0.962-0.969 1.275-3.175 1.275-3.175s0.319-2.587 0.319-5.181v-2.425c-0.006-2.588-0.325-5.181-0.325-5.181zM12.694 20.15v-8.994l8.644 4.513-8.644 4.481z"></path>
        </symbol>
        <symbol id="icon-vimeo" viewBox="0 0 32 32">
          <title>vimeo</title>
          <path d="M31.988 8.563c-0.144 3.113-2.319 7.381-6.525 12.794-4.35 5.65-8.031 8.481-11.044 8.481-1.863 0-3.444-1.719-4.731-5.163-0.863-3.156-1.719-6.313-2.581-9.469-0.956-3.444-1.981-5.162-3.081-5.162-0.237 0-1.075 0.506-2.513 1.506l-1.506-1.938c1.581-1.387 3.138-2.775 4.669-4.162 2.106-1.819 3.688-2.775 4.744-2.875 2.487-0.237 4.025 1.463 4.6 5.106 0.619 3.931 1.050 6.375 1.294 7.331 0.719 3.263 1.506 4.894 2.369 4.894 0.669 0 1.675-1.056 3.019-3.175 1.337-2.113 2.056-3.725 2.156-4.831 0.194-1.825-0.525-2.744-2.156-2.744-0.769 0-1.556 0.175-2.369 0.525 1.575-5.15 4.575-7.65 9.012-7.506 3.281 0.087 4.831 2.219 4.644 6.388z"></path>
        </symbol>
        <symbol id="icon-flickr" viewBox="0 0 32 32">
          <title>flickr</title>
          <path d="M0 17c0-3.866 3.134-7 7-7s7 3.134 7 7c0 3.866-3.134 7-7 7s-7-3.134-7-7zM18 17c0-3.866 3.134-7 7-7s7 3.134 7 7c0 3.866-3.134 7-7 7s-7-3.134-7-7z"></path>
        </symbol>
        <symbol id="icon-soundcloud" viewBox="0 0 32 32">
          <title>soundcloud</title>
          <path d="M27.874 16.069c-0.565 0-1.105 0.11-1.596 0.308-0.328-3.574-3.447-6.377-7.25-6.377-0.931 0-1.834 0.176-2.635 0.474-0.311 0.116-0.393 0.235-0.393 0.466v12.585c0 0.243 0.195 0.445 0.441 0.469 0.011 0.001 11.36 0.007 11.434 0.007 2.278 0 4.125-1.776 4.125-3.965s-1.848-3.966-4.126-3.966zM12.5 24h1l0.5-7.007-0.5-6.993h-1l-0.5 6.993zM9.5 24h-1l-0.5-5.086 0.5-4.914h1l0.5 5zM4.5 24h1l0.5-4-0.5-4h-1l-0.5 4zM0.5 22h1l0.5-2-0.5-2h-1l-0.5 2z"></path>
        </symbol>
        <symbol id="icon-skype" viewBox="0 0 32 32">
          <title>skype</title>
          <path d="M13.3 1.169c-0.050-0.031-0.106-0.056-0.156-0.081-0.056 0.012-0.106 0.019-0.162 0.031l0.319 0.050z"></path>
          <path d="M1.15 13.156c-0.012 0.056-0.019 0.113-0.025 0.162 0.031 0.050 0.050 0.1 0.081 0.15l-0.056-0.313z"></path>
          <path d="M30.837 18.831c0.012-0.056 0.019-0.113 0.031-0.169-0.031-0.050-0.050-0.1-0.081-0.15l0.050 0.319z"></path>
          <path d="M18.5 30.719c0.050 0.031 0.106 0.056 0.156 0.081 0.056-0.012 0.113-0.019 0.169-0.025l-0.325-0.056z"></path>
          <path d="M30.869 18.663c-0.012 0.056-0.019 0.113-0.031 0.169l-0.056-0.325c0.031 0.056 0.056 0.106 0.087 0.156 0.163-0.9 0.25-1.819 0.25-2.738 0-2.037-0.4-4.019-1.188-5.881-0.762-1.8-1.85-3.419-3.238-4.806s-3.006-2.475-4.8-3.237c-1.863-0.788-3.844-1.188-5.881-1.188-0.963 0-1.925 0.088-2.863 0.269 0 0-0.006 0-0.006 0 0.050 0.025 0.106 0.050 0.156 0.081l-0.319-0.050c0.056-0.012 0.106-0.019 0.162-0.031-1.287-0.681-2.731-1.050-4.194-1.050-2.388 0-4.638 0.931-6.325 2.619s-2.619 3.937-2.619 6.325c0 1.519 0.394 3.019 1.125 4.338 0.012-0.056 0.019-0.113 0.025-0.162l0.056 0.319c-0.031-0.050-0.056-0.1-0.081-0.15-0.15 0.856-0.225 1.731-0.225 2.606 0 2.038 0.4 4.019 1.188 5.881 0.763 1.8 1.85 3.413 3.237 4.8s3.006 2.475 4.806 3.238c1.863 0.788 3.844 1.188 5.881 1.188 0.887 0 1.775-0.081 2.644-0.238-0.050-0.031-0.1-0.056-0.156-0.081l0.325 0.056c-0.056 0.012-0.113 0.019-0.169 0.025 1.337 0.756 2.856 1.163 4.4 1.163 2.387 0 4.637-0.931 6.325-2.619s2.619-3.938 2.619-6.325c-0.006-1.519-0.4-3.019-1.137-4.35zM16.069 25.181c-5.369 0-7.769-2.637-7.769-4.619 0-1.012 0.75-1.725 1.781-1.725 2.3 0 1.7 3.3 5.988 3.3 2.194 0 3.406-1.194 3.406-2.413 0-0.731-0.363-1.544-1.806-1.9l-4.775-1.194c-3.844-0.963-4.544-3.044-4.544-5 0-4.056 3.819-5.581 7.406-5.581 3.306 0 7.2 1.825 7.2 4.263 0 1.044-0.906 1.65-1.938 1.65-1.962 0-1.6-2.713-5.55-2.713-1.963 0-3.044 0.887-3.044 2.156s1.55 1.675 2.894 1.981l3.538 0.787c3.869 0.863 4.85 3.125 4.85 5.25 0 3.294-2.531 5.756-7.637 5.756z"></path>
        </symbol>
        <symbol id="icon-linkedin2" viewBox="0 0 32 32">
          <title>linkedin2</title>
          <path d="M12 12h5.535v2.837h0.079c0.77-1.381 2.655-2.837 5.464-2.837 5.842 0 6.922 3.637 6.922 8.367v9.633h-5.769v-8.54c0-2.037-0.042-4.657-3.001-4.657-3.005 0-3.463 2.218-3.463 4.509v8.688h-5.767v-18z"></path>
          <path d="M2 12h6v18h-6v-18z"></path>
          <path d="M8 7c0 1.657-1.343 3-3 3s-3-1.343-3-3c0-1.657 1.343-3 3-3s3 1.343 3 3z"></path>
        </symbol>
        <symbol id="icon-pinterest" viewBox="0 0 32 32">
          <title>pinterest</title>
          <path d="M16 2.138c-7.656 0-13.863 6.206-13.863 13.863 0 5.875 3.656 10.887 8.813 12.906-0.119-1.094-0.231-2.781 0.050-3.975 0.25-1.081 1.625-6.887 1.625-6.887s-0.412-0.831-0.412-2.056c0-1.925 1.119-3.369 2.506-3.369 1.181 0 1.756 0.887 1.756 1.95 0 1.188-0.756 2.969-1.15 4.613-0.331 1.381 0.688 2.506 2.050 2.506 2.462 0 4.356-2.6 4.356-6.35 0-3.319-2.387-5.638-5.787-5.638-3.944 0-6.256 2.956-6.256 6.019 0 1.194 0.456 2.469 1.031 3.163 0.113 0.137 0.131 0.256 0.094 0.4-0.106 0.438-0.338 1.381-0.387 1.575-0.063 0.256-0.2 0.306-0.463 0.188-1.731-0.806-2.813-3.337-2.813-5.369 0-4.375 3.175-8.387 9.156-8.387 4.806 0 8.544 3.425 8.544 8.006 0 4.775-3.012 8.625-7.194 8.625-1.406 0-2.725-0.731-3.175-1.594 0 0-0.694 2.644-0.863 3.294-0.313 1.206-1.156 2.712-1.725 3.631 1.3 0.4 2.675 0.619 4.106 0.619 7.656 0 13.863-6.206 13.863-13.863 0-7.662-6.206-13.869-13.863-13.869z"></path>
        </symbol>
        <symbol id="icon-pinterest2" viewBox="0 0 32 32">
          <title>pinterest2</title>
          <path d="M16 0c-8.825 0-16 7.175-16 16s7.175 16 16 16 16-7.175 16-16-7.175-16-16-16zM16 29.863c-1.431 0-2.806-0.219-4.106-0.619 0.563-0.919 1.412-2.431 1.725-3.631 0.169-0.65 0.863-3.294 0.863-3.294 0.45 0.863 1.775 1.594 3.175 1.594 4.181 0 7.194-3.844 7.194-8.625 0-4.581-3.738-8.006-8.544-8.006-5.981 0-9.156 4.019-9.156 8.387 0 2.031 1.081 4.563 2.813 5.369 0.262 0.125 0.4 0.069 0.463-0.188 0.044-0.194 0.281-1.131 0.387-1.575 0.031-0.137 0.019-0.262-0.094-0.4-0.575-0.694-1.031-1.975-1.031-3.162 0-3.056 2.313-6.019 6.256-6.019 3.406 0 5.788 2.319 5.788 5.637 0 3.75-1.894 6.35-4.356 6.35-1.363 0-2.381-1.125-2.050-2.506 0.394-1.65 1.15-3.425 1.15-4.613 0-1.063-0.569-1.95-1.756-1.95-1.394 0-2.506 1.438-2.506 3.369 0 1.225 0.412 2.056 0.412 2.056s-1.375 5.806-1.625 6.887c-0.281 1.2-0.169 2.881-0.050 3.975-5.156-2.012-8.813-7.025-8.813-12.9 0-7.656 6.206-13.863 13.862-13.863s13.863 6.206 13.863 13.863c0 7.656-6.206 13.863-13.863 13.863z"></path>
        </symbol>
        <symbol id="instagram" viewBox="0 0 409 409">
          <g fill="currentColor">
            <path data-original-fill="url(#instagram-a)" d="M287.156695,0 L121.843305,0 C54.6586236,0 0,54.6586236 0,121.843305 L0,287.156695 C0,354.341376 54.6586236,409 121.843305,409 L287.156695,409 C354.341376,409 409,354.341376 409,287.156695 L409,121.843305 C408.999258,54.6586236 354.340634,0 287.156695,0 Z M367.854615,287.156695 C367.854615,331.724552 331.724552,367.854615 287.156695,367.854615 L121.843305,367.854615 C77.2754476,367.854615 41.1453849,331.724552 41.1453849,287.156695 L41.1453849,121.843305 C41.1453849,77.2747054 77.2754476,41.1453849 121.843305,41.1453849 L287.156695,41.1453849 C331.724552,41.1453849 367.854615,77.2747054 367.854615,121.843305 L367.854615,287.156695 Z"/>
            <path data-original-fill="url(#instagram-b)" d="M204.5,99 C146.327207,99 99,146.327373 99,204.49963 C99,262.671887 146.327207,310 204.5,310 C262.672793,310 310,262.672627 310,204.49963 C310,146.326632 262.672793,99 204.5,99 Z M204.5,268.964881 C168.897072,268.964881 140.035715,240.103423 140.035715,204.50037 C140.035715,168.897317 168.897812,140.035859 204.5,140.035859 C240.102928,140.035859 268.964285,168.897317 268.964285,204.50037 C268.964285,240.102683 240.102188,268.964881 204.5,268.964881 Z"/>
            <circle cx="310.5" cy="99.5" r="25.5"  fill="currentColor" data-original-fill="url(#instagram-c)"/>
          </g>
        </symbol>

        <symbol id="linkedin" viewBox="0 0 409 409">

          <path fill="currentColor" data-original-fill="#0077B7" d="M372.002631,0 L36.9973691,0 C16.5645,0 0,16.5645 0,36.9973691 L0,372.00156 C0,392.4355 16.5645,409 36.9973691,409 L372.00156,409 C392.4355,409 409,392.4355 409,372.00156 L409,36.9973691 C409,16.5645 392.4355,0 372.002631,0 Z M126.561945,353.157581 C126.561945,359.104141 121.741741,363.924346 115.795181,363.924346 L69.9636257,363.924346 C64.0170654,363.924346 59.1968613,359.104141 59.1968613,353.157581 L59.1968613,161.033579 C59.1968613,155.087018 64.0170654,150.266814 69.9636257,150.266814 L115.795181,150.266814 C121.741741,150.266814 126.561945,155.087018 126.561945,161.033579 L126.561945,353.157581 Z M92.8794031,132.156251 C68.8329869,132.156251 49.3391047,112.662369 49.3391047,88.6159529 C49.3391047,64.5695366 68.8329869,45.0756545 92.8794031,45.0756545 C116.925819,45.0756545 136.419702,64.5695366 136.419702,88.6159529 C136.419702,112.662369 116.92689,132.156251 92.8794031,132.156251 Z M366.076414,354.024832 C366.076414,359.491728 361.643796,363.924346 356.176901,363.924346 L306.996257,363.924346 C301.529361,363.924346 297.096743,359.491728 297.096743,354.024832 L297.096743,263.907785 C297.096743,250.464319 301.04006,204.997866 261.9645,204.997866 C231.654602,204.997866 225.506754,236.11827 224.272259,250.084228 L224.272259,354.024832 C224.272259,359.491728 219.840712,363.924346 214.372746,363.924346 L166.806688,363.924346 C161.339793,363.924346 156.907175,359.491728 156.907175,354.024832 L156.907175,160.166327 C156.907175,154.699432 161.339793,150.266814 166.806688,150.266814 L214.372746,150.266814 C219.839641,150.266814 224.272259,154.699432 224.272259,160.166327 L224.272259,176.927832 C235.511194,160.061401 252.213812,147.042995 287.776469,147.042995 C366.52717,147.042995 366.076414,220.615885 366.076414,261.040503 L366.076414,354.024832 Z"/>
        </symbol>

        <symbol id="slack" viewBox="0 0 124 124">
          <g fill="currentColor">
            <path fill="currentColor" d="M26.4,78.2 C26.4,85.3 20.6,91.1 13.5,91.1 C6.4,91.1 0.6,85.3 0.6,78.2 C0.6,71.1 6.4,65.3 13.5,65.3 L26.4,65.3 L26.4,78.2 Z M32.9,78.2 C32.9,71.1 38.7,65.3 45.8,65.3 C52.9,65.3 58.7,71.1 58.7,78.2 L58.7,110.5 C58.7,117.6 52.9,123.4 45.8,123.4 C38.7,123.4 32.9,117.6 32.9,110.5 L32.9,78.2 Z"/>
            <path fill="currentColor" d="M45.8,26.4 C38.7,26.4 32.9,20.6 32.9,13.5 C32.9,6.4 38.7,0.6 45.8,0.6 C52.9,0.6 58.7,6.4 58.7,13.5 L58.7,26.4 L45.8,26.4 Z M45.8,32.9 C52.9,32.9 58.7,38.7 58.7,45.8 C58.7,52.9 52.9,58.7 45.8,58.7 L13.5,58.7 C6.4,58.7 0.6,52.9 0.6,45.8 C0.6,38.7 6.4,32.9 13.5,32.9 L45.8,32.9 Z"/>
            <path fill="currentColor" d="M97.6,45.8 C97.6,38.7 103.4,32.9 110.5,32.9 C117.6,32.9 123.4,38.7 123.4,45.8 C123.4,52.9 117.6,58.7 110.5,58.7 L97.6,58.7 L97.6,45.8 Z M91.1,45.8 C91.1,52.9 85.3,58.7 78.2,58.7 C71.1,58.7 65.3,52.9 65.3,45.8 L65.3,13.5 C65.3,6.4 71.1,0.6 78.2,0.6 C85.3,0.6 91.1,6.4 91.1,13.5 L91.1,45.8 Z"/>
            <path fill="currentColor" d="M78.2,97.6 C85.3,97.6 91.1,103.4 91.1,110.5 C91.1,117.6 85.3,123.4 78.2,123.4 C71.1,123.4 65.3,117.6 65.3,110.5 L65.3,97.6 L78.2,97.6 Z M78.2,91.1 C71.1,91.1 65.3,85.3 65.3,78.2 C65.3,71.1 71.1,65.3 78.2,65.3 L110.5,65.3 C117.6,65.3 123.4,71.1 123.4,78.2 C123.4,85.3 117.6,91.1 110.5,91.1 L78.2,91.1 Z"/>
          </g>
        </symbol>

        <symbol id="twitter" viewBox="0 0 493 409">
          <path fill="currentColor" data-original-fill="#76A9EA" d="M484.375263,47.5793835 C473.439273,52.4237557 462.086868,56.245547 450.438052,59.0123896 C463.27371,46.8277326 472.924454,31.5873208 478.369049,14.5762736 C479.923104,9.71991336 474.642916,5.5204984 470.253159,8.12070709 C454.047781,17.7231375 436.591958,24.9267586 418.369308,29.5337673 C417.31207,29.8011009 416.221231,29.9365659 415.126792,29.9365659 C411.807474,29.9365659 408.580559,28.7053929 406.042468,26.4708198 C386.654576,9.40103115 361.718887,0 335.830363,0 C324.627963,0 313.317559,1.74426171 302.212363,5.18483291 C267.804736,15.8458084 241.256188,44.1987525 232.926691,79.1798911 C229.80178,92.3008151 228.955749,105.433727 230.410201,118.212992 C230.577007,119.681528 229.882182,120.706507 229.453767,121.187228 C228.70134,122.029988 227.634502,122.513106 226.526863,122.513106 C226.403258,122.513106 226.276054,122.507112 226.150049,122.495124 C150.832962,115.50489 82.9153385,79.2566147 34.9076255,20.4288411 C32.4595381,17.4282314 27.7649706,17.7962647 25.813701,21.1397326 C16.4125656,37.2516758 11.4443883,55.6797109 11.4443883,74.4314234 C11.4443883,103.169184 23.0020007,130.251394 43.077517,149.994519 C34.6352158,147.994912 26.4641242,144.84565 18.8738534,140.634247 C15.2017224,138.596278 10.6835611,141.215668 10.6319593,145.411486 C10.1063405,188.103341 35.1272333,226.091083 72.6093707,243.196836 C71.8545438,243.214818 71.0997169,243.223209 70.3436899,243.223209 C64.4022779,243.223209 58.3864632,242.65018 52.465452,241.519707 C48.3301044,240.730893 44.8559805,244.649788 46.1400263,248.654996 C58.3060604,286.598383 91.0096273,314.56651 130.145424,320.916582 C97.6650647,342.697675 59.8409151,354.187025 20.4735105,354.187025 L8.20067255,354.179833 C4.41933763,354.179833 1.22122351,356.642179 0.257589129,360.300932 C-0.691644741,363.904541 1.05681765,367.705953 4.2813327,369.579685 C48.6421155,395.369584 99.241921,409 150.632555,409 C195.61616,409 237.694461,400.082087 275.699817,382.495614 C310.54066,366.372881 341.328959,343.325849 367.209082,313.99468 C391.317943,286.67151 410.170615,255.129744 423.241482,220.246907 C435.701526,186.995644 442.287361,151.515803 442.287361,117.64236 L442.287361,116.028768 C442.286161,110.589789 444.748649,105.472089 449.044802,101.988361 C465.347384,88.7655383 479.543891,73.2002503 491.238308,55.7252655 C494.326018,51.1110639 489.456244,45.3280271 484.375263,47.5793835 Z"/>
        </symbol>

        <symbol id="youtube" viewBox="0 0 579 409">
          <path fill="currentColor" data-original-fill="#F61C0D" d="M458.74912,0 L120.25088,0 C53.8380915,0 0,53.7441266 0,120.041004 L0,288.958996 C0,355.255873 53.8380915,409 120.25088,409 L458.74912,409 C525.161909,409 579,355.255873 579,288.958996 L579,120.041004 C579,53.7441266 525.161909,0 458.74912,0 Z M377.424288,212.718466 L219.097646,288.09891 C214.878868,290.10745 210.005733,287.036966 210.005733,282.371686 L210.005733,126.899128 C210.005733,122.167398 215.006976,119.100676 219.234546,121.239608 L377.561188,201.331722 C382.268535,203.712632 382.186898,210.451649 377.424288,212.718466 Z"/>
        </symbol>

        <svg id="facebook" viewBox="0 0 408.788 408.788">
          <path fill="currentColor" data-original-fill="#475993" d="M353.701,0H55.087C24.665,0,0.002,24.662,0.002,55.085v298.616c0,30.423,24.662,55.085,55.085,55.085  h147.275l0.251-146.078h-37.951c-4.932,0-8.935-3.988-8.954-8.92l-0.182-47.087c-0.019-4.959,3.996-8.989,8.955-8.989h37.882  v-45.498c0-52.8,32.247-81.55,79.348-81.55h38.65c4.945,0,8.955,4.009,8.955,8.955v39.704c0,4.944-4.007,8.952-8.95,8.955  l-23.719,0.011c-25.615,0-30.575,12.172-30.575,30.035v39.389h56.285c5.363,0,9.524,4.683,8.892,10.009l-5.581,47.087  c-0.534,4.506-4.355,7.901-8.892,7.901h-50.453l-0.251,146.078h87.631c30.422,0,55.084-24.662,55.084-55.084V55.085  C408.786,24.662,384.124,0,353.701,0z"/>
          </svg>
      </defs>
    </svg>


