<svg xmlns="http://www.w3.org/2000/svg" viewBox="0 0 493 409">
  <path fill="#76A9EA" d="M484.375263,47.5793835 C473.439273,52.4237557 462.086868,56.245547 450.438052,59.0123896 C463.27371,46.8277326 472.924454,31.5873208 478.369049,14.5762736 C479.923104,9.71991336 474.642916,5.5204984 470.253159,8.12070709 C454.047781,17.7231375 436.591958,24.9267586 418.369308,29.5337673 C417.31207,29.8011009 416.221231,29.9365659 415.126792,29.9365659 C411.807474,29.9365659 408.580559,28.7053929 406.042468,26.4708198 C386.654576,9.40103115 361.718887,0 335.830363,0 C324.627963,0 313.317559,1.74426171 302.212363,5.18483291 C267.804736,15.8458084 241.256188,44.1987525 232.926691,79.1798911 C229.80178,92.3008151 228.955749,105.433727 230.410201,118.212992 C230.577007,119.681528 229.882182,120.706507 229.453767,121.187228 C228.70134,122.029988 227.634502,122.513106 226.526863,122.513106 C226.403258,122.513106 226.276054,122.507112 226.150049,122.495124 C150.832962,115.50489 82.9153385,79.2566147 34.9076255,20.4288411 C32.4595381,17.4282314 27.7649706,17.7962647 25.813701,21.1397326 C16.4125656,37.2516758 11.4443883,55.6797109 11.4443883,74.4314234 C11.4443883,103.169184 23.0020007,130.251394 43.077517,149.994519 C34.6352158,147.994912 26.4641242,144.84565 18.8738534,140.634247 C15.2017224,138.596278 10.6835611,141.215668 10.6319593,145.411486 C10.1063405,188.103341 35.1272333,226.091083 72.6093707,243.196836 C71.8545438,243.214818 71.0997169,243.223209 70.3436899,243.223209 C64.4022779,243.223209 58.3864632,242.65018 52.465452,241.519707 C48.3301044,240.730893 44.8559805,244.649788 46.1400263,248.654996 C58.3060604,286.598383 91.0096273,314.56651 130.145424,320.916582 C97.6650647,342.697675 59.8409151,354.187025 20.4735105,354.187025 L8.20067255,354.179833 C4.41933763,354.179833 1.22122351,356.642179 0.257589129,360.300932 C-0.691644741,363.904541 1.05681765,367.705953 4.2813327,369.579685 C48.6421155,395.369584 99.241921,409 150.632555,409 C195.61616,409 237.694461,400.082087 275.699817,382.495614 C310.54066,366.372881 341.328959,343.325849 367.209082,313.99468 C391.317943,286.67151 410.170615,255.129744 423.241482,220.246907 C435.701526,186.995644 442.287361,151.515803 442.287361,117.64236 L442.287361,116.028768 C442.286161,110.589789 444.748649,105.472089 449.044802,101.988361 C465.347384,88.7655383 479.543891,73.2002503 491.238308,55.7252655 C494.326018,51.1110639 489.456244,45.3280271 484.375263,47.5793835 Z"/>
</svg>
