<svg xmlns="http://www.w3.org/2000/svg" viewBox="0 0 579 409">
  <path fill="#F61C0D" d="M458.74912,0 L120.25088,0 C53.8380915,0 0,53.7441266 0,120.041004 L0,288.958996 C0,355.255873 53.8380915,409 120.25088,409 L458.74912,409 C525.161909,409 579,355.255873 579,288.958996 L579,120.041004 C579,53.7441266 525.161909,0 458.74912,0 Z M377.424288,212.718466 L219.097646,288.09891 C214.878868,290.10745 210.005733,287.036966 210.005733,282.371686 L210.005733,126.899128 C210.005733,122.167398 215.006976,119.100676 219.234546,121.239608 L377.561188,201.331722 C382.268535,203.712632 382.186898,210.451649 377.424288,212.718466 Z"/>
</svg>
