<?xml version="1.0" encoding="UTF-8" standalone="no"?>
<svg width="512px" height="512px" viewBox="0 0 512 512" version="1.1" xmlns="http://www.w3.org/2000/svg" xmlns:xlink="http://www.w3.org/1999/xlink" xmlns:sketch="http://www.bohemiancoding.com/sketch/ns">
    <title>blue-and-red-on-transparent-square</title>
    <description>Created with Sketch (http://www.bohemiancoding.com/sketch)</description>
    <defs></defs>
    <g id="Page-1" stroke="none" stroke-width="1" fill="none" fill-rule="evenodd" sketch:type="MSPage">
        <g id="Rectangle-1-+-Page-1-copy" sketch:type="MSLayerGroup">
            <rect id="Rectangle-1" fill-opacity="0" fill="#FFFFFF" sketch:type="MSShapeGroup" x="0.885813149" y="0.885813149" width="510.228374" height="510.228374"></rect>
            <g id="Page-1" transform="translate(49.605536, 83.266436)" sketch:type="MSShapeGroup">
                <g id="Group">
                    <g id="Text">
                        <g id="Brighton" transform="translate(12.401384, 248.377737)" fill="#C9003A">
                            <path d="M0.854803286,73.6329829 L35.2128785,73.6329829 C39.2235074,73.6329829 42.6214951,73.4270042 46.119821,72.2819191 C53.627811,69.6783877 59.4908355,62.3929904 59.4908355,52.709064 C59.4908355,44.3869398 55.2727768,37.2040438 47.457019,34.911921 L47.457019,34.7059423 C53.1135784,31.7919785 56.6099747,26.0646 56.6099747,18.8846324 C56.6099747,10.9725132 52.3928808,4.93567855 46.6340536,2.33409958 C43.0324954,0.667722336 39.1231694,0.148382741 33.8766453,0.148382741 L0.854803286,0.148382741 L0.854803286,8.16495558 L9.90645613,8.16495558 L9.90645613,65.5168376 L0.854803286,65.5168376 L0.854803286,73.6329829 L0.854803286,73.6329829 Z M20.1959335,31.0627555 L20.1959335,8.68234277 L33.8776101,8.68234277 C36.9649358,8.68234277 39.3296341,9.09820492 41.3875297,10.1417651 C44.4738905,11.9106436 46.1207858,15.5538304 46.1207858,19.8198341 C46.1207858,26.4824145 42.0059597,31.0617793 35.4222378,31.0617793 L20.1959335,31.0627555 L20.1959335,31.0627555 Z M20.1959335,65.0990229 L20.1959335,39.5986678 L36.4487735,39.5986678 C44.0619256,39.5986678 48.9987522,44.5929185 48.9987522,52.187772 C48.9987522,57.7062434 46.3253212,62.2895129 42.1072625,64.0583914 C40.1516347,64.8920681 37.6817742,65.0960944 35.6267731,65.0960944 L20.1959335,65.0960944 L20.1959335,65.0990229 L20.1959335,65.0990229 Z" id="Shape"></path>
                            <path d="M63.6789856,73.6329829 L89.1909079,73.6329829 L89.1909079,65.8282461 L81.4754883,65.8282461 L81.4754883,51.8753873 C81.4754883,41.5754775 86.2077796,30.2290788 97.3192575,30.2290788 C98.9642233,30.2290788 100.197224,30.5404873 100.197224,30.5404873 L100.197224,20.5500335 C100.197224,20.5500335 98.9632585,20.3401499 97.6250958,20.3401499 C89.6019082,20.3401499 83.5324189,26.3789371 81.1648262,34.0792203 L80.9602909,34.0792203 C80.9602909,34.0792203 81.1648262,32.518273 81.1648262,30.4370098 L81.1648262,27.1062078 C81.1648262,22.8382514 79.0056278,20.9649195 74.4798013,20.9649195 L62.7527878,20.9649195 L62.7527878,28.7716088 L69.2342421,28.7716088 C70.6737078,28.7716088 71.496673,29.4998556 71.496673,31.0617793 L71.496673,65.8262935 L63.6780207,65.8262935 L63.6780207,73.6339592 L63.6789856,73.6329829 L63.6789856,73.6329829 Z" id="Shape"></path>
                            <path d="M112.643005,10.4561022 L123.134124,10.4561022 L123.134124,0.150335146 L112.643005,0.150335146 L112.643005,10.4561022 L112.643005,10.4561022 Z M104.720156,73.6329829 L131.056008,73.6329829 L131.056008,65.8282461 L122.825391,65.8282461 L122.825391,20.9658956 L104.205923,20.9658956 L104.205923,28.7735611 L112.846576,28.7735611 L112.846576,65.8301984 L104.719191,65.8301984 L104.719191,73.6329829 L104.720156,73.6329829 L104.720156,73.6329829 Z" id="Shape"></path>
                            <path d="M139.508527,83.4164819 L136.214737,91.1235986 C141.358028,93.7242015 147.737215,95.4950323 154.012204,95.4950323 C167.180613,95.4950323 180.242894,88.8324519 180.242894,71.4511709 L180.242894,30.8558006 C180.242894,29.5018081 181.168128,28.7735611 182.509185,28.7735611 L188.268976,28.7735611 L188.268976,20.9658956 L177.159428,20.9658956 C172.838137,20.9658956 171.193171,22.9436815 171.193171,26.2744835 C171.193171,27.6294521 171.397707,28.3586753 171.397707,28.3586753 L171.193171,28.3586753 C168.31424,22.3198881 161.114018,19.7173329 154.322866,19.7173329 C139.819189,19.7173329 131.48534,30.9583018 131.48534,46.0513647 C131.48534,61.2469289 140.332457,73.0082136 154.733867,73.0082136 C162.347018,73.0082136 167.28481,69.6793639 170.371171,64.4752297 L170.575706,64.4752297 C170.575706,64.4752297 170.267938,66.1386784 170.267938,67.8050556 L170.267938,71.9685582 C170.267938,82.7965934 162.861251,86.9581436 153.807669,86.9581436 C145.987087,86.9561913 139.508527,83.4164819 139.508527,83.4164819 L139.508527,83.4164819 L139.508527,83.4164819 Z M156.6866,64.2672987 C147.32332,64.2672987 141.666761,56.7700654 141.666761,45.8444098 C141.666761,35.1227807 146.811982,28.4592241 155.759437,28.4592241 C163.887787,28.4592241 170.471509,32.4147956 170.471509,46.1548422 C170.470544,59.890984 163.887787,64.2672987 156.6866,64.2672987 L156.6866,64.2672987 L156.6866,64.2672987 Z" id="Shape"></path>
                            <path d="M187.005102,73.6329829 L213.335166,73.6329829 L213.335166,65.8282461 L205.109374,65.8282461 L205.109374,48.963376 C205.109374,37.7233833 212.307665,28.9805161 222.492947,28.9805161 C230.822937,28.9805161 232.366599,34.8094196 232.366599,42.201223 L232.366599,73.6359116 L250.472799,73.6359116 L250.472799,65.8311746 L242.348308,65.8311746 L242.348308,39.9091002 C242.348308,26.4824145 236.688855,19.7153806 224.449538,19.7153806 C214.059724,19.7153806 207.27243,26.6893695 205.00807,31.78905 L204.8045,31.78905 C204.8045,31.78905 205.110338,29.9147416 205.110338,27.4166401 L205.110338,0.147406539 L186.491835,0.147406539 L186.491835,7.9531197 L195.234754,7.9531197 L195.234754,65.8272699 L187.007033,65.8272699 L187.005102,73.6329829 L187.005102,73.6329829 Z" id="Shape"></path>
                            <path d="M255.482949,54.3764175 C255.482949,71.9685582 268.751697,74.0498214 275.337349,74.0498214 C277.497511,74.0498214 278.936976,73.8428664 278.936976,73.8428664 L278.936976,65.4153126 C278.936976,65.4153126 278.009813,65.5168376 276.569384,65.5168376 C272.660058,65.5168376 265.456941,64.1618687 265.456941,53.4373108 L265.456941,28.772585 L277.903688,28.772585 L277.903688,20.9649195 L265.456941,20.9649195 L265.456941,6.49857835 L255.683627,6.49857835 L255.683627,20.9668718 L246.732311,20.9668718 L246.732311,28.7745375 L255.478127,28.7745375 L255.478127,54.3764175 L255.482949,54.3764175 L255.482949,54.3764175 Z" id="Shape"></path>
                            <path d="M278.203737,47.1944975 C278.203737,63.2256909 290.749856,74.8815456 306.285859,74.8815456 C321.822825,74.8815456 334.373768,63.2227622 334.373768,47.1944975 C334.373768,31.2706865 321.823788,19.7163568 306.285859,19.7163568 C290.749856,19.7163568 278.203737,31.2706865 278.203737,47.1944975 L278.203737,47.1944975 L278.203737,47.1944975 Z M288.387088,47.1944975 C288.387088,36.2678658 296.412204,28.4592241 306.285859,28.4592241 C316.057244,28.4592241 324.185593,36.2668897 324.185593,47.1944975 C324.185593,58.2275354 316.058208,66.1377022 306.285859,66.1377022 C296.415099,66.1367259 288.387088,58.2275354 288.387088,47.1944975 L288.387088,47.1944975 L288.387088,47.1944975 Z" id="Shape"></path>
                            <path d="M336.143192,73.6329829 L362.481939,73.6329829 L362.481939,65.8282461 L354.249391,65.8282461 L354.249391,49.1732595 C354.249391,38.6605375 361.140881,28.9795398 371.637788,28.9795398 C379.966813,28.9795398 381.411103,34.8084435 381.411103,42.2002468 L381.411103,73.6349354 L399.617642,73.6349354 L399.617642,65.8301984 L391.387988,65.8301984 L391.387988,39.908124 C391.387988,26.4814383 386.037267,19.7144043 374.105719,19.7144043 C360.936345,19.7144043 354.865891,29.7048581 353.839356,32.5163206 L353.633856,32.5163206 C353.633856,32.5163206 353.941623,31.1633043 353.941623,29.4979033 L353.941623,26.7928468 C353.941623,22.9407528 351.881799,20.9629669 347.357902,20.9629669 L335.630889,20.9629669 L335.630889,28.7706326 L342.00911,28.7706326 C343.450505,28.7706326 344.276365,29.4988795 344.276365,31.0598268 L344.276365,65.8253174 L336.14705,65.8253174 L336.14705,73.6300544 L336.143192,73.6300544 L336.143192,73.6329829 L336.143192,73.6329829 Z" id="Shape"></path>
                        </g>
                        <g id="UX" fill="#108BC1">
                            <path d="M205.511577,196.650519 L298.333428,196.650519 L298.333428,160.894817 L281.239596,160.894817 L299.714983,135.040111 C303.303519,129.810774 305.229502,125.688036 305.779781,125.688036 L306.332989,125.688036 C306.332989,125.688036 308.812182,130.085234 312.672927,135.040111 L332.529873,160.894817 L314.879906,160.894817 L314.879906,196.650519 L412.247428,196.650519 L412.247428,160.894817 L391.462616,160.894817 L344.033085,99.5705484 L392.288036,35.761541 L412.788927,35.761541 L412.788927,0 L319.838288,0 L319.838288,35.7586214 L336.381839,35.7586214 L318.178664,60.5125685 C314.317916,65.7389859 312.116793,69.8675636 312.116793,69.587264 L311.566513,69.587264 C311.566513,69.587264 309.084394,65.4586864 305.226575,60.5125685 L286.478972,35.7586214 L303.572804,35.7586214 L303.572804,0 L210.990971,0 L210.990971,35.7586214 L227.531595,35.7586214 L273.854708,96.2682701 L225.324617,160.897737 L205.508651,160.897737 L205.508651,196.650519 L205.511577,196.650519 L205.511577,196.650519 Z" id="Shape-copy"></path>
                            <path d="M105.417608,200.193772 C131.285562,200.193772 157.43399,191.657472 172.567941,172.93608 C182.749758,160.271953 188.806261,141.258222 188.806261,121.715357 L188.806261,35.8027617 L212.595156,35.8027617 L212.595156,0 L115.576053,0 L115.576053,35.8027617 L134.064015,35.8027617 L134.064015,121.721204 C134.064015,130.798331 132.67917,137.960638 129.675753,143.748951 C124.592148,153.11257 116.27724,157.515196 105.642572,157.515196 C94.3184035,157.515196 85.3081519,152.279404 80.9198904,143.462458 C78.3722446,138.232513 76.7595148,130.523533 76.7595148,121.718281 L76.7595148,35.8027617 L95.2445546,35.8027617 L95.2445546,0 L0,0 L0,35.8027617 L22.023112,35.8027617 L22.023112,121.718281 C22.0289552,142.363264 26.9781662,160.543828 38.5419069,173.757553 C52.8490413,190.280555 77.3438372,200.193772 105.417608,200.193772 Z" id="Shape-copy"></path>
                        </g>
                    </g>
                </g>
            </g>
        </g>
    </g>
</svg>