<?xml version="1.0" encoding="UTF-8" standalone="no"?><!DOCTYPE svg PUBLIC "-//W3C//DTD SVG 1.1//EN" "http://www.w3.org/Graphics/SVG/1.1/DTD/svg11.dtd"><svg width="100%" height="100%" viewBox="0 0 510 720" version="1.1" xmlns="http://www.w3.org/2000/svg" xmlns:xlink="http://www.w3.org/1999/xlink" xml:space="preserve" style="fill-rule:evenodd;clip-rule:evenodd;stroke-linejoin:round;stroke-miterlimit:1.41421;"><rect x="12" y="8" width="492" height="492" style="fill:#fff;"/><path d="M259.417,82.667l92.099,0l0,35.882l-17.153,0l18.812,24.84c3.871,4.964 6.362,9.107 6.362,9.107l0.552,0c0,0.281 2.209,-3.862 6.083,-9.107l18.267,-24.84l-16.601,0l0,-35.882l93.273,0l0,35.885l-20.572,0l-48.423,64.031l47.595,61.537l20.857,0l0,35.88l-97.706,0l0,-35.88l17.711,0l-19.926,-25.944c-3.874,-4.972 -6.362,-9.385 -6.362,-9.385l-0.555,0c-0.552,0 -2.485,4.137 -6.086,9.385l-18.539,25.944l17.153,0l0,35.88l-93.144,0l-0.003,0l0,-35.877l19.885,0l48.698,-64.854l-46.484,-60.72l-14.988,0l0,0.045l-23.871,0l0,86.211c0,19.61 -6.078,38.69 -16.295,51.398c-15.187,18.787 -41.426,27.353 -67.384,27.353c-28.171,0 -52.751,-9.948 -67.107,-26.528c-11.604,-13.26 -16.571,-31.504 -16.577,-52.22l0,-86.214l-22.099,0l0,-35.927l95.575,0l0,35.927l-18.549,0l0,86.214c0,8.835 1.618,16.571 4.175,21.819c4.403,8.848 13.445,14.102 24.808,14.102c10.672,0 19.016,-4.418 24.117,-13.814c3.014,-5.809 4.403,-12.996 4.403,-22.104l0,-86.217l-18.552,0l0,-35.927l96.551,0ZM-2,0l0,512l512,0l0,-512l-512,0ZM60.191,405.796l34.477,0c4.025,0 7.435,-0.207 10.945,-1.356c7.534,-2.613 13.418,-9.923 13.418,-19.641c0,-8.351 -4.233,-15.559 -12.076,-17.859l0,-0.207c5.676,-2.924 9.185,-8.671 9.185,-15.876c0,-7.94 -4.232,-13.997 -10.011,-16.608c-3.614,-1.672 -7.537,-2.193 -12.801,-2.193l-33.137,0l0,8.044l9.083,0l0,57.551l-9.083,0l0,8.145ZM79.599,363.077l0,-22.458l13.73,0c3.098,0 5.471,0.418 7.536,1.465c3.097,1.775 4.749,5.431 4.749,9.712c0,6.685 -4.129,11.281 -10.735,11.281l-15.28,0ZM79.599,397.232l0,-25.589l16.31,0c7.639,0 12.593,5.012 12.593,12.633c0,5.537 -2.683,10.137 -6.915,11.912c-1.963,0.836 -4.441,1.041 -6.503,1.041l-15.485,0l0,0.003ZM123.233,405.796l25.601,0l0,-7.832l-7.742,0l0,-14.002c0,-10.335 4.748,-21.721 15.898,-21.721c1.651,0 2.888,0.312 2.888,0.312l0,-10.025c0,0 -1.238,-0.21 -2.581,-0.21c-8.051,0 -14.141,6.059 -16.517,13.786l-0.205,0c0,0 0.205,-1.566 0.205,-3.655l0,-3.342c0,-4.283 -2.167,-6.163 -6.708,-6.163l-11.768,0l0,7.834l6.504,0c1.444,0 2.27,0.731 2.27,2.298l0,34.886l-7.846,0l0,7.834l0.001,-0.001l0,0.001ZM172.368,342.399l10.527,0l0,-10.341l-10.527,0l0,10.341ZM164.417,405.796l26.427,0l0,-7.832l-8.259,0l0,-45.018l-18.684,0l0,7.834l8.671,0l0,37.186l-8.156,0l0,7.829l0.001,0.001ZM246.988,405.796l26.421,0l0,-7.832l-8.254,0l0,-16.924c0,-11.279 7.223,-20.052 17.444,-20.052c8.359,0 9.908,5.849 9.908,13.267l0,31.543l18.169,0l0,-7.831l-8.153,0l0,-26.012c0,-13.474 -5.679,-20.264 -17.961,-20.264c-10.426,0 -17.236,6.998 -19.509,12.115l-0.204,0c0,0 0.307,-1.881 0.307,-4.387l0,-27.364l-18.683,0l0,7.833l8.773,0l0,58.075l-8.256,0l-0.002,7.832l0,0.001ZM315.703,386.472c0,17.653 13.315,19.742 19.924,19.742c2.167,0 3.612,-0.208 3.612,-0.208l0,-8.457c0,0 -0.931,0.102 -2.376,0.102c-3.923,0 -11.151,-1.36 -11.151,-12.121l0,-24.751l12.49,0l0,-7.835l-12.49,0l0,-14.516l-9.807,0l0,14.518l-8.983,0l0,7.835l8.776,0l0,25.691l0.005,0ZM396.644,405.796l26.43,0l0,-7.832l-8.261,0l0,-16.713c0,-10.549 6.915,-20.264 17.448,-20.264c8.359,0 9.808,5.849 9.808,13.267l0,31.543l18.269,0l0,-7.831l-8.258,0l0,-26.012c0,-13.474 -5.369,-20.264 -17.342,-20.264c-13.215,0 -19.307,10.025 -20.337,12.846l-0.206,0c0,0 0.309,-1.358 0.309,-3.029l0,-2.714c0,-3.866 -2.067,-5.85 -6.607,-5.85l-11.767,0l0,7.834l6.4,0c1.446,0 2.275,0.731 2.275,2.298l0,34.886l-8.157,0l0,7.832l-0.004,0l0,0.003ZM338.503,379.265c0,16.087 12.59,27.783 28.18,27.783c15.591,0 28.185,-11.699 28.185,-27.783c0,-15.979 -12.593,-27.573 -28.185,-27.573c-15.59,0 -28.18,11.594 -28.18,27.573ZM348.722,379.265c0,-10.964 8.053,-18.8 17.961,-18.8c9.805,0 17.962,7.835 17.962,18.8c0,11.072 -8.156,19.009 -17.962,19.009c-9.905,-0.001 -17.961,-7.938 -17.961,-19.009ZM199.326,415.613l-3.305,7.734c5.161,2.609 11.563,4.386 17.859,4.386c13.214,0 26.322,-6.685 26.322,-24.127l0,-40.736c0,-1.359 0.928,-2.09 2.274,-2.09l5.78,0l0,-7.834l-11.148,0c-4.336,0 -5.987,1.984 -5.987,5.327c0,1.359 0.205,2.091 0.205,2.091l-0.205,0c-2.889,-6.06 -10.114,-8.671 -16.929,-8.671c-14.554,0 -22.917,11.28 -22.917,26.425c0,15.248 8.878,27.05 23.329,27.05c7.64,0 12.595,-3.34 15.692,-8.562l0.205,0c0,0 -0.309,1.669 -0.309,3.341l0,4.178c0,10.866 -7.432,15.042 -16.517,15.042c-7.848,-0.002 -14.349,-3.554 -14.349,-3.554l0,0ZM216.564,396.397c-9.396,0 -15.072,-7.523 -15.072,-18.487c0,-10.758 5.163,-17.445 14.142,-17.445c8.156,0 14.763,3.969 14.763,17.757c-0.001,13.784 -6.607,18.175 -13.833,18.175Z" style="fill:#b83246;"/><g><path d="M51.505,717.57l88.16,0l0,-30.02l-12.16,0l0,18.62l-62.51,0c0.19,-36.29 68.4,-42.56 68.4,-87.02c0,-20.9 -15.39,-37.43 -40.66,-37.43c-28.5,0 -40.47,24.13 -40.47,24.13l9.5,6.46c0,0 10.45,-18.43 30.21,-18.43c16.72,0 27.74,10.83 27.74,25.65c0,36.86 -68.97,42.56 -68.97,89.49c0,2.66 0.19,5.51 0.76,8.55Z" style="fill:#fff;fill-rule:nonzero;"/><path d="M208.635,719.85c34.77,0 46.17,-30.4 46.17,-69.16c0,-38.38 -11.4,-68.97 -46.17,-68.97c-34.77,0 -45.98,30.59 -45.98,68.97c0,38.76 11.21,69.16 45.98,69.16ZM208.635,707.69c-25.27,0 -32.3,-24.89 -32.3,-57c0,-31.92 7.03,-56.81 32.3,-56.81c25.46,0 32.49,24.89 32.49,56.81c0,32.11 -7.03,57 -32.49,57Z" style="fill:#fff;fill-rule:nonzero;"/><path d="M276.845,717.57l72.2,0l0,-11.4l-29.26,0l0,-122.17l-12.35,0l-30.21,30.02l8.36,8.36l14.25,-14.06c5.32,-5.13 6.65,-7.98 6.65,-7.98l0.38,0c0,0 -0.19,3.61 -0.19,7.41l0,98.42l-29.83,0l0,11.4Z" style="fill:#fff;fill-rule:nonzero;"/><path d="M413.455,719.85c23.37,0 42.37,-16.91 42.37,-44.65c0,-25.27 -17.48,-43.13 -41.61,-43.13c-14.25,0 -27.55,6.08 -34.2,15.58l-0.38,0c2.28,-26.03 16.53,-53.77 44.46,-53.77c11.21,0 19.57,4.75 19.57,4.75l4.94,-11.4c0,0 -10.07,-5.51 -24.51,-5.51c-41.42,0 -58.9,41.8 -58.9,75.81c0,35.72 18.81,62.32 48.26,62.32ZM379.445,667.41c0,-11.4 14.06,-23.75 31.92,-23.75c18.81,0 30.78,12.54 30.78,31.54c0,18.81 -10.83,32.49 -28.88,32.49c-20.52,0 -33.82,-23.37 -33.82,-40.28Z" style="fill:#fff;fill-rule:nonzero;"/></g></svg>