<?xml version="1.0" encoding="UTF-8"?>
<svg width="101px" height="100px" viewBox="0 0 101 100" version="1.1" xmlns="http://www.w3.org/2000/svg" xmlns:xlink="http://www.w3.org/1999/xlink">
    <!-- Generator: Sketch 47.1 (45422) - http://www.bohemiancoding.com/sketch -->
    <title>UX-Brighton-avatar-black</title>
    <desc>Created with Sketch.</desc>
    <defs></defs>
    <g id="Page-1" stroke="none" stroke-width="1" fill="none" fill-rule="evenodd">
        <g id="The-grid" transform="translate(-3442.000000, -883.000000)">
            <g id="UX-Brighton-avatar-black" transform="translate(3442.864779, 883.000000)">
                <rect id="Rectangle-1" fill="#000000" x="0" y="0" width="100" height="100"></rect>
                <g id="Text" transform="translate(12.600188, 21.240504)" fill="#FFFFFF">
                    <g id="Brighton" transform="translate(0.166210, 44.814804)">
                        <path d="M0.157922449,13.6034818 L6.50547804,13.6034818 C7.24643019,13.6034818 7.87419865,13.5654279 8.5205043,13.3538767 C9.90758386,12.8728818 10.9907608,11.5269255 10.9907608,9.737848 C10.9907608,8.20035949 10.2114866,6.87334011 8.76754779,6.449877 L8.76754779,6.41182304 C9.81258086,5.8734766 10.45853,4.81535989 10.45853,3.48888154 C10.45853,2.02714027 9.67943406,0.911852418 8.6155073,0.431218184 C7.95012977,0.123359781 7.22789303,0.0274132847 6.2586128,0.0274132847 L0.157922449,0.0274132847 L0.157922449,1.50845206 L1.83018928,1.50845206 L1.83018928,12.1040473 L0.157922449,12.1040473 L0.157922449,13.6034818 L0.157922449,13.6034818 Z M3.73114064,5.73875474 L3.73114064,1.60403786 L6.25879105,1.60403786 C6.82916558,1.60403786 7.26603681,1.68086719 7.6462271,1.87366194 C8.21642338,2.20045715 8.52068255,2.87352543 8.52068255,3.66165735 C8.52068255,4.89254991 7.76048025,5.7385744 6.54415656,5.7385744 L3.73114064,5.73875474 L3.73114064,5.73875474 Z M3.73114064,12.0268573 L3.73114064,7.31574 L6.73380608,7.31574 C8.14031404,7.31574 9.05237856,8.23841345 9.05237856,9.6415408 C9.05237856,10.6610625 8.55846986,11.5078084 7.77919565,11.8346036 C7.41789905,11.988623 6.96159942,12.0263162 6.58194387,12.0263162 L3.73114064,12.0263162 L3.73114064,12.0268573 L3.73114064,12.0268573 Z" id="Shape"></path>
                        <path d="M11.7645095,13.6034818 L16.4777637,13.6034818 L16.4777637,12.1615792 L15.0523622,12.1615792 L15.0523622,9.58382863 C15.0523622,7.68094991 15.9266394,5.58473538 17.9794529,5.58473538 C18.2833557,5.58473538 18.511149,5.6422672 18.511149,5.6422672 L18.511149,3.79655958 C18.511149,3.79655958 18.2831774,3.75778421 18.0359557,3.75778421 C16.5536949,3.75778421 15.4323742,4.87343278 14.9949682,6.29603795 L14.9571809,6.29603795 C14.9571809,6.29603795 14.9949682,6.00765742 14.9949682,5.62315003 L14.9949682,5.00779394 C14.9949682,4.21930128 14.5960625,3.87320858 13.7599291,3.87320858 L11.5933971,3.87320858 L11.5933971,5.31547199 L12.7908271,5.31547199 C13.0567643,5.31547199 13.2088047,5.45001349 13.2088047,5.7385744 L13.2088047,12.1612184 L11.7643312,12.1612184 L11.7643312,13.6036622 L11.7645095,13.6034818 L11.7645095,13.6034818 Z" id="Shape"></path>
                        <path d="M20.8104713,1.93173482 L22.7486753,1.93173482 L22.7486753,0.0277739859 L20.8104713,0.0277739859 L20.8104713,1.93173482 L20.8104713,1.93173482 Z M19.3467477,13.6034818 L24.2122207,13.6034818 L24.2122207,12.1615792 L22.6916378,12.1615792 L22.6916378,3.87338892 L19.2517446,3.87338892 L19.2517446,5.31583267 L20.8480804,5.31583267 L20.8480804,12.1619398 L19.3465694,12.1619398 L19.3465694,13.6034818 L19.3467477,13.6034818 L19.3467477,13.6034818 Z" id="Shape"></path>
                        <path d="M25.7737992,15.4109551 L25.1652808,16.8348228 C26.1154892,17.3152767 27.2940256,17.6424326 28.4533118,17.6424326 C30.8861374,17.6424326 33.2993564,16.41154 33.2993564,13.2003983 L33.2993564,5.70052044 C33.2993564,5.45037421 33.4702906,5.31583267 33.7180471,5.31583267 L34.7821519,5.31583267 L34.7821519,3.87338892 L32.7296949,3.87338892 C31.9313487,3.87338892 31.6274461,4.23877917 31.6274461,4.85413526 C31.6274461,5.10446183 31.6652334,5.23918371 31.6652334,5.23918371 L31.6274461,5.23918371 C31.0955718,4.12353514 29.7653515,3.64272056 28.5107057,3.64272056 C25.8311931,3.64272056 24.2915384,5.71945723 24.2915384,8.50785719 C24.2915384,11.315194 25.9260179,13.4880575 28.5866369,13.4880575 C29.9931448,13.4880575 30.9053875,12.8730621 31.4755839,11.9116133 L31.5133712,11.9116133 C31.5133712,11.9116133 31.456512,12.2189306 31.456512,12.526789 L31.456512,13.2959842 C31.456512,15.2964325 30.0881478,16.065267 28.4155245,16.065267 C26.9706945,16.0649063 25.7737992,15.4109551 25.7737992,15.4109551 L25.7737992,15.4109551 L25.7737992,15.4109551 Z M28.9473987,11.8731986 C27.2175597,11.8731986 26.1725266,10.4881063 26.1725266,8.46962288 C26.1725266,6.48883272 27.1230914,5.25775982 28.7761081,5.25775982 C30.2777973,5.25775982 31.494121,5.98854028 31.494121,8.52697436 C31.4939428,11.0646871 30.2777973,11.8731986 28.9473987,11.8731986 L28.9473987,11.8731986 L28.9473987,11.8731986 Z" id="Shape"></path>
                        <path d="M34.5486547,13.6034818 L39.4130584,13.6034818 L39.4130584,12.1615792 L37.893367,12.1615792 L37.893367,9.04584291 C37.893367,6.96928658 39.2232306,5.35406702 41.104932,5.35406702 C42.6438738,5.35406702 42.9290609,6.43094018 42.9290609,7.79655459 L42.9290609,13.6040229 L46.2741293,13.6040229 L46.2741293,12.1621202 L44.773153,12.1621202 L44.773153,7.37309148 C44.773153,4.89254991 43.7275853,3.64235987 41.4664066,3.64235987 C39.5469184,3.64235987 38.2929854,4.93078426 37.8746515,5.87293556 L37.8370424,5.87293556 C37.8370424,5.87293556 37.893545,5.52666249 37.893545,5.06514542 L37.893545,0.0272329342 L34.4538302,0.0272329342 L34.4538302,1.46931599 L36.0690593,1.46931599 L36.0690593,12.1613988 L34.5490115,12.1613988 L34.5486547,13.6034818 L34.5486547,13.6034818 Z" id="Shape"></path>
                        <path d="M47.1997401,10.0458868 C47.1997401,13.2959842 49.6511031,13.6804916 50.8677834,13.6804916 C51.266867,13.6804916 51.5328042,13.6422572 51.5328042,13.6422572 L51.5328042,12.0852909 C51.5328042,12.0852909 51.3615135,12.1040473 51.0953983,12.1040473 C50.3731617,12.1040473 49.0424065,11.8537207 49.0424065,9.87238951 L49.0424065,5.31565233 L51.3419071,5.31565233 L51.3419071,3.87320858 L49.0424065,3.87320858 L49.0424065,1.20059366 L47.2368147,1.20059366 L47.2368147,3.87356927 L45.5830849,3.87356927 L45.5830849,5.31601305 L47.1988492,5.31601305 L47.1988492,10.0458868 L47.1997401,10.0458868 L47.1997401,10.0458868 Z" id="Shape"></path>
                        <path d="M51.3973404,8.71904769 C51.3973404,11.6807646 53.7151998,13.8341502 56.5854316,13.8341502 C59.4558413,13.8341502 61.774592,11.6802235 61.774592,8.71904769 C61.774592,5.7771694 59.4560194,3.64254022 56.5854316,3.64254022 C53.7151998,3.64254022 51.3973404,5.7771694 51.3973404,8.71904769 L51.3973404,8.71904769 L51.3973404,8.71904769 Z M53.2786852,8.71904769 C53.2786852,6.70038391 54.7613023,5.25775982 56.5854316,5.25775982 C58.3906669,5.25775982 59.892356,6.70020357 59.892356,8.71904769 C59.892356,10.7573697 58.390845,12.2187503 56.5854316,12.2187503 C54.7618371,12.2185699 53.2786852,10.7573697 53.2786852,8.71904769 L53.2786852,8.71904769 L53.2786852,8.71904769 Z" id="Shape"></path>
                        <path d="M62.101488,13.6034818 L66.9674957,13.6034818 L66.9674957,12.1615792 L65.4465563,12.1615792 L65.4465563,9.08461828 C65.4465563,7.14242312 66.7197393,5.35388664 68.6590126,5.35388664 C70.197776,5.35388664 70.4646044,6.43075983 70.4646044,7.79637424 L70.4646044,13.6038426 L73.8282102,13.6038426 L73.8282102,12.1619398 L72.3078053,12.1619398 L72.3078053,7.37291114 C72.3078053,4.89236957 71.319275,3.6421795 69.1149557,3.6421795 C66.6819518,3.6421795 65.5604528,5.48788712 65.3708034,6.00729673 L65.3328379,6.00729673 C65.3328379,6.00729673 65.3896969,5.75733085 65.3896969,5.44965281 L65.3896969,4.94990139 C65.3896969,4.2382381 65.0091504,3.87284786 64.1733734,3.87284786 L62.0068415,3.87284786 L62.0068415,5.31529164 L63.1851996,5.31529164 C63.4514932,5.31529164 63.6040683,5.44983315 63.6040683,5.73821368 L63.6040683,12.1610381 L62.1022009,12.1610381 L62.1022009,13.6029408 L62.101488,13.6029408 L62.101488,13.6034818 L62.101488,13.6034818 Z" id="Shape"></path>
                    </g>
                    <g id="UX">
                        <path d="M37.229285,35.6240671 L54.0443531,35.6240671 L54.0443531,29.1467717 L50.9477336,29.1467717 L54.2946275,24.463083 C54.9447058,23.5157666 55.2936056,22.7689153 55.3932911,22.7689153 L55.4935071,22.7689153 C55.4935071,22.7689153 55.9426232,23.5654862 56.6420135,24.463083 L60.2391826,29.1467717 L57.0418169,29.1467717 L57.0418169,35.6240671 L74.6803523,35.6240671 L74.6803523,29.1467717 L70.9150964,29.1467717 L62.3230377,18.0376229 L71.0646247,6.4783533 L74.7784472,6.4783533 L74.7784472,0 L57.9400486,0 L57.9400486,6.47782439 L60.9369823,6.47782439 L57.6394007,10.9621058 C56.9400101,11.9088933 56.5412674,12.6568025 56.5412674,12.606025 L56.4415819,12.606025 C56.4415819,12.606025 55.9919356,11.8581159 55.2930755,10.9621058 L51.8968685,6.47782439 L54.993488,6.47782439 L54.993488,0 L38.2219002,0 L38.2219002,6.47782439 L41.2183037,6.47782439 L49.6099302,17.4394013 L40.8185003,29.1473006 L37.2287548,29.1473006 L37.2287548,35.6240671 L37.229285,35.6240671 L37.229285,35.6240671 Z" id="Shape-copy"></path>
                        <path d="M19.0968422,36.2659422 C23.7829307,36.2659422 28.5198282,34.7195557 31.2614069,31.3280969 C33.1058859,29.0339371 34.2030468,25.58952 34.2030468,22.049248 L34.2030468,6.48582058 L38.512505,6.48582058 L38.512505,0 L20.9370873,0 L20.9370873,6.48582058 L24.2862591,6.48582058 L24.2862591,22.0503072 C24.2862591,23.6946669 24.0353888,24.9921487 23.4913071,26.0407259 C22.5703907,27.7369849 21.0641102,28.534539 19.1375954,28.534539 C17.0861748,28.534539 15.4539299,27.5860533 14.6589779,25.9888266 C14.1974611,25.0414001 13.9053084,23.6448859 13.9053084,22.0497776 L13.9053084,6.48582058 L17.2539509,6.48582058 L17.2539509,0 L0,0 L0,6.48582058 L3.9895792,6.48582058 L3.9895792,22.0497776 C3.99063772,25.7897029 4.88720806,29.0831885 6.98202825,31.4769102 C9.5738257,34.4701214 14.0111608,36.2659422 19.0968422,36.2659422 Z" id="Shape-copy"></path>
                    </g>
                </g>
            </g>
        </g>
    </g>
</svg>