<?xml version="1.0" encoding="UTF-8" standalone="no"?>
<svg width="512px" height="512px" viewBox="0 0 512 512" version="1.1" xmlns="http://www.w3.org/2000/svg" xmlns:xlink="http://www.w3.org/1999/xlink" xmlns:sketch="http://www.bohemiancoding.com/sketch/ns">
    <title>Slice 1</title>
    <description>Created with Sketch (http://www.bohemiancoding.com/sketch)</description>
    <defs></defs>
    <g id="Page-1" stroke="none" stroke-width="1" fill="none" fill-rule="evenodd" sketch:type="MSPage">
        <g id="Rectangle-1-+-Page-1-copy" sketch:type="MSLayerGroup">
            <rect id="Rectangle-1" fill="#000000" sketch:type="MSShapeGroup" x="-0.888888889" y="-0.888888889" width="512" height="512"></rect>
            <g id="Page-1" transform="translate(48.000000, 81.777778)" fill="#FFFFFF" sketch:type="MSShapeGroup">
                <g id="Group">
                    <g id="Text">
                        <g id="Brighton" transform="translate(12.444444, 249.240160)">
                            <path d="M0.857771353,73.888653 L35.3351454,73.888653 C39.3597001,73.888653 42.7694864,73.6819591 46.2799593,72.532898 C53.8140187,69.9203266 59.6974009,62.6096327 59.6974009,52.8920816 C59.6974009,44.5410612 55.4646962,37.3332245 47.6218004,35.0331429 L47.6218004,34.8264491 C53.2980005,31.9023673 56.8065371,26.155102 56.8065371,18.9502041 C56.8065371,11.0106122 52.5748005,4.95281632 46.7959774,2.34220409 C43.1819138,0.670040816 39.2590137,0.148897959 33.9942725,0.148897959 L0.857771353,0.148897959 L0.857771353,8.19330612 L9.94085355,8.19330612 L9.94085355,65.7443266 L0.857771353,65.7443266 L0.857771353,73.888653 L0.857771353,73.888653 Z M20.2660583,31.1706123 L20.2660583,8.7124898 L33.9952407,8.7124898 C37.0932862,8.7124898 39.4661954,9.12979591 41.5312364,10.1769796 C44.6283138,11.952 46.2809275,15.6078367 46.2809275,19.888653 C46.2809275,26.5743673 42.1518137,31.1696327 35.5452316,31.1696327 L20.2660583,31.1706123 L20.2660583,31.1706123 Z M20.2660583,65.3250612 L20.2660583,39.7361632 L36.5753317,39.7361632 C44.2149184,39.7361632 49.1688868,44.747755 49.1688868,52.3689796 C49.1688868,57.9066123 46.486173,62.5057959 42.2534683,64.2808164 C40.2910501,65.1173877 37.8126137,65.3221225 35.7504772,65.3221225 L20.2660583,65.3221225 L20.2660583,65.3250612 L20.2660583,65.3250612 Z" id="Shape"></path>
                            <path d="M63.9000932,73.888653 L89.5005986,73.888653 L89.5005986,66.0568164 L81.7583893,66.0568164 L81.7583893,52.0555102 C81.7583893,41.7198368 86.5071122,30.3340409 97.6571716,30.3340409 C99.3078491,30.3340409 100.545131,30.6465307 100.545131,30.6465307 L100.545131,20.6213877 C100.545131,20.6213877 99.3068809,20.4107755 97.9640718,20.4107755 C89.913026,20.4107755 83.822462,26.4705307 81.4466485,34.1975509 L81.241403,34.1975509 C81.241403,34.1975509 81.4466485,32.6311836 81.4466485,30.5426939 L81.4466485,27.2003266 C81.4466485,22.9175509 79.2799529,21.0377143 74.7384117,21.0377143 L62.9706795,21.0377143 L62.9706795,28.8715102 L69.4746388,28.8715102 C70.9191026,28.8715102 71.7449253,29.6022857 71.7449253,31.1696327 L71.7449253,66.0548571 L63.899125,66.0548571 L63.899125,73.8896327 L63.9000932,73.888653 L63.9000932,73.888653 Z" id="Shape"></path>
                            <path d="M113.034127,10.4924082 L123.561673,10.4924082 L123.561673,0.150857143 L113.034127,0.150857143 L113.034127,10.4924082 L113.034127,10.4924082 Z M105.083768,73.888653 L131.511064,73.888653 L131.511064,66.0568164 L123.251868,66.0568164 L123.251868,21.0386939 L104.567749,21.0386939 L104.567749,28.8734693 L113.238404,28.8734693 L113.238404,66.0587755 L105.082799,66.0587755 L105.082799,73.888653 L105.083768,73.888653 L105.083768,73.888653 Z" id="Shape"></path>
                            <path d="M139.992932,83.7061225 L136.687704,91.44 C141.848855,94.0496327 148.250191,95.8266123 154.546969,95.8266123 C167.761101,95.8266123 180.868738,89.140898 180.868738,71.6992652 L180.868738,30.9629388 C180.868738,29.604245 181.797184,28.8734693 183.142898,28.8734693 L188.922688,28.8734693 L188.922688,21.0386939 L177.774565,21.0386939 C173.438269,21.0386939 171.787592,23.023347 171.787592,26.3657143 C171.787592,27.7253877 171.992838,28.4571429 171.992838,28.4571429 L171.787592,28.4571429 C168.898665,22.3973877 161.673441,19.7857959 154.85871,19.7857959 C140.304673,19.7857959 131.941886,31.0657959 131.941886,46.2112652 C131.941886,61.4595918 140.819723,73.2617143 155.271137,73.2617143 C162.910723,73.2617143 167.86566,69.9213061 170.962737,64.699102 L171.167983,64.699102 C171.167983,64.699102 170.859146,66.3683266 170.859146,68.0404898 L170.859146,72.2184491 C170.859146,83.0840816 163.426742,87.2600816 154.341723,87.2600816 C146.493987,87.2581225 139.992932,83.7061225 139.992932,83.7061225 L139.992932,83.7061225 L139.992932,83.7061225 Z M157.230651,64.4904491 C147.834859,64.4904491 142.158659,56.9671836 142.158659,46.0035918 C142.158659,35.2447348 147.321746,28.5580409 156.300269,28.5580409 C164.456842,28.5580409 171.063424,32.527347 171.063424,46.315102 C171.062456,60.0989388 164.456842,64.4904491 157.230651,64.4904491 L157.230651,64.4904491 L157.230651,64.4904491 Z" id="Shape"></path>
                            <path d="M187.654425,73.888653 L214.075913,73.888653 L214.075913,66.0568164 L205.821559,66.0568164 L205.821559,49.1333877 C205.821559,37.8543673 213.044844,29.0811429 223.265492,29.0811429 C231.624405,29.0811429 233.173428,34.9302857 233.173428,42.347755 L233.173428,73.8915918 L251.342496,73.8915918 L251.342496,66.059755 L243.189796,66.059755 L243.189796,40.0476734 C243.189796,26.5743673 237.510692,19.7838368 225.228876,19.7838368 C214.802987,19.7838368 207.992126,26.7820409 205.719904,31.8994286 L205.515627,31.8994286 C205.515627,31.8994286 205.822526,30.0186123 205.822526,27.5118368 L205.822526,0.147918367 L187.139376,0.147918367 L187.139376,7.9807347 L195.912652,7.9807347 L195.912652,66.0558368 L187.656363,66.0558368 L187.654425,73.888653 L187.654425,73.888653 Z" id="Shape"></path>
                            <path d="M256.370043,54.5652245 C256.370043,72.2184491 269.684862,74.3069388 276.293381,74.3069388 C278.461044,74.3069388 279.905508,74.0992652 279.905508,74.0992652 L279.905508,65.6424491 C279.905508,65.6424491 278.975125,65.7443266 277.529694,65.7443266 C273.606795,65.7443266 266.378667,64.384653 266.378667,53.6228571 L266.378667,28.8724898 L278.868631,28.8724898 L278.868631,21.0377143 L266.378667,21.0377143 L266.378667,6.52114286 L256.571417,6.52114286 L256.571417,21.0396734 L247.58902,21.0396734 L247.58902,28.8744491 L256.365204,28.8744491 L256.365204,54.5652245 L256.370043,54.5652245 L256.370043,54.5652245 Z" id="Shape"></path>
                            <path d="M279.169723,47.3583673 C279.169723,63.4452245 291.759404,75.1415509 307.349351,75.1415509 C322.940265,75.1415509 335.534788,63.4422857 335.534788,47.3583673 C335.534788,31.3792652 322.941232,19.7848164 307.349351,19.7848164 C291.759404,19.7848164 279.169723,31.3792652 279.169723,47.3583673 L279.169723,47.3583673 L279.169723,47.3583673 Z M289.388432,47.3583673 C289.388432,36.3937959 297.441413,28.5580409 307.349351,28.5580409 C317.154665,28.5580409 325.311237,36.3928164 325.311237,47.3583673 C325.311237,58.4297143 317.155632,66.367347 307.349351,66.367347 C297.444318,66.3663673 289.388432,58.4297143 289.388432,47.3583673 L289.388432,47.3583673 L289.388432,47.3583673 Z" id="Shape"></path>
                            <path d="M337.310356,73.888653 L363.740556,73.888653 L363.740556,66.0568164 L355.479424,66.0568164 L355.479424,49.344 C355.479424,38.7947755 362.394843,29.0801632 372.928197,29.0801632 C381.286142,29.0801632 382.735447,34.9293061 382.735447,42.3467755 L382.735447,73.8906123 L401.005204,73.8906123 L401.005204,66.0587755 L392.746974,66.0587755 L392.746974,40.0466939 C392.746974,26.5733877 387.377675,19.7828571 375.404697,19.7828571 C362.189596,19.7828571 356.098064,29.808 355.067964,32.6292245 L354.861751,32.6292245 C354.861751,32.6292245 355.170587,31.2715102 355.170587,29.6003266 L355.170587,26.8858775 C355.170587,23.0204082 353.103611,21.035755 348.564005,21.035755 L336.796274,21.035755 L336.796274,28.8705307 L343.196642,28.8705307 C344.643042,28.8705307 345.471769,29.6013061 345.471769,31.1676734 L345.471769,66.0538775 L337.314228,66.0538775 L337.314228,73.8857143 L337.310356,73.8857143 L337.310356,73.888653 L337.310356,73.888653 Z" id="Shape"></path>
                        </g>
                        <g id="UX">
                            <path d="M206.225159,197.333333 L299.369308,197.333333 L299.369308,161.45348 L282.216123,161.45348 L300.75566,135.509 C304.356656,130.261506 306.289326,126.124452 306.841516,126.124452 L307.396645,126.124452 C307.396645,126.124452 309.884446,130.536919 313.758597,135.509 L333.684491,161.45348 L315.973239,161.45348 L315.973239,197.333333 L413.678843,197.333333 L413.678843,161.45348 L392.821861,161.45348 L345.227644,99.9162795 L393.650148,35.8857131 L414.222222,35.8857131 L414.222222,0 L320.948837,0 L320.948837,35.8827833 L337.549831,35.8827833 L319.283451,60.7226816 C315.409298,65.9672462 313.200532,70.1101593 313.200532,69.8288864 L312.648341,69.8288864 C312.648341,69.8288864 310.157604,65.6859735 306.286389,60.7226816 L287.473691,35.8827833 L304.626876,35.8827833 L304.626876,0 L211.723579,0 L211.723579,35.8827833 L228.321636,35.8827833 L274.805593,96.6025349 L226.106994,161.45641 L206.222222,161.45641 L206.222222,197.333333 L206.225159,197.333333 L206.225159,197.333333 Z" id="Shape-copy"></path>
                            <path d="M105.783641,200.888889 C131.741414,200.888889 157.980636,192.322949 173.167135,173.536552 C183.384306,160.828453 189.461838,141.748702 189.461838,122.13798 L189.461838,35.9270768 L213.333333,35.9270768 L213.333333,0 L115.977359,0 L115.977359,35.9270768 L134.529515,35.9270768 L134.529515,122.143847 C134.529515,131.252492 133.139862,138.439668 130.126016,144.248079 C125.02476,153.644211 116.680981,158.062124 106.009386,158.062124 C94.645898,158.062124 85.6043607,152.808152 81.2008622,143.960592 C78.6443705,138.712487 77.0260409,130.976739 77.0260409,122.140914 L77.0260409,35.9270768 L95.5752649,35.9270768 L95.5752649,0 L0,0 L0,35.9270768 L22.0995812,35.9270768 L22.0995812,122.140914 C22.1054446,142.85758 27.0718404,161.101272 38.675733,174.360878 C53.0325449,190.941252 77.6123922,200.888889 105.783641,200.888889 Z" id="Shape-copy"></path>
                        </g>
                    </g>
                </g>
            </g>
        </g>
    </g>
</svg>