<?xml version="1.0" encoding="UTF-8" standalone="no"?><!DOCTYPE svg PUBLIC "-//W3C//DTD SVG 1.1//EN" "http://www.w3.org/Graphics/SVG/1.1/DTD/svg11.dtd"><svg width="100%" height="100%" viewBox="0 0 131 26" version="1.1" xmlns="http://www.w3.org/2000/svg" xmlns:xlink="http://www.w3.org/1999/xlink" xml:space="preserve" style="fill-rule:evenodd;clip-rule:evenodd;stroke-linejoin:round;stroke-miterlimit:1.41421;"><g id="Layer-1"><rect x="0" y="5.178" width="8.985" height="8.984" style="fill:#e5214b;fill-rule:nonzero;"/><path d="M7.003,9.01l-1.85,0l0,-1.85l-1.321,0l0,1.85l-1.85,0l0,1.321l1.85,0l0,1.85l1.321,0l0,-1.85l1.85,0l0,-1.321Z" style="fill:#fff;fill-rule:nonzero;"/><rect x="10.993" y="16.17" width="8.985" height="8.985" style="fill:#8cc641;fill-rule:nonzero;"/><path d="M17.727,19.355l-0.934,-0.934l-1.308,1.308l-1.308,-1.308l-0.934,0.934l1.308,1.308l-1.308,1.308l0.934,0.934l1.308,-1.308l1.308,1.308l0.934,-0.934l-1.308,-1.308l1.308,-1.308Z" style="fill:#fff;fill-rule:nonzero;"/><rect x="10.992" y="5.177" width="8.985" height="8.985" style="fill:#faad21;fill-rule:nonzero;"/><rect x="12.974" y="9.01" width="5.021" height="1.321" style="fill:#fff;fill-rule:nonzero;"/><rect x="0" y="16.17" width="8.985" height="8.985" style="fill:#22a9e1;fill-rule:nonzero;"/><rect x="1.982" y="20.002" width="5.021" height="1.321" style="fill:#fff;fill-rule:nonzero;"/><path d="M4.492,19.21c0.365,0 0.661,-0.296 0.661,-0.661c0,-0.364 -0.296,-0.66 -0.661,-0.66c-0.365,0 -0.661,0.296 -0.661,0.66c0,0.365 0.296,0.661 0.661,0.661" style="fill:#fff;fill-rule:nonzero;"/><path d="M4.492,22.116c-0.365,0 -0.661,0.296 -0.661,0.661c0,0.364 0.296,0.66 0.661,0.66c0.365,0 0.661,-0.296 0.661,-0.66c0,-0.365 -0.296,-0.661 -0.661,-0.661" style="fill:#fff;fill-rule:nonzero;"/><path d="M39.543,11.875c-1.102,-1.693 -2.637,-2.87 -4.96,-2.87c-3.58,0 -6.179,2.752 -6.177,6.173c0,3.421 2.597,6.169 6.179,6.169c2.242,0 3.856,-1.137 4.958,-2.869l3.578,2.126c-1.689,2.673 -4.917,4.599 -8.536,4.599c-6.649,0 -10.507,-4.993 -10.506,-10.025c0,-5.032 3.857,-10.027 10.504,-10.027c4.053,0 6.69,1.926 8.539,4.6l-3.579,2.124Z" style="fill:#202020;fill-rule:nonzero;"/><path d="M44.259,5.18l3.859,0l0,2.595l0.081,0.001c0.667,-1.575 2.086,-2.596 3.736,-2.596c0.905,0 1.692,0.236 2.242,0.588l-1.453,4.05c-0.396,-0.313 -1.143,-0.551 -1.536,-0.551c-1.497,0 -2.831,1.142 -2.831,2.871l0,13.023l-4.098,0l0,-19.981Z" style="fill:#202020;fill-rule:nonzero;"/><path d="M55.083,5.18l4.091,0l0,11.136c0,2.793 2.048,4.797 4.606,4.797c2.555,0 4.604,-2.004 4.603,-4.797l0.001,-11.136l4.092,0l0,11.491c0,5.346 -4.172,8.531 -8.699,8.531c-4.524,0 -8.694,-3.185 -8.694,-8.532l0,-11.49Z" style="fill:#202020;fill-rule:nonzero;"/><path d="M73.997,5.179l4.092,0l0,2.881l0.08,0c1.141,-1.767 3.226,-2.909 5.825,-2.909c4.013,0 7.393,3.343 7.393,8.061l0,11.95l-4.09,0l0,-11.044c0,-3.463 -1.811,-4.88 -4.524,-4.88c-2.636,0.002 -4.684,1.695 -4.684,4.798l0,11.126l-4.092,0l0,-19.983Z" style="fill:#202020;fill-rule:nonzero;"/><path d="M107.961,11.874c-1.101,-1.692 -2.635,-2.87 -4.957,-2.869c-3.582,-0.001 -6.18,2.752 -6.18,6.174c0,3.417 2.597,6.169 6.18,6.169c2.241,0 3.855,-1.138 4.956,-2.869l3.582,2.125c-1.692,2.673 -4.92,4.599 -8.538,4.599c-6.647,0 -10.506,-4.993 -10.506,-10.026c0,-5.034 3.859,-10.026 10.506,-10.026c4.052,0 6.688,1.927 8.538,4.6l-3.581,2.123Z" style="fill:#202020;fill-rule:nonzero;"/><path d="M112.653,0.001l4.094,-0.001l0,8.061l0.076,0c1.141,-1.769 3.226,-2.91 5.823,-2.91c4.012,0 7.396,3.343 7.396,8.061l0,11.949l-4.093,0l0,-11.046c0,-3.459 -1.808,-4.877 -4.521,-4.875c-2.638,-0.002 -4.681,1.689 -4.681,4.796l0,11.125l-4.094,0l0,-25.16Z" style="fill:#202020;fill-rule:nonzero;"/></g></svg>