<?xml version="1.0" encoding="UTF-8" standalone="no"?><!DOCTYPE svg PUBLIC "-//W3C//DTD SVG 1.1//EN" "http://www.w3.org/Graphics/SVG/1.1/DTD/svg11.dtd"><svg width="100%" height="100%" viewBox="0 0 156 177" version="1.1" xmlns="http://www.w3.org/2000/svg" xmlns:xlink="http://www.w3.org/1999/xlink" xml:space="preserve" style="fill-rule:evenodd;clip-rule:evenodd;stroke-linejoin:round;stroke-miterlimit:1.41421;"><g><path d="M149.903,148.503c0.601,0 1.204,0.104 1.786,0.207c0.577,0.1 1.122,0.196 1.659,0.196c1.037,0 2.136,-0.698 2.136,-1.99c0,-2.229 -3.108,-2.469 -4.445,-2.469c-3.759,0 -8.074,0.744 -8.074,6.535l0,0.869l-1.895,0c-1.338,0 -2.136,0.731 -2.136,1.953c0,1.496 1.141,2.029 2.211,2.029l1.966,0l0,10.213c0,1.311 0,2.797 2.174,2.797c0.684,0 1.176,-0.162 1.509,-0.496c0.522,-0.523 0.52,-1.355 0.519,-2.158l0,-10.356l5.009,0c1.082,0 2.174,-0.626 2.174,-2.029c0,-1.222 -0.812,-1.953 -2.174,-1.953l-5.15,0c0.064,-2.312 0.521,-3.348 2.731,-3.348Z" style="fill:#009b4f;fill-rule:nonzero;"/><path d="M128.994,150.972c-5.639,0 -9.577,3.682 -9.577,8.953c0,5.272 3.938,8.955 9.577,8.955c5.617,0 9.54,-3.683 9.54,-8.955c0,-5.271 -3.923,-8.953 -9.54,-8.953ZM128.994,165.082c-2.993,0 -5.083,-2.075 -5.083,-5.047c0,-2.993 2.09,-5.082 5.083,-5.082c2.993,0 5.083,2.089 5.083,5.082c0,2.972 -2.09,5.047 -5.083,5.047Z" style="fill:#009b4f;fill-rule:nonzero;"/><path d="M107.905,150.972c-5.638,0 -9.577,3.682 -9.577,8.953c0,5.272 3.939,8.955 9.577,8.955c5.618,0 9.541,-3.683 9.541,-8.955c0,-5.271 -3.923,-8.953 -9.541,-8.953ZM107.905,165.082c-2.993,0 -5.083,-2.075 -5.083,-5.047c0,-2.993 2.09,-5.082 5.083,-5.082c2.993,0 5.083,2.089 5.083,5.082c0,2.972 -2.09,5.047 -5.083,5.047Z" style="fill:#009b4f;fill-rule:nonzero;"/><path d="M93.418,150.972c-2.28,0 -4.331,0.875 -6.256,2.672l0,-0.023c0.002,-0.842 0.004,-1.639 -0.512,-2.159c-0.332,-0.33 -0.826,-0.49 -1.516,-0.49c-0.675,0 -1.166,0.162 -1.499,0.496c-0.532,0.531 -0.53,1.377 -0.528,2.196l0,12.498c0,0.697 0,1.355 0.252,1.855c0.295,0.58 0.887,0.863 1.812,0.863c0.665,0 1.147,-0.16 1.473,-0.486c0.522,-0.523 0.52,-1.359 0.518,-2.166l0,-7.594c1.998,-2.279 3.697,-3.388 5.192,-3.388c0.446,0 0.88,0.234 1.339,0.482c0.498,0.268 1.012,0.545 1.594,0.545c1.264,0 2.246,-1.268 2.246,-2.357c0,-2.161 -2.461,-2.944 -4.115,-2.944Z" style="fill:#009b4f;fill-rule:nonzero;"/><path d="M72.307,150.898c-1.758,0 -3.397,0.504 -4.768,1.461c-0.186,-0.957 -0.849,-1.426 -2.014,-1.426c-0.692,0 -1.19,0.162 -1.522,0.496c-0.512,0.516 -0.508,1.301 -0.505,2.131l0,19.873c-0.003,0.815 -0.006,1.584 0.499,2.094c0.335,0.336 0.848,0.5 1.566,0.5c0.677,0 1.164,-0.16 1.49,-0.486c0.509,-0.512 0.505,-1.323 0.501,-2.106l0,-6.01c1.39,0.965 3.073,1.455 5.009,1.455c4.771,0 8.368,-3.74 8.368,-8.699c0,-5.205 -3.788,-9.283 -8.624,-9.283ZM67.517,159.999c0,-2.773 1.934,-4.863 4.497,-4.863c2.541,0 4.531,2.135 4.531,4.863c0,2.772 -1.947,4.864 -4.531,4.864c-2.606,0 -4.497,-2.045 -4.497,-4.864Z" style="fill:#009b4f;fill-rule:nonzero;"/><path d="M59.459,144.982c-0.333,-0.336 -0.849,-0.498 -1.574,-0.498c-0.693,0 -1.191,0.162 -1.522,0.494c-0.513,0.516 -0.509,1.301 -0.506,2.133l0.001,19.051c-0.001,0.697 -0.001,1.355 0.258,1.855c0.301,0.58 0.902,0.863 1.844,0.863c0.675,0 1.164,-0.16 1.489,-0.488c0.51,-0.51 0.505,-1.32 0.501,-2.103l0,-19.008l0,-0.209c0.004,-0.817 0.008,-1.59 -0.491,-2.09Z" style="fill:#009b4f;fill-rule:nonzero;"/><path d="M43.722,150.972c-5.639,0 -9.577,3.682 -9.577,8.953c0,5.272 3.938,8.955 9.577,8.955c5.616,0 9.54,-3.683 9.54,-8.955c0,-5.271 -3.924,-8.953 -9.54,-8.953ZM43.722,165.082c-2.993,0 -5.083,-2.075 -5.083,-5.047c0,-2.993 2.09,-5.082 5.083,-5.082c2.993,0 5.082,2.089 5.082,5.082c0,2.972 -2.089,5.047 -5.082,5.047Z" style="fill:#009b4f;fill-rule:nonzero;"/><path d="M22.499,150.972c-5.64,0 -9.578,3.682 -9.578,8.953c0,5.272 3.938,8.955 9.578,8.955c5.617,0 9.541,-3.683 9.541,-8.955c0,-5.271 -3.924,-8.953 -9.541,-8.953ZM22.499,165.082c-2.994,0 -5.082,-2.075 -5.082,-5.047c0,-2.993 2.088,-5.082 5.082,-5.082c2.993,0 5.083,2.089 5.083,5.082c0,2.972 -2.09,5.047 -5.083,5.047Z" style="fill:#009b4f;fill-rule:nonzero;"/><path d="M12.545,150.701c1.099,0 1.992,-0.893 1.992,-1.991c0,-1.136 -0.875,-2.027 -1.992,-2.027l-10.554,0c-1.228,0 -1.991,0.818 -1.991,2.137l0,17.189c0,1.28 0,2.871 2.137,2.871c2.137,0 2.137,-1.525 2.137,-2.871l0,-7.502l4.827,0c1.014,0 1.807,-0.793 1.807,-1.806c0,-0.996 -0.795,-1.807 -1.771,-1.807l-4.863,0l0,-4.193l8.271,0Z" style="fill:#009b4f;fill-rule:nonzero;"/><path d="M37.262,102.316c-0.724,0 -0.898,0.422 -0.385,0.924l18.885,18.89c0.508,0.512 1.514,0.924 2.232,0.924l18.125,0c0.714,0 1.309,-0.584 1.309,-1.303l0,-38.857c0,-0.728 0.584,-1.313 1.313,-1.313l38.859,0c0.718,0 1.302,-0.585 1.302,-1.314l0,-18.121c0,-0.719 -0.41,-1.723 -0.923,-2.227l-18.88,-18.89c-0.514,-0.513 -0.924,-0.338 -0.924,0.382l0,18.121c0,0.716 -0.595,1.312 -1.318,1.312l-38.863,0c-0.718,0 -1.303,0.583 -1.303,1.302l0,38.857c0,0.729 -0.585,1.313 -1.314,1.313l-18.115,0Z" style="fill:#009b4f;fill-rule:nonzero;"/><path d="M56.69,39.532c0,0.718 0.585,1.312 1.304,1.312l59.606,0c0.718,0 1.302,-0.594 1.302,-1.312l0,-18.121c0,-0.718 -0.41,-1.724 -0.923,-2.237l-18.88,-18.88c-0.514,-0.512 -0.924,-0.338 -0.924,0.38l0,18.12c0,0.718 -0.594,1.314 -1.318,1.314l-38.863,0c-0.719,0 -1.304,0.585 -1.304,1.303l0,18.121Z" style="fill:#009b4f;fill-rule:nonzero;"/></g></svg>