<?xml version="1.0" encoding="UTF-8" standalone="no"?><!DOCTYPE svg PUBLIC "-//W3C//DTD SVG 1.1//EN" "http://www.w3.org/Graphics/SVG/1.1/DTD/svg11.dtd"><svg width="100%" height="100%" viewBox="0 0 377 64" version="1.1" xmlns="http://www.w3.org/2000/svg" xmlns:xlink="http://www.w3.org/1999/xlink" xml:space="preserve" style="fill-rule:evenodd;clip-rule:evenodd;stroke-linejoin:round;stroke-miterlimit:1.41421;"><g><path d="M184.795,37.045c0,5.28 -3.334,7.679 -7.502,7.679c-4.779,0 -7.722,-2.557 -7.722,-7.838l0,-22.888l-7.108,0l0,22.627c0,9.355 5.721,13.958 14.606,13.958c9.112,0 14.835,-5.177 14.835,-14.114l0,-22.471l-7.109,0l0,23.047Z" style="fill:#30495d;fill-rule:nonzero;"/><rect x="196.679" y="13.998" width="7.109" height="36.061" style="fill:#30495d;fill-rule:nonzero;"/><path d="M219.728,13.998l-11.162,0l0,36.061l10.39,0c13.16,0 21.161,-7.684 21.161,-18.033c0,-11.288 -7.441,-18.028 -20.389,-18.028ZM218.788,44.622l-3.111,0l0,-25.088l4,0c8.83,0 13.11,4.6 13.11,12.492c0,7.218 -4.611,12.596 -13.999,12.596Z" style="fill:#30495d;fill-rule:nonzero;"/><path d="M87.895,14.26l-7.111,0l0,36.061l23.443,0l0,-5.438l-16.332,0l0,-30.623Z" style="fill:#30495d;fill-rule:nonzero;"/><rect x="109.004" y="14.26" width="7.108" height="36.06" style="fill:#30495d;fill-rule:nonzero;"/><path d="M64,32.001c0,17.667 -14.337,31.999 -31.997,31.999c-17.673,0 -32.003,-14.332 -32.003,-31.999c0,-17.671 14.33,-32.001 32.003,-32.001c17.66,0 31.997,14.33 31.997,32.001Z" style="fill:#d92438;fill-rule:nonzero;"/><path d="M53.46,31.177c-0.153,0.436 -0.324,0.857 -0.525,1.268c-1.406,2.92 -3.949,5.197 -7.094,6.235c-1.094,0.356 -2.277,0.567 -3.498,0.609c-1.405,0.016 -1.952,-0.185 -3.214,-0.589c0.859,4.09 3.066,7.398 6.982,8.7c1.861,-0.726 3.483,-1.892 4.747,-3.393c1.806,-2.092 2.845,-4.834 2.778,-7.829l-0.101,-3.851c-0.003,-0.4 -0.029,-0.771 -0.075,-1.15Z" style="fill:#fff;fill-rule:nonzero;"/><path d="M34.798,40.463c-0.139,-0.732 -0.203,-1.49 -0.203,-2.249l0,-5.565l0,-7.286l0,-0.659l0,-0.826c0,-1.128 -0.196,-2.208 -0.524,-3.234c-0.081,-0.309 -0.212,-0.612 -0.343,-0.908c-1.274,-2.988 -3.89,-5.264 -7.097,-6.078c-0.016,-0.01 -0.062,-0.011 -0.075,-0.019l-0.145,0l0,24.575c0,6.744 5.46,12.203 12.198,12.203c1.445,0 2.814,-0.24 4.094,-0.691c-4.038,-1.45 -7.105,-4.947 -7.905,-9.263Z" style="fill:#fff;fill-rule:nonzero;"/><path d="M22.028,40.463c-0.141,-0.732 -0.217,-1.49 -0.217,-2.249l0,-5.565l0,-7.286l0,-0.659l0,-0.826c0,-1.128 -0.166,-2.208 -0.491,-3.234c-0.113,-0.309 -0.227,-0.612 -0.343,-0.908c-1.284,-2.988 -3.907,-5.264 -7.104,-6.078c-0.033,-0.01 -0.054,-0.011 -0.093,-0.019l-0.138,0l0,24.575c0,6.744 5.471,12.203 12.21,12.203c1.442,0 2.808,-0.24 4.095,-0.691c-4.056,-1.45 -7.117,-4.947 -7.919,-9.263Z" style="fill:#fff;fill-rule:nonzero;"/><path d="M156.293,39.447c0.931,-2.266 1.393,-4.753 1.393,-7.474c0,-2.823 -0.436,-5.374 -1.309,-7.655c-0.868,-2.286 -2.097,-4.236 -3.688,-5.857c-1.594,-1.621 -3.54,-2.866 -5.838,-3.738c-2.294,-0.87 -4.852,-1.303 -7.665,-1.303c-2.664,0 -5.119,0.459 -7.356,1.381c-2.244,0.927 -4.179,2.208 -5.804,3.845c-1.632,1.636 -2.901,3.591 -3.805,5.85c-0.91,2.265 -1.364,4.756 -1.364,7.477c0,2.821 0.438,5.374 1.306,7.656c0.866,2.282 2.102,4.235 3.694,5.856c1.591,1.616 3.525,2.864 5.808,3.733c1.889,0.727 3.988,1.133 6.257,1.255c-0.666,-1.406 -1.072,-2.955 -1.072,-4.619l0,-0.86l0,-0.672c-2.415,-0.396 -4.353,-1.407 -5.8,-3.043c-1.907,-2.166 -2.86,-5.281 -2.86,-9.359c0,-1.88 0.245,-3.587 0.722,-5.124c0.479,-1.53 1.194,-2.845 2.138,-3.945c0.943,-1.096 2.1,-1.939 3.474,-2.533c1.368,-0.595 2.925,-0.892 4.662,-0.892c3.632,0 6.397,1.083 8.305,3.242c1.906,2.161 2.864,5.282 2.864,9.355c0,3.802 -0.958,6.834 -2.864,9.092c-0.331,0.397 -0.721,0.708 -1.105,1.034c-0.077,-0.502 -0.187,-0.999 -0.34,-1.474c-0.091,-0.277 -0.189,-0.545 -0.301,-0.808c-1.132,-2.64 -3.44,-4.652 -6.27,-5.368c-0.027,-0.01 -0.05,-0.014 -0.082,-0.022l-0.124,0l0,10.116c0,5.963 4.834,10.797 10.785,10.797c1.266,0 2.483,-0.217 3.617,-0.621c-2.847,-1.014 -5.128,-3.195 -6.301,-5.961c1.937,-0.892 3.641,-2.051 5.093,-3.509c1.628,-1.634 2.907,-3.586 3.83,-5.852Z" style="fill:#30495d;fill-rule:nonzero;"/><path d="M266.047,48.593l0,1.521l-21.164,0l0,-36.171l1.855,0l0,34.65l19.309,0Z" style="fill:#979898;fill-rule:nonzero;"/><rect x="270.794" y="13.943" width="1.852" height="36.17" style="fill:#979898;fill-rule:nonzero;"/><path d="M294.938,15.044c-2.143,0 -4.161,0.403 -6.052,1.204c-1.893,0.805 -3.551,1.943 -4.955,3.408c-1.411,1.468 -2.525,3.233 -3.352,5.297c-0.826,2.062 -1.238,4.35 -1.238,6.866c0,2.586 0.374,4.935 1.123,7.053c0.753,2.112 1.81,3.924 3.182,5.423c1.375,1.503 3.044,2.673 5.013,3.513c1.972,0.837 4.174,1.257 6.618,1.257c1.987,0 3.892,-0.335 5.708,-0.996c1.828,-0.663 3.43,-1.657 4.82,-2.988c1.387,-1.326 2.507,-3.014 3.348,-5.059c0.847,-2.043 1.291,-4.445 1.325,-7.206l-12.216,0l0,-1.468l14.07,0l0,1.1c0,2.725 -0.409,5.205 -1.232,7.443c-0.829,2.237 -1.981,4.15 -3.464,5.738c-1.485,1.593 -3.274,2.825 -5.381,3.697c-2.102,0.873 -4.427,1.309 -6.978,1.309c-2.669,0 -5.095,-0.45 -7.293,-1.359c-2.194,-0.91 -4.075,-2.184 -5.63,-3.826c-1.556,-1.646 -2.77,-3.619 -3.634,-5.925c-0.864,-2.31 -1.296,-4.874 -1.296,-7.706c0,-2.76 0.475,-5.277 1.408,-7.55c0.939,-2.27 2.203,-4.211 3.802,-5.817c1.595,-1.607 3.463,-2.85 5.598,-3.722c2.147,-0.877 4.396,-1.31 6.761,-1.31c3.414,0 6.393,0.645 8.928,1.936c2.532,1.295 4.396,3.338 5.597,6.133l-1.74,0.789c-0.531,-1.259 -1.236,-2.341 -2.111,-3.25c-0.885,-0.908 -1.893,-1.66 -3.013,-2.255c-1.127,-0.593 -2.349,-1.027 -3.664,-1.309c-1.313,-0.279 -2.667,-0.42 -4.052,-0.42Z" style="fill:#979898;fill-rule:nonzero;"/><path d="M317.109,50.114l0,-36.171l1.859,0l0,16.618l24.442,0l0,-16.618l1.852,0l0,36.171l-1.852,0l0,-18.034l-24.442,0l0,18.034l-1.859,0Z" style="fill:#979898;fill-rule:nonzero;"/><path d="M350.041,13.943l0,1.521l12.053,0l0,34.651l1.86,0l0,-34.651l12.046,0l0,-1.521l-25.959,0Z" style="fill:#979898;fill-rule:nonzero;"/></g></svg>