<?xml version="1.0" encoding="UTF-8" standalone="no"?><!DOCTYPE svg PUBLIC "-//W3C//DTD SVG 1.1//EN" "http://www.w3.org/Graphics/SVG/1.1/DTD/svg11.dtd"><svg width="100%" height="100%" viewBox="0 0 405 99" version="1.1" xmlns="http://www.w3.org/2000/svg" xmlns:xlink="http://www.w3.org/1999/xlink" xml:space="preserve" style="fill-rule:evenodd;clip-rule:evenodd;stroke-linejoin:round;stroke-miterlimit:1.41421;"><g><path d="M118.298,67.815c-11.194,0 -20.268,-9.073 -20.268,-20.266c0,-11.192 9.074,-20.265 20.268,-20.265c11.193,0 20.269,9.073 20.269,20.265c0,11.193 -9.076,20.266 -20.269,20.266ZM132.448,22.648l-0.018,-0.012c-4.173,-2.37 -8.992,-3.729 -14.132,-3.729c-15.822,0 -28.65,12.823 -28.65,28.642c0,15.819 12.828,28.646 28.65,28.646c5.14,0 9.958,-1.357 14.129,-3.73l0.008,-0.006c11.835,-6.84 14.512,-2.662 14.512,-2.662l0,-44.494c0,0 -2.664,4.185 -14.499,-2.655Z" style="fill:#0e9ad5;fill-rule:nonzero;"/><path d="M184.986,67.815c-11.193,0 -20.265,-9.073 -20.265,-20.266c0,-11.192 9.072,-20.265 20.265,-20.265c11.2,0 20.269,9.073 20.269,20.265c0,11.193 -9.069,20.266 -20.269,20.266ZM204.757,8.578l0,18.254c-5.142,-4.906 -12.101,-7.925 -19.771,-7.925c-15.819,0 -28.648,12.823 -28.648,28.642c0,15.819 12.829,28.646 28.648,28.646c5.143,0 9.964,-1.36 14.134,-3.73l0.01,-0.006c11.835,-6.84 14.505,-2.662 14.505,-2.662l0,-69.797l-0.027,0c-0.514,0.071 -8.595,1.267 -8.851,8.578Z" style="fill:#0e9ad5;fill-rule:nonzero;"/><path d="M58.072,18.83c-7.265,0 -13.726,3.518 -17.77,8.937c-4.208,-5.419 -10.873,-8.937 -18.14,-8.937c-5.114,0 -9.828,1.747 -13.581,4.668c0,0 -4.919,4.24 -8.581,1.805l0,49.747c0,0 8.897,-1.033 8.974,-8.822l0,-25.231c0,-7.585 5.6,-13.757 13.188,-13.757c7.513,0 13.634,6.053 13.752,13.542c-0.001,0.07 -0.006,0.143 -0.006,0.215l0,34.053l0.022,0c0,0 8.853,-1.03 8.972,-8.766l0,-25.287c0,-0.06 -0.006,-0.122 -0.006,-0.183c0.09,-7.5 5.65,-13.574 13.176,-13.574c7.588,0 13.187,6.172 13.187,13.757l0,34.053l0.004,0c0,0 8.973,-1.042 8.973,-8.924l0,-25.129c0,-12.223 -9.941,-22.167 -22.164,-22.167Z" style="fill:#0e9ad5;fill-rule:nonzero;"/><path d="M381.966,47.276l22.603,-27.226l-6.694,0c-2.131,0.062 -4.234,0.489 -6.067,2.426l-15.169,18.268l-10.799,-13.243c-5.077,-6.108 -12.008,-7.366 -16.527,-7.451l-0.738,0l-0.355,0.015l22.593,27.7l-22.656,27.285l6.066,0c2.334,0 4.796,-0.442 6.813,-2.57l15.1,-18.185l10.93,13.404c5.307,6.259 12.941,7.264 16.649,7.351l0.901,0l-22.65,-27.774Z" style="fill:#0e9ad5;fill-rule:nonzero;"/><path d="M251.602,67.815c-11.2,0 -19.938,-9.073 -19.938,-20.266c0,-11.192 8.738,-20.265 19.938,-20.265c11.195,0 20.265,9.073 20.265,20.265c0,11.193 -9.07,20.266 -20.265,20.266ZM265.736,22.636l-0.009,-0.003c-4.17,-2.367 -8.988,-3.726 -14.125,-3.726c-15.826,0 -28.65,12.823 -28.65,28.642c0,15.819 12.824,28.646 28.65,28.646c7.909,0 15.07,-3.206 20.257,-8.389l0,1.753c-0.023,1.412 -0.184,3.444 -0.516,4.874c-2.519,10.907 -13.4,17.706 -24.305,15.187l0.003,-0.005c-2.554,-0.585 -4.986,-1.669 -7.156,-3.203c-0.65,-0.425 -5.155,-3.538 -10.96,0.966c4.154,5.393 9.947,8.951 16.226,10.399l-0.003,0.008c15.421,3.561 30.801,-6.053 34.362,-21.465c0.474,-2.062 0.706,-4.124 0.729,-6.15l0,-22.277c0.002,-0.117 0.011,-0.231 0.011,-0.344l0,-22.246c0,0 -2.676,4.176 -14.514,-2.667Z" style="fill:#0e9ad5;fill-rule:nonzero;"/><path d="M298.413,43.094c1.996,-9.285 9.311,-15.837 19.47,-15.846c9.407,0.009 17.378,6.561 19.029,15.846l-38.499,0ZM344.265,37.829c-0.051,-0.22 -0.112,-0.442 -0.199,-0.681c-0.237,-0.666 -0.492,-1.304 -0.762,-1.924c-0.057,-0.135 -0.113,-0.269 -0.172,-0.403c-0.128,-0.287 -0.528,-1.118 -0.596,-1.251c-1.623,-3.206 -3.658,-5.768 -5.902,-7.795c-0.037,-0.034 -0.075,-0.07 -0.112,-0.108l-0.003,0.006c-0.249,-0.222 -0.498,-0.436 -0.755,-0.649c-3.716,-3.118 -9.362,-5.186 -14.482,-5.844c-1.141,-0.16 -2.222,-0.233 -3.215,-0.233c-0.059,0 -0.119,0.003 -0.175,0.005c-0.059,-0.002 -0.119,-0.005 -0.18,-0.005l0,0.008c-16.495,0.175 -28.089,12.466 -28.089,28.74c0,15.778 12.823,28.613 28.581,28.613c9.964,0 19.153,-5.107 24.578,-13.655c-6.553,-3.574 -10.083,-0.627 -11.02,0.235c-3.74,3.269 -8.51,5.119 -13.558,5.119c-9.795,0 -17.991,-7 -19.868,-16.263l35.37,0l0.28,-0.002l2.86,0c0,0 4.634,0.171 6.834,-2.178c1.954,-2.079 1.711,-3.818 1.723,-5.259c0,0 0.034,-2.717 -1.138,-6.476Z" style="fill:#0e9ad5;fill-rule:nonzero;"/></g></svg>