<?xml version="1.0" encoding="UTF-8" standalone="no"?><!DOCTYPE svg PUBLIC "-//W3C//DTD SVG 1.1//EN" "http://www.w3.org/Graphics/SVG/1.1/DTD/svg11.dtd"><svg width="100%" height="100%" viewBox="0 0 284 140" version="1.1" xmlns="http://www.w3.org/2000/svg" xmlns:xlink="http://www.w3.org/1999/xlink" xml:space="preserve" style="fill-rule:evenodd;clip-rule:evenodd;stroke-linejoin:round;stroke-miterlimit:1.41421;"><g id="MRM"><path d="M189.041,117.242l-6.888,0c-0.229,0 -0.343,-0.116 -0.343,-0.346l0,-9.009c0,-0.23 0.114,-0.346 0.343,-0.346l6.888,0c3.215,0 5.28,1.894 5.28,4.878c0,2.929 -2.065,4.823 -5.28,4.823M213.143,100.113c-2.285,0 -4.09,1.626 -4.09,3.617l0,30.341c0,0.589 -0.147,0.884 -0.439,0.884c-0.197,0 -0.46,-0.164 -0.788,-0.492l-11.495,-11.539c4.018,-2.01 6.427,-5.798 6.427,-10.562c0,-7.117 -5.279,-12.11 -13.315,-12.11l-12.398,0c-2.295,0 -3.672,1.494 -3.672,3.73l0,31.166c0,2.697 1.778,4.477 4.246,4.477c2.469,0 4.191,-1.78 4.191,-4.477l0,-10.387c0,-0.23 0.114,-0.345 0.343,-0.345l5.74,0l11.034,11.777c0.59,0.655 0.871,0.839 1.38,1.279c0.505,0.442 1.036,0.793 1.592,1.054c0.556,0.262 1.16,0.448 1.814,0.564c0.656,0.116 1.436,0.172 2.352,0.172l8.484,0c0.751,0 1.397,-0.27 1.935,-0.809c0.54,-0.538 0.81,-1.185 0.81,-1.935l0,-32.788c0,-1.99 -1.806,-3.617 -4.151,-3.617" style="fill:#4f2683;fill-rule:nonzero;"/><path d="M0.456,135.551c0,2.583 1.607,4.074 3.902,4.074c2.182,0 3.788,-1.491 3.788,-4.074l0,-18.825l0.288,0l6.084,14.003c1.205,2.756 2.181,3.559 4.131,3.559c1.953,0 2.928,-0.803 4.133,-3.559l6.027,-14.003l0.287,0l0,18.825c0,2.583 1.549,4.074 3.844,4.074c2.296,0 3.847,-1.491 3.847,-4.074l0,-30.593c0,-3.097 -1.779,-5.05 -4.592,-5.05c-2.525,0 -3.903,1.379 -5.166,4.363l-8.149,18.825l-0.231,0l-8.322,-18.825c-1.32,-2.984 -2.696,-4.363 -5.223,-4.363c-2.811,0 -4.648,1.953 -4.648,5.05l0,30.593Z" style="fill:#4f2683;fill-rule:nonzero;"/><path d="M41.912,135.551c0,2.237 1.378,3.73 3.673,3.73l18.94,0c2.353,0 3.904,-1.549 3.904,-3.672c0,-2.068 -1.551,-3.617 -3.904,-3.617l-13.832,0c-0.229,0 -0.343,-0.115 -0.343,-0.344l0,-8.093c0,-0.229 0.114,-0.344 0.343,-0.344l11.077,0c2.354,0 3.846,-1.493 3.846,-3.616c0,-2.123 -1.492,-3.615 -3.846,-3.615l-11.077,0c-0.229,0 -0.343,-0.115 -0.343,-0.346l0,-7.746c0,-0.23 0.114,-0.347 0.343,-0.347l13.832,0c2.353,0 3.904,-1.549 3.904,-3.616c0,-2.122 -1.551,-3.673 -3.904,-3.673l-18.94,0c-2.295,0 -3.673,1.494 -3.673,3.731l0,31.568Z" style="fill:#4f2683;fill-rule:nonzero;"/><path d="M87.519,139.625c2.468,0 4.247,-1.779 4.247,-4.477l0,-27.032c0,-0.228 0.114,-0.344 0.344,-0.344l6.6,0c2.583,0 4.248,-1.55 4.248,-3.731c0,-2.238 -1.665,-3.789 -4.248,-3.789l-22.326,0c-2.583,0 -4.247,1.551 -4.247,3.789c0,2.181 1.664,3.731 4.247,3.731l6.6,0c0.23,0 0.345,0.116 0.345,0.344l0,27.032c0,2.698 1.779,4.477 4.19,4.477" style="fill:#4f2683;fill-rule:nonzero;"/><path d="M107.375,135.551c0,2.237 1.378,3.73 3.674,3.73l18.939,0c2.355,0 3.904,-1.549 3.904,-3.672c0,-2.068 -1.549,-3.617 -3.904,-3.617l-13.831,0c-0.23,0 -0.344,-0.115 -0.344,-0.344l0,-8.093c0,-0.229 0.114,-0.344 0.344,-0.344l11.077,0c2.354,0 3.845,-1.493 3.845,-3.616c0,-2.123 -1.491,-3.615 -3.845,-3.615l-11.077,0c-0.23,0 -0.344,-0.115 -0.344,-0.346l0,-7.746c0,-0.23 0.114,-0.347 0.344,-0.347l13.831,0c2.355,0 3.904,-1.549 3.904,-3.616c0,-2.122 -1.549,-3.673 -3.904,-3.673l-18.939,0c-2.296,0 -3.674,1.494 -3.674,3.731l0,31.568Z" style="fill:#4f2683;fill-rule:nonzero;"/><path d="M159.064,128.204c-0.861,2.642 -2.927,4.247 -6.142,4.247c-3.213,0 -5.279,-1.606 -6.14,-4.248c-0.459,-1.435 -0.632,-3.386 -0.632,-8.437c0,-5.05 0.173,-7.002 0.632,-8.436c0.861,-2.641 2.927,-4.247 6.14,-4.247c3.215,0 5.281,1.606 6.142,4.247c0.459,1.434 0.631,3.386 0.631,8.436c0,5.051 -0.172,7.002 -0.631,8.437M167.157,109.093c-2.067,-6.314 -7.405,-9.471 -14.235,-9.471c-6.829,0 -12.166,3.157 -14.232,9.471c-0.861,2.753 -1.091,4.935 -1.091,10.674c0,5.74 0.23,7.921 1.091,10.677c2.066,6.313 7.403,9.469 14.232,9.469c6.83,0 12.168,-3.156 14.235,-9.469c0.859,-2.756 1.09,-4.937 1.09,-10.677c0,-5.739 -0.231,-7.921 -1.09,-10.674" style="fill:#4f2683;fill-rule:nonzero;"/><path d="M237.094,139.625c2.468,0 4.246,-1.779 4.246,-4.477l0,-27.032c0,-0.228 0.115,-0.344 0.347,-0.344l6.598,0c2.582,0 4.249,-1.55 4.249,-3.731c0,-2.238 -1.667,-3.789 -4.249,-3.789l-22.326,0c-2.582,0 -4.248,1.551 -4.248,3.789c0,2.181 1.666,3.731 4.248,3.731l6.601,0c0.229,0 0.344,0.116 0.344,0.344l0,27.032c0,2.698 1.779,4.477 4.19,4.477" style="fill:#4f2683;fill-rule:nonzero;"/><path d="M256.95,135.551c0,2.237 1.377,3.73 3.671,3.73l18.94,0c2.354,0 3.905,-1.549 3.905,-3.672c0,-2.068 -1.551,-3.617 -3.905,-3.617l-13.832,0c-0.228,0 -0.342,-0.115 -0.342,-0.344l0,-8.093c0,-0.229 0.114,-0.344 0.342,-0.344l11.077,0c2.355,0 3.846,-1.493 3.846,-3.616c0,-2.123 -1.491,-3.615 -3.846,-3.615l-11.077,0c-0.228,0 -0.342,-0.115 -0.342,-0.346l0,-7.746c0,-0.23 0.114,-0.347 0.342,-0.347l13.832,0c2.354,0 3.905,-1.549 3.905,-3.616c0,-2.122 -1.551,-3.673 -3.905,-3.673l-18.94,0c-2.294,0 -3.671,1.494 -3.671,3.731l0,31.568Z" style="fill:#4f2683;fill-rule:nonzero;"/><path d="M47.412,64.471c-2.428,0 -4.602,-0.709 -6.523,-2.133c-1.924,-1.42 -3.805,-3.426 -5.645,-6.019l-15.303,-21.825l0,50.045c0,1.923 -0.687,3.576 -2.068,4.953c-1.379,1.38 -3.031,2.07 -4.955,2.07l-5.897,0c-1.924,0 -3.572,-0.69 -4.953,-2.07c-1.381,-1.377 -2.068,-3.03 -2.068,-4.953l0,-71.369c0,-2.926 0.502,-5.222 1.506,-6.897c1.002,-1.672 2.59,-2.967 4.763,-3.89c2.424,-1.002 4.182,-1.648 5.27,-1.942c1.086,-0.292 2.049,-0.441 2.885,-0.441c3.341,0 6.144,1.674 8.404,5.019l24.584,36.624l24.584,-36.624c2.256,-3.345 5.057,-5.019 8.4,-5.019c0.836,0 1.797,0.149 2.887,0.441c1.086,0.294 2.842,0.94 5.268,1.942c2.174,0.923 3.761,2.218 4.765,3.89c1.004,1.675 1.504,3.971 1.504,6.897l0,71.369c0,1.923 -0.687,3.576 -2.066,4.953c-1.381,1.38 -3.033,2.07 -4.955,2.07l-5.897,0c-1.924,0 -3.572,-0.69 -4.953,-2.07c-1.381,-1.377 -2.068,-3.03 -2.068,-4.953l0,-50.045l-15.303,21.825c-1.842,2.593 -3.723,4.599 -5.646,6.019c-1.922,1.424 -4.096,2.133 -6.52,2.133M236.054,64.471c-2.426,0 -4.598,-0.709 -6.522,-2.133c-1.924,-1.42 -3.807,-3.426 -5.643,-6.019l-15.302,-21.825l0,50.045c0,1.923 -0.692,3.576 -2.071,4.953c-1.378,1.38 -3.031,2.07 -4.957,2.07l-21.947,0c-2.344,0 -4.348,-0.145 -6.019,-0.44c-1.674,-0.291 -3.221,-0.771 -4.641,-1.441c-1.424,-0.67 -2.781,-1.566 -4.076,-2.695c-1.299,-1.129 -2.697,-2.531 -4.203,-4.203l-21.073,-22.578l-13.17,0l0,24.334c0,1.923 -0.69,3.576 -2.071,4.953c-1.381,1.38 -3.031,2.07 -4.953,2.07l-5.894,0c-1.924,0 -3.577,-0.69 -4.956,-2.07c-1.378,-1.377 -2.07,-3.03 -2.07,-4.953l0,-66.226c0,-6.02 1.547,-10.576 4.643,-13.671c3.092,-3.093 8.193,-4.642 15.301,-4.642l18.815,0c4.348,0 8.445,0.776 12.293,2.323c3.844,1.546 7.168,3.658 9.971,6.334c2.799,2.675 5.017,5.875 6.648,9.593c1.631,3.723 2.443,7.758 2.443,12.104c0,6.021 -1.4,11.185 -4.199,15.49c-2.803,4.309 -6.459,7.633 -10.974,9.973l24.08,24.959c0.836,0.838 1.506,1.256 2.007,1.256c0.752,0 1.127,-0.752 1.127,-2.26l0,-66.602c0,-2.926 0.502,-5.222 1.504,-6.897c1.006,-1.672 2.594,-2.967 4.77,-3.89c2.424,-1.002 4.18,-1.648 5.268,-1.942c1.083,-0.292 2.048,-0.441 2.884,-0.441c3.344,0 6.147,1.674 8.405,5.019l24.582,36.624l24.584,-36.624c2.257,-3.345 5.058,-5.019 8.404,-5.019c0.834,0 1.797,0.149 2.885,0.441c1.086,0.294 2.841,0.94 5.267,1.942c2.174,0.923 3.762,2.218 4.766,3.89c1.004,1.675 1.506,3.971 1.506,6.897l0,71.369c0,1.923 -0.69,3.576 -2.069,4.953c-1.381,1.38 -3.033,2.07 -4.955,2.07l-5.894,0c-1.926,0 -3.576,-0.69 -4.955,-2.07c-1.381,-1.377 -2.071,-3.03 -2.071,-4.953l0,-50.045l-15.3,21.825c-1.84,2.593 -3.723,4.599 -5.645,6.019c-1.926,1.424 -4.098,2.133 -6.523,2.133M126.43,42.647l18.69,0c3.764,0 6.627,-1.235 8.592,-3.699c1.965,-2.467 2.947,-5.33 2.947,-8.594c0,-3.26 -0.982,-6.123 -2.947,-8.592c-1.965,-2.465 -4.828,-3.699 -8.592,-3.699l-18.69,0l0,24.584Z" style="fill:#4f2683;fill-rule:nonzero;"/></g></svg>