<?xml version="1.0" encoding="UTF-8" standalone="no"?><!DOCTYPE svg PUBLIC "-//W3C//DTD SVG 1.1//EN" "http://www.w3.org/Graphics/SVG/1.1/DTD/svg11.dtd"><svg width="100%" height="100%" viewBox="0 0 921 492" version="1.1" xmlns="http://www.w3.org/2000/svg" xmlns:xlink="http://www.w3.org/1999/xlink" xml:space="preserve" style="fill-rule:evenodd;clip-rule:evenodd;stroke-linejoin:round;stroke-miterlimit:1.41421;"><g id="Layer-1"><path d="M461.984,210.153c-29.026,-1.548 -63.675,95.589 -65.223,124.198c-0.281,6.184 3.936,11.455 10.615,11.806c33.454,1.757 62.481,-73.732 64.026,-113.021c0.631,-12.862 -1.613,-22.561 -9.418,-22.983" style="fill:#00a3d9;fill-rule:nonzero;"/><path d="M625.894,204.11c-35.639,-1.826 -54.754,84.837 -56.016,110.069c-0.495,8.998 0.136,28.677 12.437,29.308c32.897,1.757 57.566,-85.75 58.829,-110.419c0.633,-11.246 -0.769,-28.186 -15.25,-28.958" style="fill:#00a3d9;fill-rule:nonzero;"/><path d="M460.372,0c-338.079,0 -460.372,104.021 -460.372,255.279c0,151.252 119.977,236.721 460.372,236.721c358.808,0 460.371,-85.469 460.371,-236.721c0,-151.258 -113.438,-255.279 -460.371,-255.279M304.686,123.703c2.743,-20.663 19.751,-36.058 35.288,-33.526c9.979,1.616 20.241,8.364 19.465,23.474c-0.981,17.994 -13.844,39.783 -34.93,36.41c-13.285,-2.393 -21.649,-13.499 -19.823,-26.358M246.632,237.355c0.14,-2.248 0.281,-4.5 -0.213,-6.184c-0.7,-7.945 -10.611,-10.684 -24.037,-0.21c-19.82,15.32 -43.434,50.607 -51.657,90.665c-4.503,22.211 -7.101,40.063 -4.853,50.325c-19.466,-2.738 -42.662,-18.553 -45.336,-31.629c-4.427,-22.142 40.978,-153.011 36.413,-161.656c19.96,2.67 38.094,19.396 35.702,33.316c-0.772,4.497 -7.588,25.445 -7.588,25.445c18.059,-25.445 46.036,-54.897 67.19,-53.771c14.479,0.775 20.667,10.683 19.961,24.672c-0.351,6.112 -2.248,13.566 -7.592,21.789c-5.127,7.729 -11.456,12.368 -13.563,12.862c-4.077,0.841 -4.568,-2.532 -4.427,-5.624M393.669,372.939c-23.618,-1.194 -37.813,-12.299 -43.016,-28.326c-17.708,20.591 -38.094,31.979 -57.985,30.921c-20.664,-1.126 -44.773,-31.065 -43.788,-50.112c1.548,-30.291 37.181,-113.302 41.118,-145.14c18.347,2.111 37.181,14.902 39.92,27.411c3.445,18.765 -42.659,132.135 -26.004,134.106c14.548,2.038 32.751,-13.426 48.078,-35.775c11.525,-50.044 38.657,-137.689 53.065,-194.411c5.552,-21.649 9.135,-36.619 7.59,-38.939c19.96,2.67 39.221,19.473 36.829,33.949c-6.185,32.26 -11.247,54.471 -21.79,96.08c11.738,-11.175 30.153,-21.436 49.131,-20.454c25.651,1.407 47.299,15.464 44.91,60.305c-3.088,59.956 -59.53,134.038 -128.058,130.385M573.461,373.99c-35.706,-1.901 -58.268,-29.521 -56.442,-65.365c2.815,-53.84 47.587,-130.169 108.943,-126.936c38.451,1.967 51.52,29.663 49.694,65.014c-2.883,54.894 -38.094,130.657 -102.195,127.287M811.238,302.51c-2.32,5.203 -4.291,8.641 -7.104,13.281c-23.049,38.657 -61.006,60.307 -88.839,58.83c-20.66,-1.05 -44.842,-30.99 -43.784,-50.044c1.544,-30.29 52.714,-174.87 56.578,-207.27c18.347,2.038 36.687,14.829 39.432,27.341c1.401,5.131 -2.251,20.173 -8.435,42.385c17.853,-0.213 41.046,-0.917 48.356,-1.057c-6.96,24.95 -10.68,28.608 -14.688,30.647c-3.446,1.544 -26.989,0.841 -41.403,-1.058c-12.369,43.229 -26.632,96.081 -27.195,116.816c-0.562,10.687 6.178,9.912 14.195,7.523c18.903,-4.922 47.23,-29.172 61.994,-56.228c2.594,-4.854 4.145,-6.679 5.69,-6.541c1.613,-0.138 3.301,3.307 4.221,7.172c1.545,7.097 0.982,18.203 0.982,18.203" style="fill:#00a3d9;"/></g></svg>