<?xml version="1.0" encoding="UTF-8" standalone="no"?><!DOCTYPE svg PUBLIC "-//W3C//DTD SVG 1.1//EN" "http://www.w3.org/Graphics/SVG/1.1/DTD/svg11.dtd"><svg width="100%" height="100%" viewBox="0 0 686 147" version="1.1" xmlns="http://www.w3.org/2000/svg" xmlns:xlink="http://www.w3.org/1999/xlink" xml:space="preserve" style="fill-rule:evenodd;clip-rule:evenodd;stroke-linejoin:round;stroke-miterlimit:1.41421;"><path d="M149.93,108.986l8.124,-19.001l8.124,19.001l-16.248,0ZM163.288,65.628c-0.165,-0.375 -0.636,-0.681 -1.045,-0.681l-9.902,0c-0.41,0 -0.875,0.309 -1.034,0.685l-33.632,79.708l15.969,0c0.409,0 0.876,-0.308 1.037,-0.684l9.337,-21.839l28.072,0l9.337,21.839c0.161,0.376 0.627,0.684 1.036,0.684l15.992,0l-35.167,-79.712ZM120.589,123.633c0,6.373 -2.614,12.18 -7.361,16.351c-4.668,4.104 -11.12,6.365 -18.169,6.365c-9.459,0 -17.297,-2.354 -24.665,-7.409l-0.863,-0.59l0,-17.951c0,-0.411 0.333,-0.744 0.744,-0.744c0.239,0 0.451,0.114 0.587,0.288c2.996,3.921 10.957,12.574 22.841,12.574c8.524,0 11.699,-4.693 11.699,-7.652c0,-6.169 -7.062,-10.05 -15.235,-14.543c-9.904,-5.444 -21.129,-11.615 -21.129,-24.003c0,-6.716 2.672,-12.392 7.729,-16.415c4.903,-3.902 11.739,-5.965 19.771,-5.965c6.816,0 13.65,1.959 19.767,5.666l0.957,0.58l0,16.105c0,0.412 -0.333,0.745 -0.745,0.745c-0.163,0 -0.313,-0.055 -0.436,-0.145c-2.865,-2.705 -10.694,-9.12 -20.528,-9.12c-6.669,0 -11.327,2.917 -11.327,7.092c0,5.206 6.347,8.465 13.697,12.239c10.099,5.183 22.666,11.635 22.666,26.532ZM33.97,94.726c-2.352,2.398 -6.436,3.614 -12.14,3.614l-5.78,0l0,-20.008l5.78,0c12.878,0 14.461,5.472 14.532,9.594c0.056,2.838 -0.749,5.125 -2.392,6.8ZM67.361,140.69c-4.915,-6.176 -6.95,-8.733 -10.233,-13.572l-0.274,-0.406c-5.392,-8.013 -9.805,-14.571 -16.001,-19.274c7.726,-3.924 11.929,-10.595 11.929,-19.103c0,-7.121 -2.835,-13.078 -8.197,-17.23c-5.204,-4.028 -12.603,-6.158 -21.399,-6.158l-23.186,0l0,80.393l15.058,0c0.546,0 0.992,-0.446 0.992,-0.992l0,-32.177l3.068,0c5.225,0 9.766,1.194 20.69,16.642l11.113,15.717c0.316,0.445 1.02,0.81 1.565,0.81l18.573,0l-3.698,-4.65Z" style="fill:#333739;fill-rule:nonzero;"/><path d="M608.003,88.281c-0.215,0.361 -0.11,0.852 0.237,1.092l0.643,0.446c0.346,0.24 0.855,0.177 1.132,-0.142l1.771,-2.038c-0.718,-0.712 -1.405,-1.454 -2.063,-2.224l-1.72,2.866ZM616.837,93.394c-0.138,0.398 0.068,0.856 0.457,1.02l0.596,0.248c0.387,0.162 0.872,-0.007 1.076,-0.376l0.456,-0.829c-0.732,-0.42 -1.446,-0.868 -2.147,-1.335l-0.438,1.272ZM600.436,81.427c-0.288,0.309 -0.286,0.812 0.002,1.118l0.632,0.671c0.29,0.307 0.801,0.351 1.138,0.097l3.9,-2.93c-0.62,-1.042 -1.19,-2.117 -1.708,-3.223l-3.964,4.267ZM672.192,34.711c-0.049,-0.367 -0.371,-0.59 -0.75,-0.504l-2.86,0.647l3.417,-2.407c-0.231,-1.989 -0.622,-3.924 -1.153,-5.795c-0.117,-0.386 -0.506,-0.562 -0.878,-0.389l-5.439,2.518l5.159,-5.549c-0.634,-1.603 -1.375,-3.149 -2.217,-4.628c-0.202,-0.364 -0.64,-0.458 -0.975,-0.206l-7.135,5.36l5.489,-9.133c-0.91,-1.205 -1.893,-2.348 -2.94,-3.428c-0.291,-0.262 -0.72,-0.24 -0.983,0.061l-7.586,8.727l4.336,-12.528c-1.044,-0.791 -2.133,-1.524 -3.259,-2.2c-0.355,-0.204 -0.803,-0.082 -1.002,0.281l0,-0.002l-6.655,12.049l1.812,-14.387c0.051,-0.41 -0.22,-0.856 -0.605,-1.004c-0.86,-0.309 -1.733,-0.587 -2.619,-0.833l-0.002,0.001c-0.405,-0.116 -0.836,0.119 -0.958,0.523l-4.467,14.76l-0.005,0.008l-1.319,-15.889c-0.035,-0.42 -0.409,-0.764 -0.83,-0.764l-2.442,0c-0.423,0.001 -0.796,0.345 -0.83,0.764l-1.361,16.398l-4.715,-15.752c-0.122,-0.404 -0.557,-0.662 -0.97,-0.575l-2.253,0.479c-0.412,0.088 -0.706,0.501 -0.651,0.919l2.167,16.824l-8.109,-14.886c-0.202,-0.37 -0.681,-0.532 -1.066,-0.361l-1.98,0.881c-0.383,0.172 -0.584,0.637 -0.443,1.034l5.811,16.483l-11.342,-13.281c-0.273,-0.32 -0.776,-0.381 -1.117,-0.132l-1.64,1.191c-0.342,0.248 -0.439,0.743 -0.221,1.103l9.408,15.348l-14.255,-10.974c-0.333,-0.256 -0.836,-0.21 -1.117,0.103l-1.265,1.405c-0.284,0.313 -0.276,0.819 0.015,1.124l12.777,13.422l-16.69,-8.023c-0.382,-0.183 -0.865,-0.033 -1.075,0.331l-0.876,1.517c-0.21,0.365 -0.097,0.858 0.249,1.095l15.75,10.755l-18.512,-4.531c-0.409,-0.1 -0.85,0.145 -0.979,0.546l-0.5,1.533c-0.13,0.4 0.082,0.859 0.473,1.019l16.346,6.686c5.814,-9.471 15.836,-16.186 27.706,-17.343c0.835,-0.087 1.681,-0.133 2.54,-0.133c13.364,0 24.198,10.833 24.198,24.199c0,12.692 -9.77,23.099 -22.2,24.116l0.003,0.001c12.751,-1.057 23.433,-8.517 29.153,-18.956c3.183,-5.813 4.829,-12.549 4.437,-19.618ZM601.538,68.159l-7.064,4.98c-0.345,0.243 -0.448,0.736 -0.229,1.096l0.549,0.905c0.219,0.36 0.71,0.51 1.093,0.334l6.674,-3.09c-0.421,-1.373 -0.763,-2.783 -1.023,-4.225ZM588.244,45.658l15.169,2.718c0.708,-1.825 1.56,-3.584 2.539,-5.26l-17.382,-0.558c-0.42,-0.014 -0.799,0.318 -0.843,0.737l-0.156,1.466c-0.043,0.419 0.26,0.823 0.673,0.897ZM602.773,50.166l-14.521,2.581c-0.414,0.074 -0.718,0.477 -0.675,0.896l0.141,1.328c0.045,0.419 0.424,0.751 0.845,0.736l12.932,-0.434c0.304,-1.745 0.734,-3.449 1.278,-5.107ZM601.027,59.216l-10.638,4.57c-0.387,0.168 -0.59,0.629 -0.451,1.026l0.394,1.131c0.14,0.397 0.589,0.646 1,0.554l9.717,-2.208c-0.125,-1.712 -0.127,-3.405 -0.022,-5.073Z" style="fill:#5b358a;fill-rule:nonzero;"/><path d="M683.193,62.577l-16.344,-6.685c-5.798,9.446 -15.787,16.149 -27.616,17.333c0,0 0,-0.001 0,-0.002c-0.866,0.094 -1.743,0.143 -2.632,0.143c-13.365,0 -24.199,-10.833 -24.199,-24.198c0,-12.508 9.489,-22.798 21.659,-24.066c-19.8,1.931 -34.469,19.323 -33.012,39.187l3.571,-0.808l-2.793,1.967c-0.009,0.006 -0.019,0.011 -0.027,0.017l0,0.001c-0.344,0.241 -0.571,0.781 -0.502,1.196l-0.003,0.003l0.007,0.006c0.271,1.962 0.694,3.87 1.259,5.713l6.111,-2.829l-4.655,5.008l0.001,0c-0.288,0.309 -0.383,0.874 -0.212,1.258c0,0 -0.001,0.002 -0.001,0.003c0.665,1.582 1.436,3.104 2.305,4.561l7.729,-5.808l-5.118,8.516c-0.201,0.362 -0.159,0.906 0.1,1.227c0.923,1.167 1.913,2.276 2.966,3.32l8.073,-9.29l-4.12,11.905c-0.087,0.385 0.08,0.854 0.4,1.079l0,0.001c1.055,0.764 2.151,1.472 3.282,2.122l7.012,-12.695l-1.808,14.376c-0.052,0.409 0.216,0.853 0.602,1.001c0.861,0.31 1.735,0.588 2.623,0.835l0.003,0c0.405,0.114 0.837,-0.12 0.959,-0.523l4.457,-14.741c0.008,-0.017 0.015,-0.028 0.015,-0.028l1.319,15.89c0.035,0.42 0.408,0.763 0.83,0.763l2.443,0c0.42,0 0.794,-0.344 0.828,-0.763l1.361,-16.399l4.716,15.752c0.121,0.405 0.556,0.662 0.969,0.575l2.253,-0.479c0.412,-0.088 0.707,-0.501 0.652,-0.918l-2.168,-16.824l8.11,14.885c0.201,0.371 0.68,0.533 1.065,0.361l1.98,-0.881c0.383,-0.171 0.586,-0.637 0.444,-1.033l-5.811,-16.484l11.342,13.282c0.274,0.32 0.777,0.38 1.117,0.132l1.639,-1.192c0.343,-0.248 0.44,-0.744 0.222,-1.102l-9.408,-15.349l14.253,10.974c0.334,0.257 0.838,0.21 1.121,-0.103l1.263,-1.403c0.283,-0.315 0.276,-0.82 -0.014,-1.125l-12.778,-13.422l16.69,8.022c0.381,0.183 0.864,0.033 1.075,-0.331l0.877,-1.516c0.209,-0.365 0.096,-0.858 -0.251,-1.096l-15.749,-10.754l18.513,4.531c0.408,0.1 0.849,-0.145 0.978,-0.546l0.5,-1.534c0.13,-0.4 -0.082,-0.859 -0.473,-1.018ZM684.957,52.678l-15.166,-2.719c-0.708,1.826 -1.559,3.584 -2.539,5.26l17.379,0.559c0.421,0.013 0.801,-0.319 0.846,-0.737l0.154,-1.466c0.044,-0.42 -0.26,-0.824 -0.674,-0.897ZM658.243,5.826c0.137,-0.398 -0.061,-0.87 -0.442,-1.048l-0.584,-0.274c-0.381,-0.178 -0.86,-0.022 -1.062,0.347l-0.607,1.108c0.728,0.474 1.438,0.974 2.13,1.498l0.565,-1.631ZM670.433,48.169l14.517,-2.581c0.414,-0.073 0.718,-0.477 0.674,-0.895l-0.141,-1.327c-0.043,-0.421 -0.423,-0.751 -0.845,-0.738l-12.929,0.434c-0.304,1.744 -0.732,3.451 -1.276,5.107ZM671.951,41.455l11.455,-4.922c0.387,-0.166 0.605,-0.632 0.482,-1.035l-0.347,-1.145c-0.122,-0.404 -0.557,-0.658 -0.969,-0.564l-10.327,2.355c0.032,1.798 -0.068,3.571 -0.294,5.311ZM674.112,18.478c0.287,-0.309 0.296,-0.822 0.021,-1.141l-0.603,-0.695c-0.277,-0.319 -0.776,-0.372 -1.112,-0.118l-4.308,3.251c0.584,1.119 1.111,2.271 1.579,3.457l4.423,-4.754ZM672,32.447l7.716,-5.434c0.345,-0.243 0.46,-0.744 0.256,-1.112l-0.51,-0.928c-0.204,-0.369 -0.683,-0.526 -1.066,-0.348l-7.2,3.35c0.356,1.456 0.626,2.948 0.804,4.472ZM664.853,14.629c-0.633,-0.838 -1.301,-1.648 -2.003,-2.426l2.046,-2.365c0.276,-0.318 0.776,-0.371 1.112,-0.117l0.624,0.473c0.336,0.253 0.433,0.757 0.215,1.117l-1.994,3.318Z" style="fill:#c91f8f;fill-rule:nonzero;"/><path d="M233.138,70.363l-17.557,0l0,69.555l17.557,0c20.129,0 32.205,-13.643 32.205,-34.666c0,-21.023 -12.076,-34.889 -32.205,-34.889ZM209.655,145.396l0,-80.512l24.041,0c21.806,0 37.798,13.53 37.798,40.368c0,26.838 -15.992,40.144 -37.798,40.144l-24.041,0Z" style="fill:#8c8f90;fill-rule:nonzero;"/><rect x="289.044" y="64.884" width="5.928" height="80.512" style="fill:#8c8f90;fill-rule:nonzero;"/><path d="M376.825,104.245l0,37.686c-8.945,3.242 -18.004,4.807 -26.503,4.807c-24.265,0 -37.909,-14.648 -37.909,-41.71c0,-24.712 14.09,-41.487 40.369,-41.487c5.926,0 13.42,0.895 20.353,2.573l0,5.814c-6.822,-1.901 -14.538,-2.907 -20.464,-2.907c-17.109,0 -33.994,9.729 -33.994,36.007c0,25.719 13.753,36.232 32.651,36.232c6.375,0 12.861,-1.118 19.682,-3.243l0,-28.291l-22.252,0l0,-5.481l28.067,0Z" style="fill:#8c8f90;fill-rule:nonzero;"/><rect x="395.935" y="64.884" width="5.927" height="80.512" style="fill:#8c8f90;fill-rule:nonzero;"/><path d="M479.907,70.363l-29.522,0l0,75.033l-5.928,0l0,-75.033l-29.52,0l0,-5.479l64.97,0l0,5.479Z" style="fill:#8c8f90;fill-rule:nonzero;"/><path d="M487.748,120.123l37.128,0l-17.668,-49.983l-1.902,0l-17.558,49.983ZM501.728,64.771l9.281,0l29.186,80.625l-6.596,0l-6.934,-19.904l-40.593,0l-6.821,19.904l-6.598,0l29.075,-80.625Z" style="fill:#8c8f90;fill-rule:nonzero;"/><path d="M559.312,64.884l0,75.034l40.255,0l0,5.478l-46.183,0l0,-80.512l5.928,0Z" style="fill:#8c8f90;fill-rule:nonzero;"/></svg>