<?xml version="1.0" encoding="UTF-8" standalone="no"?><!DOCTYPE svg PUBLIC "-//W3C//DTD SVG 1.1//EN" "http://www.w3.org/Graphics/SVG/1.1/DTD/svg11.dtd"><svg width="100%" height="100%" viewBox="0 0 514 218" version="1.1" xmlns="http://www.w3.org/2000/svg" xmlns:xlink="http://www.w3.org/1999/xlink" xml:space="preserve" style="fill-rule:evenodd;clip-rule:evenodd;stroke-linejoin:round;stroke-miterlimit:1.41421;"><g><path d="M0.053,149.908c-0.022,0.673 -0.053,1.368 -0.053,2.063c0,36.123 29.128,65.414 65.05,65.414c0.114,0 0.223,-0.012 0.329,-0.012l0,-150.281l-65.326,0l0,82.816Z" style="fill:#000;fill-rule:nonzero;"/><path d="M136.775,67.092l-65.349,0l0,150.28c0.135,0 0.24,0.013 0.346,0.013c35.919,0 65.059,-29.291 65.059,-65.414c0,-0.695 -0.015,-1.39 -0.056,-2.063l0,-82.816Z" style="fill:#000;fill-rule:nonzero;"/><path d="M219.967,67.092c-0.127,0 -0.231,0.017 -0.347,0.017l0,150.276l65.349,0l0,-82.798c0,-0.692 0.057,-1.377 0.057,-2.071c0,-36.145 -29.12,-65.424 -65.059,-65.424Z" style="fill:#000;fill-rule:nonzero;"/><path d="M148.173,132.516c0,0.693 0.03,1.379 0.073,2.071l0,82.798l65.341,0l0,-150.276c-0.14,0 -0.23,-0.017 -0.357,-0.017c-35.914,0 -65.057,29.279 -65.057,65.424Z" style="fill:#000;fill-rule:nonzero;"/><path d="M372.777,149.908c-0.01,0.673 -0.029,1.368 -0.029,2.063c0,36.123 29.109,65.414 65.037,65.414c0.105,0 0.241,-0.012 0.336,-0.012l0,-161.432l-65.344,0l0,93.967Z" style="fill:#000;fill-rule:nonzero;"/><path d="M361.426,67.092l-65.348,0l0,150.28c0.104,0 0.226,0.013 0.34,0.013c35.934,0 65.04,-29.291 65.04,-65.414c0,-0.695 -0.022,-1.39 -0.032,-2.063l0,-82.816Z" style="fill:#000;fill-rule:nonzero;"/><path d="M443.565,151.562l0,65.687l2.775,0c0.69,0.031 1.383,0.054 2.063,0.054c35.936,0 65.058,-29.292 65.058,-65.416c0,-0.115 -0.018,-0.233 -0.018,-0.325l-69.878,0Z" style="fill:#000;fill-rule:nonzero;"/><path d="M448.403,146.581c35.936,0 65.058,-29.299 65.058,-65.428c0,-0.112 -0.018,-0.205 -0.018,-0.322l-69.878,0l0,65.686l2.775,0c0.69,0.045 1.383,0.064 2.063,0.064Z" style="fill:#000;fill-rule:nonzero;"/><path d="M328.786,55.884c15.349,0 27.791,-12.51 27.791,-27.943c0,-15.432 -12.442,-27.941 -27.791,-27.941c-15.349,0 -27.791,12.509 -27.791,27.941c0,15.433 12.442,27.943 27.791,27.943Z" style="fill:#000;fill-rule:nonzero;"/></g></svg>