<?xml version="1.0" encoding="UTF-8"?>
<svg xmlns="http://www.w3.org/2000/svg" xmlns:xlink="http://www.w3.org/1999/xlink" width="425.2pt" height="204.01pt" viewBox="0 0 425.2 204.01" version="1.1">
<defs>
<clipPath id="clip1">
  <path d="M 0 120 L 425.199219 120 L 425.199219 204.011719 L 0 204.011719 Z M 0 120 "/>
</clipPath>
</defs>
<g id="surface1">
<path style=" stroke:none;fill-rule:nonzero;fill:rgb(17.298889%,70.599365%,57.299805%);fill-opacity:1;" d="M 168.988281 47.855469 L 119.480469 0.527344 C 118.386719 -0.566406 116.203125 0.164063 116.203125 1.621094 L 116.203125 98.457031 Z M 302.234375 0.527344 L 252.722656 47.855469 L 305.507813 98.457031 L 305.507813 1.621094 C 305.507813 0.164063 303.324219 -0.566406 302.234375 0.527344 "/>
<path style=" stroke:none;fill-rule:nonzero;fill:rgb(50.19989%,82.398987%,74.099731%);fill-opacity:1;" d="M 116.203125 98.441406 L 305.507813 98.441406 L 213.40625 8.523438 C 211.945313 7.0625 209.765625 7.0625 208.304688 8.523438 "/>
<g clip-path="url(#clip1)" clip-rule="nonzero">
<path style=" stroke:none;fill-rule:nonzero;fill:rgb(17.298889%,70.599365%,57.299805%);fill-opacity:1;" d="M 80.890625 120.644531 L 71.421875 120.644531 C 70.332031 120.644531 69.601563 121.738281 69.601563 122.464844 L 60.140625 164.332031 L 49.945313 130.835938 C 49.582031 129.382813 48.121094 128.296875 46.304688 128.296875 L 37.570313 128.296875 C 35.75 128.296875 34.289063 129.382813 33.925781 130.835938 L 23.730469 164.699219 L 14.269531 122.832031 C 13.902344 121.738281 13.179688 121.011719 12.449219 121.011719 L 2.253906 121.011719 C 0.800781 121.011719 -0.292969 122.097656 0.0703125 123.917969 L 13.902344 178.164063 C 14.269531 179.617188 15.363281 179.984375 16.089844 179.984375 L 30.285156 179.984375 C 31.015625 179.984375 32.105469 179.617188 32.46875 178.164063 L 41.9375 147.21875 L 51.402344 178.164063 C 51.765625 179.617188 52.855469 179.984375 53.585938 179.984375 L 67.054688 179.984375 C 67.417969 179.984375 69.238281 179.617188 69.238281 178.164063 L 82.710938 123.917969 C 83.4375 121.375 81.980469 120.644531 80.890625 120.644531 M 424.914063 141.761719 C 425.636719 139.941406 424.914063 138.847656 423.453125 138.847656 L 414.71875 138.847656 C 413.257813 138.847656 412.894531 139.941406 412.535156 140.667969 L 403.066406 165.0625 L 392.511719 140.667969 C 391.785156 139.214844 391.417969 138.847656 390.324219 138.847656 L 380.859375 138.847656 C 378.671875 138.847656 378.3125 140.300781 379.042969 141.761719 L 395.054688 175.980469 L 396.875 179.984375 L 392.511719 189.453125 C 391.417969 191.636719 389.964844 193.457031 386.683594 193.457031 L 385.59375 193.457031 C 384.867188 193.457031 383.773438 193.824219 383.773438 195.273438 L 383.773438 201.828125 C 383.773438 203.648438 385.230469 204.007813 385.953125 204.007813 L 387.414063 204.007813 C 395.789063 204.007813 400.15625 199.28125 403.433594 191.269531 Z M 102.730469 169.789063 C 96.90625 169.789063 92.539063 165.0625 92.539063 159.238281 C 92.539063 153.410156 96.90625 148.675781 102.730469 148.675781 C 108.554688 148.675781 112.925781 153.410156 112.925781 159.238281 C 112.925781 165.0625 108.554688 169.789063 102.730469 169.789063 M 102.730469 137.394531 C 90.355469 137.394531 80.527344 146.859375 80.527344 159.238281 C 80.527344 171.25 90.71875 181.082031 102.730469 181.082031 C 115.109375 181.082031 124.9375 171.609375 124.9375 159.238281 C 125.304688 147.21875 115.109375 137.394531 102.730469 137.394531 M 161.339844 178.164063 C 161.339844 179.261719 162.4375 179.984375 163.160156 179.984375 L 171.535156 179.984375 C 172.628906 179.984375 173.355469 179.261719 173.355469 178.164063 L 173.355469 155.226563 C 173.355469 145.035156 166.441406 137.394531 155.515625 137.394531 C 148.964844 137.394531 144.597656 139.941406 142.050781 142.859375 L 142.050781 140.300781 C 142.050781 139.214844 140.957031 138.484375 140.230469 138.484375 L 131.855469 138.484375 C 130.761719 138.484375 130.03125 139.214844 130.03125 140.300781 L 130.03125 177.800781 C 130.03125 178.894531 130.761719 179.617188 131.855469 179.617188 L 140.230469 179.617188 C 141.320313 179.617188 142.050781 178.894531 142.050781 177.800781 L 142.050781 158.507813 C 142.050781 152.679688 146.054688 148.675781 151.511719 148.675781 C 157.335938 148.675781 160.617188 152.679688 160.617188 158.507813 Z M 202.113281 170.160156 C 196.289063 170.160156 191.925781 165.421875 191.925781 159.597656 C 191.925781 153.777344 196.289063 149.039063 202.113281 149.039063 C 207.941406 149.039063 212.308594 153.777344 212.308594 159.597656 C 212.308594 165.421875 207.578125 170.160156 202.113281 170.160156 M 222.140625 120.644531 L 213.765625 120.644531 C 212.671875 120.644531 211.945313 121.375 211.945313 122.464844 L 211.945313 142.859375 C 210.121094 139.941406 205.394531 137.394531 199.929688 137.394531 C 189.371094 137.394531 179.546875 145.765625 179.546875 159.238281 C 179.546875 172.339844 189.371094 181.082031 199.929688 181.082031 C 205.394531 181.082031 209.398438 178.894531 211.945313 175.621094 L 211.945313 178.164063 C 211.945313 179.261719 212.671875 179.984375 213.765625 179.984375 L 222.140625 179.984375 C 223.230469 179.984375 223.960938 179.261719 223.960938 178.164063 L 223.960938 122.464844 C 223.960938 121.738281 223.230469 120.644531 222.140625 120.644531 M 242.886719 154.867188 C 243.980469 150.136719 247.621094 147.585938 251.988281 147.585938 C 255.996094 147.585938 260 149.769531 261.09375 154.867188 Z M 251.625 137.757813 C 238.886719 137.757813 229.785156 147.585938 229.785156 159.597656 C 229.785156 172.703125 239.246094 181.082031 251.625 181.082031 C 261.09375 181.082031 266.1875 177.441406 269.101563 173.796875 C 269.828125 173.070313 269.828125 171.976563 268.738281 171.25 L 263.636719 166.519531 C 262.914063 165.785156 261.816406 165.785156 261.09375 166.519531 C 258.542969 169.066406 255.628906 170.519531 251.625 170.519531 C 246.890625 170.519531 242.886719 167.246094 242.160156 162.148438 L 270.554688 162.148438 C 272.375 162.148438 272.742188 161.054688 272.742188 160.328125 L 272.742188 158.140625 C 272.742188 147.585938 265.097656 137.757813 251.625 137.757813 M 300.046875 138.484375 C 296.042969 138.484375 292.398438 140.667969 290.21875 144.308594 L 290.21875 141.039063 C 290.21875 139.941406 289.121094 139.214844 288.394531 139.214844 L 280.382813 139.214844 C 279.292969 139.214844 278.566406 139.941406 278.566406 141.039063 L 278.566406 178.527344 C 278.566406 179.617188 279.292969 180.347656 280.382813 180.347656 L 288.757813 180.347656 C 289.847656 180.347656 290.578125 179.617188 290.578125 178.527344 L 290.578125 160.328125 C 290.578125 154.136719 293.492188 151.589844 298.585938 151.589844 L 300.769531 151.589844 C 301.5 151.589844 302.957031 151.222656 302.957031 149.402344 L 302.957031 141.039063 C 302.957031 139.214844 301.867188 138.847656 300.769531 138.847656 Z M 330.625 170.160156 C 324.800781 170.160156 320.433594 165.421875 320.433594 159.597656 C 320.433594 153.777344 324.800781 149.039063 330.625 149.039063 C 336.449219 149.039063 340.816406 153.777344 340.816406 159.597656 C 340.816406 165.421875 336.449219 170.160156 330.625 170.160156 M 332.808594 137.757813 C 327.347656 137.757813 322.617188 139.941406 320.796875 143.214844 L 320.796875 122.832031 C 320.796875 121.738281 320.066406 121.011719 318.972656 121.011719 L 310.238281 121.011719 C 309.144531 121.011719 308.414063 121.738281 308.414063 122.832031 L 308.414063 178.527344 C 308.414063 179.617188 309.144531 180.347656 310.238281 180.347656 L 318.613281 180.347656 C 319.703125 180.347656 320.433594 179.617188 320.433594 178.527344 L 320.433594 176.34375 C 322.617188 179.617188 327.347656 181.804688 332.445313 181.804688 C 343.363281 181.804688 352.832031 173.429688 352.832031 159.960938 C 353.195313 146.128906 343.363281 137.757813 332.808594 137.757813 M 369.570313 179.984375 L 375.402344 179.984375 C 376.132813 179.984375 377.585938 179.617188 377.585938 177.800781 L 377.585938 171.609375 C 377.585938 170.160156 376.492188 169.789063 375.765625 169.789063 L 373.214844 169.789063 C 371.761719 169.789063 370.667969 168.699219 370.667969 167.246094 L 370.667969 122.832031 C 370.667969 121.738281 369.9375 121.011719 368.847656 121.011719 L 360.476563 121.011719 C 359.386719 121.011719 358.65625 121.738281 358.65625 122.832031 L 358.65625 169.789063 C 359.019531 175.980469 361.929688 179.984375 369.570313 179.984375 "/>
</g>
</g>
</svg>
