<svg version="1.2" xmlns="http://www.w3.org/2000/svg" viewBox="0 0 1542 531" width="1542" height="531">
	<title>admiral-logo-color-svg</title>
	<style>
		.s0 { fill: #c20060 } 
		.s1 { fill: #0045a0 } 
	</style>
	<g id="Layer">
		<g id="Layer">
			<g id="Prime">
				<g id="Orbit">
					<path id="Layer" fill-rule="evenodd" class="s0" d="m489.8 383.6c0.1-0.2 0.9-1.2 1.5-2.1 0.2-0.5 0.7-0.6 1.1-0.6h45.9c0.6 0 1.2 0.4 1.3 1 4.5 12.3 8.1 29.2 8.6 41.4 0 0.1 0 0.3-0.2 0.6-4.4 12.5-18.2 56.2-77.8 86.4-29 14.7-64.4 21.8-104.3 19.6-41.4-2.2-86.9-14.5-133.5-37.9-47.4-23.7-90-55.9-125.6-93.3-35.2-36.8-62.4-77.6-80.6-118.9-17.7-39.9-25.9-79.4-25.9-115.9 0-152.8 142.7-163.2 171.9-163.5 136.4-1.3 213.7 81.1 213.7 81.1 0.6 0.6 0.6 1.5 0 2.1-0.5 0.5-1.4 0.5-2 0 0 0-95.9-88.7-227-70.4-31.9 4.4-59.7 16.5-80.3 36.8-27 26.6-37.8 63.6-33.7 104.4 6.1 61.5 45.6 131.6 112.6 188.5 66.9 57 146.3 88.1 213.8 89.1 44.7 0.7 84.4-11.6 111.5-38.4q4.9-4.7 8.8-9.8c0-0.1 0-0.1 0.2-0.2z"/>
				</g>
				<g id="Admiral">
					<path id="Layer" fill-rule="evenodd" class="s1" d="m536.4 354.3l2.7-22.6c-16.3 19.2-36.9 28.6-61.9 28.6-25.4 0-44-9-55.7-27.1-11.8-18.1-15.6-43.6-11.6-76.4 2.8-23 8.6-42.5 17.5-59 8.8-16.4 20.1-28.9 33.8-37.4 13.7-8.5 29-12.8 46-12.8 22.4 0 39 7.9 49.7 23.7l11.1-89.7h69l-33.4 272.7zm806.1-0.2v0.2zm2.7-21.7c-10 9.4-20.2 16.4-30.5 20.6-10.1 4.3-21.3 6.5-33.5 6.5-20.9 0-36.6-5.4-47.4-16.2-10.7-10.9-15-25.5-12.6-44.2 2.6-21.1 12.5-37.2 29.5-48.2 17.1-11.1 42.1-17.4 74.9-18.9l30.3-1.4 1-8.1c2.2-17.6-5.3-26.4-22.3-26.4q-23.6 0-29.6 19.9l-61.6-5c12-42.3 45.4-63.3 100.1-63.3 30.3 0 51.8 6.8 64.8 20.1q19.2 20.4 14.1 61.9l-15.3 124.4h-64.6zm-1192.5-26.7c0 0 60.8-129.2 89.7-190.8 9.9-20.9 30.9-34.1 54-33.8 0.9 0 4.4 0 5.3 0 25.6 0.3 43.8 13.8 50.4 43.3 17.3 76.7 51.7 229.9 51.7 229.9h-75.9l-9.3-52.3h-91.9l-18 42.9c-37.2-20.8-56-39.2-56-39.2zm1286.7 48.4l33.4-272.6h68.9l-33.4 272.6zm-469.4 0l24.5-200.3h69l-24.6 200.5h-68.9zm103.4-0.2v0.2zm24.5-200.4h67.2l-2.9 24.5c7.9-9.4 16.9-16.5 26.6-21.1 9.7-4.5 20.8-6.9 33-6.9 7 0 13.5 0.6 19.2 1.9l-14.8 59.2c-5.2-1.5-12.2-2.2-21.1-2.2q-20.2 0-32.2 7.9c-9.7 6.7-15.6 18.1-17.5 34.3l-12.6 102.8h-69.4zm-229.5 200h0.1l-0.1 0.5zm15.6-126.8c1.1-7.9 0.3-13.5-2.2-17.2-2.5-3.5-7.2-5.3-14-5.3-8 0-14.8 2.5-20.2 7.2-5.8 5.2-9.2 12.1-10.2 21.1l-14.9 121.4h-69.2l15.6-127.2c1-7.9 0.1-13.5-2.4-17.2-2.5-3.5-7.2-5.3-14-5.3-8.1 0-14.8 2.5-20.3 7.2-5.7 5.2-9.1 12.1-10.1 21.1l-14.9 121.4h-68.9l24.5-200.5h66.9l-2.8 23.3c16.2-19.6 36.1-29.5 59.8-29.5 12.5 0 22.9 2.7 31.1 8 8.4 5.3 14.3 13.1 17.5 23.3 9.5-10.8 19.6-18.6 30.2-23.7 10.6-5.2 22.4-7.7 35.1-7.7 20.3 0 35.1 6 44.2 18.3q13.6 18.3 9.2 53.4l-16.4 134.7h-69.1zm466.7 42.5l-22.2 1.2c-13.1 0.7-22.8 2.9-29.3 6.6-6.5 3.7-10.2 9.3-11 16.7-1.5 12.2 5.3 18.4 20.3 18.4q17.2 0 28.2-9.8c7.4-6.4 11.8-15.1 13.1-26.2zm-803.5-17.9c2.1-17.4 1-29.8-3.4-37.4q-6.6-11.5-23.4-11.5-34 0-40.1 51.2-6.2 50.8 27.3 50.8c11.2 0 20.2-4.1 26.8-12.5 6.3-7.7 10.3-19.3 12.2-34.7zm-255.6-102l-39.7 93.9h56zm705.3-18l6.1-50h69.9l-6.2 50z"/>
				</g>
			</g>
		</g>
	</g>
</svg>