<?xml version="1.0" encoding="UTF-8" standalone="no"?>
<!-- Created with Inkscape (http://www.inkscape.org/) -->

<svg
   xmlns:dc="http://purl.org/dc/elements/1.1/"
   xmlns:cc="http://creativecommons.org/ns#"
   xmlns:rdf="http://www.w3.org/1999/02/22-rdf-syntax-ns#"
   xmlns:svg="http://www.w3.org/2000/svg"
   xmlns="http://www.w3.org/2000/svg"
   xmlns:sodipodi="http://sodipodi.sourceforge.net/DTD/sodipodi-0.dtd"
   xmlns:inkscape="http://www.inkscape.org/namespaces/inkscape"
   width="1000"
   height="1396.2914"
   viewBox="0 0 100 139.62914"
   version="1.1"
   id="svg8"
   inkscape:version="0.92.4 (5da689c313, 2019-01-14)"
   sodipodi:docname="A.svg">
  <defs
     id="defs2" />
  <sodipodi:namedview
     id="base"
     pagecolor="#ffffff"
     bordercolor="#666666"
     borderopacity="1.0"
     inkscape:pageopacity="0.0"
     inkscape:pageshadow="2"
     inkscape:zoom="0.30656934"
     inkscape:cx="1079.3691"
     inkscape:cy="168.46502"
     inkscape:document-units="px"
     inkscape:current-layer="layer1"
     showgrid="false"
     units="px"
     fit-margin-top="0"
     fit-margin-left="0"
     fit-margin-right="0"
     fit-margin-bottom="0" />
  <metadata
     id="metadata5">
    <rdf:RDF>
      <cc:Work
         rdf:about="">
        <dc:format>image/svg+xml</dc:format>
        <dc:type
           rdf:resource="http://purl.org/dc/dcmitype/StillImage" />
        <dc:title></dc:title>
      </cc:Work>
    </rdf:RDF>
  </metadata>
  <g
     inkscape:label="Layer 1"
     inkscape:groupmode="layer"
     id="layer1"
     transform="translate(-9.6964266,138.94496)">
    <g
       transform="matrix(3.586672,0,0,3.586672,8.1182909,-138.94496)"
       id="g59787"
       style="fill:#666464;fill-opacity:1;stroke:none">
      <path
         d="M 18.331,0 17.868,0.578 V 5.599 L 20.762,1.989 18.332,0 H 18.331 M 12.73,6.99 v 13.88 h 3.128 V 3.087 L 12.73,6.989 V 6.99 m 5.139,1.838 v 12.044 h 3.128 V 4.925 L 17.869,8.827 V 8.828 M 1.602,20.871 H 5.627 L 10.718,14.52 V 9.498 L 1.602,20.871 M 17.87,33.737 h 3.128 V 28.094 H 17.87 v 5.643 m -5.14,5.192 h 3.128 V 28.094 H 12.73 V 38.93 38.929 m 5.139,0 h 7.82 v -3.16 h -7.82 v 3.16 m -10.277,0 h 3.128 v -3.16 H 7.59 v 3.16 h 0.002"
         id="path59785"
         inkscape:connector-curvature="0"
         style="vector-effect:none;fill-rule:evenodd" />
    </g>
    <g
       transform="matrix(3.586672,0,0,3.586672,8.1182909,-138.94496)"
       id="g59793"
       style="fill:#00e1c3;fill-opacity:1;stroke:none">
      <path
         d="m 20.744,22.903 -2.533,3.16 h 10.11 v -3.16 h -7.577"
         id="path59791"
         inkscape:connector-curvature="0"
         style="vector-effect:none;fill-rule:evenodd" />
    </g>
    <g
       transform="matrix(3.586672,0,0,3.586672,8.1182909,-138.94496)"
       id="g59799"
       style="fill:#fadc00;fill-opacity:1;stroke:none">
      <path
         d="m 0.44,26.063 h 15.417 v -3.16 H 0.441 l -0.001,3.16"
         id="path59797"
         inkscape:connector-curvature="0"
         style="vector-effect:none;fill-rule:evenodd" />
    </g>
  </g>
</svg>
