<?xml version="1.0" encoding="utf-8"?>
<!-- Generator: Adobe Illustrator 19.2.1, SVG Export Plug-In . SVG Version: 6.00 Build 0)  -->
<svg version="1.1" id="layer" xmlns="http://www.w3.org/2000/svg" xmlns:xlink="http://www.w3.org/1999/xlink" x="0px" y="0px"
	 viewBox="0 0 652 652" style="enable-background:new 0 0 652 652;" xml:space="preserve">
<style type="text/css">
	.st0{fill:#41A5DD;}
</style>
<g id="Form-Examples">
	<g id="Listing-Furniture-_x26_-Appliances-_x2B_-Floors" transform="translate(-241.000000, -19.000000)">
		<g id="AnyVan-Logo" transform="translate(241.000000, 19.000000)">
			<g id="Group">
				<path id="Shape" class="st0" d="M275.1,275.1c-6.7,0-10.8,3.5-10.8,10.8v58.2h-0.3L224.7,281c-2.4-4.1-6.5-5.9-11.2-5.9
					c-9.5,0-14.1,3.9-14.1,13.1V366c0,7.2,4.1,10.8,10.8,10.8S221,373.2,221,366v-56.5h0.2l39,61.3c2.8,4.5,5.2,6,12.3,6
					c9.5,0,13.2-5,13.2-13.9v-77C285.9,278.7,281.8,275.1,275.1,275.1L275.1,275.1z"/>
				<path id="Shape_1_" class="st0" d="M361.7,275.1c-4.7,0-7.1,1.7-9.7,6.5l-19.4,35.9l-19.6-35.9c-2.3-4.3-4.8-6.5-10.1-6.5
					c-4.3,0-11.4,2.6-11.4,10.2c0,2,0.8,4.1,1.9,5.9l27.4,45.5v28.9c0,6.7,4.3,11.2,11.2,11.2c6.9,0,11.2-4.5,11.2-11.2v-28.9
					l27.4-45.5c1.1-1.8,1.9-3.9,1.9-5.9C372.8,277.7,365.8,275.1,361.7,275.1L361.7,275.1z"/>
				<path id="Shape_2_" class="st0" d="M461.4,285.1c0-7.5-5.8-10-11.4-10c-5.2,0-8.4,3.1-10.5,9.8l-21.1,66.8h-0.2L398,285
					c-2.1-6.7-5.4-9.8-11.4-9.8c-5.6,0-11.4,2.4-11.4,10c0,1.8,0.4,3.9,1.3,6.5l27.6,77.5c2.3,6.4,6.7,7.8,13.6,7.8
					c6.9,0,11.4-1.3,13.6-7.8l28.5-77.5C461,289.1,461.4,286.8,461.4,285.1L461.4,285.1z"/>
				<path id="Shape_3_" class="st0" d="M504.6,283.3c-2.4-6.9-6.9-8.2-12.1-8.2h-5.4c-5.4,0-9,1.8-11,6.8l-29,76.5
					c-0.8,2.2-2.2,6.1-2.2,8.6c0,6,4.3,9.8,10.4,9.8c5.4,0,8.4-1.8,10-6.1l5.9-16.4h36.1l5.8,16.4c1.7,4.3,5.2,6.1,10.1,6.1
					c5.8,0,10.6-4.3,10.6-9.8c0-2.4-1.3-6.4-2.2-8.6L504.6,283.3L504.6,283.3z M476.3,338.8l13.2-39.4h0.2l12.7,39.4H476.3
					L476.3,338.8z"/>
				<path id="Shape_4_" class="st0" d="M615.2,275.1c-6.7,0-10.8,3.5-10.8,10.8v58.2h-0.2L564.9,281c-2.4-4.1-6.5-5.9-11.2-5.9
					c-9.5,0-14.1,3.9-14.1,13.1V366c0,7.2,4.1,10.8,10.8,10.8c6.7,0,10.8-3.5,10.8-10.8v-56.5h0.2l39,61.3c2.8,4.5,5.2,6,12.3,6
					c9.5,0,13.2-5,13.2-13.9v-77C626,278.7,621.9,275.1,615.2,275.1L615.2,275.1z"/>
				<ellipse id="Oval" class="st0" cx="74.4" cy="358.3" rx="11.8" ry="11.8"/>
				<path id="Shape_5_" class="st0" d="M167.2,283.3c-2.4-6.9-6.9-8.2-12.1-8.2h-5.4c-0.5,0-0.9,0-1.4,0.1H38.5
					c-6.9,0-12.6,5.7-12.6,12.6v76.5c0,6.9,5.7,12.6,12.6,12.6h79.3v-0.1h0.2c5.4,0,8.4-1.8,10-6.1l5.9-16.4h36.1l5.8,16.4
					c1.7,4.3,5.2,6.1,10.1,6.1c5.8,0,10.5-4.3,10.5-9.8c0-2.4-1.3-6.4-2.2-8.6L167.2,283.3L167.2,283.3z M74.4,372.7
					c-8,0-14.5-6.4-14.5-14.5c0-7.9,6.5-14.5,14.5-14.5c8,0,14.5,6.4,14.5,14.5C88.9,366.3,82.4,372.7,74.4,372.7L74.4,372.7z
					 M105.1,359.4H91.8c0-2.8-1.2-18.6-17.7-18.6s-17.3,18.7-17.3,18.7h-3.5c0,0-10.3-4.2-12.5-5.3c-2.1-1.2-2.4-7-2.4-7v-5.1h1.8
					v-5.2c0.9-11,27.9-20.9,27.9-20.9s22.7-22.3,26.3-25.5c7.6-6.7,38.6-5.2,38.6-5.2L105.1,359.4L105.1,359.4z M138.9,338.8
					l13.2-39.4h0.2l12.7,39.4H138.9L138.9,338.8z"/>
				<path id="Shape_6_" class="st0" d="M58.5,329.3c-0.9-0.2-4.4-0.2-5.9-0.3c-0.5,0-0.9,0.2-1.3,0.5c-0.7,0.6-1.8,1.7-2.8,3
					c-1.2,1.6-2.1,3.5-2.6,4.8c-0.4,1,0.7,1.1,0.7,1.1l2.6,0.6c0.3,0.1,0.6,0,0.9-0.2l8.7-7.5C58.7,331.1,59.9,329.6,58.5,329.3
					L58.5,329.3z"/>
				<path id="Shape_7_" class="st0" d="M117.1,292c-1.2,0-12.1,1.2-14.3,1.6c-2.1,0.4-5.3,2.8-5.3,2.8L84,311.2v7.9l28.5-5.5
					c0,0,3.7-0.7,4.3-5.4s1.7-14.8,1.7-14.8S118.3,292,117.1,292L117.1,292z"/>
			</g>
		</g>
	</g>
</g>
</svg>
