<?xml version="1.0" encoding="utf-8"?>
<!-- Generator: Adobe Illustrator 25.0.1, SVG Export Plug-In . SVG Version: 6.00 Build 0)  -->
<svg version="1.0" id="Layer_1" xmlns="http://www.w3.org/2000/svg" xmlns:xlink="http://www.w3.org/1999/xlink" x="0px" y="0px"
	 viewBox="0 0 258 162" style="enable-background:new 0 0 258 162;" xml:space="preserve">
<style type="text/css">
	.st0{fill:#C09C7C;}
</style>
<g id="_Approved---News">
	<g id="Desktop_learn_glossary-view-Term-Copy">
		<g id="Header_white">
			<g id="first-level">
				<g id="logo">
					<path id="Fill-8" d="M213.1,71.8c-2-0.2-4,0.7-5.2,2.4c-1.1-1.6-2.9-2.5-4.8-2.4c-1.9-0.1-3.7,0.7-4.8,2.2v-1.7h-5.4v18.2h5.4
						V80.3c0-2.1,1-3.4,2.8-3.4s2.6,1.2,2.6,3v10.7h5.4V80.3c0-2.1,1-3.4,2.8-3.4s2.6,1.2,2.6,3v10.7h5.4V79.3
						C220,74.8,217.3,71.8,213.1,71.8"/>
					<path id="Fill-9" d="M181.6,85.7c-2.4,0.1-4.3-1.8-4.4-4.2c-0.1-2.4,1.8-4.3,4.2-4.4c2.4-0.1,4.3,1.8,4.4,4.2c0,0,0,0.1,0,0.1
						c0.1,2.2-1.6,4.2-3.8,4.3C181.9,85.7,181.7,85.7,181.6,85.7z M181.6,71.8c-5.3,0-9.6,4.3-9.6,9.6c0,5.3,4.3,9.6,9.6,9.6
						c5.3,0,9.6-4.3,9.6-9.6c0,0,0,0,0,0c0-5.2-4.2-9.5-9.4-9.6C181.8,71.8,181.7,71.8,181.6,71.8z"/>
					<path id="Fill-10" d="M164.3,85.6c-2.3-0.1-4.1-2.1-4-4.4c0.1-2.2,1.8-3.9,4-4c1.5-0.1,2.8,0.7,3.5,2l4.7-2.8
						c-2.7-4.6-8.6-6.1-13.2-3.3c-4.6,2.7-6.1,8.6-3.3,13.2s8.6,6.1,13.2,3.3c1.4-0.8,2.5-2,3.3-3.3l-4.7-2.7
						C167.2,84.9,165.8,85.7,164.3,85.6"/>
					<path id="Fill-11" d="M128.2,85.9c-2.5,0.1-4.5-1.9-4.6-4.3c-0.1-2.5,1.9-4.5,4.3-4.6c2.5-0.1,4.5,1.9,4.6,4.3c0,0,0,0.1,0,0.1
						c0.2,2.3-1.5,4.3-3.8,4.4C128.6,85.9,128.4,85.9,128.2,85.9z M132.6,74.1c-1.4-1.5-3.4-2.3-5.4-2.2c-4.7,0-8.7,4.2-8.7,9.6
						s3.9,9.6,8.7,9.6c2,0.1,4-0.7,5.4-2.2v1.7h5.4V72.3h-5.4L132.6,74.1L132.6,74.1z"/>
					<path id="Fill-12" d="M114.4,67.2l-5.4,1.6v3.4h-2.9v5.2h2.9V84c0,5.1,2.1,7.2,9.2,6.5v-4.9c-2.4,0.1-3.7,0-3.7-1.6v-6.4h3.7
						v-5.2h-3.7V67.2"/>
					<polygon id="Fill-13" points="99.2,90.5 104.6,90.5 104.6,72.3 99.2,72.3 					"/>
					<polyline id="Fill-14" points="140.5,90.5 145.9,90.5 145.9,64.2 140.5,65.9 140.5,90.5 					"/>
					<path id="Fill-15" d="M87.8,85.9c-2.5,0.1-4.5-1.8-4.6-4.3s1.8-4.5,4.3-4.6s4.5,1.8,4.6,4.3c0,0,0,0.1,0,0.1
						c0.2,2.3-1.6,4.3-3.8,4.4C88.1,85.9,88,85.9,87.8,85.9z M88.9,71.9c-2-0.1-4,0.7-5.4,2.2v-1.7h-5.4v25.4h5.4v-9
						c1.4,1.5,3.4,2.3,5.4,2.2c4.7,0,8.7-4.2,8.7-9.6S93.6,71.8,88.9,71.9L88.9,71.9z"/>
					<path id="Fill-16" d="M65.8,85.9c-2.5,0.1-4.5-1.9-4.6-4.3s1.9-4.5,4.3-4.6c2.5-0.1,4.5,1.9,4.6,4.3c0,0,0,0.1,0,0.1
						c0.2,2.3-1.6,4.3-3.8,4.4C66.1,85.9,66,85.9,65.8,85.9z M70.1,74.1c-1.4-1.5-3.4-2.3-5.4-2.2c-4.7,0-8.7,4.2-8.7,9.6
						S60,91,64.7,91c2,0.1,4-0.7,5.4-2.2v1.7h5.4V72.3h-5.4C70.1,72.3,70.1,74,70.1,74.1z"/>
					<path id="Fill-17" d="M47.5,77.2c1.5-0.1,2.8,0.7,3.5,2l4.7-2.8c-1.7-2.9-4.8-4.7-8.2-4.7c-5.3,0.2-9.5,4.6-9.3,9.9
						c0.2,5.1,4.2,9.1,9.3,9.3c3.4,0.1,6.5-1.7,8.2-4.7L51,83.6c-0.7,1.3-2,2.1-3.5,2c-2.3-0.1-4.1-2.1-4-4.4
						C43.6,79,45.3,77.3,47.5,77.2"/>
					<path id="Fill-18" class="st0" d="M150.7,84.7c1.8,0,3.3-1.5,3.3-3.3s-1.5-3.3-3.3-3.3s-3.3,1.5-3.3,3.3c0,0,0,0,0,0
						C147.5,83.2,148.9,84.7,150.7,84.7"/>
					<path id="Fill-19" d="M102,71c1.8,0,3.3-1.4,3.3-3.3c0-1.8-1.4-3.3-3.3-3.3c-1.8,0-3.3,1.4-3.3,3.3c0,0,0,0,0,0
						C98.8,69.5,100.2,71,102,71"/>
				</g>
			</g>
		</g>
	</g>
</g>
</svg>
