<?xml version="1.0" encoding="utf-8"?>
<!-- Generator: Adobe Illustrator 19.2.1, SVG Export Plug-In . SVG Version: 6.00 Build 0)  -->
<svg version="1.1" id="layer" xmlns="http://www.w3.org/2000/svg" xmlns:xlink="http://www.w3.org/1999/xlink" x="0px" y="0px"
	 viewBox="0 0 652 652" style="enable-background:new 0 0 652 652;" xml:space="preserve">
<style type="text/css">
	.st0{fill:#144257;}
</style>
<g>
	<path class="st0" d="M602,420.4h5v-8.8h2.6l5.4,8.8h5.8l-7.2-11.1v-0.1l6.4-9h-5.6l-4.9,7.1h-2.5v-15.1h-5V420.4z M586.4,420.4h5
		v-8c0-1.2,0.1-2.3,0.4-3.3c1-3,3.4-4.2,5.5-4.2c0.7,0,1.2,0.1,1.2,0.1v-5c0,0-0.4-0.1-0.9-0.1c-3.1,0-5.5,2.3-6.4,5.2h-0.1
		c0,0,0.1-0.7,0.1-1.4v-3.5h-4.8V420.4z M565.3,410.3c0-3.7,2.7-6.3,6-6.3c3.3,0,6,2.6,6,6.3c0,3.8-2.7,6.3-6,6.3
		C568,416.6,565.3,414.1,565.3,410.3 M560.1,410.3c0,6.2,5,10.6,11.1,10.6c6.2,0,11.1-4.4,11.1-10.6c0-6.2-4.9-10.6-11.1-10.6
		C565.1,399.7,560.1,404.1,560.1,410.3 M533.1,420.4h5.6l3.4-11.5c0.3-1.1,0.5-2.2,0.5-2.2h0.1c0,0,0.2,1.1,0.5,2.2l3.4,11.5h5.6
		l6.1-20.2h-5.2l-3.5,13.3c-0.3,1.1-0.4,2.1-0.4,2.1H549c0,0-0.2-1.1-0.4-2.1l-3.7-13.3h-4.5l-3.7,13.3c-0.3,1.1-0.5,2.1-0.5,2.1
		h-0.1c0,0-0.1-1.1-0.4-2.1l-3.5-13.3h-5.3L533.1,420.4z M495,413.2c0,5.5,2.7,7.7,7,7.7c3.5,0,6-2.1,7-4.2h0.1c0,0-0.1,0.6-0.1,1.4
		v2.3h4.8v-20.2h-5v9.3c0,3.6-2,6.8-5.7,6.8c-2.5,0-3.1-1.7-3.1-4.1v-12h-5V413.2z M474.1,410.3c0-3.7,2.7-6.3,6-6.3
		c3.2,0,6,2.6,6,6.3c0,3.8-2.7,6.3-6,6.3C476.9,416.6,474.1,414.1,474.1,410.3 M469,410.3c0,6.2,5,10.6,11.1,10.6
		c6.1,0,11.1-4.4,11.1-10.6c0-6.2-5-10.6-11.1-10.6C474,399.7,469,404.1,469,410.3 M447.1,427.4c0,0,1.8,1.3,4.2,1.3
		c3.1,0,5.9-1.6,7.3-5.3l9-23.3h-5.5l-4,11.7c-0.4,1.1-0.7,2.7-0.7,2.7h-0.1c0,0-0.4-1.7-0.8-2.7l-4.2-11.7h-5.7l8.5,19.9l-0.8,1.8
		c-0.8,1.8-2.1,2.6-3.5,2.6c-1.2,0-2.3-0.8-2.3-0.8L447.1,427.4z M416.8,427.4c0,0,1.8,1.3,4.2,1.3c3.1,0,5.9-1.6,7.3-5.3l9-23.3
		h-5.5l-4,11.7c-0.4,1.1-0.7,2.7-0.7,2.7h-0.1c0,0-0.4-1.7-0.8-2.7l-4.2-11.7h-5.7l8.5,19.9l-0.8,1.8c-0.8,1.8-2.1,2.6-3.5,2.6
		c-1.1,0-2.3-0.8-2.3-0.8L416.8,427.4z M401.8,414.3c0-2.8,4.2-3.2,6.7-3.2h0.9v0.5c0,2.5-1.9,5.3-4.6,5.3
		C402.7,417,401.8,415.7,401.8,414.3 M396.7,414.6c0,4,3.2,6.3,6.9,6.3c4.6,0,6.2-3.6,6.2-3.6h0.1c0,0-0.1,0.6-0.1,1.4v1.7h4.6
		v-12.6c0-5.1-3.1-8-8.4-8c-4.8,0-7.9,2.5-7.9,2.5l1.9,3.6c0,0,2.7-1.9,5.6-1.9c2.2,0,3.9,0.9,3.9,3.6v0.3h-0.7
		C405.4,407.7,396.7,408.2,396.7,414.6 M369.8,420.4h5.6l3.4-11.5c0.3-1.1,0.5-2.2,0.5-2.2h0.1c0,0,0.2,1.1,0.5,2.2l3.4,11.5h5.6
		l6.1-20.2h-5.2l-3.5,13.3c-0.3,1.1-0.4,2.1-0.4,2.1h-0.1c0,0-0.2-1.1-0.4-2.1l-3.7-13.3h-4.5l-3.7,13.3c-0.3,1.1-0.5,2.1-0.5,2.1
		h-0.1c0,0-0.1-1.1-0.4-2.1l-3.5-13.3h-5.3L369.8,420.4z M338.1,407.8c0.5-2.6,2.3-4.2,4.8-4.2c2.2,0,3.9,1.5,4,4.2H338.1z
		 M332.8,410.3c0,5.8,4.2,10.6,10.9,10.6c5,0,8.1-2.9,8.1-2.9l-1.9-3.6c0,0-2.6,2.2-5.8,2.2c-3,0-5.8-1.8-6.1-5.4h14
		c0,0,0.1-1.3,0.1-1.9c0-5.4-3.1-9.6-9-9.6C337,399.7,332.8,404.1,332.8,410.3 M309.9,420.4h5v-9.3c0-1,0.1-1.8,0.3-2.6
		c0.8-2.5,2.8-4.2,5.5-4.2c2.6,0,3.2,1.7,3.2,4.1v12h5v-13c0-5.4-2.5-7.7-7-7.7c-3.5,0-6,2.1-7,4h-0.1c0,0,0.1-0.7,0.1-1.7v-9.8h-5
		V420.4z M295.8,413c0,6.8,5.6,7.6,8.4,7.6c1,0,1.5-0.1,1.5-0.1v-4.4c0,0-0.4,0.1-0.9,0.1c-1.4,0-4-0.5-4-3.8v-7.9h4.6v-4h-4.6v-5.8
		H296v5.8h-2.7v4h2.6V413z M270.2,415.8c-3.3,0-5.1-2.6-5.1-6.2c0-3.4,1.7-5.6,4.8-5.6c2.7,0,5,1.2,5,5.8
		C274.9,414.4,272.6,415.8,270.2,415.8 M263.4,423.1l-1.5,3.8c1.9,1,4.6,1.7,7.2,1.7c5.3,0,10.7-2.6,10.7-9.6v-19h-4.7v1.5
		c0,0.3,0,0.6,0,0.6H275c0,0-1.6-2.6-6-2.6c-5.8,0-9,4.5-9,10.1c0,5.6,3.3,10.2,9.1,10.2c2.7,0,4.4-1,5.6-2.7h0.1
		c0,0-0.1,0.6-0.1,1.1v1.2c0,3.6-2.6,4.9-5.7,4.9C266,424.5,263.4,423.1,263.4,423.1 M237.1,420.4h5v-9.3c0-1,0.1-1.9,0.4-2.7
		c0.8-2.4,2.7-4.1,5.4-4.1c2.6,0,3.2,1.7,3.2,4.1v12h5v-13c0-5.4-2.5-7.7-7-7.7c-4.1,0-6.3,2.5-7.2,4.2h-0.1c0,0,0.1-0.6,0.1-1.4
		v-2.3h-4.8V420.4z M226.5,420.4h5v-20.2h-5V420.4z M226.5,396.7h5v-4.5h-5V396.7z M190.3,420.4h5v-8.9c0-0.9,0-1.8,0.2-2.6
		c0.6-2.6,2.3-4.6,5-4.6c2.4,0,2.7,1.9,2.7,4v12.1h5v-8.9c0-1,0-1.8,0.2-2.6c0.6-2.5,2.3-4.6,4.9-4.6c2.3,0,2.8,1.7,2.8,4v12.1h5
		v-13c0-5.3-2.4-7.7-6.6-7.7c-3.2,0-5.8,2-6.9,4.2h-0.1c-0.8-2.7-2.8-4.2-5.9-4.2c-3.2,0-5.6,2.2-6.6,4.2H195c0,0,0.1-0.6,0.1-1.4
		v-2.3h-4.8V420.4z M174.7,420.4h5v-8c0-1.2,0.1-2.3,0.4-3.3c1-3,3.4-4.2,5.5-4.2c0.7,0,1.2,0.1,1.2,0.1v-5c0,0-0.4-0.1-0.9-0.1
		c-3.1,0-5.5,2.3-6.4,5.2h-0.1c0,0,0.1-0.7,0.1-1.4v-3.5h-4.8V420.4z M153.5,410.3c0-3.7,2.7-6.3,6-6.3c3.3,0,6,2.6,6,6.3
		c0,3.8-2.7,6.3-6,6.3C156.2,416.6,153.5,414.1,153.5,410.3 M148.4,410.3c0,6.2,5,10.6,11.1,10.6c6.2,0,11.1-4.4,11.1-10.6
		c0-6.2-5-10.6-11.1-10.6C153.3,399.7,148.4,404.1,148.4,410.3 M137.2,420.4h5v-15.9h4.3v-4h-4.3v-0.8c0-2.9,2.5-3.3,3.9-3.3
		c0.6,0,1,0.1,1,0.1v-4.2c0,0-0.7-0.2-1.7-0.2c-2.8,0-8.2,0.9-8.2,7.5v0.9h-2.5v4h2.5V420.4z M116.5,417.9c0,0,2.8,3,7.9,3
		c4.8,0,7.7-2.7,7.7-6.1c0-6.5-9.8-6.2-9.8-9c0-1.3,1.3-1.8,2.6-1.8c3.1,0,5,1.7,5,1.7l1.9-3.7c0,0-2.2-2.3-6.8-2.3
		c-4.4,0-7.7,2.2-7.7,6c0,6.5,9.8,6.1,9.8,9.1c0,1.2-1.2,1.8-2.7,1.8c-3.3,0-5.5-2.2-5.5-2.2L116.5,417.9z M93.9,420.4h5v-9.3
		c0-1,0.1-1.9,0.4-2.7c0.8-2.4,2.7-4.1,5.4-4.1c2.6,0,3.2,1.7,3.2,4.1v12h5v-13c0-5.4-2.5-7.7-7-7.7c-4.1,0-6.3,2.5-7.2,4.2h-0.1
		c0,0,0.1-0.6,0.1-1.4v-2.3h-4.8V420.4z M76.1,414.3c0-2.8,4.2-3.2,6.7-3.2h0.9v0.5c0,2.5-1.9,5.3-4.6,5.3
		C77.1,417,76.1,415.7,76.1,414.3 M71,414.6c0,4,3.3,6.3,6.9,6.3c4.6,0,6.2-3.6,6.2-3.6h0.1c0,0-0.1,0.6-0.1,1.4v1.7h4.6v-12.6
		c0-5.1-3.1-8-8.4-8c-4.8,0-7.9,2.5-7.9,2.5l1.9,3.6c0,0,2.7-1.9,5.6-1.9c2.2,0,3.9,0.9,3.9,3.6v0.3H83
		C79.7,407.7,71,408.2,71,414.6 M57.1,420.4h5v-8c0-1.2,0.1-2.3,0.4-3.3c1-3,3.4-4.2,5.5-4.2c0.7,0,1.2,0.1,1.2,0.1v-5
		c0,0-0.4-0.1-0.9-0.1c-3.1,0-5.5,2.3-6.4,5.2h-0.1c0,0,0.1-0.7,0.1-1.4v-3.5h-4.8V420.4z M43.1,420.4h5.1v-23.8h9.2v-4.4H33.8v4.4
		h9.2V420.4z"/>
	<path class="st0" d="M43.3,275.9c0-25.2,16.8-40.7,41.8-40.7c13.6,0,24.2,3.8,32.7,10.4l8.6-16.8c-10.8-8.4-25.2-12.8-43.3-12.8
		c-37.6,0-62.3,26.2-62.3,60.7c0,36.5,24.2,59.5,61.1,59.5c19.6,0,34.9-5.2,45.6-12.8l-8.6-16.8c-8.4,6.8-20.1,10.4-34.1,10.4
		C59.5,316.9,43.3,301.7,43.3,275.9"/>
	<path class="st0" d="M407.4,275.9c0-25.2,16.8-40.7,41.8-40.7c13.6,0,24.3,3.8,32.7,10.4l8.6-16.8c-10.8-8.4-25.2-12.8-43.3-12.8
		c-37.6,0-62.3,26.2-62.3,60.7c0,36.5,24.2,59.5,61.1,59.5c19.6,0,34.8-5.2,45.7-12.8l-8.6-16.8c-8.4,6.8-20,10.4-34,10.4
		C423.6,316.9,407.4,301.7,407.4,275.9"/>
</g>
<rect x="337.7" y="218" class="st0" width="21" height="116.2"/>
<rect x="151" y="218" class="st0" width="21" height="116.2"/>
<polygon class="st0" points="294.2,218 255.3,308.4 254.9,308.4 213.6,218 188.4,218 243.3,334.2 265.7,334.2 319,218 "/>
<g>
	<path class="st0" d="M595.9,315c1-0.6,1.2-1.2,1.2-2.2v-29.3h-34.5c-10,0-17.6,1-22.7,3.2c-6.2,2.6-9.4,7.2-9.4,13
		c0,5.4,2.2,9.6,6.8,12.4c5.2,3.2,12.4,4.8,29.9,4.8C581.9,316.9,593.5,316.4,595.9,315 M527.7,330.2c-12-5.2-19.6-14.4-19.6-30.3
		c0-16.6,10.2-27.1,24.5-31.9c8.8-3,18.9-3.8,31.9-3.8h32.7v-5.6c0-18.4-12.2-23.5-35.7-23.5c-17,0-30.7,4-41.5,10.4l-8.4-17.2
		c13-7.6,31.7-12.5,52.5-12.5c32.9,0,54.1,11,54.1,38.9v72.9c0,1.6-0.6,2.4-2.6,3.4c-5.4,2.6-24.3,5-46.5,5
		C547.8,336.2,537,334.2,527.7,330.2"/>
</g>
</svg>
