<?xml version="1.0" encoding="utf-8"?>
<!-- Generator: Adobe Illustrator 19.2.1, SVG Export Plug-In . SVG Version: 6.00 Build 0)  -->
<svg version="1.1" id="layer" xmlns="http://www.w3.org/2000/svg" xmlns:xlink="http://www.w3.org/1999/xlink" x="0px" y="0px"
	 viewBox="0 0 652 652" style="enable-background:new 0 0 652 652;" xml:space="preserve">
<style type="text/css">
	.st0{fill:#111478;}
</style>
<path class="st0" d="M27,380.4h7.3v-7l2-2.2l5.8,9.2h9l-9.9-14.4l8.5-9.2h-8.9l-6.5,8.1h-0.1v-8.1H27V380.4z M52.3,380.4h6.9v-12.9
	h0.1l7.2,12.9h7.1v-23.6h-6.9v12.6h-0.1l-6.9-12.6h-7.4V380.4z M76.1,368.6c0,7.2,4.8,12.3,11.9,12.3c7.2,0,11.9-5.1,11.9-12.3
	c0-7.2-4.8-12.3-11.9-12.3C80.9,356.3,76.1,361.4,76.1,368.6L76.1,368.6z M83.4,368.6c0-5.2,2.8-6.5,4.7-6.5c1.8,0,4.7,1.2,4.7,6.5
	c0,5.2-2.8,6.5-4.7,6.5C86.2,375.1,83.4,373.9,83.4,368.6L83.4,368.6z M132,356.8h-7.2l-2.9,14.8h-0.1l-2.8-14.8h-6.4l-2.8,14.6
	h-0.1l-2.9-14.6h-7.1l6.4,23.6h7.1l2.5-14.4h0.1l2.5,14.4h7.1L132,356.8z M143.4,380.4h10.5c8.2,0,12-4.6,12-11.8
	c0-5.9-2.8-11.8-10.6-11.8h-11.9V380.4z M150.6,362.9h2.3c5.2,0,5.7,4.1,5.7,5.6c0,2.2-0.7,5.9-5.2,5.9h-2.8V362.9z M168.6,380.4
	h7.3v-23.6h-7.3V380.4z M187,372l2.3-7.3h0.1l2.1,7.3H187z M177.1,380.4h7.3l1.1-3.4h7.5l1,3.4h7.5l-8.6-23.6h-7.1L177.1,380.4z
	 M210,370.4h4.6c1.7,0,2.5,0.8,2.5,2.1c0,1.8-1.3,2.2-2.8,2.2H210V370.4z M202.7,380.4h13.4c4.2,0,8.3-2.4,8.3-7.2
	c0-3.5-2-5.1-4.1-5.9c1.7-1,2.9-2.2,2.9-4.6c0-2.4-1.3-5.9-7.5-5.9h-12.9V380.4z M210,362.5h3.8c1.5,0,2.5,0.4,2.5,1.6
	c0,1.5-1,2-2.5,2H210V362.5z M226.8,380.4h19.9v-6h-12.6v-2.9h11.1v-5.6h-11.1v-2.9h12.2v-6h-19.5V380.4z M254.7,380.4h7.3v-17.5
	h6.6v-6h-20.5v6h6.6V380.4z M270.4,380.4h19.9v-6h-12.6v-2.9h11.1v-5.6h-11.1v-2.9h12.2v-6h-19.5V380.4z M291.8,372.5
	c0.1,7.5,7.7,8.5,10.4,8.5c5.2,0,10.9-2,10.9-8.1c0-4.3-3.3-5.9-6.6-6.8c-3.3-0.9-6.7-1.3-6.8-3c0-1.3,1.6-1.6,2.6-1.6
	c0.7,0,1.6,0.2,2.1,0.6c0.6,0.4,1,1,0.9,1.9h6.9c-0.2-5.7-4.7-7.7-9.8-7.7c-4.9,0-9.5,2.3-9.5,7.8c0,4.8,4.3,5.8,8,6.8
	c4.1,1.2,5.1,1.5,5.1,2.7c0,1.7-1.8,2.1-3,2.1c-1.4,0-2.9-0.3-3.5-1.7c-0.2-0.4-0.3-1-0.3-1.6H291.8z M315.3,380.4h6.9v-6.5h-6.9
	V380.4z M335.9,380.4h7.3v-9h9.4v-5.6h-9.4v-2.9h11v-6h-18.2V380.4z M356.1,380.4h7.3v-23.6h-7.3V380.4z M384.2,380.4h4.6v-13h-9.6
	v5.1h3.2c-0.4,1.7-2.1,2.6-3.8,2.6c-4.4,0-5.3-3.9-5.3-6.1c0-1.6-0.2-6.9,4.8-6.9c1.7,0,3.2,1.2,3.4,2.9h7
	c-1.1-5.5-4.9-8.8-10.9-8.8c-5.3,0-11.6,3.6-11.6,12.6c0,6.7,4.3,12.1,11.3,12.1c2.6,0,5.1-0.9,6.7-3L384.2,380.4z M392.1,380.4h7.3
	v-9.3h6.8v9.3h7.3v-23.6h-7.3v8.2h-6.8v-8.2h-7.3V380.4z M421.8,380.4h7.3v-17.5h6.6v-6h-20.5v6h6.6V380.4z M448.1,380.4h10.5
	c8.2,0,12-4.6,12-11.8c0-5.9-2.8-11.8-10.6-11.8h-11.9V380.4z M455.3,362.9h2.3c5.2,0,5.7,4.1,5.7,5.6c0,2.2-0.7,5.9-5.2,5.9h-2.8
	V362.9z M473.3,380.4h7.3v-23.6h-7.3V380.4z M491.7,372l2.3-7.3h0.1l2.1,7.3H491.7z M481.8,380.4h7.3l1.1-3.4h7.5l1,3.4h7.5
	l-8.6-23.6h-7.1L481.8,380.4z M514.7,370.4h4.6c1.7,0,2.5,0.8,2.5,2.1c0,1.8-1.3,2.2-2.8,2.2h-4.3V370.4z M507.4,380.4h13.4
	c4.2,0,8.3-2.4,8.3-7.2c0-3.5-2-5.1-4.1-5.9c1.8-1,2.9-2.2,2.9-4.6c0-2.4-1.3-5.9-7.5-5.9h-12.9V380.4z M514.7,362.5h3.8
	c1.5,0,2.5,0.4,2.5,1.6c0,1.5-1,2-2.5,2h-3.8V362.5z M531.5,380.4h19.9v-6h-12.6v-2.9h11.1v-5.6h-11.1v-2.9H551v-6h-19.5V380.4z
	 M559.4,380.4h7.3v-17.5h6.6v-6h-20.5v6h6.6V380.4z M575.1,380.4h19.9v-6h-12.6v-2.9h11.1v-5.6h-11.1v-2.9h12.2v-6h-19.5V380.4z
	 M596.5,372.5c0.1,7.5,7.7,8.5,10.4,8.5c5.2,0,10.9-2,10.9-8.1c0-4.3-3.3-5.9-6.6-6.8c-3.3-0.9-6.7-1.3-6.8-3c0-1.3,1.6-1.6,2.6-1.6
	c0.7,0,1.6,0.2,2.1,0.6c0.6,0.4,1,1,0.9,1.9h6.9c-0.2-5.7-4.7-7.7-9.8-7.7c-4.9,0-9.5,2.3-9.5,7.8c0,4.8,4.3,5.8,8,6.8
	c4.1,1.2,5.1,1.5,5.1,2.7c0,1.7-1.8,2.1-3,2.1c-1.4,0-2.9-0.3-3.5-1.7c-0.2-0.4-0.3-1-0.3-1.6H596.5L596.5,372.5z M27.3,272.7h32.4
	c21.4,0,28.9,15.8,28.9,32c0,19.7-10.4,32.2-32.8,32.2H27.3V272.7z M47.1,320.4h7.7c12.3,0,14.1-10,14.1-16c0-4-1.3-15.3-15.5-15.3
	h-6.3V320.4L47.1,320.4z M134.1,272.7l-23.6,64.2h19.9l2.9-9.2h20.4l2.7,9.2h20.5l-23.4-64.2H134.1z M143.8,294.2h0.2l5.8,19.8
	h-12.1L143.8,294.2L143.8,294.2z M177.9,272.7h35.1c16.9,0,20.5,9.5,20.5,16.1c0,6.5-3.1,10-7.9,12.6c5.8,2,11.1,6.6,11.1,16
	c0,12.8-11.1,19.5-22.5,19.5h-36.4V272.7z M197.7,297.7h10.4c4.1,0,6.7-1.2,6.7-5.3c0-3.2-2.7-4.4-6.7-4.4h-10.4V297.7z
	 M197.7,321.6h11.6c4.1,0,7.7-1.2,7.7-6.1c0-3.8-2.2-5.8-6.9-5.8h-12.4V321.6L197.7,321.6z M239.7,272.7v64.2h54.1v-16.4h-34.3v-8
	h30.3v-15.3h-30.3v-8h33.3v-16.4H239.7 M295.2,272.7v16.4h18v47.7h19.8v-47.7h18v-16.4H295.2 M353.2,272.7v64.2h54.1v-16.4h-34.3v-8
	h30.3v-15.3h-30.3v-8h33.3v-16.4H353.2 M427.9,315.3c0,1.6,0.3,3.1,0.7,4.2c1.4,3.9,5.8,4.7,9.4,4.7c3.2,0,8.2-1.1,8.2-5.8
	c0-3.3-2.8-4.2-13.8-7.4c-10.2-2.9-21.7-5.7-21.7-18.6c0-14.8,12.7-21.2,25.9-21.2c13.9,0,26.2,5.3,26.8,20.9h-18.7
	c0.4-2.4-0.7-4-2.3-5.1c-1.6-1.2-3.9-1.6-5.8-1.6c-2.7,0-7.1,0.7-7.1,4.3c0.4,4.6,9.5,5.6,18.6,8.1c9.1,2.5,18.1,6.7,18.1,18.5
	c0,16.7-15.4,22.1-29.7,22.1c-7.3,0-28-2.6-28.2-23.1H427.9 M551.4,312.1c0,17.8-9.6,26.3-29.2,26.3s-29.3-8.5-29.3-26.3v-39.4h19.8
	v35c0,6.6,0,14.7,9.6,14.7c9.3,0,9.3-8.2,9.3-14.7v-35h19.8V312.1 M591.7,272.7L574,294.8h-0.2v-22.1h-19.8v64.2h19.8v-19l5.5-6
	l15.8,25h24.6l-27-39.1l23.3-25.1H591.7 M100.8,290.9c5.4,0,9.9-4.4,9.9-9.8c0-5.4-4.4-9.8-9.9-9.8c-5.4,0-9.8,4.4-9.8,9.8
	C90.9,286.4,95.4,290.9,100.8,290.9 M90.9,328.5c0,5.4,4.4,9.8,9.9,9.8c5.4,0,9.8-4.4,9.8-9.8V303c0-5.4-4.4-9.8-9.8-9.8
	c-5.4,0-9.8,4.4-9.8,9.8V328.5 M620.1,380.4h6.9v-6.5h-6.9V380.4z"/>
</svg>
