<?xml version="1.0" encoding="utf-8"?>
<!-- Generator: Adobe Illustrator 19.2.1, SVG Export Plug-In . SVG Version: 6.00 Build 0)  -->
<svg version="1.1" id="layer" xmlns="http://www.w3.org/2000/svg" xmlns:xlink="http://www.w3.org/1999/xlink" x="0px" y="0px"
	 viewBox="0 0 652 652" style="enable-background:new 0 0 652 652;" xml:space="preserve">
<style type="text/css">
	.st0{fill:#FF5A7D;}
</style>
<title>HATCH 2020 LOGO</title>
<path class="st0" d="M143,315.8c-1.5,0.2-16.2,0.7-30.6,2.8c-1.6,4-3.1,8-4.6,12.3c-16.6,45.7-22,76.3-23.1,85.8
	c-1.1,9.5-24.6,0.4-24.2-16.2c0.3-13.3,8.7-45.9,16.3-70.8c-9.4,4.8-17,10.7-20,17.2c-10.1,0.4-23.1-8.8-16.6-21.9
	c6.5-13,26.2-18.5,45.4-21.6c11.6-32.7,21.5-56.3,28-65.4c0.2-0.3,0.5-0.6,0.8-1c-42.3,8-62.5,22.8-71,35.3
	c-22-0.4-34.2-32-3.8-46.2c29.7-13.8,75.5-17.7,120.1-17.4c44.7,0.3,78.1,7.3,89.4,11.7c8.5,3.3,1.7,17-7.2,16.5
	c-6.5-0.4-35.8-8-84-5.2c0,0.5-0.3,1-0.6,1.6c-8.8,10.6-22.9,34.2-36.8,66.1c14.6-0.8,26.9-0.6,30.3,0
	C159.1,300.8,152.3,314.9,143,315.8z M310.7,365.1c-11.7,30.9-32,56.4-61,56.2c-16-0.2-25.1-12.6-27.3-28.6
	c-9.5,11.9-28.2,28.8-47.4,28.7c-27.3-0.1-27.9-34-10.3-88.2c14-43.5,31.8-68.5,38.6-73.1c17.2-12,44.3,0.3,34.6,9.3
	c-5,4.8-26,34.3-40,69.5c-14,35.3-15.8,53.9-5.1,53.9c9.7,0,27.1-19.1,31.8-26.6c0.3-1.1,0.7-2.3,1.1-3.4
	c7.7-23.2,18.1-40.7,25.4-45.3c1.9-1.1,4.2-1.8,6.6-2c5.1-6.3,17-17.4,34.2-17.8C310.1,297.2,328.7,317.2,310.7,365.1z M286.9,323.1
	c-3.3,0.2-6.1,1.5-8.4,3.4c0.1,1.5-0.3,3-1.6,4.6c-3.7,4.6-18.4,26.2-20.9,29.8c-7.4,13.8-6.9,31.8,3,31.7
	c13.1-0.1,26.5-16.2,34.1-35.1C299.3,342.1,298.7,323,286.9,323.1z M54.5,440.7h4.4v7.7h6.6v-7.7h4.4v19.1h-4.4v-7.6h-6.6v7.6h-4.4
	V440.7z M100.7,440.7h11.6v3.5h-7.2v4.3h7.2v3.4h-7.2v4.2h7.2v3.5h-11.6V440.7z M153.4,457.5h-6.7l-0.6,2.3h-4.7l6.5-19.1h4.4
	l6.5,19.1H154L153.4,457.5z M152.4,454l-2.4-8.5l-2.4,8.5H152.4z M187.9,440.7h4.4v15.1h7.1v3.9h-11.5V440.7z M230.8,444.7h-5.2
	v-3.9h14.9v3.9h-5.3v15.1h-4.3V444.7z M269.5,440.7h4.4v7.7h6.6v-7.7h4.4v19.1h-4.4v-7.6h-6.6v7.6h-4.4V440.7z M359.4,413.6
	c11.2-1.2,21.8-7.1,27.9-19.1c8-15.6,1.6-30.6-3.6-37.2c-6.6-8.3-4-7.1,1.9-4c5.3,2.7,10.9,6.3,17.2,11.6
	c-5.1-41.9,12.6-73.1,26.1-89.2c7.1-8.4,5.7-1.9,4.6,3.8c-2.8,15.1-1.1,32.6,2.9,44.5c-1.4-22,9.4-140.7,89-140.7
	c79.6,0,112,85,88.3,153.5c-22.3,64.3-95.2,69.6-106.6,69.6c16.7,4,31.8,2.4,40,0.8c3.4-0.6,9.2-2.1,2.6,2.9
	c-18.8,14.2-40,22.7-62.9,25.3c-21.1,2.3-37.9-0.8-49.7-4.1c0.3,4,0.5,9.3,0.3,13c-0.5,8-1.1-1.8-13.9-10.8
	C405,419.9,385,426.9,398,423c20.7-6.2,41.1-14.7,65.2-30.9c33.7-22.8,51.6-48.6,50.4-49.6c-0.4-0.3-26.3,32.6-76.5,55.2
	c-31.7,14.3-62.3,18.6-79.7,19.6C353.6,417.5,354,414.1,359.4,413.6z"/>
</svg>
