<?xml version="1.0" encoding="utf-8"?>
<!-- Generator: Adobe Illustrator 19.2.1, SVG Export Plug-In . SVG Version: 6.00 Build 0)  -->
<svg version="1.1" id="layer" xmlns="http://www.w3.org/2000/svg" xmlns:xlink="http://www.w3.org/1999/xlink" x="0px" y="0px"
	 viewBox="0 0 652 652" style="enable-background:new 0 0 652 652;" xml:space="preserve">
<style type="text/css">
	.st0{fill:#EF4641;}
	.st1{fill:#0066A1;}
</style>
<path class="st0" d="M192.4,275.9c-0.1-0.4,14.5,15.5,35.9,5.1c39.9-19.4,57.3,10.5,61.4,17.5c0.1,0.3-21.7-16.6-43.3-6.4
	C232.9,298.5,200.5,309.2,192.4,275.9 M203.9,347.6c-1.3,0.3-2.3,0.3-3.3,0.3c-0.8,0-1.3-0.1-1.8-0.4c-0.5-0.3-1-0.6-1.4-1.3
	s-0.6-1.3-0.8-2.3c-0.1-1-0.3-2.1-0.3-3.5v-24.8h11l1.1-8.4h-12v-12.8h-8.8l-3.4,12.6l-7.3,2.4v6h7.3v26.3c0,2.3,0.3,4.4,0.6,6.4
	c0.4,1.8,1.1,3.4,2.3,4.9c1.1,1.3,2.4,2.3,4.2,3c1.8,0.8,4,1.1,6.8,1.1c2,0,4-0.4,6.1-1.3c2.1-0.8,4.3-2,6.4-3.8l-2.8-5.8
	C206.4,347,205.1,347.4,203.9,347.6 M171.8,335c-0.8-1-1.6-1.9-2.5-2.8c-1-0.8-1.9-1.4-2.9-1.9c-1-0.5-1.9-0.9-2.7-1.3
	c-0.9-0.3-1.8-0.6-2.3-0.8c-1.3-0.5-2.5-0.9-3.9-1.3c-1.3-0.4-2.5-0.9-3.9-1.3c-0.8-0.2-1.6-0.6-2.4-0.9c-0.8-0.3-1.5-0.8-2.1-1.1
	c-0.6-0.4-1.1-1-1.5-1.5c-0.4-0.6-0.6-1.3-0.6-2.1c0-0.8,0.1-1.4,0.4-2.1c0.2-0.8,0.8-1.3,1.3-1.8c0.6-0.5,1.3-0.9,2.3-1.3
	s2-0.5,3.3-0.5c1.5,0,2.8,0.1,4,0.4s2.3,0.8,3.3,1.3c1,0.6,1.9,1.3,2.8,1.9c0.9,0.8,1.8,1.6,2.8,2.5l5.4-8.3c-2.5-2-5.4-3.5-8.4-4.4
	c-3.1-0.9-6.5-1.3-10.2-1.3c-2.3,0-4.6,0.3-6.9,0.8c-2.3,0.5-4.3,1.4-5.9,2.5c-1.7,1.1-3.1,2.5-4.2,4.1c-1.1,1.6-1.6,3.5-1.6,5.8
	c0,1.8,0.3,3.3,0.8,4.6c0.5,1.3,1.3,2.5,2,3.6c0.8,1,1.8,1.9,2.8,2.8c1,0.8,2,1.4,3.1,2s2.1,1,3.1,1.4s1.8,0.8,2.5,0.9
	c1.3,0.5,2.5,1,3.8,1.4c1.3,0.4,2.4,0.8,3.8,1.4c0.8,0.3,1.3,0.5,2,0.9c0.8,0.4,1.3,0.8,1.8,1.3c0.5,0.4,1,1,1.3,1.6s0.5,1.3,0.5,2
	c0,1.1-0.3,2-0.6,2.8c-0.4,0.8-1,1.4-1.8,1.9s-1.5,0.8-2.5,1.1c-1,0.3-2,0.3-3.1,0.3c-5,0-9.9-2.5-14.4-7.4l-6.4,7.8
	c1.4,1.5,2.7,2.8,4.4,3.8c1.6,1,3.3,1.8,4.9,2.3c1.7,0.6,3.6,1,5.5,1.3s4,0.4,6.3,0.4c2.4,0,4.9-0.3,7.1-0.9s4.4-1.5,6.3-2.6
	c1.8-1.3,3.3-2.6,4.4-4.4c1.1-1.8,1.8-3.8,1.8-6c0-1.8-0.3-3.4-0.8-4.9C173,337.2,172.5,336,171.8,335 M128.8,349
	c-0.8,0.1-1.1,0.1-1.4,0.1c-0.8,0-1.3-0.1-1.7-0.3c-0.5-0.2-0.8-0.5-1.1-0.7c-0.2-0.4-0.5-1-0.6-1.8c-0.1-0.7-0.2-1.6-0.2-2.6v-21.9
	c0-2.6-0.5-4.9-1.8-6.9c-1.1-2-2.6-3.5-4.5-4.9c-1.9-1.3-4-2.1-6.4-2.8c-2.4-0.6-4.9-0.9-7.5-0.9c-3.9,0-7.6,0.8-11.1,2
	c-3.5,1.3-6.5,3.1-9.1,5.4l6.3,7c1.3-1.3,2.6-2.4,3.8-3.3c1.1-0.7,2.3-1.5,3.3-2c1-0.5,2.1-0.9,3.1-1.1c1-0.2,2.1-0.2,3.2-0.2
	c1.3,0,2.6,0.1,3.7,0.5c1.1,0.3,2.1,0.9,2.9,1.6c0.8,0.8,1.4,1.6,1.9,2.8c0.5,1.1,0.8,2.5,0.8,4.1v1.8c-2.5,0-5.1,0.1-7.5,0.3
	c-2.5,0.3-4.9,0.6-7,1.1c-2.3,0.5-4.4,1.3-6.1,2.1c-1.9,0.9-3.5,2-4.9,3.4c-1.4,1.4-2.4,3-3.2,4.9c-0.8,1.9-1.3,4.1-1.3,6.6
	c0,2.3,0.2,4.3,1,5.9c0.8,1.8,1.6,3.1,2.9,4.3s2.8,2,4.5,2.5s3.8,0.8,5.9,0.8c1.3,0,2.6-0.1,4-0.3c1.4-0.3,2.8-0.5,4.1-1
	c1.4-0.5,2.8-1.1,4.1-1.8c1.4-0.8,2.7-1.8,3.9-2.9c0.4,1.9,1.4,3.4,2.9,4.5c1.5,1,3.4,1.5,5.8,1.5c1.3,0,2.3-0.1,3.3-0.3
	c1-0.3,1.9-0.4,2.8-0.8c0.9-0.2,1.7-0.6,2.4-1c0.8-0.4,1.5-0.8,2.3-1.3l-1.3-5.3C130,348.7,129.3,348.9,128.8,349 M111.9,345.4
	c-1,0.8-2,1.3-2.9,1.8c-1,0.5-1.9,0.8-2.8,1c-0.9,0.2-1.8,0.4-2.8,0.5c-0.9,0.1-1.8,0.1-2.6,0.1c-0.9,0-1.8-0.1-2.6-0.3
	c-0.8-0.3-1.5-0.6-2-1.3c-0.6-0.5-1-1.3-1.3-2.1c-0.2-0.9-0.5-2-0.5-3.3c0-1.6,0.2-3,0.8-4.4c0.5-1.3,1.4-2.4,2.7-3.4
	c1.3-1,3.1-1.8,5.4-2.4c2.2-0.6,5.1-1,8.6-1.1L111.9,345.4L111.9,345.4z M218.1,307.2h11.8v48.9h-11.8V307.2z M325.9,309.2
	c-1.1-0.5-2.1-0.9-3-1.3c-0.9-0.4-1.8-0.8-2.8-0.9c-0.9-0.2-1.8-0.4-2.8-0.6c-1-0.1-2.1-0.2-3.5-0.2c-2.9,0-5.6,0.4-8.1,1.1
	s-4.6,1.8-6.4,3.3c-1.8,1.5-3.3,3.2-4.3,5.2c-1,2-1.5,4.4-1.5,7.1c0,1.5,0.1,2.9,0.4,4.3c0.3,1.3,0.6,2.4,1.3,3.5
	c0.5,1.1,1.3,2.1,2.1,3.1c0.8,1,1.9,1.9,3.1,2.8c-1.3,0.4-2.3,1-3.3,1.6s-1.8,1.3-2.6,2c-0.8,0.8-1.3,1.6-1.7,2.5
	c-0.4,0.9-0.6,1.9-0.6,2.9c0,1.5,0.3,2.7,0.9,3.9c0.6,1,1.3,1.9,2.3,2.6c0.9,0.8,1.7,1.3,2.8,1.8c0.9,0.4,1.8,0.8,2.3,1.3
	c-1.3,0.8-2.4,1.4-3.5,2.1c-1.3,0.8-2.3,1.6-3.1,2.6s-1.6,2.1-2.3,3.4s-0.8,2.8-0.8,4.4c0,1.5,0.4,2.8,1.3,4c0.9,1.3,2,2.3,3.8,3.1
	s3.9,1.5,6.4,2c2.6,0.5,5.6,0.8,9.1,0.8c1.9,0,3.9-0.1,5.9-0.3c2.1-0.1,4.1-0.4,6-0.9c2-0.4,3.9-1,5.6-1.8s3.3-1.7,4.8-2.9
	c1.3-1.3,2.4-2.6,3.3-4.3c0.8-1.7,1.3-3.6,1.3-5.9c0-1.8-0.3-3.1-0.9-4.4s-1.4-2.3-2.5-3.3c-1.1-0.9-2.2-1.6-3.6-2.3
	c-1.4-0.6-2.9-1-4.4-1.4c-1.6-0.4-3.1-0.8-4.9-1c-1.6-0.2-3.3-0.5-4.9-0.7c-0.9-0.1-1.9-0.3-3-0.5c-1.1-0.2-2.2-0.4-3.3-0.6
	c-1.1-0.2-2.3-0.5-3.3-0.7c-1.1-0.3-2-0.6-2.8-0.9c-0.8-0.3-1.4-0.8-1.9-1c-0.5-0.4-0.8-0.8-0.8-1.3c0-0.9,0.3-1.8,0.8-2.4
	c0.5-0.7,1-1.3,1.6-1.8c1.3,0.5,2.6,1,4.4,1.3c1.7,0.3,3.9,0.5,6.6,0.5c1.9,0,3.9-0.4,5.9-1.1c2.1-0.8,4-1.8,5.8-3.3
	c1.8-1.4,3.1-3.2,4.4-5.4c1.1-2.1,1.8-4.4,1.8-7.1c0-2.3-0.3-4.4-0.9-6s-1.3-2.9-2-3.9l8.4,1.4l1.9-8.9c-2.1,0-4.4,0.1-6.6,0.4
	C331,308,328.5,308.6,325.9,309.2 M301.8,362.5c0.1-0.8,0.3-1.4,0.6-2c0.3-0.8,0.6-1.3,1-1.9c0.4-0.6,1-1.3,1.6-1.6
	c1.6,0.3,3.3,0.4,5.1,0.8c1.8,0.3,3.9,0.8,6.4,1.3c1.5,0.3,2.9,0.6,4.3,1c1.3,0.3,2.4,0.8,3.4,1.1c0.9,0.4,1.7,0.8,2.2,1.4
	c0.5,0.5,0.8,1.1,0.8,1.8c0,1.1-0.3,2.1-0.8,3s-1.3,1.7-2.4,2.4c-1.1,0.8-2.8,1.3-4.6,1.8c-1.9,0.4-4.4,0.6-7.1,0.6
	c-1.3,0-2.6-0.3-3.9-0.6s-2.4-1-3.4-1.8c-1-0.7-1.8-1.4-2.4-2.3s-0.9-1.7-0.9-2.8C301.5,363.9,301.5,363.2,301.8,362.5z
	 M320.8,327.5c-0.3,1.3-0.5,2.5-1,3.5c-0.5,1-1.3,1.8-2.3,2.4c-1,0.6-2.2,0.9-4,0.9c-1.6,0-3-0.3-4.1-0.9c-1.1-0.6-2-1.5-2.8-2.5
	c-0.8-1-1.3-2.3-1.6-3.6c-0.3-1.4-0.5-2.8-0.5-4.4c0-3.3,0.8-5.6,2.2-7.3c1.5-1.6,3.4-2.4,5.9-2.4c2.8,0,4.9,0.8,6.3,2.3
	c1.4,1.6,2.1,4.1,2.1,7.6C321,324.7,320.9,326.1,320.8,327.5z M381,338.6c-0.5-1.4-1.1-2.6-1.8-3.6c-0.8-1-1.6-1.9-2.5-2.8
	c-1-0.8-1.9-1.4-2.9-1.9c-1-0.5-1.9-0.9-2.8-1.3c-0.9-0.3-1.8-0.6-2.3-0.8c-1.3-0.5-2.5-0.9-3.9-1.3c-1.3-0.5-2.6-0.9-3.9-1.3
	c-0.8-0.2-1.6-0.6-2.4-0.9c-0.8-0.3-1.5-0.8-2.1-1.1c-0.6-0.4-1.1-1-1.5-1.5c-0.4-0.6-0.6-1.3-0.6-2.1c0-0.8,0.1-1.4,0.4-2.1
	c0.3-0.8,0.8-1.3,1.3-1.8c0.6-0.5,1.3-0.9,2.3-1.3c0.9-0.3,2-0.4,3.3-0.4c1.5,0,2.8,0.1,4,0.4s2.2,0.8,3.3,1.3
	c1,0.5,1.9,1.3,2.8,1.9c0.9,0.8,1.7,1.6,2.8,2.5l5.4-8.3c-2.5-2-5.4-3.5-8.4-4.4c-3.1-0.9-6.4-1.3-10.3-1.3c-2.2,0-4.6,0.3-6.9,0.8
	c-2.2,0.5-4.2,1.4-5.9,2.5c-1.8,1.1-3.3,2.5-4.3,4.1c-1,1.6-1.6,3.5-1.6,5.8c0,1.8,0.3,3.3,0.8,4.6c0.5,1.3,1.3,2.5,2,3.6
	c0.8,1.1,1.8,2,2.8,2.8c1,0.8,2,1.4,3.1,2c1,0.6,2.1,1,3,1.4c1,0.4,1.7,0.7,2.5,0.9c1.3,0.5,2.5,1,3.8,1.4c1.3,0.4,2.4,0.8,3.8,1.4
	c0.8,0.3,1.3,0.5,2,0.9s1.3,0.8,1.8,1.3c0.6,0.4,1,1,1.3,1.6c0.3,0.6,0.5,1.3,0.5,2c0,1.1-0.3,2-0.6,2.8c-0.4,0.8-1,1.4-1.7,1.9
	c-0.8,0.5-1.5,0.8-2.5,1.1c-1,0.3-2,0.3-3.1,0.3c-5,0-9.9-2.5-14.4-7.4l-6.4,7.8c1.4,1.5,2.8,2.8,4.4,3.8c1.6,1,3.3,1.8,4.9,2.3
	c1.8,0.6,3.5,1,5.5,1.3c1.9,0.3,4,0.4,6.1,0.4c2.5,0,4.9-0.3,7.1-0.9c2.2-0.6,4.4-1.5,6.3-2.6c1.8-1.3,3.3-2.6,4.4-4.4
	s1.8-3.8,1.8-6C381.8,341.5,381.5,339.9,381,338.6 M280.5,311.1c-1.6-1.5-3.5-2.6-5.8-3.4c-2.3-0.8-4.5-1.3-7.1-1.3
	c-1.5,0-3,0.3-4.4,0.5c-1.4,0.3-2.8,0.8-3.9,1.3c-1.3,0.5-2.3,1.1-3.4,1.8c-1,0.6-1.9,1.3-2.6,2c0-0.4-0.1-0.7-0.2-1.3
	c-0.1-0.5-0.3-0.9-0.3-1.4c-0.1-0.4-0.3-0.9-0.3-1.3c-0.1-0.4-0.3-0.8-0.3-0.9h-11.1c0.2,1.5,0.5,3.1,0.5,4.6c0,1.5,0.1,2.7,0.1,3.8
	v40.5h11.7v-37.8c0.9-0.5,1.8-0.8,2.8-1.3c1-0.4,2-0.8,3-0.9c1-0.3,2-0.5,3-0.6c1-0.3,1.9-0.3,2.8-0.3c1.4,0,2.8,0.3,3.9,0.6
	c1.1,0.4,2,1,2.8,1.8s1.3,1.9,1.8,3.3c0.4,1.3,0.6,3,0.6,5v30.1H286v-32.5c0-2.8-0.5-5.1-1.4-7.3C283.3,314.2,282,312.5,280.5,311.1
	 M61.9,285.2v27.1H32.5v-27.1H20v33.9v13.5v23.5h12.5v-25v-8.9h29.4v1.3v32.6h12.4V328v-5.3v-37.5H61.9z"/>
<path class="st1" d="M411.1,356c-5.3,0-8.9-0.3-13.8-0.8v-46.9c4.6-0.5,8.5-0.8,13.3-0.8c18.9,0,28.1,10.9,28.1,23.6
	C438.9,344.7,430,356,411.1,356z M411.6,314.9c-2.3,0-4.4,0.3-6.1,0.4v33.3c2,0.3,3.8,0.4,6.9,0.4c12.2,0,17.8-7.4,17.8-17.5
	C430.1,321.4,423.6,314.9,411.6,314.9z M446.3,355.5V308h8.1v47.6L446.3,355.5L446.3,355.5z M489.4,355.5l-10.5-17.1
	c-0.8,0.1-1.6,0.1-2.5,0.1c-1.6,0-3.3-0.1-4.7-0.1v17.3h-8.1v-47.1c3.8-0.4,7.8-0.8,12.5-0.8c13.5,0,19.5,6.5,19.5,15
	c0,6.3-3.4,11.1-9.4,13.8l12.5,19.1C498.6,355.5,489.4,355.5,489.4,355.5z M477.1,314.9c-2,0-3.9,0.1-5.4,0.4v16.3
	c1.5,0.3,3.1,0.3,4.6,0.3c7.1,0,10.6-3.3,10.6-8.9C486.9,318.2,483.3,314.9,477.1,314.9z M502.9,355.5V308h29v7.4H511v12.5h18.9v7.1
	H511v13.1h20.9v7.4C532,355.5,502.9,355.5,502.9,355.5z M562.6,356.4c-15,0-25.8-10.4-25.8-24.5c0-14,10.8-24.6,25.8-24.6
	c5.9,0,11.4,1.9,15.4,4.4l-2.8,6.9c-3.8-2.1-8.4-3.6-12.6-3.6c-10.5,0-16.9,6.9-16.9,17.1c0,10,6.5,17,17.1,17c4.3,0,9.1-1.5,13-3.9
	l2.5,6.9C574.1,354.5,568.5,356.4,562.6,356.4z M605,315.4v40.3h-8.1v-40.3h-15.1V308H620v7.4H605z"/>
</svg>
