<?xml version="1.0" encoding="utf-8"?>
<!-- Generator: Adobe Illustrator 24.2.2, SVG Export Plug-In . SVG Version: 6.00 Build 0)  -->
<svg version="1.1" id="Layer_1" xmlns="http://www.w3.org/2000/svg" xmlns:xlink="http://www.w3.org/1999/xlink" x="0px" y="0px"
	 viewBox="0 0 497.6 54.54" style="enable-background:new 0 0 497.6 54.54;" xml:space="preserve">
<style type="text/css">
	.st0{fill:#9BC437;}
	.st1{fill:#00574A;}
</style>
<g>
	<path class="st0" d="M276.73,26.37c-0.92-0.73-1.98-1.25-3.11-1.53c0.94-0.3,1.8-0.74,2.52-1.28c0.92-0.69,1.67-1.48,2.23-2.36
		c0.51-0.8,0.92-1.75,1.27-2.98c0.32-1.13,0.49-2.21,0.49-3.2c0-1.03-0.18-2.04-0.53-3.02c-0.35-0.97-0.94-1.8-1.76-2.49
		c-0.83-0.69-1.75-1.03-2.82-1.03c-0.93,0-1.86,0.36-2.55,1c-0.76,0.71-1.18,1.6-1.18,2.5c0,1.12,0.31,2.11,0.87,2.78
		c0.6,0.7,1.52,1.06,2.68,1.06c1.1,0,1.65-0.38,2.05-0.67c0.22-0.15,0.37-0.26,0.53-0.26c0.41,0,0.47,0.45,0.47,0.72
		c0,1.12-0.52,2-1.64,2.79c-0.85,0.6-1.93,1.09-3.13,1.42c-0.72,0.2-1.48,0.36-2.21,0.51c-0.42,0.08-0.81,0.16-1.19,0.25
		c-0.72,0.17-1.45,0.38-2.16,0.6c-0.57,0.17-1.14,0.33-1.71,0.49c-0.83,0.22-1.61,0.44-2.32,0.76c-1.15,0.53-2.06,1.15-2.7,1.83
		c-0.75,0.8-1.15,1.8-1.15,3.02c0,1.2,0.31,1.81,0.84,1.81c0.52,0,0.94-0.44,1.37-0.88c0.96-0.99,2.26-1.51,3.77-1.51
		c1.27,0,2.34,0.32,3.31,0.95c0.91,0.58,1.62,1.48,2.17,2.73c0.55,1.23,0.81,2.29,0.81,3.38c0,0.96-0.17,2.03-0.55,3.34
		c-0.32,1.15-0.73,2.18-1.25,3.15c-0.38,0.73-0.98,1.81-1.77,2.91c-0.63,0.86-1.45,1.73-2.22,2.59c-0.74,0.82-1.59,1.65-2.39,2.43
		c-0.8,0.77-1.57,1.44-2.5,2.19c-0.83,0.67-1.89,1.2-2.41,1.2c-0.56,0-1.52-0.44-2.48-1.2c-0.92-0.73-1.61-1.38-2.49-2.2
		c-0.81-0.77-1.53-1.54-2.23-2.29c-0.25-0.27-0.54-0.58-0.79-0.84c-0.62-0.65-1.2-1.26-1.69-1.9c-0.68-0.88-1.31-1.82-1.91-2.87
		c-0.58-1.01-1.04-2.03-1.39-3.13c-0.38-1.17-0.56-2.27-0.56-3.36c0-1.22,0.24-2.31,0.71-3.38c0.51-1.15,1.25-2.05,2.21-2.67
		c0.93-0.6,1.96-0.9,3.28-0.9c1.01,0,1.72,0.11,2.38,0.37c0.63,0.25,1.36,0.6,2.01,1.34c0.34,0.39,0.62,0.61,1.01,0.61
		c0.55,0,0.97-0.67,0.97-1.63c0-1.66-1.12-3.05-2.18-4.2c-0.61-0.65-1.27-1.3-1.97-1.99c-0.36-0.35-0.73-0.71-1.09-1.06
		c-1.15-1.15-1.89-2.12-2.37-3.11c-0.37-0.78-0.57-1.64-0.76-2.47c-0.2-0.87-0.3-1.73-0.3-2.55c0-1.18,0.17-2.41,0.51-3.49
		c0.35-1.14,0.87-2.17,1.55-3.05c0.74-0.97,1.59-1.73,2.54-2.27c1.01-0.58,2.14-0.87,3.27-0.87c1.01,0,2.28,0.05,3.38,0.49
		c1.13,0.44,2.06,1.17,2.69,2.1c0.57,0.83,0.88,2.01,0.88,3.38c0,1.49-0.93,3.21-2.12,3.21c-0.84,0-1.22-1.27-1.66-1.78
		c-0.51-0.6-1.13-0.96-2.26-0.96c-1.07,0-1.85,0.43-2.57,1.34c-0.58,0.73-0.88,1.7-0.88,2.87c0,1.51,0.55,2.59,1.51,3.51
		c0.95,0.91,2.09,1.37,3.64,1.37c1.48,0,2.51-0.17,3.43-0.55c1.1-0.45,2.11-1.13,2.93-1.97c0.71-0.74,1.29-1.66,1.79-2.95
		c0.43-1.14,0.65-2.16,0.65-3.3c0-1.36-0.19-2.39-0.55-3.31c-0.42-1.09-1.02-2.01-1.84-2.8c-0.67-0.64-1.59-1.29-2.9-1.83
		c-0.88-0.36-1.9-0.74-3.21-0.94C258.99,0.16,257.85,0,256.63,0c-1.22,0-2.34,0.2-3.41,0.39c-1.4,0.25-2.42,0.52-3.31,0.89
		c-1.13,0.47-2.14,1.03-3,1.68c-0.95,0.72-1.77,1.54-2.44,2.43c-0.68,0.92-1.22,1.94-1.6,3.05c-0.4,1.18-0.61,2.41-0.61,3.49
		c0,1.2,0.21,2.37,0.64,3.58c0.37,1.05,0.96,2.04,1.85,3.11c0.83,0.99,1.68,1.81,2.61,2.51c0.8,0.59,1.73,1.15,2.65,1.69
		c-0.94-0.08-1.86-0.07-2.69,0.03c-1.19,0.14-2.19,0.37-3.08,0.71c-0.91,0.35-1.81,0.87-2.75,1.56c-0.85,0.64-1.6,1.39-2.21,2.24
		c-0.55,0.74-0.98,1.64-1.37,2.83c-0.26,0.81-0.57,1.9-0.57,3.09c0,1.03,0.13,2.12,0.39,3.23c0.24,1.02,0.6,2.05,1.06,3.07
		c0.43,0.94,0.99,1.82,1.64,2.79c0.59,0.9,1.15,1.81,1.87,2.64c0.61,0.71,1.32,1.36,2,1.99c0.85,0.78,1.86,1.66,2.78,2.35
		c0.9,0.68,1.86,1.36,2.85,1.96c0.9,0.55,1.76,1.06,2.63,1.47c1.06,0.48,2.16,0.83,3.06,1.14c1.1,0.38,2.19,0.62,3.21,0.62
		c1.07,0,2.14-0.3,3.18-0.59c1.01-0.29,2.02-0.74,3-1.2c0.93-0.43,1.85-0.99,2.79-1.58c0.95-0.59,1.83-1.2,2.63-1.82
		c0.83-0.64,1.69-1.29,2.47-2.04c0.84-0.8,1.55-1.73,2.29-2.61c0.61-0.74,1.26-1.51,1.78-2.34c0.58-0.92,0.99-1.91,1.42-2.88
		c0.39-0.91,0.84-1.95,1.08-3.01c0.25-1.12,0.29-2.25,0.29-3.2c0-1.32-0.26-2.6-0.75-3.8C278.51,28.22,277.73,27.17,276.73,26.37"/>
	<path class="st1" d="M412.04,14.35c0.98,0.19,1.1,0.61,1.1,1.3v4.26c0,1.04-0.56,1.48-1.55,1.32c-0.72-0.12-1.34-0.17-2.02-0.17
		c-5.1,0-8.39,3.53-8.32,8.69v20.79c0,0.74-0.6,1.33-1.33,1.33h-4.35c-0.74,0-1.33-0.6-1.33-1.33V16.27c0-0.74,0.6-1.33,1.33-1.33
		h3.32c0.69,0,1.25,0.49,1.33,1.22l0.3,2.69c2.51-3.59,6.55-4.68,9.05-4.68C410.54,14.17,411.32,14.2,412.04,14.35 M388.9,14.35
		c-0.72-0.14-1.49-0.18-2.47-0.18c-2.5,0-6.54,1.09-9.05,4.68l-0.3-2.69c-0.08-0.73-0.64-1.22-1.33-1.22h-3.32
		c-0.74,0-1.33,0.6-1.33,1.33v34.26c0,0.74,0.6,1.33,1.33,1.33h4.35c0.74,0,1.33-0.6,1.33-1.33V29.74
		c-0.07-5.15,3.22-8.69,8.32-8.69c0.67,0,1.3,0.05,2.02,0.17c0.99,0.16,1.56-0.27,1.55-1.32v-4.26
		C390,14.96,389.88,14.54,388.9,14.35 M439.66,29.83c-0.66-6.48-4.86-8.84-8.75-8.84c-4.97,0-8.99,3.56-10.18,8.84H439.66z
		 M430.98,14.17c10.85,0,15.71,9.33,15.71,18.59c0,0.88-0.07,1.68-0.13,2.42c-0.06,0.69-0.64,1.22-1.33,1.22h-24.56
		c1.03,5.8,4.8,9.35,11.35,9.35c4.45,0,8.18-1.62,11.22-3.84c0.63-0.46,1.4-0.18,1.4,0.69v5.5c0,0.41-0.16,0.83-0.51,1.05
		c-3.94,2.45-7.95,3.43-12.72,3.43c-11.06,0-18.06-7.34-18.06-18.97C413.36,22.82,420.07,14.17,430.98,14.17 M470.15,45.63
		c-1.27,0.21-2.14,0.3-2.91,0.3c-4.29,0-6.47-2.28-6.47-6.79V21.5h8.7c0.74,0,1.33-0.6,1.33-1.33v-3.9c0-0.74-0.59-1.33-1.33-1.33
		h-8.7v-7.8c0-0.74-0.6-1.33-1.33-1.33h-4.16c-0.73,0-1.33,0.59-1.33,1.33v7.8h-4.1c-0.74,0-1.33,0.6-1.33,1.33v3.9
		c0,0.74,0.6,1.33,1.33,1.33h3.91v17.78c0,8.07,5.09,13.28,12.96,13.28c1.63,0,2.89-0.11,3.91-0.35c0.7-0.16,1.07-0.67,1.07-1.31
		v-3.96C471.71,45.85,471.29,45.44,470.15,45.63 M496.04,45.63c-1.27,0.21-2.14,0.3-2.91,0.3c-4.29,0-6.47-2.28-6.47-6.79V21.5h8.7
		c0.74,0,1.33-0.6,1.33-1.33v-3.9c0-0.74-0.6-1.33-1.33-1.33h-8.7v-7.8c0-0.74-0.6-1.33-1.33-1.33h-4.16
		c-0.73,0-1.33,0.59-1.33,1.33v7.8h-4.1c-0.74,0-1.33,0.6-1.33,1.33v3.9c0,0.74,0.6,1.33,1.33,1.33h3.91v17.78
		c0,8.07,5.09,13.28,12.97,13.28c1.63,0,2.89-0.11,3.9-0.35c0.7-0.16,1.07-0.67,1.07-1.31v-3.96
		C497.6,45.85,497.18,45.44,496.04,45.63 M307.81,44.92c5.24,0.09,7.87-3.62,7.87-7.46s-2.66-7.49-7.85-7.47h-12.97v14.93H307.81
		 M294.86,22.84h11.67c4.96,0.02,7.13-3.41,7.13-6.99c0-3.53-2.24-6.93-7.12-6.9h-11.67V22.84z M316.08,25.9
		c3.55,1.44,7.13,5.16,7.13,11.61c0,8.35-5.27,14.35-15.66,14.35h-18.97c-0.59,0-1.07-0.48-1.07-1.07V3.06
		c0-0.59,0.48-1.06,1.07-1.06h18.54c8.41,0,14.07,5.43,14.07,13.48C321.18,19.15,319.41,23.64,316.08,25.9 M345.06,45.74
		c6.08,0,10.49-5.22,10.49-12.41c0-7.12-4.41-12.28-10.49-12.28c-6.21,0-10.55,5.07-10.55,12.35
		C334.5,40.55,338.94,45.74,345.06,45.74 M361.1,14.94c0.74,0,1.33,0.6,1.33,1.33v34.26c0,0.73-0.6,1.33-1.33,1.33h-3.85
		c-0.68,0-1.25-0.51-1.32-1.2l-0.26-2.53c-2.88,2.82-6.82,4.43-11.12,4.43c-10.17,0-17.05-9.01-17.05-19.16
		c0-12.49,8.79-19.23,17.05-19.23c4.38,0,8.25,1.64,11.12,4.45l0.26-2.49c0.07-0.68,0.64-1.2,1.32-1.2H361.1"/>
	<path class="st1" d="M36.29,2c0.74,0,1.33,0.6,1.33,1.33v47.2c0,0.73-0.6,1.33-1.33,1.33h-4.35c-0.74,0-1.33-0.6-1.33-1.33V30.04
		H7.01v20.49c0,0.73-0.6,1.33-1.33,1.33H1.33C0.6,51.86,0,51.26,0,50.53V3.33C0,2.6,0.6,2,1.33,2h4.35c0.74,0,1.33,0.6,1.33,1.33
		v19.82h23.6V3.33c0-0.74,0.6-1.33,1.33-1.33H36.29 M62.04,45.74c5.47,0,11-4.24,11-12.35s-5.53-12.35-11-12.35
		c-5.5,0-11.06,4.24-11.06,12.35S56.54,45.74,62.04,45.74 M62.04,14.17c10.27,0,18.01,8.27,18.01,19.23
		c0,10.93-7.74,19.16-18.01,19.16c-10.3,0-18.08-8.24-18.08-19.16C43.96,22.44,51.74,14.17,62.04,14.17 M92.01,2h-4.35
		c-0.74,0-1.33,0.6-1.33,1.33v47.2c0,0.73,0.6,1.33,1.33,1.33h4.35c0.74,0,1.33-0.6,1.33-1.33V3.33C93.35,2.6,92.75,2,92.01,2
		 M107.74,2h-4.35c-0.74,0-1.33,0.6-1.33,1.33v47.2c0,0.73,0.6,1.33,1.33,1.33h4.35c0.74,0,1.33-0.6,1.33-1.33V3.33
		C109.07,2.6,108.47,2,107.74,2 M175.01,14.17c-4.13,0-7.51,1.89-9.83,4.16l-0.25-2.2c-0.07-0.67-0.64-1.19-1.32-1.19h-3.33
		c-0.74,0-1.33,0.6-1.33,1.33v34.26c0,0.74,0.6,1.33,1.33,1.33h4.35c0.74,0,1.33-0.6,1.33-1.33V29.56c0-4.7,3.66-8.38,8.34-8.38
		c5.19,0,7.7,2.87,7.7,8.76v20.58c0,0.74,0.6,1.33,1.33,1.33h4.35c0.74,0,1.33-0.6,1.33-1.33V27.96
		C189.02,19.84,183.26,14.17,175.01,14.17 M212.52,45.74c6.08,0,10.49-5.22,10.49-12.41c0-7.12-4.41-12.28-10.49-12.28
		c-6.22,0-10.55,5.07-10.55,12.35C201.97,40.55,206.41,45.74,212.52,45.74 M228.57,2c0.74,0,1.33,0.6,1.33,1.33v47.2
		c0,0.73-0.6,1.33-1.33,1.33h-3.45c-0.68,0-1.25-0.51-1.33-1.19l-0.29-2.86c-2.91,3.03-7,4.76-11.48,4.76
		c-4.41,0-8.74-1.91-11.87-5.23c-3.34-3.54-5.18-8.49-5.18-13.93c0-12.49,8.79-19.23,17.06-19.23c4.17,0,8.07,1.53,10.87,4.15V3.33
		c0-0.74,0.6-1.33,1.33-1.33H228.57 M132.91,45.74c6.08,0,10.49-5.22,10.49-12.41c0-7.12-4.41-12.28-10.49-12.28
		c-6.21,0-10.55,5.07-10.55,12.35C122.35,40.55,126.79,45.74,132.91,45.74 M148.95,14.94c0.74,0,1.33,0.6,1.33,1.33v34.26
		c0,0.73-0.6,1.33-1.33,1.33h-3.85c-0.68,0-1.25-0.51-1.32-1.2l-0.26-2.53c-2.88,2.82-6.82,4.43-11.12,4.43
		c-10.17,0-17.05-9.01-17.05-19.16c0-12.49,8.78-19.23,17.05-19.23c4.38,0,8.25,1.64,11.12,4.45l0.26-2.49
		c0.07-0.68,0.64-1.2,1.32-1.2H148.95"/>
</g>
</svg>
