<?xml version="1.0" standalone="no"?>
<!DOCTYPE svg PUBLIC "-//W3C//DTD SVG 20010904//EN"
 "http://www.w3.org/TR/2001/REC-SVG-20010904/DTD/svg10.dtd">
<svg version="1.0" xmlns="http://www.w3.org/2000/svg"
 width="660.000000pt" height="133.000000pt" viewBox="0 0 660.000000 133.000000"
 preserveAspectRatio="xMidYMid meet">

<g transform="translate(0.000000,133.000000) scale(0.100000,-0.100000)"
fill="#000000" stroke="none">
<path d="M3675 1310 c-78 -25 -136 -75 -164 -141 -55 -128 -30 -253 62 -309
l29 -18 -48 -22 c-62 -27 -90 -53 -120 -112 -65 -127 -26 -295 85 -372 120
-84 323 -99 468 -36 60 26 127 93 154 153 22 48 24 66 25 222 2 220 1 211 21
230 12 12 27 16 53 12 l36 -5 31 82 c17 44 29 84 27 88 -3 4 -29 12 -59 19
-106 24 -220 -25 -267 -113 -20 -39 -23 -62 -28 -228 -6 -203 -11 -224 -70
-274 -71 -59 -188 -55 -258 8 -29 27 -35 41 -39 82 -8 98 59 164 170 164 l57
0 0 80 0 80 -44 0 c-112 0 -168 116 -106 218 25 41 85 59 133 38 l34 -14 32
75 c18 42 29 79 24 83 -13 12 -99 30 -140 29 -21 0 -65 -9 -98 -19z"/>
<path d="M4835 1310 c-275 -59 -449 -316 -407 -602 24 -165 123 -309 260 -381
92 -48 159 -61 283 -54 108 5 162 20 236 62 l42 25 -35 78 c-20 42 -38 79 -40
81 -2 2 -32 -11 -66 -30 -58 -31 -70 -34 -148 -34 -102 0 -155 21 -229 90 -65
61 -93 127 -99 230 -3 65 0 91 18 137 28 75 96 150 168 185 49 24 69 28 142
28 77 0 91 -4 150 -34 35 -18 66 -29 67 -25 2 5 19 43 37 84 l33 75 -39 24
c-97 57 -264 85 -373 61z"/>
<path d="M0 795 l0 -505 100 0 100 0 0 225 0 225 205 0 205 0 0 -225 0 -225
100 0 100 0 0 505 0 505 -100 0 -100 0 0 -185 0 -185 -205 0 -205 0 0 185 0
185 -100 0 -100 0 0 -505z"/>
<path d="M6208 1068 l-3 -83 -52 -3 -53 -3 0 -79 0 -79 53 -3 52 -3 5 -206 c5
-197 6 -207 29 -241 44 -64 84 -83 181 -86 81 -4 171 10 170 26 -1 4 -6 34
-13 67 l-13 60 -55 0 c-32 0 -63 6 -72 14 -28 22 -37 80 -37 229 l0 142 85 0
85 0 0 80 0 80 -85 0 -85 0 0 85 0 85 -95 0 -94 0 -3 -82z"/>
<path d="M1949 1000 c-25 -4 -64 -17 -87 -29 -193 -99 -240 -420 -86 -591 104
-115 302 -135 404 -40 l30 28 0 -46 c0 -94 -56 -142 -175 -150 -57 -3 -84 1
-149 22 -44 15 -82 23 -87 19 -4 -4 -21 -39 -38 -76 l-30 -68 34 -15 c60 -25
203 -54 266 -54 139 0 274 55 327 132 55 82 56 85 60 481 l4 367 -106 0 -106
0 0 -37 0 -37 -37 35 c-58 54 -132 74 -224 59z m154 -164 c51 -19 76 -42 100
-96 42 -93 17 -220 -53 -270 -85 -60 -215 -21 -256 77 -32 75 -9 210 44 256
22 20 86 46 112 46 8 0 32 -6 53 -13z"/>
<path d="M2750 972 c-104 -40 -163 -94 -209 -191 -22 -48 -26 -69 -26 -151 0
-87 3 -101 33 -162 38 -77 92 -130 171 -167 50 -23 68 -26 166 -26 100 0 115
3 166 27 70 35 132 97 167 168 24 49 27 66 27 160 0 92 -3 112 -26 160 -33 70
-95 132 -167 167 -49 24 -71 28 -157 30 -75 2 -111 -2 -145 -15z m205 -161
c124 -56 153 -225 56 -322 -121 -122 -313 -35 -313 141 0 148 129 239 257 181z"/>
<path d="M5518 980 c-69 -21 -149 -93 -188 -169 -33 -65 -46 -169 -32 -251 32
-188 158 -298 327 -288 79 5 120 23 164 70 l31 33 0 -42 0 -43 100 0 100 0 0
345 0 345 -100 0 -100 0 0 -45 c0 -51 -5 -55 -31 -21 -34 43 -115 76 -183 75
-34 0 -73 -4 -88 -9z m226 -179 c54 -34 90 -114 84 -190 -15 -208 -270 -247
-336 -52 -60 174 105 332 252 242z"/>
<path d="M942 728 c3 -226 5 -257 22 -292 28 -56 80 -104 145 -135 49 -23 69
-26 156 -26 80 0 109 4 146 21 63 30 116 79 147 138 27 51 27 52 30 299 l4
247 -101 0 -101 0 0 -210 c0 -161 -3 -219 -14 -245 -35 -82 -141 -99 -203 -31
l-33 36 0 225 0 225 -100 0 -101 0 3 -252z"/>
</g>
</svg>
