<?xml version="1.0" encoding="utf-8"?>
<!-- Generator: Adobe Illustrator 19.0.0, SVG Export Plug-In . SVG Version: 6.00 Build 0)  -->
<svg version="1.1" id="layer" xmlns="http://www.w3.org/2000/svg" xmlns:xlink="http://www.w3.org/1999/xlink" x="0px" y="0px"
	 viewBox="-153 -46 652 652" style="enable-background:new -153 -46 652 652;" xml:space="preserve">
<path d="M13.4,301.8v-53.7H24v53.7H13.4z M74.3,301.8v-31.3l-10.2,20.2h-7.1l-10.5-20.2v31.3H36.4v-53.8h10.1l14,29l13.9-29h10.4
	v53.7H74.3z M118.1,281.7h-10.2v20.2H97.3v-53.7h20.7c11.1,0,17.7,7.7,17.7,16.8C135.8,274,129.1,281.7,118.1,281.7z M117.6,257.7
	h-9.7v14.4h9.7c4.7,0,7.8-2.8,7.8-7.2C125.3,260.6,122.3,257.7,117.6,257.7z M173,301.8l-10.5-21.6h-7.7v21.6h-10.1v-53.7h20.8
	c10.9,0,17.4,7.5,17.4,16.5c0,7.5-4.6,12.2-9.8,14.1l12,23.2H173z M164.9,257.7h-10v13.9h10c4.6,0,7.6-2.8,7.6-7
	C172.5,260.5,169.5,257.7,164.9,257.7L164.9,257.7z M226.3,296.4c-3.8,3.8-8.4,5.9-14.5,5.9c-6.1,0-10.8-2.1-14.5-5.9
	c-5.4-5.4-5.3-12.1-5.3-21.4c0-9.3-0.1-16,5.3-21.4c3.8-3.8,8.4-5.9,14.5-5.9c6.1,0,10.7,2.1,14.5,5.9c5.4,5.4,5.4,12.1,5.4,21.4
	C231.6,284.3,231.7,291,226.3,296.4z M218.5,259.9c-0.8-0.9-1.9-1.7-3-2.2c-1.2-0.5-2.4-0.7-3.7-0.7c-1.3,0-2.5,0.2-3.7,0.7
	c-1.2,0.5-2.2,1.2-3.1,2.2c-2,2.3-2.6,4.7-2.6,15.1c0,10.3,0.5,12.8,2.6,15.1c0.9,0.9,1.9,1.7,3.1,2.2c1.2,0.5,2.4,0.7,3.7,0.7
	c1.3,0,2.5-0.2,3.7-0.7c1.2-0.5,2.2-1.2,3-2.2c2-2.3,2.6-4.7,2.6-15.1C221.1,264.7,220.5,262.2,218.5,259.9L218.5,259.9z
	 M264.7,301.8h-22.5v-53.7h21.7c10.5,0,16.6,5.9,16.6,15.1c0,6-3.9,9.8-6.6,11.1c3.2,1.5,7.4,4.9,7.4,12.1
	C281.1,296.4,274.3,301.8,264.7,301.8z M263,257.7h-10.3v12H263c4.4,0,6.9-2.3,6.9-6C269.9,260,267.4,257.7,263,257.7L263,257.7z
	 M263.6,279.3h-10.9v13h11c4.7,0,7-2.9,7-6.5C270.7,282.1,268.4,279.3,263.6,279.3L263.6,279.3z M322.3,301.8l-3.2-9.6h-19l-3.2,9.6
	h-10.9l19.5-53.7h8.2l19.6,53.7H322.3z M309.8,264.1l-6.8,19.5h13.3L309.8,264.1z M362.3,301.8H340v-53.7h21.4
	c10.5,0,16.6,5.9,16.6,15.1c0,6-3.9,9.8-6.6,11.1c3.2,1.5,7.4,4.9,7.4,12.1C378.7,296.4,371.8,301.8,362.3,301.8z M360.5,257.7h-10
	v12h10c4.4,0,6.9-2.3,6.9-6C367.5,260,365,257.7,360.5,257.7z M361.2,279.3h-10.7v13h10.7c4.7,0,7-2.9,7-6.5
	C368.2,282.1,366,279.3,361.2,279.3z M389.4,301.8v-53.7h10.5v44.2h24.5v9.6H389.4z M432.5,301.8v-53.7H468v9.6h-24.9v12.5h21.1v9.1
	h-21.1v13H468v9.6H432.5z"/>
<path d="M-132,220.5v109.1h109.1V220.5H-132z M-34.3,318.2h-86.4v-86.4h86.4V318.2z M-34.3,318.2 M-84.3,252.3h13.6v45.4h-13.6
	V252.3z M-45.6,250c-9.1,0-9.1-13.6,0-13.6S-36.5,250-45.6,250L-45.6,250z M-45.6,245.5c3,0,3-4.5,0-4.5
	C-48.7,240.9-48.7,245.5-45.6,245.5L-45.6,245.5z M-45.6,245.5"/>
</svg>
