<?xml version="1.0" encoding="UTF-8"?> <svg xmlns="http://www.w3.org/2000/svg" id="Layer_1" data-name="Layer 1" viewBox="0 0 841.89 595.28"><defs><style>.cls-1{fill:#143252;}</style></defs><path class="cls-1" d="M39.76,235.73H69V361.9H39.76Z"></path><path class="cls-1" d="M252.43,235.73V361.9h-24l-62.9-76.6v76.6H136.72V235.73h24.15l62.72,76.6v-76.6Z"></path><path class="cls-1" d="M320.19,235.73h57.32q20.53,0,36.32,7.84a58.75,58.75,0,0,1,24.5,22.08q8.75,14.25,8.75,33.16T438.33,332a58.75,58.75,0,0,1-24.5,22.08q-15.78,7.83-36.32,7.84H320.19Zm55.88,102.19q18.92,0,30.18-10.54t11.27-28.57q0-18-11.27-28.56T376.07,259.7H349.39v78.22Z"></path><path class="cls-1" d="M587.29,361.9,563,326.75H536.11V361.9h-29.2V235.73h54.62q16.76,0,29.1,5.59a43.31,43.31,0,0,1,19,15.86q6.66,10.27,6.67,24.33t-6.77,24.25a42.89,42.89,0,0,1-19.19,15.59l28.29,40.55Zm-7.38-96.7q-6.85-5.67-20-5.68H536.11v44H559.9q13.15,0,20-5.77t6.85-16.22Q586.76,270.88,579.91,265.2Z"></path><path class="cls-1" d="M760.32,334.86H701.74l-11.17,27H660.65l56.23-126.17h28.84L802.13,361.9H771.49Zm-9.19-22.17-20-48.3-20,48.3Z"></path><path class="cls-1" d="M482.14,75.8c132.92,0,246.82,46,295,111.45h21.64C735.38,90,590.42,21.89,421.62,21.89S107.85,90,44.5,187.25H187.19C235.33,121.81,349.22,75.8,482.14,75.8Z"></path><path class="cls-1" d="M361.09,519.47c-133.85,0-248.4-46.66-295.95-112.83H43.61c62.87,98,208.41,166.74,378,166.74s315.13-68.7,378-166.74H657C609.49,472.81,494.94,519.47,361.09,519.47Z"></path></svg> 