<?xml version="1.0" encoding="utf-8"?>
<!-- Generator: Adobe Illustrator 19.2.1, SVG Export Plug-In . SVG Version: 6.00 Build 0)  -->
<svg version="1.1" id="layer" xmlns="http://www.w3.org/2000/svg" xmlns:xlink="http://www.w3.org/1999/xlink" x="0px" y="0px"
	 viewBox="0 0 652 652" style="enable-background:new 0 0 652 652;" xml:space="preserve">
<style type="text/css">
	.st0{fill:#26B13E;}
	.st1{fill:#51565A;}
</style>
<g id="Just-park-logo" transform="translate(30.000000, 25.000000)">
	<g id="Group" transform="translate(42.683030, 0.000000)">
		<path id="Shape" class="st0" d="M369.5,342.8c-11.2,0-20.4-9.3-20.4-20.6s9.2-20.6,20.4-20.6c11.2,0,20.4,9.3,20.4,20.6
			S380.7,342.8,369.5,342.8 M410,281.8L410,281.8c-0.3,0-0.3,0-0.3-0.3h-0.3l0,0c-0.6-0.3-1.2-0.3-1.8-0.3h-11.5
			c-3.5,0-5.9,3-5.9,5.7v0.6l0,0l0,0c0,0.9-0.9,1.8-1.8,1.8c-0.6,0-0.9-0.3-1.2-0.6l-0.3-0.3c-5.6-6.9-15.1-8.1-18.6-8.4h-0.9
			c-23.9,0-42.6,17.9-42.6,42.5s21,41.6,41.7,41.6c2.1,0,14.2,0,20.4-7.8l0.3-0.3c0.3-0.3,0.9-0.6,1.2-0.6c0.9,0,1.8,0.9,1.8,1.8
			l0,0v0.6c0,3,2.4,5.7,5.9,5.7h11.5c0.6,0,1.2,0,1.8-0.3l0,0h0.3h0.3l0,0c1.8-0.9,3.3-2.7,3.5-5.1v-71.2
			C413.2,284.5,411.8,282.7,410,281.8"/>
		<path id="Shape_1_" class="st0" d="M466.7,280.6c-2.7,0-11.8,0-18.9,7.8l-0.3,0.3c-0.3,0.3-0.9,0.6-1.2,0.6
			c-0.9,0-1.8-0.9-1.8-1.8l0,0v-0.6c0-3-2.4-5.7-5.9-5.7h-11.5c-0.6,0-1.2,0-1.8,0.3l0,0l-0.6,0.3l0,0c-2.1,0.9-3.3,2.7-3.5,5.1v0.6
			v1.2V356v1.5c0,3.3,2.7,6,5.9,6h11.5c3.3,0,5.9-2.7,5.9-6v-32.6c0-14.7,12.1-22.1,20.7-22.1h1.8c3,0,5.3-2.1,5.9-5.1v-1.2v-9.9
			c0-3.3-2.7-6-5.6-6C467,280.6,466.7,280.6,466.7,280.6"/>
		<path id="Shape_2_" class="st0" d="M282,236.1c-25.1,0-45.5,20-45.5,46.6V359l0,0c0,1.2,0.6,2.1,1.2,3c0.3,0.3,0.3,0.3,0.6,0.6
			c0,0,0.3,0,0.3,0.3l0,0c0.6,0.6,1.5,0.9,2.4,0.9l0,0h0.9h0.6c10.9-0.9,19.2-10.2,19.2-21.2v-58.6v-1.5c0-11.4,9.2-20.6,20.4-20.6
			c11.2,0,20.4,9.3,20.4,20.6l0,0c-0.3,4.8-2.4,9.3-5.3,12.6l-0.6,0.6c-3.3,3.3-6.2,5.1-10.3,5.1c-0.6,0-0.9-0.3-1.2-0.6
			c-0.6-0.6-0.3-1.2-0.3-1.2v-6c0-0.3,0-0.6-0.3-0.9c-0.6-0.6-1.5-0.6-2.1,0l-15.7,15.8c-0.9,0.9-1.2,2.1-1.2,3.3s0.3,2.1,1.2,3
			l15.4,17l0.3,0.3c0.3,0.3,0.6,0.3,0.9,0.3c0.9,0,1.5-0.6,1.5-1.5V324c0-1.2,1.2-1.8,1.8-1.8h0.6c25.7,0,39.6-16.4,40.5-39.5l0,0
			C327.5,257,307.7,236.1,282,236.1"/>
		<path id="Shape_3_" class="st0" d="M536.5,281.5c-6.8,0-13,3-17.1,8.4L506,307.3c-0.3,0.3-0.6,0.3-0.9,0.3c-0.9,0-1.5-0.6-1.5-1.5
			v-58.6c0-3.3-2.7-6-5.9-6h-13.6c-3.3,0-5.9,2.7-5.9,6V356v1.2c0,3.3,2.7,6,5.9,6h13.6c3.3,0,5.9-2.7,5.9-6v-0.9v-20.9
			c0-0.9,0.6-1.5,1.5-1.5c0.3,0,0.6,0,0.9,0.3l0.3,0.3l15.7,20.6c4.4,5.7,10.3,8.4,17.1,8.4h11.2c3,0,4.4-3.6,3-5.7l-26-34.1
			c-0.6-0.9-1.5-2.4-1.5-3.9c0-1.5,0.9-3,1.5-4.2l21.9-28.7c1.5-2.1,0-5.4-2.7-5.4H536.5z"/>
	</g>
	<path id="Shape_4_" class="st1" d="M144.1,324.9v-2.7v-34.1v-0.9c0-3.3-2.7-6-5.9-6h-0.9h-11.5h-0.9c-3.3,0-5.9,2.7-5.9,6v0.9v28.1
		c0,4.5-0.3,10.5-0.9,15c0,0.6,0,0.9-0.3,1.5v0.6c-1.2,6-6.2,10.2-12.4,10.8h-0.6h-0.6c-6.2-0.3-10.9-4.8-12.4-10.8v-0.6
		c0-0.6,0-0.9-0.3-1.5c-0.3-4.5-0.9-10.5-0.9-15v-28.1v-0.9c0-3.3-2.7-6-5.9-6h-0.9H72.3h-0.9c-3.3,0-5.9,2.7-5.9,6v0.9v33.8v2.7
		c0,8.1-0.3,20.6,8,29c6.2,6.6,15.4,10.8,31,10.8l0,0h0.3h0.3l0,0c15.7,0,24.8-4.5,31-10.8C144.4,345.2,144.1,332.1,144.1,324.9"/>
	<path id="Shape_5_" class="st1" d="M215,339c0.3-1.5,0.3-2.7,0.3-4.2c-0.6-7.8-5-15.3-12.4-19.4c-0.6-0.3-1.2-0.6-1.8-0.9
		c-3.3-1.5-7.1-2.4-11.2-3.3c-0.6,0-1.2-0.3-1.8-0.3c-2.7-0.3-6.5-0.9-8.9-2.7l0,0c-0.6-0.3-0.9-0.6-1.2-1.2
		c-2.1-2.4-1.5-6.3,0.9-8.4c0.3-0.3,0.6-0.6,1.2-0.6l0,0h0.3h0.3c1.8-0.6,3.3-0.9,3.3-0.9c6.8-0.3,11.8,1.2,15.4,2.4
		c0.9,0.3,1.8,0.6,2.7,0.6c3,0,4.1-2.1,4.7-3c0,0,1.5-2.4,3.3-6.3l0.3-0.6c1.2-2.1,0.6-3.9,0.3-5.1c-0.9-1.8-2.4-3-3.5-3.3
		c-6.2-1.8-13.3-3.3-20.1-3.3c-18.6-0.3-34.6,9-34.6,27.2c0,11.4,8.3,20.3,17.4,23c5,1.5,10.3,2.4,12.7,2.7c1.2,0.3,2.1,0.3,3,0.6
		c0.3,0,0.3,0,0.6,0.3c0.9,0.3,2.1,1.2,2.7,2.1c1.2,1.5,1.5,3,1.5,4.8s-0.9,3.9-2.4,5.1c-1.8,1.2-4.4,1.5-5.3,1.8
		c-8.6,0-16.6-2.7-22.5-5.4c-0.6-0.3-1.5-0.6-2.4-0.6c-1.2,0-3.3,0.6-4.1,2.7c-1.2,2.1-2.7,5.1-3.8,6.9c-0.9,1.5-0.9,3.3-0.6,4.8
		c0.6,1.8,2.1,3.3,3.3,3.9c7.7,3.6,16,6.6,25.7,7.2h2.4c10,0.3,20.4-3.6,26.9-9.6C211.5,351.2,214.4,345.5,215,339"/>
	<path id="Shape_6_" class="st1" d="M270.3,295.9v-8.1v-0.3c0-3.3-2.7-6-5.9-6h-0.6h-5.6c-2.7,0-4.7-2.1-4.7-4.8v-4.5V263v-1.2
		c0-3.3-2.7-6-5.9-6h-13.6c-3.3,0-5.9,2.7-5.9,6v0.9v12.9v0.9c0,2.7-2.1,4.8-4.4,4.8h-0.3c-1.2,0-2.7,0.3-3.8,1.2
		c-1.5,1.2-2.4,3-2.4,4.8v7.8v1.2c0,1.2,0.3,2.7,1.2,3.9c1.2,1.5,3,2.1,4.4,2.4l0,0c2.7,0,4.7,2.1,4.7,4.8v49c0,4.8,2.4,7.2,7.1,7.2
		h11.5c5.6,0,7.1-3.9,7.1-7.2V312v-4.8c0-2.7,2.1-4.8,4.7-4.8h5.9c1.2,0,2.7-0.3,3.8-1.2C269.7,299.8,270.3,298,270.3,295.9"/>
	<path id="Shape_7_" class="st1" d="M56.9,245.4C56.9,245.4,56.9,245.1,56.9,245.4c-0.3-1.2-0.6-2.4-1.8-3.3
		c-0.9-0.6-1.8-0.9-2.7-0.9l0,0h-0.6l0,0h-0.3H51c-10.9,0.9-19.5,9.9-19.5,21.2v60.4c0,21.5-20.1,21.8-20.4,21.8h-0.3
		c-3.8,0-7.1-1.2-9.2-2.1H1.3c-0.3,0-0.9-0.3-1.2-0.3c-2.1,0-3.5,1.5-3.5,3.3c0,0,0,0,0,0.3l0,0c0,0.6,0,1.5,0.3,2.1
		c3.8,12.6,20.1,16.7,27.8,16.7c17.4,0,32.2-12.9,32.2-34.1v-84.9V245.4"/>
</g>
</svg>
