<svg width="40" height="40" viewBox="0 0 40 40" fill="none" xmlns="http://www.w3.org/2000/svg">
<g clip-path="url(#clip0_216_359)">
<path d="M40 0H0V40H40V0Z" fill="#0078AD"/>
<path d="M2.5791 29.5791H4.5591V35.8671H7.6691V37.5491H2.5791V29.5791Z" fill="white"/>
<path d="M13.135 31.4829C13.035 31.8879 12.92 32.3049 12.809 32.7089C12.638 33.3089 12.336 34.2429 12.154 34.8429H14.173L13.135 31.4829ZM14.21 29.5889L17.14 37.5439H15.022L14.622 36.2759H11.686L11.295 37.5439H9.17896L12.13 29.5889H14.205" fill="white"/>
<path d="M24.15 29.589C24.386 30.446 24.623 31.303 24.881 32.158C25.2295 33.2425 25.4864 34.3544 25.649 35.4819C25.886 33.9059 25.941 33.6359 26.302 32.0129C26.473 31.2009 26.651 30.389 26.822 29.588H28.794L26.775 37.5429H24.7299C24.4779 36.6659 24.244 35.788 23.983 34.92C23.7064 34.0538 23.4773 33.1731 23.297 32.282C23.1203 33.1545 22.8939 34.0162 22.619 34.8629L21.853 37.5429H19.8L17.783 29.588H19.766C20.2678 31.5364 20.6634 33.5106 20.951 35.502C21.1536 34.3363 21.416 33.1817 21.737 32.0429L22.393 29.5859H24.152" fill="white"/>
<path d="M35.377 31.5839C35.1951 31.3969 34.9774 31.2484 34.7368 31.1474C34.4963 31.0464 34.2379 30.9948 33.977 30.9959C32.77 30.9959 32.003 32.0549 32.003 33.4959C32.003 35.3899 33.062 36.0859 33.998 36.0859C34.934 36.0859 35.961 35.4109 36.019 33.7439C36.0844 32.9674 35.854 32.1948 35.374 31.5809L35.377 31.5839ZM34.001 37.7689C32.9329 37.6995 31.931 37.2272 31.1976 36.4476C30.4643 35.668 30.0541 34.6391 30.0501 33.5688C30.046 32.4985 30.4483 31.4666 31.1758 30.6814C31.9032 29.8963 32.9015 29.4164 33.969 29.3389C34.4635 29.3369 34.9549 29.4173 35.423 29.5769C37.858 30.4209 38.016 33.0699 38.016 33.6099C38.022 34.2407 37.89 34.8652 37.6291 35.4396C37.3683 36.014 36.9849 36.5243 36.506 36.9349C35.7978 37.5002 34.9117 37.7955 34.006 37.7679" fill="white"/>
<path d="M10.5511 0C5.48705 12.657 5.78005 24.678 14.451 26.464C22.877 28.2 31.301 20.522 36.989 13.278L40.0011 9.46V10.187L37.3431 13.554C31.6731 20.78 23.0841 28.7 14.3561 26.906C5.18006 25.013 5.09805 12.556 10.0731 0H10.5511Z" fill="white"/>
<path d="M21.508 0C19.202 5.759 15.5859 16.951 21.2759 19C26.8359 21.005 34.323 12.452 37.002 9.38L40.002 5.949V6.634L37.3369 9.676C33.9309 13.576 26.7619 21.455 21.1209 19.417C15.0739 17.24 18.667 5.897 21.021 0H21.508Z" fill="white"/>
</g>
<defs>
<clipPath id="clip0_216_359">
<rect width="40" height="40" fill="white"/>
</clipPath>
</defs>
</svg>
