<?xml version="1.0" encoding="utf-8"?>
<!-- Generator: Adobe Illustrator 19.2.1, SVG Export Plug-In . SVG Version: 6.00 Build 0)  -->
<svg version="1.1" id="layer" xmlns="http://www.w3.org/2000/svg" xmlns:xlink="http://www.w3.org/1999/xlink" x="0px" y="0px"
	 viewBox="0 0 652 652" style="enable-background:new 0 0 652 652;" xml:space="preserve">
<style type="text/css">
	.st0{fill:#ED1D24;}
	.st1{clip-path:url(#SVGID_2_);fill:url(#SVGID_3_);}
	.st2{clip-path:url(#SVGID_5_);fill:url(#SVGID_6_);}
</style>
<g>
	<path d="M131,269.8c0-4,3.2-6.9,7-6.9c3.8,0,7,2.9,7,6.9c0,4-3.2,6.9-7,6.9C134.2,276.7,131,273.8,131,269.8 M138,275.6
		c3.1,0,5.6-2.4,5.6-5.8c0-3.3-2.5-5.7-5.6-5.7c-3.2,0-5.6,2.5-5.6,5.7C132.4,273.1,134.9,275.6,138,275.6 M136.6,273.8h-1.2v-8h3
		c1.9,0,2.8,0.7,2.8,2.3c0,1.4-0.9,2-2.1,2.2l2.3,3.5H140l-2.1-3.4h-1.4V273.8z M138,269.3c1,0,1.9-0.1,1.9-1.3c0-1-0.9-1.2-1.7-1.2
		h-1.6v2.5H138z"/>
	<path class="st0" d="M195,390.3l-8.7-13.6h-6.8v13.6h-4.3v-34.2h13.7c6.3,0,10.7,4,10.7,10.3c0,6.1-4.2,9.5-8.9,9.9l9.2,13.9H195z
		 M195.2,366.4c0-3.8-2.8-6.5-6.8-6.5h-9v13.1h9C192.5,372.9,195.2,370.2,195.2,366.4"/>
	<rect x="206.1" y="356.1" class="st0" width="4.3" height="34.2"/>
	<path class="st0" d="M216,385.4l2.5-3.2c2.3,2.5,5.9,4.9,10.8,4.9c6.1,0,8-3.3,8-5.9c0-8.8-20.2-3.9-20.2-16.1
		c0-5.6,5-9.5,11.7-9.5c5.2,0,9.3,1.7,12.1,4.8l-2.6,3.1c-2.6-2.8-6.1-4.1-9.9-4.1c-4.1,0-7,2.2-7,5.4c0,7.7,20.2,3.3,20.2,16
		c0,5-3.4,10-12.6,10C223.2,390.9,218.8,388.6,216,385.4"/>
	<polygon class="st0" points="268.5,390.2 255.5,374.9 252.1,378.8 252.1,390.2 247.8,390.2 247.8,356.1 252.1,356.1 252.1,373.8 
		267.2,356.1 272.5,356.1 258.3,372.3 273.8,390.2 	"/>
	<path class="st0" d="M289.3,385.4l2.5-3.2c2.3,2.5,5.9,4.9,10.8,4.9c6.1,0,8-3.3,8-5.9c0-8.8-20.2-3.9-20.2-16.1
		c0-5.6,5-9.5,11.7-9.5c5.2,0,9.3,1.7,12.1,4.8l-2.6,3.1c-2.6-2.8-6.1-4.1-9.9-4.1c-4.1,0-7,2.2-7,5.4c0,7.7,20.2,3.3,20.2,16
		c0,5-3.4,10-12.6,10C296.5,390.9,292.1,388.6,289.3,385.4"/>
	<path class="st0" d="M319.7,373.2c0-10.1,6.8-17.7,17-17.7c10.1,0,16.9,7.6,16.9,17.7c0,10.1-6.9,17.7-16.9,17.7
		C326.5,390.9,319.7,383.3,319.7,373.2 M349.2,373.2c0-8-4.9-13.9-12.5-13.9c-7.7,0-12.6,5.9-12.6,13.9c0,7.9,4.9,13.9,12.6,13.9
		C344.3,387.1,349.2,381.1,349.2,373.2"/>
	<polygon class="st0" points="360,390.2 360,356.1 364.3,356.1 364.3,386.5 380.2,386.5 380.2,390.2 	"/>
	<path class="st0" d="M384.5,377v-20.9h4.3v20.8c0,6.2,3.4,10.2,9.7,10.2c6.3,0,9.7-3.9,9.7-10.2v-20.8h4.3v20.8
		c0,8.5-4.7,13.9-13.9,13.9C389.2,390.9,384.5,385.4,384.5,377"/>
	<polygon class="st0" points="428.6,390.2 428.6,359.9 417.7,359.9 417.7,356.1 443.7,356.1 443.7,359.9 432.8,359.9 432.8,390.2 	
		"/>
	<rect x="449" y="356.1" class="st0" width="4.3" height="34.2"/>
	<path class="st0" d="M459.7,373.2c0-10.1,6.8-17.7,16.9-17.7c10.1,0,17,7.6,17,17.7c0,10.1-6.9,17.7-17,17.7
		C466.5,390.9,459.7,383.3,459.7,373.2 M489.2,373.2c0-8-4.9-13.9-12.6-13.9c-7.7,0-12.5,5.9-12.5,13.9c0,7.9,4.9,13.9,12.5,13.9
		C484.2,387.1,489.2,381.1,489.2,373.2"/>
	<polygon class="st0" points="524.1,390.2 504.2,363 504.2,390.2 500,390.2 500,356.1 504.3,356.1 524,382.8 524,356.1 528.2,356.1 
		528.2,390.2 	"/>
	<path class="st0" d="M533.9,385.4l2.5-3.2c2.3,2.5,5.9,4.9,10.8,4.9c6.1,0,8-3.3,8-5.9c0-8.8-20.2-3.9-20.2-16.1
		c0-5.6,5-9.5,11.7-9.5c5.2,0,9.3,1.7,12.1,4.8l-2.6,3.1c-2.6-2.8-6.1-4.1-9.9-4.1c-4.1,0-7,2.2-7,5.4c0,7.7,20.2,3.3,20.2,16
		c0,5-3.4,10-12.6,10C541.1,390.9,536.7,388.6,533.9,385.4"/>
	<path d="M529.7,272.5c1,0.1,5.7,0.1,7.1,0c-10.4,12.2-31.5,38.9-39.1,49.5c-0.8-0.1-5.9-0.1-7.2,0l0.9-1.1
		C498.7,312.6,521.8,283.5,529.7,272.5"/>
	<path d="M299.8,272.5c1,0.1,5.7,0.1,7.1,0c-10.4,12.2-31.5,38.9-39.1,49.5c-0.8-0.1-5.9-0.1-7.2,0l0.9-1.1
		C268.8,312.6,291.9,283.5,299.8,272.5"/>
	<path d="M491.3,272.5c1.8,0.1,8.8,0.1,10,0c7.3,10.5,26,37.1,36,49.5c-2.6-0.2-9.6,0-10.1,0C522.8,314.7,499.1,282.6,491.3,272.5"
		/>
	<path d="M554.3,322c-1.3-0.1-6.7-0.1-7.7,0v-49.6c3.3,0.2,4.9,0.2,7.7,0V322z M550.5,260.7c-2.8,0-4.9-2.6-4.9-5.3
		c0-2.7,2.2-4.9,4.9-4.9c2.6,0,4.9,2.2,4.9,4.9C555.3,258.1,553.2,260.7,550.5,260.7"/>
	<path d="M568.8,312.1c2.5,3.9,7.2,7.5,12.1,7.5c6.5,0,10.4-4.1,10.1-9.5c-0.8-14.4-24.6-4.6-24.8-22.7c-0.1-9.9,7.4-15.4,16.7-15.5
		c5.4,0,11.8,2.5,11.7,2.6c-1.2,2.6-2.8,7.6-2.8,7.5c-1.9-3.9-5.6-6.9-9.4-6.9c-5.2,0-9.4,3.1-9.3,8.7c0.1,13.3,25.3,6.9,25.1,23.5
		c-0.1,8.9-6.9,16.7-18.6,16c-5.6-0.4-13.7-3.4-13.7-3.5C567,317.1,568.8,312,568.8,312.1"/>
	<path d="M452.3,294c0.6-8.7,4.9-18,14.6-18c10.2,0,12.7,9,12.9,18H452.3z M487.8,298.1c1-17.3-9.5-25.3-21-25.3
		c-15.4,0-23.7,11.1-23.7,25.4c0,16,10.1,25.4,24.4,25.4c6.3,0,12.9-2.5,17.9-6.2l0-5.3c-2.8,2.7-8.3,7.1-15.3,7.1
		c-12.5,0-18.7-9.6-17.7-21.2L487.8,298.1z"/>
	<path d="M261.4,272.5c1.8,0.1,8.8,0.1,10,0c7.3,10.5,26,37.1,36,49.5c-2.6-0.2-9.6,0-10.1,0C292.9,314.7,269.2,282.6,261.4,272.5"
		/>
	<path d="M324.4,322c-1.2-0.1-6.6-0.1-7.7,0v-49.6c3.3,0.2,4.9,0.2,7.7,0V322z M320.6,260.7c-2.8,0-4.9-2.6-4.9-5.3
		c0-2.7,2.2-4.9,4.9-4.9c2.6,0,4.9,2.2,4.9,4.9C325.5,258.1,323.3,260.7,320.6,260.7"/>
	<path d="M338.9,312.1c2.5,3.9,7.2,7.5,12.1,7.5c6.5,0,10.4-4.1,10.1-9.5c-0.8-14.4-24.6-4.6-24.8-22.7c-0.1-9.9,7.4-15.4,16.7-15.5
		c5.4,0,11.8,2.5,11.7,2.6c-1.2,2.6-2.8,7.6-2.8,7.5c-1.9-3.9-5.6-6.9-9.4-6.9c-5.2,0-9.4,3.1-9.3,8.7c0.1,13.3,25.4,6.9,25.1,23.5
		c-0.2,8.9-6.9,16.7-18.6,16c-5.6-0.4-13.7-3.4-13.7-3.5C337.1,317.1,338.9,312,338.9,312.1"/>
	<path d="M222.4,294c0.6-8.7,4.9-18,14.6-18c10.2,0,12.7,9,12.9,18H222.4z M258,298.1c1-17.3-9.5-25.3-21-25.3
		c-15.4,0-23.7,11.1-23.7,25.4c0,16,10.1,25.4,24.4,25.4c6.3,0,12.8-2.5,17.9-6.2l0-5.3c-2.8,2.7-8.3,7.1-15.3,7.1
		c-12.5,0-18.7-9.6-17.7-21.2L258,298.1z"/>
	<path d="M182.8,316.3c6.8,0.2,22.8-0.3,28.5-1.1c-0.1,1.4,0,5.4,0,6.6h-37.7v-70.6c1.5,0.1,7.5,0.1,9.1,0L182.8,316.3z"/>
	<path d="M433.5,322.1h-3.1c-1.1-1.4-45-56.2-45-56.2v56.2c-1-0.1-2-0.1-2.9-0.1c-1,0-2,0-2.9,0.1v-70.9h4l43,53.4l1,1v-54.4
		c1.3,0.1,4.7,0.1,5.8,0V322.1z"/>
	<path d="M606,279.4c0-4,3.2-6.9,7-6.9c3.8,0,7,2.9,7,6.9c0,4-3.2,6.9-7,6.9C609.2,286.4,606,283.4,606,279.4 M613,285.2
		c3.1,0,5.6-2.4,5.6-5.8c0-3.3-2.5-5.7-5.6-5.7c-3.2,0-5.6,2.5-5.6,5.7C607.4,282.8,609.9,285.2,613,285.2 M611.6,283.4h-1.2v-8h3
		c1.9,0,2.8,0.7,2.8,2.3c0,1.4-0.9,2.1-2.1,2.2l2.3,3.5h-1.4L613,280h-1.4V283.4z M613,278.9c1,0,1.9-0.1,1.9-1.3
		c0-1-0.9-1.2-1.7-1.2h-1.6v2.5H613z"/>
</g>
<g>
	<defs>
		<path id="SVGID_1_" d="M20,314.2c0,32.8,26.6,59.5,59.5,59.5c32.8,0,59.5-26.6,59.5-59.5s-26.6-59.5-59.5-59.5
			C46.6,254.8,20,281.4,20,314.2"/>
	</defs>
	<clipPath id="SVGID_2_">
		<use xlink:href="#SVGID_1_"  style="overflow:visible;"/>
	</clipPath>
	
		<radialGradient id="SVGID_3_" cx="-219.0929" cy="670.3288" r="1" gradientTransform="matrix(86.5324 0 0 -86.5324 19054.7031 58273.7031)" gradientUnits="userSpaceOnUse">
		<stop  offset="0" style="stop-color:#FEE7DC"/>
		<stop  offset="4.193590e-002" style="stop-color:#F9C3BB"/>
		<stop  offset="0.1078" style="stop-color:#F2908D"/>
		<stop  offset="0.1728" style="stop-color:#EC6666"/>
		<stop  offset="0.2356" style="stop-color:#E74549"/>
		<stop  offset="0.2957" style="stop-color:#E42E33"/>
		<stop  offset="0.3518" style="stop-color:#E22026"/>
		<stop  offset="0.4" style="stop-color:#E11B22"/>
		<stop  offset="0.7137" style="stop-color:#CF171E"/>
		<stop  offset="1" style="stop-color:#BA131A"/>
	</radialGradient>
	<rect x="20" y="254.8" class="st1" width="118.9" height="118.9"/>
</g>
<g>
	<defs>
		<path id="SVGID_4_" d="M53.9,260.7c9.9-2.1,21.2-1.5,33.3,5.4c-19.6-5.9-36.2-2.8-48.4,5.1c-7.4,7.1-12.9,15.8-15.9,25.9
			c10.4-21.5,33.3-35.8,63.7-28.9C43.8,266.8,24.9,295.9,21,323c1.4,9.4,4.9,18,10.2,25.5c-9.5-30.4,5-75.8,55.9-78.4
			c-54.7,11.1-59.2,68.8-42.4,92.1c5,3.6,10.7,6.6,16.5,8.4c-24.7-17-22.6-84,27.4-99C44.2,293,45.5,359.6,73.9,373.4
			c1.9,0.2,3.7,0.3,5.6,0.3c3.7,0,7.3-0.2,10.8-1c-29.6-10.2-42.5-78.9,3.9-101.3c0,0,1.5,1.2,1.5,1.2c6.1,4.4,17.6,16.6,18.2,16.3
			c0.5-0.3-10.2-11.5-14.5-15.8c5.7,2.5,17.2,9,17.7,8.5c0.4-0.4-11.4-7.3-17.4-10.5c6.2,1,17.7,3.5,17.7,3.1
			c0.1-0.6-10.5-3.1-17.4-4.6c0.3-0.1,13.5-0.9,13.4-1.3c0.1-0.5-9.5-0.2-13.4,0c1.5-0.5,8.2-2.8,8.1-3.4c0-0.6-11.3,3.2-12.8,3.4
			C85.2,260,75.6,256.7,67,256.1C62.4,257.1,57.9,258.7,53.9,260.7"/>
	</defs>
	<clipPath id="SVGID_5_">
		<use xlink:href="#SVGID_4_"  style="overflow:visible;"/>
	</clipPath>
	
		<radialGradient id="SVGID_6_" cx="-234.5042" cy="660.1922" r="1" gradientTransform="matrix(172.5931 0 0 -172.5931 40568.2422 114215.9688)" gradientUnits="userSpaceOnUse">
		<stop  offset="0" style="stop-color:#FEE7DC"/>
		<stop  offset="0.374" style="stop-color:#EB6868"/>
		<stop  offset="0.6" style="stop-color:#E01F26"/>
		<stop  offset="0.7573" style="stop-color:#D01F26"/>
		<stop  offset="1" style="stop-color:#BA2025"/>
	</radialGradient>
	<rect x="21" y="256.1" class="st2" width="96.5" height="117.6"/>
</g>
</svg>
