<?xml version="1.0" encoding="UTF-8"?>
<svg width="1722px" height="605px" viewBox="0 0 1722 605" version="1.1" xmlns="http://www.w3.org/2000/svg" xmlns:xlink="http://www.w3.org/1999/xlink">
    <!-- Generator: Sketch 58 (84663) - https://sketch.com -->
    <title>Artboard Copy 4</title>
    <desc>Created with Sketch.</desc>
    <g id="Artboard-Copy-4" stroke="none" stroke-width="1" fill="none" fill-rule="evenodd">
        <g id="Group" transform="translate(817.500000, 303.000000) rotate(-360.000000) translate(-817.500000, -303.000000) translate(71.000000, 113.000000)">
            <g id="ll_logo_full_rgb-copy-27">
                <g id="Group-8" fill="#FF364D">
                    <path d="M380,190 C380,294.90375 294.874063,380 190.017812,380 C85.084375,380 0,294.90375 0,190 C0,85.0784375 85.084375,0 190.017812,0 C294.874063,0 380,85.0784375 380,190" id="Fill-7"></path>
                </g>
                <path d="M317.424687,185.1075 C316.510312,187.702188 315.495,190.195937 314.3075,192.63625 C305.959375,209.97375 290.860313,223.499375 272.180938,229.6625 C265.69125,231.770312 258.66125,233.023125 251.4175,233.2725 C243.075313,233.373438 239.821562,232.18 232.328438,229.775312 C237.434688,254.065625 250.532813,273.706875 273.784063,281.431563 C284.839687,277.126875 294.464375,270.20375 301.969375,261.291562 C312.698437,248.870313 318.861562,232.589687 318.469687,214.806875 L317.87,191.935625 C317.852188,189.566563 317.691875,187.36375 317.424687,185.1075" id="Fill-9" fill="#FFFFFE"></path>
                <path d="M206.613125,240.249062 C205.79375,235.902812 205.407812,231.402187 205.407812,226.895625 L205.407812,141.769688 C205.407812,135.078125 204.244062,128.659687 202.3025,122.57375 C201.815625,120.739062 201.04375,118.934062 200.26,117.176562 C192.695625,99.4353125 177.169062,85.9215625 158.1275,81.094375 C158.026563,81.035 157.753437,81.0290625 157.682187,80.9815625 L156.815313,80.9815625 L156.815313,226.895625 C156.815313,266.938125 189.24,299.350937 229.246875,299.350937 C237.826562,299.350937 245.949062,297.925937 253.555,295.248125 C229.579375,286.632812 211.369063,265.869375 206.613125,240.249062" id="Fill-10" fill="#FFFFFE"></path>
                <path d="M130.79125,240.249062 C129.96,235.902812 129.502813,231.402187 129.502813,226.895625 L129.502813,141.769688 C129.502813,135.078125 128.517188,128.659687 126.5875,122.57375 C125.916563,120.739062 125.245625,118.934062 124.556875,117.176562 C116.927188,99.4353125 101.359063,85.9215625 82.376875,81.094375 C82.1809375,81.035 82.05625,81.0290625 81.81875,80.9815625 L81.0053125,80.9815625 L81.0053125,226.895625 C81.0053125,266.938125 113.489375,299.350937 153.49625,299.350937 C162.064063,299.350937 170.16875,297.925937 177.81625,295.248125 C153.73375,286.632812 135.559063,265.869375 130.79125,240.249062" id="Fill-11" fill="#FFFFFE"></path>
            </g>
            <path d="M498.550124,266.163142 C478.3931,266.163142 467,253.977845 467,233.373615 L467,100 L495.482751,100 L495.482751,230.715005 C495.482751,237.361531 498.769222,240.906344 504.68487,240.906344 L519.244933,240.906344 L519.244933,266.163142 L498.550124,266.163142 Z M558.396117,134.118832 C548.098507,134.118832 540.86827,127.693857 540.86827,117.280967 C540.86827,107.311178 548.098507,100.664653 558.396117,100.664653 C568.693727,100.664653 575.923963,107.311178 575.923963,117.280967 C575.923963,127.693857 568.693727,134.118832 558.396117,134.118832 Z M544.154742,266.163142 L544.154742,149.627392 L572.637492,149.627392 L572.637492,266.163142 L544.154742,266.163142 Z M684.596612,317.119839 L684.596612,251.097684 L683.062925,251.097684 C679.11916,257.079557 667.945158,269.043303 648.007232,269.043303 C616.457109,269.043303 594.5473,243.786506 594.5473,207.452165 C594.5473,171.117825 616.676207,146.747231 648.883625,146.747231 C669.917041,146.747231 680.21465,159.59718 683.501122,164.471299 L685.034808,164.471299 L685.034808,149.627392 L713.079363,149.627392 L713.079363,317.119839 L684.596612,317.119839 Z M654.141979,242.900302 C672.108021,242.900302 685.253906,229.607251 685.253906,207.895267 C685.253906,188.177241 673.42261,172.890232 654.361077,172.890232 C635.956838,172.890232 623.468247,186.626385 623.468247,207.895267 C623.468247,228.499496 635.956838,242.900302 654.141979,242.900302 Z M781.848043,269.043303 C755.994469,269.043303 740.000309,250.654582 740.000309,225.840886 L740.000309,149.627392 L768.48306,149.627392 L768.48306,218.529708 C768.48306,232.708963 777.685179,242.4572 790.831064,242.4572 C804.634244,242.4572 814.493657,231.158107 814.493657,216.53575 L814.493657,149.627392 L842.976408,149.627392 L842.976408,266.163142 L815.808246,266.163142 L815.808246,251.983887 L814.055461,251.983887 C809.454401,260.624371 798.061301,269.043303 781.848043,269.043303 Z M887.453318,134.118832 C877.155709,134.118832 869.925472,127.693857 869.925472,117.280967 C869.925472,107.311178 877.155709,100.664653 887.453318,100.664653 C897.750928,100.664653 904.981165,107.311178 904.981165,117.280967 C904.981165,127.693857 897.750928,134.118832 887.453318,134.118832 Z M873.211943,266.163142 L873.211943,149.627392 L901.694694,149.627392 L901.694694,266.163142 L873.211943,266.163142 Z M979.940826,269.043303 C947.733408,269.043303 925.604502,244.672709 925.604502,208.559919 C925.604502,172.004028 947.51431,146.747231 979.064434,146.747231 C999.002359,146.747231 1010.17636,158.710977 1014.12013,164.69285 L1015.65381,164.69285 L1015.65381,100 L1044.13656,100 L1044.13656,266.163142 L1016.09201,266.163142 L1016.09201,251.319235 L1014.55832,251.319235 C1011.27185,256.193353 1000.97424,269.043303 979.940826,269.043303 Z M985.418278,243.121853 C1004.47981,243.121853 1016.31111,227.613293 1016.31111,208.116818 C1016.31111,186.183283 1003.16522,172.890232 985.19918,172.890232 C967.014039,172.890232 954.525449,187.512588 954.525449,208.116818 C954.525449,229.164149 967.014039,243.121853 985.418278,243.121853 Z M1095.03469,266.163142 C1082.9843,266.163142 1075.53496,258.408862 1075.53496,244.672709 L1075.53496,100 L1088.68085,100 L1088.68085,244.672709 C1088.68085,250.654582 1091.74822,254.420947 1097.22567,254.420947 L1102.04583,254.420947 L1102.04583,266.163142 L1095.03469,266.163142 Z M1140.08513,150.956697 L1140.08513,266.163142 L1126.93924,266.163142 L1126.93924,150.956697 L1140.08513,150.956697 Z M1133.73128,105.981873 C1140.08513,105.981873 1144.46709,110.41289 1144.46709,116.394763 C1144.46709,122.598187 1140.08513,127.250755 1133.73128,127.250755 C1127.81563,127.250755 1123.43367,122.598187 1123.43367,116.394763 C1123.43367,110.41289 1127.81563,105.981873 1133.73128,105.981873 Z M1226.48944,320 C1198.66399,320 1181.57433,305.377644 1178.06877,284.773414 L1190.55736,284.773414 C1193.84383,300.281974 1207.8661,308.257805 1226.48944,308.257805 C1253.6576,308.257805 1267.89898,292.970796 1267.89898,268.378651 L1267.89898,243.343404 L1266.58439,243.343404 C1262.85972,251.983887 1249.71384,269.043303 1224.07936,269.043303 C1190.55736,269.043303 1168.20935,244.008056 1168.20935,208.78147 C1168.20935,173.111782 1190.55736,148.076536 1223.20297,148.076536 C1248.18015,148.076536 1261.98333,164.028197 1266.14619,174.219537 L1267.46078,174.219537 L1267.46078,150.956697 L1280.60667,150.956697 L1280.60667,268.378651 C1280.60667,300.946626 1259.57325,320 1226.48944,320 Z M1223.95575,257.079557 C1250.90482,257.079557 1266.89898,235.146022 1266.89898,208.78147 C1266.89898,179.315206 1248.93294,160.261833 1223.73666,160.261833 C1197.88308,160.261833 1180.57433,180.20141 1180.57433,208.78147 C1180.57433,237.804632 1197.88308,257.079557 1223.95575,257.079557 Z M1311.39991,266.163142 L1311.39991,100 L1324.54579,100 L1324.54579,170.01007 L1325.86038,170.01007 C1330.89964,158.267875 1344.26462,148.076536 1362.88796,148.076536 C1389.39882,148.076536 1406.05028,167.794562 1406.05028,192.386707 L1406.05028,266.163142 L1392.90439,266.163142 L1392.90439,193.27291 C1392.90439,174.219537 1378.44392,160.483384 1359.82058,160.483384 C1340.10176,160.483384 1324.54579,175.770393 1324.54579,195.266868 L1324.54579,266.163142 L1311.39991,266.163142 Z M1478.32043,266.163142 C1457.72521,266.163142 1444.79842,254.420947 1444.79842,231.601208 L1444.79842,162.255791 L1423.10771,162.255791 L1423.10771,150.956697 L1445.45572,150.956697 L1445.45572,117.502518 L1457.94431,117.502518 L1457.94431,150.956697 L1493,150.956697 L1493,162.255791 L1457.94431,162.255791 L1457.94431,231.379658 C1457.94431,246.002014 1464.51725,254.420947 1479.19682,254.420947 L1491.90451,254.420947 L1491.90451,266.163142 L1478.32043,266.163142 Z" id="liquidlight-copy-3" fill="#FF364D" transform="translate(980.000000, 210.000000) rotate(-360.000000) translate(-980.000000, -210.000000) "></path>
        </g>
    </g>
</svg>