<?xml version="1.0" encoding="utf-8"?>
<!-- Generator: Adobe Illustrator 19.2.1, SVG Export Plug-In . SVG Version: 6.00 Build 0)  -->
<svg version="1.1" id="layer" xmlns="http://www.w3.org/2000/svg" xmlns:xlink="http://www.w3.org/1999/xlink" x="0px" y="0px"
	 viewBox="0 0 652 652" style="enable-background:new 0 0 652 652;" xml:space="preserve">
<style type="text/css">
	.st0{fill:#008A26;}
</style>
<path class="st0" d="M614.3,266.3c-9.5,0-12.5,3.8-12.5,10.3c0,8.5,3.4,27.3,1,27.3c-8.8-13.2-17.9-37.9-30.8-37.9
	c-8.1,0-12.2,5-14.2,11.6c-1.4,4.7-2,23.2-2,28.8c0,15,2.4,21.3,6.4,23.2c1,0.6,3.7,1.6,7.4,1.6c3.7,0,4.7-0.6,5.4-1.3
	c3.4-3.4,1-28.2,2-36.3c2,5.6,8.1,21,14.9,28.8c4.1,4.7,8.8,8.1,15.9,8.1c12.9,0,17.6-17.9,17.6-40.7
	C625.5,269.1,620.8,266.3,614.3,266.3 M511.8,303.6c2.8-12.6,4.2-18.1,7.3-24.6c1.3,9,3.2,16.1,4.7,23.9
	C519.4,302.8,515.4,303.1,511.8,303.6 M497.4,332.7c11.6,0,10.1-4.7,11.4-12.8c5.6-0.6,11.9-1.1,17.9-1.3
	c3.1,9.2,7.2,14.7,13.2,14.7c6.7,0,13.7-3.8,13.7-7.7c0-0.9-0.4-2.3-2-5.1c-6.5-11.3-11.6-41.6-15.2-53.1c-1.8-6-25.8-4.3-31.6,0.9
	c-10.3,12.2-16.8,41.4-18.6,52.9C486.2,327.8,488.4,332.7,497.4,332.7 M387.2,331.4c3.4,2.4,11.1,2,18.4,2c6.8,0,11.1,0.3,15.5-1.5
	c7.3-2.9,6.6-9.3,6.6-12.4c0-4.7-2.6-6.5-11.9-6.4c-1.3,0-7.1,0.1-7.7-0.1c-5.7-2-2-14.1-2-39.9c0-5.5-4.5-9.3-15-9.3
	c-4.3,0-8,0.7-9.1,3.1c-1.4,2.9-1.1,11.8-1.4,23.5C380,320.7,381.7,327.4,387.2,331.4 M457.3,269.3c-1.1-3.6-2.9-4.1-5.7-5.1
	c-5.1-1-13.5-0.5-14.7,3c-3.3,4.6-2.6,55.8-1.9,61.5c0.2,3.4-0.3,4.7,23.9,4.7c11.3,0,20.3-3.5,22-11.7c2.2-10.3-0.6-11.3-5.7-11.3
	h-14.6C460.6,303.2,458.8,274.4,457.3,269.3 M359.8,265.9c-10.2,0-12.2,4.6-12.2,9.5c0,3.5-0.7,10.9-0.7,27.7
	c0,6.7,0.2,12.8,0.2,16.3c0,10.7,3.2,13.8,4.4,14.5c2,1.3,5.1,1.7,8.8,1.7c9.8,0,12.4-0.8,13.4-8.6c0.5-3.4-0.5-32.9-3.2-54.9
	C369.8,266.6,366.3,265.9,359.8,265.9 M252.5,313.1c0-21.3,4.3-47.9,23.2-47.9c7.7,0,14.8,5.1,17.7,13c4.3-8.9,11.4-14.5,20.5-14.5
	c9.5,0,17.3,5.5,21.6,17c3.2,8.7,5.7,27,4.3,41.3c-0.7,6.6-5.7,13.2-13,13.2c-7.5,0-8.2-11.3-9.3-22.6c-0.9-9.6-1.1-14.9-2-19.4
	c-4.8,0-5.9,7-6.8,12.1c-1.4,8.5-4.3,16.6-12.7,16.6c-8.6,0-12.5-9.1-11.8-24c-0.9-2.1-2-3-4.1-3c-7.5,0-5.5,24-7.5,33.4
	c-1.4,6.6-5.9,7.2-9.3,7.2c-0.9,0-3.9,0-5.5-0.9C255.9,333.9,252.5,332,252.5,313.1 M40.9,335.6c8.1,0,12-4.5,12-11.7
	c0-4.3-2-18.8-2-25.1c0-7.9,1.6-13.2,6.3-13.2c-1.4,10.7,1.6,32,15.2,32c15.8,0,7.5-23.9,17-23.9c3.4,0,3.8,2.8,3.8,14.5v14.3
	c0,8.5,1.8,12.1,9.5,12.1c8.8,0,10.9-1.1,11.8-4.3c2.3-8.1,3.2-16.2,3.2-28.1c0-22.6-4.3-36.9-21.3-36.9c-9.3,0-16.5,4.9-21.7,10
	c-4.1-9.6-10.2-13.9-18.6-13.9c-19.5,0-30.6,23.9-30.6,47.1C25.5,331.8,36.6,335.6,40.9,335.6 M528.3,358.8
	c-1.9,0.6-5.2,0.9-8.2,0.7c-0.2-1.5,0-3.6,0.2-6c0.3-3.3,5.9-3.7,9.1-2.2c1.7,0.8,2.7,2.2,2.6,3.8
	C531.8,356.9,530.5,358.1,528.3,358.8z M548.4,381.2c-5.3-5.1-10.3-10.5-13.8-14.1c0.2,0,0.7,0,1.5-0.1c3.4-0.5,11.1-2.6,11.1-14.3
	c0-6.9-5.8-12.2-17.6-12.6c-9.4-0.2-17.7,2-21.6,7.2c-3.6,4.9-3.9,15.1-3.9,21.6c0,11.9,5.1,18.4,11.5,18.4c2.5,0,4.3-1.1,4.3-2.9
	v-18.5c0.4,1.4,8.9,17.7,15.2,19.7C547,389.4,550.8,383.1,548.4,381.2z M162.9,342.4c-5.8,0-8.8,2.6-9,8.1c-0.1,6.3,0.4,13.4,0.1,18
	c-2.7-3.2-6.5-8.6-11-16.7c-3.4-6.1-6.9-6.7-8.6-6.7c-10.5,0-10.1,26.3-10.1,32.7c0,8.8,2.8,11.8,7.3,11.8c2.8,0,4.8-0.4,6-1
	c1.1-0.4,1.1-0.7,1.1-2.1l0.3-17.8c5.9,9.7,12.9,19.4,19.7,19.4c4.8,0,10.5-6.1,10.5-24.1C169.3,344.3,166.2,342.4,162.9,342.4
	 M76.2,381.6c-1.9,4.3-7.6,5.7-13.3,5.7c-15.5,0-26.2-7.8-26.2-23.5c0-9.4,5.2-19,16.8-22.4c8.5-2.5,16.7-1,19.6,1.6
	c3.1,2.8,3.1,9-1.3,9.7c-12,0-18.3,1.9-18.3,11.4c0,13.4,17.3,8.6,22.6,9.5C76.9,373.7,78,377.4,76.2,381.6 M209.8,380.3
	c0,4.9-3.8,7-9.2,7c-14.9,0-26.8-7.4-26.8-22.4c0-4.3,2.5-14.6,11.9-19.2c7.9-3.8,16.2-3.3,18.6-3.3c3.8,0,4.9,1.5,4.9,3.3
	c0,2.6-1,8.7-9.1,8.7c-6.8,0-11.8,2.3-10.2,14.1c0.6,4.2,3.3,7.1,8.6,7.1C206.5,375.6,209.8,377.7,209.8,380.3 M480,376
	c6.6,0,8.7-5.9,8.7-10.2c0-6.4-1.1-13.6-8.1-13.6c-6.4,0.2-9.3,4.1-9.3,12.2C471.4,367.4,472,376,480,376z M501.9,366.7
	c0,15.6-12.5,22.8-23,22.8c-15.7,0-19.7-13.8-19.7-24.8c0-17.8,7.7-24.6,22.5-24.6C496.8,340.1,501.9,354.1,501.9,366.7z
	 M558.8,340.1c9.6,0,26.9,0,31.1,2.2c2.1,1.1,1.9,4.9,1.9,7c0,5.8-7.5,4.5-11,5.4c-2.8,0.7-3,1.1-3.3,3.4c-0.7,7.6,0,15.7,0,21.3
	c0,5.2-1.2,6.7-3,7.4c-0.7,0.2-1.6,0.4-3,0.4c-3.7,0-6.5-1.6-7.7-4.3c-2.3-5.6-2.1-21.8-0.9-27.6c-8.9-1.1-11.5-2.2-11.5-7.9
	c0-1.1,0-4.9,0.9-6.3C553.2,339.9,555.5,340.1,558.8,340.1 M435.2,363.4c-0.2-1.7-0.2-4-0.2-6.7c0-3.3-0.2-4,2.3-4
	c3.7,0,6.5,1.9,6.5,5C443.7,361.5,440.3,363.4,435.2,363.4 M436.1,342.4c-11.4,0-15.1,4-15.1,12.3c0,14.8,0,29.8,3,31.8
	c1.2,0.8,4.6,0.8,6.5,0.8c2.1,0,3.2-0.4,3.9-1.2c0.9-1.2,1.6-4.4,1.6-13.1c13,0,20.9-7.1,20.9-15.4
	C457,350.5,450.2,342.4,436.1,342.4 M369.5,340.1c-7.5,0-6.4,10.8-6.4,22.4c0,9-3.1,11-6.2,11c-7.5,0-8-5.8-8-11
	c0-5.4,1.5-20.4-4-20.4c-5.5,0-9.3,3.4-9.3,20.2c0,15,7.5,24,20.1,24.9c11.3,0.9,19.9-4.5,19.9-20.4c0-5.8,0.9-23.1,0-24.7
	C375,340.8,374.8,340.1,369.5,340.1 M232.5,376.7c-2.9,0-4.6,0.2-5.9-0.6c-1.1-0.6-1.3-2.3-1.5-5.7c2,0.2,4.4,0.2,6.6,0.2
	c9.2,0,9.2-2.5,9.2-6.3c0-4-3.3-4-8.1-4c-3.5,0-5.9,0.2-7.7,0.8c0.2-3.6,0.4-7.2,0.9-8.2c4.8,0.2,5.1,0.4,8.1,0.4
	c8.1,0,8.6-3.4,8.6-7.2c0-2.3-2.2-3-4.8-3.2c-5.9-0.4-16.5-2.1-21.7,3c-5.1,4.9-4.2,25.3-3.5,30.8c1.1,9.5,9,10.6,17.6,10.6
	c4.6,0,13.4-0.8,13.4-5.5C243.5,378.2,240.2,376.7,232.5,376.7 M96.9,365.5c1.1-4.6,2.5-8.8,4.5-11.6c0.9,2.5,1.6,6.7,2.5,11.1
	C101.6,365,99.3,365.2,96.9,365.5 M100.4,342.4c-3.6,0-6.9,0.8-9.8,4.2c-4.7,5.5-11.2,27.7-11.2,34.4c0,4.2,2.2,6.3,6.3,6.3
	c3.6,0,8-0.8,8.7-5.7c0.2-1.5,0.4-3.4,0.9-5.3c3.6-0.8,7.2-1,10.7-1c1.1,4.2,2.5,7.8,4,9.7c1.1,1.3,2.7,1.7,3.8,1.7
	c3.6,0,7.2-1.5,8.3-2.5c-0.9-4.4-12.5-38-13-39.3C108.5,343.2,103.8,342.4,100.4,342.4 M261.2,363c0-1,0-1.9,0.2-2.7
	c0.9-5.6,3.6-7.9,6.7-7.9c2.7,0,4.3,1.2,4.3,3.3C272.5,360.2,267.1,361.7,261.2,363 M272.5,368.6c5.4-0.8,11.5-5.4,11.5-13.7
	c0-7.1-6.3-12.5-15.7-12.5c-16.9,0-22.5,9.2-22.5,24.8c0,6.7,2.5,13.7,4.5,16.9c1.6,2.5,3.4,2.7,5.4,2.7c2.2,0,3.8-0.2,4.7-1.7
	c0.7-1.2,0.7-6.9,0.7-12.5c1.6,1.9,7.2,7.5,12.1,11.2c3.6,2.7,5.2,3.5,6.5,3.5c2,0,6.5-2.7,6.5-6c0-1.5-0.9-2.5-2.2-4
	C281.2,374.4,277.4,371.7,272.5,368.6 M393,363.6v-4.4c0-4.4,0.7-7.6,5.2-7.6c2.5,0,5.2,1.7,5.2,5.3
	C403.4,359.6,401.6,361.5,393,363.6 M395.9,340.1c-11.3-0.2-15.4,3.2-15.4,18.6v21.8c0,4.2,0.7,6.8,8.4,6.8c3.6,0,4.3-4,4.3-6.8v-8
	c1.6,2.3,3.8,2.3,9,0.8c7-1.9,14.5-5.3,14.2-15.4C416.7,347.5,409.9,340.3,395.9,340.1 M222.8,331.1c13.4,0,25.2-5.3,25.2-16.4
	c0-1.7-0.7-3.8-1.6-4.5c-1.8-1.3-4.2-1.1-8-0.4c-3.6,0.4-6.2,1.3-12.7,1.3c-9.6,0-16.3-8.1-16.3-16.4c0-10,9.4-12.6,18.7-12.6
	c12.9,0,17-0.2,18.2-4.4c2.9-11.2-7.9-16.3-25.1-16.3c-17.8,0-33.9,13.8-33.9,32.4C187.3,319.6,206.7,331.1,222.8,331.1 M40.9,335.6
	c8.1,0,12-4.5,12-11.7c0-4.3-2-18.8-2-25.1c0-7.9,1.6-13.2,6.3-13.2c-1.4,10.7,1.6,32,15.2,32c15.8,0,7.5-23.9,17-23.9
	c3.4,0,3.8,2.8,3.8,14.5v14.3c0,8.5,1.8,12.1,9.5,12.1c8.8,0,10.9-1.1,11.8-4.3c2.3-8.1,3.2-16.2,3.2-28.1
	c0-22.6-4.3-36.9-21.3-36.9c-9.3,0-16.5,4.9-21.7,10c-4.1-9.6-10.2-13.8-18.6-13.8c-19.5,0-30.6,23.9-30.6,47.1
	C25.5,331.8,36.6,335.6,40.9,335.6 M321.1,342.4c-10,0.3-16.6,6.7-16.2,13.3c0.7,12.3,14.6,13.5,14.9,18c0.1,1.8-1.2,2.8-3.4,2.9
	c-4,0.2-6.6-2.8-8.2-2.7c-1.3,0.1-3.9,5.1-4,7.4c-0.3,2,4.6,6.4,14.8,5.9c9.3-0.5,14.8-6.4,14.3-14.2c-0.6-9.7-14.4-13.1-14.7-17.8
	c-0.1-1.2,1-2,3.7-2.1c4-0.2,6.1,1.1,8.8,0.9c1.3-0.1,2.1-1.5,2-4.2C332.8,345.1,328.4,341.8,321.1,342.4 M154.5,277.4
	c1.2,4,5.3,21.3,5.9,23.8c0,0-8.3,0.2-10.1,0.7c0,0,2.3-17,3.5-22L154.5,277.4z M132.7,330.1c14.3,0.8,14.9-11.8,16.3-12.6
	c2.3-1.4,13.8-0.8,13.8-0.8c3.3,9.1,2.6,14.4,12.4,14.4c4.9,0,9.8-2.6,9.8-9.1c0-11.1-6.1-39.2-12-55.5c-1.1-2-1.8-2.4-3.9-3.3
	c-6.2-1.8-21.1-3.5-30.1,0.8c-2.1,1-2.6,1.5-3.7,3.5c-4.9,11.1-9.8,34.3-10.9,50c-0.5,9.1,0,12.6,6.5,12.6H132.7z"/>
</svg>
