<?xml version="1.0" encoding="utf-8"?>
<!-- Generator: Adobe Illustrator 26.0.3, SVG Export Plug-In . SVG Version: 6.00 Build 0)  -->
<svg version="1.0" id="katman_1" xmlns="http://www.w3.org/2000/svg" xmlns:xlink="http://www.w3.org/1999/xlink" x="0px" y="0px"
	 viewBox="0 0 800 600" style="enable-background:new 0 0 800 600;" xml:space="preserve">
<style type="text/css">
	.st0{fill:#21174B;}
	.st1{fill:#FF3EB5;}
</style>
<g>
	<path class="st0" d="M78.6,273.3H56.9v61.2h21.7v-29.3c0-6.8,0-17.2,9.7-17.2s9.7,10.4,9.7,17.2v29.2h21.7v-29.2
		c0-7.3,0.4-16.7,10.4-16.7c9.2,0,8.9,10.4,8.9,16.7v29.2h21.7v-39c0-14.1-5.4-24.2-20.9-24.2c-8.3,0-16.6,4.1-20.7,11.7
		c-4.4-8.1-12-11.7-20.9-11.7c-7.9,0-14.2,2.9-19.3,9.7h-0.2v-7.7C78.7,273.2,78.6,273.2,78.6,273.3z"/>
	<path class="st0" d="M187.5,295c1.3-6.3,6.6-9.7,12.9-9.7c5.8,0,11.2,3.8,12.3,9.7H187.5z M232.8,305.2c0-20.9-12.3-34-33.5-34
		c-19.9,0-33.9,12.3-33.9,32.7c0,21.1,15.1,32.5,35.4,32.5c7,0,13.9-1.7,19.6-5.1c5.6-3.5,9.9-8.7,11.6-15.9h-20.9
		c-2.3,4.1-5.7,5.6-10.3,5.6c-8.9,0-13.6-4.8-13.6-13.6h45.6V305.2z"/>
	<path class="st0" d="M259.7,273.3H238v61.2h21.7v-31.8c0-7.6,2.5-14.2,11.3-14.2c10.7,0,9.8,10.3,9.8,16.1v29.8h21.7v-37.7
		c0-15-6.6-25.4-23-25.4c-8.5,0-14.5,2.5-19.6,9.9h-0.2V273.3z"/>
	<polygon class="st0" points="335.7,291.1 348,291.1 348,273.3 335.7,273.3 335.7,255 314,255 314,273.3 307,273.3 307,291.1 
		314,291.1 314,334.5 335.7,334.5 	"/>
	<path class="st0" d="M375.4,273.3h-21.7v61.2h21.7V273.3z M364.6,237.7c-6.7,0-12.2,5.5-12.2,12.2c0,6.7,5.5,12.2,12.2,12.2
		s12.2-5.5,12.2-12.2C376.7,243.2,371.3,237.7,364.6,237.7"/>
	<path class="st0" d="M417.3,271.3c-19.7,0-36.8,11.8-36.8,32.7c0,20.9,17.3,32.5,36.8,32.5c19.7,0,36.8-11.8,36.8-32.5
		C454.1,283.1,437,271.3,417.3,271.3 M417.3,290.1c8.8,0,13.9,6.3,13.9,13.8c0,7.7-5.1,13.7-13.9,13.7s-13.9-6-13.9-13.7
		C403.3,296.5,408.5,290.1,417.3,290.1"/>
	<path class="st0" d="M480.8,273.3h-21.7v61.2h21.7v-31.8c0-7.6,2.5-14.2,11.3-14.2c10.7,0,9.8,10.3,9.8,16.1v29.8h21.7v-37.7
		c0-15-6.6-25.4-23-25.4c-8.5,0-14.5,2.5-19.6,9.9h-0.2L480.8,273.3L480.8,273.3z"/>
</g>
<path class="st1" d="M742.4,325.2c-0.7-2-2.2-3.6-4.6-4.1c-2-0.4-4.3,0.3-5.6,1.9c-0.8,1-1.3,2.2-1.8,3.3c-2.7,5.9-8,10.6-13.1,14.5
	c-4.9,3.7-10.3,6.9-16.3,7.8c-18.5,3.6-22.9-12.1-23.3-14.1c0-0.1-0.1-0.2-0.1-0.4c17.4-8.8,37.7-29.7,40.3-49.5
	c2-15.8-12.2-25.4-26.9-17.9c-20,12.2-27.8,36.7-27.2,59.4c-7.3,1.6-12.4-2.9-15.2-9.2c-5.1-10.9-4.5-23.4-6.8-35
	c-0.7-4.1-1.6-8.3-4-11.9c-3-4.5-8.7-6.2-13.9-5.2c-14.6,3.2-23.7,23.8-29.7,36.2c0.1-10.9,0.1-21.8-0.5-32.7
	c-0.3-4.6-0.5-9.3-2.5-13.5c-1.6-4.2-5.6-6.1-9.7-5.8c-2,0.2-3.9,1-5.6,2.2c-13.3,9.6-20.3,29.2-25.5,44.1
	c0.3-14.3,0.5-28.1,0.6-42.4c0-4.1-3.2-6.6-6.5-6.3c-7.2,0.9-5.6,7.5-5.9,12.8c-0.2,27.3-0.9,54.5-2.4,81.7c0,2.8-0.4,5.9,1.2,8.4
	c2.2,3.8,8.1,3.8,10.5,0.1c2.1-3.5,2.4-7.8,3.5-11.7c5.7-22.5,12.5-54.6,27.6-72.9c0.7-0.8,2-0.4,2.1,0.6c1.7,20,0.4,40.2,0.5,60.3
	c-0.4,8.5,8.3,12.6,13.2,5c2.1-3.3,3.1-7,4.6-10.6c3.4-8.6,7.1-17.1,11.4-25.3c2.3-3.9,7.1-12.9,12.2-16.6c2.2-1.6,5.4-0.4,6.1,2.2
	c0.7,2.7,0.9,5.5,1.4,8.1c1.5,9.5,1.8,19.3,5.1,28.4c4.6,13.7,15.1,23.9,30.4,21c2.1,7.3,6.5,14,13.1,17.9c4.8,3.1,10.7,4.8,16.4,5
	c8.1,0.5,15.9-1.8,22.7-6.1c7.1-4.3,13.8-9.8,18.9-16.4c2-3,4.7-5.9,5.4-9.5C742.8,327.7,742.8,326.5,742.4,325.2z M627.3,276.8
	C627.3,276.8,627.4,276.8,627.3,276.8L627.3,276.8C627.4,276.8,627.4,276.8,627.3,276.8z M697,277.1c3.4-1.5,7.4,0.7,8,4.3
	c1.3,7.4-1.2,22.2-30,41.3l0,0C675,322.6,681,284,697,277.1z"/>
</svg>
