<?xml version="1.0" encoding="utf-8"?>
<!-- Generator: Adobe Illustrator 19.0.0, SVG Export Plug-In . SVG Version: 6.00 Build 0)  -->
<svg version="1.1" id="layer" xmlns="http://www.w3.org/2000/svg" xmlns:xlink="http://www.w3.org/1999/xlink" x="0px" y="0px"
	 viewBox="-153 -46 652 652" style="enable-background:new -153 -46 652 652;" xml:space="preserve">
<style type="text/css">
	.st0{fill:#2548AF;}
	.st1{fill:#ED1C24;}
	.st2{fill:#FFFFFF;}
</style>
<rect x="-131.5" y="124.7" class="st0" width="600" height="300"/>
<path class="st1" d="M3.1,204.2l23.8,52.5l31.7-67.5h36.2L119,363.4H72.3l-9.6-71.3l-35.8,71.3L-6,292.1L3.1,204.2z M-51.9,189.2
	L-71,363.4h44.2l19.2-174.2H-51.9z"/>
<path class="st2" d="M128.1,189.2h47.5v23.3h-24.2v9.2h17.9V245h-17.9v9.2h24.2v23.3h-47.5V189.2z M185.2,189.2h54.6l-0.4,22.1H224
	v66.3H201v-66.3h-15.8V189.2z M309,217.5c0-18.8-12.5-28.3-30-28.3h-30.4v88.3h22.9v-36.7h0.4l15.4,36.3h26.3l-17.1-38.3
	C304.1,234.4,308.8,226.3,309,217.5 M271.9,230.9v-22.1c8.8,0,13.8,2.9,13.8,10.8c0,7.9-5.4,10.8-13.8,10.8 M359.4,188.4
	c-24.8-0.5-45.4,19.3-45.8,44.2s19.3,45.4,44.2,45.8c24.8,0.5,45.4-19.3,45.8-44.2v-0.8C403.8,208.7,384,188.6,359.4,188.4
	C359.4,188.4,359.4,188.4,359.4,188.4L359.4,188.4 M359.4,255c-12,0-21.7-9.7-21.7-21.7c0-12,9.7-21.7,21.7-21.7
	c12.1,0,21.9,9.8,21.9,21.9c0,12.1-9.8,21.9-21.9,21.9 M193.1,331.7c4-2.9,6.3-7.6,6.3-12.5c0.7-8.7-5.8-16.4-14.5-17.1
	c-0.9-0.1-1.8-0.1-2.6,0h-40.8v61.3h40.4c5.2,0.3,10.3-1.2,14.6-4.2c3.4-3.1,5.3-7.5,5-12.1C202.1,340.8,198.8,334.6,193.1,331.7
	 M150.6,312.1h32.5c2-0.1,4,0.7,5.4,2.1c2.8,3.1,2.8,7.8,0,10.8c-1.4,1.4-3.4,2.2-5.4,2.1h-32.5V312.1z M181.9,353.8h-31.3v-16.7
	h32.5c5.8,0,8.7,2.5,8.7,8.3c0,5.8-3.3,7.9-10,7.9 M233.1,302.1l-27.5,61.3h9.2l5.8-13.8h34.6l6.7,13.8h9.2l-27.5-61.3H233.1z
	 M226,340l12.5-28.3L251,340H226z M321,363.4L288.5,315v48.3H279v-61.3h11.2l32.5,48.8v-48.8h9.6V363v0.4H321z M403.5,362.5l0.4,0.8
	h-12.1l-24.2-31.7l-11.3,12.9v18.8h-9.6v-61.3h9.6V333l31.7-30.8h13.3l-26.7,23.3L403.5,362.5z"/>
</svg>
