<?xml version="1.0" encoding="utf-8"?>
<!-- Generator: Adobe Illustrator 19.2.1, SVG Export Plug-In . SVG Version: 6.00 Build 0)  -->
<svg version="1.1" xmlns="http://www.w3.org/2000/svg" xmlns:xlink="http://www.w3.org/1999/xlink" x="0px" y="0px"
	 viewBox="0 0 178 51.255" enable-background="new 0 0 178 51.255" xml:space="preserve">
<g id="Layer_3">
</g>
<g id="Layer_1">
	<g>
		<g>
			<g>
				<path fill="#0061A1" d="M1.961,9.663L7.323,8.2c0.399,0.62,0.576,1.153,0.797,2.304C9.671,8.998,11.577,8.2,13.66,8.2
					c1.86,0,3.411,0.62,4.608,1.861c0.311,0.309,0.444,0.487,0.886,1.107C21.236,9.042,23.096,8.2,25.578,8.2
					c1.772,0,3.456,0.532,4.475,1.418c1.286,1.106,1.684,2.437,1.684,5.538v16.13h-5.759V16.309c0-2.703-0.311-3.235-1.861-3.235
					c-1.109,0-2.659,0.753-3.945,1.906v16.306h-5.627V16.531c0-2.837-0.399-3.501-2.039-3.501c-1.108,0-2.614,0.576-3.899,1.728
					v16.529H2.803V15.467C2.803,12.189,2.582,10.769,1.961,9.663z"/>
				<path fill="#0061A1" d="M37.701,9.13l5.848-1.107v14.578c0,2.039,0.133,3.102,0.488,3.722c0.309,0.622,1.196,1.062,2.082,1.062
					c1.462,0,3.235-1.062,3.678-2.17V9.264l5.672-1.196v17.325c0,1.505,0.487,3.056,1.373,4.12l-4.209,2.393
					c-0.753-0.532-1.374-1.285-1.772-2.216c-1.462,1.418-3.589,2.171-5.982,2.171c-3.191,0-5.938-1.505-6.692-3.676
					c-0.354-1.021-0.487-2.216-0.487-4.521V9.13z"/>
				<path fill="#0061A1" d="M60.887,9.663L66.248,8.2c0.399,0.62,0.576,1.153,0.797,2.304c1.552-1.507,3.457-2.304,5.54-2.304
					c1.86,0,3.411,0.62,4.608,1.861c0.311,0.309,0.444,0.487,0.887,1.107C80.162,9.042,82.022,8.2,84.504,8.2
					c1.772,0,3.456,0.532,4.475,1.418c1.286,1.106,1.684,2.437,1.684,5.538v16.13h-5.759V16.309c0-2.703-0.311-3.235-1.861-3.235
					c-1.108,0-2.659,0.753-3.945,1.906v16.306h-5.627V16.531c0-2.837-0.399-3.501-2.039-3.501c-1.108,0-2.614,0.576-3.899,1.728
					v16.529h-5.805V15.467C61.729,12.189,61.507,10.769,60.887,9.663z"/>
				<path fill="#0061A1" d="M112.445,10.105l-1.949,3.99c-2.259-1.153-3.899-1.64-5.582-1.64c-1.729,0-2.882,0.885-2.882,2.216
					c0,1.15,0.754,1.771,2.837,2.302l2.747,0.71c2.79,0.71,3.722,1.551,4.52,2.571c0.842,1.062,1.241,2.347,1.241,3.854
					c0,4.697-3.9,7.889-9.704,7.889c-2.793,0-5.85-0.887-9.172-2.615l2.126-4.342c1.817,1.108,4.964,2.57,7.533,2.57
					c1.685,0,3.013-1.108,3.013-2.57c0-1.551-1.107-2.35-3.499-2.792l-2.658-0.488c-1.508-0.267-3.369-1.329-4.166-2.303
					c-0.798-0.975-1.286-2.615-1.286-4.078c0-4.43,3.501-7.399,8.775-7.399C107.97,7.979,110.364,9.086,112.445,10.105z"/>
				<path fill="#0061A1" d="M117.088,9.529l5.272-1.506c0.531,0.931,0.842,1.905,0.842,2.837c1.373-0.975,1.64-1.153,2.614-1.685
					c1.196-0.62,2.747-0.974,4.076-0.974c2.526,0,4.741,1.329,5.451,3.279c0.31,0.842,0.443,1.817,0.443,3.236v16.572h-5.85V16.531
					c0-2.57-0.443-3.323-1.994-3.323c-1.196,0-2.746,0.797-4.12,2.038v16.04h-5.938V14.847
					C117.884,12.896,117.619,11.036,117.088,9.529z"/>
				<path fill="#0061A1" d="M157.336,25.26l2.306,3.544c-2.615,2.127-5.361,3.146-8.553,3.146c-6.514,0-10.723-4.608-10.723-11.742
					c0-4.078,0.841-6.779,2.836-8.994c1.861-2.084,4.12-3.06,7.134-3.06c2.614,0,5.096,0.887,6.558,2.394
					c2.082,2.127,3.013,5.184,3.013,9.925c0,0.487,0,0.664,0,1.373h-13.117v0.177c0,3.5,1.729,5.495,4.788,5.495
					C153.613,27.519,155.519,26.765,157.336,25.26z M146.879,17.505h6.868v-0.265c0-1.684-0.176-2.569-0.71-3.412
					c-0.574-0.886-1.417-1.329-2.613-1.329c-2.26,0-3.545,1.772-3.545,4.918V17.505z"/>
				<path fill="#0061A1" d="M175.905,8.554l-1.505,3.944h-3.814v11.564c0,2.882,0.534,3.633,2.573,3.633
					c0.531,0,1.062-0.132,2.127-0.442l0.752,3.545c-1.729,0.709-3.28,1.018-4.83,1.018c-3.013,0-5.45-1.329-6.114-3.323
					c-0.355-0.975-0.4-1.42-0.4-3.501V12.498h-2.258V8.643h2.258c0-2.215,0-3.721,0.221-5.406l6.026-1.506
					c-0.219,2.083-0.355,4.518-0.355,6.823H175.905z"/>
			</g>
			<g>
				<path fill="#0061A1" d="M18.541,35.644c0.147,0.635,0.191,1.062,0.191,1.831v1.639c0,0.368-0.015,0.723-0.029,0.811
					c0.724-0.708,1.329-0.987,2.112-0.987c1.756,0,2.848,1.43,2.848,3.734c0,2.362-1.165,3.958-2.922,3.958
					c-0.769,0-1.609-0.428-2.023-0.974c-0.044,0.383-0.075,0.516-0.206,0.797h-1.153c0.163-0.355,0.221-0.842,0.221-1.831v-6.983
					c0-0.785-0.104-1.358-0.295-1.743L18.541,35.644z M18.717,40.944v3.779c0.384,0.503,1.122,0.886,1.816,0.886
					c0.503,0,1.063-0.265,1.328-0.648c0.267-0.399,0.518-1.124,0.518-2.362c0-0.975-0.117-1.552-0.427-1.979
					c-0.282-0.399-0.814-0.635-1.389-0.635c-0.471,0-0.871,0.132-1.328,0.458C18.88,40.694,18.894,40.708,18.717,40.944z"/>
				<path fill="#0061A1" d="M24.891,39.262l1.138-0.384l1.505,4.769c0.207,0.694,0.443,1.829,0.443,1.829h0.029
					c0,0,0.28-0.945,0.458-1.549l1.446-4.813h1.314l-2.525,7.603c-0.266,0.797-0.665,1.655-1.166,2.127
					c-0.296,0.28-0.769,0.531-1.21,0.635l-0.34-0.785c0.309-0.059,0.769-0.354,1.034-0.663c0.251-0.311,0.471-0.829,0.663-1.595
					l-0.472,0.073c-0.088-0.472-0.486-1.904-0.738-2.642L24.891,39.262z"/>
				<path fill="#0061A1" d="M37.918,39.114l1.198-0.207c0.043,0.223,0.072,0.532,0.072,0.93c0,0.045,0,0.104,0,0.192
					c0.606-0.708,1.36-1.078,2.171-1.078c0.754,0,1.477,0.342,1.963,0.915c0.547,0.679,0.813,1.58,0.813,2.896
					c0,1.18-0.177,1.859-0.591,2.538c-0.531,0.857-1.313,1.344-2.272,1.344c-0.754,0-1.506-0.326-2.023-0.858
					c0,0.135,0,3.515,0,3.515l-1.152,0.223v-8.637C38.097,40.074,38.039,39.469,37.918,39.114z M39.249,44.723
					c0.546,0.62,1.181,0.959,1.8,0.959c0.68,0,1.3-0.37,1.55-0.914c0.221-0.474,0.311-1.036,0.311-1.86
					c0-0.886-0.119-1.684-0.34-2.112c-0.235-0.502-0.767-0.811-1.358-0.811c-0.737,0-1.402,0.354-1.963,1.034V44.723z"/>
				<path fill="#0061A1" d="M46.162,39.896c0.974-0.649,2.023-0.989,3.086-0.989c1.018,0,1.728,0.399,2.038,1.152
					c0.133,0.324,0.163,0.575,0.163,1.254c0,0.163,0,0.28,0,0.37l-0.059,2.421c-0.016,0.104-0.016,0.223-0.016,0.34
					c0,0.901,0.133,1.226,0.606,1.462l-0.59,0.826c-0.503-0.162-0.873-0.56-1.005-1.077c-0.709,0.707-1.285,0.989-2.126,0.989
					c-0.93,0-1.388-0.236-1.772-0.591c-0.414-0.383-0.591-1.033-0.591-1.505c0-1.669,1.433-2.645,3.898-2.645
					c0.177,0,0.267,0,0.518,0.016v-0.516c0-0.65-0.031-0.917-0.238-1.152c-0.235-0.265-0.531-0.398-0.987-0.398
					c-0.43,0-0.873,0.088-1.418,0.323c-0.442,0.179-0.591,0.282-0.93,0.547L46.162,39.896z M50.281,42.716
					c-0.25-0.015-0.37-0.031-0.575-0.031c-1.121,0-1.743,0.207-2.111,0.591c-0.28,0.295-0.414,0.664-0.414,1.166
					c0,0.87,0.428,1.342,1.27,1.342c0.753,0,1.446-0.456,1.785-1.15L50.281,42.716z"/>
				<path fill="#0061A1" d="M53.888,39.216l1.153-0.31c0.176,0.386,0.25,0.606,0.25,1.093v0.103
					c0.531-0.751,1.314-1.225,2.067-1.225c0.192,0,0.399,0.073,0.399,0.073l-0.474,1.256c-0.147-0.044-0.191-0.06-0.324-0.06
					c-0.442,0-0.885,0.192-1.226,0.531c-0.339,0.342-0.427,0.563-0.427,1.166v4.608h-1.152V40.84
					C54.154,40,54.095,39.69,53.888,39.216z"/>
				<path fill="#0061A1" d="M63.709,44.961l0.443,0.738c-0.65,0.59-1.536,0.914-2.482,0.914c-2.036,0-3.261-1.476-3.261-3.911
					c0-1.24,0.251-2.052,0.886-2.777c0.59-0.694,1.313-1.033,2.199-1.033c0.798,0,1.505,0.28,1.993,0.811
					c0.635,0.651,0.811,1.344,0.841,3.101v0.163h-4.59v0.176c0,0.694,0.088,1.226,0.339,1.611c0.414,0.634,1.093,0.901,1.831,0.901
					C62.616,45.655,63.193,45.433,63.709,44.961z M59.738,42.096h3.365c-0.015-0.797-0.117-1.284-0.339-1.639
					c-0.251-0.399-0.769-0.65-1.329-0.65C60.387,39.808,59.797,40.575,59.738,42.096z"/>
				<path fill="#0061A1" d="M66.282,39.231l1.121-0.308c0.192,0.412,0.267,0.722,0.267,1.152c0.767-0.769,1.534-1.137,2.316-1.137
					c0.798,0,1.508,0.427,1.803,1.075c0.118,0.267,0.176,0.562,0.176,0.858v5.58H70.8v-4.976c0-0.782-0.045-0.99-0.267-1.225
					c-0.163-0.192-0.472-0.309-0.811-0.309c-0.591,0-1.506,0.472-2.038,1.033v5.478h-1.122v-5.478
					C66.562,39.954,66.533,39.793,66.282,39.231z"/>
				<path fill="#0061A1" d="M77.816,39.084l-0.352,0.901h-1.552v4.725c0,0.811,0.221,1.091,0.945,1.091
					c0.326,0,0.532-0.044,0.738-0.147l0.163,0.738c-0.368,0.192-0.782,0.295-1.3,0.295c-0.383,0-0.678-0.075-0.958-0.206
					c-0.518-0.251-0.71-0.725-0.71-1.462v-5.035h-0.958v-0.901h0.958v-0.089c0-0.368,0.029-0.782,0.104-1.533l0.013-0.193
					l1.197-0.265c0,0-0.148,1.107-0.148,2.082H77.816z"/>
				<path fill="#0061A1" d="M83.976,39.394l-0.427,0.857c-0.65-0.309-1.197-0.531-1.847-0.531c-0.841,0-1.388,0.487-1.388,1.212
					c0,0.264,0.075,0.486,0.207,0.648c0.164,0.206,0.414,0.323,0.855,0.414l0.975,0.207c1.329,0.295,1.964,0.959,1.964,2.051
					c0,1.432-1.122,2.407-2.777,2.407c-0.929,0-1.948-0.28-2.701-0.738l0.443-0.857c0.753,0.458,1.521,0.694,2.333,0.694
					c0.901,0,1.492-0.487,1.492-1.269c0-0.664-0.37-1.034-1.212-1.212l-0.915-0.192c-0.664-0.147-1.049-0.354-1.388-0.738
					c-0.31-0.354-0.472-0.797-0.472-1.285c0-1.329,1.078-2.259,2.613-2.259C82.5,38.803,83.356,39.04,83.976,39.394z"/>
				<path fill="#0061A1" d="M95.144,37.003c-0.28-0.163-0.694-0.339-1.091-0.339c-0.651,0-1.006,0.456-1.006,1.298v1.196h2.039
					l-0.355,0.871h-1.684v6.422h-1.209v-6.422h-0.71v-0.871h0.71v-1.21c0-1.094,0.502-1.565,0.811-1.801
					c0.355-0.264,0.753-0.384,1.3-0.384c0.635,0,1.196,0.148,1.624,0.43L95.144,37.003z"/>
				<path fill="#0061A1" d="M98.838,38.938c1.225,0,2.023,0.56,2.525,1.284c0.458,0.665,0.678,1.535,0.678,2.73
					c0,1.433-0.339,2.334-1.15,3.042c-0.576,0.502-1.182,0.709-2.008,0.709c-1.963,0-3.175-1.492-3.175-3.912
					C95.707,40.399,96.903,38.938,98.838,38.938z M98.822,39.882c-0.648,0-1.238,0.324-1.505,0.795
					c-0.236,0.459-0.355,1.049-0.355,1.922c0,1.033,0.177,1.948,0.459,2.404c0.264,0.443,0.857,0.739,1.49,0.739
					c0.767,0,1.344-0.399,1.595-1.108c0.163-0.456,0.221-0.871,0.221-1.595c0-1.034-0.104-1.728-0.339-2.214
					C100.077,40.176,99.427,39.882,98.822,39.882z"/>
				<path fill="#0061A1" d="M104.171,39.216l1.151-0.31c0.176,0.386,0.251,0.606,0.251,1.093v0.103
					c0.531-0.751,1.313-1.225,2.067-1.225c0.191,0,0.399,0.073,0.399,0.073l-0.472,1.256c-0.147-0.044-0.192-0.06-0.326-0.06
					c-0.443,0-0.886,0.192-1.225,0.531c-0.34,0.342-0.427,0.563-0.427,1.166v4.608h-1.153V40.84
					C104.437,40,104.378,39.69,104.171,39.216z"/>
				<path fill="#0061A1" d="M114.319,39.114l1.197-0.207c0.044,0.223,0.073,0.532,0.073,0.93c0,0.045,0,0.104,0,0.192
					c0.606-0.708,1.358-1.078,2.17-1.078c0.754,0,1.478,0.342,1.964,0.915c0.547,0.679,0.813,1.58,0.813,2.896
					c0,1.18-0.177,1.859-0.591,2.538c-0.531,0.857-1.313,1.344-2.274,1.344c-0.752,0-1.505-0.326-2.023-0.858
					c0,0.135,0,3.515,0,3.515l-1.15,0.223v-8.637C114.498,40.074,114.438,39.469,114.319,39.114z M115.648,44.723
					c0.547,0.62,1.182,0.959,1.801,0.959c0.681,0,1.3-0.37,1.551-0.914c0.221-0.474,0.31-1.036,0.31-1.86
					c0-0.886-0.118-1.684-0.339-2.112c-0.236-0.502-0.769-0.811-1.358-0.811c-0.738,0-1.402,0.354-1.964,1.034V44.723z"/>
				<path fill="#0061A1" d="M122.563,39.896c0.974-0.649,2.022-0.989,3.085-0.989c1.019,0,1.727,0.399,2.038,1.152
					c0.133,0.324,0.163,0.575,0.163,1.254c0,0.163,0,0.28,0,0.37l-0.06,2.421c-0.013,0.104-0.013,0.223-0.013,0.34
					c0,0.901,0.131,1.226,0.604,1.462l-0.591,0.826c-0.502-0.162-0.87-0.56-1.003-1.077c-0.71,0.707-1.285,0.989-2.127,0.989
					c-0.929,0-1.388-0.236-1.769-0.591c-0.414-0.383-0.592-1.033-0.592-1.505c0-1.669,1.433-2.645,3.899-2.645
					c0.176,0,0.264,0,0.516,0.016v-0.516c0-0.65-0.031-0.917-0.236-1.152c-0.237-0.265-0.531-0.398-0.99-0.398
					c-0.427,0-0.871,0.088-1.417,0.323c-0.443,0.179-0.59,0.282-0.93,0.547L122.563,39.896z M126.681,42.716
					c-0.251-0.015-0.368-0.031-0.576-0.031c-1.121,0-1.74,0.207-2.11,0.591c-0.282,0.295-0.414,0.664-0.414,1.166
					c0,0.87,0.428,1.342,1.269,1.342c0.754,0,1.449-0.456,1.788-1.15L126.681,42.716z"/>
				<path fill="#0061A1" d="M130.289,39.216l1.152-0.31c0.176,0.386,0.25,0.606,0.25,1.093v0.103
					c0.532-0.751,1.316-1.225,2.068-1.225c0.192,0,0.398,0.073,0.398,0.073l-0.472,1.256c-0.147-0.044-0.192-0.06-0.324-0.06
					c-0.443,0-0.886,0.192-1.225,0.531c-0.34,0.342-0.428,0.563-0.428,1.166v4.608h-1.152V40.84
					C130.554,40,130.494,39.69,130.289,39.216z"/>
				<path fill="#0061A1" d="M140.108,44.961l0.443,0.738c-0.649,0.59-1.535,0.914-2.481,0.914c-2.036,0-3.261-1.476-3.261-3.911
					c0-1.24,0.249-2.052,0.885-2.777c0.591-0.694,1.314-1.033,2.2-1.033c0.797,0,1.505,0.28,1.994,0.811
					c0.634,0.651,0.811,1.344,0.841,3.101v0.163h-4.591v0.176c0,0.694,0.089,1.226,0.34,1.611c0.412,0.634,1.091,0.901,1.831,0.901
					C139.017,45.655,139.592,45.433,140.108,44.961z M136.137,42.096h3.367c-0.016-0.797-0.119-1.284-0.34-1.639
					c-0.251-0.399-0.767-0.65-1.328-0.65C136.787,39.808,136.197,40.575,136.137,42.096z"/>
				<path fill="#0061A1" d="M142.681,39.231l1.122-0.308c0.192,0.412,0.267,0.722,0.267,1.152c0.767-0.769,1.535-1.137,2.317-1.137
					c0.798,0,1.506,0.427,1.801,1.075c0.119,0.267,0.176,0.562,0.176,0.858v5.58h-1.165v-4.976c0-0.782-0.044-0.99-0.265-1.225
					c-0.163-0.192-0.472-0.309-0.813-0.309c-0.591,0-1.506,0.472-2.038,1.033v5.478h-1.121v-5.478
					C142.962,39.954,142.933,39.793,142.681,39.231z"/>
				<path fill="#0061A1" d="M154.216,39.084l-0.352,0.901h-1.55v4.725c0,0.811,0.219,1.091,0.945,1.091
					c0.323,0,0.531-0.044,0.736-0.147l0.163,0.738c-0.368,0.192-0.782,0.295-1.3,0.295c-0.384,0-0.678-0.075-0.958-0.206
					c-0.518-0.251-0.71-0.725-0.71-1.462v-5.035h-0.96v-0.901h0.96v-0.089c0-0.368,0.029-0.782,0.104-1.533l0.013-0.193l1.196-0.265
					c0,0-0.147,1.107-0.147,2.082H154.216z"/>
				<path fill="#0061A1" d="M160.376,39.394l-0.427,0.857c-0.651-0.309-1.198-0.531-1.847-0.531c-0.841,0-1.388,0.487-1.388,1.212
					c0,0.264,0.072,0.486,0.205,0.648c0.163,0.206,0.414,0.323,0.857,0.414l0.974,0.207c1.329,0.295,1.964,0.959,1.964,2.051
					c0,1.432-1.121,2.407-2.776,2.407c-0.929,0-1.948-0.28-2.701-0.738l0.443-0.857c0.753,0.458,1.521,0.694,2.332,0.694
					c0.899,0,1.489-0.487,1.489-1.269c0-0.664-0.368-1.034-1.209-1.212l-0.915-0.192c-0.664-0.147-1.049-0.354-1.388-0.738
					c-0.31-0.354-0.472-0.797-0.472-1.285c0-1.329,1.078-2.259,2.613-2.259C158.9,38.803,159.757,39.04,160.376,39.394z"/>
			</g>
		</g>
	</g>
</g>
<g id="Layer_2">
</g>
</svg>
