<svg enable-background="new -153 -46 652 652" viewBox="-153 -46 652 652" xmlns="http://www.w3.org/2000/svg"><path d="m447.9 156.6h-558.5c-11.4 0-20.7 9.3-20.7 20.7v96.3h600v-96.3c0-11.3-9.4-20.7-20.8-20.7" fill="#00428d"/><path d="m-131.3 292c0 11.4 9.3 20.7 20.7 20.7h558.5c11.4 0 20.7-9.3 20.7-20.7v-18.3h-600v18.3z" fill="#e50012"/><path d="m421.1 234.2c.1-10.8 2.2-13 5.6-13 4.4 0 4.8 5.3 4.8 13zm22.8 5.5c0-16.9-8.9-24.4-17.6-24.4-6.6 0-19.1 5.2-19.1 25.2 0 23.8 17.4 24.5 19.4 24.5 7.4 0 13-4.4 16.2-8.1l.4-.4-1.8-3.7-.8.6s-4.4 3.2-9 3.2c-8.5 0-10.3-5.9-10.4-16.1h22.7zm-57.4-10.9v23.1c0 1.4-4.2 5.7-6.4 5.7-5.5 0-6.7-8.9-6.7-16.4 0-15.9 3.4-18 6.9-18 3.4-.2 5.9 4.9 6.2 5.6m17.1 30.8c-1.9 0-3.3-2.1-3.3-3.9v-60.2h-.9-19.6v4.1h2.9c1.2 0 3.9 1.1 3.9 3.2v16.7c-1.8-1.8-5-4.2-9.8-4.2-7 0-17.9 6.9-17.9 25.7 0 18.9 10.9 23.9 16.7 23.9 5.4 0 8.7-2 10.8-4.2v2.8h18.1v-3.9zm-47.6-.2c-1.2 0-3.4-1-3.4-3.1v-39.4h-.9-13.1v39.3c0 1.9-2 3.3-3.8 3.3h-.8v4.1h22.9v-4.2zm-35.6-42.4v3.7h.8c1 0 2.4.4 2.9 1.2.2.3.3.7.3 1s0 .5-.1.8c-.6 2.2-4.3 13.2-6.1 18.4-1.4-5.3-4.4-17-4.8-18.6 0-.2-.1-.4-.1-.6 0-.4.1-.8.4-1.2.5-.6 1.5-1 2.9-1h.9v-3.8h-22v3.9h.8c.9 0 2.5.2 2.9 1.4 0 0 1.7 5.6 1.9 6.1-.2.5-4.2 11.1-5.3 14.3-1.6-4.6-5.4-15.3-6.5-18.2-.2-.5-.4-1.2-.4-1.8 0-.4.2-.7.3-1.1.4-.6 1.3-.9 2.2-.9h.9v-3.9h-.9-20v3.7l.5.2c.5.2 1.7.8 2.2 1.6.5 1.1 9.5 25.7 15.4 42l.2.5h4.8s8.1-22.4 9.5-26.4c1.2 4 8.1 26.4 8.1 26.4h4.6l13.9-39.8c1.1-3.1 2.2-4.4 3.6-4.4h.9v-3.5zm-48.2 42.4c-2.7 0-3.2-1.1-3.2-2.7v-26.8c0-7-4.4-14.3-12.6-14.3-5.6 0-9.6 1.9-12.6 5.5v-4.2h-18.4v3.9h2c.1 0 2.5.5 2.5 2.6v32.6c0 2.3-2.1 3.5-4 3.7h-.8v3.8h23.2v-3.9h-.8c-2 0-3.5-1.6-3.5-3.7v-26.8c0-1.4 3.2-5.6 6.5-5.6 2.8 0 4.2 2 4.2 6v27.2c0 1.1-1.9 2.7-3.3 2.7h-.9v4h22.5v-4.1h-.8zm-64.4-17.9c0 17.3-4.3 17.3-6.1 17.3-2.6 0-6.5 0-6.5-17.7 0-18 3.3-19.5 6.3-19.5 3-.1 6.3 2.2 6.3 19.9m-6.2-26.1c-10.1 0-21 9.4-21 24.6 0 19.7 13.9 24.8 21.2 24.8 8.3 0 20.5-7.5 20.5-23.5.1-14.7-8.8-25.9-20.7-25.9m-24.3 44c-1.3 0-3.4-1-3.4-3.1v-39.4h-.9-13.2v39.3c0 1.9-2 3.3-3.8 3.3h-.8v4.1h22.9v-4.2zm-24.7-36.8v-5.7h-8.4v-16.5h-.8-2.6l-.4.6c-2.8 4.4-8.1 12.6-14.3 17.2l-.3.3v4.2h4.7v31.4c0 6.9 5 10.6 10.1 10.6 4.4 0 7.4-.8 10.5-5.1l.1-.2v-4l-1.2.6c-1.2.6-2.8.5-4-.2-1.1-.7-1.7-1.7-1.7-2.8v-30.5h8.3zm-52.5 33.7c-1.4 0-3.9-1.2-3.9-5.7 0-4.4 4-8.8 9.2-10.5v12.7c-1.3 2.4-4.1 3.5-5.3 3.5m21.7.5c-.3.4-.9.3-1.3.1-.7-.2-1.3-.8-1.3-1.5v-27.1c0-7.6-7.6-12.7-18.8-12.7-9.8 0-14.8 3.6-17 5.7l-.2.2v14h3.8l.2-.7c2.6-12.1 9.5-13.3 12.3-13.2 2.4.1 6 2.3 6 5.1v6.7c-16.1 4.5-24 11.3-24 20.8 0 6.5 4.7 10.8 11.6 10.8 4.5 0 8.7-1.7 12.8-5.1.9 2.8 4.1 4.9 8 4.9 3.7 0 6.9-1.8 9.1-5l.2-.2v-4.6zm-64.2-61.3v4.3h3c1.7 0 4.2 1.9 4.2 4.5v29.9c-2.7-3.8-28.1-38.8-28.1-38.8h-.5-19.8v3.9h1.5c.4.5 4.5 5.3 4.9 5.7v50.3c0 3.6-4.5 3.9-5.9 3.9h-.8v4.1h22.8v-4.3h-2.3c-2.4 0-5-2.3-5-3.7v-40.1c2.8 3.8 37.2 50 37.2 50h4.7v-61c0-3.1 1.7-4.5 5.2-4.5h.9v-4.3h-22zm109.2-.9c-4.4 0-8 3.6-8 8s3.5 8 8 8c4.4 0 7.9-3.5 7.9-8 0-4.4-3.5-8-7.9-8m178.6 0c-4.4 0-8 3.6-8 8s3.6 8 8 8 8-3.5 8-8c0-4.4-3.6-8-8-8" fill="#fff"/><path d="m-14.9 273.7c2.9 0 5.8-1.2 8-3.3 2.3-2.2 3.6-5.2 3.6-8.2v-27.6c0-3.3-1.2-6.1-3.5-8.5l-15.5-15.5c-.6-.6-1-1.4-1-2.3v-16.8c0-2.9-1.2-5.6-3.3-7.7-2.1-2-4.8-3.2-7.7-3.2h-12.1c-5.9 0-10.8 4.9-10.8 10.9v.9c0 .6-.5 1.1-1.1 1.1h-1.7c-2.1 0-4.2.8-5.9 2.3-1 .8-1.7 1.8-2.2 2.9-1.1-.1-2.4-.2-3.4-.2-17.1 0-35 13.1-35 35.6 0 19 15.9 27.4 16.8 28 .6.4 1.9 1.4 1.9 3.1v10.4c0 3 1.2 5.8 3.3 7.9 2.1 2 4.9 3.1 7.8 3.1h42.7c2.9 0 5.5-.9 7.4-2.6 2-1.9 3.2-4.6 3.2-7.6v-1.7c0-.6.5-1.1 1.1-1.1h7.4z" fill="#fff"/><g fill="#00428d"><path d="m-10.5 229.9-16.2-16.2c-1-1-1.7-2.4-1.7-3.8v-18.3c0-3.2-2.7-5.8-5.8-5.8h-11.5c-3.2 0-5.7 2.5-5.7 5.7v5.5c0 .7-.5 1.8-1.9 1.8h-6.1c-1.7 0-3.5 1.3-3.7 3.2-.1 1.5-.6 2.7-3.2 2.2h-.1c-.1 0-.1 0-.2 0-1.8-.3-3.6-.5-5.5-.5-16.2 0-29.3 13.1-29.3 29.3 0 9.8 4.8 18.4 12.1 23.8.4.3.9.5 1.4.5.8 0 1.6-.4 2-1.1l16.6-24.8s1.7-2.6 4.9-2.6h19.2c1 0 1.8-.8 1.8-1.8 0-.2 0-.3-.1-.5-1.9-8.1-7.1-15-14.1-19-.6-.3-1-.9-1-1.7 0-1 .8-1.9 1.9-1.9h6.2c2.3 0 4.2-1.9 4.2-4.2v-7.1c0-1.1.9-1.8 1.8-1.8h9.1c.9 0 1.8.8 1.8 1.8v39.4c0 .9.7 1.8 1.8 1.8h16.3c1.2 0 1.8 1 1.8 1.8v26c0 .9-.7 1.8-1.9 1.8h-14.3c-2.4 0-4 2-4 4v7c0 1.1-.9 1.8-1.8 1.8h-15.8v-7.8c0-1.4-1.1-2.6-2.6-2.6-1.4 0-2.6 1.1-2.6 2.6v7.8h-19.3c-.9 0-1.8-.7-1.8-1.8v-11.8c0-1.1.9-1.8 1.8-1.8h22.3c1.1 0 2-1.3 2-1.3l15.4-22.9c.9-1.4-.3-2.8-1.4-2.8h-26.2c-1 0-1.5.7-2 1.5l-15.7 23.4s-1.3 1.8-1.3 4v12.8c0 3.3 2.7 5.9 6.1 5.9h43.8c2 0 4.2-1.5 4.2-4.2v-6.9c0-.8.6-1.8 1.8-1.8h12c3.3 0 6.5-2.9 6.5-6.3v-27.6c.1-2-.8-3.5-2-4.7m-15.6 25.9v-5.3c0-1.4-1.1-2.6-2.6-2.6-1.4 0-2.6 1.1-2.6 2.6v5.3c0 1.4 1.1 2.6 2.6 2.6s2.6-1.2 2.6-2.6"/><path d="m36.1 382.7h-11c-1.3 0-1.8-.7-1.8-1.8v-41.1c0-1.2.5-1.8 1.8-1.8h11.8c7.9 0 14.7 2.6 14.7 10.7 0 5.2-2.8 8.2-7.4 9.8 5.4 1.5 9.1 5 9.1 11.3-.1 9.8-7.3 12.9-17.2 12.9m.9-39h-6.8v12.3h4.1c2.6 0 4.6-.3 6.2-.9 2.1-.7 4.3-2.4 4.3-5.5-.1-4-3.1-5.9-7.8-5.9m5.7 19.5c-1.9-1.1-4.4-1.5-7.2-1.5h-5.4v15.1h5.9c5.3 0 9.9-1 9.9-7.2.1-2-.3-4.6-3.2-6.4m39.4 19.5c1.2 0 1.7-.6 1.7-1.9v-28.8c0-1.2-.5-1.9-1.9-1.9h-2.6c-1.5 0-1.9.7-1.9 1.9v16.8c0 2.4-.3 3.3-1.5 4.7-1.9 2.2-4.2 4-6.9 4-2.6 0-3.5-1.9-3.5-5v-20.5c0-1.2-.5-1.9-1.7-1.9h-2.9c-1.2 0-1.8.6-1.8 1.8v22.2c0 5.7 2.6 9.2 8.4 9.2 4.5 0 8-2.6 10.5-5.6v3.3c0 1.1.4 1.8 1.9 1.8h2.2m14.2-38.4c-2.1 0-3.8-1.7-3.8-3.8s1.7-3.8 3.8-3.8 3.8 1.7 3.8 3.8-1.7 3.8-3.8 3.8m1.3 38.3h-2.6c-1.5 0-1.9-.7-1.9-1.9v-28.8c0-1.3.6-1.9 1.8-1.9h2.8c1.5 0 1.9.7 1.9 1.8v28.9c0 1.3-.4 1.9-2 1.9m15.8 0c1.6 0 2-.7 2-1.9v-41.9c0-1.1-.5-1.8-1.9-1.8h-2.8c-1.2 0-1.8.6-1.8 1.9v42c0 1.2.5 1.9 1.9 1.9h2.6m34.2-.2h-2.3c-1.5 0-2-.7-2-1.9v-2.3c-1.8 2.6-4.6 4.7-8.7 4.7-9.1 0-12.1-8.8-12.1-16.7 0-9.2 4-17 12.1-17 4.2 0 6.8 2.2 8.3 4.2v-14.9c0-1.3.5-1.9 2-1.9h2.5c1.4 0 1.9.7 1.9 1.9v41.9c.1 1.4-.5 2-1.7 2m-11.8-27.5c-5.8 0-6.6 7.1-6.6 11.4 0 5.3 1.5 11 6.3 11 5 0 7.4-5 7.4-10.8 0-7.3-2.8-11.6-7.1-11.6m26-10.8c-2.1 0-3.8-1.7-3.8-3.8s1.7-3.8 3.8-3.8 3.8 1.7 3.8 3.8-1.7 3.8-3.8 3.8m1.3 38.3h-2.5c-1.5 0-1.9-.7-1.9-1.9v-28.8c0-1.3.6-1.9 1.8-1.9h2.8c1.5 0 1.9.7 1.9 1.8v28.9c-.1 1.3-.5 1.9-2.1 1.9m34.3 0c1.1 0 1.7-.6 1.7-1.8v-22.1c0-5.7-2.5-9.2-8.3-9.2-4.5 0-8 2.6-10.5 5.6v-3.3c0-1.1-.5-1.8-1.9-1.8h-2.4c-1.2 0-1.8.6-1.8 1.9v28.9c0 1.2.5 1.9 1.9 1.9h2.5c1.6 0 2-.7 2-1.9v-16.9c0-2.4.3-3.3 1.5-4.7 1.9-2.2 4.2-4 6.9-4 2.5 0 3.5 1.9 3.5 5v20.5c0 1.2.5 1.9 1.7 1.9zm22.4 12.3c-4.9 0-8.9-1.3-11.1-2.4-.5-.2-.9-.5-.9-1.1 0-.2.1-.5.2-.7l1.3-2.9c.4-.8 1.1-1 2.1-.5 2 1.1 4.8 2.2 8.2 2.2 4.9 0 6.4-2.8 6.4-6.8v-4.8c-1.4 1.9-4.4 4.3-7.8 4.3-8.4 0-12.1-7.5-12.1-16.5 0-7.5 3.4-16.1 12.3-16.1 3.9 0 6.9 2.5 8.1 4.7v-2.1c0-1.4.4-2.1 1.9-2.1h2.4c1.2 0 1.7.7 1.7 2v30.3c-.1 7.6-2.8 12.5-12.7 12.5m-.7-39.8c-4.4 0-6.4 4.6-6.4 10.5 0 7.3 2.4 10.9 6.4 10.9 4.3 0 6.8-5 6.8-10.5 0-6.6-2.8-10.9-6.8-10.9m49.9 28.5c8.2 0 14.1-4.6 14.1-13.3 0-8-4.8-10.7-11.5-13.5-6.8-2.8-9.1-4.4-9.1-8.3 0-3.5 2.8-5.5 6.9-5.5 3.4 0 6.1 1.2 9 2.8.8.4 1.5.2 1.9-.6l1.6-3.3c.1-.3.3-.6.3-.9s-.2-.7-.8-.9c-3-1.7-6.4-3.2-12-3.2-7.4 0-13.6 4.3-13.6 12.3 0 7.4 4.4 10.4 13 14 5.1 2.1 7.6 3.9 7.6 7.9 0 3.7-2.7 6.3-7.6 6.3-3.6 0-7.5-2.3-9.5-3.4-.9-.5-1.6-.5-2.1.3l-1.7 3.4c-.2.3-.3.7-.3 1 0 .4.4.7.9 1 3.1 1.9 7.5 3.9 12.9 3.9m32.3-.4c-9.7 0-13.6-8.5-13.6-16.9 0-8.3 4-16.8 13.6-16.8 9.9 0 13.7 8.7 13.7 16.8 0 8.2-3.8 16.9-13.7 16.9m0-28c-5.5 0-6.8 6-6.8 11.2 0 5.1 1.4 11.1 6.8 11.1 5.6 0 6.9-6 6.9-11.1 0-5.2-1.3-11.2-6.9-11.2m42.8 25.2c.7-.4.9-.8.9-1.1 0-.5-.1-.7-.3-1.1l-1.4-2.6c-.4-.7-1.1-.7-2.1-.2-1.7.9-4.2 2.1-7 2.1-5.6 0-7.4-5.8-7.4-11.1 0-5.2 1.6-11.2 7.5-11.2 2.2 0 4.3 1 6.1 1.9.7.3 1.5.3 1.9-.5l1.3-2.4c.2-.4.3-.9.3-1.2 0-.5-.3-.8-.8-1.1-2.4-1.4-5.8-2.4-9.3-2.4-9 0-13.8 7.3-13.8 16.4 0 12.5 6.5 17.2 13.6 17.2 4.5.1 8.1-1.2 10.5-2.7m10.6-36.1c-2.1 0-3.8-1.7-3.8-3.8s1.7-3.8 3.8-3.8 3.8 1.7 3.8 3.8-1.7 3.8-3.8 3.8m1.2 38.3h-2.6c-1.5 0-1.9-.7-1.9-1.9v-28.8c0-1.3.6-1.9 1.8-1.9h2.8c1.5 0 1.9.7 1.9 1.8v28.9c.1 1.3-.4 1.9-2 1.9m33.7-14.9h-17.6v.5c.1 4.1 1.5 9.5 7.2 9.5 3 0 5.6-1.2 6.8-1.9 1.1-.5 1.9-.7 2.4.1l1.4 2.6c.2.4.3.8.3 1.1 0 .4-.3.7-.9 1.1-2.4 1.5-6.3 2.7-10.2 2.7-10.3 0-13.9-8.3-13.9-16.6 0-8.4 3.7-17.1 13.6-17.1 8.5 0 12.3 6.9 12.3 16.5.2.8-.2 1.5-1.4 1.5m-10.9-12.8c-4.2 0-6.2 3.4-6.5 7.9h12.3c-.1-4.1-1.5-7.9-5.8-7.9m35.3 27.4c.5-.2.8-.4.8-.7 0-.2-.1-.5-.2-.9l-.7-2.9c-.3-.9-.7-1.1-1.5-.8-.7.3-1.9.7-3 .7-2.3 0-2.8-1.4-2.8-4.2v-18h5.2c1 0 1.5-.6 1.5-1.5v-2.6c0-.9-.6-1.5-1.5-1.5h-5.2v-8.5c0-1.1-.4-1.8-1.9-1.8h-2.8c-1.2 0-1.8.6-1.8 1.9v8.5h-3.5c-.9 0-1.5.5-1.5 1.5v2.6c0 .9.5 1.5 1.5 1.5h3.5v18.7c0 6.6 3 8.9 7.8 8.9 2.1 0 4.7-.4 6.1-.9m30-30.3c.1-.4.3-1 .3-1.3 0-.4-.4-.7-1.1-.7h-3.8c-.9 0-1.3.4-1.6 1.3l-7.1 22.6-7.1-22.6c-.3-.9-.7-1.3-1.6-1.3h-4.2c-.6 0-1.1.3-1.1.7 0 .3.1.8.2 1.1l10.4 30.8-.1.3c-1.3 3.7-2.3 6.5-5 6.5-1 0-2.2-.3-3-.5-.5-.1-.9.1-1.1.6l-.9 3c-.1.2-.2.6-.1.9 0 .4.2.6.7.7.8.3 2.4.7 4.1.7 6.8 0 9.1-4.1 11.4-11.1z"/></g></svg>