<?xml version="1.0" encoding="utf-8"?>
<!-- Generator: Adobe Illustrator 19.2.1, SVG Export Plug-In . SVG Version: 6.00 Build 0)  -->
<svg version="1.1" id="layer" xmlns="http://www.w3.org/2000/svg" xmlns:xlink="http://www.w3.org/1999/xlink" x="0px" y="0px"
	 viewBox="0 0 652 652" style="enable-background:new 0 0 652 652;" xml:space="preserve">
<style type="text/css">
	.st0{fill:#0000FF;}
</style>
<path class="st0" d="M383.1,302.8c-4.2-24.4-26.5-33.3-46.7-33.3c-27.6,0-47.7,16.6-47.7,39.3c0.2,15.4,10.9,26,32.7,32.3l1.7,0.6
	c22.6,7.3,31.1,10,31.1,19.3c0,3.1-1.2,6.2-3.6,8.3c-3.6,3.1-8.3,4.8-13.1,4.7c-1.7,0-16.7-0.4-18.1-14.6h-33.1v0.2
	c2.1,27.4,27.1,39.7,50.8,39.7c15.2,0,29.3-5,38.5-13.7c7.8-7.1,12-17.3,11.7-27.8c-0.2-26.6-23.6-32.5-44.3-37.7
	c-14.7-3.9-21-8.1-21.2-14.1c0-5.3,4.5-11,14.3-11c9.1,0,12.8,3.8,14.1,8.1H383.1z M21.5,395.9v-91.4l33.7-32.2h50l33.7,32.2v91.4
	h-33.7v-91.4h-50v91.4H21.5z M485.5,395.9h-40l-33.1-32.1v-60.9h-20v-30.4h20v-30.1h33.1v30.1h40v30.4h-40v60.9h40V395.9z
	 M493.2,334.4c0-37.4,25.1-64,58.2-64c14-0.3,27.3,5.6,36.4,16.2l0.5-0.3v-13.9h33.1v123.5h-31.6v-14.7l-0.5-0.2
	c-8.6,11.1-21,17.2-37.2,17.2C518.3,398.1,493.2,372.6,493.2,334.4L493.2,334.4z M589.9,334.6c0-20-13.6-34.6-31.4-34.6
	c-17.7,0-31.6,13.4-31.6,34.6c0,19.8,12.9,33.7,31.6,33.7C575.5,368.3,589.9,354.9,589.9,334.6L589.9,334.6z M244.4,318.6h-58.1
	c3.2-13.5,15.3-22.9,29.2-22.7C228.4,295.9,241.4,303.4,244.4,318.6L244.4,318.6z M277.6,342.6c1.1-5.9,1.2-11.9,0.5-17.9
	c-3.9-33.9-31.4-55.3-63.3-55.3c-36.3,0-63.6,27.9-63.6,64.6c0,36.7,27.2,64.5,64.6,64.5c27,0,51.3-14.4,59.7-39.3h-34.6
	c-5.2,7.8-14.5,12-24.9,12c-17.9,0-29.9-11.9-31.8-28.7L277.6,342.6z M277.6,342.6"/>
</svg>
