<?xml version="1.0" encoding="utf-8"?>
<!-- Generator: Adobe Illustrator 19.2.1, SVG Export Plug-In . SVG Version: 6.00 Build 0)  -->
<svg version="1.1" id="layer" xmlns="http://www.w3.org/2000/svg" xmlns:xlink="http://www.w3.org/1999/xlink" x="0px" y="0px"
	 viewBox="0 0 652 652" style="enable-background:new 0 0 652 652;" xml:space="preserve">
<path d="M258.7,295.6c0.9,0,1.6,0.7,1.6,1.6c0,0.2-0.1,0.4-0.2,0.6l-19.2,47.7c-0.2,0.6-0.9,1-1.5,1c-0.7,0-1.3-0.4-1.5-1L220,301.4
	l-17.7,44.1c-0.2,0.6-0.9,1-1.5,1c-0.6,0-1.3-0.3-1.5-0.9l-19.2-47.8c-0.1-0.2-0.2-0.3-0.2-0.6c0-0.9,0.7-1.6,1.6-1.6
	c0.6,0,1.3,0.4,1.5,1l17.7,44.1l17.9-44.1c0.2-0.6,0.9-1,1.5-1c0.6,0,1.2,0.4,1.5,1c5.1,12.5,12.6,31.2,17.8,44.1l17.8-44.1
	C257.5,296,258.1,295.6,258.7,295.6 M70.7,295.6c-0.9,0-1.6,0.7-1.6,1.6v43.8l-44.8-44.8c-0.4-0.4-0.8-0.6-1.3-0.6
	c-0.9,0-1.6,0.7-1.6,1.6v47.7c0,0.9,0.7,1.6,1.6,1.6c0.9,0,1.6-0.7,1.6-1.6v-43.8l44.8,44.8c0.3,0.3,0.7,0.6,1.3,0.6
	c0.9,0,1.6-0.7,1.6-1.6v-47.7C72.3,296.4,71.6,295.6,70.7,295.6 M150.2,298.8c0.9,0,1.6-0.7,1.6-1.6c0-0.9-0.7-1.6-1.6-1.6h-39.7
	c-0.9,0-1.6,0.7-1.6,1.6v47.7c0,0.9,0.7,1.6,1.6,1.6h39.7c0.9,0,1.6-0.7,1.6-1.6c0-0.9-0.7-1.6-1.6-1.6H112v-20.7h30.2
	c0.9,0,1.6-0.7,1.6-1.6c0-0.9-0.7-1.6-1.6-1.6H112v-20.7H150.2z M511.6,343.5c12.4,0,22.3-10,22.3-22.3c0-12.4-10-22.3-22.3-22.3
	c-12.4,0-22.3,10-22.3,22.3C489.3,333.5,499.3,343.5,511.6,343.5 M511.6,295.6c14.1,0,25.5,11.4,25.5,25.5
	c0,14.1-11.4,25.5-25.5,25.5c-14.1,0-25.5-11.4-25.5-25.5C486.1,307,497.5,295.6,511.6,295.6 M620.8,343.8l-27.4-26.1l27.4-19.2
	c0.7-0.5,0.9-1.5,0.4-2.2c-0.5-0.7-1.5-0.9-2.2-0.4l-45.3,31.7v-30.3c0-0.9-0.7-1.6-1.6-1.6c-0.9,0-1.6,0.7-1.6,1.6v47.8
	c0,0.9,0.7,1.6,1.6,1.6c0.9,0,1.5-0.9,1.5-1.6v-13.5l17.1-12l27.9,26.5c0.3,0.3,0.7,0.6,1.3,0.6c0.9,0,1.6-0.7,1.6-1.6
	C621.5,344.6,621.2,344.1,620.8,343.8 M429.6,343.5c12.4,0,22.3-10,22.3-22.3c0-12.4-10-22.3-22.3-22.3c-12.4,0-22.3,10-22.3,22.3
	C407.3,333.5,417.3,343.5,429.6,343.5 M429.6,295.6c14.1,0,25.5,11.4,25.5,25.5c0,14.1-11.4,25.5-25.5,25.5
	c-14.1,0-25.5-11.4-25.5-25.5C404.1,307,415.5,295.6,429.6,295.6 M378.3,343.5H340v-46.2c0-0.9-0.7-1.6-1.6-1.6
	c-0.9,0-1.6,0.7-1.6,1.6v47.8c0,0.9,0.7,1.6,1.6,1.6h39.8c0.9,0,1.6-0.7,1.6-1.6C379.9,344.2,379.1,343.5,378.3,343.5"/>
</svg>
