<?xml version="1.0" encoding="utf-8"?>
<!-- Generator: Adobe Illustrator 19.0.0, SVG Export Plug-In . SVG Version: 6.00 Build 0)  -->
<svg version="1.1" id="layer" xmlns="http://www.w3.org/2000/svg" xmlns:xlink="http://www.w3.org/1999/xlink" x="0px" y="0px"
	 viewBox="-153 -46 652 652" style="enable-background:new -153 -46 652 652;" xml:space="preserve">
<style type="text/css">
	.st0{fill:#6B86C2;}
	.st1{fill:#1A1A16;}
</style>
<g id="Page-1">
	<g id="news-uk" transform="translate(0.000000, -1.000000)">
		<path id="Shape" class="st0" d="M369.1,301.7c0,5.9-0.1,12.7-2.6,18.2c-4.6,10.1-14.9,14.6-25.5,14.6c-9,0-18.4-3.4-23.6-11.1
			c-4.3-6.4-4.4-14.2-4.4-21.7v-58.2H304v61.3c0,23.7,13.3,37.1,37.2,37.1c23.2,0,37.1-14.1,37.1-37.1v-61.3h-9.1V301.7z"/>
		<polygon id="Shape_1_" class="st0" points="426.4,287.3 470.8,243.5 459.1,243.5 416,287.9 463.4,340.5 475.4,340.5 		"/>
		<rect id="Rectangle-path" x="406.7" y="243.5" class="st0" width="8.7" height="96.9"/>
		<path id="Shape_2_" class="st1" d="M233,273.5c-9.8,0.7-21.7,4-26.1,13.9c-3.7,8.1-0.8,16.8,6.9,26.4c4.9,6,9.4,11.7,10.7,13.1
			c-3.5,0.7-11.2,0.5-18.9-0.9c0,0-0.1,0-0.1,0c-1.8-0.3-3.5-0.7-5.2-1.2c-4.4-1.4-5.6-3.1-5.6-3.1l-0.6,0.5v0l0.6-0.4
			c-2.9,0.4-5.4,2.5-7.1,4.7c-1.7,2.3-3.5,6.6-2,8.8c1.3,1.8,3.9,2.8,8.8,2.9c10.9,0.5,31.2,3.4,35.4,3.9c5.8,0.6,9.7-4.2,10.9-6.9
			c1.5-3.7,0-7.8-2-10c-9.7-11.2-23.2-23.4-18.3-33.6c2.2-4.7,13.1-3.8,16.7-2.7c7.7,2.3,11.5-0.5,13.2-5.6
			C251.3,279.9,249.3,272.3,233,273.5"/>
		<path id="Shape_3_" class="st1" d="M15.7,228.2c1-2.7,0.1-6-1.6-7.3c-5.6-4.2-10.7-1.9-14.5,2.3c-4.5,4.9-10.3,15.5-12.7,19.5
			C-35.6,279.1-52.8,318-52.8,318s-6-18.1-6.8-32.5c-0.8-13.6-1.4-26.5-2-32.9c-0.2-2.5-1.3-6.5-5.7-8c-3.4-1.1-8.4-1.6-11.9-0.3
			c-0.3,4.4-0.5,6.4-2.3,11.6c-1.8,5.1-13.4,27.7-15.4,31.3c-10.1,18-23.4,40.4-24.2,41.8c-2.7,5-6.5,11.9,0,14.3
			c6.5,2.4,12.1,1.1,14.9-3c0.5-0.8,1.3-2.3,1.3-2.3s-1.9-1.5,2.2-10.9c1.2-2.5,2.6-5.4,4.2-8.6c0.3-0.6,0.6-1.2,1-1.8
			c0.4-0.7,0.8-1.5,1.1-2.3c6.6-13.1,15.5-30,23.4-44.8c0,9.1,0.6,18.1,1.9,27.1c1.8,15.1,5.5,21.5,6.9,33.6
			c-0.3,8.1,0.5,9.6,6.5,11.2c5.5,1.5,8.8,0,10.9-5.1c8-20.3,31.1-66.8,50.7-92C5.7,241.7,13.5,234.1,15.7,228.2"/>
		<path id="Shape_4_" class="st1" d="M198.1,312c3.9-2.2,5.4-6.6,2.3-10.3s-9.2-3.4-11.9-1.7c-2.3,1.4-4.9,2.8-12.8,3.2
			c-7.4,0.4-10.4-2.8-15-2.8c-5.2,0-7.3,3.7-13.8,11.7c-3.3,4.1-10.7,14.1-14.1,14.1c-2.9,0-4-8.1-4-18.9c0-4.9-2.2-8.9-7.7-8.5
			c-4.6,0.3-5.4,6.3-7.8,9.2c-7.2,8.4-13.1,16.7-16,16.7c-3.6,0-5.1-8.1-5.1-14.2c0,0,1.1-9.7-7.7-11.4c-3.8-0.7-7.8,1.4-7.8,1.4
			c0.3,0.7,0.5,1.5,0.4,2.3c-1.1,4.1-8.8,9.9-8.8,9.9c-8.2,6-24.5,17-39.3,17.8c-17.2,0.9-20.2-9.1-20.8-13.1
			c14.8-5.4,24.7-11.7,31.1-16.6c6.8-5.3,11.3-11.1,10.9-16.8c-0.5-7.7-7.5-10.5-13.1-10.5c-12,0-31.8,5.2-41.4,31.4
			c-2.1,0.7-6.9,0.7-9.5,0c-3.5-0.9-3.4-2.4-3.4-2.4c-3.2,0.8-4.6,2.4-5.8,5.2c-1.8,4.5,0.6,8.4,4.3,10.4c2.7,1.5,6.9,2.4,12.9,1.7
			c0.8,8,6.1,23.5,34.3,22.3c22.4-0.9,48.6-19.8,50.9-21.2c1,4.6,4.1,21.2,13.7,21.2c11.4,0,23.2-17.7,23.2-17.7s3,17.7,14.5,17.7
			c9.6,0,21.6-15.4,24.6-19c2.5-3,7.3-8.6,10-8.6c2.6-0.5,7.7,4,22.4,1C188.2,315.3,194.9,313.8,198.1,312 M34.1,286.3
			c1.4,1.4-1.6,4.5-4.1,6.1c-7.1,4.6-14.2,7.3-19.3,9.1C16.2,290.3,32.2,283.6,34.1,286.3"/>
	</g>
</g>
</svg>
