<svg height="86.651863pt" viewBox="0 0 225 86.651862" width="225pt" xmlns="http://www.w3.org/2000/svg"><g fill="#303c42" stroke-width="2.09668"><path d="m203.98404 24.93083c7.48582 0 13.45645 6.22452 13.45645 13.71032 0 7.39572-5.97063 13.71033-13.45645 13.71033-7.48579 0-13.44823-6.31461-13.44823-13.71033 0-7.4858 5.96244-13.71032 13.44823-13.71032m0-7.2319c-11.76925 0-21.02412 9.08288-21.02412 20.94222 0 11.85116 9.25487 20.93405 21.02412 20.93405 11.76928 0 21.01595-9.08289 21.01595-20.93405 0-11.85934-9.24667-20.94222-21.01595-20.94222"/><path d="m120.04312 18.87012v4.49639h-.27026c-3.07133-3.44805-8.05912-5.66758-13.25167-5.66758-11.777446 0-21.024146 9.08288-21.024146 20.94222 0 11.85116 9.2467 20.93405 21.024126 20.93405 5.19257 0 10.18036-2.29325 13.25169-5.66759h.27026v4.39811h7.55952v-39.4356zm-13.32539 33.47317c-7.477596 0-13.448226-6.30642-13.448226-13.70214 0-7.4858 5.97063-13.71032 13.448226-13.71032 7.494 0 13.45643 6.22452 13.45643 13.71032 0 7.39572-5.96243 13.70214-13.45643 13.70214"/><path d="m168.65989 0v23.36651h-.27846c-3.05493-3.44805-8.05092-5.66758-13.24347-5.66758-11.76927 0-21.01595 9.08288-21.01595 20.94222 0 11.85116 9.24668 20.93405 21.01595 20.93405 5.19255 0 10.18854-2.29325 13.24347-5.66759h.27846v4.39811h7.56771v-58.30572zm-13.30899 52.34329c-7.4858 0-13.45643-6.30642-13.45643-13.70214 0-7.4858 5.97061-13.71032 13.45643-13.71032 7.4858 0 13.46461 6.22452 13.46461 13.71032 0 7.39572-5.97881 13.70214-13.46461 13.70214"/><path d="m78.633694 48.03526c-2.45704 2.6618-5.91329 4.35717-9.78724 4.35717-7.4858 0-13.44824-6.30642-13.44824-13.69394 0-7.49399 5.96244-13.71852 13.44824-13.71852 3.88215 0 7.34657 1.68718 9.78724 4.34898l3.66101-6.87974c-3.62004-2.95664-8.28025-4.70114-13.44823-4.70114-11.77745 0-21.01595 9.08288-21.01595 20.95042 0 11.85115 9.2385 20.92585 21.01595 20.92585 5.16798 0 9.82819-1.7445 13.44823-4.70115zm0 0"/><path d="m21.007754 24.93083c7.50218 0 13.46461 6.22452 13.46461 13.71032 0 7.39572-5.96243 13.71033-13.46461 13.71033-7.46942 0-13.44823-6.31461-13.44823-13.71033 0-7.4858 5.97881-13.71032 13.44823-13.71032m0-7.2319c-11.76925 0-21.007754 9.08288-21.007754 20.94222 0 11.85116 9.238504 20.93405 21.007754 20.93405 11.76926 0 21.02413-9.08289 21.02413-20.93405 0-11.85934-9.25487-20.94222-21.02413-20.94222"/><path d="m70.394404 78.33066c0-1.28586.18011-2.44886.54873-3.47263.36857-1.03196.88454-1.90012 1.54795-2.62085.65522-.71254 1.43327-1.26948 2.3342-1.64622.89272-.38494 1.88372-.5815 2.95663-.5815 1.11386 0 2.03936.21294 2.77647.63064.7453.40951 1.35137.86816 1.82641 1.35137l-1.15483 1.30224c-.4095-.42589-.87632-.77807-1.4005-1.06472-.53236-.28666-1.20395-.42589-2.02298-.42589-.819 0-1.54793.14742-2.20315.45046-.64701.30304-1.20395.72892-1.6626 1.29404s-.81083 1.24491-1.06472 2.03935c-.25388.80264-.37675 1.69537-.37675 2.69456 0 1.00739.11469 1.92469.35218 2.72733.23751.80263.58149 1.4988 1.03197 2.07211.44227.56512.99919 1.00739 1.6626 1.31861.65521.31123 1.42507.45865 2.28505.45865.57331 0 1.11386-.0819 1.62983-.25389.50779-.17199.93369-.40132 1.2613-.69617v-4.18517h-3.40711v-1.68717h5.26628v6.74869c-.52417.54055-1.21216.99101-2.07213 1.335-.85178.35217-1.8182.53236-2.89931.53236-1.05652 0-2.03116-.18837-2.90751-.56512-.88453-.37675-1.63803-.9173-2.27685-1.62985-.63883-.70435-1.13025-1.5807-1.49061-2.61266-.36038-1.04015-.54055-2.21134-.54055-3.51357"/><path d="m90.894364 77.91296h2.69457c1.25308 0 2.21132-.2539 2.88293-.76988.67159-.51598 1.00737-1.29404 1.00737-2.33419 0-1.05653-.33578-1.80183-1.00737-2.22772-.67161-.42589-1.62985-.63884-2.88293-.63884h-2.69457zm6.77326 8.44405-3.85758-6.78145h-2.91568v6.78145h-2.03116v-16.05271h5.01237c.81902 0 1.57251.0819 2.26869.23752.68796.15561 1.28585.40951 1.78545.76987.49959.36037.88452.81902 1.163 1.39233.27846.57331.40951 1.26947.40951 2.10487 0 1.25309-.31943 2.26048-.97465 3.00579-.65521.75349-1.52336 1.26947-2.62085 1.53975l4.06232 7.00258zm0 0"/><path d="m111.44346 84.85821c.72073 0 1.36775-.14742 1.94926-.45865.57332-.31122 1.07292-.75349 1.49062-1.33499.41768-.5815.7371-1.26948.96642-2.0803.22933-.80264.344-1.71994.344-2.72732 0-.99101-.11469-1.89193-.344-2.69457-.22932-.79444-.54874-1.47423-.96642-2.02296-.4177-.55694-.9173-.98282-1.49062-1.28586-.58151-.30304-1.22853-.45865-1.94926-.45865-.71254 0-1.36775.15562-1.94106.45865-.5815.30304-1.08112.72892-1.4988 1.28586-.40952.54873-.73713 1.22852-.96644 2.02296-.22114.80264-.34398 1.70356-.34398 2.69457 0 1.00738.12286 1.92468.34398 2.72732.22931.81082.55692 1.4988.96644 2.0803.41768.5815.9173 1.02377 1.4988 1.33499.57331.31123 1.22852.45865 1.94106.45865m0 1.79365c-1.00739 0-1.93287-.19657-2.77647-.5897-.84357-.39312-1.56431-.95005-2.1622-1.67898-.60606-.72073-1.07291-1.60527-1.40869-2.63723-.33581-1.04015-.4996-2.20315-.4996-3.489 0-1.28586.16375-2.44067.4996-3.46444.33578-1.01558.80263-1.87555 1.40869-2.58809.59789-.71255 1.31863-1.25309 2.1622-1.62984.8436-.36856 1.76908-.56512 2.77647-.56512s1.94106.19656 2.77647.5815c.84357.37674 1.56431.92549 2.17857 1.63803.61427.70435 1.08111 1.57251 1.4169 2.58809.3358 1.02377.50779 2.17039.50779 3.43987 0 1.28585-.17193 2.44885-.50779 3.489-.33579 1.03196-.80263 1.9165-1.4169 2.63723-.61426.72893-1.335 1.28586-2.17857 1.67898-.83541.39313-1.76908.5897-2.77647.5897"/><path d="m124.13821 70.3043h2.03116v9.46782c0 .96644.0983 1.76908.29483 2.42429.19646.65521.45865 1.17119.79445 1.56432.33581.39313.72894.67159 1.18759.84359.45864.17199.94185.26208 1.46602.26208.54056 0 1.04016-.0901 1.49061-.26208.45865-.17199.85997-.45046 1.20395-.84359.34399-.39313.61427-.90911.80263-1.56432.19646-.65521.29486-1.45785.29486-2.42429v-9.46782h1.95744v9.41868c0 1.29405-.1474 2.37515-.44227 3.25969-.29484.87634-.69616 1.58888-1.20394 2.13763-.51599.54874-1.12206.93367-1.82642 1.17119-.70435.23751-1.45784.36037-2.27686.36037-.81081 0-1.57251-.12285-2.28505-.36037s-1.31862-.62245-1.8346-1.17119c-.51597-.54875-.91729-1.26129-1.21213-2.13763-.29485-.88454-.44227-1.96564-.44227-3.25969zm0 0"/><path d="m147.11159 78.33066c1.40052 0 2.44067-.27028 3.12045-.79445.67159-.53236 1.01559-1.36776 1.01559-2.50619 0-1.163-.344-1.96564-1.03196-2.4079-.67979-.45046-1.71993-.67979-3.10408-.67979h-2.64542v6.38833zm-4.67658-8.02636h4.92229c.88453 0 1.68716.0819 2.41609.24571.73711.16381 1.35957.42589 1.87555.79444.51599.36856.91729.85178 1.19575 1.45785.28666.60607.4341 1.34319.4341 2.22772 0 .84359-.1474 1.5807-.4341 2.20315-.27846.61427-.68796 1.13025-1.20393 1.53976-.52417.4095-1.14663.71254-1.87556.91729-.72074.20477-1.52337.30304-2.4079.30304h-2.89113v6.36375h-2.03116zm0 0"/></g></svg>