<svg width="2381" height="276" viewBox="0 0 2381 276" fill="none" xmlns="http://www.w3.org/2000/svg">
<path d="M1085.8 74.3002C1085.8 74.3002 1085.7 74.3002 1085.8 74.3002C1071.2 74.3002 1057.3 80.5002 1047.7 91.2002C1043.5 96.0002 1040.3 101.5 1038.1 107.9C1035.9 101.5 1032.7 96.0002 1028.5 91.2002C1018.9 80.5002 1005.1 74.3002 990.5 74.3002C975.9 74.3002 962 80.5002 952.4 91.2002C949.6 94.4002 947.2 97.9002 945.3 101.8C943.5 90.6002 939.5 81.6002 933 74.2002L927.3 79.1002C935.3 88.3002 939 100.1 939 116.5V190V207H946.3V133.4C946.3 117.1 950 105.2 958 96.0002C965.9 87.1002 978.2 81.5002 990.3 81.5002C1002.4 81.5002 1014.7 87.1002 1022.6 96.0002C1030 104.5 1033.8 115.3 1034.3 129.8C1034.3 131 1034.2 132.1 1034.2 133.3V207H1034.3H1041.5H1041.6V133.4C1041.6 132.2 1041.6 131 1041.5 129.8C1042 115.3 1045.8 104.5 1053.2 96.0002C1061.1 87.1002 1073.4 81.5002 1085.5 81.5002C1097.6 81.5002 1109.9 87.1002 1117.8 96.0002C1125.8 105.2 1129.5 117 1129.5 133.4V207H1136.9V133.4C1136.9 114.9 1132.7 101.5 1123.5 91.2002C1114.3 80.4002 1100.4 74.3002 1085.8 74.3002Z" fill="#1B0739"/>
<path d="M2051.2 76C2033.2 76 2016.6 82.9 2004.6 95.4C1992.8 107.7 1986.3 124.2 1986.3 142.1C1986.3 159.9 1992.8 176.5 2004.6 188.8C2016.6 201.3 2033.2 208.2 2051.2 208.2C2074.8 208.2 2093.9 196.6 2104.1 176.1V205.6H2111.8V143V142.6C2111.8 142.4 2111.8 142.3 2111.8 142.1C2111.8 103.1 2086.9 76 2051.2 76ZM2051.2 200.9C2019.1 200.9 1994 175 1994 141.9C1994 108.8 2019.1 82.9 2051.2 82.9C2082.4 82.9 2104.1 107.2 2104.1 141.9C2104.1 176.7 2082.3 200.9 2051.2 200.9Z" fill="#1B0739"/>
<path d="M70.4 78.5C31.2 78.5 0.0999756 106.4 0.0999756 146.3C0.0999756 184.2 30.5 214.1 69.7 214.1C112.9 214.1 140.7 183.3 140.7 145.4C140.7 107.4 109.6 78.5 70.4 78.5ZM70.4 188.4C46.9 188.4 30.5 169.5 30.5 146.2C30.5 122.9 45.9 104 70.4 104C95.4 104 110.3 122.9 110.3 146.2C110.2 169.5 93.6 188.4 70.4 188.4Z" fill="#1B0739"/>
<path d="M411.3 78.5C372.1 78.5 341 106.4 341 146.3C341 184.2 371.4 214.1 410.6 214.1C453.8 214.1 481.6 183.3 481.6 145.4C481.6 107.4 450.5 78.5 411.3 78.5ZM411.2 188.4C387.7 188.4 371.3 169.5 371.3 146.2C371.3 122.9 386.7 104 411.2 104C436.2 104 451.1 122.9 451.1 146.2C451.1 169.5 434.5 188.4 411.2 188.4Z" fill="#1B0739"/>
<path d="M857.2 135L818.9 129.6C818.9 129.6 803.2 127.4 804.3 115.1C804.3 115.1 803.7 98.1995 839.4 100.5C868.4 102.1 880.8 113.5 880.8 113.5C884.6 112.2 907.5 90.1995 861 80.4995C861 80.4995 839.9 75.2995 810 80.5995C810 80.5995 776.2 85.3995 775.5 117C775.5 117 769.9 154.4 826.6 158C826.6 158 834.2 158.8 842.9 159.9C857 161.7 865.1 164.2 866.5 175.1C866.5 175.1 871.2 196.8 818.3 189.5C818.3 189.5 765.2 185.4 761.4 129.9V84.8995C761.4 84.8995 734.9 74.7995 732.5 93.5995C732.5 107 732.4 154.9 732.4 154.9C732.4 177.1 717.4 187.4 699 187.4C680.5 187.4 665.6 176.7 665.6 154.9V84.8995C665.6 84.8995 639.1 74.7995 636.7 93.5995C636.7 105.6 636.7 148.7 636.7 157.4C636.7 193.8 662.2 214.1 698.5 214.1C728.9 214.1 747.2 201.9 756.3 183.7C756.3 183.7 780.9 217.6 846.2 213.8C846.2 213.8 894 213.5 896.9 173.4C896.9 173.3 902.4 141.3 857.2 135Z" fill="#1B0739"/>
<path d="M297.7 50.4004H268.5V80.6004H212C159.7 84.3004 147.8 132.9 149.1 147C148.4 168.3 163.3 214 221 214C228.6 213.9 235.6 213.2 241.9 212V186.1C236.4 187.1 229.7 187.7 221.6 187.9C194.7 188.6 179.4 166.5 179.5 147C179.5 124.4 198 105.9 221.6 106.1H268.3L268.4 170C268.4 170 265 224.2 333.5 212.8V187C295.5 195.2 297.6 171.3 297.6 171.3V106.1H333.5V80.6004H297.6V50.4004H297.7Z" fill="#1B0739"/>
<path d="M559.2 78.5003C513.9 79.5003 491.9 109.5 490.2 146.3V261.6C490.2 261.6 516.7 271.7 519.1 252.9C519.1 239.5 519.2 194.1 519.2 194.1C529.2 207 543.7 212.8 558.6 213.6C600.2 215.4 628.4 185.5 628.201 145.3C627.9 107.4 599.2 77.6003 559.2 78.5003ZM558.4 188.5C535.2 188.5 518.9 169.6 518.9 146.3C518.9 123 534.1 104.1 558.4 104.1C583.2 104.1 597.9 123 597.9 146.3C597.9 169.7 581.5 188.5 558.4 188.5Z" fill="#1B0739"/>
<path d="M1224.2 206.7H1224.4C1242.4 206.7 1259 199.8 1271 187.3C1282.8 175 1289.4 158.4 1289.4 140.6C1289.4 122.8 1282.9 106.2 1271 93.9C1259 81.4 1242.4 74.5 1224.4 74.5H1224.2C1206.2 74.5 1189.6 81.4 1177.6 93.9C1165.8 106.2 1159.2 122.7 1159.2 140.6C1159.2 158.4 1165.7 175 1177.6 187.3C1189.6 199.8 1206.1 206.7 1224.2 206.7ZM1224.2 81.6H1224.4C1256.5 81.6 1281.7 107.5 1281.7 140.6C1281.7 173.7 1256.5 199.6 1224.4 199.6H1224.2C1192.1 199.6 1166.9 173.7 1166.9 140.6C1166.9 107.5 1192 81.6 1224.2 81.6Z" fill="#1B0739"/>
<path d="M1904.3 75.9004H1904.1C1886.1 75.9004 1869.5 82.8004 1857.5 95.3004C1845.7 107.6 1839.1 124.1 1839.1 142C1839.1 159.8 1845.6 176.4 1857.5 188.7C1869.5 201.2 1886.1 208.1 1904.1 208.1H1904.3C1922.3 208.1 1938.9 201.2 1950.9 188.7C1962.7 176.4 1969.3 159.8 1969.3 142C1969.3 124.2 1962.8 107.6 1950.9 95.3004C1938.9 82.8004 1922.4 75.9004 1904.3 75.9004ZM1904.3 200.9H1904.1C1872 200.9 1846.8 175 1846.8 141.9C1846.8 108.8 1872 82.9004 1904.1 82.9004H1904.3C1936.4 82.9004 1961.6 108.8 1961.6 141.9C1961.6 175 1936.5 200.9 1904.3 200.9Z" fill="#1B0739"/>
<path d="M2366.7 92.3C2356.3 81.6 2341.3 75.4 2325.4 75.4C2309.5 75.4 2294.5 81.5 2284.1 92.3C2281.6 95 2279.4 97.7 2277.6 100.8V0H2269.6V208H2276.5H2277.5V134.5C2277.5 118.2 2281.6 106.3 2290.2 97.2C2298.7 88.3 2312.2 82.7 2325.2 82.7C2338.3 82.7 2351.7 88.2 2360.2 97.2C2368.9 106.4 2372.9 118.2 2372.9 134.5V208H2380.9V134.5C2381.2 116 2376.6 102.6 2366.7 92.3Z" fill="#1B0739"/>
<path d="M1400.2 96.0998C1408.8 105.3 1412.8 117.2 1412.8 133.6V207.5H1420.7V133.6C1420.7 115.1 1416.2 101.6 1406.4 91.1998C1396.2 80.3998 1381.4 74.2998 1365.7 74.2998C1350.1 74.2998 1335.2 80.4998 1325 91.1998C1315.3 101.6 1310.7 115.1 1310.7 133.6V207.5H1318.6V133.6C1318.6 117.2 1322.6 105.3 1331.2 96.0998C1339.6 87.0998 1352.8 81.5998 1365.7 81.4998C1378.6 81.5998 1391.8 87.1998 1400.2 96.0998Z" fill="#1B0739"/>
<path d="M1816.1 180.8C1804.8 193.9 1789.2 200.9 1770.9 200.9C1754 200.9 1739.7 194.9 1729.6 183.6C1720.1 172.9 1714.9 158 1714.9 141.5V139.1L1715.6 132C1719.7 102 1739.9 82.6 1767.2 82.6C1781.3 82.6 1793.7 87.7 1803.2 97.4C1806.7 101 1809.7 105.1 1812.1 109.7L1818.7 105.7C1816.3 101.4 1813.5 97.4 1810.2 93.8C1799.2 81.8 1784.3 75.5 1767.3 75.5C1732.5 75.5 1707.3 103.2 1707.3 141.5C1707.3 180.7 1733.5 208 1771 208C1791.5 208 1809.1 200.4 1821.7 186.1L1822.3 185.4L1816.9 180L1816.1 180.8Z" fill="#1B0739"/>
<path d="M2243.1 180.9C2231.8 194 2216.2 200.9 2198 200.9C2181.1 200.9 2166.9 194.9 2156.8 183.6C2147.3 173 2142.1 158 2142.1 141.6V139.2L2142.8 132.1C2146.9 102.1 2167 82.8002 2194.3 82.8002C2208.3 82.8002 2220.8 87.9002 2230.2 97.6002C2233.7 101.2 2236.7 105.3 2239 109.8L2245.6 105.9C2243.2 101.6 2240.4 97.6002 2237.1 94.0002C2226.1 82.0002 2211.3 75.7002 2194.3 75.7002C2159.6 75.7002 2134.4 103.4 2134.4 141.5C2134.4 180.6 2160.5 207.9 2197.9 207.9C2218.4 207.9 2235.9 200.3 2248.5 186.1L2249.1 185.4L2243.7 180L2243.1 180.9Z" fill="#1B0739"/>
<path d="M1566.2 138V137C1565.6 119.7 1559.5 103.9 1549 92.5C1537.9 80.4 1522.9 74 1505.8 74C1470.8 74 1445.3 102 1445.3 140.5C1445.3 180 1471.7 207.5 1509.5 207.5C1530.2 207.5 1547.9 199.9 1560.6 185.4L1561.2 184.7L1555.8 179.3L1555.1 180.1C1543.7 193.3 1528 200.3 1509.5 200.3C1492.5 200.3 1478.1 194.3 1467.9 182.8C1458.3 172.1 1453 157 1453 140.4V138H1566.2ZM1505.7 81.1C1519.9 81.1 1532.4 86.3 1541.9 96.1C1550.6 105.1 1556.1 117.4 1557.5 130.9H1453.6C1457.8 100.6 1478.1 81.1 1505.7 81.1Z" fill="#1B0739"/>
<path d="M1639.4 180.3L1583.2 74.2002H1574.8L1635.1 189.3L1594.7 275.1H1603.4L1698.2 74.2002H1689.6L1639.4 180.3Z" fill="#1B0739"/>
</svg>
