<?xml version="1.0" encoding="utf-8"?>
<!-- Generator: Adobe Illustrator 19.2.1, SVG Export Plug-In . SVG Version: 6.00 Build 0)  -->
<svg version="1.1" id="layer" xmlns="http://www.w3.org/2000/svg" xmlns:xlink="http://www.w3.org/1999/xlink" x="0px" y="0px"
	 viewBox="0 0 652 652" style="enable-background:new 0 0 652 652;" xml:space="preserve">
<style type="text/css">
	.st0{fill:#004C05;}
	.st1{fill:#06C22A;}
</style>
<g>
	<path class="st0" d="M346.5,346.8c0-41.3,34.7-71.3,75.5-65.6c12.2,1.4,23,5.2,32.8,12.7c7.5,6.1,9.4,15.5,3.8,23
		c-5.2,7-15.5,8.9-23.4,3.3c-4.2-3.3-8.9-6.1-14.1-7.5c-19.2-4.7-36.6,8-38.9,27.7c-1.4,11.3,0.5,21.6,8,30
		c10.3,12.2,27.7,14.1,42.2,5.6c1.9-1.4,3.8-2.8,5.6-3.8c7-4.7,15.9-3.8,21.1,2.3c5.2,6.6,4.7,15.5-1.9,21.6
		c-9.8,8.9-21.1,14.1-34.2,15.5c-27.7,3.3-50.6-5.2-66.6-29.1C349.4,371.6,346.1,359.4,346.5,346.8z"/>
	<path class="st0" d="M325,231c-6.1,3.8-7,8.9-7,14.1c0,11.3,0,23,0,34.2c0,2.8,1.4,3.3,3.8,3.3c4.7,0,9.4,0,13.6,0.5
		c8.4,0.9,13.6,8,13.1,16.4s-6.6,14.1-15.5,14.1c-4.2,0-8.4,0-12.2,0c-2.3,0-3.3,0.5-3.3,3.3c0,17.3,0,35.2,0,52.5
		c0,8,4.2,10.8,13.6,10.3c8-0.5,14.1,3.8,15.9,10.8c2.3,7-0.9,14.5-7.5,17.3c-13.6,5.6-28.1,6.1-41.7,0.5
		c-12.7-5.6-16.4-17.3-16.9-29.5c-0.5-20.2-0.5-39.8,0-60c0-3.3-0.5-4.7-4.2-5.2c-7-0.5-12.2-7.5-12.2-15s5.2-14.1,12.2-15
		c3.8-0.5,4.7-1.9,4.7-5.6c0-6.1-0.5-12.7,0.5-18.8c2.3-14.5,13.1-22,26.3-26.2C313.3,231.5,318,230.1,325,231z"/>
	<path class="st0" d="M151.1,291.5c-4.2-26.3-24.4-44.5-52-46.9c-19.2-1.4-38.4-0.5-57.7-0.5c-13.6,0-21.1,7-21.1,21.1
		c0,21.1,0,41.7,0,62.8s0,42.2,0,63.3c0,4.7,0.9,8.9,3.8,13.1c4.7,6.1,13.1,8.9,20.6,6.6s12.2-8.9,12.7-17.8c0-9.4,0.5-18.8,0-28.1
		c0-3.8,0.9-4.7,4.7-4.7c13.6,0,27.7,0.9,41.2-1.9C137,351.9,156.7,325.2,151.1,291.5z M90.6,327.1c-10.3,0.5-20.6,0-30.5,0.5
		c-2.3,0-2.8-1.4-2.3-3.3c0-7.5,0-14.5,0-22c0-7,0-14.5,0-21.6c0-2.3,0.5-3.8,3.3-3.8c9.8,0,20.2-0.5,30,0.5
		c15.5,0.9,23.9,10.3,23.9,24.8C114.5,316.3,105.1,326.2,90.6,327.1z"/>
	<path class="st0" d="M264,372.6c0-15.9,0.9-31.9-0.9-47.8c-1.9-22.5-15.9-37.5-37.5-41.7c-19.2-3.8-38.4-2.3-57.2,4.2
		c-8.9,3.3-13.1,11.3-10.3,19.2s10.8,11.7,19.7,8.9c9.4-2.8,19.2-3.8,29.1-3.3c15,0.9,23.9,10.8,22,24.4c-1.4-0.5-2.8-0.9-4.2-1.4
		c-17.3-4.7-35.2-5.6-52,0.5c-15.5,5.6-24.4,17.8-24.8,34.2c-0.5,17.3,6.6,30.9,21.6,37c20.2,8,39.4,6.6,56.7-8
		c0.9-0.5,1.4-1.9,3.3-1.9c0,3.8,0,7.5,0,11.3c0,2.3,0.5,3.3,3.3,3.3c9.4,0,18.8-0.5,28.6,0c3.3,0,3.8-1.4,3.8-4.2
		C264,396.5,264,384.7,264,372.6z M228.9,370.7c-3.3,10.8-11.7,14.5-22,15.9c-1.9,0.5-3.3,0-4.2,0c-3.3,0-6.1,0-8.4-0.9
		c-7.5-2.3-11.3-6.6-11.7-13.1c-0.5-7.5,2.8-13.1,10.3-16.4c8.4-3.3,17.3-3.3,26.3-1.4c0.5,0,1.4,0.5,1.9,0.5
		C229.8,358,231.7,360.8,228.9,370.7z"/>
</g>
<path class="st1" d="M618,378.2c-5.2,3.3-8,8-11.7,12.7c2.3-8.4,7-15.9,14.1-23.4c-13.6,7.5-20.6,19.2-25.8,41.7
	c-1.4-17.3,8-30.5,18.3-43.1c-14.1,8.4-21.6,21.6-26.3,36.6c0.5-14.1,6.1-25.8,16.9-35.2c-18.3,8-24.4,23.9-27.2,42.2
	c0-18.3,7.5-32.8,22-45c-5.2,0.9-8,4.7-11.7,7l0,0c-7.5,9.4-14.1,19.7-17.8,32.3c-2.8-6.6-4.7-12.7-8-17.8c-1.9-2.3-3.3-5.2-5.2-7.5
	c-0.5-0.5-0.9-0.9-1.4-1.4l0,0l-4.2-5.6l0,0c-3.8-2.3-5.2-6.1-9.4-6.6c5.2,6.6,9.8,13.1,14.1,19.7c4.2,7,6.6,14.5,7.5,23
	c0,0.9,0.9,2.3-0.9,2.3c-1.4,0-1.4-0.9-1.4-1.9c-0.5-1.4-0.5-2.8-0.9-4.2c-2.8-11.7-7-22.5-15.9-31.4c-1.9-1.9-4.2-4.2-7.5-4.7
	c8.4,10.8,14.5,23,15.9,36.6c-4.7-7.5-9.4-15-17.3-19.7c6.1,6.1,9.8,13.6,12.2,21.6c0.9,3.7,0.5,4.7-3.3,4.2c-1.4,0-5.2-0.9-3.3,2.8
	c24.8,0,50.2,0,75,0c0.5-2.8-0.5-4.2-3.3-4.2c-5.2,0-5.6-0.5-4.2-5.6C608.1,394.6,611.9,385.7,618,378.2z"/>
<path class="st0" d="M585.6,325.7c0-12.2-2.8-23.4-11.3-32.3c-15.9-16.9-44.5-16.9-61.9-0.5c-1.9,1.9-4.2,4.2-6.6,7
	c0-15.5,0-30,0-45c0-8.4-2.3-17.3,5.6-23.9c-12.2,0-22.5,2.8-31.4,10.8c-7,6.1-10.3,13.6-10.3,23c0,49.2,0,98.4,0,147.7
	c12.2,0,24.4,0,36.6,0c0-10.3,0-20.6,0-30.9c0-15,0-29.5,0-44.5c0-11.7,6.1-20.2,15.5-22.5c14.5-3.3,24.8,3.3,27.7,18.8v38.4
	l4.2,5.6l0,0c0.5,0.5,0.9,0.9,1.4,1.4c2.3,2.3,3.8,4.7,5.2,7.5c3.3,5.2,5.2,11.3,8,17.8c3.3-12.7,9.8-23,17.8-32.3
	C585.6,356.2,586.1,341.2,585.6,325.7z"/>
</svg>
