<?xml version="1.0" encoding="utf-8"?>
<!-- Generator: Adobe Illustrator 19.0.0, SVG Export Plug-In . SVG Version: 6.00 Build 0)  -->
<svg version="1.1" id="layer" xmlns="http://www.w3.org/2000/svg" xmlns:xlink="http://www.w3.org/1999/xlink" x="0px" y="0px"
	 viewBox="-153 -46 652 652" style="enable-background:new -153 -46 652 652;" xml:space="preserve">
<style type="text/css">
	.st0{fill:#0095DC;}
</style>
<path class="st0" d="M-60,235.5c-22.5,0-40.7,18.2-40.7,40.8c0,22.5,18.2,40.8,40.7,40.8h30.3v20.2H-60c-33.6,0-60.8-27.3-60.8-61
	s27.2-61,60.8-61c33.6,0,60.8,27.3,60.8,61v30.3h-20.1v-30.4C-19.3,253.7-37.5,235.5-60,235.5 M-29.7,306.6H-60
	c-16.7,0-30.3-13.6-30.3-30.3c0-16.8,13.5-30.3,30.3-30.3c16.7,0,30.3,13.6,30.3,30.3V306.6z M-19.3,317h30.6v-40.6
	c0-39.4-31.9-71.4-71.3-71.4c-39.4,0-71.3,32-71.3,71.4c0,39.4,31.9,71.4,71.3,71.4h0.2h40.5V317z"/>
<path d="M366.5,237.2h10.3V317h-10.3V237.2z M366.5,224h10.3v-10.4h-10.3V224z M245.7,282.5H186c2.6,14.3,14.9,25.1,29.8,25.1
	c11,0,20.6-5.8,25.9-14.6v-0.2h11.7c-6.1,14.7-20.7,25.1-37.5,25.1c-22.4,0-40.6-18.2-40.6-40.7c0-22.5,18.2-40.8,40.6-40.8
	c22.5,0,40.7,18.2,40.7,40.8c0,1.9-0.2,3.7-0.4,5.4H245.7z M245.6,272.1c-2.3-14.3-14.8-25.3-29.8-25.3c-15,0-27.4,10.9-29.9,25.3
	H245.6z M309.4,236.4c22.4,0,40.6,18.2,40.6,40.6v70.7h-10.3v-43.5c-7.5,8.3-18.3,13.6-30.3,13.6c-22.5,0-40.6-18.2-40.6-40.8
	C268.7,254.7,286.9,236.4,309.4,236.4 M309.4,307.6c16.7,0,30.3-13.6,30.3-30.4c0-16.7-13.6-30.4-30.3-30.4
	c-16.7,0-30.3,13.6-30.3,30.4C279.1,293.9,292.7,307.6,309.4,307.6 M174.4,236.4c-22.5,0-40.6,18.2-40.6,40.8V317h10.3v-40
	c0-16.8,13.6-30.4,30.3-30.4h0.2v-10.4C174.6,236.4,174.5,236.4,174.4,236.4 M468.7,317v-43.1c0-20.8-16.9-37.7-37.7-37.7
	c-20.8,0-37.7,16.9-37.7,37.7V317h10.3v-43.1c0-15.1,12.3-27.4,27.4-27.4c15.1,0,27.4,12.3,27.4,27.4V317H468.7z M41.6,277
	c0.1-22.4,18.3-40.6,40.6-40.6c22.5,0,40.6,18.2,40.6,40.8c0,22.5-18.2,40.8-40.6,40.8c-12,0-22.8-5.3-30.3-13.6v43.5H41.6V277
	 M52,277.2c0,16.8,13.6,30.4,30.3,30.4c16.7,0,30.3-13.6,30.3-30.4S99,246.8,82.3,246.8C65.6,246.8,52,260.4,52,277.2"/>
</svg>
