<?xml version="1.0" encoding="utf-8"?>
<!-- Generator: Adobe Illustrator 19.0.0, SVG Export Plug-In . SVG Version: 6.00 Build 0)  -->
<svg version="1.1" id="layer" xmlns="http://www.w3.org/2000/svg" xmlns:xlink="http://www.w3.org/1999/xlink" x="0px" y="0px"
	 viewBox="-153 -46 652 652" style="enable-background:new -153 -46 652 652;" xml:space="preserve">
<style type="text/css">
	.st0{fill:#003D69;}
	.st1{fill:#F5EA00;}
	.st2{fill:#95C94E;}
	.st3{fill:#16B0D1;}
	.st4{fill:#9AD1E3;}
	.st5{fill:#007098;}
	.st6{fill:#69BA96;}
	.st7{fill:#1DB0D0;}
	.st8{fill:#F8F298;}
	.st9{fill:#697F6A;}
	.st10{fill:#F4EA00;}
	.st11{fill:#C6D937;}
</style>
<path class="st0" d="M37.9,238.5h16.4c4.7,0,8.4,1.4,10.8,3.8c1.8,1.9,2.9,4.5,2.9,7.5v0.1c0,6.3-4.3,10-10.3,11.1l11.7,15.5h-5.3
	l-11-14.8H42.2v14.8h-4.3V238.5 M53.9,257.9c5.7,0,9.8-2.9,9.8-7.8v-0.1c0-4.7-3.6-7.5-9.7-7.5H42.2v15.4H53.9z"/>
<path class="st0" d="M74.4,257.6v-0.1c0-10.5,7.9-19.7,19.5-19.7s19.3,9.1,19.3,19.6v0.1c0,10.5-7.9,19.7-19.5,19.7
	S74.4,268.1,74.4,257.6 M108.8,257.6v-0.1c0-8.6-6.3-15.7-15-15.7s-14.9,7-14.9,15.6v0.1c0,8.6,6.3,15.7,15,15.7
	S108.8,266.2,108.8,257.6"/>
<polyline class="st0" points="129.8,261.4 114,238.5 119.2,238.5 132.1,257.5 145,238.5 150,238.5 134.2,261.4 134.2,276.5 
	129.8,276.5 129.8,261.4 "/>
<path class="st0" d="M163.8,238.2h4l17.3,38.3h-4.6l-4.5-10.1h-20.7l-4.5,10.1h-4.4L163.8,238.2 M174.4,262.6l-8.6-19.4l-8.7,19.4
	H174.4z"/>
<polyline class="st0" points="191.6,238.5 195.9,238.5 195.9,272.5 217.3,272.5 217.3,276.5 191.6,276.5 191.6,238.5 "/>
<path class="st0" d="M236.8,271l2.7-3.1c4,3.6,7.8,5.4,13,5.4c5.1,0,8.5-2.7,8.5-6.5v-0.1c0-3.5-1.9-5.5-9.9-7.2
	c-8.7-1.9-12.8-4.7-12.8-11v-0.1c0-6,5.3-10.4,12.5-10.4c5.5,0,9.5,1.6,13.4,4.7l-2.5,3.3c-3.5-2.9-7.1-4.1-11-4.1
	c-4.9,0-8.1,2.7-8.1,6.1v0.1c0,3.6,2,5.6,10.3,7.4c8.5,1.8,12.4,4.9,12.4,10.8v0.1c0,6.5-5.4,10.8-13,10.8
	C246.4,277,241.4,275,236.8,271"/>
<path class="st0" d="M271.4,257.6v-0.1c0-10.5,7.9-19.7,19.5-19.7c11.6,0,19.3,9.1,19.3,19.6v0.1c0,10.5-7.9,19.7-19.4,19.7
	C279.1,277.2,271.4,268.1,271.4,257.6 M305.7,257.6v-0.1c0-8.6-6.3-15.7-15-15.7c-8.7,0-14.9,7-14.9,15.6v0.1
	c0,8.6,6.3,15.7,15,15.7C299.5,273.2,305.7,266.2,305.7,257.6"/>
<path class="st0" d="M316.4,257.6v-0.1c0-10.8,8-19.7,19.2-19.7c6.9,0,11,2.4,14.8,6l-2.9,3.2c-3.2-3-6.8-5.2-12-5.2
	c-8.4,0-14.7,6.9-14.7,15.6v0.1c0,8.8,6.4,15.7,14.7,15.7c5.2,0,8.6-2,12.3-5.5l2.8,2.8c-4,4-8.3,6.7-15.2,6.7
	C324.5,277.2,316.4,268.5,316.4,257.6"/>
<rect x="357.6" y="238.5" class="st0" width="4.3" height="38"/>
<polyline class="st0" points="371.8,238.5 399.3,238.5 399.3,242.4 376.1,242.4 376.1,255.4 396.9,255.4 396.9,259.3 376.1,259.3 
	376.1,272.6 399.6,272.6 399.6,276.5 371.8,276.5 371.8,238.5 "/>
<polyline class="st0" points="417.2,242.4 404.4,242.4 404.4,238.5 434.3,238.5 434.3,242.4 421.5,242.4 421.5,276.5 417.2,276.5 
	417.2,242.4 "/>
<g>
	<polyline class="st0" points="453.2,261.4 437.3,238.5 442.6,238.5 455.4,257.5 468.3,238.5 473.3,238.5 457.5,261.4 457.5,276.5 
		453.2,276.5 453.2,261.4 	"/>
</g>
<path class="st0" d="M36.2,311.9v-0.1c0-10.5,7.9-19.7,19.5-19.7S75,301.2,75,311.7v0.1c0,10.5-7.9,19.7-19.5,19.7
	S36.2,322.4,36.2,311.9 M70.6,311.9v-0.1c0-8.6-6.3-15.7-15-15.7s-14.9,7-14.9,15.6v0.1c0,8.6,6.3,15.7,15,15.7
	S70.6,320.6,70.6,311.9"/>
<polyline class="st0" points="85.2,292.8 112.5,292.8 112.5,296.8 89.5,296.8 89.5,310.4 110.1,310.4 110.1,314.3 89.5,314.3 
	89.5,330.8 85.2,330.8 85.2,292.8 "/>
<path class="st0" d="M154.1,331.5c-11.2,0-19.5-8.6-19.5-19.6v-0.1c0-10.8,8.2-19.7,19.8-19.7c7.2,0,11.5,2.4,15,5.9l-5.3,6.1
	c-2.9-2.7-5.9-4.3-9.7-4.3c-6.4,0-11,5.3-11,11.8v0.1c0,6.5,4.5,12,11,12c4.3,0,7-1.7,10-4.5l5.3,5.4
	C165.8,328.9,161.5,331.5,154.1,331.5"/>
<polyline class="st0" points="201.8,330.8 201.8,315.6 186.4,315.6 186.4,330.8 178,330.8 178,292.8 186.4,292.8 186.4,307.8 
	201.8,307.8 201.8,292.8 210.2,292.8 210.2,330.8 201.8,330.8 "/>
<polyline class="st0" points="220.9,330.8 220.9,292.8 249.6,292.8 249.6,300.2 229.3,300.2 229.3,308 247.2,308 247.2,315.4 
	229.3,315.4 229.3,323.4 249.9,323.4 249.9,330.8 220.9,330.8 "/>
<polyline class="st0" points="288.7,330.8 288.7,306 278,322.2 277.8,322.2 267.2,306.2 267.2,330.8 259,330.8 259,292.8 268,292.8 
	278,308.9 288,292.8 297,292.8 297,330.8 288.7,330.8 "/>
<rect x="308.1" y="292.8" class="st0" width="8.4" height="38"/>
<path class="st0" d="M341.2,331.4c-5.8,0-11.6-2-16.1-6.1l4.9-5.9c3.4,2.8,7,4.6,11.4,4.6c3.4,0,5.5-1.4,5.5-3.6v-0.1
	c0-2.1-1.3-3.2-7.7-4.8c-7.7-2-12.6-4.1-12.6-11.6v-0.1c0-6.9,5.5-11.5,13.3-11.5c5.5,0,10.3,1.7,14.1,4.8l-4.4,6.3
	c-3.4-2.3-6.7-3.8-9.9-3.8c-3.2,0-4.9,1.5-4.9,3.3v0.1c0,2.5,1.6,3.3,8.2,5c7.7,2,12.1,4.8,12.1,11.4v0.1
	C355.1,327.1,349.4,331.4,341.2,331.4"/>
<polyline class="st0" points="380.5,300.5 380.5,330.8 372.1,330.8 372.1,300.5 360.5,300.5 360.5,292.8 392,292.8 392,300.5 
	380.5,300.5 "/>
<path class="st0" d="M423.2,330.8l-8.2-12.2h-6.6v12.2h-8.4v-38h17.4c9,0,14.3,4.7,14.3,12.5v0.1c0,6.1-3.3,10-8.1,11.8l9.3,13.6
	H423.2 M423.3,305.8c0-3.6-2.5-5.4-6.6-5.4h-8.3v10.9h8.5c4.1,0,6.4-2.2,6.4-5.4V305.8z"/>
<g>
	<polyline class="st0" points="458.7,315.7 458.7,330.8 450.3,330.8 450.3,315.8 435.7,292.8 445.5,292.8 454.6,308.1 463.8,292.8 
		473.3,292.8 458.7,315.7 	"/>
</g>
<path class="st0" d="M17.1,229.3c-3.5-3.5-7.4-6.7-11.6-9.5c-4.2-2.8-8.6-5.3-13.3-7.2c-4.7-2-9.6-3.5-14.7-4.6
	c-5.1-1-10.4-1.6-15.8-1.6v30.8c3.3,0,6.5,0.3,9.6,0.9c3.1,0.6,6.1,1.6,8.9,2.8c2.8,1.2,5.6,2.7,8.1,4.4c2.5,1.7,4.9,3.7,7,5.8
	L17.1,229.3"/>
<g>
	<path class="st0" d="M-4.7,318.2c-2.2,2.2-4.5,4.1-7,5.8c-2.5,1.7-5.2,3.1-8.1,4.3c-2.8,1.2-5.8,2.2-8.9,2.8c-3.1,0.6-6.3,1-9.6,1
		c-3.3,0-6.5-0.3-9.6-1c-3.1-0.6-6-1.5-8.9-2.8c-2.9-1.2-5.6-2.6-8.1-4.3c-2.5-1.7-4.9-3.7-7-5.8l-21.7,21.7
		c3.6,3.6,7.4,6.8,11.6,9.6c4.2,2.8,8.6,5.2,13.3,7.2c4.7,2,9.6,3.5,14.7,4.5c5.1,1.1,10.4,1.6,15.8,1.6c5.4,0,10.7-0.5,15.8-1.6
		c5.1-1,10-2.6,14.7-4.5c4.6-2,9.1-4.4,13.3-7.2c4.2-2.8,8.1-6,11.6-9.6L-4.7,318.2"/>
</g>
<path class="st1" d="M-71.8,318.2c-2.1-2.2-4.1-4.5-5.8-7c-1.7-2.5-3.2-5.2-4.4-8.1c-1.2-2.8-2.1-5.8-2.8-8.9
	c-0.6-3.1-0.9-6.3-0.9-9.6h-30.8c0,5.4,0.6,10.7,1.6,15.8c1.1,5.1,2.6,10,4.6,14.7c2,4.6,4.4,9.1,7.2,13.3c2.8,4.2,6,8.1,9.5,11.6
	L-71.8,318.2"/>
<path class="st2" d="M-85.7,284.6c0-3.3,0.3-6.5,0.9-9.6c0.6-3.1,1.6-6,2.8-8.9c1.2-2.9,2.7-5.6,4.4-8.1c1.7-2.5,3.7-4.9,5.8-7
	l-21.7-21.7c-3.5,3.6-6.7,7.4-9.5,11.6c-2.8,4.2-5.3,8.6-7.2,13.3c-2,4.7-3.5,9.6-4.6,14.7c-1,5.1-1.6,10.4-1.6,15.8H-85.7"/>
<path class="st3" d="M-71.8,251.1c2.2-2.1,4.5-4.1,7-5.8c2.5-1.7,5.2-3.2,8.1-4.4c2.8-1.2,5.8-2.1,8.9-2.8c3.1-0.6,6.3-0.9,9.6-0.9
	v-30.8c-5.4,0-10.7,0.6-15.8,1.6c-5.1,1.1-10,2.6-14.7,4.6c-4.7,2-9.1,4.4-13.3,7.2c-4.2,2.8-8,6-11.6,9.5L-71.8,251.1"/>
<path class="st4" d="M-103.1,240.9l-8.5-5.7c3.2-4.7,6.8-9.1,10.8-13.1c4-4,8.4-7.6,13.1-10.8c4.7-3.2,9.7-5.9,15-8.2
	s10.8-4,16.6-5.1c5.7-1.2,11.7-1.8,17.8-1.8c5.8,0,11.4,0.6,16.9,1.6l-2,10c-4.8-0.9-9.8-1.4-14.9-1.4c-5.4,0-10.7,0.6-15.8,1.6
	c-5.1,1.1-10,2.6-14.7,4.6c-4.7,2-9.1,4.4-13.3,7.2c-4.2,2.8-8,6-11.6,9.5C-97,232.9-100.3,236.8-103.1,240.9
	C-103.1,240.9-103.1,240.9-103.1,240.9 M-69.1,263.9l-8.5-5.7c0,0,0,0,0,0c1.7-2.5,3.7-4.9,5.8-7c2.2-2.1,4.5-4.1,7-5.8
	c2.5-1.7,5.2-3.2,8.1-4.4c2.8-1.2,5.8-2.1,8.9-2.8c3.1-0.6,6.3-0.9,9.6-0.9c3.1,0,6.2,0.3,9.1,0.8l-2,10.1c-2.3-0.5-4.6-0.7-7.1-0.7
	c-2.6,0-5.1,0.3-7.5,0.8s-4.8,1.2-7,2.2c-2.2,0.9-4.3,2.1-6.3,3.4c-2,1.3-3.8,2.9-5.5,4.5C-66.2,260-67.8,261.8-69.1,263.9"/>
<path class="st5" d="M-29.2,238.1c-2.9-0.6-6-0.8-9.1-0.8v-30.8c5.1,0,10.1,0.5,14.9,1.4L-29.2,238.1"/>
<path class="st6" d="M-77.6,258.1l-25.5-17.2c0,0,0,0,0,0c2.8-4.2,6-8,9.5-11.6l21.7,21.7C-73.9,253.2-75.9,255.6-77.6,258.1
	C-77.6,258.1-77.6,258.1-77.6,258.1"/>
<path class="st7" d="M-71.8,251.1l-21.7-21.7c3.6-3.5,7.4-6.7,11.6-9.5c4.2-2.8,8.6-5.3,13.3-7.2c4.7-2,9.6-3.5,14.7-4.6
	c5.1-1,10.4-1.6,15.8-1.6v30.8c-3.3,0-6.5,0.3-9.6,0.9c-3.1,0.6-6,1.6-8.9,2.8c-2.9,1.2-5.6,2.7-8.1,4.4
	C-67.3,247-69.6,249-71.8,251.1"/>
<path class="st8" d="M-64.8,324C-64.8,324-64.8,324-64.8,324c-2.5-1.7-4.9-3.7-7-5.8c-2.1-2.2-4.1-4.5-5.8-7
	c-1.7-2.5-3.2-5.2-4.4-8.1c-1.2-2.8-2.1-5.8-2.8-8.9c-0.6-3.1-0.9-6.3-0.9-9.6c0-3.1,0.3-6.1,0.8-9.1l10.1,2
	c-0.5,2.3-0.7,4.7-0.7,7.1c0,2.6,0.3,5.1,0.8,7.5s1.2,4.8,2.2,7c0.9,2.2,2.1,4.3,3.4,6.3c1.3,2,2.9,3.8,4.5,5.5
	c1.7,1.7,3.5,3.2,5.5,4.6L-64.8,324 M-87.7,358c-4.7-3.2-9.1-6.8-13.1-10.8c-4-4-7.6-8.4-10.8-13.1c-3.2-4.7-5.9-9.8-8.2-15
	s-4-10.8-5.1-16.6c-1.2-5.7-1.8-11.7-1.8-17.8c0-5.7,0.6-11.4,1.6-16.9l10,1.9c-0.9,4.8-1.4,9.8-1.4,14.9c0,5.4,0.6,10.7,1.6,15.8
	c1.1,5.1,2.6,10,4.6,14.7c2,4.6,4.4,9.1,7.2,13.3c2.8,4.2,6,8.1,9.5,11.6c3.6,3.6,7.4,6.8,11.6,9.6c0,0,0,0,0,0L-87.7,358"/>
<path class="st9" d="M-81.9,349.5C-82,349.5-82,349.5-81.9,349.5c-4.2-2.8-8-6-11.6-9.6l21.7-21.7c2.2,2.2,4.5,4.1,7,5.8
	c0,0,0,0,0,0L-81.9,349.5"/>
<path class="st10" d="M-93.5,339.9c-3.5-3.5-6.7-7.4-9.5-11.6c-2.8-4.2-5.3-8.6-7.2-13.3c-2-4.7-3.5-9.6-4.6-14.7
	c-1-5.1-1.6-10.4-1.6-15.8h30.8c0,3.3,0.3,6.5,0.9,9.6c0.6,3.1,1.6,6.1,2.8,8.9c1.2,2.8,2.7,5.6,4.4,8.1c1.7,2.5,3.7,4.9,5.8,7
	L-93.5,339.9"/>
<path class="st11" d="M-85.7,284.6h-30.8c0-5.1,0.5-10.1,1.4-14.9l30.2,5.9C-85.4,278.5-85.7,281.6-85.7,284.6"/>
</svg>
