<?xml version="1.0" encoding="utf-8"?>
<!-- Generator: Adobe Illustrator 19.2.1, SVG Export Plug-In . SVG Version: 6.00 Build 0)  -->
<svg version="1.1" id="layer" xmlns="http://www.w3.org/2000/svg" xmlns:xlink="http://www.w3.org/1999/xlink" x="0px" y="0px"
	 viewBox="0 0 652 652" style="enable-background:new 0 0 652 652;" xml:space="preserve">
<style type="text/css">
	.st0{fill:#231815;}
</style>
<g>
	<path class="st0" d="M26.2,337.7c-0.3-1.3,0.1-2,0.7-2c0.9,0,0.9,0.8,1.2,2.1c0.8,3,4.7,9.7,13.6,9.7c6.1,0,12.2-3.4,12.2-10.2
		c0-12.5-26.3-5.5-26.3-22.4c0-8.2,6.9-12.2,14.4-12.2c7.8,0,10,2.3,10.9,2.3c0.6,0,0.7-0.7,1.4-0.7c0.4,0,0.7,0.2,0.8,0.9l1,8.8
		c0.1,0.5-0.1,1-0.7,1c-0.7,0-1.2-1.4-1.4-1.9c-1.9-5.6-6.7-8.4-12.4-8.4c-5.1,0-10.5,2.5-10.5,8.4c0,12.2,26.3,5,26.3,22.9
		c0,5.4-3.8,13.6-18.5,13.6c-4.8,0-10.7-2.4-10.9-3.6L26.2,337.7z"/>
</g>
<g>
	<path class="st0" d="M87.9,335.2c-0.6-1.3-0.9-2.2-2.6-2.2H72.5c-1.1,0-2.2,0-2.7,1.2l-3.7,8.2c-0.2,0.4-0.4,1.3-0.4,2
		c0,4.1,4.1,2.3,4.1,3.9c0,1-0.8,0.9-1.6,0.9c-1.6,0-3.3-0.2-4.9-0.2c-1.6,0-3.1,0.2-4.7,0.2c-0.4,0-0.5-0.3-0.5-0.6
		c0-1.2,2.7-0.2,4.3-3.6l13.9-29.7c3.4-7.3,3.6-8.3,4.4-8.3c0.6,0,1,1.7,1.2,2.2l12.1,30c0.9,2.2,1.6,4.6,2.9,6.6
		c1.8,2.7,5.1,1.4,5.1,2.9c0,0.5-0.4,0.5-0.8,0.5c-2.4,0-4.8-0.2-7.2-0.2c-1.6,0-3.1,0.2-4.7,0.2c-0.3,0-1.3,0-1.3-0.6
		c0-1.4,3.5-0.8,3.5-3c0-1.3-1.2-4-1.8-5.5L87.9,335.2z M72.1,329.4c-0.4,0.8,0,1.1,0.8,1.1h11.5c1.3,0,1.2-0.4,0.9-1.2l-5.7-14
		c-0.3-0.7-0.6-0.7-0.9,0L72.1,329.4z"/>
	<path class="st0" d="M133.2,335.2c-0.6-1.3-0.9-2.2-2.6-2.2h-12.8c-1.1,0-2.2,0-2.7,1.2l-3.7,8.2c-0.2,0.4-0.4,1.3-0.4,2
		c0,4.1,4.1,2.3,4.1,3.9c0,1-0.8,0.9-1.6,0.9c-1.6,0-3.3-0.2-4.9-0.2c-1.6,0-3.1,0.2-4.7,0.2c-0.3,0-0.5-0.3-0.5-0.6
		c0-1.2,2.7-0.2,4.2-3.6l13.9-29.7c3.4-7.3,3.6-8.3,4.4-8.3c0.6,0,1,1.7,1.2,2.2l12.1,30c0.9,2.2,1.6,4.6,2.9,6.6
		c1.8,2.7,5.1,1.4,5.1,2.9c0,0.5-0.4,0.5-0.8,0.5c-2.4,0-4.8-0.2-7.2-0.2c-1.6,0-3.1,0.2-4.7,0.2c-0.4,0-1.3,0-1.3-0.6
		c0-1.4,3.5-0.8,3.5-3c0-1.3-1.2-4-1.8-5.5L133.2,335.2z M117.5,329.4c-0.4,0.8,0,1.1,0.8,1.1h11.5c1.3,0,1.2-0.4,0.9-1.2l-5.7-14
		c-0.3-0.7-0.6-0.7-0.9,0L117.5,329.4z"/>
	<path class="st0" d="M158.7,313.7c0-0.4,0.2-2.6-0.6-2.7h-9.5c-3.6,0-3.7,0.9-4.8,4.1c-0.2,0.6-0.2,1.3-1,1.3
		c-0.4,0-0.6-0.4-0.6-0.7l0.6-5.6c0.1-0.7,0-2.3,1.1-2.3c4.5,0,9,0.2,16.5,0.2c10.5,0,15.9-0.2,17.1-0.2c1.3,0,1.6,0.3,1.7,1.7
		l0.3,4.7c0.1,0.6,0.1,1.3-0.6,1.3c-2.2,0,1-4.4-4.9-4.4h-8.3c-2.6,0-2.3-0.2-2.3,2.9v29.7c0,4.9,4.7,3,4.7,4.8
		c0,0.2,0.1,0.7-0.5,0.7c-1.4,0-3-0.2-4.7-0.2c-6.5,0-7.6,0.2-8,0.2c-0.5,0-0.7-0.2-0.7-0.8c0-1.4,4.6-0.8,4.6-4.3V313.7z"/>
	<path class="st0" d="M203,307.3c10.9,0,14,4.5,15.7,4.5c0.5,0,0.8-0.6,1.4-0.6c0.6,0,0.6,0.9,0.8,4.7c0.1,3.1,0.6,5-0.4,5
		c-0.7,0-1.1-1.5-1.3-1.9c-3.6-6.2-7.7-10-15.3-10c-11.4,0-16.8,7.6-16.8,18.4c0,10.1,5.8,20.3,17,20.3c9.2,0,14.9-5.8,15.7-8.5
		c0.1-0.4,0.5-0.8,0.8-0.8c0.3,0,0.6,0.3,0.5,0.6l-1.3,5.8c-0.1,0.2-4.2,4.6-17.3,4.6c-11.9,0-20.5-8.2-20.5-20.3
		C182,317.2,190.7,307.3,203,307.3"/>
	<path class="st0" d="M229.2,312.9c-0.1-4.3-5.1-3.1-5.1-4.4c0-0.5,0.5-0.6,0.9-0.6c2.2,0,4.3,0.2,6.4,0.2c1.8,0,3.6-0.2,5.4-0.2
		c1,0,1.1,0.3,1.1,0.6c0,1.2-4.2,0.1-4.2,4.4v12.6c0,0.8,0,1,0.9,1H256c0.6,0,0.5-1.5,0.5-1.7v-11.9c0-4-4.4-3-4.4-4.4
		c0-0.4,0.1-0.6,1-0.6c1.9,0,4.9,0.2,6.1,0.2c2.2,0,3-0.2,4.2-0.2c1.5,0,1.6,0.6,1.6,0.9c0,1-3.9,0.1-3.9,4.1v30.9
		c0,4.3,5.3,3.2,5.3,4.7c0,0.2-0.2,0.7-0.6,0.7c-1.6,0-3.4-0.2-5.5-0.2c-3.7,0-5.4,0.2-6.5,0.2c-0.5,0-1.4,0.2-1.4-0.8
		c0-1.4,4.1-0.6,4.1-4.3v-14c0-0.9,0.2-1.5-0.5-1.5h-21.5c-0.7,0-0.7,0.4-0.7,1v14.5c0,4,5.5,2.7,5.5,4.5c0,0.3-0.4,0.5-0.9,0.5
		c-0.8,0-5-0.2-8.1-0.2c-4.1,0-4.8,0.2-5,0.2c-0.5,0-0.6-0.3-0.6-0.9c0-1.7,4.5,0.2,4.5-5.5V312.9z"/>
	<path class="st0" d="M275.1,312.9c-0.1-4.3-4.7-3.1-4.7-4.4c0-0.5,0.1-0.6,0.6-0.6c2.2,0,4.3,0.2,6.4,0.2c1.8,0,3.6-0.2,5.4-0.2
		c0.9,0,1.1,0.1,1.1,0.6c0,1.4-4.2,0.1-4.2,4.4v31.3c0,4,5.2,2.6,5.2,4.4c0,0.4-0.2,0.6-1.2,0.6c-1.3,0-3.8-0.2-6.3-0.2
		c-3.6,0-4.8,0.2-5.6,0.2c-1,0-1.2-0.3-1.2-0.9c0-1.7,4.5,0.2,4.5-5.5V312.9z"/>
</g>
<g>
	<path class="st0" d="M331.5,312.4c0,0.3-0.4,0.5-0.7,0.5c-0.6,0-0.8-0.8-1-1.2c-1.6-3.4-4.9-6.8-8.9-6.8c-3,0-5.4,2.1-5.4,5.2
		c0,4.3,9.6,14.6,23.5,27.5c1.6-1.8,1.9-4.1,1.9-6.9c0-7.6-6.1-5-6.1-7.1c0-0.7,1-0.6,1.5-0.6c2.4,0,4.7,0.3,5.6,0.3
		c0.9,0,1.9-0.3,4.2-0.3c0.6,0,0.9,0.1,0.9,0.8c0,1-2.5,0.3-2.8,3.2c-0.4,4.1-1,8.2-3,11.9c2.5,1.9,8.5,8.2,11.4,8.2
		c1.3,0,1.9-0.3,2.4-0.3c0.5,0,0.5,0.4,0.5,0.5c0,1.1-3.2,2.1-5.4,2.1c-4.9,0-8.4-3.7-12-6.5c-4.7,4.3-9.6,6.5-15.9,6.5
		c-9.5,0-17.9-6.3-17.9-16.4c0-6.9,3.4-12.2,10.3-13.7c-1.7-2.1-3-4.7-3-7.4c0-5.9,5.2-8.8,10.5-8.8c4.1,0,6.6,1.8,6.9,1.8
		c0.3,0,0.6-0.6,1.2-0.6c0.9,0,0.8,1.2,0.8,1.8L331.5,312.4z M336.2,341.6c-13.8-11.8-18.8-20.5-21.1-20.5c-4.1,0-7.1,5-7.1,8.8
		c0,8.6,8.2,15.9,16.6,15.9C328.8,345.8,333,344.3,336.2,341.6"/>
	<path class="st0" d="M367.5,337.7c-0.2-1.3,0.1-2,0.7-2c0.9,0,0.9,0.8,1.2,2.1c0.8,3,4.7,9.7,13.6,9.7c6.1,0,12.2-3.4,12.2-10.2
		c0-12.5-26.3-5.5-26.3-22.4c0-8.2,6.9-12.2,14.4-12.2c7.8,0,10,2.3,10.9,2.3c0.6,0,0.7-0.7,1.4-0.7c0.4,0,0.7,0.2,0.8,0.9l1,8.8
		c0.1,0.5-0.1,1-0.7,1c-0.7,0-1.2-1.4-1.4-1.9c-1.9-5.6-6.7-8.4-12.4-8.4c-5.1,0-10.5,2.5-10.5,8.4c0,12.2,26.3,5,26.3,22.9
		c0,5.4-3.8,13.6-18.5,13.6c-4.8,0-10.7-2.4-10.9-3.6L367.5,337.7z"/>
</g>
<g>
	<path class="st0" d="M429.1,335.2c-0.6-1.3-0.9-2.2-2.6-2.2h-12.8c-1.1,0-2.2,0-2.7,1.2l-3.7,8.2c-0.2,0.4-0.4,1.3-0.4,2
		c0,4.1,4.1,2.3,4.1,3.9c0,1-0.8,0.9-1.6,0.9c-1.6,0-3.3-0.2-4.9-0.2c-1.6,0-3.1,0.2-4.6,0.2c-0.3,0-0.5-0.3-0.5-0.6
		c0-1.2,2.7-0.2,4.2-3.6l13.9-29.7c3.4-7.3,3.6-8.3,4.4-8.3c0.6,0,1,1.7,1.2,2.2l12.1,30c0.9,2.2,1.6,4.6,2.9,6.6
		c1.7,2.7,5.1,1.4,5.1,2.9c0,0.5-0.4,0.5-0.8,0.5c-2.4,0-4.8-0.2-7.2-0.2c-1.6,0-3.1,0.2-4.7,0.2c-0.3,0-1.3,0-1.3-0.6
		c0-1.4,3.5-0.8,3.5-3c0-1.3-1.2-4-1.8-5.5L429.1,335.2z M413.4,329.4c-0.4,0.8,0,1.1,0.8,1.1h11.5c1.3,0,1.2-0.4,0.9-1.2l-5.7-14
		c-0.3-0.7-0.6-0.7-0.9,0L413.4,329.4z"/>
	<path class="st0" d="M474.4,335.2c-0.6-1.3-0.9-2.2-2.5-2.2h-12.8c-1.1,0-2.2,0-2.7,1.2l-3.7,8.2c-0.2,0.4-0.4,1.3-0.4,2
		c0,4.1,4.1,2.3,4.1,3.9c0,1-0.8,0.9-1.6,0.9c-1.6,0-3.2-0.2-4.9-0.2c-1.6,0-3.1,0.2-4.7,0.2c-0.3,0-0.5-0.3-0.5-0.6
		c0-1.2,2.7-0.2,4.3-3.6l13.9-29.7c3.4-7.3,3.6-8.3,4.4-8.3c0.6,0,1,1.7,1.2,2.2l12.1,30c0.9,2.2,1.6,4.6,2.9,6.6
		c1.8,2.7,5.1,1.4,5.1,2.9c0,0.5-0.4,0.5-0.8,0.5c-2.4,0-4.8-0.2-7.2-0.2c-1.6,0-3.2,0.2-4.7,0.2c-0.4,0-1.3,0-1.3-0.6
		c0-1.4,3.5-0.8,3.5-3c0-1.3-1.2-4-1.8-5.5L474.4,335.2z M458.7,329.4c-0.4,0.8,0,1.1,0.8,1.1H471c1.3,0,1.2-0.4,0.9-1.2l-5.7-14
		c-0.3-0.7-0.6-0.7-0.9,0L458.7,329.4z"/>
	<path class="st0" d="M500,313.7c0-0.4,0.2-2.6-0.6-2.7h-9.5c-3.6,0-3.7,0.9-4.8,4.1c-0.2,0.6-0.2,1.3-1,1.3c-0.3,0-0.6-0.4-0.6-0.7
		l0.6-5.6c0.1-0.7,0-2.3,1.1-2.3c4.5,0,9,0.2,16.5,0.2c10.5,0,15.9-0.2,17.1-0.2c1.3,0,1.6,0.3,1.7,1.7l0.3,4.7
		c0.1,0.6,0.1,1.3-0.6,1.3c-2.2,0,1-4.4-5-4.4h-8.3c-2.6,0-2.3-0.2-2.3,2.9v29.7c0,4.9,4.7,3,4.7,4.8c0,0.2,0,0.7-0.5,0.7
		c-1.4,0-3-0.2-4.7-0.2c-6.5,0-7.6,0.2-8,0.2c-0.5,0-0.7-0.2-0.7-0.8c0-1.4,4.6-0.8,4.6-4.3V313.7z"/>
	<path class="st0" d="M544.3,307.3c11,0,14,4.5,15.7,4.5c0.5,0,0.8-0.6,1.4-0.6c0.6,0,0.6,0.9,0.8,4.7c0.1,3.1,0.6,5-0.4,5
		c-0.7,0-1.1-1.5-1.3-1.9c-3.6-6.2-7.8-10-15.3-10c-11.4,0-16.8,7.6-16.8,18.4c0,10.1,5.8,20.3,17,20.3c9.1,0,14.8-5.8,15.7-8.5
		c0.1-0.4,0.5-0.8,0.8-0.8c0.3,0,0.6,0.3,0.5,0.6l-1.3,5.8c-0.1,0.2-4.2,4.6-17.3,4.6c-11.9,0-20.5-8.2-20.5-20.3
		C523.3,317.2,532,307.3,544.3,307.3"/>
	<path class="st0" d="M570.5,312.9c0-4.3-5.1-3.1-5.1-4.4c0-0.5,0.5-0.6,0.9-0.6c2.2,0,4.3,0.2,6.4,0.2c1.8,0,3.6-0.2,5.4-0.2
		c1,0,1.1,0.3,1.1,0.6c0,1.2-4.2,0.1-4.2,4.4v12.6c0,0.8,0,1,0.9,1h21.3c0.6,0,0.5-1.5,0.5-1.7v-11.9c0-4-4.4-3-4.4-4.4
		c0-0.4,0.1-0.6,1-0.6c1.9,0,5,0.2,6.1,0.2c2.2,0,3-0.2,4.2-0.2c1.5,0,1.6,0.6,1.6,0.9c0,1-3.9,0.1-3.9,4.1v30.9
		c0,4.3,5.3,3.2,5.3,4.7c0,0.2-0.2,0.7-0.6,0.7c-1.6,0-3.4-0.2-5.5-0.2c-3.7,0-5.4,0.2-6.5,0.2c-0.5,0-1.4,0.2-1.4-0.8
		c0-1.4,4.1-0.6,4.1-4.3v-14c0-0.9,0.2-1.5-0.5-1.5h-21.5c-0.7,0-0.7,0.4-0.7,1v14.5c0,4,5.5,2.7,5.5,4.5c0,0.3-0.4,0.5-0.9,0.5
		c-0.8,0-5-0.2-8.1-0.2c-4.1,0-4.8,0.2-5,0.2c-0.5,0-0.6-0.3-0.6-0.9c0-1.7,4.5,0.2,4.5-5.5V312.9z"/>
	<path class="st0" d="M616.4,312.9c0-4.3-4.7-3.1-4.7-4.4c0-0.5,0.1-0.6,0.6-0.6c2.2,0,4.3,0.2,6.4,0.2c1.8,0,3.6-0.2,5.4-0.2
		c0.9,0,1.1,0.1,1.1,0.6c0,1.4-4.2,0.1-4.2,4.4v31.3c0,4,5.2,2.6,5.2,4.4c0,0.4-0.2,0.6-1.2,0.6c-1.3,0-3.8-0.2-6.3-0.2
		c-3.6,0-4.8,0.2-5.6,0.2c-1.1,0-1.2-0.3-1.2-0.9c0-1.7,4.5,0.2,4.5-5.5V312.9z"/>
</g>
</svg>
