<?xml version="1.0" encoding="utf-8"?>
<!-- Generator: Adobe Illustrator 24.3.0, SVG Export Plug-In . SVG Version: 6.00 Build 0)  -->
<svg version="1.1" id="Artwork" xmlns="http://www.w3.org/2000/svg" xmlns:xlink="http://www.w3.org/1999/xlink" x="0px" y="0px"
	 viewBox="0 0 722.6 197.4" style="enable-background:new 0 0 722.6 197.4;" xml:space="preserve">
<style type="text/css">
	.st0{fill:#1E3282;}
</style>
<path class="st0" d="M222.9,1.7l-73.2,190.9h17.6l27.4-71.2c0,0,74.6,11.3,98.6,71.2h30.9L251,1.7H222.9z M200.5,106.3L231.1,25
	l42.2,117.6C246.8,116.1,200.5,106.3,200.5,106.3z"/>
<path class="st0" d="M649.4,1.7h-28.1L548,192.6h17.6c11.2-26.8,35.6-51.5,62.3-62.8c12.1-5.1,22.7-8.4,35.7-9.4l29,72.1h30
	L649.4,1.7z M613,120.6c-8.5,4.5-19.6,12.7-26.9,19.4l43.3-114.3l28.9,80.6C642,108.1,627.8,112.9,613,120.6z"/>
<path class="st0" d="M440.9,122.1h50v55.7c-11,5.8-24.5,8.2-35.8,8.2c-48.2,0-83.3-44.9-83.3-87.8c0-45.6,27.8-87.1,75.7-87.1
	c0,0,43.3-1.6,57.9,41.3h5.8v-1.3l0,0V20.6c0,0-2.6-1.9-7.2-4.6c-3.3-2.1-6.7-3.9-10.2-5.6C478.5,3.3,461.1,0,440.8,0h-0.1
	c-65,0-102.4,41.7-102.4,101c0,60.2,43.8,96.4,104.9,96.4c28,0,59.7-7,77.9-19.8v-71.2h-80.2L440.9,122.1L440.9,122.1z"/>
<path class="st0" d="M78.3,81.9l-21-7.3C33.2,65.1,26.2,53,26.2,38.2C26.2,21.7,41.3,11,64.4,11c2.9,0,5.7,0.2,8.5,0.7
	c0,0,29.6,2.7,39.2,36.5l1.2,4.1h5.8V17.1c0,0-24.6-17.1-57.8-17.1C28.3,1.1,0,18.9,0,49.7c0,24,11.6,38.9,44.6,51.3l22.2,8
	c23.6,8.7,36.5,22.7,36.5,43.1c0,32.1-42.2,34-42.2,34c-2.8,0.2-5.5,0-8.2-0.4c-13-1.8-37.6-9.2-45.1-37.5l0,0l-1.3-4.7H0.6V180
	c0,0,26.2,17.4,60.1,17.4c39.1,0,69.5-19.6,69.5-57.2C130.3,103.8,101.9,90.9,78.3,81.9z"/>
</svg>
