<?xml version="1.0" encoding="utf-8"?>
<!-- Generator: Adobe Illustrator 19.2.1, SVG Export Plug-In . SVG Version: 6.00 Build 0)  -->
<svg version="1.1" id="layer" xmlns="http://www.w3.org/2000/svg" xmlns:xlink="http://www.w3.org/1999/xlink" x="0px" y="0px"
	 viewBox="0 0 652 652" style="enable-background:new 0 0 652 652;" xml:space="preserve">
<style type="text/css">
	.st0{fill:#2D2E83;}
</style>
<g id="cdbe4e7e-1971-4e5e-ae78-038d65911107">
	<path class="st0" d="M255.5,337.7c1.9,2.4,4.3,4.4,6.9,6c2.7,1.6,5.9,2.5,9.1,2.4c1.5,0,2.9-0.2,4.3-0.7c1.3-0.4,2.6-1.1,3.6-2
		c1-0.9,1.9-1.9,2.5-3.1c0.6-1.2,1-2.6,0.9-4c0.1-2.2-0.7-4.4-2.3-6c-1.7-1.6-3.6-3-5.7-4c-2.3-1.1-4.7-2.2-7.3-3.2
		c-2.5-0.9-4.9-2.2-7.2-3.6c-2.3-1.5-4.3-3.5-5.9-5.8c-1.7-2.5-2.5-5.5-2.4-8.6c0-2.3,0.5-4.6,1.5-6.7c1-2.1,2.4-4,4.2-5.5
		c1.8-1.6,3.9-2.9,6.2-3.7c2.5-0.9,5.2-1.4,7.8-1.4c1.9,0,3.9,0.2,5.7,0.6c1.7,0.4,3.3,0.9,4.9,1.6c1.4,0.6,2.7,1.3,3.9,2.1
		c1.1,0.7,2.1,1.4,3,2.2l-5.5,6.8c-3.2-2.9-7.4-4.4-11.7-4.5c-1.3,0-2.7,0.2-4,0.6c-1.2,0.4-2.4,0.9-3.5,1.7c-1,0.7-1.9,1.7-2.5,2.8
		c-0.6,1.2-0.9,2.4-0.9,3.7c0,2,0.8,3.8,2.3,5.1c1.7,1.5,3.6,2.7,5.7,3.7c2.3,1.1,4.7,2.2,7.3,3.2c2.5,1,4.8,2.2,7,3.6
		c1.1,0.8,2.2,1.6,3.2,2.5c1,1,1.9,2,2.7,3.2c0.8,1.3,1.5,2.7,1.9,4.1c0.5,1.7,0.7,3.4,0.7,5.1c0,2.7-0.5,5.3-1.6,7.8
		c-1,2.3-2.5,4.3-4.3,6c-1.9,1.7-4,3-6.4,3.8c-2.6,0.9-5.3,1.4-8,1.4c-4.4,0-8.7-0.9-12.6-2.8c-4-1.9-7.5-4.7-10.3-8.1L255.5,337.7z
		 M309.3,314.1c1.6-1.3,3.3-2.3,5.1-3.2c2.4-1.1,5.1-1.7,7.8-1.6c3.1,0,6.2,0.7,9,2.1c2.7,1.4,5.1,3.3,6.9,5.6
		c1.5,1.9,2.6,4,3.2,6.3c0.8,3,1.2,6.2,1.1,9.3v21.5h-8.9v-22c0.1-2.2-0.2-4.3-0.7-6.4c-0.4-1.4-1-2.6-1.9-3.7
		c-1.1-1.3-2.4-2.4-4-3.1c-1.6-0.8-3.3-1.2-5.1-1.2c-2.6-0.1-5.2,0.6-7.5,1.9c-1.9,1.1-3.7,2.6-5.1,4.3v30.1h-8.9v-66.2h8.8V314.1z
		 M349.2,332.1c0-3.1,0.6-6.2,1.7-9.1c1.1-2.7,2.7-5.2,4.7-7.3c2-2.1,4.5-3.7,7.2-4.8c5.8-2.3,12.2-2.3,18,0
		c2.7,1.1,5.1,2.7,7.2,4.8c2,2.1,3.7,4.6,4.8,7.3c2.3,5.8,2.3,12.3,0,18.1c-1.1,2.7-2.7,5.1-4.8,7.2c-2,2.1-4.5,3.7-7.2,4.8
		c-5.8,2.3-12.2,2.3-18,0c-2.7-1.1-5.1-2.7-7.2-4.8c-2-2.1-3.7-4.5-4.8-7.2C349.7,338.4,349.1,335.3,349.2,332.1z M358,332.1
		c0,1.9,0.3,3.8,1,5.6c0.7,1.7,1.6,3.3,2.9,4.6c1.2,1.3,2.7,2.4,4.3,3.1c3.6,1.5,7.6,1.5,11.2,0c1.6-0.7,3.1-1.8,4.3-3.1
		c1.2-1.3,2.2-2.9,2.8-4.6c1.4-3.6,1.4-7.6,0-11.3c-0.6-1.7-1.6-3.3-2.8-4.6c-1.2-1.3-2.7-2.4-4.3-3.1c-3.6-1.5-7.6-1.5-11.2,0
		c-1.6,0.7-3.1,1.8-4.3,3.1c-1.2,1.3-2.2,2.9-2.8,4.6C358.4,328.3,358,330.2,358,332.1L358,332.1z M434.5,310.2l12,29.9l12-29.9h9.1
		l-17.8,43.8h-6.2l-12.3-30.8l-12.3,30.8H413l-17.8-43.8h9.1l12,29.9l12-29.9H434.5z M483.2,376.4h-8.9v-66.2h8.6v4
		c1.9-1.7,4.1-3,6.5-3.8c2.3-0.8,4.8-1.2,7.2-1.2c2,0,3.9,0.2,5.8,0.7c1.7,0.5,3.4,1.2,4.9,2.1c11.1,6.6,14.7,20.9,8.1,31.9
		c-2,3.3-4.7,6.1-8,8c-1.6,0.9-3.3,1.6-5.1,2.1c-1.9,0.5-3.9,0.8-5.9,0.8c-4.9,0.1-9.6-1.6-13.2-4.7L483.2,376.4z M483.2,340.4
		c1.4,1.9,3.3,3.5,5.5,4.6c3.9,2,8.4,2.2,12.4,0.5c1.7-0.7,3.3-1.8,4.6-3.1c1.3-1.3,2.3-2.9,3-4.6c0.7-1.8,1.1-3.7,1.1-5.6
		c0-3.7-1.4-7.3-3.9-10.1c-1.2-1.4-2.7-2.4-4.4-3.2c-1.8-0.8-3.8-1.2-5.8-1.2c-2.5,0-5,0.6-7.2,1.8c-2.1,1.1-3.8,2.6-5.3,4.5
		L483.2,340.4z M560.6,350.1c-1.8,1.6-3.9,2.9-6.2,3.7c-2.4,0.9-4.9,1.3-7.4,1.3c-2,0-4-0.3-5.9-0.8c-1.8-0.5-3.5-1.2-5.1-2.1
		c-3.4-2-6.2-4.8-8.1-8.2c-4.1-7.3-4.1-16.3,0-23.6c2-3.4,4.8-6.2,8.2-8.2c1.5-0.9,3.2-1.6,4.9-2.1c1.9-0.5,3.8-0.8,5.8-0.7
		c2.5,0,4.9,0.4,7.2,1.2c2.4,0.8,4.6,2.1,6.5,3.8v-4h8.6v43.8h-8.6L560.6,350.1z M560.4,323.9c-1.4-1.8-3.2-3.4-5.3-4.5
		c-2.2-1.2-4.7-1.8-7.2-1.8c-2,0-4,0.4-5.8,1.2c-1.7,0.7-3.2,1.8-4.4,3.2c-2.5,2.8-3.9,6.4-3.9,10.1c0,1.9,0.4,3.8,1.1,5.6
		c0.7,1.7,1.7,3.3,3,4.6c1.3,1.3,2.9,2.4,4.6,3.1c4,1.7,8.5,1.5,12.4-0.5c2.2-1.1,4-2.7,5.5-4.6L560.4,323.9z M612.3,350.1
		c-1.8,1.6-3.9,2.9-6.2,3.7c-2.4,0.9-4.9,1.3-7.4,1.3c-2,0-4-0.3-5.9-0.8c-1.8-0.5-3.5-1.2-5.1-2.1c-3.4-2-6.1-4.8-8.1-8.2
		c-4.1-7.3-4.1-16.3,0-23.6c2-3.4,4.8-6.2,8.2-8.2c1.5-0.9,3.2-1.6,4.9-2.1c4.2-1.1,8.7-1,12.8,0.4c2.3,0.8,4.5,2,6.4,3.6v-26.2h8.9
		v66.2h-8.6V350.1z M612.1,323.9c-1.4-1.8-3.2-3.4-5.3-4.5c-2.2-1.2-4.7-1.8-7.2-1.8c-2,0-4,0.4-5.8,1.2c-1.7,0.7-3.2,1.8-4.4,3.2
		c-2.5,2.8-3.9,6.4-3.9,10.1c0,1.9,0.4,3.8,1.1,5.6c0.7,1.7,1.7,3.3,3,4.6c1.3,1.3,2.9,2.4,4.6,3.1c4,1.7,8.5,1.5,12.4-0.5
		c2.2-1.1,4-2.7,5.5-4.6L612.1,323.9z"/>
</g>
<path id="cfdbb2c2-f06e-4d5b-8d00-dc5e2954d413" class="st0" d="M208.9,320.7c0-0.7,0-1.4-0.1-2.2v-0.3c0-0.6-0.1-1.2-0.1-1.9v-0.1
	c-2.1-20.2-18.1-36.1-38.2-38.2h-0.1c-0.6-0.1-1.2-0.1-1.9-0.1h-0.3c-0.7,0-1.4-0.1-2.2-0.1c-11.4,0-22.3,4.5-30.3,12.6l-14.6,14.5
	l10.6,10.6l10.5-10.6l-0.1,0l4-4c5.2-5.3,12.4-8.2,19.8-8.2h1.6c0.4,0,0.8,0,1.2,0.1h0.1c13.2,1.4,23.6,11.8,24.9,24.9v0.1
	c0,0.4,0.1,0.8,0.1,1.2v0.2c0,0.5,0,0.9,0,1.4c0,0.5,0,0.9,0,1.4v0.2c0,0.4-0.1,0.8-0.1,1.2c-1,9.6-6.9,18-15.5,22.2l-0.3,0.1
	c-0.3,0.1-0.5,0.2-0.8,0.4l-0.6,0.2l-0.5,0.2l-0.9,0.3l-0.2,0.1c-10.1,3.5-21.3,0.9-28.9-6.7l-3.9-3.9l-26.4-26.3L73.7,268
	l-10.6,10.6l-42.2,42.2l10.6,10.6l42.2,42.2L84.3,363l26.4-26.4l-10.6-10.6l-26.4,26.4L42,320.8l31.7-31.7L89.5,305l42.2,42.2
	l3.9,3.9c8,8.1,19,12.6,30.4,12.5c4.8,0,9.5-0.8,14-2.3l0.4-0.1c0.4-0.2,0.9-0.3,1.3-0.5l0.8-0.3l0.8-0.4c0.4-0.2,0.8-0.4,1.2-0.6
	l0.4-0.2c13.3-6.5,22.3-19.4,23.9-34.1v0c0.1-0.6,0.1-1.3,0.1-1.9v-0.3C208.9,322.2,208.9,321.5,208.9,320.7L208.9,320.7z"/>
</svg>
