<?xml version="1.0" encoding="utf-8"?>
<!-- Generator: Adobe Illustrator 26.0.2, SVG Export Plug-In . SVG Version: 6.00 Build 0)  -->
<svg version="1.1" id="__GLYEAOv__Layer_1" xmlns="http://www.w3.org/2000/svg" xmlns:xlink="http://www.w3.org/1999/xlink" x="0px"
	 y="0px" viewBox="0 0 78.9 31.2" style="enable-background:new 0 0 78.9 31.2;" xml:space="preserve">
<style type="text/css">
	.st0{fill:#72838D;}
</style>
<g>
	<path class="st0" d="M9.8,8.6c0.8,0.3,1.4,0.7,1.9,1.2s0.9,1.1,1.1,1.7c0.3,0.6,0.4,1.3,0.4,1.9h-3.1c0-0.7-0.3-1.3-0.8-1.8
		C8.8,11.3,8,11.1,7,11.1c-0.4,0-0.8,0-1.2,0.1c-0.4,0.1-0.7,0.2-1,0.4S4.3,12,4.1,12.2c-0.2,0.2-0.3,0.5-0.3,0.8
		c0,0.6,0.3,1,0.9,1.3s1.5,0.5,2.8,0.8c1,0.2,1.9,0.4,2.6,0.6c0.8,0.2,1.4,0.6,2,0.9c0.5,0.4,1,0.9,1.3,1.4c0.3,0.6,0.4,1.3,0.4,2.1
		c0,0.8-0.2,1.5-0.5,2.1s-0.8,1.2-1.4,1.6c-0.6,0.4-1.3,0.8-2.1,1C9,25.1,8.1,25.2,7,25.2c-0.8,0-1.6-0.1-2.4-0.4
		c-0.8-0.2-1.5-0.6-2.2-1.1c-0.6-0.5-1.2-1.1-1.5-1.8c-0.4-0.7-0.6-1.6-0.6-2.6h3.1c0,0.5,0.1,0.9,0.3,1.3s0.5,0.7,0.9,0.9
		C5,21.9,5.4,22,5.8,22.2c0.4,0.1,0.8,0.2,1.3,0.2c0.4,0,0.9,0,1.3-0.1c0.4-0.1,0.8-0.2,1.2-0.4c0.3-0.2,0.6-0.4,0.8-0.7
		c0.2-0.3,0.3-0.6,0.3-1c0-0.2-0.1-0.5-0.2-0.7c-0.1-0.2-0.3-0.4-0.6-0.6s-0.7-0.4-1.2-0.5c-0.5-0.2-1.1-0.3-1.9-0.4
		s-1.5-0.3-2.2-0.5S3.2,17,2.7,16.6c-0.6-0.4-1-0.8-1.4-1.4c-0.4-0.6-0.5-1.3-0.5-2.2c0-0.7,0.1-1.4,0.4-1.9
		c0.3-0.6,0.7-1.1,1.3-1.5s1.2-0.7,2-1C5.2,8.3,6.1,8.2,7,8.2C8.1,8.2,9.1,8.3,9.8,8.6z"/>
	<rect x="15.8" y="12.9" class="st0" width="3.1" height="12.2"/>
	<path class="st0" d="M33.1,24.4c0,1-0.1,1.9-0.4,2.7c-0.3,0.8-0.7,1.5-1.3,2.1c-0.5,0.6-1.2,1-2,1.3S27.7,31,26.8,31
		c-0.7,0-1.4-0.1-2.1-0.3c-0.7-0.2-1.3-0.5-1.8-0.9s-1-0.8-1.3-1.3c-0.4-0.5-0.6-1.1-0.7-1.7h3.4c0.1,0.2,0.2,0.4,0.4,0.6
		c0.2,0.2,0.4,0.3,0.6,0.4S25.8,28,26,28s0.5,0.1,0.7,0.1c1.1,0,1.9-0.3,2.4-1s0.8-1.5,0.8-2.6v-0.6c-0.5,0.5-1,0.8-1.6,1.1
		c-0.6,0.2-1.3,0.4-2,0.4c-0.8,0-1.5-0.2-2.2-0.5s-1.3-0.8-1.8-1.3c-0.5-0.6-0.9-1.2-1.3-2c-0.3-0.8-0.5-1.6-0.5-2.5
		s0.2-1.7,0.5-2.5c0.3-0.8,0.7-1.5,1.3-2c0.5-0.6,1.1-1,1.8-1.3c0.7-0.3,1.4-0.5,2.2-0.5c0.8,0,1.4,0.1,2.1,0.4
		c0.6,0.3,1.2,0.7,1.7,1.2v-1.3h3V24.4z M29.7,17.6c-0.2-0.4-0.4-0.8-0.7-1.1c-0.3-0.3-0.6-0.6-1-0.7c-0.4-0.2-0.8-0.3-1.2-0.3
		c-0.4,0-0.8,0.1-1.2,0.3c-0.4,0.2-0.7,0.4-1,0.7s-0.5,0.7-0.7,1.1s-0.2,0.9-0.2,1.4s0.1,0.9,0.2,1.4c0.2,0.4,0.4,0.8,0.7,1.1
		c0.3,0.3,0.6,0.5,1,0.7s0.8,0.3,1.2,0.3c0.4,0,0.8-0.1,1.2-0.3c0.4-0.2,0.7-0.4,1-0.7c0.3-0.3,0.5-0.7,0.7-1.1s0.2-0.9,0.2-1.3
		C30,18.5,29.9,18.1,29.7,17.6z"/>
	<path class="st0" d="M46.3,25.1h-3.1V18c0-0.2,0-0.4-0.1-0.7c0-0.3-0.1-0.5-0.3-0.8c-0.1-0.3-0.4-0.5-0.7-0.7s-0.7-0.3-1.2-0.3
		c-0.7,0-1.3,0.2-1.7,0.7c-0.4,0.5-0.7,1-0.7,1.7V25h-3.1V12.9h3v1.2c0.4-0.5,0.9-0.8,1.4-1.1s1.1-0.4,1.8-0.4s1.4,0.1,1.9,0.4
		c0.6,0.3,1.1,0.6,1.5,1.1s0.7,1,1,1.7c0.2,0.7,0.3,1.4,0.3,2.2C46.3,18,46.3,25.1,46.3,25.1z"/>
	<rect x="48.5" y="12.9" class="st0" width="3.1" height="12.2"/>
	<path class="st0" d="M59.9,12.9v2.8h-2.2v9.4h-3.1v-9.4h-1.5v-2.8h1.5c0-0.8,0.1-1.5,0.4-2.2c0.2-0.7,0.6-1.2,1.1-1.7s1-0.8,1.7-1
		s1.4-0.3,2.3-0.2v2.9c-0.8-0.1-1.3,0.1-1.7,0.4c-0.4,0.3-0.6,0.9-0.6,1.8C57.8,12.9,59.9,12.9,59.9,12.9z"/>
	<path class="st0" d="M64.8,25.1h-3.1V7.7h3.1V25.1z"/>
	<path class="st0" d="M73.2,27.3c-0.3,0.8-0.6,1.4-1,1.9s-0.8,0.8-1.3,1.1c-0.5,0.2-1,0.4-1.5,0.4c-0.6,0.1-1.2,0.1-1.8,0v-2.8
		c0.4,0,0.7,0,1,0s0.5-0.1,0.8-0.3c0.2-0.1,0.4-0.3,0.6-0.5s0.3-0.5,0.4-0.9l0.4-0.9l-4.7-12.4h3.3l3,8.8l2.9-8.8h3.3L73.2,27.3z"/>
	<circle class="st0" cx="50.1" cy="2.2" r="1.8"/>
</g>
</svg>
