<?xml version="1.0" encoding="UTF-8"?>
<svg width="484px" height="132px" viewBox="0 0 484 132" version="1.1" xmlns="http://www.w3.org/2000/svg" xmlns:xlink="http://www.w3.org/1999/xlink">
    <title>Group</title>
    <g id="Page-1" stroke="none" stroke-width="1" fill="none" fill-rule="evenodd">
        <g id="Desktop-HD" transform="translate(-520.000000, -707.000000)" fill-rule="nonzero">
            <g id="Group" transform="translate(519.999615, 706.999998)">
                <path d="M121.660385,23.5300022 C126.715625,23.6108689 131.715149,24.5999346 136.420385,26.4500022 C136.843638,26.6136488 137.070023,27.0751263 136.940385,27.5100022 L135.410385,32.6200022 C135.33819,32.8458445 135.175959,33.0318615 134.96203,33.134093 C134.748101,33.2363245 134.501457,33.2456994 134.280385,33.1600022 C130.46021,31.6272267 126.395517,30.7939646 122.280385,30.7000022 C117.000385,30.7000022 113.610385,33.0200022 113.610385,36.6300022 C113.610385,46.4600022 138.750385,40.0500022 138.750385,57.6300022 C138.750385,65.6300022 131.750385,71.0100022 121.610385,71.0100022 C115.964984,70.9277274 110.388961,69.7527555 105.190385,67.5500022 C104.800223,67.3852568 104.588084,66.9609787 104.690385,66.5500022 L106.230385,61.4200022 C106.300702,61.1947974 106.460449,61.0083697 106.67222,60.9043752 C106.88399,60.8003808 107.129185,60.787953 107.350385,60.8700022 C112.350385,62.7300022 117.020385,63.8700022 120.930385,63.8700022 C126.490385,63.8700022 129.930385,61.4800022 129.930385,57.6600022 C129.930385,47.5600022 104.720385,53.8400022 104.720385,36.6600022 C104.720385,28.8800022 111.630385,23.5600022 121.600385,23.5600022" id="Path" fill="#0D2835"></path>
                <path d="M147.000385,22.0000022 C149.628556,21.8954141 151.888398,23.84491 152.170385,26.4600022 C152.356608,28.0709047 151.809029,29.6802162 150.678957,30.84324 C149.548886,32.0062639 147.955973,32.5998602 146.340385,32.4600022 C143.693226,32.191818 141.719764,29.8975031 141.850385,27.2400022 C141.782735,25.8463887 142.300468,24.4878973 143.278479,23.4927947 C144.25649,22.4976921 145.605809,21.9565035 147.000385,22.0000022 M143.500385,36.7700022 L150.500385,36.7700022 C150.971472,36.7700022 151.354907,37.1489471 151.360385,37.6200022 L151.360385,69.3600022 C151.354982,69.832711 150.973094,70.2145993 150.500385,70.2200022 L143.500385,70.2200022 C143.030943,70.2200022 142.650326,69.8394442 142.650326,69.3700022 L142.650326,37.6300022 C142.647712,37.4028405 142.736084,37.1840618 142.895781,37.0224865 C143.055477,36.8609112 143.273208,36.7700022 143.500385,36.7700022" id="Shape" fill="#0D2835"></path>
                <path d="M157.250385,36.7700022 L162.640385,36.7700022 C163.03719,36.7692986 163.381688,37.0432365 163.470385,37.4300022 L164.370385,41.2300022 L164.470385,41.2300022 C167.051428,37.8681875 171.072649,35.9280594 175.310385,36.0000022 C180.090385,36.0000022 184.000385,38.2900022 185.910385,42.0700022 L186.000385,42.0700022 C188.783611,38.2571257 193.219753,36.0019013 197.940385,36.0000022 C205.190385,36.0000022 210.340385,41.0000022 210.340385,48.2200022 L210.340385,69.3600022 C210.340385,69.8349671 209.95535,70.2200022 209.480385,70.2200022 L202.480385,70.2200022 C202.010943,70.2200022 201.630385,69.8394442 201.630385,69.3700022 L201.630385,49.5300022 C201.702365,47.8036276 201.04597,46.1263906 199.821329,44.9074546 C198.596688,43.6885186 196.916405,43.0399625 195.190385,43.1200022 C190.790385,43.1200022 187.670385,46.4600022 187.670385,51.2400022 L187.670385,69.3600022 C187.664982,69.832711 187.283094,70.2145993 186.810385,70.2200022 L179.810385,70.2200022 C179.340943,70.2200022 178.960385,69.8394442 178.960385,69.3700022 L178.960385,49.7500022 C178.979266,47.9876342 178.288194,46.2918001 177.042881,45.044606 C175.797569,43.7974119 174.102779,43.1037809 172.340385,43.1200022 C168.000385,43.2400022 165.000385,46.5500022 165.000385,51.2400022 L165.000385,69.3600022 C164.994982,69.832711 164.613094,70.2145993 164.140385,70.2200022 L157.140385,70.2200022 C156.670943,70.2200022 156.290385,69.8394442 156.290385,69.3700022 L156.290385,37.6300022 C156.290385,37.1589153 156.66933,36.7754799 157.140385,36.7700022" id="Path" fill="#0D2835"></path>
                <path d="M216.110385,36.7700022 L221.510385,36.7700022 C221.898817,36.7680811 222.237905,37.0327352 222.330385,37.4100022 L223.230385,40.9600022 L223.330385,40.9600022 C225.851635,37.7047111 229.77445,35.8473178 233.890385,35.9600022 C242.890385,35.9600022 249.140385,43.2000022 249.140385,53.5000022 C249.140385,63.8000022 242.840385,71.0000022 233.890385,71.0000022 C230.078572,71.1150947 226.4277,69.4613121 224.000385,66.5200022 L223.900385,66.5200022 L223.900385,83.5200022 C223.900417,83.9910891 223.52144,84.3745244 223.050385,84.3800022 L216.050385,84.3800022 C215.57933,84.3745244 215.200385,83.9910891 215.200385,83.5200022 L215.200385,37.6300022 C215.200385,37.1589153 215.57933,36.7754799 216.050385,36.7700022 M231.600385,42.8500022 C226.990385,42.8500022 223.740385,46.3300022 223.740385,51.2400022 L223.740385,55.7500022 C223.740385,60.5900022 226.990385,64.1400022 231.600385,64.1400022 C236.680385,64.1400022 240.270385,59.7100022 240.270385,53.4900022 C240.270385,47.2700022 236.680385,42.8500022 231.600385,42.8500022" id="Shape" fill="#0D2835"></path>
                <path d="M262.080385,60.6600022 C262.008386,61.5819198 262.341256,62.4895161 262.992248,63.1462695 C263.64324,63.8030228 264.547869,64.1438761 265.470385,64.0800022 C266.179456,64.0556135 266.885247,63.971989 267.580385,63.8300022 C267.809261,63.7867476 268.04586,63.8393128 268.234889,63.9754135 C268.423918,64.1115142 268.548812,64.3192243 268.580385,64.5500022 L269.290385,69.4800022 C269.375914,69.9433289 269.07271,70.3892165 268.610385,70.4800022 C266.886868,70.8454152 265.132006,71.0430047 263.370385,71.0700022 C257.270385,71.0700022 253.370385,67.3800022 253.370385,61.5800022 L253.370385,23.0000022 C253.370385,22.5250373 253.75542,22.1400022 254.230385,22.1400022 L261.230385,22.1400022 C261.70144,22.1454799 262.080417,22.5289153 262.080385,23.0000022 L262.080385,60.6600022 Z" id="Path" fill="#0D2835"></path>
                <path d="M286.000385,74.0000022 C283.000385,81.5800022 278.820385,85.2700022 272.720385,85.2700022 C271.266527,85.249315 269.817428,85.0987157 268.390385,84.8200022 C267.931235,84.7244386 267.630467,84.2821322 267.710385,83.8200022 L268.570385,78.7000022 C268.656441,78.2336138 269.103817,77.924924 269.570385,78.0100022 C270.33322,78.1759244 271.109979,78.2696713 271.890385,78.2900022 C274.890385,78.2900022 276.630385,76.6600022 278.190385,72.7700022 L279.330385,69.8500022 L279.330385,69.8500022 L266.210385,38.0000022 C266.101017,37.7369102 266.129051,37.4367296 266.285242,37.1984379 C266.441433,36.9601461 266.705505,36.8146795 266.990385,36.8100022 L274.200385,36.8100022 C274.557449,36.8124873 274.875833,37.0353563 275.000385,37.3700022 L283.350385,60.2100022 L283.460385,60.2100022 L291.600385,37.3800022 C291.719161,37.0395523 292.039812,36.811088 292.400385,36.8100022 L299.560385,36.8100022 C299.844406,36.8127211 300.108768,36.9555011 300.266783,37.1915239 C300.424798,37.4275467 300.456085,37.7263679 300.350385,37.9900022 L286.000385,74.0000022 Z" id="Path" fill="#0D2835"></path>
                <path d="M303.640385,22.1600022 L310.640385,22.1600022 C311.113094,22.1654051 311.494982,22.5472933 311.500385,23.0200022 L311.500385,40.9000022 L311.600385,40.9000022 C314.154129,37.6245684 318.119209,35.7665177 322.270385,35.9000022 C329.860385,35.9000022 335.210385,41.1600022 335.210385,48.6700022 L335.210385,69.3600022 C335.210385,69.8349671 334.82535,70.2200022 334.350385,70.2200022 L327.400385,70.2200022 C326.927676,70.2145993 326.545788,69.832711 326.540385,69.3600022 L326.540385,50.0800022 C326.631117,48.2129288 325.935393,46.3932546 324.622194,45.0629521 C323.308995,43.7326496 321.498476,43.0134376 319.630385,43.0800022 C314.950385,43.0800022 311.500385,46.6300022 311.500385,51.7500022 L311.500385,69.3600022 C311.494982,69.832711 311.113094,70.2145993 310.640385,70.2200022 L303.640385,70.2200022 C303.170943,70.2200022 302.790385,69.8394442 302.790385,69.3700022 L302.790385,23.0000022 C302.790385,22.5289153 303.16933,22.1454799 303.640385,22.1400022" id="Path" fill="#0D2835"></path>
                <path d="M356.000385,36.0000022 C365.420385,36.0000022 372.000385,42.9000022 372.000385,52.9300022 C372.000385,53.8700022 371.930385,54.8100022 371.870385,55.6800022 L371.810385,55.6800022 L347.720385,55.6800022 L347.660385,55.7500022 C348.300385,61.0300022 352.490385,64.5500022 358.160385,64.5500022 C361.220223,64.4628058 364.215664,63.6505411 366.900385,62.1800022 C367.110139,62.0712054 367.355418,62.0535053 367.57862,62.1310585 C367.801821,62.2086117 367.983281,62.3745853 368.080385,62.5900022 L370.000385,66.9200022 C370.192824,67.351018 370.006461,67.8568604 369.580385,68.0600022 C365.671299,69.9485718 361.400877,70.9718358 357.060385,71.0600022 C346.360385,71.0000022 339.000385,63.8000022 339.000385,53.4900022 C339.000385,43.1800022 346.000385,36.0000022 356.000385,36.0000022 M347.730385,50.4700022 L363.590385,50.4700022 L363.650385,50.4100022 C363.360385,45.6700022 360.310385,42.4900022 356.000385,42.4900022 C351.540385,42.4900022 348.240385,45.6600022 347.670385,50.4100022 C347.670385,50.4100022 347.670385,50.4700022 347.730385,50.4700022" id="Shape" fill="#0D2835"></path>
                <path d="M389.050385,49.4000022 C391.194769,49.3969442 393.333418,49.621536 395.430385,50.0700022 L395.490385,50.0100022 L395.490385,48.3100022 C395.490385,44.8900022 392.780385,42.4400022 388.650385,42.4400022 C385.189718,42.5069415 381.770338,43.2050507 378.560385,44.5000022 C378.345705,44.5842673 378.106175,44.578776 377.895582,44.4847611 C377.684989,44.3907463 377.520981,44.216087 377.440385,44.0000022 L375.860385,39.5600022 C375.699391,39.1099796 375.931577,38.6143514 376.380385,38.4500022 C380.628079,36.8571074 385.123927,36.0276777 389.660385,36.0000022 C398.070385,36.0000022 403.660385,41.0000022 403.660385,48.4900022 L403.660385,62.0000022 C403.607779,62.6344428 403.831321,63.2607526 404.273752,63.7185053 C404.716182,64.1762581 405.334522,64.4209856 405.970385,64.3900022 C406.251284,64.3856666 406.531721,64.3656353 406.810385,64.3300022 C407.282453,64.2835065 407.703028,64.6280201 407.750385,65.1000022 L408.200385,69.7400022 C408.243559,70.1880367 407.933958,70.59357 407.490385,70.6700022 C406.225254,70.8885718 404.944234,71.0022916 403.660385,71.0100022 C400.606104,71.1595526 397.781496,69.3921772 396.580385,66.5800022 L396.490385,66.5800022 C393.581969,69.4267035 389.670076,71.0144508 385.600385,71.0000022 C378.690385,71.0000022 373.740385,66.6300022 373.740385,60.4900022 C373.740385,53.4900022 379.430385,49.3600022 389.050385,49.3600022 M387.840385,64.8600022 C392.440385,64.8600022 395.490385,61.6500022 395.490385,57.0700022 L395.490385,55.1800022 L395.490385,55.1200022 C393.734158,54.6618861 391.92533,54.436623 390.110385,54.4500022 C385.160385,54.4500022 382.110385,56.5700022 382.110385,60.0500022 C382.110385,62.7800022 384.620385,64.9000022 387.880385,64.9000022" id="Shape" fill="#0D2835"></path>
                <path d="M419.130385,60.6600022 C419.058729,61.5800627 419.390296,62.4858728 420.038997,63.1422511 C420.687698,63.7986294 421.589545,64.1408289 422.510385,64.0800022 C423.219499,64.0561779 423.925337,63.9725477 424.620385,63.8300022 C424.849261,63.7867476 425.08586,63.8393128 425.274889,63.9754135 C425.463918,64.1115142 425.588812,64.3192243 425.620385,64.5500022 L426.330385,69.4800022 C426.374241,69.7029373 426.327019,69.9341512 426.199257,70.1220355 C426.071496,70.3099197 425.873832,70.4388334 425.650385,70.4800022 C423.926868,70.8454152 422.172006,71.0430047 420.410385,71.0700022 C414.310385,71.0700022 410.410385,67.3800022 410.410385,61.5800022 L410.410385,23.0000022 C410.415788,22.5272933 410.797676,22.1454051 411.270385,22.1400022 L418.270385,22.1400022 C418.74535,22.1400022 419.130385,22.5250373 419.130385,23.0000022 L419.130385,60.6600022 Z" id="Path" fill="#0D2835"></path>
                <path d="M438.050385,36.7700022 L446.350385,36.7700022 C446.821472,36.7699703 447.204907,37.1489471 447.210385,37.6200022 L447.210385,42.5300022 C447.210385,43.0049671 446.82535,43.3900022 446.350385,43.3900022 L438.050385,43.3900022 C438.017248,43.3900022 437.990385,43.4168651 437.990385,43.4500022 L437.990385,59.3100022 C437.951083,61.877421 439.983644,63.9991295 442.550385,64.0700022 C443.728084,64.0734773 444.902338,63.9426319 446.050385,63.6800022 C446.27332,63.6361457 446.504534,63.6833684 446.692418,63.8111297 C446.880303,63.938891 447.009216,64.1365551 447.050385,64.3600022 L447.910385,69.2200022 C447.992237,69.6727728 447.707395,70.1109917 447.260385,70.2200022 C445.056143,70.7529556 442.798066,71.0314406 440.530385,71.0500022 C433.880385,71.0500022 429.280385,66.6800022 429.280385,60.2600022 L429.280385,43.4500022 C429.280385,43.4168651 429.253522,43.3900022 429.220385,43.3900022 L424.000385,43.3900022 C423.530943,43.3900022 423.150385,43.0094442 423.150385,42.5400022 L423.150385,37.6300022 C423.155788,37.1572933 423.537676,36.7754051 424.010385,36.7700022 L429.260385,36.7700022 C429.276298,36.7700022 429.291559,36.7636808 429.302811,36.7524286 C429.314064,36.7411764 429.320385,36.7259152 429.320385,36.7100022 L429.320385,27.7900022 C429.320385,27.3205601 429.700943,26.9400022 430.170385,26.9400022 L437.170385,26.9400022 C437.639827,26.9400022 438.020385,27.3205601 438.020385,27.7900022 L438.020385,36.7100022 C438.020385,36.7259152 438.026706,36.7411764 438.037959,36.7524286 C438.049211,36.7636808 438.064472,36.7700022 438.080385,36.7700022" id="Path" fill="#0D2835"></path>
                <path d="M452.460385,22.1600022 L459.460385,22.1600022 C459.687562,22.1599864 459.905293,22.2509112 460.064989,22.4124865 C460.224686,22.5740618 460.313058,22.7928405 460.310385,23.0200022 L460.310385,40.9000022 L460.410385,40.9000022 C462.96623,37.621665 466.935731,35.7632841 471.090385,35.9000022 C478.650385,36.0000022 484.000385,41.2100022 484.000385,48.7200022 L484.000385,69.3600022 C483.994982,69.832711 483.613094,70.2145993 483.140385,70.2200022 L476.140385,70.2200022 C475.670943,70.2200022 475.290385,69.8394442 475.290385,69.3700022 L475.290385,50.0800022 C475.381117,48.2129288 474.685393,46.3932546 473.372194,45.0629521 C472.058995,43.7326496 470.248476,43.0134376 468.380385,43.0800022 C463.700385,43.0800022 460.240385,46.6300022 460.240385,51.7500022 L460.240385,69.3600022 C460.240385,69.8349671 459.85535,70.2200022 459.380385,70.2200022 L452.380385,70.2200022 C452.153208,70.2200022 451.935477,70.1290932 451.775781,69.9675179 C451.616084,69.8059426 451.527712,69.5871638 451.530326,69.3600022 L451.530326,23.0000022 C451.530326,22.5289153 451.90933,22.1454799 452.380385,22.1400022" id="Path" fill="#0D2835"></path>
                <path d="M35.810385,35.4700022 C35.5124599,38.774873 36.6404295,42.0496235 38.910385,44.4700022 L57.590385,64.4700022 C58.596923,62.527139 59.0827181,60.3565651 59.000385,58.1700022 C58.8320181,55.0842795 57.5699118,52.1594546 55.440385,49.9200022 L37.440385,30.5400022 C36.5503348,32.0431799 36.0134864,33.7289523 35.870385,35.4700022" id="Path" fill="#00E6B8"></path>
                <path d="M22.770385,14.6500022 C28.1504325,14.8065619 33.32551,16.7485352 37.480385,20.1700022 C42.2471193,17.2527008 48.0634272,16.6034903 53.3560861,18.3979721 C58.6487449,20.1924539 62.8708496,24.2451992 64.880385,29.4600022 C64.9896713,29.7313524 64.9830955,30.0356154 64.8621876,30.3019906 C64.7412797,30.5683658 64.5165836,30.7736238 64.240385,30.8700022 L59.670385,32.3700022 C58.670385,32.6800022 58.160385,32.4400022 57.960385,31.9500022 C55.907324,26.9287081 50.6340525,24.0152985 45.290385,24.9500022 C44.4798296,25.0935562 43.6881248,25.328384 42.930385,25.6500022 L60.710385,44.8000022 C64.1567053,48.4331062 66.1494169,53.204939 66.310385,58.2100022 C66.4190506,62.2960335 65.2630323,66.3159036 63.000385,69.7200022 C65.6376867,71.5880453 68.7697177,72.6320556 72.000385,72.7200022 C81.560385,73.0100022 89.290385,67.1400022 92.640385,57.9300022 C93.4492426,54.4207528 93.8585116,50.8312629 93.8605421,47.2300022 C93.9268011,21.2390757 72.9311853,0.104742023 46.940385,0 C33.8274634,-0.0039951298 21.318882,5.51342907 12.480385,15.2000022 C12.3229266,15.3642742 12.2992771,15.6153281 12.4232885,15.8061149 C12.5472999,15.9969017 12.7863352,16.0772105 13.000385,16 C16.1597161,14.9955291 19.4668601,14.53564 22.780385,14.6400022" id="Path" fill="#00E6B8"></path>
                <path d="M71.800385,80.1700022 C66.7005295,80.0164289 61.7880632,78.212852 57.800385,75.0300022 C54.3813538,77.4221232 50.2812474,78.6461926 46.110385,78.5200022 C37.5812012,78.2373264 30.2083754,72.4845023 27.860385,64.2800022 C27.7755692,64.0075397 27.8111941,63.7118212 27.9582907,63.467297 C28.1053873,63.2227728 28.3499418,63.0527385 28.630385,63.0000022 L33.310385,61.8900022 C34.310385,61.6600022 34.810385,61.9500022 34.970385,62.4700022 C36.5394754,67.4637519 41.0797088,70.9309848 46.310385,71.1300022 C48.4371785,71.1970407 50.5442361,70.7038996 52.420385,69.7000022 L33.560385,49.4900022 C27.3377205,42.8188624 26.6849579,32.6843055 32.000385,25.2700022 C29.2380538,23.2712822 25.9385341,22.1493758 22.530385,22.0500022 C12.280385,21.7300022 4.06038499,28.2200022 0.860384989,38.2600022 C0.290546059,41.2261697 0.00259655614,44.2395947 -7.10542736e-15,47.2600022 C-0.0501044451,59.7587598 4.86732108,71.7655037 13.6705859,80.6381594 C22.4738507,89.5108151 34.4416162,94.5223581 46.940385,94.570004 C59.7824303,94.5736062 72.0574868,89.2808248 80.870385,79.9400022 C81.020566,79.7758339 81.0441974,79.532179 80.928363,79.3422107 C80.8125287,79.1522423 80.5851015,79.061672 80.370385,79.1200022 C77.5822948,79.89285 74.6915102,80.2301644 71.800385,80.1200022" id="Path" fill="#00E6B8"></path>
                <path d="M116.280385,96.3500022 L119.280385,96.3500022 L130.080385,122.560002 L126.800385,122.560002 L123.920385,115.380002 L111.640385,115.380002 L108.760385,122.560002 L105.480385,122.560002 L116.280385,96.3500022 Z M112.540385,112.920002 L123.000385,112.920002 L117.770385,100.000002 L112.540385,112.920002 Z" id="Shape" stroke="#0D2835" stroke-width="1.25" fill="#0D2835" stroke-linecap="round" stroke-linejoin="round"></path>
                <path d="M137.110385,118.190002 C137.065184,118.812761 137.292949,119.424407 137.734464,119.865923 C138.17598,120.307438 138.787626,120.535203 139.410385,120.490002 C140.041465,120.465862 140.668251,120.375363 141.280385,120.220002 L141.670385,122.670002 C140.712883,122.893688 139.733627,123.011065 138.750385,123.020002 C135.820385,123.020002 134.030385,121.270002 134.030385,118.460002 L134.030385,95.1000022 L137.110385,95.1000022 L137.110385,118.190002 Z" id="Path" stroke="#0D2835" stroke-width="1.25" fill="#0D2835" stroke-linecap="round" stroke-linejoin="round"></path>
                <path d="M147.830385,118.190002 C147.785184,118.812761 148.012949,119.424407 148.454464,119.865923 C148.89598,120.307438 149.507626,120.535203 150.130385,120.490002 C150.764721,120.465461 151.394781,120.374974 152.010385,120.220002 L152.400385,122.670002 C151.439413,122.893221 150.456896,123.010586 149.470385,123.020002 C146.550385,123.020002 144.750385,121.270002 144.750385,118.460002 L144.750385,95.1000022 L147.830385,95.1000022 L147.830385,118.190002 Z" id="Path" stroke="#0D2835" stroke-width="1.25" fill="#0D2835" stroke-linecap="round" stroke-linejoin="round"></path>
                <path d="M169.710385,103.600002 L175.710385,103.600002 L175.710385,106.060002 L169.710385,106.060002 L169.710385,117.210002 C169.663793,118.093373 169.994375,118.955 170.619881,119.580506 C171.245387,120.206012 172.107014,120.536594 172.990385,120.490002 C173.898928,120.462302 174.801383,120.331463 175.680385,120.100002 L176.110385,122.520002 C174.877369,122.849732 173.606726,123.017806 172.330385,123.020002 C170.819218,123.123204 169.335318,122.579794 168.248184,121.525083 C167.161049,120.470372 166.572972,119.003601 166.630385,117.490002 L166.630385,106.060002 L162.690385,106.060002 L162.690385,103.600002 L166.630385,103.600002 L166.630385,98.0000022 L169.710385,98.0000022 L169.710385,103.600002 Z" id="Path" stroke="#0D2835" stroke-width="1.25" fill="#0D2835" stroke-linecap="round" stroke-linejoin="round"></path>
                <path d="M187.850385,103.130002 C193.460385,103.130002 197.480385,107.230002 197.480385,113.130002 C197.480385,119.030002 193.480385,123.070002 187.850385,123.070002 C182.220385,123.070002 178.180385,118.980002 178.180385,113.130002 C178.180385,107.280002 182.190385,103.130002 187.850385,103.130002 Z M187.850385,120.530002 C191.630385,120.530002 194.320385,117.530002 194.320385,113.080002 C194.320385,108.630002 191.630385,105.630002 187.850385,105.630002 C184.070385,105.630002 181.370385,108.710002 181.370385,113.080002 C181.370385,117.450002 184.000385,120.530002 187.850385,120.530002 Z" id="Shape" stroke="#0D2835" stroke-width="1.25" fill="#0D2835" stroke-linecap="round" stroke-linejoin="round"></path>
                <path d="M219.000385,122.910002 C219.000385,127.710002 215.060385,131.140002 209.640385,131.140002 C207.057841,131.075501 204.51307,130.504711 202.150385,129.460002 L203.090385,127.120002 C205.076815,128.036719 207.224351,128.553215 209.410385,128.640002 C213.190385,128.640002 215.880385,126.340002 215.880385,123.020002 L215.880385,119.590002 C214.556846,121.780168 212.158444,123.090124 209.600385,123.020002 C204.600385,123.020002 201.020385,118.890002 201.020385,113.080002 C201.020385,107.270002 204.610385,103.080002 209.600385,103.080002 C212.273859,102.996477 214.776145,104.391761 216.110385,106.710002 L216.500385,103.550002 L219.000385,103.550002 L219.000385,122.910002 Z M210.340385,120.490002 C213.620385,120.490002 215.920385,118.070002 215.920385,114.600002 L215.920385,111.600002 C215.920385,108.170002 213.620385,105.710002 210.340385,105.710002 C206.750385,105.710002 204.220385,108.790002 204.220385,113.120002 C204.220385,117.450002 206.720385,120.490002 210.310385,120.490002 L210.340385,120.490002 Z" id="Shape" stroke="#0D2835" stroke-width="1.25" fill="#0D2835" stroke-linecap="round" stroke-linejoin="round"></path>
                <path d="M233.050385,103.130002 C238.120385,103.130002 241.630385,107.070002 241.630385,112.730002 C241.650344,113.106404 241.650344,113.4836 241.630385,113.860002 L226.930385,113.860002 C226.951377,115.690878 227.702368,117.437624 229.016642,118.71247 C230.330915,119.987315 232.099719,120.68477 233.930385,120.650002 C235.945571,120.592766 237.916169,120.043471 239.670385,119.050002 L240.670385,121.190002 C238.508953,122.330514 236.113448,122.956768 233.670385,123.020002 C231.00994,123.12691 228.426957,122.11126 226.551842,120.220931 C224.676728,118.330602 223.681982,115.739496 223.810385,113.080002 C223.810385,107.230002 227.630385,103.130002 233.050385,103.130002 Z M226.930385,111.870002 L238.630385,111.870002 C238.510385,108.130002 236.250385,105.510002 233.050385,105.510002 C229.660385,105.510002 227.240385,108.050002 226.930385,111.870002 L226.930385,111.870002 Z" id="Shape" stroke="#0D2835" stroke-width="1.25" fill="#0D2835" stroke-linecap="round" stroke-linejoin="round"></path>
                <path d="M250.680385,103.600002 L256.680385,103.600002 L256.680385,106.060002 L250.680385,106.060002 L250.680385,117.210002 C250.630831,118.09241 250.959051,118.954226 251.583036,119.580119 C252.20702,120.206012 253.06783,120.536861 253.950385,120.490002 C254.858928,120.462302 255.761383,120.331463 256.640385,120.100002 L257.070385,122.520002 C255.837614,122.850964 254.566809,123.01906 253.290385,123.020002 C251.78089,123.120237 250.299716,122.575506 249.214847,121.521143 C248.129978,120.46678 247.543234,119.001741 247.600385,117.490002 L247.600385,106.060002 L243.660385,106.060002 L243.660385,103.600002 L247.600385,103.600002 L247.600385,98.0000022 L250.680385,98.0000022 L250.680385,103.600002 Z" id="Path" stroke="#0D2835" stroke-width="1.25" fill="#0D2835" stroke-linecap="round" stroke-linejoin="round"></path>
                <path d="M261.440385,95.1000022 L264.520385,95.1000022 L264.520385,106.920002 C265.845751,104.514268 268.404849,103.051375 271.150385,103.130002 C273.067397,103.025309 274.940358,103.729908 276.313035,105.072165 C277.685712,106.414422 278.432099,108.271126 278.370385,110.190002 L278.370385,122.560002 L275.250385,122.560002 L275.250385,110.660002 C275.297166,109.328144 274.782295,108.037893 273.831429,107.104143 C272.880563,106.170392 271.581174,105.67904 270.250385,105.750002 C266.980385,105.750002 264.520385,108.240002 264.520385,111.870002 L264.520385,122.560002 L261.440385,122.560002 L261.440385,95.1000022 Z" id="Path" stroke="#0D2835" stroke-width="1.25" fill="#0D2835" stroke-linecap="round" stroke-linejoin="round"></path>
                <path d="M292.130385,103.130002 C297.200385,103.130002 300.710385,107.070002 300.710385,112.730002 C300.730344,113.106404 300.730344,113.4836 300.710385,113.860002 L286.000385,113.860002 C286.021123,115.701526 286.780361,117.457619 288.107732,118.734226 C289.435103,120.010834 291.219452,120.701052 293.060385,120.650002 C295.072227,120.591548 297.039297,120.042279 298.790385,119.050002 L299.790385,121.190002 C297.627392,122.326491 295.232841,122.952495 292.790385,123.020002 C290.129111,123.126693 287.545274,122.111322 285.668624,120.221363 C283.791975,118.331404 282.794889,115.740455 282.920385,113.080002 C282.890385,107.230002 286.710385,103.130002 292.130385,103.130002 Z M286.000385,111.870002 L297.700385,111.870002 C297.580385,108.130002 295.320385,105.510002 292.120385,105.510002 C288.740385,105.510002 286.320385,108.050002 286.000385,111.870002 Z" id="Shape" stroke="#0D2835" stroke-width="1.25" fill="#0D2835" stroke-linecap="round" stroke-linejoin="round"></path>
                <path d="M305.280385,103.600002 L307.770385,103.600002 L308.160385,107.190002 C309.094645,104.769779 311.457483,103.205251 314.050385,103.290002 C314.852579,103.307167 315.650559,103.411106 316.430385,103.600002 L316.080385,106.140002 C315.338869,105.968158 314.581418,105.874315 313.820385,105.860002 C310.580385,105.860002 308.360385,108.480002 308.360385,112.300002 L308.360385,122.560002 L305.280385,122.560002 L305.280385,103.600002 Z" id="Path" stroke="#0D2835" stroke-width="1.25" fill="#0D2835" stroke-linecap="round" stroke-linejoin="round"></path>
                <path d="M329.100385,95.1000022 L332.180385,95.1000022 L332.180385,106.920002 C333.50744,104.515932 336.065425,103.053675 338.810385,103.130002 C340.728223,103.022194 342.603008,103.725771 343.976398,105.068726 C345.349788,106.41168 346.095195,108.27023 346.030385,110.190002 L346.030385,122.560002 L342.910385,122.560002 L342.910385,110.660002 C342.957166,109.328144 342.442295,108.037893 341.491429,107.104143 C340.540563,106.170392 339.241174,105.67904 337.910385,105.750002 C334.630385,105.750002 332.170385,108.240002 332.170385,111.870002 L332.170385,122.560002 L329.100385,122.560002 L329.100385,95.1000022 Z" id="Path" stroke="#009B7D" stroke-width="1.25" fill="#009B7D" stroke-linecap="round" stroke-linejoin="round"></path>
                <path d="M359.790385,103.130002 C364.870385,103.130002 368.380385,107.070002 368.380385,112.730002 C368.400344,113.106404 368.400344,113.4836 368.380385,113.860002 L353.670385,113.860002 C353.693831,115.700652 354.453913,117.45514 355.780677,118.731163 C357.107442,120.007187 358.89022,120.698312 360.730385,120.650002 C362.742595,120.593978 364.71024,120.044548 366.460385,119.050002 L367.460385,121.190002 C365.298429,122.329167 362.903245,122.955336 360.460385,123.020002 C357.799111,123.126693 355.215274,122.111322 353.338624,120.221363 C351.461975,118.331404 350.464889,115.740455 350.590385,113.080002 C350.550385,107.230002 354.370385,103.130002 359.790385,103.130002 Z M353.670385,111.870002 L365.370385,111.870002 C365.260385,108.130002 362.990385,105.510002 359.790385,105.510002 C356.400385,105.510002 354.000385,108.050002 353.670385,111.870002 L353.670385,111.870002 Z" id="Shape" stroke="#009B7D" stroke-width="1.25" fill="#009B7D" stroke-linecap="round" stroke-linejoin="round"></path>
                <path d="M380.230385,111.050002 C381.664786,111.050164 383.093196,111.235017 384.480385,111.600002 L384.480385,109.650002 C384.480385,107.230002 382.610385,105.510002 379.840385,105.510002 C377.672447,105.543848 375.534709,106.023818 373.560385,106.920002 L372.700385,104.660002 C375.079862,103.687607 377.620177,103.168691 380.190385,103.130002 C384.480385,103.130002 387.450385,105.790002 387.450385,109.730002 L387.450385,118.890002 C387.407131,119.356314 387.57297,119.817787 387.90315,120.149898 C388.233331,120.48201 388.693829,120.650536 389.160385,120.610002 C389.496075,120.592977 389.830197,120.552883 390.160385,120.490002 L390.390385,122.830002 C389.730965,122.9546 389.061471,123.018202 388.390385,123.020002 C387.490771,123.085958 386.601966,122.79066 385.920685,122.199466 C385.239404,121.608271 384.821831,120.769935 384.760385,119.870002 C383.172522,121.886957 380.737183,123.051042 378.170385,123.020002 C374.430385,123.020002 371.580362,120.570002 371.580362,117.330002 C371.570385,113.350002 374.850385,111.050002 380.230385,111.050002 Z M378.900385,120.760002 C380.415236,120.812765 381.882517,120.226423 382.943817,119.144202 C384.005116,118.061981 384.562706,116.583535 384.480385,115.070002 L384.480385,113.470002 C383.202914,113.163161 381.894179,113.005441 380.580385,113.000002 C376.840385,113.000002 374.580385,114.560002 374.580385,117.140002 C374.610385,119.200002 376.450385,120.760002 378.900385,120.760002 L378.900385,120.760002 Z" id="Shape" stroke="#009B7D" stroke-width="1.25" fill="#009B7D" stroke-linecap="round" stroke-linejoin="round"></path>
                <path d="M396.570385,118.190002 C396.525184,118.812761 396.752949,119.424407 397.194464,119.865923 C397.63598,120.307438 398.247626,120.535203 398.870385,120.490002 C399.501465,120.465862 400.128251,120.375363 400.740385,120.220002 L401.130385,122.670002 C400.172883,122.893688 399.193627,123.011065 398.210385,123.020002 C395.280385,123.020002 393.490385,121.270002 393.490385,118.460002 L393.490385,95.1000022 L396.570385,95.1000022 L396.570385,118.190002 Z" id="Path" stroke="#009B7D" stroke-width="1.25" fill="#009B7D" stroke-linecap="round" stroke-linejoin="round"></path>
                <path d="M408.230385,103.600002 L414.230385,103.600002 L414.230385,106.060002 L408.230385,106.060002 L408.230385,117.210002 C408.183793,118.093373 408.514375,118.955 409.139881,119.580506 C409.765387,120.206012 410.627014,120.536594 411.510385,120.490002 C412.418928,120.462302 413.321383,120.331463 414.200385,120.100002 L414.630385,122.520002 C413.39409,122.850369 412.120059,123.018447 410.840385,123.020002 C409.33089,123.120237 407.849716,122.575506 406.764847,121.521143 C405.679978,120.46678 405.093234,119.001741 405.150385,117.490002 L405.150385,106.060002 L401.210385,106.060002 L401.210385,103.600002 L405.150385,103.600002 L405.150385,98.0000022 L408.230385,98.0000022 L408.230385,103.600002 Z" id="Path" stroke="#009B7D" stroke-width="1.25" fill="#009B7D" stroke-linecap="round" stroke-linejoin="round"></path>
                <path d="M419.000385,95.1000022 L422.090385,95.1000022 L422.090385,106.920002 C423.414055,104.512599 425.974271,103.049066 428.720385,103.130002 C430.636539,103.025108 432.508624,103.72998 433.879766,105.072596 C435.250908,106.415212 435.994977,108.272067 435.930385,110.190002 L435.930385,122.560002 L432.800385,122.560002 L432.800385,110.660002 C432.847166,109.328144 432.332295,108.037893 431.381429,107.104143 C430.430563,106.170392 429.131174,105.67904 427.800385,105.750002 C424.520385,105.750002 422.070385,108.240002 422.070385,111.870002 L422.070385,122.560002 L419.000385,122.560002 L419.000385,95.1000022 Z" id="Path" stroke="#009B7D" stroke-width="1.25" fill="#009B7D" stroke-linecap="round" stroke-linejoin="round"></path>
                <path d="M443.370385,95.7600022 C444.508148,95.7819921 445.414804,96.7182726 445.400215,97.8561544 C445.385625,98.9940363 444.455261,99.9067631 443.317309,99.8995744 C442.179356,99.8923856 441.260597,98.9679775 441.260385,97.8300022 C441.239826,97.2679014 441.456914,96.7231264 441.858432,96.3292195 C442.259951,95.9353126 442.808781,95.7286901 443.370385,95.7600022 L443.370385,95.7600022 Z M441.810385,103.600002 L444.890385,103.600002 L444.890385,122.600002 L441.810385,122.600002 L441.810385,103.600002 Z" id="Shape" stroke="#009B7D" stroke-width="1.25" fill="#009B7D" stroke-linecap="round" stroke-linejoin="round"></path>
                <path d="M459.000385,103.130002 C464.070385,103.130002 467.580385,107.070002 467.580385,112.730002 C467.600344,113.106404 467.600344,113.4836 467.580385,113.860002 L452.880385,113.860002 C452.906525,115.699779 453.667447,117.452672 454.993608,118.728116 C456.31977,120.00356 458.100987,120.695586 459.940385,120.650002 C461.955571,120.592766 463.926169,120.043471 465.680385,119.050002 L466.680385,121.190002 C464.518953,122.330514 462.123448,122.956768 459.680385,123.020002 C457.019111,123.126693 454.435274,122.111322 452.558624,120.221363 C450.681975,118.331404 449.684889,115.740455 449.810385,113.080002 C449.760385,107.230002 453.590385,103.130002 459.000385,103.130002 Z M452.870385,111.870002 L464.580385,111.870002 C464.460385,108.130002 462.200385,105.510002 459.000385,105.510002 C455.620385,105.510002 453.200385,108.050002 452.880385,111.870002 L452.870385,111.870002 Z" id="Shape" stroke="#009B7D" stroke-width="1.25" fill="#009B7D" stroke-linecap="round" stroke-linejoin="round"></path>
                <path d="M472.150385,103.600002 L474.650385,103.600002 L475.040385,107.190002 C475.972167,104.767788 478.336618,103.202193 480.930385,103.290002 C481.7293,103.306944 482.52399,103.410891 483.300385,103.600002 L482.950385,106.140002 C482.208869,105.968158 481.451418,105.874315 480.690385,105.860002 C477.450385,105.860002 475.230385,108.480002 475.230385,112.300002 L475.230385,122.560002 L472.150385,122.560002 L472.150385,103.600002 Z" id="Path" stroke="#009B7D" stroke-width="1.25" fill="#009B7D" stroke-linecap="round" stroke-linejoin="round"></path>
            </g>
        </g>
    </g>
</svg>