<?xml version="1.0" encoding="utf-8"?>
<!-- Generator: Adobe Illustrator 19.2.1, SVG Export Plug-In . SVG Version: 6.00 Build 0)  -->
<svg version="1.1" id="layer" xmlns="http://www.w3.org/2000/svg" xmlns:xlink="http://www.w3.org/1999/xlink" x="0px" y="0px"
	 viewBox="0 0 652 652" style="enable-background:new 0 0 652 652;" xml:space="preserve">
<style type="text/css">
	.st0{fill:#007BC0;}
	.st1{stroke:#000000;stroke-width:9.4995;}
	.st2{fill:#FFFFFF;}
	.st3{fill:none;stroke:#FFFFFF;stroke-width:9.776;}
	.st4{fill:none;stroke:#FFFFFF;stroke-width:9.0283;}
</style>
<circle class="st0" cx="320.2" cy="321.2" r="250"/>
<circle class="st1" cx="320.2" cy="321.2" r="215.1"/>
<g>
	<path class="st0" d="M302.6,346.2c-3.2-23.3-14.2-44.7-15.4-66.9c-1-25,4-42.7,12.6-57.5c9.2-15.9,23.5-30.5,33.3-39.7
		c-4.2-0.3-8.5-0.7-12.9-0.7c-77.1,0-139.6,62.5-139.6,139.6c0,51.4,27.8,96.3,69.2,120.5c8.4-6.4,14.1-11.9,14.1-11.9
		C298.2,401.6,306.1,371.1,302.6,346.2z"/>
	<path class="st0" d="M391.7,201.4c-14.6,10.9-24.5,25.5-24.5,25.5C349,252,353,277.5,354.5,285.7c4.4,25.1,10.7,32.7,14.9,66.2
		c6.9,52.6-30.7,90.1-55.1,108.7c1.8,0,3.9,0.2,5.7,0.2c77.1,0,139.6-62.5,139.6-139.6C459.8,270.3,432.5,225.7,391.7,201.4z"/>
	<path class="st2" d="M369.6,351.9c-4.4-33.5-10.7-41.1-14.9-66.2c-1.5-8.4-5.5-33.8,12.7-58.8c0,0,9.9-14.6,24.5-25.5
		c-17.4-10.4-37.4-17.3-58.8-19.1c-9.9,9.2-24,23.8-33.3,39.7c-8.5,14.7-13.6,32.5-12.6,57.5c1,22.1,12.1,43.6,15.4,66.9
		c3.5,25-4.2,55.5-38.5,83.6c0,0-5.9,5.5-14.1,11.9c19.1,11.2,41.1,17.9,64.7,18.9C338.8,442,376.3,404.5,369.6,351.9z"/>
</g>
<g>
	<path class="st2" d="M133,307.5c-1.2-0.2-2.2,0.3-2.8,1c-0.7,0.7-1,1.8-1.2,3.4c-0.2,2,1.2,3.9,2.7,3.9c2.3,0.2,3.2-2.7,3.9-4.9
		c1.5-5.2,2.5-12.9,10.9-12.6c6.7,0.3,9.6,7,9.2,14.2c-0.3,7.4-2.7,13.7-11.2,13.4l0.3-8.7c3,0.2,4.7-2,4.9-5c0.2-2-0.8-4.7-3-4.7
		c-4.4-0.2-3.7,6.4-7,13.1c-1.5,3.2-4.5,4.5-7.9,4.4c-7.4-0.7-9.2-7.4-8.9-13.9c0.3-6.5,2.8-13.1,10.4-12.2L133,307.5z"/>
	<path class="st2" d="M156.7,292.9l-30.7-7.4l3.4-14.1c1.8-7.5,5.4-11.9,12.9-10.1c7.4,1.8,8.7,7.4,6.9,14.7l-1.3,5.5l10.9,2.7
		L156.7,292.9z M142.9,276c0.7-3.4-0.5-5.2-2.7-5.7s-4.2,0.5-5,3.9l-1,4.4l7.9,1.8L142.9,276z"/>
	<path class="st2" d="M150,256.2c-9.4-4.5-12.2-12.4-7.7-21.8c4.5-9.4,12.4-12.1,21.8-7.7c9.4,4.5,12.2,12.4,7.7,21.8
		C167.2,258,159.3,260.7,150,256.2z M147.6,237.1c-2.5,5.4,1.8,8.9,6.4,10.9c4.2,2,9.7,3.4,12.2-2c2.5-5.4-1.8-8.9-6-10.9
		C155.7,232.9,150.3,231.7,147.6,237.1z"/>
	<path class="st2" d="M186.7,222.3l-5.4,6.9l-25-19.1l8.9-11.6c3.2-4.2,8.5-8.9,13.9-4.7c3.7,2.8,3.5,7.2,1.2,11.1l0.2,0.2
		c3.5-4.4,6.4-3.5,10.6-0.8c2.2,1.5,4.5,2.5,6.9,3.5l-5.7,7.5c-2-1-4-2.2-5.9-3.4c-3.2-2-4.5-2.8-7.4,0.7l-2,2.5L186.7,222.3z
		 M174.3,208.6c1.7-2.2,3-4.5,0.5-6.5c-2.5-2-4.5,0-6.2,2.2l-2.2,2.7l5.7,4.4L174.3,208.6z"/>
	<path class="st2" d="M189.3,181l-7.2,6.4l-4-4.5l21.1-18.8l4,4.5l-7.4,6.7l16.9,18.9l-6.5,5.9L189.3,181z"/>
	<path class="st2" d="M226.5,157.3c-0.7-1-1.3-1.7-2.3-1.8c-1-0.2-2.2,0.2-3.4,0.8c-1.7,1-2.5,3-1.7,4.4c1.2,2,4,1.2,6.2,0.5
		c5.2-1.5,12.1-5.2,16.4,2.2c3.5,5.7-0.5,11.7-6.7,15.6c-6.2,3.9-12.9,5.4-17.4-2l7.5-4.5c1.5,2.5,4.2,2.8,6.9,1.2
		c1.7-1,3.4-3.4,2.3-5c-2.2-3.7-7.2,0.5-14.7,1.5c-3.5,0.5-6.4-1.2-8-4.2c-3.5-6.5,1-11.7,6.5-15.1c5.5-3.4,12.4-4.9,15.9,1.8
		L226.5,157.3z"/>
	<path class="st2" d="M267.3,163.2L258,133l8.4-2.5l9.2,30.2L267.3,163.2z"/>
	<path class="st2" d="M278,127l12.1-1.7l13.6,22v-0.2l-3-23.3l7.9-1l4.2,31.3l-12.1,1.5L286.9,133h-0.2l3.2,24l-7.9,1L278,127z"/>
	<path class="st2" d="M327.9,129.7l-9.6-0.7l0.5-6l28.2,2.2l-0.5,6l-9.9-0.7l-1.8,25.3l-8.7-0.7L327.9,129.7z"/>
	<path class="st2" d="M348.7,157.3l8-30.5l23.3,6l-1.5,5.9l-14.7-3.9l-1.7,6.4l13.6,3.5l-1.5,5.9l-13.6-3.5l-1.7,6.5l14.7,3.9
		l-1.5,5.9L348.7,157.3z"/>
	<path class="st2" d="M385,169.2l-7.9-3.7l13.6-28.5l13.2,6.2c4.9,2.3,10.4,6.5,7.5,12.6c-2,4.2-6.4,5-10.6,3.5v0.2
		c5,2.5,4.7,5.5,3.2,10.2c-1,2.5-1.5,4.9-2,7.5l-8.5-4c0.5-2.2,1.2-4.4,2-6.4c1.3-3.5,1.8-5-2.2-7l-3.2-1.5L385,169.2z M395.9,154.3
		c2.5,1.2,5.2,2,6.5-0.8c1.3-2.8-0.8-4.4-3.4-5.7l-3-1.5l-3.2,6.5L395.9,154.3z"/>
	<path class="st2" d="M405.2,178.8l29.2-17.4l8.4,6.5l-9.4,32.5l-7.9-6l2.2-6.2l-10.1-7.9l-5.4,3.7L405.2,178.8z M429.6,182.1
		l4.9-12.9h-0.2l-11.4,7.7L429.6,182.1z"/>
	<path class="st2" d="M464.5,203.6c2-2,1.8-4.7-0.5-7.4c-3.4-3.9-8.4-0.7-11.9,2.5c-3.5,3-6.9,7.4-3.7,11.1c2.3,2.8,5,3.4,7.4,1.5
		l6,6.9c-5.9,5.4-13.1,1.3-18.1-4.4c-6.4-7.4-5.4-15.2,2.5-22.3c8-6.9,15.8-6.7,22.3,0.7c5,5.7,8,13.2,1.8,18.3L464.5,203.6z"/>
	<path class="st2" d="M482.1,221.7l-4.9-8.4l5.2-3l14.4,24.3l-5.2,3.2l-5-8.5l-22,12.9l-4.5-7.5L482.1,221.7z"/>
	<path class="st2" d="M470.5,253.8l29-12.4l3.4,8l-29,12.4L470.5,253.8z"/>
	<path class="st2" d="M512.9,281.8l2.2,8.4l-33.3-3.5l-2.5-10.1l27.8-18.4l2.3,9.4L488.9,280v0.2L512.9,281.8z"/>
	<path class="st2" d="M484.4,302.1l31.5-1.5l1.2,24l-6,0.3l-0.7-15.2l-6.5,0.3l0.7,14.1l-6,0.3l-0.7-14.1l-6.7,0.3l0.7,15.2l-6,0.3
		L484.4,302.1z"/>
</g>
<g>
	<path class="st2" d="M146.4,400.8l14.4-14.9l3.7,6.5l-10.7,9.6l0,0l13.9-3.9l4,7.2l-10.6,9.7l0,0l13.9-3.7l3.2,5.9l-20.3,4.2
		l-4-7.2l10.2-9.9l0,0l-13.9,3.4L146.4,400.8z"/>
	<path class="st2" d="M168.1,436.3l11.2-17.3l4.9,5.9l-8.7,11.4l0,0l12.9-6.4l5.4,6.4l-8.5,11.6l0,0l12.9-6.4l4.2,5l-19.1,7.9
		l-5.4-6.4l8.2-11.6l0,0l-13.1,5.9L168.1,436.3z"/>
	<path class="st2" d="M196.7,467.6l7.2-19.3l6,4.5l-6,13.1l0,0l11.2-9l6.5,5L216,475l0,0l11.2-8.9l5.2,4l-16.9,11.9l-6.5-5l5.5-13.1
		l0,0l-11.4,8.5L196.7,467.6z"/>
	<path class="st2" d="M227.7,489.1l2.8-5.2l6.2,3.4l-2.8,5.2L227.7,489.1z"/>
	<path class="st2" d="M256.5,487.4c0.2-0.7,0.3-1.2,0.2-1.7c-0.2-0.5-0.7-1-1.7-1.3s-1.8,0-2.3,1c-0.5,1.3,2.3,2.3,6.2,5.5
		c1.8,1.5,2.8,3.5,1.7,6.5c-1.8,4.9-7,4.4-11.2,2.7c-4.5-1.8-8.5-4.4-6.4-10.1l6.5,2.5c-0.3,0.5-0.3,1.2-0.2,1.8s0.7,1.2,1.3,1.5
		c1.3,0.5,2.5,0.3,3-0.8c1.3-3.2-10.4-5.5-7.7-12.2c1.8-4.5,7-3.9,10.7-2.5c4.4,1.7,7.9,4.4,6.2,9.7L256.5,487.4z"/>
	<path class="st2" d="M265.4,504.8l5-19.1l7.2,1.8l-5,19.1L265.4,504.8z M271.3,482.6l1.3-5l7.4,2l-1.3,5L271.3,482.6z"/>
	<path class="st2" d="M302.9,509c-0.5,3.4-1.2,5.5-3.9,7.4c-2.2,1.7-6.4,1.8-8.9,1.5c-4.4-0.5-9.9-2.3-9.2-8l6.9,1
		c-0.2,1,0.2,1.5,0.7,2c0.5,0.5,1.3,0.7,2,0.8c3.4,0.5,4.2-1.5,4.5-4.5l0.3-2.2l0,0c-1.5,2-4.4,2.7-6.7,2.3c-5.7-0.8-8-5.7-7.2-10.9
		c0.8-5.7,4.7-9.4,10.2-8.5c2.7,0.3,4.7,1.8,5.5,4.2l0,0l0.5-2.8l7.2,1L302.9,509z M293.6,494.5c-3-0.3-4.2,2.5-4.5,5
		c-0.3,2.3,0,5.5,3,6c3,0.3,4.2-2.5,4.5-5C296.9,498,296.7,494.8,293.6,494.5z"/>
	<path class="st2" d="M323.2,512.1c-0.2-0.7-0.2-1.3-0.2-2.7l0,0c-0.8,1.5-2.5,3.4-6.2,3.4c-4.7,0-7.2-2.5-7.2-6.5
		c0-4.9,4.4-6.9,10.9-6.9h2.3c0-1.7,0.3-4.2-2.7-4c-1.8,0.2-2.3,1.8-2.3,3h-7c0-2.8,1.3-4.4,3.4-5.4s4.5-1.2,6.9-1.3
		c4,0,8.9,1.5,8.9,6l0.2,10.2c0,0.8,0.2,1.7,0.5,4L323.2,512.1z M319.4,508.4c3.2,0,3.5-3,3.5-5.7c-1.5,0-3,0-4,0.5
		c-1.2,0.5-2,1.3-2,2.7C316.8,507.2,318,508.4,319.4,508.4z"/>
	<path class="st2" d="M343.5,494.1L343.5,494.1c1-3,3.4-4.4,6.2-5c2.3-0.5,5.2,0.3,6.5,2.5c0.8-2.5,3.4-4.4,6.2-5
		c4.2-0.8,7.7,1.3,8.5,5.7l2.3,13.1l-7.4,1.3l-2.2-11.4c-0.5-1.8-1.3-3.9-3.5-3.4c-3.7,0.7-2.5,4.5-2.3,4.9l2,11.2l-7.4,1.3
		l-2.2-11.4c-0.5-1.8-1.3-3.9-3.5-3.4c-3.7,0.7-2.5,4.5-2.3,4.9l2,11.2l-7.4,1.3l-2.7-14.4c-0.3-1.7-0.5-2.8-1.2-5l7.2-1.3
		L343.5,494.1z"/>
	<path class="st2" d="M384.9,492.1c0.8,2.3,2.3,4.2,4.9,3.2c2-0.8,2.8-2.2,2.3-4l6.4-2.5c0.7,2.5-0.2,4.9-1.5,6.5
		c-1.2,1.7-3,2.8-5.2,3.7c-7.4,2.8-11.6,0.8-14.4-6.4c-2.3-5.9,0.8-10.9,6.4-13.1c7.5-3,11.6,0.3,14.2,7.2L384.9,492.1z
		 M389.9,485.7c-0.3-1-1-1.8-2-2.3c-0.8-0.5-1.8-0.7-2.8-0.2c-2.3,1-2.3,3-1.7,5.2L389.9,485.7z"/>
	<path class="st2" d="M410.3,474.2c-0.3-0.5-0.7-1-1.2-1.2c-0.5-0.2-1.2-0.2-2.2,0.3s-1.2,1.5-0.7,2.3c0.7,1.3,3.4-0.3,8-1.3
		c2.3-0.5,4.5,0,6.2,2.7c2.5,4.5-1,8.2-5,10.4c-4.2,2.3-8.9,3.9-11.7-1.3l6.2-3.5c0.2,0.5,0.7,1,1.3,1.3c0.7,0.2,1.3,0.3,2-0.2
		c1.3-0.7,1.8-1.7,1.3-2.8c-1.7-3-10.9,4.5-14.4-1.7c-2.3-4.2,1.5-8,4.9-9.9c4-2.3,8.4-3.4,11.4,1.2L410.3,474.2z"/>
	<path class="st2" d="M429.6,478l-3.5-4.9l5.7-4.2l3.5,4.9L429.6,478z"/>
	<path class="st2" d="M442.9,450.7c-0.7-0.7-1.3-1.2-2-1.3c-0.7-0.2-1.5,0.2-2.3,1c-2,1.8,0.7,5,2,6.5c1.3,1.5,4.2,4.4,6.2,2.5
		c1.8-1.8,0.7-3.5-0.5-4.9l5.5-5c1.8,2,2.3,4.4,2,6.7c-0.5,2.3-1.8,4.5-3.7,6.2c-5.5,5-10.4,4.7-15.1-0.3c-4.9-5.4-3.5-11.1,1-15.1
		c3.7-3.4,8.4-5.2,12.6-1.3L442.9,450.7z"/>
	<path class="st2" d="M468.7,426.1c5.7,4.5,4.9,10.7,0.8,15.6c-3.9,4.9-9.7,6.9-15.4,2.3c-5.7-4.5-4.9-10.7-0.8-15.6
		C457.1,423.6,463,421.4,468.7,426.1z M466.1,438.8c2-2.5-0.2-5-2.3-6.9c-2.2-1.7-5.2-3.4-7.2-0.8c-2,2.5,0.2,5,2.3,6.9
		C461.3,439.7,464.3,441.3,466.1,438.8z"/>
	<path class="st2" d="M470.3,411.2L470.3,411.2c-1.7-2.5-1.3-5.4,0-7.9c1.2-2.2,3.5-3.9,6-3.5c-1.5-2.3-1.3-5.4,0-8
		c2-3.7,5.9-5.2,9.7-3.2l11.7,6.2l-3.5,6.5l-10.2-5.4c-1.7-0.8-3.9-1.3-4.9,0.7c-1.7,3.4,2,4.7,2.3,4.9l10.1,5.4l-3.5,6.5l-10.2-5.4
		c-1.7-0.8-3.9-1.3-4.9,0.7c-1.7,3.4,2,4.7,2.3,4.9l10.1,5.4l-3.5,6.5l-12.9-6.9c-1.5-0.8-2.7-1.3-4.5-2.2l3.5-6.5L470.3,411.2z"/>
</g>
<circle class="st3" cx="320.2" cy="320.5" r="221.3"/>
<circle class="st4" cx="320.2" cy="320.5" r="140.9"/>
</svg>
