<?xml version="1.0" encoding="utf-8"?>
<!-- Generator: Adobe Illustrator 19.2.1, SVG Export Plug-In . SVG Version: 6.00 Build 0)  -->
<svg version="1.1" id="layer" xmlns="http://www.w3.org/2000/svg" xmlns:xlink="http://www.w3.org/1999/xlink" x="0px" y="0px"
	 viewBox="0 0 652 652" style="enable-background:new 0 0 652 652;" xml:space="preserve">
<style type="text/css">
	.st0{fill:#C8103E;}
</style>
<g>
	<path class="st0" d="M415.6,142.8c0,1.3-0.1,2.5-0.2,3.7C396.9,115.8,366.9,94,333,90.1c0.9-2,1.8-3.7,2.9-5.4
		c31.8,4.4,60,23.5,79.2,50.9C415.5,137.8,415.6,140.2,415.6,142.8 M415.2,149c-0.4,2.8-1,5.4-1.8,7.6c-19.3-30-50.3-51.1-84.6-53.5
		c0.5-1.9,0.9-3.8,1.5-5.7C364.4,100.2,395,120.1,415.2,149 M380,94.3c-11.6-8-24.5-13.6-38.3-16.4c2-1.7,4.2-3.2,6.8-4.2
		c13.2,3.5,25.5,9.5,36.7,17.6C383.2,91.8,381.5,92.8,380,94.3 M372.4,143.7c-14.1-8.2-30.8-13.4-47.6-13.9c0.2-1.9,0.3-3.8,0.5-5.8
		c14.9,0.5,30.1,4.6,43.1,11C369.9,137.4,371.3,140.3,372.4,143.7 M412.6,158.8c-0.9,2-1.9,3.9-3.1,5.5
		c-19.9-27.7-49.9-46.4-83.1-47.9c0.2-1.9,0.5-3.8,0.9-5.7C361.1,112.4,391.8,131.1,412.6,158.8 M323.3,150.9
		c18.3,0.2,36.1,5.5,51.4,14.3c-0.3,2-0.7,4-1.3,6c-14.7-8.8-32.7-14.5-50.6-14.5C323,155,323.2,152.9,323.3,150.9 M374.3,151.6
		c0.3,2.2,0.6,4.5,0.6,7.1c-15.1-9.3-32.9-15-51.1-15.5c0.1-2,0.3-3.8,0.4-5.8C341.9,137.9,359.4,143.1,374.3,151.6 M228.1,146.5
		c-0.1-1.2-0.2-2.4-0.2-3.7c0-2.5,0.1-4.9,0.4-7.2c19.2-27.4,47.4-46.5,79.2-50.9c1.1,1.7,2,3.4,2.9,5.4
		C276.6,94,246.6,115.8,228.1,146.5 M230.1,156.6c-0.8-2.3-1.4-4.8-1.8-7.6c20.2-28.9,50.8-48.8,84.9-51.5c0.6,1.8,1,3.7,1.5,5.7
		C280.4,105.5,249.4,126.6,230.1,156.6 M263.5,94.3c-1.5-1.5-3.2-2.4-5.1-3c11.1-8.1,23.5-14.1,36.7-17.6c2.6,1.1,4.8,2.5,6.8,4.2
		C287.9,80.7,275.1,86.3,263.5,94.3 M275.1,135c13-6.4,28.1-10.5,43-11c0.2,1.9,0.4,3.9,0.5,5.8c-16.8,0.5-33.5,5.7-47.6,13.9
		C272.2,140.3,273.6,137.4,275.1,135 M317.2,116.4c-33.2,1.5-63.2,20.2-83.1,47.9c-1.2-1.6-2.2-3.5-3.1-5.5
		c20.8-27.7,51.4-46.3,85.3-48.1C316.6,112.6,316.9,114.5,317.2,116.4 M321.8,191.2c12.3,0,23.9,2.1,35,6.1
		c-1.5,1.6-3.1,3.1-4.7,4.5c-9.6-3.1-19.7-4.8-30.3-4.8c-10.6,0-20.7,1.7-30.3,4.8c-1.6-1.5-3.1-3-4.7-4.5
		C297.8,193.4,309.5,191.2,321.8,191.2 M321.8,218.1c3,0,5.9,0.2,8.7,0.4c-3.8,2.6-6.9,4.5-8.7,5.7c-1.8-1.2-4.9-3.1-8.7-5.7
		C315.9,218.3,318.8,218.1,321.8,218.1 M320.7,156.7c-17.9,0-35.9,5.7-50.6,14.5c-0.6-2-1-4-1.3-6c15.3-8.8,33-14.1,51.4-14.3
		C320.3,152.9,320.5,155,320.7,156.7 M321.8,177.8c15.4,0,30,3.4,43.5,9.5c-1.2,1.6-2.4,3.2-3.7,4.7c-12.3-5.5-25.7-8.4-39.8-8.4
		c-14.1,0-27.4,3-39.8,8.4c-1.3-1.5-2.5-3.1-3.7-4.7C291.7,181.1,306.3,177.8,321.8,177.8 M321.8,164.3c17.8,0,34.5,4.5,49.6,12.5
		c-0.8,1.7-1.7,3.5-2.6,5.1c-14.3-7.6-30.1-11.9-46.9-11.9c-16.8,0-32.6,4.2-46.9,11.9c-1-1.7-1.9-3.4-2.6-5.1
		C287.2,168.8,304,164.3,321.8,164.3 M321.8,204.7c8.2,0,16.1,1,23.8,2.8c-2,1.6-4,3.2-5.9,4.6c-5.8-1.1-11.7-1.6-17.8-1.6
		c-6.1,0-12.1,0.6-17.8,1.6c-1.9-1.4-3.9-3-5.9-4.6C305.6,205.7,313.5,204.7,321.8,204.7 M319.6,143.2c-18.2,0.4-36,6.1-51.1,15.5
		c0.1-2.6,0.3-4.9,0.6-7.1c14.9-8.5,32.4-13.7,50-14.1C319.4,139.5,319.5,141.3,319.6,143.2 M382.9,96.4c12,1.9,27.8,12.4,31.7,35.2
		C406,117.4,395.3,105.5,382.9,96.4 M385.7,152.8c-1.3-4-3.6-8.1-6.4-11.6c10.6,6.7,20.2,15.3,28.6,25.2c-1.3,1.5-2.7,2.9-4.1,4
		C398.2,163.8,392.2,157.9,385.7,152.8 M386.9,160L386.9,160c5,3.7,9.7,7.8,14.1,12.4c-1.7,1.1-3.5,2.1-5.2,3
		c-2.9-2.9-5.9-5.6-9-8.1C386.9,165.1,386.9,162.8,386.9,160 M391.5,82.7c1.5,1.2,3,2.5,4.4,3.8c3.3,3.1,5.7,6.1,7.1,7.9
		c-3.5-1.8-7.3-3.1-10.9-3.5c-8.8-8-18.6-14.6-29.1-19.4C375.1,72.1,384.6,77.3,391.5,82.7 M391.6,177c-2.4,0.9-4.6,1.6-6.5,2.1
		c-0.2-0.1-0.4-0.3-0.5-0.4c0.8-2.2,1.3-4.1,1.6-6C388.1,174.1,389.9,175.6,391.6,177 M395.9,86.6c-1.4-1.3-2.9-2.6-4.4-3.8
		C393.1,84,394.6,85.3,395.9,86.6 M384.4,179.4c0.1-0.2,0.2-0.4,0.2-0.7c0.2,0.1,0.4,0.3,0.5,0.4
		C384.9,179.3,384.6,179.4,384.4,179.4 M228.8,131.5c4-22.8,19.7-33.3,31.7-35.2C248.2,105.5,237.5,117.4,228.8,131.5 M239.8,170.4
		c-1.5-1.2-2.8-2.5-4.1-4c8.4-10,18-18.5,28.6-25.2c-2.8,3.5-5.1,7.6-6.4,11.6C251.3,157.9,245.3,163.8,239.8,170.4 M256.7,167.1
		c-3.1,2.5-6.1,5.3-9,8.1c-1.7-0.8-3.5-1.8-5.2-3c4.4-4.5,9.2-8.7,14.1-12.4c0,0,0,0,0,0.1C256.6,162.8,256.6,165.1,256.7,167.1
		 M280.6,71.5c-10.6,4.8-20.4,11.4-29.1,19.4c-3.6,0.4-7.4,1.7-10.9,3.5c1.4-1.8,3.8-4.7,7.1-7.9c1.4-1.3,2.9-2.6,4.4-3.8
		C258.9,77.3,268.4,72.1,280.6,71.5 M257.3,172.8c0.3,1.9,0.9,3.8,1.6,6c-0.2,0.1-0.4,0.3-0.6,0.4c-1.9-0.6-4.1-1.2-6.5-2.1
		C253.6,175.6,255.4,174.1,257.3,172.8 M252,82.7c-1.5,1.2-2.9,2.5-4.4,3.8C248.9,85.3,250.4,84,252,82.7 M259.1,179.4
		c-0.1-0.2-0.1-0.4-0.2-0.7c-0.2,0.1-0.4,0.3-0.6,0.4C258.6,179.3,258.9,179.4,259.1,179.4 M283.7,358
		c-20.3,5.1-38.8,14.2-54.8,26.3c-1-2-2-4.1-3.1-6.1c16.5-12.2,35.6-21.3,56.4-26.5C282.8,353.7,283.3,355.8,283.7,358 M322,346.8
		c9.3,0,18.3,0.8,27.1,2.2c-0.2,2.2-0.4,4.3-0.6,6.5c-8.6-1.5-17.5-2.2-26.5-2.2c-9.1,0-17.9,0.8-26.5,2.2c-0.2-2.1-0.4-4.3-0.6-6.5
		C303.6,347.6,312.7,346.8,322,346.8 M361.7,351.6c20.8,5.2,39.9,14.3,56.4,26.5c-1.1,2-2.1,4.1-3,6.1c-16-12.1-34.5-21.2-54.8-26.3
		C360.7,355.8,361.2,353.7,361.7,351.6 M365.1,338.3c21.8,5.9,41.7,16.3,58.5,29.9c-1.1,2-2.3,3.9-3.4,5.9
		c-16.2-13.5-35.5-23.7-56.8-29.5C364,342.5,364.5,340.4,365.1,338.3 M280.6,344.6c-21.3,5.8-40.5,16-56.8,29.5
		c-1.1-2-2.2-4-3.3-5.9c16.8-13.7,36.7-24,58.5-29.9C279.5,340.4,280,342.5,280.6,344.6 M322,332.6c9.8,0,19.4,0.9,28.7,2.5
		c-0.3,2.2-0.5,4.3-0.7,6.5c-9.1-1.6-18.4-2.5-28-2.5c-9.6,0-18.9,0.9-28,2.5c-0.2-2.1-0.5-4.3-0.8-6.5
		C302.6,333.5,312.2,332.6,322,332.6 M277,331.4c-22.3,6.7-42.3,18.2-58.7,33.3c-1.2-2-2.4-3.9-3.7-5.8
		c17.1-15.3,37.7-26.9,60.6-33.8C275.9,327.2,276.5,329.3,277,331.4 M322,318.4c10.5,0,20.7,1,30.5,2.8c-0.3,2.2-0.6,4.3-0.9,6.4
		c-9.6-1.8-19.5-2.8-29.6-2.8c-10.2,0-20.1,1-29.7,2.8c-0.3-2.1-0.6-4.3-0.9-6.4C301.3,319.3,311.5,318.4,322,318.4 M368.7,325.1
		c22.9,6.8,43.5,18.5,60.6,33.8c-1.3,1.9-2.5,3.8-3.7,5.8c-16.4-15.1-36.4-26.6-58.7-33.3C367.5,329.3,368.1,327.2,368.7,325.1
		 M212.7,355.9c-1.3-1.9-2.7-3.8-4-5.6c17.2-17.1,38.5-30.3,62.6-38.2c0.7,2.1,1.3,4.1,2,6.2C249.9,326.1,229.2,339.1,212.7,355.9
		 M322,304.2c11.2,0,22.1,1.1,32.6,3.2c-0.3,2.2-0.7,4.3-1,6.4c-10.2-2.1-20.8-3.2-31.6-3.2c-10.9,0-21.4,1.1-31.6,3.2
		c-0.3-2.1-0.7-4.3-1-6.4C299.9,305.3,310.8,304.2,322,304.2 M372.7,312.2c24.1,7.8,45.4,21.1,62.6,38.2c-1.4,1.8-2.7,3.7-4,5.6
		c-16.5-16.8-37.2-29.8-60.6-37.5C371.4,316.3,372.1,314.2,372.7,312.2 M322,290c12.1,0,23.8,1.3,35,3.7c-0.4,2.2-0.8,4.3-1.2,6.4
		c-10.9-2.4-22.2-3.7-33.9-3.7c-11.7,0-23,1.3-33.9,3.7c-0.4-2.1-0.8-4.3-1.1-6.4C298.2,291.3,309.9,290,322,290 M206.8,348
		c-1.5-1.8-3-3.6-4.5-5.3c17.2-19.2,39.3-34.3,64.5-43.3c0.7,2,1.4,4.1,2.2,6.2C244.6,314.4,223.2,329.2,206.8,348 M441.6,342.8
		c-1.5,1.7-3,3.4-4.5,5.3c-16.4-18.8-37.8-33.6-62.2-42.4c0.7-2.1,1.4-4.1,2.2-6.2C402.4,308.5,424.5,323.5,441.6,342.8
		 M200.8,341.1c0,0-0.1-0.1-0.1-0.1c2.7-5.7,4.9-11.7,6.7-17.9c15.2-15.5,33.8-27.9,54.7-36.1c0.8,2,1.6,4.1,2.4,6.1
		C238.9,303.3,216.9,320,200.8,341.1 M436.5,323.1c1.8,6.2,4.1,12.3,6.7,17.9c0,0-0.1,0.1-0.1,0.1c-16.1-21.1-38.1-37.8-63.7-48
		c0.8-2.1,1.6-4.1,2.4-6.1C402.7,295.2,421.3,307.6,436.5,323.1 M322,275.8c13,0,25.6,1.5,37.7,4.3c-0.4,2.1-0.9,4.3-1.3,6.4
		c-11.6-2.8-23.8-4.3-36.4-4.3c-12.6,0-24.8,1.5-36.4,4.3c-0.4-2.1-0.8-4.3-1.3-6.4C296.3,277.3,309,275.8,322,275.8 M386.8,274.9
		c17,7.4,32.4,17.5,45.4,29.8c0.7,4.2,1.6,8.3,2.6,12.3c-13.9-15.2-31.1-27.6-50.6-36.1C385.1,278.9,386,276.9,386.8,274.9
		 M322,261.6c14.1,0,27.7,1.8,40.7,5.1c-0.5,2.1-1,4.2-1.4,6.4c-12.5-3.2-25.6-4.9-39.2-4.9c-13.6,0-26.7,1.7-39.2,4.9
		c-0.5-2.1-0.9-4.2-1.5-6.4C294.3,263.3,307.9,261.6,322,261.6 M209.1,317c1-4,1.9-8.1,2.6-12.3c13.1-12.3,28.4-22.5,45.4-29.8
		c0.9,2,1.7,4,2.6,6C240.2,289.4,223,301.8,209.1,317 M392.2,263.1c14,6.7,26.8,15.3,38,25.5c0.3,3.5,0.7,7,1.2,10.5
		c-12-12.2-26.2-22.5-42-30.1C390.3,267.1,391.3,265.1,392.2,263.1 M322,247.4c15.3,0,30.1,2.1,44,6c-0.1,0.4-0.2,0.8-0.3,1.3
		c-0.4,1.7-0.9,3.4-1.3,5.1c-13.4-3.8-27.6-5.8-42.4-5.8c-14.7,0-28.9,2-42.4,5.8c-0.4-1.7-0.8-3.4-1.3-5.1
		c-0.1-0.4-0.2-0.8-0.3-1.3C291.9,249.4,306.7,247.4,322,247.4 M212.6,299.2c0.5-3.5,0.9-7,1.2-10.5c11.2-10.2,24-18.8,38-25.5
		c0.9,2,1.9,3.9,2.8,6C238.7,276.7,224.5,286.9,212.6,299.2 M274.1,240.4c7.4-2.3,15.1-4,22.9-5.3c3.2,1.8,6.6,3.6,10,5.3
		c-10.7,1-21.1,3.1-31,6.2C275.4,244.5,274.7,242.4,274.1,240.4 M214.1,283.5c0.2-3.2,0.3-6.4,0.3-9.6c9.5-8.5,20.1-15.9,31.6-22
		c1,1.9,2,3.9,3.1,5.9C236.1,264.7,224.3,273.4,214.1,283.5 M397.9,251.9c11.5,6.1,22.1,13.5,31.6,22c0,3.2,0.1,6.4,0.3,9.6
		c-10.2-10.1-22-18.8-35-25.7C395.9,255.8,396.9,253.8,397.9,251.9 M336.9,240.4c3.5-1.7,6.8-3.4,10-5.3c7.9,1.2,15.5,3,22.9,5.3
		c-0.6,2.1-1.3,4.1-1.9,6.2C358,243.5,347.6,241.4,336.9,240.4 M371.8,233.6c-5-1.7-10.1-3.1-15.4-4.3c2.5-1.6,4.8-3.3,7-5
		c3.3,0.9,6.6,1.8,9.9,2.9c-0.1,0.7-0.3,1.4-0.5,2.2C372.5,230.8,372.2,232.2,371.8,233.6 M404.1,241.1c9.3,5.5,17.9,11.8,25.8,18.9
		c-0.2,3-0.3,6-0.3,9c-8.6-8.5-18.3-15.9-28.9-22.1C401.9,244.9,403,243,404.1,241.1 M410.7,231c7.3,4.8,14.1,10.1,20.4,15.9
		c-0.4,2.8-0.6,5.7-0.9,8.6c-7.1-7-14.9-13.4-23.3-18.9C408.2,234.6,409.5,232.8,410.7,231 M374.6,220.4c-1.5-0.5-3-1.1-4.6-1.5
		c1.9-1.7,3.7-3.5,5.2-5.2c0.1,0,0.2,0.1,0.2,0.1C375.2,216.2,375,218.1,374.6,220.4 M417.8,221.7c5.4,4,10.5,8.3,15.3,12.8
		c-0.5,2.7-1,5.4-1.4,8.2c-5.6-5.7-11.6-11-18.1-15.7C415,225.1,416.4,223.4,417.8,221.7 M435.8,222.9c-0.7,2.5-1.3,5.2-1.9,7.8
		c-4.1-4.4-8.5-8.6-13.2-12.4c1.6-1.7,3.1-3.4,4.7-4.9C428.9,216.4,432.4,219.6,435.8,222.9 M440.2,209.3c-1.3-1.6-2.7-3.1-4.1-4.6
		c2.1-1.3,4.2-2.4,6.2-3.3c0.3,0.3,0.6,0.6,0.9,0.9C442.2,204.6,441.2,206.9,440.2,209.3 M439.1,212.2c-0.9,2.4-1.7,4.9-2.4,7.5
		c-2.7-3.1-5.5-6.1-8.5-8.9c1.8-1.6,3.5-3,5.3-4.3C435.4,208.3,437.3,210.2,439.1,212.2 M356,378.8c18.9,4,36.5,11.2,52.2,21.1
		c-0.9,2.2-1.7,4.3-2.4,6.4c-15.2-9.9-32.4-17.1-50.9-21.1C355.2,383,355.6,380.9,356,378.8 M288,378.8c0.4,2.1,0.8,4.3,1.1,6.4
		c-18.5,4-35.7,11.2-50.9,21.1c-0.7-2.1-1.5-4.2-2.4-6.4C251.4,390,269,382.8,288,378.8 M346.8,377.1c-0.2,2.2-0.3,4.4-0.4,6.5
		c-7.9-1.2-16.1-1.9-24.4-1.9c-8.3,0-16.5,0.6-24.4,1.9c-0.1-2.1-0.3-4.3-0.4-6.5c8.1-1.2,16.4-1.9,24.8-1.9
		C330.4,375.2,338.7,375.9,346.8,377.1 M358.7,365.1c19.8,4.5,38.1,12.7,54.2,23.6c-1,2.1-1.9,4.2-2.7,6.2
		c-15.6-10.9-33.4-18.9-52.8-23.4C357.8,369.4,358.3,367.2,358.7,365.1 M286.6,371.5c-19.4,4.5-37.2,12.5-52.8,23.4
		c-0.9-2-1.8-4.1-2.7-6.2c16.1-10.9,34.4-19.1,54.2-23.6C285.7,367.2,286.2,369.4,286.6,371.5 M322,361c8.8,0,17.5,0.7,25.9,2
		c-0.2,2.2-0.4,4.4-0.5,6.5c-8.2-1.3-16.7-2.1-25.3-2.1c-8.6,0-17.1,0.7-25.3,2.1c-0.2-2.1-0.3-4.3-0.5-6.5
		C304.5,361.7,313.2,361,322,361 M243.2,246.9c-10.6,6.2-20.3,13.7-28.9,22.1c0-3-0.2-6-0.3-9c7.9-7.1,16.5-13.4,25.8-18.9
		C241,243,242.1,244.9,243.2,246.9 M270.7,227.2c3.2-1.1,6.5-2.1,9.9-2.9c2.2,1.7,4.5,3.4,7,5c-5.2,1.2-10.4,2.6-15.4,4.3
		c-0.4-1.4-0.7-2.8-1-4.3C271,228.6,270.8,227.9,270.7,227.2 M269.4,220.4c-0.4-2.3-0.6-4.2-0.9-6.6c0.1,0,0.2,0,0.2-0.1
		c1.5,1.7,3.3,3.4,5.2,5.2C272.4,219.3,270.9,219.8,269.4,220.4 M237,236.6c-8.4,5.5-16.2,11.9-23.3,18.9c-0.2-2.9-0.5-5.7-0.9-8.6
		c6.3-5.8,13.1-11.1,20.4-15.9C234.5,232.8,235.7,234.6,237,236.6 M212.3,242.7c-0.4-2.8-0.9-5.5-1.4-8.2c4.8-4.6,9.9-8.9,15.3-12.8
		c1.4,1.7,2.8,3.4,4.1,5.3C223.9,231.7,217.8,237,212.3,242.7 M210.1,230.8c-0.6-2.7-1.2-5.3-1.9-7.8c3.3-3.3,6.8-6.5,10.4-9.5
		c1.6,1.5,3.1,3.1,4.6,4.9C218.6,222.2,214.2,226.4,210.1,230.8 M207.9,204.7c-1.4,1.5-2.8,3-4.1,4.6c-0.9-2.4-1.9-4.7-3-6.9
		c0.3-0.3,0.6-0.6,0.9-0.9C203.7,202.3,205.8,203.4,207.9,204.7 M207.3,219.7c-0.7-2.6-1.6-5.1-2.4-7.5c1.8-2,3.7-3.9,5.7-5.7
		c1.8,1.3,3.5,2.7,5.3,4.3C212.8,213.6,210,216.6,207.3,219.7 M375.5,213.4c-0.1,0.1-0.2,0.2-0.3,0.3c0.1,0,0.2,0.1,0.2,0.1
		C375.5,213.6,375.5,213.5,375.5,213.4 M268.7,213.7c-0.1,0-0.2,0.1-0.2,0.1c0-0.1,0-0.2,0-0.4C268.5,213.5,268.6,213.6,268.7,213.7
		 M462.6,268.3c13.9,2.2,27,8,38.2,17.1c-0.9,1.6-1.8,3.2-2.7,4.9c-10.7-8.9-23.4-14.7-37.6-16.8C461.1,271.7,461.8,270,462.6,268.3
		 M471.2,258.3c14.1,3,25.7,9.2,34.7,16.6c-0.7,1.7-1.5,3.4-2.4,5.1c-10.9-9.2-23.9-15-37.4-17.1
		C467.6,261.3,469.3,259.7,471.2,258.3 M502.3,244.8c4,2.1,7.8,4.6,11.3,7.3c-0.4,2-0.9,3.9-1.5,5.9c-3.9-3.2-8-5.9-12.5-8.3
		c-16.1-8.5-34.6-10.9-53-7c-0.2-1.8-0.3-3.7-0.3-5.6C465.8,233.2,485.3,235.8,502.3,244.8 M458.6,256.7c-2.2,1-4.4,2.7-6.3,5.6
		c-1-1.9-1.8-3.7-2.5-5.6C452.8,256.6,455.7,256.6,458.6,256.7 M497.4,255.4c4.6,2.5,8.9,5.3,12.9,8.6c-0.6,1.8-1.3,3.6-2,5.5
		c-4.2-3.5-8.6-6.6-13.5-9.2c-14.2-7.5-30.2-10.2-46.4-8.1c-0.5-1.7-0.8-3.6-1.1-5.4C464.8,244.4,482.1,247.3,497.4,255.4
		 M448.8,217.6c21.8-6.2,44-4.2,63.1,5.9c1.4,0.7,2.8,1.5,4.1,2.3c0.2,2.2,0.2,4.4,0.1,6.6c-2.2-1.5-4.5-2.8-6.8-4.1
		c-18.7-9.9-40.7-11.5-62.1-4.6C447.8,221.8,448.2,219.7,448.8,217.6 M446.8,227.5c20.9-5.3,42-3,60.3,6.7c3,1.6,5.8,3.3,8.5,5.2
		c-0.2,2.1-0.5,4.2-0.8,6.2c-3.2-2.4-6.6-4.6-10.2-6.6c-17.6-9.3-38.1-11.3-58.2-5.7C446.4,231.4,446.6,229.4,446.8,227.5
		 M499.7,291.7c1.3-1.1,2.6-2.4,4-3.8c9.6,8.5,17.3,19.4,23,31.6c-1.2,1.5-2.6,2.9-4.1,4.2C517.1,311.2,509.4,300.2,499.7,291.7
		 M514.5,275.3c1.1-1.4,2.2-2.9,3.3-4.4c6.7,6.9,12.3,15,16.7,24.1c0.1,3.7-0.2,7.2-0.9,10.4C529,294,522.5,283.7,514.5,275.3
		 M507.5,283.8c1.2-1.3,2.4-2.7,3.6-4.2c8.7,8.4,15.8,18.8,21.1,30.5c-0.9,2.3-1.9,4.4-3.2,6.3C523.9,303.8,516.7,292.6,507.5,283.8
		 M463.4,322.9c-0.8-2.7-1.2-4.3-1.9-6.8c13,5.2,23.3,14.1,30,21.7c-2.1,0.5-4.3,0.8-6.4,1.1C479.1,332.6,471.3,326.7,463.4,322.9
		 M477.9,297.9L477.9,297.9c14,7.4,25.5,19.1,33.9,33c-1.6,0.8-3.3,1.6-5,2.3c-7.9-12.8-18.5-23.6-31.5-30.4
		c-5.4-2.9-11.2-5-17.1-6.5c-0.1-1.9-0.2-3.8-0.2-5.7C465,292.1,471.6,294.5,477.9,297.9 M473.1,308.5L473.1,308.5
		c11.8,6.2,21.7,15.4,29.5,26.3c-1.8,0.6-3.7,1.2-5.6,1.7c-7.1-9.5-16-17.5-26.5-23.1c-3.4-1.8-6.9-3.3-10.6-4.6
		c-0.4-2-0.7-4.1-1-6.1C463.8,304.1,468.5,306.1,473.1,308.5 M459,279.1c8.3,1.5,16.3,4.2,23.8,8.2c15.8,8.3,28.4,22.1,37,38.7
		c-1.5,1.1-3,2.1-4.6,3.1c-8.1-15.8-20.1-29-35-36.9c-6.9-3.7-14.3-6.2-21.9-7.5C458.5,282.7,458.7,280.9,459,279.1 M482.1,193.5
		c8.8,0.7,15.8,3.4,21.2,7.5c-14.8-4-30.8-3.4-46.5,1.7C463.3,195.6,472.3,192.7,482.1,193.5 M565.3,251.5
		c4.6,9.9,8.2,22.3,6.6,32.6c-0.2,1-0.3,2-0.5,3c-6-26.9-17.2-50.6-34.1-66.7C547.3,222.6,558.6,236.9,565.3,251.5 M511.5,210.4
		c1.2,2.2,2.5,5.1,3.2,7.7c-19.9-10.7-43.6-11.6-64.6-4.1c1-2.7,2.1-4.8,3.4-6.9C473.3,201.4,493.6,202.5,511.5,210.4 M533.1,239.6
		c15.4,16,25.5,38.3,31.9,64.1c-1.3,1.8-2.7,3.4-4.3,4.9c-5.7-25-15.1-47-29.4-62.9C532,243.6,532.6,241.6,533.1,239.6 M529.1,251.2
		c14.2,15.4,23.5,36.1,29.6,59c-1.4,1.1-3,2.1-4.8,3c-5.6-21.8-14.2-41.7-27.4-56.6C527.4,254.8,528.3,253,529.1,251.2 M534.4,225.2
		c17.1,15.6,28.4,38.7,36,66.6c-0.9,3.1-2,6-3.3,8.6c-6.6-28-16.9-51.4-32.7-67.7C534.5,230.2,534.6,227.7,534.4,225.2 M523.9,261.4
		c13.2,14,22.3,32.5,27.4,53c-1.6,0.7-3.3,1.2-5.1,1.8c-4.7-19.2-13.2-36.7-25.3-49.9C521.9,264.7,522.9,263.1,523.9,261.4
		 M478,339.7c-3.6-3.1-7.5-5.9-11.7-8.3c1.5,4,2.9,7.1,3.9,8.8C472.6,340.1,475.3,340,478,339.7 M183.4,273.5
		c-14.2,2-27,7.8-37.6,16.8c-1-1.7-1.8-3.3-2.7-4.9c11.2-9.1,24.3-14.8,38.2-17.1C182.1,270,182.8,271.7,183.4,273.5 M177.7,263
		c-13.4,2.1-26.5,7.9-37.4,17.1c-0.9-1.7-1.7-3.5-2.4-5.1c9-7.4,20.6-13.7,34.7-16.6C174.6,259.7,176.3,261.3,177.7,263
		 M197.5,237.1c0,1.9-0.1,3.7-0.3,5.6c-18.4-3.9-36.9-1.5-53,7c-4.5,2.3-8.6,5.1-12.5,8.3c-0.5-2-1-3.9-1.5-5.9
		c3.6-2.7,7.3-5.2,11.3-7.3C158.6,235.8,178.1,233.2,197.5,237.1 M194,256.7c-0.7,1.9-1.5,3.7-2.5,5.6c-1.9-2.9-4.1-4.6-6.3-5.6
		C188.2,256.6,191.1,256.6,194,256.7 M196.6,246.8c-0.3,1.8-0.7,3.7-1.1,5.4c-16.2-2.1-32.3,0.6-46.4,8.1c-4.8,2.5-9.3,5.6-13.5,9.2
		c-0.7-1.9-1.4-3.7-2-5.5c4-3.3,8.3-6.1,12.9-8.6C161.8,247.3,179.1,244.4,196.6,246.8 M196.5,223.9c-21.3-6.9-43.3-5.3-62,4.6
		c-2.4,1.3-4.6,2.6-6.8,4.1c-0.1-2.3-0.1-4.5,0.1-6.6c1.4-0.8,2.7-1.6,4.1-2.3c19.1-10.1,41.4-12.2,63.1-5.9
		C195.6,219.7,196.1,221.8,196.5,223.9 M197.5,233.3c-20.1-5.5-40.6-3.6-58.2,5.7c-3.6,1.9-7,4.1-10.2,6.6c-0.3-2-0.6-4.1-0.8-6.2
		c2.7-1.9,5.5-3.6,8.5-5.2c18.3-9.7,39.4-11.9,60.3-6.7C197.3,229.4,197.4,231.4,197.5,233.3 M121.2,323.6c-1.5-1.3-2.8-2.7-4.1-4.2
		c5.7-12.2,13.5-23,23-31.6c1.4,1.4,2.7,2.7,4,3.8C134.5,300.2,126.7,311.2,121.2,323.6 M110.2,305.3c-0.7-3.2-1-6.6-0.8-10.4
		c4.4-9,10-17.2,16.7-24.1c1.1,1.5,2.1,3,3.3,4.4C121.3,283.7,114.9,294,110.2,305.3 M114.9,316.4c-1.3-2-2.4-4.1-3.2-6.3
		c5.3-11.6,12.3-22,21.1-30.5c1.2,1.5,2.4,2.8,3.6,4.2C127.2,292.6,120,303.8,114.9,316.4 M158.7,338.9c-2.1-0.3-4.3-0.7-6.4-1.1
		c6.8-7.6,17-16.5,30-21.7c-0.7,2.5-1.1,4.1-1.9,6.8C172.6,326.7,164.8,332.6,158.7,338.9 M185.8,290.5c0,1.9-0.1,3.8-0.2,5.7
		c-5.9,1.5-11.6,3.6-17.1,6.5c-13,6.8-23.6,17.6-31.5,30.4c-1.7-0.7-3.4-1.5-5-2.3c8.4-13.9,19.9-25.6,33.9-33
		C172.2,294.5,178.9,292.1,185.8,290.5 M184.9,302.7c-0.3,2.1-0.6,4.1-1,6.1c-3.6,1.2-7.1,2.8-10.6,4.6
		c-10.5,5.5-19.4,13.6-26.5,23.1c-1.9-0.5-3.7-1.1-5.5-1.7c7.8-10.9,17.7-20,29.5-26.3v0C175.3,306.1,180.1,304.1,184.9,302.7
		 M185.6,284.6c-7.6,1.4-15,3.9-21.9,7.5c-14.9,7.9-26.9,21-35,36.9c-1.6-1-3.1-2-4.6-3.1c8.6-16.6,21.3-30.4,37-38.7
		c7.5-4,15.5-6.7,23.8-8.2C185.2,280.9,185.4,282.7,185.6,284.6 M187.1,202.7c-15.7-5.1-31.7-5.7-46.5-1.7
		c5.4-4.1,12.4-6.8,21.2-7.5C171.6,192.7,180.6,195.6,187.1,202.7 M106.5,220.3c-16.9,16.1-28.1,39.9-34.1,66.7c-0.2-1-0.4-2-0.5-3
		c-1.6-10.3,2.1-22.7,6.6-32.6C85.3,236.9,96.6,222.6,106.5,220.3 M190.4,207.1c1.3,2.1,2.4,4.2,3.4,6.9c-21-7.6-44.7-6.6-64.6,4.1
		c0.7-2.5,2-5.5,3.2-7.7C150.3,202.5,170.5,201.4,190.4,207.1 M112.6,245.6c-14.3,15.9-23.7,37.9-29.4,62.9
		c-1.7-1.5-3.1-3.1-4.3-4.9c6.4-25.7,16.5-48.1,31.9-64.1C111.2,241.6,111.9,243.6,112.6,245.6 M117.3,256.6
		c-13.1,14.9-21.8,34.9-27.4,56.6c-1.7-0.9-3.3-1.9-4.8-3c6.1-22.9,15.4-43.6,29.6-59C115.6,253,116.4,254.8,117.3,256.6
		 M109.6,232.8c-15.8,16.2-26.1,39.7-32.7,67.7c-1.4-2.6-2.5-5.5-3.3-8.6c7.6-27.9,18.8-51,36-66.6
		C109.3,227.7,109.3,230.2,109.6,232.8 M123,266.3c-12.1,13.2-20.5,30.7-25.3,49.9c-1.8-0.5-3.5-1.1-5.1-1.8
		c5.1-20.5,14.2-39,27.4-53C120.9,263.1,121.9,264.7,123,266.3 M173.7,340.2c1-1.7,2.4-4.8,3.9-8.8c-4.1,2.5-8,5.3-11.7,8.3
		C168.6,340,171.2,340.1,173.7,340.2 M321.6,416.2c-56.7,0-90.5,27.2-90.5,27.2c16-8,47.6-19.9,90.5-19.9
		c42.9,0,77.1,11.9,93.1,19.9C414.8,443.4,378.3,416.2,321.6,416.2 M414.8,432.9c-16-8-50.2-26.2-93.1-26.1
		c-42.9,0-74.5,18.1-90.5,26.2c0,0,33.8-33.4,90.5-33.4S414.8,432.9,414.8,432.9"/>
</g>
<polygon class="st0" points="317.8,512.2 326.2,512.2 320.9,529.2 313.3,529.2 "/>
<rect x="165.4" y="512" class="st0" width="8.7" height="9"/>
<g>
	<path class="st0" d="M98.8,539.5H109c4.2,0,9.3-2.4,9.3-9.6c0-7.6-4.2-9.7-9.1-9.7H98.8V539.5z M89.6,512.2h19.7
		c15.1,0,18.2,10.6,18.2,17.8c0,7.1-4,17.7-19,17.6h-9.7v22.6h-9.2V512.2z"/>
	<path class="st0" d="M134.8,527.5h8.2v7.8h0.2c1-4.5,6.2-8.3,11.5-8.3c2,0,1.8,0,2.6,0.1v8.7c-1.2-0.2-1.8-0.3-3-0.3
		c-5.9,0-10.7,3.4-10.7,12.8v22h-8.7V527.5z"/>
	<path class="st0" d="M417.9,527.5h8.2v7.8h0.2c1-4.5,6.2-8.3,11.5-8.3c2,0,1.8,0,2.6,0.1v8.7c-1.2-0.2-1.8-0.3-3-0.3
		c-5.9,0-10.7,3.4-10.7,12.8v22h-8.7V527.5z"/>
</g>
<rect x="165.4" y="527.3" class="st0" width="8.7" height="42.9"/>
<g>
	<path class="st0" d="M186.2,527.5h8.2v5.7l0.2,0.2c2.6-4.7,7.1-6.6,12.3-6.6c8.5,0,13.9,5,13.9,14.6v29h-8.7v-26.8
		c-0.2-6.7-2.6-9.6-7.7-9.6c-5.8,0-9.5,4.4-9.5,10.7v25.7h-8.7V527.5z"/>
	<path class="st0" d="M483.6,570.4h-8.3v-5.7l-0.1-0.2c-2.6,4.7-7.1,6.6-12.3,6.6c-8.5,0-14-5-14-14.6v-29h8.7v26.8
		c0.2,6.7,2.6,9.7,7.7,9.7c5.8,0,9.5-4.4,9.5-10.7v-25.7h8.7V570.4z"/>
	<path class="st0" d="M257.8,542c-0.7-5.6-4.2-8.5-9-8.5c-4.5,0-10.8,2.1-10.8,15.9c0,7.9,2.9,15,10.4,15c5,0,8.5-3.2,9-7.9h8.7
		c-0.7,9-7.5,15.1-17.7,15.1c-12.3,0-19.1-8.8-19.1-22.1c0-13.7,6.5-23.1,19.4-23.1c9.1,0,16.9,4.8,17.7,15.7H257.8z"/>
	<path class="st0" d="M302.4,545.2c-0.4-6.8-4-11.7-9.9-11.7c-6,0-10.1,4.5-10.4,11.7H302.4z M282.1,551.4c0,7.5,3.4,12.9,10.6,12.9
		c5,0,7.9-2.2,9.5-6.9h8.2c-1.6,8.7-9.1,14.1-17.7,14.1c-12.4,0-19.3-8.6-19.3-22.6c0-13,7.3-22.6,19-22.6
		c12.4,0,20.1,11.5,18.6,25.1H282.1z"/>
	<path class="st0" d="M332.7,556.7c0.1,5.7,3.8,7.6,8.2,7.6c3.1,0,8.6-1,8.7-5.9c0-3.6-3-5.1-11.9-7.4c-6-1.5-11.8-4.3-11.6-12.6
		c0.2-9.4,9.8-12.1,15.8-12.1c7.6,0,15.2,3.6,15.1,13.2H349c-0.2-4.3-4.2-6.3-7.8-6.3c-3.5,0-7,1.6-7,5c0,3.2,2,4.5,10.1,6.6
		c9.1,2.4,13.4,5.7,13.4,13c-0.1,9.8-9.3,13.7-17,13.7c-9.3,0-16.5-4.2-16.1-14.8H332.7z"/>
	<path class="st0" d="M500.6,556.6c0.1,5.7,3.8,7.7,8.2,7.7c3.1,0,8.6-1,8.7-5.9c0-3.6-3-5.1-11.9-7.4c-6-1.5-11.8-4.3-11.6-12.6
		c0.3-9.4,9.8-12.1,15.8-12.1c7.6,0,15.2,3.6,15.1,13.2H517c-0.2-4.3-4.2-6.3-7.8-6.3c-3.5,0-7,1.6-7,5c0,3.2,2,4.5,10.1,6.6
		c9.1,2.4,13.4,5.7,13.4,13c0,9.8-9.3,13.7-17,13.7c-9.3,0-16.5-4.3-16.1-14.9H500.6z"/>
</g>
<polygon class="st0" points="376.4,512.2 416.3,512.2 416.3,520.9 400.9,520.9 400.9,570.2 391.7,570.2 391.7,520.9 376.4,520.9 "/>
<g>
	<path class="st0" d="M531.1,527.3h6.6v-12.9h8.7v12.9h7.9v6.8h-7.9v23.5c0,3.9,0.3,5.9,4.2,5.9c1.2,0,2.4,0,3.7-0.3v7
		c-1.9,0.2-3.7,0.5-5.7,0.5c-9.1,0-10.7-3.8-10.9-10.9v-25.6h-6.6V527.3z"/>
</g>
</svg>
