<?xml version="1.0" encoding="utf-8"?>
<!-- Generator: Adobe Illustrator 16.0.0, SVG Export Plug-In . SVG Version: 6.00 Build 0)  -->
<!DOCTYPE svg PUBLIC "-//W3C//DTD SVG 1.1//EN" "http://www.w3.org/Graphics/SVG/1.1/DTD/svg11.dtd">
<svg version="1.1" id="Layer_1" xmlns="http://www.w3.org/2000/svg" xmlns:xlink="http://www.w3.org/1999/xlink" x="0px" y="0px"
	   viewBox="0 0 260 120" enable-background="new 0 0 260 120" xml:space="preserve">
<g>
	<g>
		<defs>
			<rect id="SVGID_1_" x="0.913" y="1.756" width="258.174" height="116.488"/>
		</defs>
		<clipPath id="SVGID_2_">
			<use xlink:href="#SVGID_1_"  overflow="visible"/>
		</clipPath>
		<path clip-path="url(#SVGID_2_)" fill="#010102" d="M78.501,116H56.904v-11.525l-0.482,0.005
			c-5.755,9.288-15.689,13.761-25.277,13.761C6.987,118.244,0.902,104.646,0.902,84.17L0.897,33.291h22.721v46.721
			c0,13.598,3.993,20.312,14.556,20.308c12.318,0,17.601-6.882,17.596-23.679l-0.008-43.356h22.728L78.501,116z"/>
		<path clip-path="url(#SVGID_2_)" fill="#010102" d="M93.524,58.727c1.283-21.271,20.31-27.668,38.867-27.675
			c16.478,0,36.31,3.671,36.314,23.498v43.049c0,7.519,0.808,15.016,2.883,18.387h-23.025c-0.806-2.567-1.443-5.268-1.605-7.997
			c-7.191,7.519-17.75,10.239-27.829,10.239c-15.67,0.01-28.172-7.831-28.172-24.795c0-18.7,14.086-23.18,28.158-25.11
			c13.919-2.076,26.887-1.598,26.887-10.883c0-9.755-6.739-11.197-14.722-11.197c-8.643,0-14.244,3.527-15.046,12.484H93.524z
			 M146.002,75.522c-3.849,3.355-11.832,3.51-18.879,4.793c-7.052,1.442-13.438,3.845-13.438,12.166
			c0,8.485,6.561,10.549,13.92,10.549c17.749,0,18.396-14.077,18.396-19.045V75.522z"/>
		<rect x="186.139" y="1.756" clip-path="url(#SVGID_2_)" fill="#010102" width="22.722" height="114.234"/>
		<path clip-path="url(#SVGID_2_)" fill="#010102" d="M259.074,59.338l-25.099,0.007V34.716l25.099-0.005V59.338z M233.981,91.34
			h25.103l0.006,24.636l-25.108,0.007V91.34z"/>
	</g>
</g>
</svg>
