<?xml version="1.0" encoding="utf-8"?>
<!-- Generator: Adobe Illustrator 19.0.0, SVG Export Plug-In . SVG Version: 6.00 Build 0)  -->
<svg version="1.1" id="layer" xmlns="http://www.w3.org/2000/svg" xmlns:xlink="http://www.w3.org/1999/xlink" x="0px" y="0px"
	 viewBox="-153 -46 652 652" style="enable-background:new -153 -46 652 652;" xml:space="preserve">
<style type="text/css">
	.st0{display:none;}
</style>
<g id="Layer_1">
	<path d="M93.8,255.6l-0.8,0.7l-0.1,72l0.7,0.7h19.9l0.7-0.7l0.1-72l-0.7-0.7H93.8z M103.3,222.4l-13.3,13.4v1.5l13.3,13.3h1.5
		l13.4-13.3v-1.5l-13.4-13.4C104.8,222.4,103.3,222.4,103.3,222.4z M-57.3,220.9l-0.7,0.7V278c0,20-10.7,29.6-26,29.6
		c-15.2,0-25.8-9.6-25.8-29.6v-56.3l-0.8-0.7h-20l-0.7,0.7v59.3c0,30.4,19.2,48.2,47.4,48.2c27.9,0,47.6-17.8,47.6-48.2v-59.3
		l-0.7-0.7H-57.3z M55,220.9l-0.8,0.7v69.6l-51-69.6l-1.5-0.7h-20l-0.8,0.7v106.7l0.8,0.7H1.6l0.8-0.7v-69.6l51.3,69.6l1.5,0.7H75
		l0.7-0.7V221.6l-0.7-0.7H55z M153.4,242.5h14.2c19.3,0,32.6,13.9,32.6,32.5c0,18.5-13.4,32.5-32.7,32.5h-14.2L153.4,242.5z
		 M132.6,220.9l-0.7,0.7v106.7l0.7,0.7h34.9c31.9,0,54.9-25.5,54.9-54.1s-23-54.1-54.9-54.1H132.6z M260.7,284.6l11.9-34.8
		l11.9,34.8l0.3,1.3h-24.5L260.7,284.6z M262.2,220.9l-0.8,0.7l-39.3,106.7l0.8,0.7h23l0.8-0.7l6.8-21l38.3,0.1l6.8,21l0.8,0.7h23
		l0.8-0.7l-39.3-106.7l-0.8-0.7H262.2z M379,220.9l-0.7,0.7l-24.1,37l-24-37l-0.7-0.7h-20.8l-0.7,0.7l35.6,58.5v48.2l0.8,0.7h19.9
		l0.8-0.7v-48.2l35.6-58.5l-0.7-0.7H379z M403.7,249.8c0,28.9,43.8,28.1,43.8,45.9c0,7.4-5.2,11.9-12.6,11.9
		c-5.9,0-12.6-3-16.3-12.9h-1.5L400,306.1c5.2,14.8,19.3,23,34.9,23c20,0,33.7-15.6,33.7-33.3c0-34.1-42.6-34.1-42.6-45.9
		c0-4.5,2.2-7.4,7.4-7.4c3.7,0,8.2,2.2,11.4,6.7h1.5l16-11.9c-8.2-11.1-16.3-16.3-28.9-16.3C416.9,220.9,403.7,232.8,403.7,249.8z"
		/>
</g>
<g id="Guides" class="st0">
</g>
</svg>
