<svg viewBox="0 0 522.4174 87.8988" xmlns="http://www.w3.org/2000/svg" xmlns:xlink="http://www.w3.org/1999/xlink"><clipPath id="a" transform="translate(-49.1271 -49.1271)"><path d="m0 0h620.6617v186.151h-620.6617z"/></clipPath><g clip-path="url(#a)"><path d="m137.0259 49.1271h-87.8988v87.8988h87.8988z" fill="#e11f26" transform="translate(-49.1271 -49.1271)"/><path d="m87.583 112.3052a2.75 2.75 0 0 1 -2.606-3.6159l10.9873-32.9621a2.7471 2.7471 0 0 1 5.212 1.7382l-10.9873 32.9621a2.747 2.747 0 0 1 -2.606 1.8777z" fill="#fff" transform="translate(-49.1271 -49.1271)"/><path d="m71.1019 112.3052a2.75 2.75 0 0 1 -2.606-3.6159l10.9874-32.9621a2.7471 2.7471 0 0 1 5.212 1.7382l-10.9873 32.9621a2.7471 2.7471 0 0 1 -2.6061 1.8777z" fill="#fff" transform="translate(-49.1271 -49.1271)"/><path d="m104.064 112.3052a2.75 2.75 0 0 1 -2.606-3.6159l10.9873-32.9621a2.7472 2.7472 0 0 1 5.2121 1.7382l-10.9874 32.9621a2.747 2.747 0 0 1 -2.606 1.8777z" fill="#fff" transform="translate(-49.1271 -49.1271)"/><g fill="#0a3049"><path d="m491.4269 73.8377c-4.4868.0043-8.3871 1.0985-10.9224 3.487v-.743a2.7468 2.7468 0 0 0 -5.4935 0v32.974a2.7468 2.7468 0 0 0 5.4935 0v-18.1852c0-8.1551 2.7044-12.0287 10.85-12.0394a2.9111 2.9111 0 0 0 2.783-2.7118 2.7332 2.7332 0 0 0 -2.7106-2.7816z" transform="translate(-49.1271 -49.1271)"/><path d="m189.9716 112.3024a2.7478 2.7478 0 0 1 -2.58-1.8052l-9.4074-25.7772-9.1842 25.7584a2.4093 2.4093 0 0 1 -2.5871 1.824 2.7478 2.7478 0 0 1 -2.58-1.8052l-12.029-32.9606a2.7468 2.7468 0 1 1 5.1608-1.883l9.4191 25.8068 9.0779-25.4604a2.7465 2.7465 0 0 1 4.3561-1.5825 2.7864 2.7864 0 0 1 .97 1.4135l9.3547 25.63 9.19-25.7746a2.7467 2.7467 0 1 1 5.1742 1.8454l-11.7473 32.9472a2.5074 2.5074 0 0 1 -2.5878 1.8234z" transform="translate(-49.1271 -49.1271)"/><path d="m229.9363 73.835a16.094 16.094 0 0 0 -10.6033 3.49v-17.2236a2.7468 2.7468 0 0 0 -5.4935 0v49.4543a2.7468 2.7468 0 0 0 5.4935 0v-20.4475c.008-1.0005.38-9.78 10.6033-9.78 9.0891 0 9.4378 8.554 9.4472 9.517v20.71a2.7467 2.7467 0 0 0 5.4934 0v-20.71c0-5.1928-3.1222-15.0102-14.9406-15.0102z" transform="translate(-49.1271 -49.1271)"/><path d="m318.6046 106.809c-4.6391 0-6.447-2.0359-6.447-7.2638v-20.2168h6.447a2.7467 2.7467 0 0 0 0-5.4934h-6.447v-5.9843a2.7467 2.7467 0 1 0 -5.4934 0v5.9843h-4.2958a2.7467 2.7467 0 0 0 0 5.4934h4.2958v20.2168c0 11.1 7.481 12.7572 11.94 12.7572a2.7467 2.7467 0 0 0 0-5.4934z" transform="translate(-49.1271 -49.1271)"/><path d="m345.0892 113.598a14.4939 14.4939 0 0 1 -14.4082-13.388 2.7472 2.7472 0 0 1 5.48-.3969 8.9525 8.9525 0 1 0 8.9282-9.6131 2.7467 2.7467 0 1 1 0-5.4934 7.3711 7.3711 0 1 0 -7.35-7.9156 2.7472 2.7472 0 0 1 -5.48-.397 12.8654 12.8654 0 1 1 21.0148 10.8608 14.4421 14.4421 0 0 1 -8.1851 26.3433z" transform="translate(-49.1271 -49.1271)"/><path d="m406.3234 112.3024a2.7479 2.7479 0 0 1 -2.58-1.8052l-9.4087-25.7772-9.183 25.7585a2.7492 2.7492 0 0 1 -2.5764 1.824h-.0107a2.7478 2.7478 0 0 1 -2.58-1.8052l-12.03-32.9606a2.7468 2.7468 0 0 1 5.1608-1.883l9.419 25.8068 9.0777-25.4605a2.7466 2.7466 0 0 1 4.3561-1.5825 2.786 2.786 0 0 1 .97 1.4135l9.3547 25.63 9.19-25.7746a2.7467 2.7467 0 1 1 5.1742 1.8454l-11.746 32.9472a2.749 2.749 0 0 1 -2.5763 1.824z" transform="translate(-49.1271 -49.1271)"/><path d="m446.2612 112.3024a19.227 19.227 0 1 1 19.2271-19.227 19.2495 19.2495 0 0 1 -19.2271 19.227zm0-32.9606a13.7336 13.7336 0 1 0 13.7336 13.7336 13.75 13.75 0 0 0 -13.7336-13.7336z" transform="translate(-49.1271 -49.1271)"/><path d="m533.3323 57.3547a2.746 2.746 0 0 0 -2.7468 2.7467v19.2817a17.8274 17.8274 0 0 0 -12.8323-5.5347c-10.1044 0-18.3257 8.6264-18.3257 19.227s8.2213 19.227 18.3257 19.227a17.8277 17.8277 0 0 0 12.8323-5.5346v2.7879a2.7468 2.7468 0 0 0 5.4935 0v-49.4543a2.746 2.746 0 0 0 -2.7467-2.7467zm-15.5791 49.4543c-7.076 0-12.8323-6.1613-12.8323-13.7336s5.7563-13.7336 12.8323-13.7336 12.8323 6.1614 12.8323 13.7336-5.7563 13.7336-12.8323 13.7336z" transform="translate(-49.1271 -49.1271)"/><path d="m287.3925 73.8484a2.746 2.746 0 0 0 -2.7468 2.7467v2.8249a17.8333 17.8333 0 0 0 -12.8739-5.5712c-10.1043 0-18.3257 8.6264-18.3257 19.227s8.2214 19.227 18.3257 19.227a17.8333 17.8333 0 0 0 12.8739-5.5712s.2044-.5088 0 2.8245a2.7468 2.7468 0 0 0 5.4935 0v-32.961a2.746 2.746 0 0 0 -2.7467-2.7467zm-15.6207 32.9606c-7.076 0-12.8323-6.1613-12.8323-13.7336s5.7563-13.7336 12.8323-13.7336 12.831 6.1614 12.831 13.7336-5.7563 13.7336-12.831 13.7336z" transform="translate(-49.1271 -49.1271)"/><path d="m558.9077 112.2768c-5.7208 0-10.44-2.4624-12.9454-6.7568a2.9321 2.9321 0 0 1 .7331-3.7982 2.3364 2.3364 0 0 1 3.426.8154 10.66 10.66 0 0 0 8.8224 4.7137c4.5877 0 7.5121-1.9359 7.5121-5.0262 0-3.1-3.3749-4.397-8.4918-6.75-5.7614-2.65-11.3581-4.516-11.4634-11.4917-.07-4.6592 4.7071-9.688 11.9921-10.1252 4.4724-.2763 8.8672 1.4818 11.201 3.9779a2.9945 2.9945 0 0 1 .1609 3.8814 2.3165 2.3165 0 0 1 -3.5.18c-5.6762-5.3149-14.8408-2.8057-14.8415 2.0862 0 2.9726 4.1879 4.62 8.34 6.4839 4.0509 1.8189 11.6912 4.6836 11.6912 11.758 0 4.5662-3.9834 10.0516-12.6367 10.0516z" transform="translate(-49.1271 -49.1271)"/></g></g></svg>