<?xml version="1.0" encoding="utf-8"?>
<!-- Generator: Adobe Illustrator 26.0.3, SVG Export Plug-In . SVG Version: 6.00 Build 0)  -->
<svg version="1.0" id="katman_1" xmlns="http://www.w3.org/2000/svg" xmlns:xlink="http://www.w3.org/1999/xlink" x="0px" y="0px"
	 viewBox="0 0 192 134" style="enable-background:new 0 0 192 134;" xml:space="preserve">
<style type="text/css">
	.st0{fill:#10B981;}
	.st1{fill-rule:evenodd;clip-rule:evenodd;fill:#111827;}
</style>
<g>
	<g>
		<path class="st0" d="M46.6,51.7c4.4,3.2,6.9,8.5,7,14.6c0,2.9-0.5,5.3-1.4,7c-1.1,1.9-2.7,2.9-4.6,2.9c-1.2,0-2.3-0.4-3.1-1.2
			c-0.9,0.8-2,1.2-3.1,1.2c-1.9,0-3.3-0.9-4-2.6c-0.5-1.3-0.6-2.9-0.2-4.7l0-0.1c0.3-1.2,0.2-2.2,0-2.9c-0.2-0.5-0.4-0.7-0.7-0.9
			c-0.7-0.3-1.7,0.2-2.4,1.4c-1.1,1.9-1,5.3,0.3,7.9c1.7,3.2,5.1,5.2,10.4,5.2c5.1,0,8.8-2.4,10.6-6.7c1.8-4.3,1.6-10.1-0.7-16
			l-0.1-0.2l3.2-1.3C63.3,69.9,57.7,83,44.6,83C38,83,33.4,80.4,31.1,76c-1.9-3.6-1.9-8.1-0.3-11.1c1.5-2.7,4.2-3.9,6.7-3
			c2.5,1,3.6,3.9,2.9,7.6l0,0.1c-0.3,1.2-0.3,2.2,0,2.7c0.1,0.3,0.3,0.5,0.9,0.5c0.4,0,0.8-0.2,1.2-0.7c0.3-0.4,0.5-0.9,0.7-1.6
			c0-0.1,0-0.1,0.1-0.2l0-0.1c0.1-0.6,0.3-1.3,0.3-2.1c0.3-4.4-1.5-7.6-4.7-9.1c-3-1.4-6.6-0.8-9.3,1.5c-2.5,2.2-3.9,5.7-3.7,9.5
			c0.2,4.1,2.2,8.2,5.8,11.3l0.1,0.1l-2.2,2.6c-4.4-3.8-6.9-8.8-7.1-13.9c-0.2-4.8,1.5-9.4,4.8-12.3c3.6-3.2,8.7-3.9,12.9-2
			c4.5,2,7.1,6.6,6.7,12.4c-0.1,1.1-0.2,2.1-0.5,3c-0.2,0.9,0.2,1.4,0.9,1.4c0.6,0,1.2-0.4,1.7-1.2c0.6-1.1,1-2.9,1-5.3
			c0-10.3-8.4-16.5-19.3-13.7l-0.3,0.1l-0.9-3.3C36,47.5,42.1,48.4,46.6,51.7z"/>
		<path class="st1" d="M66.8,61h3.6l2.1,7.3c0.3,1,0.4,2.2,0.4,2.2s0.1-1.2,0.3-2.1l1.7-7.3h3.6l1.7,7.3c0.2,0.9,0.4,2.1,0.4,2.1
			s0.1-1.2,0.4-2.2l2.1-7.3h3.5l-4.3,13.7h-3.3L77,67.3c-0.2-0.9-0.4-2.1-0.4-2.1s-0.2,1.2-0.4,2.1l-1.8,7.4h-3.3L66.8,61z"/>
		<path class="st1" d="M96.4,67.9c0-2.1-1.4-3.7-3.2-3.7c-2,0-3.4,1.6-3.4,3.7c0,2.2,1.4,3.7,3.4,3.7C95.1,71.6,96.4,70.1,96.4,67.9
			z M86.1,67.9c0-3.9,2.4-7.1,6.1-7.1c1.6,0,3.3,0.6,4.2,1.9V61h3.6v13.7h-3.6v-1.6c-1,1.3-2.7,1.9-4.2,1.9
			C88.5,75,86.1,71.8,86.1,67.9z"/>
		<path class="st1" d="M103.1,75.4c1.7,0,2.3-0.6,2.8-1.6l0.3-0.6L100.5,61h3.7l2.7,6.4c0.4,1,0.9,2.3,0.9,2.3s0.6-1.6,0.9-2.4
			l2.5-6.3h3.6l-6,14.1c-1.5,3.4-4,3.6-5.7,3.6V75.4z"/>
		<path class="st1" d="M126.1,74.7h3.6v-18h-3.6V74.7z M117.5,64h-2.1v-3h2.1v-0.9c0-3.2,1.7-4.6,4-4.6c1.2,0,2.6,0.4,3.5,0.9
			l-1,2.7c-0.3-0.1-0.9-0.4-1.5-0.4c-0.8,0-1.4,0.4-1.4,1.8V61h3.4v3h-3.4v10.7h-3.6V64z"/>
		<path class="st1" d="M133.3,75.4c1.7,0,2.3-0.6,2.8-1.6l0.3-0.6L130.7,61h3.7l2.7,6.4c0.4,1,0.9,2.3,0.9,2.3s0.6-1.6,0.9-2.4
			l2.5-6.3h3.6l-6,14.1c-1.5,3.4-4,3.6-5.7,3.6V75.4z"/>
		<path class="st1" d="M154.4,66.7c-0.3-1.7-1.6-2.9-3.3-2.9c-1.6,0-2.9,1.2-3.3,2.9H154.4z M144.2,67.9c0-3.9,3-7.1,7-7.1
			c3.7,0,6.6,3.2,6.6,7.1c0,0.7-0.1,1.3-0.1,1.3h-9.9c0.4,1.9,2,2.8,3.8,2.8c1.3,0,2.7-0.4,3.7-1.1l1.4,2.6c-1.5,1-3.3,1.5-5,1.5
			C147.6,75,144.2,72.4,144.2,67.9z"/>
		<path class="st1" d="M159.1,61h3.6v2.6c0.4-1.1,1.8-2.9,4.7-2.9v4c-3.1,0-4.7,1.5-4.7,4.7v5.3h-3.6V61z"/>
	</g>
</g>
</svg>
