<?xml version="1.0" encoding="utf-8"?>
<!-- Generator: Adobe Illustrator 26.0.3, SVG Export Plug-In . SVG Version: 6.00 Build 0)  -->
<svg version="1.1" id="Ebene_1" xmlns="http://www.w3.org/2000/svg" xmlns:xlink="http://www.w3.org/1999/xlink" x="0px" y="0px"
	 viewBox="0 0 1780.6 386.2" style="enable-background:new 0 0 1780.6 386.2;" xml:space="preserve">
<style type="text/css">
	.st0{fill:#E94A43;}
</style>
<path class="st0" d="M736.5,112.4v110c0,37.3-1.7,60.7-5.2,70.3c-3.4,9.6-9.8,17.6-19.2,24.1c-9.3,6.5-19.9,9.7-31.7,9.7
	c-10.3,0-18.9-2.4-25.6-7.2c-6.7-4.9-11.4-11.4-13.9-19.6c-2.5-8.3-3.8-30.7-3.8-67.4V112.4h-69.1v164.9c0,24.5,3.1,43.8,9.3,57.7
	c6.2,13.9,16.3,24.7,30.2,32.4c13.9,7.7,29.7,11.5,47.2,11.5c17.2,0,33.5-4,49-12c15.5-8,28-19,37.5-32.9v39h64.2V112.4H736.5z
	 M1652.4,112.4l-49.7,133c-2.6,7.4-5.1,14.7-7.4,22.1c-1,3.6-3.4,11-7.1,22.3l-14.3-44.4l-49.2-133h-72.5L1557.5,373h62.2
	l103.8-260.6H1652.4z M365.5,302.1c-12.3-13.8-18.4-33.5-18.4-59.4s6.2-45.6,18.4-59.4c12.3-13.7,27.5-20.6,45.5-20.6
	c18,0,33.2,6.9,45.4,20.6c12.2,13.8,18.3,33.4,18.3,58.9c0,26.2-6.1,46.1-18.3,59.9c-12.2,13.7-27.3,20.6-45.4,20.6
	C392.9,322.7,377.8,315.8,365.5,302.1 M341.2,123.4c-20.7,11.3-36.7,27.7-48.1,49.1c-11.3,21.5-17,43.6-17,66.5
	c0,29.9,5.6,55.3,17,76.2c11.3,20.9,27.8,36.7,49.5,47.5c21.7,10.8,44.5,16.2,68.5,16.2c38.7,0,70.8-12.9,96.3-38.9
	c25.5-26,38.2-58.6,38.2-98c0-39.1-12.6-71.5-37.9-97.1c-25.2-25.6-57.6-38.4-97.1-38.4C385.1,106.5,362,112.1,341.2,123.4
	 M1281.6,302.1c-12.3-13.8-18.5-33.5-18.5-59.4s6.2-45.6,18.5-59.4c12.3-13.7,27.5-20.6,45.5-20.6c18,0,33.1,6.9,45.4,20.6
	c12.2,13.8,18.3,33.4,18.3,58.9c0,26.2-6.1,46.1-18.3,59.9c-12.2,13.7-27.3,20.6-45.4,20.6C1309.1,322.7,1293.9,315.8,1281.6,302.1
	 M1257.4,123.4c-20.7,11.3-36.8,27.7-48.1,49.1c-11.3,21.5-16.9,43.6-16.9,66.5c0,29.9,5.6,55.3,16.9,76.2
	c11.3,20.9,27.8,36.7,49.6,47.5c21.7,10.8,44.5,16.2,68.5,16.2c38.7,0,70.8-12.9,96.3-38.9c25.5-26,38.2-58.6,38.2-98
	c0-39.1-12.6-71.5-37.9-97.1c-25.2-25.6-57.6-38.4-97.1-38.4C1301.3,106.5,1278.2,112.1,1257.4,123.4 M1729.3,50.4h6.9
	c3,0,5,0.2,6.1,0.6c1.1,0.4,1.9,1.1,2.6,2c0.6,0.9,0.9,1.9,0.9,3c0,1.7-0.6,3.1-1.9,4.2c-1.3,1.1-3.7,1.6-7.2,1.6h-7.4V50.4z
	 M1723.2,45.3v37.6h6.1v-16h3.6c2.1,0,3.8,0.4,4.9,1.3c1.6,1.2,3.7,4.1,6.3,8.7l3.3,5.9h7.4l-4.6-7.4c-2.2-3.5-4.1-6-5.6-7.4
	c-0.8-0.8-1.9-1.4-3.2-2c3.2-0.3,5.8-1.4,7.8-3.4c2-2,2.9-4.4,2.9-7.2c0-2-0.6-3.8-1.8-5.5c-1.2-1.7-2.7-2.9-4.7-3.6
	c-2-0.7-5.2-1.1-9.6-1.1H1723.2z M1724.1,88.8c-4.6-2.6-8.2-6.2-10.8-10.8c-2.6-4.6-3.9-9.4-3.9-14.5c0-5.1,1.3-9.9,3.9-14.6
	c2.6-4.7,6.3-8.3,10.9-10.8c4.7-2.5,9.4-3.8,14.3-3.8c4.9,0,9.6,1.2,14.3,3.8c4.6,2.5,8.3,6.1,10.9,10.8c2.6,4.7,3.9,9.5,3.9,14.6
	c0,5-1.3,9.9-3.8,14.5c-2.6,4.6-6.2,8.2-10.8,10.8c-4.6,2.6-9.5,3.9-14.5,3.9S1728.7,91.3,1724.1,88.8 M1721.4,33.1
	c-5.6,3-10,7.3-13.1,12.9c-3.1,5.6-4.7,11.4-4.7,17.5c0,6,1.5,11.8,4.6,17.3c3.1,5.6,7.4,9.9,13,12.9c5.5,3.1,11.3,4.6,17.4,4.6
	c6.1,0,11.9-1.5,17.4-4.6c5.5-3.1,9.9-7.4,12.9-12.9c3.1-5.6,4.6-11.3,4.6-17.3c0-6.1-1.6-11.9-4.7-17.5c-3.1-5.6-7.5-9.9-13.1-12.9
	c-5.6-3-11.3-4.5-17.2-4.5C1732.7,28.6,1727,30.1,1721.4,33.1 M260.3,13.2l-83.1,142.4L92.4,13.2H7.1l132,208.4V373h72.5V222.1
	L344.2,13.2H260.3z M1013.9,7.1c-34.4,0-63.2,6-86.3,17.9c-30.3,15.5-53.4,37.9-69.1,67c-15.7,29.1-23.6,62.4-23.6,99.9
	c0,34.5,7,66.5,21.1,95.9c14.1,29.4,35.2,51.9,63.2,67.7c28,15.8,60.9,23.7,98.6,23.7c29.7,0,59-5.6,87.9-16.8
	c28.9-11.2,51-24.2,66.3-38.9V180.1h-156.9v60.6h83.4v45.6c-11,8.5-24.1,15.8-39.5,21.7c-15.3,5.9-30.6,8.9-45.9,8.9
	c-30.8,0-55.7-10.7-74.7-32c-19-21.3-28.5-53.4-28.5-96.1c0-39.6,9.4-69.4,28.1-89.6c18.8-20.1,44-30.2,75.8-30.2
	c21,0,38.5,5.1,52.5,15.4c14,10.2,23.5,24.2,28.6,41.8l72.3-13.5c-7.2-33-23.4-58.9-48.6-77.7C1093.6,16.4,1058.6,7.1,1013.9,7.1z"
	/>
</svg>
