<svg width="500" height="134" viewBox="0 0 500 134" fill="none" xmlns="http://www.w3.org/2000/svg">
<path d="M98.119 29.8241H4.91297C2.24593 29.8241 0.140371 27.6638 0.140371 24.9274V6.06066C0.140371 3.32426 2.24593 1.16394 4.91297 1.16394H98.119C100.786 1.16394 102.892 3.32426 102.892 6.06066V24.9274C102.892 27.6638 100.646 29.8241 98.119 29.8241ZM225.154 127.614V108.748C225.154 106.011 223.049 103.851 220.382 103.851H129.562C126.895 103.851 124.789 106.011 124.789 108.748V127.614C124.789 130.351 126.895 132.511 129.562 132.511H220.382C223.049 132.511 225.154 130.351 225.154 127.614ZM37.6193 103.851L70.7468 66.2615C72.4312 64.3892 72.4312 61.3648 70.6064 59.4925L57.5519 46.0985C55.5868 44.0822 52.4986 44.2263 50.6738 46.2425L1.26334 102.411C0.421112 103.275 0 104.427 0 105.723V127.614C0 130.351 2.10556 132.511 4.7726 132.511H97.9787C100.646 132.511 102.751 130.351 102.751 127.614V108.748C102.751 106.011 100.646 103.851 97.9787 103.851H37.6193ZM225.154 24.9274V6.06066C225.154 3.32426 223.049 1.16394 220.382 1.16394H129.562C126.895 1.16394 124.789 3.32426 124.789 6.06066V76.1989C124.789 78.9353 126.895 81.0957 129.562 81.0957H202.134C204.801 81.0957 206.906 78.9353 206.906 76.1989V57.4762C206.906 54.7398 204.801 52.5795 202.134 52.5795H152.723V29.8241H220.382C223.049 29.8241 225.154 27.6638 225.154 24.9274ZM330.713 97.082L343.768 110.476C345.733 112.492 345.592 115.805 343.487 117.677C317.238 140.576 277.513 138.848 253.509 112.204C230.488 86.8565 230.488 46.9627 253.509 21.4709C277.513 -5.17299 317.238 -7.04526 343.487 15.9981C345.592 17.8704 345.733 21.1829 343.768 23.1992L330.713 36.5931C329.029 38.3214 326.221 38.4654 324.396 37.0252C309.236 24.6394 286.637 26.0796 273.302 41.6339C260.949 55.892 260.949 77.7832 273.302 92.0413C286.637 107.596 309.236 109.18 324.396 96.6499C326.362 95.2097 329.029 95.3537 330.713 97.082ZM500 66.8376C500 103.707 470.803 133.663 434.868 133.663C398.933 133.663 369.736 103.707 369.736 66.8376C369.736 29.9682 398.933 0.0117719 434.868 0.0117719C470.803 0.0117719 500 29.9682 500 66.8376ZM472.066 66.8376C472.066 45.8105 455.362 28.672 434.868 28.672C414.374 28.672 397.67 45.8105 397.67 66.8376C397.67 87.8646 414.374 105.003 434.868 105.003C455.503 105.003 472.066 87.8646 472.066 66.8376ZM355.839 76.1989V57.4762C355.839 54.7398 353.734 52.5795 351.067 52.5795H298.147C295.48 52.5795 293.375 54.7398 293.375 57.4762V76.1989C293.375 78.9353 295.48 81.0957 298.147 81.0957H351.067C353.734 81.0957 355.839 78.9353 355.839 76.1989Z" fill="#77DE94"/>
</svg>
