<?xml version="1.0" encoding="utf-8"?>
<!-- Generator: Adobe Illustrator 19.2.1, SVG Export Plug-In . SVG Version: 6.00 Build 0)  -->
<svg version="1.1" id="layer" xmlns="http://www.w3.org/2000/svg" xmlns:xlink="http://www.w3.org/1999/xlink" x="0px" y="0px"
	 viewBox="0 0 652 652" style="enable-background:new 0 0 652 652;" xml:space="preserve">
<style type="text/css">
	.st0{fill:#2A2C37;}
	.st1{filter:url(#Adobe_OpacityMaskFilter);}
	.st2{fill:#FFFFFF;}
	.st3{mask:url(#d_1_);fill:#99CCFF;}
	.st4{filter:url(#Adobe_OpacityMaskFilter_1_);}
	.st5{mask:url(#f_1_);fill:#001E64;}
	.st6{fill:#00AEEF;}
</style>
<path class="st0" d="M244.9,309.2c0,1-0.2,1.9-0.5,2.8c-0.3,0.8-0.7,1.6-1.3,2.2l-23,30.4h24.2v10.4h-40v-5.7c0-0.6,0.2-1.3,0.5-2.1
	c0.3-0.9,0.8-1.7,1.3-2.4l23.2-30.7h-23.6v-10.4h39.2V309.2L244.9,309.2z M288.3,323.2c0-1.4-0.2-2.8-0.6-4.1
	c-0.4-1.3-1-2.4-1.8-3.4c-0.9-1-1.9-1.8-3.1-2.4c-1.4-0.6-3-0.9-4.5-0.9c-3.3,0-5.8,0.9-7.7,2.8c-1.9,1.9-3.1,4.5-3.6,8
	C266.9,323.2,288.3,323.2,288.3,323.2z M266.7,331.4c0.4,4.8,1.8,8.3,4.1,10.6c2.3,2.2,5.3,3.3,9,3.3c1.7,0,3.3-0.2,4.9-0.7
	c1.4-0.5,2.6-0.9,3.6-1.5l2.8-1.5c0.8-0.4,1.6-0.7,2.5-0.7c1.1,0,1.9,0.4,2.5,1.2l4,5c-1.5,1.7-3.1,3.1-4.8,4.2
	c-1.7,1.1-3.5,2-5.5,2.6c-1.9,0.6-3.8,1.1-5.7,1.3c-1.9,0.2-3.8,0.4-5.6,0.4c-3.4,0-6.8-0.6-10-1.8c-3-1.1-5.8-2.9-8.1-5.2
	c-2.3-2.3-4.1-5.2-5.4-8.6c-1.3-3.4-2-7.4-2-11.9c0-3.5,0.6-6.8,1.7-9.9c1.1-3,2.8-5.7,4.9-8.1c2.2-2.3,4.9-4.2,7.9-5.5
	c3.1-1.3,6.6-2,10.4-2c3.3,0,6.3,0.5,9.1,1.6c2.7,1,5.1,2.5,7.2,4.6c2,2,3.6,4.4,4.7,7.3c1.1,2.9,1.7,6.2,1.7,9.9c0,1,0,1.9-0.1,2.5
	c-0.1,0.6-0.2,1.1-0.5,1.6c-0.2,0.4-0.5,0.7-0.9,0.8c-0.5,0.2-1,0.2-1.5,0.2C297.5,331.4,266.7,331.4,266.7,331.4z M325,309.6
	c1-1,2.1-1.9,3.2-2.7c1.1-0.8,2.3-1.5,3.5-2.1c1.2-0.6,2.6-1.1,4-1.4c1.5-0.3,3.1-0.5,4.7-0.5c2.8,0,5.3,0.5,7.4,1.4
	c2.2,1,4,2.3,5.4,4c1.5,1.7,2.6,3.8,3.3,6.2c0.7,2.4,1.1,5,1.1,7.9v32.6h-13.7v-32.6c0-2.9-0.7-5.1-2-6.6c-1.3-1.6-3.3-2.4-5.9-2.4
	c-1.9,0-3.7,0.4-5.4,1.2c-1.8,0.9-3.4,2.1-4.8,3.5v36.9h-13.7v-51.3h8.5c1.7,0,2.9,0.8,3.4,2.4L325,309.6
	C325,309.6,325,309.6,325,309.6z M409.1,315.1c-0.3,0.5-0.7,0.9-1.2,1.2c-0.5,0.3-1.1,0.5-1.7,0.4c-0.7,0-1.3-0.2-1.9-0.6
	c-0.7-0.4-1.4-0.8-2.1-1.2c-0.9-0.5-1.9-0.9-2.8-1.2c-1.3-0.4-2.7-0.6-4.1-0.6c-2.1,0-3.8,0.4-5.3,1.1c-1.5,0.7-2.8,1.8-3.8,3.2
	c-1.1,1.5-1.8,3.3-2.2,5.1c-0.5,2.2-0.7,4.5-0.7,6.7c0,5.2,1,9.3,3.2,12.1c2.1,2.8,5,4.2,8.6,4.2c1.3,0,2.3-0.1,3.3-0.3
	c0.9-0.2,1.7-0.5,2.4-0.8c0.7-0.3,1.3-0.7,1.8-1.1c0.5-0.4,1-0.8,1.4-1.1c0.5-0.3,0.9-0.6,1.4-0.8c0.5-0.2,1-0.3,1.5-0.3
	c1.1,0,1.9,0.4,2.5,1.2l3.9,5c-2.6,3.1-6,5.5-9.8,6.9c-1.7,0.6-3.6,1.1-5.4,1.3c-1.8,0.2-3.6,0.4-5.4,0.4c-3.1,0-6.1-0.6-9-1.8
	c-2.8-1.2-5.3-2.9-7.4-5.2c-2.2-2.4-3.9-5.2-5.1-8.3c-1.2-3.3-1.9-7-1.9-11.3c0-3.7,0.5-7.2,1.6-10.5c1-3.1,2.7-5.9,4.8-8.4
	c2.2-2.4,4.9-4.3,7.9-5.6c3.1-1.3,6.8-2,10.9-2c3.9,0,7.3,0.6,10.3,1.9c2.9,1.3,5.6,3.1,8,5.5L409.1,315.1L409.1,315.1z M450,333.5
	c-3.4,0.2-6.1,0.5-8.4,0.9c-2.2,0.4-4,1-5.3,1.6c-1.3,0.7-2.2,1.4-2.8,2.3c-0.5,0.8-0.8,1.8-0.8,2.8c0,2,0.6,3.4,1.7,4.2
	c1.1,0.8,2.7,1.2,4.7,1.2c2.3,0,4.3-0.4,5.9-1.2c1.7-0.8,3.3-2.1,5-3.8L450,333.5L450,333.5z M422,310.7c2.9-2.7,6.3-4.7,10-6.1
	c3.8-1.4,7.8-2.1,11.8-2c3,0,5.8,0.5,8.2,1.5c2.4,1,4.4,2.4,6.1,4.2c1.7,1.8,3,3.9,3.9,6.4c0.9,2.6,1.4,5.3,1.3,8.1v32.3h-6.3
	c-1.3,0-2.3-0.2-3-0.5c-0.7-0.4-1.2-1.1-1.7-2.3l-1.1-3.3c-1.2,1.1-2.5,2.1-3.8,3c-1.2,0.9-2.5,1.6-3.7,2.2c-1.3,0.6-2.7,1-4.2,1.3
	c-1.5,0.3-3.1,0.4-4.9,0.4c-2.3,0-4.3-0.3-6.2-0.9c-1.8-0.5-3.4-1.5-4.8-2.7c-1.4-1.2-2.4-2.7-3.1-4.4c-0.8-1.9-1.1-4-1.1-6.1
	c0-1.9,0.5-3.8,1.4-5.7c1-1.9,2.6-3.6,4.9-5.2c2.3-1.5,5.4-2.8,9.4-3.8c3.9-1,8.8-1.6,14.6-1.7v-2.6c0-3.2-0.7-5.6-2-7.1
	s-3.3-2.3-5.9-2.3c-1.9,0-3.5,0.2-4.7,0.7c-1.1,0.4-2.2,0.9-3.3,1.4l-2.7,1.4c-0.9,0.5-1.9,0.7-2.9,0.7c-0.9,0-1.7-0.2-2.4-0.7
	c-0.6-0.5-1.2-1.1-1.6-1.7L422,310.7L422,310.7z M490.2,312.1c1.6-2.9,3.5-5.2,5.6-6.9c2.1-1.7,4.8-2.6,7.5-2.5
	c2.3,0,4.2,0.5,5.7,1.6l-0.9,10.2c-0.2,0.7-0.4,1.1-0.8,1.4c-0.4,0.3-0.9,0.4-1.4,0.4c-0.5,0-1.3-0.1-2.3-0.2
	c-0.9-0.1-1.9-0.2-2.8-0.2c-1.3,0-2.4,0.2-3.4,0.5c-1,0.4-1.8,0.9-2.6,1.5c-0.8,0.7-1.5,1.5-2.1,2.4c-0.6,1-1.2,2.1-1.7,3.3v31.4
	h-13.7v-51.3h8.1c1.4,0,2.3,0.3,2.9,0.7c0.5,0.5,0.9,1.4,1.1,2.6L490.2,312.1L490.2,312.1z M536.7,327.4c2.8,0,4.9-0.7,6.2-2.1
	c1.3-1.4,2-3.3,2-5.5c0-2.4-0.7-4.2-2-5.6c-1.3-1.4-3.4-2-6.2-2c-2.8,0-4.9,0.7-6.2,2c-1.3,1.3-2,3.2-2,5.6c0,2.2,0.7,4.1,2,5.5
	C531.9,326.6,534,327.4,536.7,327.4L536.7,327.4z M549.7,357c0-0.8-0.3-1.6-0.9-2.2c-0.6-0.6-1.4-1.1-2.3-1.3
	c-1.1-0.4-2.2-0.6-3.4-0.7c-1.4-0.2-2.7-0.3-4.1-0.4c-1.5-0.1-3-0.2-4.5-0.2c-1.5-0.1-3.1-0.2-4.6-0.4c-1.2,0.7-2.1,1.5-2.9,2.5
	c-1.3,1.6-1.5,3.7-0.5,5.5c0.5,0.8,1.1,1.4,1.9,1.8c1.1,0.6,2.3,1,3.5,1.2c1.5,0.3,3.3,0.4,5.5,0.4c2.3,0,4.2-0.2,5.7-0.5
	c1.6-0.3,2.8-0.7,3.8-1.3c1-0.5,1.7-1.2,2.1-2C549.5,358.8,549.7,357.9,549.7,357C549.7,357,549.7,357,549.7,357z M563.3,305.3v5
	c0,0.7-0.2,1.4-0.7,1.9c-0.5,0.5-1.2,0.8-2.2,1.1l-4.2,0.8c0.6,1.7,0.9,3.5,0.8,5.2c0,2.4-0.5,4.8-1.6,6.9c-1,2-2.5,3.8-4.3,5.2
	c-1.9,1.5-4.1,2.6-6.5,3.3c-2.6,0.8-5.3,1.2-8.1,1.2c-1.8,0-3.5-0.2-5.1-0.5c-1.4,0.9-2.1,1.8-2.1,2.8c0,1,0.5,1.7,1.4,2.1
	c0.9,0.4,2.2,0.7,3.7,0.9c1.5,0.2,3.3,0.3,5.3,0.3c2,0.1,4,0.2,6,0.3c2,0.2,4,0.5,6,0.9c2,0.4,3.7,1.1,5.3,2s2.8,2.2,3.7,3.8
	c0.9,1.6,1.4,3.6,1.4,6c0,2.3-0.6,4.5-1.7,6.7c-1.2,2.2-2.9,4.2-4.9,5.8c-2.1,1.7-4.8,3.1-7.9,4.1c-3.1,1-6.7,1.5-10.6,1.5
	c-4,0-7.4-0.4-10.3-1.1c-2.9-0.7-5.3-1.7-7.2-3c-1.9-1.2-3.3-2.7-4.3-4.3c-0.9-1.5-1.4-3.3-1.4-5.1c0-2.3,0.7-4.2,2.1-5.8
	c1.4-1.6,3.3-2.9,5.8-3.8c-1.3-0.7-2.3-1.7-3.1-2.9c-0.8-1.2-1.2-2.7-1.2-4.6c0-1.5,0.6-3.1,1.7-4.8c1.1-1.7,2.8-3.1,5.1-4.2
	c-2.5-1.3-4.7-3.2-6.2-5.6c-1.5-2.3-2.3-5.1-2.3-8.2c0-2.6,0.5-4.9,1.6-6.9c1-2.1,2.5-3.9,4.3-5.3c2-1.5,4.2-2.6,6.6-3.3
	c2.7-0.8,5.4-1.2,8.2-1.1c4.4,0,8.2,0.9,11.6,2.6L563.3,305.3L563.3,305.3z M595.9,345.4c3.9,0,6.8-1.4,8.7-4.1
	c1.9-2.7,2.8-6.7,2.8-12.1c0-5.3-0.9-9.3-2.8-12c-1.9-2.7-4.8-4.1-8.7-4.1c-4,0-7,1.4-8.9,4.1c-1.9,2.7-2.8,6.7-2.8,12
	c0,5.3,0.9,9.4,2.8,12.1C588.9,344,591.8,345.4,595.9,345.4 M595.9,302.8c3.8,0,7.3,0.6,10.5,1.8c3,1.2,5.8,3,8.1,5.3
	c2.3,2.3,4,5,5.2,8.3c1.2,3.3,1.8,6.9,1.8,11c0,4.1-0.6,7.8-1.8,11c-1.1,3.1-2.9,6-5.2,8.3c-2.3,2.3-5.1,4.1-8.1,5.3
	c-3.1,1.2-6.6,1.8-10.5,1.8c-3.9,0-7.4-0.6-10.6-1.8c-3.1-1.2-5.8-3-8.1-5.3c-2.3-2.4-4.1-5.2-5.2-8.3c-1.2-3.3-1.9-7-1.9-11
	c0-4.1,0.6-7.7,1.9-11c1.1-3.1,2.9-5.9,5.2-8.3c2.3-2.3,5.1-4.1,8.1-5.3C588.5,303.4,592,302.8,595.9,302.8"/>
<defs>
	<filter id="Adobe_OpacityMaskFilter" filterUnits="userSpaceOnUse" x="101.7" y="335.5" width="50.4" height="58.2">
		<feColorMatrix  type="matrix" values="1 0 0 0 0  0 1 0 0 0  0 0 1 0 0  0 0 0 1 0"/>
	</filter>
</defs>
<mask maskUnits="userSpaceOnUse" x="101.7" y="335.5" width="50.4" height="58.2" id="d_1_">
	<g class="st1">
		<path id="c_1_" class="st2" d="M101.7,393.8h50.4v-58.2h-50.4V393.8z"/>
	</g>
</mask>
<path class="st3" d="M101.7,335.5v58.2l50.4-29L101.7,335.5z"/>
<defs>
	<filter id="Adobe_OpacityMaskFilter_1_" filterUnits="userSpaceOnUse" x="21.5" y="285.2" width="73.7" height="108.2">
		<feColorMatrix  type="matrix" values="1 0 0 0 0  0 1 0 0 0  0 0 1 0 0  0 0 0 1 0"/>
	</filter>
</defs>
<mask maskUnits="userSpaceOnUse" x="21.5" y="285.2" width="73.7" height="108.2" id="f_1_">
	<g class="st4">
		<path id="e_1_" class="st2" d="M21.5,285.2v108.2h73.7V285.2H21.5z"/>
	</g>
</mask>
<path class="st5" d="M95.2,331.7l-73.7-46.5v62.1l73.7,46.1V331.7z"/>
<path class="st6" d="M152.4,294.8l-74.3-46.7l-53.6,31.2l74,46.7L152.4,294.8z"/>
</svg>
