<?xml version="1.0" standalone="no"?>
<!DOCTYPE svg PUBLIC "-//W3C//DTD SVG 20010904//EN"
 "http://www.w3.org/TR/2001/REC-SVG-20010904/DTD/svg10.dtd">
<svg version="1.0" xmlns="http://www.w3.org/2000/svg"
 width="1000.000000pt" height="1000.000000pt" viewBox="0 0 1000.000000 1000.000000"
 preserveAspectRatio="xMidYMid meet">
<metadata>
Created by potrace 1.11, written by Peter Selinger 2001-2013
</metadata>
<g transform="translate(0.000000,1000.000000) scale(0.100000,-0.100000)"
fill="#000000" stroke="none">
<path d="M0 5000 l0 -5000 5000 0 5000 0 0 5000 0 5000 -5000 0 -5000 0 0
-5000z m2820 1650 l0 -350 -180 0 -181 0 4 -937 c3 -933 3 -938 25 -1022 34
-126 76 -207 146 -277 100 -100 225 -148 391 -148 268 -1 448 141 528 415 21
73 21 88 24 1022 l4 947 -181 0 -180 0 0 350 0 350 1845 0 1845 0 0 -350 0
-350 -170 0 -171 0 228 -303 c125 -166 238 -316 249 -332 12 -17 24 -28 26
-25 3 3 28 41 57 84 29 44 133 189 232 323 98 133 179 245 179 248 0 3 -72 5
-160 5 l-160 0 0 350 0 350 915 0 915 0 0 -350 0 -350 -203 0 -202 0 -473
-626 -474 -625 40 -52 c22 -29 229 -297 461 -597 l422 -545 207 -5 207 -5 3
-347 2 -348 -955 0 -955 0 0 350 0 350 170 0 169 0 -202 263 c-111 144 -227
299 -258 345 -57 83 -57 83 -73 60 -9 -13 -52 -77 -95 -143 -44 -66 -144 -210
-224 -320 l-144 -200 164 -3 163 -2 0 -350 0 -350 -910 0 -910 0 0 350 0 350
198 1 197 0 470 627 c259 345 470 631 470 636 0 4 -202 273 -450 597 l-450
588 -377 1 -378 0 0 -847 c0 -879 -5 -1014 -40 -1196 -42 -219 -143 -459 -257
-612 -266 -358 -758 -565 -1341 -565 -340 0 -610 58 -877 189 -394 193 -633
502 -719 931 -34 168 -36 246 -36 1172 l0 928 -220 0 -220 0 0 350 0 350 935
0 935 0 0 -350z"/>
</g>
</svg>
