<?xml version="1.0" encoding="UTF-8"?>
<svg width="416px" height="132px" viewBox="0 0 416 132" version="1.1" xmlns="http://www.w3.org/2000/svg" xmlns:xlink="http://www.w3.org/1999/xlink">
    <!-- Generator: Sketch 58 (84663) - https://sketch.com -->
    <title>LogoWithTagline</title>
    <desc>Created with Sketch.</desc>
    <defs>
        <path d="M42.193235,82.3155787 L2.76403475,81.4657841 L2.70571283,45.3296778 C9.78313167,45.8369731 23.2047588,42.7234097 36.0561774,33.0331577 C29.2837755,31.6377089 27.0578551,29.9993264 26.876165,28.0204456 C26.7550383,26.7011917 28.5858086,25.5393271 32.3684758,24.5348516 L59.0986701,19.2032446 C57.5149318,35.3636074 56.555973,44.5020707 56.2217936,46.6186345 C55.7205245,49.7934803 54.8291884,52.8223936 52.9594351,52.459278 C51.0896817,52.0961625 48.8843408,49.5316776 47.2752065,43.4199141 C38.5917457,57.9121852 37.4725658,71.0040094 37.9011225,77.9141506 L38.0492954,79.6458098 C41.9648342,79.6475672 78.2704412,74.9577968 78.268685,71.0047904 L78.2410949,8.90199531 C78.239334,4.93847906 75.0618426,1.731118 71.1463038,1.72936059 L9.67314025,1.70176961 C5.85341679,1.70005521 2.73634247,4.74960903 2.58771169,8.57846716 L2.58465349,1.69858809 L78.2379097,1.73254352 L78.2718678,78.1689872 L59.4158644,79.4731381 L31.8433872,82.3242398 L2.72767939,80.633096 L2.58465349,1.69476627 L78.2473654,1.72872594 L78.2813252,78.1689915 L59.4876466,81.1172457 L42.193235,82.3155787 Z" id="path-1"></path>
        <path d="M26.34471,54.174352 C26.0049188,55.2678207 23.1621999,62.0909871 22.7235441,76.8548489 L9.79357852,78.2465214 C5.97529894,78.2465214 2.85810186,75.1969055 2.70780208,71.3853734 L2.70780208,57.5226116 C17.9166373,57.0931428 25.2813989,54.5667178 26.34471,54.174352 Z" id="path-3"></path>
    </defs>
    <g id="LogoWithTagline" stroke="none" stroke-width="1" fill="none" fill-rule="evenodd">
        <rect fill="#FFFFFF" x="0" y="0" width="416" height="132"></rect>
        <g id="New-text,-New-logo" transform="translate(13.000000, 8.000000)">
            <g id="Gotham-Modified" transform="translate(0.000000, 11.000000)" fill="#25A7D9">
                <g id="Group-3" transform="translate(0.000000, 0.026455)">
                    <g id="Group-5" transform="translate(0.101324, 0.091187)">
                        <path d="M20.6587453,30.9397763 C24.2676569,30.9397763 27.1160765,30.0261989 29.2040896,28.1990166 C31.2921027,26.3718343 32.3360936,24.0226352 32.3360936,21.1513487 L32.3360936,20.9947339 C32.3360936,17.758011 31.279214,15.3174541 29.1654229,13.6729901 C27.0516318,12.028526 24.216101,11.2063064 20.6587453,11.2063064 L9.6000644,11.2063064 L9.6000644,30.9397763 L20.6587453,30.9397763 Z M0.0880521742,2.43587526 L21.4320796,2.43587526 C24.5769883,2.43587526 27.4254079,2.86656177 29.9774239,3.7279477 C32.52944,4.58933363 34.6947544,5.82918872 36.4734323,7.44755017 C38.2521101,9.06591162 39.6183204,10.9974753 40.5721042,13.2422993 C41.525888,15.4871232 42.0027727,17.9929356 42.0027727,20.7598116 L42.0027727,20.9164265 C42.0027727,23.9965338 41.4356666,26.6981127 40.3014372,29.0212445 C39.1672079,31.3443763 37.6205547,33.2889911 35.6614312,34.8551473 C33.7023078,36.4213036 31.4081056,37.6089542 28.7787557,38.4181349 C26.1494059,39.2273157 23.3396526,39.6319 20.3494116,39.6319 L9.6000644,39.6319 L9.6000644,57.2510696 L0.0880521742,57.2510696 L0.0880521742,2.43587526 Z M47.4391039,15.9047516 L56.7964493,15.9047516 L56.7964493,25.2233346 C58.0853463,22.0910221 59.9155526,19.5852097 62.287123,17.7058222 C64.6586935,15.8264348 67.6488897,14.9650617 71.2578012,15.1216774 L71.2578012,25.1450272 L70.7164672,25.1450272 C68.654232,25.1450272 66.7724706,25.4843559 65.0711266,26.1630237 C63.3697826,26.8416914 61.9004621,27.8596776 60.6631209,29.217013 C59.4257798,30.5743485 58.4720104,32.2840434 57.8017839,34.3461491 C57.1315575,36.4082548 56.7964493,38.7966072 56.7964493,41.5112781 L56.7964493,57.2510696 L47.4391039,57.2510696 L47.4391039,15.9047516 Z M95.7181569,49.9684795 C97.6257244,49.9684795 99.3399317,49.6160996 100.86083,48.9113293 C102.381729,48.206559 103.683495,47.2538282 104.766169,46.0531084 C105.848842,44.8523887 106.673724,43.4559203 107.240838,41.8636614 C107.807953,40.2714026 108.091506,38.5878099 108.091506,36.8128328 L108.091506,36.656218 C108.091506,34.8290357 107.782175,33.1062897 107.163505,31.4879282 C106.544834,29.8695668 105.681286,28.4600473 104.572835,27.2593275 C103.464384,26.0586078 102.149728,25.105877 100.62883,24.4011067 C99.1079314,23.6963364 97.4195017,23.3439565 95.56349,23.3439565 C93.7074784,23.3439565 92.0190486,23.6963364 90.4981502,24.4011067 C88.9772517,25.105877 87.6754853,26.0455566 86.5928118,27.2201738 C85.5101384,28.394791 84.6852567,29.7912594 84.118142,31.4096208 C83.5510273,33.0279823 83.2674742,34.7246261 83.2674742,36.4996031 L83.2674742,36.656218 C83.2674742,38.4834003 83.5768049,40.1930952 84.1954754,41.785354 C84.814146,43.3776129 85.677694,44.7871323 86.7861454,46.0139547 C87.8945968,47.2407771 89.209252,48.206559 90.7301505,48.9113293 C92.2510489,49.6160996 93.9137011,49.9684795 95.7181569,49.9684795 Z M95.56349,58.1907586 C92.4701373,58.1907586 89.5959401,57.629561 86.9408123,56.5071491 C84.2856845,55.3847371 81.9914822,53.8577577 80.0581368,51.926165 C78.1247913,49.9945723 76.6168044,47.7236798 75.5341309,45.1134194 C74.4514575,42.503159 73.9101289,39.7363245 73.9101289,36.8128328 L73.9101289,36.656218 C73.9101289,33.6805211 74.4643463,30.8875844 75.5727977,28.277324 C76.6812491,25.6670636 78.2021247,23.38312 80.1354702,21.4254247 C82.0688157,19.4677294 84.3630179,17.9146478 87.0181457,16.7661332 C89.6732735,15.6176186 92.5732482,15.04337 95.7181569,15.04337 C98.8630656,15.04337 101.76304,15.6045675 104.418168,16.7269795 C107.073296,17.8493915 109.367498,19.389422 111.300844,21.3471173 C113.234189,23.3048126 114.742176,25.5757051 115.824849,28.1598629 C116.907523,30.7440207 117.448851,33.5239063 117.448851,36.4996031 L117.448851,36.656218 C117.448851,39.5797096 116.894634,42.3465442 115.786183,44.9568046 C114.677731,47.567065 113.156856,49.8510085 111.22351,51.8087038 C109.290165,53.7663991 106.983074,55.3194808 104.302168,56.4679954 C101.621262,57.6165099 98.7083987,58.1907586 95.56349,58.1907586 Z" id="Pro"></path>
                        <path d="M142.095226,49.8626586 C144.002793,49.8626586 145.717001,49.5102788 147.237899,48.8055084 C148.758797,48.1007381 150.060564,47.1480074 151.143237,45.9472876 C152.225911,44.7465678 153.050793,43.3500995 153.617907,41.7578406 C154.185022,40.1655818 154.468575,38.4819891 154.468575,36.707012 L154.468575,36.5503972 C154.468575,34.7232149 154.159244,33.0004688 153.540574,31.3821074 C152.921903,29.763746 152.058355,28.3542265 150.949904,27.1535067 C149.841452,25.9527869 148.526797,25.0000562 147.005899,24.2952859 C145.485,23.5905155 143.796571,23.2381357 141.940559,23.2381357 C140.084547,23.2381357 138.396117,23.5905155 136.875219,24.2952859 C135.354321,25.0000562 134.052554,25.9397358 132.969881,27.114353 C131.887207,28.2889702 131.062325,29.6854385 130.495211,31.3038 C129.928096,32.9221614 129.644543,34.6188052 129.644543,36.3937823 L129.644543,36.5503972 C129.644543,38.3775794 129.953874,40.0872743 130.572544,41.6795332 C131.191215,43.271792 132.054763,44.6813115 133.163214,45.9081339 C134.271666,47.1349563 135.586321,48.1007381 137.107219,48.8055084 C138.628118,49.5102788 140.29077,49.8626586 142.095226,49.8626586 Z M163.851219,0.08894585 L163.851219,57.2243447 L154.550307,57.2243447 L154.551458,54.2469288 C153.361409,55.0609966 152.070671,55.7660764 150.679237,56.3621745 C147.998331,57.5106891 145.085468,58.0849378 141.940559,58.0849378 C138.847206,58.0849378 135.973009,57.5237402 133.317881,56.4013282 C130.662753,55.2789163 128.368551,53.7519368 126.435206,51.8203441 C124.50186,49.8887514 122.993873,47.617859 121.9112,45.0075986 C120.828526,42.3973382 120.287198,39.6305036 120.287198,36.707012 L120.287198,36.5503972 C120.287198,33.5747003 120.841415,30.7817636 121.949866,28.1715032 C123.058318,25.5612428 124.579194,23.2772992 126.512539,21.3196039 C128.445885,19.3619086 130.740087,17.8088269 133.395215,16.6603124 C136.050342,15.5117978 138.950317,14.9375491 142.095226,14.9375491 C145.240134,14.9375491 148.140109,15.4987467 150.795237,16.6211587 C152.139962,17.1896192 153.392107,17.8652009 154.551683,18.64791 L154.550307,0.08894585 L163.851219,0.08894585 Z" id="Combined-Shape"></path>
                        <path d="M173.948956,57.2104754 L173.947839,2.49906953 L193.728669,2.49906953 C206.337429,2.49906953 213.93776,9.35492856 213.93776,19.5121417 C213.93776,30.7226955 204.907245,37.3549453 192.763849,37.3549453 L179.619532,37.3549453 L179.619532,57.2104754 L173.948956,57.2104754 Z M179.634345,31.9040921 L192.998337,31.9040921 C201.40163,31.9040921 208.281105,27.7157975 208.281105,19.8909815 L208.281105,19.7405042 C208.281105,11.3890178 201.563998,7.93817427 193.4298,7.93817427 L179.619991,7.93817427 L179.634345,31.9040921 Z M232.275623,57.8974236 C223.678689,57.8974236 216.49891,52.7549107 216.49891,44.7548562 L216.49891,44.6018392 C216.49891,36.4919418 222.892403,30.9991492 234.240101,30.9991492 C239.231545,30.9991492 242.437563,31.4928094 246.110792,32.4217489 L246.110792,31.9014339 C246.110792,24.0210618 241.13332,20.8777083 234.315658,20.8777083 C229.631133,20.8777083 225.358779,22.3663547 221.767798,24.3596142 L219.698409,19.3593192 C223.929593,17.3700991 228.201936,15.5341496 234.542328,15.5341496 C240.882721,15.5341496 244.627223,17.3508347 247.422827,20.1816479 C249.99176,22.7829358 251.531791,26.5706186 251.531791,31.7484169 L251.531791,57.2104754 L246.110792,57.2104754 L246.110792,52.0980471 C243.495605,55.090461 238.549245,57.9527539 232.275623,57.8974236 Z M232.502293,52.5687231 C239.362852,52.5687231 246.182627,48.3355317 246.182627,41.4649921 L246.182627,37.7313047 C242.773207,36.9675007 239.487303,36.1707999 234.01343,36.1707999 C226.009605,36.1707999 222.214051,39.7516508 222.214051,44.3723138 L222.214051,44.5253308 C222.214051,49.3820745 226.827261,52.5687231 232.502293,52.5687231 Z M276.567406,57.8949516 C267.154611,57.8949516 257.242829,50.3022832 257.242829,37.0427393 C257.242829,24.0335229 266.612449,15.8963871 276.567406,15.8963871 C282.468538,15.8963871 287.491563,18.422543 291.268181,23.1977955 L291.268181,0.240900233 L296.717293,0.240900233 L296.717293,57.2104754 L291.268181,57.2104754 L291.268181,50.3244784 C287.632635,54.7896154 283.12497,57.8949516 276.567406,57.8949516 Z M276.93892,52.5334053 C284.815016,52.5334053 291.492489,45.6838833 291.492489,36.9675007 L291.492489,36.8170234 C291.492489,27.7838887 284.521046,21.2467569 276.93892,21.2467569 C268.691309,21.2467569 262.973917,27.5379527 262.973917,36.7417848 L262.973917,36.8922621 C262.973917,45.8164236 268.98852,52.5334053 276.93892,52.5334053 Z" id="Pad"></path>
                    </g>
                </g>
            </g>
            <g id="Group-4" transform="translate(313.000000, 0.000000)">
                <g id="Group" transform="translate(0.014832, 0.000000)">
                    <mask id="mask-2" fill="white">
                        <use xlink:href="#path-1"></use>
                    </mask>
                    <g id="path-3" transform="translate(40.432989, 42.009503) rotate(2.500000) translate(-40.432989, -42.009503) "></g>
                    <path d="M12.8451998,5.39881321 C21.999202,2.97303622 31.1890776,1.76014773 40.4148265,1.76014773 C49.6551068,1.76014773 58.8956253,2.97686003 68.1363823,5.41028464 L68.1363832,5.41028108 C71.2844609,6.2392835 73.7471507,8.69127103 74.5898557,11.8357085 C77.0663959,21.0765765 78.3046661,30.3846448 78.3046661,39.7599135 C78.3046661,49.1705838 77.0570267,58.5817026 74.561748,67.9932697 L74.5617476,67.9932696 C73.7314791,71.124835 71.2944561,73.5761 68.1677818,74.4246019 C58.8914312,76.9419735 49.6448629,78.2006593 40.4280767,78.2006593 C31.2228142,78.2006593 22.0177485,76.945119 12.8128795,74.4340384 L12.8128804,74.4340353 C9.68861437,73.5817381 7.25545519,71.1288652 6.42839636,67.9978235 C3.92702082,58.5282297 2.67633305,49.1200664 2.67633305,39.7733337 C2.67633305,30.4588523 3.91840459,21.1447749 6.40254768,11.8311016 C7.24119969,8.68678593 9.69953808,6.23240203 12.8451998,5.39881321 Z" id="Rectangle" fill="#25A7D9" mask="url(#mask-2)"></path>
                </g>
                <mask id="mask-4" fill="white">
                    <use xlink:href="#path-3"></use>
                </mask>
                <g id="path-5"></g>
                <path d="M12.8293087,5.39940936 C21.9880369,2.97323494 31.18266,1.76014773 40.4131779,1.76014773 C49.6582307,1.76014773 58.9035219,2.97705832 68.1490516,5.41087951 L68.1490518,5.41087868 C71.2971276,6.23958767 73.7599946,8.69126781 74.6030266,11.8355383 C77.0806745,21.0764622 78.3194984,30.3845873 78.3194984,39.7599135 C78.3194984,49.1706303 77.0713041,58.5817954 74.5749154,67.993409 L74.574918,67.9934097 C73.7443237,71.1248261 71.3071078,73.5757975 68.1804156,74.4240022 C58.8992885,76.9417736 49.6479612,78.2006593 40.4264338,78.2006593 C31.2164338,78.2006593 22.0066307,76.944919 12.7970244,74.4334384 L12.7970246,74.4334377 C9.67273838,73.5814377 7.23938482,71.1288564 6.41200102,67.9979613 C3.90951318,58.528321 2.65826926,49.1201118 2.65826926,39.7733337 C2.65826926,30.4587978 3.90089559,21.144666 6.38614826,11.8309383 C7.22512644,8.68678526 9.68364486,6.23270509 12.8293087,5.39940936 Z" id="Rectangle" fill="#25A7D9" mask="url(#mask-4)"></path>
            </g>
        </g>
        <text id="Helping-you-build-th" font-family="Oxygen-Regular, Oxygen" font-size="24" font-weight="normal" letter-spacing="0.22" fill="#25A7D9">
            <tspan x="11" y="117">Helping you build the right products</tspan>
        </text>
    </g>
</svg>