<svg xmlns="http://www.w3.org/2000/svg" xmlns:xlink="http://www.w3.org/1999/xlink" viewBox="0 0 824 201">
  <defs>
    <path id="madgex-a" d="M58.687,100.053 C81.443,100.053 99.925,81.573 99.925,58.79 C99.925,36.024 81.443,17.549 58.687,17.549 C35.899,17.549 17.416,36.024 17.416,58.79 C17.416,81.573 35.899,100.053 58.687,100.053 Z M87.451,8.099 C111.565,22.026 116.967,13.515 116.967,13.515 L116.967,104.098 C116.967,104.098 111.538,95.587 87.451,109.514 L87.423,109.514 C78.927,114.357 69.143,117.114 58.687,117.114 C26.486,117.114 0.374,91.006 0.374,58.79 C0.374,26.59 26.486,0.489 58.687,0.489 C69.143,0.489 78.927,3.262 87.423,8.099 L87.451,8.099 Z"/>
    <path id="madgex-c" d="M17.153,96.792 C17.153,119.575 35.608,138.055 58.364,138.055 C81.152,138.055 99.602,119.575 99.602,96.792 C99.602,74.026 81.152,55.546 58.364,55.546 C35.608,55.546 17.153,74.026 17.153,96.792 Z M116.617,0.002 L116.671,0.002 L116.671,142.095 C116.671,142.095 111.242,133.589 87.128,147.516 C78.642,152.337 68.847,155.116 58.364,155.116 C26.195,155.116 0.089,129.009 0.089,96.792 C0.089,64.592 26.195,38.485 58.364,38.485 C73.993,38.485 88.137,44.655 98.565,54.624 L98.565,17.466 C99.116,2.584 115.547,0.16 116.617,0.002 Z"/>
    <path id="madgex-e" d="M144.978,114.786 L144.978,45.473 C144.978,30.001 133.6,17.461 118.146,17.461 C102.812,17.461 91.549,29.815 91.347,45.096 C91.347,45.195 91.374,45.342 91.374,45.473 L91.374,96.928 C91.117,112.679 73.099,114.786 73.099,114.786 L73.066,114.786 L73.066,45.025 C72.837,29.799 60.389,17.461 45.083,17.461 C29.661,17.461 18.251,30.001 18.251,45.473 L18.251,96.803 C18.109,112.663 0.003,114.786 0.003,114.786 L0.003,13.519 C7.451,18.47 17.476,9.834 17.476,9.834 C25.099,3.883 34.687,0.34 45.083,0.34 C59.898,0.34 73.415,7.492 81.993,18.531 C90.25,7.492 103.363,0.34 118.146,0.34 C143.013,0.34 163.258,20.583 163.258,45.473 L163.258,96.595 C163.258,112.663 145.005,114.786 145.005,114.786 L144.978,114.786 Z"/>
    <path id="madgex-g" d="M69.134,56.243 L115.224,112.787 L113.374,112.787 C105.838,112.601 90.302,110.548 79.497,97.806 L57.292,70.514 L26.564,107.557 C22.461,111.864 17.435,112.787 12.704,112.787 L0.371,112.787 L46.46,57.226 L0.458,0.852 L1.206,0.813 L2.707,0.813 C11.923,0.983 26.013,3.57 36.321,15.98 L58.302,42.949 L89.172,5.754 C92.872,1.823 97.177,0.955 101.505,0.813 L115.136,0.813 L69.134,56.243 Z"/>
    <path id="madgex-i" d="M58.899,100.053 C81.714,100.053 100.137,81.573 100.137,58.79 C100.137,36.024 81.714,17.549 58.899,17.549 C36.111,17.549 18.321,36.024 18.321,58.79 C18.321,81.573 36.111,100.053 58.899,100.053 Z M117.179,13.515 L117.179,58.79 C117.179,59.025 117.146,59.271 117.146,59.484 L117.146,104.835 C117.119,108.968 116.655,113.166 115.678,117.359 C108.459,148.724 77.152,168.312 45.758,161.057 L45.786,161.03 C32.989,158.081 21.208,150.848 12.749,139.863 C24.591,130.708 33.775,137.019 35.041,137.887 C39.488,141.01 44.432,143.232 49.627,144.444 C71.81,149.559 93.927,135.719 99.073,113.516 C99.733,110.611 100.082,106.468 100.11,103.607 L100.11,100.009 C89.572,110.601 75.013,117.114 58.899,117.114 C26.697,117.114 0.618,91.006 0.618,58.79 C0.618,26.59 26.697,0.489 58.899,0.489 C69.382,0.489 79.144,3.262 87.635,8.072 L87.635,8.099 C111.749,22.01 117.179,13.515 117.179,13.515 Z"/>
    <path id="madgex-k" d="M57.77,17.476 C37.088,17.487 22.185,30.835 18.147,49.736 L96.47,49.736 C93.12,30.835 76.885,17.487 57.77,17.476 Z M96.35,67.332 L17.999,67.332 C21.814,86.183 38.474,100.443 58.403,100.443 C68.684,100.443 78.386,96.654 86.015,90.027 C87.892,88.263 95.079,82.285 108.427,89.535 C97.392,106.94 78.681,117.329 58.403,117.329 C26.348,117.329 0.242,91.211 0.242,59.082 C0.242,25.971 23.866,0.95 57.42,0.601 L57.42,0.557 C57.54,0.557 57.655,0.59 57.797,0.59 C57.911,0.59 57.999,0.557 58.146,0.557 C60.165,0.557 62.359,0.732 64.673,1.037 C75.095,2.408 86.56,6.595 94.129,12.939 C94.648,13.376 95.193,13.818 95.69,14.271 C95.745,14.353 95.832,14.397 95.892,14.473 C100.481,18.606 104.612,23.82 107.93,30.344 C108.077,30.606 108.858,32.282 109.12,32.888 C109.261,33.166 109.349,33.423 109.463,33.712 C110.014,34.968 110.533,36.267 111.024,37.61 C111.199,38.102 111.34,38.582 111.428,39.013 C113.823,46.657 113.769,52.203 113.769,52.203 C113.736,55.124 114.2,58.678 110.244,62.882 C105.769,67.675 96.35,67.332 96.35,67.332 Z"/>
  </defs>
  <g fill="none" fill-rule="evenodd">
    <g transform="translate(182 38)">
      <mask id="madgex-b" fill="#fff">
        <use xlink:href="#madgex-a"/>
      </mask>
      <polygon fill="#3C3C3C" points=".3 117.16 117.06 117.16 117.06 .4 .3 .4" mask="url(#madgex-b)"/>
    </g>
    <g transform="translate(318)">
      <mask id="madgex-d" fill="#fff">
        <use xlink:href="#madgex-c"/>
      </mask>
      <polygon fill="#3C3C3C" points=".02 155.16 116.78 155.16 116.78 0 .02 0" mask="url(#madgex-d)"/>
    </g>
    <g transform="translate(0 38)">
      <mask id="madgex-f" fill="#fff">
        <use xlink:href="#madgex-e"/>
      </mask>
      <polygon fill="#3C3C3C" points="-.1 114.88 163.34 114.88 163.34 .28 -.1 .28" mask="url(#madgex-f)"/>
    </g>
    <g transform="translate(708 40)">
      <mask id="madgex-h" fill="#fff">
        <use xlink:href="#madgex-g"/>
      </mask>
      <polygon fill="#3C3C3C" points=".26 112.88 115.34 112.88 115.34 .8 .26 .8" mask="url(#madgex-h)"/>
    </g>
    <g transform="translate(453 38)">
      <mask id="madgex-j" fill="#fff">
        <use xlink:href="#madgex-i"/>
      </mask>
      <polygon fill="#3C3C3C" points=".5 162.64 117.26 162.64 117.26 .4 .5 .4" mask="url(#madgex-j)"/>
    </g>
    <g transform="translate(589 38)">
      <mask id="madgex-l" fill="#fff">
        <use xlink:href="#madgex-k"/>
      </mask>
      <polygon fill="#3C3C3C" points=".22 117.4 113.86 117.4 113.86 .52 .22 .52" mask="url(#madgex-l)"/>
    </g>
  </g>
</svg>
