<?xml version="1.0" encoding="UTF-8"?>
<svg width="35px" height="56px" viewBox="0 0 35 56" version="1.1" xmlns="http://www.w3.org/2000/svg" xmlns:xlink="http://www.w3.org/1999/xlink">
    <!-- Generator: Sketch 43.2 (39069) - http://www.bohemiancoding.com/sketch -->
    <title>American Express</title>
    <desc>Created with Sketch.</desc>
    <defs></defs>
    <g id="Page-1" stroke="none" stroke-width="1" fill="none" fill-rule="evenodd" opacity="0.340000004">
        <g id="American-Express" transform="translate(0.421324, 10.039975)" fill-rule="nonzero">
            <path d="M33.6699923,0.0712519301 L0.0761370958,0.0712519301 L0.0761370958,33.7867597 L33.6699923,33.7867597 L33.6699923,22.6597819 C33.8034407,22.4668774 33.8693309,22.2201169 33.8693309,21.9184282 C33.8693309,21.5731304 33.8034407,21.3592554 33.6699923,21.1791" id="🔷-Shape" fill="#001731"></path>
            <path d="M3.10422497,14.6605016 L2.45795329,13.085691 L1.81537526,14.6605016 L3.10422497,14.6605016 Z M17.3415044,14.0334132 C17.2117497,14.1121716 17.058284,14.1147929 16.8744349,14.1147929 L15.7273742,14.1147929 L15.7273742,13.2373694 L16.8900436,13.2373694 C17.0545903,13.2373694 17.226286,13.2447568 17.3378108,13.3086214 C17.4602974,13.366171 17.536077,13.4886576 17.536077,13.6578511 C17.536077,13.8305001 17.463991,13.9694294 17.3415044,14.0334132 Z M25.5245146,14.6605016 L24.8710939,13.085691 L24.2212477,14.6605016 L25.5245146,14.6605016 Z M10.2708823,16.365067 L9.30290459,16.365067 L9.29933008,13.2712082 L7.93017301,16.365067 L7.10112463,16.365067 L5.72839305,13.2684677 L5.72839305,16.365067 L3.80792715,16.365067 L3.44511422,15.4839499 L1.47913288,15.4839499 L1.11262629,16.365067 L0.0870989312,16.365067 L1.77796204,12.4147552 L3.18083867,12.4147552 L4.78674756,16.1548858 L4.78674756,12.4147552 L6.32783863,12.4147552 L7.56354727,15.0945665 L8.69869299,12.4147552 L10.2707632,12.4147552 L10.2707632,16.365067 L10.2708823,16.365067 Z M14.1288526,16.365067 L10.9745845,16.365067 L10.9745845,12.4147552 L14.1288526,12.4147552 L14.1288526,13.2373694 L11.9188513,13.2373694 L11.9188513,13.9494121 L14.0758307,13.9494121 L14.0758307,14.7591582 L11.9188513,14.7591582 L11.9188513,15.5480529 L14.1288526,15.5480529 L14.1288526,16.365067 L14.1288526,16.365067 Z M18.5762599,13.478649 C18.5762599,14.1084779 18.1558973,14.4338776 17.9109241,14.5315809 C18.1175309,14.6102202 18.2939926,14.7491495 18.3779936,14.8642488 C18.5113229,15.0607278 18.5343189,15.2362363 18.5343189,15.5890406 L18.5343189,16.365067 L17.5819499,16.365067 L17.5783754,15.8668993 C17.5783754,15.6291943 17.6011331,15.2873518 17.4293183,15.0973069 C17.2913421,14.9583776 17.0810417,14.9282326 16.7411057,14.9282326 L15.7274933,14.9282326 L15.7274933,16.365067 L14.7833457,16.365067 L14.7833457,12.4147552 L16.9550997,12.4147552 C17.4376588,12.4147552 17.7932036,12.4275043 18.0984668,12.603966 C18.3971769,12.7804277 18.5762599,13.0380308 18.5762599,13.478649 Z M20.0873251,16.365067 L19.123875,16.365067 L19.123875,12.4147552 L20.0873251,12.4147552 L20.0873251,16.365067 Z M31.2645843,16.365067 L29.9265255,16.365067 L28.1367676,13.4001289 L28.1367676,16.365067 L26.2137995,16.365067 L25.8463398,15.4839499 L23.8848861,15.4839499 L23.5283882,16.365067 L22.4235067,16.365067 C21.9645394,16.365067 21.3834429,16.2635509 21.0543496,15.9281426 C20.7225158,15.5927342 20.5498669,15.1384138 20.5498669,14.4200562 C20.5498669,13.8341937 20.6530511,13.2986127 21.0588773,12.8753906 C21.3641406,12.5601187 21.8421719,12.4147552 22.4928522,12.4147552 L23.4069739,12.4147552 L23.4069739,13.2611995 L22.5120354,13.2611995 C22.1674525,13.2611995 21.9728799,13.3124342 21.7854563,13.4952109 C21.6244842,13.6615448 21.5140318,13.9759827 21.5140318,14.3900303 C21.5140318,14.8132524 21.5981519,15.1183966 21.7736605,15.3177352 C21.9190239,15.4740605 22.1831803,15.5214823 22.431728,15.5214823 L22.8557842,15.5214823 L24.1865749,12.4148743 L25.6013666,12.4148743 L27.2000073,16.1513113 L27.2000073,12.4148743 L28.6376758,12.4148743 L30.2974407,15.1660567 L30.2974407,12.4148743 L31.2645843,12.4148743 L31.2645843,16.365067 Z M0.0761370958,17.1409743 L1.6894333,17.1409743 L2.05319943,16.2635509 L2.86759231,16.2635509 L3.23040523,17.1409743 L6.40469063,17.1409743 L6.40469063,16.4701577 L6.68803024,17.143834 L8.33588007,17.143834 L8.61921968,16.460149 L8.61921968,17.1409743 L16.5079284,17.1409743 L16.5042347,15.7006845 L16.6568663,15.7006845 C16.7637442,15.7043782 16.7949616,15.7142676 16.7949616,15.8907294 L16.7949616,17.1409743 L20.8750283,17.1409743 L20.8750283,16.8056852 C21.2041216,16.9820277 21.7159917,17.1409743 22.3895488,17.1409743 L24.1060292,17.1409743 L24.4733699,16.2635509 L25.2877628,16.2635509 L25.6470012,17.1409743 L28.954735,17.1409743 L28.954735,16.3075174 L29.4556432,17.1409743 L32.1062627,17.1409743 L32.1062627,11.6314606 L29.4830478,11.6314606 L29.4830478,12.2821408 L29.1157072,11.6314606 L26.4239808,11.6314606 L26.4239808,12.2821408 L26.0866661,11.6314606 L22.4507921,11.6314606 C21.8421719,11.6314606 21.3071867,11.7164148 20.8750283,11.9531666 L20.8750283,11.6314606 L18.3659595,11.6314606 L18.3659595,11.9531666 C18.0909604,11.7091466 17.7162324,11.6314606 17.2995635,11.6314606 L8.13296696,11.6314606 L7.51791267,13.0544736 L6.88629649,11.6314606 L3.99904436,11.6314606 L3.99904436,12.2821408 L3.68186604,11.6314606 L1.21950419,11.6314606 L0.0760179455,14.2509818 L0.0760179455,17.1409743 L0.0761370958,17.1409743 Z" id="Shape" fill="#FFFFFF"></path>
            <path d="M33.6699923,20.054797 L31.9491033,20.054797 C31.7772885,20.054797 31.6631424,20.0612311 31.566988,20.1261681 C31.4673783,20.1901518 31.4290119,20.2851147 31.4290119,20.4104609 C31.4290119,20.559518 31.5131321,20.660915 31.6354995,20.7047624 C31.7351092,20.7394351 31.8421063,20.7495629 31.9993848,20.7495629 L32.5111357,20.7632652 C33.0275334,20.7760143 33.3722355,20.8647813 33.5824168,21.0812776 C33.6206641,21.1114226 33.6436601,21.1452613 33.6699923,21.1791 L33.6699923,20.054797 Z M33.6699923,22.6597819 C33.4406278,22.9951902 32.9936947,23.1652178 32.3886491,23.1652178 L30.5651716,23.1652178 L30.5651716,22.3179394 L32.3812618,22.3179394 C32.5614171,22.3179394 32.6874782,22.2942285 32.763377,22.2201169 C32.8291481,22.1589928 32.8750209,22.0702258 32.8750209,21.9623947 C32.8750209,21.8472954 32.8291481,21.755907 32.7596834,21.7010979 C32.6911719,21.6408078 32.591443,21.6134032 32.4270155,21.6134032 C31.5404175,21.5832581 30.4343445,21.6408078 30.4343445,20.3904436 C30.4343445,19.8173303 30.7982297,19.2140719 31.7890843,19.2140719 L33.6698732,19.2140719 L33.6698732,18.4279177 L31.9224136,18.4279177 C31.395054,18.4279177 31.0119855,18.5542171 30.7406801,18.7505769 L30.7406801,18.4279177 L28.1559508,18.4279177 C27.7426181,18.4279177 27.2574378,18.530387 27.0279541,18.7505769 L27.0279541,18.4279177 L22.4123065,18.4279177 L22.4123065,18.7505769 C22.0449659,18.4855864 21.4251456,18.4279177 21.1390655,18.4279177 L18.0945349,18.4279177 L18.0945349,18.7505769 C17.8039271,18.4691437 17.1576554,18.4279177 16.7637442,18.4279177 L13.3564007,18.4279177 L12.5766806,19.2717407 L11.8464079,18.4279177 L6.75654172,18.4279177 L6.75654172,23.9412443 L11.7506109,23.9412443 L12.554042,23.0840764 L13.3108852,23.9412443 L16.3892546,23.9439847 L16.3892546,22.6470328 L16.6918965,22.6470328 C17.1003441,22.6533477 17.5820691,22.636905 18.0070785,22.4531751 L18.0070785,23.9411251 L20.5461732,23.9411251 L20.5461732,22.5041715 L20.6686598,22.5041715 C20.8249851,22.5041715 20.8403555,22.5106056 20.8403555,22.6668117 L20.8403555,23.941006 L28.5536748,23.941006 C29.0433829,23.941006 29.5552529,23.8156597 29.8387117,23.5882017 L29.8387117,23.941006 L32.2853457,23.941006 C32.7944753,23.941006 33.2916898,23.8696349 33.6699923,23.6868582 L33.6699923,22.6597819 Z M29.9035295,21.0812776 C30.0873785,21.2715607 30.1859159,21.5117679 30.1859159,21.9184282 C30.1859159,22.768447 29.6548627,23.1652178 28.7026128,23.1652178 L26.8635266,23.1652178 L26.8635266,22.3179394 L28.6952255,22.3179394 C28.8743085,22.3179394 29.0013228,22.2942285 29.0809152,22.2201169 C29.1458522,22.1589928 29.19244,22.0702258 29.19244,21.9623947 C29.19244,21.8472954 29.1420394,21.755907 29.0772216,21.7010979 C29.0050165,21.6408078 28.9054067,21.6134032 28.7409792,21.6134032 C27.8579557,21.5832581 26.752121,21.6408078 26.752121,20.3904436 C26.752121,19.8173303 27.1121934,19.2140719 28.1020948,19.2140719 L29.995037,19.2140719 L29.995037,20.0550353 L28.2629479,20.0550353 C28.0912522,20.0550353 27.9796082,20.0614694 27.8846454,20.1264064 C27.7812229,20.1903901 27.7428564,20.285353 27.7428564,20.4106992 C27.7428564,20.5597563 27.8306703,20.6611533 27.9494632,20.7050007 C28.0490729,20.7396734 28.15607,20.7498012 28.316923,20.7498012 L28.8252185,20.7635035 C29.3378035,20.7760143 29.6896546,20.8646622 29.9035295,21.0812776 Z M21.3833238,20.8372576 C21.2570244,20.9122032 21.1008182,20.9186373 20.9170883,20.9186373 L19.7700276,20.9186373 L19.7700276,20.0312052 L20.932697,20.0312052 C21.1008182,20.0312052 21.2690586,20.0347797 21.3833238,20.1025763 C21.5056912,20.1665601 21.5788496,20.2889275 21.5788496,20.4580019 C21.5788496,20.6270763 21.5056912,20.7632652 21.3833238,20.8372576 Z M21.9535775,21.3289912 C22.1637588,21.4065581 22.3355737,21.5456066 22.4161193,21.6607059 C22.5494486,21.8536104 22.568751,22.0336466 22.5725638,22.3819232 L22.5725638,23.1652178 L21.6246033,23.1652178 L21.6246033,22.6708629 C21.6246033,22.4331578 21.6474802,22.0811876 21.4719717,21.8974577 C21.3339955,21.755907 21.1236951,21.7220683 20.7792313,21.7220683 L19.7701467,21.7220683 L19.7701467,23.1652178 L18.8213522,23.1652178 L18.8213522,19.2139527 L21.0013277,19.2139527 C21.479359,19.2139527 21.8275164,19.2350424 22.1374266,19.4004231 C22.4354217,19.5804593 22.6228452,19.8271006 22.6228452,20.2778465 C22.6227261,20.9085095 22.2021252,21.2303347 21.9535775,21.3289912 Z M23.146392,19.2139527 L26.2978006,19.2139527 L26.2978006,20.0310861 L24.0867269,20.0310861 L24.0867269,20.7494437 L26.2438254,20.7494437 L26.2438254,21.5556153 L24.0867269,21.5556153 L24.0867269,22.3417695 L26.2978006,22.345344 L26.2978006,23.1652178 L23.146392,23.1652178 L23.146392,19.2139527 L23.146392,19.2139527 Z M16.7757784,21.0374302 L15.5555593,21.0374302 L15.5555593,20.0312052 L16.7867403,20.0312052 C17.1276295,20.0312052 17.3642622,20.1701346 17.3642622,20.5156707 C17.3642622,20.857394 17.1385913,21.0374302 16.7757784,21.0374302 Z M14.6151053,22.8058602 L13.1654026,21.1963768 L14.6151053,19.638009 L14.6151053,22.8058602 Z M10.8712811,22.3417695 L8.54975501,22.3417695 L8.54975501,21.5556153 L10.6227334,21.5556153 L10.6227334,20.7494437 L8.54975501,20.7494437 L8.54975501,20.0310861 L10.9170348,20.0310861 L11.9498304,21.1825554 L10.8712811,22.3417695 Z M18.3779936,20.5156707 C18.3779936,21.613284 17.559073,21.8399081 16.7337183,21.8399081 L15.5555593,21.8399081 L15.5555593,23.1652178 L13.720286,23.1652178 L12.5576165,21.8571849 L11.3493124,23.1652178 L7.60918187,23.1652178 L7.60918187,19.2139527 L11.4068621,19.2139527 L12.5685783,20.5091174 L13.7696142,19.2139527 L16.7867403,19.2139527 C17.536077,19.2139527 18.3779936,19.4213936 18.3779936,20.5156707 Z" id="Shape" fill="#FFFFFF"></path>
        </g>
    </g>
</svg>