<?xml version="1.0" encoding="UTF-8"?>
<svg width="105px" height="56px" viewBox="0 0 105 56" version="1.1" xmlns="http://www.w3.org/2000/svg" xmlns:xlink="http://www.w3.org/1999/xlink">
    <!-- Generator: Sketch 43.2 (39069) - http://www.bohemiancoding.com/sketch -->
    <title>cxpartners</title>
    <desc>Created with Sketch.</desc>
    <defs>
        <polygon id="path-1" points="0 7.5663515 0 0.0976327693 24.2904605 0.0976327693 24.2904605 15.0350702 0 15.0350702"></polygon>
        <polygon id="path-3" points="16.4099332 12.2163238 0.160349531 12.2163238 0.160349531 0.119642469 16.4099332 0.119642469 16.4099332 12.2163238"></polygon>
    </defs>
    <g id="Page-1" stroke="none" stroke-width="1" fill="none" fill-rule="evenodd" opacity="0.400000006">
        <g id="cxpartners" transform="translate(0.691353, 19.539975)">
            <g id="Group-3">
                <mask id="mask-2" fill="white">
                    <use xlink:href="#path-1"></use>
                </mask>
                <g id="Clip-2"></g>
                <path d="M3.58753306,9.32797398 L3.58868389,9.32797398 C4.08277527,9.81369231 4.73222923,10.0567396 5.38014875,10.0578683 L5.38014875,10.0554228 L5.3816832,10.0554228 C6.25516617,10.0561752 7.02584131,9.62369405 7.48329781,8.96509612 C7.48521586,8.96321495 7.48675031,8.96114566 7.48886017,8.95907637 C7.52587866,8.90452242 7.55906104,8.84846352 7.59205162,8.79108781 C7.60068287,8.77660279 7.61008135,8.76268213 7.61832899,8.74819711 C7.64498998,8.69909855 7.66858207,8.64849506 7.69159875,8.59977273 C7.70406612,8.57437692 7.71672529,8.54935735 7.72727461,8.5245259 C7.74511253,8.48238767 7.75911435,8.4387445 7.77580144,8.39510134 C7.788077,8.36048779 7.80246242,8.32662672 7.81281993,8.29144882 C7.82356105,8.25476599 7.83180869,8.21789504 7.84178258,8.18121221 C7.85194828,8.13813339 7.86460746,8.09486646 7.87381413,8.05159953 C7.87976011,8.02187703 7.882829,7.99121395 7.88839136,7.96130333 C7.89567997,7.91013548 7.90527026,7.85934387 7.91044901,7.80761167 C7.91236707,7.79331477 7.91236707,7.77958222 7.91275068,7.76528532 C7.96971696,7.06398482 7.72574016,6.34312013 7.17832681,5.80623396 L7.17966945,5.80472902 C6.72125392,5.35418859 6.0867608,5.0757753 5.38724556,5.07483471 C5.38609473,5.07408225 5.38609473,5.07483471 5.38609473,5.07408225 L5.39223251,0.0976327693 L5.39338334,0.0976327693 C8.18166221,0.100266409 10.6175941,1.57454004 11.9408613,3.76967835 C11.9437384,3.77438128 11.9469991,3.77927232 11.9487254,3.78322278 C12.0091441,3.88424166 12.0678367,3.98638924 12.1238439,4.08985364 C12.1265292,4.09587338 12.1294063,4.10226936 12.1330506,4.10810099 C12.1366949,4.11543756 12.1409146,4.12258601 12.1447508,4.13011069 C12.1650822,4.09135857 12.1865644,4.05260645 12.2078548,4.01366621 C12.2153352,3.9991812 12.2245419,3.98469618 12.2325977,3.97039928 C12.2843853,3.87671697 12.3394335,3.78359901 12.3960162,3.69255034 C12.3992769,3.68728306 12.4034966,3.68201579 12.4061819,3.67656039 C12.7146054,3.18124809 13.0857493,2.71302466 13.522299,2.28430581 C16.4950949,-0.631132834 21.3170892,-0.631509068 24.2896933,2.28449393 L24.2904605,2.2852464 L20.7023521,5.80472902 C20.7019684,5.8045409 20.7019684,5.8045409 20.7019684,5.80416467 C20.2063426,5.31825823 19.5584231,5.0757753 18.9091609,5.07408225 L18.9091609,5.07709212 C18.9087773,5.076904 18.9087773,5.07709212 18.9087773,5.07709212 C18.0345271,5.07633965 17.2634684,5.50806837 16.8065873,6.16704253 C16.8048611,6.16911182 16.803902,6.17118111 16.8014086,6.17343852 C16.7643901,6.22705189 16.7308241,6.28405136 16.6974499,6.34086272 C16.6892022,6.35515962 16.6794202,6.3692684 16.6715561,6.38431777 C16.6441279,6.43209951 16.621303,6.48289113 16.5979027,6.53293027 C16.5863944,6.55794985 16.5725844,6.58259318 16.5631859,6.60780087 C16.5449644,6.65012722 16.5296199,6.6939585 16.5148509,6.7368492 C16.5021917,6.77165086 16.4878063,6.80588817 16.477257,6.84087795 C16.4659405,6.87662019 16.4578846,6.91367926 16.4481025,6.95092644 C16.436786,6.99362902 16.4245104,7.03670784 16.4158792,7.08091535 C16.4095496,7.11063785 16.4064807,7.14073659 16.4016856,7.17083532 C16.3930543,7.2223794 16.3840394,7.27317102 16.3790525,7.32415075 C16.3779017,7.33769518 16.3779017,7.35293266 16.3773262,7.36666521 C16.3207436,8.06834195 16.5637613,8.78977099 17.1107911,9.32534034 C17.1107911,9.32534034 17.1119419,9.32534034 17.1119419,9.32646905 L17.1094484,9.32797398 C17.568823,9.77813818 18.2025489,10.0565515 18.9026396,10.0567396 L18.9045576,10.0567396 L18.8978444,15.0350702 C18.897269,15.034694 18.897269,15.0350702 18.897269,15.0350702 C16.1078393,15.0322485 13.6726746,13.5568461 12.3490238,11.3624603 C12.3465303,11.3575693 12.3430778,11.3530544 12.3403925,11.3483515 C12.2797819,11.2484613 12.2222402,11.1457494 12.1666166,11.0419088 C12.1633559,11.0362653 12.1599034,11.0298693 12.1564509,11.0236614 C12.1531902,11.0167011 12.1495459,11.0091764 12.145518,11.0018398 C12.1251866,11.0407801 12.1029371,11.0797203 12.0818385,11.11772 C12.0739745,11.1331456 12.064576,11.1474425 12.0570956,11.1624918 C12.0045408,11.2554217 11.9506434,11.3470347 11.8931017,11.439024 C11.8909919,11.4452318 11.8871557,11.450311 11.8840869,11.4553901 C11.576047,11.9505143 11.2047112,12.419114 10.7672025,12.8482091 C7.79363936,15.7636477 2.97317953,15.764024 0,12.8474566 L3.58753306,9.32797398" id="Fill-1" fill="#001731" mask="url(#mask-2)"></path>
            </g>
            <path d="M32.4926459,13.1111968 C29.9423979,13.1111968 28.7645193,11.8869307 28.7645193,8.43742768 C28.7645193,4.88389587 30.1008294,3.67656039 32.4926459,3.67656039 C34.5150448,3.67656039 35.816638,4.69446196 36.0276243,6.90182788 L33.7413008,7.17779565 C33.6358077,5.74641272 33.2312895,5.34948566 32.5102921,5.34948566 C31.6485092,5.34948566 31.1559523,5.84987712 31.1559523,8.38513113 C31.1559523,10.7653767 31.6134088,11.4557664 32.5277464,11.4557664 C33.354237,11.4557664 33.653262,10.7484461 33.7764012,9.29938019 L36.080179,9.59246661 C35.904485,12.0248206 34.831716,13.1111968 32.4926459,13.1111968" id="Fill-4" fill="#001731"></path>
            <path d="M58.4640913,8.33377517 C58.129774,8.48878365 57.6554386,8.60974294 57.2858291,8.69608868 C56.3885622,9.04071919 55.9842359,9.43745813 55.9842359,10.1965106 C55.9842359,11.075958 56.3360075,11.3694206 56.969158,11.3694206 C57.7605481,11.3694206 58.2531051,10.9380681 58.4107693,10.2307479 C58.481162,9.95496824 58.4640913,8.54089208 58.4640913,8.33377517 Z M60.0994263,13.0942662 C59.2731276,13.0942662 58.7980249,12.6975273 58.5693926,12.1107901 C58.0068266,12.7836849 57.1450438,13.1458103 56.1248295,13.1458103 C54.5071405,13.1458103 53.5926111,12.317907 53.5926111,10.3861326 C53.5926111,8.62648536 54.7177431,7.85050236 56.7052334,7.22933974 C58.0593813,6.93644143 58.4291826,6.71239398 58.4464452,6.16045844 C58.4464452,5.66044321 58.129774,5.31506024 57.268183,5.31506024 C56.3885622,5.31506024 55.9142268,5.84987712 55.6854027,6.71239398 L53.9971293,5.93622287 C54.3489009,4.5044637 55.5446173,3.67656039 57.3911304,3.67656039 C59.5894151,3.67656039 60.6970928,4.53888913 60.6970928,6.91913466 L60.6970928,10.4546072 C60.6970928,11.1107596 60.8204238,11.3694206 61.0843484,11.4034698 C61.1547411,11.4211528 61.43612,11.4211528 61.5065126,11.4034698 L61.5065126,12.9904256 C61.2774967,13.024851 60.6094376,13.0942662 60.0994263,13.0942662 L60.0994263,13.0942662 Z" id="Fill-9" fill="#001731"></path>
            <path d="M66.9576295,5.69449241 C65.5330889,5.69449241 65.0934703,6.66047366 64.9175845,7.66106846 L64.9175845,13.0421578 L62.5963524,13.0421578 L62.5963524,3.76271802 L64.9175845,3.76271802 L64.9175845,5.09101278 C65.4981802,4.12503153 66.2542781,3.69386716 67.3621476,3.69386716 L67.6441019,3.69386716 L67.6441019,5.76353138 C67.5556795,5.72910595 67.0986067,5.69449241 66.9576295,5.69449241" id="Fill-10" fill="#001731"></path>
            <path d="M71.9378634,5.53910769 L71.9378634,10.2134411 C71.9378634,10.9898003 72.0435484,11.3001935 72.553176,11.3001935 L73.1686804,11.3001935 L73.1686804,13.0421578 C72.9753403,13.0594646 72.2543428,13.1458103 71.9378634,13.1458103 C70.3199827,13.1458103 69.5811473,12.4904104 69.5811473,10.5588241 L69.5811473,5.53910769 L68.4379856,5.53910769 L68.4379856,3.79733156 L69.5811473,3.79733156 L69.5811473,1.0248619 L71.9378634,1.0248619 L71.9378634,3.79733156 L73.239073,3.79733156 L73.239073,5.53910769 L71.9378634,5.53910769" id="Fill-11" fill="#001731"></path>
            <path d="M79.0064774,13.0421578 L79.0064774,6.7468194 C79.0064774,5.79814492 78.6368679,5.41871275 77.9158704,5.41871275 C77.2301652,5.41871275 76.6321152,5.86699578 76.526622,6.6950872 L76.526622,13.0421578 L74.2051981,13.0421578 L74.2051981,3.76271802 L76.526622,3.76271802 L76.526622,4.7631247 C77.0017247,4.10772476 77.7750851,3.67656039 78.8303998,3.67656039 C80.4659267,3.67656039 81.3277095,4.5044637 81.3277095,6.53970249 L81.3277095,13.0421578 L79.0064774,13.0421578" id="Fill-12" fill="#001731"></path>
            <path d="M86.0670355,5.19447718 C85.1350518,5.19447718 84.7830885,6.03968726 84.6777872,7.33318037 L87.3682451,7.33318037 C87.2625602,5.64313644 86.8056791,5.19447718 86.0670355,5.19447718 Z M84.660141,8.79917685 C84.7303419,10.9724936 85.1877984,11.5417359 86.0493894,11.5417359 C86.8760718,11.5417359 87.174905,11.0244139 87.28059,9.7134259 L89.5667216,10.0065123 C89.35516,12.0075138 88.2825827,13.1285035 86.0493894,13.1285035 C83.5875638,13.1285035 82.3561715,11.9034851 82.3561715,8.36838871 C82.3561715,4.91850941 83.7809039,3.67656039 86.0844899,3.67656039 C88.3880758,3.67656039 89.6722147,4.97024161 89.6545686,8.79917685 L84.660141,8.79917685 L84.660141,8.79917685 Z" id="Fill-13" fill="#001731"></path>
            <path d="M99.9326667,13.1458103 C97.6987062,13.1458103 96.6090582,12.3006002 96.3272957,10.6447936 C96.3098414,10.6103682 96.2921953,10.2134411 96.2921953,10.0757394 L98.3677243,9.62745639 C98.3677243,9.74785133 98.3846032,10.0924818 98.3846032,10.1101648 C98.5957812,11.1967291 99.1234386,11.4898156 99.8271736,11.4898156 C100.58308,11.4898156 100.935043,11.1621156 100.935043,10.4032513 C100.935043,9.64476316 100.741511,9.35111239 99.8095274,9.04071919 C99.3699089,8.90264124 99.035208,8.79917685 98.5957812,8.6610989 C97.3120259,8.28185485 96.4151427,7.64357357 96.4151427,6.21219064 C96.4151427,4.93562807 97.5934049,3.67656039 99.8446279,3.67656039 C101.866835,3.67656039 102.781364,4.6079281 103.115682,5.83275847 C103.133136,5.88430255 103.186074,6.00526184 103.186074,6.07411269 L101.128191,6.60892958 C101.110737,6.52239572 101.093283,6.45373298 101.075637,6.38469401 C100.864842,5.59102801 100.512495,5.31506024 99.8271736,5.31506024 C99.1063679,5.31506024 98.8069593,5.67737375 98.8069593,6.2635466 C98.8069593,6.85009568 99.1234386,7.04009394 100.196208,7.33318037 C100.636402,7.45376342 101.146029,7.59184137 101.550547,7.73029554 C102.834111,8.17820233 103.379606,8.90264124 103.379606,10.3515191 C103.379606,12.317907 101.866835,13.1458103 99.9326667,13.1458103" id="Fill-27" fill="#001731"></path>
            <g id="Group-32" transform="translate(36.251270, 3.574225)">
                <mask id="mask-4" fill="white">
                    <use xlink:href="#path-3"></use>
                </mask>
                <g id="Clip-30"></g>
                <path d="M5.5241948,9.4679331 L4.50436411,7.46730785 C4.43377963,7.2432604 4.22298521,6.74324518 4.17023865,6.51825714 C4.15240072,6.72556217 3.92376838,7.22576551 3.85356751,7.46730785 L2.88648337,9.4679331 L0.160349531,9.4679331 L2.78079845,4.65589796 L0.336235321,0.188493323 L2.921392,0.188493323 L3.78317483,1.94776434 C3.81846707,2.06891175 4.04690761,2.56855074 4.09965417,2.82758797 C4.17023865,2.56855074 4.41632531,2.08621852 4.45142575,1.9308338 L5.31320857,0.188493323 L7.86307301,0.188493323 L5.48909436,4.65589796 L8.14445192,9.4679331 L5.5241948,9.4679331" id="Fill-29" fill="#001731" mask="url(#mask-4)"></path>
                <path d="M12.7343613,1.77526097 C11.9600419,1.77526097 11.4853229,2.20680157 11.4325763,3.41394893 C11.4153138,3.67260993 11.4153138,4.24204036 11.4153138,4.79416402 C11.4153138,5.46649449 11.4153138,6.10458766 11.4325763,6.39823844 C11.5031608,7.4501892 12.0308182,7.82924513 12.7163316,7.82924513 C13.666345,7.82924513 14.0530253,7.2432604 14.0530253,4.81090644 C14.0530253,2.27565243 13.6134067,1.77526097 12.7343613,1.77526097 Z M13.4553588,9.53697207 C12.6112221,9.53697207 11.8372863,9.24350941 11.4325763,8.69157387 L11.4325763,12.2276108 L9.11153605,12.2276108 L9.11153605,0.188493323 L11.4153138,0.188493323 L11.4153138,1.06831695 C11.7845397,0.49888652 12.5055372,0.119642469 13.4373291,0.119642469 C15.2667715,0.119642469 16.4099332,1.01639663 16.4099332,4.88013353 C16.4099332,8.60522813 15.196187,9.53697207 13.4553588,9.53697207 L13.4553588,9.53697207 Z" id="Fill-31" fill="#001731" mask="url(#mask-4)"></path>
            </g>
            <path d="M66.9576295,5.69449241 C65.5330889,5.69449241 65.0934703,6.66047366 64.9175845,7.66106846 L64.9175845,13.0421578 L62.5963524,13.0421578 L62.5963524,3.76271802 L64.9175845,3.76271802 L64.9175845,5.09101278 C65.4981802,4.12503153 66.2542781,3.69386716 67.3621476,3.69386716 L67.6441019,3.69386716 L67.6441019,5.76353138 C67.5556795,5.72910595 67.0986067,5.69449241 66.9576295,5.69449241" id="Fill-34" fill="#001731"></path>
            <path d="M95.1313874,5.69449241 C93.7072304,5.69449241 93.26742,6.66047366 93.0919178,7.66106846 L93.0919178,13.0421578 L90.7701103,13.0421578 L90.7701103,3.76271802 L93.0919178,3.76271802 L93.0919178,5.09101278 C93.6721299,4.12503153 94.4284197,3.69386716 95.536481,3.69386716 L95.8176681,3.69386716 L95.8176681,5.76353138 C95.7296293,5.72910595 95.2723646,5.69449241 95.1313874,5.69449241" id="Fill-38" fill="#001731"></path>
        </g>
    </g>
</svg>