<?xml version="1.0" encoding="UTF-8"?>
<svg width="69px" height="56px" viewBox="0 0 69 56" version="1.1" xmlns="http://www.w3.org/2000/svg" xmlns:xlink="http://www.w3.org/1999/xlink">
    <!-- Generator: Sketch 43.2 (39069) - http://www.bohemiancoding.com/sketch -->
    <title>Macmillan</title>
    <desc>Created with Sketch.</desc>
    <defs></defs>
    <g id="Page-1" stroke="none" stroke-width="1" fill="none" fill-rule="evenodd" opacity="0.400000006">
        <path d="M5.13239419,38.5626327 C5.06004042,38.6224834 5.13239419,38.670241 5.17994682,38.670241 C5.03728895,38.670241 5.31112647,38.9686747 5.13239419,39.4107912 C4.94033898,39.8662305 4.3670429,40.0211865 3.79374682,40.0211865 C2.22655989,40.0211865 1.15129667,39.1845063 1.15129667,37.510121 C1.15129667,36.5059817 1.67724509,35.4772463 2.84945828,35.1187569 C3.70888998,34.8553727 4.5353218,35.0103287 4.82145742,35.2862159 C5.13239419,35.5856744 5.13239419,36.2428025 4.69027777,36.3274544 C3.48281005,36.3274544 2.84945828,36.529758 2.84945828,37.5461954 C2.84945828,38.9809728 4.59517252,38.4675275 5.13239419,38.5626327 Z M6.86560537,35.2138621 C6.95046221,35.0835023 7.0330644,35.0835023 7.11771627,35.0835023 C7.45242935,35.1064588 8.18170624,35.1187569 8.3489603,35.1550362 C8.42131408,35.1663095 8.56376698,35.1786076 8.61131961,35.3212654 C8.67137529,35.4534699 9.84358848,38.93465 9.89011626,39.0645999 C9.93971857,39.1845063 9.9975196,39.2796115 10.0348238,39.3031828 C10.0473269,39.3394622 9.95119679,39.244357 9.96247004,39.3031828 C9.9749731,39.3755366 10.0823764,39.4468656 10.1061528,39.48294 C10.1297241,39.5192193 10.059625,39.4468656 10.0348238,39.48294 C9.96247004,39.5294677 10.0823764,39.7692806 10.1545253,39.8414294 C10.0946745,39.9963853 9.40044721,40.211192 8.99358532,40.0925154 C8.61131961,39.9736339 8.56376698,39.5192193 8.37273661,38.9809728 L7.20031846,38.9809728 L7.04536249,39.5542689 C6.91315799,39.9736339 6.53089228,40.0572609 6.14883154,40.0572609 C5.68191396,40.0572609 5.45378435,39.7455042 5.51445494,39.1484318 C5.56200756,38.5152851 6.47104157,35.8244624 6.86560537,35.2138621 Z M7.33272792,37.8333558 L8.1942093,37.8085547 L7.79739085,36.1950449 L7.33272792,37.8333558 Z M11.3632228,35.1550362 C11.6358305,35.1550362 12.0180962,35.2737128 12.257704,35.7055808 C12.4249581,35.9904867 13.3227189,37.6535987 13.6096744,37.6535987 C13.7886116,37.6535987 13.741059,36.5545592 13.741059,35.6557736 C13.741059,35.1550362 13.9579153,34.8801739 14.6148384,34.8801739 C15.2346623,34.8801739 15.4144194,35.0835023 15.4144194,35.3583647 L15.4144194,35.9554371 C15.391668,38.6339616 14.8897008,39.7588272 14.1831754,39.7588272 C13.4538985,39.7588272 12.7719693,39.1845063 11.935494,37.9284611 L11.935494,39.3394622 C11.935494,39.9137831 11.5409302,39.9260812 11.3136205,39.9260812 C10.9666093,39.9260812 10.4168846,39.8764789 10.4168846,39.0645999 C10.4168846,38.3115467 10.381835,36.0753435 10.5843436,35.5856744 C10.6091447,35.5247989 10.6564924,35.6693015 10.6794488,35.6084259 C10.70425,35.5506249 10.7641007,35.6332271 10.7641007,35.6084259 C10.7991503,35.4182154 11.013957,35.1550362 11.3632228,35.1550362 Z M18.331527,38.7528432 C19.1454557,38.7528432 19.4801688,38.992451 19.4801688,39.2796115 C19.4801688,39.8301561 19.0979031,40.0687391 18.5463337,40.0687391 C17.0299789,40.0687391 15.8214863,39.244357 15.8214863,37.5586984 C15.8214863,37.0794827 16.0733922,35.9203875 17.0299789,35.4061223 C17.8316095,34.9752791 18.6785382,35.0351298 18.918146,35.0351298 C19.3004117,35.0351298 19.4203181,35.201564 19.4203181,35.4061223 C19.4203181,35.6930778 19.3004117,36.1950449 18.4762345,36.1950449 C17.7820072,36.1950449 17.4597972,36.3977585 17.4597972,37.9522374 C17.4597972,38.8022405 17.7945103,38.7528432 18.331527,38.7528432 Z M22.6739835,35.1786076 C22.8992435,35.1786076 23.2235032,35.1786076 23.2235032,35.5381218 C23.2235032,35.8955864 23.186404,36.2548956 22.3144692,36.2548956 L21.4529878,36.2548956 C21.1182748,36.2548956 21.1430759,36.362504 21.1535293,37.0917808 L21.9797561,37.0917808 C22.1121656,37.0917808 22.8516909,37.0917808 22.8516909,37.5213942 C22.8516909,37.7487039 22.8516909,38.2404227 22.2794197,38.2404227 L21.1535293,38.2404227 L21.1535293,38.93465 L21.9076073,38.93465 C22.7215361,38.93465 23.0912987,39.1607299 23.0912987,39.495443 C23.0912987,40.0088884 22.1472152,40.1162917 21.6431983,40.1162917 C20.7487171,40.1162917 19.7673293,39.8662305 19.7673293,39.3519653 C19.7673293,39.0408235 19.7074786,35.1786076 20.3168491,35.1786076 L22.6739835,35.1786076 Z M27.5889161,39.5790701 C27.5889161,39.8662305 27.2769545,40.0572609 26.8821858,40.0572609 C26.4628208,40.0572609 26.4029701,39.9963853 26.3080698,39.5067163 C26.223213,39.1244506 25.8058977,38.6339616 25.648892,38.6339616 C25.0993723,38.5253285 25.1717261,38.3713974 25.1241734,38.3603291 C25.0766208,38.3230249 25.0891239,38.4306332 25.0891239,38.4790057 C25.0395216,38.347826 24.9444163,38.347826 24.9444163,38.4429313 C24.8968637,38.3115467 24.8474663,38.2992486 24.837013,38.3230249 C24.8267646,38.3603291 24.7646592,38.2404227 24.7523611,38.1795471 C24.739858,38.1328144 24.6925104,38.2992486 24.6925104,38.4181301 L24.6925104,39.5790701 C24.6925104,40.0336895 24.3948965,40.1162917 24.1780402,40.1162917 C23.6057689,40.1162917 23.6057689,39.650399 23.6057689,39.2796115 L23.6057689,37.8932065 C23.6057689,36.2548956 23.8453768,34.8553727 25.8058977,34.9515028 C25.8286492,34.9515028 25.7089477,34.9029253 25.75855,34.9029253 C25.8163511,34.9029253 26.1654119,34.9752791 26.1406108,34.962981 C25.75855,34.7727705 25.2315768,34.8801739 25.2543282,34.8801739 C26.5351746,34.6292928 27.5889161,35.3698429 27.5889161,36.4223547 C27.5889161,37.1268304 27.0619429,37.7021762 26.5351746,37.7733001 C27.0846943,38.2156215 27.5889161,38.8497932 27.5889161,39.5790701 Z M25.0167701,36.9120237 C25.4113339,36.9120237 25.3514832,37.2239853 25.7687984,37.2239853 C25.9733567,37.2239853 26.223213,36.9843775 26.223213,36.6732358 C26.223213,36.3274544 25.9360525,36.1476973 25.6033891,36.1476973 C24.8144665,36.1476973 24.6695539,37.0442282 24.739858,36.9843775 C24.7894603,36.9480981 24.9321182,36.9120237 25.0167701,36.9120237 Z M31.7598142,34.7602675 C32.4292404,34.7602675 32.8838599,35.1786076 32.8838599,35.788183 C32.8838599,36.0866167 32.7639535,36.2901502 32.6212956,36.2901502 C32.1771295,36.2901502 31.3053997,36.0029897 31.3053997,36.3873051 C31.3053997,36.9358 32.9933129,37.4510901 32.9933129,38.7061105 C32.9933129,39.650399 32.4064889,40.3310984 31.4128031,40.3310984 C30.2766643,40.3310984 29.7146414,39.7455042 29.859349,39.5294677 C29.9296531,39.4230892 30.2166086,39.0645999 30.0491496,38.8497932 C30.1588075,38.9561717 30.2414097,38.8374951 30.2166086,38.7776444 C30.291012,38.7651413 30.3738192,38.7061105 30.3137635,38.5626327 C30.349018,38.5378316 30.7786314,39.0047491 31.1979964,39.0047491 C31.4355545,39.0047491 31.5327095,38.8848427 31.5327095,38.7061105 C31.5327095,38.1205163 29.8220448,37.8333558 29.8220448,36.362504 C29.8220448,35.5247989 30.5761228,34.7602675 31.7598142,34.7602675 Z M36.7220946,35.3936192 C36.745051,35.0835023 36.9596527,35.0103287 37.1519129,34.962981 C37.3564712,34.9029253 37.7633331,34.9400246 37.8686867,35.201564 C38.0008912,35.5247989 38.0008912,36.3026532 38.0008912,37.1268304 C38.0008912,38.7528432 37.7385319,39.9611308 35.8481101,39.9611308 C35.0116349,39.9611308 34.1874577,39.7455042 33.695739,38.7776444 C33.3134733,37.9407592 33.3507775,36.040089 33.4106282,35.3335635 C33.4331747,35.0835023 33.5055285,34.962981 33.695739,34.9029253 C33.8754961,34.8553727 34.8339274,34.7727705 34.8441758,35.3698429 C34.8566789,35.7283323 34.7617786,36.8283967 34.9765853,37.6298224 C35.1335909,38.2031185 35.4908505,38.5874339 36.0053207,38.5874339 C36.8524544,38.5874339 36.7097965,35.5133207 36.7220946,35.3936192 Z M39.9616171,34.6518393 C41.7321325,34.6518393 42.4364033,35.4411719 42.4364033,36.2180014 C42.4364033,37.7259525 41.4097175,38.3953786 40.0813185,38.3953786 C39.9739152,38.3953786 39.9616171,38.4790057 39.9616171,38.5378316 L39.9616171,39.0998544 C39.9616171,39.4107912 39.8540088,39.8414294 39.2694395,39.8414294 C38.7426712,39.8414294 38.6703174,39.5542689 38.6703174,39.0998544 L38.6703174,38.4902789 C38.7549693,35.8707852 38.4680138,34.6518393 39.9616171,34.6518393 Z M39.9616171,37.1393335 C40.845645,37.1393335 41.2299604,36.9480981 41.2299604,36.3149513 C41.2299604,35.7777297 40.5111369,35.7777297 39.9616171,35.7777297 L39.9616171,37.1393335 Z M42.618415,38.4429313 C42.618415,35.943139 43.727703,35.0228317 45.2606602,35.0228317 C46.2151972,35.0228317 47.0041198,35.6332271 47.0041198,36.613385 C47.0041198,37.3912394 46.5622083,38.0358644 45.6181248,38.0358644 C45.0911515,38.0358644 44.5293337,37.8085547 44.5293337,37.4510901 C44.5293337,37.2362834 44.7090908,37.0317252 44.9609967,36.9843775 C45.4506658,36.8892722 45.6902736,36.9480981 45.6902736,36.5773106 C45.6902736,36.362504 45.2606602,35.9316608 44.4590296,36.7322666 C44.4094272,36.7199685 44.9361955,36.2901502 44.8888479,36.2901502 C44.8412953,36.2788769 44.5891844,36.4576092 44.5666379,36.4576092 C44.5518802,36.4576092 44.6986374,36.3387276 44.6264886,36.3387276 C44.5666379,36.3387276 44.0747142,36.6373663 44.0747142,38.1080132 L44.0747142,39.3878347 C44.0747142,40.0459876 43.7898084,40.0459876 43.4528406,40.0459876 C42.7237687,40.0459876 42.618415,39.566567 42.618415,39.3031828 L42.618415,38.4429313 Z M49.4442663,34.6641374 C50.9626708,34.6641374 51.4748864,36.1712686 51.4748864,37.5213942 C51.4748864,39.1970093 50.2208909,39.9736339 49.169404,39.9736339 C47.5911488,39.9736339 47.1861316,38.4902789 47.1861316,37.3065875 C47.1861316,35.3936192 47.9629611,34.6641374 49.4442663,34.6641374 Z M48.2954195,37.271333 C48.2954195,37.6413006 48.3677733,38.6825391 49.2768073,38.6825391 C50.0286307,38.6825391 50.2684435,37.9645355 50.2684435,37.438792 C50.2684435,36.6621675 50.1485371,35.788183 49.3491611,35.788183 C48.6198842,35.8129842 48.2954195,36.2901502 48.2954195,37.271333 Z M56.1047083,36.3387276 C56.1047083,37.8932065 54.6336515,37.6661018 54.5387512,37.6786048 C54.8837127,38.0711189 55.4826298,38.9448984 56.1047083,39.4591637 C56.3422664,39.6616722 56.0799071,40.320645 54.9085138,39.9137831 C54.2866403,39.6989765 53.437457,37.9284611 53.4024074,37.7733001 L53.4024074,39.7815786 C53.4024074,39.9736339 53.2226503,40.0925154 52.9707444,40.0925154 C52.3363678,40.0925154 51.8364503,39.3878347 51.8364503,38.0959201 C51.8364503,37.3912394 51.8592018,36.2788769 52.218716,35.7529285 C52.6007768,35.1911106 53.4249539,34.9515028 54.3589941,34.9752791 C55.5303874,35.0103287 56.1047083,35.5856744 56.1047083,36.3387276 Z M53.3899044,36.6857388 C53.4622581,36.697217 54.7287567,37.0091787 54.7287567,36.3977585 C54.7287567,35.8355307 53.3899044,36.0152878 53.3899044,36.6010869 L53.3899044,36.6857388 Z M59.2138711,36.4100566 C59.356324,36.7570678 59.356324,39.7815786 59.1290142,39.734026 C59.1042131,39.7938767 58.9494621,39.8301561 58.9494621,39.888982 C58.9144125,39.8063798 58.8666549,39.8662305 58.8314004,39.9137831 C58.8418538,39.8539324 58.6497985,39.9260812 58.6270471,39.9963853 C58.6022459,39.9611308 58.4823395,39.9963853 58.4823395,40.0211865 C58.4472899,39.9490377 58.2326882,39.9260812 58.1621792,39.9736339 C58.1724276,39.9385843 58.0879807,39.9137831 58.0404281,39.9490377 C58.0529311,39.9012801 57.9555712,39.8662305 57.9082236,39.8662305 C57.9082236,39.8186779 57.8131183,39.7225478 57.8131183,39.6378959 L57.8131183,38.7186135 C57.8131183,37.9284611 57.9680743,37.116377 57.9680743,36.529758 C57.9680743,36.5059817 57.9680743,36.4100566 57.8502176,36.4100566 L57.6581623,36.4100566 C57.2037478,36.4100566 56.31931,36.4100566 56.31931,35.788183 C56.31931,35.6807797 56.3422664,35.201564 56.4144153,35.1427381 C56.7739295,34.8801739 59.1765668,34.9277265 59.201368,34.9277265 C59.5836337,34.9277265 60.2776561,34.8801739 60.6351206,35.1427381 C60.7074744,35.201564 60.7302259,35.6807797 60.7302259,35.788183 C60.7302259,36.4100566 59.8582911,36.4100566 59.4038766,36.4100566 L59.2138711,36.4100566 Z M68.6715142,30.5190653 C68.6715142,31.113883 68.6715142,32.4113318 68.2646523,32.8710755 C67.8616848,33.3308192 66.5353355,32.925802 66.1036724,32.5189401 C65.6718044,32.1128981 65.8060586,31.1409388 65.8060586,30.3559106 C65.8060586,29.5719072 67.1035074,29.8424652 67.4816737,29.8424652 C67.8616848,29.8424652 68.6715142,29.9240426 68.6715142,30.5190653 Z M21.4074849,31.2358391 C20.362352,31.2358391 19.6412738,30.6471704 19.6412738,29.6989875 C19.6412738,28.5874449 20.4263021,28.2920857 21.4736896,28.2920857 C22.8785417,28.2920857 23.5996199,28.1949308 23.5996199,27.4759023 C23.5996199,26.5266945 22.5831825,25.511282 20.7196116,25.511282 C18.7592956,25.511282 17.2529843,27.1805431 17.2529843,29.2732685 C17.2529843,32.5447661 19.3459146,33.4919242 21.0791258,33.4919242 C22.5190275,33.4919242 23.7957745,32.8721003 23.7957745,31.6283532 C23.7957745,31.4321987 23.7297747,31.2028392 23.6305701,31.1376593 C23.4362602,30.9736848 23.1741059,31.0066846 22.7813868,31.0726844 C22.3888727,31.1376593 22.0935135,31.2358391 21.4074849,31.2358391 Z M4.07455327,23.5589598 C5.44435581,23.5589598 5.90082001,22.0219032 6.07955229,20.940286 C6.13653345,20.7627835 6.19207983,20.1935868 6.30276267,20.1935868 C6.52474324,20.1935868 6.92771074,23.8379215 8.01834658,23.8379215 C11.2041675,23.8379215 11.2041675,18.36732 11.2041675,17.2311813 C11.2041675,16.1505889 10.6937966,15.8046025 10.1248049,15.8046025 C9.43344709,15.8046025 8.75397748,16.0948375 8.75397748,17.0079709 C8.75397748,18.4892761 8.64226981,20.9962423 8.40881102,20.9962423 C8.13005425,20.9962423 8.24155696,16.607258 6.59299765,16.607258 C5.501132,16.607258 5.16641892,17.9768556 4.87720877,19.3362048 C4.76570607,19.7928739 4.70892987,20.540598 4.47547108,20.540598 C4.01880191,20.540598 4.14178284,17.6318941 4.14178284,16.8860148 C4.14178284,16.607258 4.01880191,16.0948375 3.22762463,16.0948375 L2.48072047,16.0948375 C2.02528111,16.0948375 1.85700221,16.2620916 1.85700221,17.1752249 L1.85700221,19.0584728 C1.85700221,22.5900751 3.17187327,23.5589598 4.07455327,23.5589598 Z M14.5695405,20.7627835 C16.3874035,20.7627835 16.3874035,20.0831089 16.3874035,19.5139122 C16.3874035,19.0584728 16.1086468,18.8797406 15.3607178,18.8797406 C14.9040486,18.8797406 14.391833,18.9467652 14.1128713,19.0025165 L14.1128713,18.4892761 C14.1128713,18.032607 14.1686227,17.9768556 14.4578328,17.9768556 L15.1934637,17.9768556 C16.2738511,17.9768556 16.7303153,17.342684 16.7303153,16.7177359 C16.7303153,16.1505889 15.3049664,15.9833348 13.534451,15.9833348 C12.7988201,15.9833348 12.5200634,16.0948375 12.3423559,16.3612962 C11.9406182,16.9190147 11.6626813,18.8797406 11.6626813,22.6458264 C11.6626813,22.9350366 12.5200634,23.7262139 15.0280544,23.7262139 C15.7616356,23.7262139 16.9637741,23.4474571 16.9637741,22.5900751 C16.9637741,21.7884444 15.3049664,21.3309554 14.1686227,21.7306434 L14.1686227,20.7627835 L14.5695405,20.7627835 Z M28.9853646,19.3919561 C29.220873,18.36732 29.5555861,17.5203914 30.1795093,17.5203914 C30.6359735,17.5203914 30.813681,17.7991482 30.813681,18.032607 C30.813681,18.7680329 29.7890449,19.1689507 28.9853646,19.3919561 Z M27.5598107,16.7745121 C26.0785054,18.4892761 26.4236719,21.9104005 26.5372243,22.8792852 C26.6466773,23.2697497 26.9360924,23.6147112 27.8512755,23.6147112 C28.5289003,23.6147112 28.7621542,23.5589598 28.7621542,23.325501 C28.7621542,23.158247 28.8201602,23.1022906 28.8201602,21.3309554 C29.5555861,22.1893622 30.980935,23.5032085 31.9707265,23.5032085 C32.2847378,23.5032085 32.8631581,22.5343237 32.8631581,22.0219032 C32.8631581,21.6211904 32.0615274,20.940286 30.980935,20.1378354 C32.1853282,19.5253904 32.6294943,18.8237842 32.6294943,17.9768556 C32.6294943,16.8860148 31.7268143,15.7488512 30.0659569,15.7488512 C28.9853646,15.7488512 28.1839389,16.0948375 27.5598107,16.7745121 Z M35.6605642,20.6523056 C37.3646699,20.6523056 37.8770904,20.4290953 37.8770904,19.2579069 C37.8770904,19.0025165 37.7200848,18.8797406 35.6605642,18.8797406 L35.6605642,17.9768556 C37.6891346,17.9666072 38.5010137,17.7991482 38.5010137,17.1194736 C38.5010137,16.3168181 38.1663006,15.8613787 36.5632442,15.8613787 C35.4248508,15.8613787 33.7223848,16.0390862 33.6645838,16.2063402 C33.5428327,16.4955504 33.2638709,18.0893831 33.2638709,19.6274646 C33.2638709,22.2451136 33.8877942,23.7821702 36.687045,23.7821702 C38.1105492,23.7821702 38.5010137,23.5032085 38.5010137,22.7573291 C38.5010137,21.9104005 38.5010137,21.8444007 38.279853,21.8444007 C36.2285311,21.8444007 35.6605642,21.7306434 35.6605642,20.6523056 Z M22.657586,17.7991482 C22.7690887,18.2558173 23.0045972,19.6274646 23.0582989,19.9166747 L22.2029665,19.9166747 C22.2566682,19.7369176 22.547928,18.36732 22.657586,17.7991482 Z M20.3848985,23.5032085 C21.3539882,23.5032085 21.7465023,22.4226161 21.9797561,21.39798 L23.2835589,21.39798 C23.6285204,22.4226161 23.8062278,23.6147112 24.8308639,23.6147112 C25.3432844,23.6147112 25.8555,23.325501 25.8555,22.5900751 C25.8555,21.3309554 25.2213284,18.154563 24.5974051,16.3168181 C24.4859024,16.0948375 24.3186484,16.0390862 24.140736,16.0390862 C23.5727691,15.9833348 21.6887013,15.9171301 21.0647781,16.0948375 C20.8415677,16.2063402 20.7753629,16.2063402 20.6638602,16.4295506 C20.149595,17.6876455 19.6392242,20.3073441 19.5277215,22.0776546 C19.4719701,23.1022906 19.5277215,23.5032085 20.207396,23.5032085 L20.3848985,23.5032085 Z M46.71286,31.1347898 C46.2543461,31.1347898 46.0889368,31.0788335 46.0889368,30.2876562 L46.0333904,26.1206525 C46.0333904,25.8427156 46.0208873,25.6539399 45.6882239,25.620735 C45.2522565,25.5764619 43.8166592,25.5764619 43.6947031,25.6539399 C43.5913991,25.7209645 43.5809457,25.8986719 43.5809457,25.8986719 C43.5809457,26.4676637 43.4591946,29.0295613 43.4591946,30.3991589 C43.5272441,31.9384701 43.5272441,32.4496608 43.8599075,32.7948273 C44.4280794,33.3638191 47.2252805,33.3638191 48.0267062,33.3638191 C48.1384139,33.3638191 48.3058729,33.3638191 48.427829,33.0188576 C48.5393317,32.9071499 48.5393317,32.7398958 48.6506294,32.7398958 C48.5393317,32.7398958 48.595083,32.339183 48.6506294,32.339183 C48.595083,32.339183 48.595083,32.0477182 48.595083,32.0477182 C48.4833754,31.9919668 48.8180885,31.1347898 47.6259934,31.1347898 L46.71286,31.1347898 Z M59.2573243,30.4569599 C60.3955128,32.0477182 61.3643975,32.7948273 62.6556972,32.7948273 C63.4923774,32.7948273 64.4385107,31.7710111 64.4385107,28.7401462 C64.4385107,25.4430276 63.9260902,25.0960164 63.0109071,25.0960164 C62.0440721,25.0960164 61.5298068,25.5535054 61.5298068,26.4676637 C61.5298068,27.7155101 61.5853532,28.8621023 61.4761052,29.1970203 C61.3086461,29.0853127 60.8499273,28.5161159 59.8252912,26.6888244 C59.2573243,25.6084369 58.4554887,25.5535054 58.1767319,25.5535054 C56.4724213,25.5535054 56.5714209,29.9994709 56.5714209,31.0788335 C56.5714209,32.5496853 57.0383385,33.0621058 57.8854721,33.0621058 C58.5032463,33.0621058 58.833655,32.9817583 59.0320642,32.9071499 C59.2323182,32.8327464 59.2220698,32.7884733 59.2220698,32.5466108 L59.2573243,30.4569599 Z M34.3444633,31.5922788 C34.3444633,30.5118914 34.4580157,28.3498867 34.3444633,26.1786585 C34.3444633,26.0091498 34.5695184,25.4967293 35.6605642,25.4967293 C36.2840775,25.4967293 36.796703,25.6084369 36.796703,26.0091498 C37.1437142,28.8073758 37.1437142,32.6728712 37.0197084,32.8516035 C36.9639571,33.1303603 36.796703,33.0746089 36.796703,33.1850868 C36.7430013,33.1303603 36.5072879,33.3078627 36.5072879,33.3638191 C36.4515365,33.3078627 36.2840775,33.3638191 36.3400338,33.3638191 C36.2285311,33.3078627 35.8278183,33.3638191 35.7161106,33.4195704 C35.7161106,33.4195704 35.5384032,33.3638191 35.4248508,33.4195704 C35.4248508,33.3078627 35.081939,33.1850868 35.081939,33.3078627 C35.0261876,33.1850868 34.9146849,33.1303603 34.8587286,33.2523163 C34.8587286,33.1850868 34.3444633,33.0188576 34.3444633,31.5922788 Z M4.93193529,26.1786585 C4.53122244,25.4967293 3.90729921,25.1517678 3.22762463,25.1517678 C1.23410383,25.1517678 0.431243352,28.1721793 0.431243352,30.5664129 C0.431243352,32.2832267 0.665931951,33.0746089 1.17814751,33.0746089 C2.42599396,33.0746089 2.71520411,33.0746089 2.77116043,33.0188576 C3.45083501,32.8516035 2.77116043,28.5161159 3.6842938,28.5161159 C3.90729921,28.5161159 4.07455327,29.0853127 4.14178284,29.7092359 C4.30801206,30.6791455 4.65297355,31.5922788 5.501132,31.5922788 C6.40278715,31.5922788 6.47104157,31.3700933 6.59299765,30.3991589 C6.75922687,29.1970203 6.87175442,28.1721793 7.16096456,28.1721793 C7.56188238,28.1721793 7.72811159,30.1099487 7.72811159,30.5118914 C7.84084411,31.881489 7.84084411,33.0746089 8.46476734,33.0746089 C9.55540318,33.0746089 9.89011626,32.2832267 10.0120723,31.5922788 C10.1793264,29.9435145 9.89011626,27.8932176 9.55540318,26.923308 C9.09893898,25.6084369 8.29730831,24.9855385 7.27267223,24.9855385 C6.24598647,24.9855385 5.44435581,25.6084369 4.93193529,26.1786585 Z M40.1061197,26.0091498 C39.994617,25.6084369 39.8726609,25.5535054 39.5939041,25.4430276 C39.0794339,25.3294752 38.1663006,25.3872762 38.0443445,25.775691 C37.7098364,26.2891364 37.8418359,31.97147 37.9100903,32.6056416 C37.9328418,32.9846279 37.8770904,33.1303603 40.3293301,33.1303603 C42.0998455,33.1303603 42.8910228,32.7398958 43.0687302,31.8267625 C43.2919406,30.6791455 42.9467741,30.5664129 42.4343536,30.5664129 L40.4408328,30.5664129 C40.4408328,29.7752356 40.2610757,26.5783465 40.1061197,26.0091498 Z M13.9898904,27.4367534 C14.1913741,27.4367534 14.4578328,28.3498867 14.5137891,29.3185665 L13.366992,29.3185665 C13.366992,29.0295613 13.6676804,27.8374662 13.8339096,27.4697532 C13.8453878,27.4367534 13.8898659,27.4367534 13.9898904,27.4367534 Z M15.8173869,25.5535054 C15.3607178,25.1517678 12.2866046,24.9855385 12.1193505,25.2632705 C11.7174078,25.8986719 10.5822939,29.830987 10.5822939,31.5922788 C10.5822939,32.9071499 11.2607387,33.0746089 11.7174078,33.0746089 C12.5747899,33.0746089 13.0324839,32.9631062 13.2554893,30.8011015 L14.6273415,30.8011015 C14.9040486,32.2832267 15.1377123,33.1850868 16.1086468,33.1850868 C16.9637741,33.1850868 16.9637741,31.6470053 16.6208623,28.6845998 C16.565111,28.0606766 16.2738511,25.9544233 15.8173869,25.5535054 Z M52.8733845,29.5417769 C52.6399257,28.7401462 52.528423,27.9489689 52.4169203,27.1475432 C52.1277101,28.0606766 51.9604561,28.8621023 51.8385,29.5417769 L52.8733845,29.5417769 Z M56.0052987,31.5922788 C55.893796,31.6470053 55.893796,31.8267625 56.1707081,32.2274753 C56.1170064,32.1614755 56.1170064,32.4496608 56.2285091,32.506437 C56.1170064,32.4496608 55.7699952,33.0188576 54.7453591,33.0188576 C53.5530591,33.0188576 53.385805,32.1057242 53.1523462,31.3700933 L51.6691962,31.3700933 C51.5037869,32.3947294 51.5037869,32.9631062 50.187686,32.9631062 C49.2188013,32.9631062 48.9957959,32.3947294 48.9957959,31.6470053 C48.9957959,30.1657001 49.6756754,26.7445757 50.9913664,25.5535054 C51.6134449,24.9855385 54.1769823,24.7965579 54.3774412,25.4637294 C54.7679056,26.755849 55.3237794,30.3434075 56.0052987,31.5922788 Z M25.7335439,25.8427156 C26.1344617,25.4430276 26.6466773,25.2075191 27.2148492,25.2075191 C28.0722312,25.2075191 28.6401981,25.6641883 29.1546683,26.6888244 C29.8447963,26.0091498 30.8694323,25.3294752 32.1853282,25.775691 C32.9746608,26.0649011 33.5428327,27.1475432 33.5428327,29.6532796 C33.5428327,30.9126042 33.431125,31.8267625 33.1978712,32.7173493 C33.0304122,33.1303603 32.9189095,33.1850868 32.0057761,33.1850868 C31.2041454,33.1850868 31.0368914,32.7948273 31.0368914,32.2379287 C31.0368914,29.2525667 31.1463444,28.7401462 30.6359735,28.7401462 C29.7330886,28.7401462 30.3570118,31.0788335 29.220873,31.3122922 C27.5598107,31.7027567 26.9918438,29.141064 27.1033465,27.8932176 C26.5372243,28.1721793 26.6694288,29.6977577 26.880341,31.5365275 C27.0145952,32.6728712 26.6466773,33.1850868 25.7997486,33.3078627 C25.4545822,33.3638191 24.0849846,33.1303603 24.0849846,30.3434075 C24.0849846,28.5728921 24.5414488,27.0915869 25.2873281,26.2891364 C25.0993723,26.5566199 24.9423666,26.8333269 24.8866153,27.0358355 C25.1098257,26.6888244 25.3225827,26.3778876 25.5765383,26.1104041 C25.9442512,25.7209645 26.1902131,25.5856855 26.5911309,25.4430276 C26.4236719,25.4430276 26.1117103,25.5535054 25.7335439,25.8427156 L25.7335439,25.8427156 Z" id="Macmillan" fill="#001731"></path>
    </g>
</svg>