<?xml version="1.0" encoding="UTF-8" standalone="no"?>
<!DOCTYPE svg PUBLIC "-//W3C//DTD SVG 1.1//EN" "http://www.w3.org/Graphics/SVG/1.1/DTD/svg11.dtd">
<svg width="100%" height="100%" viewBox="0 0 1191 194" version="1.1" xmlns="http://www.w3.org/2000/svg" xmlns:xlink="http://www.w3.org/1999/xlink" xml:space="preserve" style="fill-rule:evenodd;clip-rule:evenodd;stroke-linejoin:round;stroke-miterlimit:1.41421;">
    <g id="Layer_1.-2">
        <path d="M755.71,143L715,93L755.66,44L758,41.19L742,41.19C738.35,41.3 733.64,41.96 729.64,46.19L703.09,78.19L684.41,55.52C674.82,43.98 661.88,41.36 652.71,41.18L651.25,41.18L650.6,41.18L647.15,41.32L649.33,44L690,93.87L649.25,142.95L646.9,145.78L661.73,145.78C665.5,145.78 671.04,145.23 675.51,140.51L702,108.6L720.77,131.6C730.86,143.5 745.09,145.6 752.68,145.75L758,145.75L755.71,143Z" style="fill:white;fill-rule:nonzero;"/>
        <path d="M645.49,87.53C645.372,83.322 644.648,79.152 643.34,75.15C643.231,74.679 643.094,74.215 642.93,73.76C642.5,72.55 642.02,71.35 641.49,70.12L641.49,70L641.22,69.37C640.97,68.8 640.22,67.26 640.09,66.99C637.274,61.392 633.446,56.364 628.8,52.16L628.56,51.95C628.09,51.53 627.62,51.13 627.15,50.73C620.46,45.12 610.15,40.96 599.64,39.6C597.609,39.312 595.561,39.165 593.51,39.16L592.81,39.16C561.92,39.49 539.48,62.44 539.48,93.73C539.496,123.511 563.979,148.021 593.76,148.07C612.713,148.038 630.366,138.233 640.41,122.16L641.41,120.6L639.79,119.72C636.234,117.634 632.211,116.472 628.09,116.34C624.195,116.288 620.421,117.718 617.54,120.34C610.966,126.118 602.512,129.318 593.76,129.34C577.699,129.289 563.558,118.403 559.4,102.89L628.4,102.89C630.55,102.89 637.88,102.56 641.84,98.33C644.455,95.69 645.786,92.033 645.48,88.33C645.49,88.06 645.49,87.79 645.49,87.53ZM559.55,83.53C561.339,76.55 565.245,70.292 570.73,65.62C583.58,55.294 602.04,55.294 614.89,65.62C620.429,70.246 624.327,76.54 626,83.56L559.55,83.53Z" style="fill:white;fill-rule:nonzero;"/>
        <path d="M517.11,53.28C515.732,53.278 514.357,53.158 513,52.92C509.42,52.35 504.08,50.6 496.41,46.17L496.25,46.08C488.111,41.504 478.93,39.099 469.593,39.099C439.755,39.099 415.203,63.652 415.203,93.489C415.203,123.327 439.755,147.879 469.593,147.879C482.623,147.879 495.229,143.197 505.1,134.69L505.1,138.27C505.06,141.149 504.755,144.017 504.19,146.84C502.399,154.745 497.929,161.792 491.54,166.78C483.314,173.271 472.618,175.789 462.36,173.65L461.58,173.47C457.058,172.441 452.783,170.532 449,167.85L448.94,167.85C446.137,165.974 442.843,164.965 439.47,164.95C435.19,164.95 430.94,166.56 426.84,169.74L425.48,170.8L426.53,172.16C433.819,181.596 444.012,188.379 455.53,191.46L457.34,191.9C461.361,192.831 465.475,193.301 469.603,193.301C499.231,193.301 523.686,169.087 523.98,139.46L523.98,94.11L523.98,93.48L523.98,52.28C521.751,52.946 519.436,53.283 517.11,53.28ZM469.56,129C460.224,129.048 451.258,125.295 444.74,118.61C431.335,104.647 431.335,82.293 444.74,68.33C451.258,61.645 460.224,57.892 469.56,57.94C488.829,58.263 504.504,74.203 504.504,93.475C504.504,112.747 488.829,128.687 469.56,129.01L469.56,129Z" style="fill:white;fill-rule:nonzero;"/>
        <path d="M247.87,140.77C256.72,135.66 262.48,134.14 265.98,133.86C269.131,133.494 272.324,133.762 275.37,134.65L275.37,52.57C273.467,53.047 271.512,53.289 269.55,53.29C268.8,53.29 268.06,53.29 267.33,53.18L267.24,53.18C263.93,53.18 257.88,51.97 247.92,46.18L247.85,46.18C239.666,41.536 230.415,39.095 221.005,39.095C191.162,39.095 166.605,63.652 166.605,93.495C166.605,123.338 191.162,147.895 221.005,147.895C230.415,147.895 239.666,145.454 247.85,140.81L247.87,140.77ZM221,129C201.503,129 185.46,112.957 185.46,93.46C185.46,73.963 201.503,57.92 221,57.92C240.497,57.92 256.54,73.963 256.54,93.46C256.518,112.948 240.488,128.978 221,129Z" style="fill:white;fill-rule:nonzero;"/>
        <path d="M372.2,140.78C380.65,135.9 386.28,134.29 389.82,133.91C393.135,133.471 396.505,133.736 399.71,134.69L399.71,0L397.82,0L397.7,0C391.3,0.87 380.35,5.53 379.93,17.42L379.93,51.52C370.188,43.481 357.944,39.082 345.313,39.082C315.476,39.082 290.923,63.634 290.923,93.472C290.923,123.309 315.476,147.862 345.313,147.862C354.72,147.862 363.968,145.421 372.15,140.78L372.2,140.78ZM345.33,129C325.833,129 309.79,112.957 309.79,93.46C309.79,73.963 325.833,57.92 345.33,57.92C364.827,57.92 380.87,73.963 380.87,93.46C380.848,112.948 364.818,128.978 345.33,129Z" style="fill:white;fill-rule:nonzero;"/>
        <path d="M108.51,38.94C95.876,38.984 83.891,44.628 75.81,54.34C67.455,44.633 55.288,39.011 42.48,38.94C33.056,38.921 23.895,42.075 16.48,47.89L16.41,47.94L16.35,48C16.35,48 11.25,52.79 6.35,53C5.774,53.089 5.193,53.136 4.61,53.14C3.025,53.137 1.457,52.814 0,52.19L0,146L1.93,145.78C8.11,145.06 19.83,140.39 19.93,127.86L19.93,81.43C19.93,68.21 29.82,57.86 42.45,57.86C55.192,57.921 65.715,68.261 66,81L66,145.74L68,145.74C74.15,145 85.83,140.4 86,128L86,81.43C86,81.35 86,81.26 86,81.18L86,81.09C86.007,74.979 88.335,69.093 92.51,64.63C96.677,60.262 102.473,57.809 108.51,57.86C121.14,57.86 131.03,68.21 131.03,81.43L131.03,145.77L133,145.77C136.118,145.305 139.128,144.29 141.89,142.77C147.89,139.45 151.03,134.21 151.03,127.62L151.03,81.43C151.008,58.118 131.822,38.945 108.51,38.94L108.51,38.94Z" style="fill:white;fill-rule:nonzero;"/>
    </g>
</svg>
