<?xml version="1.0" encoding="UTF-8"?>
<svg width="60px" height="56px" viewBox="0 0 60 56" version="1.1" xmlns="http://www.w3.org/2000/svg" xmlns:xlink="http://www.w3.org/1999/xlink">
    <!-- Generator: Sketch 43.2 (39069) - http://www.bohemiancoding.com/sketch -->
    <title>Ogilvy</title>
    <desc>Created with Sketch.</desc>
    <defs></defs>
    <g id="Page-1" stroke="none" stroke-width="1" fill="none" fill-rule="evenodd" fill-opacity="0.4">
        <g id="Ogilvy" transform="translate(30.406444, 34.039975) scale(1, -1) translate(-30.406444, -34.039975) translate(0.406444, 12.039975)" fill-rule="nonzero" fill="#001731">
            <path d="M51.2712963,31.7278051 C51.4954866,31.8705915 51.7859867,32.0070669 51.9714963,32.0962098 C52.1609529,32.183775 52.4048783,32.2863288 52.6693281,32.2863288 C52.9258839,32.2863288 53.1058677,32.2034969 53.3221639,32.0512439 C53.5392496,31.8958355 53.7216016,31.7317495 53.9276356,31.4296103 C54.1289333,31.1227378 54.5196875,30.5863026 54.6578329,30.3946059 C54.7991359,30.198176 55.1827855,29.6404412 55.3414554,29.5402541 C55.5009147,29.4369114 55.5356484,29.4542667 55.6177463,29.4684664 C55.7069488,29.483455 55.8016771,29.5528761 55.8987736,29.8210936 C55.9863973,30.071956 56.0748103,30.2581305 56.1845373,30.533448 C56.3029476,30.8071877 56.5326638,31.0399059 56.790009,31.1984698 C57.0505118,31.3594004 57.6283544,31.6749505 58.2464565,31.6339289 C58.7074676,31.6007962 59.0169133,31.4737873 59.1290085,31.2836683 C59.2284732,31.1116935 59.2687327,30.7630107 59.2150533,30.5452811 C59.1566376,30.3299182 58.7264132,28.390074 58.6214227,27.9419928 C58.5132745,27.4907562 57.4270568,22.9878563 57.2960159,22.3528118 C57.1673433,21.7146117 56.8492141,20.0508738 56.6921231,19.272254 C56.5326638,18.4904786 55.6130099,13.9378796 55.4653916,13.3028351 C55.3138264,12.6717349 54.4715339,8.81729046 54.1644564,7.64817736 C53.8621152,6.47275325 53.3553188,5.00150093 53.2195416,4.59365244 C53.0553459,4.09981654 52.7151134,3.25650891 52.5374979,2.86996004 C52.2896255,2.35088014 51.5988983,1.35768621 51.5262733,1.30325382 C51.4544377,1.24251043 51.152886,1.02714749 50.9389579,0.894616449 C50.7218722,0.766818661 50.3476954,0.562499974 49.9577306,0.475723698 C49.570134,0.390525172 48.8628294,0.337670532 48.7562601,0.403147176 C48.5636459,0.522267337 48.2684093,0.660320504 48.020537,0.936426837 C47.8823915,1.08394651 47.4166441,1.64720343 46.9722105,2.73190688 C46.5246193,3.81818808 46.0967632,5.93395146 46.0683447,6.51377476 C46.0407156,7.09359806 45.972827,7.49750218 45.9751952,7.58743396 C45.9791422,7.67105474 45.9515131,7.87852892 45.9515131,7.87852892 C45.9515131,7.87852892 46.0067713,8.16567951 46.3138488,8.49700711 C46.6138218,8.82991246 46.7677553,8.99005413 47.1427214,9.10365217 C47.5192664,9.22198345 47.8042407,9.19121732 47.9660682,9.11706305 C48.1215805,9.04921978 48.2549895,8.99005413 48.2549895,8.86146747 C48.2549895,8.51357349 48.1910479,8.21143427 48.2684093,7.75861989 C48.3505072,7.24111773 48.469707,6.63131717 48.6125888,6.12328152 C48.7594177,5.61682362 49.2180605,4.28283559 49.436725,3.93809711 C49.6514425,3.59020313 49.7382767,3.47108297 49.897736,3.48686048 C50.0540377,3.50027136 50.1732375,3.5436595 50.3729563,3.86630947 C50.578201,4.18264844 50.9673764,5.01017856 51.1402555,5.54345822 C51.3139241,6.08147113 51.55706,7.06125418 51.7141511,7.58743396 C51.872821,8.11045824 52.1893714,9.33242599 52.4490848,10.4407957 C52.7087982,11.5562653 52.9700904,12.8886756 53.0877114,13.5915634 C53.2021748,14.3007622 53.4437319,15.9258452 53.5842455,16.6500327 C53.726338,17.3702758 53.8842185,18.1559955 53.9450025,18.5788326 C54.0034183,18.9906255 54.2828667,20.7474507 54.3286521,20.9935797 C54.3704904,21.2404977 55.1188439,24.9773997 55.2498848,25.639266 C55.3761891,26.3058656 55.4653916,26.6237823 55.4772327,26.7223917 C55.4945995,26.8288899 55.5806444,26.9274993 55.5964324,27.0134867 C55.6082735,27.0844855 55.5356484,27.1744172 55.4653916,27.2335829 C55.3911878,27.2903819 55.3035641,27.3306145 55.2498848,27.3306145 C55.1898902,27.3306145 55.0841102,27.2785488 54.960174,27.2335829 C54.7288791,27.1475955 54.4802173,27.1294513 54.2347132,27.1294513 C53.9907878,27.1294513 53.7737021,27.2801265 53.5045159,27.5349332 C53.2353297,27.7921065 52.7245863,28.484739 52.4861867,28.7813561 C52.2501554,29.0819176 51.8633482,29.698818 51.6454731,29.875526 C51.4299662,30.053023 51.096049,30.1595211 50.9208016,30.3149295 C50.7502907,30.476649 50.707663,30.6367906 50.6650352,30.8332206 C50.6208287,31.0399059 50.6342485,31.1984698 50.6342485,31.2702575 C50.6342485,31.3444117 50.8497554,31.5305863 50.9081712,31.5747633 C50.9673764,31.6213069 51.2089335,31.6875725 51.2712963,31.7278051" id="path6484"></path>
            <path d="M22.7340817,41.1380645 C22.5730436,41.1380645 22.4869988,41.1017762 22.3922705,41.0623325 C22.299121,41.0157888 22.0623002,40.9321681 21.8594238,40.9440012 C21.6581262,40.9589898 21.5176125,40.9179683 21.3889399,41.084421 C21.2555309,41.2477181 21.169486,41.3763048 21.1552768,41.5309244 C21.1426464,41.6815995 21.1829059,41.7470762 21.1315947,41.8504188 C21.0818624,41.9529726 21.040024,42.1367805 21.0266042,42.2101459 C21.0116055,42.2835113 20.9397699,42.5651398 21.040024,42.7363257 C21.1426464,42.9122449 21.3423652,43.1567962 21.5389264,43.2735498 C21.7307512,43.3903033 22.165712,43.6900759 22.5193643,43.7626524 C22.8730166,43.8297068 22.8382829,43.8233958 23.0458957,43.8233958 C23.2558768,43.8233958 23.5069067,43.765019 23.6284747,43.7105866 C23.7532003,43.6687762 24.0294912,43.4242249 24.0555415,43.3705814 C24.1060632,43.2672388 24.1486909,43.1165636 24.0618567,42.8388795 C23.9750224,42.5651398 23.7018892,42.1730688 23.5866364,41.9545504 C23.472173,41.7391874 23.2890317,41.4851696 23.1611485,41.3684161 C23.0316865,41.2532403 22.7980233,41.1380645 22.7340817,41.1380645" id="path6488"></path>
            <path d="M17.4888966,20.0403852 C17.4462688,19.6167592 17.250497,18.5793882 17.189713,18.1060631 C17.1336655,17.6319491 16.971838,17.0497592 16.8573746,16.8028412 C16.7429112,16.5504011 16.6394995,16.1725299 16.5179315,16.1725299 C16.3932059,16.1725299 16.3426842,16.3484491 16.2621651,16.6718879 C16.1863825,17.00006 16.1998023,17.2367226 16.1832249,17.5475394 C16.1642792,17.8544119 16.3166339,18.6275096 16.3426842,18.9517374 C16.3632087,19.2814872 16.615028,20.3906458 16.7429112,20.9641581 C16.8786885,21.5234706 17.1597157,22.4361993 17.2528652,22.5916077 C17.3483829,22.7454384 17.4296914,23.1872085 17.505474,23.2132414 C17.5733626,23.2384854 17.5852037,22.6744396 17.5852037,22.3636228 C17.5852037,22.0528059 17.5370501,20.4648001 17.4888966,20.0403852 M16.2542711,27.9930364 C15.8785155,27.9748923 15.8493076,27.9930364 15.6622193,27.9354486 C15.4735521,27.8770718 15.2469936,27.7895066 15.2185751,27.9157267 C15.1933142,28.0458911 15.2777803,28.426129 15.2777803,28.426129 C15.2777803,28.426129 15.3756662,28.5831151 15.6661663,28.6856689 C15.95193,28.7890116 16.2321678,28.8205666 16.4405701,28.9436311 C16.6450253,29.0682734 16.987626,29.4067009 16.987626,29.4067009 C16.987626,29.4067009 17.1447171,29.1156059 17.1336655,28.8410773 C17.117088,28.564971 17.0334113,28.3677522 16.9047387,28.248632 C16.7705403,28.1366117 16.6276585,28.0040807 16.2542711,27.9930364 M9.65802411,30.0322789 C9.59724012,29.8603041 9.45435827,29.469022 9.38646966,29.342802 C9.31621284,29.2197374 8.96966516,28.571282 8.82915152,28.3843186 C8.69100609,28.1989329 8.51260113,27.8770718 8.43129268,27.7910844 C8.25841354,27.6183207 8.09184962,27.4652789 7.89292019,27.3209147 C7.78556146,27.2349273 7.42480453,27.0637414 7.36007353,27.0337642 C7.16509112,26.9540878 6.85564535,26.8649449 6.36621583,26.8460119 C5.8775757,26.8357565 5.39288258,26.9248994 4.95555362,27.1244848 C4.39192026,27.3871803 3.92222579,27.7532184 3.41779761,28.7661342 C2.91415884,29.7822055 2.72470225,30.2839301 2.72470225,30.8945196 C2.72470225,31.5035313 2.95678657,32.5598352 3.1580842,33.0378936 C3.36175004,33.515952 3.72250697,34.5028349 3.9253834,34.887806 C4.10299896,35.2215002 4.41244472,35.6995586 4.68873558,35.963043 C4.77083344,36.0458749 4.83398564,36.1231846 4.94608079,36.1926057 C5.06370176,36.2659711 5.13553738,36.3109369 5.3652535,36.5262999 C5.59733782,36.7432406 5.75363951,36.7605958 5.81205529,36.785051 C5.86731347,36.816606 5.98572384,36.7605958 6.04098201,36.7732178 C6.16807581,36.8063506 6.21701876,36.7605958 6.30385303,36.5262999 C6.36226881,36.3701026 6.79249316,35.4557962 6.91011412,35.223078 C7.02457748,34.9998263 7.1279892,34.9958819 7.14219845,34.8783395 C7.1579865,34.7663192 7.16982754,34.4878463 7.32849743,34.1091862 C7.48558852,33.7313149 7.97975447,33.0079163 8.19605074,32.6781665 C8.40997881,32.3444723 9.15438534,31.4956425 9.37068161,31.2100697 C9.58776729,30.9126637 9.76538284,30.7351668 9.76538284,30.6239354 C9.76538284,30.5048152 9.71328228,30.2066204 9.65802411,30.0322789 M48.3687422,33.459153 C48.0537707,33.5025411 47.083595,33.3778988 46.8001995,33.3368773 C46.5199617,33.2990113 45.9192264,33.1980353 45.5292616,32.8951072 C45.0272016,32.5014584 44.9964149,31.9681788 44.9798375,31.6336957 C44.9656282,31.3031569 44.9616812,30.7667218 44.9498402,30.3778063 C44.9364203,29.9612802 44.9048442,29.8405823 44.8369556,29.4493001 C44.7927491,29.2931028 44.7524895,29.0950952 44.7177558,29.0035856 C44.6735493,28.8836766 44.5819786,28.8584326 44.4343603,28.9388979 C44.3270016,28.9980635 44.1809622,29.2142153 44.0925491,29.2994138 C43.8801998,29.5029437 42.7774046,30.961574 42.2863962,31.5595414 C41.7361827,32.2269298 41.3754258,32.2427074 40.9846716,32.2521739 C40.6752258,32.2592737 39.9150312,32.0076225 39.6876833,31.8963911 C39.4137607,31.7622823 39.2969291,31.5903075 39.2969291,31.5903075 C39.2969291,31.5903075 39.2408815,31.2290027 39.2708788,30.8684867 C39.2969291,30.5032375 39.2243041,29.9581247 39.1161559,29.6165417 C38.9795893,29.1708272 38.7119819,28.9601975 38.553312,28.9223315 C38.3014926,28.8663213 37.8886351,29.1447943 37.0076619,30.2507974 C36.2632554,31.182459 35.4335934,32.9637393 35.1588814,33.8614793 C34.8818011,34.7631637 34.5526203,35.8376118 34.5392004,36.0111644 C34.5218336,36.1855058 34.5076243,36.3637916 34.47368,36.4545122 C34.4381569,36.5302443 34.4168431,36.6477867 34.4168431,36.8079283 C34.4168431,36.96807 34.3694789,37.0966567 34.3694789,37.0966567 C34.3694789,37.0966567 34.2644884,38.2357925 34.2084408,38.6854514 C34.150025,39.1335325 34.0845046,40.9747674 34.0095114,41.4970028 C33.9416228,42.0176604 33.4143019,42.1856908 32.9675001,42.0878703 C32.5254347,41.9868943 31.9704848,41.767587 31.5378923,41.4938473 C31.1068785,41.2153743 30.9434722,40.7278494 30.9853105,40.1022713 C31.0239913,39.5555808 31.3839588,37.9833525 31.4439534,37.5802372 C31.4857917,37.2938755 31.4676354,37.0343355 31.5378923,36.7732178 C31.6105173,36.5136779 31.523683,36.076641 31.4526368,35.6577483 C31.3815906,35.2380666 31.0926693,34.6014443 30.9363676,34.2235731 C30.7753295,33.8441241 30.3601038,32.9692614 30.2858999,32.8217418 C30.2124855,32.6765887 29.8454134,32.0147224 29.719109,31.7701711 C29.6441157,31.6171293 29.33467,31.0720165 29.0315394,30.6050024 C28.7544592,30.177432 27.8071762,28.8103112 27.2964328,28.3030644 C26.7959516,27.7981843 26.1091715,27.3998023 25.8526157,27.3706139 C25.5905341,27.33827 25.3813424,27.4116354 25.1626779,27.5907101 C24.8950705,27.8139618 24.4293231,28.7527233 24.2564439,29.089573 C24.0843542,29.4295783 23.713335,30.1308883 23.713335,30.1308883 C23.713335,30.1308883 23.572032,30.3612399 23.268112,30.4614271 C22.9626133,30.5616142 22.5315995,30.5071818 22.1471605,30.3778063 C21.6490476,30.2137202 21.2267172,30.0243902 20.7522864,29.7829944 C20.4207373,29.6165417 19.9028893,29.2686477 19.7829001,29.3656794 C19.6518593,29.4800663 19.7663227,29.6725518 19.6518593,30.1371993 C19.537396,30.6018469 19.1371689,30.6941453 18.6895777,30.6570681 C18.2427759,30.6168355 18.1614675,30.9820847 18.0564769,31.2518801 C17.9483288,31.5090534 17.7967635,31.7575491 17.5244197,31.8427476 C17.2599699,31.9240018 16.934736,32.0076225 16.6750226,31.9516124 C16.4160986,31.8963911 16.1224409,31.7086388 15.8627275,31.5090534 C15.6045929,31.3071013 15.0954283,30.790388 14.8665016,30.5418923 C14.6344173,30.2933966 14.4465395,30.2018871 14.4465395,30.2018871 C14.4465395,30.2018871 14.2412948,30.253164 13.9531629,30.3943727 C13.665031,30.5418923 13.1361314,30.8227319 12.7895837,31.1154046 C12.4454042,31.4049218 12.1604299,31.7749043 12.1604299,31.7749043 C12.1604299,31.7749043 12.1296432,32.5361689 12.1296432,32.7878201 C12.1296432,33.3692212 11.913347,34.552534 11.7665181,35.1039578 C11.6260045,35.6553816 11.224988,36.6848638 11.1389431,36.942826 C11.0528983,37.1999993 10.9786944,37.4761057 10.8168669,37.7561564 C10.6597758,38.0283183 9.94063019,39.1082885 9.71091407,39.3946503 C9.47488274,39.6865341 8.85046539,40.3184232 8.79599662,40.4186103 C8.74468546,40.5227418 8.73994904,40.3752222 8.42497746,40.6694726 C8.10526946,40.9550455 7.45559123,41.2563958 7.19508841,41.2429849 L6.73723498,41.1719862 C6.36226881,41.0197332 6.04098201,40.8233033 5.75600772,40.5929517 C5.46629701,40.3626002 5.43945733,39.9295077 5.43945733,39.6399905 C5.43945733,39.3488955 5.50813534,38.7264729 5.57365575,38.5316207 C5.66049002,38.2712919 5.61549408,38.2105485 5.49866252,38.0677621 C5.49866252,38.0677621 5.05186072,37.7916558 4.63663502,37.5068718 C4.21667291,37.2110436 3.43595387,36.5460218 2.94968195,36.0537636 C2.45867362,35.5607166 1.82083643,34.6353659 1.40482133,33.8819901 C0.988016824,33.130192 0.66357241,32.1448868 0.517532954,31.6297513 C0.422015256,31.2984237 0.306762496,30.5766028 0.290185044,30.2452752 C0.267292372,29.9131588 0.301236679,29.5810423 0.417278841,28.9980635 C0.535689211,28.4221846 0.911444785,27.8100174 1.18220983,27.2909375 C1.45534308,26.7718576 1.87293699,26.3450761 2.1634371,26.0453035 C2.45077959,25.7439531 2.91415884,25.4970352 3.25912772,25.3645042 C3.604886,25.232762 4.44086321,25.1459857 4.90503186,25.1160085 C5.17737571,25.100231 5.86731347,25.232762 6.07176871,25.232762 C6.15860298,25.232762 6.75775945,25.422092 6.95905708,25.4844132 C7.12009518,25.5285902 7.46743227,25.6611212 7.80134951,25.7707749 C8.24894071,25.9119836 9.00518827,26.44053 9.112547,26.5209953 C9.16701577,26.5635945 9.29489897,26.6637817 9.48909198,26.8286566 C9.68328499,26.9958981 9.84905951,27.174184 10.1371914,27.4502903 C10.4261127,27.7232411 10.8168669,28.29912 11.0592135,28.6675248 C11.2802462,28.9925414 11.5518006,29.3925011 11.5518006,29.3925011 C11.5518006,29.3925011 11.8975589,29.1771382 12.1714816,29.0556514 C12.4288268,28.9388979 12.8645769,28.7077574 13.0650852,28.577593 C13.268751,28.4474286 13.4684698,28.2604652 13.3137469,27.8841717 C13.2434901,27.7216634 13.0800838,27.3808693 12.9222033,27.0590082 C12.7611652,26.7410914 12.7027494,26.4357967 12.7335361,26.2054452 C12.7611652,25.9861378 12.8077399,25.9427497 12.9506218,25.8299405 C13.0587699,25.7439531 13.1250797,25.7242313 13.196126,25.7108204 C13.4266315,25.6634879 13.325588,25.7139759 13.8308055,25.7999633 C14.1773532,25.8583401 15.2446254,26.218856 15.5888048,26.3214098 C15.9345631,26.4231747 16.0987588,26.4894402 16.4942495,26.6582595 C16.8179045,26.7994682 16.9560499,26.4444744 16.8289561,26.1312909 C16.7705403,25.9908711 16.6394995,25.7605195 16.5550335,25.5104461 C16.5131951,25.3810705 16.3963636,25.1846406 16.3568934,24.9779553 C16.3095293,24.77127 16.2574287,24.5961397 16.2424301,24.5227743 C16.2258526,24.4541421 16.1642792,24.4178539 16.1161257,24.3397552 C15.9961365,24.1488474 15.8698321,23.7741317 15.7253715,23.4096713 C15.5864366,23.0483665 15.190946,22.0188843 15.0930601,21.7143784 C14.9920166,21.413817 14.7480912,20.3109694 14.684939,20.0640514 C14.6288914,19.8187112 14.5799485,19.5560158 14.5491618,19.4290069 C14.5215327,19.2980536 14.4678533,18.8176286 14.4465395,18.511545 C14.4252256,18.2117724 14.3644416,17.3944976 14.3549688,16.7846971 C14.3462854,16.1733188 14.3770721,15.4917306 14.478905,14.9671285 C14.5799485,14.4480486 14.7062529,14.0047007 14.8080858,13.8295704 C14.9099187,13.6544401 15.0543794,13.162182 15.2777803,12.9515523 C15.4017165,12.8403209 15.7640522,12.6786015 16.1642792,12.6786015 C16.5724003,12.6786015 16.9623651,12.9255194 17.2086587,13.0241288 C17.4549523,13.1282604 17.6862472,13.4990317 17.7099293,13.5337422 C17.7351901,13.5660861 18.1851495,14.2689739 18.8348278,15.8419912 C19.4852954,17.4118529 19.7426406,19.9354648 19.8278961,20.9933465 C19.9163092,22.0496504 19.8578934,23.6873554 19.8444735,24.5393407 C19.8278961,25.3897482 19.6565957,27.1481511 19.6565957,27.3051372 C19.6565957,27.4629123 19.6013376,27.4502903 19.6431759,27.610432 C19.6842248,27.7689959 19.9305184,27.9457039 20.0268255,28.0009252 C20.1578663,28.0798127 20.3425865,28.166589 20.516255,28.2580985 C20.686766,28.3456637 20.9946329,28.4221846 21.1383042,28.4300733 C21.3096045,28.4426953 21.3774931,28.3417193 21.4895883,28.1736889 C21.5693179,28.0506243 21.6648356,27.8683942 21.7587745,27.6593422 C21.9269172,27.2988262 22.2687285,26.6764037 22.6223808,26.3632202 C22.8378877,26.1723124 23.0857601,25.9545828 23.3012669,25.8693843 C23.6509722,25.7392199 24.1554004,25.6524436 24.8927023,25.6398216 C25.6252678,25.6232552 26.3373088,25.9332832 26.5962328,26.0524034 C26.8559462,26.1667903 27.3122209,26.4957512 27.4140538,26.5517614 C27.5135185,26.6077715 27.9642673,26.9659209 28.2673978,27.2278275 C28.5792118,27.5007783 29.3607203,28.4371732 29.6512204,28.7819117 C29.9393523,29.1290168 30.5495604,30.0480564 30.88032,30.6050024 C31.2150267,31.1611594 31.7526097,32.0099892 32.0146913,32.4604369 C32.22783,32.8272639 32.2657213,32.9313954 32.3312417,33.0568266 C32.3312417,33.0568266 32.5064891,32.8493524 32.616216,32.7420654 C32.721996,32.6355672 32.8183031,32.3113395 32.996708,31.9105909 C33.1782706,31.5129978 33.5295547,30.9481631 33.7032232,30.6775789 C34.1002927,30.0630451 34.5707765,29.3925011 35.2757129,28.577593 C35.8235582,27.9457039 36.4724471,27.5291778 36.9610872,27.2988262 C37.4505167,27.0676858 37.8602166,27.0250865 38.1475591,27.0250865 C38.4380592,27.0250865 38.6369886,27.0550638 38.929857,27.1292181 C39.2171995,27.2017946 39.6758423,27.5212891 40.0081807,27.7981843 C40.3405192,28.0711351 40.8773128,28.8016336 40.8773128,28.8016336 C40.8773128,28.8016336 41.1204488,28.6367586 41.3912138,28.3622301 C41.6177723,28.1247786 41.8017031,27.8873272 41.9911597,27.6624977 C42.1687753,27.4526569 42.3629683,27.2278275 42.5784752,27.0077313 C42.7718788,26.8128791 42.9313381,26.6819258 43.0536954,26.5770054 C43.3157771,26.3632202 43.4397132,26.2827549 43.7815245,26.206234 C44.1225464,26.136813 44.3593671,26.1486461 44.6032925,26.1896677 C44.829851,26.2322669 45.1487696,26.3340318 45.3350686,26.396353 C45.5111053,26.4570964 45.7573989,26.5359839 45.8884397,26.6322267 C46.0684235,26.7576578 46.2602483,26.9958981 46.3928679,27.2065278 C46.5689046,27.5007783 47.0141276,28.4221846 47.2730516,29.374357 C47.5311862,30.3336293 47.6527542,31.169837 47.6898561,31.5248309 C47.7206428,31.7654378 47.7537977,31.8317034 48.1532354,32.029711 C48.5542518,32.2182522 48.7871255,32.3665608 48.9915808,32.5756127 C49.1897208,32.7815091 49.3586529,33.1522805 49.3452331,33.2658785 C49.3286556,33.3818432 48.6892396,33.4157648 48.3687422,33.459153" id="path6492"></path>
        </g>
    </g>
</svg>