<?xml version="1.0" encoding="UTF-8" standalone="no"?>
<!DOCTYPE svg PUBLIC "-//W3C//DTD SVG 1.1//EN" "http://www.w3.org/Graphics/SVG/1.1/DTD/svg11.dtd">
<svg width="100%" height="100%" viewBox="0 0 553 111" version="1.1" xmlns="http://www.w3.org/2000/svg" xmlns:xlink="http://www.w3.org/1999/xlink" xml:space="preserve" style="fill-rule:evenodd;clip-rule:evenodd;stroke-linejoin:round;stroke-miterlimit:1.41421;">
    <g transform="matrix(1,0,0,1,-145.3,-243.1)">
        <path d="M200.5,243.1C231,243.1 255.8,267.9 255.8,298.4C255.8,328.9 231.1,353.7 200.5,353.7C170,353.7 145.3,328.9 145.3,298.4C145.2,267.9 170,243.1 200.5,243.1ZM200.5,254.6C176.6,254.6 157.4,274.3 157.4,298.5C157.4,322.7 176.7,342.4 200.5,342.4C224.4,342.4 243.7,322.7 243.7,298.5C243.6,274.3 224.4,254.6 200.5,254.6Z" style="fill:rgb(63,212,200);fill-rule:nonzero;"/>
        <path d="M459.9,346.2C461.5,347.8 462.3,349.2 462.3,350.1C462.3,351.5 460.6,352.2 457.4,352.2C449.9,352.2 448.3,351.5 443.1,346.1L398.8,300L398.8,346.1C398.8,350.8 397.5,352.2 392.7,352.2C388,352.2 386.6,350.9 386.6,346.1L386.6,250.6C386.6,245.9 387.9,244.5 392.7,244.5C397.4,244.5 398.8,245.8 398.8,250.6L398.8,290.4L439,250.5C444.3,245.3 445.9,244.6 453.4,244.6C456.6,244.6 458.3,245.3 458.3,246.6C458.3,247.6 457.5,248.9 455.9,250.5L411.1,295.1L459.9,346.2Z" style="fill:rgb(63,212,200);fill-rule:nonzero;"/>
        <path d="M505,333.5L499.3,346.2C497,351.2 495.5,352.3 489.9,352.3C486.6,352.3 485,351.5 485,349.6C485,348.7 485.3,347.6 485.9,346.3L531.2,245.8C531.8,244.5 532.4,243.7 533,243.7C533.6,243.7 534.2,244.4 534.8,245.8L576.1,346.3C576.6,347.6 576.9,348.6 576.9,349.5C576.9,351.5 575.4,352.3 572.1,352.3C566.7,352.3 565.2,351.3 563.1,346.3L557.9,333.5L505,333.5ZM510.1,322.5L553.5,322.5L532.7,271.6L510.1,322.5Z" style="fill:rgb(63,212,200);fill-rule:nonzero;"/>
        <path d="M602.6,246.1C602.6,244.4 602.9,243.5 603.7,243.5C604.2,243.5 604.9,243.9 605.8,244.8L685.6,326.3L685.6,250.6C685.6,245.9 686.9,244.6 691.7,244.6C696.4,244.6 697.7,245.9 697.7,250.6L697.7,350.7C697.7,352.5 697.4,353.3 696.6,353.3C696.1,353.3 695.4,352.9 694.5,352L614.7,270.4L614.7,346.1C614.7,350.8 613.4,352.2 608.6,352.2C603.9,352.2 602.5,350.9 602.5,346.1L602.5,246.1L602.6,246.1Z" style="fill:rgb(63,212,200);fill-rule:nonzero;"/>
        <path d="M349.2,340.2L296.8,340.2L354.2,254C355.4,252.1 355.6,249.8 354.5,247.8C353.4,245.8 351.4,244.6 349.2,244.6L285.6,244.6C282.3,244.6 279.6,247.3 279.6,250.6C279.6,253.9 282.3,256.6 285.6,256.6L338,256.6L280.6,342.8C279.4,344.7 279.2,347 280.3,349C281.4,351 283.4,352.2 285.6,352.2L349.2,352.2C352.5,352.2 355.2,349.5 355.2,346.2C355.3,342.9 352.6,340.2 349.2,340.2Z" style="fill:rgb(63,212,200);fill-rule:nonzero;"/>
    </g>
</svg>
