<svg id="logo" xmlns="http://www.w3.org/2000/svg" width="473" height="162" viewBox="0 0 473 162">
  <defs>
    <style>
      .cls-1 {
        fill: none;
      }

      .cls-2 {
        fill: #bf0000;
      }

      .cls-3 {
        fill: #fff;
      }
    </style>
  </defs>
  <title>logo_marketing_02</title>
  <g id="logo_marketing_02">
    <rect class="cls-1" y="0.666" width="472.262" height="147.001"/>
    <g>
      <g>
        <g>
          <path class="cls-2" d="M70,35.674A35,35,0,1,1,35,.666,34.995,34.995,0,0,1,70,35.674Z"/>
          <path class="cls-3" d="M30.371,54.477V42.813h5.055l8.751,11.665h8.947L42.549,40.4a12.966,12.966,0,0,0-7.515-23.538H23.223V54.477Zm0-30.472h4.663a5.83,5.83,0,1,1,0,11.66H30.371Z"/>
        </g>
        <path d="M306.32,53.132a5.426,5.426,0,0,1-5.012,3.341c-1.869,0-5.395-1.254-5.395-6.013V28.7h17.636V16.733H295.913V4.166h-11.97V16.733h-8.5V28.7h8.5V50.46a17.5,17.5,0,0,0,17.365,17.988c8.736,0,14.524-5.947,16.672-12.183Z"/>
        <path d="M158.455,16.733v2.238A21.609,21.609,0,0,0,146.8,15.494c-13.021,0-23.613,11.874-23.613,26.457S133.774,68.405,146.8,68.405a21.572,21.572,0,0,0,11.659-3.476v2.237h11.97V16.733ZM146.8,56.435c-6.421,0-11.647-6.5-11.647-14.484s5.226-14.479,11.647-14.479,11.659,6.5,11.659,14.479S153.224,56.435,146.8,56.435Z"/>
        <path d="M259.282,16.733V46.359a10.078,10.078,0,0,1-20.156,0V16.733h-11.97V46.359a22.016,22.016,0,0,0,32.126,19.587v1.22h11.969V16.733Z"/>
        <path d="M393.142,15.494a21.916,21.916,0,0,0-10.074,2.461V16.733H371.1V67.167h11.972V37.546a10.075,10.075,0,1,1,20.151,0v29.62H415.19V37.546A22.077,22.077,0,0,0,393.142,15.494Z"/>
        <path d="M366.31,41.949c0-14.607-10.6-26.5-23.625-26.5-13.248,0-23.625,11.642-23.625,26.5,0,15.619,13.324,26.5,25.283,26.5,6.037,0,14.3-2.07,20.8-11.289l-10.426-6.02c-8.84,10.8-21.162,3.47-22.389-5.667l33.748.007A31.527,31.527,0,0,0,366.31,41.949Zm-13.537-7.177H332.586C334.826,24.966,350.552,22.922,352.773,34.772Z"/>
        <polygon points="201.118 40.374 224.761 16.733 207.832 16.733 189.579 34.993 189.579 0 177.608 0 177.608 67.167 189.579 67.167 189.579 45.759 210.982 67.167 227.903 67.167 201.118 40.374"/>
        <path d="M88.971,67.167V47.628h8.468L112.1,67.167h14.986L109.369,43.589A21.715,21.715,0,0,0,96.783,4.166H77v63Zm0-51.039h7.812a9.764,9.764,0,1,1,0,19.529H88.971Z"/>
      </g>
      <g>
        <path class="cls-2" d="M133.837,84.667v63H121.828V102.6l-16.41,23.936L89.007,102.6v45.069H77v-63H90.369L105.418,106.6l15.049-21.933Z"/>
        <path class="cls-2" d="M173.928,143.1a15.52,15.52,0,0,1-12.408,5.844c-12.649,0-22.9-11.928-22.9-26.5s10.568-26.417,23.536-26.417a14.1,14.1,0,0,1,11.768,5.844l1.6-4.643h10.406v50.433H175.53ZM150.633,122.45c0,8.486,5.2,15.29,11.687,15.29,6.724,0,11.608-6.324,11.608-15.21,0-8.966-4.883-15.289-11.687-15.289C155.757,107.241,150.633,113.965,150.633,122.45Z"/>
        <path class="cls-2" d="M203.844,101.877c3.2-3.762,8.487-5.844,14.65-5.844v11.208c-5.683.4-8.886,2-11.287,5.524a13.152,13.152,0,0,0-2.081,7.285v27.618H193.118V97.234h9.605Z"/>
        <path class="cls-2" d="M256.077,147.667,235.9,126.293v21.374H223.9V80.5H235.9v34.983l17.052-18.252h16.971l-23.7,23.7,26.817,26.737Z"/>
        <path class="cls-2" d="M313.355,137.66c-5.683,7.765-12.088,11.288-20.494,11.288-14.49,0-24.9-11.048-24.9-26.418,0-15.049,10.166-26.578,23.295-26.578,12.967,0,23.295,11.769,23.295,26.338a28.648,28.648,0,0,1-.239,3.682H281.254c.8,7.126,5.363,11.528,11.927,11.528,3.6,0,6.884-2,9.766-5.844Zm-12.329-21.934c-1.2-6-4.562-9.126-9.685-9.126-4.884,0-8.566,3.362-9.846,9.126Z"/>
        <path class="cls-2" d="M336.29,86.187V97.234h13.529v11.207H336.29v25.616a3.385,3.385,0,0,0,3.6,3.684c2.323,0,3.923-1.361,5.524-4.484l9.606,5.524c-4.484,7.445-8.806,10.168-16.491,10.168-6.563,0-12.008-3.444-13.527-8.487a31.083,31.083,0,0,1-.721-7.044V108.441h-8.646V97.234h8.646V86.187Z"/>
        <path class="cls-2" d="M358.623,92.511V80.5h12.01V92.511Zm0,55.156V97.234h12.01v50.433Zm0,0V97.234"/>
        <path class="cls-2" d="M389.822,101.637c2.56-3.522,7.124-5.6,12.247-5.6,11.608,0,19.934,9.206,19.934,22.014v29.62H410v-29.62c0-6.244-4.084-10.806-9.687-10.806a10.8,10.8,0,0,0-10.486,10.806v29.62H377.815V97.234h10.406Z"/>
        <path class="cls-2" d="M472.262,134.939c0,16.33-8.726,26.256-22.974,26.256-8.808,0-15.772-3.6-20.975-10.886l8.726-6.885c3.2,4.323,7.2,6.564,11.527,6.564q10.325,0,11.286-15.13c-2.48,4.322-6.644,6.644-12.008,6.644-12.408,0-21.294-9.366-21.294-22.334,0-13.529,9.128-23.135,21.855-23.135,5.2,0,9.847,1.761,12.41,4.723l1.041-3.522h10.406ZM438.48,118.767c0,6.484,4.8,11.528,10.886,11.528,6,0,10.886-5.2,10.886-11.609,0-6.483-4.723-11.446-10.965-11.446C443.122,107.241,438.48,112.2,438.48,118.767Z"/>
      </g>
    </g>
  </g>
</svg>
