<?xml version="1.0" encoding="UTF-8" standalone="no"?>
<!DOCTYPE svg PUBLIC "-//W3C//DTD SVG 1.1//EN" "http://www.w3.org/Graphics/SVG/1.1/DTD/svg11.dtd">
<svg width="100%" height="100%" viewBox="0 0 473 162" version="1.1" xmlns="http://www.w3.org/2000/svg" xmlns:xlink="http://www.w3.org/1999/xlink" xml:space="preserve" style="fill-rule:evenodd;clip-rule:evenodd;stroke-linejoin:round;stroke-miterlimit:1.41421;">
    <g id="logo_marketing_02">
        <g>
            <g>
                <g>
                    <path d="M70,35.674C69.996,54.871 54.197,70.666 35,70.666C15.8,70.666 0,54.866 0,35.666C0,16.466 15.8,0.666 35,0.666C35.002,0.666 35.003,0.666 35.005,0.666C54.203,0.666 70,16.463 70,35.661C70,35.665 70,35.67 70,35.674L70,35.674ZM30.371,54.477L30.371,42.813L35.426,42.813L44.177,54.478L53.124,54.478L42.549,40.4C45.971,37.97 48.008,34.025 48.008,29.828C48.008,22.715 42.155,16.862 35.042,16.862C35.04,16.862 35.037,16.862 35.034,16.862L23.223,16.862L23.223,54.477L30.371,54.477ZM35.034,35.665L30.371,35.665L30.371,24.005L35.034,24.005C38.232,24.005 40.864,26.637 40.864,29.835C40.864,33.033 38.232,35.665 35.034,35.665Z" style="fill:white;"/>
                </g>
                <path d="M306.32,53.132C305.479,55.152 303.496,56.474 301.308,56.473C299.439,56.473 295.913,55.219 295.913,50.46L295.913,28.7L313.549,28.7L313.549,16.733L295.913,16.733L295.913,4.166L283.943,4.166L283.943,16.733L275.443,16.733L275.443,28.7L283.943,28.7L283.943,50.46C283.938,50.623 283.936,50.786 283.936,50.948C283.936,60.5 291.756,68.378 301.308,68.448C310.044,68.448 315.832,62.501 317.98,56.265L306.32,53.132Z" style="fill:white;fill-rule:nonzero;"/>
                <path d="M158.455,16.733L158.455,18.971C154.983,16.72 150.937,15.513 146.8,15.494C133.779,15.494 123.187,27.368 123.187,41.951C123.187,56.534 133.774,68.405 146.8,68.405C150.939,68.389 154.987,67.182 158.459,64.929L158.459,67.166L170.429,67.166L170.429,16.733L158.455,16.733ZM146.8,56.435C140.379,56.435 135.153,49.935 135.153,41.951C135.153,33.967 140.379,27.472 146.8,27.472C153.221,27.472 158.459,33.972 158.459,41.951C158.459,49.93 153.224,56.435 146.8,56.435Z" style="fill:white;fill-rule:nonzero;"/>
                <path d="M259.282,16.733L259.282,46.359C259.282,51.888 254.733,56.437 249.204,56.437C243.675,56.437 239.126,51.888 239.126,46.359L239.126,16.733L227.156,16.733L227.156,46.359C227.156,46.369 227.156,46.379 227.156,46.389C227.156,58.466 237.094,68.405 249.172,68.405C252.69,68.405 256.157,67.561 259.282,65.946L259.282,67.166L271.251,67.166L271.251,16.733L259.282,16.733Z" style="fill:white;fill-rule:nonzero;"/>
                <path d="M393.142,15.494C389.636,15.497 386.181,16.341 383.068,17.955L383.068,16.733L371.1,16.733L371.1,67.167L383.072,67.167L383.072,37.546C383.072,32.019 387.62,27.47 393.148,27.47C398.675,27.47 403.223,32.019 403.223,37.546L403.223,67.166L415.19,67.166L415.19,37.546C415.176,25.455 405.233,15.51 393.142,15.494L393.142,15.494Z" style="fill:white;fill-rule:nonzero;"/>
                <path d="M366.31,41.949C366.31,27.342 355.71,15.449 342.685,15.449C329.437,15.449 319.06,27.091 319.06,41.949C319.06,57.568 332.384,68.449 344.343,68.449C350.38,68.449 358.643,66.379 365.143,57.16L354.717,51.14C345.877,61.94 333.555,54.61 332.328,45.473L366.076,45.48C366.22,44.308 366.298,43.129 366.31,41.949L366.31,41.949ZM352.773,34.772L332.586,34.772C334.826,24.966 350.552,22.922 352.773,34.772Z" style="fill:white;fill-rule:nonzero;"/>
                <path d="M201.118,40.374L224.761,16.733L207.832,16.733L189.579,34.993L189.579,0L177.608,0L177.608,67.167L189.579,67.167L189.579,45.759L210.982,67.167L227.903,67.167L201.118,40.374Z" style="fill:white;fill-rule:nonzero;"/>
                <path d="M88.971,67.167L88.971,47.628L97.439,47.628L112.1,67.167L127.086,67.167L109.369,43.589C115.102,39.52 118.515,32.911 118.515,25.881C118.515,13.968 108.713,4.166 96.8,4.166C96.795,4.166 96.789,4.166 96.783,4.166L77,4.166L77,67.166L88.971,67.167ZM88.971,16.128L96.783,16.128C102.14,16.128 106.548,20.536 106.548,25.892C106.548,31.249 102.14,35.657 96.783,35.657L88.971,35.657L88.971,16.128Z" style="fill:white;fill-rule:nonzero;"/>
            </g>
            <g>
                <path d="M133.837,84.667L133.837,147.667L121.828,147.667L121.828,102.6L105.418,126.536L89.007,102.6L89.007,147.669L77,147.669L77,84.669L90.369,84.669L105.418,106.6L120.467,84.667L133.837,84.667Z" style="fill:white;fill-rule:nonzero;"/>
                <path d="M173.928,143.1C170.926,146.866 166.336,149.028 161.52,148.944C148.871,148.944 138.62,137.016 138.62,122.444C138.62,107.872 149.188,96.027 162.156,96.027C166.798,95.917 171.207,98.106 173.924,101.871L175.524,97.228L185.93,97.228L185.93,147.661L175.53,147.661L173.928,143.1ZM150.633,122.45C150.633,130.936 155.833,137.74 162.32,137.74C169.044,137.74 173.928,131.416 173.928,122.53C173.928,113.564 169.045,107.241 162.241,107.241C155.757,107.241 150.633,113.965 150.633,122.45Z" style="fill:white;fill-rule:nonzero;"/>
                <path d="M203.844,101.877C207.044,98.115 212.331,96.033 218.494,96.033L218.494,107.241C212.811,107.641 209.608,109.241 207.207,112.765C205.814,114.936 205.09,117.47 205.126,120.05L205.126,147.668L193.118,147.668L193.118,97.234L202.723,97.234L203.844,101.877Z" style="fill:white;fill-rule:nonzero;"/>
                <path d="M256.077,147.667L235.9,126.293L235.9,147.667L223.9,147.667L223.9,80.5L235.9,80.5L235.9,115.483L252.952,97.231L269.923,97.231L246.223,120.931L273.04,147.668L256.077,147.667Z" style="fill:white;fill-rule:nonzero;"/>
                <path d="M313.355,137.66C307.672,145.425 301.267,148.948 292.861,148.948C278.371,148.948 267.961,137.9 267.961,122.53C267.961,107.481 278.127,95.952 291.256,95.952C304.223,95.952 314.551,107.721 314.551,122.29C314.551,123.521 314.471,124.751 314.312,125.972L281.254,125.972C282.054,133.098 286.617,137.5 293.181,137.5C296.781,137.5 300.065,135.5 302.947,131.656L313.355,137.66ZM301.026,115.726C299.826,109.726 296.464,106.6 291.341,106.6C286.457,106.6 282.775,109.962 281.495,115.726L301.026,115.726Z" style="fill:white;fill-rule:nonzero;"/>
                <path d="M336.29,86.187L336.29,97.234L349.819,97.234L349.819,108.441L336.29,108.441L336.29,134.057C336.281,134.159 336.276,134.261 336.276,134.364C336.276,136.221 337.804,137.749 339.661,137.749C339.737,137.749 339.814,137.746 339.89,137.741C342.213,137.741 343.813,136.38 345.414,133.257L355.02,138.781C350.536,146.226 346.214,148.949 338.529,148.949C331.966,148.949 326.521,145.505 325.002,140.462C324.494,138.149 324.252,135.786 324.281,133.418L324.281,108.441L315.635,108.441L315.635,97.234L324.281,97.234L324.281,86.187L336.29,86.187Z" style="fill:white;fill-rule:nonzero;"/>
                <path d="M358.623,92.511L358.623,80.5L370.633,80.5L370.633,92.511L358.623,92.511ZM358.623,147.667L358.623,97.234L370.633,97.234L370.633,147.667L358.623,147.667ZM358.623,147.667L358.623,97.234" style="fill:white;fill-rule:nonzero;"/>
                <path d="M389.822,101.637C392.382,98.115 396.946,96.037 402.069,96.037C413.677,96.037 422.003,105.243 422.003,118.051L422.003,147.671L410,147.671L410,118.051C410,111.807 405.916,107.245 400.313,107.245C394.505,107.414 389.821,112.241 389.827,118.051L389.827,147.671L377.815,147.671L377.815,97.234L388.221,97.234L389.822,101.637Z" style="fill:white;fill-rule:nonzero;"/>
                <path d="M472.262,134.939C472.262,151.269 463.536,161.195 449.288,161.195C440.48,161.195 433.516,157.595 428.313,150.309L437.039,143.424C440.239,147.747 444.239,149.988 448.566,149.988C455.449,149.988 459.211,144.945 459.852,134.858C457.372,139.18 453.208,141.502 447.844,141.502C435.436,141.502 426.55,132.136 426.55,119.168C426.55,105.639 435.678,96.033 448.405,96.033C453.605,96.033 458.252,97.794 460.815,100.756L461.856,97.234L472.262,97.234L472.262,134.939ZM438.48,118.767C438.48,125.251 443.28,130.295 449.366,130.295C455.366,130.295 460.252,125.095 460.252,118.686C460.252,112.203 455.529,107.24 449.287,107.24C443.122,107.241 438.48,112.2 438.48,118.767Z" style="fill:white;fill-rule:nonzero;"/>
            </g>
        </g>
    </g>
</svg>
