<?xml version="1.0" encoding="UTF-8"?>
<svg width="101px" height="56px" viewBox="0 0 101 56" version="1.1" xmlns="http://www.w3.org/2000/svg" xmlns:xlink="http://www.w3.org/1999/xlink">
    <!-- Generator: Sketch 43.2 (39069) - http://www.bohemiancoding.com/sketch -->
    <title>The Guardian</title>
    <desc>Created with Sketch.</desc>
    <defs></defs>
    <g id="Page-1" stroke="none" stroke-width="1" fill="none" fill-rule="evenodd" opacity="0.400000006">
        <g id="The-Guardian" transform="translate(0.676474, 19.039975)" fill-rule="nonzero" fill="#001731">
            <path d="M1.49231517,10.8445396 L1.49231517,5.68801668 L0.0642843459,5.68801668 L0.0642843459,4.27835281 L1.49231517,4.0866477 L1.49231517,2.32801167 L4.57337204,1.89524027 L4.57337204,4.08779564 L6.61669589,4.08779564 L6.61669589,5.69490429 L4.57337204,5.69490429 L4.57337204,10.5851063 C4.57337204,11.5034541 4.82936149,11.9741074 5.73278613,11.9741074 C6.05420786,11.9741074 6.49271894,11.9396693 6.71656621,11.8937519 L6.71656621,13.0864561 C6.22295427,13.3780316 5.1668543,13.6259855 4.19110977,13.6259855 C2.35441417,13.6259855 1.49346311,12.8166915 1.49346311,10.8445396 L1.49231517,10.8445396 Z M22.0346075,4.90512518 C22.8083155,4.90512518 23.2261638,5.04287735 23.2261638,7.77725792 L20.6433106,7.92878531 C20.6777486,5.44924625 21.0519753,4.90512518 22.0346075,4.90512518 L22.0346075,4.90512518 Z M20.6685651,9.04113408 L26.2222735,9.04113408 C26.2222735,5.13126832 24.8791898,3.88461119 22.0862646,3.88461119 C19.3117063,3.88461119 17.4910818,5.67079766 17.4910818,8.7380793 C17.4910818,11.9063792 19.1418119,13.6592756 22.342254,13.6592756 C24.0618603,13.6592756 25.4508613,12.8901593 25.8824848,12.3047126 L25.8824848,11.3978441 C25.2361975,11.592993 24.5715433,11.7192658 23.379987,11.7192658 C21.6982626,11.7192658 20.8315719,10.8468354 20.6685651,9.03309853 L20.6685651,9.04113408 Z M6.98288707,12.5813648 L7.97011096,12.1267827 L7.97011096,1.99051885 L6.93123001,1.50838626 L6.93123001,0.66235835 L10.7722197,0.0424735857 L11.0328009,0.0424735857 L11.0328009,5.1140493 L11.136115,5.1140493 C11.9741074,4.35641237 13.0990834,3.88346325 14.3503323,3.88346325 C15.9230029,3.88346325 16.7035985,4.66635475 16.7035985,6.37448166 L16.7035985,12.1256347 L17.7023018,12.5813648 L17.7023018,13.4388721 L12.6169508,13.4388721 L12.6169508,12.5813648 L13.615654,12.1256347 L13.615654,7.07127805 C13.615654,6.12537982 13.2023975,5.77181591 12.3644052,5.77181591 C11.9052313,5.77181591 11.4690161,5.85561515 11.0901976,6.00829047 L11.0901976,12.1267827 L12.0889008,12.5836607 L12.0889008,13.441168 L6.99092262,13.441168 L6.99092262,12.5802169 L6.98288707,12.5813648 Z" id="Shape"></path>
            <path d="M74.3861717,4.49186867 L74.3861717,5.33904451 L75.4239047,5.82117711 L75.4239047,12.1348182 L74.4343849,12.5939921 L74.4343849,13.4549432 L79.5117003,13.4549432 L79.5117003,12.6054715 L78.5221806,12.1462976 L78.5221806,3.88116738 L78.2615994,3.88116738 L74.3861717,4.49990421 L74.3861717,4.49186867 Z M84.9127333,11.6377625 L84.9127333,9.12034157 L84.1918303,9.18921766 C83.4743711,9.25809374 82.8866285,9.73448666 82.8866285,10.626432 C82.8866285,11.6538336 83.4514124,11.9924743 84.0460426,11.9924743 C84.390423,11.9924743 84.7405431,11.82258 84.9115854,11.6366145 L84.9127333,11.6377625 Z M82.7270656,5.13586006 L82.0727428,7.03684001 L80.4702258,7.03684001 L80.4702258,4.59173899 C81.3357686,4.32312226 82.3907207,3.88461119 84.0242318,3.88461119 C86.5095106,3.88461119 88.0029737,4.61928943 88.0029737,6.70853067 L88.0029737,12.1267827 L88.9901975,12.5859566 L88.9901975,13.2884926 C88.6871428,13.4514994 88.0006778,13.6592756 87.2510764,13.6592756 C86.2810715,13.6592756 85.410937,13.3493332 85.2674452,12.3391506 L85.1756104,12.3391506 C84.7623539,13.1656636 83.6603365,13.6707549 82.5009224,13.6707549 C80.8478964,13.6707549 79.8032758,12.6031756 79.8032758,11.0534637 C79.8032758,9.14789201 81.0545246,8.83794963 83.0978485,8.41321377 L84.8771473,8.10327139 L84.8771473,6.88760849 C84.8771473,5.69146048 84.5098082,5.09683028 83.3274354,5.09683028 C83.1667246,5.09683028 82.8797409,5.11749311 82.6960713,5.13586006 L82.7270656,5.13586006 Z M89.2427432,12.5825128 L90.2299671,12.1348182 L90.2299671,5.82117711 L89.1910861,5.33904451 L89.1910861,4.50105215 L93.0332237,3.89264673 L93.2938049,3.89264673 L93.2938049,5.13241626 L93.397119,5.13241626 C94.2351114,4.37477933 95.3600875,3.90412608 96.6113363,3.90412608 C98.1840069,3.90412608 98.9646026,4.68472171 98.9646026,6.39514448 L98.9646026,12.1462976 L99.9633058,12.6054715 L99.9633058,13.4664225 L94.8779549,13.4664225 L94.8779549,12.6169508 L95.8766581,12.1669604 L95.8766581,7.07127805 C95.8766581,6.12537982 95.4634016,5.77181591 94.6254092,5.77181591 C94.1662353,5.77181591 93.7300201,5.85561515 93.3512017,6.00829047 L93.3512017,12.1267827 L94.3384255,12.5836607 L94.3384255,13.441168 L89.264554,13.441168 L89.264554,12.5802169 L89.2427432,12.5825128 Z M70.0722329,1.9985544 L69.0367958,1.52790115 L69.0367958,0.678429436 L72.9099276,0.0585446722 L73.1705088,0.0585446722 L73.1705088,11.8478345 L74.1577327,12.3873639 L74.1577327,13.1909182 L70.4843415,13.615654 L70.2317958,13.615654 L70.2317958,12.6513889 L70.1284817,12.6513889 C69.7381839,13.1450008 68.9461089,13.6615714 67.7866948,13.6615714 C66.0877514,13.6615714 64.0559069,12.5825128 64.0559069,9.01243571 C64.0559069,5.25868908 66.1336688,3.90412608 68.6017285,3.90412608 C69.1182991,3.90412608 69.7267045,4.01891955 70.105523,4.29442389 L70.105523,1.9985544 L70.0722329,1.9985544 Z M70.0722329,11.8019171 L70.0722329,5.49860744 C69.8311666,5.31493788 69.578621,5.16226256 69.0161329,5.16226256 C68.047276,5.16226256 67.3057102,6.03469297 67.3057102,8.66346354 C67.3057102,10.9662206 67.8911569,11.9695156 69.1171512,11.9695156 C69.5935441,11.9695156 69.8610129,11.8730891 70.069937,11.7881419 L70.0722329,11.8019171 Z M31.6462651,16.5428877 C29.9542093,16.5428877 29.3733543,15.9459616 29.3733543,15.3031181 C29.3733543,14.8554236 29.4927396,14.5454812 29.73151,14.2584975 L33.0065678,14.2584975 C33.7722403,14.2584975 34.1200645,14.4880845 34.1200645,14.9702171 C34.1223604,15.9344822 33.5862749,16.5428877 31.6462651,16.5428877 L31.6462651,16.5428877 Z M31.6726676,4.97170539 C32.3499491,4.97170539 32.7861643,5.27016843 32.7861643,7.12982272 C32.7861643,8.98947701 32.3488012,9.18347799 31.682999,9.18347799 C31.0171969,9.18347799 30.5878693,9.02850679 30.5878693,7.13211859 C30.5878693,5.23802626 31.0126052,4.97400126 31.6875908,4.97400126 L31.6726676,4.97170539 Z M33.7274708,11.434578 L30.3984601,11.434578 C30.0426003,11.434578 29.7441373,11.1590737 29.7441373,10.837652 C29.7441373,10.5851063 29.9278068,10.3210813 30.1573938,10.1488911 C30.6624851,10.2981226 31.0757416,10.34404 31.6956263,10.34404 C34.09481,10.34404 35.7363566,9.25350201 35.7363566,7.2216575 C35.7363566,6.31478905 35.3575382,5.79821841 34.7606121,5.27016843 L34.7606121,5.20129234 L36.2988447,5.74082168 L36.5054729,5.75230102 L36.5054729,3.88001945 L36.3332827,3.88001945 L33.9650933,4.3506727 L33.8330808,4.3506727 C33.2430424,4.13256509 32.4211211,3.90297814 31.6749635,3.90297814 C29.2757799,3.90297814 27.6158662,5.09338648 27.6158662,7.11489957 C27.6158662,8.34663355 28.235751,9.26383342 29.1621343,9.77122058 L29.1621343,9.86879503 C28.6271968,10.2453176 27.6009431,11.0190256 27.6009431,12.0096933 C27.6009431,12.7328922 28.0784839,13.4480556 29.0771872,13.6627194 L29.0771872,13.7625897 C28.0268269,13.9806973 26.8501938,14.3250777 26.8501938,15.5304092 C26.8501938,16.7701787 28.6467116,17.6885265 31.5750932,17.6885265 C35.2140463,17.6885265 36.7890128,16.2880461 36.7890128,14.0725321 C36.7890128,12.2473158 35.7788302,11.3978441 33.724027,11.3978441 L33.7274708,11.434578 Z M57.0420256,4.50105215 L57.0420256,5.35052386 L58.0866462,5.83265646 L58.0866462,12.1462976 L57.0994223,12.6054715 L57.0994223,13.4664225 L62.4476503,13.4664225 L62.4476503,12.6169508 L61.1734427,12.1577769 L61.1734427,6.95648457 C61.7014927,6.70393893 62.3959932,6.61899176 63.2282459,6.61899176 C63.5014544,6.61899176 63.825172,6.6534298 64.0122854,6.70279099 L64.0122854,3.98333358 C63.9089712,3.94889553 63.7057868,3.93282445 63.5531115,3.93282445 C62.5314495,3.93282445 61.696901,4.59059106 61.151632,5.83839613 L61.0597972,5.83839613 L61.0597972,3.87313184 L60.7957722,3.87313184 L57.0420256,4.49072073 L57.0420256,4.50105215 Z M52.7717083,11.6526856 L52.7717083,9.12722918 L52.0599888,9.19610527 C51.3482692,9.26498135 50.7628225,9.74711395 50.7628225,10.6425031 C50.7628225,11.6756443 51.3253105,12.0085454 51.9222366,12.0085454 C52.266617,12.0085454 52.6178851,11.8363552 52.7877794,11.6526856 L52.7717083,11.6526856 Z M50.5791529,5.14389561 L49.9248301,7.04946729 L48.3177215,7.04946729 L48.3177215,4.59173899 C49.1901519,4.32312226 50.2462519,3.88461119 51.8763192,3.88461119 C54.3673376,3.88461119 55.8596528,4.61928943 55.8596528,6.70853067 L55.8596528,12.1267827 L56.8468767,12.5859566 L56.8468767,13.2884926 C56.5484136,13.4514994 55.8596528,13.6592756 55.1134952,13.6592756 C54.14923,13.6592756 53.2767996,13.3493332 53.1390474,12.3391506 L53.0472126,12.3391506 C52.6339561,13.1656636 51.5319388,13.6707549 50.3794123,13.6707549 C48.7298301,13.6707549 47.693245,12.6031756 47.693245,11.0534637 C47.693245,9.14789201 48.9525294,8.83794963 50.9947053,8.41321377 L52.7831877,8.10327139 L52.7831877,6.88760849 C52.7831877,5.69146048 52.4227361,5.09683028 51.2334757,5.09683028 C51.0785046,5.09683028 50.7857812,5.11749311 50.5998158,5.13586006 L50.5791529,5.14389561 Z M37.7911598,5.82117711 L36.7580186,5.33904451 L36.7580186,4.50105215 L40.638038,3.89264673 L40.902063,3.89264673 L40.902063,10.4462062 C40.902063,11.5080459 41.4220775,11.6974551 42.204969,11.6974551 C42.7789363,11.6974551 43.0085233,11.594141 43.3184657,11.4759037 L43.3184657,5.82002917 L42.273845,5.33789658 L42.273845,4.49186867 L46.1423851,3.87427978 L46.3949308,3.87427978 L46.3949308,11.8409469 L47.4280721,12.3804763 L47.4280721,13.1886223 L43.6628461,13.6018788 L43.3919335,13.6018788 L43.3884897,12.3621093 L43.2851755,12.3621093 C42.6905454,13.0967875 41.7090611,13.6363169 40.4497767,13.6363169 C38.5786431,13.6363169 37.7785326,12.3047126 37.7785326,10.6861246 L37.7785326,5.82002917 L37.7911598,5.82117711 Z M76.9116281,0.0344380424 C77.8299759,0.0344380424 78.5703938,0.777151825 78.5703938,1.69435169 C78.5703938,2.61040362 77.8276801,3.35426533 76.9104802,3.35426533 C75.9921324,3.35426533 75.2459748,2.6195871 75.2459748,1.7012393 C75.2459748,0.782891498 75.9921324,0.0482132594 76.9104802,0.0482132594 L76.9116281,0.0344380424 Z M99.4685459,12.9326329 L101.447585,12.9372246 L99.4685459,12.9326329 Z" id="Shape"></path>
        </g>
    </g>
</svg>