<?xml version="1.0" encoding="UTF-8" standalone="no"?>
<svg width="554px" height="257px" viewBox="0 0 554 257" version="1.1" xmlns="http://www.w3.org/2000/svg" xmlns:xlink="http://www.w3.org/1999/xlink">
    <!-- Generator: Sketch 41.2 (35397) - http://www.bohemiancoding.com/sketch -->
    <title>Group</title>
    <desc>Created with Sketch.</desc>
    <defs></defs>
    <g id="Page-1" stroke="none" stroke-width="1" fill="none" fill-rule="evenodd">
        <g id="1" transform="translate(-448.000000, -383.000000)">
            <g id="Group" transform="translate(448.000000, 383.000000)">
                <polygon id="Rectangle-7" fill="#FF4200" points="0 0 216 0 216 208.936035 108 257 0 209.009583"></polygon>
                <path d="M89.6396009,48 L89.6287554,48 L89.6287554,130.098175 L83.8347639,135.909604 L65.8090129,135.909604 L60.0150215,130.098175 L60.0150215,48 L37,48 L37,143.565714 L54.3819742,161 L87.4056704,161 L112,115.287585 L112,90.9359557 L89.6396009,48 Z M112,115.320618 L118,104.256503 L112,90.8991699 L112,115.320618 Z M178.999514,48 L157.339012,48 L138.331507,82.5457143 L121.48445,48 L96.7754335,48 L125.01431,104.338571 L94.5291593,161 L119.189661,161 L138.122544,122.418571 L157.215875,161 L179.08534,161 L149,103.805474 L178.999514,48 Z" id="Combined-Shape" fill="#FFFFFF"></path>
                <path d="M298.468395,48.0455076 L260.095979,48.0455076 L239.9424,68.1990872 L239.9424,139.945831 C246.875231,147.039891 253.969291,153.972722 260.902123,160.905553 L297.662252,160.905553 L315.881088,142.686717 L315.881088,120.083992 L292.825393,120.083992 L292.825393,130.690542 C291.051878,132.464057 289.278363,134.076343 287.666076,135.849858 L269.286012,135.849858 L263.159324,129.561942 L263.159324,79.2278909 L268.963555,73.2624313 L287.988534,73.2624313 L292.825393,78.0992904 L292.825393,89 L315.881088,89 L315.881088,65.619429 L298.468395,48.0455076 Z M347.24119,48.0455076 L324.024267,48.0455076 L324.024267,160.905553 L387.803638,160.905553 L387.803638,135.849858 L347.24119,135.849858 L347.24119,48.0455076 Z M471.14653,48.0455076 L448.73575,48.0455076 L448.73575,130.045627 L442.931519,135.849858 L424.873912,135.849858 L419.069681,130.045627 L419.069681,48.0455076 L396.013986,48.0455076 L396.013986,143.492861 L413.426678,160.905553 L453.733838,160.905553 L471.14653,143.492861 L471.14653,48.0455076 Z M553.350649,65.619422 L535.655844,48.0455076 L479,48.0455076 L479,160.905508 L535.493506,160.905508 L554,142.68668 L554,111.730794 L543.935065,101.895851 L553.350649,92.5445936 L553.350649,65.619422 Z M525.010255,120 L529.846461,125.011803 L529.846461,130.654076 L524.687841,136 L501.796462,136 L501.796462,120 L525.010255,120 Z M524.689834,73 L529.526462,77.7625772 L529.526462,84.2374228 L524.689834,89 L501.796462,89 L501.796462,73 L524.689834,73 Z" id="CLUB" fill="#FF4200"></path>
                <path d="M476,204 L471,204 L471,209 L476,209 L476,204 Z M496.263571,176 L485.137857,176 L479.433571,181.704286 L479.433571,203.06 C480.470714,204.097143 484.383571,208.01 485.420714,209 L495.980714,209 L501.119286,203.908571 L501.119286,196.554286 L495.697857,196.554286 L495.697857,201.598571 C495.462143,201.881429 493.906429,203.342857 493.670714,203.625714 L487.353571,203.625714 L484.902143,201.127143 L484.902143,183.825714 L487.212143,181.468571 L493.812143,181.468571 L495.697857,183.354286 L495.697857,187.738571 L501.119286,187.738571 L501.119286,180.902857 L496.263571,176 Z M526.244643,181.327143 L520.964643,176 L509.461786,176 L504.181786,181.327143 L504.181786,203.484286 L509.6975,209 L520.681786,209 L526.244643,203.484286 L526.244643,181.327143 Z M518.654643,181.421429 L520.823214,183.542857 L520.823214,201.315714 L518.560357,203.625714 L511.818929,203.625714 L509.603214,201.315714 L509.603214,183.542857 L511.724643,181.421429 L518.654643,181.421429 Z M554,176 L547.918571,176 L541.601429,188.115714 L535.284286,176 L528.731429,176 L528.731429,209 L533.87,209 L533.87,183.495714 L540.14,195.187143 L542.544286,195.187143 L548.814286,183.495714 L548.814286,209 L554,209 L554,176 Z" id=".com" fill="#FF4200"></path>
            </g>
        </g>
    </g>
</svg>