<svg xmlns="http://www.w3.org/2000/svg" width="45" height="25" viewBox="0 0 45 25">
  <g fill="none" fill-rule="evenodd">

    <rect class="h-col h-col--1" width="3" height="2" x="1" y="19" fill="#D8D8D8"/>
    <rect class="h-col h-col--2" width="3" height="3" x="5" y="18" fill="#D8D8D8"/>
    <rect class="h-col h-col--3" width="3" height="6" x="9" y="15" fill="#D8D8D8"/>
    <rect class="h-col h-col--4" width="3" height="11" x="13" y="10" fill="#D8D8D8"/>
    <rect class="h-col h-col--5" width="3" height="16" x="17" y="5" fill="#D8D8D8"/>
    <rect class="h-col h-col--6" width="3" height="19" x="21" y="2" fill="#D8D8D8"/>
    <rect class="h-col h-col--7" width="3" height="16" x="25" y="5" fill="#D8D8D8"/>
    <rect class="h-col h-col--8" width="3" height="11" x="29" y="10" fill="#D8D8D8"/>
    <rect class="h-col h-col--9" width="3" height="6" x="33" y="15" fill="#D8D8D8"/>
    <rect class="h-col h-col--10" width="3" height="3" x="37" y="18" fill="#D8D8D8"/>
    <rect class="h-col h-col--11" width="3" height="2" x="41" y="19" fill="#D8D8D8"/>

    <rect class="h-ul h-ul--1" width="5" height="2" y="23" fill="#FFF"/>
    <rect class="h-ul h-ul--2" width="5" height="2" x="4" y="23" fill="#FFF"/>
    <rect class="h-ul h-ul--3" width="5" height="2" x="8" y="23" fill="#FFF"/>
    <rect class="h-ul h-ul--4" width="5" height="2" x="12" y="23" fill="#FFF"/>
    <rect class="h-ul h-ul--5" width="5" height="2" x="16" y="23" fill="#FFF"/>
    <rect class="h-ul h-ul--6" width="5" height="2" x="20" y="23" fill="#FFF"/>
    <rect class="h-ul h-ul--7" width="5" height="2" x="24" y="23" fill="#FFF"/>
    <rect class="h-ul h-ul--8" width="5" height="2" x="28" y="23" fill="#FFF"/>
    <rect class="h-ul h-ul--9" width="5" height="2" x="32" y="23" fill="#FFF"/>
    <rect class="h-ul h-ul--10" width="5" height="2" x="36" y="23" fill="#FFF"/>
    <rect class="h-ul h-ul--11" width="5" height="2" x="40" y="23" fill="#FFF"/>
  </g>
</svg>
