<?xml version="1.0" encoding="utf-8"?>
<!-- Generator: Adobe Illustrator 16.0.0, SVG Export Plug-In . SVG Version: 6.00 Build 0)  -->
<!DOCTYPE svg PUBLIC "-//W3C//DTD SVG 1.1//EN" "http://www.w3.org/Graphics/SVG/1.1/DTD/svg11.dtd">
<svg version="1.1" id="Layer_1" xmlns:xml="http://www.w3.org/XML/1998/namespace"
	 xmlns="http://www.w3.org/2000/svg" xmlns:xlink="http://www.w3.org/1999/xlink" x="0px" y="0px" width="278.75px" height="56px"
	 viewBox="0 0 278.75 56" enable-background="new 0 0 278.75 56" xml:space="preserve">
<SCRIPT></SCRIPT>
<path fill="#C9003A" d="M72.188,43.564h17.798c2.078,0,3.838-0.105,5.649-0.691c3.89-1.333,6.927-5.062,6.927-10.02
	c0-4.262-2.185-7.938-6.233-9.111v-0.106c2.931-1.492,4.741-4.423,4.741-8.1c0-4.05-2.185-7.141-5.168-8.473
	c-1.865-0.853-3.891-1.119-6.607-1.119H72.188v4.104h4.689v29.361h-4.689V43.564z M82.207,21.771V10.313h7.087
	c1.599,0,2.824,0.213,3.89,0.747c1.6,0.906,2.452,2.771,2.452,4.955c0,3.411-2.131,5.755-5.542,5.755L82.207,21.771L82.207,21.771z
	 M82.207,39.195V26.14h8.419c3.942,0,6.501,2.558,6.501,6.445c0,2.825-1.385,5.171-3.57,6.077c-1.013,0.427-2.292,0.531-3.356,0.531
	h-7.993V39.195z"/>
<path fill="#C9003A" d="M104.732,43.564h13.215v-3.996h-3.996v-7.143c0-5.273,2.451-11.082,8.207-11.082
	c0.853,0,1.491,0.16,1.491,0.16v-5.116c0,0-0.64-0.107-1.333-0.107c-4.155,0-7.3,3.091-8.525,7.034h-0.106
	c0,0,0.106-0.799,0.106-1.865v-1.706c0-2.185-1.119-3.144-3.463-3.144h-6.075v3.997h3.356c0.746,0,1.172,0.373,1.172,1.172v17.797
	h-4.05L104.732,43.564L104.732,43.564z"/>
<path fill="#C9003A" d="M130.095,11.22h5.435V5.944h-5.435V11.22z M125.991,43.564h13.643v-3.996h-4.264V16.602h-9.646v3.997h4.477
	V39.57h-4.21V43.564z"/>
<path fill="#C9003A" d="M144.012,48.573l-1.706,3.944c2.664,1.332,5.968,2.237,9.219,2.237c6.821,0,13.588-3.411,13.588-12.31
	V21.664c0-0.693,0.479-1.066,1.174-1.066h2.983v-3.997h-5.755c-2.238,0-3.09,1.013-3.09,2.718c0,0.693,0.105,1.066,0.105,1.066
	h-0.105c-1.492-3.091-5.222-4.423-8.74-4.423c-7.513,0-11.83,5.755-11.83,13.481c0,7.779,4.583,13.801,12.043,13.801
	c3.943,0,6.501-1.705,8.101-4.369h0.105c0,0-0.16,0.852-0.16,1.705v2.131c0,5.543-3.837,7.674-8.525,7.674
	C147.368,50.385,144.012,48.573,144.012,48.573z M152.911,38.77c-4.851,0-7.78-3.838-7.78-9.432c0-5.489,2.665-8.9,7.3-8.9
	c4.21,0,7.621,2.025,7.621,9.059C160.051,36.53,156.641,38.77,152.911,38.77z"/>
<path fill="#C9003A" d="M168.616,43.564h13.64v-3.996h-4.262v-8.633c0-5.754,3.729-10.23,9.005-10.23
	c4.315,0,5.113,2.984,5.113,6.768v16.093h9.38V39.57h-4.209V26.3c0-6.874-2.932-10.338-9.272-10.338
	c-5.381,0-8.897,3.57-10.07,6.181h-0.104c0,0,0.159-0.959,0.159-2.238V5.944h-9.646V9.94h4.529v29.628h-4.263V43.564L168.616,43.564
	z"/>
<path fill="#C9003A" d="M204.088,33.706c0,9.006,6.874,10.071,10.285,10.071c1.119,0,1.864-0.105,1.864-0.105v-4.314
	c0,0-0.479,0.053-1.227,0.053c-2.025,0-5.755-0.693-5.755-6.184V20.598h6.448v-3.997h-6.448V9.195h-5.062v7.407h-4.637v3.997h4.53
	L204.088,33.706L204.088,33.706z"/>
<path fill="#C9003A" d="M215.858,30.03c0,8.206,6.5,14.173,14.547,14.173c8.048,0,14.549-5.969,14.549-14.173
	c0-8.153-6.501-14.068-14.549-14.068C222.358,15.962,215.858,21.877,215.858,30.03z M221.133,30.03c0-5.595,4.157-9.592,9.271-9.592
	c5.062,0,9.272,3.997,9.272,9.592c0,5.646-4.21,9.696-9.272,9.696C225.291,39.727,221.133,35.677,221.133,30.03z"/>
<path fill="#C9003A" d="M245.87,43.564h13.643v-3.996h-4.264v-8.525c0-5.382,3.569-10.338,9.007-10.338
	c4.314,0,5.062,2.984,5.062,6.768v16.093h9.433V39.57h-4.265V26.3c0-6.874-2.771-10.338-8.951-10.338
	c-6.821,0-9.966,5.115-10.498,6.554h-0.106c0,0,0.16-0.692,0.16-1.545v-1.385c0-1.972-1.066-2.984-3.411-2.984h-6.075v3.997h3.305
	c0.745,0,1.174,0.373,1.174,1.172v17.797h-4.211L245.87,43.564L245.87,43.564z"/>
<path fill="#108BC1" d="M3.769,30.713c0,3.531,0.848,6.641,2.826,8.9c2.449,2.826,6.641,4.521,11.445,4.521
	c4.427,0,8.901-1.46,11.492-4.662c1.742-2.166,2.778-5.418,2.778-8.761V16.018h3.769V9.895H19.779v6.123h3.164v14.695
	c0,1.553-0.236,2.777-0.751,3.768c-0.87,1.602-2.293,2.354-4.112,2.354c-1.938,0-3.48-0.896-4.231-2.403
	c-0.436-0.895-0.712-2.214-0.712-3.719V16.018H16.3V9.895H0v6.123h3.769V30.713z"/>
<path fill="#108BC1" d="M35.055,43.57h15.856v-6.122h-2.92l3.155-4.429c0.613-0.896,0.942-1.602,1.036-1.602h0.095
	c0,0,0.424,0.753,1.083,1.602l3.393,4.429h-3.016v6.122H70.37v-6.122H66.82l-8.102-10.502l8.243-10.927h3.502V9.895H54.585v6.123
	h2.826l-3.109,4.239c-0.66,0.895-1.036,1.602-1.036,1.554h-0.094c0,0-0.424-0.707-1.083-1.554l-3.203-4.239h2.92V9.895H35.991v6.123
	h2.825L46.73,26.38l-8.29,11.067h-3.385V43.57z"/>
</svg>
