<svg width="88" height="88" viewBox="0 0 88 88" fill="none" xmlns="http://www.w3.org/2000/svg">
<path d="M0 0H88V88H0V0Z" fill="white"/>
<path fill-rule="evenodd" clip-rule="evenodd" d="M0 88V0H88V88H0ZM21.757 56.0815H16.9718V69.7397C16.9718 70.633 16.7895 71.3302 16.4249 71.8315C16.0695 72.3237 15.559 72.5698 14.8937 72.5698C14.1554 72.5698 13.6267 72.3647 13.3077 71.9546C12.9978 71.5444 12.8429 70.8836 12.8429 69.9722H8.03039C8.03039 71.9774 8.63195 73.5269 9.83508 74.6206C11.0382 75.7144 12.7244 76.2612 14.8937 76.2612C16.1879 76.2612 17.3592 75.9878 18.4073 75.4409C19.4646 74.894 20.2849 74.1239 20.8683 73.1304C21.4607 72.1369 21.757 71.0067 21.757 69.7397V56.0815ZM41.1295 71.5991C41.8495 70.1043 42.2095 68.3862 42.2095 66.4448V65.5288C42.2004 63.6147 41.8267 61.9194 41.0884 60.4429C40.3593 58.9572 39.3339 57.8133 38.0123 57.0112C36.6907 56.2091 35.1867 55.8081 33.5005 55.8081C31.7961 55.8081 30.274 56.2137 28.9341 57.0249C27.6034 57.8361 26.578 58.9891 25.858 60.4839C25.147 61.9696 24.7916 63.6877 24.7916 65.6382V66.7593C24.828 68.6369 25.2108 70.3003 25.94 71.7495C26.6783 73.1987 27.7037 74.3153 29.0162 75.0991C30.3287 75.8739 31.8326 76.2612 33.5279 76.2612C35.2232 76.2612 36.7317 75.8602 38.0533 75.0581C39.384 74.2469 40.4094 73.0939 41.1295 71.5991ZM36.3306 61.1128C36.996 62.1336 37.3287 63.633 37.3287 65.6108V66.5269C37.3196 68.4591 36.9869 69.9403 36.3306 70.9702C35.6744 72.0002 34.7401 72.5151 33.5279 72.5151C32.2519 72.5151 31.2903 71.9911 30.6431 70.9429C29.996 69.8947 29.6724 68.3953 29.6724 66.4448L29.6861 64.9819C29.8228 61.3726 31.0943 59.5679 33.5005 59.5679C34.731 59.5679 35.6744 60.0828 36.3306 61.1128ZM45.2441 56.0815V75.9878H53.3242C55.7487 75.9696 57.5762 75.4728 58.8066 74.4976C60.0462 73.5132 60.666 72.0457 60.666 70.0952C60.666 69.0197 60.388 68.1082 59.832 67.3608C59.276 66.6134 58.4785 66.103 57.4395 65.8296C58.36 65.4832 59.0573 64.9455 59.5312 64.2163C60.0052 63.4871 60.2422 62.6076 60.2422 61.5776C60.2422 59.7912 59.5723 58.4285 58.2324 57.4897C56.9017 56.5509 54.9557 56.0815 52.3945 56.0815H45.2441ZM50.043 72.2964V67.5249H53.4062C55.056 67.534 55.8809 68.368 55.8809 70.0269C55.8809 70.7469 55.6484 71.3075 55.1836 71.7085C54.7188 72.1004 54.0534 72.2964 53.1875 72.2964H50.043ZM52.5449 64.3804H50.043V59.7866H52.3945C53.4701 59.7866 54.2493 59.9735 54.7324 60.3472C55.2155 60.7118 55.457 61.3133 55.457 62.1519C55.457 62.881 55.2337 63.4325 54.7871 63.8062C54.3405 64.1798 53.5931 64.3713 52.5449 64.3804ZM73.394 69.0562C73.8953 69.4481 74.1459 69.995 74.1459 70.6968C74.1459 71.3166 73.9135 71.7996 73.4487 72.146C72.9929 72.4832 72.3686 72.6519 71.5756 72.6519C70.336 72.6519 69.4383 72.4012 68.8823 71.8999C68.3354 71.3895 68.062 70.6011 68.062 69.5347H63.2495C63.2495 70.8472 63.5776 72.0093 64.2338 73.021C64.8992 74.0236 65.8836 74.8166 67.187 75.3999C68.4995 75.9741 69.9623 76.2612 71.5756 76.2612C73.8634 76.2612 75.6635 75.7645 76.976 74.771C78.2885 73.7775 78.9448 72.4103 78.9448 70.6694C78.9448 68.4911 77.8692 66.7821 75.7182 65.5425C74.8341 65.0321 73.7039 64.5581 72.3276 64.1206C70.9513 63.674 69.9897 63.2456 69.4428 62.8354C68.8959 62.4162 68.6225 61.9513 68.6225 61.4409C68.6225 60.8576 68.8686 60.3791 69.3608 60.0054C69.8621 59.6226 70.5411 59.4312 71.3979 59.4312C72.2455 59.4312 72.9155 59.6545 73.4077 60.1011C73.909 60.5477 74.1596 61.1766 74.1596 61.9878H78.9448C78.9448 60.7756 78.6303 59.7 78.0014 58.7612C77.3725 57.8133 76.4884 57.0841 75.3491 56.5737C74.2189 56.0633 72.9383 55.8081 71.5073 55.8081C70.0398 55.8081 68.7182 56.0451 67.5424 56.519C66.3666 56.9839 65.4552 57.6401 64.808 58.4878C64.17 59.3263 63.851 60.297 63.851 61.3999C63.851 63.6147 65.1407 65.3556 67.7202 66.6226C68.5131 67.0145 69.534 67.4201 70.7827 67.8394C72.0314 68.2586 72.9018 68.6642 73.394 69.0562ZM43.8427 45.9167H59.8518V39.7498H56.9036L60.0901 35.2906C60.3902 34.8532 60.623 34.4607 60.7939 34.1724L60.794 34.1723L60.794 34.1722C60.9754 33.8662 61.0872 33.6776 61.1361 33.6776H61.2315C61.2315 33.6776 61.6591 34.436 62.325 35.2906L65.7497 39.7498H62.7056V45.9167H79.4988V39.7498H75.914L67.7337 29.1731L76.0563 18.1679H79.5922V12H63.5608V18.1674H66.4141L63.2746 22.4367C62.8349 23.0319 62.52 23.5446 62.3568 23.8103L62.3568 23.8103C62.2729 23.947 62.2291 24.0183 62.2291 24.0018H62.1341C62.1341 24.0018 61.7061 23.2898 61.0407 22.4367L57.8073 18.1674H60.7555V12H45.0644H44.7877H28.3313V18.175H31.52V32.9935C31.52 34.559 31.2811 35.7943 30.7631 36.7926C29.8863 38.4076 28.4523 39.1669 26.6181 39.1669C24.665 39.1669 23.111 38.2639 22.3541 36.7432C21.9147 35.8412 21.6366 34.5116 21.6366 32.993V18.175H24.8247V12H8.39771V18.175H12.1961V32.993C12.1971 36.5537 13.0507 39.6893 15.0451 41.9683C17.5127 44.818 21.7373 46.5278 26.5793 46.5278C31.0408 46.5278 35.5506 45.0555 38.1608 41.8266C39.9169 39.6424 40.9615 36.3631 40.9615 32.9925V18.175H45.0644V18.1674H47.6405L55.6299 28.6036L47.2598 39.7503H43.8422V45.9167H43.8427Z" fill="#C9003A"/>
</svg>
