<svg xmlns="http://www.w3.org/2000/svg" xmlns:xlink="http://www.w3.org/1999/xlink" width="776" height="97" viewBox="0 0 776 97">
  <defs>
    <linearGradient id="work-with-us-b" x1="0%" x2="94.553%" y1="50.444%" y2="49.885%">
      <stop offset="0%" stop-color="#3023AE"/>
      <stop offset="47.525%" stop-color="#53A0FD"/>
      <stop offset="100%" stop-color="#B4EC51"/>
      <stop offset="100%" stop-color="#B4EC51"/>
    </linearGradient>
    <path id="work-with-us-a" d="M130.976,234 L101.28,144.4 L118.688,144.4 L137.248,200.336 L156.96,144.4 L169.12,144.4 L188.832,200.336 L207.392,144.4 L224.8,144.4 L195.104,234 L182.944,234 L162.976,177.296 L143.136,234 L130.976,234 Z M233.242,225.936 C226.927302,219.706636 223.77,212.069379 223.77,203.024 C223.77,193.978621 226.927302,186.320031 233.242,180.048 C239.556698,173.775969 247.407286,170.64 256.794,170.64 C266.180714,170.64 274.031302,173.775969 280.346,180.048 C286.660698,186.320031 289.818,193.978621 289.818,203.024 C289.818,212.069379 286.660698,219.706636 280.346,225.936 C274.031302,232.165364 266.180714,235.28 256.794,235.28 C247.407286,235.28 239.556698,232.165364 233.242,225.936 Z M245.018,190.992 C241.945985,194.234683 240.41,198.245309 240.41,203.024 C240.41,207.802691 241.945985,211.813317 245.018,215.056 C248.090015,218.298683 252.015309,219.92 256.794,219.92 C261.572691,219.92 265.497985,218.298683 268.57,215.056 C271.642015,211.813317 273.178,207.802691 273.178,203.024 C273.178,198.245309 271.642015,194.21335 268.57,190.928 C265.497985,187.64265 261.572691,186 256.794,186 C252.015309,186 248.090015,187.663983 245.018,190.992 Z M340.628,171.152 L338.708,186.64 C337.427994,186.213331 335.42268,186 332.692,186 C329.363983,186 326.313347,186.938657 323.54,188.816 C320.766653,190.693343 318.782673,192.741322 317.588,194.96 L317.588,234 L300.948,234 L300.948,171.92 L316.948,171.92 L316.948,178.192 C321.04402,173.157308 327.05996,170.64 334.996,170.64 C336.36134,170.64 338.238655,170.810665 340.628,171.152 Z M411.918,171.92 L381.582,199.824 L415.758,234 L393.358,234 L367.118,207.12 L367.118,234 L350.478,234 L350.478,143.12 L367.118,143.12 L367.118,192.016 L388.494,171.92 L411.918,171.92 Z M497.666,197.904 L482.05,234 L470.53,234 L444.418,171.92 L461.186,171.92 L476.29,208.144 L491.906,171.92 L503.426,171.92 L518.914,208.144 L534.146,171.92 L550.914,171.92 L524.802,234 L513.282,234 L497.666,197.904 Z M575.484,171.92 L575.484,234 L558.844,234 L558.844,171.92 L575.484,171.92 Z M559.484,157.456 C557.350656,155.40799 556.284,152.890682 556.284,149.904 C556.284,146.917318 557.350656,144.40001 559.484,142.352 C561.617344,140.30399 564.177318,139.28 567.164,139.28 C570.150681,139.28 572.710656,140.30399 574.844,142.352 C576.977344,144.40001 578.044,146.917318 578.044,149.904 C578.044,152.890682 576.977344,155.40799 574.844,157.456 C572.710656,159.50401 570.150681,160.528 567.164,160.528 C564.177318,160.528 561.617344,159.50401 559.484,157.456 Z M635.894,219.92 L638.454,234 C636.064654,234.853338 632.608689,235.28 628.086,235.28 C618.272617,235.28 611.104689,232.293363 606.582,226.32 C603.509984,222.22398 601.974,216.037375 601.974,207.76 L601.974,186 L584.694,186 L584.694,171.92 L601.974,171.92 L601.974,154.64 L618.614,154.64 L618.614,171.92 L639.094,171.92 L639.094,186 L618.614,186 L618.614,209.68 C618.614,213.264018 619.29666,215.866659 620.662,217.488 C622.454009,219.53601 625.26998,220.56 629.11,220.56 C631.755346,220.56 634.016657,220.346669 635.894,219.92 Z M666.224,193.68 L666.224,234 L649.584,234 L649.584,143.12 L666.224,143.12 L666.224,176.4 C671.173358,172.559981 676.805301,170.64 683.12,170.64 C691.909377,170.64 699.077305,173.967967 704.624,180.624 C708.890688,185.658692 711.024,192.911953 711.024,202.384 L711.024,234 L694.384,234 L694.384,201.104 C694.384,195.813307 693.146679,191.930679 690.672,189.456 C688.367988,187.151988 685.253353,186 681.328,186 C678.17065,186 675.205347,186.789325 672.432,188.368 C669.658652,189.946675 667.58934,191.717324 666.224,193.68 Z M799.844,171.92 L816.484,171.92 L816.484,234 L800.484,234 L800.484,229.008 C795.790643,233.189354 790.201365,235.28 783.716,235.28 C775.011956,235.28 767.972026,231.952033 762.596,225.296 C758.414645,220.175974 756.324,213.349376 756.324,204.816 L756.324,171.92 L772.964,171.92 L772.964,205.456 C772.964,210.234691 773.987989,213.775988 776.036,216.08 C778.340011,218.640013 781.454647,219.92 785.38,219.92 C791.012028,219.92 795.833313,217.360026 799.844,212.24 L799.844,171.92 Z M826.589999,226.96 L834.653999,215.056 C839.176689,219.15202 844.851299,221.2 851.677999,221.2 C853.896677,221.2 855.773992,220.709338 857.309999,219.728 C858.846007,218.746662 859.613999,217.488008 859.613999,215.952 C859.613999,214.245325 858.59001,212.794673 856.541999,211.6 C854.493989,210.405327 851.998014,209.338671 849.053999,208.4 C846.109985,207.461329 843.144681,206.37334 840.157999,205.136 C837.171318,203.89866 834.65401,201.97868 832.605999,199.376 C830.557989,196.77332 829.533999,193.637352 829.533999,189.968 C829.533999,184.250638 831.901976,179.600018 836.637999,176.016 C841.374023,172.431982 846.941967,170.64 853.341999,170.64 C857.182019,170.64 861.107313,171.25866 865.117999,172.496 C869.128686,173.73334 872.200655,175.205325 874.333999,176.912 L866.525999,188.944 C862.600647,186.127986 858.632686,184.72 854.621999,184.72 C852.232654,184.72 850.227341,185.167996 848.605999,186.064 C846.984658,186.960004 846.173999,188.175992 846.173999,189.712 C846.173999,191.162674 847.197989,192.399995 849.245999,193.424 C851.29401,194.448005 853.811318,195.429329 856.797999,196.368 C859.784681,197.306671 862.749985,198.437327 865.693999,199.76 C868.638014,201.082673 871.133989,203.130653 873.181999,205.904 C875.23001,208.677347 876.253999,212.069313 876.253999,216.08 C876.253999,221.797362 873.843357,226.426649 869.021999,229.968 C864.200642,233.509351 858.3767,235.28 851.549999,235.28 C842.419287,235.28 834.09937,232.506694 826.589999,226.96 Z"/>
  </defs>
  <g fill="none" transform="translate(-101 -139)">
    <use fill="#B4EC51" xlink:href="#work-with-us-a"/>
    <use fill="url(#work-with-us-b)" xlink:href="#work-with-us-a"/>
  </g>
</svg>
