<svg width="299" height="215" viewBox="0 0 299 215" version="1.1" xmlns="http://www.w3.org/2000/svg" xmlns:xlink="http://www.w3.org/1999/xlink">
<title>Gender split</title>
<desc>Created using Figma</desc>
<g id="Canvas" transform="translate(-6 106)">
<g id="Gender split">
<g id="Group">
<g id="Rectangle">
<use xlink:href="#path0_fill" transform="matrix(1 -2.67685e-24 2.66694e-24 1 6 -4.76624)" fill="#E4E4E4"/>
</g>
<g id="Rectangle">
<use xlink:href="#path1_fill" transform="matrix(1 -2.50675e-24 2.84791e-24 1 155.5 -105.753)" fill="#E4E4E4"/>
</g>
<g id="Line">
<use xlink:href="#path2_stroke" transform="matrix(1 -2.67685e-24 2.66694e-24 1 6 42.9221)" fill="#FF2E4F"/>
</g>
</g>
<g id="68%">
<use xlink:href="#path3_fill" transform="translate(155.5 -93)"/>
</g>
<g id="32%">
<use xlink:href="#path4_fill" transform="translate(6 2)"/>
</g>
<g id="Line 2">
<use xlink:href="#path5_stroke" transform="matrix(6.12323e-17 1 -1 6.12323e-17 155.5 -106)" fill="#FFFFFF"/>
</g>
<g id="Average: 15%">
<use xlink:href="#path6_fill" transform="translate(6 48)"/>
</g>
<g id="Female">
<use xlink:href="#path7_fill" transform="translate(6 85)"/>
</g>
<g id="Male">
<use xlink:href="#path8_fill" transform="translate(155.5 85)"/>
</g>
</g>
</g>
<defs>
<path id="path0_fill" d="M 0 0L 149.5 0L 149.5 89.7662L 0 89.7662L 0 0Z"/>
<path id="path1_fill" d="M 0 0L 149.5 0L 149.5 190.753L 0 190.753L 0 0Z"/>
<path id="path2_stroke" d="M 0 0L 149.5 0L 149.5 -1L 0 -1L 0 0Z"/>
<path id="path3_fill" d="M 65.125 1.08L 66.4 1.08C 66.32 0.2 66.02 -0.47 65.5 -0.93C 64.98 -1.4 64.28 -1.635 63.4 -1.635C 62.64 -1.635 62.01 -1.475 61.51 -1.155C 61.01 -0.835 60.61 -0.41 60.31 0.12C 60.01 0.65 59.795 1.26 59.665 1.95C 59.545 2.63 59.485 3.335 59.485 4.065C 59.485 4.625 59.525 5.205 59.605 5.805C 59.695 6.405 59.87 6.955 60.13 7.455C 60.39 7.955 60.76 8.365 61.24 8.685C 61.72 9.005 62.355 9.165 63.145 9.165C 63.815 9.165 64.375 9.055 64.825 8.835C 65.285 8.605 65.65 8.32 65.92 7.98C 66.2 7.63 66.4 7.245 66.52 6.825C 66.64 6.405 66.7 6 66.7 5.61C 66.7 5.12 66.625 4.665 66.475 4.245C 66.325 3.825 66.11 3.46 65.83 3.15C 65.56 2.84 65.22 2.6 64.81 2.43C 64.41 2.25 63.955 2.16 63.445 2.16C 62.865 2.16 62.35 2.27 61.9 2.49C 61.46 2.71 61.09 3.065 60.79 3.555L 60.76 3.525C 60.77 3.115 60.81 2.675 60.88 2.205C 60.95 1.735 61.075 1.3 61.255 0.9C 61.445 0.49 61.705 0.155 62.035 -0.105C 62.365 -0.375 62.8 -0.51 63.34 -0.51C 63.85 -0.51 64.26 -0.365 64.57 -0.075C 64.88 0.215 65.065 0.6 65.125 1.08ZM 63.205 3.285C 63.565 3.285 63.88 3.35 64.15 3.48C 64.42 3.61 64.645 3.785 64.825 4.005C 65.005 4.215 65.135 4.47 65.215 4.77C 65.305 5.06 65.35 5.37 65.35 5.7C 65.35 6.01 65.3 6.31 65.2 6.6C 65.11 6.88 64.975 7.13 64.795 7.35C 64.615 7.57 64.39 7.745 64.12 7.875C 63.86 7.995 63.555 8.055 63.205 8.055C 62.855 8.055 62.54 7.995 62.26 7.875C 61.99 7.745 61.76 7.575 61.57 7.365C 61.39 7.155 61.25 6.905 61.15 6.615C 61.05 6.325 61 6.015 61 5.685C 61 5.355 61.045 5.045 61.135 4.755C 61.235 4.455 61.38 4.2 61.57 3.99C 61.76 3.77 61.99 3.6 62.26 3.48C 62.53 3.35 62.845 3.285 63.205 3.285ZM 69.575 1.125C 69.575 0.855 69.625 0.62 69.725 0.42C 69.825 0.22 69.955 0.05 70.115 -0.09C 70.285 -0.23 70.485 -0.335 70.715 -0.405C 70.945 -0.475 71.185 -0.51 71.435 -0.51C 71.955 -0.51 72.38 -0.37 72.71 -0.09C 73.05 0.18 73.22 0.585 73.22 1.125C 73.22 1.665 73.055 2.085 72.725 2.385C 72.395 2.685 71.975 2.835 71.465 2.835C 71.205 2.835 70.96 2.8 70.73 2.73C 70.5 2.66 70.3 2.555 70.13 2.415C 69.96 2.275 69.825 2.1 69.725 1.89C 69.625 1.67 69.575 1.415 69.575 1.125ZM 68.225 1.08C 68.225 1.56 68.36 2.005 68.63 2.415C 68.9 2.815 69.26 3.105 69.71 3.285C 69.11 3.495 68.65 3.835 68.33 4.305C 68.01 4.765 67.85 5.31 67.85 5.94C 67.85 6.48 67.94 6.955 68.12 7.365C 68.31 7.765 68.565 8.1 68.885 8.37C 69.215 8.64 69.6 8.84 70.04 8.97C 70.48 9.1 70.955 9.165 71.465 9.165C 71.955 9.165 72.415 9.095 72.845 8.955C 73.275 8.815 73.645 8.61 73.955 8.34C 74.275 8.06 74.525 7.72 74.705 7.32C 74.895 6.92 74.99 6.46 74.99 5.94C 74.99 5.28 74.835 4.725 74.525 4.275C 74.215 3.815 73.74 3.485 73.1 3.285C 73.55 3.085 73.905 2.79 74.165 2.4C 74.435 2 74.57 1.56 74.57 1.08C 74.57 0.74 74.51 0.41 74.39 0.09C 74.27 -0.24 74.08 -0.53 73.82 -0.78C 73.57 -1.04 73.24 -1.245 72.83 -1.395C 72.42 -1.555 71.925 -1.635 71.345 -1.635C 70.935 -1.635 70.54 -1.575 70.16 -1.455C 69.79 -1.335 69.46 -1.16 69.17 -0.93C 68.88 -0.7 68.65 -0.415 68.48 -0.075C 68.31 0.255 68.225 0.64 68.225 1.08ZM 69.2 6C 69.2 5.69 69.255 5.41 69.365 5.16C 69.485 4.91 69.645 4.695 69.845 4.515C 70.055 4.335 70.295 4.2 70.565 4.11C 70.845 4.01 71.14 3.96 71.45 3.96C 71.75 3.96 72.03 4.015 72.29 4.125C 72.56 4.225 72.795 4.365 72.995 4.545C 73.195 4.725 73.35 4.94 73.46 5.19C 73.58 5.43 73.64 5.695 73.64 5.985C 73.64 6.285 73.585 6.56 73.475 6.81C 73.375 7.06 73.225 7.28 73.025 7.47C 72.835 7.65 72.605 7.795 72.335 7.905C 72.075 8.005 71.785 8.055 71.465 8.055C 70.805 8.055 70.26 7.875 69.83 7.515C 69.41 7.145 69.2 6.64 69.2 6ZM 78.165 1.275C 78.165 1.555 78.185 1.82 78.225 2.07C 78.265 2.31 78.33 2.52 78.42 2.7C 78.51 2.88 78.625 3.025 78.765 3.135C 78.915 3.235 79.095 3.285 79.305 3.285C 79.515 3.285 79.695 3.235 79.845 3.135C 79.995 3.025 80.115 2.88 80.205 2.7C 80.295 2.52 80.36 2.31 80.4 2.07C 80.45 1.82 80.475 1.555 80.475 1.275C 80.475 1.025 80.455 0.78 80.415 0.54C 80.385 0.3 80.325 0.085 80.235 -0.105C 80.145 -0.295 80.025 -0.445 79.875 -0.555C 79.725 -0.675 79.535 -0.735 79.305 -0.735C 79.075 -0.735 78.885 -0.675 78.735 -0.555C 78.585 -0.445 78.465 -0.295 78.375 -0.105C 78.295 0.085 78.24 0.3 78.21 0.54C 78.18 0.78 78.165 1.025 78.165 1.275ZM 79.32 4.26C 78.87 4.26 78.485 4.18 78.165 4.02C 77.845 3.86 77.585 3.645 77.385 3.375C 77.185 3.105 77.04 2.79 76.95 2.43C 76.86 2.07 76.815 1.685 76.815 1.275C 76.815 0.875 76.86 0.495 76.95 0.135C 77.05 -0.235 77.2 -0.555 77.4 -0.825C 77.61 -1.095 77.87 -1.31 78.18 -1.47C 78.5 -1.63 78.88 -1.71 79.32 -1.71C 79.76 -1.71 80.135 -1.63 80.445 -1.47C 80.765 -1.31 81.025 -1.095 81.225 -0.825C 81.435 -0.555 81.585 -0.235 81.675 0.135C 81.775 0.495 81.825 0.875 81.825 1.275C 81.825 1.685 81.78 2.07 81.69 2.43C 81.6 2.79 81.455 3.105 81.255 3.375C 81.055 3.645 80.795 3.86 80.475 4.02C 80.155 4.18 79.77 4.26 79.32 4.26ZM 85.695 6.225C 85.695 6.505 85.715 6.77 85.755 7.02C 85.795 7.26 85.86 7.47 85.95 7.65C 86.04 7.83 86.155 7.975 86.295 8.085C 86.445 8.185 86.625 8.235 86.835 8.235C 87.045 8.235 87.225 8.185 87.375 8.085C 87.525 7.975 87.645 7.83 87.735 7.65C 87.825 7.47 87.89 7.26 87.93 7.02C 87.98 6.77 88.005 6.505 88.005 6.225C 88.005 5.975 87.985 5.73 87.945 5.49C 87.915 5.25 87.855 5.035 87.765 4.845C 87.675 4.655 87.555 4.505 87.405 4.395C 87.255 4.275 87.065 4.215 86.835 4.215C 86.605 4.215 86.415 4.275 86.265 4.395C 86.115 4.505 85.995 4.655 85.905 4.845C 85.825 5.035 85.77 5.25 85.74 5.49C 85.71 5.73 85.695 5.975 85.695 6.225ZM 86.85 9.21C 86.4 9.21 86.015 9.13 85.695 8.97C 85.375 8.81 85.115 8.595 84.915 8.325C 84.715 8.055 84.57 7.74 84.48 7.38C 84.39 7.02 84.345 6.635 84.345 6.225C 84.345 5.825 84.39 5.445 84.48 5.085C 84.58 4.715 84.73 4.395 84.93 4.125C 85.14 3.855 85.4 3.64 85.71 3.48C 86.03 3.32 86.41 3.24 86.85 3.24C 87.29 3.24 87.665 3.32 87.975 3.48C 88.295 3.64 88.555 3.855 88.755 4.125C 88.965 4.395 89.115 4.715 89.205 5.085C 89.305 5.445 89.355 5.825 89.355 6.225C 89.355 6.635 89.31 7.02 89.22 7.38C 89.13 7.74 88.985 8.055 88.785 8.325C 88.585 8.595 88.325 8.81 88.005 8.97C 87.685 9.13 87.3 9.21 86.85 9.21ZM 85.32 -1.86L 86.46 -1.86L 80.655 9.36L 79.485 9.36L 85.32 -1.86Z"/>
<path id="path4_fill" d="M 62.185 7.925L 62.185 9.005C 62.425 8.975 62.68 8.96 62.95 8.96C 63.27 8.96 63.565 9.005 63.835 9.095C 64.115 9.175 64.355 9.305 64.555 9.485C 64.755 9.655 64.915 9.87 65.035 10.13C 65.155 10.38 65.215 10.67 65.215 11C 65.215 11.32 65.15 11.61 65.02 11.87C 64.9 12.12 64.735 12.335 64.525 12.515C 64.315 12.685 64.07 12.82 63.79 12.92C 63.51 13.01 63.215 13.055 62.905 13.055C 62.175 13.055 61.62 12.84 61.24 12.41C 60.86 11.97 60.66 11.405 60.64 10.715L 59.365 10.715C 59.355 11.265 59.43 11.755 59.59 12.185C 59.76 12.615 60 12.98 60.31 13.28C 60.62 13.57 60.995 13.79 61.435 13.94C 61.875 14.09 62.365 14.165 62.905 14.165C 63.405 14.165 63.875 14.1 64.315 13.97C 64.765 13.83 65.155 13.625 65.485 13.355C 65.815 13.085 66.075 12.75 66.265 12.35C 66.465 11.94 66.565 11.47 66.565 10.94C 66.565 10.3 66.405 9.745 66.085 9.275C 65.775 8.805 65.295 8.5 64.645 8.36L 64.645 8.33C 65.065 8.14 65.415 7.86 65.695 7.49C 65.975 7.12 66.115 6.695 66.115 6.215C 66.115 5.725 66.03 5.3 65.86 4.94C 65.7 4.58 65.475 4.285 65.185 4.055C 64.895 3.825 64.55 3.655 64.15 3.545C 63.76 3.425 63.335 3.365 62.875 3.365C 62.345 3.365 61.875 3.45 61.465 3.62C 61.065 3.79 60.73 4.025 60.46 4.325C 60.19 4.625 59.98 4.985 59.83 5.405C 59.69 5.825 59.61 6.29 59.59 6.8L 60.865 6.8C 60.865 6.49 60.905 6.195 60.985 5.915C 61.065 5.635 61.185 5.39 61.345 5.18C 61.515 4.97 61.725 4.805 61.975 4.685C 62.235 4.555 62.535 4.49 62.875 4.49C 63.415 4.49 63.865 4.635 64.225 4.925C 64.585 5.205 64.765 5.63 64.765 6.2C 64.765 6.48 64.71 6.73 64.6 6.95C 64.49 7.17 64.34 7.355 64.15 7.505C 63.97 7.645 63.755 7.755 63.505 7.835C 63.265 7.905 63.01 7.94 62.74 7.94L 62.47 7.94C 62.42 7.94 62.37 7.94 62.32 7.94C 62.28 7.94 62.235 7.935 62.185 7.925ZM 67.91 7.13L 69.185 7.13C 69.175 6.81 69.205 6.495 69.275 6.185C 69.355 5.865 69.48 5.58 69.65 5.33C 69.82 5.08 70.035 4.88 70.295 4.73C 70.565 4.57 70.885 4.49 71.255 4.49C 71.535 4.49 71.8 4.535 72.05 4.625C 72.3 4.715 72.515 4.845 72.695 5.015C 72.885 5.185 73.035 5.39 73.145 5.63C 73.255 5.86 73.31 6.12 73.31 6.41C 73.31 6.78 73.25 7.105 73.13 7.385C 73.02 7.665 72.85 7.925 72.62 8.165C 72.4 8.405 72.12 8.645 71.78 8.885C 71.44 9.115 71.045 9.37 70.595 9.65C 70.225 9.87 69.87 10.105 69.53 10.355C 69.19 10.605 68.885 10.895 68.615 11.225C 68.345 11.555 68.12 11.945 67.94 12.395C 67.77 12.835 67.66 13.37 67.61 14L 74.555 14L 74.555 12.875L 69.095 12.875C 69.155 12.545 69.28 12.255 69.47 12.005C 69.67 11.745 69.905 11.505 70.175 11.285C 70.455 11.065 70.76 10.86 71.09 10.67C 71.42 10.47 71.75 10.27 72.08 10.07C 72.41 9.86 72.73 9.64 73.04 9.41C 73.35 9.18 73.625 8.925 73.865 8.645C 74.105 8.355 74.295 8.03 74.435 7.67C 74.585 7.31 74.66 6.895 74.66 6.425C 74.66 5.925 74.57 5.485 74.39 5.105C 74.22 4.725 73.985 4.41 73.685 4.16C 73.385 3.9 73.03 3.705 72.62 3.575C 72.22 3.435 71.79 3.365 71.33 3.365C 70.77 3.365 70.27 3.46 69.83 3.65C 69.39 3.84 69.02 4.105 68.72 4.445C 68.43 4.775 68.215 5.17 68.075 5.63C 67.935 6.09 67.88 6.59 67.91 7.13ZM 78.09 6.38C 78.09 6.15 78.105 5.91 78.135 5.66C 78.165 5.4 78.225 5.165 78.315 4.955C 78.415 4.735 78.55 4.555 78.72 4.415C 78.89 4.265 79.115 4.19 79.395 4.19C 79.685 4.19 79.91 4.265 80.07 4.415C 80.24 4.555 80.37 4.735 80.46 4.955C 80.55 5.165 80.605 5.4 80.625 5.66C 80.655 5.91 80.67 6.145 80.67 6.365C 80.67 6.595 80.655 6.84 80.625 7.1C 80.595 7.36 80.53 7.6 80.43 7.82C 80.34 8.03 80.21 8.205 80.04 8.345C 79.87 8.485 79.64 8.555 79.35 8.555C 79.07 8.555 78.845 8.485 78.675 8.345C 78.515 8.195 78.39 8.015 78.3 7.805C 78.21 7.585 78.15 7.35 78.12 7.1C 78.1 6.84 78.09 6.6 78.09 6.38ZM 76.965 6.41C 76.965 6.82 77.005 7.205 77.085 7.565C 77.175 7.925 77.315 8.24 77.505 8.51C 77.695 8.78 77.945 8.995 78.255 9.155C 78.565 9.305 78.945 9.38 79.395 9.38C 79.835 9.38 80.205 9.295 80.505 9.125C 80.805 8.955 81.05 8.735 81.24 8.465C 81.44 8.185 81.58 7.865 81.66 7.505C 81.75 7.135 81.795 6.755 81.795 6.365C 81.795 5.955 81.755 5.57 81.675 5.21C 81.605 4.84 81.475 4.52 81.285 4.25C 81.105 3.98 80.86 3.765 80.55 3.605C 80.25 3.445 79.865 3.365 79.395 3.365C 78.935 3.365 78.55 3.45 78.24 3.62C 77.93 3.78 77.68 4 77.49 4.28C 77.3 4.56 77.165 4.885 77.085 5.255C 77.005 5.615 76.965 6 76.965 6.41ZM 85.5 11.18C 85.5 10.95 85.515 10.71 85.545 10.46C 85.575 10.2 85.635 9.965 85.725 9.755C 85.825 9.535 85.96 9.355 86.13 9.215C 86.3 9.065 86.525 8.99 86.805 8.99C 87.095 8.99 87.32 9.065 87.48 9.215C 87.65 9.355 87.78 9.535 87.87 9.755C 87.96 9.965 88.015 10.2 88.035 10.46C 88.065 10.71 88.08 10.945 88.08 11.165C 88.08 11.395 88.065 11.64 88.035 11.9C 88.005 12.16 87.94 12.4 87.84 12.62C 87.75 12.83 87.62 13.005 87.45 13.145C 87.28 13.285 87.05 13.355 86.76 13.355C 86.48 13.355 86.255 13.285 86.085 13.145C 85.925 12.995 85.8 12.815 85.71 12.605C 85.62 12.385 85.56 12.15 85.53 11.9C 85.51 11.64 85.5 11.4 85.5 11.18ZM 84.375 11.21C 84.375 11.62 84.415 12.005 84.495 12.365C 84.585 12.725 84.725 13.04 84.915 13.31C 85.105 13.57 85.355 13.78 85.665 13.94C 85.975 14.09 86.355 14.165 86.805 14.165C 87.245 14.165 87.615 14.085 87.915 13.925C 88.215 13.755 88.46 13.535 88.65 13.265C 88.85 12.985 88.99 12.665 89.07 12.305C 89.16 11.935 89.205 11.555 89.205 11.165C 89.205 10.755 89.165 10.37 89.085 10.01C 89.015 9.64 88.885 9.32 88.695 9.05C 88.515 8.78 88.27 8.565 87.96 8.405C 87.66 8.245 87.275 8.165 86.805 8.165C 86.345 8.165 85.96 8.25 85.65 8.42C 85.34 8.58 85.09 8.8 84.9 9.08C 84.71 9.36 84.575 9.685 84.495 10.055C 84.415 10.415 84.375 10.8 84.375 11.21ZM 86.475 3.17L 78.405 14.315L 79.695 14.315L 87.75 3.17L 86.475 3.17Z"/>
<path id="path5_stroke" d="M 0 0L 191 0L 191 -1L 0 -1L 0 0Z"/>
<path id="path6_fill" d="M 30.3846 9.575L 32.1996 4.58L 32.2296 4.58L 34.0146 9.575L 30.3846 9.575ZM 31.4496 3.29L 27.2796 14L 28.7346 14L 29.9346 10.775L 34.4646 10.775L 35.6346 14L 37.2096 14L 33.0246 3.29L 31.4496 3.29ZM 41.4194 14L 44.2544 6.245L 42.9194 6.245L 40.8044 12.71L 40.7744 12.71L 38.5994 6.245L 37.1744 6.245L 40.0544 14L 41.4194 14ZM 50.6775 9.38L 46.2225 9.38C 46.2425 9.08 46.3075 8.8 46.4175 8.54C 46.5275 8.27 46.6775 8.035 46.8675 7.835C 47.0575 7.635 47.2825 7.48 47.5425 7.37C 47.8125 7.25 48.1125 7.19 48.4425 7.19C 48.7625 7.19 49.0525 7.25 49.3125 7.37C 49.5825 7.48 49.8125 7.635 50.0025 7.835C 50.2025 8.025 50.3575 8.255 50.4675 8.525C 50.5875 8.795 50.6575 9.08 50.6775 9.38ZM 51.9075 11.54L 50.6475 11.54C 50.5375 12.05 50.3075 12.43 49.9575 12.68C 49.6175 12.93 49.1775 13.055 48.6375 13.055C 48.2175 13.055 47.8525 12.985 47.5425 12.845C 47.2325 12.705 46.9775 12.52 46.7775 12.29C 46.5775 12.05 46.4325 11.78 46.3425 11.48C 46.2525 11.17 46.2125 10.845 46.2225 10.505L 52.0275 10.505C 52.0475 10.035 52.0025 9.54 51.8925 9.02C 51.7925 8.5 51.6025 8.02 51.3225 7.58C 51.0525 7.14 50.6875 6.78 50.2275 6.5C 49.7775 6.21 49.2075 6.065 48.5175 6.065C 47.9875 6.065 47.4975 6.165 47.0475 6.365C 46.6075 6.565 46.2225 6.845 45.8925 7.205C 45.5725 7.565 45.3225 7.99 45.1425 8.48C 44.9625 8.97 44.8725 9.51 44.8725 10.1C 44.8925 10.69 44.9775 11.235 45.1275 11.735C 45.2875 12.235 45.5225 12.665 45.8325 13.025C 46.1425 13.385 46.5225 13.665 46.9725 13.865C 47.4325 14.065 47.9725 14.165 48.5925 14.165C 49.4725 14.165 50.2025 13.945 50.7825 13.505C 51.3625 13.065 51.7375 12.41 51.9075 11.54ZM 53.3042 6.245L 53.3042 14L 54.5792 14L 54.5792 10.55C 54.5792 10.05 54.6292 9.61 54.7292 9.23C 54.8292 8.84 54.9892 8.51 55.2092 8.24C 55.4292 7.97 55.7192 7.765 56.0792 7.625C 56.4392 7.485 56.8742 7.415 57.3842 7.415L 57.3842 6.065C 56.6942 6.045 56.1242 6.185 55.6742 6.485C 55.2242 6.785 54.8442 7.25 54.5342 7.88L 54.5042 7.88L 54.5042 6.245L 53.3042 6.245ZM 65.2143 13.97C 64.9943 14.1 64.6893 14.165 64.2993 14.165C 63.9693 14.165 63.7043 14.075 63.5043 13.895C 63.3143 13.705 63.2193 13.4 63.2193 12.98C 62.8693 13.4 62.4593 13.705 61.9893 13.895C 61.5293 14.075 61.0293 14.165 60.4893 14.165C 60.1393 14.165 59.8043 14.125 59.4843 14.045C 59.1743 13.965 58.9043 13.84 58.6743 13.67C 58.4443 13.5 58.2593 13.28 58.1193 13.01C 57.9893 12.73 57.9243 12.395 57.9243 12.005C 57.9243 11.565 57.9993 11.205 58.1493 10.925C 58.2993 10.645 58.4943 10.42 58.7343 10.25C 58.9843 10.07 59.2643 9.935 59.5743 9.845C 59.8943 9.755 60.2193 9.68 60.5493 9.62C 60.8993 9.55 61.2293 9.5 61.5393 9.47C 61.8593 9.43 62.1393 9.38 62.3793 9.32C 62.6193 9.25 62.8093 9.155 62.9493 9.035C 63.0893 8.905 63.1593 8.72 63.1593 8.48C 63.1593 8.2 63.1043 7.975 62.9943 7.805C 62.8943 7.635 62.7593 7.505 62.5893 7.415C 62.4293 7.325 62.2443 7.265 62.0343 7.235C 61.8343 7.205 61.6343 7.19 61.4343 7.19C 60.8943 7.19 60.4443 7.295 60.0843 7.505C 59.7243 7.705 59.5293 8.09 59.4993 8.66L 58.2243 8.66C 58.2443 8.18 58.3443 7.775 58.5243 7.445C 58.7043 7.115 58.9443 6.85 59.2443 6.65C 59.5443 6.44 59.8843 6.29 60.2643 6.2C 60.6543 6.11 61.0693 6.065 61.5093 6.065C 61.8593 6.065 62.2043 6.09 62.5443 6.14C 62.8943 6.19 63.2093 6.295 63.4893 6.455C 63.7693 6.605 63.9943 6.82 64.1643 7.1C 64.3343 7.38 64.4193 7.745 64.4193 8.195L 64.4193 12.185C 64.4193 12.485 64.4343 12.705 64.4643 12.845C 64.5043 12.985 64.6243 13.055 64.8243 13.055C 64.9343 13.055 65.0643 13.03 65.2143 12.98L 65.2143 13.97ZM 63.1443 9.995C 62.9843 10.115 62.7743 10.205 62.5143 10.265C 62.2543 10.315 61.9793 10.36 61.6893 10.4C 61.4093 10.43 61.1243 10.47 60.8343 10.52C 60.5443 10.56 60.2843 10.63 60.0543 10.73C 59.8243 10.83 59.6343 10.975 59.4843 11.165C 59.3443 11.345 59.2743 11.595 59.2743 11.915C 59.2743 12.125 59.3143 12.305 59.3943 12.455C 59.4843 12.595 59.5943 12.71 59.7243 12.8C 59.8643 12.89 60.0243 12.955 60.2043 12.995C 60.3843 13.035 60.5743 13.055 60.7743 13.055C 61.1943 13.055 61.5543 13 61.8543 12.89C 62.1543 12.77 62.3993 12.625 62.5893 12.455C 62.7793 12.275 62.9193 12.085 63.0093 11.885C 63.0993 11.675 63.1443 11.48 63.1443 11.3L 63.1443 9.995ZM 73.0909 13.34L 73.0909 6.245L 71.8909 6.245L 71.8909 7.355L 71.8759 7.355C 71.6459 6.925 71.3259 6.605 70.9159 6.395C 70.5059 6.175 70.0559 6.065 69.5659 6.065C 68.8959 6.065 68.3309 6.195 67.8709 6.455C 67.4109 6.705 67.0409 7.03 66.7609 7.43C 66.4809 7.82 66.2809 8.26 66.1609 8.75C 66.0409 9.23 65.9809 9.7 65.9809 10.16C 65.9809 10.69 66.0509 11.195 66.1909 11.675C 66.3409 12.145 66.5609 12.56 66.8509 12.92C 67.1409 13.27 67.5009 13.55 67.9309 13.76C 68.3609 13.97 68.8659 14.075 69.4459 14.075C 69.9459 14.075 70.4159 13.965 70.8559 13.745C 71.3059 13.515 71.6409 13.16 71.8609 12.68L 71.8909 12.68L 71.8909 13.19C 71.8909 13.62 71.8459 14.015 71.7559 14.375C 71.6759 14.735 71.5409 15.04 71.3509 15.29C 71.1609 15.55 70.9209 15.75 70.6309 15.89C 70.3409 16.04 69.9859 16.115 69.5659 16.115C 69.3559 16.115 69.1359 16.09 68.9059 16.04C 68.6759 16 68.4609 15.93 68.2609 15.83C 68.0709 15.73 67.9059 15.6 67.7659 15.44C 67.6359 15.28 67.5659 15.085 67.5559 14.855L 66.2809 14.855C 66.3009 15.275 66.4109 15.63 66.6109 15.92C 66.8109 16.21 67.0609 16.445 67.3609 16.625C 67.6709 16.805 68.0109 16.935 68.3809 17.015C 68.7609 17.095 69.1309 17.135 69.4909 17.135C 70.7309 17.135 71.6409 16.82 72.2209 16.19C 72.8009 15.56 73.0909 14.61 73.0909 13.34ZM 69.5209 12.965C 69.1009 12.965 68.7509 12.88 68.4709 12.71C 68.1909 12.53 67.9659 12.3 67.7959 12.02C 67.6259 11.73 67.5059 11.41 67.4359 11.06C 67.3659 10.71 67.3309 10.36 67.3309 10.01C 67.3309 9.64 67.3709 9.285 67.4509 8.945C 67.5409 8.605 67.6759 8.305 67.8559 8.045C 68.0459 7.785 68.2859 7.58 68.5759 7.43C 68.8659 7.27 69.2159 7.19 69.6259 7.19C 70.0259 7.19 70.3659 7.27 70.6459 7.43C 70.9259 7.59 71.1509 7.805 71.3209 8.075C 71.5009 8.335 71.6309 8.63 71.7109 8.96C 71.7909 9.29 71.8309 9.625 71.8309 9.965C 71.8309 10.325 71.7859 10.685 71.6959 11.045C 71.6159 11.405 71.4859 11.73 71.3059 12.02C 71.1259 12.3 70.8859 12.53 70.5859 12.71C 70.2959 12.88 69.9409 12.965 69.5209 12.965ZM 80.3992 9.38L 75.9442 9.38C 75.9642 9.08 76.0292 8.8 76.1392 8.54C 76.2492 8.27 76.3992 8.035 76.5892 7.835C 76.7792 7.635 77.0042 7.48 77.2642 7.37C 77.5342 7.25 77.8342 7.19 78.1642 7.19C 78.4842 7.19 78.7742 7.25 79.0342 7.37C 79.3042 7.48 79.5342 7.635 79.7242 7.835C 79.9242 8.025 80.0792 8.255 80.1892 8.525C 80.3092 8.795 80.3792 9.08 80.3992 9.38ZM 81.6292 11.54L 80.3692 11.54C 80.2592 12.05 80.0292 12.43 79.6792 12.68C 79.3392 12.93 78.8992 13.055 78.3592 13.055C 77.9392 13.055 77.5742 12.985 77.2642 12.845C 76.9542 12.705 76.6992 12.52 76.4992 12.29C 76.2992 12.05 76.1542 11.78 76.0642 11.48C 75.9742 11.17 75.9342 10.845 75.9442 10.505L 81.7492 10.505C 81.7692 10.035 81.7242 9.54 81.6142 9.02C 81.5142 8.5 81.3242 8.02 81.0442 7.58C 80.7742 7.14 80.4092 6.78 79.9492 6.5C 79.4992 6.21 78.9292 6.065 78.2392 6.065C 77.7092 6.065 77.2192 6.165 76.7692 6.365C 76.3292 6.565 75.9442 6.845 75.6142 7.205C 75.2942 7.565 75.0442 7.99 74.8642 8.48C 74.6842 8.97 74.5942 9.51 74.5942 10.1C 74.6142 10.69 74.6992 11.235 74.8492 11.735C 75.0092 12.235 75.2442 12.665 75.5542 13.025C 75.8642 13.385 76.2442 13.665 76.6942 13.865C 77.1542 14.065 77.6942 14.165 78.3142 14.165C 79.1942 14.165 79.9242 13.945 80.5042 13.505C 81.0842 13.065 81.4592 12.41 81.6292 11.54ZM 85.0208 7.91L 85.0208 6.245L 83.3558 6.245L 83.3558 7.91L 85.0208 7.91ZM 83.3558 12.335L 83.3558 14L 85.0208 14L 85.0208 12.335L 83.3558 12.335ZM 95.8004 14L 95.8004 3.365L 94.8254 3.365C 94.7554 3.765 94.6254 4.095 94.4354 4.355C 94.2454 4.615 94.0104 4.82 93.7304 4.97C 93.4604 5.12 93.1554 5.225 92.8154 5.285C 92.4754 5.335 92.1254 5.36 91.7654 5.36L 91.7654 6.38L 94.5254 6.38L 94.5254 14L 95.8004 14ZM 105.845 4.67L 105.845 3.545L 100.595 3.545L 99.6054 9.065L 100.7 9.125C 100.95 8.825 101.235 8.585 101.555 8.405C 101.885 8.215 102.26 8.12 102.68 8.12C 103.04 8.12 103.365 8.18 103.655 8.3C 103.955 8.42 104.21 8.59 104.42 8.81C 104.63 9.02 104.79 9.275 104.9 9.575C 105.02 9.865 105.08 10.185 105.08 10.535C 105.08 10.955 105.02 11.325 104.9 11.645C 104.78 11.955 104.615 12.215 104.405 12.425C 104.205 12.635 103.965 12.795 103.685 12.905C 103.415 13.005 103.13 13.055 102.83 13.055C 102.51 13.055 102.215 13.01 101.945 12.92C 101.685 12.82 101.455 12.685 101.255 12.515C 101.065 12.335 100.91 12.13 100.79 11.9C 100.68 11.66 100.615 11.405 100.595 11.135L 99.3204 11.135C 99.3304 11.615 99.4254 12.045 99.6054 12.425C 99.7854 12.805 100.03 13.125 100.34 13.385C 100.65 13.635 101.005 13.83 101.405 13.97C 101.815 14.1 102.25 14.165 102.71 14.165C 103.33 14.165 103.87 14.07 104.33 13.88C 104.8 13.68 105.19 13.415 105.5 13.085C 105.81 12.755 106.04 12.38 106.19 11.96C 106.35 11.53 106.43 11.09 106.43 10.64C 106.43 10.03 106.34 9.5 106.16 9.05C 105.98 8.59 105.735 8.21 105.425 7.91C 105.115 7.6 104.75 7.37 104.33 7.22C 103.91 7.07 103.465 6.995 102.995 6.995C 102.635 6.995 102.27 7.06 101.9 7.19C 101.54 7.31 101.245 7.5 101.015 7.76L 100.985 7.73L 101.555 4.67L 105.845 4.67ZM 109.635 6.38C 109.635 6.15 109.65 5.91 109.68 5.66C 109.71 5.4 109.77 5.165 109.86 4.955C 109.96 4.735 110.095 4.555 110.265 4.415C 110.435 4.265 110.66 4.19 110.94 4.19C 111.23 4.19 111.455 4.265 111.615 4.415C 111.785 4.555 111.915 4.735 112.005 4.955C 112.095 5.165 112.15 5.4 112.17 5.66C 112.2 5.91 112.215 6.145 112.215 6.365C 112.215 6.595 112.2 6.84 112.17 7.1C 112.14 7.36 112.075 7.6 111.975 7.82C 111.885 8.03 111.755 8.205 111.585 8.345C 111.415 8.485 111.185 8.555 110.895 8.555C 110.615 8.555 110.39 8.485 110.22 8.345C 110.06 8.195 109.935 8.015 109.845 7.805C 109.755 7.585 109.695 7.35 109.665 7.1C 109.645 6.84 109.635 6.6 109.635 6.38ZM 108.51 6.41C 108.51 6.82 108.55 7.205 108.63 7.565C 108.72 7.925 108.86 8.24 109.05 8.51C 109.24 8.78 109.49 8.995 109.8 9.155C 110.11 9.305 110.49 9.38 110.94 9.38C 111.38 9.38 111.75 9.295 112.05 9.125C 112.35 8.955 112.595 8.735 112.785 8.465C 112.985 8.185 113.125 7.865 113.205 7.505C 113.295 7.135 113.34 6.755 113.34 6.365C 113.34 5.955 113.3 5.57 113.22 5.21C 113.15 4.84 113.02 4.52 112.83 4.25C 112.65 3.98 112.405 3.765 112.095 3.605C 111.795 3.445 111.41 3.365 110.94 3.365C 110.48 3.365 110.095 3.45 109.785 3.62C 109.475 3.78 109.225 4 109.035 4.28C 108.845 4.56 108.71 4.885 108.63 5.255C 108.55 5.615 108.51 6 108.51 6.41ZM 117.045 11.18C 117.045 10.95 117.06 10.71 117.09 10.46C 117.12 10.2 117.18 9.965 117.27 9.755C 117.37 9.535 117.505 9.355 117.675 9.215C 117.845 9.065 118.07 8.99 118.35 8.99C 118.64 8.99 118.865 9.065 119.025 9.215C 119.195 9.355 119.325 9.535 119.415 9.755C 119.505 9.965 119.56 10.2 119.58 10.46C 119.61 10.71 119.625 10.945 119.625 11.165C 119.625 11.395 119.61 11.64 119.58 11.9C 119.55 12.16 119.485 12.4 119.385 12.62C 119.295 12.83 119.165 13.005 118.995 13.145C 118.825 13.285 118.595 13.355 118.305 13.355C 118.025 13.355 117.8 13.285 117.63 13.145C 117.47 12.995 117.345 12.815 117.255 12.605C 117.165 12.385 117.105 12.15 117.075 11.9C 117.055 11.64 117.045 11.4 117.045 11.18ZM 115.92 11.21C 115.92 11.62 115.96 12.005 116.04 12.365C 116.13 12.725 116.27 13.04 116.46 13.31C 116.65 13.57 116.9 13.78 117.21 13.94C 117.52 14.09 117.9 14.165 118.35 14.165C 118.79 14.165 119.16 14.085 119.46 13.925C 119.76 13.755 120.005 13.535 120.195 13.265C 120.395 12.985 120.535 12.665 120.615 12.305C 120.705 11.935 120.75 11.555 120.75 11.165C 120.75 10.755 120.71 10.37 120.63 10.01C 120.56 9.64 120.43 9.32 120.24 9.05C 120.06 8.78 119.815 8.565 119.505 8.405C 119.205 8.245 118.82 8.165 118.35 8.165C 117.89 8.165 117.505 8.25 117.195 8.42C 116.885 8.58 116.635 8.8 116.445 9.08C 116.255 9.36 116.12 9.685 116.04 10.055C 115.96 10.415 115.92 10.8 115.92 11.21ZM 118.02 3.17L 109.95 14.315L 111.24 14.315L 119.295 3.17L 118.02 3.17Z"/>
<path id="path7_fill" d="M 51.4718 12.29L 51.4718 23L 52.8968 23L 52.8968 18.095L 57.8168 18.095L 57.8168 16.895L 52.8968 16.895L 52.8968 13.49L 58.5068 13.49L 58.5068 12.29L 51.4718 12.29ZM 65.26 18.38L 60.805 18.38C 60.825 18.08 60.89 17.8 61 17.54C 61.11 17.27 61.26 17.035 61.45 16.835C 61.64 16.635 61.865 16.48 62.125 16.37C 62.395 16.25 62.695 16.19 63.025 16.19C 63.345 16.19 63.635 16.25 63.895 16.37C 64.165 16.48 64.395 16.635 64.585 16.835C 64.785 17.025 64.94 17.255 65.05 17.525C 65.17 17.795 65.24 18.08 65.26 18.38ZM 66.49 20.54L 65.23 20.54C 65.12 21.05 64.89 21.43 64.54 21.68C 64.2 21.93 63.76 22.055 63.22 22.055C 62.8 22.055 62.435 21.985 62.125 21.845C 61.815 21.705 61.56 21.52 61.36 21.29C 61.16 21.05 61.015 20.78 60.925 20.48C 60.835 20.17 60.795 19.845 60.805 19.505L 66.61 19.505C 66.63 19.035 66.585 18.54 66.475 18.02C 66.375 17.5 66.185 17.02 65.905 16.58C 65.635 16.14 65.27 15.78 64.81 15.5C 64.36 15.21 63.79 15.065 63.1 15.065C 62.57 15.065 62.08 15.165 61.63 15.365C 61.19 15.565 60.805 15.845 60.475 16.205C 60.155 16.565 59.905 16.99 59.725 17.48C 59.545 17.97 59.455 18.51 59.455 19.1C 59.475 19.69 59.56 20.235 59.71 20.735C 59.87 21.235 60.105 21.665 60.415 22.025C 60.725 22.385 61.105 22.665 61.555 22.865C 62.015 23.065 62.555 23.165 63.175 23.165C 64.055 23.165 64.785 22.945 65.365 22.505C 65.945 22.065 66.32 21.41 66.49 20.54ZM 67.9317 15.245L 67.9317 23L 69.2067 23L 69.2067 18.17C 69.2067 18.02 69.2417 17.835 69.3117 17.615C 69.3917 17.385 69.5117 17.165 69.6717 16.955C 69.8417 16.745 70.0567 16.565 70.3167 16.415C 70.5867 16.265 70.9067 16.19 71.2767 16.19C 71.5667 16.19 71.8017 16.235 71.9817 16.325C 72.1717 16.405 72.3217 16.525 72.4317 16.685C 72.5417 16.835 72.6167 17.015 72.6567 17.225C 72.7067 17.435 72.7317 17.665 72.7317 17.915L 72.7317 23L 74.0067 23L 74.0067 18.17C 74.0067 17.57 74.1867 17.09 74.5467 16.73C 74.9067 16.37 75.4017 16.19 76.0317 16.19C 76.3417 16.19 76.5917 16.235 76.7817 16.325C 76.9817 16.415 77.1367 16.54 77.2467 16.7C 77.3567 16.85 77.4317 17.03 77.4717 17.24C 77.5117 17.45 77.5317 17.675 77.5317 17.915L 77.5317 23L 78.8067 23L 78.8067 17.315C 78.8067 16.915 78.7417 16.575 78.6117 16.295C 78.4917 16.005 78.3167 15.77 78.0867 15.59C 77.8667 15.41 77.5967 15.28 77.2767 15.2C 76.9667 15.11 76.6167 15.065 76.2267 15.065C 75.7167 15.065 75.2467 15.18 74.8167 15.41C 74.3967 15.64 74.0567 15.965 73.7967 16.385C 73.6367 15.905 73.3617 15.565 72.9717 15.365C 72.5817 15.165 72.1467 15.065 71.6667 15.065C 70.5767 15.065 69.7417 15.505 69.1617 16.385L 69.1317 16.385L 69.1317 15.245L 67.9317 15.245ZM 87.5898 22.97C 87.3698 23.1 87.0648 23.165 86.6748 23.165C 86.3448 23.165 86.0798 23.075 85.8798 22.895C 85.6898 22.705 85.5948 22.4 85.5948 21.98C 85.2448 22.4 84.8348 22.705 84.3648 22.895C 83.9048 23.075 83.4048 23.165 82.8648 23.165C 82.5148 23.165 82.1798 23.125 81.8598 23.045C 81.5498 22.965 81.2798 22.84 81.0498 22.67C 80.8198 22.5 80.6348 22.28 80.4948 22.01C 80.3648 21.73 80.2998 21.395 80.2998 21.005C 80.2998 20.565 80.3748 20.205 80.5248 19.925C 80.6748 19.645 80.8698 19.42 81.1098 19.25C 81.3598 19.07 81.6398 18.935 81.9498 18.845C 82.2698 18.755 82.5948 18.68 82.9248 18.62C 83.2748 18.55 83.6048 18.5 83.9148 18.47C 84.2348 18.43 84.5148 18.38 84.7548 18.32C 84.9948 18.25 85.1848 18.155 85.3248 18.035C 85.4648 17.905 85.5348 17.72 85.5348 17.48C 85.5348 17.2 85.4798 16.975 85.3698 16.805C 85.2698 16.635 85.1348 16.505 84.9648 16.415C 84.8048 16.325 84.6198 16.265 84.4098 16.235C 84.2098 16.205 84.0098 16.19 83.8098 16.19C 83.2698 16.19 82.8198 16.295 82.4598 16.505C 82.0998 16.705 81.9048 17.09 81.8748 17.66L 80.5998 17.66C 80.6198 17.18 80.7198 16.775 80.8998 16.445C 81.0798 16.115 81.3198 15.85 81.6198 15.65C 81.9198 15.44 82.2598 15.29 82.6398 15.2C 83.0298 15.11 83.4448 15.065 83.8848 15.065C 84.2348 15.065 84.5798 15.09 84.9198 15.14C 85.2698 15.19 85.5848 15.295 85.8648 15.455C 86.1448 15.605 86.3698 15.82 86.5398 16.1C 86.7098 16.38 86.7948 16.745 86.7948 17.195L 86.7948 21.185C 86.7948 21.485 86.8098 21.705 86.8398 21.845C 86.8798 21.985 86.9998 22.055 87.1998 22.055C 87.3098 22.055 87.4398 22.03 87.5898 21.98L 87.5898 22.97ZM 85.5198 18.995C 85.3598 19.115 85.1498 19.205 84.8898 19.265C 84.6298 19.315 84.3548 19.36 84.0648 19.4C 83.7848 19.43 83.4998 19.47 83.2098 19.52C 82.9198 19.56 82.6598 19.63 82.4298 19.73C 82.1998 19.83 82.0098 19.975 81.8598 20.165C 81.7198 20.345 81.6498 20.595 81.6498 20.915C 81.6498 21.125 81.6898 21.305 81.7698 21.455C 81.8598 21.595 81.9698 21.71 82.0998 21.8C 82.2398 21.89 82.3998 21.955 82.5798 21.995C 82.7598 22.035 82.9498 22.055 83.1498 22.055C 83.5698 22.055 83.9298 22 84.2298 21.89C 84.5298 21.77 84.7748 21.625 84.9648 21.455C 85.1548 21.275 85.2948 21.085 85.3848 20.885C 85.4748 20.675 85.5198 20.48 85.5198 20.3L 85.5198 18.995ZM 88.8514 12.29L 88.8514 23L 90.1264 23L 90.1264 12.29L 88.8514 12.29ZM 97.4866 18.38L 93.0316 18.38C 93.0516 18.08 93.1166 17.8 93.2266 17.54C 93.3366 17.27 93.4866 17.035 93.6766 16.835C 93.8666 16.635 94.0916 16.48 94.3516 16.37C 94.6216 16.25 94.9216 16.19 95.2516 16.19C 95.5716 16.19 95.8616 16.25 96.1216 16.37C 96.3916 16.48 96.6216 16.635 96.8116 16.835C 97.0116 17.025 97.1666 17.255 97.2766 17.525C 97.3966 17.795 97.4666 18.08 97.4866 18.38ZM 98.7166 20.54L 97.4566 20.54C 97.3466 21.05 97.1166 21.43 96.7666 21.68C 96.4266 21.93 95.9866 22.055 95.4466 22.055C 95.0266 22.055 94.6616 21.985 94.3516 21.845C 94.0416 21.705 93.7866 21.52 93.5866 21.29C 93.3866 21.05 93.2416 20.78 93.1516 20.48C 93.0616 20.17 93.0216 19.845 93.0316 19.505L 98.8366 19.505C 98.8566 19.035 98.8116 18.54 98.7016 18.02C 98.6016 17.5 98.4116 17.02 98.1316 16.58C 97.8616 16.14 97.4966 15.78 97.0366 15.5C 96.5866 15.21 96.0166 15.065 95.3266 15.065C 94.7966 15.065 94.3066 15.165 93.8566 15.365C 93.4166 15.565 93.0316 15.845 92.7016 16.205C 92.3816 16.565 92.1316 16.99 91.9516 17.48C 91.7716 17.97 91.6816 18.51 91.6816 19.1C 91.7016 19.69 91.7866 20.235 91.9366 20.735C 92.0966 21.235 92.3316 21.665 92.6416 22.025C 92.9516 22.385 93.3316 22.665 93.7816 22.865C 94.2416 23.065 94.7816 23.165 95.4016 23.165C 96.2816 23.165 97.0116 22.945 97.5916 22.505C 98.1716 22.065 98.5466 21.41 98.7166 20.54Z"/>
<path id="path8_fill" d="M 59.6976 12.29L 59.6976 23L 61.0476 23L 61.0476 14.09L 61.0776 14.09L 64.4226 23L 65.6376 23L 68.9826 14.09L 69.0126 14.09L 69.0126 23L 70.3626 23L 70.3626 12.29L 68.4126 12.29L 65.0226 21.29L 61.6476 12.29L 59.6976 12.29ZM 79.394 22.97C 79.174 23.1 78.869 23.165 78.479 23.165C 78.149 23.165 77.884 23.075 77.684 22.895C 77.494 22.705 77.399 22.4 77.399 21.98C 77.049 22.4 76.639 22.705 76.169 22.895C 75.709 23.075 75.209 23.165 74.669 23.165C 74.319 23.165 73.984 23.125 73.664 23.045C 73.354 22.965 73.084 22.84 72.854 22.67C 72.624 22.5 72.439 22.28 72.299 22.01C 72.169 21.73 72.104 21.395 72.104 21.005C 72.104 20.565 72.179 20.205 72.329 19.925C 72.479 19.645 72.674 19.42 72.914 19.25C 73.164 19.07 73.444 18.935 73.754 18.845C 74.074 18.755 74.399 18.68 74.729 18.62C 75.079 18.55 75.409 18.5 75.719 18.47C 76.039 18.43 76.319 18.38 76.559 18.32C 76.799 18.25 76.989 18.155 77.129 18.035C 77.269 17.905 77.339 17.72 77.339 17.48C 77.339 17.2 77.284 16.975 77.174 16.805C 77.074 16.635 76.939 16.505 76.769 16.415C 76.609 16.325 76.424 16.265 76.214 16.235C 76.014 16.205 75.814 16.19 75.614 16.19C 75.074 16.19 74.624 16.295 74.264 16.505C 73.904 16.705 73.709 17.09 73.679 17.66L 72.404 17.66C 72.424 17.18 72.524 16.775 72.704 16.445C 72.884 16.115 73.124 15.85 73.424 15.65C 73.724 15.44 74.064 15.29 74.444 15.2C 74.834 15.11 75.249 15.065 75.689 15.065C 76.039 15.065 76.384 15.09 76.724 15.14C 77.074 15.19 77.389 15.295 77.669 15.455C 77.949 15.605 78.174 15.82 78.344 16.1C 78.514 16.38 78.599 16.745 78.599 17.195L 78.599 21.185C 78.599 21.485 78.614 21.705 78.644 21.845C 78.684 21.985 78.804 22.055 79.004 22.055C 79.114 22.055 79.244 22.03 79.394 21.98L 79.394 22.97ZM 77.324 18.995C 77.164 19.115 76.954 19.205 76.694 19.265C 76.434 19.315 76.159 19.36 75.869 19.4C 75.589 19.43 75.304 19.47 75.014 19.52C 74.724 19.56 74.464 19.63 74.234 19.73C 74.004 19.83 73.814 19.975 73.664 20.165C 73.524 20.345 73.454 20.595 73.454 20.915C 73.454 21.125 73.494 21.305 73.574 21.455C 73.664 21.595 73.774 21.71 73.904 21.8C 74.044 21.89 74.204 21.955 74.384 21.995C 74.564 22.035 74.754 22.055 74.954 22.055C 75.374 22.055 75.734 22 76.034 21.89C 76.334 21.77 76.579 21.625 76.769 21.455C 76.959 21.275 77.099 21.085 77.189 20.885C 77.279 20.675 77.324 20.48 77.324 20.3L 77.324 18.995ZM 80.6556 12.29L 80.6556 23L 81.9306 23L 81.9306 12.29L 80.6556 12.29ZM 89.2908 18.38L 84.8358 18.38C 84.8558 18.08 84.9208 17.8 85.0308 17.54C 85.1408 17.27 85.2908 17.035 85.4808 16.835C 85.6708 16.635 85.8958 16.48 86.1558 16.37C 86.4258 16.25 86.7258 16.19 87.0558 16.19C 87.3758 16.19 87.6658 16.25 87.9258 16.37C 88.1958 16.48 88.4258 16.635 88.6158 16.835C 88.8158 17.025 88.9708 17.255 89.0808 17.525C 89.2008 17.795 89.2708 18.08 89.2908 18.38ZM 90.5208 20.54L 89.2608 20.54C 89.1508 21.05 88.9208 21.43 88.5708 21.68C 88.2308 21.93 87.7908 22.055 87.2508 22.055C 86.8308 22.055 86.4658 21.985 86.1558 21.845C 85.8458 21.705 85.5908 21.52 85.3908 21.29C 85.1908 21.05 85.0458 20.78 84.9558 20.48C 84.8658 20.17 84.8258 19.845 84.8358 19.505L 90.6408 19.505C 90.6608 19.035 90.6158 18.54 90.5058 18.02C 90.4058 17.5 90.2158 17.02 89.9358 16.58C 89.6658 16.14 89.3008 15.78 88.8408 15.5C 88.3908 15.21 87.8208 15.065 87.1308 15.065C 86.6008 15.065 86.1108 15.165 85.6608 15.365C 85.2208 15.565 84.8358 15.845 84.5058 16.205C 84.1858 16.565 83.9358 16.99 83.7558 17.48C 83.5758 17.97 83.4858 18.51 83.4858 19.1C 83.5058 19.69 83.5908 20.235 83.7408 20.735C 83.9008 21.235 84.1358 21.665 84.4458 22.025C 84.7558 22.385 85.1358 22.665 85.5858 22.865C 86.0458 23.065 86.5858 23.165 87.2058 23.165C 88.0858 23.165 88.8158 22.945 89.3958 22.505C 89.9758 22.065 90.3508 21.41 90.5208 20.54Z"/>
</defs>
</svg>
