<svg width="300" height="208" viewBox="0 0 300 208" version="1.1" xmlns="http://www.w3.org/2000/svg" xmlns:xlink="http://www.w3.org/1999/xlink">
<title>Job titles</title>
<desc>Created using Figma</desc>
<g id="Canvas" transform="translate(-6 -435)">
<g id="Job titles">
<g id="Group">
<g id="Group">
<g id="Content">
<use xlink:href="#path0_fill" transform="translate(6 617)"/>
</g>
<g id="Rectangle 2">
<use xlink:href="#path1_fill" transform="translate(111 617)" fill="#E4E4E4"/>
</g>
<g id="2">
<use xlink:href="#path2_fill" transform="translate(130.286 617)" fill="#000000" fill-opacity="0.8"/>
</g>
</g>
<g id="Group">
<g id="Developer">
<use xlink:href="#path3_fill" transform="translate(6 461)"/>
</g>
<g id="Rectangle 2">
<use xlink:href="#path4_fill" transform="translate(111 461)" fill="#E4E4E4"/>
</g>
<g id="11">
<use xlink:href="#path5_fill" transform="translate(128.143 462)"/>
</g>
</g>
<g id="Group">
<g id="MD/CEO">
<use xlink:href="#path6_fill" transform="translate(6 487)"/>
</g>
<g id="Rectangle 2">
<use xlink:href="#path7_fill" transform="translate(111 487)" fill="#E4E4E4"/>
</g>
<g id="9">
<use xlink:href="#path8_fill" transform="translate(120.643 487)"/>
</g>
</g>
<g id="Group">
<g id="Product">
<use xlink:href="#path9_fill" transform="translate(6 513)"/>
</g>
<g id="Rectangle 2">
<use xlink:href="#path7_fill" transform="translate(111 513)" fill="#E4E4E4"/>
</g>
<g id="9">
<use xlink:href="#path8_fill" transform="translate(120.643 513)"/>
</g>
</g>
<g id="Group">
<g id="Student">
<use xlink:href="#path10_fill" transform="translate(6 539)"/>
</g>
<g id="Rectangle 2">
<use xlink:href="#path7_fill" transform="translate(111 539)" fill="#E4E4E4"/>
</g>
<g id="9">
<use xlink:href="#path8_fill" transform="translate(120.643 539)"/>
</g>
</g>
<g id="Group">
<g id="Marketer">
<use xlink:href="#path11_fill" transform="translate(6 591)"/>
</g>
<g id="Rectangle 2">
<use xlink:href="#path12_fill" transform="translate(111 591)" fill="#E4E4E4"/>
</g>
<g id="3">
<use xlink:href="#path13_fill" transform="translate(134.571 591)" fill="#000000" fill-opacity="0.8"/>
</g>
</g>
<g id="Group">
<g id="Researcher">
<use xlink:href="#path14_fill" transform="translate(6 565)"/>
</g>
<g id="3">
<use xlink:href="#path13_fill" transform="translate(134.571 565)" fill="#000000" fill-opacity="0.8"/>
</g>
<g id="Rectangle 2">
<use xlink:href="#path12_fill" transform="translate(111 565)" fill="#E4E4E4"/>
</g>
</g>
<g id="Group">
<g id="46">
<use xlink:href="#path15_fill" transform="translate(110.879 435)"/>
</g>
<g id="Design">
<use xlink:href="#path16_fill" transform="translate(6 435)"/>
</g>
<g id="Rectangle 2">
<use xlink:href="#path17_fill" transform="translate(111 435)" fill="#E4E4E4"/>
</g>
<g id="46%">
<use xlink:href="#path18_fill" transform="translate(255.643 436)"/>
</g>
</g>
<g id="Group">
<g id="Line 3">
<use xlink:href="#path19_stroke" transform="translate(99.2143 461.875)" fill="#FFFFFF"/>
</g>
<g id="Line 3">
<use xlink:href="#path19_stroke" transform="translate(99.2143 487.75)" fill="#FFFFFF"/>
</g>
<g id="Line 3">
<use xlink:href="#path19_stroke" transform="translate(99.2143 513.625)" fill="#FFFFFF"/>
</g>
<g id="Line 3">
<use xlink:href="#path19_stroke" transform="translate(99.2143 539.5)" fill="#FFFFFF"/>
</g>
<g id="Line 3">
<use xlink:href="#path19_stroke" transform="translate(99.2143 565.375)" fill="#FFFFFF"/>
</g>
<g id="Line 3">
<use xlink:href="#path19_stroke" transform="translate(99.2143 591.25)" fill="#FFFFFF"/>
</g>
<g id="Line 3">
<use xlink:href="#path19_stroke" transform="translate(99.2143 617.125)" fill="#FFFFFF"/>
</g>
</g>
</g>
</g>
</g>
<defs>
<path id="path0_fill" d="M 8.7 10.515L 10.125 10.515C 10.045 9.945 9.875 9.445 9.615 9.015C 9.355 8.575 9.03 8.21 8.64 7.92C 8.25 7.63 7.805 7.41 7.305 7.26C 6.805 7.11 6.275 7.035 5.715 7.035C 4.895 7.035 4.165 7.185 3.525 7.485C 2.895 7.775 2.365 8.175 1.935 8.685C 1.515 9.195 1.195 9.795 0.975 10.485C 0.755 11.165 0.645 11.895 0.645 12.675C 0.645 13.455 0.745 14.185 0.945 14.865C 1.155 15.545 1.465 16.135 1.875 16.635C 2.285 17.135 2.8 17.53 3.42 17.82C 4.04 18.1 4.765 18.24 5.595 18.24C 6.965 18.24 8.045 17.865 8.835 17.115C 9.625 16.365 10.09 15.315 10.23 13.965L 8.805 13.965C 8.775 14.405 8.685 14.815 8.535 15.195C 8.385 15.575 8.175 15.905 7.905 16.185C 7.645 16.455 7.33 16.67 6.96 16.83C 6.6 16.98 6.185 17.055 5.715 17.055C 5.075 17.055 4.525 16.935 4.065 16.695C 3.605 16.455 3.225 16.135 2.925 15.735C 2.635 15.325 2.42 14.85 2.28 14.31C 2.14 13.76 2.07 13.18 2.07 12.57C 2.07 12.01 2.14 11.47 2.28 10.95C 2.42 10.43 2.635 9.97 2.925 9.57C 3.225 9.16 3.6 8.835 4.05 8.595C 4.51 8.355 5.06 8.235 5.7 8.235C 6.45 8.235 7.095 8.425 7.635 8.805C 8.185 9.185 8.54 9.755 8.7 10.515ZM 12.7152 14.13C 12.7152 13.66 12.7752 13.245 12.8952 12.885C 13.0252 12.515 13.2002 12.205 13.4202 11.955C 13.6402 11.705 13.8952 11.515 14.1852 11.385C 14.4852 11.255 14.8002 11.19 15.1302 11.19C 15.4602 11.19 15.7702 11.255 16.0602 11.385C 16.3602 11.515 16.6202 11.705 16.8402 11.955C 17.0602 12.205 17.2302 12.515 17.3502 12.885C 17.4802 13.245 17.5452 13.66 17.5452 14.13C 17.5452 14.6 17.4802 15.02 17.3502 15.39C 17.2302 15.75 17.0602 16.055 16.8402 16.305C 16.6202 16.545 16.3602 16.73 16.0602 16.86C 15.7702 16.99 15.4602 17.055 15.1302 17.055C 14.8002 17.055 14.4852 16.99 14.1852 16.86C 13.8952 16.73 13.6402 16.545 13.4202 16.305C 13.2002 16.055 13.0252 15.75 12.8952 15.39C 12.7752 15.02 12.7152 14.6 12.7152 14.13ZM 11.3652 14.13C 11.3652 14.7 11.4452 15.23 11.6052 15.72C 11.7652 16.21 12.0052 16.64 12.3252 17.01C 12.6452 17.37 13.0402 17.655 13.5102 17.865C 13.9802 18.065 14.5202 18.165 15.1302 18.165C 15.7502 18.165 16.2902 18.065 16.7502 17.865C 17.2202 17.655 17.6152 17.37 17.9352 17.01C 18.2552 16.64 18.4952 16.21 18.6552 15.72C 18.8152 15.23 18.8952 14.7 18.8952 14.13C 18.8952 13.56 18.8152 13.03 18.6552 12.54C 18.4952 12.04 18.2552 11.61 17.9352 11.25C 17.6152 10.88 17.2202 10.59 16.7502 10.38C 16.2902 10.17 15.7502 10.065 15.1302 10.065C 14.5202 10.065 13.9802 10.17 13.5102 10.38C 13.0402 10.59 12.6452 10.88 12.3252 11.25C 12.0052 11.61 11.7652 12.04 11.6052 12.54C 11.4452 13.03 11.3652 13.56 11.3652 14.13ZM 20.3985 10.245L 20.3985 18L 21.6735 18L 21.6735 13.62C 21.6735 13.27 21.7185 12.95 21.8085 12.66C 21.9085 12.36 22.0535 12.1 22.2435 11.88C 22.4335 11.66 22.6685 11.49 22.9485 11.37C 23.2385 11.25 23.5785 11.19 23.9685 11.19C 24.4585 11.19 24.8435 11.33 25.1235 11.61C 25.4035 11.89 25.5435 12.27 25.5435 12.75L 25.5435 18L 26.8185 18L 26.8185 12.9C 26.8185 12.48 26.7735 12.1 26.6835 11.76C 26.6035 11.41 26.4585 11.11 26.2485 10.86C 26.0385 10.61 25.7635 10.415 25.4235 10.275C 25.0835 10.135 24.6585 10.065 24.1485 10.065C 22.9985 10.065 22.1585 10.535 21.6285 11.475L 21.5985 11.475L 21.5985 10.245L 20.3985 10.245ZM 30.5034 10.245L 30.5034 7.92L 29.2284 7.92L 29.2284 10.245L 27.9084 10.245L 27.9084 11.37L 29.2284 11.37L 29.2284 16.305C 29.2284 16.665 29.2634 16.955 29.3334 17.175C 29.4034 17.395 29.5084 17.565 29.6484 17.685C 29.7984 17.805 29.9884 17.89 30.2184 17.94C 30.4584 17.98 30.7434 18 31.0734 18L 32.0484 18L 32.0484 16.875L 31.4634 16.875C 31.2634 16.875 31.0984 16.87 30.9684 16.86C 30.8484 16.84 30.7534 16.805 30.6834 16.755C 30.6134 16.705 30.5634 16.635 30.5334 16.545C 30.5134 16.455 30.5034 16.335 30.5034 16.185L 30.5034 11.37L 32.0484 11.37L 32.0484 10.245L 30.5034 10.245ZM 38.8499 13.38L 34.3949 13.38C 34.4149 13.08 34.4799 12.8 34.5899 12.54C 34.6999 12.27 34.8499 12.035 35.0399 11.835C 35.2299 11.635 35.4549 11.48 35.7149 11.37C 35.9849 11.25 36.2849 11.19 36.6149 11.19C 36.9349 11.19 37.2249 11.25 37.4849 11.37C 37.7549 11.48 37.9849 11.635 38.1749 11.835C 38.3749 12.025 38.5299 12.255 38.6399 12.525C 38.7599 12.795 38.8299 13.08 38.8499 13.38ZM 40.0799 15.54L 38.8199 15.54C 38.7099 16.05 38.4799 16.43 38.1299 16.68C 37.7899 16.93 37.3499 17.055 36.8099 17.055C 36.3899 17.055 36.0249 16.985 35.7149 16.845C 35.4049 16.705 35.1499 16.52 34.9499 16.29C 34.7499 16.05 34.6049 15.78 34.5149 15.48C 34.4249 15.17 34.3849 14.845 34.3949 14.505L 40.1999 14.505C 40.2199 14.035 40.1749 13.54 40.0649 13.02C 39.9649 12.5 39.7749 12.02 39.4949 11.58C 39.2249 11.14 38.8599 10.78 38.3999 10.5C 37.9499 10.21 37.3799 10.065 36.6899 10.065C 36.1599 10.065 35.6699 10.165 35.2199 10.365C 34.7799 10.565 34.3949 10.845 34.0649 11.205C 33.7449 11.565 33.4949 11.99 33.3149 12.48C 33.1349 12.97 33.0449 13.51 33.0449 14.1C 33.0649 14.69 33.1499 15.235 33.2999 15.735C 33.4599 16.235 33.6949 16.665 34.0049 17.025C 34.3149 17.385 34.6949 17.665 35.1449 17.865C 35.6049 18.065 36.1449 18.165 36.7649 18.165C 37.6449 18.165 38.3749 17.945 38.9549 17.505C 39.5349 17.065 39.9099 16.41 40.0799 15.54ZM 41.5215 10.245L 41.5215 18L 42.7965 18L 42.7965 13.62C 42.7965 13.27 42.8415 12.95 42.9315 12.66C 43.0315 12.36 43.1765 12.1 43.3665 11.88C 43.5565 11.66 43.7915 11.49 44.0715 11.37C 44.3615 11.25 44.7015 11.19 45.0915 11.19C 45.5815 11.19 45.9665 11.33 46.2465 11.61C 46.5265 11.89 46.6665 12.27 46.6665 12.75L 46.6665 18L 47.9415 18L 47.9415 12.9C 47.9415 12.48 47.8965 12.1 47.8065 11.76C 47.7265 11.41 47.5815 11.11 47.3715 10.86C 47.1615 10.61 46.8865 10.415 46.5465 10.275C 46.2065 10.135 45.7815 10.065 45.2715 10.065C 44.1215 10.065 43.2815 10.535 42.7515 11.475L 42.7215 11.475L 42.7215 10.245L 41.5215 10.245ZM 51.6265 10.245L 51.6265 7.92L 50.3515 7.92L 50.3515 10.245L 49.0315 10.245L 49.0315 11.37L 50.3515 11.37L 50.3515 16.305C 50.3515 16.665 50.3865 16.955 50.4565 17.175C 50.5265 17.395 50.6315 17.565 50.7715 17.685C 50.9215 17.805 51.1115 17.89 51.3415 17.94C 51.5815 17.98 51.8665 18 52.1965 18L 53.1715 18L 53.1715 16.875L 52.5865 16.875C 52.3865 16.875 52.2215 16.87 52.0915 16.86C 51.9715 16.84 51.8765 16.805 51.8065 16.755C 51.7365 16.705 51.6865 16.635 51.6565 16.545C 51.6365 16.455 51.6265 16.335 51.6265 16.185L 51.6265 11.37L 53.1715 11.37L 53.1715 10.245L 51.6265 10.245Z"/>
<path id="path1_fill" d="M 0 0L 8.47826 0L 8.47826 26L 0 26L 0 0Z"/>
<path id="path2_fill" d="M 0.66 11.13L 1.935 11.13C 1.925 10.81 1.955 10.495 2.025 10.185C 2.105 9.865 2.23 9.58 2.4 9.33C 2.57 9.08 2.785 8.88 3.045 8.73C 3.315 8.57 3.635 8.49 4.005 8.49C 4.285 8.49 4.55 8.535 4.8 8.625C 5.05 8.715 5.265 8.845 5.445 9.015C 5.635 9.185 5.785 9.39 5.895 9.63C 6.005 9.86 6.06 10.12 6.06 10.41C 6.06 10.78 6 11.105 5.88 11.385C 5.77 11.665 5.6 11.925 5.37 12.165C 5.15 12.405 4.87 12.645 4.53 12.885C 4.19 13.115 3.795 13.37 3.345 13.65C 2.975 13.87 2.62 14.105 2.28 14.355C 1.94 14.605 1.635 14.895 1.365 15.225C 1.095 15.555 0.87 15.945 0.69 16.395C 0.52 16.835 0.41 17.37 0.36 18L 7.305 18L 7.305 16.875L 1.845 16.875C 1.905 16.545 2.03 16.255 2.22 16.005C 2.42 15.745 2.655 15.505 2.925 15.285C 3.205 15.065 3.51 14.86 3.84 14.67C 4.17 14.47 4.5 14.27 4.83 14.07C 5.16 13.86 5.48 13.64 5.79 13.41C 6.1 13.18 6.375 12.925 6.615 12.645C 6.855 12.355 7.045 12.03 7.185 11.67C 7.335 11.31 7.41 10.895 7.41 10.425C 7.41 9.925 7.32 9.485 7.14 9.105C 6.97 8.725 6.735 8.41 6.435 8.16C 6.135 7.9 5.78 7.705 5.37 7.575C 4.97 7.435 4.54 7.365 4.08 7.365C 3.52 7.365 3.02 7.46 2.58 7.65C 2.14 7.84 1.77 8.105 1.47 8.445C 1.18 8.775 0.965 9.17 0.825 9.63C 0.685 10.09 0.63 10.59 0.66 11.13Z"/>
<path id="path3_fill" d="M 2.595 16.8L 2.595 8.49L 4.995 8.49C 5.655 8.49 6.21 8.585 6.66 8.775C 7.11 8.955 7.475 9.225 7.755 9.585C 8.045 9.935 8.25 10.365 8.37 10.875C 8.5 11.375 8.565 11.945 8.565 12.585C 8.565 13.245 8.495 13.81 8.355 14.28C 8.225 14.74 8.055 15.125 7.845 15.435C 7.635 15.745 7.395 15.99 7.125 16.17C 6.865 16.35 6.6 16.49 6.33 16.59C 6.06 16.68 5.805 16.74 5.565 16.77C 5.325 16.79 5.125 16.8 4.965 16.8L 2.595 16.8ZM 1.17 7.29L 1.17 18L 4.845 18C 5.735 18 6.505 17.875 7.155 17.625C 7.805 17.375 8.34 17.015 8.76 16.545C 9.18 16.065 9.49 15.48 9.69 14.79C 9.89 14.09 9.99 13.29 9.99 12.39C 9.99 10.67 9.545 9.39 8.655 8.55C 7.765 7.71 6.495 7.29 4.845 7.29L 1.17 7.29ZM 16.9065 13.38L 12.4515 13.38C 12.4715 13.08 12.5365 12.8 12.6465 12.54C 12.7565 12.27 12.9065 12.035 13.0965 11.835C 13.2865 11.635 13.5115 11.48 13.7715 11.37C 14.0415 11.25 14.3415 11.19 14.6715 11.19C 14.9915 11.19 15.2815 11.25 15.5415 11.37C 15.8115 11.48 16.0415 11.635 16.2315 11.835C 16.4315 12.025 16.5865 12.255 16.6965 12.525C 16.8165 12.795 16.8865 13.08 16.9065 13.38ZM 18.1365 15.54L 16.8765 15.54C 16.7665 16.05 16.5365 16.43 16.1865 16.68C 15.8465 16.93 15.4065 17.055 14.8665 17.055C 14.4465 17.055 14.0815 16.985 13.7715 16.845C 13.4615 16.705 13.2065 16.52 13.0065 16.29C 12.8065 16.05 12.6615 15.78 12.5715 15.48C 12.4815 15.17 12.4415 14.845 12.4515 14.505L 18.2565 14.505C 18.2765 14.035 18.2315 13.54 18.1215 13.02C 18.0215 12.5 17.8315 12.02 17.5515 11.58C 17.2815 11.14 16.9165 10.78 16.4565 10.5C 16.0065 10.21 15.4365 10.065 14.7465 10.065C 14.2165 10.065 13.7265 10.165 13.2765 10.365C 12.8365 10.565 12.4515 10.845 12.1215 11.205C 11.8015 11.565 11.5515 11.99 11.3715 12.48C 11.1915 12.97 11.1015 13.51 11.1015 14.1C 11.1215 14.69 11.2065 15.235 11.3565 15.735C 11.5165 16.235 11.7515 16.665 12.0615 17.025C 12.3715 17.385 12.7515 17.665 13.2015 17.865C 13.6615 18.065 14.2015 18.165 14.8215 18.165C 15.7015 18.165 16.4315 17.945 17.0115 17.505C 17.5915 17.065 17.9665 16.41 18.1365 15.54ZM 23.0732 18L 25.9082 10.245L 24.5732 10.245L 22.4582 16.71L 22.4282 16.71L 20.2532 10.245L 18.8282 10.245L 21.7082 18L 23.0732 18ZM 32.4632 13.38L 28.0082 13.38C 28.0282 13.08 28.0932 12.8 28.2032 12.54C 28.3132 12.27 28.4632 12.035 28.6532 11.835C 28.8432 11.635 29.0682 11.48 29.3282 11.37C 29.5982 11.25 29.8982 11.19 30.2282 11.19C 30.5482 11.19 30.8382 11.25 31.0982 11.37C 31.3682 11.48 31.5982 11.635 31.7882 11.835C 31.9882 12.025 32.1432 12.255 32.2532 12.525C 32.3732 12.795 32.4432 13.08 32.4632 13.38ZM 33.6932 15.54L 32.4332 15.54C 32.3232 16.05 32.0932 16.43 31.7432 16.68C 31.4032 16.93 30.9632 17.055 30.4232 17.055C 30.0032 17.055 29.6382 16.985 29.3282 16.845C 29.0182 16.705 28.7632 16.52 28.5632 16.29C 28.3632 16.05 28.2182 15.78 28.1282 15.48C 28.0382 15.17 27.9982 14.845 28.0082 14.505L 33.8132 14.505C 33.8332 14.035 33.7882 13.54 33.6782 13.02C 33.5782 12.5 33.3882 12.02 33.1082 11.58C 32.8382 11.14 32.4732 10.78 32.0132 10.5C 31.5632 10.21 30.9932 10.065 30.3032 10.065C 29.7732 10.065 29.2832 10.165 28.8332 10.365C 28.3932 10.565 28.0082 10.845 27.6782 11.205C 27.3582 11.565 27.1082 11.99 26.9282 12.48C 26.7482 12.97 26.6582 13.51 26.6582 14.1C 26.6782 14.69 26.7632 15.235 26.9132 15.735C 27.0732 16.235 27.3082 16.665 27.6182 17.025C 27.9282 17.385 28.3082 17.665 28.7582 17.865C 29.2182 18.065 29.7582 18.165 30.3782 18.165C 31.2582 18.165 31.9882 17.945 32.5682 17.505C 33.1482 17.065 33.5232 16.41 33.6932 15.54ZM 35.2098 7.29L 35.2098 18L 36.4848 18L 36.4848 7.29L 35.2098 7.29ZM 39.39 14.13C 39.39 13.66 39.45 13.245 39.57 12.885C 39.7 12.515 39.875 12.205 40.095 11.955C 40.315 11.705 40.57 11.515 40.86 11.385C 41.16 11.255 41.475 11.19 41.805 11.19C 42.135 11.19 42.445 11.255 42.735 11.385C 43.035 11.515 43.295 11.705 43.515 11.955C 43.735 12.205 43.905 12.515 44.025 12.885C 44.155 13.245 44.22 13.66 44.22 14.13C 44.22 14.6 44.155 15.02 44.025 15.39C 43.905 15.75 43.735 16.055 43.515 16.305C 43.295 16.545 43.035 16.73 42.735 16.86C 42.445 16.99 42.135 17.055 41.805 17.055C 41.475 17.055 41.16 16.99 40.86 16.86C 40.57 16.73 40.315 16.545 40.095 16.305C 39.875 16.055 39.7 15.75 39.57 15.39C 39.45 15.02 39.39 14.6 39.39 14.13ZM 38.04 14.13C 38.04 14.7 38.12 15.23 38.28 15.72C 38.44 16.21 38.68 16.64 39 17.01C 39.32 17.37 39.715 17.655 40.185 17.865C 40.655 18.065 41.195 18.165 41.805 18.165C 42.425 18.165 42.965 18.065 43.425 17.865C 43.895 17.655 44.29 17.37 44.61 17.01C 44.93 16.64 45.17 16.21 45.33 15.72C 45.49 15.23 45.57 14.7 45.57 14.13C 45.57 13.56 45.49 13.03 45.33 12.54C 45.17 12.04 44.93 11.61 44.61 11.25C 44.29 10.88 43.895 10.59 43.425 10.38C 42.965 10.17 42.425 10.065 41.805 10.065C 41.195 10.065 40.655 10.17 40.185 10.38C 39.715 10.59 39.32 10.88 39 11.25C 38.68 11.61 38.44 12.04 38.28 12.54C 38.12 13.03 38.04 13.56 38.04 14.13ZM 47.1183 10.245L 47.1183 20.955L 48.3933 20.955L 48.3933 16.965L 48.4233 16.965C 48.5633 17.195 48.7333 17.39 48.9333 17.55C 49.1433 17.7 49.3633 17.82 49.5933 17.91C 49.8233 18 50.0533 18.065 50.2833 18.105C 50.5233 18.145 50.7383 18.165 50.9283 18.165C 51.5183 18.165 52.0333 18.06 52.4733 17.85C 52.9233 17.64 53.2933 17.355 53.5833 16.995C 53.8833 16.625 54.1033 16.195 54.2433 15.705C 54.3933 15.215 54.4683 14.695 54.4683 14.145C 54.4683 13.595 54.3933 13.075 54.2433 12.585C 54.0933 12.095 53.8683 11.665 53.5683 11.295C 53.2783 10.915 52.9083 10.615 52.4583 10.395C 52.0183 10.175 51.4983 10.065 50.8983 10.065C 50.3583 10.065 49.8633 10.165 49.4133 10.365C 48.9633 10.555 48.6333 10.865 48.4233 11.295L 48.3933 11.295L 48.3933 10.245L 47.1183 10.245ZM 53.1183 14.055C 53.1183 14.435 53.0783 14.805 52.9983 15.165C 52.9183 15.525 52.7883 15.845 52.6083 16.125C 52.4283 16.405 52.1883 16.63 51.8883 16.8C 51.5983 16.97 51.2333 17.055 50.7933 17.055C 50.3533 17.055 49.9783 16.975 49.6683 16.815C 49.3583 16.645 49.1033 16.425 48.9033 16.155C 48.7133 15.885 48.5733 15.575 48.4833 15.225C 48.3933 14.865 48.3483 14.495 48.3483 14.115C 48.3483 13.755 48.3883 13.4 48.4683 13.05C 48.5583 12.7 48.6983 12.39 48.8883 12.12C 49.0783 11.84 49.3233 11.615 49.6233 11.445C 49.9233 11.275 50.2883 11.19 50.7183 11.19C 51.1283 11.19 51.4833 11.27 51.7833 11.43C 52.0933 11.59 52.3433 11.805 52.5333 12.075C 52.7333 12.345 52.8783 12.655 52.9683 13.005C 53.0683 13.345 53.1183 13.695 53.1183 14.055ZM 61.3499 13.38L 56.8949 13.38C 56.9149 13.08 56.9799 12.8 57.0899 12.54C 57.1999 12.27 57.3499 12.035 57.5399 11.835C 57.7299 11.635 57.9549 11.48 58.2149 11.37C 58.4849 11.25 58.7849 11.19 59.1149 11.19C 59.4349 11.19 59.7249 11.25 59.9849 11.37C 60.2549 11.48 60.4849 11.635 60.6749 11.835C 60.8749 12.025 61.0299 12.255 61.1399 12.525C 61.2599 12.795 61.3299 13.08 61.3499 13.38ZM 62.5799 15.54L 61.3199 15.54C 61.2099 16.05 60.9799 16.43 60.6299 16.68C 60.2899 16.93 59.8499 17.055 59.3099 17.055C 58.8899 17.055 58.5249 16.985 58.2149 16.845C 57.9049 16.705 57.6499 16.52 57.4499 16.29C 57.2499 16.05 57.1049 15.78 57.0149 15.48C 56.9249 15.17 56.8849 14.845 56.8949 14.505L 62.6999 14.505C 62.7199 14.035 62.6749 13.54 62.5649 13.02C 62.4649 12.5 62.2749 12.02 61.9949 11.58C 61.7249 11.14 61.3599 10.78 60.8999 10.5C 60.4499 10.21 59.8799 10.065 59.1899 10.065C 58.6599 10.065 58.1699 10.165 57.7199 10.365C 57.2799 10.565 56.8949 10.845 56.5649 11.205C 56.2449 11.565 55.9949 11.99 55.8149 12.48C 55.6349 12.97 55.5449 13.51 55.5449 14.1C 55.5649 14.69 55.6499 15.235 55.7999 15.735C 55.9599 16.235 56.1949 16.665 56.5049 17.025C 56.8149 17.385 57.1949 17.665 57.6449 17.865C 58.1049 18.065 58.6449 18.165 59.2649 18.165C 60.1449 18.165 60.8749 17.945 61.4549 17.505C 62.0349 17.065 62.4099 16.41 62.5799 15.54ZM 63.9765 10.245L 63.9765 18L 65.2515 18L 65.2515 14.55C 65.2515 14.05 65.3015 13.61 65.4015 13.23C 65.5015 12.84 65.6615 12.51 65.8815 12.24C 66.1015 11.97 66.3915 11.765 66.7515 11.625C 67.1115 11.485 67.5465 11.415 68.0565 11.415L 68.0565 10.065C 67.3665 10.045 66.7965 10.185 66.3465 10.485C 65.8965 10.785 65.5165 11.25 65.2065 11.88L 65.1765 11.88L 65.1765 10.245L 63.9765 10.245Z"/>
<path id="path4_fill" d="M 0 0L 46.6304 0L 46.6304 26L 0 26L 0 0Z"/>
<path id="path5_fill" d="M 6.55218 18L 6.55218 7.365L 5.57718 7.365C 5.50718 7.765 5.37718 8.095 5.18718 8.355C 4.99718 8.615 4.76218 8.82 4.48218 8.97C 4.21218 9.12 3.90718 9.225 3.56718 9.285C 3.22718 9.335 2.87718 9.36 2.51718 9.36L 2.51718 10.38L 5.27718 10.38L 5.27718 18L 6.55218 18ZM 14.8871 18L 14.8871 7.365L 13.9121 7.365C 13.8421 7.765 13.7121 8.095 13.5221 8.355C 13.3321 8.615 13.0971 8.82 12.8171 8.97C 12.5471 9.12 12.2421 9.225 11.9021 9.285C 11.5621 9.335 11.2121 9.36 10.8521 9.36L 10.8521 10.38L 13.6121 10.38L 13.6121 18L 14.8871 18Z"/>
<path id="path6_fill" d="M 1.2 7.29L 1.2 18L 2.55 18L 2.55 9.09L 2.58 9.09L 5.925 18L 7.14 18L 10.485 9.09L 10.515 9.09L 10.515 18L 11.865 18L 11.865 7.29L 9.915 7.29L 6.525 16.29L 3.15 7.29L 1.2 7.29ZM 15.6614 16.8L 15.6614 8.49L 18.0614 8.49C 18.7214 8.49 19.2764 8.585 19.7264 8.775C 20.1764 8.955 20.5414 9.225 20.8214 9.585C 21.1114 9.935 21.3164 10.365 21.4364 10.875C 21.5664 11.375 21.6314 11.945 21.6314 12.585C 21.6314 13.245 21.5614 13.81 21.4214 14.28C 21.2914 14.74 21.1214 15.125 20.9114 15.435C 20.7014 15.745 20.4614 15.99 20.1914 16.17C 19.9314 16.35 19.6664 16.49 19.3964 16.59C 19.1264 16.68 18.8714 16.74 18.6314 16.77C 18.3914 16.79 18.1914 16.8 18.0314 16.8L 15.6614 16.8ZM 14.2364 7.29L 14.2364 18L 17.9114 18C 18.8014 18 19.5714 17.875 20.2214 17.625C 20.8714 17.375 21.4064 17.015 21.8264 16.545C 22.2464 16.065 22.5564 15.48 22.7564 14.79C 22.9564 14.09 23.0564 13.29 23.0564 12.39C 23.0564 10.67 22.6114 9.39 21.7214 8.55C 20.8314 7.71 19.5614 7.29 17.9114 7.29L 14.2364 7.29ZM 27.7979 7.035L 23.3729 18.24L 24.4529 18.24L 28.8929 7.035L 27.7979 7.035ZM 37.323 10.515L 38.748 10.515C 38.668 9.945 38.498 9.445 38.238 9.015C 37.978 8.575 37.653 8.21 37.263 7.92C 36.873 7.63 36.428 7.41 35.928 7.26C 35.428 7.11 34.898 7.035 34.338 7.035C 33.518 7.035 32.788 7.185 32.148 7.485C 31.518 7.775 30.988 8.175 30.558 8.685C 30.138 9.195 29.818 9.795 29.598 10.485C 29.378 11.165 29.268 11.895 29.268 12.675C 29.268 13.455 29.368 14.185 29.568 14.865C 29.778 15.545 30.088 16.135 30.498 16.635C 30.908 17.135 31.423 17.53 32.043 17.82C 32.663 18.1 33.388 18.24 34.218 18.24C 35.588 18.24 36.668 17.865 37.458 17.115C 38.248 16.365 38.713 15.315 38.853 13.965L 37.428 13.965C 37.398 14.405 37.308 14.815 37.158 15.195C 37.008 15.575 36.798 15.905 36.528 16.185C 36.268 16.455 35.953 16.67 35.583 16.83C 35.223 16.98 34.808 17.055 34.338 17.055C 33.698 17.055 33.148 16.935 32.688 16.695C 32.228 16.455 31.848 16.135 31.548 15.735C 31.258 15.325 31.043 14.85 30.903 14.31C 30.763 13.76 30.693 13.18 30.693 12.57C 30.693 12.01 30.763 11.47 30.903 10.95C 31.043 10.43 31.258 9.97 31.548 9.57C 31.848 9.16 32.223 8.835 32.673 8.595C 33.133 8.355 33.683 8.235 34.323 8.235C 35.073 8.235 35.718 8.425 36.258 8.805C 36.808 9.185 37.163 9.755 37.323 10.515ZM 40.6182 7.29L 40.6182 18L 48.0582 18L 48.0582 16.8L 42.0432 16.8L 42.0432 13.095L 47.6082 13.095L 47.6082 11.895L 42.0432 11.895L 42.0432 8.49L 48.0132 8.49L 48.0132 7.29L 40.6182 7.29ZM 50.6132 12.645C 50.6132 12.105 50.6832 11.575 50.8232 11.055C 50.9632 10.525 51.1832 10.05 51.4832 9.63C 51.7832 9.21 52.1682 8.875 52.6382 8.625C 53.1082 8.365 53.6682 8.235 54.3182 8.235C 54.9682 8.235 55.5282 8.365 55.9982 8.625C 56.4682 8.875 56.8532 9.21 57.1532 9.63C 57.4532 10.05 57.6732 10.525 57.8132 11.055C 57.9532 11.575 58.0232 12.105 58.0232 12.645C 58.0232 13.185 57.9532 13.72 57.8132 14.25C 57.6732 14.77 57.4532 15.24 57.1532 15.66C 56.8532 16.08 56.4682 16.42 55.9982 16.68C 55.5282 16.93 54.9682 17.055 54.3182 17.055C 53.6682 17.055 53.1082 16.93 52.6382 16.68C 52.1682 16.42 51.7832 16.08 51.4832 15.66C 51.1832 15.24 50.9632 14.77 50.8232 14.25C 50.6832 13.72 50.6132 13.185 50.6132 12.645ZM 49.1882 12.645C 49.1882 13.375 49.2932 14.08 49.5032 14.76C 49.7232 15.43 50.0482 16.025 50.4782 16.545C 50.9082 17.065 51.4432 17.48 52.0832 17.79C 52.7232 18.09 53.4682 18.24 54.3182 18.24C 55.1682 18.24 55.9132 18.09 56.5532 17.79C 57.1932 17.48 57.7282 17.065 58.1582 16.545C 58.5882 16.025 58.9082 15.43 59.1182 14.76C 59.3382 14.08 59.4482 13.375 59.4482 12.645C 59.4482 11.915 59.3382 11.215 59.1182 10.545C 58.9082 9.865 58.5882 9.265 58.1582 8.745C 57.7282 8.225 57.1932 7.81 56.5532 7.5C 55.9132 7.19 55.1682 7.035 54.3182 7.035C 53.4682 7.035 52.7232 7.19 52.0832 7.5C 51.4432 7.81 50.9082 8.225 50.4782 8.745C 50.0482 9.265 49.7232 9.865 49.5032 10.545C 49.2932 11.215 49.1882 11.915 49.1882 12.645Z"/>
<path id="path7_fill" d="M 0 0L 38.1522 0L 38.1522 26L 0 26L 0 0Z"/>
<path id="path8_fill" d="M 11.5571 15.435L 10.2821 15.435C 10.3621 16.355 10.6971 17.04 11.2871 17.49C 11.8771 17.94 12.6171 18.165 13.5071 18.165C 14.7971 18.165 15.7321 17.675 16.3121 16.695C 16.9021 15.705 17.1971 14.29 17.1971 12.45C 17.1971 11.44 17.0971 10.61 16.8971 9.96C 16.7071 9.3 16.4471 8.78 16.1171 8.4C 15.7871 8.02 15.4021 7.755 14.9621 7.605C 14.5221 7.445 14.0521 7.365 13.5521 7.365C 13.0421 7.365 12.5721 7.45 12.1421 7.62C 11.7121 7.79 11.3421 8.03 11.0321 8.34C 10.7221 8.64 10.4821 9.005 10.3121 9.435C 10.1421 9.855 10.0571 10.32 10.0571 10.83C 10.0571 11.35 10.1271 11.83 10.2671 12.27C 10.4171 12.71 10.6321 13.085 10.9121 13.395C 11.2021 13.705 11.5571 13.95 11.9771 14.13C 12.3971 14.3 12.8771 14.385 13.4171 14.385C 13.9371 14.385 14.4171 14.255 14.8571 13.995C 15.2971 13.725 15.6371 13.365 15.8771 12.915L 15.9071 12.945C 15.8671 14.335 15.6521 15.37 15.2621 16.05C 14.8721 16.72 14.2871 17.055 13.5071 17.055C 12.9971 17.055 12.5571 16.915 12.1871 16.635C 11.8171 16.355 11.6071 15.955 11.5571 15.435ZM 15.6821 10.92C 15.6821 11.23 15.6321 11.53 15.5321 11.82C 15.4321 12.1 15.2871 12.35 15.0971 12.57C 14.9071 12.78 14.6771 12.95 14.4071 13.08C 14.1371 13.2 13.8371 13.26 13.5071 13.26C 13.1971 13.26 12.9121 13.2 12.6521 13.08C 12.4021 12.95 12.1821 12.78 11.9921 12.57C 11.8121 12.36 11.6671 12.12 11.5571 11.85C 11.4571 11.58 11.4071 11.3 11.4071 11.01C 11.4071 10.68 11.4421 10.365 11.5121 10.065C 11.5921 9.765 11.7121 9.5 11.8721 9.27C 12.0421 9.03 12.2571 8.84 12.5171 8.7C 12.7871 8.56 13.1121 8.49 13.4921 8.49C 13.8521 8.49 14.1671 8.555 14.4371 8.685C 14.7071 8.815 14.9321 8.995 15.1121 9.225C 15.3021 9.445 15.4421 9.7 15.5321 9.99C 15.6321 10.28 15.6821 10.59 15.6821 10.92Z"/>
<path id="path9_fill" d="M 2.595 12.42L 2.595 8.49L 5.385 8.49C 6.195 8.49 6.785 8.66 7.155 9C 7.535 9.33 7.725 9.815 7.725 10.455C 7.725 11.095 7.535 11.585 7.155 11.925C 6.785 12.265 6.195 12.43 5.385 12.42L 2.595 12.42ZM 1.17 7.29L 1.17 18L 2.595 18L 2.595 13.62L 5.865 13.62C 6.945 13.63 7.76 13.355 8.31 12.795C 8.87 12.235 9.15 11.455 9.15 10.455C 9.15 9.455 8.87 8.68 8.31 8.13C 7.76 7.57 6.945 7.29 5.865 7.29L 1.17 7.29ZM 10.6416 10.245L 10.6416 18L 11.9166 18L 11.9166 14.55C 11.9166 14.05 11.9666 13.61 12.0666 13.23C 12.1666 12.84 12.3266 12.51 12.5466 12.24C 12.7666 11.97 13.0566 11.765 13.4166 11.625C 13.7766 11.485 14.2116 11.415 14.7216 11.415L 14.7216 10.065C 14.0316 10.045 13.4616 10.185 13.0116 10.485C 12.5616 10.785 12.1816 11.25 11.8716 11.88L 11.8416 11.88L 11.8416 10.245L 10.6416 10.245ZM 16.4798 14.13C 16.4798 13.66 16.5398 13.245 16.6598 12.885C 16.7898 12.515 16.9648 12.205 17.1848 11.955C 17.4048 11.705 17.6598 11.515 17.9498 11.385C 18.2498 11.255 18.5648 11.19 18.8948 11.19C 19.2248 11.19 19.5348 11.255 19.8248 11.385C 20.1248 11.515 20.3848 11.705 20.6048 11.955C 20.8248 12.205 20.9948 12.515 21.1148 12.885C 21.2448 13.245 21.3098 13.66 21.3098 14.13C 21.3098 14.6 21.2448 15.02 21.1148 15.39C 20.9948 15.75 20.8248 16.055 20.6048 16.305C 20.3848 16.545 20.1248 16.73 19.8248 16.86C 19.5348 16.99 19.2248 17.055 18.8948 17.055C 18.5648 17.055 18.2498 16.99 17.9498 16.86C 17.6598 16.73 17.4048 16.545 17.1848 16.305C 16.9648 16.055 16.7898 15.75 16.6598 15.39C 16.5398 15.02 16.4798 14.6 16.4798 14.13ZM 15.1298 14.13C 15.1298 14.7 15.2098 15.23 15.3698 15.72C 15.5298 16.21 15.7698 16.64 16.0898 17.01C 16.4098 17.37 16.8048 17.655 17.2748 17.865C 17.7448 18.065 18.2848 18.165 18.8948 18.165C 19.5148 18.165 20.0548 18.065 20.5148 17.865C 20.9848 17.655 21.3798 17.37 21.6998 17.01C 22.0198 16.64 22.2598 16.21 22.4198 15.72C 22.5798 15.23 22.6598 14.7 22.6598 14.13C 22.6598 13.56 22.5798 13.03 22.4198 12.54C 22.2598 12.04 22.0198 11.61 21.6998 11.25C 21.3798 10.88 20.9848 10.59 20.5148 10.38C 20.0548 10.17 19.5148 10.065 18.8948 10.065C 18.2848 10.065 17.7448 10.17 17.2748 10.38C 16.8048 10.59 16.4098 10.88 16.0898 11.25C 15.7698 11.61 15.5298 12.04 15.3698 12.54C 15.2098 13.03 15.1298 13.56 15.1298 14.13ZM 24.9613 14.19C 24.9613 13.81 25.0013 13.44 25.0813 13.08C 25.1613 12.72 25.2913 12.4 25.4713 12.12C 25.6513 11.84 25.8913 11.615 26.1913 11.445C 26.4913 11.275 26.8563 11.19 27.2863 11.19C 27.7263 11.19 28.1013 11.275 28.4113 11.445C 28.7213 11.605 28.9713 11.82 29.1613 12.09C 29.3613 12.36 29.5063 12.675 29.5963 13.035C 29.6863 13.385 29.7313 13.75 29.7313 14.13C 29.7313 14.49 29.6863 14.845 29.5963 15.195C 29.5163 15.545 29.3813 15.86 29.1913 16.14C 29.0013 16.41 28.7563 16.63 28.4563 16.8C 28.1563 16.97 27.7913 17.055 27.3613 17.055C 26.9513 17.055 26.5913 16.975 26.2813 16.815C 25.9813 16.655 25.7313 16.44 25.5313 16.17C 25.3413 15.9 25.1963 15.595 25.0963 15.255C 25.0063 14.905 24.9613 14.55 24.9613 14.19ZM 30.9613 18L 30.9613 7.29L 29.6863 7.29L 29.6863 11.28L 29.6563 11.28C 29.5163 11.05 29.3413 10.86 29.1313 10.71C 28.9313 10.55 28.7163 10.425 28.4863 10.335C 28.2563 10.235 28.0263 10.165 27.7963 10.125C 27.5663 10.085 27.3513 10.065 27.1513 10.065C 26.5613 10.065 26.0413 10.175 25.5913 10.395C 25.1513 10.605 24.7813 10.895 24.4813 11.265C 24.1913 11.625 23.9713 12.05 23.8213 12.54C 23.6813 13.03 23.6113 13.55 23.6113 14.1C 23.6113 14.65 23.6863 15.17 23.8363 15.66C 23.9863 16.15 24.2063 16.58 24.4963 16.95C 24.7963 17.32 25.1663 17.615 25.6063 17.835C 26.0563 18.055 26.5813 18.165 27.1813 18.165C 27.7213 18.165 28.2163 18.07 28.6663 17.88C 29.1163 17.69 29.4463 17.38 29.6563 16.95L 29.6863 16.95L 29.6863 18L 30.9613 18ZM 39.3429 18L 39.3429 10.245L 38.0679 10.245L 38.0679 14.625C 38.0679 14.975 38.0179 15.3 37.9179 15.6C 37.8279 15.89 37.6879 16.145 37.4979 16.365C 37.3079 16.585 37.0679 16.755 36.7779 16.875C 36.4979 16.995 36.1629 17.055 35.7729 17.055C 35.2829 17.055 34.8979 16.915 34.6179 16.635C 34.3379 16.355 34.1979 15.975 34.1979 15.495L 34.1979 10.245L 32.9229 10.245L 32.9229 15.345C 32.9229 15.765 32.9629 16.15 33.0429 16.5C 33.1329 16.84 33.2829 17.135 33.4929 17.385C 33.7029 17.635 33.9779 17.83 34.3179 17.97C 34.6579 18.1 35.0829 18.165 35.5929 18.165C 36.1629 18.165 36.6579 18.055 37.0779 17.835C 37.4979 17.605 37.8429 17.25 38.1129 16.77L 38.1429 16.77L 38.1429 18L 39.3429 18ZM 46.5229 12.735L 47.8429 12.735C 47.7929 12.275 47.6729 11.88 47.4829 11.55C 47.2929 11.21 47.0479 10.93 46.7479 10.71C 46.4579 10.49 46.1179 10.33 45.7279 10.23C 45.3479 10.12 44.9379 10.065 44.4979 10.065C 43.8879 10.065 43.3529 10.175 42.8929 10.395C 42.4329 10.605 42.0479 10.9 41.7379 11.28C 41.4379 11.65 41.2129 12.09 41.0629 12.6C 40.9129 13.1 40.8379 13.64 40.8379 14.22C 40.8379 14.8 40.9129 15.335 41.0629 15.825C 41.2229 16.305 41.4529 16.72 41.7529 17.07C 42.0629 17.42 42.4429 17.69 42.8929 17.88C 43.3529 18.07 43.8779 18.165 44.4679 18.165C 45.4579 18.165 46.2379 17.905 46.8079 17.385C 47.3879 16.865 47.7479 16.125 47.8879 15.165L 46.5829 15.165C 46.5029 15.765 46.2829 16.23 45.9229 16.56C 45.5729 16.89 45.0829 17.055 44.4529 17.055C 44.0529 17.055 43.7079 16.975 43.4179 16.815C 43.1279 16.655 42.8929 16.445 42.7129 16.185C 42.5329 15.915 42.3979 15.61 42.3079 15.27C 42.2279 14.93 42.1879 14.58 42.1879 14.22C 42.1879 13.83 42.2279 13.455 42.3079 13.095C 42.3879 12.725 42.5179 12.4 42.6979 12.12C 42.8879 11.84 43.1379 11.615 43.4479 11.445C 43.7579 11.275 44.1429 11.19 44.6029 11.19C 45.1429 11.19 45.5729 11.325 45.8929 11.595C 46.2129 11.865 46.4229 12.245 46.5229 12.735ZM 51.0845 10.245L 51.0845 7.92L 49.8095 7.92L 49.8095 10.245L 48.4895 10.245L 48.4895 11.37L 49.8095 11.37L 49.8095 16.305C 49.8095 16.665 49.8445 16.955 49.9145 17.175C 49.9845 17.395 50.0895 17.565 50.2295 17.685C 50.3795 17.805 50.5695 17.89 50.7995 17.94C 51.0395 17.98 51.3245 18 51.6545 18L 52.6295 18L 52.6295 16.875L 52.0445 16.875C 51.8445 16.875 51.6795 16.87 51.5495 16.86C 51.4295 16.84 51.3345 16.805 51.2645 16.755C 51.1945 16.705 51.1445 16.635 51.1145 16.545C 51.0945 16.455 51.0845 16.335 51.0845 16.185L 51.0845 11.37L 52.6295 11.37L 52.6295 10.245L 51.0845 10.245Z"/>
<path id="path10_fill" d="M 7.365 10.425L 8.715 10.425C 8.695 9.835 8.58 9.33 8.37 8.91C 8.17 8.48 7.89 8.125 7.53 7.845C 7.18 7.565 6.77 7.36 6.3 7.23C 5.83 7.1 5.32 7.035 4.77 7.035C 4.28 7.035 3.8 7.1 3.33 7.23C 2.87 7.35 2.455 7.54 2.085 7.8C 1.725 8.05 1.435 8.375 1.215 8.775C 0.995 9.165 0.885 9.63 0.885 10.17C 0.885 10.66 0.98 11.07 1.17 11.4C 1.37 11.72 1.63 11.985 1.95 12.195C 2.28 12.395 2.65 12.56 3.06 12.69C 3.47 12.81 3.885 12.92 4.305 13.02C 4.735 13.11 5.155 13.2 5.565 13.29C 5.975 13.38 6.34 13.5 6.66 13.65C 6.99 13.79 7.25 13.975 7.44 14.205C 7.64 14.435 7.74 14.735 7.74 15.105C 7.74 15.495 7.66 15.815 7.5 16.065C 7.34 16.315 7.13 16.515 6.87 16.665C 6.61 16.805 6.315 16.905 5.985 16.965C 5.665 17.025 5.345 17.055 5.025 17.055C 4.625 17.055 4.235 17.005 3.855 16.905C 3.475 16.805 3.14 16.65 2.85 16.44C 2.57 16.23 2.34 15.965 2.16 15.645C 1.99 15.315 1.905 14.925 1.905 14.475L 0.555 14.475C 0.555 15.125 0.67 15.69 0.9 16.17C 1.14 16.64 1.46 17.03 1.86 17.34C 2.27 17.64 2.74 17.865 3.27 18.015C 3.81 18.165 4.38 18.24 4.98 18.24C 5.47 18.24 5.96 18.18 6.45 18.06C 6.95 17.95 7.4 17.77 7.8 17.52C 8.2 17.26 8.525 16.93 8.775 16.53C 9.035 16.12 9.165 15.63 9.165 15.06C 9.165 14.53 9.065 14.09 8.865 13.74C 8.675 13.39 8.415 13.1 8.085 12.87C 7.765 12.64 7.4 12.46 6.99 12.33C 6.58 12.19 6.16 12.07 5.73 11.97C 5.31 11.87 4.895 11.78 4.485 11.7C 4.075 11.61 3.705 11.5 3.375 11.37C 3.055 11.24 2.795 11.075 2.595 10.875C 2.405 10.665 2.31 10.395 2.31 10.065C 2.31 9.715 2.375 9.425 2.505 9.195C 2.645 8.955 2.825 8.765 3.045 8.625C 3.275 8.485 3.535 8.385 3.825 8.325C 4.115 8.265 4.41 8.235 4.71 8.235C 5.45 8.235 6.055 8.41 6.525 8.76C 7.005 9.1 7.285 9.655 7.365 10.425ZM 12.4566 10.245L 12.4566 7.92L 11.1816 7.92L 11.1816 10.245L 9.86156 10.245L 9.86156 11.37L 11.1816 11.37L 11.1816 16.305C 11.1816 16.665 11.2166 16.955 11.2866 17.175C 11.3566 17.395 11.4616 17.565 11.6016 17.685C 11.7516 17.805 11.9416 17.89 12.1716 17.94C 12.4116 17.98 12.6966 18 13.0266 18L 14.0016 18L 14.0016 16.875L 13.4166 16.875C 13.2166 16.875 13.0516 16.87 12.9216 16.86C 12.8016 16.84 12.7066 16.805 12.6366 16.755C 12.5666 16.705 12.5166 16.635 12.4866 16.545C 12.4666 16.455 12.4566 16.335 12.4566 16.185L 12.4566 11.37L 14.0016 11.37L 14.0016 10.245L 12.4566 10.245ZM 21.838 18L 21.838 10.245L 20.563 10.245L 20.563 14.625C 20.563 14.975 20.513 15.3 20.413 15.6C 20.323 15.89 20.183 16.145 19.993 16.365C 19.803 16.585 19.563 16.755 19.273 16.875C 18.993 16.995 18.658 17.055 18.268 17.055C 17.778 17.055 17.393 16.915 17.113 16.635C 16.833 16.355 16.693 15.975 16.693 15.495L 16.693 10.245L 15.418 10.245L 15.418 15.345C 15.418 15.765 15.458 16.15 15.538 16.5C 15.628 16.84 15.778 17.135 15.988 17.385C 16.198 17.635 16.473 17.83 16.813 17.97C 17.153 18.1 17.578 18.165 18.088 18.165C 18.658 18.165 19.153 18.055 19.573 17.835C 19.993 17.605 20.338 17.25 20.608 16.77L 20.638 16.77L 20.638 18L 21.838 18ZM 24.683 14.19C 24.683 13.81 24.723 13.44 24.803 13.08C 24.883 12.72 25.013 12.4 25.193 12.12C 25.373 11.84 25.613 11.615 25.913 11.445C 26.213 11.275 26.578 11.19 27.008 11.19C 27.448 11.19 27.823 11.275 28.133 11.445C 28.443 11.605 28.693 11.82 28.883 12.09C 29.083 12.36 29.228 12.675 29.318 13.035C 29.408 13.385 29.453 13.75 29.453 14.13C 29.453 14.49 29.408 14.845 29.318 15.195C 29.238 15.545 29.103 15.86 28.913 16.14C 28.723 16.41 28.478 16.63 28.178 16.8C 27.878 16.97 27.513 17.055 27.083 17.055C 26.673 17.055 26.313 16.975 26.003 16.815C 25.703 16.655 25.453 16.44 25.253 16.17C 25.063 15.9 24.918 15.595 24.818 15.255C 24.728 14.905 24.683 14.55 24.683 14.19ZM 30.683 18L 30.683 7.29L 29.408 7.29L 29.408 11.28L 29.378 11.28C 29.238 11.05 29.063 10.86 28.853 10.71C 28.653 10.55 28.438 10.425 28.208 10.335C 27.978 10.235 27.748 10.165 27.518 10.125C 27.288 10.085 27.073 10.065 26.873 10.065C 26.283 10.065 25.763 10.175 25.313 10.395C 24.873 10.605 24.503 10.895 24.203 11.265C 23.913 11.625 23.693 12.05 23.543 12.54C 23.403 13.03 23.333 13.55 23.333 14.1C 23.333 14.65 23.408 15.17 23.558 15.66C 23.708 16.15 23.928 16.58 24.218 16.95C 24.518 17.32 24.888 17.615 25.328 17.835C 25.778 18.055 26.303 18.165 26.903 18.165C 27.443 18.165 27.938 18.07 28.388 17.88C 28.838 17.69 29.168 17.38 29.378 16.95L 29.408 16.95L 29.408 18L 30.683 18ZM 38.0296 13.38L 33.5746 13.38C 33.5946 13.08 33.6596 12.8 33.7696 12.54C 33.8796 12.27 34.0296 12.035 34.2196 11.835C 34.4096 11.635 34.6346 11.48 34.8946 11.37C 35.1646 11.25 35.4646 11.19 35.7946 11.19C 36.1146 11.19 36.4046 11.25 36.6646 11.37C 36.9346 11.48 37.1646 11.635 37.3546 11.835C 37.5546 12.025 37.7096 12.255 37.8196 12.525C 37.9396 12.795 38.0096 13.08 38.0296 13.38ZM 39.2596 15.54L 37.9996 15.54C 37.8896 16.05 37.6596 16.43 37.3096 16.68C 36.9696 16.93 36.5296 17.055 35.9896 17.055C 35.5696 17.055 35.2046 16.985 34.8946 16.845C 34.5846 16.705 34.3296 16.52 34.1296 16.29C 33.9296 16.05 33.7846 15.78 33.6946 15.48C 33.6046 15.17 33.5646 14.845 33.5746 14.505L 39.3796 14.505C 39.3996 14.035 39.3546 13.54 39.2446 13.02C 39.1446 12.5 38.9546 12.02 38.6746 11.58C 38.4046 11.14 38.0396 10.78 37.5796 10.5C 37.1296 10.21 36.5596 10.065 35.8696 10.065C 35.3396 10.065 34.8496 10.165 34.3996 10.365C 33.9596 10.565 33.5746 10.845 33.2446 11.205C 32.9246 11.565 32.6746 11.99 32.4946 12.48C 32.3146 12.97 32.2246 13.51 32.2246 14.1C 32.2446 14.69 32.3296 15.235 32.4796 15.735C 32.6396 16.235 32.8746 16.665 33.1846 17.025C 33.4946 17.385 33.8746 17.665 34.3246 17.865C 34.7846 18.065 35.3246 18.165 35.9446 18.165C 36.8246 18.165 37.5546 17.945 38.1346 17.505C 38.7146 17.065 39.0896 16.41 39.2596 15.54ZM 40.7012 10.245L 40.7012 18L 41.9762 18L 41.9762 13.62C 41.9762 13.27 42.0212 12.95 42.1112 12.66C 42.2112 12.36 42.3562 12.1 42.5462 11.88C 42.7362 11.66 42.9712 11.49 43.2512 11.37C 43.5412 11.25 43.8812 11.19 44.2712 11.19C 44.7612 11.19 45.1462 11.33 45.4262 11.61C 45.7062 11.89 45.8462 12.27 45.8462 12.75L 45.8462 18L 47.1212 18L 47.1212 12.9C 47.1212 12.48 47.0762 12.1 46.9862 11.76C 46.9062 11.41 46.7612 11.11 46.5512 10.86C 46.3412 10.61 46.0662 10.415 45.7262 10.275C 45.3862 10.135 44.9612 10.065 44.4512 10.065C 43.3012 10.065 42.4612 10.535 41.9312 11.475L 41.9012 11.475L 41.9012 10.245L 40.7012 10.245ZM 50.8062 10.245L 50.8062 7.92L 49.5312 7.92L 49.5312 10.245L 48.2112 10.245L 48.2112 11.37L 49.5312 11.37L 49.5312 16.305C 49.5312 16.665 49.5662 16.955 49.6362 17.175C 49.7062 17.395 49.8112 17.565 49.9512 17.685C 50.1012 17.805 50.2912 17.89 50.5212 17.94C 50.7612 17.98 51.0462 18 51.3762 18L 52.3512 18L 52.3512 16.875L 51.7662 16.875C 51.5662 16.875 51.4012 16.87 51.2712 16.86C 51.1512 16.84 51.0562 16.805 50.9862 16.755C 50.9162 16.705 50.8662 16.635 50.8362 16.545C 50.8162 16.455 50.8062 16.335 50.8062 16.185L 50.8062 11.37L 52.3512 11.37L 52.3512 10.245L 50.8062 10.245Z"/>
<path id="path11_fill" d="M 1.2 7.29L 1.2 18L 2.55 18L 2.55 9.09L 2.58 9.09L 5.925 18L 7.14 18L 10.485 9.09L 10.515 9.09L 10.515 18L 11.865 18L 11.865 7.29L 9.915 7.29L 6.525 16.29L 3.15 7.29L 1.2 7.29ZM 20.8964 17.97C 20.6764 18.1 20.3714 18.165 19.9814 18.165C 19.6514 18.165 19.3864 18.075 19.1864 17.895C 18.9964 17.705 18.9014 17.4 18.9014 16.98C 18.5514 17.4 18.1414 17.705 17.6714 17.895C 17.2114 18.075 16.7114 18.165 16.1714 18.165C 15.8214 18.165 15.4864 18.125 15.1664 18.045C 14.8564 17.965 14.5864 17.84 14.3564 17.67C 14.1264 17.5 13.9414 17.28 13.8014 17.01C 13.6714 16.73 13.6064 16.395 13.6064 16.005C 13.6064 15.565 13.6814 15.205 13.8314 14.925C 13.9814 14.645 14.1764 14.42 14.4164 14.25C 14.6664 14.07 14.9464 13.935 15.2564 13.845C 15.5764 13.755 15.9014 13.68 16.2314 13.62C 16.5814 13.55 16.9114 13.5 17.2214 13.47C 17.5414 13.43 17.8214 13.38 18.0614 13.32C 18.3014 13.25 18.4914 13.155 18.6314 13.035C 18.7714 12.905 18.8414 12.72 18.8414 12.48C 18.8414 12.2 18.7864 11.975 18.6764 11.805C 18.5764 11.635 18.4414 11.505 18.2714 11.415C 18.1114 11.325 17.9264 11.265 17.7164 11.235C 17.5164 11.205 17.3164 11.19 17.1164 11.19C 16.5764 11.19 16.1264 11.295 15.7664 11.505C 15.4064 11.705 15.2114 12.09 15.1814 12.66L 13.9064 12.66C 13.9264 12.18 14.0264 11.775 14.2064 11.445C 14.3864 11.115 14.6264 10.85 14.9264 10.65C 15.2264 10.44 15.5664 10.29 15.9464 10.2C 16.3364 10.11 16.7514 10.065 17.1914 10.065C 17.5414 10.065 17.8864 10.09 18.2264 10.14C 18.5764 10.19 18.8914 10.295 19.1714 10.455C 19.4514 10.605 19.6764 10.82 19.8464 11.1C 20.0164 11.38 20.1014 11.745 20.1014 12.195L 20.1014 16.185C 20.1014 16.485 20.1164 16.705 20.1464 16.845C 20.1864 16.985 20.3064 17.055 20.5064 17.055C 20.6164 17.055 20.7464 17.03 20.8964 16.98L 20.8964 17.97ZM 18.8264 13.995C 18.6664 14.115 18.4564 14.205 18.1964 14.265C 17.9364 14.315 17.6614 14.36 17.3714 14.4C 17.0914 14.43 16.8064 14.47 16.5164 14.52C 16.2264 14.56 15.9664 14.63 15.7364 14.73C 15.5064 14.83 15.3164 14.975 15.1664 15.165C 15.0264 15.345 14.9564 15.595 14.9564 15.915C 14.9564 16.125 14.9964 16.305 15.0764 16.455C 15.1664 16.595 15.2764 16.71 15.4064 16.8C 15.5464 16.89 15.7064 16.955 15.8864 16.995C 16.0664 17.035 16.2564 17.055 16.4564 17.055C 16.8764 17.055 17.2364 17 17.5364 16.89C 17.8364 16.77 18.0814 16.625 18.2714 16.455C 18.4614 16.275 18.6014 16.085 18.6914 15.885C 18.7814 15.675 18.8264 15.48 18.8264 15.3L 18.8264 13.995ZM 22.038 10.245L 22.038 18L 23.313 18L 23.313 14.55C 23.313 14.05 23.363 13.61 23.463 13.23C 23.563 12.84 23.723 12.51 23.943 12.24C 24.163 11.97 24.453 11.765 24.813 11.625C 25.173 11.485 25.608 11.415 26.118 11.415L 26.118 10.065C 25.428 10.045 24.858 10.185 24.408 10.485C 23.958 10.785 23.578 11.25 23.268 11.88L 23.238 11.88L 23.238 10.245L 22.038 10.245ZM 27.1532 7.29L 27.1532 18L 28.4282 18L 28.4282 15.06L 29.6282 13.95L 32.2832 18L 33.9032 18L 30.6032 13.065L 33.6782 10.245L 31.9682 10.245L 28.4282 13.635L 28.4282 7.29L 27.1532 7.29ZM 40.2415 13.38L 35.7865 13.38C 35.8065 13.08 35.8715 12.8 35.9815 12.54C 36.0915 12.27 36.2415 12.035 36.4315 11.835C 36.6215 11.635 36.8465 11.48 37.1065 11.37C 37.3765 11.25 37.6765 11.19 38.0065 11.19C 38.3265 11.19 38.6165 11.25 38.8765 11.37C 39.1465 11.48 39.3765 11.635 39.5665 11.835C 39.7665 12.025 39.9215 12.255 40.0315 12.525C 40.1515 12.795 40.2215 13.08 40.2415 13.38ZM 41.4715 15.54L 40.2115 15.54C 40.1015 16.05 39.8715 16.43 39.5215 16.68C 39.1815 16.93 38.7415 17.055 38.2015 17.055C 37.7815 17.055 37.4165 16.985 37.1065 16.845C 36.7965 16.705 36.5415 16.52 36.3415 16.29C 36.1415 16.05 35.9965 15.78 35.9065 15.48C 35.8165 15.17 35.7765 14.845 35.7865 14.505L 41.5915 14.505C 41.6115 14.035 41.5665 13.54 41.4565 13.02C 41.3565 12.5 41.1665 12.02 40.8865 11.58C 40.6165 11.14 40.2515 10.78 39.7915 10.5C 39.3415 10.21 38.7715 10.065 38.0815 10.065C 37.5515 10.065 37.0615 10.165 36.6115 10.365C 36.1715 10.565 35.7865 10.845 35.4565 11.205C 35.1365 11.565 34.8865 11.99 34.7065 12.48C 34.5265 12.97 34.4365 13.51 34.4365 14.1C 34.4565 14.69 34.5415 15.235 34.6915 15.735C 34.8515 16.235 35.0865 16.665 35.3965 17.025C 35.7065 17.385 36.0865 17.665 36.5365 17.865C 36.9965 18.065 37.5365 18.165 38.1565 18.165C 39.0365 18.165 39.7665 17.945 40.3465 17.505C 40.9265 17.065 41.3015 16.41 41.4715 15.54ZM 44.6831 10.245L 44.6831 7.92L 43.4081 7.92L 43.4081 10.245L 42.0881 10.245L 42.0881 11.37L 43.4081 11.37L 43.4081 16.305C 43.4081 16.665 43.4431 16.955 43.5131 17.175C 43.5831 17.395 43.6881 17.565 43.8281 17.685C 43.9781 17.805 44.1681 17.89 44.3981 17.94C 44.6381 17.98 44.9231 18 45.2531 18L 46.2281 18L 46.2281 16.875L 45.6431 16.875C 45.4431 16.875 45.2781 16.87 45.1481 16.86C 45.0281 16.84 44.9331 16.805 44.8631 16.755C 44.7931 16.705 44.7431 16.635 44.7131 16.545C 44.6931 16.455 44.6831 16.335 44.6831 16.185L 44.6831 11.37L 46.2281 11.37L 46.2281 10.245L 44.6831 10.245ZM 53.0296 13.38L 48.5746 13.38C 48.5946 13.08 48.6596 12.8 48.7696 12.54C 48.8796 12.27 49.0296 12.035 49.2196 11.835C 49.4096 11.635 49.6346 11.48 49.8946 11.37C 50.1646 11.25 50.4646 11.19 50.7946 11.19C 51.1146 11.19 51.4046 11.25 51.6646 11.37C 51.9346 11.48 52.1646 11.635 52.3546 11.835C 52.5546 12.025 52.7096 12.255 52.8196 12.525C 52.9396 12.795 53.0096 13.08 53.0296 13.38ZM 54.2596 15.54L 52.9996 15.54C 52.8896 16.05 52.6596 16.43 52.3096 16.68C 51.9696 16.93 51.5296 17.055 50.9896 17.055C 50.5696 17.055 50.2046 16.985 49.8946 16.845C 49.5846 16.705 49.3296 16.52 49.1296 16.29C 48.9296 16.05 48.7846 15.78 48.6946 15.48C 48.6046 15.17 48.5646 14.845 48.5746 14.505L 54.3796 14.505C 54.3996 14.035 54.3546 13.54 54.2446 13.02C 54.1446 12.5 53.9546 12.02 53.6746 11.58C 53.4046 11.14 53.0396 10.78 52.5796 10.5C 52.1296 10.21 51.5596 10.065 50.8696 10.065C 50.3396 10.065 49.8496 10.165 49.3996 10.365C 48.9596 10.565 48.5746 10.845 48.2446 11.205C 47.9246 11.565 47.6746 11.99 47.4946 12.48C 47.3146 12.97 47.2246 13.51 47.2246 14.1C 47.2446 14.69 47.3296 15.235 47.4796 15.735C 47.6396 16.235 47.8746 16.665 48.1846 17.025C 48.4946 17.385 48.8746 17.665 49.3246 17.865C 49.7846 18.065 50.3246 18.165 50.9446 18.165C 51.8246 18.165 52.5546 17.945 53.1346 17.505C 53.7146 17.065 54.0896 16.41 54.2596 15.54ZM 55.6562 10.245L 55.6562 18L 56.9312 18L 56.9312 14.55C 56.9312 14.05 56.9812 13.61 57.0812 13.23C 57.1812 12.84 57.3412 12.51 57.5612 12.24C 57.7812 11.97 58.0712 11.765 58.4312 11.625C 58.7912 11.485 59.2262 11.415 59.7362 11.415L 59.7362 10.065C 59.0462 10.045 58.4762 10.185 58.0262 10.485C 57.5762 10.785 57.1962 11.25 56.8862 11.88L 56.8562 11.88L 56.8562 10.245L 55.6562 10.245Z"/>
<path id="path12_fill" d="M 0 0L 12.7174 0L 12.7174 26L 0 26L 0 0Z"/>
<path id="path13_fill" d="M 3.27 11.925L 3.27 13.005C 3.51 12.975 3.765 12.96 4.035 12.96C 4.355 12.96 4.65 13.005 4.92 13.095C 5.2 13.175 5.44 13.305 5.64 13.485C 5.84 13.655 6 13.87 6.12 14.13C 6.24 14.38 6.3 14.67 6.3 15C 6.3 15.32 6.235 15.61 6.105 15.87C 5.985 16.12 5.82 16.335 5.61 16.515C 5.4 16.685 5.155 16.82 4.875 16.92C 4.595 17.01 4.3 17.055 3.99 17.055C 3.26 17.055 2.705 16.84 2.325 16.41C 1.945 15.97 1.745 15.405 1.725 14.715L 0.45 14.715C 0.44 15.265 0.515 15.755 0.675 16.185C 0.845 16.615 1.085 16.98 1.395 17.28C 1.705 17.57 2.08 17.79 2.52 17.94C 2.96 18.09 3.45 18.165 3.99 18.165C 4.49 18.165 4.96 18.1 5.4 17.97C 5.85 17.83 6.24 17.625 6.57 17.355C 6.9 17.085 7.16 16.75 7.35 16.35C 7.55 15.94 7.65 15.47 7.65 14.94C 7.65 14.3 7.49 13.745 7.17 13.275C 6.86 12.805 6.38 12.5 5.73 12.36L 5.73 12.33C 6.15 12.14 6.5 11.86 6.78 11.49C 7.06 11.12 7.2 10.695 7.2 10.215C 7.2 9.725 7.115 9.3 6.945 8.94C 6.785 8.58 6.56 8.285 6.27 8.055C 5.98 7.825 5.635 7.655 5.235 7.545C 4.845 7.425 4.42 7.365 3.96 7.365C 3.43 7.365 2.96 7.45 2.55 7.62C 2.15 7.79 1.815 8.025 1.545 8.325C 1.275 8.625 1.065 8.985 0.915 9.405C 0.775 9.825 0.695 10.29 0.675 10.8L 1.95 10.8C 1.95 10.49 1.99 10.195 2.07 9.915C 2.15 9.635 2.27 9.39 2.43 9.18C 2.6 8.97 2.81 8.805 3.06 8.685C 3.32 8.555 3.62 8.49 3.96 8.49C 4.5 8.49 4.95 8.635 5.31 8.925C 5.67 9.205 5.85 9.63 5.85 10.2C 5.85 10.48 5.795 10.73 5.685 10.95C 5.575 11.17 5.425 11.355 5.235 11.505C 5.055 11.645 4.84 11.755 4.59 11.835C 4.35 11.905 4.095 11.94 3.825 11.94L 3.555 11.94C 3.505 11.94 3.455 11.94 3.405 11.94C 3.365 11.94 3.32 11.935 3.27 11.925Z"/>
<path id="path14_fill" d="M 1.17 7.29L 1.17 18L 2.595 18L 2.595 13.425L 6.075 13.425C 6.425 13.425 6.705 13.48 6.915 13.59C 7.125 13.69 7.295 13.83 7.425 14.01C 7.555 14.18 7.65 14.385 7.71 14.625C 7.77 14.855 7.82 15.1 7.86 15.36C 7.91 15.62 7.94 15.885 7.95 16.155C 7.96 16.425 7.97 16.68 7.98 16.92C 7.99 17.15 8.01 17.36 8.04 17.55C 8.08 17.74 8.15 17.89 8.25 18L 9.84 18C 9.69 17.82 9.575 17.615 9.495 17.385C 9.425 17.145 9.37 16.895 9.33 16.635C 9.29 16.375 9.265 16.11 9.255 15.84C 9.245 15.57 9.23 15.305 9.21 15.045C 9.18 14.785 9.135 14.535 9.075 14.295C 9.025 14.055 8.94 13.84 8.82 13.65C 8.71 13.45 8.555 13.28 8.355 13.14C 8.165 13 7.915 12.9 7.605 12.84L 7.605 12.81C 8.255 12.63 8.725 12.295 9.015 11.805C 9.315 11.315 9.465 10.745 9.465 10.095C 9.465 9.225 9.175 8.54 8.595 8.04C 8.025 7.54 7.23 7.29 6.21 7.29L 1.17 7.29ZM 5.565 12.225L 2.595 12.225L 2.595 8.49L 6.135 8.49C 6.805 8.49 7.29 8.66 7.59 9C 7.89 9.34 8.04 9.78 8.04 10.32C 8.04 10.71 7.97 11.03 7.83 11.28C 7.7 11.52 7.52 11.715 7.29 11.865C 7.07 12.005 6.81 12.1 6.51 12.15C 6.21 12.2 5.895 12.225 5.565 12.225ZM 16.6136 13.38L 12.1586 13.38C 12.1786 13.08 12.2436 12.8 12.3536 12.54C 12.4636 12.27 12.6136 12.035 12.8036 11.835C 12.9936 11.635 13.2186 11.48 13.4786 11.37C 13.7486 11.25 14.0486 11.19 14.3786 11.19C 14.6986 11.19 14.9886 11.25 15.2486 11.37C 15.5186 11.48 15.7486 11.635 15.9386 11.835C 16.1386 12.025 16.2936 12.255 16.4036 12.525C 16.5236 12.795 16.5936 13.08 16.6136 13.38ZM 17.8436 15.54L 16.5836 15.54C 16.4736 16.05 16.2436 16.43 15.8936 16.68C 15.5536 16.93 15.1136 17.055 14.5736 17.055C 14.1536 17.055 13.7886 16.985 13.4786 16.845C 13.1686 16.705 12.9136 16.52 12.7136 16.29C 12.5136 16.05 12.3686 15.78 12.2786 15.48C 12.1886 15.17 12.1486 14.845 12.1586 14.505L 17.9636 14.505C 17.9836 14.035 17.9386 13.54 17.8286 13.02C 17.7286 12.5 17.5386 12.02 17.2586 11.58C 16.9886 11.14 16.6236 10.78 16.1636 10.5C 15.7136 10.21 15.1436 10.065 14.4536 10.065C 13.9236 10.065 13.4336 10.165 12.9836 10.365C 12.5436 10.565 12.1586 10.845 11.8286 11.205C 11.5086 11.565 11.2586 11.99 11.0786 12.48C 10.8986 12.97 10.8086 13.51 10.8086 14.1C 10.8286 14.69 10.9136 15.235 11.0636 15.735C 11.2236 16.235 11.4586 16.665 11.7686 17.025C 12.0786 17.385 12.4586 17.665 12.9086 17.865C 13.3686 18.065 13.9086 18.165 14.5286 18.165C 15.4086 18.165 16.1386 17.945 16.7186 17.505C 17.2986 17.065 17.6736 16.41 17.8436 15.54ZM 20.0652 15.555L 18.7902 15.555C 18.8102 16.035 18.9102 16.445 19.0902 16.785C 19.2702 17.115 19.5102 17.385 19.8102 17.595C 20.1102 17.795 20.4552 17.94 20.8452 18.03C 21.2352 18.12 21.6452 18.165 22.0752 18.165C 22.4652 18.165 22.8552 18.125 23.2452 18.045C 23.6452 17.975 24.0002 17.845 24.3102 17.655C 24.6302 17.465 24.8852 17.215 25.0752 16.905C 25.2752 16.595 25.3752 16.205 25.3752 15.735C 25.3752 15.365 25.3002 15.055 25.1502 14.805C 25.0102 14.555 24.8202 14.35 24.5802 14.19C 24.3502 14.02 24.0802 13.885 23.7702 13.785C 23.4702 13.685 23.1602 13.6 22.8402 13.53C 22.5402 13.46 22.2402 13.395 21.9402 13.335C 21.6402 13.265 21.3702 13.185 21.1302 13.095C 20.8902 12.995 20.6902 12.875 20.5302 12.735C 20.3802 12.585 20.3052 12.4 20.3052 12.18C 20.3052 11.98 20.3552 11.82 20.4552 11.7C 20.5552 11.57 20.6852 11.47 20.8452 11.4C 21.0052 11.32 21.1802 11.265 21.3702 11.235C 21.5702 11.205 21.7652 11.19 21.9552 11.19C 22.1652 11.19 22.3702 11.215 22.5702 11.265C 22.7802 11.305 22.9702 11.375 23.1402 11.475C 23.3102 11.575 23.4502 11.71 23.5602 11.88C 23.6702 12.04 23.7352 12.245 23.7552 12.495L 25.0302 12.495C 25.0002 12.025 24.9002 11.635 24.7302 11.325C 24.5602 11.005 24.3302 10.755 24.0402 10.575C 23.7602 10.385 23.4352 10.255 23.0652 10.185C 22.6952 10.105 22.2902 10.065 21.8502 10.065C 21.5102 10.065 21.1652 10.11 20.8152 10.2C 20.4752 10.28 20.1652 10.41 19.8852 10.59C 19.6152 10.76 19.3902 10.985 19.2102 11.265C 19.0402 11.545 18.9552 11.88 18.9552 12.27C 18.9552 12.77 19.0802 13.16 19.3302 13.44C 19.5802 13.72 19.8902 13.94 20.2602 14.1C 20.6402 14.25 21.0502 14.37 21.4902 14.46C 21.9302 14.54 22.3352 14.635 22.7052 14.745C 23.0852 14.845 23.4002 14.98 23.6502 15.15C 23.9002 15.32 24.0252 15.57 24.0252 15.9C 24.0252 16.14 23.9652 16.34 23.8452 16.5C 23.7252 16.65 23.5702 16.765 23.3802 16.845C 23.2002 16.925 23.0002 16.98 22.7802 17.01C 22.5602 17.04 22.3502 17.055 22.1502 17.055C 21.8902 17.055 21.6352 17.03 21.3852 16.98C 21.1452 16.93 20.9252 16.85 20.7252 16.74C 20.5352 16.62 20.3802 16.465 20.2602 16.275C 20.1402 16.075 20.0752 15.835 20.0652 15.555ZM 32.1702 13.38L 27.7152 13.38C 27.7352 13.08 27.8002 12.8 27.9102 12.54C 28.0202 12.27 28.1702 12.035 28.3602 11.835C 28.5502 11.635 28.7752 11.48 29.0352 11.37C 29.3052 11.25 29.6052 11.19 29.9352 11.19C 30.2552 11.19 30.5452 11.25 30.8052 11.37C 31.0752 11.48 31.3052 11.635 31.4952 11.835C 31.6952 12.025 31.8502 12.255 31.9602 12.525C 32.0802 12.795 32.1502 13.08 32.1702 13.38ZM 33.4002 15.54L 32.1402 15.54C 32.0302 16.05 31.8002 16.43 31.4502 16.68C 31.1102 16.93 30.6702 17.055 30.1302 17.055C 29.7102 17.055 29.3452 16.985 29.0352 16.845C 28.7252 16.705 28.4702 16.52 28.2702 16.29C 28.0702 16.05 27.9252 15.78 27.8352 15.48C 27.7452 15.17 27.7052 14.845 27.7152 14.505L 33.5202 14.505C 33.5402 14.035 33.4952 13.54 33.3852 13.02C 33.2852 12.5 33.0952 12.02 32.8152 11.58C 32.5452 11.14 32.1802 10.78 31.7202 10.5C 31.2702 10.21 30.7002 10.065 30.0102 10.065C 29.4802 10.065 28.9902 10.165 28.5402 10.365C 28.1002 10.565 27.7152 10.845 27.3852 11.205C 27.0652 11.565 26.8152 11.99 26.6352 12.48C 26.4552 12.97 26.3652 13.51 26.3652 14.1C 26.3852 14.69 26.4702 15.235 26.6202 15.735C 26.7802 16.235 27.0152 16.665 27.3252 17.025C 27.6352 17.385 28.0152 17.665 28.4652 17.865C 28.9252 18.065 29.4652 18.165 30.0852 18.165C 30.9652 18.165 31.6952 17.945 32.2752 17.505C 32.8552 17.065 33.2302 16.41 33.4002 15.54ZM 41.7118 17.97C 41.4918 18.1 41.1868 18.165 40.7968 18.165C 40.4668 18.165 40.2018 18.075 40.0018 17.895C 39.8118 17.705 39.7168 17.4 39.7168 16.98C 39.3668 17.4 38.9568 17.705 38.4868 17.895C 38.0268 18.075 37.5268 18.165 36.9868 18.165C 36.6368 18.165 36.3018 18.125 35.9818 18.045C 35.6718 17.965 35.4018 17.84 35.1718 17.67C 34.9418 17.5 34.7568 17.28 34.6168 17.01C 34.4868 16.73 34.4218 16.395 34.4218 16.005C 34.4218 15.565 34.4968 15.205 34.6468 14.925C 34.7968 14.645 34.9918 14.42 35.2318 14.25C 35.4818 14.07 35.7618 13.935 36.0718 13.845C 36.3918 13.755 36.7168 13.68 37.0468 13.62C 37.3968 13.55 37.7268 13.5 38.0368 13.47C 38.3568 13.43 38.6368 13.38 38.8768 13.32C 39.1168 13.25 39.3068 13.155 39.4468 13.035C 39.5868 12.905 39.6568 12.72 39.6568 12.48C 39.6568 12.2 39.6018 11.975 39.4918 11.805C 39.3918 11.635 39.2568 11.505 39.0868 11.415C 38.9268 11.325 38.7418 11.265 38.5318 11.235C 38.3318 11.205 38.1318 11.19 37.9318 11.19C 37.3918 11.19 36.9418 11.295 36.5818 11.505C 36.2218 11.705 36.0268 12.09 35.9968 12.66L 34.7218 12.66C 34.7418 12.18 34.8418 11.775 35.0218 11.445C 35.2018 11.115 35.4418 10.85 35.7418 10.65C 36.0418 10.44 36.3818 10.29 36.7618 10.2C 37.1518 10.11 37.5668 10.065 38.0068 10.065C 38.3568 10.065 38.7018 10.09 39.0418 10.14C 39.3918 10.19 39.7068 10.295 39.9868 10.455C 40.2668 10.605 40.4918 10.82 40.6618 11.1C 40.8318 11.38 40.9168 11.745 40.9168 12.195L 40.9168 16.185C 40.9168 16.485 40.9318 16.705 40.9618 16.845C 41.0018 16.985 41.1218 17.055 41.3218 17.055C 41.4318 17.055 41.5618 17.03 41.7118 16.98L 41.7118 17.97ZM 39.6418 13.995C 39.4818 14.115 39.2718 14.205 39.0118 14.265C 38.7518 14.315 38.4768 14.36 38.1868 14.4C 37.9068 14.43 37.6218 14.47 37.3318 14.52C 37.0418 14.56 36.7818 14.63 36.5518 14.73C 36.3218 14.83 36.1318 14.975 35.9818 15.165C 35.8418 15.345 35.7718 15.595 35.7718 15.915C 35.7718 16.125 35.8118 16.305 35.8918 16.455C 35.9818 16.595 36.0918 16.71 36.2218 16.8C 36.3618 16.89 36.5218 16.955 36.7018 16.995C 36.8818 17.035 37.0718 17.055 37.2718 17.055C 37.6918 17.055 38.0518 17 38.3518 16.89C 38.6518 16.77 38.8968 16.625 39.0868 16.455C 39.2768 16.275 39.4168 16.085 39.5068 15.885C 39.5968 15.675 39.6418 15.48 39.6418 15.3L 39.6418 13.995ZM 42.8535 10.245L 42.8535 18L 44.1285 18L 44.1285 14.55C 44.1285 14.05 44.1785 13.61 44.2785 13.23C 44.3785 12.84 44.5385 12.51 44.7585 12.24C 44.9785 11.97 45.2685 11.765 45.6285 11.625C 45.9885 11.485 46.4235 11.415 46.9335 11.415L 46.9335 10.065C 46.2435 10.045 45.6735 10.185 45.2235 10.485C 44.7735 10.785 44.3935 11.25 44.0835 11.88L 44.0535 11.88L 44.0535 10.245L 42.8535 10.245ZM 53.0268 12.735L 54.3468 12.735C 54.2968 12.275 54.1768 11.88 53.9868 11.55C 53.7968 11.21 53.5518 10.93 53.2518 10.71C 52.9618 10.49 52.6218 10.33 52.2318 10.23C 51.8518 10.12 51.4418 10.065 51.0018 10.065C 50.3918 10.065 49.8568 10.175 49.3968 10.395C 48.9368 10.605 48.5518 10.9 48.2418 11.28C 47.9418 11.65 47.7168 12.09 47.5668 12.6C 47.4168 13.1 47.3418 13.64 47.3418 14.22C 47.3418 14.8 47.4168 15.335 47.5668 15.825C 47.7268 16.305 47.9568 16.72 48.2568 17.07C 48.5668 17.42 48.9468 17.69 49.3968 17.88C 49.8568 18.07 50.3818 18.165 50.9718 18.165C 51.9618 18.165 52.7418 17.905 53.3118 17.385C 53.8918 16.865 54.2518 16.125 54.3918 15.165L 53.0868 15.165C 53.0068 15.765 52.7868 16.23 52.4268 16.56C 52.0768 16.89 51.5868 17.055 50.9568 17.055C 50.5568 17.055 50.2118 16.975 49.9218 16.815C 49.6318 16.655 49.3968 16.445 49.2168 16.185C 49.0368 15.915 48.9018 15.61 48.8118 15.27C 48.7318 14.93 48.6918 14.58 48.6918 14.22C 48.6918 13.83 48.7318 13.455 48.8118 13.095C 48.8918 12.725 49.0218 12.4 49.2018 12.12C 49.3918 11.84 49.6418 11.615 49.9518 11.445C 50.2618 11.275 50.6468 11.19 51.1068 11.19C 51.6468 11.19 52.0768 11.325 52.3968 11.595C 52.7168 11.865 52.9268 12.245 53.0268 12.735ZM 55.6866 7.29L 55.6866 18L 56.9616 18L 56.9616 13.62C 56.9616 13.27 57.0066 12.95 57.0966 12.66C 57.1966 12.36 57.3416 12.1 57.5316 11.88C 57.7216 11.66 57.9566 11.49 58.2366 11.37C 58.5266 11.25 58.8666 11.19 59.2566 11.19C 59.7466 11.19 60.1316 11.33 60.4116 11.61C 60.6916 11.89 60.8316 12.27 60.8316 12.75L 60.8316 18L 62.1066 18L 62.1066 12.9C 62.1066 12.48 62.0616 12.1 61.9716 11.76C 61.8916 11.41 61.7466 11.11 61.5366 10.86C 61.3266 10.61 61.0516 10.415 60.7116 10.275C 60.3716 10.135 59.9466 10.065 59.4366 10.065C 59.2066 10.065 58.9666 10.09 58.7166 10.14C 58.4766 10.19 58.2416 10.27 58.0116 10.38C 57.7916 10.48 57.5916 10.615 57.4116 10.785C 57.2316 10.945 57.0916 11.145 56.9916 11.385L 56.9616 11.385L 56.9616 7.29L 55.6866 7.29ZM 69.4065 13.38L 64.9515 13.38C 64.9715 13.08 65.0365 12.8 65.1465 12.54C 65.2565 12.27 65.4065 12.035 65.5965 11.835C 65.7865 11.635 66.0115 11.48 66.2715 11.37C 66.5415 11.25 66.8415 11.19 67.1715 11.19C 67.4915 11.19 67.7815 11.25 68.0415 11.37C 68.3115 11.48 68.5415 11.635 68.7315 11.835C 68.9315 12.025 69.0865 12.255 69.1965 12.525C 69.3165 12.795 69.3865 13.08 69.4065 13.38ZM 70.6365 15.54L 69.3765 15.54C 69.2665 16.05 69.0365 16.43 68.6865 16.68C 68.3465 16.93 67.9065 17.055 67.3665 17.055C 66.9465 17.055 66.5815 16.985 66.2715 16.845C 65.9615 16.705 65.7065 16.52 65.5065 16.29C 65.3065 16.05 65.1615 15.78 65.0715 15.48C 64.9815 15.17 64.9415 14.845 64.9515 14.505L 70.7565 14.505C 70.7765 14.035 70.7315 13.54 70.6215 13.02C 70.5215 12.5 70.3315 12.02 70.0515 11.58C 69.7815 11.14 69.4165 10.78 68.9565 10.5C 68.5065 10.21 67.9365 10.065 67.2465 10.065C 66.7165 10.065 66.2265 10.165 65.7765 10.365C 65.3365 10.565 64.9515 10.845 64.6215 11.205C 64.3015 11.565 64.0515 11.99 63.8715 12.48C 63.6915 12.97 63.6015 13.51 63.6015 14.1C 63.6215 14.69 63.7065 15.235 63.8565 15.735C 64.0165 16.235 64.2515 16.665 64.5615 17.025C 64.8715 17.385 65.2515 17.665 65.7015 17.865C 66.1615 18.065 66.7015 18.165 67.3215 18.165C 68.2015 18.165 68.9315 17.945 69.5115 17.505C 70.0915 17.065 70.4665 16.41 70.6365 15.54ZM 72.0332 10.245L 72.0332 18L 73.3082 18L 73.3082 14.55C 73.3082 14.05 73.3582 13.61 73.4582 13.23C 73.5582 12.84 73.7182 12.51 73.9382 12.24C 74.1582 11.97 74.4482 11.765 74.8082 11.625C 75.1682 11.485 75.6032 11.415 76.1132 11.415L 76.1132 10.065C 75.4232 10.045 74.8532 10.185 74.4032 10.485C 73.9532 10.785 73.5732 11.25 73.2632 11.88L 73.2332 11.88L 73.2332 10.245L 72.0332 10.245Z"/>
<path id="path15_fill" d="M 7.77554 14.385L 4.20554 14.385L 7.74554 9.18L 7.77554 9.18L 7.77554 14.385ZM 8.97554 14.385L 8.97554 7.365L 7.95554 7.365L 3.11054 14.28L 3.11054 15.51L 7.77554 15.51L 7.77554 18L 8.97554 18L 8.97554 15.51L 10.4155 15.51L 10.4155 14.385L 8.97554 14.385ZM 17.2355 10.08L 18.5105 10.08C 18.4305 9.2 18.1305 8.53 17.6105 8.07C 17.0905 7.6 16.3905 7.365 15.5105 7.365C 14.7505 7.365 14.1205 7.525 13.6205 7.845C 13.1205 8.165 12.7205 8.59 12.4205 9.12C 12.1205 9.65 11.9055 10.26 11.7755 10.95C 11.6555 11.63 11.5955 12.335 11.5955 13.065C 11.5955 13.625 11.6355 14.205 11.7155 14.805C 11.8055 15.405 11.9805 15.955 12.2405 16.455C 12.5005 16.955 12.8705 17.365 13.3505 17.685C 13.8305 18.005 14.4655 18.165 15.2555 18.165C 15.9255 18.165 16.4855 18.055 16.9355 17.835C 17.3955 17.605 17.7605 17.32 18.0305 16.98C 18.3105 16.63 18.5105 16.245 18.6305 15.825C 18.7505 15.405 18.8105 15 18.8105 14.61C 18.8105 14.12 18.7355 13.665 18.5855 13.245C 18.4355 12.825 18.2205 12.46 17.9405 12.15C 17.6705 11.84 17.3305 11.6 16.9205 11.43C 16.5205 11.25 16.0655 11.16 15.5555 11.16C 14.9755 11.16 14.4605 11.27 14.0105 11.49C 13.5705 11.71 13.2005 12.065 12.9005 12.555L 12.8705 12.525C 12.8805 12.115 12.9205 11.675 12.9905 11.205C 13.0605 10.735 13.1855 10.3 13.3655 9.9C 13.5555 9.49 13.8155 9.155 14.1455 8.895C 14.4755 8.625 14.9105 8.49 15.4505 8.49C 15.9605 8.49 16.3705 8.635 16.6805 8.925C 16.9905 9.215 17.1755 9.6 17.2355 10.08ZM 15.3155 12.285C 15.6755 12.285 15.9905 12.35 16.2605 12.48C 16.5305 12.61 16.7555 12.785 16.9355 13.005C 17.1155 13.215 17.2455 13.47 17.3255 13.77C 17.4155 14.06 17.4605 14.37 17.4605 14.7C 17.4605 15.01 17.4105 15.31 17.3105 15.6C 17.2205 15.88 17.0855 16.13 16.9055 16.35C 16.7255 16.57 16.5005 16.745 16.2305 16.875C 15.9705 16.995 15.6655 17.055 15.3155 17.055C 14.9655 17.055 14.6505 16.995 14.3705 16.875C 14.1005 16.745 13.8705 16.575 13.6805 16.365C 13.5005 16.155 13.3605 15.905 13.2605 15.615C 13.1605 15.325 13.1105 15.015 13.1105 14.685C 13.1105 14.355 13.1555 14.045 13.2455 13.755C 13.3455 13.455 13.4905 13.2 13.6805 12.99C 13.8705 12.77 14.1005 12.6 14.3705 12.48C 14.6405 12.35 14.9555 12.285 15.3155 12.285Z"/>
<path id="path16_fill" d="M 2.595 16.8L 2.595 8.49L 4.995 8.49C 5.655 8.49 6.21 8.585 6.66 8.775C 7.11 8.955 7.475 9.225 7.755 9.585C 8.045 9.935 8.25 10.365 8.37 10.875C 8.5 11.375 8.565 11.945 8.565 12.585C 8.565 13.245 8.495 13.81 8.355 14.28C 8.225 14.74 8.055 15.125 7.845 15.435C 7.635 15.745 7.395 15.99 7.125 16.17C 6.865 16.35 6.6 16.49 6.33 16.59C 6.06 16.68 5.805 16.74 5.565 16.77C 5.325 16.79 5.125 16.8 4.965 16.8L 2.595 16.8ZM 1.17 7.29L 1.17 18L 4.845 18C 5.735 18 6.505 17.875 7.155 17.625C 7.805 17.375 8.34 17.015 8.76 16.545C 9.18 16.065 9.49 15.48 9.69 14.79C 9.89 14.09 9.99 13.29 9.99 12.39C 9.99 10.67 9.545 9.39 8.655 8.55C 7.765 7.71 6.495 7.29 4.845 7.29L 1.17 7.29ZM 16.9065 13.38L 12.4515 13.38C 12.4715 13.08 12.5365 12.8 12.6465 12.54C 12.7565 12.27 12.9065 12.035 13.0965 11.835C 13.2865 11.635 13.5115 11.48 13.7715 11.37C 14.0415 11.25 14.3415 11.19 14.6715 11.19C 14.9915 11.19 15.2815 11.25 15.5415 11.37C 15.8115 11.48 16.0415 11.635 16.2315 11.835C 16.4315 12.025 16.5865 12.255 16.6965 12.525C 16.8165 12.795 16.8865 13.08 16.9065 13.38ZM 18.1365 15.54L 16.8765 15.54C 16.7665 16.05 16.5365 16.43 16.1865 16.68C 15.8465 16.93 15.4065 17.055 14.8665 17.055C 14.4465 17.055 14.0815 16.985 13.7715 16.845C 13.4615 16.705 13.2065 16.52 13.0065 16.29C 12.8065 16.05 12.6615 15.78 12.5715 15.48C 12.4815 15.17 12.4415 14.845 12.4515 14.505L 18.2565 14.505C 18.2765 14.035 18.2315 13.54 18.1215 13.02C 18.0215 12.5 17.8315 12.02 17.5515 11.58C 17.2815 11.14 16.9165 10.78 16.4565 10.5C 16.0065 10.21 15.4365 10.065 14.7465 10.065C 14.2165 10.065 13.7265 10.165 13.2765 10.365C 12.8365 10.565 12.4515 10.845 12.1215 11.205C 11.8015 11.565 11.5515 11.99 11.3715 12.48C 11.1915 12.97 11.1015 13.51 11.1015 14.1C 11.1215 14.69 11.2065 15.235 11.3565 15.735C 11.5165 16.235 11.7515 16.665 12.0615 17.025C 12.3715 17.385 12.7515 17.665 13.2015 17.865C 13.6615 18.065 14.2015 18.165 14.8215 18.165C 15.7015 18.165 16.4315 17.945 17.0115 17.505C 17.5915 17.065 17.9665 16.41 18.1365 15.54ZM 20.3582 15.555L 19.0832 15.555C 19.1032 16.035 19.2032 16.445 19.3832 16.785C 19.5632 17.115 19.8032 17.385 20.1032 17.595C 20.4032 17.795 20.7482 17.94 21.1382 18.03C 21.5282 18.12 21.9382 18.165 22.3682 18.165C 22.7582 18.165 23.1482 18.125 23.5382 18.045C 23.9382 17.975 24.2932 17.845 24.6032 17.655C 24.9232 17.465 25.1782 17.215 25.3682 16.905C 25.5682 16.595 25.6682 16.205 25.6682 15.735C 25.6682 15.365 25.5932 15.055 25.4432 14.805C 25.3032 14.555 25.1132 14.35 24.8732 14.19C 24.6432 14.02 24.3732 13.885 24.0632 13.785C 23.7632 13.685 23.4532 13.6 23.1332 13.53C 22.8332 13.46 22.5332 13.395 22.2332 13.335C 21.9332 13.265 21.6632 13.185 21.4232 13.095C 21.1832 12.995 20.9832 12.875 20.8232 12.735C 20.6732 12.585 20.5982 12.4 20.5982 12.18C 20.5982 11.98 20.6482 11.82 20.7482 11.7C 20.8482 11.57 20.9782 11.47 21.1382 11.4C 21.2982 11.32 21.4732 11.265 21.6632 11.235C 21.8632 11.205 22.0582 11.19 22.2482 11.19C 22.4582 11.19 22.6632 11.215 22.8632 11.265C 23.0732 11.305 23.2632 11.375 23.4332 11.475C 23.6032 11.575 23.7432 11.71 23.8532 11.88C 23.9632 12.04 24.0282 12.245 24.0482 12.495L 25.3232 12.495C 25.2932 12.025 25.1932 11.635 25.0232 11.325C 24.8532 11.005 24.6232 10.755 24.3332 10.575C 24.0532 10.385 23.7282 10.255 23.3582 10.185C 22.9882 10.105 22.5832 10.065 22.1432 10.065C 21.8032 10.065 21.4582 10.11 21.1082 10.2C 20.7682 10.28 20.4582 10.41 20.1782 10.59C 19.9082 10.76 19.6832 10.985 19.5032 11.265C 19.3332 11.545 19.2482 11.88 19.2482 12.27C 19.2482 12.77 19.3732 13.16 19.6232 13.44C 19.8732 13.72 20.1832 13.94 20.5532 14.1C 20.9332 14.25 21.3432 14.37 21.7832 14.46C 22.2232 14.54 22.6282 14.635 22.9982 14.745C 23.3782 14.845 23.6932 14.98 23.9432 15.15C 24.1932 15.32 24.3182 15.57 24.3182 15.9C 24.3182 16.14 24.2582 16.34 24.1382 16.5C 24.0182 16.65 23.8632 16.765 23.6732 16.845C 23.4932 16.925 23.2932 16.98 23.0732 17.01C 22.8532 17.04 22.6432 17.055 22.4432 17.055C 22.1832 17.055 21.9282 17.03 21.6782 16.98C 21.4382 16.93 21.2182 16.85 21.0182 16.74C 20.8282 16.62 20.6732 16.465 20.5532 16.275C 20.4332 16.075 20.3682 15.835 20.3582 15.555ZM 28.4282 8.85L 28.4282 7.29L 27.1532 7.29L 27.1532 8.85L 28.4282 8.85ZM 27.1532 10.245L 27.1532 18L 28.4282 18L 28.4282 10.245L 27.1532 10.245ZM 37.0934 17.34L 37.0934 10.245L 35.8934 10.245L 35.8934 11.355L 35.8784 11.355C 35.6484 10.925 35.3284 10.605 34.9184 10.395C 34.5084 10.175 34.0584 10.065 33.5684 10.065C 32.8984 10.065 32.3334 10.195 31.8734 10.455C 31.4134 10.705 31.0434 11.03 30.7634 11.43C 30.4834 11.82 30.2834 12.26 30.1634 12.75C 30.0434 13.23 29.9834 13.7 29.9834 14.16C 29.9834 14.69 30.0534 15.195 30.1934 15.675C 30.3434 16.145 30.5634 16.56 30.8534 16.92C 31.1434 17.27 31.5034 17.55 31.9334 17.76C 32.3634 17.97 32.8684 18.075 33.4484 18.075C 33.9484 18.075 34.4184 17.965 34.8584 17.745C 35.3084 17.515 35.6434 17.16 35.8634 16.68L 35.8934 16.68L 35.8934 17.19C 35.8934 17.62 35.8484 18.015 35.7584 18.375C 35.6784 18.735 35.5434 19.04 35.3534 19.29C 35.1634 19.55 34.9234 19.75 34.6334 19.89C 34.3434 20.04 33.9884 20.115 33.5684 20.115C 33.3584 20.115 33.1384 20.09 32.9084 20.04C 32.6784 20 32.4634 19.93 32.2634 19.83C 32.0734 19.73 31.9084 19.6 31.7684 19.44C 31.6384 19.28 31.5684 19.085 31.5584 18.855L 30.2834 18.855C 30.3034 19.275 30.4134 19.63 30.6134 19.92C 30.8134 20.21 31.0634 20.445 31.3634 20.625C 31.6734 20.805 32.0134 20.935 32.3834 21.015C 32.7634 21.095 33.1334 21.135 33.4934 21.135C 34.7334 21.135 35.6434 20.82 36.2234 20.19C 36.8034 19.56 37.0934 18.61 37.0934 17.34ZM 33.5234 16.965C 33.1034 16.965 32.7534 16.88 32.4734 16.71C 32.1934 16.53 31.9684 16.3 31.7984 16.02C 31.6284 15.73 31.5084 15.41 31.4384 15.06C 31.3684 14.71 31.3334 14.36 31.3334 14.01C 31.3334 13.64 31.3734 13.285 31.4534 12.945C 31.5434 12.605 31.6784 12.305 31.8584 12.045C 32.0484 11.785 32.2884 11.58 32.5784 11.43C 32.8684 11.27 33.2184 11.19 33.6284 11.19C 34.0284 11.19 34.3684 11.27 34.6484 11.43C 34.9284 11.59 35.1534 11.805 35.3234 12.075C 35.5034 12.335 35.6334 12.63 35.7134 12.96C 35.7934 13.29 35.8334 13.625 35.8334 13.965C 35.8334 14.325 35.7884 14.685 35.6984 15.045C 35.6184 15.405 35.4884 15.73 35.3084 16.02C 35.1284 16.3 34.8884 16.53 34.5884 16.71C 34.2984 16.88 33.9434 16.965 33.5234 16.965ZM 39.0166 10.245L 39.0166 18L 40.2916 18L 40.2916 13.62C 40.2916 13.27 40.3366 12.95 40.4266 12.66C 40.5266 12.36 40.6716 12.1 40.8616 11.88C 41.0516 11.66 41.2866 11.49 41.5666 11.37C 41.8566 11.25 42.1966 11.19 42.5866 11.19C 43.0766 11.19 43.4616 11.33 43.7416 11.61C 44.0216 11.89 44.1616 12.27 44.1616 12.75L 44.1616 18L 45.4366 18L 45.4366 12.9C 45.4366 12.48 45.3916 12.1 45.3016 11.76C 45.2216 11.41 45.0766 11.11 44.8666 10.86C 44.6566 10.61 44.3816 10.415 44.0416 10.275C 43.7016 10.135 43.2766 10.065 42.7666 10.065C 41.6166 10.065 40.7766 10.535 40.2466 11.475L 40.2166 11.475L 40.2166 10.245L 39.0166 10.245Z"/>
<path id="path17_fill" d="M 0 0L 195 0L 195 26L 0 26L 0 0Z"/>
<path id="path18_fill" d="M 13.0579 13.385L 9.48793 13.385L 13.0279 8.18L 13.0579 8.18L 13.0579 13.385ZM 14.2579 13.385L 14.2579 6.365L 13.2379 6.365L 8.39293 13.28L 8.39293 14.51L 13.0579 14.51L 13.0579 17L 14.2579 17L 14.2579 14.51L 15.6979 14.51L 15.6979 13.385L 14.2579 13.385ZM 22.5179 9.08L 23.7929 9.08C 23.7129 8.2 23.4129 7.53 22.8929 7.07C 22.3729 6.6 21.6729 6.365 20.7929 6.365C 20.0329 6.365 19.4029 6.525 18.9029 6.845C 18.4029 7.165 18.0029 7.59 17.7029 8.12C 17.4029 8.65 17.1879 9.26 17.0579 9.95C 16.9379 10.63 16.8779 11.335 16.8779 12.065C 16.8779 12.625 16.9179 13.205 16.9979 13.805C 17.0879 14.405 17.2629 14.955 17.5229 15.455C 17.7829 15.955 18.1529 16.365 18.6329 16.685C 19.1129 17.005 19.7479 17.165 20.5379 17.165C 21.2079 17.165 21.7679 17.055 22.2179 16.835C 22.6779 16.605 23.0429 16.32 23.3129 15.98C 23.5929 15.63 23.7929 15.245 23.9129 14.825C 24.0329 14.405 24.0929 14 24.0929 13.61C 24.0929 13.12 24.0179 12.665 23.8679 12.245C 23.7179 11.825 23.5029 11.46 23.2229 11.15C 22.9529 10.84 22.6129 10.6 22.2029 10.43C 21.8029 10.25 21.3479 10.16 20.8379 10.16C 20.2579 10.16 19.7429 10.27 19.2929 10.49C 18.8529 10.71 18.4829 11.065 18.1829 11.555L 18.1529 11.525C 18.1629 11.115 18.2029 10.675 18.2729 10.205C 18.3429 9.735 18.4679 9.3 18.6479 8.9C 18.8379 8.49 19.0979 8.155 19.4279 7.895C 19.7579 7.625 20.1929 7.49 20.7329 7.49C 21.2429 7.49 21.6529 7.635 21.9629 7.925C 22.2729 8.215 22.4579 8.6 22.5179 9.08ZM 20.5979 11.285C 20.9579 11.285 21.2729 11.35 21.5429 11.48C 21.8129 11.61 22.0379 11.785 22.2179 12.005C 22.3979 12.215 22.5279 12.47 22.6079 12.77C 22.6979 13.06 22.7429 13.37 22.7429 13.7C 22.7429 14.01 22.6929 14.31 22.5929 14.6C 22.5029 14.88 22.3679 15.13 22.1879 15.35C 22.0079 15.57 21.7829 15.745 21.5129 15.875C 21.2529 15.995 20.9479 16.055 20.5979 16.055C 20.2479 16.055 19.9329 15.995 19.6529 15.875C 19.3829 15.745 19.1529 15.575 18.9629 15.365C 18.7829 15.155 18.6429 14.905 18.5429 14.615C 18.4429 14.325 18.3929 14.015 18.3929 13.685C 18.3929 13.355 18.4379 13.045 18.5279 12.755C 18.6279 12.455 18.7729 12.2 18.9629 11.99C 19.1529 11.77 19.3829 11.6 19.6529 11.48C 19.9229 11.35 20.2379 11.285 20.5979 11.285ZM 27.1479 9.38C 27.1479 9.15 27.1629 8.91 27.1929 8.66C 27.2229 8.4 27.2829 8.165 27.3729 7.955C 27.4729 7.735 27.6079 7.555 27.7779 7.415C 27.9479 7.265 28.1729 7.19 28.4529 7.19C 28.7429 7.19 28.9679 7.265 29.1279 7.415C 29.2979 7.555 29.4279 7.735 29.5179 7.955C 29.6079 8.165 29.6629 8.4 29.6829 8.66C 29.7129 8.91 29.7279 9.145 29.7279 9.365C 29.7279 9.595 29.7129 9.84 29.6829 10.1C 29.6529 10.36 29.5879 10.6 29.4879 10.82C 29.3979 11.03 29.2679 11.205 29.0979 11.345C 28.9279 11.485 28.6979 11.555 28.4079 11.555C 28.1279 11.555 27.9029 11.485 27.7329 11.345C 27.5729 11.195 27.4479 11.015 27.3579 10.805C 27.2679 10.585 27.2079 10.35 27.1779 10.1C 27.1579 9.84 27.1479 9.6 27.1479 9.38ZM 26.0229 9.41C 26.0229 9.82 26.0629 10.205 26.1429 10.565C 26.2329 10.925 26.3729 11.24 26.5629 11.51C 26.7529 11.78 27.0029 11.995 27.3129 12.155C 27.6229 12.305 28.0029 12.38 28.4529 12.38C 28.8929 12.38 29.2629 12.295 29.5629 12.125C 29.8629 11.955 30.1079 11.735 30.2979 11.465C 30.4979 11.185 30.6379 10.865 30.7179 10.505C 30.8079 10.135 30.8529 9.755 30.8529 9.365C 30.8529 8.955 30.8129 8.57 30.7329 8.21C 30.6629 7.84 30.5329 7.52 30.3429 7.25C 30.1629 6.98 29.9179 6.765 29.6079 6.605C 29.3079 6.445 28.9229 6.365 28.4529 6.365C 27.9929 6.365 27.6079 6.45 27.2979 6.62C 26.9879 6.78 26.7379 7 26.5479 7.28C 26.3579 7.56 26.2229 7.885 26.1429 8.255C 26.0629 8.615 26.0229 9 26.0229 9.41ZM 34.5579 14.18C 34.5579 13.95 34.5729 13.71 34.6029 13.46C 34.6329 13.2 34.6929 12.965 34.7829 12.755C 34.8829 12.535 35.0179 12.355 35.1879 12.215C 35.3579 12.065 35.5829 11.99 35.8629 11.99C 36.1529 11.99 36.3779 12.065 36.5379 12.215C 36.7079 12.355 36.8379 12.535 36.9279 12.755C 37.0179 12.965 37.0729 13.2 37.0929 13.46C 37.1229 13.71 37.1379 13.945 37.1379 14.165C 37.1379 14.395 37.1229 14.64 37.0929 14.9C 37.0629 15.16 36.9979 15.4 36.8979 15.62C 36.8079 15.83 36.6779 16.005 36.5079 16.145C 36.3379 16.285 36.1079 16.355 35.8179 16.355C 35.5379 16.355 35.3129 16.285 35.1429 16.145C 34.9829 15.995 34.8579 15.815 34.7679 15.605C 34.6779 15.385 34.6179 15.15 34.5879 14.9C 34.5679 14.64 34.5579 14.4 34.5579 14.18ZM 33.4329 14.21C 33.4329 14.62 33.4729 15.005 33.5529 15.365C 33.6429 15.725 33.7829 16.04 33.9729 16.31C 34.1629 16.57 34.4129 16.78 34.7229 16.94C 35.0329 17.09 35.4129 17.165 35.8629 17.165C 36.3029 17.165 36.6729 17.085 36.9729 16.925C 37.2729 16.755 37.5179 16.535 37.7079 16.265C 37.9079 15.985 38.0479 15.665 38.1279 15.305C 38.2179 14.935 38.2629 14.555 38.2629 14.165C 38.2629 13.755 38.2229 13.37 38.1429 13.01C 38.0729 12.64 37.9429 12.32 37.7529 12.05C 37.5729 11.78 37.3279 11.565 37.0179 11.405C 36.7179 11.245 36.3329 11.165 35.8629 11.165C 35.4029 11.165 35.0179 11.25 34.7079 11.42C 34.3979 11.58 34.1479 11.8 33.9579 12.08C 33.7679 12.36 33.6329 12.685 33.5529 13.055C 33.4729 13.415 33.4329 13.8 33.4329 14.21ZM 35.5329 6.17L 27.4629 17.315L 28.7529 17.315L 36.8079 6.17L 35.5329 6.17Z"/>
<path id="path19_stroke" d="M 0 0L 206.786 0L 206.786 -1L 0 -1L 0 0Z"/>
</defs>
</svg>
