<?xml version="1.0" encoding="UTF-8"?>
<svg width="125px" height="17px" viewBox="0 0 125 17" version="1.1" xmlns="http://www.w3.org/2000/svg" xmlns:xlink="http://www.w3.org/1999/xlink">
    <!-- Generator: Sketch 45.2 (43514) - http://www.bohemiancoding.com/sketch -->
    <title>logo</title>
    <desc>Created with Sketch.</desc>
    <defs></defs>
    <g id="Page-1" stroke="none" stroke-width="1" fill="none" fill-rule="evenodd">
        <g id="iPhone-SE" transform="translate(-98.000000, -46.000000)">
            <g id="Logo" transform="translate(98.000000, 46.000000)">
                <g id="UX-Brighton-2017-logo">
                    <path d="M23.7061757,12.6495554 L29.5329937,12.6495554 C30.2131598,12.6495554 30.7894279,12.61417 31.3827122,12.4174535 C32.6559991,11.9701877 33.6503149,10.7186149 33.6503149,9.05499413 C33.6503149,7.62532 32.9349704,6.3913561 31.6094888,5.99758778 L31.6094888,5.9622023 C32.56879,5.46160673 33.161747,4.47768906 33.161747,3.24422827 C33.161747,1.8849897 32.4465662,0.84790996 31.4699213,0.400979572 C30.8591296,0.114709338 30.1961435,0.0254909639 29.3063806,0.0254909639 L23.7061757,0.0254909639 L23.7061757,1.40267383 L25.2412539,1.40267383 L25.2412539,11.2552668 L23.7061757,11.2552668 L23.7061757,12.6495554 L23.7061757,12.6495554 Z M26.9862559,5.33633206 L26.9862559,1.4915568 L29.3065442,1.4915568 C29.8301265,1.4915568 30.231158,1.56299858 30.5801584,1.74227385 C31.1035772,2.04615296 31.3828758,2.67202321 31.3828758,3.40488842 C31.3828758,4.54946625 30.6850386,5.33616435 29.568499,5.33616435 L26.9862559,5.33633206 L26.9862559,5.33633206 Z M26.9862559,11.1834896 L26.9862559,6.80273331 L29.7425901,6.80273331 C31.0337116,6.80273331 31.8709528,7.66070547 31.8709528,8.96544034 C31.8709528,9.91346941 31.4175631,10.7008383 30.7022186,11.0047175 C30.3705618,11.1479364 29.9516958,11.1829865 29.6031863,11.1829865 L26.9862559,11.1829865 L26.9862559,11.1834896 L26.9862559,11.1834896 Z" id="Shape" fill="#C9003A" fill-rule="nonzero"></path>
                    <path d="M34.360587,12.6495554 L38.6871778,12.6495554 L38.6871778,11.3087643 L37.3787125,11.3087643 L37.3787125,8.91177516 C37.3787125,7.14233332 38.1812663,5.19311309 40.0656719,5.19311309 C40.3446432,5.19311309 40.553749,5.24661056 40.553749,5.24661056 L40.553749,3.5303308 C40.553749,3.5303308 40.3444797,3.49427451 40.1175395,3.49427451 C38.7568795,3.49427451 37.7275493,4.53168966 37.3260271,5.85453651 L37.2913398,5.85453651 C37.2913398,5.85453651 37.3260271,5.5863783 37.3260271,5.22883397 L37.3260271,4.65662893 C37.3260271,3.92342831 36.9598465,3.60160489 36.1923076,3.60160489 L34.2035124,3.60160489 L34.2035124,4.94273144 L35.3027082,4.94273144 C35.5468286,4.94273144 35.6863959,5.06783841 35.6863959,5.33616435 L35.6863959,11.3084289 L34.3604235,11.3084289 L34.3604235,12.6497231 L34.360587,12.6495554 L34.360587,12.6495554 Z" id="Shape" fill="#C9003A" fill-rule="nonzero"></path>
                    <path d="M42.6644406,1.79627444 L44.4436391,1.79627444 L44.4436391,0.0258263714 L42.6644406,0.0258263714 L42.6644406,1.79627444 L42.6644406,1.79627444 Z M41.3207973,12.6495554 L45.7871189,12.6495554 L45.7871189,11.3087643 L44.3912809,11.3087643 L44.3912809,3.60177259 L41.2335882,3.60177259 L41.2335882,4.94306685 L42.6989643,4.94306685 L42.6989643,11.3090997 L41.3206337,11.3090997 L41.3206337,12.6495554 L41.3207973,12.6495554 L41.3207973,12.6495554 Z" id="Shape" fill="#C9003A" fill-rule="nonzero"></path>
                    <path d="M47.2205894,14.330282 L46.6619924,15.6543028 C47.534248,16.1010655 48.6161003,16.40528 49.6802814,16.40528 C51.9135241,16.40528 54.1287685,15.2607022 54.1287685,12.2747377 L54.1287685,5.30077888 C54.1287685,5.06817382 54.2856796,4.94306685 54.5131109,4.94306685 L55.4899192,4.94306685 L55.4899192,3.60177259 L53.6058406,3.60177259 C52.8729888,3.60177259 52.5940177,3.94154031 52.5940177,4.51374537 C52.5940177,4.74651811 52.628705,4.87179278 52.628705,4.87179278 L52.5940177,4.87179278 C52.1057769,3.83437763 50.8846847,3.38727954 49.7329669,3.38727954 C47.2732749,3.38727954 45.8599297,5.31838776 45.8599297,7.91125482 C45.8599297,10.5217308 47.3603205,12.5422251 49.8026689,12.5422251 C51.0937904,12.5422251 51.931195,11.9703554 52.4546137,11.0763269 L52.4893011,11.0763269 C52.4893011,11.0763269 52.4371064,11.3620941 52.4371064,11.6483643 L52.4371064,12.3636206 C52.4371064,14.2237902 51.1809995,14.9387111 49.6455941,14.9387111 C48.3192943,14.9383757 47.2205894,14.330282 47.2205894,14.330282 L47.2205894,14.330282 L47.2205894,14.330282 Z M50.1338346,11.0406061 C48.5459074,11.0406061 47.5866062,9.75264156 47.5866062,7.87570164 C47.5866062,6.0338118 48.4591892,4.88906626 49.9765964,4.88906626 C51.3550906,4.88906626 52.4716302,5.56860171 52.4716302,7.92903142 C52.4714666,10.2887903 51.3550906,11.0406061 50.1338346,11.0406061 L50.1338346,11.0406061 L50.1338346,11.0406061 Z" id="Shape" fill="#C9003A" fill-rule="nonzero"></path>
                    <path d="M55.2755777,12.6495554 L59.7409175,12.6495554 L59.7409175,11.3087643 L58.3458978,11.3087643 L58.3458978,8.41151498 C58.3458978,6.48057448 59.5666629,4.97862005 61.2939939,4.97862005 C62.7066847,4.97862005 62.968476,5.97997889 62.968476,7.2498314 L62.968476,12.6500586 L66.0391232,12.6500586 L66.0391232,11.3092674 L64.6612835,11.3092674 L64.6612835,6.85606308 C64.6612835,4.54946625 63.7014914,3.38694413 61.6258143,3.38694413 C59.8637959,3.38694413 58.7127326,4.58501944 58.3287178,5.46110362 L58.294194,5.46110362 C58.294194,5.46110362 58.3460613,5.1391125 58.3460613,4.7099587 L58.3460613,0.0253232603 L55.1885322,0.0253232603 L55.1885322,1.36628213 L56.6712521,1.36628213 L56.6712521,11.3085966 L55.275905,11.3085966 L55.2755777,12.6495554 L55.2755777,12.6495554 Z" id="Shape" fill="#C9003A" fill-rule="nonzero"></path>
                    <path d="M66.8887993,9.34143208 C66.8887993,12.3636206 69.1390584,12.7211649 70.2559251,12.7211649 C70.6222693,12.7211649 70.8663897,12.6856118 70.8663897,12.6856118 L70.8663897,11.2378256 C70.8663897,11.2378256 70.7091512,11.2552668 70.4648673,11.2552668 C69.801881,11.2552668 68.5802979,11.0224941 68.5802979,9.18010111 L68.5802979,4.94289915 L70.691153,4.94289915 L70.691153,3.60160489 L68.5802979,3.60160489 L68.5802979,1.1164036 L66.9228322,1.1164036 L66.9228322,3.6019403 L65.4047705,3.6019403 L65.4047705,4.94323456 L66.8879813,4.94323456 L66.8879813,9.34143208 L66.8887993,9.34143208 L66.8887993,9.34143208 Z" id="Shape" fill="#C9003A" fill-rule="nonzero"></path>
                    <path d="M70.7420388,8.10763586 C70.7420388,10.8616662 72.8697469,12.8640485 75.5045117,12.8640485 C78.1394403,12.8640485 80.2679663,10.8611631 80.2679663,8.10763586 C80.2679663,5.37205294 78.1396038,3.38711183 75.5045117,3.38711183 C72.8697469,3.38711183 70.7420388,5.37205294 70.7420388,8.10763586 L70.7420388,8.10763586 L70.7420388,8.10763586 Z M72.4690427,8.10763586 C72.4690427,6.23052824 73.8300296,4.88906626 75.5045117,4.88906626 C77.16165,4.88906626 78.5401444,6.23036054 78.5401444,8.10763586 C78.5401444,10.0030232 77.1618136,11.3619264 75.5045117,11.3619264 C73.8305205,11.3617587 72.4690427,10.0030232 72.4690427,8.10763586 L72.4690427,8.10763586 L72.4690427,8.10763586 Z" id="Shape" fill="#C9003A" fill-rule="nonzero"></path>
                    <path d="M80.5680445,12.6495554 L85.0348571,12.6495554 L85.0348571,11.3087643 L83.6386918,11.3087643 L83.6386918,8.4475713 C83.6386918,6.64157004 84.8074259,4.97845235 86.5876062,4.97845235 C88.0001334,4.97845235 88.2450718,5.97981119 88.2450718,7.2496637 L88.2450718,12.6498909 L91.3327355,12.6498909 L91.3327355,11.3090997 L89.9370611,11.3090997 L89.9370611,6.85589537 C89.9370611,4.54929855 89.0296273,3.38677642 87.006145,3.38677642 C84.7727385,3.38677642 83.7432447,5.10305621 83.5691534,5.58604289 L83.5343025,5.58604289 C83.5343025,5.58604289 83.5864972,5.35360554 83.5864972,5.067503 L83.5864972,4.60279603 C83.5864972,3.94103719 83.2371695,3.60126948 82.4699576,3.60126948 L80.4811627,3.60126948 L80.4811627,4.94256374 L81.5628511,4.94256374 C81.8072986,4.94256374 81.947357,5.06767071 81.947357,5.33582895 L81.947357,11.3082612 L80.5686991,11.3082612 L80.5686991,12.6490523 L80.5680445,12.6490523 L80.5680445,12.6495554 L80.5680445,12.6495554 Z" id="Shape" fill="#C9003A" fill-rule="nonzero"></path>
                    <path d="M1.30699261,8.33722224 C1.30699261,9.52188125 1.58416406,10.5653337 2.23209729,11.3240253 C3.03350564,12.2722221 4.40627329,12.8412408 5.97898398,12.8412408 C7.42832557,12.8412408 8.89353825,12.3512105 9.74125091,11.2769006 C10.3116285,10.5500727 10.651139,9.45882467 10.651139,8.33738995 L10.651139,3.40606235 L11.8848301,3.40606235 L11.8848301,1.35118879 L6.54854348,1.35118879 L6.54854348,3.40606235 L7.58441858,3.40606235 L7.58441858,8.33722224 C7.58441858,8.85777456 7.50669931,9.26931947 7.33849846,9.60137282 C7.0536369,10.1388632 6.58764855,10.391425 5.99190992,10.391425 C5.35739348,10.391425 4.8526273,10.0910677 4.60687081,9.58493785 C4.46403099,9.28474822 4.37371302,8.84217812 4.37371302,8.33705454 L4.37371302,3.40606235 L5.40942448,3.40606235 L5.40942448,1.35118879 L0.0729742997,1.35118879 L0.0729742997,3.40606235 L1.30682899,3.40606235 L1.30682899,8.33705454 L1.30699261,8.33705454 L1.30699261,8.33722224 L1.30699261,8.33722224 Z" id="Shape" fill="#108BC1" fill-rule="nonzero"></path>
                    <path d="M11.5499009,12.6517356 L16.7408934,12.6517356 L16.7408934,10.596862 L15.7850282,10.596862 L16.8181218,9.11117488 C17.0190465,8.81081753 17.1267082,8.57385218 17.157305,8.57385218 L17.1882291,8.57385218 C17.1882291,8.57385218 17.3269784,8.82674937 17.5427926,9.11117488 L18.6531145,10.596862 L17.6661617,10.596862 L17.6661617,12.6517356 L23.1114189,12.6517356 L23.1114189,10.596862 L21.949066,10.596862 L19.2966301,7.07307168 L21.9950429,3.40639776 L23.1416885,3.40639776 L23.1416885,1.35118879 L17.9433331,1.35118879 L17.9433331,3.40606235 L18.8686014,3.40606235 L17.8505609,4.82852523 C17.6345831,5.12871486 17.5115412,5.36601561 17.5115412,5.34974836 L17.4807808,5.34974836 C17.4807808,5.34974836 17.3417042,5.11261531 17.1262173,4.82852523 L16.0777435,3.40606235 L17.0336087,3.40606235 L17.0336087,1.35118879 L11.8561966,1.35118879 L11.8561966,3.40606235 L12.7811377,3.40606235 L15.3715617,6.88306338 L12.657605,10.596862 L11.5494101,10.596862 L11.5499009,12.6517356 L11.5499009,12.6517356 Z" id="Shape" fill="#108BC1" fill-rule="nonzero"></path>
                    <path d="M93.4457884,12.6499182 L100.197492,12.6499182 L100.197492,10.2934582 L99.2662225,10.2934582 L99.2662225,11.75506 L94.4789154,11.75506 C94.4934665,8.90642799 99.7173061,8.41425597 99.7173061,4.92430893 C99.7173061,3.28373554 98.5386682,1.98619112 96.6033739,1.98619112 C94.4207111,1.98619112 93.5039927,3.88030768 93.5039927,3.88030768 L94.231547,4.387394 C94.231547,4.387394 95.0318567,2.94070655 96.5451695,2.94070655 C97.825665,2.94070655 98.669628,3.79082186 98.669628,4.95413754 C98.669628,7.84751243 93.387584,8.29494154 93.387584,11.9787745 C93.387584,12.1875748 93.4021351,12.4112893 93.4457884,12.6499182 Z M105.479536,12.8288898 C102.816687,12.8288898 101.958173,10.4426013 101.958173,7.40008333 C101.958173,4.387394 102.816687,1.98619112 105.479536,1.98619112 C108.142384,1.98619112 109.01545,4.387394 109.01545,7.40008333 C109.01545,10.4426013 108.142384,12.8288898 105.479536,12.8288898 Z M105.479536,11.8743744 C107.429381,11.8743744 107.967771,9.92060063 107.967771,7.40008333 C107.967771,4.89448032 107.429381,2.94070655 105.479536,2.94070655 C103.544242,2.94070655 103.005851,4.89448032 103.005851,7.40008333 C103.005851,9.92060063 103.544242,11.8743744 105.479536,11.8743744 Z M110.703375,12.6499182 L116.232788,12.6499182 L116.232788,11.75506 L113.991921,11.75506 L113.991921,2.16516277 L113.0461,2.16516277 L110.732478,4.52162273 L111.372725,5.17785209 L112.464057,4.07419363 C112.871487,3.67150743 112.973345,3.44779288 112.973345,3.44779288 L113.002447,3.44779288 C113.002447,3.44779288 112.987896,3.73116464 112.987896,4.02945072 L112.987896,11.75506 L110.703375,11.75506 L110.703375,12.6499182 Z M118.226287,12.6499182 L119.273965,12.6499182 L124.017618,2.88104934 L124.017618,2.16516277 L117.164057,2.16516277 L117.164057,4.49179413 L118.080776,4.49179413 L118.080776,3.06002098 L122.358795,3.06002098 C122.649816,3.06002098 122.897185,3.03019238 122.897185,3.03019238 L122.897185,3.06002098 C122.897185,3.06002098 122.766225,3.20916402 122.620714,3.52236439 L118.226287,12.6499182 Z" id="2017" fill="#E16400" fill-rule="nonzero"></path>
                </g>
            </g>
        </g>
    </g>
</svg>