<?xml version="1.0" encoding="UTF-8"?>
<svg width="256px" height="256px" viewBox="0 0 256 256" version="1.1" xmlns="http://www.w3.org/2000/svg" xmlns:xlink="http://www.w3.org/1999/xlink">
    <!-- Generator: Sketch 46.2 (44496) - http://www.bohemiancoding.com/sketch -->
    <title>placeholder</title>
    <desc>Created with Sketch.</desc>
    <defs>
        <path d="M0,0.271887404 L256,0.271887404 L256,254.87298 L0,254.87298 L0,0.271887404 Z M153.20695,132.613824 L163.28973,132.613824 L163.28973,122.531044 L153.20695,122.531044 L153.20695,132.613824 Z M122.95861,132.613824 L133.04139,132.613824 L133.04139,122.531044 L122.95861,122.531044 L122.95861,132.613824 Z M92.7102698,132.613824 L102.79305,132.613824 L102.79305,122.531044 L92.7102698,122.531044 L92.7102698,132.613824 Z" id="path-1"></path>
    </defs>
    <g id="Symbols" stroke="none" stroke-width="1" fill="none" fill-rule="evenodd">
        <g id="placeholder">
            <g id="Group-3">
                <g id="Combined-Shape">
                    <use fill-opacity="0.07" fill="#000000" fill-rule="evenodd" xlink:href="#path-1"></use>
                    <path stroke-opacity="0.0994112319" stroke="#000000" stroke-width="2" d="M-1,-0.728112596 L257,-0.728112596 L257,255.87298 L-1,255.87298 L-1,-0.728112596 Z M154.20695,123.531044 L154.20695,122.531044 L153.20695,123.531044 L154.20695,123.531044 Z M162.28973,123.531044 L163.28973,123.531044 L162.28973,122.531044 L162.28973,123.531044 Z M162.28973,131.613824 L162.28973,132.613824 L163.28973,131.613824 L162.28973,131.613824 Z M154.20695,131.613824 L153.20695,131.613824 L154.20695,132.613824 L154.20695,131.613824 Z M154.20695,131.613824 L154.20695,123.531044 L162.28973,123.531044 L162.28973,131.613824 L154.20695,131.613824 Z M123.95861,123.531044 L123.95861,122.531044 L122.95861,123.531044 L123.95861,123.531044 Z M132.04139,123.531044 L133.04139,123.531044 L132.04139,122.531044 L132.04139,123.531044 Z M132.04139,131.613824 L132.04139,132.613824 L133.04139,131.613824 L132.04139,131.613824 Z M123.95861,131.613824 L122.95861,131.613824 L123.95861,132.613824 L123.95861,131.613824 Z M123.95861,131.613824 L123.95861,123.531044 L132.04139,123.531044 L132.04139,131.613824 L123.95861,131.613824 Z M93.7102698,131.613824 L101.79305,131.613824 L101.79305,123.531044 L93.7102698,123.531044 L93.7102698,131.613824 Z"></path>
                </g>
            </g>
        </g>
    </g>
</svg>