<?xml version="1.0" encoding="UTF-8"?>
<svg width="274px" height="160px" viewBox="0 0 274 160" version="1.1" xmlns="http://www.w3.org/2000/svg" xmlns:xlink="http://www.w3.org/1999/xlink">
    <!-- Generator: Sketch 45.2 (43514) - http://www.bohemiancoding.com/sketch -->
    <title>subtitle</title>
    <desc>Created with Sketch.</desc>
    <defs></defs>
    <g id="Page-1" stroke="none" stroke-width="1" fill="none" fill-rule="evenodd">
        <g id="iPhone-SE" transform="translate(-23.000000, -97.000000)" fill="#D0021B">
            <g id="designing-for-complexity-subtitle" transform="translate(23.000000, 97.000000)">
                <path d="M14.3713249,36.0790893 L14.3713249,33.1024361 L18.9462795,33.1024361 L18.9462795,2.97665317 L14.3713249,2.97665317 L14.3713249,0 L29.1404719,0 C32.1241379,0 34.2624319,0.205286426 36.599637,0.923788915 C43.2134301,3.13061799 47.3905626,9.34053237 47.3905626,18.0652055 C47.3905626,26.9438434 43.1139746,33.0511145 36.1520871,35.206622 C33.9640653,35.9251245 31.7263158,36.0790893 29.1404719,36.0790893 L14.3713249,36.0790893 Z M22.4272232,32.9997929 L28.8421053,32.9997929 C31.1793103,32.9997929 33.1186933,32.7945065 35.0580762,32.1273256 C40.3789474,30.3310694 43.7604356,25.3528736 43.7604356,18.0652055 C43.7604356,10.8801806 40.5281307,5.79934152 35.3067151,3.90044209 C33.2678766,3.1819396 31.2787659,3.07929638 28.8421053,3.07929638 L22.4272232,3.07929638 L22.4272232,32.9997929 Z M52.6119782,23.1973661 C52.6119782,14.729301 58.1814882,9.648462 64.9444646,9.648462 C71.8566243,9.648462 75.4370236,15.1398739 75.4370236,21.5550747 C75.4370236,22.170934 75.2878403,23.1973661 75.2878403,23.1973661 L56.092922,23.1973661 C56.2421053,29.8178533 60.6181488,33.5643306 65.7898367,33.5643306 C70.3647913,33.5643306 73.3981851,30.4850342 73.3981851,30.4850342 L74.9397459,33.1024361 C74.9397459,33.1024361 71.3593466,36.6949486 65.6903811,36.6949486 C58.231216,36.6949486 52.6119782,31.1522151 52.6119782,23.1973661 Z M56.2421053,20.6312858 L71.9063521,20.6312858 C71.707441,15.1911955 68.5248639,12.5737936 64.8450091,12.5737936 C60.6678766,12.5737936 57.0377495,15.3964819 56.2421053,20.6312858 Z M79.9622505,30.5876774 C79.9622505,34.5394411 84.7858439,36.6949486 89.4105263,36.6949486 C94.9800363,36.6949486 98.8588022,33.8722602 98.8588022,29.4072805 C98.8588022,24.7883359 94.5822142,23.0947229 90.7034483,21.6577179 C87.4214156,20.4259993 84.3880218,19.2456024 84.3880218,16.422914 C84.3880218,13.9081553 86.8744102,12.6764368 89.6591652,12.6764368 C92.2947368,12.6764368 94.7811252,13.8568337 94.7811252,15.7557332 L94.7811252,17.6546326 L97.8642468,17.6546326 L97.8642468,14.6779794 C97.8642468,11.1367886 92.9411978,9.648462 89.5597096,9.648462 C85.3825771,9.648462 80.907078,11.8039695 80.907078,16.5255573 C80.907078,21.0418586 84.8852995,22.7867932 88.6646098,24.2237982 C92.2450091,25.6094816 95.4275862,26.6359137 95.4275862,29.6125669 C95.4275862,32.2299688 92.7422868,33.6669738 89.5597096,33.6669738 C86.6754991,33.6669738 83.0453721,32.5378985 83.0453721,29.9204965 L83.0453721,28.0729187 L79.9622505,28.0729187 L79.9622505,30.5876774 Z M107.411978,4.36233654 L111.241016,4.36233654 L111.241016,0 L107.411978,0 L107.411978,4.36233654 Z M103.384029,36.0790893 L115.219238,36.0790893 L115.219238,33.2050793 L110.992377,33.2050793 L110.992377,10.2643213 L103.13539,10.2643213 L103.13539,13.1383312 L107.610889,13.1383312 L107.610889,33.2050793 L103.384029,33.2050793 L103.384029,36.0790893 Z M122.479492,41.981074 C122.479492,41.981074 125.562613,43.7773303 129.242468,43.7773303 C134.115789,43.7773303 137.994555,41.4165364 137.994555,35.6171948 L137.994555,33.0511145 C137.994555,32.076004 138.143739,31.2035367 138.143739,31.2035367 L138.044283,31.2035367 C136.55245,34.0775467 133.966606,35.9251245 130.08784,35.9251245 C123.374592,35.9251245 118.94882,30.4337126 118.94882,22.68415 C118.94882,14.9345875 123.076225,9.648462 129.789474,9.648462 C133.320145,9.648462 136.850817,11.0341454 138.193466,14.216085 L138.292922,14.216085 C138.292922,14.216085 138.193466,13.8568337 138.193466,13.0870096 C138.193466,11.1881102 138.939383,10.2643213 141.077677,10.2643213 L145.553176,10.2643213 L145.553176,13.1383312 L142.470054,13.1383312 C141.773866,13.1383312 141.376044,13.4975825 141.376044,14.216085 L141.376044,35.46323 C141.376044,43.674687 135.508167,46.8566266 129.341924,46.8566266 C126.507441,46.8566266 123.62323,46.0868026 121.18657,44.8037624 L122.479492,41.981074 Z M130.585118,32.7945065 C134.563339,32.7945065 138.044283,30.2797478 138.044283,22.68415 C138.044283,15.1398739 134.563339,12.77908 130.137568,12.77908 C125.264247,12.77908 122.429764,16.4742357 122.429764,22.6328284 C122.429764,28.8427428 125.662069,32.7945065 130.585118,32.7945065 Z M149.233031,36.0790893 L161.06824,36.0790893 L161.06824,33.2050793 L156.841379,33.2050793 L156.841379,23.6592606 C156.841379,17.9625622 160.819601,12.9330448 166.339383,12.9330448 C171.162976,12.9330448 171.809437,16.5255573 171.809437,20.5799642 L171.809437,36.0790893 L179.417786,36.0790893 L179.417786,33.2050793 L175.190926,33.2050793 L175.190926,19.6561753 C175.190926,13.2922961 173.052632,9.648462 166.886388,9.648462 C160.62069,9.648462 157.388385,14.5240146 156.692196,16.4742357 L156.59274,16.4742357 C156.59274,16.4742357 156.791652,15.65309 156.791652,14.6266578 L156.791652,13.1383312 C156.791652,11.1881102 155.846824,10.2643213 153.758258,10.2643213 L148.984392,10.2643213 L148.984392,13.1383312 L152.36588,13.1383312 C153.062069,13.1383312 153.459891,13.4975825 153.459891,14.2674066 L153.459891,33.2050793 L149.233031,33.2050793 L149.233031,36.0790893 Z M186.777495,4.36233654 L190.606534,4.36233654 L190.606534,0 L186.777495,0 L186.777495,4.36233654 Z M182.749546,36.0790893 L194.584755,36.0790893 L194.584755,33.2050793 L190.357895,33.2050793 L190.357895,10.2643213 L182.500907,10.2643213 L182.500907,13.1383312 L186.976407,13.1383312 L186.976407,33.2050793 L182.749546,33.2050793 L182.749546,36.0790893 Z M198.364065,36.0790893 L210.199274,36.0790893 L210.199274,33.2050793 L205.972414,33.2050793 L205.972414,23.6592606 C205.972414,17.9625622 209.950635,12.9330448 215.470417,12.9330448 C220.294011,12.9330448 220.940472,16.5255573 220.940472,20.5799642 L220.940472,36.0790893 L228.54882,36.0790893 L228.54882,33.2050793 L224.32196,33.2050793 L224.32196,19.6561753 C224.32196,13.2922961 222.183666,9.648462 216.017423,9.648462 C209.751724,9.648462 206.519419,14.5240146 205.82323,16.4742357 L205.723775,16.4742357 C205.723775,16.4742357 205.922686,15.65309 205.922686,14.6266578 L205.922686,13.1383312 C205.922686,11.1881102 204.977858,10.2643213 202.889292,10.2643213 L198.115426,10.2643213 L198.115426,13.1383312 L201.496915,13.1383312 C202.193103,13.1383312 202.590926,13.4975825 202.590926,14.2674066 L202.590926,33.2050793 L198.364065,33.2050793 L198.364065,36.0790893 Z M235.560436,41.981074 C235.560436,41.981074 238.643557,43.7773303 242.323412,43.7773303 C247.196733,43.7773303 251.075499,41.4165364 251.075499,35.6171948 L251.075499,33.0511145 C251.075499,32.076004 251.224682,31.2035367 251.224682,31.2035367 L251.125227,31.2035367 C249.633394,34.0775467 247.04755,35.9251245 243.168784,35.9251245 C236.455535,35.9251245 232.029764,30.4337126 232.029764,22.68415 C232.029764,14.9345875 236.157169,9.648462 242.870417,9.648462 C246.401089,9.648462 249.93176,11.0341454 251.27441,14.216085 L251.373866,14.216085 C251.373866,14.216085 251.27441,13.8568337 251.27441,13.0870096 C251.27441,11.1881102 252.020327,10.2643213 254.158621,10.2643213 L258.63412,10.2643213 L258.63412,13.1383312 L255.550998,13.1383312 C254.854809,13.1383312 254.456987,13.4975825 254.456987,14.216085 L254.456987,35.46323 C254.456987,43.674687 248.589111,46.8566266 242.422868,46.8566266 C239.588385,46.8566266 236.704174,46.0868026 234.267514,44.8037624 L235.560436,41.981074 Z M243.666062,32.7945065 C247.644283,32.7945065 251.125227,30.2797478 251.125227,22.68415 C251.125227,15.1398739 247.644283,12.77908 243.218512,12.77908 C238.345191,12.77908 235.510708,16.4742357 235.510708,22.6328284 C235.510708,28.8427428 238.743013,32.7945065 243.666062,32.7945065 Z M104.279129,92.6375943 L116.860254,92.6375943 L116.860254,89.7635844 L111.887477,89.7635844 L111.887477,69.6968363 L118.252632,69.6968363 L118.252632,66.8228263 L111.887477,66.8228263 L111.887477,65.4371429 C111.887477,59.945731 115.318693,59.3298718 117.009437,59.3298718 C118.053721,59.3298718 118.700181,59.4838366 118.700181,59.4838366 L118.700181,56.4558618 C118.700181,56.4558618 117.904537,56.301897 116.661343,56.301897 C114.075499,56.301897 108.505989,57.3283291 108.505989,65.4884645 L108.505989,66.8228263 L104.03049,66.8228263 L104.03049,69.6968363 L108.505989,69.6968363 L108.505989,89.7635844 L104.279129,89.7635844 L104.279129,92.6375943 Z M121.435209,79.6019063 C121.435209,71.9549869 127.352813,66.206967 134.613067,66.206967 C141.923049,66.206967 147.840653,71.9549869 147.840653,79.6019063 C147.840653,87.4027905 141.923049,93.2534536 134.613067,93.2534536 C127.352813,93.2534536 121.435209,87.4027905 121.435209,79.6019063 Z M124.916152,79.6019063 C124.916152,85.6065342 129.292196,90.1228356 134.613067,90.1228356 C139.983666,90.1228356 144.35971,85.6065342 144.35971,79.6019063 C144.35971,73.7512432 139.983666,69.337585 134.613067,69.337585 C129.292196,69.337585 124.916152,73.7512432 124.916152,79.6019063 Z M160.193987,71.8520794 L159.576407,70.7813683 L159.576407,71.4930925 C159.576407,72.5708462 159.476951,73.4433135 159.476951,73.4433135 L159.576407,73.4433135 C159.75195,72.8925567 159.95823,72.3602187 160.193987,71.8520794 Z M159.576407,70.7813683 L160.193987,71.8520794 C161.627849,68.7615925 164.152052,66.5662183 167.483122,66.5662183 C168.17931,66.5662183 168.875499,66.7201831 168.875499,66.7201831 L168.875499,70.1587307 C168.875499,70.1587307 168.229038,70.0560875 167.582577,70.0560875 C161.963339,70.0560875 159.675862,76.5739315 159.675862,81.7060922 L159.675862,89.7635844 L163.554628,89.7635844 L163.554628,92.6375943 L152.415608,92.6375943 L152.415608,89.7635844 L156.294374,89.7635844 L156.294374,70.8259116 C156.294374,70.0560875 155.896552,69.6968363 155.200363,69.6968363 L151.818875,69.6968363 L151.818875,66.8228263 L156.543013,66.8228263 C158.631579,66.8228263 159.576407,67.6952936 159.576407,69.7481579 L159.576407,70.7813683 Z M0,130.925607 C0,141.395215 7.50889292,149.811959 17.9517241,149.811959 C22.7753176,149.811959 31.2787659,147.913059 31.2787659,142.678255 L31.2787659,138.829135 L27.9470054,138.829135 L27.9470054,141.651823 C27.9470054,145.449622 20.8856624,146.578697 18.0511797,146.578697 C9.74664247,146.578697 3.63012704,139.804245 3.63012704,130.822964 C3.63012704,122.098291 9.74664247,115.734412 17.8522686,115.734412 C21.4326679,115.734412 27.4,117.120095 27.4,120.661286 L27.4,123.535296 L30.7317604,123.535296 L30.7317604,119.686176 C30.7317604,114.143442 21.9299456,112.501151 17.7030853,112.501151 C7.70780399,112.501151 0,120.404678 0,130.925607 Z M36.4504537,136.160411 C36.4504537,128.513492 42.3680581,122.765472 49.6283122,122.765472 C56.938294,122.765472 62.8558984,128.513492 62.8558984,136.160411 C62.8558984,143.961295 56.938294,149.811959 49.6283122,149.811959 C42.3680581,149.811959 36.4504537,143.961295 36.4504537,136.160411 Z M39.9313975,136.160411 C39.9313975,142.165039 44.307441,146.681341 49.6283122,146.681341 C54.9989111,146.681341 59.3749546,142.165039 59.3749546,136.160411 C59.3749546,130.309748 54.9989111,125.89609 49.6283122,125.89609 C44.307441,125.89609 39.9313975,130.309748 39.9313975,136.160411 Z M67.1822142,149.196099 L79.0174229,149.196099 L79.0174229,146.322089 L74.7905626,146.322089 L74.7905626,136.930235 C74.7905626,131.541467 78.2217786,125.947412 83.3437387,125.947412 C88.1176044,125.947412 88.614882,129.745211 88.614882,133.645653 L88.614882,149.196099 L96.2232305,149.196099 L96.2232305,146.322089 L91.9963702,146.322089 L91.9963702,136.827592 C91.9963702,131.490145 95.3281307,125.947412 100.400363,125.947412 C104.92559,125.947412 105.770962,129.437281 105.770962,133.645653 L105.770962,149.196099 L113.37931,149.196099 L113.37931,146.322089 L109.15245,146.322089 L109.15245,132.773185 C109.15245,126.409306 106.914701,122.765472 100.897641,122.765472 C96.6707804,122.765472 93.0406534,125.89609 91.6482759,129.334638 L91.5488203,129.334638 C90.8526316,124.972301 88.4656987,122.765472 83.9404719,122.765472 C79.9622505,122.765472 75.9343013,126.101376 74.6413793,129.591246 L74.5419238,129.591246 C74.5419238,129.591246 74.7408348,128.7701 74.7408348,127.743668 L74.7408348,126.255341 C74.7408348,124.30512 73.7960073,123.381331 71.707441,123.381331 L66.9335753,123.381331 L66.9335753,126.255341 L70.3150635,126.255341 C71.0112523,126.255341 71.4090744,126.614593 71.4090744,127.384417 L71.4090744,146.322089 L67.1822142,146.322089 L67.1822142,149.196099 Z M115.766243,156.586411 L119.993103,156.586411 L119.993103,127.384417 C119.993103,126.614593 119.595281,126.255341 118.899093,126.255341 L115.517604,126.255341 L115.517604,123.381331 L120.241742,123.381331 C122.380036,123.381331 123.225408,124.30512 123.225408,126.101376 L123.225408,126.306663 C123.225408,127.333095 123.076225,128.102919 123.076225,128.102919 L123.175681,128.102919 C123.175681,128.102919 125.214519,122.765472 131.927768,122.765472 C138.641016,122.765472 142.818149,128.308206 142.818149,136.314376 C142.818149,144.474512 138.094011,149.811959 131.579673,149.811959 C125.562613,149.811959 123.324864,144.679798 123.324864,144.679798 L123.225408,144.679798 C123.225408,144.679798 123.374592,145.603587 123.374592,146.937949 L123.374592,156.586411 L127.601452,156.586411 L127.601452,159.460421 L115.766243,159.460421 L115.766243,156.586411 Z M123.324864,136.365698 C123.324864,141.54918 126.109619,146.681341 131.231579,146.681341 C135.65735,146.681341 139.337205,142.883542 139.337205,136.314376 C139.337205,130.001819 136.055172,125.947412 131.380762,125.947412 C127.20363,125.947412 123.324864,129.026708 123.324864,136.365698 Z M149.630853,142.729577 C149.630853,147.656451 152.017786,149.350064 155.299819,149.350064 C156.294374,149.350064 157.239201,149.196099 157.239201,149.196099 L157.239201,146.219446 C157.239201,146.219446 156.741924,146.322089 155.846824,146.322089 C153.559347,146.322089 153.012341,144.577155 153.012341,142.472969 L153.012341,113.11701 L145.205082,113.11701 L145.205082,115.99102 L149.630853,115.99102 L149.630853,142.729577 Z M161.018512,136.314376 C161.018512,127.846311 166.588022,122.765472 173.350998,122.765472 C180.263158,122.765472 183.843557,128.256884 183.843557,134.672085 C183.843557,135.287944 183.694374,136.314376 183.694374,136.314376 L164.499456,136.314376 C164.648639,142.934863 169.024682,146.681341 174.19637,146.681341 C178.771325,146.681341 181.804719,143.602044 181.804719,143.602044 L183.346279,146.219446 C183.346279,146.219446 179.76588,149.811959 174.096915,149.811959 C166.63775,149.811959 161.018512,144.269225 161.018512,136.314376 Z M164.648639,133.748296 L180.312886,133.748296 C180.113975,128.308206 176.931397,125.690804 173.251543,125.690804 C169.07441,125.690804 165.444283,128.513492 164.648639,133.748296 Z M187.57314,149.196099 L193.490744,149.196099 L199.060254,139.752924 C199.557532,138.9831 199.855898,138.213276 199.855898,138.213276 L199.955354,138.213276 C199.955354,138.213276 200.353176,139.034421 200.800726,139.701602 L206.419964,149.196099 L212.28784,149.196099 L212.28784,146.322089 L208.50853,146.322089 L201.994192,135.80116 L207.911797,126.255341 L212.039201,126.255341 L212.039201,123.381331 L205.972414,123.381331 L200.850454,131.849396 C200.402904,132.61922 200.054809,133.389045 200.054809,133.389045 L199.955354,133.389045 C199.955354,133.389045 199.557532,132.567899 199.15971,131.900718 L194.137205,123.381331 L187.821779,123.381331 L187.821779,126.255341 L192.098367,126.255341 L197.966243,135.80116 L191.551361,146.322089 L187.57314,146.322089 L187.57314,149.196099 Z M219.945917,117.479347 L223.774955,117.479347 L223.774955,113.11701 L219.945917,113.11701 L219.945917,117.479347 Z M215.917967,149.196099 L227.753176,149.196099 L227.753176,146.322089 L223.526316,146.322089 L223.526316,123.381331 L215.669328,123.381331 L215.669328,126.255341 L220.144828,126.255341 L220.144828,146.322089 L215.917967,146.322089 L215.917967,149.196099 Z M234.366969,139.804245 C234.366969,148.426275 240.234846,149.401386 243.119056,149.401386 C243.964428,149.401386 244.561162,149.298743 244.561162,149.298743 L244.561162,146.270768 C244.561162,146.270768 244.113612,146.373411 243.417423,146.373411 C241.47804,146.373411 237.748457,145.552265 237.748457,139.496316 L237.748457,126.255341 L244.063884,126.255341 L244.063884,123.381331 L237.748457,123.381331 L237.748457,116.247628 L234.416697,116.247628 L234.416697,123.381331 L229.89147,123.381331 L229.89147,126.255341 L234.366969,126.255341 L234.366969,139.804245 Z M248.986933,155.662622 L247.694011,158.433988 C247.694011,158.433988 249.583666,159.973637 252.418149,159.973637 C255.899093,159.973637 258.63412,157.664164 260.076225,153.969009 L270.717967,126.255341 L274,126.255341 L274,123.381331 L263.656624,123.381331 L263.656624,126.255341 L267.286751,126.255341 L260.722686,143.858652 C260.374592,144.833763 260.225408,145.70623 260.225408,145.70623 L260.076225,145.70623 C260.076225,145.70623 259.97677,144.833763 259.678403,143.858652 L253.114338,126.255341 L256.744465,126.255341 L256.744465,123.381331 L246.251906,123.381331 L246.251906,126.255341 L249.533938,126.255341 L258.484936,149.350064 L257.092559,152.788612 C256.147731,155.046762 254.556443,156.89434 252.318693,156.89434 C250.429038,156.89434 248.986933,155.662622 248.986933,155.662622 Z" id="Designing-for-Comple"></path>
            </g>
        </g>
    </g>
</svg>