<?xml version="1.0" encoding="UTF-8"?>
<svg width="275px" height="161px" viewBox="0 0 275 161" version="1.1" xmlns="http://www.w3.org/2000/svg" xmlns:xlink="http://www.w3.org/1999/xlink">
    <!-- Generator: Sketch 45.2 (43514) - http://www.bohemiancoding.com/sketch -->
    <title>subtitle</title>
    <desc>Created with Sketch.</desc>
    <defs></defs>
    <g id="Page-1" stroke="none" stroke-width="1" fill="none" fill-rule="evenodd">
        <g id="iPhone-SE" transform="translate(-23.000000, -97.000000)" fill="#D0021B">
            <g id="subtitle" transform="translate(23.000000, 97.000000)">
                <path d="M0,39.2604667 L0,36.0213386 L5.13792737,36.0213386 L5.13792737,3.23912812 L0,3.23912812 L0,0 L16.5865699,0 C19.9373921,0 22.3388146,0.223388146 24.9636254,1.00524666 C32.3912812,3.40666923 37.0824323,10.1641607 37.0824323,19.6581569 C37.0824323,29.3196942 32.2795872,35.9654916 24.461002,38.3110671 C22.0037324,39.0929256 19.4906158,39.2604667 16.5865699,39.2604667 L0,39.2604667 Z M9.04721993,35.9096445 L16.2514877,35.9096445 C18.8762984,35.9096445 21.0543328,35.6862564 23.2323672,34.9602449 C29.2080001,33.0055986 33.0055986,27.5884361 33.0055986,19.6581569 C33.0055986,11.8395718 29.3755413,6.31071514 23.5116024,4.24437478 C21.2218739,3.46251627 18.9879924,3.3508222 16.2514877,3.3508222 L9.04721993,3.3508222 L9.04721993,35.9096445 Z M66.2904325,33.1731397 C66.2904325,33.1731397 66.2904322,33.17314 66.2904318,33.1731404 L66.2904325,33.1731397 Z M66.2904325,33.1731397 L68.0216906,36.0213386 C68.0216906,36.0213386 64.000704,39.9306312 57.6341418,39.9306312 C49.2570863,39.9306312 42.9463712,33.8991512 42.9463712,25.2428605 C42.9463712,16.0280995 49.2012393,10.4992429 56.7964362,10.4992429 C64.5591743,10.4992429 68.580161,16.4748758 68.580161,23.4557554 C68.580161,24.1259198 68.4126198,25.2428605 68.4126198,25.2428605 L46.8556637,25.2428605 C47.0232048,32.4471283 51.937744,36.5239619 57.7458359,36.5239619 C62.8824354,36.5239619 66.2886715,33.1748715 66.2904318,33.1731404 L66.2904325,33.1731397 Z M47.0232048,22.4505087 L64.6150214,22.4505087 C64.3916332,16.5307228 60.8174229,13.682524 56.6847422,13.682524 C51.9935911,13.682524 47.9167574,16.754111 47.0232048,22.4505087 Z M73.6622413,33.2848338 C73.6622413,37.5850556 79.0794038,39.9306312 84.2731782,39.9306312 C90.5280463,39.9306312 94.8841152,36.8590442 94.8841152,32.000352 C94.8841152,26.9741187 90.0812701,25.1311665 85.7252012,23.5674494 C82.0392968,22.2271206 78.6326275,20.9426387 78.6326275,17.8710517 C78.6326275,15.1345469 81.4249794,13.794218 84.5524134,13.794218 C87.5123064,13.794218 90.3046582,15.0786999 90.3046582,17.1450402 L90.3046582,19.2113806 L93.7671745,19.2113806 L93.7671745,15.9722525 C93.7671745,12.1188069 88.2383178,10.4992429 84.4407194,10.4992429 C79.7495683,10.4992429 74.723335,12.8448184 74.723335,17.9827458 C74.723335,22.897285 79.1910979,24.7960843 83.4354727,26.3598013 C87.4564593,27.8676713 91.0306697,28.984612 91.0306697,32.2237401 C91.0306697,35.071939 88.0149297,36.635656 84.4407194,36.635656 C81.2015912,36.635656 77.1247576,35.4070212 77.1247576,32.5588223 L77.1247576,30.548329 L73.6622413,30.548329 L73.6622413,33.2848338 Z M104.489805,4.74699811 L108.790027,4.74699811 L108.790027,0 L104.489805,0 L104.489805,4.74699811 Z M99.9661955,39.2604667 L113.25779,39.2604667 L113.25779,36.1330327 L108.510792,36.1330327 L108.510792,11.1694073 L99.6869603,11.1694073 L99.6869603,14.2968414 L104.713194,14.2968414 L104.713194,36.1330327 L99.9661955,36.1330327 L99.9661955,39.2604667 Z M121.411458,45.6828759 C121.411458,45.6828759 124.873974,47.6375222 129.006655,47.6375222 C134.479664,47.6375222 138.835733,45.0685585 138.835733,38.7578434 L138.835733,35.9654916 C138.835733,34.9043979 139.003274,33.9549983 139.003274,33.9549983 L138.89158,33.9549983 C137.216169,37.0824323 134.312123,39.0929256 129.956054,39.0929256 C122.416704,39.0929256 117.446318,33.1172927 117.446318,24.6843902 C117.446318,16.2514877 122.081622,10.4992429 129.620972,10.4992429 C133.586112,10.4992429 137.551251,12.0071129 139.059121,15.4696291 L139.170815,15.4696291 C139.170815,15.4696291 139.059121,15.0786999 139.059121,14.2409943 C139.059121,12.174654 139.896827,11.1694073 142.298249,11.1694073 L147.324483,11.1694073 L147.324483,14.2968414 L143.861966,14.2968414 C143.080108,14.2968414 142.633332,14.6877706 142.633332,15.4696291 L142.633332,38.5903023 C142.633332,47.5258282 136.043381,50.9883444 129.118349,50.9883444 C125.935068,50.9883444 122.695939,50.1506389 119.959435,48.754463 L121.411458,45.6828759 Z M130.514525,35.6862564 C134.982287,35.6862564 138.89158,32.9497516 138.89158,24.6843902 C138.89158,16.4748758 134.982287,13.9059121 130.011901,13.9059121 C124.538892,13.9059121 121.355611,17.9268988 121.355611,24.6285431 C121.355611,31.3860346 124.985668,35.6862564 130.514525,35.6862564 Z M151.457163,39.2604667 L164.748758,39.2604667 L164.748758,36.1330327 L160.00176,36.1330327 L160.00176,25.7454839 C160.00176,19.5464628 164.469523,14.0734532 170.668544,14.0734532 C176.085706,14.0734532 176.811718,17.9827458 176.811718,22.3946617 L176.811718,39.2604667 L185.356315,39.2604667 L185.356315,36.1330327 L180.609316,36.1330327 L180.609316,21.389415 C180.609316,14.4643825 178.207894,10.4992429 171.282861,10.4992429 C164.246135,10.4992429 160.616077,15.8047114 159.834219,17.9268988 L159.722525,17.9268988 C159.722525,17.9268988 159.945913,17.0333462 159.945913,15.9164054 L159.945913,14.2968414 C159.945913,12.174654 158.884819,11.1694073 156.539244,11.1694073 L151.177928,11.1694073 L151.177928,14.2968414 L154.975527,14.2968414 C155.757385,14.2968414 156.204161,14.6877706 156.204161,15.5254762 L156.204161,36.1330327 L151.457163,36.1330327 L151.457163,39.2604667 Z M193.621676,4.74699811 L197.921898,4.74699811 L197.921898,0 L193.621676,0 L193.621676,4.74699811 Z M189.098066,39.2604667 L202.389661,39.2604667 L202.389661,36.1330327 L197.642663,36.1330327 L197.642663,11.1694073 L188.818831,11.1694073 L188.818831,14.2968414 L193.845064,14.2968414 L193.845064,36.1330327 L189.098066,36.1330327 L189.098066,39.2604667 Z M206.634035,39.2604667 L219.92563,39.2604667 L219.92563,36.1330327 L215.178632,36.1330327 L215.178632,25.7454839 C215.178632,19.5464628 219.646395,14.0734532 225.845416,14.0734532 C231.262579,14.0734532 231.98859,17.9827458 231.98859,22.3946617 L231.98859,39.2604667 L240.533187,39.2604667 L240.533187,36.1330327 L235.786189,36.1330327 L235.786189,21.389415 C235.786189,14.4643825 233.384766,10.4992429 226.459733,10.4992429 C219.423007,10.4992429 215.792949,15.8047114 215.011091,17.9268988 L214.899397,17.9268988 C214.899397,17.9268988 215.122785,17.0333462 215.122785,15.9164054 L215.122785,14.2968414 C215.122785,12.174654 214.061691,11.1694073 211.716116,11.1694073 L206.3548,11.1694073 L206.3548,14.2968414 L210.152399,14.2968414 C210.934257,14.2968414 211.381034,14.6877706 211.381034,15.5254762 L211.381034,36.1330327 L206.634035,36.1330327 L206.634035,39.2604667 Z M248.407619,45.6828759 C248.407619,45.6828759 251.870135,47.6375222 256.002816,47.6375222 C261.475825,47.6375222 265.831894,45.0685585 265.831894,38.7578434 L265.831894,35.9654916 C265.831894,34.9043979 265.999435,33.9549983 265.999435,33.9549983 L265.887741,33.9549983 C264.21233,37.0824323 261.308284,39.0929256 256.952215,39.0929256 C249.412865,39.0929256 244.442479,33.1172927 244.442479,24.6843902 C244.442479,16.2514877 249.077783,10.4992429 256.617133,10.4992429 C260.582273,10.4992429 264.547412,12.0071129 266.055282,15.4696291 L266.166976,15.4696291 C266.166976,15.4696291 266.055282,15.0786999 266.055282,14.2409943 C266.055282,12.174654 266.892988,11.1694073 269.294411,11.1694073 L274.320644,11.1694073 L274.320644,14.2968414 L270.858128,14.2968414 C270.076269,14.2968414 269.629493,14.6877706 269.629493,15.4696291 L269.629493,38.5903023 C269.629493,47.5258282 263.039542,50.9883444 256.11451,50.9883444 C252.931229,50.9883444 249.692101,50.1506389 246.955596,48.754463 L248.407619,45.6828759 Z M257.510686,35.6862564 C261.978449,35.6862564 265.887741,32.9497516 265.887741,24.6843902 C265.887741,16.4748758 261.978449,13.9059121 257.008062,13.9059121 C251.535053,13.9059121 248.351772,17.9268988 248.351772,24.6285431 C248.351772,31.3860346 251.981829,35.6862564 257.510686,35.6862564 Z M22.897285,80.1687065 C22.897285,89.1042324 29.6547764,94.8006301 37.6967497,94.8006301 C44.175006,94.8006301 48.0284515,91.0030316 48.6427689,90.4445613 L47.0232048,87.5405153 C46.5205815,87.9314446 43.2814534,91.3939609 37.8084438,91.3939609 C31.7769638,91.3939609 26.8065776,87.037892 26.8065776,80.0570124 C26.8065776,73.243674 31.4977286,68.775911 37.6409027,68.775911 C40.2098664,68.775911 44.4542411,69.9486988 44.4542411,72.4618155 L44.4542411,74.5281558 L47.9726044,74.5281558 L47.9726044,71.4565688 C47.9726044,66.8212648 41.1034189,65.3692418 37.5850556,65.3692418 C29.4872353,65.3692418 22.897285,71.4007218 22.897285,80.1687065 Z M53.5573081,79.9453184 C53.5573081,71.6241099 60.2031055,65.3692418 68.3567728,65.3692418 C76.5662872,65.3692418 83.2120845,71.6241099 83.2120845,79.9453184 C83.2120845,88.4340679 76.5662872,94.8006301 68.3567728,94.8006301 C60.2031055,94.8006301 53.5573081,88.4340679 53.5573081,79.9453184 Z M57.4666007,79.9453184 C57.4666007,86.4794217 62.3811399,91.3939609 68.3567728,91.3939609 C74.3882528,91.3939609 79.302792,86.4794217 79.302792,79.9453184 C79.302792,73.5787562 74.3882528,68.775911 68.3567728,68.775911 C62.3811399,68.775911 57.4666007,73.5787562 57.4666007,79.9453184 Z M88.0707767,94.1304657 L101.362371,94.1304657 L101.362371,91.0030316 L96.6153733,91.0030316 L96.6153733,80.7830239 C96.6153733,74.9190851 100.468819,68.8317581 106.221064,68.8317581 C111.582379,68.8317581 112.14085,72.9644388 112.14085,77.2088136 L112.14085,94.1304657 L120.685446,94.1304657 L120.685446,91.0030316 L115.938448,91.0030316 L115.938448,80.6713298 C115.938448,74.863238 119.680199,68.8317581 125.376597,68.8317581 C130.458678,68.8317581 131.408077,72.6293566 131.408077,77.2088136 L131.408077,94.1304657 L139.952674,94.1304657 L139.952674,91.0030316 L135.205676,91.0030316 L135.205676,76.259414 C135.205676,69.3343814 132.692559,65.3692418 125.935068,65.3692418 C121.188069,65.3692418 117.111236,68.775911 115.547519,72.5176625 L115.435825,72.5176625 C114.653966,67.7706644 111.973308,65.3692418 106.891228,65.3692418 C102.423465,65.3692418 97.8998552,68.9992992 96.4478322,72.7968977 L96.3361382,72.7968977 C96.3361382,72.7968977 96.5595263,71.9033451 96.5595263,70.7864044 L96.5595263,69.1668403 C96.5595263,67.0446529 95.4984326,66.0394063 93.1528571,66.0394063 L87.7915415,66.0394063 L87.7915415,69.1668403 L91.58914,69.1668403 C92.3709986,69.1668403 92.8177748,69.5577696 92.8177748,70.3954751 L92.8177748,91.0030316 L88.0707767,91.0030316 L88.0707767,94.1304657 Z M142.633332,102.172439 L147.38033,102.172439 L147.38033,70.3954751 C147.38033,69.5577696 146.933553,69.1668403 146.151695,69.1668403 L142.354096,69.1668403 L142.354096,66.0394063 L147.659565,66.0394063 C150.060987,66.0394063 151.010387,67.0446529 151.010387,68.9992992 L151.010387,69.2226873 C151.010387,70.3396281 150.842846,71.1773336 150.842846,71.1773336 L150.95454,71.1773336 C150.95454,71.1773336 153.244268,65.3692418 160.783618,65.3692418 C168.322968,65.3692418 173.014119,71.4007218 173.014119,80.1128595 C173.014119,88.9925383 167.708651,94.8006301 160.392689,94.8006301 C153.635198,94.8006301 151.122081,89.2159264 151.122081,89.2159264 L151.010387,89.2159264 C151.010387,89.2159264 151.177928,90.2211731 151.177928,91.6731961 L151.177928,102.172439 L155.924926,102.172439 L155.924926,105.299873 L142.633332,105.299873 L142.633332,102.172439 Z M151.122081,80.1687065 C151.122081,85.8092572 154.249515,91.3939609 160.00176,91.3939609 C164.972146,91.3939609 169.104827,87.2612802 169.104827,80.1128595 C169.104827,73.243674 165.418922,68.8317581 160.169301,68.8317581 C155.47815,68.8317581 151.122081,72.1825803 151.122081,80.1687065 Z M180.665163,87.0937391 C180.665163,92.4550546 183.345821,94.2980068 187.031726,94.2980068 C188.148666,94.2980068 189.20976,94.1304657 189.20976,94.1304657 L189.20976,90.8913375 C189.20976,90.8913375 188.65129,91.0030316 187.646043,91.0030316 C185.077079,91.0030316 184.462762,89.1042324 184.462762,86.8145039 L184.462762,54.8699989 L175.694777,54.8699989 L175.694777,57.997433 L180.665163,57.997433 L180.665163,87.0937391 Z M193.454135,80.1128595 C193.454135,70.8980984 199.709003,65.3692418 207.3042,65.3692418 C215.066938,65.3692418 219.087925,71.3448747 219.087925,78.3257543 C219.087925,78.9959187 218.920384,80.1128595 218.920384,80.1128595 L197.363427,80.1128595 C197.530968,87.3171272 202.445508,91.3939609 208.2536,91.3939609 C213.391527,91.3939609 216.798196,88.0431387 216.798196,88.0431387 L218.529454,90.8913375 C218.529454,90.8913375 214.508468,94.8006301 208.141905,94.8006301 C199.76485,94.8006301 193.454135,88.7691502 193.454135,80.1128595 Z M197.530968,77.3205076 L215.122785,77.3205076 C214.899397,71.4007218 211.325187,68.5525229 207.192506,68.5525229 C202.501355,68.5525229 198.424521,71.6241099 197.530968,77.3205076 Z M223.276452,94.1304657 L229.92225,94.1304657 L236.177118,83.8546109 C236.735588,83.0169054 237.07067,82.1791998 237.07067,82.1791998 L237.182364,82.1791998 C237.182364,82.1791998 237.629141,83.0727524 238.131764,83.7987639 L244.442479,94.1304657 L251.03243,94.1304657 L251.03243,91.0030316 L246.788055,91.0030316 L239.472093,79.5543891 L246.11789,69.1668403 L250.753194,69.1668403 L250.753194,66.0394063 L243.939856,66.0394063 L238.187611,75.2541673 C237.684988,76.0918728 237.294059,76.9295784 237.294059,76.9295784 L237.182364,76.9295784 C237.182364,76.9295784 236.735588,76.0360258 236.288812,75.3100143 L230.648261,66.0394063 L223.555688,66.0394063 L223.555688,69.1668403 L228.358533,69.1668403 L234.948483,79.5543891 L227.744215,91.0030316 L223.276452,91.0030316 L223.276452,94.1304657 Z M30.8554877,143.024832 C30.8554877,147.325054 36.2726503,149.670629 41.4664247,149.670629 C47.7212928,149.670629 52.0773616,146.599042 52.0773616,141.74035 C52.0773616,136.714117 47.2745165,134.871164 42.9184476,133.307447 C39.2325432,131.967118 35.825874,130.682637 35.825874,127.61105 C35.825874,124.874545 38.6182258,123.534216 41.7456599,123.534216 C44.7055528,123.534216 47.4979046,124.818698 47.4979046,126.885038 L47.4979046,128.951378 L50.9604209,128.951378 L50.9604209,125.71225 C50.9604209,121.858805 45.4315643,120.239241 41.6339658,120.239241 C36.9428147,120.239241 31.9165814,122.584816 31.9165814,127.722744 C31.9165814,132.637283 36.3843444,134.536082 40.6287191,136.099799 C44.6497058,137.607669 48.2239161,138.72461 48.2239161,141.963738 C48.2239161,144.811937 45.2081761,146.375654 41.6339658,146.375654 C38.3948377,146.375654 34.318004,145.147019 34.318004,142.29882 L34.318004,140.288327 L30.8554877,140.288327 L30.8554877,143.024832 Z M58.1088416,156.037191 L56.6568186,159.052931 C56.6568186,159.052931 58.779006,160.728342 61.9622871,160.728342 C65.8715797,160.728342 68.9431667,158.215226 70.5627308,154.194239 L82.5139966,124.036839 L86.199901,124.036839 L86.199901,120.909405 L74.5837174,120.909405 L74.5837174,124.036839 L78.6605511,124.036839 L71.2887422,143.192373 C70.897813,144.253466 70.7302719,145.202866 70.7302719,145.202866 L70.5627308,145.202866 C70.5627308,145.202866 70.4510367,144.253466 70.1159545,143.192373 L62.7441456,124.036839 L66.8209793,124.036839 L66.8209793,120.909405 L55.0372546,120.909405 L55.0372546,124.036839 L58.723159,124.036839 L68.7756256,149.168006 L67.2119086,152.909757 C66.1508149,155.367027 64.3637097,157.37752 61.850593,157.37752 C59.7284057,157.37752 58.1088416,156.037191 58.1088416,156.037191 Z M89.1597939,143.024832 C89.1597939,147.325054 94.5769565,149.670629 99.7707309,149.670629 C106.025599,149.670629 110.381668,146.599042 110.381668,141.74035 C110.381668,136.714117 105.578823,134.871164 101.222754,133.307447 C97.5368494,131.967118 94.1301802,130.682637 94.1301802,127.61105 C94.1301802,124.874545 96.922532,123.534216 100.049966,123.534216 C103.009859,123.534216 105.802211,124.818698 105.802211,126.885038 L105.802211,128.951378 L109.264727,128.951378 L109.264727,125.71225 C109.264727,121.858805 103.735871,120.239241 99.938272,120.239241 C95.2471209,120.239241 90.2208876,122.584816 90.2208876,127.722744 C90.2208876,132.637283 94.6886506,134.536082 98.9330254,136.099799 C102.954012,137.607669 106.528222,138.72461 106.528222,141.963738 C106.528222,144.811937 103.512482,146.375654 99.938272,146.375654 C96.6991439,146.375654 92.6223102,145.147019 92.6223102,142.29882 L92.6223102,140.288327 L89.1597939,140.288327 L89.1597939,143.024832 Z M118.926264,138.780457 C118.926264,148.162759 125.516215,149.223853 128.755343,149.223853 C129.704743,149.223853 130.374907,149.112159 130.374907,149.112159 L130.374907,145.817184 C130.374907,145.817184 129.872284,145.928878 129.090425,145.928878 C126.912391,145.928878 122.723863,145.035325 122.723863,138.445375 L122.723863,124.036839 L129.816437,124.036839 L129.816437,120.909405 L122.723863,120.909405 L122.723863,113.146667 L118.982111,113.146667 L118.982111,120.909405 L113.900031,120.909405 L113.900031,124.036839 L118.926264,124.036839 L118.926264,138.780457 Z M134.451741,134.982858 C134.451741,125.768097 140.706609,120.239241 148.301806,120.239241 C156.064544,120.239241 160.08553,126.214874 160.08553,133.195753 C160.08553,133.865918 159.917989,134.982858 159.917989,134.982858 L138.361033,134.982858 C138.528574,142.187126 143.443114,146.26396 149.251205,146.26396 C154.389133,146.26396 157.795802,142.913138 157.795802,142.913138 L159.52706,145.761336 C159.52706,145.761336 155.506073,149.670629 149.139511,149.670629 C140.762456,149.670629 134.451741,143.639149 134.451741,134.982858 Z M138.528574,132.190507 L156.120391,132.190507 C155.897003,126.270721 152.322792,123.422522 148.190112,123.422522 C143.498961,123.422522 139.422127,126.494109 138.528574,132.190507 Z M165.223458,149.000465 L178.515053,149.000465 L178.515053,145.873031 L173.768054,145.873031 L173.768054,135.653023 C173.768054,129.789084 177.6215,123.701757 183.373745,123.701757 C188.73506,123.701757 189.293531,127.834438 189.293531,132.078813 L189.293531,149.000465 L197.838127,149.000465 L197.838127,145.873031 L193.091129,145.873031 L193.091129,135.541329 C193.091129,129.733237 196.832881,123.701757 202.529278,123.701757 C207.611359,123.701757 208.560758,127.499356 208.560758,132.078813 L208.560758,149.000465 L217.105355,149.000465 L217.105355,145.873031 L212.358357,145.873031 L212.358357,131.129413 C212.358357,124.20438 209.84524,120.239241 203.087749,120.239241 C198.340751,120.239241 194.263917,123.64591 192.7002,127.387661 L192.588506,127.387661 C191.806647,122.640663 189.125989,120.239241 184.043909,120.239241 C179.576146,120.239241 175.052536,123.869298 173.600513,127.666897 L173.488819,127.666897 C173.488819,127.666897 173.712207,126.773344 173.712207,125.656403 L173.712207,124.036839 C173.712207,121.914652 172.651114,120.909405 170.305538,120.909405 L164.944223,120.909405 L164.944223,124.036839 L168.741821,124.036839 C169.52368,124.036839 169.970456,124.427768 169.970456,125.265474 L169.970456,145.873031 L165.223458,145.873031 L165.223458,149.000465 Z M220.791259,143.024832 C220.791259,147.325054 226.208422,149.670629 231.402196,149.670629 C237.657064,149.670629 242.013133,146.599042 242.013133,141.74035 C242.013133,136.714117 237.210288,134.871164 232.854219,133.307447 C229.168315,131.967118 225.761645,130.682637 225.761645,127.61105 C225.761645,124.874545 228.553997,123.534216 231.681431,123.534216 C234.641324,123.534216 237.433676,124.818698 237.433676,126.885038 L237.433676,128.951378 L240.896192,128.951378 L240.896192,125.71225 C240.896192,121.858805 235.367336,120.239241 231.569737,120.239241 C226.878586,120.239241 221.852353,122.584816 221.852353,127.722744 C221.852353,132.637283 226.320116,134.536082 230.564491,136.099799 C234.585477,137.607669 238.159688,138.72461 238.159688,141.963738 C238.159688,144.811937 235.143948,146.375654 231.569737,146.375654 C228.330609,146.375654 224.253776,145.147019 224.253776,142.29882 L224.253776,140.288327 L220.791259,140.288327 L220.791259,143.024832 Z" id="Designing-complex-sy"></path>
            </g>
        </g>
    </g>
</svg>