<?xml version="1.0" encoding="UTF-8" standalone="no"?>
<!DOCTYPE svg PUBLIC "-//W3C//DTD SVG 1.1//EN" "http://www.w3.org/Graphics/SVG/1.1/DTD/svg11.dtd">
<svg width="100%" height="100%" viewBox="0 0 280 44" version="1.1" xmlns="http://www.w3.org/2000/svg" xmlns:xlink="http://www.w3.org/1999/xlink" xml:space="preserve" style="fill-rule:evenodd;clip-rule:evenodd;">
    <g id="Group" transform="matrix(1,0,0,1,0,0.284741)">
        <g id="Rectangle">
            <rect id="path.-1" x="0.183" y="0.154" width="279.18" height="42.639" style="fill:rgb(74,144,226);"/>
            <rect x="0.683" y="0.653" width="278.181" height="41.64" style="fill:none;stroke:rgb(74,144,226);stroke-width:1px;"/>
        </g>
        <g transform="matrix(1,0,0,1,8.904,25.057)">
            <g id="Earlybird.-tickets.-.a3.1">
                <path d="M0.7,0L8.288,0L8.288,-2.59L6.72,-2.59L6.72,-1.47L3.724,-1.47L3.724,-4.27L7,-4.27L7,-5.74L3.724,-5.74L3.724,-8.47L6.51,-8.47L6.51,-7.378L8.078,-7.378L8.078,-9.94L0.7,-9.94L0.7,-8.554L1.89,-8.554L1.89,-1.372L0.7,-1.372L0.7,0Z" style="fill:white;fill-rule:nonzero;"/>
                <path d="M9.352,-2.002C9.352,-0.546 10.5,0.168 11.718,0.168C13.37,0.168 13.972,-1.204 13.972,-1.204L14,-1.204C14,-1.204 13.958,-1.064 13.958,-0.84L13.958,-0.756C13.958,-0.35 14.21,0 14.868,0L16.548,0L16.548,-1.33L15.904,-1.33C15.708,-1.33 15.596,-1.428 15.596,-1.638L15.596,-4.494C15.596,-6.314 14.574,-7.308 12.656,-7.308C10.934,-7.308 9.828,-6.426 9.828,-6.426L10.486,-5.194C10.486,-5.194 11.438,-5.88 12.502,-5.88C13.244,-5.88 13.818,-5.558 13.818,-4.648L13.818,-4.41L13.37,-4.41C12.222,-4.41 9.352,-4.186 9.352,-2.002ZM11.144,-2.142C11.144,-3.22 12.838,-3.332 13.538,-3.332L13.832,-3.332L13.832,-3.094C13.832,-2.198 13.146,-1.162 12.18,-1.162C11.522,-1.162 11.144,-1.61 11.144,-2.142Z" style="fill:white;fill-rule:nonzero;"/>
                <path d="M17.514,0L21.35,0L21.35,-1.33L20.328,-1.33L20.328,-2.884C20.328,-4.228 20.972,-5.488 22.414,-5.488C22.666,-5.488 22.848,-5.46 22.848,-5.46L22.848,-7.21C22.848,-7.21 22.694,-7.238 22.526,-7.238C21.434,-7.238 20.58,-6.426 20.258,-5.404L20.23,-5.404C20.23,-5.404 20.258,-5.586 20.258,-5.852L20.258,-6.272C20.258,-6.874 19.936,-7.14 19.306,-7.14L17.444,-7.14L17.444,-5.81L18.242,-5.81C18.438,-5.81 18.55,-5.698 18.55,-5.502L18.55,-1.33L17.514,-1.33L17.514,0Z" style="fill:white;fill-rule:nonzero;"/>
                <path d="M24.15,-2.268C24.15,-0.322 25.2,0.056 26.334,0.056C26.684,0.056 26.978,0.014 26.978,0.014L26.978,-1.414C26.978,-1.414 26.838,-1.4 26.642,-1.4C26.054,-1.4 25.914,-1.736 25.914,-2.38L25.914,-9.94L23.044,-9.94L23.044,-8.61L24.15,-8.61L24.15,-2.268Z" style="fill:white;fill-rule:nonzero;"/>
                <path d="M28.168,1.148L27.594,2.45C27.594,2.45 28.294,2.94 29.33,2.94C30.548,2.94 31.612,2.338 32.158,0.924L34.79,-5.81L35.602,-5.81L35.602,-7.14L32.228,-7.14L32.228,-5.81L33.054,-5.81L31.766,-2.198C31.626,-1.848 31.57,-1.456 31.57,-1.456L31.528,-1.456C31.528,-1.456 31.5,-1.848 31.374,-2.198L30.072,-5.81L30.912,-5.81L30.912,-7.14L27.398,-7.14L27.398,-5.81L28.252,-5.81L30.702,0.21L30.506,0.658C30.282,1.176 29.82,1.484 29.246,1.484C28.588,1.484 28.168,1.148 28.168,1.148Z" style="fill:white;fill-rule:nonzero;"/>
                <path d="M39.942,0L44.73,0C45.262,0 45.724,-0.028 46.214,-0.168C47.292,-0.49 48.188,-1.484 48.188,-2.87C48.188,-3.92 47.684,-4.886 46.578,-5.222L46.578,-5.25C47.348,-5.656 47.796,-6.454 47.796,-7.378C47.796,-8.484 47.18,-9.324 46.284,-9.674C45.766,-9.884 45.248,-9.94 44.506,-9.94L39.942,-9.94L39.942,-8.554L41.132,-8.554L41.132,-1.372L39.942,-1.372L39.942,0ZM42.966,-5.88L42.966,-8.47L44.506,-8.47C44.856,-8.47 45.122,-8.428 45.36,-8.316C45.752,-8.106 45.934,-7.672 45.934,-7.182C45.934,-6.426 45.5,-5.88 44.716,-5.88L42.966,-5.88ZM42.966,-1.47L42.966,-4.424L44.884,-4.424C45.794,-4.424 46.326,-3.836 46.326,-2.982C46.326,-2.352 46.032,-1.792 45.528,-1.582C45.318,-1.498 45.052,-1.47 44.814,-1.47L42.966,-1.47Z" style="fill:white;fill-rule:nonzero;"/>
                <path d="M50.498,-8.358L52.29,-8.358L52.29,-9.94L50.498,-9.94L50.498,-8.358ZM49.476,0L53.312,0L53.312,-1.33L52.29,-1.33L52.29,-7.14L49.406,-7.14L49.406,-5.81L50.512,-5.81L50.512,-1.33L49.476,-1.33L49.476,0Z" style="fill:white;fill-rule:nonzero;"/>
                <path d="M54.376,0L58.212,0L58.212,-1.33L57.19,-1.33L57.19,-2.884C57.19,-4.228 57.834,-5.488 59.276,-5.488C59.528,-5.488 59.71,-5.46 59.71,-5.46L59.71,-7.21C59.71,-7.21 59.556,-7.238 59.388,-7.238C58.296,-7.238 57.442,-6.426 57.12,-5.404L57.092,-5.404C57.092,-5.404 57.12,-5.586 57.12,-5.852L57.12,-6.272C57.12,-6.874 56.798,-7.14 56.168,-7.14L54.306,-7.14L54.306,-5.81L55.104,-5.81C55.3,-5.81 55.412,-5.698 55.412,-5.502L55.412,-1.33L54.376,-1.33L54.376,0Z" style="fill:white;fill-rule:nonzero;"/>
                <path d="M60.466,-3.57C60.466,-1.358 61.684,0.168 63.588,0.168C65.366,0.168 65.926,-1.162 65.926,-1.162L65.954,-1.162C65.954,-1.162 65.912,-1.036 65.912,-0.84L65.912,-0.756C65.912,-0.35 66.178,0 66.822,0L68.502,0L68.502,-1.33L67.858,-1.33C67.662,-1.33 67.55,-1.428 67.55,-1.638L67.55,-9.94L64.68,-9.94L64.68,-8.61L65.786,-8.61L65.786,-6.804C65.786,-6.51 65.814,-6.3 65.814,-6.3L65.786,-6.3C65.786,-6.3 65.254,-7.308 63.728,-7.308C61.796,-7.308 60.466,-5.838 60.466,-3.57ZM62.258,-3.57C62.258,-4.984 63.07,-5.782 64.078,-5.782C65.254,-5.782 65.828,-4.69 65.828,-3.528C65.828,-2.002 64.96,-1.33 64.022,-1.33C62.986,-1.33 62.258,-2.212 62.258,-3.57Z" style="fill:white;fill-rule:nonzero;"/>
                <path d="M73.542,0L75.222,0L75.222,-0.434C75.222,-0.714 75.194,-0.966 75.194,-0.966L75.222,-0.966C75.222,-0.966 75.796,0.168 77.35,0.168C79.24,0.168 80.64,-1.302 80.64,-3.57C80.64,-5.782 79.394,-7.308 77.462,-7.308C75.964,-7.308 75.32,-6.244 75.32,-6.244L75.292,-6.244C75.292,-6.244 75.32,-6.496 75.32,-6.846L75.32,-9.94L72.45,-9.94L72.45,-8.61L73.542,-8.61L73.542,0ZM75.278,-3.528C75.278,-5.11 76.146,-5.782 77.07,-5.782C78.12,-5.782 78.848,-4.9 78.848,-3.542C78.848,-2.128 78.022,-1.33 77.042,-1.33C75.852,-1.33 75.278,-2.422 75.278,-3.528Z" style="fill:white;fill-rule:nonzero;"/>
                <path d="M81.536,-2.002C81.536,-0.546 82.684,0.168 83.902,0.168C85.554,0.168 86.156,-1.204 86.156,-1.204L86.184,-1.204C86.184,-1.204 86.142,-1.064 86.142,-0.84L86.142,-0.756C86.142,-0.35 86.394,0 87.052,0L88.732,0L88.732,-1.33L88.088,-1.33C87.892,-1.33 87.78,-1.428 87.78,-1.638L87.78,-4.494C87.78,-6.314 86.758,-7.308 84.84,-7.308C83.118,-7.308 82.012,-6.426 82.012,-6.426L82.67,-5.194C82.67,-5.194 83.622,-5.88 84.686,-5.88C85.428,-5.88 86.002,-5.558 86.002,-4.648L86.002,-4.41L85.554,-4.41C84.406,-4.41 81.536,-4.186 81.536,-2.002ZM83.328,-2.142C83.328,-3.22 85.022,-3.332 85.722,-3.332L86.016,-3.332L86.016,-3.094C86.016,-2.198 85.33,-1.162 84.364,-1.162C83.706,-1.162 83.328,-1.61 83.328,-2.142Z" style="fill:white;fill-rule:nonzero;"/>
                <path d="M90.328,-2.618C90.328,-0.224 92.302,0.07 93.31,0.07C93.632,0.07 93.856,0.028 93.856,0.028L93.856,-1.428C93.856,-1.428 93.73,-1.414 93.534,-1.414C93.03,-1.414 92.106,-1.582 92.106,-2.8L92.106,-5.81L93.73,-5.81L93.73,-7.14L92.106,-7.14L92.106,-9.086L90.384,-9.086L90.384,-7.14L89.236,-7.14L89.236,-5.81L90.328,-5.81L90.328,-2.618Z" style="fill:white;fill-rule:nonzero;"/>
                <path d="M94.766,-3.556C94.766,-1.246 96.614,0.168 98.7,0.168C100.058,0.168 101.164,-0.476 101.654,-0.938L101.024,-2.198C100.632,-1.89 99.806,-1.33 98.798,-1.33C97.58,-1.33 96.558,-2.128 96.558,-3.598C96.558,-4.9 97.356,-5.796 98.658,-5.796C99.26,-5.796 99.988,-5.572 99.988,-5.096L99.988,-4.62L101.528,-4.62L101.528,-5.6C101.528,-6.86 99.792,-7.308 98.602,-7.308C96.404,-7.308 94.766,-5.684 94.766,-3.556Z" style="fill:white;fill-rule:nonzero;"/>
                <path d="M102.508,0L106.344,0L106.344,-1.33L105.322,-1.33L105.322,-3.276C105.322,-4.592 106.106,-5.684 107.366,-5.684C108.262,-5.684 108.486,-5.096 108.486,-4.228L108.486,0L111.3,0L111.3,-1.33L110.264,-1.33L110.264,-4.592C110.264,-6.482 109.354,-7.308 107.772,-7.308C106.54,-7.308 105.658,-6.552 105.308,-5.866L105.28,-5.866C105.28,-5.866 105.322,-6.118 105.322,-6.468L105.322,-9.94L102.438,-9.94L102.438,-8.61L103.544,-8.61L103.544,-1.33L102.508,-1.33L102.508,0Z" style="fill:white;fill-rule:nonzero;"/>
                <path d="M115.822,0L122.71,0L122.71,-2.73L121.142,-2.73L121.142,-1.47L117.712,-1.47C117.754,-3.514 122.374,-4.088 122.374,-7.168C122.374,-9.044 120.876,-10.108 119.126,-10.108C116.746,-10.108 115.836,-8.12 115.836,-8.12L117.096,-7.252C117.096,-7.252 117.81,-8.498 118.972,-8.498C119.812,-8.498 120.484,-8.022 120.484,-7.084C120.484,-4.942 115.724,-4.466 115.724,-0.882C115.724,-0.602 115.766,-0.322 115.822,0Z" style="fill:white;fill-rule:nonzero;"/>
                <rect x="124.404" y="-1.792" width="1.778" height="1.792" style="fill:white;fill-rule:nonzero;"/>
                <path d="M133.28,0L137.508,0L137.508,-1.372L136.304,-1.372L136.304,-8.47L138.194,-8.47L138.194,-6.972L139.748,-6.972L139.748,-9.94L131.04,-9.94L131.04,-6.972L132.594,-6.972L132.594,-8.47L134.47,-8.47L134.47,-1.372L133.28,-1.372L133.28,0Z" style="fill:white;fill-rule:nonzero;"/>
                <path d="M141.736,-8.358L143.528,-8.358L143.528,-9.94L141.736,-9.94L141.736,-8.358ZM140.714,0L144.55,0L144.55,-1.33L143.528,-1.33L143.528,-7.14L140.644,-7.14L140.644,-5.81L141.75,-5.81L141.75,-1.33L140.714,-1.33L140.714,0Z" style="fill:white;fill-rule:nonzero;"/>
                <path d="M145.446,-3.556C145.446,-1.246 147.294,0.168 149.38,0.168C150.738,0.168 151.844,-0.476 152.334,-0.938L151.704,-2.198C151.312,-1.89 150.486,-1.33 149.478,-1.33C148.26,-1.33 147.238,-2.128 147.238,-3.598C147.238,-4.9 148.036,-5.796 149.338,-5.796C149.94,-5.796 150.668,-5.572 150.668,-5.096L150.668,-4.62L152.208,-4.62L152.208,-5.6C152.208,-6.86 150.472,-7.308 149.282,-7.308C147.084,-7.308 145.446,-5.684 145.446,-3.556Z" style="fill:white;fill-rule:nonzero;"/>
                <path d="M153.188,0L156.772,0L156.772,-1.33L156.002,-1.33L156.002,-3.136L156.422,-3.136C156.674,-3.136 156.898,-3.122 157.038,-2.87L158.326,-0.616C158.606,-0.098 158.844,0 159.446,0L160.776,0L160.776,-1.33L160.37,-1.33C160.034,-1.33 159.908,-1.372 159.782,-1.582L158.774,-3.346C158.494,-3.822 158.242,-3.948 158.228,-3.948L158.228,-3.976L159.782,-5.81L160.706,-5.81L160.706,-7.14L157.276,-7.14L157.276,-5.81L158.102,-5.81L156.94,-4.438L156.002,-4.438L156.002,-9.94L153.118,-9.94L153.118,-8.61L154.224,-8.61L154.224,-1.33L153.188,-1.33L153.188,0Z" style="fill:white;fill-rule:nonzero;"/>
                <path d="M161.77,-3.57C161.77,-1.54 163.24,0.168 165.606,0.168C167.398,0.168 168.49,-0.826 168.49,-0.826L167.804,-2.086C167.804,-2.086 166.894,-1.33 165.732,-1.33C164.654,-1.33 163.702,-2.002 163.59,-3.318L168.532,-3.318C168.532,-3.318 168.574,-3.71 168.574,-3.92C168.574,-5.81 167.454,-7.308 165.396,-7.308C163.254,-7.308 161.77,-5.768 161.77,-3.57ZM163.632,-4.368C163.8,-5.306 164.444,-5.936 165.354,-5.936C166.11,-5.936 166.712,-5.348 166.74,-4.368L163.632,-4.368Z" style="fill:white;fill-rule:nonzero;"/>
                <path d="M170.464,-2.618C170.464,-0.224 172.438,0.07 173.446,0.07C173.768,0.07 173.992,0.028 173.992,0.028L173.992,-1.428C173.992,-1.428 173.866,-1.414 173.67,-1.414C173.166,-1.414 172.242,-1.582 172.242,-2.8L172.242,-5.81L173.866,-5.81L173.866,-7.14L172.242,-7.14L172.242,-9.086L170.52,-9.086L170.52,-7.14L169.372,-7.14L169.372,-5.81L170.464,-5.81L170.464,-2.618Z" style="fill:white;fill-rule:nonzero;"/>
                <path d="M174.916,-1.554C174.916,-0.392 176.512,0.168 177.814,0.168C179.452,0.168 180.824,-0.56 180.824,-2.002C180.824,-3.402 179.536,-3.85 178.444,-4.2C177.646,-4.438 176.946,-4.676 176.946,-5.264C176.946,-5.712 177.422,-5.908 177.982,-5.908C178.612,-5.908 179.032,-5.684 179.032,-5.32L179.032,-4.914L180.558,-4.914L180.558,-5.824C180.558,-6.902 179.018,-7.308 177.982,-7.308C176.68,-7.308 175.168,-6.776 175.168,-5.264C175.168,-3.906 176.372,-3.416 177.422,-3.052C178.374,-2.702 179.046,-2.548 179.046,-1.946C179.046,-1.47 178.542,-1.218 177.828,-1.218C177.086,-1.218 176.428,-1.47 176.428,-1.96L176.428,-2.38L174.916,-2.38L174.916,-1.554Z" style="fill:white;fill-rule:nonzero;"/>
                <path d="M185.416,0L192.99,0L192.99,-3.01L191.422,-3.01L191.422,-1.47L188.426,-1.47L188.426,-4.354L190.806,-4.354L190.806,-5.572L188.426,-5.572L188.426,-7.21C188.426,-7.938 188.972,-8.498 189.812,-8.498C190.596,-8.498 191.31,-7.938 191.31,-7.938L192.276,-9.142C192.276,-9.142 191.282,-10.108 189.77,-10.108C187.922,-10.108 186.592,-8.918 186.592,-7.266L186.592,-5.572L185.612,-5.572L185.612,-4.354L186.592,-4.354L186.592,-1.414L185.416,-1.414L185.416,0Z" style="fill:white;fill-rule:nonzero;"/>
                <path d="M194.236,0L200.312,0L200.312,-1.47L198.17,-1.47L198.17,-9.94L196.588,-9.94L194.096,-7.546L195.16,-6.426L195.958,-7.182C196.28,-7.504 196.392,-7.742 196.392,-7.742L196.42,-7.742C196.42,-7.742 196.406,-7.406 196.406,-7.07L196.406,-1.47L194.236,-1.47L194.236,0Z" style="fill:white;fill-rule:nonzero;"/>
                <path d="M200.942,-2.562L205.59,-2.562L205.59,0L207.382,0L207.382,-2.562L208.656,-2.562L208.656,-3.976L207.382,-3.976L207.382,-9.94L205.24,-9.94L200.942,-3.668L200.942,-2.562ZM205.24,-7.392C205.464,-7.742 205.632,-8.148 205.632,-8.148L205.674,-8.148C205.674,-8.148 205.59,-7.658 205.59,-7.294L205.59,-3.976L202.818,-3.976L202.818,-4.004L205.24,-7.392Z" style="fill:white;fill-rule:nonzero;"/>
                <path d="M213.57,0.168C216.286,0.168 217.168,-2.128 217.168,-4.984C217.168,-7.84 216.286,-10.108 213.57,-10.108C210.84,-10.108 209.958,-7.84 209.958,-4.984C209.958,-2.128 210.84,0.168 213.57,0.168ZM213.57,-1.442C212.198,-1.442 211.82,-2.996 211.82,-4.984C211.82,-6.944 212.198,-8.498 213.57,-8.498C214.928,-8.498 215.32,-6.944 215.32,-4.984C215.32,-2.996 214.928,-1.442 213.57,-1.442Z" style="fill:white;fill-rule:nonzero;"/>
                <path d="M222.012,-3.304L225.036,-3.304L225.036,0L226.478,0L226.478,-3.304L229.502,-3.304L229.502,-4.69L226.478,-4.69L226.478,-8.008L225.036,-8.008L225.036,-4.69L222.012,-4.69L222.012,-3.304Z" style="fill:white;fill-rule:nonzero;"/>
                <path d="M237.664,0L239.568,0L242.592,-8.554L243.516,-8.554L243.516,-9.94L239.638,-9.94L239.638,-8.554L240.674,-8.554L238.826,-2.884C238.686,-2.478 238.644,-1.988 238.644,-1.988L238.588,-1.988C238.588,-1.988 238.546,-2.478 238.42,-2.884L236.558,-8.554L237.608,-8.554L237.608,-9.94L233.73,-9.94L233.73,-8.554L234.64,-8.554L237.664,0Z" style="fill:white;fill-rule:nonzero;"/>
                <path d="M243.04,0L246.764,0L246.764,-1.372L245.784,-1.372L246.4,-3.234L249.536,-3.234L250.152,-1.372L249.172,-1.372L249.172,0L252.91,0L252.91,-1.372L252,-1.372L249.018,-9.94L246.932,-9.94L243.95,-1.372L243.04,-1.372L243.04,0ZM246.82,-4.662L247.772,-7.476C247.912,-7.966 247.954,-8.344 247.954,-8.344L247.996,-8.344C247.996,-8.344 248.024,-7.966 248.178,-7.476L249.116,-4.662L246.82,-4.662Z" style="fill:white;fill-rule:nonzero;"/>
                <path d="M255.024,0L259.252,0L259.252,-1.372L258.048,-1.372L258.048,-8.47L259.938,-8.47L259.938,-6.972L261.492,-6.972L261.492,-9.94L252.784,-9.94L252.784,-6.972L254.338,-6.972L254.338,-8.47L256.214,-8.47L256.214,-1.372L255.024,-1.372L255.024,0Z" style="fill:white;fill-rule:nonzero;"/>
            </g>
        </g>
    </g>
</svg>
