<svg width="395" height="91" viewBox="0 0 395 91" fill="none" xmlns="http://www.w3.org/2000/svg">
<path fill-rule="evenodd" clip-rule="evenodd" d="M37.9586 0.934784C67.3774 0.983934 75.8407 9.44456 75.7918 38.7617C75.772 50.578 74.376 58.9969 70.7965 64.8391C63.0053 81.2558 45.6799 89.0982 37.8083 90.9708L37.8325 76.4622C8.41124 76.4129 -0.0494497 67.9535 -0.000521725 38.6351C0.0483769 9.31792 8.53739 0.885637 37.9586 0.934784ZM37.8039 32.2752C33.6123 32.2735 30.2164 28.8879 30.2181 24.7124C30.2198 20.5383 33.6185 17.1542 37.8101 17.1559C42.0005 17.1576 45.3976 20.5445 45.3957 24.7187C45.3943 28.8941 41.9942 32.2769 37.8039 32.2752ZM37.8018 37.4724C44.0881 37.475 54.2438 38.7769 54.2411 45.0387C54.2387 51.3018 47.4522 58.8955 37.793 58.8914C28.1323 58.8873 21.3535 51.2886 21.3561 45.0252C21.3586 38.7634 31.5143 37.4699 37.8018 37.4724Z" fill="#FF5065"/>
<path d="M90.8579 54.5512C90.8579 39.816 101.437 32.2259 111.148 32.2259C113.437 32.1266 115.721 32.5067 117.854 33.3418C119.987 34.177 121.922 35.4487 123.533 37.0752L124.73 33.2567H136.74V75.8222H125.316L123.533 71.6523C121.901 73.4347 119.886 74.826 117.64 75.7224C115.394 76.6188 112.975 76.9973 110.562 76.8295C100.076 76.8295 90.8579 68.1618 90.8579 54.5512ZM124.026 54.5512C124.026 47.5233 119.593 43.3768 113.963 43.3768C108.333 43.3768 103.9 47.7107 103.9 54.5512C103.9 61.3916 108.263 65.702 113.963 65.702C119.663 65.702 124.026 61.4151 124.026 54.5512Z" fill="#FF5065"/>
<path d="M143.566 65.5844L153.3 61.1569C153.885 62.8004 154.957 64.2273 156.373 65.2482C157.789 66.2692 159.483 66.8358 161.229 66.8729C164.466 66.8729 165.92 65.2565 165.92 63.4761C165.92 61.6957 164.466 60.2198 160.806 58.7908L155.505 56.8933C152.744 56.1547 150.314 54.5051 148.611 52.2126C146.907 49.9202 146.03 47.1198 146.122 44.2665C146.122 37.2387 152.432 32.1786 160.783 32.1786C168.031 32.1786 172.511 34.9898 175.021 40.0967L165.92 45.1802C165.642 44.1405 165.035 43.2184 164.19 42.5514C163.344 41.8843 162.306 41.5081 161.229 41.4788C159.352 41.4788 158.085 42.5096 158.085 44.0557C158.085 45.6018 158.93 46.3983 160.9 47.1011L166.694 49.2329C173.356 51.7161 177.695 55.722 177.695 63.2887C177.695 70.8553 171.127 76.829 160.736 76.829C151.494 76.829 145.794 72.3312 143.566 65.5844Z" fill="#FF5065"/>
<path d="M183.654 14.9134H196.626V47.2885L208.636 33.2327H224.328L206.337 52.7234L225.454 75.8217H209.034L196.579 59.8918V75.8217H183.654V14.9134Z" fill="#FF5065"/>
<path d="M223.905 54.5508C223.905 39.8157 234.484 32.2256 244.218 32.2256C246.503 32.1295 248.783 32.5112 250.912 33.3463C253.041 34.1813 254.971 35.4513 256.58 37.0748L257.776 33.2563H269.786V75.8218H258.363L256.58 71.6519C254.947 73.4343 252.933 74.8256 250.687 75.722C248.441 76.6184 246.021 76.9969 243.608 76.8291C233.123 76.8291 223.905 68.1614 223.905 54.5508ZM257.096 54.5508C257.096 47.5229 252.663 43.3764 247.033 43.3764C241.403 43.3764 236.97 47.7103 236.97 54.5508C236.97 61.3912 241.31 65.7017 247.033 65.7017C252.756 65.7017 257.096 61.4147 257.096 54.5508Z" fill="#FF5065"/>
<path d="M291.038 70.9494L289.584 75.6346H278.747V14.7263H291.719V37.5435C293.385 35.7375 295.42 34.3094 297.686 33.3557C299.952 32.4019 302.397 31.9447 304.855 32.0149C314.753 32.0149 324.816 39.0428 324.816 54.3401C324.816 68.6536 314.66 76.6419 304.174 76.6419C301.689 76.8096 299.199 76.3803 296.914 75.3899C294.628 74.3995 292.614 72.8768 291.038 70.9494ZM311.751 54.551C311.751 47.8042 307.411 43.4704 301.618 43.4704C295.824 43.4704 291.461 47.7105 291.461 54.551C291.461 61.3914 295.894 65.6082 301.524 65.6082C302.94 65.6095 304.341 65.3177 305.638 64.7513C306.936 64.1849 308.102 63.3562 309.063 62.3173C310.024 61.2784 310.759 60.052 311.221 58.7153C311.684 57.3786 311.864 55.9607 311.751 54.551Z" fill="#FF5065"/>
<path d="M329.93 14.9134H342.902V75.8217H329.93V14.9134Z" fill="#FF5065"/>
<path d="M373.256 76.8288C360.284 76.8288 351.323 67.9034 351.323 54.527C351.323 41.1506 360.214 32.2018 373.162 32.2018C388.174 32.2018 395 42.603 395 53.0746C395.006 54.6508 394.833 56.2226 394.484 57.7598H364.295C364.533 60.072 365.662 62.201 367.444 63.6963C369.226 65.1916 371.521 65.9359 373.842 65.7716C375.641 65.8743 377.432 65.4642 379.006 64.589C380.58 63.7138 381.872 62.4096 382.732 60.8287L393.452 66.0996C389.722 72.9166 382.967 76.8288 373.256 76.8288ZM364.553 49.1624H381.724C381.449 47.1319 380.417 45.2799 378.834 43.9768C377.251 42.6737 375.233 42.0157 373.185 42.1345C371.129 42.0243 369.105 42.6831 367.509 43.9826C365.913 45.282 364.859 47.1287 364.553 49.1624Z" fill="#FF5065"/>
</svg>
