<svg xmlns="http://www.w3.org/2000/svg" viewBox="0 0 507.2 412"><path d="M399.4 121.6c-22-26.2-54.7-40.8-89.5-40.2h-1.5l1.3-.6c38.9-19 84.7-15.7 119.4 8.6l.5.3-.5.2c-1.2.5-2.5 1.1-3.7 1.8a54.3 54.3 0 0 0-10.2 7c-7 6.1-12.3 14-15.3 22.7l-.2.5-.3-.3z" fill="#028844"/><path d="M286.2 182c-8.9-2.4-18.4-2.4-27.4 0-4 1.1-7.9 2.6-11.5 4.5-1.2.6-2.4 1.3-3.5 2l-.5.3v-.6c-.8-42.4 22.1-82.2 59.6-103.9l1.3-.7-.8 1.2c-20 28.6-26.1 63.8-16.7 96.7l.2.6-.7-.1z" fill="#e22922"/><path d="M344.1 161.1c-10.1-1-20.4.7-29.9 4.8-1.5.6-3 1.4-4.4 2.1-6.2 3.3-11.8 7.6-16.4 12.8l-.4.4-.2-.5c-10.3-32.2-5.6-67.4 12.9-96.4l.3-.5 38.7 77.4-.6-.1z" fill="#0076d6"/><path d="M307.4 83h.6c34.4.9 66.2 16.7 87.1 43.3l.4.4-.6.1c-6.9 1-13.5 3.1-19.8 6.5l-4.2 2.4c-8.7 5.6-15.9 13.2-20.7 22.1l-.3.5L307.4 83z" fill="#ffd500"/><path d="M436.4 87c-35.2-25.4-85.2-29.7-129-7.3l-8-12.2c-.3-.5-.8-.6-1.3-.3-.4.2-.7.7-.4 1.2l5.7 13.5c-43 23.8-67.5 67.7-66.1 111.1.1 2.3.2 4.7.5 7 1.9-2 4-3.8 6.2-5.4 1.8-1.3 3.8-2.5 5.8-3.6 3.3-1.7 6.8-3.1 10.5-4.1 9.2-2.4 18.7-2.1 27.6.8.2.1.4.1.6.2 1.5.5 3 1.1 4.5 1.8.8-1.1 1.6-2.2 2.5-3.3.3-.4.6-.7.9-1.1 4.4-5.2 9.9-9.6 16.1-12.9 1.3-.7 2.7-1.3 4-1.9 10-4.3 20.7-5.6 31-3.9l44.9 84.5c1.7 3.1 4.3 5.4 7.3 6.7 1.8.8 3.7 1.2 5.6 1.3.6 0 1.3 0 1.9-.1 1.9-.2 3.8-.7 5.5-1.7 7.3-3.9 10.1-13 6.2-20.4l-2.6-4.9c-.8-1.6-2.8-2.2-4.4-1.4-1.6.8-2.2 2.8-1.4 4.4l2.6 4.9c2.2 4.1.6 9.3-3.5 11.5-2.8 1.5-6.1 1.2-8.7-.4h-.1c-.2-.1-.3-.2-.4-.3-1.5-1.3-2.7-3.5-2.7-3.5l-44.5-83.8c4.3-9.5 11.4-17.7 20.6-23.5 1.3-.8 2.6-1.6 3.9-2.3 6.2-3.3 12.9-5.4 19.7-6.1.5-.1.9-.1 1.4-.1 1.4-.1 2.7-.2 4.1-.2.3-1.6.6-3.2 1-4.8.1-.2.1-.4.2-.6 2.5-9 7.6-17 14.7-23.3 2.9-2.5 6-4.6 9.2-6.4 2-1.1 4.1-2 6.2-2.8 2.6-.9 5.2-1.6 7.9-2.1l-5.7-4.2zm-150.1 94.7c-9-2.4-18.4-2.4-27.6 0-5.4 1.4-10.5 3.7-15.1 6.6-.7-41 21-81.4 59.5-103.6-19.6 28-26.3 63.6-16.8 97zm57.9-21zm-.9-1.8l.9 1.8c-10.1-1-20.4.6-30.1 4.8-8.1 3.5-15.2 8.7-20.9 15-10.5-32.6-5.2-67.8 12.8-96.2l37.3 74.6zm8.2 8.6zm19.3-32.1c-8.9 5.7-16 13.3-20.8 22.2l-1-1.8-41-72.6c33.5.9 65.7 16.2 86.9 43.1-8.5 1.3-16.7 4.4-24.1 9.1zm44.3-36.9c-7.1 6.2-12.4 14.1-15.4 22.9-22.3-26.5-55.6-40.9-89.8-40.3 39.9-19.5 85.5-14.9 119.1 8.6-5 2.2-9.7 5.1-13.9 8.8zM344.2 160.7zM344.2 160.7zM351.5 167.5z"/><path d="M368 268.3c-5.9-1.8-14.2-6.6-22.6-12.8 1.6-2.6 3.1-5.5 4.3-8.4 2.6-6.5 3.9-9.8 9.9-10.4v-2.8c-3.3.2-6.7.2-10.1.2-3.3 0-6.6-.1-9.9-.2v2.8c2.2.5 4.6.7 6.8 1.4 0 2.6-1.4 7.1-2.7 10.2-.7 1.5-1.4 2.9-2.2 4.2-7.7-6.2-15-13.4-20-20.5 7.2-3.4 15.7-7.5 15.7-16.2 0-8.3-6-12.6-14.4-12.6-9.2 0-16.9 6.7-16.9 15.4 0 4.4 1.3 8.8 3.4 13.2-8.3 4.2-13.9 9.3-13.9 18.9 0 14 11.3 20.8 23.8 20.8 9.1 0 15.9-3.6 21.2-9.3 9.5 5.5 19.3 9.1 27.2 9.4l.4-3.3zm-46.5-60.1c5 0 6.6 3.9 6.6 8.4 0 5.8-4.8 8.9-9.5 11-2.4-4.2-3.8-8.3-3.8-12 0-3.7 2.8-7.4 6.7-7.4zm13.1 52.1c-3.2 2.5-8 3.8-11.8 3.8-8.4 0-15.7-6.5-15.7-16.2 0-5 1.9-8.1 5.2-10.8 5.6 8.3 14.2 16.2 23.4 22.3-.3.3-.7.6-1.1.9zM333.1 315.1c-.7-2.7-2-5.7-5.3-5.7-2.4 0-5.3 2.1-7.2 3.7v22.7c0 7.3 3.2 6.3 9.1 7v2.9c-5.2 0-10.5-.2-15.6-.2-3.9 0-7.7 0-11.6.2v-2.9l6.2-1v-27.4c0-3.2-.3-5.9-4.4-5.9-.8 0-1.6 0-2.4.1v-2.8c3-.7 6-1.5 9-2.3 2-.6 4.7-1.6 6.7-1.6 3 0 2.9 3.9 2.9 6v1c2.9-3.2 7.4-7.3 12-7.3 4.2 0 7.5 2.3 7.5 6.8.1 3.5-3.3 6.6-6.9 6.7zM246.7 345.3c-4.1 0-8.2 0-12.2.2v-2.9l6-1V320c0-4.8-.1-10.9-6.6-10.9-3.2 0-8.1 1.7-10.9 3.3v24.7c0 4.6 1.7 5 5.9 5.5v2.9c-4.2 0-8.3-.2-12.4-.2-3.9 0-7.8 0-11.7.2v-2.9l6.2-1v-26.9c0-3.4-.1-6.4-4.3-6.4-.8 0-1.6 0-2.4.1v-2.8c3-.7 6-1.5 9-2.3 2.7-.7 5.1-1.6 6.7-1.6 3.5 0 3 4.5 3 6.8 4.7-2.9 12.4-6.8 18-6.8 3.6 0 6.3.8 8.7 3.6 2.9 3.3 2.7 8.8 2.7 12.9V337c0 6 3.1 5 7.6 5.7v2.9c-4.3-.1-8.8-.3-13.3-.3zM159.3 317.5c-4.5 0-6.2 1.2-6.2 5.9v18.5c-6.7 2.8-14.8 4.9-24.7 4.9-19.8 0-32.9-13.8-32.9-33 0-18.9 15-34.3 34.5-34.3 9.5 0 17.1 2.3 22.7 4.3l-.1 16.5h-2.8c-.9-5-2.7-9.3-5.9-12.2-3.1-2.7-7.2-4.3-12.2-4.3-16.8 0-20.8 19.4-20.8 30.6 0 11.4 4.1 28.2 18.9 28.2 8.1 0 10.3-2.5 10.3-10.9v-12.9l-8-1.2v-3.2h28.5v3.2h-1.3z"/><path d="M372.4 346.1c-4.5 0-7.6-.9-9.3-5.5-3.1 4.6-9.1 5.9-13.5 5.9-8.1 0-15.5-3.4-15.5-12.3 0-14.2 18.5-14.4 28.6-14.4v-5.5c0-5.3-2.5-7.4-8.1-7.4-3.7 0-7.7 1.2-11.1 2.4V304c4.7-1.4 9.4-2.3 15.2-2.3 4.1 0 9.8.8 12.8 3.8 3.3 3.2 3.2 7.1 3.2 11.4v19.6c0 3.4 1 6.2 4.5 6.2 3 0 6.2-.3 9.1-.6v-49.3c0-3.5 0-6.5-4.3-6.5-.8 0-1.6.1-2.4.1v-2.8c3-.7 6-1.5 9.1-2.3 2.7-.7 5-1.6 6.7-1.6 3.5 0 2.9 4.4 2.9 6.8v50.6c0 4.7 2.7 4.9 9.9 5.5v2.9c-12.6 0-25.1.6-37.8.6zm-9.7-22.1c-6.4 0-15.6 1.1-15.6 10 0 4.5 2 7.3 6.7 7.3 3.8 0 6.7-2.7 7.9-5.8.9-2.3 1-4.2 1-6.7V324zM247.1 270.2c-4.6 0-7.6-.9-9.3-5.5-3.1 4.7-9.1 6-13.6 6-8 0-15.5-3.5-15.5-12.4 0-14.2 18.5-14.4 28.7-14.4v-5.5c0-5.3-2.6-7.3-8.2-7.3-3.7 0-7.8 1.1-11.1 2.3v-5.3c4.8-1.3 9.3-2.3 15.3-2.3 4 0 9.8.8 12.9 3.8 3.2 3.2 3.1 7.2 3.1 11.5v19.5c0 3.4 1 6.3 4.5 6.3 3 0 6.1-.3 9.1-.7v-49.3c0-3.5-.1-6.5-4.4-6.5-.8 0-1.6.2-2.3.2v-2.9c3-.7 6-1.5 9-2.3 2.7-.7 5-1.6 6.8-1.6 3.4 0 2.9 4.5 2.9 6.8v50.6c0 4.7 2.7 4.9 9.9 5.6v2.8c-12.7 0-25.1.6-37.8.6zm-9.7-22.1c-6.5 0-15.7 1.1-15.7 10 0 4.4 2 7.3 6.7 7.3 3.9 0 6.9-2.8 8-5.8.9-2.2 1.1-4.2 1.1-6.7v-4.8zM300.5 323l-29 .4c.2 10.7 4.8 17.6 16.2 17.6 3.1 0 6.8-.7 9.4-1.5v3.7c-5 2.2-9.2 3.2-14.8 3.2-13.5 0-23.9-8.8-23.9-22.7 0-13.6 10.2-22.1 23.4-22.1 10.6 0 18.9 7.2 18.9 18.1-.1 1.1-.1 2.3-.2 3.3zm-19.2-17.1c-6.8 0-9.4 7.9-9.7 13.6l11.6-1.2c3-.3 4.9-.7 4.9-4.2-.1-4-2.4-8.2-6.8-8.2z"/><path d="M212.7 230c-2-1.5-4.3-2.7-6.8-2.7-1.9 0-2.9 2-3.5 3.5 2.8 2.3 4.5 6.4 4.5 10 0 10.4-8.5 16.5-18.3 16.5-2.1 0-4.1-.1-6.1-.6-1.1 1.4-2.7 2.7-4.4 3.3.1 2.1 2.5 2.2 4.1 2.2 3.4 0 6.8-.3 10.2-.3 7.6 0 16 2.3 16 11.3 0 12.7-12.9 18-23.8 18-7.6 0-19.6-3.5-19.6-12.9 0-4.3 3.5-7.2 7-8.9-3-1.8-3.9-5.2-3.9-8.5 0-.6.1-1.1.2-1.7 2.9-.4 8.5-1.8 10.4-4.1-5.9-2.3-9.3-6.9-9.3-13.3 0-10.9 9.4-16.1 19.2-16.1 3.7 0 8 .9 11.1 3 1.2-4.5 4.7-7.7 9.4-7.7 1.9 0 6 .6 6 3.2.1 2.3-1.1 4.2-2.4 5.8zm-24.8.3c-5.2 0-7.4 4.2-7.4 9.7 0 6.4 1.6 12.7 8 12.7 5.2 0 7.3-4 7.3-9.6 0-5.9-1.7-12.8-7.9-12.8zm3.2 41.3c-3.7 0-5.5.4-9.3.4-2.5 0-4.7-.2-6.5-.8-1.2.9-2.4 3.2-2.4 4.7 0 6 5.8 8.2 14.1 8.2 9.4 0 15-3 15-7.5 0-5.1-6.9-5-10.9-5zM165.3 247.6l-29 .4c.3 10.6 4.7 17.6 16.2 17.6 3.1 0 6.7-.6 9.4-1.5v3.7c-4.9 2.3-9.2 3.2-14.7 3.2-13.5 0-23.9-8.8-23.9-22.6 0-13.7 10.1-22.1 23.3-22.1 10.7 0 18.9 7.3 18.9 18 0 1-.1 2.2-.2 3.3zm-19.2-17.3c-6.7 0-9.4 8-9.7 13.6l11.6-1.1c3-.3 4.9-.8 4.9-4.2 0-4-2.4-8.3-6.8-8.3zM203.8 323l-29 .4c.3 10.7 4.8 17.6 16.3 17.6 3.1 0 6.6-.7 9.3-1.5v3.7c-5 2.2-9.2 3.2-14.7 3.2-13.5 0-23.9-8.8-23.9-22.7 0-13.6 10.1-22.1 23.4-22.1 10.6 0 18.9 7.2 18.9 18.1-.1 1.1-.2 2.3-.3 3.3zm-19.1-17.1c-6.8 0-9.4 7.9-9.7 13.6l11.5-1.2c3-.3 4.9-.7 4.9-4.2 0-4-2.4-8.2-6.7-8.2zM121 251.1h-3.2c-3 12.8-7.3 14-20.2 14-8.2 0-9.3-.7-9.3-6.2v-50.2l9.3-1.5v-2.8H65.2v2.8c7.7.2 9.5 1.7 9.5 7.7v50l-9.5 1.8v2.8h54.2l1.6-18.4z"/></svg>