<?xml version="1.0" encoding="UTF-8"?><svg id="Logo_01:_600_x_600_px" xmlns="http://www.w3.org/2000/svg" viewBox="0 0 600 300"><defs><style>.cls-1{fill:#d69e3d;}</style></defs><path class="cls-1" d="M367.82,125.63l-.1-.7,28.8-3.8-.3,13.2c1.9-7.2,8.3-13.2,17.4-13.2,8.3,0,14.5,4.4,15.2,13.1,2-7.2,8.3-13.1,17.4-13.1s15.3,4.9,15.3,14.7v38.5c0,10.5,0,28.1,8.5,28.1,3.5,0,6.1-3.1,6.1-6.8,0-3.9-2.7-5.6-4.7-6.6,.3-6.3,4.8-9.2,9.8-9.2,5.3,0,10.3,3.6,10.3,10,0,9.7-11.3,13.4-19.3,13.4-13.2,0-29.2-10.1-29.2-29.6v-38.3c0-3.9-.1-10-5-10s-8.9,7.2-9.1,13v35.3h5.4v.7h-29.3v-.7h5.4v-38.3c0-3.9-.1-10-5-10s-9.1,7.5-9.1,13.4v34.9h5.5v.7h-32.7v-.7h8.7v-49.3l-10,1.3Z"/><path class="cls-1" d="M153.77,104.97h-13.9v68.6h8c19.2,0,27.5-13.5,31.3-30.7h.7l-6.3,31.4H108.47v-.7h10.8V104.97h-10.8v-.7h45.3v.7Z"/><g><path class="cls-1" d="M248.59,181.03c0-5,3.7-7.3,7.5-7.3,3.6,0,7.5,2.2,7.7,6.7-2.1,.6-3.4,2.7-3.4,5.2,0,3.4,2.8,6,12.1,6,12.5,0,23.1-4.7,23.1-11.4,0-5.8-6.2-7.4-14.2-7.4-2.6,0-6.8,.2-11.4,.2-10,0-21.8-1.5-21.8-11.7,0-5.4,2.8-11.5,13.7-14.6-5-1.6-10-5.1-10-11.5,0-12.1,15.9-16,25.4-15.7-2.5-9.5,3.3-18.1,13-18.1,5.7,0,9.5,3.3,9.5,8.2s-3.6,8.2-8.3,8.5c.5-3.1-3.1-4.7-6.4-4.7s-7.8,1.5-7.1,6.1c10.9,0,21.7,5.3,21.7,13.9,0,10.2-10.4,15.8-24.7,15.8-3.8,0-8-.8-12.3-2.1-10.3,3.5-10.6,8,8.8,8,2.9,0,7.1-.2,10.4-.2,10.1,0,23.1,2.2,23.1,15.4s-14.2,22-33.5,22c-10.9,0-22.9-2.3-22.9-11.3Zm20.1-47.1c0,11.5,2.3,14.6,7.4,14.6,6.6,0,6.7-6.9,6.7-13.9,0-10.4-1.9-14.4-6.8-14.4s-7.3,4.2-7.3,13.7Z"/><path class="cls-1" d="M336.49,120.23c16.3,0,29,11.4,29,27s-12.7,27-29,27-29-11.4-29-27,12.7-27,29-27Zm0,53.3c9,0,9.1-10.5,9.1-26.3s-.1-26.3-9.1-26.3-9.1,10.5-9.1,26.3,.1,26.3,9.1,26.3Z"/></g><g><path class="cls-1" d="M216.68,134.3c0-6.3,0-13.2-7.4-13.2-4,0-8.3,3.4-8.3,8.3,0,2.3,1.4,4.9,3.5,5.8-.3,5.7-4.4,8.4-8.9,8.4-4.8,0-9.4-2.9-9.4-9.4,0-12.2,16.7-13.8,25.9-13.8,11.4,0,23.2,3.7,23.2,15.3v25.9c0,5.1,1.9,10.5,9,4.6l.4,.5c-4.6,3.9-10.3,7.6-17.5,7.6-6.2,0-9.9-4.8-10.4-11.5-2.3,7-10.6,11.5-18.5,11.5-9.4,0-15.4-4.5-15.4-13.1,0-15.8,22.5-12.3,33.8-21.6v-5.3Zm0,6.1c-6.5,5.3-12.4,5.4-12.4,17.7,0,4.4,.7,9.8,5.8,9.8s6.6-5.8,6.6-8.4v-19.1Z"/><g><path class="cls-1" d="M187.15,107.98l-2.18,1.54,.97,1.38,1.72-1.22,.57,.8-1.72,1.22,1.48,2.09-.9,.63-3.59-5.07,3.07-2.17,.57,.8Z"/><path class="cls-1" d="M193.08,110.73l-2.66-5.6,.99-.47,2.66,5.6-.99,.47Z"/><path class="cls-1" d="M199.25,101.91l1.06-.29,1.65,5.98-.96,.27-3.5-3.37,1.11,4.03-1.06,.29-1.65-5.98,1-.28,3.46,3.34-1.1-3.99Z"/><path class="cls-1" d="M209.98,106.72l-.63-1.49-2.44,.14-.44,1.55-1.17,.07,1.96-6.33,1.19-.07,2.69,6.05-1.16,.07Zm-2.79-2.31l1.77-.1-1.03-2.46-.74,2.57Z"/><path class="cls-1" d="M218.71,101.18l1.09,.15-.86,6.14-.99-.14-1.87-4.48-.58,4.13-1.09-.15,.86-6.14,1.02,.14,1.84,4.44,.58-4.1Z"/><path class="cls-1" d="M224.02,105.54c.63-1.64,2.47-2.49,4.1-1.86,.95,.37,1.61,1.13,1.86,2.02l-1,.29c-.17-.6-.58-1.09-1.21-1.34-1.1-.43-2.29,.18-2.72,1.29s.03,2.35,1.14,2.78c.63,.24,1.26,.15,1.79-.17l.54,.89c-.78,.48-1.79,.6-2.73,.23-1.63-.63-2.41-2.49-1.78-4.13Z"/><path class="cls-1" d="M233.24,112.37l2.29,1.63-.57,.8-3.17-2.27,3.61-5.05,3.1,2.21-.57,.8-2.21-1.58-.97,1.36,1.93,1.38-.58,.81-1.93-1.38-.91,1.27Z"/></g></g></svg>