<svg width="328" height="53" viewBox="0 0 328 53" fill="none" xmlns="http://www.w3.org/2000/svg">
<path d="M0 43.8246H5.98456V47.4074H0V43.8246Z" fill="#F63E7C"/>
<path fill-rule="evenodd" clip-rule="evenodd" d="M2.99228 4.41376L5.98456 10.3851L0 10.3851L2.99228 4.41376Z" fill="#F63E7C"/>
<path d="M0 11.5793H5.98456V42.6303H0V11.5793Z" fill="#F63E7C"/>
<path fill-rule="evenodd" clip-rule="evenodd" d="M11.969 9.19083L16.7567 4.41376L35.9073 24.7163L16.7567 47.4074L11.969 42.6304L26.7879 24.7163L11.969 9.19083Z" fill="#F63E7C"/>
<path d="M57.5438 38.596L78.3064 13.8478H57.8823V11.6789H81.4659V13.681L60.7598 38.4292H81.353V40.5981H57.5438V38.596Z" fill="#212121"/>
<path d="M99.4956 41.1543C97.4269 41.1543 95.5086 40.765 93.7408 39.9864C91.9729 39.1707 90.4308 38.077 89.1143 36.7051C87.8355 35.2963 86.8199 33.6835 86.0676 31.8667C85.353 30.05 84.9957 28.1035 84.9957 26.0273C84.9957 23.9881 85.353 22.0787 86.0676 20.2991C86.8199 18.4823 87.8355 16.9066 89.1143 15.5719C90.3932 14.2001 91.8977 13.1249 93.6279 12.3463C95.3957 11.5677 97.2952 11.1784 99.3263 11.1784C101.395 11.1784 103.313 11.5862 105.081 12.4019C106.849 13.1805 108.372 14.2557 109.651 15.6275C110.93 16.9622 111.927 18.538 112.641 20.3547C113.356 22.1343 113.713 24.0252 113.713 26.0273C113.713 26.2127 113.713 26.4537 113.713 26.7503C113.713 27.0098 113.695 27.1766 113.657 27.2508H87.9295C88.0423 28.9192 88.4373 30.4764 89.1143 31.9223C89.7914 33.3312 90.6377 34.5547 91.6532 35.5929C92.7064 36.631 93.91 37.4467 95.2641 38.0399C96.6182 38.6331 98.0663 38.9297 99.6084 38.9297C100.624 38.9297 101.621 38.7999 102.599 38.5404C103.577 38.2438 104.479 37.8545 105.307 37.3725C106.172 36.8905 106.924 36.3158 107.564 35.6485C108.241 34.944 108.767 34.184 109.143 33.3683L111.626 34.0357C111.212 35.0738 110.592 36.0378 109.764 36.9276C108.974 37.7803 108.034 38.5219 106.943 39.1522C105.89 39.7824 104.724 40.2644 103.445 40.5981C102.166 40.9689 100.85 41.1543 99.4956 41.1543ZM111.005 25.0262C110.892 23.3207 110.497 21.7636 109.82 20.3547C109.181 18.9458 108.335 17.7408 107.282 16.7398C106.266 15.7016 105.081 14.9045 103.727 14.3484C102.373 13.7552 100.925 13.4585 99.3828 13.4585C97.8406 13.4585 96.3925 13.7552 95.0384 14.3484C93.6843 14.9045 92.4807 15.7016 91.4275 16.7398C90.412 17.7408 89.5845 18.9643 88.9451 20.4103C88.3432 21.8192 87.9859 23.3578 87.8731 25.0262H111.005Z" fill="#212121"/>
<path d="M133.799 14.1815C131.166 14.2557 128.853 15.0343 126.86 16.5173C124.904 17.9633 123.531 19.9654 122.741 22.5236V40.5981H119.92V11.6789H122.628V18.7975C123.644 16.7583 124.979 15.1084 126.634 13.8478C128.327 12.5502 130.132 11.8087 132.05 11.6233C132.426 11.5862 132.765 11.5677 133.066 11.5677C133.367 11.5677 133.611 11.5677 133.799 11.5677V14.1815Z" fill="#212121"/>
<path d="M149.961 41.1543C147.892 41.1543 145.974 40.765 144.206 39.9864C142.476 39.1707 140.971 38.077 139.693 36.7051C138.414 35.3333 137.417 33.7391 136.702 31.9223C135.988 30.1056 135.63 28.1962 135.63 26.1941C135.63 24.1549 135.988 22.227 136.702 20.4103C137.455 18.5936 138.47 16.9993 139.749 15.6275C141.028 14.2557 142.532 13.1805 144.263 12.4019C146.03 11.5862 147.93 11.1784 149.961 11.1784C151.992 11.1784 153.873 11.5862 155.603 12.4019C157.333 13.1805 158.838 14.2557 160.117 15.6275C161.433 16.9993 162.449 18.5936 163.163 20.4103C163.916 22.227 164.292 24.1549 164.292 26.1941C164.292 28.1962 163.916 30.1056 163.163 31.9223C162.449 33.7391 161.452 35.3333 160.173 36.7051C158.894 38.077 157.371 39.1707 155.603 39.9864C153.873 40.765 151.992 41.1543 149.961 41.1543ZM138.451 26.3054C138.451 28.0108 138.752 29.6236 139.354 31.1438C139.956 32.6268 140.765 33.9244 141.78 35.0367C142.833 36.149 144.056 37.0388 145.447 37.7062C146.839 38.3365 148.325 38.6516 149.905 38.6516C151.484 38.6516 152.97 38.3365 154.362 37.7062C155.753 37.0388 156.976 36.1305 158.029 34.9811C159.082 33.8318 159.91 32.5156 160.512 31.0325C161.113 29.5124 161.414 27.8811 161.414 26.1385C161.414 24.433 161.113 22.8388 160.512 21.3557C159.91 19.8356 159.082 18.5194 158.029 17.4071C156.976 16.2578 155.753 15.3494 154.362 14.6821C153.008 14.0147 151.541 13.681 149.961 13.681C148.381 13.681 146.896 14.0147 145.504 14.6821C144.112 15.3494 142.89 16.2578 141.837 17.4071C140.821 18.5565 139.994 19.9098 139.354 21.4669C138.752 22.9871 138.451 24.5999 138.451 26.3054Z" fill="#212121"/>
<path d="M195.029 40.5981H192.208V24.4701C192.208 17.3144 189.782 13.7366 184.93 13.7366C183.726 13.7366 182.542 13.9591 181.375 14.404C180.247 14.8489 179.175 15.4792 178.16 16.2949C177.182 17.1105 176.317 18.0745 175.564 19.1868C174.812 20.262 174.248 21.4299 173.872 22.6904V40.5981H171.051V0H173.872V18.575C175.075 16.3134 176.73 14.5152 178.837 13.1805C180.981 11.8457 183.275 11.1784 185.72 11.1784C187.337 11.1784 188.729 11.475 189.895 12.0682C191.061 12.6614 192.02 13.5142 192.772 14.6264C193.562 15.7387 194.126 17.092 194.465 18.6863C194.841 20.2434 195.029 22.0045 195.029 23.9696V40.5981Z" fill="#212121"/>
<path d="M216.027 41.1543C213.958 41.1543 212.04 40.765 210.272 39.9864C208.504 39.1707 206.962 38.077 205.646 36.7051C204.367 35.2963 203.351 33.6835 202.599 31.8667C201.884 30.05 201.527 28.1035 201.527 26.0273C201.527 23.9881 201.884 22.0787 202.599 20.2991C203.351 18.4823 204.367 16.9066 205.646 15.5719C206.925 14.2001 208.429 13.1249 210.159 12.3463C211.927 11.5677 213.827 11.1784 215.858 11.1784C217.927 11.1784 219.845 11.5862 221.613 12.4019C223.38 13.1805 224.904 14.2557 226.183 15.6275C227.461 16.9622 228.458 18.538 229.173 20.3547C229.888 22.1343 230.245 24.0252 230.245 26.0273C230.245 26.2127 230.245 26.4537 230.245 26.7503C230.245 27.0098 230.226 27.1766 230.188 27.2508H204.461C204.574 28.9192 204.969 30.4764 205.646 31.9223C206.323 33.3312 207.169 34.5547 208.185 35.5929C209.238 36.631 210.441 37.4467 211.796 38.0399C213.15 38.6331 214.598 38.9297 216.14 38.9297C217.155 38.9297 218.152 38.7999 219.13 38.5404C220.108 38.2438 221.011 37.8545 221.838 37.3725C222.703 36.8905 223.456 36.3158 224.095 35.6485C224.772 34.944 225.299 34.184 225.675 33.3683L228.157 34.0357C227.744 35.0738 227.123 36.0378 226.295 36.9276C225.506 37.7803 224.565 38.5219 223.474 39.1522C222.421 39.7824 221.255 40.2644 219.976 40.5981C218.698 40.9689 217.381 41.1543 216.027 41.1543ZM227.537 25.0262C227.424 23.3207 227.029 21.7636 226.352 20.3547C225.712 18.9458 224.866 17.7408 223.813 16.7398C222.797 15.7016 221.613 14.9045 220.259 14.3484C218.904 13.7552 217.456 13.4585 215.914 13.4585C214.372 13.4585 212.924 13.7552 211.57 14.3484C210.216 14.9045 209.012 15.7016 207.959 16.7398C206.943 17.7408 206.116 18.9643 205.477 20.4103C204.875 21.8192 204.517 23.3578 204.405 25.0262H227.537Z" fill="#212121"/>
<path d="M236.452 40.5981V11.6789H239.273V40.5981H236.452ZM236.452 5.11648V0H239.273V5.11648H236.452Z" fill="#212121"/>
<path d="M259.98 41.043C257.949 41.043 256.087 40.6352 254.395 39.8195C252.702 38.9668 251.235 37.8545 249.994 36.4827C248.79 35.0738 247.831 33.4795 247.117 31.6999C246.44 29.9202 246.101 28.085 246.101 26.1941C246.101 24.2291 246.421 22.3382 247.06 20.5215C247.737 18.7048 248.678 17.1105 249.881 15.7387C251.085 14.3298 252.514 13.2176 254.169 12.4019C255.862 11.5862 257.724 11.1784 259.755 11.1784C262.312 11.1784 264.532 11.8457 266.412 13.1805C268.331 14.4781 269.948 16.0724 271.264 17.9633V11.6789H273.86V41.1543C273.86 43.1193 273.484 44.8433 272.731 46.3263C271.979 47.8094 270.963 49.0329 269.685 49.9968C268.443 50.9979 266.976 51.7394 265.284 52.2214C263.629 52.7405 261.88 53 260.037 53C258.344 53 256.821 52.8332 255.467 52.4995C254.113 52.2029 252.909 51.758 251.856 51.1647C250.84 50.6086 249.919 49.9042 249.091 49.0514C248.301 48.2357 247.606 47.3274 247.004 46.3263L248.922 45.0472C250.088 47.0122 251.668 48.4397 253.661 49.3295C255.655 50.2564 257.78 50.7198 260.037 50.7198C261.541 50.7198 262.952 50.5159 264.268 50.1081C265.622 49.7002 266.788 49.0885 267.766 48.2728C268.782 47.4942 269.572 46.5117 270.136 45.3253C270.738 44.1389 271.039 42.7485 271.039 41.1543V34.8143C269.835 36.7051 268.237 38.2252 266.243 39.3746C264.249 40.4869 262.162 41.043 259.98 41.043ZM260.657 38.6516C261.899 38.6516 263.102 38.4292 264.268 37.9843C265.472 37.5023 266.544 36.8905 267.484 36.149C268.462 35.4075 269.252 34.5733 269.854 33.6464C270.493 32.7195 270.888 31.7926 271.039 30.8657V21.3557C270.587 20.2434 269.986 19.2239 269.233 18.297C268.481 17.333 267.616 16.5173 266.638 15.8499C265.698 15.1826 264.663 14.6635 263.535 14.2928C262.444 13.8849 261.334 13.681 260.206 13.681C258.438 13.681 256.858 14.0518 255.467 14.7933C254.075 15.5348 252.89 16.4988 251.912 17.6852C250.972 18.8716 250.239 20.2249 249.712 21.745C249.223 23.2281 248.979 24.7296 248.979 26.2497C248.979 27.9182 249.279 29.4939 249.881 30.9769C250.483 32.46 251.311 33.7761 252.364 34.9255C253.417 36.0748 254.658 36.9832 256.087 37.6506C257.517 38.3179 259.04 38.6516 260.657 38.6516Z" fill="#212121"/>
<path d="M306.657 40.5981H303.836V24.4701C303.836 17.3144 301.41 13.7366 296.558 13.7366C295.354 13.7366 294.169 13.9591 293.003 14.404C291.875 14.8489 290.803 15.4792 289.787 16.2949C288.809 17.1105 287.944 18.0745 287.192 19.1868C286.44 20.262 285.876 21.4299 285.499 22.6904V40.5981H282.678V0H285.499V18.575C286.703 16.3134 288.358 14.5152 290.464 13.1805C292.608 11.8457 294.903 11.1784 297.348 11.1784C298.965 11.1784 300.357 11.475 301.523 12.0682C302.689 12.6614 303.648 13.5142 304.4 14.6264C305.19 15.7387 305.754 17.092 306.093 18.6863C306.469 20.2434 306.657 22.0045 306.657 23.9696V40.5981Z" fill="#212121"/>
<path d="M328 39.2078C327.849 39.2819 327.586 39.4302 327.21 39.6527C326.872 39.8381 326.42 40.0234 325.856 40.2088C325.329 40.3942 324.728 40.561 324.051 40.7093C323.374 40.8576 322.64 40.9318 321.85 40.9318C321.06 40.9318 320.308 40.8206 319.593 40.5981C318.916 40.3757 318.315 40.042 317.788 39.5971C317.261 39.1521 316.848 38.6145 316.547 37.9843C316.246 37.354 316.095 36.6125 316.095 35.7597V13.9591H311.977V11.6789H316.095V1.77964H318.916V11.6789H325.743V13.9591H318.916V35.0923C318.916 36.1675 319.292 36.9832 320.045 37.5393C320.797 38.0584 321.643 38.3179 322.584 38.3179C323.75 38.3179 324.746 38.1326 325.574 37.7618C326.439 37.354 326.966 37.0944 327.154 36.9832L328 39.2078Z" fill="#212121"/>
</svg>
