<?xml version="1.0" encoding="UTF-8" standalone="no"?>
<svg width="573px" height="403px" viewBox="0 0 573 403" version="1.1" xmlns="http://www.w3.org/2000/svg" xmlns:xlink="http://www.w3.org/1999/xlink" xmlns:sketch="http://www.bohemiancoding.com/sketch/ns">
    <title>Youtube icon</title>
    <description>Created with Sketch (http://www.bohemiancoding.com/sketch)</description>
    <defs></defs>
    <g id="Page-1" stroke="none" stroke-width="1" fill="none" fill-rule="evenodd" sketch:type="MSPage">
        <path d="M220.239349,115.75234 L399.885923,236.357537 L459.163689,135.774366 L220.239349,115.75234 Z" id="path3046" fill-opacity="0.1" fill="#000000" sketch:type="MSShapeGroup"></path>
        <path d="M289.955159,0.583812988 C223.16771,0.583812988 124.485052,4.62931815 94.9464901,5.61704993 C62.8636234,8.48577961 50.987494,10.1664718 33.4160815,25.2037549 C6.64281935,49.014446 0.290421725,95.8018559 0.290421725,167.382944 L0.290421725,235.507221 C0.290421725,317.211005 11.1414875,358.719325 29.0071844,373.901728 C49.6295657,391.592877 63.2267031,393.006803 76.9594336,395.127161 C82.290763,395.933878 120.022841,402.618491 287.458049,402.618491 C391.870575,402.618491 481.61745,397.686686 490.894463,396.492768 C505.808576,394.610709 527.232405,391.878933 543.411803,373.901728 C567.363082,346.679935 572.128566,301.487392 572.128566,236.014446 L572.128566,156.653175 C572.128566,114.273227 569.767923,54.3771516 543.411803,29.3005757 C523.446287,12.3995248 516.13425,7.61729731 474.819318,5.53901525 C463.135092,4.96202057 361.176601,0.583812988 289.955159,0.583812988 L289.955159,0.583812988 Z M228.151691,121.693638 L382.348221,201.289013 L228.151691,281.508665 L228.151691,121.693638 L228.151691,121.693638 Z" id="path3042" fill="#000000" sketch:type="MSShapeGroup"></path>
    </g>
</svg>