<?xml version="1.0" encoding="UTF-8" standalone="no"?>
<svg width="227px" height="65px" viewBox="0 0 227 65" version="1.1" xmlns="http://www.w3.org/2000/svg" xmlns:xlink="http://www.w3.org/1999/xlink" xmlns:sketch="http://www.bohemiancoding.com/sketch/ns">
    <title>Slice 1</title>
    <description>Created with Sketch (http://www.bohemiancoding.com/sketch)</description>
    <defs></defs>
    <g id="Page-1" stroke="none" stroke-width="1" fill="none" fill-rule="evenodd" sketch:type="MSPage">
        <g id="badoo-vector" sketch:type="MSLayerGroup" transform="translate(1.000000, 0.000000)" fill="#000000">
            <g id="Group" sketch:type="MSShapeGroup">
                <path d="M210.45,51.835 C202.099,51.835 195.32,45.065 195.32,36.726 C195.32,28.366 202.099,21.596 210.45,21.596 C218.8,21.596 225.58,28.366 225.58,36.726 C225.58,45.065 218.8,51.835 210.45,51.835 L210.45,51.835 Z M210.45,45.716 C215.42,45.716 219.45,41.686 219.45,36.716 C219.45,31.746 215.42,27.716 210.45,27.716 C205.49,27.716 201.45,31.746 201.45,36.716 C201.45,41.686 205.49,45.716 210.45,45.716 L210.45,45.716 Z" id="Shape"></path>
                <path d="M24.68,61.386 C11.35,61.386 0.45,50.906 -0.22,37.736 L-0.25,36.516 L-0.25,7.056 L-0.25,2.976 C-0.25,1.416 1.12,0.136 2.81,0.136 L3.63,0.136 C5.31,0.136 6.67,1.416 6.67,2.976 L6.67,7.876 L6.67,7.926 L6.67,19.226 L7.05,18.816 C11.55,14.316 17.8,11.526 24.68,11.526 C38.45,11.526 49.62,22.696 49.62,36.457 C49.62,50.216 38.45,61.386 24.68,61.386 L24.68,61.386 Z M24.68,54.466 C34.62,54.466 42.69,46.396 42.69,36.456 C42.69,26.516 34.62,18.445 24.68,18.445 C14.74,18.445 6.67,26.515 6.67,36.456 C6.67,46.396 14.74,54.466 24.68,54.466 L24.68,54.466 Z" id="Shape"></path>
                <path d="M109.27,56.936 C98.1,56.936 89.04,47.876 89.04,36.716 C89.04,25.546 98.1,16.496 109.27,16.496 C114.15,16.496 118.63,18.226 122.13,21.106 L122.57,21.486 L122.57,5.516 L122.57,2.976 C122.57,1.416 123.929,0.136 125.63,0.136 L126.44,0.136 C128.13,0.136 129.491,1.416 129.491,2.976 L129.491,37.526 L129.471,37.526 L129.46,37.755 C128.92,48.436 120.08,56.936 109.27,56.936 L109.27,56.936 Z M109.27,50.016 C116.6,50.016 122.57,44.056 122.57,36.716 C122.57,29.376 116.599,23.416 109.27,23.416 C101.92,23.416 95.96,29.376 95.96,36.716 C95.96,44.056 101.92,50.016 109.27,50.016 L109.27,50.016 Z" id="Shape"></path>
                <path d="M80.58,52.216 C79.1,52.216 77.88,51.236 77.59,49.945 L77.53,49.415 L77.17,49.655 C74.88,51.035 72.19,51.835 69.33,51.835 C60.98,51.835 54.21,45.065 54.21,36.726 C54.21,28.366 60.98,21.596 69.33,21.596 C77.68,21.596 84.46,28.366 84.46,36.726 L84.45,36.776 L84.46,36.776 L84.46,49.377 C84.46,50.937 83.09,52.217 81.4,52.217 L80.58,52.217 L80.58,52.216 Z M69.33,45.716 C74.29,45.716 78.33,41.686 78.33,36.726 C78.33,31.746 74.29,27.716 69.33,27.716 C64.35,27.716 60.33,31.746 60.33,36.726 C60.33,41.686 64.35,45.716 69.33,45.716 L69.33,45.716 Z" id="Shape"></path>
                <path d="M162.95,64.525 C147.45,64.525 134.87,51.956 134.87,36.456 C134.87,20.956 147.45,8.375 162.95,8.375 C178.439,8.375 191.029,20.955 191.029,36.456 C191.029,51.956 178.439,64.525 162.95,64.525 L162.95,64.525 Z M162.95,57.675 C174.66,57.675 184.17,48.165 184.17,36.456 C184.17,24.735 174.66,15.235 162.95,15.235 C151.23,15.235 141.73,24.735 141.73,36.456 C141.73,48.165 151.23,57.675 162.95,57.675 L162.95,57.675 Z" id="Shape"></path>
                <path d="M152.71,31.315 C155.54,31.315 157.84,33.605 157.84,36.435 C157.84,39.265 155.54,41.565 152.71,41.565 C149.88,41.565 147.58,39.265 147.58,36.435 C147.58,33.605 149.88,31.315 152.71,31.315 L152.71,31.315 Z" id="Shape"></path>
            </g>
        </g>
    </g>
</svg>