<?xml version="1.0" encoding="UTF-8" standalone="no"?>
<svg width="227px" height="65px" viewBox="0 0 227 65" version="1.1" xmlns="http://www.w3.org/2000/svg" xmlns:xlink="http://www.w3.org/1999/xlink" xmlns:sketch="http://www.bohemiancoding.com/sketch/ns">
    <title>badoo-logo-white</title>
    <description>Created with Sketch (http://www.bohemiancoding.com/sketch)</description>
    <defs>
        <path d="M15.45,29.835 C7.099,29.835 0.32,23.065 0.32,14.726 C0.32,6.366 7.099,-0.404 15.45,-0.404 C23.8,-0.404 30.58,6.366 30.58,14.726 C30.58,23.065 23.8,29.835 15.45,29.835 L15.45,29.835 Z M15.45,23.716 C20.42,23.716 24.45,19.686 24.45,14.716 C24.45,9.746 20.42,5.716 15.45,5.716 C10.49,5.716 6.45,9.746 6.45,14.716 C6.45,19.686 10.49,23.716 15.45,23.716 L15.45,23.716 Z" id="path-1"></path>
        <path d="M24.68,61.386 C11.35,61.386 0.45,50.906 -0.22,37.736 L-0.25,36.516 L-0.25,2.976 C-0.25,1.416 1.12,0.136 2.81,0.136 L3.63,0.136 C5.31,0.136 6.67,1.416 6.67,2.976 L6.67,19.226 L7.05,18.816 C11.55,14.316 17.8,11.526 24.68,11.526 C38.45,11.526 49.62,22.696 49.62,36.457 C49.62,50.216 38.45,61.386 24.68,61.386 L24.68,61.386 Z M24.68,54.466 C34.62,54.466 42.69,46.396 42.69,36.456 C42.69,26.516 34.62,18.445 24.68,18.445 C14.74,18.445 6.67,26.515 6.67,36.456 C6.67,46.396 14.74,54.466 24.68,54.466 L24.68,54.466 Z" id="path-3"></path>
        <path d="M20.27,56.936 C9.1,56.936 0.04,47.876 0.04,36.716 C0.04,25.546 9.1,16.496 20.27,16.496 C25.15,16.496 29.63,18.226 33.13,21.106 L33.57,21.486 L33.57,2.976 C33.57,1.416 34.929,0.136 36.63,0.136 L37.44,0.136 C39.13,0.136 40.491,1.416 40.491,2.976 L40.491,37.526 L40.471,37.526 L40.46,37.755 C39.92,48.436 31.08,56.936 20.27,56.936 L20.27,56.936 Z M20.27,50.016 C27.6,50.016 33.57,44.056 33.57,36.716 C33.57,29.376 27.599,23.416 20.27,23.416 C12.92,23.416 6.96,29.376 6.96,36.716 C6.96,44.056 12.92,50.016 20.27,50.016 L20.27,50.016 Z" id="path-5"></path>
        <path d="M26.58,30.216 C25.1,30.216 23.88,29.236 23.59,27.945 L23.53,27.415 L23.17,27.655 C20.88,29.035 18.19,29.835 15.33,29.835 C6.98,29.835 0.21,23.065 0.21,14.726 C0.21,6.366 6.98,-0.404 15.33,-0.404 C23.68,-0.404 30.46,6.366 30.46,14.726 L30.45,14.776 L30.46,14.776 L30.46,27.377 C30.46,28.937 29.09,30.217 27.4,30.217 L26.58,30.217 L26.58,30.216 L26.58,30.216 Z M15.33,23.716 C20.29,23.716 24.33,19.686 24.33,14.726 C24.33,9.746 20.29,5.716 15.33,5.716 C10.35,5.716 6.33,9.746 6.33,14.726 C6.33,19.686 10.35,23.716 15.33,23.716 L15.33,23.716 Z" id="path-7"></path>
        <path d="M27.95,56.525 C12.45,56.525 -0.13,43.956 -0.13,28.456 C-0.13,12.956 12.45,0.375 27.95,0.375 C43.439,0.375 56.029,12.955 56.029,28.456 C56.029,43.956 43.439,56.525 27.95,56.525 L27.95,56.525 Z M27.95,49.675 C39.66,49.675 49.17,40.165 49.17,28.456 C49.17,16.735 39.66,7.235 27.95,7.235 C16.23,7.235 6.73,16.735 6.73,28.456 C6.73,40.165 16.23,49.675 27.95,49.675 L27.95,49.675 Z" id="path-9"></path>
        <path id="path-11" d="M4.71,0.315 C7.54,0.315 9.84,2.605 9.84,5.435 C9.84,8.265 7.54,10.565 4.71,10.565 C1.88,10.565 -0.42,8.265 -0.42,5.435 C-0.42,2.605 1.88,0.315 4.71,0.315 L4.71,0.315 Z"></path>
    </defs>
    <g id="Page-1" stroke="none" stroke-width="1" fill="none" fill-rule="evenodd" sketch:type="MSPage">
        <g id="badoo-logo-black" sketch:type="MSLayerGroup" transform="translate(1.000000, 0.000000)">
            <g id="Group-3" transform="translate(195.000000, 22.000000)">
                <mask id="mask-2" sketch:name="Clip 2" fill="white">
                    <use xlink:href="#path-1"></use>
                </mask>
                <g id="Clip-2"></g>
                <path d="M0.32,-0.5 L30.68,-0.5 L30.68,29.86 L0.32,29.86 L0.32,-0.5 Z" id="Fill-1" fill="#FFFFFF" sketch:type="MSShapeGroup" mask="url(#mask-2)"></path>
            </g>
            <g id="Group-6">
                <mask id="mask-4" sketch:name="Clip 5" fill="white">
                    <use xlink:href="#path-3"></use>
                </mask>
                <g id="Clip-5"></g>
                <path d="M-0.28,0.02 L49.64,0.02 L49.64,61.46 L-0.28,61.46 L-0.28,0.02 Z" id="Fill-4" fill="#FFFFFF" sketch:type="MSShapeGroup" mask="url(#mask-4)"></path>
            </g>
            <g id="Group-9" transform="translate(89.000000, 0.000000)">
                <mask id="mask-6" sketch:name="Clip 8" fill="white">
                    <use xlink:href="#path-5"></use>
                </mask>
                <g id="Clip-8"></g>
                <path d="M0,0.02 L40.56,0.02 L40.56,57.02 L0,57.02 L0,0.02 Z" id="Fill-7" fill="#FFFFFF" sketch:type="MSShapeGroup" mask="url(#mask-6)"></path>
            </g>
            <g id="Group-12" transform="translate(54.000000, 22.000000)">
                <mask id="mask-8" sketch:name="Clip 11" fill="white">
                    <use xlink:href="#path-7"></use>
                </mask>
                <g id="Clip-11"></g>
                <path d="M0.2,-0.5 L30.56,-0.5 L30.56,30.22 L0.2,30.22 L0.2,-0.5 Z" id="Fill-10" fill="#FFFFFF" sketch:type="MSShapeGroup" mask="url(#mask-8)"></path>
            </g>
            <g id="Group-15" transform="translate(135.000000, 8.000000)">
                <mask id="mask-10" sketch:name="Clip 14" fill="white">
                    <use xlink:href="#path-9"></use>
                </mask>
                <g id="Clip-14"></g>
                <path d="M-0.16,0.3 L56.12,0.3 L56.12,56.58 L-0.16,56.58 L-0.16,0.3 Z" id="Fill-13" fill="#FFFFFF" sketch:type="MSShapeGroup" mask="url(#mask-10)"></path>
            </g>
            <g id="Group-18" transform="translate(149.000000, 31.000000)">
                <mask id="mask-12" sketch:name="Clip 17" fill="white">
                    <use xlink:href="#path-11"></use>
                </mask>
                <g id="Clip-17"></g>
                <path d="M-0.44,0.22 L9.88,0.22 L9.88,10.66 L-0.44,10.66 L-0.44,0.22 Z" id="Fill-16" fill="#FFFFFF" sketch:type="MSShapeGroup" mask="url(#mask-12)"></path>
            </g>
        </g>
    </g>
</svg>