<?xml version="1.0" encoding="UTF-8" standalone="no"?>
<svg width="239px" height="59px" viewBox="0 0 239 59" version="1.1" xmlns="http://www.w3.org/2000/svg" xmlns:xlink="http://www.w3.org/1999/xlink" xmlns:sketch="http://www.bohemiancoding.com/sketch/ns">
    <title>Slice 1</title>
    <description>Created with Sketch (http://www.bohemiancoding.com/sketch)</description>
    <defs></defs>
    <g id="Page-1" stroke="none" stroke-width="1" fill="none" fill-rule="evenodd" sketch:type="MSPage">
        <g id="balsamiq-logo-noborder" sketch:type="MSLayerGroup" transform="translate(0.000000, 1.000000)" fill="#000000">
            <path d="M6.239,32.585 C6.239,33.289 6.303,33.992 6.495,34.633 C7.519,38.537 10.847,41.225 14.942,41.225 C20.894,41.225 24.35,36.425 24.35,29.321 C24.35,23.114 21.15,17.802 15.071,17.802 C11.295,17.802 7.711,20.49 6.559,24.713 C6.367,25.417 6.239,26.186 6.239,27.081 L6.239,32.585 L6.239,32.585 Z M0.672,-0.437 L6.239,-0.437 L6.239,19.018 L6.367,19.018 C8.351,15.562 11.935,13.386 16.926,13.386 C24.67,13.386 30.045,19.786 30.045,29.129 C30.045,40.2 23.006,45.704 16.095,45.704 C11.615,45.704 8.031,43.977 5.663,39.944 L5.535,39.944 L5.215,45 L0.416,45 C0.543,42.888 0.672,39.752 0.672,37 L0.672,-0.437 L0.672,-0.437 Z" id="Fill-1" sketch:type="MSShapeGroup"></path>
            <path d="M52.33,29.193 C46.187,29.064 39.211,30.153 39.211,36.168 C39.211,39.881 41.643,41.544 44.459,41.544 C48.555,41.544 51.178,38.984 52.074,36.361 C52.266,35.721 52.33,35.08 52.33,34.568 L52.33,29.193 L52.33,29.193 Z M57.77,37.576 C57.77,40.264 57.898,42.888 58.218,45 L53.162,45 L52.714,41.096 L52.522,41.096 C50.794,43.528 47.467,45.704 43.051,45.704 C36.779,45.704 33.58,41.288 33.58,36.809 C33.58,29.321 40.235,25.226 52.202,25.29 L52.202,24.649 C52.202,22.154 51.498,17.482 45.163,17.546 C42.219,17.546 39.211,18.378 37.036,19.85 L35.755,16.074 C38.315,14.474 42.091,13.386 45.995,13.386 C55.466,13.386 57.77,19.85 57.77,25.993 L57.77,37.576 L57.77,37.576 Z" id="Fill-2" sketch:type="MSShapeGroup"></path>
            <path d="M65.195,-0.437 L70.826,-0.437 L70.826,45 L65.195,45 L65.195,-0.437 Z" id="Fill-3" sketch:type="MSShapeGroup"></path>
            <path d="M77.425,39.305 C79.153,40.328 82.097,41.48 84.913,41.48 C88.944,41.48 90.864,39.496 90.864,36.873 C90.864,34.184 89.264,32.777 85.169,31.241 C79.537,29.193 76.913,26.186 76.913,22.474 C76.913,17.482 81.009,13.386 87.601,13.386 C90.736,13.386 93.488,14.218 95.152,15.306 L93.808,19.402 C92.592,18.634 90.352,17.546 87.473,17.546 C84.145,17.546 82.353,19.466 82.353,21.77 C82.353,24.329 84.145,25.481 88.176,27.081 C93.488,29.064 96.304,31.753 96.304,36.361 C96.304,41.864 92.016,45.704 84.785,45.704 C81.393,45.704 78.257,44.808 76.081,43.528 L77.425,39.305" id="Fill-4" sketch:type="MSShapeGroup"></path>
            <path d="M118.915,29.193 C112.771,29.064 105.796,30.153 105.796,36.168 C105.796,39.881 108.228,41.544 111.043,41.544 C115.139,41.544 117.763,38.984 118.659,36.361 C118.851,35.721 118.915,35.08 118.915,34.568 L118.915,29.193 L118.915,29.193 Z M124.354,37.576 C124.354,40.264 124.482,42.888 124.803,45 L119.747,45 L119.299,41.096 L119.106,41.096 C117.379,43.528 114.051,45.704 109.635,45.704 C103.364,45.704 100.164,41.288 100.164,36.809 C100.164,29.321 106.82,25.226 118.786,25.29 L118.786,24.649 C118.786,22.154 118.083,17.482 111.747,17.546 C108.804,17.546 105.796,18.378 103.62,19.85 L102.34,16.074 C104.9,14.474 108.676,13.386 112.579,13.386 C122.051,13.386 124.354,19.85 124.354,25.993 L124.354,37.576 L124.354,37.576 Z" id="Fill-5" sketch:type="MSShapeGroup"></path>
            <path d="M131.741,22.41 C131.741,19.146 131.613,16.586 131.485,14.026 L136.413,14.026 L136.669,19.082 L136.86,19.082 C138.589,16.138 141.469,13.386 146.652,13.386 C150.812,13.386 154.012,15.946 155.355,19.594 L155.483,19.594 C156.443,17.802 157.723,16.522 159.003,15.562 C160.859,14.154 162.843,13.386 165.786,13.386 C169.946,13.386 176.025,16.074 176.025,26.825 L176.025,45 L170.522,45 L170.522,27.529 C170.522,21.514 168.282,17.994 163.803,17.994 C160.539,17.994 158.107,20.362 157.083,23.05 C156.827,23.881 156.635,24.841 156.635,25.865 L156.635,45 L151.132,45 L151.132,26.441 C151.132,21.514 148.956,17.994 144.668,17.994 C141.212,17.994 138.589,20.81 137.692,23.625 C137.373,24.393 137.244,25.417 137.244,26.377 L137.244,45 L131.741,45 L131.741,22.41" id="Fill-6" sketch:type="MSShapeGroup"></path>
            <path d="M183.518,14.026 L189.149,14.026 L189.149,45 L183.518,45 L183.518,14.026 Z M189.789,5.323 C189.789,7.243 188.445,8.779 186.205,8.779 C184.157,8.779 182.813,7.243 182.813,5.323 C182.813,3.403 184.222,1.803 186.333,1.803 C188.381,1.803 189.789,3.339 189.789,5.323 L189.789,5.323 Z" id="Fill-7" sketch:type="MSShapeGroup"></path>
            <path d="M218.158,26.569 C218.158,25.801 218.095,24.969 217.902,24.266 C217.007,20.81 214.063,17.866 209.839,17.866 C204.016,17.866 200.495,22.793 200.495,29.705 C200.495,35.912 203.439,41.225 209.646,41.225 C213.295,41.225 216.431,38.984 217.71,35.145 C217.967,34.313 218.158,33.225 218.158,32.393 L218.158,26.569 L218.158,26.569 Z M218.158,40.264 L218.03,40.264 C216.303,43.272 212.911,45.704 207.919,45.704 C200.688,45.704 194.8,39.496 194.8,30.089 C194.8,18.442 202.287,13.386 208.815,13.386 C213.614,13.386 216.814,15.754 218.351,18.698 L218.479,18.698 L218.67,14.026 L223.981,14.026 C223.854,16.586 223.726,19.338 223.726,22.538 L223.726,57.671 L218.158,57.671 L218.158,40.264 L218.158,40.264 Z" id="Fill-8" sketch:type="MSShapeGroup"></path>
            <path d="M233.179,17.535 L233.683,17.535 C234.272,17.535 234.747,17.338 234.747,16.862 C234.747,16.442 234.44,16.162 233.767,16.162 C233.487,16.162 233.292,16.19 233.179,16.218 L233.179,17.535 L233.179,17.535 Z M233.151,20.11 L232.087,20.11 L232.087,15.518 C232.507,15.462 233.095,15.378 233.851,15.378 C234.72,15.378 235.112,15.518 235.419,15.742 C235.7,15.938 235.896,16.274 235.896,16.722 C235.896,17.283 235.476,17.646 234.944,17.814 L234.944,17.871 C235.392,18.01 235.616,18.375 235.755,18.991 C235.896,19.69 236.007,19.942 236.091,20.11 L234.972,20.11 C234.831,19.942 234.747,19.55 234.608,18.991 C234.524,18.514 234.243,18.291 233.655,18.291 L233.151,18.291 L233.151,20.11 L233.151,20.11 Z M230.323,17.73 C230.323,19.774 231.864,21.398 233.907,21.398 C235.896,21.426 237.407,19.774 237.407,17.758 C237.407,15.714 235.896,14.063 233.851,14.063 C231.864,14.063 230.323,15.714 230.323,17.73 L230.323,17.73 Z M238.583,17.73 C238.583,20.306 236.511,22.35 233.88,22.35 C231.247,22.35 229.147,20.306 229.147,17.73 C229.147,15.154 231.247,13.138 233.907,13.138 C236.511,13.138 238.583,15.154 238.583,17.73 L238.583,17.73 Z" id="Fill-9" sketch:type="MSShapeGroup"></path>
        </g>
    </g>
</svg>