<?xml version="1.0" encoding="UTF-8" standalone="no"?>
<svg width="360px" height="115px" viewBox="0 0 360 115" version="1.1" xmlns="http://www.w3.org/2000/svg" xmlns:xlink="http://www.w3.org/1999/xlink" xmlns:sketch="http://www.bohemiancoding.com/sketch/ns">
    <title>balsamiq-logo-block-color</title>
    <description>Created with Sketch (http://www.bohemiancoding.com/sketch)</description>
    <defs>
        <path id="path-1" d="M0,0 L360,0 L360,114.94 L0,114.94"></path>
    </defs>
    <g id="Page-1" stroke="none" stroke-width="1" fill="none" fill-rule="evenodd" sketch:type="MSPage">
        <g id="balsamiq-logo-block-color" sketch:type="MSLayerGroup">
            <g id="Group-3">
                <mask id="mask-2" sketch:name="Clip 2" fill="white">
                    <use xlink:href="#path-1"></use>
                </mask>
                <g id="Clip-2"></g>
                <path d="M0,103.001 C0,109.628 5.373,115 12,115 L348,115 C354.627,115 360,109.628 360,103.001 L360,12 C360,5.373 354.627,0 348,0 L12,0 C5.373,0 0,5.373 0,12 L0,103.001" id="Fill-1" fill="#721A13" sketch:type="MSShapeGroup" mask="url(#mask-2)"></path>
            </g>
            <path d="M63.239,64.021 C63.239,64.725 63.367,65.428 63.495,66.068 C64.583,69.972 67.847,72.66 71.942,72.66 C77.83,72.66 81.35,67.86 81.35,60.757 C81.35,54.549 78.15,49.237 72.135,49.237 C68.295,49.237 64.711,51.861 63.559,56.148 C63.431,56.789 63.239,57.557 63.239,58.452 L63.239,64.021 L63.239,64.021 Z M57.415,76.435 C57.543,74.323 57.672,71.187 57.672,68.436 L57.672,30.999 L63.239,30.999 L63.239,50.453 L63.367,50.453 C65.351,46.997 68.935,44.758 73.926,44.758 C81.606,44.758 87.045,51.157 86.981,60.564 C86.981,71.636 80.006,77.14 73.095,77.14 C68.615,77.14 65.031,75.412 62.727,71.315 L62.535,71.315 L62.279,76.435 L57.415,76.435 L57.415,76.435 Z" id="Fill-4" fill="#FFFFFF" sketch:type="MSShapeGroup"></path>
            <path d="M111.852,60.629 C105.708,60.5 98.733,61.589 98.733,67.604 C98.733,71.252 101.165,72.979 104.044,72.979 C108.076,72.979 110.636,70.42 111.532,67.796 C111.724,67.22 111.852,66.58 111.852,66.004 L111.852,60.629 L111.852,60.629 Z M112.684,76.435 L112.236,72.531 L112.044,72.531 C110.316,74.964 106.988,77.14 102.572,77.14 C96.301,77.14 93.101,72.724 93.101,68.244 C93.101,60.757 99.757,56.661 111.724,56.725 L111.724,56.085 C111.724,53.525 111.02,48.917 104.685,48.917 C101.805,48.917 98.797,49.813 96.621,51.221 L95.341,47.51 C97.901,45.846 101.612,44.758 105.516,44.758 C114.988,44.758 117.292,51.221 117.292,57.429 L117.292,69.012 C117.292,71.699 117.419,74.323 117.803,76.435 L112.684,76.435 L112.684,76.435 Z" id="Fill-5" fill="#FFFFFF" sketch:type="MSShapeGroup"></path>
            <path d="M127.315,30.999 L132.947,30.999 L132.947,76.435 L127.315,76.435 L127.315,30.999 Z" id="Fill-6" fill="#FFFFFF" sketch:type="MSShapeGroup"></path>
            <path d="M142.271,70.676 C143.935,71.764 146.879,72.916 149.695,72.916 C153.791,72.916 155.71,70.868 155.71,68.308 C155.71,65.62 154.11,64.148 149.951,62.612 C144.383,60.629 141.759,57.557 141.759,53.845 C141.759,48.854 145.791,44.758 152.447,44.758 C155.583,44.758 158.334,45.653 160.062,46.678 L158.654,50.773 C157.438,50.005 155.198,48.981 152.319,48.981 C148.991,48.981 147.135,50.901 147.135,53.205 C147.135,55.765 148.991,56.917 153.022,58.452 C158.398,60.5 161.15,63.188 161.15,67.796 C161.15,73.235 156.926,77.075 149.567,77.075 C146.175,77.075 143.04,76.243 140.863,74.964 L142.271,70.676" id="Fill-7" fill="#FFFFFF" sketch:type="MSShapeGroup"></path>
            <path d="M186.321,60.629 C180.178,60.5 173.202,61.589 173.202,67.604 C173.202,71.252 175.634,72.979 178.514,72.979 C182.545,72.979 185.105,70.42 186.001,67.796 C186.193,67.22 186.321,66.58 186.321,66.004 L186.321,60.629 L186.321,60.629 Z M187.153,76.435 L186.705,72.531 L186.513,72.531 C184.785,74.964 181.457,77.14 177.042,77.14 C170.77,77.14 167.57,72.724 167.57,68.244 C167.57,60.757 174.226,56.661 186.193,56.725 L186.193,56.085 C186.193,53.525 185.489,48.917 179.153,48.917 C176.274,48.917 173.266,49.813 171.09,51.221 L169.81,47.51 C172.37,45.846 176.082,44.758 179.985,44.758 C189.457,44.758 191.761,51.221 191.761,57.429 L191.761,69.012 C191.761,71.699 191.889,74.323 192.272,76.435 L187.153,76.435 L187.153,76.435 Z" id="Fill-8" fill="#FFFFFF" sketch:type="MSShapeGroup"></path>
            <path d="M201.74,53.845 C201.74,50.646 201.676,48.021 201.484,45.462 L206.412,45.462 L206.668,50.453 L206.859,50.453 C208.588,47.51 211.468,44.758 216.587,44.758 C220.811,44.758 224.011,47.317 225.354,50.965 L225.482,50.965 C226.442,49.237 227.658,47.894 228.938,46.934 C230.794,45.525 232.842,44.758 235.785,44.758 C239.881,44.758 245.961,47.445 245.961,58.196 L245.961,76.435 L240.457,76.435 L240.457,58.9 C240.457,52.949 238.281,49.365 233.737,49.365 C230.538,49.365 228.042,51.733 227.082,54.485 C226.826,55.253 226.634,56.276 226.634,57.301 L226.634,76.435 L221.131,76.435 L221.131,57.877 C221.131,52.949 218.955,49.365 214.667,49.365 C211.147,49.365 208.588,52.181 207.691,54.997 C207.372,55.829 207.243,56.789 207.243,57.749 L207.243,76.435 L201.74,76.435 L201.74,53.845" id="Fill-9" fill="#FFFFFF" sketch:type="MSShapeGroup"></path>
            <path d="M256.037,45.462 L261.669,45.462 L261.669,76.436 L256.037,76.436 L256.037,45.462 Z M262.309,36.758 C262.372,38.678 260.965,40.214 258.725,40.214 C256.741,40.214 255.333,38.678 255.333,36.758 C255.333,34.774 256.805,33.238 258.853,33.238 C260.965,33.238 262.309,34.774 262.309,36.758 L262.309,36.758 Z" id="Fill-10" fill="#FFFFFF" sketch:type="MSShapeGroup"></path>
            <path d="M293.276,58.005 C293.276,57.236 293.213,56.341 293.021,55.637 C292.188,52.181 289.181,49.237 284.957,49.237 C279.134,49.237 275.613,54.165 275.613,61.141 C275.613,67.284 278.558,72.66 284.765,72.66 C288.413,72.66 291.549,70.42 292.828,66.516 C293.084,65.748 293.276,64.66 293.276,63.828 L293.276,58.005 L293.276,58.005 Z M293.276,71.636 L293.148,71.636 C291.484,74.708 288.029,77.14 283.037,77.14 C275.806,77.14 269.918,70.868 269.918,61.46 C269.918,49.877 277.405,44.758 283.934,44.758 C288.732,44.758 291.933,47.125 293.469,50.133 L293.597,50.133 L293.788,45.462 L299.1,45.462 C298.972,48.085 298.908,50.773 298.908,53.973 L298.908,89.106 L293.276,89.106 L293.276,71.636 L293.276,71.636 Z" id="Fill-11" fill="#FFFFFF" sketch:type="MSShapeGroup"></path>
            <path d="M310.503,54.178 C307.731,54.178 305.519,52.021 305.519,49.333 C305.519,46.674 307.731,44.518 310.503,44.518 C313.275,44.518 315.458,46.674 315.458,49.333 C315.458,52.021 313.275,54.178 310.503,54.178 M310.475,45.722 C308.487,45.722 307.003,47.346 307.003,49.361 C307.003,51.377 308.487,52.974 310.503,52.974 C312.519,52.974 314.003,51.377 314.003,49.333 C314.003,47.346 312.519,45.722 310.475,45.722 M312.939,51.629 L311.399,51.629 C311.259,51.461 311.175,51.069 311.091,50.678 C311.007,50.229 310.783,50.005 310.335,50.005 L309.887,50.005 L309.887,51.629 L308.515,51.629 L308.515,47.178 C308.823,47.121 309.551,47.037 310.475,47.037 C311.483,47.037 311.931,47.178 312.267,47.374 C312.547,47.569 312.743,47.905 312.743,48.354 C312.743,48.802 312.323,49.193 311.707,49.361 L311.707,49.417 C312.211,49.585 312.491,49.921 312.631,50.565 C312.771,51.209 312.855,51.461 312.939,51.629 M310.391,47.989 C310.223,47.989 310.055,48.018 309.943,48.018 L309.943,49.081 L310.335,49.081 C310.839,49.081 311.175,48.886 311.175,48.55 C311.175,48.186 310.867,47.989 310.391,47.989" id="Fill-12" fill="#D4BAB8" sketch:type="MSShapeGroup"></path>
        </g>
    </g>
</svg>