<?xml version="1.0" encoding="UTF-8" standalone="no"?>
<svg width="940px" height="261px" viewBox="0 0 940 261" version="1.1" xmlns="http://www.w3.org/2000/svg" xmlns:xlink="http://www.w3.org/1999/xlink" xmlns:sketch="http://www.bohemiancoding.com/sketch/ns">
    <title>Slice 1</title>
    <description>Created with Sketch (http://www.bohemiancoding.com/sketch)</description>
    <defs>
        <path id="path-1" d="M0.06,-0.221 L939.336,-0.221 L939.336,260 L0.06,260"></path>
    </defs>
    <g id="Page-1" stroke="none" stroke-width="1" fill="none" fill-rule="evenodd" sketch:type="MSPage">
        <g id="firefly-wide-black" sketch:type="MSLayerGroup" transform="translate(0.000000, 1.000000)">
            <path d="M506.944,101.776 C506.944,97.874 505.237,96.166 502.066,96.166 L460.848,96.166 C457.191,96.166 456.215,97.385 456.215,101.287 L456.215,205.916 C456.215,212.257 452.557,213.72 447.922,213.72 C442.801,213.72 438.899,212.257 438.899,205.916 L438.899,101.531 C438.899,97.874 438.411,96.166 434.508,96.166 L421.339,96.166 C415.973,96.166 414.753,93.971 414.753,89.093 C414.753,84.947 415.973,82.265 421.339,82.265 L434.264,82.265 C438.411,82.265 438.899,81.045 438.899,77.387 L438.899,68.85 C438.899,44.462 454.264,33.487 490.359,33.487 C508.164,33.487 515.237,34.218 518.894,35.438 C522.552,36.657 523.041,38.852 523.041,41.292 C523.041,44.705 522.064,46.656 517.188,46.656 L492.31,46.656 C464.019,46.656 456.215,52.754 456.215,69.826 L456.215,77.387 C456.215,81.045 456.704,82.265 460.848,82.265 L513.773,82.265 C519.87,82.265 524.259,85.191 524.259,91.532 L524.259,205.916 C524.259,212.257 520.601,213.72 515.723,213.72 C510.846,213.72 506.944,212.257 506.944,205.916 L506.944,101.776" id="Fill-1" fill="#1A1918" sketch:type="MSShapeGroup"></path>
            <path d="M547.423,97.141 C547.423,88.361 549.862,85.923 555.959,84.459 C568.154,81.289 584.25,79.825 594.737,79.825 C607.42,79.825 609.614,82.02 609.614,87.386 C609.614,91.776 607.907,94.459 604.25,94.459 C600.103,94.459 595.957,93.727 589.86,93.727 C570.105,93.727 564.739,95.434 564.739,106.409 L564.739,205.916 C564.739,212.257 561.325,213.72 556.447,213.72 C551.325,213.72 547.423,212.257 547.423,205.916 L547.423,97.141" id="Fill-2" fill="#1A1918" sketch:type="MSShapeGroup"></path>
            <path d="M625.707,130.554 C625.707,137.871 627.902,138.847 638.633,138.847 L671.07,138.847 C687.655,138.847 690.337,137.627 690.337,125.432 C690.337,104.214 681.801,93.483 660.827,93.483 C637.414,93.483 625.707,105.434 625.707,128.359 L625.707,130.554 L625.707,130.554 Z M634.243,151.529 C626.682,151.772 625.707,153.723 625.707,160.065 C625.707,188.356 635.95,201.282 668.387,201.282 C679.606,201.282 690.093,199.575 695.703,198.111 C700.093,196.891 703.02,199.087 703.02,203.477 C703.02,206.403 702.288,208.598 699.605,210.062 C692.532,213.233 681.069,215.184 666.436,215.184 C626.194,215.184 608.391,199.087 608.391,154.456 L608.391,138.603 C608.391,93.239 631.56,79.825 661.314,79.825 C693.264,79.825 707.167,96.898 707.167,125.676 C707.167,147.383 702.532,149.821 678.874,150.309 L634.243,151.529 L634.243,151.529 Z" id="Fill-3" fill="#1A1918" sketch:type="MSShapeGroup"></path>
            <path d="M804.717,51.291 C804.717,48.12 801.791,46.656 783.01,46.656 C756.426,46.656 752.768,53.485 752.768,70.314 L752.768,77.387 C752.768,81.045 753.255,82.265 757.402,82.265 L775.451,82.265 C780.815,82.265 782.035,84.947 782.035,89.093 C782.035,93.971 780.815,96.166 775.451,96.166 L757.402,96.166 C753.744,96.166 752.768,97.385 752.768,101.287 L752.768,205.916 C752.768,212.257 749.11,213.72 744.477,213.72 C739.355,213.72 735.453,212.257 735.453,205.916 L735.453,101.531 C735.453,97.874 734.964,96.166 731.062,96.166 L717.893,96.166 C712.527,96.166 711.308,93.971 711.308,89.093 C711.308,84.947 712.527,82.265 717.893,82.265 L730.819,82.265 C734.964,82.265 735.453,81.045 735.453,77.387 L735.453,70.069 C735.453,43.486 748.866,33.487 781.791,33.487 C795.937,33.487 808.13,34.95 816.179,36.414 C821.057,37.389 822.033,39.096 822.033,45.681 L822.033,182.99 C822.033,196.404 824.715,201.526 836.178,201.526 L841.788,201.526 C846.666,201.526 847.641,203.477 847.641,206.647 C847.641,209.574 846.909,211.525 843.983,212.501 C841.543,213.476 835.69,214.208 829.837,214.208 C807.399,214.208 804.717,200.55 804.717,180.064 L804.717,51.291" id="Fill-4" fill="#1A1918" sketch:type="MSShapeGroup"></path>
            <g id="Group-8">
                <mask id="mask-2" sketch:name="Clip 6" fill="white">
                    <use xlink:href="#path-1"></use>
                </mask>
                <g id="Clip-6"></g>
                <path d="M857.878,256.644 C845.927,256.644 842.514,254.693 842.514,248.352 C842.514,244.938 843.976,242.743 848.123,242.743 L856.416,242.743 C873.731,242.743 882.023,225.671 882.023,217.135 C882.023,210.55 875.926,212.013 870.561,196.891 C860.074,168.357 837.879,97.141 837.879,88.361 C837.879,84.703 841.049,81.289 846.903,81.289 C851.293,81.289 854.22,82.508 855.683,88.605 C864.22,122.994 873.487,157.383 884.95,192.502 C886.169,196.647 887.876,196.891 889.096,196.891 C890.316,196.891 891.779,196.647 893.243,192.502 C901.292,165.918 916.9,110.312 922.265,88.361 C923.727,82.265 926.411,81.289 930.557,81.289 C936.411,81.289 939.336,84.703 939.336,88.361 C939.336,97.874 907.876,195.184 900.802,214.94 C892.51,238.841 882.754,256.644 857.878,256.644" id="Fill-5" fill="#1A1918" sketch:type="MSShapeGroup" mask="url(#mask-2)"></path>
                <path d="M185.974,241.053 C205.098,207.445 219.028,171.755 232.363,137.4 C238.659,121.176 244.8,105.149 252.316,89.897 C258.533,77.284 266.148,64.532 277.502,54.964 C321.631,78.205 360.62,110.902 353.213,142.994 C339.8,201.117 251.462,240.051 178.434,253.612 C181.049,249.474 183.568,245.281 185.974,241.053 L185.974,241.053 Z M94.21,46.673 C77.106,38.793 82.4,102.243 97.522,107.695 C113.825,113.574 181.706,109.895 192.004,109.28 C198.452,108.895 201.786,96.234 201.786,96.234 C201.786,96.234 102.918,50.686 94.21,46.673 L94.21,46.673 Z M240.661,65.721 C225.103,81.245 213.428,99.963 203.379,119.551 C170.167,122.28 53.131,131.899 34.097,133.464 C6.44,135.736 51.459,192.987 75.197,189.886 C119.003,184.158 166.904,159.226 191.303,144.767 C190.25,147.086 189.202,149.406 188.166,151.718 C173.465,184.502 160.074,219.752 140.93,251.954 C139.496,254.367 138.013,256.743 136.505,259.097 C89.372,262.564 54.408,255.807 38.679,242.857 C-5.46,206.521 -17.302,28.708 32.251,5.833 C66.272,-9.87 174.126,5.227 264.009,48.201 C255.223,52.783 247.37,59.026 240.661,65.721 L240.661,65.721 Z" id="Fill-7" fill="#1A1918" sketch:type="MSShapeGroup" mask="url(#mask-2)"></path>
            </g>
        </g>
    </g>
</svg>