<?xml version="1.0" encoding="UTF-8" standalone="no"?>
<svg width="940px" height="261px" viewBox="0 0 940 261" version="1.1" xmlns="http://www.w3.org/2000/svg" xmlns:xlink="http://www.w3.org/1999/xlink" xmlns:sketch="http://www.bohemiancoding.com/sketch/ns">
    <title>firefly-logo-white</title>
    <description>Created with Sketch (http://www.bohemiancoding.com/sketch)</description>
    <defs>
        <path id="path-1" d="M91.944,68.776 C91.944,64.874 90.237,63.166 87.066,63.166 L45.848,63.166 C42.191,63.166 41.215,64.385 41.215,68.287 L41.215,172.916 C41.215,179.257 37.557,180.72 32.922,180.72 C27.801,180.72 23.899,179.257 23.899,172.916 L23.899,68.531 C23.899,64.874 23.411,63.166 19.508,63.166 L6.339,63.166 C0.973,63.166 -0.247,60.971 -0.247,56.093 C-0.247,51.947 0.973,49.265 6.339,49.265 L19.264,49.265 C23.411,49.265 23.899,48.045 23.899,44.387 L23.899,35.85 C23.899,11.462 39.264,0.487 75.359,0.487 C93.164,0.487 100.237,1.218 103.894,2.438 C107.552,3.657 108.041,5.852 108.041,8.292 C108.041,11.705 107.064,13.656 102.188,13.656 L77.31,13.656 C49.019,13.656 41.215,19.754 41.215,36.826 L41.215,44.387 C41.215,48.045 41.704,49.265 45.848,49.265 L98.773,49.265 C104.87,49.265 109.259,52.191 109.259,58.532 L109.259,172.916 C109.259,179.257 105.601,180.72 100.723,180.72 C95.846,180.72 91.944,179.257 91.944,172.916 L91.944,68.776 L91.944,68.776 Z"></path>
        <path id="path-3" d="M0.423,17.141 C0.423,8.361 2.862,5.923 8.959,4.459 C21.154,1.289 37.25,-0.175 47.737,-0.175 C60.42,-0.175 62.614,2.02 62.614,7.386 C62.614,11.776 60.907,14.459 57.25,14.459 C53.103,14.459 48.957,13.727 42.86,13.727 C23.105,13.727 17.739,15.434 17.739,26.409 L17.739,125.916 C17.739,132.257 14.325,133.72 9.447,133.72 C4.325,133.72 0.423,132.257 0.423,125.916 L0.423,17.141 L0.423,17.141 Z"></path>
        <path d="M17.707,50.554 C17.707,57.871 19.902,58.847 30.633,58.847 L63.07,58.847 C79.655,58.847 82.337,57.627 82.337,45.432 C82.337,24.214 73.801,13.483 52.827,13.483 C29.414,13.483 17.707,25.434 17.707,48.359 L17.707,50.554 L17.707,50.554 Z M26.243,71.529 C18.682,71.772 17.707,73.723 17.707,80.065 C17.707,108.356 27.95,121.282 60.387,121.282 C71.606,121.282 82.093,119.575 87.703,118.111 C92.093,116.891 95.02,119.087 95.02,123.477 C95.02,126.403 94.288,128.598 91.605,130.062 C84.532,133.233 73.069,135.184 58.436,135.184 C18.194,135.184 0.391,119.087 0.391,74.456 L0.391,58.603 C0.391,13.239 23.56,-0.175 53.314,-0.175 C85.264,-0.175 99.167,16.898 99.167,45.676 C99.167,67.383 94.532,69.821 70.874,70.309 L26.243,71.529 L26.243,71.529 Z" id="path-5"></path>
        <path id="path-7" d="M93.717,18.291 C93.717,15.12 90.791,13.656 72.01,13.656 C45.426,13.656 41.768,20.485 41.768,37.314 L41.768,44.387 C41.768,48.045 42.255,49.265 46.402,49.265 L64.451,49.265 C69.815,49.265 71.035,51.947 71.035,56.093 C71.035,60.971 69.815,63.166 64.451,63.166 L46.402,63.166 C42.744,63.166 41.768,64.385 41.768,68.287 L41.768,172.916 C41.768,179.257 38.11,180.72 33.477,180.72 C28.355,180.72 24.453,179.257 24.453,172.916 L24.453,68.531 C24.453,64.874 23.964,63.166 20.062,63.166 L6.893,63.166 C1.527,63.166 0.308,60.971 0.308,56.093 C0.308,51.947 1.527,49.265 6.893,49.265 L19.819,49.265 C23.964,49.265 24.453,48.045 24.453,44.387 L24.453,37.069 C24.453,10.486 37.866,0.487 70.791,0.487 C84.937,0.487 97.13,1.95 105.179,3.414 C110.057,4.389 111.033,6.096 111.033,12.681 L111.033,149.99 C111.033,163.404 113.715,168.526 125.178,168.526 L130.788,168.526 C135.666,168.526 136.641,170.477 136.641,173.647 C136.641,176.574 135.909,178.525 132.983,179.501 C130.543,180.476 124.69,181.208 118.837,181.208 C96.399,181.208 93.717,167.55 93.717,147.064 L93.717,18.291 L93.717,18.291 Z"></path>
        <path id="path-9" d="M19.878,175.644 C7.927,175.644 4.514,173.693 4.514,167.352 C4.514,163.938 5.976,161.743 10.123,161.743 L18.416,161.743 C35.731,161.743 44.023,144.671 44.023,136.135 C44.023,129.55 37.926,131.013 32.561,115.891 C22.074,87.357 -0.121,16.141 -0.121,7.361 C-0.121,3.703 3.049,0.289 8.903,0.289 C13.293,0.289 16.22,1.508 17.683,7.605 C26.22,41.994 35.487,76.383 46.95,111.502 C48.169,115.647 49.876,115.891 51.096,115.891 C52.316,115.891 53.779,115.647 55.243,111.502 C63.292,84.918 78.9,29.312 84.265,7.361 C85.727,1.265 88.411,0.289 92.557,0.289 C98.411,0.289 101.336,3.703 101.336,7.361 C101.336,16.874 69.876,114.184 62.802,133.94 C54.51,157.841 44.754,175.644 19.878,175.644 L19.878,175.644 Z"></path>
        <path d="M0.06,110.732731 C1.09397041,165.134258 15.3914211,223.686256 38.679,242.857 C54.408,255.807 89.372,262.564 136.505,259.097 C138.013,256.743 139.496,254.367 140.93,251.954 C160.074,219.752 173.465,184.502 188.166,151.718 C189.202,149.406 190.25,147.086 191.303,144.767 C166.904,159.226 119.003,184.158 75.197,189.886 C51.459,192.987 6.44,135.736 34.097,133.464 C53.131,131.899 170.167,122.28 203.379,119.551 C213.428,99.963 225.103,81.245 240.661,65.721 C247.37,59.026 255.223,52.783 264.009,48.201 C174.126,5.227 66.272,-9.87 32.251,5.833 C10.8632883,15.706144 0.912829915,54.4426347 0.06,98.2092211 L0.06,110.732731 L0.06,110.732731 Z M185.974,241.053 C205.098,207.445 219.028,171.755 232.363,137.4 C238.659,121.176 244.8,105.149 252.316,89.897 C258.533,77.284 266.148,64.532 277.502,54.964 C321.631,78.205 360.62,110.902 353.213,142.994 C339.8,201.117 251.462,240.051 178.434,253.612 C181.049,249.474 183.568,245.281 185.974,241.053 L185.974,241.053 Z M94.21,46.673 C77.106,38.793 82.4,102.243 97.522,107.695 C113.825,113.574 181.706,109.895 192.004,109.28 C198.452,108.895 201.786,96.234 201.786,96.234 C201.786,96.234 102.918,50.686 94.21,46.673 L94.21,46.673 Z" id="path-11"></path>
    </defs>
    <g id="Page-1" stroke="none" stroke-width="1" fill="none" fill-rule="evenodd" sketch:type="MSPage">
        <g id="firefly-logo-wide-black" sketch:type="MSLayerGroup" transform="translate(0.000000, 1.000000)">
            <g id="Group-3" transform="translate(415.000000, 33.000000)">
                <mask id="mask-2" sketch:name="Clip 2" fill="white">
                    <use xlink:href="#path-1"></use>
                </mask>
                <g id="Clip-2"></g>
                <path d="M-0.34,0.44 L109.34,0.44 L109.34,180.8 L-0.34,180.8 L-0.34,0.44 Z" id="Fill-1" fill="#FFFFFF" sketch:type="MSShapeGroup" mask="url(#mask-2)"></path>
            </g>
            <g id="Group-6" transform="translate(547.000000, 80.000000)">
                <mask id="mask-4" sketch:name="Clip 5" fill="white">
                    <use xlink:href="#path-3"></use>
                </mask>
                <g id="Clip-5"></g>
                <path d="M0.38,-0.24 L62.66,-0.24 L62.66,133.8 L0.38,133.8 L0.38,-0.24 Z" id="Fill-4" fill="#FFFFFF" sketch:type="MSShapeGroup" mask="url(#mask-4)"></path>
            </g>
            <g id="Group-9" transform="translate(608.000000, 80.000000)">
                <mask id="mask-6" sketch:name="Clip 8" fill="white">
                    <use xlink:href="#path-5"></use>
                </mask>
                <g id="Clip-8"></g>
                <path d="M0.34,-0.24 L99.22,-0.24 L99.22,135.24 L0.34,135.24 L0.34,-0.24 Z" id="Fill-7" fill="#FFFFFF" sketch:type="MSShapeGroup" mask="url(#mask-6)"></path>
            </g>
            <g id="Group-12" transform="translate(711.000000, 33.000000)">
                <mask id="mask-8" sketch:name="Clip 11" fill="white">
                    <use xlink:href="#path-7"></use>
                </mask>
                <g id="Clip-11"></g>
                <path d="M0.3,0.44 L136.74,0.44 L136.74,181.28 L0.3,181.28 L0.3,0.44 Z" id="Fill-10" fill="#FFFFFF" sketch:type="MSShapeGroup" mask="url(#mask-8)"></path>
            </g>
            <g id="Group-15" transform="translate(838.000000, 81.000000)">
                <mask id="mask-10" sketch:name="Clip 14" fill="white">
                    <use xlink:href="#path-9"></use>
                </mask>
                <g id="Clip-14"></g>
                <path d="M-0.22,0.2 L101.42,0.2 L101.42,175.76 L-0.22,175.76 L-0.22,0.2 Z" id="Fill-13" fill="#FFFFFF" sketch:type="MSShapeGroup" mask="url(#mask-10)"></path>
            </g>
            <g id="Group-18">
                <mask id="mask-12" sketch:name="Clip 17" fill="white">
                    <use xlink:href="#path-11"></use>
                </mask>
                <g id="Clip-17"></g>
                <path d="M0.06,-0.28 L354.18,-0.28 L354.18,260 L0.06,260 L0.06,-0.28 Z" id="Fill-16" fill="#FFFFFF" sketch:type="MSShapeGroup" mask="url(#mask-12)"></path>
            </g>
        </g>
    </g>
</svg>