<?xml version="1.0" encoding="UTF-8" standalone="no"?>
<svg width="240px" height="57px" viewBox="0 0 240 57" version="1.1" xmlns="http://www.w3.org/2000/svg" xmlns:xlink="http://www.w3.org/1999/xlink" xmlns:sketch="http://www.bohemiancoding.com/sketch/ns">
    <title>university-of-brighton-logo-white</title>
    <description>Created with Sketch (http://www.bohemiancoding.com/sketch)</description>
    <defs></defs>
    <g id="Page-1" stroke="none" stroke-width="1" fill="none" fill-rule="evenodd" sketch:type="MSPage">
        <g id="University_of_Brighton_logo" sketch:type="MSLayerGroup" fill="#FFFFFF">
            <path d="M26.223,5.946 L16.918,7.071 L13.113,0.309 L9.387,7.114 L0.109,5.844 L5.738,13.337 L0,20.735 L9.305,19.61 L13.109,26.372 L16.836,19.567 L26.113,20.837 L20.484,13.344 L26.223,5.946 Z M13.414,13.501 L24.902,20.079 L16.602,18.973 L13.414,13.501 Z M6.344,13.309 L12.676,13.309 L1.238,19.962 L6.344,13.309 Z M12.828,13.118 L1.34,6.54 L9.641,7.645 L12.828,13.118 Z M13.121,13.567 L13.121,25.387 L9.742,19.106 L13.121,13.567 Z M16.512,7.575 L13.121,13.114 L13.121,1.298 L16.512,7.575 Z M25.004,6.661 L19.895,13.309 L13.562,13.309 L25.004,6.661 Z" id="Fill-1" sketch:type="MSShapeGroup"></path>
            <path d="M18.922,48.122 C18.922,51.969 16.84,53.813 12.602,53.813 C8.367,53.813 6.266,51.969 6.266,48.122 L6.266,39.61 L10.543,39.61 L10.543,47.169 C10.543,48.587 10.543,50.356 12.621,50.356 C14.645,50.356 14.645,48.587 14.645,47.169 L14.645,39.61 L18.922,39.61" id="Fill-2" sketch:type="MSShapeGroup"></path>
            <path d="M21.793,43.399 L25.504,43.399 L25.504,44.68 L25.543,44.68 C26.262,43.669 27.293,43.145 28.828,43.145 C30.637,43.145 32.289,44.251 32.289,46.563 L32.289,53.485 L28.441,53.485 L28.441,48.196 C28.441,47.032 28.305,46.215 27.176,46.215 C26.516,46.215 25.641,46.548 25.641,48.157 L25.641,53.485 L21.793,53.485" id="Fill-3" sketch:type="MSShapeGroup"></path>
            <path d="M35.242,43.399 L39.09,43.399 L39.09,53.485 L35.242,53.485 L35.242,43.399 Z M35.242,39.61 L39.09,39.61 L39.09,42.313 L35.242,42.313 L35.242,39.61 Z" id="Fill-4" sketch:type="MSShapeGroup"></path>
            <path d="M48.672,53.485 L44.125,53.485 L40.82,43.399 L44.883,43.399 L46.457,49.54 L46.496,49.54 L48.09,43.399 L52.016,43.399" id="Fill-5" sketch:type="MSShapeGroup"></path>
            <path d="M60.586,47.305 C60.586,46.372 59.887,45.614 58.895,45.614 C57.746,45.614 57.086,46.215 56.914,47.305 L60.586,47.305 Z M56.891,49.305 C56.988,50.45 57.652,51.266 58.855,51.266 C59.48,51.266 60.16,51.036 60.469,50.548 L64.066,50.548 C63.289,52.727 61.168,53.735 58.875,53.735 C55.648,53.735 53.219,51.833 53.219,48.469 C53.219,45.536 55.355,43.145 58.547,43.145 C62.551,43.145 64.281,45.38 64.281,49.305 L56.891,49.305 Z" id="Fill-6" sketch:type="MSShapeGroup"></path>
            <path d="M66.668,43.399 L70.359,43.399 L70.359,45.012 L70.398,45.012 C71.02,43.805 71.836,43.145 73.238,43.145 C73.625,43.145 73.996,43.204 74.367,43.301 L74.367,46.7 C73.977,46.563 73.625,46.45 72.848,46.45 C71.332,46.45 70.516,47.34 70.516,49.501 L70.516,53.485 L66.668,53.485" id="Fill-7" sketch:type="MSShapeGroup"></path>
            <path d="M81.902,46.333 C81.883,46.001 81.711,45.751 81.457,45.575 C81.223,45.38 80.91,45.282 80.602,45.282 C80.059,45.282 79.434,45.399 79.434,46.059 C79.434,46.352 79.668,46.489 79.883,46.583 C80.523,46.856 81.98,46.934 83.266,47.364 C84.547,47.77 85.676,48.528 85.676,50.18 C85.676,52.977 82.992,53.735 80.543,53.735 C78.172,53.735 75.566,52.782 75.508,50.18 L79.184,50.18 C79.203,50.532 79.355,50.821 79.648,51.075 C79.844,51.251 80.215,51.364 80.68,51.364 C81.184,51.364 81.98,51.173 81.98,50.587 C81.98,50.005 81.652,49.829 79.863,49.52 C76.926,49.012 75.742,48.083 75.742,46.352 C75.742,43.805 78.48,43.145 80.504,43.145 C82.684,43.145 85.305,43.747 85.402,46.333" id="Fill-8" sketch:type="MSShapeGroup"></path>
            <path d="M88.082,43.399 L91.934,43.399 L91.934,53.485 L88.082,53.485 L88.082,43.399 Z M88.086,39.61 L91.934,39.61 L91.934,42.313 L88.086,42.313 L88.086,39.61 Z" id="Fill-9" sketch:type="MSShapeGroup"></path>
            <path d="M99.531,43.399 L101.59,43.399 L101.59,45.77 L99.531,45.77 L99.531,49.286 C99.531,50.219 99.746,50.626 100.719,50.626 C101.008,50.626 101.301,50.606 101.59,50.571 L101.59,53.485 C100.816,53.485 99.941,53.598 99.121,53.598 C97.492,53.598 95.684,53.348 95.684,50.587 L95.684,45.77 L93.973,45.77 L93.973,43.399 L95.684,43.399 L95.684,40.325 L99.531,40.325" id="Fill-10" sketch:type="MSShapeGroup"></path>
            <path d="M112.246,52.704 C111.934,53.598 111.582,54.747 110.98,55.505 C109.969,56.766 108.414,56.747 106.918,56.747 L105.168,56.747 L105.168,53.676 L106.062,53.676 C106.449,53.676 106.957,53.715 107.227,53.583 C107.461,53.465 107.598,53.27 107.598,52.821 C107.598,52.337 106.121,48.626 105.906,48.044 L104.195,43.399 L108.316,43.399 L109.93,49.188 L109.969,49.188 L111.602,43.399 L115.586,43.399" id="Fill-11" sketch:type="MSShapeGroup"></path>
            <path d="M127.906,53.735 C124.117,53.735 122.406,51.231 122.406,48.43 C122.406,45.633 124.117,43.145 127.906,43.145 C131.699,43.145 133.41,45.633 133.41,48.43 C133.41,51.231 131.699,53.735 127.906,53.735 M127.906,45.942 C126.449,45.942 126.254,47.364 126.254,48.43 C126.254,49.501 126.449,50.938 127.906,50.938 C129.367,50.938 129.559,49.501 129.559,48.43 C129.559,47.364 129.367,45.942 127.906,45.942" id="Fill-12" sketch:type="MSShapeGroup"></path>
            <path d="M136.496,45.77 L134.922,45.77 L134.922,43.395 L136.496,43.395 C136.457,42.407 136.555,41.298 137.293,40.559 C138.129,39.727 139.102,39.606 140.656,39.606 C141.238,39.606 141.805,39.665 142.387,39.684 L142.387,42.329 C142.078,42.29 141.766,42.192 141.453,42.192 C140.52,42.192 140.211,42.465 140.27,43.395 L142.289,43.395 L142.289,45.77 L140.344,45.77 L140.344,53.485 L136.496,53.485" id="Fill-13" sketch:type="MSShapeGroup"></path>
            <path d="M154.242,50.18 L156.75,50.18 C157.645,50.18 158.422,49.926 158.422,48.86 C158.422,48.044 157.934,47.594 156.922,47.594 L154.242,47.594 L154.242,50.18 Z M149.965,39.61 L157.566,39.61 C161.219,39.61 162,41.669 162,43.087 C162,44.485 161.316,45.243 160.285,45.805 C161.531,46.235 162.699,47.227 162.699,49.266 C162.699,52.044 160.285,53.485 157.84,53.485 L149.965,53.485 L149.965,39.61 Z M154.242,45.012 L156.496,45.012 C157.391,45.012 157.953,44.758 157.953,43.864 C157.953,43.165 157.371,42.911 156.496,42.911 L154.242,42.911 L154.242,45.012 Z" id="Fill-14" sketch:type="MSShapeGroup"></path>
            <path d="M165.086,43.399 L168.781,43.399 L168.781,45.012 L168.82,45.012 C169.441,43.805 170.258,43.145 171.656,43.145 C172.047,43.145 172.418,43.204 172.785,43.301 L172.785,46.7 C172.395,46.563 172.047,46.45 171.27,46.45 C169.754,46.45 168.934,47.34 168.934,49.501 L168.934,53.485 L165.086,53.485" id="Fill-15" sketch:type="MSShapeGroup"></path>
            <path d="M174.57,43.399 L178.418,43.399 L178.418,53.485 L174.57,53.485 L174.57,43.399 Z M174.57,39.61 L178.418,39.61 L178.418,42.313 L174.57,42.313 L174.57,39.61 Z" id="Fill-16" sketch:type="MSShapeGroup"></path>
            <path d="M186.348,50.415 C187.766,50.415 187.922,49.051 187.922,47.926 C187.922,46.817 187.379,45.942 186.25,45.942 C185.164,45.942 184.617,46.876 184.617,47.946 C184.617,49.09 184.965,50.415 186.348,50.415 M191.676,52.18 C191.676,54.184 191.148,57.001 186.426,57.001 C184.035,57.001 181.508,56.36 181.156,53.637 L184.965,53.637 C185.004,53.735 185.102,53.872 185.18,53.989 C185.414,54.34 185.82,54.727 186.309,54.727 C187.555,54.727 187.824,53.251 187.824,52.415 L187.824,51.481 L187.785,51.481 C187.164,52.376 186.23,52.88 185.086,52.88 C182.109,52.88 180.77,50.665 180.77,47.962 C180.77,45.34 182.266,43.145 185.141,43.145 C186.27,43.145 187.34,43.59 187.785,44.622 L187.824,44.622 L187.824,43.399 L191.676,43.399" id="Fill-17" sketch:type="MSShapeGroup"></path>
            <path d="M194.41,39.61 L198.262,39.61 L198.262,44.485 L198.301,44.485 C198.961,43.708 199.816,43.145 201.449,43.145 C203.258,43.145 204.91,44.251 204.91,46.563 L204.91,53.485 L201.059,53.485 L201.059,48.2 C201.059,47.032 200.926,46.215 199.797,46.215 C199.133,46.215 198.262,46.548 198.262,48.161 L198.262,53.485 L194.41,53.485" id="Fill-18" sketch:type="MSShapeGroup"></path>
            <path d="M212.41,43.399 L214.469,43.399 L214.469,45.77 L212.41,45.77 L212.41,49.286 C212.41,50.219 212.625,50.626 213.598,50.626 C213.887,50.626 214.18,50.606 214.469,50.571 L214.469,53.485 C213.695,53.485 212.82,53.598 212,53.598 C210.367,53.598 208.562,53.348 208.562,50.587 L208.562,45.77 L206.852,45.77 L206.852,43.399 L208.562,43.399 L208.562,40.325 L212.41,40.325" id="Fill-19" sketch:type="MSShapeGroup"></path>
            <path d="M221.547,53.735 C217.754,53.735 216.043,51.231 216.043,48.43 C216.043,45.633 217.754,43.145 221.547,43.145 C225.336,43.145 227.047,45.633 227.047,48.43 C227.047,51.231 225.336,53.735 221.547,53.735 M221.547,45.942 C220.09,45.942 219.895,47.364 219.895,48.43 C219.895,49.501 220.09,50.938 221.547,50.938 C223.004,50.938 223.195,49.501 223.195,48.43 C223.195,47.364 223.004,45.942 221.547,45.942" id="Fill-20" sketch:type="MSShapeGroup"></path>
            <path d="M229.492,43.399 L233.207,43.399 L233.207,44.68 L233.242,44.68 C233.965,43.669 234.996,43.145 236.531,43.145 C238.336,43.145 239.988,44.251 239.988,46.563 L239.988,53.485 L236.141,53.485 L236.141,48.196 C236.141,47.032 236.004,46.215 234.879,46.215 C234.215,46.215 233.34,46.548 233.34,48.157 L233.34,53.485 L229.492,53.485" id="Fill-21" sketch:type="MSShapeGroup"></path>
        </g>
    </g>
</svg>