<?xml version="1.0" encoding="UTF-8" standalone="no"?>
<!DOCTYPE svg PUBLIC "-//W3C//DTD SVG 1.1//EN" "http://www.w3.org/Graphics/SVG/1.1/DTD/svg11.dtd">
<svg width="100%" height="100%" viewBox="0 0 1102 269" version="1.1" xmlns="http://www.w3.org/2000/svg" xmlns:xlink="http://www.w3.org/1999/xlink" xml:space="preserve" style="fill-rule:evenodd;clip-rule:evenodd;stroke-linejoin:round;stroke-miterlimit:1.41421;">
    <g transform="matrix(1,0,0,1,-0.423268,-0.789504)">
        <path id="Fill.-1" d="M27.344,153.458C27.344,156.713 27.64,159.963 28.528,162.927C33.262,180.976 48.648,193.403 67.58,193.403C95.098,193.403 111.076,171.211 111.076,138.368C111.076,109.671 96.282,85.113 68.177,85.113C50.719,85.113 34.15,97.54 28.824,117.064C27.936,120.319 27.344,123.874 27.344,128.012L27.344,153.458ZM1.607,0.79L27.344,0.79L27.344,90.735L27.936,90.735C37.109,74.757 53.678,64.697 76.753,64.697C112.555,64.697 137.405,94.285 137.405,137.48C137.405,188.664 104.862,214.11 72.911,214.11C52.199,214.11 35.629,206.126 24.681,187.481L24.09,187.481L22.61,210.856L0.423,210.856C1.01,201.091 1.607,186.593 1.607,173.87L1.607,0.79Z" style="fill:white;"/>
        <path id="Fill.-2" d="M240.434,137.776C212.034,137.18 179.782,142.214 179.782,170.023C179.782,187.189 191.026,194.878 204.045,194.878C222.981,194.878 235.108,183.042 239.251,170.915C240.138,167.957 240.434,164.993 240.434,162.626L240.434,137.776ZM265.585,176.533C265.585,188.96 266.176,201.091 267.656,210.856L244.281,210.856L242.209,192.807L241.322,192.807C233.333,204.05 217.951,214.11 197.535,214.11C168.538,214.11 153.748,193.694 153.748,172.987C153.748,138.368 184.516,119.436 239.842,119.732L239.842,116.768C239.842,105.233 236.588,83.633 207.299,83.929C193.689,83.929 179.782,87.776 169.726,94.581L163.804,77.124C175.639,69.727 193.097,64.697 211.146,64.697C254.933,64.697 265.585,94.581 265.585,122.982L265.585,176.533Z" style="fill:white;"/>
        <rect id="Fill.-3" x="299.912" y="0.79" width="26.033" height="210.066" style="fill:white;"/>
        <path id="Fill.-4" d="M356.454,184.526C364.443,189.256 378.054,194.582 391.073,194.582C409.709,194.582 418.586,185.409 418.586,173.283C418.586,160.851 411.189,154.346 392.257,147.244C366.219,137.776 354.087,123.874 354.087,106.713C354.087,83.633 373.024,64.697 403.5,64.697C417.994,64.697 430.717,68.543 438.41,73.573L432.197,92.51C426.575,88.959 416.219,83.929 402.909,83.929C387.522,83.929 379.238,92.806 379.238,103.458C379.238,115.289 387.522,120.615 406.159,128.012C430.717,137.18 443.736,149.612 443.736,170.915C443.736,196.357 423.912,214.11 390.481,214.11C374.799,214.11 360.301,209.968 350.241,204.05L356.454,184.526" style="fill:white;"/>
        <path id="Fill.-5" d="M548.273,137.776C519.867,137.18 487.62,142.214 487.62,170.023C487.62,187.189 498.864,194.878 511.878,194.878C530.815,194.878 542.947,183.042 547.089,170.915C547.977,167.957 548.273,164.993 548.273,162.626L548.273,137.776ZM573.418,176.533C573.418,188.96 574.01,201.091 575.494,210.856L552.119,210.856L550.048,192.807L549.156,192.807C541.171,204.05 525.785,214.11 505.369,214.11C476.377,214.11 461.582,193.694 461.582,172.987C461.582,138.368 492.354,119.436 547.676,119.732L547.676,116.768C547.676,105.233 544.426,83.633 515.133,83.929C501.527,83.929 487.62,87.776 477.56,94.581L471.642,77.124C483.478,69.727 500.935,64.697 518.98,64.697C562.771,64.697 573.418,94.581 573.418,122.982L573.418,176.533Z" style="fill:white;"/>
        <path id="Fill.-6" d="M607.57,106.417C607.57,91.326 606.978,79.491 606.387,67.655L629.17,67.655L630.354,91.031L631.237,91.031C639.23,77.42 652.545,64.697 676.507,64.697C695.74,64.697 710.534,76.532 716.743,93.398L717.335,93.398C721.773,85.113 727.691,79.195 733.609,74.757C742.19,68.247 751.362,64.697 764.968,64.697C784.201,64.697 812.306,77.124 812.306,126.828L812.306,210.856L786.864,210.856L786.864,130.083C786.864,102.274 776.508,86 755.8,86C740.71,86 729.467,96.948 724.732,109.376C723.549,113.217 722.661,117.656 722.661,122.39L722.661,210.856L697.219,210.856L697.219,125.053C697.219,102.274 687.159,86 667.335,86C651.357,86 639.23,99.019 635.083,112.034C633.608,115.585 633.012,120.319 633.012,124.757L633.012,210.856L607.57,210.856L607.57,106.417" style="fill:white;"/>
        <path id="Fill.-7" d="M846.948,67.655L872.981,67.655L872.981,210.856L846.948,210.856L846.948,67.655ZM875.94,27.419C875.94,36.296 869.726,43.397 859.37,43.397C849.902,43.397 843.688,36.296 843.688,27.419C843.688,18.543 850.202,11.146 859.962,11.146C869.43,11.146 875.94,18.247 875.94,27.419Z" style="fill:white;"/>
        <path id="Fill.-8" d="M1007.1,125.645C1007.1,122.094 1006.81,118.248 1005.91,114.997C1001.77,99.019 988.165,85.409 968.636,85.409C941.715,85.409 925.436,108.187 925.436,140.143C925.436,168.84 939.047,193.403 967.744,193.403C984.614,193.403 999.112,183.042 1005.02,165.294C1006.21,161.447 1007.1,156.417 1007.1,152.57L1007.1,125.645ZM1007.1,188.96L1006.5,188.96C998.521,202.867 982.839,214.11 959.759,214.11C926.329,214.11 899.107,185.409 899.107,141.919C899.107,88.072 933.721,64.697 963.902,64.697C986.089,64.697 1000.88,75.644 1007.99,89.255L1008.58,89.255L1009.46,67.655L1034.02,67.655C1033.43,79.491 1032.84,92.214 1032.84,107.008L1032.84,269.437L1007.1,269.437L1007.1,188.96Z" style="fill:white;"/>
        <path id="Fill.-9" d="M1076.54,83.878L1078.87,83.878C1081.6,83.878 1083.79,82.968 1083.79,80.767C1083.79,78.825 1082.37,77.531 1079.26,77.531C1077.97,77.531 1077.07,77.66 1076.54,77.79L1076.54,83.878ZM1076.41,95.783L1071.49,95.783L1071.49,74.553C1073.44,74.294 1076.15,73.906 1079.65,73.906C1083.67,73.906 1085.48,74.553 1086.9,75.589C1088.2,76.495 1089.1,78.048 1089.1,80.12C1089.1,82.713 1087.16,84.392 1084.7,85.168L1084.7,85.432C1086.77,86.074 1087.81,87.762 1088.45,90.61C1089.1,93.841 1089.62,95.007 1090.01,95.783L1084.83,95.783C1084.18,95.007 1083.79,93.194 1083.15,90.61C1082.76,88.405 1081.46,87.374 1078.74,87.374L1076.41,87.374L1076.41,95.783ZM1063.34,84.78C1063.34,94.23 1070.46,101.738 1079.91,101.738C1089.1,101.867 1096.09,94.23 1096.09,84.909C1096.09,75.459 1089.1,67.826 1079.65,67.826C1070.46,67.826 1063.34,75.459 1063.34,84.78C1063.34,84.78 1063.34,75.459 1063.34,84.78ZM1101.53,84.78C1101.53,96.689 1091.95,106.139 1079.78,106.139C1067.61,106.139 1057.9,96.689 1057.9,84.78C1057.9,72.87 1067.61,63.55 1079.91,63.55C1091.95,63.55 1101.53,72.87 1101.53,84.78Z" style="fill:white;"/>
    </g>
</svg>
