<?xml version="1.0" encoding="UTF-8"?>
<svg width="82px" height="56px" viewBox="0 0 82 56" version="1.1" xmlns="http://www.w3.org/2000/svg" xmlns:xlink="http://www.w3.org/1999/xlink">
    <!-- Generator: Sketch 43.2 (39069) - http://www.bohemiancoding.com/sketch -->
    <title>Balsamiq</title>
    <desc>Created with Sketch.</desc>
    <defs></defs>
    <g id="Page-1" stroke="none" stroke-width="1" fill="none" fill-rule="evenodd" opacity="0.449999988">
        <g id="Balsamiq" transform="translate(0.696313, 18.039975)" fill-rule="nonzero" fill="#001731">
            <path d="M2.01168772,11.2896941 C2.01168772,11.5291422 2.03345574,11.7682502 2.09875975,11.9862704 C2.44704787,13.3141188 3.57898425,14.2283751 4.97179659,14.2283751 C6.99622127,14.2283751 8.17169364,12.5957746 8.17169364,10.1795258 C8.17169364,8.06836916 7.0832933,6.26162459 5.01567273,6.26162459 C3.7313603,6.26162459 2.5123519,7.17588089 2.12052777,8.61222922 C2.05522374,8.85167733 2.01168772,9.11323354 2.01168772,9.41764549 L2.01168772,11.2896941 L2.01168772,11.2896941 L2.01168772,11.2896941 L2.01168772,11.2896941 Z M0.118211221,0.0580826449 L2.01168772,0.0580826449 L2.01168772,6.67521673 L2.05522374,6.67521673 C2.73003197,5.49974434 3.94904038,4.75963209 5.64660482,4.75963209 C8.2805337,4.75963209 10.1087062,6.93643281 10.1087062,10.1142218 C10.1087062,13.8797469 7.71456547,15.7517955 5.36396084,15.7517955 C3.84020034,15.7517955 2.62119193,15.1643994 1.81577566,13.7926748 L1.77223965,13.7926748 L1.66339961,15.5123474 L0.0311391924,15.5123474 C0.0743350815,14.7940032 0.118211221,13.7273708 0.118211221,12.7913465 L0.118211221,0.0580826449 L0.118211221,0.0580826449 Z" id="Fill-1"></path>
            <path d="M17.6883944,10.1359898 C15.5990058,10.0921136 13.226293,10.4625099 13.226293,12.5083624 C13.226293,13.771247 14.0534773,14.336875 15.0112696,14.336875 C16.404422,14.336875 17.2965702,13.4661547 17.6013223,12.5740065 C17.6666263,12.3563265 17.6883944,12.1383063 17.6883944,11.9641622 L17.6883944,10.1359898 L17.6883944,10.1359898 L17.6883944,10.1359898 L17.6883944,10.1359898 Z M19.5386749,12.9872586 C19.5386749,13.9015149 19.582211,14.7940032 19.691051,15.5123474 L17.9713784,15.5123474 L17.8190024,14.184499 L17.7536984,14.184499 C17.1659622,15.0116832 16.0343659,15.7517955 14.5323734,15.7517955 C12.3991087,15.7517955 11.3110484,14.249803 11.3110484,12.7263827 C11.3110484,10.1795258 13.5745811,8.78671342 17.6448583,8.80848148 L17.6448583,8.59046124 C17.6448583,7.74184911 17.4054103,6.15278455 15.2507177,6.17455256 C14.2493893,6.17455256 13.226293,6.45753665 12.4865209,6.95820082 L12.0508206,5.6738884 C12.9215409,5.12968821 14.2058533,4.75963209 15.5337017,4.75963209 C18.7550267,4.75963209 19.5386749,6.95820082 19.5386749,9.04758941 L19.5386749,12.9872586 L19.5386749,12.9872586 Z" id="Fill-2"></path>
            <polygon id="Fill-3" points="22.0641039 0.0580826449 23.9793484 0.0580826449 23.9793484 15.5123474 22.0641039 15.5123474 22.0641039 15.5123474"></polygon>
            <path d="M26.223834,13.5753349 C26.8115702,13.9232829 27.8128986,14.315107 28.7706909,14.315107 C30.1417352,14.315107 30.7947754,13.6402988 30.7947754,12.7481506 C30.7947754,11.8335542 30.2505753,11.3549982 28.857763,10.832566 C26.9421783,10.1359898 26.04969,9.11323354 26.04969,7.8506891 C26.04969,6.15278455 27.4428425,4.75963209 29.6849472,4.75963209 C30.7512395,4.75963209 31.6872637,5.04261619 32.253232,5.41267231 L31.7961038,6.80582477 C31.3825117,6.54460868 30.6206314,6.17455256 29.6414112,6.17455256 C28.5094748,6.17455256 27.8999706,6.82759278 27.8999706,7.61124106 C27.8999706,8.48162118 28.5094748,8.87344532 29.8805192,9.41764549 C31.6872637,10.0921136 32.6450561,11.00671 32.6450561,12.5740065 C32.6450561,14.4457151 31.1865996,15.7517955 28.7271549,15.7517955 C27.5734505,15.7517955 26.5068182,15.4470434 25.7667059,15.0116832 L26.223834,13.5753349" id="Fill-4"></path>
            <path d="M40.335625,10.1359898 C38.2458964,10.0921136 35.8735236,10.4625099 35.8735236,12.5083624 C35.8735236,13.771247 36.7007079,14.336875 37.6581601,14.336875 C39.0513125,14.336875 39.9438009,13.4661547 40.248553,12.5740065 C40.313857,12.3563265 40.335625,12.1383063 40.335625,11.9641622 L40.335625,10.1359898 L40.335625,10.1359898 L40.335625,10.1359898 L40.335625,10.1359898 Z M42.1855655,12.9872586 C42.1855655,13.9015149 42.2291016,14.7940032 42.3382817,15.5123474 L40.6186091,15.5123474 L40.4662331,14.184499 L40.4005889,14.184499 C39.8131929,15.0116832 38.6812565,15.7517955 37.179264,15.7517955 C35.0463394,15.7517955 33.957939,14.249803 33.957939,12.7263827 C33.957939,10.1795258 36.2218118,8.78671342 40.2917489,8.80848148 L40.2917489,8.59046124 C40.2917489,7.74184911 40.0526409,6.15278455 37.8976082,6.17455256 C36.89662,6.17455256 35.8735236,6.45753665 35.1334114,6.95820082 L34.6980513,5.6738884 C35.5687716,5.12968821 36.853084,4.75963209 38.1805923,4.75963209 C41.4022573,4.75963209 42.1855655,6.95820082 42.1855655,9.04758941 L42.1855655,12.9872586 L42.1855655,12.9872586 Z" id="Fill-5"></path>
            <path d="M44.6980697,7.82892112 C44.6980697,6.71875274 44.6545337,5.84803246 44.6109977,4.97731216 L46.2871342,4.97731216 L46.3742063,6.69698474 L46.4391702,6.69698474 C47.0272465,5.6956564 48.0068068,4.75963209 49.7696753,4.75963209 C51.1845958,4.75963209 52.2729961,5.63035238 52.7297842,6.87112879 L52.7733201,6.87112879 C53.0998403,6.26162459 53.5352004,5.82626444 53.9705606,5.49974434 C54.6018328,5.02084817 55.276641,4.75963209 56.2776292,4.75963209 C57.6925497,4.75963209 59.7601703,5.6738884 59.7601703,9.33057349 L59.7601703,15.5123474 L57.8884617,15.5123474 L57.8884617,9.5700216 C57.8884617,7.52416898 57.1265815,6.32692861 55.6031611,6.32692861 C54.4929927,6.32692861 53.6658085,7.13234488 53.3175203,8.04660117 C53.2304483,8.32924514 53.1651443,8.65576526 53.1651443,9.00405337 L53.1651443,15.5123474 L51.2934358,15.5123474 L51.2934358,9.19996544 C51.2934358,7.52416898 50.5533236,6.32692861 49.0948671,6.32692861 C47.9193946,6.32692861 47.0272465,7.28472093 46.7221543,8.24217314 C46.6136543,8.50338923 46.5697782,8.85167733 46.5697782,9.17819745 L46.5697782,15.5123474 L44.6980697,15.5123474 L44.6980697,7.82892112" id="Fill-6"></path>
            <path d="M62.3087277,4.97731216 L64.2239722,4.97731216 L64.2239722,15.5123474 L62.3087277,15.5123474 L62.3087277,15.5123474 L62.3087277,4.97731216 L62.3087277,4.97731216 Z M64.4416523,2.0172033 C64.4416523,2.67024352 63.9845242,3.19267569 63.2226439,3.19267569 C62.5260677,3.19267569 62.0689395,2.67024352 62.0689395,2.0172033 C62.0689395,1.36416308 62.5481758,0.819962902 63.2661799,0.819962902 C63.9627561,0.819962902 64.4416523,1.34239507 64.4416523,2.0172033 L64.4416523,2.0172033 Z" id="Fill-7"></path>
            <path d="M74.0906617,9.24350148 C74.0906617,8.98228538 74.0692334,8.6993013 74.0035896,8.4601933 C73.6991776,7.28472093 72.6978493,6.28339259 71.2611608,6.28339259 C69.2806123,6.28339259 68.0830318,7.95918906 68.0830318,10.3101338 C68.0830318,12.4212904 69.0843601,14.2283751 71.1955167,14.2283751 C72.4366333,14.2283751 73.5032656,13.4661547 73.9382858,12.1604144 C74.0256977,11.8774303 74.0906617,11.5073742 74.0906617,11.2243901 L74.0906617,9.24350148 L74.0906617,9.24350148 L74.0906617,9.24350148 L74.0906617,9.24350148 Z M74.0906617,13.9015149 L74.0471253,13.9015149 C73.4597296,14.9246112 72.3060252,15.7517955 70.6081206,15.7517955 C68.1486759,15.7517955 66.1460192,13.6402988 66.1460192,10.4407419 C66.1460192,6.47930466 68.692536,4.75963209 70.9128727,4.75963209 C72.5451331,4.75963209 73.6335338,5.56504835 74.1563055,6.56637669 L74.1998419,6.56637669 L74.2648059,4.97731216 L76.07121,4.97731216 C76.0280142,5.84803246 75.9844786,6.78405677 75.9844786,7.87245716 L75.9844786,19.8220728 L74.0906617,19.8220728 L74.0906617,13.9015149 L74.0906617,13.9015149 Z" id="Fill-8"></path>
            <path d="M79.1996811,6.17081119 L79.3711039,6.17081119 C79.5714378,6.17081119 79.7329973,6.10380654 79.7329973,5.94190698 C79.7329973,5.79905444 79.6285785,5.7038194 79.3996743,5.7038194 C79.3044398,5.7038194 79.2381148,5.7133429 79.1996811,5.72286641 L79.1996811,6.17081119 L79.1996811,6.17081119 L79.1996811,6.17081119 L79.1996811,6.17081119 Z M79.1901576,7.04663335 L78.8282643,7.04663335 L78.8282643,5.48477883 C78.9711168,5.46573182 79.1711107,5.43716131 79.4282454,5.43716131 C79.7238137,5.43716131 79.8571428,5.48477883 79.9615609,5.56096686 C80.0571367,5.62763138 80.1238009,5.74191341 80.1238009,5.89428947 C80.1238009,6.08509965 79.9809484,6.20856508 79.8000021,6.26570609 L79.8000021,6.28509322 C79.952378,6.33237061 80.0285657,6.45651628 80.075843,6.66603335 C80.1238009,6.90378081 80.1615548,6.98949233 80.1901252,7.04663335 L79.8095255,7.04663335 C79.7615677,6.98949233 79.7329973,6.85616328 79.6857199,6.66603335 C79.6571496,6.50379367 79.5615744,6.42794577 79.3615805,6.42794577 L79.1901576,6.42794577 L79.1901576,7.04663335 L79.1901576,7.04663335 L79.1901576,7.04663335 L79.1901576,7.04663335 Z M78.2282839,6.23713558 C78.2282839,6.93235132 78.7524165,7.48471453 79.4472923,7.48471453 C80.1238009,7.49423798 80.6377296,6.93235132 80.6377296,6.24665909 C80.6377296,5.55144336 80.1238009,4.98989679 79.4282454,4.98989679 C78.7524165,4.98989679 78.2282839,5.55144336 78.2282839,6.23713558 C78.2282839,6.23713558 78.2282839,5.55144336 78.2282839,6.23713558 L78.2282839,6.23713558 L78.2282839,6.23713558 Z M81.0377168,6.23713558 C81.0377168,7.11329788 80.3329777,7.80851364 79.4381087,7.80851364 C78.5425593,7.80851364 77.8282967,7.11329788 77.8282967,6.23713558 C77.8282967,5.36097329 78.5425593,4.67528106 79.4472923,4.67528106 C80.3329777,4.67528106 81.0377168,5.36097329 81.0377168,6.23713558 L81.0377168,6.23713558 Z" id="Fill-9"></path>
        </g>
    </g>
</svg>