<?xml version="1.0" encoding="UTF-8"?>
<svg width="64px" height="56px" viewBox="0 0 64 56" version="1.1" xmlns="http://www.w3.org/2000/svg" xmlns:xlink="http://www.w3.org/1999/xlink">
    <!-- Generator: Sketch 43.2 (39069) - http://www.bohemiancoding.com/sketch -->
    <title>BBC</title>
    <desc>Created with Sketch.</desc>
    <defs></defs>
    <g id="Page-1" stroke="none" stroke-width="1" fill="none" fill-rule="evenodd" opacity="0.349999994">
        <g id="BBC" transform="translate(0.391565, 18.539975)" fill-rule="nonzero" fill="#001731">
            <g id="Group" transform="translate(31.814029, 9.270053) scale(-1, 1) rotate(-180.000000) translate(-31.814029, -9.270053) translate(21.814029, 0.270053)">
                <path d="M12.6504179,6.26284773 C12.6504179,4.35860349 10.1559693,4.47150401 10.1559693,4.47150401 L7.6615207,4.47150401 L7.6615207,7.91319274 L10.1559693,7.91319274 C12.7247168,7.92724183 12.6504179,6.26284773 12.6504179,6.26284773 L12.6504179,6.26284773 Z M7.6615207,13.1604435 L9.56211235,13.1604435 C11.5368248,13.0615921 11.4625258,11.6653156 11.4625258,11.6653156 C11.4625258,9.93033751 9.27988331,9.90207006 9.27988331,9.90207006 L7.6615207,9.90207006 L7.6615207,13.1604435 Z M12.1901921,9.22500544 C12.1901921,9.22500544 13.8976422,9.91611915 13.8828537,11.7499487 C13.8828537,11.7499487 14.1424545,14.7542537 9.95178086,15.1210534 L5.30070327,15.1210534 L5.30070327,2.52494323 L10.6311618,2.52494323 C10.6311618,2.52494323 15.0855342,2.51072488 15.0855342,6.07953249 C15.0855342,6.07953249 15.1894102,8.50562428 12.1901921,9.22500544 L12.1901921,9.22500544 Z M0.155368513,17.589394 L19.7328702,17.589394 L19.7328702,0.0628993032 L0.155368513,0.0628993032 L0.155368513,17.589394 Z" id="Shape"></path>
            </g>
            <g id="Group" transform="translate(10.366560, 9.270053) scale(-1, 1) rotate(-180.000000) translate(-10.366560, -9.270053) translate(0.366560, 0.270053)">
                <path d="M12.6504179,6.26284773 C12.6504179,4.35860349 10.1559693,4.47150401 10.1559693,4.47150401 L7.6615207,4.47150401 L7.6615207,7.91319274 L10.1559693,7.91319274 C12.7247168,7.92724183 12.6504179,6.26284773 12.6504179,6.26284773 L12.6504179,6.26284773 Z M7.6615207,13.1604435 L9.56211235,13.1604435 C11.5368248,13.0615921 11.4625258,11.6653156 11.4625258,11.6653156 C11.4625258,9.93033751 9.27988331,9.90207006 9.27988331,9.90207006 L7.6615207,9.90207006 L7.6615207,13.1604435 Z M12.1901921,9.22500544 C12.1901921,9.22500544 13.8976422,9.91611915 13.8828537,11.7499487 C13.8828537,11.7499487 14.1424545,14.7542537 9.95178086,15.1210534 L5.30070327,15.1210534 L5.30070327,2.52494323 L10.6311618,2.52494323 C10.6311618,2.52494323 15.0855342,2.51072488 15.0855342,6.07953249 C15.0855342,6.07953249 15.1894102,8.50562428 12.1901921,9.22500544 L12.1901921,9.22500544 Z M0.155368513,17.589394 L19.7328702,17.589394 L19.7328702,0.0628993032 L0.155368513,0.0628993032 L0.155368513,17.589394 Z" id="Shape"></path>
            </g>
            <g id="Group" transform="translate(53.317847, 9.270290) scale(-1, 1) rotate(-180.000000) translate(-53.317847, -9.270290) translate(43.317847, 0.270290)">
                <path d="M15.6793912,14.218357 L15.6793912,11.8909474 C15.6793912,11.8909474 13.2888186,13.2873932 10.6459503,13.3156606 C10.6459503,13.3156606 5.71656349,13.4070643 5.49384486,8.82638365 C5.49384486,8.82638365 5.31566996,4.61250272 10.586618,4.37265258 C10.586618,4.37265258 12.7990158,4.11875335 15.7982338,5.93836451 L15.7982338,3.5263218 C15.7982338,3.5263218 11.7745101,1.25544707 7.11220748,3.00447425 C7.11220748,3.00447425 3.19235968,4.36537413 3.04376181,8.82638365 C3.04376181,8.82638365 2.88037543,13.4143428 8.10695795,14.9377382 C8.10695795,14.9377382 9.50278011,15.4455366 12.0120172,15.2199048 C12.0120172,15.2199048 13.5115372,15.0787369 15.6793912,14.218357 L15.6793912,14.218357 Z M0.096036271,0.0631362758 L19.6735379,0.0631362758 L19.6735379,17.589631 L0.096036271,17.589631 L0.096036271,0.0631362758 Z" id="Shape"></path>
            </g>
        </g>
    </g>
</svg>