<?xml version="1.0" encoding="UTF-8"?>
<svg width="132px" height="56px" viewBox="0 0 132 56" version="1.1" xmlns="http://www.w3.org/2000/svg" xmlns:xlink="http://www.w3.org/1999/xlink">
    <!-- Generator: Sketch 43.2 (39069) - http://www.bohemiancoding.com/sketch -->
    <title>Brandwatch</title>
    <desc>Created with Sketch.</desc>
    <defs></defs>
    <g id="Page-1" stroke="none" stroke-width="1" fill="none" fill-rule="evenodd" opacity="0.42">
        <g id="Brandwatch" transform="translate(0.716153, 14.039975)" fill-rule="nonzero" fill="#001731">
            <path d="M18.3302249,10.1663432 C18.5848433,8.98808657 19.7464319,8.23917515 20.9248322,8.49379354 C22.1030889,8.74841193 22.8520003,9.91000055 22.5973819,11.0882572 C22.3427635,12.2666575 21.1811749,13.0154253 20.0029183,12.7609506 C18.8245179,12.5063322 18.0757502,11.3447436 18.3302249,10.1663432 L18.3302249,10.1663432 Z" id="Shape"></path>
            <path d="M10.8926953,11.1310768 C11.2823822,9.32748196 13.0604002,8.18141184 14.863995,8.57109867 C16.6674461,8.9607855 17.8136599,10.7386598 17.4239731,12.5422546 C17.0342863,14.3458495 15.2562683,15.4920633 13.4528171,15.1023764 C11.6492223,14.7126896 10.5030085,12.9346716 10.8926953,11.1310768 L10.8926953,11.1310768 Z" id="Shape"></path>
            <path d="M16.9144489,15.5900597 C17.2417744,14.0751378 18.7352865,13.1122722 20.2503522,13.4395977 C21.7654178,13.7670668 22.7281397,15.2605789 22.4008142,16.7755009 C22.0734888,18.2905665 20.5799766,19.2532884 19.064911,18.925963 C17.5499891,18.5986375 16.5871235,17.1051254 16.9144489,15.5900597 L16.9144489,15.5900597 Z" id="Shape"></path>
            <path d="M25.2388322,12.9710251 C25.4519242,11.9851692 26.4238422,11.3585378 27.4098419,11.5716298 C28.3956978,11.7845781 29.0223292,12.7564962 28.8092372,13.7424958 C28.5962889,14.7284955 27.6242271,15.3549832 26.6383712,15.1420348 C25.6523715,14.9289428 25.0258838,13.9570248 25.2388322,12.9710251 Z" id="Shape"></path>
            <path d="M9.17114742,17.9375206 C9.35291506,17.0959292 10.1827239,16.560972 11.0243152,16.7428833 C11.8660503,16.9246509 12.4008638,17.7544597 12.2190962,18.5960511 C12.0371849,19.4377861 11.2075198,19.9725997 10.3657847,19.7908321 C9.52419335,19.6089207 8.98923609,18.7792556 9.17114742,17.9375206 L9.17114742,17.9375206 Z" id="Shape"></path>
            <path d="M15.9360649,6.85256824 C16.1024577,6.08310917 16.8609963,5.59398897 17.6305991,5.76023811 C18.4000582,5.92663094 18.8890347,6.68516958 18.7227855,7.45462865 C18.5565364,8.22423141 17.7979977,8.71320792 17.028395,8.54695878 C16.2589359,8.38070964 15.7698157,7.622171 15.9360649,6.85256824 Z" id="Shape"></path>
            <path d="M7.50937448,0.667870354 C7.60808939,0.210936678 8.05855703,-0.0794604789 8.51534701,0.0192544379 C8.97228069,0.117969355 9.26267785,0.568436988 9.16396293,1.02537066 C9.06524801,1.48230434 8.61478038,1.7727015 8.1578467,1.67384289 C7.70105672,1.57512797 7.41065956,1.12480403 7.50937448,0.667870354 L7.50937448,0.667870354 Z" id="Shape"></path>
            <path d="M0.0182486091,21.3502979 C0.111647002,20.9175041 0.538405812,20.6424817 0.971343286,20.7358801 C1.40413707,20.8294222 1.6793031,21.256181 1.58576102,21.6889748 C1.49221894,22.1219123 1.06546013,22.3969346 0.632522654,22.3033925 C0.199728871,22.2099941 -0.0752934736,21.7832353 0.0182486091,21.3502979 L0.0182486091,21.3502979 Z" id="Shape"></path>
            <path d="M15.457434,24.0943426 C15.5873296,23.4931444 16.1800502,23.1112168 16.7812485,23.2411124 C17.3824467,23.371008 17.764518,23.9635849 17.6346224,24.5647832 C17.5047268,25.1659814 16.9120062,25.5480527 16.310808,25.4181571 C15.7096097,25.2882615 15.3275384,24.6955409 15.457434,24.0943426 L15.457434,24.0943426 Z" id="Shape"></path>
            <path d="M6.10983548,11.9271185 C6.23973109,11.3259202 6.83245166,10.9438489 7.43364993,11.0737445 C8.0348482,11.2036401 8.41691948,11.7963607 8.28702386,12.397559 C8.15712825,12.9987572 7.56440768,13.3808285 6.96320941,13.2509329 C6.36201114,13.1210373 5.97993987,12.5283167 6.10983548,11.9271185 Z" id="Shape"></path>
            <path d="M13.9060149,16.6375586 C14.0254211,16.0843528 14.570724,15.7328874 15.1237862,15.8524374 C15.6768484,15.9718436 16.0284574,16.5171466 15.9089075,17.0702087 C15.7893575,17.6234146 15.2441983,17.9748799 14.6909924,17.85533 C14.1379303,17.73578 13.7864649,17.1906208 13.9060149,16.6375586 Z" id="Shape"></path>
            <path d="M24.0896009,4.17462078 C24.2246693,3.54928262 24.8412424,3.15198022 25.4664369,3.28704867 C26.091775,3.4222608 26.4890774,4.03854651 26.354009,4.66374098 C26.2187968,5.28907914 25.6025111,5.68638154 24.9773167,5.55131309 C24.3519785,5.41624465 23.9546761,4.79981525 24.0896009,4.17462078 Z" id="Shape"></path>
            <path d="M24.3057104,20.1142779 C24.2239509,19.604179 24.5708181,19.1242549 25.0812044,19.042208 C25.5913033,18.9603048 26.0712274,19.3073158 26.1532743,19.8175584 C26.2351775,20.327801 25.8881665,20.8075813 25.3780676,20.8896282 C24.867825,20.9715314 24.387901,20.6245205 24.3057104,20.1142779 Z" id="Shape"></path>
            <path d="M43.7781258,13.3289565 C43.7781258,14.510518 43.5364395,15.4693603 43.0797932,16.1007334 C42.6551897,16.6862695 42.0377545,16.9707754 41.1922835,16.9707754 C39.6434508,16.9707754 38.9501473,15.701132 38.9501473,14.4428401 L38.9501473,11.8742406 C38.9501473,10.6193973 40.3018376,9.78700205 41.1957321,9.78700205 C42.0401972,9.78700205 42.6563392,10.0709332 43.0793621,10.6544576 C43.5559813,11.3138502 43.7781258,12.1636319 43.7781258,13.3289565 L43.7781258,13.3289565 Z M41.2088078,8.04117056 L41.1792077,8.04117056 C40.4185137,8.0447628 39.6217536,8.31216959 38.9520153,8.76091294 L38.948423,4.43139452 L37.2060401,4.42234206 L37.2060401,14.4445644 C37.2060401,16.9608608 38.8416615,18.7181874 41.1957321,18.7181874 L41.2088078,18.7181874 C42.5530262,18.7121525 43.6269641,18.2108186 44.4001591,17.2288423 C45.1552492,16.2731612 45.5223767,14.9980576 45.5223767,13.3306808 C45.5223767,11.7071293 45.1657385,10.4995599 44.4003028,9.53080308 C43.6248087,8.54839567 42.5510146,8.04734922 41.2088078,8.04117056 Z" id="Shape"></path>
            <path d="M67.0053003,8.03958997 C64.5562507,8.03958997 63.0942066,9.61026356 63.0942066,12.2409371 L63.0942066,18.546047 L64.8400381,18.546047 L64.8400381,12.2254186 C64.8400381,10.0213602 66.3553911,9.7835535 67.0070245,9.7835535 C67.6585142,9.7835535 69.1740109,10.0213602 69.1740109,12.2254186 L69.1740109,18.5477713 L70.9196987,18.5477713 L70.9196987,12.2403623 C70.9169686,9.60997618 69.4536314,8.03958997 67.0053003,8.03958997 L67.0053003,8.03958997 Z" id="Shape"></path>
            <path d="M51.8720305,9.86301398 C51.6264646,9.79979045 51.397423,9.7835535 51.2272942,9.7835535 C50.5756608,9.7835535 49.0603078,10.0213602 49.0603078,12.2254186 L49.0603078,18.546047 L47.3144763,18.546047 L47.3144763,12.2409371 C47.3144763,9.61026356 48.7765204,8.03958997 51.2255699,8.03958997 C51.6182743,8.03958997 51.9856892,8.07996681 52.325803,8.15870884 L51.8720305,9.86301398 L51.8720305,9.86301398 Z" id="Shape"></path>
            <path d="M79.285752,11.8742406 L79.285752,14.4445644 C79.285752,15.7028563 78.5924486,16.9724996 77.0436158,16.9724996 C76.1981448,16.9724996 75.5805659,16.6879938 75.1565372,16.1031761 C74.6928501,15.4620321 74.4577736,14.5291977 74.4577736,13.3306808 C74.4577736,12.1637756 74.6797743,11.3141376 75.1566809,10.6561819 C75.578698,10.0725138 76.19484,9.78872633 77.0410294,9.78872633 L77.0428974,9.78872633 C77.935786,9.78872633 79.285752,10.6204031 79.285752,11.8742406 Z M79.2840277,4.42162361 L79.2804355,8.75775176 C78.6122778,8.31116376 77.8146555,8.04303852 77.053243,8.03958997 L77.0237866,8.03958997 C75.6794245,8.04562494 74.6054867,8.54681509 73.8322917,9.52879142 C73.0668559,10.497692 72.7103615,11.7052614 72.7103615,13.3289565 C72.7103615,14.9943217 73.0772016,16.2692816 73.8322917,17.227118 C74.6079294,18.2093817 75.6817236,18.7104282 77.0265167,18.7164632 L77.0520935,18.7164632 C79.3942378,18.7164632 81.0298592,16.9589928 81.0298592,14.4428401 L81.0298592,4.42061778 L79.2840277,4.42162361 L79.2840277,4.42162361 Z" id="Shape"></path>
            <path d="M117.116987,9.7835535 C117.772212,9.7835535 118.332746,9.97135611 118.782495,10.3413574 C119.16313,10.6553197 119.364727,11.0894067 119.3995,11.7169002 L121.094321,11.6298242 C121.044605,10.4577462 120.672592,9.64201901 119.922962,9.01035849 C119.153215,8.36389793 118.209748,8.03599772 117.118855,8.03599772 C115.763141,8.03599772 114.67972,8.53776263 113.898334,9.52792928 C113.143675,10.4872026 112.776835,11.7467877 112.776835,13.3788169 C112.776835,15.0125703 113.143963,16.2714369 113.899196,17.2274054 C114.681444,18.2165662 115.764578,18.7181874 117.118855,18.7181874 C118.211616,18.7181874 119.155227,18.3902872 119.922962,17.7439704 C120.670149,17.1163332 121.042449,16.2767535 121.094178,15.1038133 L119.3995,15.0118518 C119.364727,15.6406386 119.16313,16.0990091 118.78307,16.4123967 C118.332746,16.7829727 117.772212,16.9707754 117.116987,16.9707754 C116.26505,16.9707754 115.644166,16.6861258 115.21985,16.1014519 C114.748547,15.4495311 114.519218,14.5583667 114.519218,13.3772363 C114.519218,12.1938068 114.748403,11.3029298 115.219419,10.6537391 C115.644166,10.0680594 116.26505,9.7835535 117.116987,9.7835535 L117.116987,9.7835535 Z" id="Shape"></path>
            <path d="M127.213928,8.03958997 C126.309687,8.03958997 125.667969,8.25613055 125.022801,8.68245829 C124.939318,8.73734781 124.858133,8.79525481 124.779534,8.85603561 L124.779534,4.43843532 L123.03399,4.43843532 L123.03399,18.546047 L124.779534,18.546047 L124.779534,12.2946771 C124.779534,10.9924161 125.639231,9.80941767 127.077997,9.80941767 C128.425089,9.80941767 129.139228,10.9623849 129.139228,12.2213952 L129.139228,18.5443227 L130.891813,18.5443227 L130.891813,12.3804599 C130.891813,8.62282701 128.357268,8.03958997 127.213928,8.03958997 Z" id="Shape"></path>
            <path d="M111.230301,16.8657381 C110.806416,17.1952189 110.300197,17.1363061 109.89571,16.8479206 C109.599853,16.6369839 109.343654,16.2444232 109.343654,15.651559 L109.343654,10.0375971 L111.211334,10.0375971 L111.211334,8.28644911 L109.341786,8.28644911 L109.341786,6.22234462 L107.585465,6.22234462 L107.585465,8.28458114 L106.460805,8.28458114 L106.460805,10.0358728 L107.587189,10.0358728 L107.587189,15.6481104 C107.587189,17.0920496 108.250893,18.0556336 109.16088,18.5035148 C110.131362,18.9730932 111.36422,18.8659006 112.204518,18.1724535 L111.230301,16.8657381 L111.230301,16.8657381 Z" id="Shape"></path>
            <path d="M103.184676,14.8335328 C103.184676,16.418719 101.899371,16.9809773 100.79885,16.9809773 C100.141038,16.9809773 98.6113164,16.838437 98.6113164,15.5170653 C98.6113164,15.1469203 98.7114682,14.6392641 99.1893806,14.3222843 C99.6618328,14.008322 100.34709,13.9840384 101.263974,13.9840384 L103.184676,13.9840384 L103.184676,14.0879262 L103.184533,14.0879262 L103.184676,14.0899379 L103.184676,14.8335328 L103.184676,14.8335328 Z M104.92864,11.531684 C104.92864,10.4130587 104.553897,9.53453901 103.8149,8.92069604 C103.112113,8.3360221 102.186032,8.03958997 101.06209,8.03958997 C99.9543853,8.03958997 99.0393684,8.33515996 98.3427601,8.91810962 C97.6862412,9.4668611 97.3321895,10.142347 97.2903757,10.9260314 L98.98491,11.0694338 C99.0251431,10.7379414 99.1862194,10.4655055 99.4779098,10.2367512 C99.8605558,9.93586472 100.394076,9.7835535 101.063815,9.7835535 C101.777809,9.7835535 102.322969,9.94204339 102.684492,10.2548562 C103.022163,10.5468339 103.186401,10.9595111 103.186401,11.5161655 L103.186401,12.2313098 L101.23811,12.2313098 C100.147361,12.2313098 99.0079003,12.2844751 98.1151554,12.9192968 C97.3103486,13.491326 96.8672092,14.4027506 96.8672092,15.4860283 C96.8672092,17.4494062 98.410438,18.7181874 100.79885,18.7181874 C101.726225,18.7181874 102.728749,18.4760701 103.514157,17.8978622 L103.570196,18.546047 L104.92864,18.546047 L104.92864,14.8339638 L104.92864,14.8335328 L104.92864,11.531684 L104.92864,11.531684 Z" id="Shape"></path>
            <path d="M59.4177585,14.8335328 C59.4177585,16.418719 58.1324529,16.9809773 57.0319325,16.9809773 C56.3741204,16.9809773 54.8442547,16.838437 54.8442547,15.5170653 C54.8442547,15.1469203 54.9445502,14.6392641 55.4224626,14.3222843 C55.8947711,14.008322 56.5801716,13.9840384 57.4969128,13.9840384 L59.4177585,13.9840384 L59.4177585,14.0879262 L59.4174711,14.0879262 L59.4177585,14.0899379 L59.4177585,14.8335328 L59.4177585,14.8335328 Z M61.161722,11.531684 C61.161722,10.4130587 60.7868353,9.53453901 60.0478384,8.92069604 C59.3450514,8.3360221 58.4189705,8.03958997 57.2950286,8.03958997 C56.1873236,8.03958997 55.2724505,8.33515996 54.5758421,8.91810962 C53.9191796,9.4668611 53.5651278,10.142347 53.5234578,10.9260314 L55.217992,11.0694338 C55.2582252,10.7379414 55.4193015,10.4655055 55.7108481,10.2367512 C56.0934942,9.93586472 56.6271582,9.7835535 57.2968965,9.7835535 C58.0107476,9.7835535 58.5559069,9.94204339 58.9174305,10.2548562 C59.2552453,10.5468339 59.4193391,10.9595111 59.4193391,11.5161655 L59.4193391,12.2313098 L57.4711923,12.2313098 C56.3804428,12.2313098 55.2408387,12.2844751 54.3482374,12.9192968 C53.5434307,13.491326 53.1002912,14.4027506 53.1002912,15.4860283 C53.1002912,17.4494062 54.6433764,18.7181874 57.0319325,18.7181874 C57.9593067,18.7181874 58.9618307,18.4760701 59.7472393,17.8978622 L59.8032783,18.546047 L61.161722,18.546047 L61.161722,14.8339638 L61.161722,14.8335328 L61.161722,11.531684 L61.161722,11.531684 Z" id="Shape"></path>
            <polygon id="Shape" points="94.5746379 8.2115867 92.431935 15.6715319 90.2893759 8.2115867 88.6369428 8.2115867 86.49424 15.6715319 84.3516808 8.2115867 82.6992477 8.2115867 85.6680234 18.5480587 87.3204565 18.5480587 89.4631594 11.0882572 91.6057185 18.5480587 93.2581516 18.5480587 96.227071 8.2115867 94.5746379 8.2115867"></polygon>
        </g>
    </g>
</svg>