<?xml version="1.0" encoding="UTF-8" standalone="no"?><!DOCTYPE svg PUBLIC "-//W3C//DTD SVG 1.1//EN" "http://www.w3.org/Graphics/SVG/1.1/DTD/svg11.dtd"><svg width="100%" height="100%" viewBox="0 0 1390 211" version="1.1" xmlns="http://www.w3.org/2000/svg" xmlns:xlink="http://www.w3.org/1999/xlink" xml:space="preserve" style="fill-rule:evenodd;clip-rule:evenodd;stroke-linejoin:round;stroke-miterlimit:1.41421;"><g><path d="M1310.8,85.066c0,20.523 -5.24,36.335 -15.56,46.998c-10.31,10.64 -25.65,16.035 -45.61,16.035c-19.95,0 -35.29,-5.395 -45.6,-16.035c-10.33,-10.663 -15.56,-26.475 -15.56,-46.998c0,-20.38 5.23,-36.121 15.56,-46.788c10.31,-10.639 25.65,-16.034 45.6,-16.034c19.95,0 35.3,5.395 45.61,16.034c10.32,10.667 15.56,26.408 15.56,46.788Zm14.2,-34.585c-3.67,-10.282 -9.05,-19.107 -15.99,-26.231c-6.95,-7.124 -15.53,-12.65 -25.49,-16.423c-9.91,-3.747 -21.31,-5.647 -33.89,-5.647c-12.57,0 -23.97,1.9 -33.88,5.647c-9.97,3.775 -18.55,9.3 -25.49,16.424c-6.94,7.122 -12.32,15.948 -15.99,26.23c-3.65,10.205 -5.49,21.841 -5.49,34.585c0,12.888 1.84,24.561 5.49,34.696c3.67,10.215 9.05,19.004 15.99,26.119c6.95,7.128 15.52,12.654 25.49,16.424c9.9,3.749 21.3,5.647 33.88,5.647c12.59,0 23.99,-1.898 33.89,-5.647c9.96,-3.769 18.54,-9.294 25.49,-16.424c6.93,-7.115 12.31,-15.903 15.99,-26.119c3.65,-10.143 5.49,-21.816 5.49,-34.696c0,-12.736 -1.84,-24.371 -5.49,-34.585Z" style="fill:#111517;fill-rule:nonzero;"/><path d="M1084.81,167.412l-6.32,-8.57l128.35,-94.677l6.32,8.57l-128.35,94.677Z" style="fill:#eeb529;fill-rule:nonzero;"/><path d="M1285.67,119.705l-6.46,-8.467l82.63,-63.036l6.46,8.467l-82.63,63.036Z" style="fill:#eeb529;fill-rule:nonzero;"/><path d="M1279.09,119.61l-65.27,-52.847l6.7,-8.277l65.27,52.848l-6.7,8.276Z" style="fill:#eeb529;fill-rule:nonzero;"/><path d="M1234.68,62.624c0,9.673 -7.84,17.515 -17.51,17.515c-9.68,0 -17.52,-7.842 -17.52,-17.515c0,-9.672 7.84,-17.514 17.52,-17.514c9.67,0 17.51,7.842 17.51,17.514Z" style="fill:#eeb529;fill-rule:nonzero;"/><path d="M1297.03,112.117c0,9.673 -7.84,17.515 -17.51,17.515c-9.67,0 -17.51,-7.842 -17.51,-17.515c0,-9.673 7.84,-17.514 17.51,-17.514c9.67,0 17.51,7.841 17.51,17.514Z" style="fill:#eeb529;fill-rule:nonzero;"/><path d="M1376.72,81.188l-42.85,-49.003l55.3,-2.859l-12.45,51.862Z" style="fill:#eeb529;fill-rule:nonzero;"/><path d="M56.236,150.55c13.545,0 23.91,-3.684 31.094,-11.053c7.183,-7.37 10.775,-18.004 10.775,-31.901c0,-14.035 -3.592,-24.704 -10.775,-32.005c-7.184,-7.298 -17.549,-10.95 -31.094,-10.95c-13.684,0 -24.084,3.652 -31.197,10.95c-7.116,7.301 -10.672,17.97 -10.672,32.005c0,13.897 3.556,24.531 10.672,31.901c7.113,7.369 17.513,11.053 31.197,11.053Zm0,-100.648c17.651,0 31.402,5.054 41.253,15.16c9.851,10.108 14.777,24.288 14.777,42.534c0,18.108 -4.926,32.216 -14.777,42.323c-9.851,10.107 -23.602,15.161 -41.253,15.161c-17.788,0 -31.607,-5.054 -41.459,-15.161c-9.851,-10.107 -14.777,-24.215 -14.777,-42.323l0,-107.386l14.367,0l0,65.484c4.788,-5.053 10.704,-8.949 17.753,-11.685c7.046,-2.738 15.086,-4.107 24.116,-4.107Z" style="fill:#111517;fill-rule:nonzero;"/><path d="M147.566,65.168c9.165,-10.176 21.961,-15.266 38.38,-15.266l0,14.739c-12.314,0 -21.688,3.685 -28.117,11.055c-6.434,7.37 -9.647,18.003 -9.647,31.9l0,56.431l-14.367,0l0,-56.431c0,-18.108 4.583,-32.248 13.751,-42.428Z" style="fill:#111517;fill-rule:nonzero;"/><path d="M210.983,164.027l0,-112.019l14.367,0l0,112.019l-14.367,0Zm14.367,-164.027l0,19.792l-14.367,0l0,-19.792l14.367,0Z" style="fill:#111517;fill-rule:nonzero;"/><path d="M346.438,107.385c0,-14.035 -3.559,-24.704 -10.672,-32.004c-7.117,-7.298 -17.516,-10.95 -31.197,-10.95c-13.683,0 -24.083,3.652 -31.196,10.95c-7.116,7.3 -10.672,17.969 -10.672,32.004c0,14.039 3.556,24.709 10.672,32.006c7.113,7.3 17.513,10.949 31.196,10.949c12.725,0 22.609,-3.158 29.657,-9.475c7.046,-6.317 11.048,-15.582 12.007,-27.795l0.205,-5.685Zm-41.869,-57.693c17.786,0 31.607,5.09 41.459,15.266c9.851,10.179 14.777,24.319 14.777,42.427l0,45.482c0,18.108 -4.961,32.216 -14.88,42.323c-9.922,10.106 -23.705,15.16 -41.356,15.16l0,-14.739c13.547,0 23.876,-3.652 30.992,-10.949c7.112,-7.301 10.672,-17.898 10.672,-31.795l0,-3.37c-9.852,10.391 -23.74,15.583 -41.664,15.583c-17.788,0 -31.607,-5.054 -41.458,-15.161c-9.852,-10.107 -14.778,-24.283 -14.778,-42.534c0,-18.108 4.926,-32.248 14.778,-42.427c9.851,-10.176 23.67,-15.266 41.458,-15.266Z" style="fill:#111517;fill-rule:nonzero;"/><path d="M441.259,49.902c8.071,0 15.323,1.336 21.755,4.001c6.43,2.668 11.869,6.458 16.317,11.37c4.445,4.916 7.866,10.949 10.262,18.108c2.392,7.16 3.592,15.233 3.592,24.215l0,56.431l-14.367,0l0,-56.431c0,-13.897 -3.217,-24.53 -9.646,-31.9c-6.433,-7.37 -15.736,-11.055 -27.913,-11.055c-12.314,0 -21.688,3.685 -28.118,11.055c-6.433,7.37 -9.646,18.003 -9.646,31.9l0,56.431l-14.367,0l0,-164.027l14.367,0l0,64.641c4.378,-4.77 9.748,-8.422 16.111,-10.949c6.363,-2.526 13.578,-3.79 21.653,-3.79Z" style="fill:#111517;fill-rule:nonzero;"/><path d="M586.979,65.905l-30.17,0l0,98.122l-14.367,0l0,-98.122l-29.965,0l0,-14.739l29.965,0l0,-51.166l14.367,0l0,51.166l30.17,0l0,14.739Z" style="fill:#111517;fill-rule:nonzero;"/><path d="M655.94,64.431c-13.684,0 -24.086,3.652 -31.197,10.95c-7.116,7.3 -10.673,17.969 -10.673,32.004c0,14.039 3.557,24.709 10.673,32.006c7.111,7.3 17.513,10.949 31.197,10.949c13.68,0 24.08,-3.649 31.195,-10.949c7.113,-7.297 10.673,-17.967 10.673,-32.006c0,-14.035 -3.56,-24.704 -10.673,-32.004c-7.115,-7.298 -17.515,-10.95 -31.195,-10.95Zm0,100.649c-17.791,0 -31.608,-5.054 -41.459,-15.161c-9.852,-10.107 -14.778,-24.283 -14.778,-42.534c0,-18.108 4.926,-32.248 14.778,-42.427c9.851,-10.176 23.668,-15.266 41.459,-15.266c17.785,0 31.606,5.09 41.458,15.266c9.851,10.179 14.777,24.319 14.777,42.427c0,18.251 -4.926,32.427 -14.777,42.534c-9.852,10.107 -23.673,15.161 -41.458,15.161Z" style="fill:#111517;fill-rule:nonzero;"/><path d="M836.816,164.027l-14.367,0l0,-56.431c0,-13.897 -3.012,-24.53 -9.03,-31.9c-6.023,-7.37 -14.778,-11.055 -26.271,-11.055c-11.494,0 -20.252,3.685 -26.271,11.055c-6.024,7.37 -9.031,18.003 -9.031,31.9l0,56.431l-14.367,0l0,-56.431c0,-18.108 4.342,-32.248 13.033,-42.428c8.687,-10.176 20.899,-15.266 36.636,-15.266c15.597,0 27.773,5.09 36.532,15.266c8.754,10.18 13.136,24.32 13.136,42.428l0,56.431Z" style="fill:#111517;fill-rule:nonzero;"/><path d="M1002.49,132.245c-5.17,5.166 -11.6,9.136 -19.12,11.795c-7.6,2.693 -16.28,4.059 -25.79,4.059c-19.96,0 -35.301,-5.395 -45.6,-16.035c-10.33,-10.663 -15.57,-26.475 -15.57,-46.998c0,-20.38 5.24,-36.121 15.57,-46.788c10.31,-10.639 25.649,-16.034 45.6,-16.034c16.56,0 30.17,3.995 40.45,11.875l2.17,1.655l11.75,-16.083l-2.05,-1.585c-13.69,-10.568 -31.3,-15.926 -52.32,-15.926c-12.58,0 -23.98,1.9 -33.89,5.647c-9.97,3.775 -18.54,9.3 -25.48,16.424c-6.948,7.123 -12.328,15.948 -15.999,26.23c-3.643,10.203 -5.491,21.839 -5.491,34.585c0,12.889 1.848,24.563 5.494,34.696c3.671,10.215 9.051,19.004 15.996,26.119c6.94,7.127 15.52,12.654 25.48,16.424c9.9,3.749 21.3,5.647 33.89,5.647c24.55,0 44.31,-7.126 58.71,-21.181l1.87,-1.822l-13.72,-14.65l-1.95,1.946Z" style="fill:#111517;fill-rule:nonzero;"/><path d="M1135.12,64.97c-1.5,3.533 -3.6,6.694 -6.23,9.394c-2.62,2.688 -5.72,4.831 -9.22,6.37c-3.47,1.527 -7.19,2.302 -11.04,2.302l-55.21,0l0,-59.107l55.21,0c3.86,0 7.57,0.774 11.04,2.301c3.51,1.542 6.62,3.658 9.25,6.286c2.61,2.621 4.7,5.769 6.2,9.358c1.49,3.584 2.25,7.489 2.25,11.608c0,4.114 -0.75,7.979 -2.25,11.488Zm-2.76,31.76c4.89,-2.882 9.23,-6.547 12.89,-10.895c3.67,-4.346 6.58,-9.315 8.66,-14.769c2.09,-5.475 3.15,-11.391 3.15,-17.584c0,-6.63 -1.24,-13.027 -3.68,-19.012c-2.45,-5.979 -5.88,-11.26 -10.21,-15.693c-4.31,-4.423 -9.37,-8.01 -15.04,-10.662c-5.72,-2.671 -11.91,-4.1 -18.47,-4.25l-66.09,0c-2.65,0 -4.98,1.014 -6.93,3.014c-1.93,1.982 -2.91,4.342 -2.91,7.018l0,152.792l19.69,0l0,-63.59l43.25,0l49.87,63.59l25.25,0l-51.21,-65.134c4.16,-1.053 8.11,-2.668 11.78,-4.825Z" style="fill:#111517;fill-rule:nonzero;"/></g></svg>