<?xml version="1.0" encoding="UTF-8"?>
<svg width="71px" height="56px" viewBox="0 0 71 56" version="1.1" xmlns="http://www.w3.org/2000/svg" xmlns:xlink="http://www.w3.org/1999/xlink">
    <!-- Generator: Sketch 43.2 (39069) - http://www.bohemiancoding.com/sketch -->
    <title>Clearleft</title>
    <desc>Created with Sketch.</desc>
    <defs></defs>
    <g id="Page-1" stroke="none" stroke-width="1" fill="none" fill-rule="evenodd" opacity="0.370000005">
        <g id="Clearleft" transform="translate(0.686394, 18.343904)" fill="#001731">
            <path d="M69.7308843,11.7552923 L69.7308843,14.2223388 L68.6446475,14.2223388 C66.1039578,14.2223388 64.7093401,12.6988455 64.7093401,9.93722636 L64.7093401,6.81659668 L61.3217539,6.81659668 L61.3217539,14.2223388 L58.73964,14.2223388 L58.73964,6.81659668 L57.3174061,6.81659668 L57.2897899,4.67634181 L58.73964,4.67634181 L58.73964,4.41398799 C58.73964,1.65236881 60.1204496,0.128875562 62.6749473,0.128875562 L63.7611842,0.128875562 L63.7611842,2.59592203 L62.6749473,2.59592203 C61.7544076,2.59592203 61.3171512,3.18967016 61.3171512,4.43700149 L61.3171512,4.69935531 L64.7047374,4.69935531 L64.7047374,2.90430284 L67.2868514,1.27034482 L67.2868514,4.67634181 L69.1279308,4.67634181 L69.1279308,6.81659668 L67.2868514,6.81659668 L67.2868514,9.93722636 C67.2868514,11.1615442 67.7471212,11.7783058 68.6446475,11.7783058 L69.7308843,11.7552923 Z M34.9805096,4.53365816 L37.5626236,4.53365816 L37.5626236,14.1993253 L34.9805096,14.1993253 L34.9805096,13.2787856 C34.2086834,14.0798377 33.1326598,14.5149328 32.0209744,14.4754872 C29.415847,14.4754872 27.3768515,12.2477811 27.3768515,9.41251871 C27.3768515,6.57725635 29.415847,4.34955021 32.0209744,4.34955021 C33.1236199,4.2944824 34.1983023,4.70730754 34.9805096,5.48641678 L34.9805096,4.53365816 Z M34.9805096,9.36649173 C34.9805096,7.73713641 33.8942728,6.55424286 32.3983957,6.55424286 C30.9025186,6.55424286 29.8392953,7.73713641 29.8392953,9.36649173 C29.8392953,10.995847 30.9163267,12.1787406 32.3983957,12.1787406 C33.8804647,12.1787406 34.9805096,11.0234632 34.9805096,9.36649173 Z M40.9087855,5.37595201 L40.9087855,4.53365816 L38.4371363,4.53365816 L38.4371363,14.1993253 L41.0146476,14.1993253 L41.0146476,9.84517238 C41.0146476,7.773958 41.3690553,6.72454271 43.3159969,6.72454271 L44.0064017,6.72454271 L44.0064017,4.23908544 L43.9005396,4.23908544 C42.5427435,4.23908544 41.4979309,4.63952023 40.8903747,5.37595201 L40.9087855,5.37595201 Z M44.6461768,14.1901199 L47.2190853,14.1901199 L47.2190853,0.20251874 L44.6461768,0.20251874 L44.6461768,14.1901199 Z M7.36431782,2.80764617 C8.82696085,2.81673956 10.1710798,3.61371063 10.8807796,4.89266865 L10.936012,4.98932532 L11.0280659,4.92949024 L13.2511694,3.51646176 L13.3432233,3.45662668 L13.2833883,3.3645727 C11.9791328,1.3860996 9.76622289,0.19746074 7.39653671,0.20251874 C5.49928884,0.174042256 3.67042883,0.910403147 2.32224245,2.24560122 C0.97405607,3.58079929 0.22002574,5.4024454 0.230134932,7.29988004 C0.21756574,9.20419925 0.972297018,11.0333702 2.32406915,12.3747508 C3.67584128,13.7161313 5.51078199,14.4567245 7.4149475,14.4294602 C9.76725364,14.4565261 11.9756803,13.2995665 13.2925937,11.3502548 L13.3524287,11.2628036 L10.9590255,9.66566714 L10.8991904,9.75772111 C10.1810333,11.0168208 8.84602288,11.7974773 7.39653671,11.805922 C5.02154421,11.805922 3.16205396,9.81755619 3.16205396,7.27686654 C3.16205396,5.09058469 4.7407796,2.80764617 7.36431782,2.80764617 L7.36431782,2.80764617 Z M14.0704497,14.1901199 L16.6433583,14.1901199 L16.6433583,0.20251874 L14.0704497,0.20251874 L14.0704497,14.1901199 Z M57.3358169,9.35268363 C57.3358169,9.61964015 57.3358169,9.88199397 57.2943926,10.1305397 L57.2943926,10.3468665 L50.4823986,10.3468665 C50.7189139,11.5057874 51.7735821,12.3129915 52.9540478,12.2385757 C53.8772931,12.2171233 54.7680865,11.8937863 55.4901348,11.3180359 L55.6880508,11.1615442 L56.9629983,13.0026236 L56.8019039,13.1407046 C55.7000245,14.0834077 54.2834509,14.5764147 52.8343777,14.5215142 C49.9024586,14.5215142 47.8542577,12.4180809 47.8542577,9.40331331 C47.8542577,6.38854571 49.8518289,4.28511243 52.7101048,4.28511243 C55.4164916,4.24368814 57.3174061,6.34712142 57.3266115,9.35268363 L57.3358169,9.35268363 Z M54.7444976,8.33088453 C54.4821438,7.16179908 53.7503147,6.51742127 52.6732832,6.51742127 C51.5914351,6.47596087 50.6533306,7.25903961 50.5008094,8.33088453 L54.7444976,8.33088453 Z M26.7923088,9.35268363 C26.7923088,9.61964015 26.7923088,9.88199397 26.7508845,10.1305397 L26.7508845,10.3468665 L19.9480959,10.3468665 C20.1846112,11.5057874 21.2392793,12.3129915 22.4197451,12.2385757 C23.3429903,12.2171233 24.2337838,11.8937863 24.955832,11.3180359 L25.153748,11.1615442 L26.4286956,13.0026236 L26.2676011,13.1407046 C25.1657217,14.0834077 23.7491481,14.5764147 22.3000749,14.5215142 C19.3681559,14.5215142 17.319955,12.4180809 17.319955,9.40331331 C17.319955,6.38854571 19.3313343,4.24368814 22.1711993,4.24368814 C24.8821888,4.24368814 26.7831034,6.34712142 26.7923088,9.35268363 Z M24.2009894,8.33088453 C23.9386356,7.16179908 23.2068065,6.51742127 22.129775,6.51742127 C21.047927,6.47596087 20.1098225,7.25903961 19.9573013,8.33088453 L24.2009894,8.33088453 Z" id="Shape" fill-rule="nonzero"></path>
            <path d="M69.4086954,19.3313343 C69.3706944,19.107099 69.2406898,18.908957 69.0501204,18.7848246 C68.859551,18.6606922 68.6257681,18.6218718 68.4053071,18.6777511 C67.9142812,18.8392663 67.3910035,18.8772079 66.8818139,18.7882158 C66.2420388,18.7053673 65.5654421,18.6455322 64.9072562,18.5764917 C63.8072112,18.4568215 62.7025635,18.3601649 61.5933132,18.2727136 C60.3828034,18.1806596 59.167691,18.1162218 57.9571812,18.0333733 C56.815712,17.9551274 55.6788454,17.853868 54.5373761,17.7986356 C52.1255621,17.6820339 49.7122137,17.5915142 47.2973312,17.5270764 C45.2859519,17.4580359 38.28985,17.3797901 36.273868,17.4074062 C34.8608395,17.4074062 33.4524137,17.471844 32.0439879,17.4902548 C30.1752923,17.4902548 23.3264767,17.6467466 21.457781,17.7572113 C19.4648125,17.8630734 17.4626386,17.9321139 15.4742728,18.0701948 C13.6331934,18.1944677 11.7921139,18.2773163 9.97865064,18.4107945 C9.56164225,18.4206767 9.14608427,18.4637716 8.73592201,18.5396701 C7.65428783,18.5396701 6.69692652,18.6409295 5.7349625,18.6915592 C4.97091453,18.7329835 4.18845576,18.7513942 3.43361318,18.8664617 L3.43361318,18.8664617 C3.11602698,18.8664617 2.97334332,18.6823538 2.48085457,18.7467915 C1.98836581,18.8112293 1.52809595,18.9585157 1.50508245,19.2346776 C1.25193403,19.28991 1.50508245,19.4233882 1.21971514,19.4740179 L1.21971514,19.6903448 C1.41763118,19.7823987 1.47746626,19.8790554 1.21971514,19.9941229 L1.21971514,20.0815742 C1.37620689,20.0171364 1.39922039,20.0815742 1.47746626,20.113793 L1.47746626,20.2932983 C1.29335832,20.3807496 1.40382308,20.4635981 1.43604197,20.541844 C1.46826087,20.6200899 1.66617691,20.7443628 1.62935532,20.8686356 C1.58966358,21.0936301 1.68054808,21.3217324 1.86409295,21.457781 L1.86409295,21.5636431 C1.91472263,21.885832 2.3473763,22.1527885 2.40721139,22.4841828 C2.45323837,22.7373313 2.86748125,22.9444527 3.47043477,22.893823 C3.98593702,22.8662068 4.16544227,22.64988 4.63491753,22.5808395 C4.7223688,22.5808395 5.00773612,22.5394152 5.09518739,22.5348125 C7.04212891,22.405937 8.98907044,22.2632533 10.9222039,22.0745427 C11.4929385,22.023913 12.1097001,22.0377211 12.6344078,21.9364617 C13.3248126,21.8029834 14.0474362,21.8029834 14.7470464,21.7063268 C16.0664609,21.5460164 17.394679,21.4691519 18.7237781,21.4761918 C19.8330284,21.4761918 20.9192653,21.3565217 22.0193103,21.3104947 C22.6314692,21.2828785 23.2436281,21.3381109 23.8603897,21.2736731 C24.0986046,21.2288104 24.3406191,21.2072295 24.5830134,21.2092353 C25.2411993,21.2506596 30.8702998,21.1540029 31.5330884,21.1586056 C32.8172413,21.1586056 34.1013942,21.0941679 35.3809444,21.0803598 C36.899835,21.0527436 43.3712293,21.0021139 44.8993252,21.0803598 C45.4194301,21.0803598 45.9625486,21.1770164 46.4504346,21.1494002 C47.8818739,21.0711544 49.2995051,21.1954272 50.721739,21.2276461 C51.9690703,21.2552623 53.2025935,21.3703298 54.4545276,21.4071514 C55.7064616,21.4439729 56.8571363,21.5130134 58.0446325,21.641889 C58.5049024,21.6925187 59.0019938,21.7569565 59.4944826,21.8029834 C59.8811093,21.839805 60.1434631,21.7063268 60.511679,21.7523538 C61.4322187,21.8766266 62.4033881,21.9640779 63.3699548,22.0331184 C63.8707067,22.0461669 64.3702271,22.0892025 64.8658319,22.1619939 C65.5838632,22.3121177 66.3112083,22.4136077 67.0429083,22.465772 L67.5031782,22.6314692 C67.8971285,22.8261371 68.3477145,22.8734813 68.773523,22.7649475 C69.014425,22.6065023 69.1273973,22.3120334 69.0542876,22.0331184 L69.0542876,21.9502698 C69.1003146,21.8812293 69.1417389,21.8075861 69.0957119,21.7293403 C69.2153821,21.6833133 69.2245875,21.6280809 69.1923686,21.5590404 C69.3074361,21.2966866 69.5191602,21.0481409 69.3948873,20.7581709 C69.3442577,20.6431034 69.2153821,20.4728035 69.5882007,20.3945577 L69.5882007,20.1782308 C69.4086954,20.1552173 69.3902846,20.0907795 69.3534631,20.0309445 C69.3718739,19.7916041 69.39949,19.5614692 69.4086954,19.3313343 L69.4086954,19.3313343 Z M35.5880659,19.9112743 C35.5590434,19.9074112 35.529637,19.9074112 35.5006146,19.9112743 C35.529637,19.9074112 35.5590434,19.9074112 35.5880659,19.9112743 L35.5880659,19.9112743 Z" id="Shape"></path>
        </g>
    </g>
</svg>