<?xml version="1.0" encoding="UTF-8"?>
<svg width="77px" height="56px" viewBox="0 0 77 56" version="1.1" xmlns="http://www.w3.org/2000/svg" xmlns:xlink="http://www.w3.org/1999/xlink">
    <!-- Generator: Sketch 43.2 (39069) - http://www.bohemiancoding.com/sketch -->
    <title>Crunch</title>
    <desc>Created with Sketch.</desc>
    <defs>
        <polygon id="path-1" points="62.7751501 11.7576365 0.0318185643 11.7576365 0.0318185643 0.0821697498 62.7751501 0.0821697498 62.7751501 11.7576365"></polygon>
    </defs>
    <g id="Page-1" stroke="none" stroke-width="1" fill="none" fill-rule="evenodd" opacity="0.349999994">
        <g id="Crunch" transform="translate(0.731032, 19.039975)">
            <polygon id="Fill-1" fill="#001731" points="0.00507743047 8.29339031 5.23364608 8.29339031 5.23364608 3.05974423 0.00507743047 3.05974423"></polygon>
            <polygon id="Fill-3" fill="#FFFFFF" points="3.00160765 5.29178266 3.00160765 4.21426729 2.23203844 4.21426729 2.23203844 5.29178266 1.15452307 5.29178266 1.15452307 6.0614365 2.23203844 6.0614365 2.23203844 7.13895187 3.00160765 7.13895187 3.00160765 6.0614365 4.07912302 6.0614365 4.07912302 5.29178266"></polygon>
            <polygon id="Fill-4" fill="#001731" points="6.40348606 14.6968764 11.6371321 14.6968764 11.6371321 9.46323029 6.40348606 9.46323029"></polygon>
            <polygon id="Fill-5" fill="#FFFFFF" points="9.78226217 10.7738843 9.02030911 11.5358374 8.25844066 10.7738843 7.71414012 11.3181003 8.47609318 12.0800533 7.71414012 12.8420064 8.25844066 13.3862223 9.02030911 12.6242693 9.78226217 13.3862223 10.3264781 12.8420064 9.56452503 12.0800533 10.3264781 11.3181003"></polygon>
            <polygon id="Fill-6" fill="#001731" points="6.40348606 8.29339031 11.6371321 8.29339031 11.6371321 3.05974423 6.40348606 3.05974423"></polygon>
            <g id="Group-10" transform="translate(0.000000, 5.246678)">
                <polygon id="Fill-7" fill="#FFFFFF" points="7.55800913 0.814758343 10.4826937 0.814758343 10.4826937 0.0451045074 7.55800913 0.0451045074"></polygon>
                <polygon id="Fill-9" fill="#001731" points="0.00507743047 9.45019822 5.23364608 9.45019822 5.23364608 4.21655214 0.00507743047 4.21655214"></polygon>
            </g>
            <polygon id="Fill-11" fill="#FFFFFF" points="1.15452307 12.4649226 4.07920764 12.4649226 4.07920764 11.6952687 1.15452307 11.6952687"></polygon>
            <path d="M3.00160765,10.8486072 C3.00160765,10.6360321 2.82939813,10.4638226 2.61682304,10.4638226 C2.40424795,10.4638226 2.23203844,10.6360321 2.23203844,10.8486072 C2.23203844,11.0611823 2.40424795,11.2334764 2.61682304,11.2334764 C2.82939813,11.2334764 3.00160765,11.0611823 3.00160765,10.8486072 Z" id="Fill-12" fill="#FFFFFF"></path>
            <g id="Group-20" transform="translate(2.200220, 2.961834)">
                <mask id="mask-2" fill="white">
                    <use xlink:href="#path-1"></use>
                </mask>
                <g id="Clip-14"></g>
                <path d="M0.41660317,9.96488042 C0.204028081,9.96488042 0.0318185643,10.1371746 0.0318185643,10.349665 C0.0318185643,10.5622401 0.204028081,10.7345343 0.41660317,10.7345343 C0.629178259,10.7345343 0.801387776,10.5622401 0.801387776,10.349665 C0.801387776,10.1371746 0.629178259,9.96488042 0.41660317,9.96488042" id="Fill-13" fill="#FFFFFF" mask="url(#mask-2)"></path>
                <path d="M20.8342205,3.99923811 C20.1920101,3.01286262 19.2980439,2.32715563 17.9449933,2.32715563 C15.8595233,2.32715563 14.3455182,3.93052355 14.3468722,5.92316114 C14.3468722,7.91579873 15.8595233,9.51713568 17.9458395,9.51713568 C19.252347,9.51713568 20.1920101,8.85427713 20.8342205,7.84530707 L22.9185903,9.08394623 C21.934415,10.6411942 20.0543271,11.7627139 17.9458395,11.7627139 C14.0726909,11.7627139 11.8258433,8.85427713 11.8260972,5.92316114 C11.8260972,2.99187591 14.0726909,0.0821697498 17.9449933,0.0821697498 C20.3061677,0.0821697498 21.8418365,1.20436651 22.919098,2.76186831 L20.8342205,3.99923811" id="Fill-15" fill="#001731" mask="url(#mask-2)"></path>
                <path d="M23.5816181,0.0993483896 L25.8293966,0.0993483896 L25.8293966,1.61106869 L25.8767859,1.61149181 C26.2655478,0.694084746 27.0917304,0.0993483896 28.0528034,0.0993483896 C28.5800099,0.0993483896 29.0385019,0.236692884 29.359057,0.44215957 L28.5128186,2.8008799 C28.2817955,2.61851552 27.8470828,2.47981704 27.6179214,2.47981704 C26.7456189,2.47981704 25.9688566,3.14538355 25.9688566,4.15223802 L25.9688566,11.7386808 L23.5816181,11.7386808 L23.5816181,0.0993483896" id="Fill-16" fill="#001731" mask="url(#mask-2)"></path>
                <path d="M29.8867712,0.0993483896 L32.2698632,0.0993483896 L32.2698632,6.58661206 C32.2698632,8.21308228 33.4628055,9.38038355 34.9527775,9.38038355 C36.4414801,9.38038355 37.6350148,8.21308228 37.6340839,6.58661206 L37.6350148,0.0993483896 L40.0187838,0.0993483896 L40.0187838,6.79300961 C40.0187838,9.90750546 37.588387,11.7627139 34.9509158,11.7627139 C32.3157294,11.7627139 29.8867712,9.90750546 29.8867712,6.79250186 L29.8867712,0.0993483896" id="Fill-17" fill="#001731" mask="url(#mask-2)"></path>
                <path d="M40.904203,0.0984175273 L43.2881412,0.0984175273 L43.2881412,1.77684679 L43.3345997,1.77684679 C43.9989815,0.74705927 45.2138414,0.0821697498 46.7277619,0.0821697498 C49.0653263,0.0821697498 51.0341845,2.02927971 51.0341845,4.77769283 L51.0341845,11.7386808 L48.6515157,11.7386808 L48.6515157,5.30566097 C48.6515157,3.28839785 47.5965949,2.46314615 46.0162446,2.46314615 C44.480745,2.46399238 43.2881412,3.44994476 43.2881412,5.25793313 L43.2881412,11.7386808 L40.904203,11.7386808 L40.904203,0.0984175273" id="Fill-18" fill="#001731" mask="url(#mask-2)"></path>
                <path d="M60.6889186,3.9984765 C60.0475545,3.01286262 59.1536729,2.32639402 57.8012993,2.32715563 C55.7148138,2.32639402 54.201401,3.93052355 54.201401,5.92341501 C54.201401,7.91385238 55.7143061,9.51713568 57.8012993,9.51713568 C59.1065374,9.51713568 60.0467929,8.85427713 60.6884108,7.84615331 L62.7751501,9.08394623 C61.7894516,10.6406864 59.908856,11.7627139 57.8012993,11.7627139 C53.9292508,11.7627139 51.6813031,8.85427713 51.6813031,5.92239953 C51.6813031,2.99018343 53.9292508,0.0821697498 57.8012993,0.0821697498 C60.1614582,0.0821697498 61.697127,1.20436651 62.7751501,2.76186831 L60.6889186,3.9984765" id="Fill-19" fill="#001731" mask="url(#mask-2)"></path>
            </g>
            <path d="M68.0071037,0.0432427829 L68.0071037,4.73893511 L68.0517005,4.73893511 C68.7164208,3.70889371 69.9306037,3.04425806 71.4436779,3.04425806 C73.7805653,3.04425806 75.7516238,4.99136803 75.7516238,7.73952727 L75.7516238,14.7005152 L73.3676856,14.7005152 L73.3676856,8.26563369 C73.3676856,6.25074003 72.314288,5.42498059 70.7339378,5.42582683 C69.1971688,5.42498059 68.0071037,6.40983285 68.0071037,8.21976757 L68.0071037,14.7005152 L65.6224039,14.7005152 L65.6224039,0.0440890213 L68.0071037,0.0432427829 Z" id="Fill-21" fill="#001731"></path>
        </g>
    </g>
</svg>