<?xml version="1.0" encoding="UTF-8"?>
<svg width="68px" height="56px" viewBox="0 0 68 56" version="1.1" xmlns="http://www.w3.org/2000/svg" xmlns:xlink="http://www.w3.org/1999/xlink">
    <!-- Generator: Sketch 43.2 (39069) - http://www.bohemiancoding.com/sketch -->
    <title>EasyJet</title>
    <desc>Created with Sketch.</desc>
    <defs></defs>
    <g id="Page-1" stroke="none" stroke-width="1" fill="none" fill-rule="evenodd" fill-opacity="0.400000006">
        <g id="EasyJet" transform="translate(0.426284, 20.039975)" fill-rule="nonzero" fill="#001731">
            <path d="M8.12350144,8.20742191 L4.06175072,8.20742191 C3.87712569,8.20742191 3.79320522,8.29134238 3.79320522,8.44239923 C3.79320522,8.81164929 3.99461435,9.16411527 4.3974326,9.49979714 C4.80025085,9.83547902 5.23663729,10.00332 5.70659192,10.00332 C5.97513743,10.00332 6.29403521,9.95296768 6.62971709,9.85226312 C6.96539897,9.75155855 7.25072856,9.6172858 7.46892178,9.46622896 C7.67033091,9.3319562 7.82138775,9.26481983 7.93887641,9.26481983 C8.08993326,9.26481983 8.2409901,9.3487403 8.37526285,9.53336533 C8.5263197,9.71799036 8.59345607,9.9026154 8.59345607,10.1040245 C8.59345607,10.5236269 8.34169466,10.909661 7.82138775,11.2956952 C6.91504668,11.983843 5.85764877,12.3195249 4.6659781,12.3195249 C3.45752334,12.3195249 2.45047771,11.9670589 1.62805711,11.262127 C1.22523885,10.909661 0.90634107,10.5068428 0.654579662,10.0201041 C0.318897784,9.36552439 0.151056845,8.69416064 0.151056845,7.9724446 C0.151056845,7.01575125 0.436386441,6.14297836 1.02382973,5.37091005 C1.52735254,4.69954629 2.16514811,4.21280757 2.95400053,3.87712569 C3.54144381,3.62536428 4.17923938,3.50787562 4.85060314,3.50787562 C5.94156924,3.50787562 6.8646944,3.80998931 7.63676272,4.43100079 C8.02279688,4.73311448 8.32491057,5.10236454 8.55988789,5.53875098 C8.82843339,6.02548971 8.96270614,6.49544434 8.96270614,6.94861487 C8.96270614,7.31786494 8.87878567,7.61997863 8.72772882,7.87174004 C8.55988789,8.08993326 8.35847876,8.20742191 8.12350144,8.20742191 Z M4.29672804,6.5961489 L5.16950092,6.5961489 C5.53875098,6.5961489 5.72337602,6.42830796 5.72337602,6.09262608 C5.72337602,5.79051239 5.63945555,5.52196689 5.45483052,5.33734186 C5.27020548,5.13593273 5.05201226,5.05201226 4.74989857,5.05201226 C4.43100079,5.05201226 4.17923938,5.18628501 3.99461435,5.43804642 C3.82677341,5.67302374 3.74285294,5.90800105 3.74285294,6.15976246 C3.74285294,6.3276034 3.77642113,6.44509205 3.8603416,6.52901252 C3.94426206,6.56258071 4.07853482,6.5961489 4.29672804,6.5961489 Z" id="Shape"></path>
            <path d="M14.4343207,3.47430744 C15.4413664,3.47430744 16.2805711,3.72606884 16.9687189,4.22959166 C17.337969,4.49813716 17.5897304,4.80025085 17.7407872,5.15271683 C17.8918441,5.5051828 17.9589805,5.97513743 17.9589805,6.57936481 L17.9421964,7.85495594 C17.9421964,8.74451292 18.0093327,9.31517211 18.1268214,9.58371761 C18.1939578,9.71799036 18.2443101,9.78512674 18.3114464,9.81869493 C18.3617987,9.85226312 18.4960715,9.8858313 18.6806965,9.91939949 C18.8653215,9.95296768 18.949242,10.0704563 18.949242,10.2886496 C18.949242,10.5571951 18.8317533,10.8593087 18.6135601,11.1446383 C18.3953669,11.446752 18.1100373,11.6985134 17.7575713,11.8999226 C17.3211849,12.151684 16.8680144,12.2859567 16.3980597,12.2859567 C15.7938324,12.2859567 15.3238777,12.0845476 14.9714118,11.6649453 C14.8539231,11.5138884 14.7364344,11.446752 14.6357299,11.446752 C14.5182412,11.446752 14.3671844,11.5138884 14.1825593,11.6649453 C13.6119001,12.0845476 12.9573205,12.2859567 12.2356044,12.2859567 C11.4803202,12.2859567 10.8760928,12.1181158 10.4061382,11.799218 C10.1040245,11.5810248 9.86904721,11.3124793 9.68442218,10.9600133 C9.49979714,10.6243314 9.41587667,10.2550814 9.41587667,9.8858313 C9.41587667,9.28160392 9.65085399,8.76129701 10.1375927,8.30812648 C10.8928769,7.58641044 12.0174112,7.21716037 13.5111956,7.21716037 C13.8468775,7.21716037 14.0482866,7.18359219 14.1322071,7.11645581 C14.2161275,7.04931944 14.2664798,6.89826259 14.2664798,6.66328528 C14.2664798,6.0590579 14.1993434,5.60588736 14.0818548,5.33734186 C13.947582,5.06879636 13.7461729,4.9345236 13.4608433,4.9345236 C13.2930024,4.9345236 13.1419455,4.98487589 13.0076728,5.08558045 C12.8734,5.18628501 12.7055591,5.37091005 12.50415,5.65623964 C12.0006271,6.37795568 11.4635361,6.74720574 10.909661,6.74720574 C10.6243314,6.74720574 10.4061382,6.66328528 10.2215132,6.49544434 C10.0368881,6.3276034 9.95296768,6.10941018 9.95296768,5.84086467 C9.95296768,5.57231917 10.0704563,5.28698958 10.2886496,5.01844407 C10.5068428,4.74989857 10.8089565,4.49813716 11.1949906,4.29672804 C12.2188204,3.74285294 13.2930024,3.47430744 14.4343207,3.47430744 Z M13.8468775,8.45918332 C13.5951161,8.45918332 13.3769228,8.55988789 13.1922978,8.76129701 C13.0076728,8.96270614 12.9069682,9.21446755 12.9069682,9.49979714 C12.9069682,9.76834265 12.9741046,10.00332 13.1083773,10.1711609 C13.2426501,10.3390018 13.410491,10.4229223 13.6286842,10.4229223 C14.0818548,10.4229223 14.3168321,10.0368881 14.3168321,9.26481983 C14.3168321,8.94592204 14.2832639,8.74451292 14.2161275,8.62702426 C14.1657752,8.5263197 14.0315025,8.45918332 13.8468775,8.45918332 Z" id="Shape"></path>
            <path d="M22.9606404,3.47430744 C23.24597,3.47430744 23.7159247,3.54144381 24.3705043,3.65893247 C24.5047771,3.67571656 24.6054816,3.69250066 24.6894021,3.69250066 C24.7901067,3.69250066 24.9747317,3.64214837 25.2600613,3.54144381 C25.3943341,3.49109153 25.5118227,3.45752334 25.5957432,3.45752334 C25.8642887,3.45752334 26.1328342,3.62536428 26.4013797,3.96104616 C26.6195729,4.22959166 26.8041979,4.53170535 26.9384707,4.85060314 C27.0727434,5.16950092 27.1398798,5.45483052 27.1398798,5.68980783 C27.1398798,5.92478514 27.0559594,6.10941018 26.9049025,6.26046702 C26.7370616,6.41152387 26.5356524,6.49544434 26.3006751,6.49544434 C26.099266,6.49544434 25.914641,6.44509205 25.7635841,6.34438749 C25.6125273,6.24368293 25.3439818,6.02548971 25.0082999,5.70659192 C24.6390498,5.35412595 24.3369361,5.16950092 24.1019588,5.16950092 C23.9341179,5.16950092 23.7998451,5.23663729 23.6823565,5.35412595 C23.5648678,5.47161461 23.4977315,5.60588736 23.4977315,5.7737283 C23.4977315,6.0590579 23.766277,6.3108193 24.303368,6.56258071 C25.2768454,6.99896715 26.0153455,7.46892178 26.5356524,7.98922869 C26.9720389,8.42561513 27.1902321,8.96270614 27.1902321,9.58371761 C27.1902321,10.3893541 26.8377661,11.0439338 26.1328342,11.5810248 C25.5286068,12.0509794 24.7901067,12.2859567 23.9173338,12.2859567 C23.6991406,12.2859567 23.2795382,12.2523885 22.6920949,12.1684681 C22.1382198,12.1013317 21.8193221,12.0677635 21.7521857,12.0677635 C21.6850493,12.0677635 21.5843447,12.0845476 21.5004243,12.1013317 C21.3325833,12.1181158 21.2150947,12.1348999 21.1311742,12.1348999 C20.8626287,12.1348999 20.6444355,12.0677635 20.4933786,11.9334908 C20.2584013,11.7152975 20.0402081,11.3796157 19.838799,10.9264451 C19.6373899,10.4732746 19.5366853,10.0704563 19.5366853,9.75155855 C19.5366853,9.23125164 19.7380944,8.96270614 20.1576968,8.96270614 C20.3255377,8.96270614 20.4598105,9.01305842 20.5940832,9.11376298 C20.728356,9.21446755 21.0136856,9.49979714 21.450072,9.96975177 C21.6850493,10.2215132 21.8864584,10.3893541 22.0375153,10.4900587 C22.1885721,10.5907632 22.3564131,10.6243314 22.5410381,10.6243314 C22.7256631,10.6243314 22.87672,10.5739792 22.9942086,10.4732746 C23.1116973,10.37257 23.1620496,10.2382973 23.1620496,10.0704563 C23.1620496,9.81869493 22.9438564,9.58371761 22.4906858,9.36552439 C21.5675607,8.91235386 20.8961969,8.44239923 20.4933786,7.95566051 C20.0905604,7.46892178 19.8723672,6.91504668 19.8723672,6.27725112 C19.8723672,5.58910327 20.0737763,5.00165998 20.4933786,4.51492126 C21.097606,3.8435575 21.9200266,3.47430744 22.9606404,3.47430744 Z" id="Shape"></path>
            <path d="M36.1193701,7.72068319 L34.9780517,10.8425247 C34.6927221,11.614593 34.4073925,12.2523885 34.1220629,12.7391273 C33.8367333,13.225866 33.5178355,13.6454683 33.1485854,13.9979343 C32.4100853,14.7028663 31.5037442,15.0721163 30.4463463,15.0721163 C29.5903575,15.0721163 28.9022097,14.8539231 28.3819028,14.4007526 C27.9790845,14.0482866 27.7776754,13.6119001 27.7776754,13.0915932 C27.7776754,12.6552068 27.9119481,12.2859567 28.1972777,11.983843 C28.4826073,11.6817293 28.8350733,11.5306725 29.2378916,11.5306725 C29.6574939,11.5306725 29.9763917,11.6649453 30.2449372,11.9502749 C30.3624259,12.0845476 30.4463463,12.1852522 30.4799145,12.2859567 C30.5134827,12.3866613 30.5806191,12.6048545 30.6645395,12.9237523 C30.7316759,13.1755137 30.8659487,13.3097865 31.100926,13.3097865 C31.285551,13.3097865 31.4198238,13.225866 31.5540965,13.0748091 C31.6883693,12.9237523 31.7387216,12.7223432 31.7387216,12.50415 C31.7387216,12.2356044 31.5876647,11.7824339 31.285551,11.1446383 L29.2043234,6.73042165 C28.9861302,6.27725112 28.8182892,5.99192152 28.7175847,5.87443286 C28.600096,5.75694421 28.3651187,5.62267145 27.9958686,5.45483052 C27.87838,5.40447823 27.7776754,5.32055776 27.6937549,5.18628501 C27.6098345,5.05201226 27.5762663,4.91773951 27.5762663,4.80025085 C27.5762663,4.29672804 28.0797891,3.94426206 29.1036188,3.75963703 C29.7749826,3.64214837 30.5470509,3.575012 31.4198238,3.575012 C32.0240511,3.575012 32.5107899,3.64214837 32.8632558,3.75963703 C33.3332105,3.92747797 33.5681878,4.21280757 33.5681878,4.61562582 C33.5681878,4.76668267 33.5010514,4.9345236 33.3667787,5.11914864 C33.2325059,5.30377367 33.1821536,5.47161461 33.1821536,5.60588736 C33.1821536,5.74016011 33.2157218,5.89121696 33.2660741,6.0422738 C33.3332105,6.19333065 33.4506991,6.44509205 33.6521083,6.79755803 C33.8703015,7.20037628 34.0549265,7.40178541 34.2227674,7.40178541 C34.4073925,7.40178541 34.5920175,7.21716037 34.7766425,6.8646944 C34.9612676,6.51222843 35.0619721,6.17654655 35.0619721,5.84086467 C35.0619721,5.57231917 34.9948358,5.35412595 34.8437789,5.20306911 C34.6255857,4.9513077 34.508097,4.71633038 34.508097,4.53170535 C34.508097,4.24637575 34.7095062,4.01139844 35.0955403,3.82677341 C35.4815745,3.65893247 36.0018814,3.55822791 36.6564611,3.55822791 C37.8816999,3.55822791 38.4859273,3.8435575 38.4859273,4.43100079 C38.4859273,4.64919401 38.4187909,4.81703495 38.3013023,4.9513077 C38.1838136,5.08558045 37.9488363,5.20306911 37.6299385,5.32055776 C37.361393,5.42126233 37.1431998,5.58910327 36.9753588,5.84086467 C36.7403815,6.19333065 36.4550519,6.83112621 36.1193701,7.72068319 Z" id="Shape"></path>
            <path d="M45.9548491,0.117488657 C46.5926446,0.117488657 47.2472243,0.167840939 47.9185881,0.285329596 C48.4556791,0.369250066 48.8584973,0.503522817 49.0934746,0.671363756 C49.328452,0.839204695 49.4459406,1.05739792 49.4459406,1.34272751 C49.4459406,1.52735254 49.3955883,1.6616253 49.3116679,1.76232986 C49.2277474,1.86303442 49.0431224,1.98052308 48.7577928,2.13157992 C48.4221109,2.29942086 48.2374858,2.50082999 48.1871336,2.7358073 C48.1367813,2.97078462 48.086429,3.87712569 48.0528608,5.43804642 C48.0360767,6.96539897 48.0192926,7.87174004 48.0025085,8.17385373 C47.9857244,8.47596742 47.9521563,8.77808111 47.901804,9.0634107 C47.733963,9.9026154 47.3982812,10.5571951 46.8947583,11.0439338 C46.475156,11.4299679 45.9548491,11.7488657 45.3002694,11.9670589 C44.6456898,12.1852522 43.974326,12.3027408 43.25261,12.3027408 C42.6148144,12.3027408 41.9770188,12.2188204 41.3392233,12.0509794 C40.7014277,11.8831385 40.1475526,11.6481612 39.677598,11.3628316 C39.2915638,11.1278543 38.972666,10.7921724 38.7544728,10.3893541 C38.5194955,9.98653587 38.4020068,9.53336533 38.4020068,9.0801948 C38.4020068,8.5095356 38.5866319,8.02279688 38.9390978,7.65354682 C39.3083479,7.28429675 39.7615184,7.08288762 40.2986094,7.08288762 C40.8357004,7.08288762 41.288871,7.23394447 41.658121,7.55284225 C42.0273711,7.87174004 42.2119961,8.27455829 42.2119961,8.74451292 C42.2119961,8.86200158 42.178428,9.0634107 42.1112916,9.3487403 C42.0945075,9.39909258 42.0945075,9.46622896 42.0945075,9.53336533 C42.0945075,9.71799036 42.1616439,9.86904721 42.2959166,9.98653587 C42.4301894,10.1040245 42.5980303,10.1543768 42.8162235,10.1543768 C43.2022577,10.1543768 43.5043714,9.98653587 43.7393487,9.63406989 C43.974326,9.28160392 44.0918147,8.82843339 44.0918147,8.27455829 L44.0750306,7.48570588 L44.0582465,5.37091005 C44.0078942,4.09531891 43.974326,3.34003468 43.9407578,3.10505737 C43.9071896,2.87008006 43.8568373,2.68545502 43.7393487,2.55118227 C43.6554282,2.43369361 43.5715077,2.36655724 43.5043714,2.33298905 C43.437235,2.29942086 43.25261,2.24906858 42.9672804,2.16514811 C42.8330076,2.13157992 42.715519,2.06444355 42.6148144,1.9301708 C42.5141098,1.79589805 42.4637575,1.6616253 42.4637575,1.51056845 C42.4637575,1.20845476 42.5812462,0.956693352 42.8330076,0.772068319 C43.084769,0.587443286 43.4708032,0.436386441 44.0246783,0.318897784 C44.6624738,0.184625033 45.3002694,0.117488657 45.9548491,0.117488657 Z" id="Shape"></path>
            <path d="M57.8547716,8.20742191 L53.809805,8.20742191 C53.62518,8.20742191 53.5412595,8.29134238 53.5412595,8.44239923 C53.5412595,8.81164929 53.7426686,9.16411527 54.1454869,9.49979714 C54.5483052,9.83547902 54.9846916,10.00332 55.4546462,10.00332 C55.7231917,10.00332 56.0420895,9.95296768 56.3777714,9.85226312 C56.7134533,9.75155855 56.9987829,9.6172858 57.2169761,9.46622896 C57.4183852,9.3319562 57.5694421,9.26481983 57.6869307,9.26481983 C57.8379876,9.26481983 57.9890444,9.3487403 58.1233172,9.53336533 C58.274374,9.71799036 58.3415104,9.9026154 58.3415104,10.1040245 C58.3415104,10.5236269 58.089749,10.909661 57.5694421,11.2956952 C56.663101,11.983843 55.6057031,12.3195249 54.4140324,12.3195249 C53.2055776,12.3195249 52.198532,11.9670589 51.3761114,11.262127 C50.9732932,10.909661 50.6543954,10.5068428 50.402634,10.0201041 C50.0669521,9.36552439 49.8991111,8.69416064 49.8991111,7.9724446 C49.8991111,7.01575125 50.1844407,6.14297836 50.771884,5.37091005 C51.2754068,4.69954629 51.9132024,4.21280757 52.7020548,3.87712569 C53.2894981,3.62536428 53.9272937,3.50787562 54.5986574,3.50787562 C55.6896235,3.50787562 56.6127487,3.80998931 57.384817,4.43100079 C57.7708512,4.73311448 58.0729649,5.10236454 58.3079422,5.53875098 C58.5764877,6.02548971 58.7107604,6.49544434 58.7107604,6.94861487 C58.7107604,7.31786494 58.62684,7.61997863 58.4757831,7.87174004 C58.3079422,8.08993326 58.1065331,8.20742191 57.8547716,8.20742191 Z M54.0279982,6.5961489 L54.9007711,6.5961489 C55.2700212,6.5961489 55.4546462,6.42830796 55.4546462,6.09262608 C55.4546462,5.79051239 55.3707258,5.52196689 55.1861007,5.33734186 C55.0014757,5.13593273 54.7832825,5.05201226 54.4811688,5.05201226 C54.162271,5.05201226 53.9105096,5.18628501 53.7258846,5.43804642 C53.5580436,5.67302374 53.4741231,5.90800105 53.4741231,6.15976246 C53.4741231,6.3276034 53.5076913,6.44509205 53.5916118,6.52901252 C53.6755323,6.56258071 53.8265891,6.5961489 54.0279982,6.5961489 Z" id="Shape"></path>
            <path d="M64.2495114,5.74016011 L64.2495114,8.64380835 C64.2495114,8.99627433 64.3334319,9.26481983 64.5012728,9.48301305 C64.6691138,9.70120627 64.887307,9.81869493 65.1558525,9.81869493 C65.3740457,9.81869493 65.6761594,9.71799036 66.0454095,9.51658124 C66.1293299,9.46622896 66.2132504,9.43266077 66.2971709,9.43266077 C66.4314436,9.43266077 66.5657164,9.51658124 66.683205,9.68442218 C66.8006937,9.85226312 66.851046,10.0368881 66.851046,10.2215132 C66.851046,10.5739792 66.6496368,10.9264451 66.2636027,11.2453429 C65.4411821,11.9334908 64.4677046,12.2859567 63.2928181,12.2859567 C62.3696929,12.2859567 61.6311928,12.0341953 61.0773177,11.5138884 C60.5234426,10.9935815 60.238113,10.3054337 60.238113,9.46622896 L60.238113,5.4883987 C60.238113,5.35412595 60.2213289,5.27020548 60.1877607,5.23663729 C60.1541925,5.20306911 60.070272,5.18628501 59.9359993,5.18628501 L59.0800105,5.18628501 C58.9121696,5.18628501 58.811465,5.15271683 58.7611127,5.10236454 C58.7107604,5.05201226 58.6939763,4.91773951 58.6939763,4.71633038 L58.6939763,4.33029622 C58.6939763,4.16245529 58.7611127,4.02818253 58.8953855,3.94426206 L62.8396475,1.46021617 C62.9403521,1.40986389 63.0578408,1.3762957 63.2088976,1.3762957 L63.9138295,1.3762957 C64.0648864,1.3762957 64.1488069,1.40986389 64.1991591,1.47700026 C64.2495114,1.54413664 64.2662955,1.67840939 64.2662955,1.86303442 L64.2662955,3.0211369 C64.2662955,3.18897784 64.2998637,3.3064665 64.350216,3.35681878 C64.4005683,3.40717106 64.5180569,3.44073925 64.702682,3.44073925 L66.2971709,3.44073925 C66.5153641,3.44073925 66.6496368,3.47430744 66.7167732,3.55822791 C66.7839096,3.64214837 66.8174778,3.79320522 66.8174778,4.06175072 L66.8174778,4.56527354 C66.8174778,4.83381904 66.7839096,5.03522817 66.6999891,5.13593273 C66.6160687,5.23663729 66.4650118,5.28698958 66.2636027,5.28698958 L64.702682,5.28698958 C64.534841,5.28698958 64.4341365,5.32055776 64.3837842,5.37091005 C64.2830796,5.47161461 64.2495114,5.57231917 64.2495114,5.74016011 Z" id="Shape"></path>
        </g>
    </g>
</svg>