<?xml version="1.0" encoding="UTF-8"?>
<svg width="58px" height="56px" viewBox="0 0 58 56" version="1.1" xmlns="http://www.w3.org/2000/svg" xmlns:xlink="http://www.w3.org/1999/xlink">
    <!-- Generator: Sketch 43.2 (39069) - http://www.bohemiancoding.com/sketch -->
    <title>EBay</title>
    <desc>Created with Sketch.</desc>
    <defs></defs>
    <g id="Page-1" stroke="none" stroke-width="1" fill="none" fill-rule="evenodd" opacity="0.402400362">
        <g id="EBay" transform="translate(0.396525, 16.539975)" fill-rule="nonzero" fill="#001731">
            <path d="M7.42364897,5.02500674 C3.3847291,5.02500674 0.0190998262,6.73851936 0.0190998262,11.9081087 C0.0190998262,16.0035616 2.28224188,18.5826318 7.52793833,18.5826318 C13.7023687,18.5826318 14.098172,14.5153442 14.098172,14.5153442 L11.1063692,14.5153442 C11.1063692,14.5153442 10.4649016,16.7054222 7.34543186,16.7054222 C4.80470898,16.7054222 2.97732147,14.9890894 2.97732147,12.5833993 L14.4110403,12.5833993 L14.4110403,11.0737933 C14.4110403,8.69380948 12.9001849,5.02500674 7.42364897,5.02500674 L7.42364897,5.02500674 Z M7.31935943,6.954361 C9.73786455,6.954361 11.386647,8.43598839 11.386647,10.6566355 L3.0434931,10.6566355 C3.0434931,8.29914698 5.19557432,6.954361 7.31935943,6.954361 L7.31935943,6.954361 Z" id="e"></path>
            <path d="M14.4089181,0.0191143082 L14.4089181,15.9864843 C14.4089181,16.8928428 14.3442294,18.1654742 14.3442294,18.1654742 L17.1977789,18.1654742 C17.1977789,18.1654742 17.3002025,17.2514524 17.3002025,16.4161254 C17.3002025,16.4161254 18.7100403,18.6217402 22.5434937,18.6217402 C26.5802745,18.6217402 29.3223057,15.8191351 29.3223057,11.8038192 C29.3223057,8.0684286 26.8036614,5.06411521 22.5500107,5.06411521 C18.5667674,5.06411521 17.329022,7.21508458 17.329022,7.21508458 L17.329022,0.0191143082 L14.4089181,0.0191143082 Z M21.8134666,7.03909613 C24.5547548,7.03909613 26.2979132,9.07360652 26.2979132,11.8038192 C26.2979132,14.7314767 24.2846235,16.6467593 21.8330216,16.6467593 C18.9072495,16.6467593 17.329022,14.3623287 17.329022,11.8298916 C17.329022,9.47015365 18.7452118,7.03909613 21.8134666,7.03909613 Z" id="b"></path>
            <path d="M36.4139862,5.02500674 C30.3377367,5.02500674 29.9480426,8.35206351 29.9480426,8.88371545 L32.9724351,8.88371545 C32.9724351,8.88371545 33.1310334,6.94132478 36.2054079,6.94132478 C38.2031861,6.94132478 39.7512491,7.85573967 39.7512491,9.61374133 L39.7512491,10.2394779 L36.2054079,10.2394779 C31.4980519,10.2394779 29.0094372,11.6165655 29.0094372,14.4110548 C29.0094372,17.1612337 31.3088376,18.6575898 34.4161927,18.6575898 C38.6510352,18.6575898 40.01523,16.3175959 40.01523,16.3175959 C40.01523,17.2483174 40.0869864,18.1654742 40.0869864,18.1654742 L42.7756416,18.1654742 C42.7756416,18.1654742 42.6713515,17.0286297 42.6713515,16.3013006 L42.6713515,10.0146038 C42.6713515,5.89250283 39.3464465,5.02500674 36.4139862,5.02500674 L36.4139862,5.02500674 Z M39.7512491,12.1166874 L39.7512491,12.9510029 C39.7512491,14.0391776 39.0797686,16.7445307 35.1266647,16.7445307 C32.9619585,16.7445307 32.0338317,15.664182 32.0338317,14.4110548 C32.0338317,12.1313693 35.1593799,12.1166874 39.7512491,12.1166874 L39.7512491,12.1166874 Z" id="a"></path>
            <polygon id="y" points="41.0427612 5.54697937 44.4452042 5.54697937 49.3281826 15.3296997 54.1999892 5.54697937 57.2821146 5.54697937 48.408202 22.9633072 45.1752293 22.9633072 47.7359079 18.1082683"></polygon>
        </g>
    </g>
</svg>