<?xml version="1.0" encoding="UTF-8"?>
<svg width="56px" height="56px" viewBox="0 0 56 56" version="1.1" xmlns="http://www.w3.org/2000/svg" xmlns:xlink="http://www.w3.org/1999/xlink">
    <!-- Generator: Sketch 43.2 (39069) - http://www.bohemiancoding.com/sketch -->
    <title>GitHub</title>
    <desc>Created with Sketch.</desc>
    <defs>
        <polygon id="path-1" points="0 0 54.2719787 0 54.2719787 14.6784116 0 14.6784116"></polygon>
    </defs>
    <g id="Page-1" stroke="none" stroke-width="1" fill="none" fill-rule="evenodd" opacity="0.349999994">
        <g id="GitHub" transform="translate(0.701273, 19.039975)">
            <g id="g3012" transform="translate(27.590416, 8.460860) scale(-1, 1) rotate(-180.000000) translate(-27.590416, -8.460860) translate(0.090416, 0.960860)">
                <g id="g3014">
                    <g id="g3016">
                        <g id="g3018-Clipped">
                            <mask id="mask-2" fill="white">
                                <use xlink:href="#path-1"></use>
                            </mask>
                            <g id="path3022"></g>
                            <g id="g3018" mask="url(#mask-2)" fill-rule="nonzero" fill="#001731">
                                <path d="M10.4540015,8.3959384 L5.89290615,8.3959384 C5.77525282,8.3959384 5.67980783,8.3004482 5.67980783,8.18270445 L5.67980783,5.9527726 C5.67980783,5.83511927 5.77525282,5.73931261 5.89290615,5.73931261 L7.67221783,5.73931261 L7.67221783,2.96879704 C7.67221783,2.96879704 7.27262598,2.8325972 6.16817652,2.8325972 C4.86505003,2.8325972 3.04468965,3.30878239 3.04468965,7.31169683 C3.04468965,11.3155154 4.94018541,11.8422995 6.71980225,11.8422995 C8.26022455,11.8422995 8.92390914,11.5710526 9.34618401,11.440402 C9.47884634,11.399715 9.60158555,11.5318348 9.60158555,11.6496012 L10.1103882,13.8042055 C10.1103882,13.859246 10.0917626,13.9255885 10.028935,13.9706833 C9.85742786,14.0929704 8.81119476,14.6784116 6.16817652,14.6784116 C3.12327213,14.6784116 0,13.3829817 0,7.15559426 C0,0.927996587 3.57588145,0 6.58926469,0 C9.08424995,0 10.5978753,1.06622399 10.5978753,1.06622399 C10.6602621,1.10070399 10.6669642,1.18785787 10.6669642,1.22785549 L10.6669642,8.18270445 C10.6669642,8.3004482 10.5716548,8.3959384 10.4540015,8.3959384" id="path3024"></path>
                                <path d="M33.9595435,13.9322566 C33.9595435,14.0509271 33.8655113,14.1466547 33.747858,14.1466547 L31.1797152,14.1466547 C31.0624009,14.1466547 30.9670124,14.0509271 30.9670124,13.9322566 C30.9670124,13.9316915 30.9676905,8.96928648 30.9676905,8.96928648 L26.9646518,8.96928648 L26.9646518,13.9322566 C26.9646518,14.0509271 26.8701674,14.1466547 26.7527401,14.1466547 L24.1847104,14.1466547 C24.0678482,14.1466547 23.9725727,14.0509271 23.9725727,13.9322566 L23.9725727,0.493886308 C23.9725727,0.375348034 24.0678482,0.278840656 24.1847104,0.278840656 L26.7527401,0.278840656 C26.8701674,0.278840656 26.9646518,0.375348034 26.9646518,0.493886308 L26.9646518,6.24194437 L30.9676905,6.24194437 C30.9676905,6.24194437 30.9606833,0.494328215 30.9606833,0.493886308 C30.9606833,0.375348034 31.0559588,0.278840656 31.1733861,0.278840656 L33.7476319,0.278840656 C33.8652853,0.278840656 33.9593175,0.375348034 33.9595435,0.493886308 L33.9595435,13.9322566" id="path3026"></path>
                                <path d="M15.300132,12.1688129 C15.300132,13.0935387 14.5587239,13.8408238 13.6440568,13.8408238 C12.7302939,13.8408238 11.9883207,13.0935387 11.9883207,12.1688129 C11.9883207,11.2450478 12.7302939,10.4957622 13.6440568,10.4957622 C14.5587239,10.4957622 15.300132,11.2450478 15.300132,12.1688129" id="path3028"></path>
                                <path d="M15.1164753,3.32865122 L15.1164753,9.53182989 C15.1164753,9.64961885 15.0214259,9.74590019 14.9039986,9.74590019 L12.3439932,9.74590019 C12.2265659,9.74590019 12.1214577,9.62476585 12.1214577,9.50702211 L12.1214577,0.619708692 C12.1214577,0.35848439 12.2842058,0.280871617 12.4948742,0.280871617 L14.8013768,0.280871617 C15.0544276,0.280871617 15.1164753,0.405059738 15.1164753,0.623858769 L15.1164753,3.32865122" id="path3030"></path>
                                <path d="M43.7195712,9.72568099 L41.1710938,9.72568099 C41.0542316,9.72568099 40.9590691,9.62935445 40.9590691,9.51081956 L40.9590691,2.92155487 C40.9590691,2.92155487 40.3116933,2.44789002 39.3927315,2.44789002 C38.4738827,2.44789002 38.2299865,2.86481907 38.2299865,3.76456755 L38.2299865,9.51081956 C38.2299865,9.62935445 38.1350501,9.72568099 38.0180749,9.72568099 L35.4316229,9.72568099 C35.3148738,9.72568099 35.2192592,9.62935445 35.2192592,9.51081956 L35.2192592,3.32944236 C35.2192592,0.656970101 36.7087436,0.00317867431 38.7577877,0.00317867431 C40.4387272,0.00317867431 41.7940574,0.931836991 41.7940574,0.931836991 C41.7940574,0.931836991 41.8585916,0.44245338 41.8877506,0.384398638 C41.9170227,0.326520206 41.9930848,0.268068765 42.07525,0.268068765 L43.7207014,0.275308796 C43.8374505,0.275308796 43.9330651,0.371816174 43.9330651,0.489824386 L43.9322739,9.51081956 C43.9322739,9.62935445 43.8369985,9.72568099 43.7195712,9.72568099" id="path3032"></path>
                                <path d="M49.6796561,2.45601612 C48.7957304,2.48293738 48.1961618,2.88403239 48.1961618,2.88403239 L48.1961618,7.13970371 C48.1961618,7.13970371 48.787706,7.50224776 49.5134044,7.56705316 C50.431123,7.64926357 51.3153878,7.37204926 51.3153878,5.18282704 C51.3153878,2.87431271 50.9163158,2.41875358 49.6796561,2.45601612 Z M50.6848518,10.0275675 C49.2374107,10.0275675 48.2528976,9.38177386 48.2528976,9.38177386 L48.2528976,13.9322566 C48.2528976,14.0509271 48.1580742,14.1466547 48.040986,14.1466547 L45.4656099,14.1466547 C45.3485217,14.1466547 45.2533592,14.0509271 45.2533592,13.9322566 L45.2533592,0.493886308 C45.2533592,0.375348034 45.3485217,0.278840656 45.465949,0.278840656 L47.2527877,0.278840656 C47.3332577,0.278840656 47.3941752,0.32029509 47.439157,0.392963258 C47.4835736,0.46519065 47.5476557,1.01253972 47.5476557,1.01253972 C47.5476557,1.01253972 48.6007717,0.0145688956 50.5943232,0.0145688956 C52.9347316,0.0145688956 54.2769516,1.20175928 54.2769516,5.34397029 C54.2769516,9.48627172 52.1333102,10.0275675 50.6848518,10.0275675 L50.6848518,10.0275675 Z" id="path3034"></path>
                                <path d="M22.4974418,9.74709819 L20.5710239,9.74709819 C20.5710239,9.74709819 20.5680854,12.2915521 20.5680854,12.2921172 C20.5680854,12.3884098 20.5184698,12.4365562 20.4071456,12.4365562 L17.7819279,12.4365562 C17.6798713,12.4365562 17.6250568,12.3916874 17.6250568,12.2935865 L17.6250568,9.66365588 C17.6250568,9.66365588 16.3095094,9.34604839 16.2205631,9.32040426 C16.1319558,9.29470362 16.0667435,9.2130357 16.0667435,9.11555636 L16.0667435,7.46290566 C16.0667435,7.34406563 16.1616799,7.24821376 16.2791072,7.24821376 L17.6250568,7.24821376 L17.6250568,3.2723562 C17.6250568,0.319280175 19.6964787,0.0291377913 21.0943043,0.0291377913 C21.7329777,0.0291377913 22.4969897,0.234295139 22.6231195,0.280871617 C22.6994077,0.308904982 22.7437113,0.387886421 22.7437113,0.473533751 L22.7458587,2.29160661 C22.7458587,2.4101415 22.6457234,2.50607247 22.5329299,2.50607247 C22.4207015,2.50607247 22.1335189,2.46042389 21.8378598,2.46042389 C20.8916603,2.46042389 20.5710239,2.90040892 20.5710239,3.46988043 C20.5710239,4.03894507 20.5709109,7.24821376 20.5709109,7.24821376 L22.4974418,7.24821376 C22.6148691,7.24821376 22.7099185,7.34406563 22.7099185,7.46290566 L22.7099185,9.53297139 C22.7099185,9.65160799 22.6148691,9.74709819 22.4974418,9.74709819" id="path3036"></path>
                            </g>
                        </g>
                    </g>
                </g>
            </g>
        </g>
    </g>
</svg>