<svg width="38" height="55" viewBox="0 0 38 55" version="1.1" xmlns="http://www.w3.org/2000/svg" xmlns:xlink="http://www.w3.org/1999/xlink">
<title>JS Bin logo white</title>
<desc>Created using Figma</desc>
<g id="Canvas" transform="translate(-458 -340)">
<g id="JS Bin logo white">
<g id="Hat">
<g id="Hat">
<use xlink:href="#path0_fill" transform="translate(458 340)" fill="#FFFFFF"/>
</g>
<g id="Arrows">
<use xlink:href="#path1_fill" transform="translate(465.012 342.559)" fill="#FFFFFF"/>
</g>
</g>
<g id="Face">
<g id="Skin">
<use xlink:href="#path2_fill" transform="translate(461.671 355.383)" fill="#FFFFFF" fill-opacity="0.17"/>
</g>
<g id="Eyes">
<g id="Eyeballs">
<g id="Vector">
<use xlink:href="#path3_fill" transform="translate(482.251 360.606)" fill="#FFFFFF" fill-opacity="0.79"/>
</g>
<g id="Vector">
<use xlink:href="#path4_fill" transform="translate(467.04 360.607)" fill="#FFFFFF" fill-opacity="0.79"/>
</g>
</g>
<g id="Pupils">
<g id="Vector">
<use xlink:href="#path5_fill" transform="translate(483.809 361.827)" fill="#FFFFFF"/>
</g>
<g id="Vector">
<use xlink:href="#path6_fill" transform="translate(468.575 361.827)" fill="#FFFFFF"/>
</g>
</g>
</g>
</g>
<g id="JS sticker">
<g id="Paper">
<use xlink:href="#path7_fill" transform="translate(482.299 375.05)" fill="#FFFFFF" fill-opacity="0.46"/>
</g>
<g id="JS">
<use xlink:href="#path8_fill" transform="translate(486.408 379.904)" fill="#FFFFFF"/>
</g>
</g>
<g id="Body">
<g id="Union">
<use xlink:href="#path9_fill" transform="translate(458 347.294)" fill="url(#paint9_linear)"/>
</g>
<g id="Rectangle">
<use xlink:href="#path10_fill" transform="translate(459.303 363.977)" fill="url(#paint10_linear)"/>
</g>
<g id="Front">
<use xlink:href="#path11_fill" transform="translate(459.303 364.069)" fill="#FFFFFF"/>
</g>
<g id="Neck">
<use xlink:href="#path12_fill" transform="translate(459.303 360.162)" fill="#FFFFFF"/>
</g>
</g>
</g>
</g>
<defs>
<linearGradient id="paint9_linear" x1="0" y1="0" x2="1" y2="0" gradientUnits="userSpaceOnUse" gradientTransform="matrix(37.9525 -5.36093e-08 1.24114e-06 14.8511 -6.20568e-07 -2.41929)">
<stop offset="0" stop-color="#FFFFFF" stop-opacity="0"/>
<stop offset="0.320442" stop-color="#FFFFFF"/>
</linearGradient>
<linearGradient id="paint10_linear" x1="0" y1="0" x2="1" y2="0" gradientUnits="userSpaceOnUse" gradientTransform="matrix(35.3471 -1.55397e-07 1.15593e-06 43.0489 -5.77967e-07 -7.0128)">
<stop offset="0" stop-color="#FFFFFF" stop-opacity="0"/>
<stop offset="0.320442" stop-color="#FFFFFF"/>
</linearGradient>
<path id="path0_fill" fill-rule="evenodd" d="M 37.9525 10.8981C 37.9525 10.9064 37.9525 10.9147 37.9524 10.923L 37.9524 10.9244L 37.9521 10.9471L 37.9521 10.9507L 37.9517 10.9716L 37.9517 10.9731L 37.9515 10.9761L 37.9511 10.9961L 37.9509 10.9979L 37.9509 10.9982L 37.9508 11.0011L 37.9502 11.0205L 37.95 11.0229L 37.95 11.0232L 37.9499 11.0259L 37.9491 11.045L 37.949 11.0479L 37.9488 11.0483L 37.9488 11.0508L 37.9478 11.0694L 37.9476 11.0729L 37.9476 11.0733L 37.9475 11.0754L 37.9463 11.0939L 37.9461 11.0978L 37.946 11.0983L 37.946 11.1001L 37.9447 11.1183L 37.9444 11.1228L 37.9444 11.1233L 37.9442 11.1248L 37.9429 11.1426L 37.9424 11.1478L 37.9424 11.1482L 37.9423 11.1493L 37.9408 11.167L 37.9403 11.1727L 37.9403 11.173L 37.9402 11.1738L 37.9386 11.1914L 37.938 11.1979L 37.938 11.1983C 37.5436 15.2487 29.205 18.4842 18.9763 18.4842C 9.71164 18.4842 1.9976 15.8299 0.332785 12.3197L 0.332636 12.3191L 0.332488 12.3187L 0.328618 12.3107L 0.322218 12.297L 0.321474 12.2953L 0.321028 12.2942L 0.317753 12.2874L 0.3118 12.2744L 0.310461 12.2714L 0.309716 12.2699L 0.307038 12.2641L 0.301531 12.252L 0.299596 12.2475L 0.298703 12.2455L 0.296471 12.2408L 0.291559 12.2296L 0.28888 12.2235L 0.287838 12.2211L 0.286201 12.2175L 0.281885 12.2075L 0.278462 12.1996L 0.277271 12.1968L 0.276081 12.194L 0.272509 12.1857L 0.268193 12.1757L 0.266853 12.1725L 0.266109 12.1706L 0.263281 12.1641L 0.258072 12.1518L 0.256733 12.1482L 0.256286 12.1471L 0.2545 12.143L 0.248249 12.1277L 0.246761 12.124L 0.246612 12.1237L 0.246166 12.1226C 0.0842381 11.724 0 11.3149 0 10.8979L 0 7.58643L 0 7.58673C 0 7.59641 0 7.6061 0.000148831 7.61579L 0.000148831 7.61564C 0.00119064 7.72158 0.00759036 7.82692 0.019348 7.9318L 0.019348 7.93225L 0.0220269 7.95511L 0.0221758 7.95662L 0.0248547 7.97857L 0.0251524 7.98114L 0.0279802 8.00233L 0.0284266 8.00551L 0.0314033 8.02624L 0.0318497 8.02987L 0.0348264 8.05015L 0.0354217 8.05424L 0.0385471 8.07407L 0.0392913 8.07861L 0.0424167 8.09813L 0.0433097 8.10297L 0.046584 8.12219L 0.047477 8.12719L 0.0509001 8.14626L 0.0517931 8.1514L 0.055365 8.17032L 0.0564068 8.17562L 0.0599787 8.19454L 0.0611694 8.19984L 0.0648901 8.2186L 0.0660808 8.2239L 0.0699504 8.24267L 0.071141 8.24812L 0.0753083 8.26688L 0.0764989 8.27218L 0.0806662 8.29095L 0.0818568 8.29609L 0.0863217 8.31501L 0.0875124 8.32016L 0.0921261 8.33908L 0.0934656 8.34407L 0.0982282 8.36314L 0.0994188 8.36798L 0.104479 8.3872L 0.10567 8.39174L 0.110879 8.41127L 0.111921 8.41551L 0.117427 8.43518L 0.118469 8.43912L 0.124125 8.45924L 0.125167 8.46257L 0.13112 8.48316L 0.132013 8.48588L 0.138264 8.50722L 0.138859 8.50904L 0.145705 8.53113L 0.145854 8.53204C 0.182615 8.65009 0.226074 8.76724 0.27623 8.88362L 0.276527 8.88423L 0.286052 8.90602L 0.286797 8.90784L 0.296024 8.92872L 0.297215 8.9313L 0.306293 8.95158L 0.307782 8.95491L 0.31686 8.97458L 0.318646 8.97837L 0.327725 8.99774L 0.32966 9.00182L 0.33859 9.02074L 0.340673 9.02513L 0.349752 9.0439L 0.352133 9.04859L 0.363593 9.0719L 0.372672 9.09021L 0.375202 9.09521L 0.384429 9.11337L 0.387108 9.11851L 0.396485 9.13667L 0.411219 9.16498L 0.420893 9.18299L 0.423721 9.18813L 0.433395 9.20614L 0.436222 9.21129L 0.446045 9.2293L 0.448873 9.23429L 0.458845 9.2523L 0.461673 9.2573L 0.471942 9.27546L 0.47477 9.2803L 0.485188 9.29862L 0.487867 9.30331L 0.498583 9.32162L 0.501113 9.32601L 0.512126 9.34478L 0.514656 9.34886L 0.525967 9.36778L 0.5282 9.37141L 0.539957 9.39079L 0.553948 9.41379L 0.555585 9.41636L 0.568384 9.43664L 0.569426 9.43846L 0.582821 9.45965L 0.583267 9.46041C 0.65039 9.56605 0.723019 9.67078 0.801155 9.7746L 0.801453 9.77491L 0.817229 9.79594L 0.81842 9.79746L 0.833749 9.81743L 0.835684 9.81986L 0.850567 9.83923L 0.853097 9.84241L 0.867682 9.86117L 0.87051 9.86481L 0.885096 9.88312L 0.888221 9.88721L 0.902658 9.90522L 0.906081 9.9096L 0.920368 9.92716L 0.924238 9.93185L 0.938377 9.94926L 0.942395 9.9541L 0.956534 9.97135L 0.960702 9.97635L 0.974989 9.99345L 0.979305 9.9986L 0.993444 10.0155L 0.997909 10.0208L 1.0122 10.0376L 1.01681 10.0429L 1.03125 10.0597L 1.03571 10.065L 1.0503 10.0817L 1.05491 10.087L 1.0695 10.1038L 1.07426 10.1091L 1.08899 10.1257L 1.09361 10.131L 1.10864 10.1478L 1.11325 10.1528L 1.12843 10.1698L 1.13305 10.1748L 1.14838 10.1917L 1.15284 10.1964L 1.16862 10.2137L 1.17279 10.2182L 1.18886 10.2355L 1.19288 10.2398L 1.2094 10.2574L 1.21312 10.2613L 1.22994 10.2792L 1.23336 10.2827L 1.25077 10.301L 1.2536 10.3039L 1.27176 10.3228L 1.27384 10.3249L 1.29289 10.3446L 1.29408 10.3456C 1.39171 10.4457 1.49456 10.5445 1.60246 10.6424L 1.60305 10.643L 1.6486 10.684L 1.65008 10.6853L 1.69563 10.7257L 1.69771 10.7275L 1.7434 10.7673L 1.74593 10.7694L 1.79177 10.8088L 1.79475 10.8113L 1.84089 10.8502L 1.84416 10.853L 1.87541 10.8788L 1.89774 10.8974L 1.92602 10.9205L 1.94894 10.9392L 1.97736 10.9621L 2.00058 10.9807L 2.02931 11.0034L 2.05297 11.0222L 2.08184 11.0447L 2.10595 11.0635L 2.13497 11.0859L 2.15953 11.1046L 2.18885 11.1269L 2.21371 11.1457L 2.24332 11.1678L 2.26848 11.1865L 2.29839 11.2085L 2.32399 11.2272L 2.35405 11.249L 2.37995 11.2678L 2.41031 11.2894L 2.43651 11.3082L 2.46716 11.3298L 2.49366 11.3485L 2.52461 11.37L 2.55155 11.3884L 2.58266 11.4099L 2.60989 11.4284L 2.64145 11.4497L 2.66883 11.4682L 2.70068 11.4895L 2.72836 11.5078L 2.76051 11.529L 2.78849 11.5472L 2.82094 11.5684L 2.84921 11.5865L 2.88196 11.6076L 2.91038 11.6256L 2.94357 11.6466L 2.9723 11.6646L 3.00578 11.6855L 3.03466 11.7034L 3.06859 11.7243L 3.13184 11.7628L 3.16101 11.7804L 3.19569 11.8013L 3.22501 11.8187L 3.26028 11.8396L 3.28945 11.8567L 3.32532 11.8776L 3.35434 11.8945L 3.39081 11.9156L 3.41953 11.9319L 3.45704 11.9532L 3.48487 11.969L 3.52371 11.9909L 3.54916 12.005L 3.59098 12.0283L 3.60497 12.0359L 3.65826 12.0652L 3.72583 12.1019L 3.76824 12.1246L 3.79488 12.1388L 3.83417 12.1597L 3.86439 12.1756L 3.90264 12.1956L 3.93434 12.2122L 3.97229 12.2317L 4.00503 12.2485L 4.04269 12.2677L 4.07617 12.2847L 4.11368 12.3036L 4.14776 12.3209L 4.18541 12.3395L 4.21994 12.3567L 4.2576 12.3752L 4.29272 12.3925L 4.33052 12.4106L 4.36609 12.4279L 4.4039 12.446L 4.43977 12.4633L 4.47772 12.4813L 4.51418 12.4984L 4.55228 12.5163L 4.58904 12.5334L 4.62729 12.5511L 4.66435 12.5682L 4.70275 12.5857L 4.74025 12.6028L 4.7788 12.6202L 4.81675 12.6372L 4.85545 12.6544L 4.8937 12.6714L 4.93254 12.6885L 4.97109 12.7054L 5.04908 12.7393L 5.08822 12.7561L 5.12766 12.7731L 5.1668 12.7897L 5.20669 12.8065L 5.24598 12.823L 5.28617 12.8398L 5.32561 12.8562L 5.36624 12.873L 5.40568 12.8892L 5.44675 12.906L 5.48634 12.922L 5.52772 12.9387L 5.56746 12.9546L 5.60943 12.9712L 5.64901 12.9869L 5.69143 13.0036L 5.73117 13.0192L 5.77418 13.0358C 9.18969 14.3586 13.8451 15.1727 18.9762 15.1727C 24.093 15.1727 28.737 14.3631 32.1499 13.0469L 32.2334 13.0145L 32.2398 13.0119L 32.3154 12.9823L 32.3391 12.9729L 32.3971 12.9497L 32.4265 12.9379L 32.4783 12.917L 32.5104 12.904L 32.5589 12.8842L 32.5926 12.8704L 32.6391 12.8512L 32.6738 12.8368L 32.7188 12.8179L 32.754 12.8031L 32.798 12.7844L 32.8337 12.7693L 32.8767 12.7508L 32.9125 12.7354L 32.9548 12.7171L 32.9908 12.7014L 33.0325 12.683L 33.0685 12.6671L 33.1096 12.6488L 33.1458 12.6326L 33.1862 12.6145L 33.2223 12.5981L 33.2623 12.58L 33.2983 12.5635L 33.3379 12.5452L 33.3739 12.5285L 33.4131 12.5102L 33.4488 12.4934L 33.4876 12.4751L 33.5232 12.4581L 33.5616 12.4398L 33.5972 12.4227L 33.6351 12.4043L 33.6704 12.3872L 33.7082 12.3687L 33.7433 12.3513L 33.7805 12.3328L 33.8155 12.3154L 33.8526 12.2968L 33.8872 12.2792L 33.9239 12.2606L 33.9584 12.2429L 33.9947 12.2242L 34.0291 12.2064L 34.0651 12.1877L 34.099 12.1698L 34.1349 12.1509L 34.1685 12.1329L 34.2041 12.114L 34.2376 12.096L 34.2727 12.0769L 34.306 12.0587L 34.3409 12.0397L 34.3739 12.0214L 34.4084 12.0021L 34.4412 11.9838L 34.4754 11.9646L 34.5079 11.9461L 34.5419 11.9268L 34.5741 11.9083L 34.6079 11.8888L 34.6397 11.8703L 34.6732 11.8506L 34.7048 11.8322L 34.7381 11.8123L 34.7692 11.7937L 34.8024 11.7739L 34.8332 11.7553L 34.8661 11.7352L 34.8965 11.7165L 34.9294 11.6963L 34.9593 11.6778L 34.992 11.6572L 35.0215 11.6387L 35.0544 11.6179L 35.0831 11.5995L 35.1164 11.5781L 35.1441 11.5602L 35.1788 11.5375L 35.2045 11.5207L 35.2458 11.4935L 35.2642 11.4812L 35.2743 11.4744L 35.3233 11.4415L 35.3477 11.4249L 35.3819 11.4016L 35.4084 11.3834L 35.44 11.3615L 35.4671 11.3426L 35.4974 11.3212L 35.5247 11.3018L 35.5543 11.2808L 35.5815 11.2611L 35.6105 11.2402L 35.6378 11.2204L 35.6662 11.1995L 35.6933 11.1796L 35.7213 11.1587L 35.7481 11.1385L 35.7758 11.1177L 35.8024 11.0974L 35.8296 11.0765L 35.856 11.0561L 35.8829 11.0352L 35.909 11.0146L 35.9354 10.9937L 35.9613 10.9731L 35.9875 10.9521L 36.0131 10.9313L 36.0389 10.9103L 36.0642 10.8896L 36.0896 10.8685L 36.1291 10.8355L 36.1335 10.8316L 36.1783 10.7936L 36.1824 10.7901L 36.2272 10.7515L 36.2304 10.7487L 36.2754 10.7093L 36.2778 10.7072L 36.3229 10.6669L 36.3243 10.6656L 36.3697 10.6244L 36.37 10.6241C 36.3998 10.597 36.4291 10.5698 36.458 10.5425L 36.4613 10.5394L 36.4778 10.5238L 36.4839 10.5179L 36.4991 10.5035L 36.5065 10.4964L 36.5206 10.4826L 36.5288 10.4747L 36.5425 10.4614L 36.551 10.4531L 36.5643 10.4401L 36.573 10.4314L 36.586 10.4186L 36.5949 10.4098L 36.6076 10.3969L 36.6166 10.388L 36.6291 10.3755L 36.6381 10.3662L 36.6504 10.3537L 36.6595 10.3444L 36.6717 10.332L 36.6808 10.3226L 36.6927 10.3102L 36.7018 10.3008L 36.7137 10.2884L 36.7226 10.2789L 36.7344 10.2665L 36.7434 10.2569L 36.7549 10.2447L 36.764 10.235L 36.7754 10.2227L 36.7844 10.2131L 36.7957 10.2006L 36.8045 10.1911L 36.8158 10.1787L 36.8246 10.169L 36.8357 10.1566L 36.8445 10.1469L 36.8555 10.1345L 36.8642 10.1248L 36.8752 10.1124L 36.8838 10.1027L 36.8947 10.0903L 36.9031 10.0806L 36.9139 10.0681L 36.9223 10.0584L 36.9331 10.046L 36.9414 10.0361L 36.952 10.0237L 36.9603 10.0139L 36.9709 10.0013L 36.9789 9.99163L 36.9895 9.97907L 36.9975 9.96939L 37.0079 9.95667L 37.0158 9.94714L 37.0262 9.93427L 37.034 9.92474L 37.0444 9.91187L 37.052 9.90234L 37.0622 9.88947L 37.0698 9.88009L 37.0801 9.86708L 37.0874 9.85769L 37.0977 9.84452L 37.1048 9.83529L 37.1152 9.82197L 37.1221 9.81289L 37.1325 9.79942L 37.1392 9.79065L 37.1496 9.77687L 37.156 9.76825L 37.1664 9.75417L 37.1725 9.746L 37.1832 9.73162L 37.1888 9.72405L 37.1999 9.70892L 37.2045 9.70241L 37.2163 9.68622L 37.2194 9.68168C 37.2446 9.64671 37.2691 9.6116 37.2929 9.57634L 37.2952 9.57301L 37.3065 9.55621L 37.3106 9.55015L 37.3209 9.53457L 37.3258 9.5273L 37.3355 9.51247L 37.3409 9.5043L 37.3502 9.48992L 37.3557 9.48129L 37.3647 9.46737L 37.3705 9.45829L 37.3791 9.44451L 37.3849 9.43528L 37.3934 9.42166L 37.3993 9.41228L 37.4075 9.39881L 37.4135 9.38927L 37.4215 9.3758L 37.4275 9.36612L 37.4354 9.3528L 37.4413 9.34296L 37.4491 9.32979L 37.4549 9.3198L 37.4626 9.30664L 37.4684 9.29665L 37.4758 9.28348L 37.4816 9.27334L 37.4889 9.26033L 37.4947 9.25019L 37.502 9.23717L 37.5077 9.22688L 37.5148 9.21386L 37.5203 9.20357L 37.5275 9.19055L 37.533 9.18026L 37.5398 9.16725L 37.5453 9.15695L 37.5522 9.14394L 37.5576 9.13365L 37.5642 9.12063L 37.5696 9.11019L 37.5762 9.09717L 37.5814 9.08673L 37.5879 9.07371L 37.5931 9.06327L 37.5995 9.05025L 37.6046 9.03981L 37.6108 9.0268L 37.6159 9.01635L 37.622 9.00334L 37.6269 8.99289L 37.6332 8.97973L 37.6379 8.96928L 37.6439 8.95627L 37.6486 8.94583L 37.6546 8.93266L 37.6592 8.92222L 37.665 8.90905L 37.6696 8.89861L 37.6754 8.88544L 37.6797 8.875L 37.6855 8.86168L 37.6899 8.85139L 37.6954 8.83807L 37.6997 8.82778L 37.7052 8.8143L 37.7092 8.80416L 37.7147 8.79054L 37.7187 8.78055L 37.7241 8.76678L 37.728 8.75694L 37.7333 8.74302L 37.7369 8.73349L 37.7424 8.71926L 37.7458 8.71003L 37.7512 8.69535L 37.7543 8.68687L 37.7598 8.67143L 37.7623 8.66447L 37.7683 8.64752L 37.769 8.64555C 37.7765 8.62421 37.7836 8.60287 37.7906 8.58153L 37.7924 8.57639L 37.7973 8.5608L 37.8 8.55232L 37.8046 8.53794L 37.8076 8.52841L 37.8119 8.51449L 37.815 8.50435L 37.819 8.49088L 37.8222 8.48028L 37.8259 8.46696L 37.8292 8.45622L 37.8327 8.44305L 37.8359 8.432L 37.8394 8.41914L 37.8424 8.40794L 37.8458 8.39507L 37.849 8.38372L 37.8522 8.37101L 37.8551 8.35951L 37.8583 8.34679L 37.8612 8.33529L 37.8641 8.32273L 37.867 8.31108L 37.8699 8.29851L 37.8726 8.28686L 37.8755 8.2743L 37.8781 8.26249L 37.8808 8.25008L 37.8833 8.23828L 37.886 8.22587L 37.8884 8.21391L 37.8909 8.2015L 37.8933 8.18954L 37.8957 8.17729L 37.8981 8.16518L 37.9003 8.15292L 37.9025 8.14081L 37.9048 8.12855L 37.9069 8.11629L 37.9089 8.10418L 37.911 8.09192L 37.913 8.07967L 37.9149 8.06741L 37.9167 8.0553L 37.9186 8.04289L 37.9204 8.03078L 37.9222 8.01837L 37.9238 8.00641L 37.9255 7.99385L 37.9271 7.9819L 37.9287 7.96918L 37.9301 7.95738L 37.9316 7.94466L 37.9329 7.93286L 37.9344 7.92L 37.9356 7.90834L 37.9369 7.89533L 37.9381 7.88367L 37.9393 7.8705L 37.9403 7.85915L 37.9415 7.84583L 37.9424 7.83448L 37.9435 7.82101L 37.9444 7.80981L 37.9453 7.79619L 37.946 7.78514L 37.9469 7.77122L 37.9475 7.76048L 37.9482 7.74625L 37.9488 7.73581L 37.9494 7.72112L 37.9499 7.71114L 37.9505 7.69585L 37.9508 7.68631L 37.9512 7.67027L 37.9515 7.66165L 37.9518 7.64424L 37.952 7.63682L 37.9523 7.61715L 37.9523 7.612L 37.9524 7.58718L 37.9524 7.58658C 37.9524 7.48563 37.946 7.38544 37.936 7.28555C 37.5407 11.3356 29.2041 14.5708 18.9762 14.5708L 18.9763 14.5708L 18.9762 14.5708C 8.74841 14.5708 0.411814 11.3356 0.0163714 7.28555C 0.00669738 7.37908 0.00133948 7.47307 0.000297661 7.5672C 0.0261942 3.38609 8.51222 0 18.9763 0C 29.4564 0 37.9524 3.39623 37.9525 7.58643L 37.9525 10.8981ZM 18.9844 10.7043C 15.6783 10.7043 12.7499 10.1698 10.7313 9.33115L 7.01171 10.7043L 7.7831 7.11997L 16.6588 7.11997L 16.6989 7.1289L 13.2723 8.39356C 14.6896 8.96005 16.7108 9.31844 18.9738 9.31844C 20.8335 9.31844 22.5182 9.07871 23.8366 8.68233L 27.0835 9.38942C 25.1117 10.184 22.2652 10.7043 18.9845 10.7043L 18.9844 10.7043ZM 28.2595 8.23661C 29.5037 8.22466 30.415 7.83736 30.3061 7.3697C 30.1973 6.90294 29.1114 6.53123 27.8791 6.53123C 26.6475 6.53123 25.7014 6.90294 25.7679 7.3697C 25.8352 7.84099 26.9081 8.23071 28.1701 8.23692L 28.2297 8.23692L 28.2595 8.23661ZM 7.96943 5.26839C 8.06349 4.83978 9.09653 4.49804 10.2784 4.49804C 11.4601 4.49804 12.3735 4.84008 12.3181 5.26839C 12.2617 5.70473 11.2254 6.06403 10.0047 6.06403C 8.78428 6.06418 7.87344 5.70473 7.96943 5.26839ZM 29.7742 5.50162L 29.094 2.55913L 26.2856 3.59616C 24.3255 2.95097 21.7418 2.55913 18.9374 2.55913L 18.9372 2.55898C 16.2532 2.55898 13.7314 2.91797 11.777 3.53698L 14.5634 4.1124C 15.8152 3.79321 17.3292 3.60645 18.9452 3.60645C 20.9615 3.60645 22.8122 3.89477 24.1993 4.36621L 21.1835 5.47937L 21.2916 5.50162L 29.7742 5.50162Z"/>
<path id="path1_fill" d="M 11.9256 0.000151407C 14.7301 0.000151407 17.3138 0.391989 19.2739 1.03718L 22.0823 0.000151407L 22.7625 2.94264L 14.2799 2.94264L 14.1718 2.92039L 17.1876 1.80724C 15.8005 1.33579 13.9497 1.04747 11.9335 1.04747C 10.3175 1.04747 8.80348 1.23424 7.55166 1.55343L 4.76526 0.978005C 6.7197 0.358995 9.24149 1.43181e-07 11.9255 1.43181e-07L 11.9256 0.000151407ZM 0.957725 2.70942C 1.05179 2.2808 2.08482 1.93906 3.26668 1.93906C 4.4484 1.93906 5.36177 2.2811 5.30641 2.70942C 5.25 3.14575 4.21369 3.50505 2.99298 3.50505C 1.77257 3.5052 0.861729 3.14575 0.957725 2.70942ZM 11.9727 8.14535C 8.66655 8.14535 5.73816 7.61079 3.71957 6.77218L -7.26712e-08 8.14535L 0.771389 4.561L 9.64705 4.561L 9.68723 4.56993L 6.26056 5.83458C 7.67787 6.40107 9.69914 6.75946 11.9621 6.75946C 13.8217 6.75946 15.5065 6.51973 16.8249 6.12335L 20.0717 6.83045C 18.1 7.62502 15.2535 8.14535 11.9728 8.14535L 11.9727 8.14535ZM 21.1883 5.67794C 19.9134 5.67794 18.8241 5.2858 18.7562 4.81072C 18.6897 4.34396 19.6358 3.97226 20.8674 3.97226C 22.0997 3.97226 23.1856 4.34396 23.2944 4.81072C 23.4051 5.2858 22.4629 5.67794 21.1883 5.67794Z"/>
<path id="path2_fill" fill-rule="evenodd" d="M 5.45034e-08 -3.41787e-07C 3.45361 1.88034 9.023 3.1008 15.3053 3.1008C 21.5876 3.1008 27.157 1.88034 30.6106 0.000150922L 30.6106 9.57649L 30.6104 9.57664L 30.6104 10.2053C 30.6104 10.2053 27.4892 14.4774 15.3053 14.4804L 15.2932 14.4804C 3.10967 14.4774 5.45034e-08 10.2053 5.45034e-08 10.2053L 5.45034e-08 -3.41787e-07Z"/>
<path id="path3_fill" d="M 2.31223 4.70266C 3.58924 4.70266 4.62446 3.64993 4.62446 2.35133C 4.62446 1.05273 3.58924 0 2.31223 0C 1.03522 0 0 1.05273 0 2.35133C 0 3.64993 1.03522 4.70266 2.31223 4.70266Z"/>
<path id="path4_fill" d="M 2.31208 4.70236C 3.58901 4.70236 4.62417 3.6497 4.62417 2.35118C 4.62417 1.05266 3.58901 0 2.31208 0C 1.03516 0 0 1.05266 0 2.35118C 0 3.6497 1.03516 4.70236 2.31208 4.70236Z"/>
<path id="path5_fill" d="M 0.754274 1.53405C 1.17085 1.53405 1.50855 1.19064 1.50855 0.767027C 1.50855 0.34341 1.17085 0 0.754274 0C 0.3377 0 0 0.34341 0 0.767027C 0 1.19064 0.3377 1.53405 0.754274 1.53405Z"/>
<path id="path6_fill" d="M 0.754273 1.53405C 1.17085 1.53405 1.50855 1.19064 1.50855 0.767027C 1.50855 0.34341 1.17085 0 0.754273 0C 0.3377 0 0 0.34341 0 0.767027C 0 1.19064 0.3377 1.53405 0.754273 1.53405Z"/>
<path id="path7_fill" d="M 9.24178 0C 7.83623 0.926396 5.21979 2.65069 0 3.84679C 0.749809 7.8929 0.749807 7.89291 1.73536 13.196C 3.54127 12.6494 7.29925 11.5115 10.3437 8.95899C 9.99636 5.9941 9.71774 3.68833 9.24178 0Z"/>
<path id="path8_fill" d="M 1.73194 5.80141C 0.703225 6.37849 1.05373e-06 5.54003 1.05373e-06 5.54003L 0.607378 4.95311C 0.607378 4.95311 0.946265 5.39746 1.50587 5.01864C 1.76796 4.84126 1.59695 3.95331 1.59695 3.95331L 1.0939 1.51177L 1.88568 1.17231C 1.88568 1.17231 2.36566 3.9916 2.41582 4.27371C 2.50958 4.80191 2.58668 5.32164 1.73194 5.80141ZM 3.86453 4.56792C 3.28514 4.65692 2.95771 4.21756 2.95771 4.21756L 3.48591 3.56011C 3.48591 3.56011 3.68505 3.78471 3.96142 3.74263C 4.19598 3.70631 4.47132 3.54739 4.56746 3.24773C 4.73118 2.73466 4.57937 2.55879 4.06546 2.61706C 3.55199 2.67533 2.90621 2.75191 2.79191 1.72215C 2.69056 0.808617 3.47579 0.109848 4.00741 0.0149532C 4.53487 -0.078882 4.82926 0.299634 4.82926 0.299634L 4.30314 0.948915C 4.30314 0.948915 3.95428 0.787729 3.74443 0.978729C 3.55363 1.15278 3.48026 1.37995 3.55288 1.55264C 3.61658 1.70399 3.80858 1.77058 4.1171 1.74727C 4.42578 1.72457 4.93403 1.54204 5.24673 2.18224C 5.59856 2.90114 5.23214 4.35846 3.86453 4.56792Z"/>
<path id="path9_fill" fill-rule="evenodd" d="M 7.02158 3.35263L 0 0L 0 3.30722L 5.57581 5.96951L 19.0432 10.0125L 32.4159 5.96951L 37.9525 3.30722L 37.9525 0L 30.9803 3.35263L 19.0432 6.70529L 7.02158 3.35263Z"/>
<path id="path10_fill" d="M 0.00302728 0.0180302L 0 22.0233L 2.07924 25.3174L 17.6736 29.0233L 32.7481 26.1115L 35.3471 22.0233L 35.343 15.4069L 33.5041 21.1081L 23.467 25.7025L 21.4172 9.82772L 35.3402 10.8367L 35.3396 9.82772L 35.3335 0L 34.3075 2.52326L 26.5103 6.02326L 11.9556 6.02326L 4.6783 4.02326L 1.55943 2.52326L 0.00302728 0.0180302Z"/>
<path id="path11_fill" fill-rule="evenodd" d="M 35.3473 0C 35.3473 0 35.3436 0.0387573 35.3303 0.110779C 35.3345 0.173889 35.3367 0.237335 35.3367 0.301056C 35.3367 0.368805 35.3345 0.436554 35.3304 0.503876C 35.3187 0.696808 35.2902 0.887665 35.2455 1.07675C 34.8588 2.71225 33.2626 4.19406 30.8472 5.35471C 27.6128 6.90897 22.9093 7.8873 17.6738 7.8873C 12.4379 7.8873 7.73418 6.90884 4.49974 5.3544C 4.34451 5.27982 4.19267 5.20389 4.04431 5.12668C 1.61884 3.86435 0.125671 2.25912 0.0174103 0.505829C 0.0131989 0.437714 0.0110168 0.369598 0.0110168 0.301056C 0.0113068 0.23819 0.0133972 0.175415 0.0172577 0.11261C 0.00387573 0.0394897 0 0 0 0L 0 0.460114L 0 22.2392C 0 24.2398 1.70126 26.0649 4.49919 27.4471C 7.73538 29.0457 12.4387 30.0518 17.6736 30.0518C 23.1642 30.0518 28.0699 28.945 31.3115 27.2087C 33.8327 25.8582 35.3473 24.1269 35.3473 22.2392L 35.3473 0ZM 30.8472 25.0486C 30.8474 25.0484 30.8476 25.0485 30.8478 25.0484C 33.6395 23.7068 35.3365 21.9361 35.3365 19.9951C 35.3365 19.8941 35.3309 19.7942 35.3212 19.6942C 35.1602 21.4661 33.5844 23.082 31.0654 24.3392C 30.9934 24.3751 30.9207 24.4107 30.8472 24.4461C 27.6132 26.0006 22.9097 26.9792 17.6736 26.9792C 12.4374 26.9792 7.7338 26.0005 4.49974 24.4459C 4.49957 24.4459 4.49939 24.4456 4.49922 24.4456C 1.85368 23.1738 0.19165 21.5165 0.0260468 19.6942C 0.0168152 19.7942 0.0108643 19.894 0.0108643 19.9951C 0.0108643 21.8282 1.52448 23.5093 4.04416 24.8206C 4.19257 24.8979 4.34445 24.9738 4.49974 25.0484C 7.73416 26.6028 12.4378 27.5812 17.6736 27.5812C 22.9092 27.5812 27.6128 26.6028 30.8472 25.0486ZM 30.8472 21.6708C 30.8474 21.6707 30.8476 21.6706 30.8478 21.6705C 31.6956 21.1811 32.5425 20.6093 33.3403 19.9405L 33.2758 19.3918L 33.2267 18.9736C 33.222 18.9342 33.2174 18.8948 33.2127 18.8556C 32.9384 16.5324 32.688 14.4811 32.3147 11.5745C 32.2898 11.3807 32.2644 11.1831 32.2383 10.9814L 32.2359 10.9831M 32.2354 10.9834C 31.901 11.2038 31.4983 11.4691 31.0085 11.7616C 30.5172 12.055 29.9384 12.3758 29.2531 12.706C 27.7477 13.4313 25.7288 14.2021 22.9966 14.8282C 23.321 16.5792 23.5051 17.5725 23.6894 18.5656C 23.9309 19.8675 24.1729 21.1693 24.7319 24.1774L 24.9068 24.1244C 26.2673 23.7115 28.561 22.9904 30.8472 21.6708M 35.2526 0.436615C 35.1322 0.972565 34.882 1.49216 34.5156 1.98959C 34.9392 1.34744 35.1496 0.795197 35.2526 0.436615ZM 0.0961456 0.441803C 0.199432 0.799896 0.409286 1.34836 0.829132 1.98599C 0.465393 1.49124 0.216553 0.974701 0.0961456 0.441803Z"/>
<path id="path12_fill" fill-rule="evenodd" d="M 32.9789 0C 34.4849 1.14948 35.3473 2.48391 35.3473 3.90657C 35.3473 8.21815 27.428 11.7185 17.6736 11.7185C 7.91928 11.7185 0 8.21815 0 3.90657C 0 2.48391 0.862324 1.14948 2.36834 0L 2.36834 5.42655C 2.36834 5.42655 5.47801 9.69863 17.6616 9.70165L 17.6736 9.70165C 29.8575 9.69863 32.9788 5.42655 32.9788 5.42655L 32.9788 4.79786L 32.9789 0Z"/>
</defs>
</svg>
