<?xml version="1.0" encoding="UTF-8"?>
<svg width="65px" height="56px" viewBox="0 0 65 56" version="1.1" xmlns="http://www.w3.org/2000/svg" xmlns:xlink="http://www.w3.org/1999/xlink">
    <!-- Generator: Sketch 43.2 (39069) - http://www.bohemiancoding.com/sketch -->
    <title>Last.fm</title>
    <desc>Created with Sketch.</desc>
    <defs></defs>
    <g id="Page-1" stroke="none" stroke-width="1" fill="none" fill-rule="evenodd" opacity="0.400532156">
        <g id="Last.fm" transform="translate(0.416364, 18.539975)" fill-rule="nonzero" fill="#001731">
            <path d="M14.3550279,14.9953507 L13.5980933,12.9378369 C13.5980933,12.9378369 12.3680973,14.3096336 10.5236016,14.3096336 C8.89148967,14.3096336 7.73271107,12.8905398 7.73271107,10.6200079 C7.73271107,7.71096528 9.19892073,6.67033879 10.6418443,6.67033879 C12.7230066,6.67033879 13.3851658,8.01839634 13.9529121,9.74501179 L14.7098467,12.1101379 C15.4665094,14.4041372 16.8856032,16.2489047 20.9771636,16.2489047 C23.9101265,16.2489047 25.8966947,15.3502601 25.8966947,12.9852246 C25.8966947,11.0695114 24.8085899,10.0760914 22.7745434,9.60302992 L21.2609461,9.27195032 C20.2204102,9.0354649 19.9129791,8.60970052 19.9129791,7.90015363 C19.9129791,7.09601256 20.5513992,6.6229511 21.5922069,6.6229511 C22.7274275,6.6229511 23.3422897,7.04871548 23.4369744,8.06569343 L25.8020099,7.78182031 C25.6128216,5.65327024 24.1465213,4.77818355 21.7340981,4.77818355 C19.6056387,4.77818355 17.5242951,5.58232461 17.5242951,8.1602876 C17.5242951,9.76856972 18.3047876,10.7856383 20.2676167,11.2586091 L21.87608,11.6368952 C23.0822463,11.9207683 23.4841809,12.4173877 23.4841809,13.1033767 C23.4841809,13.9782822 22.6328334,14.3331009 21.0245512,14.3331009 C18.6357766,14.3331009 17.6426284,13.0796375 17.0748822,11.3530221 L16.2943896,8.9880772 C15.3012415,5.91340421 13.7164267,4.77818355 10.570808,4.77818355 C7.09420041,4.77818355 5.24934225,6.97767924 5.24934225,10.7145114 C5.24934225,14.309543 7.09420041,16.2488141 10.4054494,16.2488141 C13.0776442,16.2488141 14.3550279,14.9953507 14.3550279,14.9953507 L14.3550279,14.9953507 Z" id="path5"></path>
            <path d="M4.23372342,13.883688 C3.99723799,13.9547242 3.76066195,14.0020213 3.4532309,14.0020213 C2.88557526,14.0020213 2.48345943,13.741978 2.48345943,13.0558984 L2.48345943,0.1655398 L0,0.1655398 L0,13.6472026 C0,15.4210245 1.22999605,16.1544918 2.67264777,16.1544918 C3.14570923,16.1544918 3.59512215,16.0833649 4.16277779,15.9416549 L4.23372342,13.883688 L4.23372342,13.883688 Z" id="path7"></path>
            <path d="M34.1509422,13.5053113 C33.5359895,13.9312569 33.0157216,14.1441844 32.3061747,14.1441844 C31.4073488,14.1441844 30.9107294,13.6711229 30.9107294,12.5121631 L30.9107294,6.97731681 L34.1746814,6.97731681 L34.1746814,5.03804569 L30.9342874,5.03804569 L30.9342874,2.41242319 L28.42727,2.71994485 L28.42727,5.03795509 L26.8425458,5.03795509 L26.8425458,6.9772262 L28.42727,6.9772262 L28.42727,13.0321592 C28.42727,15.20855 29.6807334,16.2487235 31.7148705,16.2487235 C32.8265332,16.2487235 33.8198626,16.0361584 34.6004458,15.5868361 L34.1509422,13.5053113 L34.1509422,13.5053113 Z" id="path9"></path>
            <path d="M36.3080336,14.3566589 C36.3080336,15.3266115 37.0649682,16.1070135 38.0346491,16.1070135 C39.0518082,16.1070135 39.8085616,15.3266115 39.8085616,14.3566589 C39.8085616,13.3633294 39.0517176,12.6067573 38.0346491,12.6067573 C37.0649682,12.6067573 36.3080336,13.3633294 36.3080336,14.3566589 L36.3080336,14.3566589 Z" id="path11"></path>
            <path d="M42.3795478,6.97731681 L42.3795478,15.9651222 L44.8630073,15.9651222 L44.8630073,6.97731681 L47.6539884,6.97731681 L47.6539884,5.03804569 L44.8630073,5.03804569 L44.8630073,4.04453507 C44.8630073,2.55458627 45.5016991,2.0815248 46.5423256,2.0815248 C47.2755211,2.0815248 47.7722311,2.24688339 48.3398867,2.55458627 L48.7419119,0.472970856 C48.0797527,0.1655398 47.2991696,0 46.3531373,0 C44.2716125,0 42.3795478,0.993329406 42.3795478,3.94985029 L42.3795478,5.03804569 L40.7949143,5.03804569 L40.7949143,6.97731681 L42.3795478,6.97731681 L42.3795478,6.97731681 Z" id="path13"></path>
            <path d="M57.5496803,7.19042552 C57.2658072,5.41651299 56.106938,4.7776399 54.5931594,4.7776399 C53.0794715,4.7776399 51.778711,5.46362886 51.2108742,7.14285661 L50.9034431,5.03804569 L48.8930451,5.03804569 L48.8930451,15.9651222 L51.3765046,15.9651222 L51.3765046,9.79212766 C51.3765046,7.6868637 52.4645188,6.88272264 53.6234786,6.88272264 C54.8296449,6.88272264 55.3264455,7.6868637 55.3264455,8.98771477 L55.3264455,15.9650316 L57.7861657,15.9650316 L57.7861657,9.76838851 C57.7861657,7.6867731 58.8978285,6.88263203 60.0568789,6.88263203 C61.2394872,6.88263203 61.736016,7.6867731 61.736016,8.98762417 L61.736016,15.964941 L64.2194755,15.964941 L64.2194755,8.1128999 C64.2194755,5.77133174 62.8476788,4.7776399 61.0264691,4.7776399 C59.4893139,4.7776399 58.117336,5.46362886 57.5496803,7.19042552 L57.5496803,7.19042552 Z" id="path15"></path>
        </g>
    </g>
</svg>