<?xml version="1.0" encoding="UTF-8"?>
<svg width="61px" height="56px" viewBox="0 0 61 56" version="1.1" xmlns="http://www.w3.org/2000/svg" xmlns:xlink="http://www.w3.org/1999/xlink">
    <!-- Generator: Sketch 43.2 (39069) - http://www.bohemiancoding.com/sketch -->
    <title>Royal Mail</title>
    <desc>Created with Sketch.</desc>
    <defs></defs>
    <g id="Page-1" stroke="none" stroke-width="1" fill="none" fill-rule="evenodd" opacity="0.349999994">
        <g id="Royal-Mail" transform="translate(0.681434, 7.539975)" fill-rule="nonzero">
            <path d="M29.5669756,4.47012889 L30.5713137,4.47012889 C30.5289487,4.43986815 30.4935914,4.40323672 30.4525005,4.36278289 C30.2782623,4.18663351 30.3069304,3.985957 30.3779635,3.91396829 C30.4489966,3.84197957 30.6474434,3.92607259 30.8216815,4.10190343 C30.8659578,4.14490554 30.9032263,4.18981885 30.9347612,4.23473216 L30.9347612,2.98894516 C30.9022528,3.03328042 30.8664774,3.07512486 30.8277337,3.11412907 C30.6534955,3.29027845 30.4550487,3.37373439 30.3833786,3.30206421 C30.3123455,3.2300755 30.3951643,3.02876192 30.5694025,2.85356815 C30.6124046,2.81024751 30.6528584,2.77234194 30.695542,2.74080707 L29.4704597,2.74080707 C29.510595,2.77043074 29.5526415,2.8073807 29.5918212,2.847516 C29.7660594,3.02239124 29.8488783,3.22402335 29.7778452,3.29601206 C29.7064935,3.36800078 29.5080468,3.28390777 29.3338086,3.10807692 C29.2928578,3.06765619 29.2552536,3.02397994 29.221366,2.97747793 L29.221366,4.21848692 C29.2516268,4.17707748 29.2876211,4.13630512 29.3277564,4.09585128 C29.5019946,3.9197019 29.7004414,3.83624596 29.771793,3.90759761 C29.8431447,3.97958632 29.8714942,4.18026283 29.6975746,4.3564122 C29.657431,4.39804314 29.6137323,4.43609292 29.5669756,4.47012889 L29.5669756,4.47012889 Z M29.0576395,5.83186232 C29.1531997,6.30584112 29.5685682,6.66387349 30.0661186,6.66387349 C30.564306,6.66387349 30.979993,6.30647818 31.0752347,5.83186232 L29.0576395,5.83186232 Z M31.0745976,5.413627 C30.9916535,5.00495968 30.6724976,4.68542751 30.2639283,4.60200202 L30.2639283,5.413627 L31.0745976,5.413627 Z M29.8574787,4.60486883 C29.4532934,4.69056182 29.1388453,5.00851635 29.0576395,5.413627 L29.8574787,5.413627 L29.8574787,4.60486883 L29.8574787,4.60486883 Z M29.7552293,7.10886567 C29.7547004,6.93658617 29.8938397,6.79644899 30.0661186,6.79574662 C30.2378085,6.79574662 30.3773264,6.93622017 30.3773264,7.10886567 C30.3780318,7.2814974 30.2387495,7.42206279 30.0661186,7.42294033 C29.9832165,7.42260351 29.9038533,7.38930357 29.8455318,7.33038446 C29.7872102,7.27146535 29.754721,7.19176686 29.7552293,7.10886567 L29.7552293,7.10886567 Z M29.7552293,7.89596352 C29.7547004,7.72368402 29.8938397,7.58354684 30.0661186,7.58284447 C30.2378085,7.58284447 30.3773264,7.72331802 30.3773264,7.89596352 C30.3777498,7.97886468 30.3451793,8.05852941 30.2867981,8.11738868 C30.2284169,8.17624795 30.1490204,8.20946695 30.0661186,8.20971965 C29.983272,8.20938258 29.9039574,8.17612639 29.845645,8.11727631 C29.7873326,8.05842622 29.7548059,7.97880968 29.7552293,7.89596352 Z M29.7552293,8.68401698 C29.754721,8.60111579 29.7872102,8.5214173 29.8455318,8.46249819 C29.9038533,8.40357908 29.9832165,8.37027914 30.0661186,8.36994232 C30.2378085,8.36994232 30.3773264,8.51041587 30.3773264,8.68401698 C30.3776792,8.85634818 30.2384487,8.99643372 30.0661186,8.99713603 C29.8938397,8.99643366 29.7547004,8.85629648 29.7552293,8.68401698 L29.7552293,8.68401698 Z M29.7552293,9.47111483 C29.754721,9.38821364 29.7872102,9.30851515 29.8455318,9.24959604 C29.9038533,9.19067693 29.9832165,9.15737699 30.0661186,9.15704017 C30.2378085,9.15704017 30.3773264,9.29719519 30.3773264,9.47111483 C30.3775803,9.55390584 30.3449349,9.63340674 30.286572,9.69212804 C30.2282091,9.75084934 30.1489096,9.78398083 30.0661186,9.78423388 C29.9833566,9.78398096 29.9040897,9.75083927 29.8457774,9.69210874 C29.7874651,9.63337822 29.7548907,9.55387644 29.7552293,9.47111483 L29.7552293,9.47111483 Z M29.7233758,11.222734 C29.7233758,11.0316136 29.8765908,10.8777616 30.0661186,10.8777616 C30.2556464,10.8777616 30.4088613,11.0316136 30.4088613,11.222734 C30.4088613,11.4141731 30.2553278,11.5689806 30.0661186,11.5689806 C29.8769093,11.5689806 29.7233758,11.4141731 29.7233758,11.222734 Z M35.2305125,12.2238868 C35.3505999,12.2646592 35.5041333,12.1308749 35.5726182,11.9244647 C35.6417401,11.7186917 35.599375,11.5180152 35.4792877,11.4775613 C35.3585632,11.4371075 35.2050298,11.5705733 35.1365449,11.7763464 C35.067423,11.9827565 35.1097881,12.1824774 35.2305125,12.2238868 Z M24.9017246,12.2238868 C24.7810002,12.2646592 24.6281038,12.1308749 24.5589819,11.9244647 C24.4904971,11.7186917 24.5325436,11.5180152 24.6529495,11.4775613 C24.7736739,11.4371075 24.9268888,11.5705733 24.9953737,11.7763464 C25.0644956,11.9827565 25.0224491,12.1824774 24.9017246,12.2238868 L24.9017246,12.2238868 Z M31.2201677,6.31093766 C31.2192855,6.05798144 31.4233548,5.85205962 31.6763086,5.85065584 C31.9276321,5.85065584 32.1311754,6.05706596 32.1311754,6.31093766 C32.1311754,6.56480937 31.9276321,6.77026389 31.6763086,6.77026389 C31.5548837,6.76992672 31.4385755,6.72132348 31.3530141,6.63516454 C31.2674526,6.54900559 31.2196599,6.43236199 31.2201677,6.31093766 L31.2201677,6.31093766 Z M32.2840718,5.84715196 C32.2840718,5.59296172 32.4876151,5.3875072 32.7389385,5.3875072 C32.9902619,5.3875072 33.1950794,5.59328025 33.1950794,5.84715196 C33.1950794,6.10166074 32.9902619,6.30743379 32.7389385,6.30743379 C32.4876151,6.30743379 32.2840718,6.10166074 32.2840718,5.84715196 Z M33.3763253,5.45344377 C33.3763253,5.19893499 33.5798686,4.99316194 33.8318291,4.99316194 C34.0831526,4.99316194 34.2873329,5.19893499 34.2873329,5.45344377 C34.2873329,5.70731547 34.0831526,5.91308853 33.8318291,5.91308853 C33.710433,5.91266743 33.5941907,5.86397305 33.5087395,5.77774501 C33.4232882,5.69151696 33.3756478,5.57483869 33.3763253,5.45344377 Z M34.5275077,5.413627 C34.5275077,5.15975529 34.7316881,4.95334517 34.9830115,4.95334517 C35.2343349,4.95334517 35.4385153,5.15975529 35.4385153,5.413627 C35.4385153,5.66781724 35.2343349,5.87390883 34.9830115,5.87390883 C34.7316881,5.87390883 34.5275077,5.66781724 34.5275077,5.413627 Z M35.5812186,5.86721961 C35.5812186,5.6133479 35.7847619,5.40693778 36.0367224,5.40693778 C36.2880458,5.40693778 36.4915892,5.6133479 36.4915892,5.86721961 C36.4915892,6.12109132 36.2880458,6.32686437 36.0367224,6.32686437 C35.7847619,6.32686437 35.5812186,6.12140985 35.5812186,5.86721961 Z M36.3192622,6.77631604 C36.3192622,6.52148873 36.5228055,6.31603421 36.7741289,6.31603421 C37.0254524,6.31603421 37.2302698,6.52180726 37.2302698,6.77631604 C37.2302698,7.02986921 37.0254524,7.23596079 36.7741289,7.23596079 C36.5228055,7.23596079 36.3192622,7.03018774 36.3192622,6.77631604 Z M36.5877865,7.89755619 C36.5877865,7.64368449 36.7913298,7.43727437 37.0426532,7.43727437 C37.2952508,7.43727437 37.498157,7.64368449 37.498157,7.89755619 C37.498157,8.15174643 37.2952508,8.35720095 37.0426532,8.35720095 C36.9213678,8.3566112 36.8052891,8.3078425 36.7199755,8.22163281 C36.634662,8.13542313 36.5871089,8.01884119 36.5877865,7.89755619 L36.5877865,7.89755619 Z M36.5275835,9.04873856 C36.5275835,8.79486686 36.7311268,8.58941234 36.9824503,8.58941234 C37.2337737,8.58941234 37.4385911,8.79518539 37.4385911,9.04873856 C37.4385911,9.30229173 37.2337737,9.50902039 36.9824503,9.50902039 C36.7311268,9.50902039 36.5275835,9.30261027 36.5275835,9.04873856 Z M36.2268873,10.1505481 C36.2268873,9.89667643 36.4304306,9.69122191 36.6823911,9.69122191 C36.9337145,9.69122191 37.1372579,9.89667643 37.1372579,10.1505481 C37.1372579,10.4044198 36.9337145,10.61083 36.6823911,10.61083 C36.4304306,10.61083 36.2268873,10.4044198 36.2268873,10.1505481 Z M28.0039286,6.31093766 C28.0039286,6.05706596 28.2074719,5.85065584 28.4587953,5.85065584 C28.7101188,5.85065584 28.9142991,6.05706596 28.9142991,6.31093766 C28.9142991,6.56480937 28.7101188,6.77026389 28.4587953,6.77026389 C28.2074719,6.77026389 28.0039286,6.56480937 28.0039286,6.31093766 Z M26.939706,5.84715196 C26.939706,5.59296172 27.1442049,5.3875072 27.3955284,5.3875072 C27.6468518,5.3875072 27.8503951,5.59328025 27.8503951,5.84715196 C27.8503951,6.10166074 27.6468518,6.30743379 27.3955284,6.30743379 C27.274045,6.30684386 27.1577717,6.25801826 27.0722881,6.17169835 C26.9868045,6.08537845 26.9391132,5.96863536 26.939706,5.84715196 L26.939706,5.84715196 Z M25.8474525,5.45344377 C25.8474525,5.19893499 26.0509958,4.99316194 26.3023192,4.99316194 C26.5545983,4.99316194 26.7581416,5.19893499 26.7581416,5.45344377 C26.7581416,5.70731547 26.5545983,5.91308853 26.3023192,5.91308853 C26.1810338,5.91249878 26.0649551,5.86373007 25.9796415,5.77752039 C25.894328,5.6913107 25.8467749,5.57472876 25.8474525,5.45344377 Z M24.6965886,5.413627 C24.6965886,5.15975529 24.900132,4.95334517 25.1514554,4.95334517 C25.4027788,4.95334517 25.6069592,5.15975529 25.6069592,5.413627 C25.6069592,5.66781724 25.4024603,5.87390883 25.1514554,5.87390883 C25.0300853,5.87323506 24.9139588,5.82435191 24.8286452,5.73802264 C24.7433316,5.65169337 24.6958261,5.53499659 24.6965886,5.413627 Z M23.6428777,5.86721961 C23.6428777,5.6133479 23.846421,5.40693778 24.0977445,5.40693778 C24.3490679,5.40693778 24.5532483,5.6133479 24.5532483,5.86721961 C24.5532483,6.12109132 24.3487494,6.32686437 24.0977445,6.32686437 C23.976459,6.32627462 23.8603803,6.27750592 23.7750668,6.19129623 C23.6897532,6.10508654 23.6422001,5.98850461 23.6428777,5.86721961 L23.6428777,5.86721961 Z M22.9048341,6.77631604 C22.9048341,6.52148873 23.109333,6.31603421 23.3603379,6.31603421 C23.6119799,6.31603421 23.8155232,6.52180726 23.8155232,6.77631604 C23.8155232,7.02986921 23.6119799,7.23596079 23.3603379,7.23596079 C23.109333,7.23596079 22.9048341,7.03018774 22.9048341,6.77631604 Z M22.6359913,7.89755619 C22.6359913,7.64368449 22.8395346,7.43727437 23.0905395,7.43727437 C23.3428186,7.43727437 23.5463619,7.64368449 23.5463619,7.89755619 C23.5463619,8.15174643 23.3428186,8.35720095 23.0905395,8.35720095 C22.969283,8.35661144 22.8532368,8.30783252 22.7679738,8.22161355 C22.6827109,8.13539458 22.6352288,8.01881173 22.6359913,7.89755619 L22.6359913,7.89755619 Z M22.6961943,9.04873856 C22.6961943,8.79486686 22.8997376,8.58941234 23.1520166,8.58941234 C23.40334,8.58941234 23.6068834,8.79518539 23.6068834,9.04873856 C23.6068834,9.30229173 23.40334,9.50902039 23.1520166,9.50902039 C23.0305332,9.50843046 22.9142599,9.45960486 22.8287764,9.37328496 C22.7432928,9.28696506 22.6956015,9.17022196 22.6961943,9.04873856 L22.6961943,9.04873856 Z M22.9968905,10.1505481 C22.9968905,9.89667643 23.2004338,9.69122191 23.4517572,9.69122191 C23.7040363,9.69122191 23.9075796,9.89667643 23.9075796,10.1505481 C23.9075796,10.4044198 23.7040363,10.61083 23.4517572,10.61083 C23.199081,10.6092514 22.9954788,10.4032253 22.9968905,10.1505481 Z" id="Shape" fill="#001731"></path>
            <path d="M26.094635,10.532152 C25.9586209,10.625164 25.8229253,11.1507453 26.3125123,11.5520983 C26.4080726,11.3303986 26.5176483,11.3081012 26.6198978,11.3303986 C26.7221472,11.352696 26.8024178,11.4074838 26.8578428,11.6164422 L27.545558,11.563247 C27.5563881,11.3823196 27.6369772,11.2638249 27.7975185,11.2198672 C27.9440442,11.1927918 28.0755988,11.2638249 28.185493,11.4339222 C28.2861498,11.1351372 28.3036692,10.750985 28.2014197,10.5334262 L28.9069728,10.5324706 L28.9069728,12.0219362 C29.2420708,11.4479377 29.7176422,11.3820011 29.7612814,11.8626691 C29.799824,12.2824971 29.2853914,12.7497867 28.7954859,12.7497867 C28.3055804,12.7497867 27.9688898,12.5414654 27.6245544,12.00155 L26.9365207,12.0547452 C26.8126109,12.468521 26.1685349,12.8746521 25.5687351,12.6609157 C25.278869,12.5573921 25.0756443,12.4016289 25.1441291,12.2171976 C25.2243997,12.0034612 25.4926054,12.1773808 25.6936005,12.2544661 C25.6936005,12.2544661 25.4081939,11.3007749 25.2689945,10.8936883 C25.2320445,11.0045382 25.06354,11.4116248 24.8443885,11.2854853 C24.7252567,11.217956 24.8017049,10.937646 24.9380375,10.5340632 L26.094635,10.532152 L26.094635,10.532152 Z M26.6097047,10.532152 C26.6507956,10.6363127 26.7001684,10.742066 26.7587786,10.849412 C26.6189421,10.6786777 26.5014031,10.5821619 26.402976,10.5337447 L26.6097047,10.532152 Z M27.6191393,10.532152 C27.5416623,10.6145568 27.4782763,10.7091516 27.4315227,10.8121435 C27.452546,10.7124424 27.4703839,10.6194304 27.4843994,10.5331076 L27.6191393,10.532152 L27.6191393,10.532152 Z M29.6042441,10.532152 C29.6838776,10.6684846 29.7039453,10.7869793 29.6443794,10.843997 C29.5488191,10.9344606 29.2831617,10.8287073 29.0503132,10.6070076 C29.025084,10.5829694 29.00065,10.5581104 28.9770504,10.5324706 L29.6042441,10.5324706 L29.6042441,10.532152 L29.6042441,10.532152 Z M31.157098,10.532152 C31.133662,10.557947 31.1092222,10.5828118 31.0838351,10.606689 C30.8513052,10.8283888 30.5856477,10.9341421 30.489769,10.8436784 C30.4305216,10.7866608 30.4505893,10.6681661 30.5302228,10.5327891 L31.157098,10.532152 L31.157098,10.532152 Z M31.9304989,10.532152 C31.8285679,10.7506665 31.8457688,11.1348186 31.9467441,11.4336036 C32.0563199,11.2635064 32.1875559,11.1924733 32.3344002,11.2195487 C32.4955784,11.2635064 32.575849,11.3820011 32.5863607,11.5629285 L33.2743944,11.6161237 C33.3291823,11.4071653 33.4100899,11.3520589 33.5120209,11.33008 C33.6139518,11.3081012 33.7241646,11.33008 33.8194063,11.5517798 C34.3083562,11.1504268 34.1732977,10.6248455 34.0372836,10.5318335 L35.1970664,10.5318335 C35.333399,10.9370089 35.4098472,11.217319 35.291034,11.2851667 C35.071564,11.4113062 34.9027409,11.0042196 34.8661095,10.8933697 C34.7265915,11.3004564 34.4411849,12.2541476 34.4411849,12.2541476 C34.64218,12.1770623 34.9097486,12.0028241 34.9912934,12.2168791 C35.0597782,12.4013103 34.8562349,12.5570735 34.5663688,12.6605971 C33.9665691,12.8743335 33.3228116,12.4682025 33.1976277,12.0544267 L32.510231,12.0012315 C32.1662141,12.5408283 31.8295235,12.7494682 31.3392995,12.7494682 C30.8497125,12.7494682 30.3352799,12.2821786 30.3738225,11.8623506 C30.4174617,11.3816826 30.8933517,11.4476191 31.2281311,12.0216177 L31.2281311,10.532152 L31.9304989,10.532152 L31.9304989,10.532152 Z M32.6478377,10.532152 C32.6621718,10.6194304 32.6796912,10.7124424 32.7000773,10.8121435 C32.6536383,10.7093397 32.5903323,10.6150267 32.5127793,10.5331076 L32.6478377,10.532152 L32.6478377,10.532152 Z M33.7292611,10.532152 C33.630197,10.5821619 33.5126579,10.6786777 33.3734585,10.849412 C33.4320688,10.742066 33.481123,10.6363127 33.5222139,10.5331076 L33.7292611,10.532152 Z" id="Shape" fill="#001731"></path>
            <path d="M20.1515843,39.9655025 L40.0039058,39.9655025 L40.0039058,0.584490231 L20.1515843,0.584490231 L20.1515843,39.9655025 Z M40.4144963,0.17389973 L40.4144963,40.376093 L19.7409938,40.376093 L19.7409938,0.17389973 L40.4144963,0.17389973 Z" id="Shape" fill="#001731"></path>
            <path d="M24.9380375,10.532152 C24.9673427,10.4451922 25.0007887,10.350269 25.0345534,10.2505679 L24.2987395,10.475453 C24.2987395,10.475453 23.7276078,9.68771804 23.6740941,8.32184366 C23.5935049,6.29564802 24.9756245,5.95545357 25.5827506,5.94876435 C26.2344714,5.94111953 26.5345306,6.11121676 27.1343304,6.34820616 C27.7347672,6.58423995 28.1514099,6.93876844 29.3363569,7.07255278 L29.2560863,7.66311507 C28.0564867,7.66311507 26.9298315,6.80148023 25.8098654,6.79383541 C24.5733159,6.78555353 24.4051299,8.0329332 24.4204195,8.41708537 C24.434435,8.80123754 24.4564139,9.20832416 24.7125153,9.74855806 C24.7634808,9.43766874 24.9883659,8.49831157 25.3199599,8.33585917 C26.2488055,7.95138846 27.1786066,8.27661182 27.1786066,8.27661182 C28.2466516,7.94406218 29.146192,7.94406218 29.146192,7.94406218 L29.1503329,6.71675015 L29.5676126,6.54346758 L29.5676126,9.88106826 L30.5668542,9.88106826 L30.5668542,6.54378612 L30.9844525,6.71706869 L30.9882749,7.94438071 C30.9882749,7.94438071 31.8878153,7.94438071 32.9561788,8.27693035 C32.9561788,8.27693035 33.8862985,7.951707 34.815144,8.3361777 C35.1734949,8.49863011 35.3713046,9.43798728 35.4222701,9.74887659 C35.67869,9.20896123 35.7003504,8.80155607 35.7146844,8.4174039 C35.7296555,8.03325174 35.561151,6.78587206 34.32492,6.79415395 C33.2049539,6.80179877 32.0782987,7.6634336 30.8790177,7.6634336 L30.7987471,7.07287132 C31.9840126,6.93908698 32.4000182,6.58455849 33.0010921,6.34852469 C33.6008919,6.11153529 33.8999954,5.94143806 34.5513977,5.94908288 C35.1591609,5.9557721 36.541599,6.29596656 36.4606914,8.3221622 C36.4065405,9.68835511 35.8360459,10.4757715 35.8360459,10.4757715 L35.1005506,10.2508864 C35.1339967,10.3505876 35.1664872,10.4455107 35.1970664,10.5343818 L34.0372836,10.5327891 C34.0336846,10.5295267 34.0294573,10.5270337 34.0248608,10.5254628 C33.9477756,10.4881943 33.8525338,10.4735418 33.7292611,10.5347003 L33.5222139,10.5331076 C33.7846861,9.86546009 33.6684211,9.300062 33.2049539,8.92865119 C32.631911,9.46092173 32.5156461,9.74792099 32.6481563,10.5340632 L32.5130978,10.5331076 C32.4159449,10.4343621 32.2917166,10.3547285 32.1509245,10.3623733 C32.0496306,10.368107 31.9773234,10.4334065 31.9308174,10.5340632 L31.2278126,10.5331076 L31.2278126,10.4486961 C31.2061522,10.4773642 31.1828993,10.5053952 31.1574165,10.5331076 L30.5302228,10.5331076 C30.57864,10.4518814 30.6496731,10.3623733 30.7379071,10.2782803 C30.7958803,10.2234925 30.849394,10.1750753 30.9076858,10.1362141 L29.2264626,10.1362141 C29.2850729,10.1750753 29.3389051,10.2231739 29.3965598,10.2782803 C29.4844752,10.3623733 29.5558269,10.4509258 29.6042441,10.5340632 L28.9770504,10.5331076 C28.9523288,10.5060423 28.9288396,10.4778766 28.9066543,10.4486961 L28.9066543,10.5331076 L28.2011012,10.5331076 C28.1542767,10.4334065 28.0819694,10.368107 27.9806756,10.3623733 C27.840202,10.3547285 27.7159737,10.4343621 27.6188208,10.5340632 L27.4840809,10.5331076 C27.6165911,9.74792099 27.5003261,9.46092173 26.9272832,8.92865119 C26.463816,9.300062 26.3475511,9.86514155 26.6093861,10.5340632 L26.4026575,10.5331076 C26.2793848,10.4738603 26.1847801,10.4881943 26.1070578,10.5257814 C26.1024866,10.5276108 26.0981971,10.5300773 26.0943164,10.5331076 L24.9380375,10.5331076 L24.9380375,10.532152 L24.9380375,10.532152 Z M34.9533878,13.6025026 L35.0416218,12.7418233 C35.0416218,12.7418233 34.7230876,13.0855217 34.166927,13.0711876 C33.6107664,13.0555795 33.1100308,12.6529523 32.8902422,12.3280475 C32.845966,12.2544661 32.7838518,12.2503252 32.7360717,12.3315514 C32.3993811,12.7902405 32.0996405,13.126294 31.2803707,13.126294 C30.4611009,13.126294 30.154034,12.6093131 30.0517845,12.4611948 C29.9485795,12.6093131 29.6415126,13.126294 28.8219242,13.126294 C28.002973,13.126294 27.7029138,12.7902405 27.3662232,12.3315514 C27.3184431,12.2506437 27.256329,12.2544661 27.2120527,12.3280475 C26.9929012,12.6532708 26.4915285,13.055898 25.9356864,13.0711876 C25.3792073,13.0855217 25.0609917,12.7418233 25.0609917,12.7418233 L25.1489071,13.6025026 L34.9533878,13.6025026 L34.9533878,13.6025026 Z M25.324738,15.9985163 C24.9737133,15.9985163 24.6889438,15.7274438 24.6889438,15.39362 C24.6889438,15.0591592 24.9740319,14.7887237 25.324738,14.7887237 L34.7772384,14.7887237 C35.1292187,14.7887237 35.4143067,15.0594777 35.4143067,15.39362 C35.4143067,15.7277623 35.1292187,15.9985163 34.7772384,15.9985163 L25.324738,15.9985163 Z M25.9907928,14.5453636 L25.9907928,13.8573299 L25.1489071,13.8573299 L24.8568113,14.1975243 L25.1489071,14.5453636 L25.9907928,14.5453636 Z M26.7565489,14.2019838 C26.7565489,13.9946181 27.0884615,13.8261135 27.4961852,13.8261135 C27.9048645,13.8261135 28.2364585,13.9946181 28.2364585,14.2019838 C28.2364585,14.409031 27.9045459,14.5768985 27.4961852,14.5768985 C27.0881429,14.5768985 26.7565489,14.409031 26.7565489,14.2019838 Z M34.1118206,14.5453636 L34.1118206,13.8573299 L34.9533878,13.8573299 L35.2458022,14.1975243 L34.9533878,14.5453636 L34.1118206,14.5453636 Z M31.8671106,14.2019838 C31.8671106,13.9946181 32.1974305,13.8261135 32.6067468,13.8261135 C33.0147891,13.8261135 33.3463831,13.9946181 33.3463831,14.2019838 C33.3463831,14.409031 33.0147891,14.5768985 32.6067468,14.5768985 C32.1974305,14.5768985 31.8671106,14.409031 31.8671106,14.2019838 Z M29.1216649,13.8573299 L30.9806301,13.8573299 L30.9806301,14.5447265 L29.1216649,14.5447265 L29.1216649,13.8573299 Z M0.265657469,18.7379099 L59.8595719,18.7379099 L59.8595719,33.5083378 L0.265657469,33.5083378 L0.265657469,18.7379099 L0.265657469,18.7379099 Z" id="Shape" fill="#001731"></path>
            <g id="Group-2" transform="translate(4.140944, 21.023253)" fill="#FFFFFF">
                <path d="M48.8245938,0.165458575 C48.4382119,0.165458575 48.1254114,0.482081507 48.1254114,0.872922892 C48.1254114,1.26312721 48.4382119,1.58102428 48.8245938,1.58102428 C49.2116128,1.58102428 49.5250504,1.26312721 49.5250504,0.872922892 C49.5260667,0.686194791 49.452819,0.506720205 49.3214392,0.374025981 C49.1900594,0.241331757 49.0113228,0.166301128 48.8245938,0.165458575 L48.8245938,0.165458575 Z M48.8245938,1.08920757 C48.705568,1.08850586 48.6095487,0.99163176 48.6099018,0.872604357 C48.6099018,0.752516988 48.7064177,0.656001145 48.8245938,0.656001145 C48.9434071,0.656001145 49.0399229,0.752516988 49.0399229,0.872604357 C49.0399229,0.992373193 48.9434071,1.08920757 48.8245938,1.08920757 Z M11.0824397,3.00296066 C10.4951002,2.40443749 9.69126781,2.06797621 8.85270071,2.06965564 C7.11445993,2.06965564 5.7004869,3.49859978 5.7004869,5.254997 C5.69761162,6.09834092 6.02962964,6.90833656 6.62359883,7.50703334 C7.21068572,8.1053497 8.01413915,8.44179655 8.85238218,8.44033836 C9.69094927,8.4420178 10.4947817,8.10555651 11.0821211,7.50703334 C11.67778,6.90468529 12.0052331,6.10548314 12.0052331,5.254997 C12.0052331,4.40451086 11.678417,3.60467164 11.0824397,3.00296066 Z M10.6973319,7.1184217 C10.2111598,7.61301369 9.54622934,7.89088136 8.85270071,7.88927431 C8.15946016,7.8908405 7.49484154,7.61295918 7.00902513,7.1184217 C6.51730283,6.62317344 6.24242966,5.95289079 6.24486174,5.254997 C6.24486174,3.80184427 7.41515615,2.62040116 8.85270071,2.62040116 C9.5496534,2.62040116 10.2045596,2.89402198 10.6973319,3.39252791 C11.1889298,3.88757331 11.4636994,4.55765368 11.4611767,5.25531554 C11.463749,5.9530808 11.1889782,6.62327843 10.6973319,7.1184217 L10.6973319,7.1184217 Z" id="Shape"></path>
                <path d="M10.5501691,3.54128335 C10.1030997,3.08579584 9.49124949,2.82982472 8.85301924,2.83127076 C8.21511305,2.83004601 7.60364185,3.08600269 7.15682497,3.54128335 C6.70449705,3.99681726 6.451624,4.61336003 6.45382013,5.25531554 C6.45382013,5.90225837 6.70355089,6.51065857 7.15682497,6.96871065 C7.60356805,7.42413881 8.21505938,7.68021874 8.85301924,7.67904178 C10.1765286,7.67904178 11.253174,6.59156624 11.253174,5.25531554 C11.2551952,4.61339421 11.0023485,3.99691574 10.5501691,3.54128335 L10.5501691,3.54128335 Z M8.85270071,7.12893332 C8.3596112,7.12993052 7.88694807,6.93206886 7.54161421,6.58009901 C7.19154519,6.22557051 6.99819497,5.7550956 6.99819497,5.254997 C6.99819497,4.75489841 7.19154519,4.28442349 7.54161421,3.929895 C7.88705127,3.57807743 8.35964727,3.38024388 8.85270071,3.38106068 C9.34865836,3.38106068 9.81435527,3.57568504 10.1644243,3.929895 C10.5140135,4.28215112 10.7095654,4.75871582 10.7081621,5.254997 C10.7081621,6.28864027 9.87583235,7.12893332 8.85270071,7.12893332 Z M17.3225234,2.25344984 L17.3225234,7.81792266 C17.3242924,8.36626649 17.1082001,8.89286269 16.721768,9.28190555 C16.3402993,9.67125557 15.8178347,9.89016465 15.2727562,9.88903161 C14.7277045,9.88956502 14.2053642,9.67075611 13.8234259,9.28190555 C13.5498062,9.0053172 13.3598872,8.65705887 13.2755472,8.27724888 L12.7203422,8.27724888 C12.8116227,8.80455696 13.0624393,9.2911812 13.4389552,9.6714728 C13.9219776,10.1637593 14.5830789,10.4405101 15.2727562,10.4391401 C15.966205,10.4391401 16.6169703,10.1667934 17.1071943,9.6714728 C17.5974183,9.17615222 17.8668982,8.51869776 17.8668982,7.81824119 L17.8668982,2.25376837 L17.3225234,2.25376837 L17.3225234,2.25344984 L17.3225234,2.25344984 Z" id="Shape"></path>
                <path d="M15.2727562,7.93291348 C15.7309439,7.93161992 16.1796893,7.80255595 16.5685531,7.56022854 L16.5685531,7.81792266 C16.5685531,8.53972101 15.9872283,9.12677943 15.2727562,9.12677943 C14.9281941,9.12741352 14.5978865,8.98929741 14.3563335,8.74358286 C14.2263204,8.61066291 14.1260964,8.45158577 14.0623265,8.27693035 L13.4911948,8.27693035 C13.5713866,8.60048577 13.7375813,8.89633444 13.9721813,9.13315011 C14.3147348,9.48238542 14.7835654,9.67885105 15.2727562,9.67816201 C16.288243,9.67816201 17.1138835,8.84328404 17.1138835,7.81792266 L17.1138835,6.15421887 C17.0071363,6.38516571 16.8614597,6.59603039 16.6832254,6.77759017 C16.297162,7.16779449 15.7961078,7.38280503 15.2727562,7.38280503 C14.7279187,7.38353061 14.2056584,7.16521434 13.8234259,6.7769531 C13.4373659,6.38747986 13.221644,5.86071968 13.2236261,5.31233315 L13.2236261,2.2531313 L12.6792513,2.2531313 L12.6792513,5.31233315 C12.676689,6.00619542 12.949979,6.67263335 13.4389552,7.16492768 C13.9219451,7.65730076 14.5830397,7.93416356 15.2727562,7.93291348 L15.2727562,7.93291348 Z" id="Shape"></path>
                <path d="M13.9718628,6.62692353 C14.3142508,6.97640275 14.783189,7.17291348 15.2724377,7.17193543 C16.2700866,7.17193543 17.113565,6.2841808 17.113565,5.23397375 L17.113565,2.25344984 L16.5685531,2.25344984 L16.5685531,5.23397375 C16.5685531,5.97361001 15.9639753,6.62182698 15.2727562,6.62182698 C14.9281085,6.62225722 14.5978009,6.48391151 14.3563335,6.23799335 C14.1122659,5.99186544 13.9758253,5.6589549 13.9769594,5.31233315 L13.9769594,2.2531313 L13.4325845,2.2531313 L13.4325845,5.31233315 C13.4307215,5.80474096 13.6247336,6.27768115 13.9718628,6.62692353 L13.9718628,6.62692353 Z M26.6530253,0.309754539 L27.1974001,0.309754539 L27.1974001,8.27629328 L26.6530253,8.27629328 L26.6530253,0.309754539 Z M25.899055,0.309754539 L26.4434298,0.309754539 L26.4434298,8.27629328 L25.899055,8.27629328 L25.899055,0.309754539 Z M48.9262062,2.24707915 L49.4705811,2.24707915 L49.4705811,8.27693035 L48.9262062,8.27693035 L48.9262062,2.24707915 Z M48.1719174,2.24707915 L48.7162922,2.24707915 L48.7162922,8.27693035 L48.1719174,8.27693035 L48.1719174,2.24707915 Z M51.3929346,0.309754539 L51.9373094,0.309754539 L51.9373094,8.27629328 L51.3929346,8.27629328 L51.3929346,0.309754539 Z M50.6402384,0.309754539 L51.1846133,0.309754539 L51.1846133,8.27629328 L50.6402384,8.27629328 L50.6402384,0.309754539 Z M20.1377281,3.66997114 C19.698788,4.11368919 19.4567021,4.70329588 19.4567021,5.33048959 C19.4567021,5.95768331 19.6984695,6.54728999 20.1377281,6.99100804 C20.5703825,7.43245907 21.1629303,7.68055042 21.7810457,7.67904178 C23.0628271,7.67904178 24.1057078,6.62501232 24.1057078,5.33048959 L24.1057078,2.98193741 L21.7810457,2.98193741 C21.1629809,2.98068197 20.5705274,3.22873381 20.1377281,3.66997114 L20.1377281,3.66997114 Z M23.561333,5.33048959 C23.561333,6.32208636 22.7630864,7.12893332 21.7813642,7.12893332 C21.3081666,7.12970852 20.8546153,6.93979108 20.5231544,6.60207786 C20.1874194,6.26252047 20.0013955,5.81147614 20.0013955,5.33048959 C20.0013955,4.84950305 20.1874194,4.39845871 20.5231544,4.05826425 C20.8548861,3.72102818 21.308317,3.53139074 21.7813642,3.53204586 L23.561333,3.53204586 L23.561333,5.33048959 L23.561333,5.33048959 Z" id="Shape"></path>
                <path d="M21.7810457,2.22032229 C20.0838958,2.22032229 18.7033689,3.61582034 18.7033689,5.33048959 C18.7002984,6.15389872 19.0245788,6.94477622 19.6048205,7.5290122 C20.1781323,8.1131206 20.9625914,8.44162431 21.7810457,8.44033836 C22.4201467,8.44050561 23.0430183,8.23908668 23.5610144,7.86474718 L23.5610144,8.27661182 L24.1053893,8.27661182 L24.1053893,6.34661349 C23.9793577,6.64242452 23.798548,6.91174768 23.5724817,7.14040055 C23.100068,7.62052782 22.454296,7.89031697 21.7807272,7.88895577 C21.1074392,7.89031193 20.4619659,7.6205036 19.9899282,7.14040055 C19.5124882,6.65901086 19.2455626,6.00784978 19.2477437,5.32985252 C19.2477437,3.91810923 20.3842735,2.77043074 21.7807272,2.77043074 L24.3137106,2.77043074 L24.3137106,8.27629328 L24.859041,8.27629328 L24.859041,2.21968522 L21.7810457,2.21968522 L21.7810457,2.22032229 L21.7810457,2.22032229 Z M42.363766,3.66997114 C41.9251445,4.11368919 41.6830585,4.70329588 41.6830585,5.33048959 C41.6830585,5.95768331 41.9251445,6.54728999 42.363766,6.99100804 C42.7966012,7.43238554 43.3892124,7.68045536 44.0074021,7.67904178 C45.2888649,7.67904178 46.3317457,6.62501232 46.3317457,5.33048959 L46.3317457,2.98193741 L44.0074021,2.98193741 C43.3892413,2.9806684 42.7966839,3.22871568 42.363766,3.66997114 L42.363766,3.66997114 Z M45.7873709,5.33048959 C45.7873709,6.32208636 44.9891243,7.12893332 44.0074021,7.12893332 C43.5342716,7.12983931 43.0807705,6.9398948 42.7495108,6.60207786 C42.4121831,6.26252047 42.2274334,5.81147614 42.2274334,5.33048959 C42.2274334,4.84950305 42.4121831,4.39845871 42.7495108,4.05826425 C43.0810006,3.7208641 43.5344078,3.53118857 44.0074021,3.53204586 L45.7873709,3.53204586 L45.7873709,5.33048959 Z" id="Shape"></path>
                <path d="M44.0074021,2.22032229 C42.3102522,2.22032229 40.9297253,3.61582034 40.9297253,5.33048959 C40.9265146,6.15392608 41.2508162,6.9448552 41.8311769,7.5290122 C42.4044475,8.11318149 43.1889334,8.44169643 44.0074021,8.44033836 C44.6465031,8.44050561 45.2693747,8.23908668 45.7873709,7.86474718 L45.7873709,8.27661182 L46.3317457,8.27661182 L46.3317457,6.34661349 C46.205361,6.64246442 46.0242316,6.91178094 45.7978825,7.14040055 C45.3260458,7.62060716 44.6806227,7.89044245 44.0074021,7.88895577 C43.3340181,7.8903256 42.6884408,7.6205218 42.2162847,7.14040055 C41.7388446,6.65901086 41.471919,6.00784978 41.4741001,5.32985252 C41.4741001,3.91810923 42.6106299,2.77043074 44.0074021,2.77043074 L46.540067,2.77043074 L46.540067,8.27629328 L47.0844419,8.27629328 L47.0844419,2.21968522 L44.0074021,2.21968522 L44.0074021,2.22032229 L44.0074021,2.22032229 Z M3.70710028,5.43369465 C4.00823831,5.30569581 4.28121504,5.11963436 4.51044337,4.88613447 C5.02837987,4.36278289 5.33735798,3.61645741 5.33735798,2.88956251 C5.33448634,2.19315814 5.05930823,1.5255054 4.57064632,1.02932315 C4.09188951,0.545788334 3.46756261,0.289686888 2.76551337,0.289686888 L0.00477801204,0.289686888 L0.00477801204,8.26482605 L0.549152851,8.26482605 L0.549152851,0.840113875 L2.76551337,0.840113875 C3.3200813,0.840113875 3.8109424,1.04047185 4.18553855,1.41857187 C4.56586831,1.8024055 4.79266461,2.35251395 4.79266461,2.88924397 C4.79266461,3.46483516 4.53624463,4.08056164 4.1253356,4.49624869 C3.75933987,4.86574829 3.29587271,5.06228385 2.78430688,5.0673804 L5.02137212,8.26195925 L5.68901967,8.26195925 L3.70710028,5.43369465 L3.70710028,5.43369465 Z" id="Shape"></path>
                <path d="M2.38199827,4.858422 L2.7658319,4.858422 C3.95205303,4.858422 4.58434329,3.71488445 4.58434329,2.88988104 C4.58434329,2.40698329 4.37984437,1.91325538 4.03805724,1.56796438 C3.70391493,1.22999966 3.26338222,1.05162054 2.76551337,1.05162054 L0.75779271,1.05162054 L0.75779271,8.26514459 L1.30312315,8.26514459 L1.30312315,1.60204753 L2.76551337,1.60204753 C3.12067893,1.60204753 3.41978248,1.72086076 3.65263094,1.95721309 C3.89668897,2.20674273 4.03499163,2.54086005 4.03869431,2.88988104 C4.03869431,3.48458427 3.59656893,4.30831355 2.76551337,4.30831355 L1.32924295,4.30831355 L4.09826019,8.26259631 L4.76590774,8.26259631 L2.38199827,4.858422 L2.38199827,4.858422 Z M39.186388,0.311665744 L38.6346868,0.311665744 L40.0400594,8.28871611 L40.5933532,8.28871611 L39.186388,0.311665744 L39.186388,0.311665744 Z M35.5875893,5.06483212 L33.4088158,0.311665744 L32.8102902,0.311665744 L35.5875893,6.37432596 L38.3645699,0.311665744 L37.7660442,0.311665744 L35.5875893,5.06483212 Z M30.5818253,8.28871611 L31.1354377,8.28871611 L32.5408103,0.311665744 L31.9852867,0.311665744 L30.5818253,8.28871611 L30.5818253,8.28871611 Z" id="Shape"></path>
                <polygon id="Shape" points="35.5875893 6.87633575 32.7051739 0.582419759 31.3469443 8.28871611 31.8999196 8.28871611 32.9377038 2.40156821 35.5875893 8.18678519 38.2377933 2.40156821 39.2743034 8.28871611 39.8285528 8.28871611 38.4703232 0.582419759"></polygon>
            </g>
        </g>
    </g>
</svg>