<?xml version="1.0" encoding="UTF-8"?>
<svg width="63px" height="56px" viewBox="0 0 63 56" version="1.1" xmlns="http://www.w3.org/2000/svg" xmlns:xlink="http://www.w3.org/1999/xlink">
    <!-- Generator: Sketch 43.2 (39069) - http://www.bohemiancoding.com/sketch -->
    <title>Tesco</title>
    <desc>Created with Sketch.</desc>
    <defs></defs>
    <g id="Page-1" stroke="none" stroke-width="1" fill="none" fill-rule="evenodd" opacity="0.349999994">
        <g id="Tesco" transform="translate(-0.288807, 20.039975)" fill-rule="nonzero" fill="#001731">
            <path d="M5.09265105,14.1319281 C3.84001927,14.1319281 2.82564112,14.8488806 2.33598451,15.3570089 C2.33598451,15.3570089 1.14440327,16.5379454 0.337596944,16.9468275 C0.302218941,16.9662384 0.3028451,17.0053734 0.351998609,17.0053734 L7.64487656,17.0053734 C9.08660846,17.0053734 9.76442596,16.5169691 10.6200727,15.7508631 C10.6200727,15.7508631 11.8658167,14.5930945 12.7202112,14.2192774 C12.8063081,14.1867171 12.7859579,14.1319281 12.7202112,14.1319281 L5.09265105,14.1319281 L5.09265105,14.1319281 Z M17.6214735,14.1319281 C16.3688417,14.1319281 15.3554028,14.8488806 14.8648069,15.3570089 C14.8648069,15.3570089 13.6735388,16.5379454 12.8667325,16.9468275 C12.8310414,16.9662384 12.8316675,17.0053734 12.8811341,17.0053734 L20.1884137,17.0053734 C21.6298326,17.0053734 22.3082762,16.5169691 23.1636099,15.7508631 C23.1636099,15.7508631 24.3955784,14.5930945 25.2493467,14.2192774 C25.3354436,14.1867171 25.329182,14.1319281 25.2637483,14.1319281 L17.6214735,14.1319281 L17.6214735,14.1319281 Z M30.1646976,14.1319281 C28.9123789,14.1319281 27.8983138,14.8488806 27.408031,15.3570089 C27.408031,15.3570089 26.2164498,16.5379454 25.4096435,16.9468275 C25.3745786,16.9662384 25.3755178,17.0053734 25.4246713,17.0053734 L32.7319509,17.0053734 C34.1733697,17.0053734 34.8367856,16.5169691 35.6927454,15.7508631 C35.6927454,15.7508631 36.9384894,14.5930945 37.7925708,14.2192774 C37.8789808,14.1867171 37.8727192,14.1319281 37.8072855,14.1319281 L30.1646976,14.1319281 L30.1646976,14.1319281 Z M42.69352,14.1319281 C41.4415144,14.1319281 40.441851,14.8488806 39.9512551,15.3570089 C39.9512551,15.3570089 38.7452722,16.5379454 37.9381528,16.9468275 C37.9030879,16.9662384 37.9040271,17.0053734 37.9531807,17.0053734 L45.2601472,17.0053734 C46.7018791,17.0053734 47.3800097,16.5169691 48.2356564,15.7508631 C48.2356564,15.7508631 49.4823397,14.5930945 50.336108,14.2192774 C50.422831,14.1867171 50.4012285,14.1319281 50.336108,14.1319281 L42.69352,14.1319281 L42.69352,14.1319281 Z M55.236431,14.1319281 C53.9841123,14.1319281 52.9694211,14.8488806 52.4797645,15.3570089 C52.4797645,15.3570089 51.2875571,16.5379454 50.4810638,16.9468275 C50.4453728,16.9662384 50.4466251,17.0053734 50.4954655,17.0053734 L57.8033713,17.0053734 C59.2447901,17.0053734 59.9222945,16.5169691 60.7788805,15.7508631 C60.7788805,15.7508631 62.0111621,14.5930945 62.8639911,14.2192774 C62.9500881,14.1867171 62.9447657,14.1319281 62.8787059,14.1319281 L55.236431,14.1319281 L55.236431,14.1319281 Z" id="path3996"></path>
            <path d="M30.6170977,0.261559284 C27.9512243,0.261559284 25.3517237,1.0530247 25.3517237,3.70355723 C25.3517237,8.29361834 33.3587364,5.86881626 33.3587364,8.67714095 C33.3587364,9.59258592 31.9389201,9.96076761 30.7921092,9.96076761 C28.732045,9.96076761 27.3122287,9.65426261 25.5123336,8.57507697 L25.5123336,10.8793434 C26.8541931,11.321725 28.6797607,11.5358715 30.6609289,11.5358715 C33.4263616,11.5358715 36.0136521,10.8217367 36.0136521,8.10827518 C36.0136521,3.31565151 28.0063263,5.46901352 28.0063263,3.1202898 C28.0063263,2.1744761 29.2912053,1.85137787 30.4132828,1.85137787 C32.3014664,1.85137787 34.3399281,2.4039635 35.4598141,3.44088338 L35.4598141,0.990721847 C34.0105683,0.533312442 32.0863806,0.261559284 30.6170977,0.261559284 L30.6170977,0.261559284 Z M44.7645421,0.290675693 C39.9559513,0.290675693 36.771931,2.60214293 36.771931,6.12460236 C36.771931,9.35746308 39.6942167,11.5211567 44.0644959,11.5211567 C45.4802422,11.5211567 46.7438318,11.3355005 48.2209417,10.9810943 L48.2209417,8.25354415 C47.176821,9.35683692 45.9357731,9.79953158 44.6039322,9.79953158 C42.0229033,9.79953158 40.2574471,8.19155437 40.2574471,5.87601709 C40.2574471,3.59210087 42.0877108,1.9233862 44.6471372,1.9233862 C46.0419071,1.9233862 47.1599147,2.43057527 48.0600187,3.30938992 L48.0600187,0.581839791 C47.1242236,0.388982711 45.9504879,0.290675693 44.7645421,0.290675693 L44.7645421,0.290675693 Z M55.9799953,0.290675693 C51.8363858,0.290675693 48.9062731,2.67602974 48.9062731,6.03694005 C48.9062731,9.3339821 51.5373947,11.5214698 55.4552737,11.5214698 C59.617668,11.5214698 62.4848517,9.19591397 62.4848517,5.81872351 C62.4857909,2.50508823 59.8784634,0.290675693 55.9799953,0.290675693 L55.9799953,0.290675693 Z M0.746479,0.625984025 L0.746479,3.20763902 C1.64720922,2.50947135 3.53100963,2.24617134 5.58856925,2.23051736 L5.58856925,9.27481005 C5.58856925,10.2992067 5.49808923,10.590997 5.06353464,11.1273025 L9.13294425,11.1273025 C8.67616101,10.590997 8.60759656,10.2992067 8.60759656,9.27481005 L8.60759656,2.17165838 C10.3908984,2.18731236 12.5198402,2.50884519 13.4205704,3.2079521 L13.4205704,0.626297105 L0.746479,0.626297105 L0.746479,0.625984025 L0.746479,0.625984025 Z M14.5147839,0.625984025 C14.9405722,1.16197643 15.0251037,1.46754219 15.0251037,2.49287813 L15.0251037,9.27481005 C15.0251037,10.2992067 14.9480861,10.6069641 14.5439003,11.1273025 L24.374289,11.1273025 L24.374289,8.57507697 C23.0255417,9.53529234 20.4586015,9.53873621 19.41542,9.52276915 L17.9862113,9.52276915 L17.9862113,6.59140415 L19.0362805,6.59140415 C19.7479106,6.59140415 21.0318504,6.67562258 21.7782323,6.89790915 L21.7782323,4.71042146 C21.0424951,4.94679662 19.7457191,5.01692647 19.0362805,5.01692647 L17.9862113,5.01692647 L17.9862113,2.23176968 L19.41542,2.23176968 C20.692472,2.23176968 22.9134592,2.49600892 23.7471904,3.19448968 L23.7471904,0.627549424 L14.5147839,0.627549424 L14.5147839,0.625984025 L14.5147839,0.625984025 Z M55.703859,1.88049428 C57.8741273,1.88049428 59.3061537,3.67600622 59.3061537,5.891358 C59.3061537,8.10670978 57.8741273,9.90253479 55.703859,9.90253479 C53.4982127,9.90253479 52.0859103,8.10670978 52.0859103,5.891358 C52.0862233,3.6763193 53.4982127,1.88049428 55.703859,1.88049428 L55.703859,1.88049428 Z" id="path4006"></path>
        </g>
    </g>
</svg>