<?xml version="1.0" encoding="UTF-8"?>
<svg width="33px" height="56px" viewBox="0 0 33 56" version="1.1" xmlns="http://www.w3.org/2000/svg" xmlns:xlink="http://www.w3.org/1999/xlink">
    <!-- Generator: Sketch 43.2 (39069) - http://www.bohemiancoding.com/sketch -->
    <title>Twitter </title>
    <desc>Created with Sketch.</desc>
    <defs></defs>
    <g id="Page-1" stroke="none" stroke-width="1" fill="none" fill-rule="evenodd" opacity="0.349999994">
        <path d="M10.4750186,41.0433127 C22.5510941,41.0433127 29.1550301,31.0388329 29.1550301,22.3633012 C29.1550301,22.0791387 29.1492422,21.7962647 29.1364961,21.5146686 C30.4184113,20.5879485 31.5325974,19.4314758 32.4114041,18.1149838 C31.2350444,18.6378652 29.9691289,18.9898604 28.6411472,19.1485803 C29.9966185,18.3357808 31.0372485,17.050032 31.5281947,15.5172746 C30.2597021,16.269275 28.8549429,16.8158339 27.359232,17.1109171 C26.1611813,15.8348004 24.4555404,15.0366369 22.5669221,15.0366369 C18.9413075,15.0366369 16.0012137,17.9768381 16.0012137,21.6010567 C16.0012137,22.1162496 16.0588129,22.6173756 16.1714557,23.0980562 C10.7148865,22.8234935 5.87640269,20.2110087 2.63821906,16.2385533 C2.07438252,17.2087842 1.74926484,18.335813 1.74926484,19.5383736 C1.74926484,21.816141 2.90833615,23.8269589 4.67088908,25.0033186 C3.59374953,24.970039 2.58189768,24.6743567 1.69750717,24.182197 C1.69654074,24.2097424 1.69654074,24.2365973 1.69654074,24.2660369 C1.69654074,27.4455905 3.95959685,30.1002654 6.96368975,30.7018141 C6.41200875,30.8522121 5.83157109,30.9328553 5.23249209,30.9328553 C4.8100979,30.9328553 4.39857068,30.8912816 3.99857618,30.8144569 C4.83440897,33.4230653 7.25812865,35.3213479 10.1316462,35.3743942 C7.88458983,37.1356585 5.05391736,38.1846642 1.97744962,38.1846642 C1.44816832,38.1846642 0.925297657,38.1545589 0.411404057,38.0937833 C3.31702851,39.9562006 6.76718238,41.0428971 10.475373,41.0428971" id="Twitter-" fill="#001731" fill-rule="nonzero"></path>
    </g>
</svg>