<?xml version="1.0" encoding="UTF-8"?>
<svg width="71px" height="56px" viewBox="0 0 71 56" version="1.1" xmlns="http://www.w3.org/2000/svg" xmlns:xlink="http://www.w3.org/1999/xlink">
    <!-- Generator: Sketch 43.2 (39069) - http://www.bohemiancoding.com/sketch -->
    <title>University of Oxford</title>
    <desc>Created with Sketch.</desc>
    <defs></defs>
    <g id="Page-1" stroke="none" stroke-width="1" fill="none" fill-rule="evenodd" opacity="0.349999994">
        <g id="University-of-Oxford" transform="translate(0.654435, 16.992392)" fill-rule="nonzero">
            <polyline id="path3812" fill="#001731" points="69.5650829 21.4701906 -7.3397898e-15 21.4701906 -9.96112398e-15 0.0653725511 69.5650829 0.0653725511"></polyline>
            <path d="M27.2483027,13.4469085 C27.2483027,15.250846 26.3739654,16.5093918 24.8986444,16.5093918 C23.2947058,16.5093918 22.5466835,14.9978869 22.5466835,13.4469085 C22.5466835,11.6439577 23.4220077,10.3863988 24.8986444,10.3863988 C26.5019252,10.3863988 27.2483027,11.8975748 27.2483027,13.4469085 M28.3427047,13.4827635 C28.3427047,11.4988927 26.8117919,10.05844 24.8986444,10.05844 C22.9483261,10.05844 21.4535974,11.5150111 21.4535974,13.4117113 C21.4535974,15.3968979 22.9845101,16.8373506 24.8986444,16.8373506 C26.8486339,16.8373506 28.3427047,15.3788059 28.3427047,13.4827635" id="path3824" fill="#FFFFFF" transform="translate(24.898151, 13.447895) scale(-1, 1) rotate(-180.000000) translate(-24.898151, -13.447895) "></path>
            <path d="M48.2800372,13.4469085 C48.2800372,15.250846 47.404713,16.5093918 45.9293921,16.5093918 C44.3254534,16.5093918 43.578418,14.9978869 43.578418,13.4469085 C43.578418,11.6439577 44.4530843,10.3863988 45.9293921,10.3863988 C47.5323439,10.3863988 48.2800372,11.8975748 48.2800372,13.4469085 M49.3734524,13.4827635 C49.3734524,11.4988927 47.8422107,10.05844 45.9293921,10.05844 C43.9787448,10.05844 42.484345,11.5150111 42.484345,13.4117113 C42.484345,15.3968979 44.0155867,16.8373506 45.9293921,16.8373506 C47.8790526,16.8373506 49.3734524,15.3788059 49.3734524,13.4827635" id="path3828" fill="#FFFFFF" transform="translate(45.928899, 13.447895) scale(-1, 1) rotate(-180.000000) translate(-45.928899, -13.447895) "></path>
            <path d="M53.5469462,12.3555723 C53.1637245,12.9022798 53.0176727,13.1016209 52.54432,13.1016209 L52.0337965,13.1016209 L52.0337965,10.8782777 C52.0337965,10.6957129 52.1068224,10.6062397 52.3078081,10.5690688 L53.0545146,10.4052539 L53.0545146,10.1670973 L50.12032,10.1670973 L50.12032,10.4052539 L50.7949874,10.5690688 C50.9949863,10.6226869 51.0680122,10.6957129 51.0680122,10.8782777 L51.0680122,16.0173945 C51.0680122,16.2002882 50.9949863,16.2726563 50.7949874,16.3269323 L50.12032,16.4910761 L50.12032,16.7289038 L52.9814887,16.7289038 C53.5837881,16.7289038 54.0025358,16.6736409 54.3485865,16.5469969 C55.0594379,16.2726563 55.4600937,15.597331 55.4600937,14.9611502 C55.4600937,14.1581941 54.8587811,13.4828688 53.8564839,13.2486595 L53.8564839,13.2121466 C54.0571408,13.1193839 54.1663507,12.9924109 54.8772021,12.0614949 L55.7699604,10.8782777 C55.8975913,10.6957129 56.0617351,10.5874898 56.2623919,10.54999 L56.9183094,10.4052539 L56.9183094,10.1670973 L55.3512127,10.1670973 C55.1689768,10.1670973 55.0778589,10.2226891 54.913715,10.4420958 L53.5469462,12.3555723 Z M52.0337965,13.4121455 L52.8541868,13.4121455 C54.0936537,13.4121455 54.3673364,14.1940491 54.3673364,14.9424003 C54.3673364,15.5075289 54.1117457,16.0361444 53.5285252,16.2907483 C53.2189874,16.4187081 52.9268837,16.4187081 52.526228,16.4187081 L52.0337965,16.4187081 L52.0337965,13.4121455 Z" id="path3832" fill="#FFFFFF" transform="translate(53.519315, 13.448001) scale(-1, 1) rotate(-180.000000) translate(-53.519315, -13.448001) "></path>
            <path d="M40.6985981,14.4873008 L40.9722809,14.4873008 L40.9722809,12.2998127 L40.6985981,12.2998127 L40.5344543,12.9554013 C40.4795204,13.1935579 40.3341264,13.2840179 40.1153776,13.2840179 L38.529531,13.2840179 L38.529531,10.8784389 C38.529531,10.696203 38.6025569,10.6064009 38.8032137,10.56923 L39.5502491,10.4054151 L39.5502491,10.1672585 L36.6163835,10.1672585 L36.6163835,10.4054151 L37.2907219,10.56923 C37.4910498,10.6228481 37.5644046,10.696203 37.5644046,10.8784389 L37.5644046,16.0178846 C37.5644046,16.2004494 37.4910498,16.2728175 37.2907219,16.3270935 L36.6163835,16.4915663 L36.6163835,16.729065 L41.5732644,16.729065 L41.5732644,15.0872976 L41.2999107,15.0872976 L40.9903729,16.0728185 C40.917347,16.3270935 40.8078081,16.4188693 40.5890593,16.4188693 L38.529531,16.4188693 L38.529531,13.5945425 L40.1153776,13.5945425 C40.3341264,13.5945425 40.4614284,13.6843447 40.5344543,13.9225013 L40.6985981,14.4873008 Z" id="path3836" fill="#FFFFFF" transform="translate(39.094824, 13.448162) scale(-1, 1) rotate(-180.000000) translate(-39.094824, -13.448162) "></path>
            <path d="M59.3603653,16.4187706 L59.3603653,10.7701171 C59.3603653,10.5319605 59.4146413,10.4763687 59.65214,10.4763687 L60.4534514,10.4763687 C61.2192367,10.4763687 61.7840363,10.5875523 62.185021,10.8783402 C62.8593594,11.3697849 63.1692262,12.2628721 63.1692262,13.3934581 C63.1692262,14.5049652 62.8593594,15.5973935 61.9485091,16.126338 C61.5659454,16.3457447 61.0735138,16.4187706 60.3077285,16.4187706 L59.3603653,16.4187706 Z M57.4462309,10.1671598 L57.4462309,10.4053164 L58.1208983,10.5691313 C58.3215551,10.6227494 58.3942521,10.6961043 58.3942521,10.8783402 L58.3942521,16.017786 C58.3942521,16.2003507 58.3215551,16.2727188 58.1208983,16.3269948 L57.4462309,16.4911386 L57.4462309,16.7289663 L60.5268063,16.7289663 C61.3649596,16.7289663 61.9662722,16.6194274 62.4587037,16.4006786 C63.6978417,15.8355501 64.2629702,14.614833 64.2629702,13.412208 C64.2629702,12.2441222 63.8254726,11.1520229 62.7139655,10.5691313 C62.2037709,10.2941328 61.4925905,10.1671598 60.5636482,10.1671598 L57.4462309,10.1671598 Z" id="path3840" fill="#FFFFFF" transform="translate(60.854601, 13.448063) scale(-1, 1) rotate(-180.000000) translate(-60.854601, -13.448063) "></path>
            <path d="M30.9125624,10.4053493 L30.9125624,10.1671927 L28.5981013,10.1671927 L28.5981013,10.4053493 L29.180335,10.5504143 C29.4000707,10.6063351 29.5451357,10.6773873 29.6908586,10.8412022 L31.6957819,13.3563201 L29.6908586,16.0178188 C29.5635566,16.2003836 29.4000707,16.2908437 29.198756,16.3457776 L28.6520484,16.4911715 L28.6520484,16.7289992 L31.531638,16.7289992 L31.531638,16.4911715 L30.9125624,16.3641985 C30.6934847,16.3270277 30.7480897,16.2365677 30.8569706,16.0901869 L32.3332784,13.9763826 L32.3697914,13.9763826 L33.8826121,16.0901869 C33.992151,16.2365677 34.0289929,16.2908437 33.8280071,16.3457776 L33.2447866,16.4911715 L33.2447866,16.7289992 L35.5592477,16.7289992 L35.5592477,16.4911715 L34.9760272,16.3457776 C34.7579363,16.2908437 34.6118845,16.2188046 34.4655037,16.0546608 L32.5704482,13.6658579 L34.6842525,10.8783731 C34.8125413,10.6961372 34.9760272,10.6063351 35.1763551,10.5504143 L35.7237205,10.4053493 L35.7237205,10.1671927 L32.8441309,10.1671927 L32.8441309,10.4053493 L33.4635354,10.5319934 C33.6826132,10.5691642 33.6457713,10.6402165 33.5365614,10.7888999 L31.9326227,13.0484271 L31.8964387,13.0484271 L30.274408,10.8043603 C30.1648691,10.6589664 30.1283562,10.6063351 30.329013,10.5504143 L30.9125624,10.4053493 Z" id="path3844" fill="#FFFFFF" transform="translate(32.160911, 13.448096) scale(-1, 1) rotate(-180.000000) translate(-32.160911, -13.448096) "></path>
            <path d="M24.0088795,4.51702602 C23.8276305,4.335777 23.5559215,4.21505397 23.1763183,4.21505397 C22.845728,4.21505397 22.5394796,4.31900078 22.331915,4.52656544 C22.0486928,4.80945864 22.0618506,5.17064089 22.0618506,5.55649406 L22.0618506,7.38148415 L22.4338881,7.38148415 L22.4338881,5.42096848 C22.4338881,5.17294351 22.4263223,4.9311685 22.6180976,4.73972218 C22.7509916,4.60682816 22.9552668,4.53511802 23.1907919,4.53511802 C23.4207248,4.53511802 23.6055922,4.61439391 23.7203943,4.72985381 C23.933551,4.9426816 23.9200642,5.17524613 23.9200642,5.73675624 L23.9200642,7.38148415 L24.2868385,7.38148415 L24.2868385,5.83346624 C24.2868385,5.24498259 24.3105226,4.81866912 24.0088795,4.51702602" id="path3848" fill="#FFFFFF" transform="translate(23.174515, 5.798269) scale(-1, 1) rotate(-180.000000) translate(-23.174515, -5.798269) "></path>
            <polygon id="path3852" fill="#FFFFFF" transform="translate(26.590221, 5.769055) scale(-1, 1) rotate(-180.000000) translate(-26.590221, -5.769055) " points="27.3115984 4.214952 25.8142382 6.76263554 25.8237776 4.214952 25.4816742 4.214952 25.4816742 7.32315881 25.8629221 7.32315881 27.3658745 4.76133061 27.356335 7.32315881 27.6987674 7.32315881 27.6987674 4.214952"></polygon>
            <polyline id="path3854" fill="#FFFFFF" points="28.9945794 4.21502108 29.3685906 4.21502108 29.3685906 7.32289894 28.9945794 7.32289894"></polyline>
            <polygon id="path3858" fill="#FFFFFF" transform="translate(31.489694, 5.768924) scale(-1, 1) rotate(-180.000000) translate(-31.489694, -5.768924) " points="31.6936404 4.21498489 31.2653533 4.21498489 30.1939775 7.32286276 30.583778 7.32286276 31.4900231 4.57912765 32.4235707 7.32286276 32.7854108 7.32286276"></polygon>
            <polygon id="path3862" fill="#FFFFFF" transform="translate(34.494714, 5.768924) scale(-1, 1) rotate(-180.000000) translate(-34.494714, -5.768924) " points="33.6313964 4.21498489 33.6313964 7.32286276 35.3211898 7.32286276 35.3211898 7.01299602 33.9978418 7.01299602 33.9978418 5.98734369 35.2402692 5.98734369 35.2402692 5.6850427 33.9978418 5.6850427 33.9978418 4.53406211 35.3580317 4.53406211 35.3580317 4.21498489"></polygon>
            <path d="M38.0604184,4.21498372 L37.7035124,5.02057146 C37.482461,5.5159635 37.3814747,5.56695007 36.9308193,5.56695007 L36.7143731,5.56695007 L36.7143731,4.21498372 L36.3475987,4.21498372 L36.3475987,7.32286159 L37.0183188,7.32286159 C37.4327902,7.32286159 37.7456175,7.32549315 37.990024,7.08108659 C38.1456153,6.92549532 38.2324569,6.7189175 38.2324569,6.45970838 C38.2324569,6.24359113 38.1696283,6.06398684 38.0396948,5.92550075 C37.9278533,5.80642245 37.7426569,5.70181776 37.5413423,5.68043629 C37.6505522,5.67418633 37.7410122,5.61497612 37.7995645,5.55609486 C37.8844325,5.47188479 37.9459453,5.34359602 38.0370632,5.14030765 L38.44989,4.21498372 L38.0604184,4.21498372 Z M37.7209465,6.85510097 C37.542987,7.03338948 37.3117382,7.02516584 37.0584501,7.02516584 L36.7143731,7.02516584 L36.7143731,5.86431687 L36.8377277,5.86431687 C37.1515417,5.86431687 37.4893689,5.84819854 37.7025256,6.06135528 C37.8054856,6.16431525 37.863051,6.30872236 37.863051,6.46628729 C37.863051,6.64128634 37.7943014,6.7817461 37.7209465,6.85510097 L37.7209465,6.85510097 Z" id="path3866" fill="#FFFFFF" transform="translate(37.398744, 5.768923) scale(-1, 1) rotate(-180.000000) translate(-37.398744, -5.768923) "></path>
            <polyline id="path3868" fill="#FFFFFF" points="42.0800347 4.21502108 42.4540458 4.21502108 42.4540458 7.32289894 42.0800347 7.32289894"></polyline>
            <polygon id="path3872" fill="#FFFFFF" transform="translate(44.399400, 5.768960) scale(-1, 1) rotate(-180.000000) translate(-44.399400, -5.768960) " points="44.5877218 7.0130322 44.5877218 4.21502108 44.2143685 4.21502108 44.2143685 7.0130322 43.2900314 7.0130322 43.2900314 7.32289894 45.5087694 7.32289894 45.5087694 7.0130322"></polygon>
            <polygon id="path3876" fill="#FFFFFF" transform="translate(47.113096, 5.768891) scale(-1, 1) rotate(-180.000000) translate(-47.113096, -5.768891) " points="47.2976347 5.4432348 47.2976347 4.214952 46.9285577 4.214952 46.9285577 5.4432348 45.9420499 7.32282986 46.3693502 7.32282986 47.1351356 5.86527199 47.8792105 7.32282986 48.2841425 7.32282986"></polygon>
            <path d="M51.7716959,4.15630429 C50.967424,4.15630429 50.3792693,4.82077437 50.3792693,5.75497982 C50.3792693,6.71484303 50.961174,7.38161573 51.8006431,7.38161573 C52.6137966,7.38161573 53.1884645,6.72175089 53.1884645,5.78359809 C53.1884645,4.82143226 52.6128098,4.15630429 51.7716959,4.15630429 M51.7703801,7.06418324 C51.1615019,7.06418324 50.7661093,6.54971235 50.7661093,5.77471656 C50.7661093,5.00235233 51.2065674,4.47669729 51.7904458,4.47669729 C52.4401133,4.47669729 52.8016245,5.02932587 52.8016245,5.79905853 C52.8016245,6.55760704 52.3746532,7.06418324 51.7703801,7.06418324" id="path3880" fill="#FFFFFF" transform="translate(51.783867, 5.768960) scale(-1, 1) rotate(-180.000000) translate(-51.783867, -5.768960) "></path>
            <polygon id="path3884" fill="#FFFFFF" transform="translate(55.035718, 5.768960) scale(-1, 1) rotate(-180.000000) translate(-55.035718, -5.768960) " points="54.5814438 7.0130322 54.5814438 5.98737988 55.783082 5.98737988 55.783082 5.68507889 54.5814438 5.68507889 54.5814438 4.21502108 54.2103932 4.21502108 54.2103932 7.32289894 55.8610421 7.32289894 55.8610421 7.0130322"></polygon>
            <path d="M39.2030438,6.56632081 C39.2030438,7.0439498 39.5872522,7.38375059 40.1487623,7.38375059 C40.7171803,7.38375059 40.9898762,7.09033113 41.0175076,7.06006813 L40.8352717,6.83934565 C40.7655353,6.89296378 40.5168524,7.07585752 40.1731043,7.07585752 C39.7767249,7.07585752 39.5573182,6.8686218 39.5573182,6.58737333 C39.5573182,6.45118986 39.61291,6.35316407 39.7027121,6.27257241 C39.8092905,6.17717819 39.9648817,6.10645489 40.132315,6.02915268 C40.3408665,5.93342951 40.6263913,5.82586431 40.8178376,5.62718117 C40.9500737,5.49001087 41.0500732,5.31139341 41.0500732,5.06632896 C41.0500732,4.54955544 40.6915225,4.15580758 40.0464602,4.15580758 C39.4964632,4.15580758 39.1497546,4.45876646 39.117189,4.48902946 L39.2882407,4.74100177 C39.3763981,4.6755416 39.7217909,4.4712664 40.0372498,4.4712664 C40.5050104,4.4712664 40.6800094,4.727515 40.6800094,5.03606596 C40.6800094,5.17981518 40.6148782,5.29527508 40.5178393,5.38803773 C40.3727742,5.52751066 40.1533675,5.62126015 39.9431713,5.71731226 C39.7342909,5.81270648 39.5333051,5.91270594 39.3908717,6.06237618 C39.2967932,6.16073091 39.2030438,6.32191424 39.2030438,6.56632081" id="path3888" fill="#FFFFFF" transform="translate(40.083631, 5.769779) scale(-1, 1) rotate(-180.000000) translate(-40.083631, -5.769779) "></path>
            <path d="M10.6390574,10.5270592 C10.6390574,10.8017287 10.5459658,11.023767 10.3446511,11.1418585 C10.2186649,11.2158712 10.0479422,11.2402132 9.83741699,11.2402132 L8.30518847,11.2402132 L8.30518847,8.14713789 L9.97261362,8.14713789 C10.357151,8.14713789 10.5831366,8.0606252 10.6025444,7.71589023 L10.6390574,7.71589023 L10.6390574,10.5270592 Z" id="path3892" fill="#FFFFFF" transform="translate(9.472123, 9.478052) scale(-1, 1) rotate(-180.000000) translate(-9.472123, -9.478052) "></path>
            <path d="M10.8530332,10.5270592 C10.8530332,10.8017287 10.9461248,11.023767 11.1474395,11.1418585 C11.2737546,11.2158712 11.4444773,11.2402132 11.6553315,11.2402132 L13.1977573,11.2402132 L13.1977573,8.14713789 L11.5198059,8.14713789 C11.1355974,8.14713789 10.9096118,8.0606252 10.8898751,7.71589023 L10.8530332,7.71589023 L10.8530332,10.5270592 Z" id="path3896" fill="#FFFFFF" transform="translate(12.025395, 9.478052) scale(-1, 1) rotate(-180.000000) translate(-12.025395, -9.478052) "></path>
            <path d="M13.5203871,11.5879054 L13.5203871,8.31785736 L11.1493474,8.31785736 L11.1223738,8.2510814 C11.0812556,8.14910827 11.0072429,8.05470089 10.7486916,8.05470089 C10.4901404,8.05470089 10.4164566,8.14910827 10.3750095,8.2510814 L10.3480359,8.31785736 L7.98324614,8.31785736 L7.98324614,11.5879054 L7.76943151,11.5879054 L7.76943151,11.4882349 L7.56416946,11.5513924 C7.54048538,11.6319841 7.46680157,11.6915233 7.37831521,11.6915233 C7.27107895,11.6915233 7.18357942,11.6040237 7.18357942,11.4967875 C7.18357942,11.3888933 7.27107895,11.3017227 7.37831521,11.3017227 C7.42535443,11.3017227 7.46778841,11.3191569 7.50134086,11.3467883 L7.76943151,11.2645519 L7.76943151,11.0017244 L7.56811681,11.0379084 C7.53851171,11.1073159 7.46943313,11.1559998 7.38884147,11.1559998 C7.28160521,11.1559998 7.19410568,11.0688293 7.19410568,10.9612641 C7.19410568,10.8536989 7.28160521,10.7665283 7.38884147,10.7665283 C7.44443327,10.7665283 7.494433,10.7902124 7.52995912,10.8273832 L7.76943151,10.7842913 L7.76943151,10.5165296 L7.55890633,10.5257401 C7.52502494,10.5823187 7.46351211,10.6208054 7.39245987,10.6208054 C7.28522361,10.6208054 7.19772408,10.5336348 7.19772408,10.4260696 C7.19772408,10.3185044 7.28522361,10.2310049 7.39245987,10.2310049 C7.45759109,10.2310049 7.51449868,10.2632415 7.5500248,10.3119255 L7.76943151,10.3023861 L7.76943151,10.0112692 L7.5543011,10.0033745 C7.51910392,10.0530453 7.46153844,10.085282 7.39607827,10.085282 C7.28884201,10.085282 7.20134249,9.99811139 7.20134249,9.89054619 C7.20134249,9.78298098 7.28884201,9.6958104 7.39607827,9.6958104 C7.46647262,9.6958104 7.5276565,9.73363914 7.56186684,9.78955989 L7.76943151,9.79712564 L7.76943151,9.52870605 L7.53423541,9.48824574 C7.49870929,9.52607448 7.44838062,9.55008751 7.39245987,9.55008751 C7.28522361,9.55008751 7.19772408,9.46291693 7.19772408,9.35535172 C7.19772408,9.24778652 7.28522361,9.16061594 7.39245987,9.16061594 C7.47239365,9.16061594 7.54114327,9.20864199 7.57107732,9.27772057 L7.76943151,9.31160196 L7.76943151,9.04811655 L7.51219606,8.9698275 C7.47864361,8.99745893 7.43588069,9.01489305 7.38884147,9.01489305 C7.28160521,9.01489305 7.19410568,8.92772247 7.19410568,8.82015726 C7.19410568,8.71226311 7.28160521,8.62542148 7.38884147,8.62542148 C7.47732783,8.62542148 7.55134059,8.68463168 7.57502467,8.76522335 L7.76943151,8.8247625 L7.76943151,8.56982967 L7.48522252,8.44713297 C7.45463058,8.4675276 7.41778868,8.47936964 7.37831521,8.47936964 C7.27107895,8.47936964 7.18357942,8.39219906 7.18357942,8.28463385 C7.18357942,8.17706865 7.27107895,8.08989807 7.37831521,8.08989807 C7.47403837,8.08989807 7.5536432,8.15930559 7.56976154,8.25075246 L7.76943151,8.3369362 L7.76943151,8.10404273 L10.2161288,8.10404273 C10.3157993,7.93068841 10.4878378,7.84088626 10.7486916,7.84088626 C11.0095455,7.84088626 11.181913,7.93068841 11.2809256,8.10404273 L13.7342018,8.10404273 L13.7342018,11.5879054 L13.5203871,11.5879054 Z" id="path3900" fill="#FFFFFF" transform="translate(10.458891, 9.766205) scale(-1, 1) rotate(-180.000000) translate(-10.458891, -9.766205) "></path>
            <path d="M9.13886486,6.54701703 C8.64413071,6.54701703 8.24347499,6.46866336 8.24347499,6.37222807 C8.24347499,6.27545793 8.64413071,6.1974391 9.13886486,6.1974391 C9.63327007,6.1974391 10.0342547,6.27545793 10.0342547,6.37222807 C10.0342547,6.46866336 9.63327007,6.54701703 9.13886486,6.54701703" id="path3904" fill="#FFFFFF" transform="translate(9.138865, 6.697439) scale(-1, 1) rotate(-180.000000) translate(-9.138865, -6.697439) "></path>
            <path d="M10.3716542,6.51715003 L9.85488071,6.1539941 L9.85060442,6.1171522 L9.97330112,6.06188934 C9.99764309,6.04971835 9.99764309,6.03031056 9.98547211,6.01846852 L9.66080282,5.74445685 L9.62988193,5.74708842 L9.39994897,6.08590237 C9.38383064,6.10794172 9.38975166,6.12998108 9.41771203,6.13458631 L9.57198751,6.15991512 L9.57198751,6.1987307 L9.17166074,6.76418816 L9.10587162,6.76418816 L8.70554485,6.1987307 L8.70554485,6.15991512 L8.86014927,6.13458631 C8.8877807,6.12998108 8.89337277,6.10794172 8.87758339,6.08590237 L8.64732148,5.74708842 L8.61705848,5.74445685 L8.31344171,6.01846852 C8.30127072,6.03031056 8.30127072,6.04971835 8.3256127,6.06188934 L8.44863835,6.1171522 L8.44403311,6.1539941 L7.90554919,6.51715003 L7.86212837,6.50004486 L8.17791613,5.53426063 C8.33877052,5.60629971 8.70718957,5.65695733 9.13843723,5.658931 C9.57034278,5.65695733 9.93876184,5.60629971 10.0992873,5.53426063 L10.415404,6.50004486 L10.3716542,6.51715003 Z" id="path3908" fill="#FFFFFF" transform="translate(9.138766, 6.149224) scale(-1, 1) rotate(-180.000000) translate(-9.138766, -6.149224) "></path>
            <path d="M10.7447772,13.024051 C10.250043,13.024051 9.84938732,12.9456973 9.84938732,12.849262 C9.84938732,12.7524918 10.250043,12.674473 10.7447772,12.674473 C11.2391824,12.674473 11.6401671,12.7524918 11.6401671,12.849262 C11.6401671,12.9456973 11.2391824,13.024051 10.7447772,13.024051" id="path3912" fill="#FFFFFF" transform="translate(10.744777, 13.174473) scale(-1, 1) rotate(-180.000000) translate(-10.744777, -13.174473) "></path>
            <path d="M11.9776027,12.9944471 L11.4608292,12.6309622 L11.4565529,12.5941203 L11.5792496,12.5391864 C11.6035916,12.5270154 11.6035916,12.5076076 11.5914206,12.4957656 L11.2667513,12.221425 L11.2358305,12.2243855 L11.0058975,12.5631994 C10.9901081,12.5852388 10.9957002,12.6072781 11.0236606,12.6118834 L11.177936,12.6368833 L11.177936,12.6760278 L10.7776093,13.2414852 L10.7118201,13.2414852 L10.3114934,12.6760278 L10.3114934,12.6368833 L10.4660978,12.6118834 C10.4937292,12.6072781 10.4993213,12.5852388 10.4835319,12.5631994 L10.25327,12.2243855 L10.2226781,12.221425 L9.91971918,12.4957656 C9.90721924,12.5076076 9.90721924,12.5270154 9.93156122,12.5391864 L10.0545869,12.5941203 L10.0499816,12.6309622 L9.51149771,12.9944471 L9.46774794,12.9773419 L9.7841936,12.0112288 C9.94471904,12.0835968 10.3131381,12.1342544 10.7447147,12.1362281 C11.1762913,12.1342544 11.5450393,12.0835968 11.7052358,12.0112288 L12.0213525,12.9773419 L11.9776027,12.9944471 Z" id="path3916" fill="#FFFFFF" transform="translate(10.744550, 12.626357) scale(-1, 1) rotate(-180.000000) translate(-10.744550, -12.626357) "></path>
            <path d="M12.3471665,6.54701703 C11.8521034,6.54701703 11.4514477,6.46866336 11.4514477,6.37222807 C11.4514477,6.27545793 11.8521034,6.1974391 12.3471665,6.1974391 C12.8412428,6.1974391 13.2422275,6.27545793 13.2422275,6.37222807 C13.2422275,6.46866336 12.8412428,6.54701703 12.3471665,6.54701703" id="path3920" fill="#FFFFFF" transform="translate(12.346838, 6.697439) scale(-1, 1) rotate(-180.000000) translate(-12.346838, -6.697439) "></path>
            <path d="M13.579696,6.51715003 L13.0629225,6.1539941 L13.0583173,6.1171522 L13.1813429,6.06188934 C13.2053559,6.04971835 13.2056849,6.03031056 13.193185,6.01846852 L12.8685157,5.74445685 L12.8379237,5.74708842 L12.6079908,6.08590237 C12.5918724,6.10794172 12.5977935,6.12998108 12.6254249,6.13458631 L12.7797004,6.15991512 L12.7797004,6.1987307 L12.3793736,6.76418816 L12.3139134,6.76418816 L11.9135866,6.1987307 L11.9135866,6.15991512 L12.0678621,6.13458631 C12.0958225,6.12998108 12.1014146,6.10794172 12.0856252,6.08590237 L11.8556922,5.74708842 L11.8247713,5.74445685 L11.5214835,6.02208692 C11.5093125,6.03360002 11.5093125,6.05333675 11.5336545,6.06550774 L11.6566801,6.1171522 L11.6520749,6.1539941 L11.113591,6.51715003 L11.0698412,6.50004486 L11.3859579,5.53426063 C11.5464834,5.60629971 11.9149024,5.65695733 12.346808,5.658931 C12.7783846,5.65695733 13.1468036,5.60629971 13.3070001,5.53426063 L13.6234458,6.50004486 L13.579696,6.51715003 Z" id="path3924" fill="#FFFFFF" transform="translate(12.346644, 6.149224) scale(-1, 1) rotate(-180.000000) translate(-12.346644, -6.149224) "></path>
            <g id="Group-4" transform="translate(8.275947, 6.788221)" fill="#001731">
                <path d="M0.391538354,0.970229784 C0.391538354,0.909703797 0.406669851,0.897861756 0.439235463,0.897861756 C0.498116723,0.897861756 0.557326927,0.962664036 0.557326927,1.08338706 C0.557326927,1.23009679 0.482985226,1.27088605 0.425090803,1.27088605 C0.409301415,1.27088605 0.400419885,1.26891237 0.395814646,1.26595186 C0.392196245,1.26496503 0.391538354,1.24917564 0.391538354,1.23207047 L0.391538354,0.970229784 Z M0.425090803,1.30509639 C0.508971927,1.30509639 0.57870839,1.28864911 0.624102881,1.24424145 C0.656010602,1.21364952 0.682655194,1.16332084 0.682655194,1.10443958 C0.682655194,0.934703661 0.554037472,0.861677742 0.396143592,0.861677742 L0.220486651,0.861677742 L0.220486651,0.888322334 C0.270157434,0.892598627 0.275749509,0.897203865 0.275749509,0.970887675 L0.275749509,1.19588645 C0.275749509,1.26957026 0.270157434,1.27450445 0.22574978,1.2784518 L0.22574978,1.30509639 L0.425090803,1.30509639 Z" id="path3928" transform="translate(0.720487, 1.361678) scale(-1, 1) rotate(-180.000000) translate(-0.720487, -1.361678) "></path>
                <path d="M0.8688055,1.12085397 C0.8688055,0.997170428 0.915186827,0.907368283 0.98196278,0.907368283 C1.04084404,0.907368283 1.07275176,0.963946924 1.07275176,1.08730152 C1.07275176,1.22447183 1.02373887,1.30012931 0.96485761,1.30012931 C0.912555262,1.30012931 0.8688055,1.23993227 0.8688055,1.12085397 M1.19972476,1.10934087 C1.19972476,0.963289033 1.10005424,0.871842161 0.969133902,0.871842161 C0.831634649,0.871842161 0.74216145,0.972170563 0.74216145,1.09749883 C0.74216145,1.20802455 0.815845261,1.33565543 0.978673324,1.33565543 C1.1033437,1.33565543 1.19972476,1.24420856 1.19972476,1.10934087" id="path3932" transform="translate(1.242161, 1.371842) scale(-1, 1) rotate(-180.000000) translate(-1.242161, -1.371842) "></path>
                <path d="M1.80179386,1.30509639 L1.80179386,1.2784518 C1.74982045,1.27351761 1.74718889,1.27088605 1.74916256,1.19917591 L1.75607042,0.970887675 C1.75804409,0.895230191 1.75968882,0.893256518 1.80870171,0.888322334 L1.80870171,0.861677742 L1.59521603,0.861677742 L1.59521603,0.888322334 C1.6462026,0.893256518 1.64817627,0.895230191 1.64751838,0.970887675 L1.64587365,1.21101795 L1.64291314,1.21101795 L1.51133491,0.86924349 L1.474493,0.86924349 L1.34949368,1.18700492 L1.3481779,1.18700492 L1.34357266,1.03568996 C1.34159899,0.977137642 1.34225688,0.944243083 1.34488844,0.923190566 C1.34752001,0.897861756 1.3626515,0.89161179 1.40673021,0.888322334 L1.40673021,0.861677742 L1.23863902,0.861677742 L1.23863902,0.888322334 C1.27120463,0.891282844 1.28403351,0.897861756 1.2883098,0.923190566 C1.2919282,0.944243083 1.29587555,0.980427097 1.29916501,1.04259781 L1.30640181,1.18009707 C1.31166494,1.26595186 1.30607286,1.27351761 1.25212579,1.2784518 L1.25212579,1.30509639 L1.41232229,1.30509639 L1.53172953,1.03503206 L1.63600528,1.30509639 L1.80179386,1.30509639 Z" id="path3936" transform="translate(1.738639, 1.361678) scale(-1, 1) rotate(-180.000000) translate(-1.738639, -1.361678) "></path>
                <path d="M2.03386958,0.970887675 C2.03386958,0.897203865 2.03946282,0.892598627 2.08945247,0.888322334 L2.08945247,0.861677742 L1.85488567,0.861677742 L1.85488567,0.888322334 C1.90487532,0.892598627 1.91081814,0.897203865 1.91081814,0.970887675 L1.91081814,1.19588645 C1.91081814,1.26957026 1.90487532,1.27450445 1.85488567,1.2784518 L1.85488567,1.30509639 L2.08945247,1.30509639 L2.08945247,1.2784518 C2.03946282,1.27450445 2.03386958,1.26957026 2.03386958,1.19588645 L2.03386958,0.970887675 Z" id="path3940" transform="translate(2.354886, 1.361678) scale(-1, 1) rotate(-180.000000) translate(-2.354886, -1.361678) "></path>
                <path d="M0.925150589,1.6845713 L0.866598275,1.6845713 L0.614297013,2.00660903 L0.612652285,2.00660903 L0.612652285,1.88095181 C0.612652285,1.80957062 0.615612795,1.77207083 0.61824436,1.75068936 C0.621533816,1.72667634 0.639954768,1.71812375 0.685020313,1.71582113 L0.685020313,1.68950548 L0.515284393,1.68950548 L0.515284393,1.71582113 C0.545218441,1.71746586 0.562981502,1.72667634 0.566599903,1.75068936 C0.569231468,1.77207083 0.571863033,1.80957062 0.571863033,1.88095181 L0.571863033,2.00660903 C0.571863033,2.0569377 0.57054725,2.06581923 0.556731536,2.08489808 C0.546863169,2.09937168 0.529757998,2.10397692 0.50508708,2.10595059 L0.50508708,2.13259518 L0.655744156,2.13259518 L0.882716608,1.84970198 L0.884361336,1.84970198 L0.884361336,1.94081991 C0.884361336,2.01253005 0.881400826,2.05002984 0.878769261,2.07108236 C0.875479806,2.09509539 0.856729907,2.10397692 0.811993308,2.10595059 L0.811993308,2.13259518 L0.985676576,2.13259518 L0.985676576,2.10595059 C0.951795181,2.10463481 0.934032119,2.09509539 0.930413718,2.07108236 C0.927782153,2.05002984 0.925150589,2.01253005 0.925150589,1.94081991 L0.925150589,1.6845713 Z" id="path3944" transform="translate(1.005087, 2.184571) scale(-1, 1) rotate(-180.000000) translate(-1.005087, -2.184571) "></path>
                <path d="M1.20136948,1.6845713 C1.15433027,1.807268 1.08985693,1.97568814 1.06551496,2.03983253 C1.04314666,2.09838484 1.02965989,2.10200325 0.996765331,2.10595059 L0.996765331,2.13259518 L1.21682993,2.13259518 L1.21682993,2.10595059 L1.19380374,2.10331903 C1.16847493,2.10068746 1.16847493,2.0944375 1.17604067,2.07042447 C1.18821166,2.03226678 1.24215874,1.89805698 1.26748755,1.83128103 C1.28854006,1.88917545 1.33228983,2.0194379 1.34314503,2.05134563 C1.35728969,2.09312171 1.35334234,2.10068746 1.3227504,2.10397692 L1.30202683,2.10595059 L1.30202683,2.13259518 L1.46748646,2.13259518 L1.46748646,2.10595059 C1.42834194,2.10134535 1.41880251,2.09772695 1.39215792,2.03555624 C1.38788163,2.02634576 1.3046584,1.82371528 1.25367183,1.6845713 L1.20136948,1.6845713 Z" id="path3948" transform="translate(1.496765, 2.184571) scale(-1, 1) rotate(-180.000000) translate(-1.496765, -2.184571) "></path>
                <path d="M1.51074536,1.8406198 C1.52577721,1.80114633 1.56842572,1.72548884 1.63973962,1.72548884 C1.67749404,1.72548884 1.706509,1.74851503 1.706509,1.79292269 C1.706509,1.83305405 1.67819319,1.85575129 1.63379679,1.87483014 L1.62295988,1.87943537 C1.56388121,1.90542208 1.49641266,1.9409482 1.49641266,2.01364517 C1.49641266,2.09094738 1.55549133,2.15377599 1.66945374,2.15377599 C1.69182673,2.15377599 1.71489887,2.15081548 1.73622313,2.14555235 C1.75265329,2.14127606 1.76418936,2.13864449 1.77362797,2.13568398 C1.77642459,2.10936834 1.78166826,2.07581589 1.78970855,2.02943456 L1.75789696,2.02482932 C1.74181638,2.06989487 1.71664676,2.11824987 1.65931598,2.11824987 C1.62226072,2.11824987 1.59604238,2.09160528 1.59604238,2.05871072 C1.59604238,2.02482932 1.62470777,2.00509259 1.67085205,1.98502691 L1.68658306,1.978448 C1.75370203,1.94982973 1.81068323,1.9149615 1.81068323,1.83502772 C1.81068323,1.75147554 1.73901975,1.68996272 1.62680523,1.68996272 C1.59744069,1.68996272 1.56772656,1.69522585 1.54849978,1.70147581 C1.52682594,1.70838367 1.51144451,1.7136468 1.50305464,1.71792309 C1.49711182,1.74917292 1.48767321,1.78601483 1.47893377,1.83173827 L1.51074536,1.8406198 Z" id="path3952" transform="translate(1.978934, 2.189963) scale(-1, 1) rotate(-180.000000) translate(-1.978934, -2.189963) "></path>
                <path d="M0.632492316,2.60729327 C0.632492316,2.53360946 0.638085563,2.52900422 0.688424786,2.52472792 L0.688424786,2.49808333 L0.453508412,2.49808333 L0.453508412,2.52472792 C0.503498057,2.52900422 0.509440882,2.53360946 0.509440882,2.60729327 L0.509440882,2.83229204 C0.509440882,2.90597585 0.503498057,2.91091004 0.453508412,2.91485739 L0.453508412,2.94150198 L0.688424786,2.94150198 L0.688424786,2.91485739 C0.638085563,2.91091004 0.632492316,2.90597585 0.632492316,2.83229204 L0.632492316,2.60729327 Z" id="path3956" transform="translate(0.953508, 2.998083) scale(-1, 1) rotate(-180.000000) translate(-0.953508, -2.998083) "></path>
                <path d="M0.891798796,2.59834595 C0.891798796,2.56281982 0.893114578,2.5460436 0.905285565,2.53979363 C0.916469715,2.53420156 0.931930157,2.53354367 0.952982674,2.53354367 C0.975022028,2.53354367 1.00462713,2.53551734 1.01877179,2.5532804 C1.029627,2.56610928 1.04114009,2.58453023 1.05199529,2.62071425 L1.0816004,2.61610901 C1.0773241,2.59012231 1.06317944,2.51907006 1.05692948,2.49801754 L0.718773419,2.49801754 L0.718773419,2.52466214 C0.770417876,2.52893843 0.776009951,2.53354367 0.776009951,2.60722748 L0.776009951,2.83222626 C0.776009951,2.90591007 0.770417876,2.9105153 0.72469444,2.9147916 L0.72469444,2.94143619 L0.946403763,2.94143619 L0.946403763,2.9147916 C0.897390871,2.9105153 0.891798796,2.90591007 0.891798796,2.83222626 L0.891798796,2.59834595 Z" id="path3960" transform="translate(1.218773, 2.998018) scale(-1, 1) rotate(-180.000000) translate(-1.218773, -2.998018) "></path>
                <path d="M1.27245133,2.59834595 C1.27245133,2.56281982 1.27376712,2.5460436 1.2859381,2.53979363 C1.29679331,2.53420156 1.31225375,2.53354367 1.33363521,2.53354367 C1.35567457,2.53354367 1.38495072,2.53551734 1.39909538,2.5532804 C1.40995059,2.56610928 1.42179263,2.58453023 1.43231889,2.62071425 L1.46192399,2.61610901 C1.45797664,2.59012231 1.44350304,2.51907006 1.43725307,2.49801754 L1.09909701,2.49801754 L1.09909701,2.52466214 C1.15107041,2.52893843 1.15633354,2.53354367 1.15633354,2.60722748 L1.15633354,2.83222626 C1.15633354,2.90591007 1.15107041,2.9105153 1.10534698,2.9147916 L1.10534698,2.94143619 L1.32672736,2.94143619 L1.32672736,2.9147916 C1.27771446,2.9105153 1.27245133,2.90591007 1.27245133,2.83222626 L1.27245133,2.59834595 Z" id="path3964" transform="translate(1.599097, 2.998018) scale(-1, 1) rotate(-180.000000) translate(-1.599097, -2.998018) "></path>
                <path d="M1.59824233,2.50272146 C1.55120311,2.62541817 1.48705872,2.79383831 1.46271675,2.85798269 C1.4400195,2.91653501 1.42620379,2.92015341 1.39363818,2.92410076 L1.39363818,2.95074535 L1.61403172,2.95074535 L1.61403172,2.92410076 L1.59067658,2.92146919 C1.56534777,2.91883763 1.56534777,2.91258766 1.57324247,2.88857463 C1.58541345,2.85041695 1.63936053,2.71620715 1.66436039,2.64943119 C1.68541291,2.70732562 1.72916267,2.83758807 1.74001788,2.86949579 C1.75449148,2.91127188 1.75054413,2.91883763 1.71962325,2.92212708 L1.69922862,2.92410076 L1.69922862,2.95074535 L1.86403036,2.95074535 L1.86403036,2.92410076 C1.82521478,2.91949552 1.81567536,2.91587712 1.78903077,2.8537064 C1.78475447,2.84449593 1.70186019,2.64186545 1.65087362,2.50272146 L1.59824233,2.50272146 Z" id="path3968" transform="translate(1.893638, 3.002721) scale(-1, 1) rotate(-180.000000) translate(-1.893638, -3.002721) "></path>
                <path d="M3.42967647,1.30509639 L3.42967647,1.2784518 C3.37770306,1.27351761 3.3750715,1.27088605 3.37704517,1.19917591 L3.38395303,0.970887675 C3.3859267,0.895230191 3.38757143,0.893256518 3.43658432,0.888322334 L3.43658432,0.861677742 L3.22309864,0.861677742 L3.22309864,0.888322334 C3.27408521,0.893256518 3.27605888,0.895230191 3.27540099,0.970887675 L3.27342731,1.21101795 L3.27079575,1.21101795 L3.13888857,0.86924349 L3.10237561,0.86924349 L2.97770524,1.18700492 L2.97638945,1.18700492 L2.97145527,1.03568996 C2.9694816,0.977137642 2.97013949,0.944243083 2.97277105,0.923190566 C2.97540262,0.897861756 2.99020517,0.89161179 3.03461282,0.888322334 L3.03461282,0.861677742 L2.86652163,0.861677742 L2.86652163,0.888322334 C2.89908724,0.891282844 2.91191612,0.897861756 2.91619241,0.923190566 C2.91981081,0.944243083 2.92375816,0.980427097 2.92704762,1.04259781 L2.93428442,1.18009707 C2.93954755,1.26595186 2.93395547,1.27351761 2.8800084,1.2784518 L2.8800084,1.30509639 L3.0402049,1.30509639 L3.15961214,1.03503206 L3.26388789,1.30509639 L3.42967647,1.30509639 Z" id="path3972" transform="translate(3.366522, 1.361678) scale(-1, 1) rotate(-180.000000) translate(-3.366522, -1.361678) "></path>
                <path d="M3.6616239,0.970887675 C3.6616239,0.897203865 3.66756672,0.892598627 3.71755637,0.888322334 L3.71755637,0.861677742 L3.48263999,0.861677742 L3.48263999,0.888322334 C3.53262964,0.892598627 3.53857246,0.897203865 3.53857246,0.970887675 L3.53857246,1.19588645 C3.53857246,1.26957026 3.53262964,1.27450445 3.48263999,1.2784518 L3.48263999,1.30509639 L3.71755637,1.30509639 L3.71755637,1.2784518 C3.66756672,1.27450445 3.6616239,1.26957026 3.6616239,1.19588645 L3.6616239,0.970887675 Z" id="path3976" transform="translate(3.982640, 1.361678) scale(-1, 1) rotate(-180.000000) translate(-3.982640, -1.361678) "></path>
                <path d="M4.15838962,0.866315875 L4.0998373,0.866315875 L3.84753604,1.1883536 L3.84622026,1.1883536 L3.84622026,1.06269639 C3.84622026,0.991315196 3.84885182,0.953486454 3.85181233,0.932433937 C3.85510179,0.908420909 3.87352274,0.899868324 3.91858829,0.897565705 L3.91858829,0.871250058 L3.74852342,0.871250058 L3.74852342,0.897565705 C3.77845747,0.899210433 3.79654947,0.908420909 3.79983893,0.932433937 C3.80247049,0.953486454 3.80543101,0.991315196 3.80543101,1.06269639 L3.80543101,1.1883536 C3.80543101,1.23868227 3.80411522,1.24756381 3.79029951,1.26664265 C3.7801022,1.28078731 3.76299702,1.28572149 3.73865505,1.28769517 L3.73865505,1.31433976 L3.88898318,1.31433976 L4.11628458,1.03144656 L4.11727142,1.03144656 L4.11727142,1.12256448 C4.11727142,1.19427462 4.1149688,1.23177442 4.11233723,1.25282693 C4.10838989,1.27683996 4.09029788,1.28572149 4.04523233,1.28769517 L4.04523233,1.31433976 L4.21924455,1.31433976 L4.21924455,1.28769517 C4.18503421,1.28637938 4.16727115,1.27683996 4.16398169,1.25282693 C4.16135013,1.23177442 4.15838962,1.19427462 4.15838962,1.12256448 L4.15838962,0.866315875 Z" id="path3980" transform="translate(4.238655, 1.366316) scale(-1, 1) rotate(-180.000000) translate(-4.238655, -1.366316) "></path>
                <path d="M4.35704643,1.03631824 L4.44421701,1.03631824 L4.40112514,1.16658069 L4.39915147,1.16658069 L4.35704643,1.03631824 Z M4.44323017,0.888292729 L4.46395375,0.891253239 C4.48928256,0.894542695 4.49059834,0.901450552 4.48171681,0.925792526 L4.45704589,0.995528989 L4.34520439,0.995528989 L4.32480976,0.930068818 C4.31592823,0.900463716 4.31592823,0.893884804 4.34717806,0.890266403 L4.3669148,0.888292729 L4.3669148,0.861648137 L4.20803408,0.861648137 L4.20803408,0.888292729 C4.24323126,0.893226913 4.25342857,0.895858478 4.27579687,0.953095009 L4.41230929,1.30572467 L4.45901956,1.3152641 L4.50572983,1.18631743 C4.53467705,1.10506787 4.5639532,1.02480515 4.5899399,0.955068682 C4.61197926,0.895858478 4.62415024,0.892569022 4.65770269,0.888292729 L4.65770269,0.861648137 L4.44323017,0.861648137 L4.44323017,0.888292729 Z" id="path3984" transform="translate(4.708034, 1.361648) scale(-1, 1) rotate(-180.000000) translate(-4.708034, -1.361648) "></path>
                <path d="M3.42438044,1.78904113 C3.42438044,1.71535732 3.42964357,1.71075208 3.4868801,1.70647579 L3.4868801,1.6798312 L3.24839456,1.6798312 L3.24839456,1.70647579 C3.30267058,1.71075208 3.30826265,1.71535732 3.30826265,1.78904113 L3.30826265,2.08772372 L3.29674956,2.08772372 C3.25102612,2.08772372 3.23260517,2.07950008 3.22174996,2.06700015 C3.21385527,2.05713178 3.20530268,2.03936872 3.1967501,2.00088208 L3.16780289,2.00088208 C3.17043445,2.05844756 3.17471074,2.10548678 3.17602653,2.14002607 L3.19707904,2.14002607 C3.20727636,2.12456562 3.21451316,2.12324984 3.23260517,2.12324984 L3.50464316,2.12324984 C3.52273517,2.12324984 3.52569568,2.12719719 3.53655089,2.14002607 L3.55793235,2.14002607 C3.55859024,2.1114078 3.5618797,2.05351338 3.5654981,2.0031847 L3.5352351,2.00088208 C3.52536674,2.04200028 3.51780099,2.05976334 3.50760367,2.07127644 C3.49576163,2.08377637 3.47306439,2.08772372 3.44049878,2.08772372 L3.42438044,2.08772372 L3.42438044,1.78904113 Z" id="path3988" transform="translate(3.667803, 2.179831) scale(-1, 1) rotate(-180.000000) translate(-3.667803, -2.179831) "></path>
                <path d="M3.79185345,1.78904113 C3.79185345,1.71535732 3.79779628,1.71075208 3.84743635,1.70647579 L3.84743635,1.6798312 L3.61286955,1.6798312 L3.61286955,1.70647579 C3.6628592,1.71075208 3.66880202,1.71535732 3.66880202,1.78904113 L3.66880202,2.01403991 C3.66880202,2.08772372 3.6628592,2.09232896 3.61286955,2.09660525 L3.61286955,2.12324984 L3.84743635,2.12324984 L3.84743635,2.09660525 C3.79779628,2.09232896 3.79185345,2.08772372 3.79185345,2.01403991 L3.79185345,1.78904113 Z" id="path3992" transform="translate(4.112870, 2.179831) scale(-1, 1) rotate(-180.000000) translate(-4.112870, -2.179831) "></path>
                <path d="M4.01741012,1.93900742 C4.01741012,1.81532388 4.06379144,1.72552174 4.1305674,1.72552174 C4.18944866,1.72552174 4.22135638,1.78210038 4.22135638,1.90545497 C4.22135638,2.04262528 4.17234349,2.11828276 4.11346223,2.11828276 C4.06115988,2.11828276 4.01741012,2.05808572 4.01741012,1.93900742 M4.34832937,1.92716538 C4.34832937,1.78144249 4.24865886,1.68999561 4.11773852,1.68999561 C3.98023927,1.68999561 3.89076607,1.79032402 3.89076607,1.91565228 C3.89076607,2.026178 3.96412093,2.15380889 4.12727794,2.15380889 C4.25194832,2.15380889 4.34832937,2.06236201 4.34832937,1.92716538" id="path3996" transform="translate(4.390766, 2.189996) scale(-1, 1) rotate(-180.000000) translate(-4.390766, -2.189996) "></path>
                <path d="M3.62553724,2.94090988 L3.62553724,2.91426528 C3.57356384,2.90966005 3.57093228,2.90669953 3.57290595,2.83531834 L3.57981381,2.60670116 C3.58178748,2.53104368 3.58310326,2.52907001 3.63211616,2.52413582 L3.63211616,2.49782018 L3.41895942,2.49782018 L3.41895942,2.52413582 C3.46994598,2.52907001 3.4722486,2.53104368 3.47126177,2.60670116 L3.46928809,2.84683144 L3.46665653,2.84683144 L3.3350783,2.50505698 L3.29823639,2.50505698 L3.17356601,2.82281841 L3.17192129,2.82281841 L3.16731605,2.67150344 C3.16501343,2.61295113 3.16600027,2.58038552 3.16863183,2.55900405 C3.1712634,2.53400419 3.18606595,2.52775422 3.23080255,2.52413582 L3.23080255,2.49782018 L3.06205346,2.49782018 L3.06205346,2.52413582 C3.09494802,2.52709633 3.10810584,2.53400419 3.11205319,2.55900405 C3.11567159,2.58038552 3.11961894,2.61624059 3.12290839,2.6784113 L3.1301452,2.8162395 C3.13507938,2.9020943 3.1301452,2.90966005 3.07586918,2.91426528 L3.07586918,2.94090988 L3.23606567,2.94090988 L3.35547292,2.67084555 L3.45974867,2.94090988 L3.62553724,2.94090988 Z" id="path4000" transform="translate(3.562053, 2.997820) scale(-1, 1) rotate(-180.000000) translate(-3.562053, -2.997820) "></path>
                <path d="M3.73099062,2.83222626 C3.73099062,2.90591007 3.72539854,2.9105153 3.68000405,2.9147916 L3.68000405,2.94143619 L4.00302862,2.94143619 C4.00401545,2.92959415 4.00730491,2.87992336 4.01059436,2.8289368 L3.98066032,2.82663418 C3.97375246,2.86018663 3.96618671,2.87926547 3.95533151,2.89012068 C3.9444763,2.90163377 3.92177906,2.90591007 3.88592399,2.90591007 L3.87408195,2.90591007 C3.84842419,2.90591007 3.84677946,2.90591007 3.84677946,2.88189704 L3.84677946,2.7503188 L3.88098981,2.7503188 C3.93954212,2.7503188 3.94184474,2.7545951 3.9487526,2.80623955 L3.9783577,2.80623955 L3.9783577,2.64538516 L3.9487526,2.64538516 C3.94184474,2.70525326 3.93954212,2.70952955 3.88098981,2.70952955 L3.84677946,2.70952955 L3.84677946,2.59834595 C3.84677946,2.56281982 3.84842419,2.5460436 3.86059518,2.53979363 C3.87145038,2.53420156 3.88723977,2.53354367 3.90829229,2.53354367 C3.93559477,2.53354367 3.96585777,2.53749101 3.98066032,2.55393829 C3.99217341,2.56610928 4.00401545,2.59143809 4.01421277,2.62433265 L4.04381787,2.61939846 C4.04085736,2.58617496 4.02638375,2.5164385 4.02013379,2.49801754 L3.6730962,2.49801754 L3.6730962,2.52466214 C3.72539854,2.52893843 3.73099062,2.53354367 3.73099062,2.60722748 L3.73099062,2.83222626 Z" id="path4004" transform="translate(4.173096, 2.998018) scale(-1, 1) rotate(-180.000000) translate(-4.173096, -2.998018) "></path>
                <path d="M4.19674796,2.67272383 L4.28424748,2.67272383 L4.24115561,2.80298628 L4.23885299,2.80298628 L4.19674796,2.67272383 Z M4.28358959,2.52469832 L4.30398422,2.52765883 C4.32898408,2.53094829 4.33062881,2.53785614 4.32174728,2.56219812 L4.29674742,2.63193458 L4.18523486,2.63193458 L4.16451129,2.56647441 C4.15562976,2.53686931 4.15562976,2.53029039 4.18720854,2.52667199 L4.20661633,2.52469832 L4.20661633,2.49805373 L4.0483935,2.49805373 L4.0483935,2.52469832 C4.08260384,2.52930356 4.09345905,2.53226407 4.1154984,2.5895006 L4.25201082,2.94213026 L4.29937898,2.95166969 L4.34510242,2.82272302 C4.37470752,2.74147346 4.40398368,2.66121074 4.42997038,2.59147427 C4.45200973,2.53226407 4.46418072,2.52897461 4.49740422,2.52469832 L4.49740422,2.49805373 L4.28358959,2.49805373 L4.28358959,2.52469832 L4.28358959,2.52469832 Z" id="path4008" transform="translate(4.548394, 2.998054) scale(-1, 1) rotate(-180.000000) translate(-4.548394, -2.998054) "></path>
            </g>
            <path d="M10.1299417,15.1284136 C10.1299417,15.02973 10.0500079,14.9501251 9.95165321,14.9501251 C9.85296954,14.9501251 9.77303576,15.02973 9.77303576,15.1284136 C9.77303576,15.2267684 9.85296954,15.3067021 9.95165321,15.3067021 C10.0500079,15.3067021 10.1299417,15.2267684 10.1299417,15.1284136" id="path4012" fill="#FFFFFF" transform="translate(10.273036, 15.450125) scale(-1, 1) rotate(-180.000000) translate(-10.273036, -15.450125) "></path>
            <path d="M11.9383562,15.4250173 C11.9383562,15.3263336 11.8584225,15.2467288 11.7600677,15.2467288 C11.6613841,15.2467288 11.5814503,15.3263336 11.5814503,15.4250173 C11.5814503,15.523372 11.6613841,15.6029769 11.7600677,15.6029769 C11.8584225,15.6029769 11.9383562,15.523372 11.9383562,15.4250173" id="path4016" fill="#FFFFFF" transform="translate(12.081450, 15.746729) scale(-1, 1) rotate(-180.000000) translate(-12.081450, -15.746729) "></path>
            <path d="M10.9162894,2.53792278 C10.9162894,2.43956805 10.8363556,2.35963427 10.737672,2.35963427 C10.6393172,2.35963427 10.5597124,2.43956805 10.5597124,2.53792278 C10.5597124,2.63627751 10.6393172,2.71621128 10.737672,2.71621128 C10.8363556,2.71621128 10.9162894,2.63627751 10.9162894,2.53792278" id="path4036" fill="#FFFFFF" transform="translate(11.059712, 2.859634) scale(-1, 1) rotate(-180.000000) translate(-11.059712, -2.859634) "></path>
            <path d="M15.159921,4.19227912 C15.1556447,4.09392439 15.0724215,4.01760902 14.9740667,4.02155636 C14.875712,4.02583266 14.7993966,4.10905589 14.803344,4.20741062 C14.8076203,4.30576535 14.8908435,4.38208072 14.9891982,4.37780443 C15.087224,4.37352814 15.1638683,4.29063385 15.159921,4.19227912" id="path4040" fill="#FFFFFF" transform="translate(15.303198, 4.521410) scale(-1, 1) rotate(-180.000000) translate(-15.303198, -4.521410) "></path>
            <path d="M6.21641691,13.4326312 C6.28483759,13.3339475 6.31970582,13.228356 6.31937688,13.119146 C6.31904793,12.9944757 6.27760079,12.8934894 6.05457568,12.7392139 L5.41082918,12.2803348 L5.29207982,12.4507286 C5.29207982,12.4507286 5.95161572,12.9204629 5.96247092,12.9280287 C6.07628609,13.0066466 6.12464109,13.0642121 6.12497004,13.1540143 C6.12497004,13.2112508 6.10391752,13.2734215 6.06279932,13.3329607 C5.99832599,13.4257233 5.9154317,13.4556574 5.84273473,13.4556574 C5.77628772,13.4556574 5.70523548,13.409276 5.57826248,13.3207897 L4.97267366,12.9099366 L4.85655587,13.0773699 L5.43253959,13.4678284 C5.59306503,13.5803277 5.72069592,13.65763 5.83944527,13.657301 C6.01247065,13.6569721 6.13878575,13.5444727 6.21641691,13.4326312" id="path4044" fill="#FFFFFF" transform="translate(5.587968, 12.968818) scale(-1, 1) rotate(-180.000000) translate(-5.587968, -12.968818) "></path>
            <polygon id="path4048" fill="#FFFFFF" transform="translate(4.930694, 11.487024) scale(-1, 1) rotate(-180.000000) translate(-4.930694, -11.487024) " points="4.15882282 11.7261678 5.38381617 12.1557707 5.45157896 11.9702454 4.75059592 11.1140001 5.63644638 11.4643271 5.70256444 11.283407 4.4913868 10.818278 4.42362401 11.0038033 5.12822545 11.8613644 4.22461193 11.5452477"></polygon>
            <polygon id="path4052" fill="#FFFFFF" transform="translate(4.631916, 9.977750) scale(-1, 1) rotate(-180.000000) translate(-4.631916, -9.977750) " points="3.97550473 9.68301228 5.25773462 9.87314283 5.28832655 9.66788078 4.00609667 9.47775024"></polygon>
            <polygon id="path4056" fill="#FFFFFF" transform="translate(4.560699, 9.073975) scale(-1, 1) rotate(-180.000000) translate(-4.560699, -9.073975) " points="3.93751152 9.42150597 3.9424457 9.63663638 5.22237297 9.11657341 5.21316249 8.90308773 3.89902489 8.51131354 3.90034067 8.7267729 4.96612436 9.02545549"></polygon>
            <path d="M4.87711168,6.64243425 C4.95309811,6.78059139 5.00737413,6.83289374 5.08763685,6.8325648 C5.1175709,6.8325648 5.1550707,6.82532799 5.1925705,6.80460442 C5.24125444,6.77730194 5.27842529,6.73256534 5.29224101,6.68453928 C5.29783308,6.66578939 5.3001357,6.64736843 5.29980676,6.62861854 C5.29914886,6.55164527 5.25638594,6.47401411 5.21132039,6.3930935 L5.1846758,6.34506744 L4.8195462,6.54144796 L4.87711168,6.64243425 Z M5.10770254,7.03519528 C4.92447985,7.03486633 4.83961189,6.92993269 4.7228362,6.71874963 L4.5705344,6.44605374 L5.71263346,5.82632026 L5.81098819,6.00460877 L5.33664866,6.26381788 L5.36428009,6.31480445 C5.44421387,6.45954051 5.4718453,6.48125091 5.67546261,6.46414574 L6.04519745,6.43125119 L6.15078898,6.62302646 L5.72480445,6.65921047 C5.63894965,6.66710517 5.57151581,6.67368408 5.51691084,6.65756575 C5.49848989,6.65230262 5.47677948,6.64111847 5.45539802,6.62631592 C5.4603322,6.64934211 5.46921373,6.67203935 5.46954268,6.69539449 C5.46954268,6.73190745 5.46460849,6.76809146 5.45342434,6.80098602 C5.42875342,6.8773014 5.3744774,6.93881422 5.29224101,6.98420871 C5.23105713,7.01809011 5.16987325,7.03552422 5.10770254,7.03519528 L5.10770254,7.03519528 Z" id="path4060" fill="#FFFFFF" transform="translate(5.360662, 6.430760) scale(-1, 1) rotate(-180.000000) translate(-5.360662, -6.430760) "></path>
            <polygon id="path4064" fill="#FFFFFF" transform="translate(7.026412, 4.446569) scale(-1, 1) rotate(-180.000000) translate(-7.026412, -4.446569) " points="6.52641194 4.89886934 6.69154262 5.02452655 7.47805151 3.99426899 7.31292083 3.86861177"></polygon>
            <polygon id="path4068" fill="#FFFFFF" transform="translate(7.793678, 3.760122) scale(-1, 1) rotate(-180.000000) translate(-7.793678, -3.760122) " points="7.23825347 4.03133786 8.0770647 4.46784865 8.15864321 4.31061266 7.83232919 4.1405478 8.3491027 3.14811897 8.16522212 3.05239581 7.64811966 4.04482463 7.32016092 3.87377293"></polygon>
            <polygon id="path4072" fill="#FFFFFF" transform="translate(9.062717, 3.305421) scale(-1, 1) rotate(-180.000000) translate(-9.062717, -3.305421) " points="9.33014672 3.95278566 9.54889553 4.01364059 9.37290964 3.14654003 9.51534308 2.6541085 9.31764679 2.59720091 9.1785028 3.0856851 8.56271667 3.72811583 8.77587341 3.78995759 9.21863417 3.32844694"></polygon>
            <polygon id="path4076" fill="#FFFFFF" transform="translate(13.924431, 3.924138) scale(-1, 1) rotate(-180.000000) translate(-13.924431, -3.924138) " points="13.2856187 3.41805501 13.9438388 4.53482526 14.5632433 4.17002461 14.4731122 4.01706491 14.0306804 4.27791876 13.8487735 3.96870991 14.2648897 3.72364545 14.1770612 3.57397521 13.760945 3.81936862 13.4629203 3.31345031"></polygon>
            <polygon id="path4080" fill="#FFFFFF" transform="translate(16.625074, 7.447504) scale(-1, 1) rotate(-180.000000) translate(-16.625074, -7.447504) " points="16.6163572 7.57710809 17.0883941 8.14190765 17.1617489 7.91822466 16.8104351 7.51625316 17.3324717 7.39881958 17.4015503 7.18829441 16.6874094 7.36099084 16.1801753 6.7530994 16.1081362 6.97283505 16.4907 7.41921421 15.9183346 7.5498056 15.8485982 7.76230445"></polygon>
            <polygon id="path4084" fill="#FFFFFF" transform="translate(16.921224, 8.730451) scale(-1, 1) rotate(-180.000000) translate(-16.921224, -8.730451) " points="16.2458986 8.86926341 17.5379969 8.97452599 17.5965492 8.25808252 17.4195765 8.24360891 17.3781293 8.75511929 17.0205655 8.72617208 17.05971 8.24459575 16.8870136 8.23045109 16.8475401 8.71202742 16.2626749 8.66433031"></polygon>
            <path d="M16.9194805,9.95729254 C16.6668503,9.95729254 16.3721151,10.0947918 16.3721151,10.3493957 C16.3721151,10.4415004 16.4040228,10.5655129 16.5181669,10.6484072 C16.5948112,10.704328 16.6948107,10.7339331 16.8069811,10.7339331 C16.9355989,10.7339331 17.1675055,10.697749 17.2892154,10.5299868 C17.3313204,10.4720924 17.3523729,10.4049875 17.352044,10.3336063 C17.352044,10.2342647 17.3115837,10.1161733 17.2053342,10.0392 C17.1300057,9.98459502 17.0306641,9.95729254 16.9194805,9.95729254 M16.8171784,10.9451161 C16.6675082,10.9451161 16.52968,10.9046558 16.420799,10.8257089 C16.2254053,10.6839333 16.1898792,10.4799871 16.1898792,10.3609088 C16.1898792,9.92275325 16.6013901,9.74742525 16.910599,9.74742525 C17.0592824,9.74742525 17.1951369,9.78788556 17.3023732,9.86551672 C17.520793,10.0234106 17.5326351,10.2612383 17.5326351,10.3375536 C17.5326351,10.7201173 17.1813212,10.9451161 16.8171784,10.9451161" id="path4088" fill="#FFFFFF" transform="translate(16.861257, 10.346271) scale(-1, 1) rotate(-180.000000) translate(-16.861257, -10.346271) "></path>
            <path d="M15.8630718,5.63143714 C15.746625,5.63143714 15.6416914,5.68012109 15.5693234,5.79459415 C15.5321525,5.85281752 15.5143895,5.91564613 15.5140605,5.97913262 C15.5130737,6.12584235 15.6061653,6.27617048 15.7762301,6.38406464 C15.8887295,6.45544583 15.9992553,6.490643 16.0979389,6.49031406 C16.2229382,6.49031406 16.3245824,6.43538015 16.3923452,6.32814389 C16.4324766,6.26498634 16.4508975,6.19788144 16.4508975,6.13077654 C16.4508975,5.98768521 16.3601086,5.84722545 16.1959647,5.74327864 C16.0808338,5.67025272 15.964716,5.63143714 15.8630718,5.63143714 M16.0650444,6.68768141 C15.9337951,6.68768141 15.7943222,6.64590532 15.6597834,6.56070841 C15.4107716,6.40248559 15.3199826,6.17617103 15.3199826,6.01136929 C15.3199826,5.90413303 15.3492588,5.79919939 15.4104427,5.70281833 C15.5485998,5.48472741 15.7561645,5.43143823 15.8962953,5.43209612 C16.0301761,5.43275401 16.1712938,5.47716166 16.3041878,5.56170068 C16.4647132,5.66334486 16.6433307,5.85215963 16.6433307,6.10807929 C16.6433307,6.21432872 16.6130677,6.31893341 16.5515549,6.41564341 C16.4380687,6.59458981 16.2601091,6.68768141 16.0650444,6.68768141" id="path4092" fill="#FFFFFF" transform="translate(15.981657, 6.059886) scale(-1, 1) rotate(-180.000000) translate(-15.981657, -6.059886) "></path>
            <path d="M12.46161,2.94578455 C12.3675315,2.94578455 12.232006,2.99183693 12.1563485,3.12999407 C12.1195066,3.19709897 12.1033882,3.27834853 12.1033882,3.3625586 C12.1033882,3.59479418 12.2579927,3.92045031 12.5405569,3.92045031 C12.6991087,3.92045031 12.8984497,3.80235884 12.8984497,3.50926833 C12.8984497,3.32242724 12.7665425,2.94578455 12.46161,2.94578455 M12.528057,4.10202827 C12.2579927,4.10202827 12.0227966,3.92012136 11.9277313,3.59676785 C11.9070077,3.52505772 11.893521,3.45400547 11.893521,3.38525584 C11.893521,3.25565128 11.9152314,3.15302026 11.9685206,3.05631026 C12.0882567,2.83690356 12.3076634,2.76223291 12.4744389,2.76223291 C12.5688462,2.76223291 12.6596352,2.78361437 12.7428585,2.82933781 C12.9616073,2.94874506 13.1060144,3.22637513 13.1060144,3.49216316 C13.1060144,3.60729411 13.0836461,3.7161751 13.0323306,3.80893775 C12.927068,4.00038408 12.7323322,4.10202827 12.528057,4.10202827" id="path4096" fill="#FFFFFF" transform="translate(12.499768, 3.432131) scale(-1, 1) rotate(-180.000000) translate(-12.499768, -3.432131) "></path>
            <polygon id="path4100" fill="#FFFFFF" transform="translate(4.796487, 7.692667) scale(-1, 1) rotate(-180.000000) translate(-4.796487, -7.692667) " points="5.34796439 7.92177727 5.5219766 7.87243543 5.32559609 7.16059719 4.07099764 7.50434533 4.28514121 8.22473615 4.45586397 8.1767101 4.29829903 7.65763397 4.64434979 7.56289764 4.77757275 8.03427666 4.9446771 7.98690849 4.81178309 7.51684526 5.20289939 7.40928005"></polygon>
            <path d="M5.67701194,5.70200674 C5.85694518,5.90397933 6.0411547,5.88983467 6.0411547,5.88983467 L6.07273348,5.71878297 C6.07273348,5.71878297 5.93062899,5.71417773 5.81944538,5.5898363 C5.77109038,5.53556028 5.74674841,5.47898164 5.74674841,5.42799507 C5.74674841,5.38589004 5.76319569,5.34904813 5.79609025,5.31977198 C5.88589239,5.2398382 6.03918103,5.32865351 6.13523314,5.36714014 C6.2092459,5.39773208 6.31417954,5.440495 6.41911318,5.440495 C6.49740223,5.440495 6.57832284,5.4181267 6.6523356,5.35233759 C6.73851934,5.27503538 6.78194016,5.17832537 6.78194016,5.07668119 C6.78194016,4.96681336 6.73917723,4.86878758 6.65299349,4.77240653 C6.48753386,4.58721016 6.26516665,4.56714448 6.26516665,4.56714448 L6.22108794,4.7404988 C6.35233723,4.7707618 6.45134985,4.82109047 6.51154689,4.88852432 C6.55858611,4.94148455 6.58194124,5.00069476 6.58194124,5.05299711 C6.58194124,5.10168105 6.56154662,5.14740449 6.52141526,5.18325956 C6.48917859,5.21187782 6.44970512,5.22240408 6.40694219,5.22174619 C6.32339001,5.22174619 6.2237195,5.17372014 6.14148311,5.1395098 C5.98391817,5.07470752 5.81780065,5.02207622 5.66911725,5.15497024 C5.59345977,5.22240408 5.55332841,5.30760099 5.55332841,5.40200837 C5.55332841,5.50167888 5.59280188,5.60759936 5.67701194,5.70200674" id="path4104" fill="#FFFFFF" transform="translate(6.167634, 5.228596) scale(-1, 1) rotate(-180.000000) translate(-6.167634, -5.228596) "></path>
            <path d="M16.6668174,11.4423844 C16.608594,11.4423844 16.5092525,11.4759368 16.4717527,11.5723179 C16.4622133,11.5969888 16.4582659,11.6219886 16.4585949,11.6469885 C16.4592528,11.7180408 16.4928052,11.7920535 16.5276734,11.8693557 L16.5493838,11.9193555 L16.923395,11.7512643 L16.8819478,11.6512648 C16.8122114,11.493042 16.7668169,11.4427133 16.6668174,11.4423844 L16.6668174,11.4423844 Z M15.901361,12.2111302 L16.3918189,11.9894209 L16.367148,11.934158 C16.300372,11.7835009 16.2750432,11.75883 16.070768,11.7581721 L15.6993885,11.7578432 L15.611231,11.5578443 L16.0388603,11.55916 C16.1257019,11.5588311 16.1928068,11.5588311 16.2457671,11.5792257 C16.2625433,11.5858046 16.28228,11.5966598 16.300372,11.6111334 C16.2990563,11.6002782 16.2954379,11.589423 16.2954379,11.5782389 C16.29478,11.5305418 16.3036615,11.4835026 16.3217535,11.4420554 C16.3803058,11.3052141 16.5395155,11.2381092 16.6566201,11.2384381 C16.862869,11.2384381 16.9418159,11.3617927 17.0421443,11.5890941 C17.0457627,11.5973177 17.1625384,11.8667242 17.1625384,11.8667242 L15.9839264,12.3976423 L15.901361,12.2111302 Z" id="path4108" fill="#FFFFFF" transform="translate(16.386885, 11.818040) scale(-1, 1) rotate(-180.000000) translate(-16.386885, -11.818040) "></path>
            <path d="M15.6807701,12.6173472 C15.5778102,12.6173472 15.4811002,12.6571496 15.3804428,12.7374123 C15.2784697,12.8186619 15.1702466,12.9456349 15.1702466,13.107805 C15.1702466,13.2203044 15.2314305,13.3278696 15.3255089,13.4456322 L15.4113637,13.5528684 L16.1518202,12.9620821 L16.0949126,12.8913588 C15.9577423,12.7189914 15.8636639,12.6173472 15.6807701,12.6173472 L15.6807701,12.6173472 Z M15.2189305,13.5933287 C15.0843918,13.4249086 14.9824187,13.2745804 14.9824187,13.0801736 C14.9824187,12.9153719 15.0574183,12.727215 15.2468909,12.5759 C15.3725481,12.4759006 15.5146526,12.4212956 15.6613623,12.4212956 C15.8416245,12.4212956 15.9860316,12.4755716 16.2107015,12.757149 L16.4156346,13.0143845 L15.4024822,13.8232617 L15.2189305,13.5933287 L15.2189305,13.5933287 Z" id="path4112" fill="#FFFFFF" transform="translate(15.699027, 13.122279) scale(-1, 1) rotate(-180.000000) translate(-15.699027, -13.122279) "></path>
            <path d="M15.0983095,6.54523869 C13.8917371,6.11859627 12.7657564,6.14787243 11.8052353,6.36234495 C11.8364851,6.79128999 12.0141157,7.24984013 12.2858248,7.33503703 C14.4012738,7.99128347 15.9420549,9.96364118 15.9420549,12.2886286 C15.9420549,15.1481525 13.6114754,17.4744557 10.7466884,17.4744557 C7.88157234,17.4744557 5.55099289,15.1481525 5.55099289,12.2886286 C5.55099289,10.6978477 6.29408096,9.18667172 7.54473207,8.20707177 C7.24769421,8.07648038 6.99440611,7.86529731 6.81118342,7.60246979 C6.71644709,7.66727207 6.62500022,7.73404803 6.5404612,7.80345554 L6.49309304,7.75608738 C6.54967168,7.6876667 6.63750015,7.59753561 6.74276274,7.49654931 C6.58881621,7.23766914 6.49967195,6.93602604 6.49967195,6.61365937 C6.49967195,6.5633307 6.50296141,6.51365991 6.5072377,6.46497597 C4.64606359,7.82154755 3.5398196,9.97778584 3.5398196,12.2886286 C3.5398196,16.2619623 6.77302573,19.4948394 10.7466884,19.4948394 C14.720351,19.4948394 17.9532282,16.2619623 17.9532282,12.2886286 C17.9532282,10.0126541 16.9127733,7.92154701 15.0983095,6.54523869 M10.9174111,4.84426108 C9.92169285,4.84426108 8.67893644,5.18274609 7.8249937,5.68636177 C7.56644248,5.83899252 7.25789152,6.12320151 7.25789152,6.6080673 C7.25789152,6.73931658 7.28354928,6.8643159 7.32894377,6.97911791 C7.64769204,6.7156325 7.97729551,6.46859437 8.18387334,6.35576603 C8.2312415,6.32945039 8.25887293,6.31695046 8.31413579,6.31695046 C8.4470298,6.31695046 8.55426606,6.42484461 8.55426606,6.55806757 C8.55426606,6.65971175 8.4990032,6.74227709 8.40788528,6.78207951 C8.2312415,6.85938172 7.86183561,7.01201247 7.46381145,7.21826135 C7.64769204,7.46135214 7.93782204,7.61891707 8.26413606,7.61891707 C8.41347735,7.61891707 8.55722657,7.58700935 8.69143637,7.5238518 L8.96413226,7.36497108 C9.8318907,6.8347108 12.0644444,5.47550765 14.7598245,6.22254307 C13.7368037,5.29919282 12.4766132,4.84426108 10.9174111,4.84426108 M11.7710249,4.23768543 C11.4973422,4.23768543 11.2726724,4.04393648 11.2726724,3.74656967 C11.2726724,3.45545283 11.5003027,3.25545392 11.7710249,3.25545392 C11.8121431,3.25545392 11.8516166,3.26236177 11.8897743,3.27223014 C11.8325377,2.86039027 11.3529351,2.39953751 10.7341884,2.19230179 C10.120376,2.39789278 9.64110227,2.862035 9.57761577,3.2719012 C9.61544451,3.26203283 9.65458904,3.25545392 9.69570723,3.25545392 C9.99077142,3.25545392 10.1940598,3.46203174 10.1940598,3.74656967 C10.1940598,4.01762083 9.98090305,4.23044862 9.70623349,4.23636964 C9.79011462,4.38965829 9.87070628,4.55248635 9.92991649,4.72715645 C10.2700462,4.66827519 10.6055707,4.63570958 10.9174111,4.63570958 C11.1733308,4.63570958 11.4216847,4.64985424 11.6641176,4.67419622 C11.6963543,4.53373645 11.7440514,4.38702672 11.7999721,4.23538281 C11.7904327,4.23571175 11.7808933,4.23768543 11.7710249,4.23768543 M8.24834667,8.14720368 C8.76084389,8.14720368 9.2401176,7.88437616 9.52103713,7.46332581 C9.27498583,7.52582547 9.03321083,7.60707503 8.79768579,7.70740343 L8.79669896,7.70608765 L8.78913321,7.71036394 C8.62400253,7.7879951 8.44801664,7.82746857 8.26413606,7.82746857 C7.85591459,7.82746857 7.49473234,7.62746966 7.27203618,7.32122132 C7.17795774,7.37319472 7.08420825,7.42812863 6.99210349,7.48536516 C7.26841778,7.88437616 7.72795476,8.14720368 8.24834667,8.14720368 M10.2766251,7.12484081 C10.2128097,7.07747264 10.162481,7.02122295 10.1259681,6.95905223 C9.93814013,7.0504991 9.7019572,7.16793268 9.54768172,7.25444537 C9.76610159,7.20609037 10.0516264,7.14490649 10.2766251,7.12484081 M11.8539192,7.22253764 C11.7049069,7.00970985 11.6160915,6.71365883 11.589118,6.4139894 C11.1183969,6.53537032 10.6910966,6.69852733 10.3184012,6.8685922 C10.3891245,7.00576251 10.5920839,7.10280145 10.7466884,7.10280145 C11.1266205,7.10280145 11.4966843,7.14490649 11.8539192,7.22253764 M10.7466884,7.31135295 C10.428269,7.31135295 10.1151129,7.34194489 9.80820662,7.4004972 C9.51182665,7.98174405 8.90426416,8.35542623 8.24834667,8.35542623 C8.08716333,8.35542623 7.93190102,8.33207109 7.78354656,8.2909529 C6.52269814,9.22778992 5.77072854,10.7179134 5.77072854,12.2886286 C5.77072854,15.0330216 8.00295326,17.2659042 10.7466884,17.2659042 C13.4904235,17.2659042 15.7226482,15.0330216 15.7226482,12.2886286 C15.7226482,9.54423557 13.4904235,7.31135295 10.7466884,7.31135295 M8.24834667,5.08011506 C7.40525914,5.08011506 6.7194076,5.76794028 6.7194076,6.61365937 C6.7194076,6.87846056 6.78684145,7.12780132 6.90526186,7.34523435 C6.98387985,7.27385316 7.06808992,7.1998404 7.1552605,7.12484081 C7.08124774,6.96793376 7.03848482,6.79326366 7.03848482,6.6080673 C7.03848482,6.14853032 7.27039145,5.76859817 7.70920486,5.50938905 C7.96117718,5.36070565 8.24670194,5.22649585 8.54867399,5.10972017 C8.4506482,5.09031238 8.3503198,5.08011506 8.24834667,5.08011506 M18.1729638,12.2886286 C18.1729638,16.3770932 14.841403,19.703062 10.7466884,19.703062 C6.65197376,19.703062 3.3204129,16.3770932 3.3204129,12.2886286 C3.3204129,9.8360103 4.53159053,7.5498385 6.56085583,6.1643197 C6.7605258,5.42123163 7.44045632,4.87156357 8.24834667,4.87156357 C8.46676654,4.87156357 8.67893644,4.91301071 8.88025113,4.99097081 C9.15196019,4.90116867 9.43255077,4.82682697 9.7128124,4.76926149 C9.63386546,4.54426271 9.51873451,4.33044808 9.40886669,4.14590961 C9.40886669,4.14590961 9.41149825,4.1465675 9.41511665,4.14722539 C9.41314298,4.14590961 9.41084036,4.14492277 9.40886669,4.14360699 L9.56347111,3.98867362 C9.60294458,4.01038403 9.64768118,4.02354185 9.69570723,4.02354185 C9.84866693,4.02354185 9.97300836,3.89952937 9.97300836,3.74656967 C9.97300836,3.59360998 9.84866693,3.46926855 9.69570723,3.46926855 C9.56215533,3.46926855 9.4450507,3.5547944 9.38353788,3.64624127 C9.38353788,3.64624127 9.34768281,3.52157089 9.34768281,3.3570981 C9.34636702,2.8245352 9.92794281,2.21598588 10.7341884,1.95940832 C11.5397762,2.2103938 12.121023,2.82321942 12.121023,3.35611127 C12.121023,3.5396629 12.0845101,3.64624127 12.0845101,3.64624127 C12.0226683,3.57157062 11.9223399,3.46926855 11.7710249,3.46926855 C11.6183942,3.46926855 11.4937238,3.59360998 11.4937238,3.74656967 C11.4937238,3.89952937 11.6183942,4.02354185 11.7710249,4.02354185 C11.824643,4.02354185 11.8743138,4.00775246 11.9167478,3.98110787 L12.066747,4.131436 C12.0700364,4.13044917 12.0723391,4.12979128 12.0723391,4.12979128 C11.9874711,4.33307965 11.9256293,4.51959179 11.8835243,4.69886713 C13.2187144,4.87847142 14.345353,5.44359993 15.2407429,6.38537114 L15.240414,6.38635797 C17.1038907,7.80246871 18.1729638,9.95114125 18.1729638,12.2886286" id="path4116" fill="#FFFFFF" transform="translate(10.746688, 10.831235) scale(-1, 1) rotate(-180.000000) translate(-10.746688, -10.831235) "></path>
        </g>
    </g>
</svg>