<svg xmlns="http://www.w3.org/2000/svg" viewBox="0 0 239 59">
  <g fill="currentColor" data-original-fill="#C00">
    <path d="M.417 45.57C.545 43.457.673 40.322.673 37.57L.673.133 6.24.133 6.24 19.588 6.368 19.588C8.352 16.132 11.936 13.892 16.927 13.892 24.607 13.892 30.046 20.291 29.982 29.699 29.982 40.769 23.006 46.273 16.095 46.273 11.615 46.273 8.032 44.546 5.728 40.45L5.537 40.45 5.281 45.57.417 45.57zM6.241 33.154C6.241 33.859 6.369 34.562 6.497 35.203 7.585 39.106 10.849 41.795 14.944 41.795 20.832 41.795 24.352 36.994 24.352 29.891 24.352 23.684 21.152 18.372 15.137 18.372 11.297 18.372 7.713 20.996 6.561 25.284 6.433 25.924 6.241 26.692 6.241 27.588L6.241 33.154zM53.125 45.57L52.677 41.666 52.485 41.666C50.757 44.098 47.429 46.273 43.013 46.273 36.742 46.273 33.542 41.857 33.542 37.378 33.542 29.89 40.198 25.795 52.165 25.858L52.165 25.218C52.165 22.658 51.461 18.051 45.125 18.051 42.246 18.051 39.238 18.947 37.062 20.355L35.782 16.644C38.342 14.98 42.054 13.892 45.957 13.892 55.429 13.892 57.732 20.355 57.732 26.563L57.732 38.146C57.732 40.834 57.86 43.457 58.244 45.57L53.125 45.57zM52.293 29.764C46.149 29.635 39.174 30.723 39.174 36.739 39.174 40.387 41.606 42.114 44.486 42.114 48.518 42.114 51.077 39.555 51.973 36.931 52.165 36.355 52.293 35.715 52.293 35.139L52.293 29.764z"/>
    <polygon points="65.197 .133 70.828 .133 70.828 45.57 65.197 45.57"/>
    <path d="M77.593 39.811C79.257 40.899 82.2 42.051 85.016 42.051 89.112 42.051 91.032 40.002 91.032 37.443 91.032 34.755 89.432 33.284 85.272 31.747 79.705 29.765 77.081 26.692 77.081 22.98 77.081 17.988 81.113 13.893 87.769 13.893 90.905 13.893 93.656 14.789 95.384 15.813L93.976 19.909C92.76 19.141 90.52 18.117 87.641 18.117 84.313 18.117 82.457 20.037 82.457 22.341 82.457 24.901 84.312 26.053 88.344 27.589 93.72 29.637 96.471 32.324 96.471 36.933 96.471 42.371 92.247 46.211 84.888 46.211 81.496 46.211 78.361 45.379 76.184 44.1L77.593 39.811zM119.915 45.57L119.467 41.666 119.275 41.666C117.547 44.098 114.22 46.273 109.804 46.273 103.533 46.273 100.333 41.857 100.333 37.378 100.333 29.89 106.989 25.795 118.955 25.858L118.955 25.218C118.955 22.658 118.252 18.051 111.916 18.051 109.036 18.051 106.028 18.947 103.853 20.355L102.573 16.644C105.133 14.98 108.844 13.892 112.748 13.892 122.219 13.892 124.523 20.355 124.523 26.563L124.523 38.146C124.523 40.834 124.65 43.457 125.035 45.57L119.915 45.57zM119.083 29.764C112.939 29.635 105.964 30.723 105.964 36.739 105.964 40.387 108.396 42.114 111.276 42.114 115.308 42.114 117.867 39.555 118.763 36.931 118.954 36.355 119.083 35.715 119.083 35.139L119.083 29.764zM131.94 22.979C131.94 19.779 131.876 17.155 131.684 14.596L136.612 14.596 136.868 19.588 137.059 19.588C138.788 16.644 141.668 13.892 146.788 13.892 151.011 13.892 154.212 16.452 155.556 20.1L155.683 20.1C156.644 18.372 157.859 17.028 159.14 16.068 160.995 14.66 163.042 13.892 165.986 13.892 170.082 13.892 176.162 16.58 176.162 27.331L176.162 45.57 170.658 45.57 170.658 28.035C170.658 22.083 168.482 18.5 163.939 18.5 160.74 18.5 158.244 20.868 157.283 23.62 157.027 24.388 156.836 25.412 156.836 26.435L156.836 45.57 151.332 45.57 151.332 27.011C151.332 22.083 149.156 18.5 144.869 18.5 141.349 18.5 138.789 21.315 137.892 24.131 137.574 24.963 137.445 25.923 137.445 26.883L137.445 45.57 131.941 45.57 131.941 22.979 131.94 22.979zM189.95 5.893C190.014 7.813 188.606 9.349 186.366 9.349 184.384 9.349 182.975 7.813 182.975 5.893 182.975 3.909 184.446 2.373 186.495 2.373 188.606 2.373 189.95 3.909 189.95 5.893zM183.679 45.57L183.679 14.596 189.312 14.596 189.312 45.57 183.679 45.57zM218.358 40.77L218.229 40.77C216.565 43.842 213.11 46.274 208.118 46.274 200.888 46.274 194.999 40.003 194.999 30.595 194.999 19.012 202.487 13.892 209.015 13.892 213.814 13.892 217.015 16.26 218.55 19.267L218.679 19.267 218.87 14.596 224.181 14.596C224.054 17.22 223.99 19.908 223.99 23.107L223.99 58.24 218.359 58.24 218.359 40.77 218.358 40.77zM218.358 27.139C218.358 26.371 218.294 25.475 218.102 24.771 217.27 21.315 214.262 18.371 210.038 18.371 204.216 18.371 200.694 23.299 200.694 30.275 200.694 36.418 203.639 41.795 209.846 41.795 213.494 41.795 216.629 39.555 217.908 35.65 218.164 34.882 218.357 33.795 218.357 32.962L218.357 27.139 218.358 27.139zM238.585 18.244C238.585 20.848 236.541 22.891 233.881 22.891 231.249 22.891 229.15 20.847 229.15 18.244 229.15 15.696 231.25 13.652 233.881 13.652 236.541 13.652 238.585 15.696 238.585 18.244zM230.325 18.244C230.325 20.288 231.837 21.912 233.909 21.912 235.925 21.912 237.409 20.288 237.409 18.272 237.409 16.228 235.925 14.576 233.881 14.576 231.837 14.576 230.325 16.228 230.325 18.244zM233.153 20.652L232.089 20.652 232.089 16.06C232.509 15.976 233.097 15.92 233.853 15.92 234.721 15.92 235.114 16.06 235.45 16.256 235.702 16.452 235.897 16.816 235.897 17.264 235.897 17.768 235.505 18.16 234.946 18.328L234.946 18.384C235.393 18.552 235.645 18.888 235.786 19.504 235.926 20.204 236.01 20.484 236.122 20.652L234.974 20.652C234.834 20.484 234.75 20.064 234.611 19.532 234.527 19.028 234.247 18.803 233.659 18.803L233.155 18.803 233.155 20.652 233.153 20.652zM233.181 18.048L233.685 18.048C234.274 18.048 234.749 17.853 234.749 17.376 234.749 16.956 234.441 16.676 233.769 16.676 233.49 16.676 233.293 16.704 233.181 16.732L233.181 18.048z"/>
  </g>
</svg>
