<svg xmlns="http://www.w3.org/2000/svg" width="406" height="99" viewBox="0 0 406 99">
  <g fill="#ffffff" fill-rule="evenodd">
    <path d="M119.071 67.873C107.877 67.873 98.803 58.8 98.803 47.607 98.803 36.415 107.877 27.342 119.071 27.342 130.264 27.342 139.34 36.415 139.34 47.607 139.34 58.8 130.264 67.873 119.071 67.873zM133.221 22.706L133.203 22.694C129.03 20.324 124.211 18.965 119.071 18.965 103.249 18.965 90.421 31.788 90.421 47.607 90.421 63.426 103.249 76.253 119.071 76.253 124.211 76.253 129.029 74.896 133.2 72.523L133.208 72.517C145.043 65.677 147.72 69.855 147.72 69.855L147.72 25.361C147.72 25.361 145.056 29.546 133.221 22.706zM185.759 67.873C174.567 67.873 165.494 58.8 165.494 47.607 165.494 36.415 174.567 27.342 185.759 27.342 196.959 27.342 206.028 36.415 206.028 47.607 206.028 58.8 196.959 67.873 185.759 67.873zM205.53 8.636L205.53 26.89C200.388 21.984 193.429 18.965 185.759 18.965 169.94 18.965 157.111 31.788 157.111 47.607 157.111 63.426 169.94 76.253 185.759 76.253 190.902 76.253 195.723 74.893 199.893 72.523L199.903 72.517C211.738 65.677 214.408 69.855 214.408 69.855L214.408.058 214.381.058C213.867.129 205.786 1.325 205.53 8.636zM58.845 18.888C51.58 18.888 45.12 22.406 41.075 27.825 36.867 22.406 30.202 18.888 22.935 18.888 17.821 18.888 13.108 20.635 9.354 23.556 9.354 23.556 4.435 27.796.774 25.361L.774 75.108C.774 75.108 9.67 74.075 9.747 66.286L9.747 41.055C9.747 33.47 15.347 27.298 22.935 27.298 30.448 27.298 36.569 33.351 36.687 40.84 36.686 40.91 36.681 40.983 36.681 41.055L36.681 75.108 36.703 75.108C36.703 75.108 45.556 74.078 45.675 66.342L45.675 41.055C45.675 40.995 45.669 40.933 45.669 40.872 45.76 33.372 51.319 27.298 58.845 27.298 66.433 27.298 72.032 33.47 72.032 41.055L72.032 75.108 72.036 75.108C72.036 75.108 81.009 74.066 81.009 66.184L81.009 41.055C81.009 28.832 71.068 18.888 58.845 18.888M382.739 47.334L405.342 20.108 398.648 20.108C396.517 20.17 394.414 20.597 392.581 22.534L377.412 40.802 366.613 27.559C361.536 21.451 354.605 20.193 350.086 20.108L349.348 20.108 348.993 20.123 371.586 47.823 348.93 75.108 354.996 75.108C357.33 75.108 359.792 74.666 361.809 72.538L376.909 54.353 387.839 67.757C393.146 74.016 400.78 75.021 404.488 75.108L405.389 75.108 382.739 47.334M252.375 67.873C241.175 67.873 232.437 58.8 232.437 47.607 232.437 36.415 241.175 27.342 252.375 27.342 263.57 27.342 272.64 36.415 272.64 47.607 272.64 58.8 263.57 67.873 252.375 67.873zM266.509 22.694L266.5 22.691C262.33 20.324 257.512 18.965 252.375 18.965 236.549 18.965 223.725 31.788 223.725 47.607 223.725 63.426 236.549 76.253 252.375 76.253 260.284 76.253 267.445 73.047 272.632 67.864L272.632 69.617C272.609 71.029 272.448 73.061 272.116 74.491 269.597 85.398 258.716 92.197 247.811 89.678L247.814 89.673C245.26 89.088 242.828 88.004 240.658 86.47 240.008 86.045 235.503 82.932 229.698 87.436 233.852 92.829 239.645 96.387 245.924 97.835L245.921 97.843C261.342 101.404 276.722 91.79 280.283 76.378 280.757 74.316 280.989 72.254 281.012 70.228L281.012 47.951C281.014 47.834 281.023 47.72 281.023 47.607L281.023 25.361C281.023 25.361 278.347 29.537 266.509 22.694zM299.186 43.152C301.182 33.867 308.497 27.315 318.656 27.306 328.063 27.315 336.034 33.867 337.685 43.152L299.186 43.152zM345.038 37.887C344.987 37.667 344.926 37.445 344.839 37.206 344.602 36.54 344.347 35.902 344.077 35.282 344.02 35.147 343.964 35.013 343.905 34.879 343.777 34.592 343.377 33.761 343.309 33.628 341.686 30.422 339.651 27.86 337.407 25.833 337.37 25.799 337.332 25.763 337.295 25.725L337.292 25.731C337.043 25.509 336.794 25.295 336.537 25.082 332.821 21.964 327.175 19.896 322.055 19.238 320.914 19.078 319.833 19.005 318.84 19.005 318.781 19.005 318.721 19.008 318.665 19.01 318.606 19.008 318.546 19.005 318.485 19.005L318.485 19.013C301.99 19.188 290.396 31.479 290.396 47.753 290.396 63.531 303.219 76.366 318.977 76.366 328.941 76.366 338.13 71.259 343.555 62.711 337.002 59.137 333.472 62.084 332.535 62.946 328.795 66.215 324.025 68.065 318.977 68.065 309.182 68.065 300.986 61.065 299.109 51.802L334.479 51.802 334.759 51.8 337.619 51.8C337.619 51.8 342.253 51.971 344.453 49.622 346.407 47.543 346.164 45.804 346.176 44.363 346.176 44.363 346.21 41.646 345.038 37.887z"/>
  </g>
</svg>
