<svg id="moj" xmlns="http://www.w3.org/2000/svg" viewBox="0 0 509.3 71.1">
  <style>.st0{fill:#000}</style>
  <path class="st0" d="M0 0h4.2v71.1H0zM131.6 15.5h6.4l11.1 29.7 11.2-29.7h6.4v35.3h-4.5V21.4h-.1l-11 29.4h-4l-11-29.4h-.1v29.4h-4.5V15.5zM176.9 20.6h-4.2v-5.1h4.2v5.1zm-4.2 4.6h4.2v25.6h-4.2V25.2zM182.1 25.2h4v4.1h.1c1.8-3.2 4.7-4.7 8.3-4.7 6.7 0 8.8 3.9 8.8 9.4v16.8h-4.2V33.5c0-3.1-2-5.1-5.2-5.1-5.1 0-7.6 3.4-7.6 8v14.5h-4.2V25.2zM212.7 20.6h-4.2v-5.1h4.2v5.1zm-4.2 4.6h4.2v25.6h-4.2V25.2zM220.6 42.8c.1 3.8 3.4 4.9 6.9 4.9 2.6 0 6.2-.6 6.2-3.8 0-3.3-4.2-3.8-8.4-4.8-4.2-.9-8.4-2.3-8.4-7.2 0-5.1 5.1-7.3 9.6-7.3 5.6 0 10.1 1.8 10.5 8h-4.2c-.3-3.3-3.2-4.3-5.9-4.3-2.5 0-5.4.7-5.4 3.3 0 3 4.5 3.5 8.4 4.5 4.2.9 8.4 2.3 8.4 7.3 0 6.1-5.7 8.1-10.9 8.1-5.7 0-10.6-2.3-10.8-8.7h4zM247.5 25.2h5.1v3.7h-5.1v15.9c0 1.9.5 2.3 3.2 2.3h1.9v3.7h-3.2c-4.4 0-6.1-.9-6.1-5.6V28.9h-4.4v-3.7h4.4v-7.7h4.2v7.7zM255.7 25.2h4v5.4h.1c2-4.1 4.9-6.1 9.4-6v4.5c-6.8 0-9.3 3.9-9.3 10.3v11.4h-4.2V25.2zM283 54.2c-1.9 5-3.7 6.8-7.4 6.8-1 0-2-.1-2.9-.4v-3.9c.8.2 1.6.6 2.5.6 1.7 0 2.7-.8 3.5-2.3l1.7-4.4-10.1-25.4h4.8l7.5 20.9h.1l7.2-20.9h4.5l-11.4 29zM319.9 24.4c8.1 0 12.4 5.9 12.4 13.4s-4.3 13.4-12.4 13.4c-8.1 0-12.4-5.9-12.4-13.4s4.3-13.4 12.4-13.4zm0 23.1c4.4 0 8-3.5 8-9.7 0-6.2-3.6-9.7-8-9.7s-8 3.5-8 9.7c.1 6.2 3.6 9.7 8 9.7zM337.4 28.7h-4.3V25h4.3v-3.8c0-4.2 2.5-6.3 7.1-6.3.8 0 1.9.1 2.7.4V19c-.7-.2-1.6-.3-2.4-.3-2 0-3.2.6-3.2 2.9V25h5v3.7h-5v21.9h-4.2V28.7zM381.8 41.8c0 4.8-2.5 9.7-10.4 9.7-6.6 0-10.3-3.7-10.3-10.3V39h4.7v1.5c0 4.1 1.1 7 5.7 7 4.3 0 5.6-2.5 5.6-6.4V15.3h4.7v26.5zM408.7 50.6h-4v-4.1h-.1c-1.8 3.2-4.7 4.7-8.3 4.7-6.7 0-8.8-3.9-8.8-9.4V25h4.2v17.3c0 3.1 2 5.1 5.2 5.1 5.1 0 7.6-3.4 7.6-8V25h4.2v25.6zM416.5 42.5c.1 3.8 3.4 4.9 6.9 4.9 2.6 0 6.2-.6 6.2-3.8 0-3.3-4.2-3.8-8.4-4.8-4.2-.9-8.4-2.3-8.4-7.2 0-5.1 5.1-7.3 9.6-7.3 5.6 0 10.1 1.8 10.5 8h-4.2c-.3-3.3-3.2-4.3-5.9-4.3-2.5 0-5.4.7-5.4 3.3 0 3 4.5 3.5 8.4 4.5 4.2.9 8.4 2.3 8.4 7.3 0 6.1-5.7 8.1-10.9 8.1-5.7 0-10.6-2.3-10.8-8.7h4zM443.5 25h5.1v3.7h-5.1v15.9c0 1.9.5 2.3 3.2 2.3h1.9v3.7h-3.2c-4.4 0-6.1-.9-6.1-5.6V28.7h-4.4V25h4.4v-7.7h4.2V25zM456.1 20.4h-4.2v-5.1h4.2v5.1zm-4.2 4.6h4.2v25.6h-4.2V25zM478.8 33.2c-.6-3.2-2.9-5.1-6.3-5.1-6.1 0-8 4.8-8 10 0 4.7 2.1 9.4 7.5 9.4 4.1 0 6.5-2.4 7-6.2h4.3c-.9 6.2-4.9 9.9-11.3 9.9-7.8 0-12-5.4-12-13.1 0-7.7 4-13.7 12.1-13.7 5.8 0 10.4 2.7 11 8.8h-4.3zM508.9 42.5c-1.1 5.6-5.2 8.7-10.9 8.7-8.2 0-12-5.6-12.3-13.5 0-7.7 5-13.3 12-13.3 9.1 0 11.8 8.5 11.6 14.7h-19.2c-.1 4.5 2.4 8.4 8 8.4 3.5 0 5.9-1.7 6.6-5h4.2zm-4.1-7.1c-.2-4-3.2-7.2-7.4-7.2-4.4 0-7 3.3-7.3 7.2h14.7z"/>
  <g>
    <path class="st0" d="M58 11.5c-.4.8-.8 1.2-.7 1.8.1.6.7 1 1 1.6.3-.7.7-1.2.7-1.8-.1-.4-.9-1.2-1-1.6M68.4 11.5c.4.8.8 1.2.7 1.8-.1.6-.7 1-1 1.6-.3-.7-.7-1.2-.7-1.8.1-.4.8-1.2 1-1.6M52 11.1c.4 0 .7-.3.7-.7s-.3-.7-.7-.7c-.4 0-.7.3-.7.7s.3.7.7.7M52.5 12.1c0-.4-.3-.7-.7-.7-.4 0-.7.3-.7.7s.3.7.7.7c.4 0 .7-.3.7-.7M52.8 13.8c0-.4-.3-.7-.7-.7-.4 0-.7.3-.7.7 0 .4.3.7.7.7.4 0 .7-.3.7-.7M55.9 7.8c.4 0 .7-.3.7-.7 0-.4-.3-.7-.7-.7-.4 0-.7.3-.7.7 0 .3.3.7.7.7M54.2 8.3c.4 0 .7-.3.7-.7 0-.4-.3-.7-.7-.7-.4 0-.7.3-.7.7 0 .4.3.7.7.7M52.8 9.5c.4 0 .7-.3.7-.7 0-.4-.3-.7-.7-.7-.4 0-.7.3-.7.7 0 .4.3.7.7.7M57.7 7.9c.4 0 .7-.3.7-.7 0-.4-.3-.7-.7-.7-.4 0-.7.3-.7.7 0 .4.4.7.7.7M59.5 8.4c.4 0 .7-.3.7-.7 0-.4-.3-.7-.7-.7-.4 0-.7.3-.7.7 0 .4.3.7.7.7M61.1 9.2c.4 0 .7-.3.7-.7 0-.4-.3-.7-.7-.7-.4 0-.7.3-.7.7 0 .4.3.7.7.7M73.6 10.4c0 .4.3.7.7.7.4 0 .7-.3.7-.7s-.3-.7-.7-.7c-.4 0-.7.3-.7.7M74.5 11.4c-.4 0-.7.3-.7.7 0 .4.3.7.7.7.4 0 .7-.3.7-.7 0-.4-.3-.7-.7-.7M74.2 13.1c-.4 0-.7.3-.7.7 0 .4.3.7.7.7.4 0 .7-.3.7-.7 0-.4-.3-.7-.7-.7M70.4 7.8c.4 0 .7-.3.7-.7 0-.4-.3-.7-.7-.7-.4 0-.7.3-.7.7 0 .3.3.7.7.7M72.2 8.3c.4 0 .7-.3.7-.7 0-.4-.3-.7-.7-.7-.4 0-.7.3-.7.7 0 .4.3.7.7.7M73.5 9.5c.4 0 .7-.3.7-.7 0-.4-.3-.7-.7-.7-.4 0-.7.3-.7.7 0 .4.4.7.7.7M68.6 7.9c.4 0 .7-.3.7-.7 0-.4-.3-.7-.7-.7-.4 0-.7.3-.7.7 0 .4.3.7.7.7M66.9 8.4c.4 0 .7-.3.7-.7 0-.4-.3-.7-.7-.7-.4 0-.7.3-.7.7 0 .4.3.7.7.7M64.5 8.5c0 .4.3.7.7.7.4 0 .7-.3.7-.7 0-.4-.3-.7-.7-.7-.4 0-.7.3-.7.7M62 12.3h.8v-3c-.3 0-.5-.1-.8-.2v3.2zM64.4 9c-.2.1-.5.2-.8.2v3h.8V9zM62.7 5.7V4c-.9.2-1.6.9-1.7 1.8h1.7zM63.6 5.7h1.7c-.2-.9-.8-1.6-1.7-1.8v1.8z"/>
    <path class="st0" d="M61 6.6c.2 1 1.1 1.7 2.2 1.7s1.9-.7 2.1-1.7H61zM64.4 3.7c-.5-.4-.9-1-1-1.6.6.1 1.2.5 1.6 1V.7c-.4.5-1 .9-1.6 1 .1-.6.4-1.1.9-1.7H62c.5.6.9 1.1.9 1.7-.6-.1-1.2-.5-1.6-1v2.4c.4-.5 1-.9 1.6-1-.1.6-.5 1.2-1 1.6h2.5zM64.4 54c-.5 0-.9-.4-.9-.9s.4-.9.9-.9.9.4.9.9-.4.9-.9.9m-4.1-1.3c-.5 0-.9-.4-.9-.9s.4-.9.9-.9.9.4.9.9-.4.9-.9.9m-1.4-4.2l-.2-.2c-.4-.3-.8-.3-1.2 0-.2.2-.4.3-.5.5l-.2.3.2.1c.5.4.5.8.4 1l-.2.2c-.2.1-.5 0-.9-.2l-.3-.1-.1.2-.1.1c0 .1-.1.1-.1.2-.2.3-.3.6-.3.8v.2c.1.2.3.4.4.5l.1.1c.2.1.5.3.7.4-.4.2-.8.2-1.2 0-.6-.3-1-1-1-1.3 0-.5.2-1.2.7-1.9l.1-.1-.1-.1-.3-.6c.2 0 .5.1.7.1h.1l.1-.1c.3-.3 1.2-1.2 2.1-1.2.4 0 .8.2 1.1.5.2.3.4.6.4.8-.1 0-.3-.1-.4-.2m8.1 3.3c-2.2-.6-4.8-1.5-7.3-2.6.1-.5-.1-1.1-.5-1.5-.4-.4-.9-.7-1.4-.7-.2 0-.5 0-.7.1-.4-.3-.7-.7-1-1-.9-1.1-1.7-2.4-2.2-3.8-.3-.8-.5-1.6-.6-2.5-.1.7-.9 1.7-2.3 1.7 0-.1 0-.5-.1-.5-.4.4-.9.8-2.2.4.2 1 .5 1.9.8 2.9.7 2 1.8 3.8 3.2 5.3.4.5.9 1 1.4 1.4v.3c0 .5.5 1.3 1.2 1.7.6.3 1.2.2 1.8-.2 1.1.6 2.4 1.1 3.9 1.5 1.7.5 3.2.7 4.5.7 1.1 0 2.5-.5 3.9-1.4.6-.4 1.1-.7 1.5-1.1.1-.1.1-.1.2-.1-1.2.1-2.8-.3-4.1-.6M66.3 60.8c-.2-.3-.4-.5-.6-.5-.9 0-.5 2.4-1.6 2.4-.5 0-.7-.3-.7-.6s.2-.4.2-.7c0-.3-.2-.4-.4-.4s-.4.1-.4.4c0 .3.2.4.2.7 0 .3-.3.6-.7.6-1.1 0-.7-2.4-1.6-2.4-.2 0-.4.2-.6.5-.2-.3-.3-.7-.3-.9 0-.4.3-1 1-1 1.2 0 .9 1.6 1.5 1.6.3 0 .4-.2.4-.4 0-.5-.8-.9-.8-1.6 0-.7.6-1.2 1.3-1.8.7.5 1.3 1.1 1.3 1.8s-.8 1.1-.8 1.6c0 .2.2.4.4.4.6 0 .3-1.6 1.5-1.6.7 0 1 .6 1 1 0 .2-.1.5-.3.9m-3.1 3.3c-.3 0-.6-.3-.6-.6s.3-.6.6-.6.6.3.6.6-.3.6-.6.6m2.4-5.8c-.2 0-.3 0-.4.1v-2.6c-1.2 0-2.5-.2-3.9-.6v3.2c-.1 0-.3-.1-.5-.1-.9 0-1.5.8-1.5 1.5s.4 1.3.7 1.7c.2-.4.3-.7.6-.7.5 0 .2 2.3 1.6 2.4 0 .1-.1.2-.1.4 0 .6.5 1 1.1 1 .6 0 1-.5 1-1 0-.1 0-.3-.1-.4 1.3-.1 1.1-2.4 1.6-2.4.2 0 .4.3.6.7.3-.4.7-1 .7-1.7.1-.7-.5-1.5-1.4-1.5"/>
    <path class="st0" d="M96.6 61.5c-.1-.1-.2-.2-.3-.2-3.1.9-6.9-1.7-10.6-4.1-3.1-2.1-6.1-4-8.6-4-.9 0-1.8.2-2.5.6-.9.5-1.5 1.3-2 2.3-.4 1-.9 1.7-1.2 2.3-.4.7-.7 1.2-.7 1.8 0 .5.2.9.6 1.4.4.4.9.7 1.6 1.1.2.1.3.2.5.2.6.3 1 .5 1.1.8-1.2.5-2.8 1-4.6 1.3-2 .4-4.2.5-6.6.5-2.4 0-4.6-.2-6.6-.5-1.8-.3-3.4-.8-4.6-1.3.1-.5.4-.7 1.1-1 .2-.1.3-.1.5-.2.6-.3 1.2-.6 1.6-1 .4-.4.6-.8.6-1.3 0-.6-.3-1.1-.7-1.8-.4-.6-.8-1.3-1.2-2.3-.4-1-1.1-1.8-2-2.3-.7-.4-1.5-.6-2.5-.6-2.5 0-5.5 2-8.6 4-3.7 2.5-7.5 5-10.6 4.1-.1 0-.3 0-.3.2 0 .1 0 .3.2.4.9.4 1.8 1.1 2.6 1.7 1.1.9 2.2 1.7 3.3 1.7 1.1 0 2.3-.3 3.7-1.1 1.2-.7 2.5-1.5 3.8-2.4 2.4-1.7 5-3.4 7.4-3.6-.2.3-.5.5-.7.7-.7.6-1.3 1.2-1.3 2.3 0 .9.3 1.5.7 2.4.1.2.3.5.4.9.3.6.4 1.1.5 1.7.1.3.1.6.2 1 .2.6.4 1.6 2.2 2.5 2 1 5.5 1.6 10.4 1.6s8.4-.5 10.4-1.6c1.8-.9 2-2 2.2-2.5.1-.4.2-.7.2-1 .2-.7.3-1.1.5-1.7.2-.4.4-.8.5-1.1.4-.7.7-1.2.7-2 0-1.1-.6-1.7-1.4-2.4-.2-.2-.5-.4-.7-.7 2.4.2 4.9 1.9 7.4 3.6 1.2.8 2.5 1.7 3.8 2.4 1.4.7 2.6 1.1 3.7 1.1 1.2 0 2.2-.8 3.3-1.7.8-.6 1.6-1.3 2.6-1.7v-.5M63.6 37.5V25.9c1.2.1 2.4.3 3.5.9 1.2.6 2.3 1.4 3.2 2.5.9 1.1 1.7 2.4 2.2 3.8.5 1.4.8 2.9.8 4.4h-9.7zm-.4-16.4c-3.3 0-5.6 1-6.9 1.8-.8-.5-1.1-.9-1.1-1.4 0-1.9 5.3-2 8-2s8 .2 8 2c0 .5-.3 1-1.1 1.4-1.4-.9-3.6-1.8-6.9-1.8M63 37.5h-9.9c0-1.5.3-3 .8-4.4.5-1.4 1.2-2.7 2.2-3.8.9-1.1 2-1.9 3.2-2.5 1.2-.6 2.4-.9 3.7-.9v11.6zm15-.7c-.3-.3-.9-.8-1.2-1.4l-2.1-4.2c-.2-.3-.3-.6-.3-.9 0-.3.2-.6.3-.8.1-.2.5-.5.6-.7.1-.1.2-.3.3-.4-.6-1-1.1-1.7-1.9-2.5-.9-1-1.9-1.9-3-2.6.6-.4 1.2-.9 1.2-1.9 0-.5-.2-1-.6-1.3.6-2 1.7-4.4 2.7-5.4l-2-.8c.5.8.6 1.7.4 2.2-.5-.4-1-.9-1.1-1.5-.1.6-.4 1.6-.7 2.2.6-.3 1-.4 1.6-.2-.3.5-1.2 1.1-2.5.8-.7-.2-1.4-.5-1.4-1.1 0-.3.3-.7.7-.7.4 0 .5.7.3 1 .6-.3 1.2-2 .3-2.2-.7-.2-1.3.8-1.6 1.5-.1-.9-.5-1.7-1.2-1.7-.9.1-.6 1.7-.3 2.2.1-.6.4-.9.7-.9.2 0 .6.2.5.7-.1.5-.8.9-1.7.9-.8 0-2.3-.3-2.5-1.9.5.1 1.4.5 1.8 1.1-.1-1-.1-1.7 0-2.7-.5.6-1.2 1-1.7 1.1.2-.7.7-1.4 1.4-1.9h-3.6c.7.4 1.3 1.2 1.4 1.9-.5-.1-1.3-.4-1.7-1.1.1 1 .1 1.7 0 2.7.4-.5 1.2-.9 1.7-1-.1 1.6-1.6 1.9-2.4 1.9-.9 0-1.6-.3-1.7-.9-.1-.5.3-.7.5-.7.3 0 .6.3.6.9.3-.4.6-2.1-.3-2.2-.7 0-1.1.8-1.2 1.7-.2-.7-.9-1.7-1.6-1.5-.9.2-.3 1.9.3 2.2-.1-.3-.1-1 .3-1s.7.3.7.7c0 .5-.7.9-1.4 1.1-1.3.3-2.2-.4-2.5-.8.6-.3 1.1-.1 1.6.1-.3-.6-.6-1.6-.7-2.2-.2.7-.6 1.2-1.1 1.5-.1-.5-.1-1.5.4-2.3l-2 .8c.9 1 2.1 3.4 2.7 5.4-.4.3-.6.8-.6 1.3 0 .9.6 1.5 1.2 1.9-1.1.7-2.1 1.6-3 2.6-1.4 1.5-2.4 3.3-3.2 5.3.3.3 1.5 1.6 1.7 1.9.5.6.8 1.2.8 1.7 0 .9.2 1.3.7 1.9.1.2.4.9.4 1.3h10v10.7c-.4 0-.8.1-1.1.5 1.1.5 2.2.9 3.3 1.2.1-.7.2-1.1.6-1.6 0 0-1.4-.1-2.2-.2V38.1h9.6c0 1.5-.3 2.9-.8 4.2-.5 1.4-1.2 2.7-2.2 3.8-.9 1.1-2 1.9-3.2 2.5-.2.1-.2.2-.4.3-.2.2-.3.5-.5.9-.1.3-.2.5-.2 1 .5.1.7.2 1.1.3 3.4.8 4.2.6 4.4.5.8-.6 1.5-1.3 2.1-2 1.4-1.5 2.4-3.3 3.2-5.3.8-2.1 1.2-4.3 1.2-6.5.1-.5.1-.6.1-1"/>
    <path class="st0" d="M69 30.6c-.1.1-.1.2-.1.3 0 .1.1.2.3.2-.1.1-.2.2-.2.4.2 0 .3 0 .5-.1 0 .2 0 .3.1.3h.3c.7 1.2 1.2 2.5 1.4 3.9-.1-.1-.2-.1-.4-.1 0 .2.1.3.2.4h-2.4c0-.2-.1-.3-.2-.3s-.2 0-.3.1c0-.1-.1-.3-.2-.4-.1.1-.2.3-.2.4-.1-.1-.2-.2-.3-.1-.1 0-.2.2-.2.3h-2.1c.1-.1.1-.2.1-.4-.2 0-.3.1-.4.2v-3.3c.2 0 .3-.1.3-.2s0-.2-.1-.3c.1 0 .3-.1.4-.2-.1-.1-.3-.2-.4-.2.1-.1.1-.2.1-.3 0-.1-.2-.2-.3-.2v-2.8c.1.1.2.1.4.1 0-.2 0-.3-.1-.4.6.2 1.3.5 1.9.9.7.5 1.3 1.1 1.9 1.8m2.7 5c.2.1.1.4-.1.4-.2-1.7-.9-3.5-1.9-4.9.2-.1.4-.2.4-.5-.3 0-.5.1-.6.3-.1-.1-.1-.2-.2-.3-.6-.8-1.3-1.4-2.1-2-.7-.5-1.5-.8-2.3-1.1 0-.2.3-.2.4-.1 0-.3-.2-.5-.4-.4-.1 0-.2.1-.2.2-.1-.1-.2-.2-.4-.2 0 .2 0 .3.1.5-.1 0-.2.1-.3.1-.1.1 0 .4.3.5-.1-.1-.1-.4.1-.3v3.8c-.2-.1-.4 0-.6.2.2.2.4.2.6.2v4c-.2 0-.3-.2-.1-.3-.3 0-.4.3-.4.4 0 .1.1.2.3.1-.1.1-.2.2-.2.4.2 0 .3-.1.4-.2 0 .2.1.3.2.3.1.1.4-.1.4-.4-.1.2-.4.1-.4-.1h2.8c-.1.2 0 .4.2.6.2-.2.2-.4.2-.6h3.2c0 .2-.2.3-.3.1 0 .3.3.4.4.4.1 0 .2-.1.1-.3.1.1.2.2.4.2 0-.2-.1-.3-.2-.4.2 0 .3-.1.3-.2.4-.1.2-.4-.1-.4"/>
    <path class="st0" d="M70 34.6c.1-.1.2-.1.3-.2H70c.1-.1.2 0 .1-.2s-.2-.2-.3-.1c-.1.1-.9 0-.9-.6.1.1.2.2.3.2h.4c.2 0 .3-.1.3-.3 0-.3-.3-.5-.6-.7l-.3-.3c-.1-.2 0-.4-.3-.8 0-.1 0-.2-.1-.4-.2.3-.2.8.2 1.2.3.4 1 .7 1 1 0 .1-.1.1-.2.2h-.1-.1s-.1 0-.1-.1c-.1 0-.2-.1-.2-.2-.3-.3-.5-.7-.7-.9-.3-.4-.2-.8-.1-1.1.2-.3-.1-.9-.3-1.1v-.3h-.2l-.2-.2c-.1 0-.1-.1-.1-.2-.1.1-.1.1-.2.1h-.2c-.1.1-.1.1-.2.1s-.1.1-.1.2 0 .2.1.2l.1.1.1-.1c.1-.1.2-.1.3.1 0 .1 0 .1-.1.1H67c-.1 0-.1.1-.1.2s.1.1.2.1c.2 0 .4-.1.4.1 0 .3-.4.3-.5.7-.1-.1-.2-.1-.2-.2-.1-.1-.2-.2-.3-.4-.1-.1-.2-.2-.3-.2-.2-.1-.2-.1-.2-.3 0-.1.1-.2 0-.3v-.1c0-.1-.1-.1-.2-.1l.1.1-.1.1v.2c0-.1-.1-.2-.1-.2h-.1c0-.1-.1-.2-.2-.1h.1v.1c0 .1.1.1.2.1-.2-.1-.2 0-.2.1v.1c-.1 0-.1.1 0 .2v-.1h.1c-.1.1-.1.2 0 .2-.1.1-.2.1-.2-.1-.1.2.1.4.3.3v.2s0 .1.1.1V31l.1.1c.1.2.3.6.7.7-.2.1-.3.3-.5.5-.1.1-.3.2-.4.2l-.1-.1h-.1-.1c-.1 0-.2 0-.2.1h.1v.1s0 .1.2.1h-.1c-.1 0-.1-.1-.2 0v.1c-.1 0-.2.2-.1.3 0 0 0-.1.1-.1.1.1.1.1.3-.1 0 .1-.1.2 0 .3h.1c0 .1.2.1.2.1l-.1-.1h.1c.1-.1 0-.2 0-.2s.1.1.2.1.1-.1.1-.1c.1-.1.3-.1.4-.1 0-.1.1-.2.2-.2h.3c0-.1.1-.2.2-.3 0 .6.8.6 1 .9-.2-.1-.5-.2-.7-.1-.2 0-.5.2-.6.4 0 .2.2.5.4.6h-.5c-.2 0-.2-.3-.4-.2h-.1c-.1 0-.2.1-.2.2l.1-.1s0 .1.1.1h.1c0 .1-.3 0-.2.2v.1c0 .1 0 .1.2.1 0 0-.1 0-.1-.1h.1v.2c0 .1.1.2.2.1 0 0-.1 0-.1-.1h.1v-.1h.1s.1.1.2.1c0 0 .1 0 .1-.1 0 0 .1 0 .1.1 0-.1 0-.2.2 0l.1-.1s.2.1.2 0c.1-.1.1-.1.1-.2-.1-.2-.1-.2-.2-.3-.1-.3.4-.5.6-.4 0 .2.3.7.8.8.3.1.4-.2.5-.2v.4c0 .1-.2 0-.3 0H69c-.1 0-.2.1-.2.2 0 0 .1-.1.2-.1 0 .1.1.2.2.1-.1 0-.2.2-.1.2h.1c0 .1 0 .1.1.2v-.1h.1c.1 0 0-.1.1-.2v.2h.1c0 .1.1.1.2.1 0 0-.1 0-.1-.1l.1-.1c.1-.2-.1-.2-.1-.3 0-.1.2 0 .2-.2.1 0 .2-.1.2-.2 0 .2-.1.2-.1.2zM61 39.9h-.1c-.2 0-.4.1-.4.3 0 .2.1.3.3.3h.1v.1c0 .3-.1.8-.2 1.3l-1.5-2.1c.7-.3 1.2-.6 1.5-.6.3.1.4.3.3.7m-.5 3.7l-2.3-3.3c.3-.1.5-.1.7-.2l1.7 2.5c0 .3-.1.7-.1 1m-.3 1.5L57 40.4h.8l2.6 3.8c-.1.3-.1.6-.2.9m-3.7-4.7l3.6 5.2c-1.9-.8-3.8-2.5-3.6-5.2m5.4-.4h-.2v-.2c0-.6-.3-1-.9-1-.6 0-1.6.7-3.1.7-.6 0-1.4-.3-1.9-.6l-.2.4c0-.2-.2-.4-.4-.4s-.4.2-.4.4.2.4.4.4c.1 0 .2-.1.3-.1l-.2.4c.1 0 .1.1.2.1-.2 2.3 1.5 5.2 4.4 6 .4-.1.9-.1.9.4 0 .3-.2.4-.4.4s-.3-.1-.3-.2c0-.2.3-.1.4-.2 0-.2-.1-.3-.3-.3-.2 0-.5.1-.5.5s.3.7.7.7c.3 0 1-.2.9-1 .2 0 .3 0 .4-.2v-.5h-.2l.1-5.2h.1c.2 0 .4-.1.4-.3.1-.1 0-.2-.2-.2M59.3 29s0-.1 0 0l.1-.1s0-.1-.1-.1c0 0 .1 0 0 0h-.1.1l.2.1v.1s0-.1-.1-.1v.1h-.1v.2l-.1.1c0-.2 0-.2.1-.3m.2-.5c0 .1-.1.1-.1 0-.1-.1 0-.1-.1-.2 0 .2.2.2.2.2m.1.1l.2.1c-.1 0-.1.1-.1.1-.1 0-.1-.1-.1-.2M61.3 29.5c.7 0 1.1-.2 1.1-.4 0-.8-1.9-.3-1.9-.8 0-.1.1-.1.1-.2 1-.1 1-.8 1.7-.9-.8-.1-1 .5-1.3.6.2-.1.3-.3.2-.4-.2.2-.5.2-.8.5v.1c-.1.1-.2.2-.2.3 0 .7 2 .2 2 .8 0 .2-.3.3-.9.3-.4 0-.7-.3-1.4-.1 0-.1.3-.4.2-.5.1 0 .1-.1.1-.1l-.1-.1v-.1-.1s-.1-.1-.2-.1h-.2-.1-.1l-.1-.1v.2c-.1 0-.1.2-.2.2 0 0 0 .1.1.1-.1.1-.1.2-.1.2l.1.1c-.1.2-.1.4-.1.4s-.1-.1-.2-.1c-.1-.1-.1-.1-.1-.2s.1-.2.1-.3v-.1c0-.1-.1-.1-.2-.1 0 0 .1 0 0 .1h-.1v.1c0-.1 0-.2-.1-.2h-.1c0-.1-.1-.1-.2 0h.1v.1c0 .1 0 .1.1.1-.1-.1-.2 0-.2.1v.1c-.1 0-.1.1 0 .2v-.1h.1c-.1.1-.1.2 0 .2 0 .2-.3.1-.2 0-.2.2 0 .3.2.2v.1s0 .1.1.1v-.1l.2.2c-.1.2-.3.2-.4.2H58c-.1.1-.4.2-.5 0 0 0 0-.1-.1-.1l-.1-.1h-.1s-.1-.1-.2 0c0 0 .1 0 .1.1v.1s0 .1.2.2h-.1c-.1-.1-.1-.1-.2-.1h-.1c-.1 0-.2.1-.1.2 0 0 0-.1.1-.1v.1c0 .1.1.2.2 0 0 .1-.2.2-.1.2 0 .1.1.2.2.2 0 0-.1-.1-.1-.2h.1c.1 0 0-.1.1-.2 0 0 0 .1.1.1s.1-.1.1-.1l.1.1s.1 0 .1-.1v.2l.2-.2v.1h.2v0s0 .1.1.2c0-.3.2-.2.3-.3 0 0 0 .1-.1.1.1 0 .2-.1.2-.2l.1-.1c.1 0 .2 0 .2-.1v.1c.2 0 .4-.2.4-.2.4-.1-.2-.3.5-.3.1 0 .2 0 .2-.1-.1.1-.1.3.1.4 0 0 .2 0 .2.1h-.2c-.2.1-.2-.3-.4-.2-.1 0-.2.1-.2.2l.1-.1s0 .1.1.1h.1c0 .1-.2 0-.2.2v.1c0 .1 0 .1.1.1 0 0-.1 0 0-.1v.1c0 .1.1.1.2.1h-.1v-.1l.1.1c.1 0 0-.1.1-.2h.4s0-.2-.1-.3c-.1 0 0-.1-.1-.2.1 0 .2.1.4.1.3 0 0 0 .1-.1s.3 0 .3 0 .1 0 .1.1v.2c0 .1-.1 0-.2 0h-.1c-.1 0-.1.1-.1.2l.1-.1c0 .1.1.1.2.1-.1 0-.2.1-.1.2 0 .1 0 .1.1.1v-.1c.1 0 0-.1.1-.2v.2c0 .1.1.1.2 0 0 0-.1 0-.1-.1v-.1c0-.1-.1-.1-.1-.2s.1 0 .1-.2c0 0 0-.1-.1-.1h.1c-.1 0-.1-.1-.1-.1s.1-.1 0-.2c0 0-.2.1-.2 0 0 0 0-.1-.1-.1.9.3.8.2.5.1 0 0-.1 0 0 0M57.5 32c.1 0 .1 0 0 0 .1-.1.1-.1.2-.1 0-.1 0-.1-.1-.1.1 0 .1 0 .1-.1h-.1v-.1h.1l.2.1v.2s0-.1-.1-.1v.1h-.1v.2s-.1.1-.2.1V32m.3-.5c0 .1-.1.1-.2.1-.1-.1 0-.1-.1-.2.1 0 .2.1.3.1m.1.1s.2.1.3.1c-.1 0-.1.1-.2.1 0-.1-.1-.2-.1-.2m-1 1c0-.1 0-.1 0 0 0-.1 0-.1 0 0m5.3-.4c0-.2-.2-.3-.9-.3s-2.2.3-2.2-.1c0-.2.3-.2.7-.2l.1.1c.9.3 1.9-.2 2.5-.1-.6-.5-1.2 0-1.8-.1.4 0 .5-.1.5-.2-.3.2-.9-.1-1.3.1h-.1c-.5 0-.9 0-.9.3 0 .7 1.8.3 2.4.3.6 0 .7.1.7.2 0 .2-.6.2-.9.2-.5 0-2-.3-2.9-.1.1-.1.2-.3.2-.5.1 0 .1-.1.1-.2 0 0-.1-.1-.2-.1v-.1-.1s-.1-.1-.2-.1-.2 0-.2-.1h-.1-.1s-.1-.1-.2-.1v.2c-.1 0-.2.2-.2.2 0 .1.1.1.1.1-.1.1-.1.3-.2.3l.1.1v.3H57h-.1.1-.1l-.3-.3c-.1-.1-.1-.1-.1-.3 0-.1.1-.2.1-.3v-.1c0-.1-.1-.1-.2-.1l.1.1-.1.1v.2c0-.1-.1-.2-.1-.2h-.1c0-.1-.1-.2-.2-.1h.1v.1c0 .1.1.1.1.1-.2-.1-.2 0-.2.1v.1c-.1 0-.1.1 0 .2v-.1h.1c-.1.1-.1.2 0 .2 0 .2-.3.2-.3 0-.2.2.1.4.3.3 0 0 0 .1.1.1 0 .1 0 .1.1.1v-.1s.1.2.3.2c.1.1.2.2.3.1 0 .1.1.3.1.3h-.5c-.1.1-.5.2-.5.1 0 0 0-.1-.1-.2l-.1-.1h-.1c-.1-.1-.2-.1-.2 0 0 0 .1 0 .1.1v.1s0 .1.2.2h-.1c-.1-.1-.1-.2-.2-.1h-.1c-.1 0-.2.1-.2.2 0 0 0-.1.1-.1v.1c0 .1.1.2.3 0-.1.1-.2.2-.1.2 0 .1.1.2.2.2 0 0-.1-.1-.1-.2h.1c.1 0 .1-.2.1-.2 0 .1 0 .2.2.2.1 0 .2-.1.2-.2l.1.1s.1 0 .1-.1v.2s.2-.1.2-.2v.1h.2v0s0 .1.1.2c0-.3.2-.2.4-.3 0 0 0 .1-.1.1.2 0 .5-.3.6-.4h.2c.6.1.2-.5 1.2-.4.1 0 .2-.1.2-.1-.1.1-.1.4.1.4.1 0 .2 0 .2.1h-.2c-.2.1-.2-.3-.4-.2H59c-.1 0-.2.1-.2.2l.1-.1s0 .1.1.1h.1c0 .1-.3 0-.2.2v.1c0 .1 0 .1.2.1 0 0-.1 0-.1-.1h.1v.1c0 .1.1.2.2.1 0 0-.1 0-.1-.1h.1v-.1h.1c0 .1.1.1.2.1s0-.2.1-.2h.4c0-.1 0-.3-.1-.3s0-.1-.1-.2c.1.1.3.1.4.1.3 0 .4 0 .5-.1.2-.1.3 0 .4 0 0 0 .1 0 .1.1v.3c0 .1-.2 0-.3 0h-.1c-.1 0-.2.1-.2.2l.1-.1c0 .1.1.2.2.1-.1 0-.2.2-.1.2h.1c0 .1 0 .1.1.1v-.1h.1c.1 0 0-.1.1-.2v.2h.1c0 .1.1.1.2.1 0 0-.1 0-.1-.1v-.1c0-.2-.1-.2-.1-.2 0-.1.2 0 .2-.2 0 0 0-.1-.1-.1 0 0 .1 0 .1-.1-.1 0-.1-.1-.1-.2 0 0 .1-.1.1-.2 0 .1-.2.1-.2 0 0 0 0-.1-.1-.1-.2 0-.4 0-.8-.1 1.1.4 1.7.3 1.7.1M56.7 35.1c.1-.1.1-.1 0 0l.1-.1c0-.1 0-.1-.1-.1 0 0 .1 0 0-.1h-.1v-.1h.1l.2.1v.2s0-.1-.1-.1v.1h-.1v.2l-.1.1c.1-.1.1-.2.1-.2m.3-.5c0 .1-.1.1-.2 0s0-.1-.1-.2c.1.1.2.2.3.2m.1 0s.2.1.3.1c-.1 0-.1.1-.2.1 0 0-.1-.1-.1-.2m4.8.6c0-.2-.2-.3-.9-.3s-2.7.2-2.7-.1c0-.2.7-.1 1.2-.1l.1.1c.8.2 1.7-.3 2.3-.1-.5-.4-1.1 0-1.7-.1.4 0 .8-.1.8-.2-.3.2-1.1-.1-1.5.1h-.1c-.6 0-1.4-.1-1.4.3 0 .7 2.3.3 2.9.3.6 0 .7.1.7.2 0 .2-.5.2-.9.2-.5 0-2.7-.3-3.5 0 0-.1.3-.4.2-.5.1 0 .1-.1.1-.2 0 0-.1-.1-.2-.1v-.1-.1s-.1-.1-.2-.1-.2 0-.2-.1h-.1-.1l-.1-.1v.2c-.1 0-.2.2-.2.2 0 .1 0 .1.1.1-.1.1-.1.3-.2.3l.1.1v.2h-.1-.1-.1c-.1 0-.2-.2-.4-.3-.1-.1-.1-.1-.1-.3 0-.1.1-.2 0-.3v-.1c0-.1-.1-.1-.2-.1 0 0 .1 0 .1.1V34.6c0-.1-.1-.2-.1-.2h-.1c0-.1-.1-.1-.2 0h.1v.1c0 .1.1.1.2.1-.1-.1-.2 0-.2.1v.1c-.1 0-.1.1 0 .2v-.1h.1c-.1.1-.1.2 0 .2 0 .2-.3.1-.2 0-.1.2.1.4.3.3 0 0 0 .1.1.1 0 .1 0 .1.1.1v-.1s.2.3.4.4c.1 0 .1 0 .2-.1l.1.1c0 .1.1.3.1.3h-.5c-.1.1-.4.2-.5 0 0 0 0-.1-.1-.1l-.1-.1h-.1c0-.1-.2-.1-.2 0 0 0 .1 0 .1.1v.1s0 .1.2.2h-.1c-.1-.3-.1-.4-.2-.4h-.1c-.1 0-.2.1-.2.2 0 0 0-.1.1-.1v.1c0 .1.1.2.3 0-.1.1-.2.2-.1.2 0 .1.1.2.2.2 0 0-.1-.1-.1-.2h.1c.1 0 .1-.2.1-.2s0 .2.1.1c.1 0 .2-.1.2-.2l.1.1s.1 0 .1-.1v.2s.2-.1.2-.2v.1h.2v0s0 .1.1.2c0-.3.4-.1.6-.3 0 0 0 .1-.1.1.1 0 .2 0 .2-.1l.3-.1v-.1h.1c.2 0 .2-.1.2-.1 1.1.1.5-.5 1.7-.3.1 0 .1 0 .1-.1-.1.1-.1.3.1.3.1 0 .2 0 .2.1h-.2c-.2.1-.2-.3-.4-.2h-.1c-.1 0-.2.1-.2.2l.1-.1s0 .1.1.1h.1c0 .1-.3 0-.2.2v.1c0 .1 0 .1.2.1 0 0-.1 0-.1-.1h.1v.1c0 .1.1.2.2.1 0 0-.1 0-.1-.1h.1v-.1h.1c0 .1.1.1.2.1s0-.2.1-.2h.4c0-.1 0-.2-.1-.3-.1 0 0-.1-.1-.2.1 0 .2.1.4.1.3 0 .4 0 .5-.1.1-.1.3 0 .4 0 0 0 .1 0 .1.1v.2c0 .1-.2 0-.2 0h-.1c-.1 0-.2.1-.2.2l.1-.1c0 .1.1.1.2.1-.1 0-.2.2-.1.2h.1c0 .1 0 .1.1.1v-.1h.1c.1 0 0-.1.1-.2v.2h.1c0 .1.1.1.2.1 0 0-.1 0-.1-.1v-.1c0-.2-.1-.2-.1-.2 0-.1.2 0 .2-.2 0 0 0-.1-.1-.1h.1c-.1 0-.1-.1-.1-.2 0 0 .1-.1.1-.2 0 .1-.2.1-.2 0 0 0 0-.1-.1-.1-.2 0-.3 0-.7-.1.7.5 1.3.4 1.3.2M66 39.199999999999996zm.1.3c.1-.1.1-.1 0 0 .1-.1.1-.1.2-.1 0 0 0-.1-.1-.1 0 0 .1 0 0-.1h-.1v-.1h.1l.2.1v.2s0-.1-.1-.1v.1h-.1v.2l-.1.1v-.2m.3-.6c0 .1-.1.1-.2.1-.1-.1 0-.1-.1-.2.1 0 .3.1.3.1m.1.1s.2.1.3.1c-.1 0-.1.1-.2.1 0 0-.1-.1-.1-.2m4.8 1.2c0-.1.1-.1.1-.2 0 .1-.2.1-.2 0 0 0 0-.1-.1-.1-.2 0-.4 0-.8-.1.4 0 1.1-.1 1.1-.3 0-.2-.2-.3-.9-.3s-2.7.2-2.7-.1c0-.2.7-.1 1.2-.1l.1.1c.8.2 1.8-.4 2.3-.2-.7-.2-1.1.2-1.7 0 .4 0 .8-.1.8-.2-.3.2-1.1-.1-1.5.1h-.1c-.6 0-1.4-.1-1.4.3 0 .7 2.3.3 2.8.3.6 0 .7.1.7.2 0 .2-.5.2-.9.2-.5 0-2.7-.3-3.5 0 0-.1.3-.4.2-.5.1 0 .1-.1.1-.2 0 0-.1-.1-.2-.1v-.1-.1s-.1-.1-.2-.1-.2 0-.2-.1h-.1s-.1 0-.1.1c0 0-.1-.1-.2-.1v.2c-.1 0-.2.2-.2.2 0 .1.1.1.1.1-.1.1-.1.3-.2.3 0 .1.1.1.1.1v.2h-.1-.1-.1c-.1 0-.2-.2-.4-.3V39c0-.1.1-.2 0-.3v-.1c0-.1-.1-.1-.2-.1 0 0 .1 0 .1.1 0 0 0 .1-.1.1v.2c0-.1-.1-.2-.1-.2h-.1c0-.1-.1-.1-.2 0h.1v.1c0 .1.1.1.1.1-.1-.1-.2 0-.2.1v.1c-.1 0-.1.1 0 .2v-.1h.1c-.1.1-.1.2 0 .2 0 .2-.3.1-.2 0-.1.2.1.4.3.3 0 0 0 .1.1.1 0 0 0 .1.1.1v-.1s.2.3.4.4c0 0 .1-.1.2-.1 0 .1 0 .1.1.1 0 .1.1.3.1.3h-.4c-.1.1-.4.2-.5.1 0-.1 0-.1-.1-.2l-.1-.1h-.1s-.2-.1-.2 0c0 0 .1 0 .1.1v.1s0 .1.2.2h-.1c-.1-.1-.1-.1-.2-.1h-.1c-.1 0-.2.1-.2.2 0 0 0-.1.1-.1v.1c0 .1.1.2.3 0 0 .1-.2.2-.1.2 0 .1.1.2.2.2 0 0-.1-.1-.1-.2h.1c.1 0 .1-.2.1-.2s0 .2.1.1c.1 0 .2-.1.1-.2l.1.1s.1 0 .1-.1v.2s.2-.1.2-.2v.1h.2v0s0 .1.1.2c0-.3.2-.2.4-.3 0 0 0 .1-.1.1.1.1.3-.1.3-.2 0 0 .1 0 .2-.1.2 0 .2-.1.2-.1 1.1.1.5-.5 1.7-.3.1 0 .1-.1.1-.1-.1.1-.1.4.1.4.1 0 .2 0 .2.1h-.2c-.2.1-.2-.3-.4-.2h-.1c-.1 0-.2.1-.2.2l.1-.1s0 .1.1.1h.1c0 .1-.3 0-.2.2v.1c0 .1 0 .1.2.1 0 0-.1 0-.1-.1v.1c0 .1.1.2.2.1 0 0-.1 0-.1-.1h.1v-.1h.1s.1.1.2.1 0-.2.1-.2h.4c0-.1 0-.2-.1-.3-.1 0 0-.1-.1-.2.1.1.2.1.4.1.3 0 .4 0 .5-.1.2-.1.3 0 .4 0 0 0 .1 0 0 .1v.2c0 .1-.2 0-.2 0h-.1c-.1 0-.2.1-.2.2l.1-.1c0 .1.1.1.2.1-.1 0-.2.1-.1.2 0 .1 0 .1.1.1v-.1h.1c.1 0 0-.1.1-.2 0 .1-.1.2 0 .2h.1c0 .1.1.1.2.1 0 0-.1 0-.1-.1l.1-.1c.1-.2-.1-.2-.1-.2 0-.1.2 0 .2-.2 0 0 0-.1-.1-.1h.1c.9.1 1 0 1-.1M66.5 42.1c-.1 0-.1-.1-.1-.2l.2.1s0 .1-.1.1m-.1.1c-.1-.1-.1 0 0 0h-.2v.2l-.1.1c-.1 0-.1-.1 0-.2 0 0 0-.1.1-.1h.1c0-.1 0-.1-.1-.1 0 0 .1 0 0-.1h-.1v-.1h.1l.2.1v.2m-.1-.4c0 .1-.1.1-.2 0 0-.1 0-.1-.1-.2.1.2.3.2.3.2m2 .1l.1.1c.8.2 1.7-.4 2.2-.2-.6-.2-1 .2-1.6 0 .4 0 .7-.1.8-.2-.3.2-1.1-.1-1.4.1-.4 0-.8 0-.8.3 0 .6 1.7.3 2.2.3.5 0 .5.1.5.2s-.6.2-.9.2c-.5 0-1.8-.2-2.7-.1.1-.1.2-.3.1-.4.1 0 .1-.1.1-.2 0 0-.1-.1-.2-.1v-.1-.1s-.1-.1-.2-.1-.1 0-.2-.1h-.1-.1l-.1-.1v.2c-.1 0-.1.2-.2.2 0 .1 0 .1.1.1-.1.1-.1.2-.2.3 0 0 0 .1.1.1v.2h-.1c-.1 0-.2 0-.3-.1-.1-.1-.1-.1-.1-.3 0-.1.1-.2 0-.3v-.1c0-.1-.1-.1-.2-.1 0 0 .1 0 .1.1v.2c0-.1-.1-.2-.1-.2 0-.1-.1-.1-.2-.1h.1v.1c0 .1.1.1.1.1-.1-.1-.2 0-.2.1v.1c-.1 0-.1.1 0 .2v-.1h.1c-.1.1-.1.2 0 .2 0 .2-.2.1-.2 0-.1.2.1.4.3.3 0 0 0 .1.1.1 0 0 0 .1.1.1v-.1s0-.1.2 0c0 0 0 .1.1.1h.2v.3h-.4c-.1.1-.4.2-.5 0 0 0 0-.1-.1-.1l-.1-.1h-.1c0-.1-.2-.1-.2 0 0 0 .1 0 .1.1v.1s0 .1.2.2h-.1c-.1-.1-.1-.1-.2-.1h-.1c-.1 0-.2.1-.1.2 0 0 0-.1.1-.1v.1c0 .1.1.2.2 0 0 .1-.2.2-.1.2 0 .1.1.2.2.2 0 0-.1-.1-.1-.2h.1c.1 0 0-.1.1-.2 0 0 0 .1.1.1s.2-.1.1-.2l.1.1s.1 0 .1-.1v.2s.2-.1.2-.2v.1h.2v0s0 .1.1.2c0-.3.2-.2.4-.3 0 0 0 .1-.1.1.2.1.4-.1.4-.3V43v.1c.2 0 .2-.1.2-.1.5 0 .1-.5 1-.3.1 0 .2 0 .2-.1-.1.1-.1.4.1.4.1 0 .2 0 .2.1h-.2c-.2.1-.2-.3-.4-.2h-.1c-.1 0-.2.1-.2.2l.1-.1s0 .1.1.1h.1c0 .1-.2 0-.2.2v.1c0 .1 0 .1.2.1 0 0-.1 0-.1-.1v.1c0 .1.1.2.2.1 0 0-.1 0-.1-.1h.1v-.1c0 .1.1.1.2.1s0-.2.1-.2h.4c0-.1 0-.2-.1-.3-.1 0 0-.1-.1-.2.1.1.2.1.4.1.3 0 .4 0 .6-.1.2-.1.3 0 .4 0 0 0 .1 0 0 .1s0 .2-.1.2c0 .1-.2 0-.2 0H69c-.1 0-.2.1-.2.2l.1-.1c0 .1.1.1.2.1-.1 0-.2.1-.1.2h.1c0 .1 0 .1.1.1v-.1h.1c.1 0 .1-.1.1-.2 0 .1-.1.2 0 .2 0 .1.1.1.2.1 0 0-.1 0-.1-.1l.1-.1c.1-.2 0-.2 0-.2 0-.1.2 0 .2-.2v-.1s.1 0 .1-.1c-.1 0-.1-.1-.1-.1s.1-.1.1-.2c0 .1-.2.1-.2 0 0 0 0-.1-.1-.1-.2 0-.5 0-.8-.1.4 0 1.1-.1 1.1-.3 0-.2 0-.3-.7-.3-.6 0-2 .2-2-.1.5.3.8.3 1.1.3M65.8 45.3c0-.1 0-.1 0 0l.1-.1s0-.1-.1-.1c0 0 .1 0 0-.1h-.1v-.1h.1l.2.1v.2h-.1v.2l-.1.1v-.2m.2-.5s-.1.1-.2 0c0 0 0-.1-.1-.2.2.1.3.2.3.2m.2.1l.2.1c-.1 0-.1.1-.1.1-.1-.1-.2-.2-.1-.2m1.5-.1l.1.1c.8.2 1.7-.4 2.2-.2-.6-.2-1 .2-1.6 0 .4 0 .7-.1.8-.2-.3.2-1.1-.1-1.4.1l-.1.1c-.2.1-.5.2-.5.4 0 .5 2.1.1 2.1.3 0 .1-.4.3-.9.3-.4 0-1.1-.3-2 0 .1-.2.3-.4.2-.5.1 0 .1-.1.1-.1l-.1-.1v-.1-.1s-.1-.1-.2-.1-.1 0-.2-.1h-.1-.1l-.1-.1v.2c-.1 0-.1.2-.2.2 0 .1 0 .1.1.1-.1.1-.1.2-.2.2l.1.1c0 .2-.1.4 0 .5-.1-.1-.3-.4-.4-.5-.1-.1-.1-.1-.1-.2v-.3-.1c0-.1-.1-.1-.2-.1 0 0 .1 0 .1.1v.2c0-.1-.1-.2-.1-.2 0-.1-.1-.1-.2 0h.1v.1c0 .1.1.1.1.1-.1-.1-.2 0-.2.1v.1s-.1.1 0 .2v-.1h.1c-.1.1-.1.2 0 .2 0 .2-.2.1-.2 0-.1.2.1.3.3.2 0 0 0 .1.1.1 0 0 0 .1.1.1v-.1s0 .3.2.4c0 .1.2.2.3.2 0 .1.1.2.1.2h-.4c-.1 0-.2.1-.3.1h-.2s0-.1-.1-.1l-.1-.1h-.1s-.1-.1-.2 0c0 0 .1 0 .1.1v.1s0 .1.2.2h-.1c-.1-.1-.1-.1-.2-.1h-.1c-.1 0-.2.1-.1.2 0 0 0-.1.1-.1v.1c0 .1.1.2.2 0 0 .1-.2.1-.1.2 0 .1.1.2.2.2 0 0-.1-.1-.1-.2h.1c.1 0 0-.1.1-.2 0 0 0 .1.1.1s.1-.1.1-.1l.1.1s.1 0 .1-.1v.2l.2-.2v.1h.2v0s0 .1.1.2c0-.3.2-.2.3-.3 0 0 0 .1-.1.1.1 0 .2-.1.2-.2 0 0 .1-.1.2-.5h.1c.2 0 .3-.2.5-.2-.1.1-.1.2-.1.3 0 .1.2.3.2.3h-.2c-.2.1-.2-.3-.4-.2h-.1c-.1 0-.2.1-.2.2l.1-.1s0 .1.1.1h.1c0 .1-.2 0-.2.2v.1c0 .1 0 .1.1.1 0 0-.1 0 0-.1v.1c0 .1.1.1.2.1h-.1.1v-.1l.1.1c.1 0 0-.1.1-.2H66.9s0-.2-.1-.3c-.1 0 .1-.4-.2-.6.1 0 .6.1.7 0 .1 0 .3.1.3.2v.1c-.1.1-.1.1-.2.1l-.1-.1h-.1c-.1 0-.2 0-.2.1h.1v.1c-.1 0-.2 0-.2.1v.1s-.1.1 0 .2l.1-.1s.1-.1.2 0c-.1 0-.1.1-.1.1s0 .1.1.2v-.1h.1c.1-.1.1-.2.1-.2s.1.1.2 0v-.1s.1.1.1 0c-.1-.1 0-.1 0-.2 0 0 .1 0 .1-.1-.1 0-.2-.1-.1-.1s.2-.1.1-.2-.3-.2-.3-.3h.2c.7 0 1.1-.2 1.1-.4 0-.5-2.1 0-2.1-.3.7-.3.8-.4 1-.4M34 8.5c0-.2-.2-.5-.5-.5s-.5.3-.5.5c0 .3.2.5.5.5s.5-.2.5-.5M33.8 7.2c0-.3-.2-.5-.5-.5s-.5.2-.5.5.2.5.5.5.5-.2.5-.5M34.1 6.6c.3 0 .5-.2.5-.5s-.2-.5-.5-.5-.5.2-.5.5.2.5.5.5M35.4 6.5c.3 0 .5-.2.5-.5s-.2-.5-.5-.5-.5.2-.5.5.3.5.5.5M41.2 5.6c.2.2.5.2.7 0 .2-.2.2-.5 0-.7-.2-.2-.5-.2-.7 0-.2.2-.2.5 0 .7M41.1 4.5c.2-.2.2-.5 0-.7-.2-.2-.5-.2-.7 0-.2.2-.2.5 0 .7.1.2.5.2.7 0M39.7 4.3c.2-.2.2-.5 0-.7-.2-.2-.5-.2-.7 0-.2.2-.2.5 0 .7.2.2.5.2.7 0M38.6 5.1c.2-.2.2-.5 0-.7-.2-.2-.5-.2-.7 0-.2.2-.2.5 0 .7.2.2.5.2.7 0M35.4 4.4l.4.9.5-.6h.1c0 .3.1.8.1 1.1 0 .4.3.6.6.6.4 0 .6-.3.6-.6 0-.2-.1-.5-.3-.6l-.7-.7v-.1l.9.1-.3-.9-.6.5v-.9l-.9.3.6.7v.1l-1 .1z"/>
    <path class="st0" d="M41.2 6c.2.3.3.5.3.7-.2-.1-.3-.2-.5-.5l.1 1.2c.1-.2.3-.4.4-.4 0 .8-.3 1.1-.6 1.1-.3.1-.6-.1-.6-.4-.1-.3.2-.6.5-.2.1-.7-.5-.7-.8-.4.3-.7.2-1.1-.4-1.5-.4.6-.2 1.1.3 1.5-.5-.2-.9.2-.5.7.1-.5.5-.4.6 0 .1.3-.2.7-.7.9-.7.2-1-.2-1.1-.6.2-.1.5-.1.9.2l-.3-1.1c-.2.4-.4.6-.7.7 0-.3.2-1 .2-1l-1.4.6s.6.3.9.6c-.3.1-.6.2-1 0l.5.9c.1-.5.4-.8.5-.8.1.4.3.9-.4 1.2-.5.2-1 .2-1.1-.1-.2-.3 0-.7.4-.4-.1-.7-.6-.7-.8-.2 0-.7-.2-1.1-.9-1.3-.2.7.1 1.1.7 1.4-.4 0-.8.3-.3.8 0-.4.4-.5.6-.2.1.2.1.5-.2.7-.2.1-.7.1-1.2-.4.2-.1.4 0 .6 0l-.7-.9v.7c-.2-.2-.2-.3-.3-.7l-.6.5c.5.3 1.2.8 1.9 1.9.8-.5 2.2-1.2 3.1-1.5.9-.4 2.4-.9 3.3-1.1-.2-1.2-.1-2 .1-2.6h-.8zM42.8 12.7c-.7.6-1.6 0-2.1-.7 1-.4 2.1-.8 2.8-1.3-.6 1.1-.1 1.5-.7 2m-.2 7.3c-.9.4-1.6-.4-1.8-.9-.2-.5-.3-1-.1-1.2.4-.4.5-.7.3-1.2-.3-.6-.9-.3-1.5-.1.3-.5.3-.9-.1-.9-.5.1-.5.8-.8.7-.3-.1-.1-.5-.1-.8 0-.3.2-.4.5-.6l2.6-1c.3-.1.6-.2.8 0 .2.2.6.4.5.6-.1.3-.7-.3-1.1 0-.3.2 0 .5.5.7-.6.3-1.2.6-1 1.1.2.5.5.6 1 .6.3 0 .5.4.8.9.4.8.5 1.7-.5 2.1m-5-5.3c-.7.1-.7-.6-1.9-.9.9-.2 2-.6 3-1 .2.8-.2 1.8-1.1 1.9m14.7 23.4c.2-.5-.8-1.1-.9-1.9-.1-.8 0-1.5-.9-2.5s-3.9-4.2-4.8-5.3c.2 0 .8-.1 1.3.4.3.3 1 .9 1.6 1.5.8-2 1.8-3.6 3.2-5.1l.6-.6c-.5.2-1.3.3-1.8.6 0-.9 0-1.6-.6-2.2.2-1.2 0-2.7-2.7-4.6 1.4.3 2.3 1.6 3.3.6-1 0-1-2.2-4.5-3.9 1.3 0 2.4 2.1 4 .9-1.5-.2-2-2.8-4.6-3.6.9.1 1.9.6 2.6-.5-.9.2-1.5-.6-2.4-.7.4-1.1.3-1.8-.1-2.7-.7 0-1.4.3-1.9.7-.1-.6-.7-.7-1.3-.6 0 .3.2.7-.1.7-.5.1-2 .5-3.3 1-1.2.5-2.6 1.3-3 1.6-.2.2-.5-.2-.6-.4-.4.4-.8.8-.5 1.3-.7.1-1.4.2-2.1.7 0 .8.7 1.5 1.6 2-1.6 1.6-.2 3.1-1.6 4.5 2 .1 1.7-2.7 2.7-3.1-.1 2-1.2 2.3-1.2 4.5 0 1.1.7 2.4.1 3.1 1.7-.5 1.2-4.2 2.3-5.3.2.6.1 1.3-.1 1.9-.6 1.7.1 4.1-.9 4.9 1.7-.2 1.9-2.9 3.4-4-1.2 2.5-2.5 7.8-4.3 10.5-2.9 4-4.7 8.8-7.4 8.8-1.2 0-2.1-.7-2.1-2.2 0-4.5 7.7-7.6 7.7-12.4 0-2.1-1.7-3-2.8-3-.7 0-1.6.4-2.4 1-.3-.1-.6-.2-.9-.2-2.7 0-2 4.9-4.4 4.9.9.5 2.6-.5 3.5-1.9-.4 3.2-5 2.3-4.6 6.2.6-3 8-2.6 8-7.1 0-.5-.3-.9-.6-1.3.6-.4 1.1-.5 1.5-.5.9 0 1.7.7 1.7 1.9 0 4-7.7 7.4-7.7 12.4 0 .8.2 1.5.6 2.1-.5.2-1.1.1-1.6-.4 0 1.3 1.8 2.1 2.9 1.4.3.1.5.1.8.2-.3.9-1.5 1.2-2.1 1.2 1.9 1.5 5.2-.5 5-2.1 1.5-1.2 2.4-3.3 3.5-4.6-.1.3-.1.6-.2.9-1.1 2-2.1 3.8-2.4 6.4-.2 2.2-1.4 4.2-2.9 4.2-.3 0-.9-.4-1.2-.2-.5.4 0 .9 0 1.3 0 .6-1.2 1.3-1.2 3.2 0 .9.5 1.9.3 2.5.5-.3 1.2-1.1 1.4-2.2.5 2.6-1.1 2.5.1 4.7.1-.8.9-1.1 1.4-.8.5.3.2.5-.1.9-.3.3-.7 2 .9 1.9-.3-.2-.3-.6.5-.8 1.1-.2 1.4.3 2.5.3.7 0 .9-.9 1.5-.9s.6.4.4.8c.9-.2 1.1-.7 1.1-1.2s-.4-.8-.1-1c.3-.2 1.4 0 .9.9.5-.1.8-.5.8-1.1 0-.7-.8-1-1.5-.9-.1-.4-.7-.6-1.3-.6-1.3 0-1.1 1-1.9 1-1.4 0-2.7-1.8-2.7-4.8 0-1.6 1.7-2 3-2.6 1.2-.5 3.4-1.9 4.7-4 1-1.7 1.1-3.6.9-5.8 1.7 1 1.9 2.4 1.9 3.5 0 1.4-.7 1.9-1.3 2.2-.5.2-.6.1-.7.4-.1.3.2.5.4.7.6.3.5.9.7 1.6.2.7.8 1.7 1.7 2.4.1-.4.1-1.1 0-1.9 1.3.7.3 3.4 2.9 3.4-.5-.3-.4-1-.1-1.1.3-.1.6.2 1.1.9.5.7.4.6 1.6.6 1.2 0 .7-.4 1.3-.4.7 0 .6.8.3 1.3 1.1-.3 1.4-1.2 1.1-2 1-.5 1.5.2 1.6.7 1-1 0-2.1-.8-2.2 0-.4-.3-.7-.7-.8-.4 0-.8-.1-1.2 0-.5 0-.7.7-1.2.7-1.6 0-4.9-3-4.9-4.2 0-1.3 3.1-2.1 3.1-4 0-2.6-2.5-3.5-4.7-5.1.8-.9 3-1.1 4.3-.4.1-.7.6-.5.8-1.8.5 1.1 0 2 .4 2.5.4-.5 1.3-.5 1.2-1.8.3.8-.4 2.1.3 2.7.1-.7.5-.8.8-.8.3 0 .5.2.5.6 0 1-1.3.6-1.3 1.7 0 .5.6.7.6 1 0 .3-.5.8-1.1.4.1-.2.6.2 1.1.2.6 0 1.2-.5 1.4-1 .3.7.1 1.6-.5 1.7.6.3 1.9 0 1.7-1.7.8.1 1.2.6.7 1.6.6-.2 1.2-.5 1.2-1.1.1-.6-.5-.8-.2-1.4M102.1 50.5c0-.9.7-1.6 1.6-1.6.9 0 1.6.7 1.6 1.6 0 .9-.7 1.6-1.6 1.6-.8 0-1.6-.7-1.6-1.6m-.5 0c0 1.2 1 2.2 2.2 2.2 1.2 0 2.2-1 2.2-2.2 0-1.2-1-2.2-2.2-2.2-1.3 0-2.2 1-2.2 2.2M94.4 54.5c-.6-.1-1.1-.6-1-1 0-.2.2-.4.3-.5.3-.2.6-.2 1-.2.6.1 1 .5 1 .9v.1c-.1.5-.6.8-1.3.7m-.9-2c-.3.2-.5.5-.5.8-.1.4 0 .8.3 1.1.3.3.7.5 1.1.6.4.1.9 0 1.2-.2.4-.2.6-.5.7-.9.1-.8-.5-1.5-1.4-1.7-.6 0-1.1.1-1.4.3M81.4 23.3c0-.3.2-.6.5-.8.2-.2.6-.3.8-.3.1 0 .3.1.4.2.1.2.1.3.1.5 0 .3-.2.5-.5.7-.4.3-1 .3-1.2 0-.1-.1-.1-.2-.1-.3m.1-1.3c-.7.5-.9 1.4-.4 2 .4.6 1.3.6 2 .1.4-.3.6-.7.7-1.1 0-.3 0-.6-.2-.9-.2-.2-.5-.4-.8-.4-.5-.1-1 0-1.3.3M91.7 51.9zm0-.5c-.2 0-.4-.1-.5-.2-.2-.2-.3-.6-.3-.9 0-.4.1-.7.4-.9.1-.1.3-.2.5-.2.5 0 .8.5.8 1.2 0 .4-.1.7-.4.9-.1 0-.2.1-.5.1m-.8-2.5c-.3.3-.5.8-.5 1.3s.2 1 .5 1.3c.2.3.6.4.9.4.3 0 .6-.1.9-.4.3-.3.5-.8.5-1.3 0-.4-.1-.9-.4-1.2-.3-.3-.6-.5-1-.5-.3 0-.6.2-.9.4M80.7 33.5c-.6-.3-.9-.8-.7-1.3.1-.2.3-.3.4-.3.3-.1.6-.1 1 .1.3.2.6.4.7.7 0 .1.1.3 0 .5s-.3.3-.4.3c-.3.2-.7.1-1 0m-.4-2.2c-.3.1-.6.3-.7.6-.3.7.1 1.6.9 2 .5.2 1 .3 1.4.1.3-.1.6-.3.7-.6.1-.3.2-.6 0-1s-.5-.8-1-1c-.4-.2-.9-.2-1.3-.1"/>
    <path class="st0" d="M96 41.2c-.4.5-1 .7-1.4.4-.4-.3-.4-.9-.1-1.4.4-.5 1-.7 1.4-.4.4.3.5.9.1 1.4m-2.5 4.1c-.4.5-1 .7-1.4.4-.4-.3-.4-.9-.1-1.4.4-.5 1-.7 1.4-.4.4.3.4.9.1 1.4m-8.8-22.2c.3-.9.9-2.8.9-2.8l1 .4c-.3.1-.6.4-.9.7.2.1.6.1.9-.1l-.4 1c-.1-.2-.4-.5-.6-.6-.2.8.3 1.1.7 1.3.6.3 1 .4 1.2.1.2-.3-.2-.8-.7-.6-.1-.5.2-.8.6-.8.3 0 .5.2.6.6 0-.8.3-1.5 1.1-1.7.3.8.1 1.4-.6 2 .3-.1.7-.1.8.1.2.3.1.7-.3.9-.1-.5-.7-.6-.9-.2-.2.3.1.7.6 1 .6.4 1.2.1 1.5-.4-.2-.1-.6 0-.9.2L90 23c0 .2.1.5.4.7.1-.3.2-.8 0-1.2l1.4.8c-.5 0-.8.4-1 .6.3.1.7.1.8 0l-.9 1.1c0-.4-.1-.7-.3-.9-.3.6-.2 1.1.4 1.5.5.3 1 .4 1.2.1.2-.3-.1-.9-.7-.7 0-.5.3-.8.6-.8s.5.3.5.7c.2-.8.6-1.3 1.4-1.5.2.8-.2 1.4-.9 1.8.3-.1.7 0 .8.2.2.3.1.7-.4.9-.1-.5-.7-.7-.9-.3-.2.3.1.6.7 1 .3.2.8.5 1.4-.1-.2-.2-.6-.3-.8-.3l.7-.8c0 .3.2.7.4.8.1-.4.2-.8.1-1.2l.8.7s-1.3 1.4-2 2.2l-9-5.2zm10.6 12.1c0-.1 0-.3.2-.5s.4-.2.5-.2c.3 0 .6.2.9.4.2.3.4.6.4.9 0 .1 0 .3-.2.5s-.4.2-.5.2c-.3 0-.6-.2-.9-.4-.3-.2-.4-.6-.4-.9m3.9 17.9c.1-.3.3-.6.6-.8.3-.2.7-.3 1-.2.1 0 .3.1.5.3.1.2.1.4.1.5-.1.3-.3.6-.6.8-.5.3-1.2.3-1.4-.1-.2-.1-.2-.3-.2-.5m-18.5-27c0 .3-.1.6-.3.8-.1.1-.2.2-.4.2-.4 0-.6-.4-.6-.9v-.1c0-.3.1-.6.3-.8.1-.1.2-.2.4-.2s.3.1.4.2c.1.2.2.5.2.8m5.7-11.7c.3-.6 0-1.5 1.1-1.5.5 0 1 .5 1.6.7-1 .1-2 .3-2.7.8m16.7 14.7c.7 1.9 2.1 2.6 3.2 2.1-2.4-.3-.5-4.4-3.5-4.4-.2 0-.3 0-.5.1-.5-.6-1.1-.8-2-.8-1.3 0-3.6 1.3-3.6 3.9 0 5.6 6.5 6.1 6.5 11.1 0 1.5-1.1 2.4-2.3 2.4-1.1 0-2-1.2-2.9-3.2-.4-.9-1.4-2.2-2.4-3.5.3.2.6.3 1 .3.3 0 .7-.1.9-.3.2-.2.4-.5.4-.9v-.1c0-.4-.2-.9-.5-1.3-.4-.3-.9-.5-1.4-.5-.3 0-.7.1-.9.3-.2.2-.4.5-.4.9 0 .2 0 .4.1.6-1.4-1.8-2.7-3.6-2.7-4.6 0-.9.6-1.6 1.3-2.6l.3.1.2-.2c.3-.3.8-.9 1.9-2.1l.1-.1.3-.3-.7-.6c.2-.4.3-.9.5-1.4.2.9.7 1.5 1.3 1.3-.4-.9.4-2.2-.1-4.5.5.9 1.3 1.3 1.9 1.2-1.4-1.3.4-3.1-1.5-5.8.6.2 1 .1 1.3-.2-1.7-.2-.9-2.4-3.9-3.2.7-.1 1.2-.6 1.1-1-.8.6-1.5-1.1-4.1-1-.2-1-1.1-2-2.1-2.5.2.8 0 1.4-.2 2L81.2 2c-.2-.2-.4-.3-.5-.2-.1.1-.1.2.1.4l7.3 9.2c-.6.2-1.1.4-1.7.6-.4.1-.6.5-.6.9-1.4.7-2.5 1.5-3.1 2-.5.4-.8.5-.4 1.4.2.3-.3 1.2.7.6.7-.4 2.3-1.3 2.5-.7.1.3-.7.7-1.2.9-.5.2-1.1.6-1 .8.1.2.5 0 .5.2s.2.5.4.5.5-.4.7-.3c.2.1-.1 1.1-.3 1.4.8-.1 1.4-.9 1.4-1.5s.2-.8.3-.9c.1-.1.3.7.1 1.1.4-.1.9-.7.8-1.7.2-.2.4-.3.6-.3.3 0 .8.8 1.6.8 1.4 0 2.2-1.2 2.3-1.7.1-.4 0-.9-.2-1.2.5.4.7 1.1.7 1.6 0 2-3.6 3-5.1 4.4-.1 0-.1.1-.2.2l-1.7-.7-.1.4s0 .1-.1.3c-.2.6-.5 1.8-.8 2.5l-.1.3.2.1c-1 1.3-1.8 2.8-2 4.4-.4-.4-.8-.8-1.2-1.1 0-.1.1-.3.1-.5 0-.5-.1-.9-.4-1.2-.2-.2-.5-.4-.8-.4-.3 0-.6.1-.8.3-.1 0-.1.1-.1.2-.1 0-.1-.1-.2-.1-.6-.4-1.3-.9-1.7-1.4-.2-.2-.4-.3-.7-.3h-.8c-.2 0-.4.2-.7.4-.1.1-.5.4-1 .8.2.2.4.4.6.7.1.1.2.3.3.4.1-.1.2-.2.3-.2.3-.4.5-.4.8-.4.2 0 .5.2.7.5.2.2 1.5 2 2.7 3.3-.1 0-.2.1-.4.1-.5.2-1.6.2-2.1.1-.5 0-.6-.2-.9.4-.1.2-.3.4-.5.6-.2.2-.3.4.1 1 .5.8 1.7 3.1 2.2 4.1.4 1 .9 1.2 1.7 1.5.8.3 2.1 1.1 2.3 1.3l.1-.8c-.2-.2-1-.5-1.3-.6-.3-.1-.4-.2 0-.2.3 0 1.3.3 2 .6-.2-.8-.9-1.6-1.4-2.1-.6-.2-1.2-.2-1.4 0 0 .2-.1.4-.3.4-.2 0-.4-.2-.3-.4.1-.2.4-.3.3-.7-.1-.4-.6-.5-1-.5-.5-.7-1-1.7-1.3-2.1-.3-.4-.1-.6.1-.8.4-.3 1.3.2 3 .3.6 0 1.4.1 2.1.1.2 2 1 3.9 3.8 4.6 1.4.3 2.8 1.3 3.3 2.6-5.6-.1-6.5 2.1-6.5 4.1 0 2.3 2 2.2 2 4 0 1.5-4.7 2.2-6.1 2.4-1.2.2-1.9.4-2.5 1-.6.6-1.2 1.1-2.2 2.2 0 0 .4.1.9.1l.8-1c.2-.3.4-.6.6-.6.2 0 .1.3-.1.7l-.7 1.1c2.8.2 2.9-.8 2.9-1.3 0-.4-.7-.7-.3-1 .4-.3.7-.1 1 .3.3.4.4.7 1.2.4 0 0 6-2.5 6.8-2.8.7-.3.5-.6.1-.9-.4-.4-.5-1-.5-1.6 0-1.8 1.1-2.4 3-2.3 0 .3-.1.6-.1.9 0 2.8 4.3 5.6 5.4 5.6.5 0 1.2-.4 1.3 1.3 0 1.3.3 2.1.1 3.6-.2 1.5-.6 1.7-1.5 2.3-.9.6-1.7 2.5-2.1 2.9.4.3.8.3 1.1-.6.3-.8.6-1.3.9-1.5-.3.9-.6 2.1-.7 2.5 1.1.2 2.9-.8 2.9-1.6s-.6-.7-.6-1.2c0-.2.3-.5.6-.5.4 0 .8.4.8.5.5-.3.8-.7.8-1.9V54c0 .1.1.1.1.2.2.3.6.5 1 .6.4 0 .8-.1 1.2-.3.4-.3.7-.7.8-1.2V53c0-.2-.1-.5-.2-.7-.2-.3-.5-.5-.8-.5-.4-.1-1 0-1.4.3-.4.3-.7.6-.8 1.1-.1-1.5-.2-3-.2-3.6.1-.9.1-1.3-.2-1.4-.3-.1-.6.4-1 .4s-1.7-1.2-1.7-2.4 1.3-2.8 1.3-4.5c0-.5.3-.8.5-.3.3.6.6 1.3 1.2 2-.4 2.1 2 4.2 3.9 2.6-.9.1-1.6-.7-2-1.5h.8c.7.8 2.8.8 3.3-1.3-.4.4-1.1.8-1.7.7.8-.6 1.2-1.6 1.2-2.7 0-5.3-6.5-6-6.5-10.8 0-1.8 1.6-3 2.7-3 .4 0 .7.1 1 .3-.4.4-.6 1.1-.6 1.9.2 3.8 6.4 3.7 6.5 5.5.8-3.1-3.9-2.2-4.1-6"/>
  </g>
  <g>

    <path d="M0-102h4.2v71.1H0zM131.6-86.5h6.4l11.1 29.7 11.2-29.7h6.4v35.3h-4.5v-29.4h-.1l-11 29.4h-4l-11-29.4h-.1v29.4h-4.5v-35.3zM176.9-81.4h-4.2v-5.1h4.2v5.1zm-4.2 4.6h4.2v25.6h-4.2v-25.6zM182.1-76.8h4v4.1h.1c1.8-3.2 4.7-4.7 8.3-4.7 6.7 0 8.8 3.9 8.8 9.4v16.8h-4.2v-17.3c0-3.1-2-5.1-5.2-5.1-5.1 0-7.6 3.4-7.6 8v14.5h-4.2v-25.7zM212.7-81.4h-4.2v-5.1h4.2v5.1zm-4.2 4.6h4.2v25.6h-4.2v-25.6zM220.6-59.2c.1 3.8 3.4 4.9 6.9 4.9 2.6 0 6.2-.6 6.2-3.8 0-3.3-4.2-3.8-8.4-4.8-4.2-.9-8.4-2.3-8.4-7.2 0-5.1 5.1-7.3 9.6-7.3 5.6 0 10.1 1.8 10.5 8h-4.2c-.3-3.3-3.2-4.3-5.9-4.3-2.5 0-5.4.7-5.4 3.3 0 3 4.5 3.5 8.4 4.5 4.2.9 8.4 2.3 8.4 7.3 0 6.1-5.7 8.1-10.9 8.1-5.7 0-10.6-2.3-10.8-8.7h4zM247.5-76.8h5.1v3.7h-5.1v15.9c0 1.9.5 2.3 3.2 2.3h1.9v3.7h-3.2c-4.4 0-6.1-.9-6.1-5.6v-16.3h-4.4v-3.7h4.4v-7.7h4.2v7.7zM255.7-76.8h4v5.4h.1c2-4.1 4.9-6.1 9.4-6v4.5c-6.8 0-9.3 3.9-9.3 10.3v11.4h-4.2v-25.6zM283-47.8c-1.9 5-3.7 6.8-7.4 6.8-1 0-2-.1-2.9-.4v-3.9c.8.2 1.6.6 2.5.6 1.7 0 2.7-.8 3.5-2.3l1.7-4.4-10.1-25.4h4.8l7.5 20.9h.1l7.2-20.9h4.5l-11.4 29zM319.9-77.6c8.1 0 12.4 5.9 12.4 13.4s-4.3 13.4-12.4 13.4c-8.1 0-12.4-5.9-12.4-13.4s4.3-13.4 12.4-13.4zm0 23.1c4.4 0 8-3.5 8-9.7 0-6.2-3.6-9.7-8-9.7s-8 3.5-8 9.7c.1 6.2 3.6 9.7 8 9.7zM337.4-73.3h-4.3V-77h4.3v-3.8c0-4.2 2.5-6.3 7.1-6.3.8 0 1.9.1 2.7.4v3.7c-.7-.2-1.6-.3-2.4-.3-2 0-3.2.6-3.2 2.9v3.6h5v3.7h-5v21.9h-4.2v-22.1zM381.8-60.2c0 4.8-2.5 9.7-10.4 9.7-6.6 0-10.3-3.7-10.3-10.3V-63h4.7v1.5c0 4.1 1.1 7 5.7 7 4.3 0 5.6-2.5 5.6-6.4v-25.8h4.7v26.5zM408.7-51.4h-4v-4.1h-.1c-1.8 3.2-4.7 4.7-8.3 4.7-6.7 0-8.8-3.9-8.8-9.4V-77h4.2v17.3c0 3.1 2 5.1 5.2 5.1 5.1 0 7.6-3.4 7.6-8V-77h4.2v25.6zM416.5-59.5c.1 3.8 3.4 4.9 6.9 4.9 2.6 0 6.2-.6 6.2-3.8 0-3.3-4.2-3.8-8.4-4.8-4.2-.9-8.4-2.3-8.4-7.2 0-5.1 5.1-7.3 9.6-7.3 5.6 0 10.1 1.8 10.5 8h-4.2c-.3-3.3-3.2-4.3-5.9-4.3-2.5 0-5.4.7-5.4 3.3 0 3 4.5 3.5 8.4 4.5 4.2.9 8.4 2.3 8.4 7.3 0 6.1-5.7 8.1-10.9 8.1-5.7 0-10.6-2.3-10.8-8.7h4zM443.5-77h5.1v3.7h-5.1v15.9c0 1.9.5 2.3 3.2 2.3h1.9v3.7h-3.2c-4.4 0-6.1-.9-6.1-5.6v-16.3h-4.4V-77h4.4v-7.7h4.2v7.7zM456.1-81.6h-4.2v-5.1h4.2v5.1zm-4.2 4.6h4.2v25.6h-4.2V-77zM478.8-68.8c-.6-3.2-2.9-5.1-6.3-5.1-6.1 0-8 4.8-8 10 0 4.7 2.1 9.4 7.5 9.4 4.1 0 6.5-2.4 7-6.2h4.3c-.9 6.2-4.9 9.9-11.3 9.9-7.8 0-12-5.4-12-13.1 0-7.7 4-13.7 12.1-13.7 5.8 0 10.4 2.7 11 8.8h-4.3zM508.9-59.5c-1.1 5.6-5.2 8.7-10.9 8.7-8.2 0-12-5.6-12.3-13.5 0-7.7 5-13.3 12-13.3 9.1 0 11.8 8.5 11.6 14.7h-19.2c-.1 4.5 2.4 8.4 8 8.4 3.5 0 5.9-1.7 6.6-5h4.2zm-4.1-7.1c-.2-4-3.2-7.2-7.4-7.2-4.4 0-7 3.3-7.3 7.2h14.7z"/>
    <g>
      
      <path d="M58-90.5c-.4.8-.8 1.2-.7 1.8.1.6.7 1 1 1.6.3-.7.7-1.2.7-1.8-.1-.4-.9-1.2-1-1.6M68.4-90.5c.4.8.8 1.2.7 1.8-.1.6-.7 1-1 1.6-.3-.7-.7-1.2-.7-1.8.1-.4.8-1.2 1-1.6M52-90.9c.4 0 .7-.3.7-.7 0-.4-.3-.7-.7-.7-.4 0-.7.3-.7.7 0 .4.3.7.7.7M52.5-89.9c0-.4-.3-.7-.7-.7-.4 0-.7.3-.7.7s.3.7.7.7c.4 0 .7-.3.7-.7M52.8-88.2c0-.4-.3-.7-.7-.7-.4 0-.7.3-.7.7 0 .4.3.7.7.7.4 0 .7-.3.7-.7M55.9-94.2c.4 0 .7-.3.7-.7 0-.4-.3-.7-.7-.7-.4 0-.7.3-.7.7 0 .3.3.7.7.7M54.2-93.7c.4 0 .7-.3.7-.7 0-.4-.3-.7-.7-.7-.4 0-.7.3-.7.7 0 .4.3.7.7.7M52.8-92.5c.4 0 .7-.3.7-.7 0-.4-.3-.7-.7-.7-.4 0-.7.3-.7.7 0 .4.3.7.7.7M57.7-94.1c.4 0 .7-.3.7-.7 0-.4-.3-.7-.7-.7-.4 0-.7.3-.7.7 0 .4.4.7.7.7M59.5-93.6c.4 0 .7-.3.7-.7 0-.4-.3-.7-.7-.7-.4 0-.7.3-.7.7 0 .4.3.7.7.7M61.1-92.8c.4 0 .7-.3.7-.7 0-.4-.3-.7-.7-.7-.4 0-.7.3-.7.7 0 .4.3.7.7.7M73.6-91.6c0 .4.3.7.7.7.4 0 .7-.3.7-.7 0-.4-.3-.7-.7-.7-.4 0-.7.3-.7.7M74.5-90.6c-.4 0-.7.3-.7.7 0 .4.3.7.7.7.4 0 .7-.3.7-.7 0-.4-.3-.7-.7-.7M74.2-88.9c-.4 0-.7.3-.7.7 0 .4.3.7.7.7.4 0 .7-.3.7-.7 0-.4-.3-.7-.7-.7M70.4-94.2c.4 0 .7-.3.7-.7 0-.4-.3-.7-.7-.7-.4 0-.7.3-.7.7 0 .3.3.7.7.7M72.2-93.7c.4 0 .7-.3.7-.7 0-.4-.3-.7-.7-.7-.4 0-.7.3-.7.7 0 .4.3.7.7.7M73.5-92.5c.4 0 .7-.3.7-.7 0-.4-.3-.7-.7-.7-.4 0-.7.3-.7.7 0 .4.4.7.7.7M68.6-94.1c.4 0 .7-.3.7-.7 0-.4-.3-.7-.7-.7-.4 0-.7.3-.7.7 0 .4.3.7.7.7M66.9-93.6c.4 0 .7-.3.7-.7 0-.4-.3-.7-.7-.7-.4 0-.7.3-.7.7 0 .4.3.7.7.7M64.5-93.5c0 .4.3.7.7.7.4 0 .7-.3.7-.7 0-.4-.3-.7-.7-.7-.4 0-.7.3-.7.7M62-89.7h.8v-3c-.3 0-.5-.1-.8-.2v3.2zM64.4-93c-.2.1-.5.2-.8.2v3h.8V-93zM62.7-96.3V-98c-.9.2-1.6.9-1.7 1.8h1.7zM63.6-96.3h1.7c-.2-.9-.8-1.6-1.7-1.8v1.8z"/>
      <path d="M61-95.4c.2 1 1.1 1.7 2.2 1.7s1.9-.7 2.1-1.7H61zM64.4-98.3c-.5-.4-.9-1-1-1.6.6.1 1.2.5 1.6 1v-2.4c-.4.5-1 .9-1.6 1 .1-.6.4-1.1.9-1.7H62c.5.6.9 1.1.9 1.7-.6-.1-1.2-.5-1.6-1v2.4c.4-.5 1-.9 1.6-1-.1.6-.5 1.2-1 1.6h2.5zM64.4-48c-.5 0-.9-.4-.9-.9s.4-.9.9-.9.9.4.9.9-.4.9-.9.9m-4.1-1.3c-.5 0-.9-.4-.9-.9s.4-.9.9-.9.9.4.9.9-.4.9-.9.9m-1.4-4.2l-.2-.2c-.4-.3-.8-.3-1.2 0-.2.2-.4.3-.5.5l-.2.3.2.1c.5.4.5.8.4 1l-.2.2c-.2.1-.5 0-.9-.2l-.3-.1-.1.2-.1.1c0 .1-.1.1-.1.2-.2.3-.3.6-.3.8v.2c.1.2.3.4.4.5l.1.1c.2.1.5.3.7.4-.4.2-.8.2-1.2 0-.6-.3-1-1-1-1.3 0-.5.2-1.2.7-1.9l.1-.1-.1-.1-.3-.6c.2 0 .5.1.7.1h.1l.1-.1c.3-.3 1.2-1.2 2.1-1.2.4 0 .8.2 1.1.5.2.3.4.6.4.8-.1 0-.3-.1-.4-.2m8.1 3.3c-2.2-.6-4.8-1.5-7.3-2.6.1-.5-.1-1.1-.5-1.5-.4-.4-.9-.7-1.4-.7-.2 0-.5 0-.7.1-.4-.3-.7-.7-1-1-.9-1.1-1.7-2.4-2.2-3.8-.3-.8-.5-1.6-.6-2.5-.1.7-.9 1.7-2.3 1.7 0-.1 0-.5-.1-.5-.4.4-.9.8-2.2.4.2 1 .5 1.9.8 2.9.7 2 1.8 3.8 3.2 5.3.4.5.9 1 1.4 1.4v.3c0 .5.5 1.3 1.2 1.7.6.3 1.2.2 1.8-.2 1.1.6 2.4 1.1 3.9 1.5 1.7.5 3.2.7 4.5.7 1.1 0 2.5-.5 3.9-1.4.6-.4 1.1-.7 1.5-1.1.1-.1.1-.1.2-.1-1.2.1-2.8-.3-4.1-.6M66.3-41.2c-.2-.3-.4-.5-.6-.5-.9 0-.5 2.4-1.6 2.4-.5 0-.7-.3-.7-.6s.2-.4.2-.7c0-.3-.2-.4-.4-.4s-.4.1-.4.4c0 .3.2.4.2.7 0 .3-.3.6-.7.6-1.1 0-.7-2.4-1.6-2.4-.2 0-.4.2-.6.5-.2-.3-.3-.7-.3-.9 0-.4.3-1 1-1 1.2 0 .9 1.6 1.5 1.6.3 0 .4-.2.4-.4 0-.5-.8-.9-.8-1.6 0-.7.6-1.2 1.3-1.8.7.5 1.3 1.1 1.3 1.8s-.8 1.1-.8 1.6c0 .2.2.4.4.4.6 0 .3-1.6 1.5-1.6.7 0 1 .6 1 1 0 .2-.1.5-.3.9m-3.1 3.3c-.3 0-.6-.3-.6-.6s.3-.6.6-.6.6.3.6.6-.3.6-.6.6m2.4-5.8c-.2 0-.3 0-.4.1v-2.6c-1.2 0-2.5-.2-3.9-.6v3.2c-.1 0-.3-.1-.5-.1-.9 0-1.5.8-1.5 1.5s.4 1.3.7 1.7c.2-.4.3-.7.6-.7.5 0 .2 2.3 1.6 2.4 0 .1-.1.2-.1.4 0 .6.5 1 1.1 1 .6 0 1-.5 1-1 0-.1 0-.3-.1-.4 1.3-.1 1.1-2.4 1.6-2.4.2 0 .4.3.6.7.3-.4.7-1 .7-1.7.1-.7-.5-1.5-1.4-1.5"/>
      <path d="M96.6-40.5c-.1-.1-.2-.2-.3-.2-3.1.9-6.9-1.7-10.6-4.1-3.1-2.1-6.1-4-8.6-4-.9 0-1.8.2-2.5.6-.9.5-1.5 1.3-2 2.3-.4 1-.9 1.7-1.2 2.3-.4.7-.7 1.2-.7 1.8 0 .5.2.9.6 1.4.4.4.9.7 1.6 1.1.2.1.3.2.5.2.6.3 1 .5 1.1.8-1.2.5-2.8 1-4.6 1.3-2 .4-4.2.5-6.6.5-2.4 0-4.6-.2-6.6-.5-1.8-.3-3.4-.8-4.6-1.3.1-.5.4-.7 1.1-1 .2-.1.3-.1.5-.2.6-.3 1.2-.6 1.6-1 .4-.4.6-.8.6-1.3 0-.6-.3-1.1-.7-1.8-.4-.6-.8-1.3-1.2-2.3-.4-1-1.1-1.8-2-2.3-.7-.4-1.5-.6-2.5-.6-2.5 0-5.5 2-8.6 4-3.7 2.5-7.5 5-10.6 4.1-.1 0-.3 0-.3.2 0 .1 0 .3.2.4.9.4 1.8 1.1 2.6 1.7 1.1.9 2.2 1.7 3.3 1.7 1.1 0 2.3-.3 3.7-1.1 1.2-.7 2.5-1.5 3.8-2.4 2.4-1.7 5-3.4 7.4-3.6-.2.3-.5.5-.7.7-.7.6-1.3 1.2-1.3 2.3 0 .9.3 1.5.7 2.4.1.2.3.5.4.9.3.6.4 1.1.5 1.7.1.3.1.6.2 1 .2.6.4 1.6 2.2 2.5 2 1 5.5 1.6 10.4 1.6s8.4-.5 10.4-1.6c1.8-.9 2-2 2.2-2.5.1-.4.2-.7.2-1 .2-.7.3-1.1.5-1.7.2-.4.4-.8.5-1.1.4-.7.7-1.2.7-2 0-1.1-.6-1.7-1.4-2.4-.2-.2-.5-.4-.7-.7 2.4.2 4.9 1.9 7.4 3.6 1.2.8 2.5 1.7 3.8 2.4 1.4.7 2.6 1.1 3.7 1.1 1.2 0 2.2-.8 3.3-1.7.8-.6 1.6-1.3 2.6-1.7v-.5M63.6-64.5v-11.6c1.2.1 2.4.3 3.5.9 1.2.6 2.3 1.4 3.2 2.5.9 1.1 1.7 2.4 2.2 3.8.5 1.4.8 2.9.8 4.4h-9.7zm-.4-16.4c-3.3 0-5.6 1-6.9 1.8-.8-.5-1.1-.9-1.1-1.4 0-1.9 5.3-2 8-2s8 .2 8 2c0 .5-.3 1-1.1 1.4-1.4-.9-3.6-1.8-6.9-1.8M63-64.5h-9.9c0-1.5.3-3 .8-4.4.5-1.4 1.2-2.7 2.2-3.8.9-1.1 2-1.9 3.2-2.5 1.2-.6 2.4-.9 3.7-.9v11.6zm15-.7c-.3-.3-.9-.8-1.2-1.4l-2.1-4.2c-.2-.3-.3-.6-.3-.9 0-.3.2-.6.3-.8.1-.2.5-.5.6-.7.1-.1.2-.3.3-.4-.6-1-1.1-1.7-1.9-2.5-.9-1-1.9-1.9-3-2.6.6-.4 1.2-.9 1.2-1.9 0-.5-.2-1-.6-1.3.6-2 1.7-4.4 2.7-5.4l-2-.8c.5.8.6 1.7.4 2.2-.5-.4-1-.9-1.1-1.5-.1.6-.4 1.6-.7 2.2.6-.3 1-.4 1.6-.2-.3.5-1.2 1.1-2.5.8-.7-.2-1.4-.5-1.4-1.1 0-.3.3-.7.7-.7.4 0 .5.7.3 1 .6-.3 1.2-2 .3-2.2-.7-.2-1.3.8-1.6 1.5-.1-.9-.5-1.7-1.2-1.7-.9.1-.6 1.7-.3 2.2.1-.6.4-.9.7-.9.2 0 .6.2.5.7-.1.5-.8.9-1.7.9-.8 0-2.3-.3-2.5-1.9.5.1 1.4.5 1.8 1.1-.1-1-.1-1.7 0-2.7-.5.6-1.2 1-1.7 1.1.2-.7.7-1.4 1.4-1.9h-3.6c.7.4 1.3 1.2 1.4 1.9-.5-.1-1.3-.4-1.7-1.1.1 1 .1 1.7 0 2.7.4-.5 1.2-.9 1.7-1-.1 1.6-1.6 1.9-2.4 1.9-.9 0-1.6-.3-1.7-.9-.1-.5.3-.7.5-.7.3 0 .6.3.6.9.3-.4.6-2.1-.3-2.2-.7 0-1.1.8-1.2 1.7-.2-.7-.9-1.7-1.6-1.5-.9.2-.3 1.9.3 2.2-.1-.3-.1-1 .3-1s.7.3.7.7c0 .5-.7.9-1.4 1.1-1.3.3-2.2-.4-2.5-.8.6-.3 1.1-.1 1.6.1-.3-.6-.6-1.6-.7-2.2-.2.7-.6 1.2-1.1 1.5-.1-.5-.1-1.5.4-2.3l-2 .8c.9 1 2.1 3.4 2.7 5.4-.4.3-.6.8-.6 1.3 0 .9.6 1.5 1.2 1.9-1.1.7-2.1 1.6-3 2.6-1.4 1.5-2.4 3.3-3.2 5.3.3.3 1.5 1.6 1.7 1.9.5.6.8 1.2.8 1.7 0 .9.2 1.3.7 1.9.1.2.4.9.4 1.3h10v10.7c-.4 0-.8.1-1.1.5 1.1.5 2.2.9 3.3 1.2.1-.7.2-1.1.6-1.6 0 0-1.4-.1-2.2-.2v-10.7h9.6c0 1.5-.3 2.9-.8 4.2-.5 1.4-1.2 2.7-2.2 3.8-.9 1.1-2 1.9-3.2 2.5-.2.1-.2.2-.4.3-.2.2-.3.5-.5.9-.1.3-.2.5-.2 1 .5.1.7.2 1.1.3 3.4.8 4.2.6 4.4.5.8-.6 1.5-1.3 2.1-2 1.4-1.5 2.4-3.3 3.2-5.3.8-2.1 1.2-4.3 1.2-6.5.1-.2.1-.3.1-.7"/>
      <path d="M69-71.4c-.1.1-.1.2-.1.3 0 .1.1.2.3.2-.1.1-.2.2-.2.4.2 0 .3 0 .5-.1 0 .2 0 .3.1.3h.3c.7 1.2 1.2 2.5 1.4 3.9-.1-.1-.2-.1-.4-.1 0 .2.1.3.2.4h-2.4c0-.2-.1-.3-.2-.3s-.2 0-.3.1c0-.1-.1-.3-.2-.4-.1.1-.2.3-.2.4-.1-.1-.2-.2-.3-.1-.1 0-.2.2-.2.3h-2.1c.1-.1.1-.2.1-.4-.2 0-.3.1-.4.2v-3.3c.2 0 .3-.1.3-.2s0-.2-.1-.3c.1 0 .3-.1.4-.2-.1-.1-.3-.2-.4-.2.1-.1.1-.2.1-.3 0-.1-.2-.2-.3-.2v-2.8c.1.1.2.1.4.1 0-.2 0-.3-.1-.4.6.2 1.3.5 1.9.9.7.5 1.3 1.1 1.9 1.8m2.7 5c.2.1.1.4-.1.4-.2-1.7-.9-3.5-1.9-4.9.2-.1.4-.2.4-.5-.3 0-.5.1-.6.3-.1-.1-.1-.2-.2-.3-.6-.8-1.3-1.4-2.1-2-.7-.5-1.5-.8-2.3-1.1 0-.2.3-.2.4-.1 0-.3-.2-.5-.4-.4-.1 0-.2.1-.2.2-.1-.1-.2-.2-.4-.2 0 .2 0 .3.1.5-.1 0-.2.1-.3.1-.1.1 0 .4.3.5-.1-.1-.1-.4.1-.3v3.8c-.2-.1-.4 0-.6.2.2.2.4.2.6.2v4.1c-.2 0-.3-.2-.1-.3-.3 0-.4.3-.4.4 0 .1.1.2.3.1-.1.1-.2.2-.2.4.2 0 .3-.1.4-.2 0 .2.1.3.2.3.1.1.4-.1.4-.4-.1.2-.4.1-.4-.1h2.8c-.1.2 0 .4.2.6.2-.2.2-.4.2-.6h3.2c0 .2-.2.3-.3.1 0 .3.3.4.4.4.1 0 .2-.1.1-.3.1.1.2.2.4.2 0-.2-.1-.3-.2-.4.2 0 .3-.1.3-.2.4-.2.2-.5-.1-.5"/>
      <path d="M70-67.4c.1-.1.2-.1.3-.2H70c.1-.1.2 0 .1-.2s-.2-.2-.3-.1c-.1.1-.9 0-.9-.6.1.1.2.2.3.2h.4c.2 0 .3-.1.3-.3 0-.3-.3-.5-.6-.7l-.3-.3c-.1-.2 0-.4-.3-.8 0-.1 0-.2-.1-.4-.2.3-.2.8.2 1.2.3.4 1 .7 1 1 0 .1-.1.1-.2.2h-.1-.1s-.1 0-.1-.1c-.1 0-.2-.1-.2-.2-.3-.3-.5-.7-.7-.9-.3-.4-.2-.8-.1-1.1.2-.3-.1-.9-.3-1.1v-.3h-.2l-.2-.2c-.1 0-.1-.1-.1-.2-.1.1-.1.1-.2.1h-.2c-.1.1-.1.1-.2.1s-.1.1-.1.2 0 .2.1.2l.1.1.1-.1c.1-.1.2-.1.3.1 0 .1 0 .1-.1.1H67c-.1 0-.1.1-.1.2s.1.1.2.1c.2 0 .4-.1.4.1 0 .3-.4.3-.5.7-.1-.1-.2-.1-.2-.2-.1-.1-.2-.2-.3-.4-.1-.1-.2-.2-.3-.2-.2-.1-.2-.1-.2-.3 0-.1.1-.2 0-.3v-.1c0-.1-.1-.1-.2-.1l.1.1-.1.1v.2c0-.1-.1-.2-.1-.2h-.1c0-.1-.1-.2-.2-.1h.1v.1c0 .1.1.1.2.1-.2-.1-.2 0-.2.1v.1c-.1 0-.1.1 0 .2v-.1h.1c-.1.1-.1.2 0 .2-.1.1-.2.1-.2-.1-.1.2.1.4.3.3v.2s0 .1.1.1v-.1l.1.1c.1.2.3.6.7.7-.2.1-.3.3-.5.5-.1.1-.3.2-.4.2l-.1-.1h-.1-.1c-.1 0-.2 0-.2.1h.1v.1s0 .1.2.1h-.1c-.1 0-.1-.1-.2 0v.1c-.1 0-.2.2-.1.3 0 0 0-.1.1-.1.1.1.1.1.3-.1 0 .1-.1.2 0 .3h.1c0 .1.2.1.2.1l-.1-.1h.1c.1-.1 0-.2 0-.2s.1.1.2.1.1-.1.1-.1c.1-.1.3-.1.4-.1 0-.1.1-.2.2-.2h.3c0-.1.1-.2.2-.3 0 .6.8.6 1 .9-.2-.1-.5-.2-.7-.1-.2 0-.5.2-.6.4 0 .2.2.5.4.6h-.5c-.2 0-.2-.3-.4-.2h-.1c-.1 0-.2.1-.2.2l.1-.1s0 .1.1.1h.1c0 .1-.3 0-.2.2v.1c0 .1 0 .1.2.1 0 0-.1 0-.1-.1h.1v.2c0 .1.1.2.2.1 0 0-.1 0-.1-.1h.1v-.1h.1s.1.1.2.1c0 0 .1 0 .1-.1 0 0 .1 0 .1.1 0-.1 0-.2.2 0l.1-.1s.2.1.2 0c.1-.1.1-.1.1-.2-.1-.2-.1-.2-.2-.3-.1-.3.4-.5.6-.4 0 .2.3.7.8.8.3.1.4-.2.5-.2v.4c0 .1-.2 0-.3 0H69c-.1 0-.2.1-.2.2 0 0 .1-.1.2-.1 0 .1.1.2.2.1-.1 0-.2.2-.1.2h.1c0 .1 0 .1.1.2v-.1h.1c.1 0 0-.1.1-.2v.2h.1c0 .1.1.1.2.1 0 0-.1 0-.1-.1l.1-.1c.1-.2-.1-.2-.1-.3 0-.1.2 0 .2-.2.1 0 .2-.1.2-.2 0 .2-.1.2-.1.2zM61-62.1h-.1c-.2 0-.4.1-.4.3 0 .2.1.3.3.3h.1v.1c0 .3-.1.8-.2 1.3l-1.5-2.1c.7-.3 1.2-.6 1.5-.6.3.1.4.3.3.7m-.5 3.7l-2.3-3.3c.3-.1.5-.1.7-.2l1.7 2.5c0 .3-.1.7-.1 1m-.3 1.5L57-61.6h.8l2.6 3.8c-.1.3-.1.6-.2.9m-3.7-4.7l3.6 5.2c-1.9-.8-3.8-2.5-3.6-5.2m5.4-.4h-.2v-.2c0-.6-.3-1-.9-1-.6 0-1.6.7-3.1.7-.6 0-1.4-.3-1.9-.6l-.2.4c0-.2-.2-.4-.4-.4s-.4.2-.4.4.2.4.4.4c.1 0 .2-.1.3-.1l-.2.4c.1 0 .1.1.2.1-.2 2.3 1.5 5.2 4.4 6 .4-.1.9-.1.9.4 0 .3-.2.4-.4.4s-.3-.1-.3-.2c0-.2.3-.1.4-.2 0-.2-.1-.3-.3-.3-.2 0-.5.1-.5.5s.3.7.7.7c.3 0 1-.2.9-1 .2 0 .3 0 .4-.2v-.5h-.2l.1-5.2h.1c.2 0 .4-.1.4-.3.1-.1 0-.2-.2-.2M59.3-73s0-.1 0 0l.1-.1s0-.1-.1-.1c0 0 .1 0 0 0h-.1.1l.2.1v.1s0-.1-.1-.1v.1h-.1v.2l-.1.1c0-.2 0-.2.1-.3m.2-.5c0 .1-.1.1-.1 0-.1-.1 0-.1-.1-.2 0 .2.2.2.2.2m.1.1l.2.1c-.1 0-.1.1-.1.1-.1 0-.1-.1-.1-.2M61.3-72.5c.7 0 1.1-.2 1.1-.4 0-.8-1.9-.3-1.9-.8 0-.1.1-.1.1-.2 1-.1 1-.8 1.7-.9-.8-.1-1 .5-1.3.6.2-.1.3-.3.2-.4-.2.2-.5.2-.8.5v.1c-.1.1-.2.2-.2.3 0 .7 2 .2 2 .8 0 .2-.3.3-.9.3-.4 0-.7-.3-1.4-.1 0-.1.3-.4.2-.5.1 0 .1-.1.1-.1l-.1-.1v-.1-.1s-.1-.1-.2-.1h-.2-.1-.1l-.1-.1v.2c-.1 0-.1.2-.2.2 0 0 0 .1.1.1-.1.1-.1.2-.1.2l.1.1c-.1.2-.1.4-.1.4s-.1-.1-.2-.1c-.1-.1-.1-.1-.1-.2s.1-.2.1-.3v-.1c0-.1-.1-.1-.2-.1 0 0 .1 0 0 .1h-.1v.1c0-.1 0-.2-.1-.2h-.1c0-.1-.1-.1-.2 0h.1v.1c0 .1 0 .1.1.1-.1-.1-.2 0-.2.1v.1c-.1 0-.1.1 0 .2v-.1h.1c-.1.1-.1.2 0 .2 0 .2-.3.1-.2 0-.2.2 0 .3.2.2v.1s0 .1.1.1v-.1l.2.2c-.1.2-.3.2-.4.2H58c-.1.1-.4.2-.5 0 0 0 0-.1-.1-.1l-.1-.1h-.1s-.1-.1-.2 0c0 0 .1 0 .1.1v.1s0 .1.2.2h-.1c-.1-.1-.1-.1-.2-.1h-.1c-.1 0-.2.1-.1.2 0 0 0-.1.1-.1v.1c0 .1.1.2.2 0 0 .1-.2.2-.1.2 0 .1.1.2.2.2 0 0-.1-.1-.1-.2h.1c.1 0 0-.1.1-.2 0 0 0 .1.1.1s.1-.1.1-.1l.1.1s.1 0 .1-.1v.2l.2-.2v.1h.2v0s0 .1.1.2c0-.3.2-.2.3-.3 0 0 0 .1-.1.1.1 0 .2-.1.2-.2l.1-.1c.1 0 .2 0 .2-.1v.1c.2 0 .4-.2.4-.2.4-.1-.2-.3.5-.3.1 0 .2 0 .2-.1-.1.1-.1.3.1.4 0 0 .2 0 .2.1h-.2c-.2.1-.2-.3-.4-.2-.1 0-.2.1-.2.2l.1-.1s0 .1.1.1h.1c0 .1-.2 0-.2.2v.1c0 .1 0 .1.1.1 0 0-.1 0 0-.1v.1c0 .1.1.1.2.1h-.1v-.1l.1.1c.1 0 0-.1.1-.2h.4s0-.2-.1-.3c-.1 0 0-.1-.1-.2.1 0 .2.1.4.1.3 0 0 0 .1-.1s.3 0 .3 0 .1 0 .1.1v.2c0 .1-.1 0-.2 0h-.1c-.1 0-.1.1-.1.2l.1-.1c0 .1.1.1.2.1-.1 0-.2.1-.1.2 0 .1 0 .1.1.1v-.1c.1 0 0-.1.1-.2v.2c0 .1.1.1.2 0 0 0-.1 0-.1-.1v-.1c0-.1-.1-.1-.1-.2s.1 0 .1-.2c0 0 0-.1-.1-.1h.1c-.1 0-.1-.1-.1-.1s.1-.1 0-.2c0 0-.2.1-.2 0 0 0 0-.1-.1-.1.9.3.8.2.5.1 0 0-.1 0 0 0M57.5-70c.1 0 .1 0 0 0 .1-.1.1-.1.2-.1 0-.1 0-.1-.1-.1.1 0 .1 0 .1-.1h-.1v-.1h.1l.2.1v.2s0-.1-.1-.1v.1h-.1v.2s-.1.1-.2.1v-.2m.3-.5c0 .1-.1.1-.2.1-.1-.1 0-.1-.1-.2.1 0 .2.1.3.1m.1.1s.2.1.3.1c-.1 0-.1.1-.2.1 0-.1-.1-.2-.1-.2m-1 1c0-.1 0-.1 0 0 0-.1 0-.1 0 0m5.3-.4c0-.2-.2-.3-.9-.3s-2.2.3-2.2-.1c0-.2.3-.2.7-.2l.1.1c.9.3 1.9-.2 2.5-.1-.6-.5-1.2 0-1.8-.1.4 0 .5-.1.5-.2-.3.2-.9-.1-1.3.1h-.1c-.5 0-.9 0-.9.3 0 .7 1.8.3 2.4.3.6 0 .7.1.7.2 0 .2-.6.2-.9.2-.5 0-2-.3-2.9-.1.1-.1.2-.3.2-.5.1 0 .1-.1.1-.2 0 0-.1-.1-.2-.1v-.1-.1s-.1-.1-.2-.1-.2 0-.2-.1h-.1-.1s-.1-.1-.2-.1v.2c-.1 0-.2.2-.2.2 0 .1.1.1.1.1-.1.1-.1.3-.2.3l.1.1v.3H57h-.1.1-.1l-.3-.3c-.1-.1-.1-.1-.1-.3 0-.1.1-.2.1-.3v-.1c0-.1-.1-.1-.2-.1l.1.1-.1.1v.2c0-.1-.1-.2-.1-.2h-.1c0-.1-.1-.2-.2-.1h.1v.1c0 .1.1.1.1.1-.2-.1-.2 0-.2.1v.1c-.1 0-.1.1 0 .2v-.1h.1c-.1.1-.1.2 0 .2 0 .2-.3.2-.3 0-.2.2.1.4.3.3 0 0 0 .1.1.1 0 .1 0 .1.1.1v-.1s.1.2.3.2c.1.1.2.2.3.1 0 .1.1.3.1.3h-.5c-.1.1-.5.2-.5.1 0 0 0-.1-.1-.2l-.1-.1h-.1c-.1-.1-.2-.1-.2 0 0 0 .1 0 .1.1v.1s0 .1.2.2h-.1c-.1-.1-.1-.2-.2-.1h-.1c-.1 0-.2.1-.2.2 0 0 0-.1.1-.1v.1c0 .1.1.2.3 0-.1.1-.2.2-.1.2 0 .1.1.2.2.2 0 0-.1-.1-.1-.2h.1c.1 0 .1-.2.1-.2 0 .1 0 .2.2.2.1 0 .2-.1.2-.2l.1.1s.1 0 .1-.1v.2s.2-.1.2-.2v.1h.2v0s0 .1.1.2c0-.3.2-.2.4-.3 0 0 0 .1-.1.1.2 0 .5-.3.6-.4h.2c.6.1.2-.5 1.2-.4.1 0 .2-.1.2-.1-.1.1-.1.4.1.4.1 0 .2 0 .2.1h-.2c-.2.1-.2-.3-.4-.2H59c-.1 0-.2.1-.2.2l.1-.1s0 .1.1.1h.1c0 .1-.3 0-.2.2v.1c0 .1 0 .1.2.1 0 0-.1 0-.1-.1h.1v.1c0 .1.1.2.2.1 0 0-.1 0-.1-.1h.1v-.1h.1c0 .1.1.1.2.1s0-.2.1-.2h.4c0-.1 0-.3-.1-.3s0-.1-.1-.2c.1.1.3.1.4.1.3 0 .4 0 .5-.1.2-.1.3 0 .4 0 0 0 .1 0 .1.1v.3c0 .1-.2 0-.3 0h-.1c-.1 0-.2.1-.2.2l.1-.1c0 .1.1.2.2.1-.1 0-.2.2-.1.2h.1c0 .1 0 .1.1.1v-.1h.1c.1 0 0-.1.1-.2v.2h.1c0 .1.1.1.2.1 0 0-.1 0-.1-.1v-.1c0-.2-.1-.2-.1-.2 0-.1.2 0 .2-.2 0 0 0-.1-.1-.1 0 0 .1 0 .1-.1-.1 0-.1-.1-.1-.2 0 0 .1-.1.1-.2 0 .1-.2.1-.2 0 0 0 0-.1-.1-.1-.2 0-.4 0-.8-.1 1.1.4 1.7.3 1.7.1M56.7-66.9c.1-.1.1-.1 0 0l.1-.1c0-.1 0-.1-.1-.1 0 0 .1 0 0-.1h-.1v-.1h.1l.2.1v.2s0-.1-.1-.1v.1h-.1v.2l-.1.1c.1-.1.1-.2.1-.2m.3-.5c0 .1-.1.1-.2 0s0-.1-.1-.2c.1.1.2.2.3.2m.1 0s.2.1.3.1c-.1 0-.1.1-.2.1 0 0-.1-.1-.1-.2m4.8.6c0-.2-.2-.3-.9-.3s-2.7.2-2.7-.1c0-.2.7-.1 1.2-.1l.1.1c.8.2 1.7-.3 2.3-.1-.5-.4-1.1 0-1.7-.1.4 0 .8-.1.8-.2-.3.2-1.1-.1-1.5.1h-.1c-.6 0-1.4-.1-1.4.3 0 .7 2.3.3 2.9.3.6 0 .7.1.7.2 0 .2-.5.2-.9.2-.5 0-2.7-.3-3.5 0 0-.1.3-.4.2-.5.1 0 .1-.1.1-.2 0 0-.1-.1-.2-.1v-.1-.1s-.1-.1-.2-.1-.2 0-.2-.1h-.1-.1l-.1-.1v.2c-.1 0-.2.2-.2.2 0 .1 0 .1.1.1-.1.1-.1.3-.2.3l.1.1v.2h-.1-.1-.1c-.1 0-.2-.2-.4-.3-.1-.1-.1-.1-.1-.3 0-.1.1-.2 0-.3v-.1c0-.1-.1-.1-.2-.1 0 0 .1 0 .1.1V-67.4c0-.1-.1-.2-.1-.2h-.1c0-.1-.1-.1-.2 0h.1v.1c0 .1.1.1.2.1-.1-.1-.2 0-.2.1v.1c-.1 0-.1.1 0 .2v-.1h.1c-.1.1-.1.2 0 .2 0 .2-.3.1-.2 0-.1.2.1.4.3.3 0 0 0 .1.1.1 0 .1 0 .1.1.1v-.1s.2.3.4.4c.1 0 .1 0 .2-.1l.1.1c0 .1.1.3.1.3h-.5c-.1.1-.4.2-.5 0 0 0 0-.1-.1-.1l-.1-.1h-.1c0-.1-.2-.1-.2 0 0 0 .1 0 .1.1v.1s0 .1.2.2h-.1c-.1-.3-.1-.4-.2-.4h-.1c-.1 0-.2.1-.2.2 0 0 0-.1.1-.1v.1c0 .1.1.2.3 0-.1.1-.2.2-.1.2 0 .1.1.2.2.2 0 0-.1-.1-.1-.2h.1c.1 0 .1-.2.1-.2s0 .2.1.1c.1 0 .2-.1.2-.2l.1.1s.1 0 .1-.1v.2s.2-.1.2-.2v.1h.2v0s0 .1.1.2c0-.3.4-.1.6-.3 0 0 0 .1-.1.1.1 0 .2 0 .2-.1l.3-.1v-.1h.1c.2 0 .2-.1.2-.1 1.1.1.5-.5 1.7-.3.1 0 .1 0 .1-.1-.1.1-.1.3.1.3.1 0 .2 0 .2.1h-.2c-.2.1-.2-.3-.4-.2h-.1c-.1 0-.2.1-.2.2l.1-.1s0 .1.1.1h.1c0 .1-.3 0-.2.2v.1c0 .1 0 .1.2.1 0 0-.1 0-.1-.1h.1v.1c0 .1.1.2.2.1 0 0-.1 0-.1-.1h.1v-.1h.1c0 .1.1.1.2.1s0-.2.1-.2h.4c0-.1 0-.2-.1-.3-.1 0 0-.1-.1-.2.1 0 .2.1.4.1.3 0 .4 0 .5-.1.1-.1.3 0 .4 0 0 0 .1 0 .1.1v.2c0 .1-.2 0-.2 0h-.1c-.1 0-.2.1-.2.2l.1-.1c0 .1.1.1.2.1-.1 0-.2.2-.1.2h.1c0 .1 0 .1.1.1v-.1h.1c.1 0 0-.1.1-.2v.2h.1c0 .1.1.1.2.1 0 0-.1 0-.1-.1v-.1c0-.2-.1-.2-.1-.2 0-.1.2 0 .2-.2 0 0 0-.1-.1-.1h.1c-.1 0-.1-.1-.1-.2 0 0 .1-.1.1-.2 0 .1-.2.1-.2 0 0 0 0-.1-.1-.1-.2 0-.3 0-.7-.1.7.5 1.3.4 1.3.2M66-62.800000000000004zm.1.3c.1-.1.1-.1 0 0 .1-.1.1-.1.2-.1 0 0 0-.1-.1-.1 0 0 .1 0 0-.1h-.1v-.1h.1l.2.1v.2s0-.1-.1-.1v.1h-.1v.2l-.1.1v-.2m.3-.6c0 .1-.1.1-.2.1-.1-.1 0-.1-.1-.2.1 0 .3.1.3.1m.1.1s.2.1.3.1c-.1 0-.1.1-.2.1 0 0-.1-.1-.1-.2m4.8 1.2c0-.1.1-.1.1-.2 0 .1-.2.1-.2 0 0 0 0-.1-.1-.1-.2 0-.4 0-.8-.1.4 0 1.1-.1 1.1-.3 0-.2-.2-.3-.9-.3s-2.7.2-2.7-.1c0-.2.7-.1 1.2-.1l.1.1c.8.2 1.8-.4 2.3-.2-.7-.2-1.1.2-1.7 0 .4 0 .8-.1.8-.2-.3.2-1.1-.1-1.5.1h-.1c-.6 0-1.4-.1-1.4.3 0 .7 2.3.3 2.8.3.6 0 .7.1.7.2 0 .2-.5.2-.9.2-.5 0-2.7-.3-3.5 0 0-.1.3-.4.2-.5.1 0 .1-.1.1-.2 0 0-.1-.1-.2-.1v-.1-.1s-.1-.1-.2-.1-.2 0-.2-.1h-.1s-.1 0-.1.1c0 0-.1-.1-.2-.1v.2c-.1 0-.2.2-.2.2 0 .1.1.1.1.1-.1.1-.1.3-.2.3 0 .1.1.1.1.1v.2h-.1-.1-.1c-.1 0-.2-.2-.4-.3v-.4c0-.1.1-.2 0-.3v-.1c0-.1-.1-.1-.2-.1 0 0 .1 0 .1.1 0 0 0 .1-.1.1v.2c0-.1-.1-.2-.1-.2h-.1c0-.1-.1-.1-.2 0h.1v.1c0 .1.1.1.1.1-.1-.1-.2 0-.2.1v.1c-.1 0-.1.1 0 .2v-.1h.1c-.1.1-.1.2 0 .2 0 .2-.3.1-.2 0-.1.2.1.4.3.3 0 0 0 .1.1.1 0 0 0 .1.1.1v-.1s.2.3.4.4c0 0 .1-.1.2-.1 0 .1 0 .1.1.1 0 .1.1.3.1.3h-.4c-.1.1-.4.2-.5.1 0-.1 0-.1-.1-.2l-.1-.1h-.1s-.2-.1-.2 0c0 0 .1 0 .1.1v.1s0 .1.2.2h-.1c-.1-.1-.1-.1-.2-.1h-.1c-.1 0-.2.1-.2.2 0 0 0-.1.1-.1v.1c0 .1.1.2.3 0 0 .1-.2.2-.1.2 0 .1.1.2.2.2 0 0-.1-.1-.1-.2h.1c.1 0 .1-.2.1-.2s0 .2.1.1c.1 0 .2-.1.1-.2l.1.1s.1 0 .1-.1v.2s.2-.1.2-.2v.1h.2v0s0 .1.1.2c0-.3.2-.2.4-.3 0 0 0 .1-.1.1.1.1.3-.1.3-.2 0 0 .1 0 .2-.1.2 0 .2-.1.2-.1 1.1.1.5-.5 1.7-.3.1 0 .1-.1.1-.1-.1.1-.1.4.1.4.1 0 .2 0 .2.1h-.2c-.2.1-.2-.3-.4-.2h-.1c-.1 0-.2.1-.2.2l.1-.1s0 .1.1.1h.1c0 .1-.3 0-.2.2v.1c0 .1 0 .1.2.1 0 0-.1 0-.1-.1v.1c0 .1.1.2.2.1 0 0-.1 0-.1-.1h.1v-.1h.1s.1.1.2.1 0-.2.1-.2h.4c0-.1 0-.2-.1-.3-.1 0 0-.1-.1-.2.1.1.2.1.4.1.3 0 .4 0 .5-.1.2-.1.3 0 .4 0 0 0 .1 0 0 .1v.2c0 .1-.2 0-.2 0h-.1c-.1 0-.2.1-.2.2l.1-.1c0 .1.1.1.2.1-.1 0-.2.1-.1.2 0 .1 0 .1.1.1v-.1h.1c.1 0 0-.1.1-.2 0 .1-.1.2 0 .2h.1c0 .1.1.1.2.1 0 0-.1 0-.1-.1l.1-.1c.1-.2-.1-.2-.1-.2 0-.1.2 0 .2-.2 0 0 0-.1-.1-.1h.1c.9.1 1 0 1-.1M66.5-59.9c-.1 0-.1-.1-.1-.2l.2.1s0 .1-.1.1m-.1.1c-.1-.1-.1 0 0 0h-.2v.2l-.1.1c-.1 0-.1-.1 0-.2 0 0 0-.1.1-.1h.1c0-.1 0-.1-.1-.1 0 0 .1 0 0-.1h-.1v-.1h.1l.2.1v.2m-.1-.4c0 .1-.1.1-.2 0 0-.1 0-.1-.1-.2.1.2.3.2.3.2m2 .1l.1.1c.8.2 1.7-.4 2.2-.2-.6-.2-1 .2-1.6 0 .4 0 .7-.1.8-.2-.3.2-1.1-.1-1.4.1-.4 0-.8 0-.8.3 0 .6 1.7.3 2.2.3.5 0 .5.1.5.2s-.6.2-.9.2c-.5 0-1.8-.2-2.7-.1.1-.1.2-.3.1-.4.1 0 .1-.1.1-.2 0 0-.1-.1-.2-.1v-.1-.1s-.1-.1-.2-.1-.1 0-.2-.1h-.1-.1l-.1-.1v.2c-.1 0-.1.2-.2.2 0 .1 0 .1.1.1-.1.1-.1.2-.2.3 0 0 0 .1.1.1v.2h-.1c-.1 0-.2 0-.3-.1-.1-.1-.1-.1-.1-.3 0-.1.1-.2 0-.3v-.1c0-.1-.1-.1-.2-.1 0 0 .1 0 .1.1v.2c0-.1-.1-.2-.1-.2 0-.1-.1-.1-.2-.1h.1v.1c0 .1.1.1.1.1-.1-.1-.2 0-.2.1v.1c-.1 0-.1.1 0 .2v-.1h.1c-.1.1-.1.2 0 .2 0 .2-.2.1-.2 0-.1.2.1.4.3.3 0 0 0 .1.1.1 0 0 0 .1.1.1v-.1s0-.1.2 0c0 0 0 .1.1.1h.2v.3h-.4c-.1.1-.4.2-.5 0 0 0 0-.1-.1-.1l-.1-.1h-.1c0-.1-.2-.1-.2 0 0 0 .1 0 .1.1v.1s0 .1.2.2h-.1c-.1-.1-.1-.1-.2-.1h-.1c-.1 0-.2.1-.1.2 0 0 0-.1.1-.1v.1c0 .1.1.2.2 0 0 .1-.2.2-.1.2 0 .1.1.2.2.2 0 0-.1-.1-.1-.2h.1c.1 0 0-.1.1-.2 0 0 0 .1.1.1s.2-.1.1-.2l.1.1s.1 0 .1-.1v.2s.2-.1.2-.2v.1h.2v0s0 .1.1.2c0-.3.2-.2.4-.3 0 0 0 .1-.1.1.2.1.4-.1.4-.3v-.1.1c.2 0 .2-.1.2-.1.5 0 .1-.5 1-.3.1 0 .2 0 .2-.1-.1.1-.1.4.1.4.1 0 .2 0 .2.1h-.2c-.2.1-.2-.3-.4-.2h-.1c-.1 0-.2.1-.2.2l.1-.1s0 .1.1.1h.1c0 .1-.2 0-.2.2v.1c0 .1 0 .1.2.1 0 0-.1 0-.1-.1v.1c0 .1.1.2.2.1 0 0-.1 0-.1-.1h.1v-.1c0 .1.1.1.2.1s0-.2.1-.2h.4c0-.1 0-.2-.1-.3-.1 0 0-.1-.1-.2.1.1.2.1.4.1.3 0 .4 0 .6-.1.2-.1.3 0 .4 0 0 0 .1 0 0 .1s0 .2-.1.2c0 .1-.2 0-.2 0H69c-.1 0-.2.1-.2.2l.1-.1c0 .1.1.1.2.1-.1 0-.2.1-.1.2h.1c0 .1 0 .1.1.1v-.1h.1c.1 0 .1-.1.1-.2 0 .1-.1.2 0 .2 0 .1.1.1.2.1 0 0-.1 0-.1-.1l.1-.1c.1-.2 0-.2 0-.2 0-.1.2 0 .2-.2v-.1s.1 0 .1-.1c-.1 0-.1-.1-.1-.1s.1-.1.1-.2c0 .1-.2.1-.2 0 0 0 0-.1-.1-.1-.2 0-.5 0-.8-.1.4 0 1.1-.1 1.1-.3 0-.2 0-.3-.7-.3-.6 0-2 .2-2-.1.5.3.8.3 1.1.3M65.8-56.7c0-.1 0-.1 0 0l.1-.1s0-.1-.1-.1c0 0 .1 0 0-.1h-.1v-.1h.1l.2.1v.2h-.1v.2l-.1.1v-.2m.2-.5s-.1.1-.2 0c0 0 0-.1-.1-.2.2.1.3.2.3.2m.2.1l.2.1c-.1 0-.1.1-.1.1-.1-.1-.2-.2-.1-.2m1.5-.1l.1.1c.8.2 1.7-.4 2.2-.2-.6-.2-1 .2-1.6 0 .4 0 .7-.1.8-.2-.3.2-1.1-.1-1.4.1l-.1.1c-.2.1-.5.2-.5.4 0 .5 2.1.1 2.1.3 0 .1-.4.3-.9.3-.4 0-1.1-.3-2 0 .1-.2.3-.4.2-.5.1 0 .1-.1.1-.1l-.1-.1v-.1-.1s-.1-.1-.2-.1-.1 0-.2-.1h-.1-.1l-.1-.1v.2c-.1 0-.1.2-.2.2 0 .1 0 .1.1.1-.1.1-.1.2-.2.2l.1.1c0 .2-.1.4 0 .5-.1-.1-.3-.4-.4-.5-.1-.1-.1-.1-.1-.2v-.3-.1c0-.1-.1-.1-.2-.1 0 0 .1 0 .1.1v.2c0-.1-.1-.2-.1-.2 0-.1-.1-.1-.2 0h.1v.1c0 .1.1.1.1.1-.1-.1-.2 0-.2.1v.1s-.1.1 0 .2v-.1h.1c-.1.1-.1.2 0 .2 0 .2-.2.1-.2 0-.1.2.1.3.3.2 0 0 0 .1.1.1 0 0 0 .1.1.1v-.1s0 .3.2.4c0 .1.2.2.3.2 0 .1.1.2.1.2h-.4c-.1 0-.2.1-.3.1h-.2s0-.1-.1-.1l-.1-.1h-.1s-.1-.1-.2 0c0 0 .1 0 .1.1v.1s0 .1.2.2h-.1c-.1-.1-.1-.1-.2-.1h-.1c-.1 0-.2.1-.1.2 0 0 0-.1.1-.1v.1c0 .1.1.2.2 0 0 .1-.2.1-.1.2 0 .1.1.2.2.2 0 0-.1-.1-.1-.2h.1c.1 0 0-.1.1-.2 0 0 0 .1.1.1s.1-.1.1-.1l.1.1s.1 0 .1-.1v.2l.2-.2v.1h.2v0s0 .1.1.2c0-.3.2-.2.3-.3 0 0 0 .1-.1.1.1 0 .2-.1.2-.2 0 0 .1-.1.2-.5h.1c.2 0 .3-.2.5-.2-.1.1-.1.2-.1.3 0 .1.2.3.2.3h-.2c-.2.1-.2-.3-.4-.2h-.1c-.1 0-.2.1-.2.2l.1-.1s0 .1.1.1h.1c0 .1-.2 0-.2.2v.1c0 .1 0 .1.1.1 0 0-.1 0 0-.1v.1c0 .1.1.1.2.1h-.1.1v-.1l.1.1c.1 0 0-.1.1-.2H66.9s0-.2-.1-.3c-.1 0 .1-.4-.2-.6.1 0 .6.1.7 0 .1 0 .3.1.3.2v.1c-.1.1-.1.1-.2.1l-.1-.1h-.1c-.1 0-.2 0-.2.1h.1v.1c-.1 0-.2 0-.2.1v.1s-.1.1 0 .2l.1-.1s.1-.1.2 0c-.1 0-.1.1-.1.1s0 .1.1.2v-.1h.1c.1-.1.1-.2.1-.2s.1.1.2 0v-.1s.1.1.1 0c-.1-.1 0-.1 0-.2 0 0 .1 0 .1-.1-.1 0-.2-.1-.1-.1s.2-.1.1-.2-.3-.2-.3-.3h.2c.7 0 1.1-.2 1.1-.4 0-.5-2.1 0-2.1-.3.7-.3.8-.4 1-.4M34-93.5c0-.3-.2-.5-.5-.5s-.5.2-.5.5.2.5.5.5.5-.2.5-.5M33.8-94.8c0-.3-.2-.5-.5-.5s-.5.2-.5.5.2.5.5.5.5-.2.5-.5M34.1-95.4c.3 0 .5-.2.5-.5s-.2-.5-.5-.5-.5.2-.5.5.2.5.5.5M35.4-95.5c.3 0 .5-.2.5-.5s-.2-.5-.5-.5-.5.2-.5.5.3.5.5.5M41.2-96.4c.2.2.5.2.7 0 .2-.2.2-.5 0-.7-.2-.2-.5-.2-.7 0-.2.2-.2.5 0 .7M41.1-97.5c.2-.2.2-.5 0-.7-.2-.2-.5-.2-.7 0-.2.2-.2.5 0 .7.1.2.5.2.7 0M39.7-97.7c.2-.2.2-.5 0-.7-.2-.2-.5-.2-.7 0-.2.2-.2.5 0 .7.2.2.5.2.7 0M38.6-96.9c.2-.2.2-.5 0-.7-.2-.2-.5-.2-.7 0-.2.2-.2.5 0 .7.2.2.5.2.7 0M35.4-97.6l.4.9.5-.6h.1c0 .3.1.8.1 1.1 0 .4.3.6.6.6.4 0 .6-.3.6-.6 0-.2-.1-.5-.3-.6l-.7-.7v-.1l.9.1-.3-.9-.6.5v-.9l-.9.3.6.7v.1l-1 .1zM41.2-96c.2.3.3.5.3.7-.2-.1-.3-.2-.5-.5l.1 1.2c.1-.2.3-.4.4-.4 0 .8-.3 1.1-.6 1.1-.3.1-.6-.1-.6-.4-.1-.3.2-.6.5-.2.1-.7-.5-.7-.8-.4.3-.7.2-1.1-.4-1.5-.4.6-.2 1.1.3 1.5-.5-.2-.9.2-.5.7.1-.5.5-.4.6 0 .1.3-.2.7-.7.9-.7.2-1-.2-1.1-.6.2-.1.5-.1.9.2l-.3-1.1c-.2.4-.4.6-.7.7 0-.3.2-1 .2-1l-1.4.6s.6.3.9.6c-.3.1-.6.2-1 0l.6 1.1c.1-.5.4-.8.5-.8.1.4.3.9-.4 1.2-.5.2-1 .2-1.1-.1-.2-.3 0-.7.4-.4-.1-.7-.6-.7-.8-.2 0-.7-.2-1.1-.9-1.3-.2.7.1 1.1.7 1.4-.4 0-.8.3-.3.8 0-.4.4-.5.6-.2.1.2.1.5-.2.7-.2.1-.7.1-1.2-.4.2-.1.4 0 .6 0l-.7-.9v.7c-.2-.2-.2-.3-.3-.7l-.6.5c.5.3 1.2.8 1.9 1.9.8-.5 2.2-1.2 3.1-1.5.9-.4 2.4-.9 3.3-1.1-.2-1.3-.1-2.1.1-2.7l-.9-.1z"/>
      <path d="M42.8-89.3c-.7.6-1.6 0-2.1-.7 1-.4 2.1-.8 2.8-1.3-.6 1.1-.1 1.5-.7 2m-.2 7.3c-.9.4-1.6-.4-1.8-.9-.2-.5-.3-1-.1-1.2.4-.4.5-.7.3-1.2-.3-.6-.9-.3-1.5-.1.3-.5.3-.9-.1-.9-.5.1-.5.8-.8.7-.3-.1-.1-.5-.1-.8 0-.3.2-.4.5-.6l2.6-1c.3-.1.6-.2.8 0 .2.2.6.4.5.6-.1.3-.7-.3-1.1 0-.3.2 0 .5.5.7-.6.3-1.2.6-1 1.1.2.5.5.6 1 .6.3 0 .5.4.8.9.4.8.5 1.7-.5 2.1m-5-5.3c-.7.1-.7-.6-1.9-.9.9-.2 2-.6 3-1 .2.8-.2 1.8-1.1 1.9m14.7 23.4c.2-.5-.8-1.1-.9-1.9-.1-.8 0-1.5-.9-2.5s-3.9-4.2-4.8-5.3c.2 0 .8-.1 1.3.4.3.3 1 .9 1.6 1.5.8-2 1.8-3.6 3.2-5.1l.6-.6c-.5.2-1.3.3-1.8.6 0-.9 0-1.6-.6-2.2.2-1.2 0-2.7-2.7-4.6 1.4.3 2.3 1.6 3.3.6-1 0-1-2.2-4.5-3.9 1.3 0 2.4 2.1 4 .9-1.5-.2-2-2.8-4.6-3.6.9.1 1.9.6 2.6-.5-.9.2-1.5-.6-2.4-.7.4-1.1.3-1.8-.1-2.7-.7 0-1.4.3-1.9.7-.1-.6-.7-.7-1.3-.6 0 .3.2.7-.1.7-.5.1-2 .5-3.3 1-1.2.5-2.6 1.3-3 1.6-.2.2-.5-.2-.6-.4-.4.4-.8.8-.5 1.3-.7.1-1.4.2-2.1.7 0 .8.7 1.5 1.6 2-1.6 1.6-.2 3.1-1.6 4.5 2 .1 1.7-2.7 2.7-3.1-.1 2-1.2 2.3-1.2 4.5 0 1.1.7 2.4.1 3.1 1.7-.5 1.2-4.2 2.3-5.3.2.6.1 1.3-.1 1.9-.6 1.7.1 4.1-.9 4.9 1.7-.2 1.9-2.9 3.4-4-1.2 2.5-2.5 7.8-4.3 10.5-2.9 4-4.7 8.8-7.4 8.8-1.2 0-2.1-.7-2.1-2.2 0-4.5 7.7-7.6 7.7-12.4 0-2.1-1.7-3-2.8-3-.7 0-1.6.4-2.4 1-.3-.1-.6-.2-.9-.2-2.7 0-2 4.9-4.4 4.9.9.5 2.6-.5 3.5-1.9-.4 3.2-5 2.3-4.6 6.2.6-3 8-2.6 8-7.1 0-.5-.3-.9-.6-1.3.6-.4 1.1-.5 1.5-.5.9 0 1.7.7 1.7 1.9 0 4-7.7 7.4-7.7 12.4 0 .8.2 1.5.6 2.1-.5.2-1.1.1-1.6-.4 0 1.3 1.8 2.1 2.9 1.4.3.1.5.1.8.2-.3.9-1.5 1.2-2.1 1.2 1.9 1.5 5.2-.5 5-2.1 1.5-1.2 2.4-3.3 3.5-4.6-.1.3-.1.6-.2.9-1.1 2-2.1 3.8-2.4 6.4-.2 2.2-1.4 4.2-2.9 4.2-.3 0-.9-.4-1.2-.2-.5.4 0 .9 0 1.3 0 .6-1.2 1.3-1.2 3.2 0 .9.5 1.9.3 2.5.5-.3 1.2-1.1 1.4-2.2.5 2.6-1.1 2.5.1 4.7.1-.8.9-1.1 1.4-.8.5.3.2.5-.1.9-.3.3-.7 2 .9 1.9-.3-.2-.3-.6.5-.8 1.1-.2 1.4.3 2.5.3.7 0 .9-.9 1.5-.9s.6.4.4.8c.9-.2 1.1-.7 1.1-1.2s-.4-.8-.1-1c.3-.2 1.4 0 .9.9.5-.1.8-.5.8-1.1 0-.7-.8-1-1.5-.9-.1-.4-.7-.6-1.3-.6-1.3 0-1.1 1-1.9 1-1.4 0-2.7-1.8-2.7-4.8 0-1.6 1.7-2 3-2.6 1.2-.5 3.4-1.9 4.7-4 1-1.7 1.1-3.6.9-5.8 1.7 1 1.9 2.4 1.9 3.5 0 1.4-.7 1.9-1.3 2.2-.5.2-.6.1-.7.4-.1.3.2.5.4.7.6.3.5.9.7 1.6.2.7.8 1.7 1.7 2.4.1-.4.1-1.1 0-1.9 1.3.7.3 3.4 2.9 3.4-.5-.3-.4-1-.1-1.1.3-.1.6.2 1.1.9.5.7.4.6 1.6.6 1.2 0 .7-.4 1.3-.4.7 0 .6.8.3 1.3 1.1-.3 1.4-1.2 1.1-2 1-.5 1.5.2 1.6.7 1-1 0-2.1-.8-2.2 0-.4-.3-.7-.7-.8-.4 0-.8-.1-1.2 0-.5 0-.7.7-1.2.7-1.6 0-4.9-3-4.9-4.2 0-1.3 3.1-2.1 3.1-4 0-2.6-2.5-3.5-4.7-5.1.8-.9 3-1.1 4.3-.4.1-.7.6-.5.8-1.8.5 1.1 0 2 .4 2.5.4-.5 1.3-.5 1.2-1.8.3.8-.4 2.1.3 2.7.1-.7.5-.8.8-.8.3 0 .5.2.5.6 0 1-1.3.6-1.3 1.7 0 .5.6.7.6 1 0 .3-.5.8-1.1.4.1-.2.6.2 1.1.2.6 0 1.2-.5 1.4-1 .3.7.1 1.6-.5 1.7.6.3 1.9 0 1.7-1.7.8.1 1.2.6.7 1.6.6-.2 1.2-.5 1.2-1.1.1-.6-.5-.8-.2-1.4M102.1-51.5c0-.9.7-1.6 1.6-1.6.9 0 1.6.7 1.6 1.6 0 .9-.7 1.6-1.6 1.6-.8 0-1.6-.7-1.6-1.6m-.5 0c0 1.2 1 2.2 2.2 2.2 1.2 0 2.2-1 2.2-2.2 0-1.2-1-2.2-2.2-2.2-1.3 0-2.2 1-2.2 2.2M94.4-47.5c-.6-.1-1.1-.6-1-1 0-.2.2-.4.3-.5.3-.2.6-.2 1-.2.6.1 1 .5 1 .9v.1c-.1.5-.6.8-1.3.7m-.9-2c-.3.2-.5.5-.5.8-.1.4 0 .8.3 1.1.3.3.7.5 1.1.6.4.1.9 0 1.2-.2.4-.2.6-.5.7-.9.1-.8-.5-1.5-1.4-1.7-.6 0-1.1.1-1.4.3M81.4-78.7c0-.3.2-.6.5-.8.2-.2.6-.3.8-.3.1 0 .3.1.4.2.1.2.1.3.1.5 0 .3-.2.5-.5.7-.4.3-1 .3-1.2 0-.1-.1-.1-.2-.1-.3m.1-1.3c-.7.5-.9 1.4-.4 2 .4.6 1.3.6 2 .1.4-.3.6-.7.7-1.1 0-.3 0-.6-.2-.9-.2-.2-.5-.4-.8-.4-.5-.1-1 0-1.3.3M91.7-50.1zm0-.5c-.2 0-.4-.1-.5-.2-.2-.2-.3-.6-.3-.9 0-.4.1-.7.4-.9.1-.1.3-.2.5-.2.5 0 .8.5.8 1.2 0 .4-.1.7-.4.9-.1 0-.2.1-.5.1m-.8-2.5c-.3.3-.5.8-.5 1.3s.2 1 .5 1.3c.2.3.6.4.9.4.3 0 .6-.1.9-.4.3-.3.5-.8.5-1.3 0-.4-.1-.9-.4-1.2-.3-.3-.6-.5-1-.5-.3 0-.6.2-.9.4M80.7-68.5c-.6-.3-.9-.8-.7-1.3.1-.2.3-.3.4-.3.3-.1.6-.1 1 .1.3.2.6.4.7.7 0 .1.1.3 0 .5s-.3.3-.4.3c-.3.2-.7.1-1 0m-.4-2.2c-.3.1-.6.3-.7.6-.3.7.1 1.6.9 2 .5.2 1 .3 1.4.1.3-.1.6-.3.7-.6.1-.3.2-.6 0-1s-.5-.8-1-1c-.4-.2-.9-.2-1.3-.1"/>
      <path d="M96-60.8c-.4.5-1 .7-1.4.4-.4-.3-.4-.9-.1-1.4.4-.5 1-.7 1.4-.4.4.3.5.9.1 1.4m-2.5 4.1c-.4.5-1 .7-1.4.4-.4-.3-.4-.9-.1-1.4.4-.5 1-.7 1.4-.4.4.3.4.9.1 1.4m-8.8-22.2c.3-.9.9-2.8.9-2.8l1 .4c-.3.1-.6.4-.9.7.2.1.6.1.9-.1l-.4 1c-.1-.2-.4-.5-.6-.6-.2.8.3 1.1.7 1.3.6.3 1 .4 1.2.1.2-.3-.2-.8-.7-.6-.1-.5.2-.8.6-.8.3 0 .5.2.6.6 0-.8.3-1.5 1.1-1.7.3.8.1 1.4-.6 2 .3-.1.7-.1.8.1.2.3.1.7-.3.9-.1-.5-.7-.6-.9-.2-.2.3.1.7.6 1 .6.4 1.2.1 1.5-.4-.2-.1-.6 0-.9.2L90-79c0 .2.1.5.4.7.1-.3.2-.8 0-1.2l1.4.8c-.5 0-.8.4-1 .6.3.1.7.1.8 0l-.9 1.1c0-.4-.1-.7-.3-.9-.3.6-.2 1.1.4 1.5.5.3 1 .4 1.2.1.2-.3-.1-.9-.7-.7 0-.5.3-.8.6-.8s.5.3.5.7c.2-.8.6-1.3 1.4-1.5.2.8-.2 1.4-.9 1.8.3-.1.7 0 .8.2.2.3.1.7-.4.9-.1-.5-.7-.7-.9-.3-.2.3.1.6.7 1 .3.2.8.5 1.4-.1-.2-.2-.6-.3-.8-.3l.7-.8c0 .3.2.7.4.8.1-.4.2-.8.1-1.2l.8.7s-1.3 1.4-2 2.2l-9-5.2zm10.6 12.1c0-.1 0-.3.2-.5s.4-.2.5-.2c.3 0 .6.2.9.4.2.3.4.6.4.9 0 .1 0 .3-.2.5s-.4.2-.5.2c-.3 0-.6-.2-.9-.4-.3-.2-.4-.6-.4-.9m3.9 17.9c.1-.3.3-.6.6-.8.3-.2.7-.3 1-.2.1 0 .3.1.5.3.1.2.1.4.1.5-.1.3-.3.6-.6.8-.5.3-1.2.3-1.4-.1-.2-.1-.2-.3-.2-.5m-18.5-27c0 .3-.1.6-.3.8-.1.1-.2.2-.4.2-.4 0-.6-.4-.6-.9v-.1c0-.3.1-.6.3-.8.1-.1.2-.2.4-.2s.3.1.4.2c.1.2.2.5.2.8m5.7-11.7c.3-.6 0-1.5 1.1-1.5.5 0 1 .5 1.6.7-1 .1-2 .3-2.7.8m16.7 14.7c.7 1.9 2.1 2.6 3.2 2.1-2.4-.3-.5-4.4-3.5-4.4-.2 0-.3 0-.5.1-.5-.6-1.1-.8-2-.8-1.3 0-3.6 1.3-3.6 3.9 0 5.6 6.5 6.1 6.5 11.1 0 1.5-1.1 2.4-2.3 2.4-1.1 0-2-1.2-2.9-3.2-.4-.9-1.4-2.2-2.4-3.5.3.2.6.3 1 .3.3 0 .7-.1.9-.3.2-.2.4-.5.4-.9v-.1c0-.4-.2-.9-.5-1.3-.4-.3-.9-.5-1.4-.5-.3 0-.7.1-.9.3-.2.2-.4.5-.4.9 0 .2 0 .4.1.6-1.4-1.8-2.7-3.6-2.7-4.6 0-.9.6-1.6 1.3-2.6l.3.1.2-.2c.3-.3.8-.9 1.9-2.1l.1-.1.3-.3-.7-.6c.2-.4.3-.9.5-1.4.2.9.7 1.5 1.3 1.3-.4-.9.4-2.2-.1-4.5.5.9 1.3 1.3 1.9 1.2-1.4-1.3.4-3.1-1.5-5.8.6.2 1 .1 1.3-.2-1.7-.2-.9-2.4-3.9-3.2.7-.1 1.2-.6 1.1-1-.8.6-1.5-1.1-4.1-1-.2-1-1.1-2-2.1-2.5.2.8 0 1.4-.2 2l-8.5-8.3c-.2-.2-.4-.3-.5-.2-.1.1-.1.2.1.4l7.3 9.2c-.6.2-1.1.4-1.7.6-.4.1-.6.5-.6.9-1.4.7-2.5 1.5-3.1 2-.5.4-.8.5-.4 1.4.2.3-.3 1.2.7.6.7-.4 2.3-1.3 2.5-.7.1.3-.7.7-1.2.9-.5.2-1.1.6-1 .8.1.2.5 0 .5.2s.2.5.4.5.5-.4.7-.3c.2.1-.1 1.1-.3 1.4.8-.1 1.4-.9 1.4-1.5s.2-.8.3-.9c.1-.1.3.7.1 1.1.4-.1.9-.7.8-1.7.2-.2.4-.3.6-.3.3 0 .8.8 1.6.8 1.4 0 2.2-1.2 2.3-1.7.1-.4 0-.9-.2-1.2.5.4.7 1.1.7 1.6 0 2-3.6 3-5.1 4.4-.1 0-.1.1-.2.2l-1.7-.7-.1.4s0 .1-.1.3c-.2.6-.5 1.8-.8 2.5l-.1.3.2.1c-1 1.3-1.8 2.8-2 4.4-.4-.4-.8-.8-1.2-1.1 0-.1.1-.3.1-.5 0-.5-.1-.9-.4-1.2-.2-.2-.5-.4-.8-.4-.3 0-.6.1-.8.3-.1 0-.1.1-.1.2-.1 0-.1-.1-.2-.1-.6-.4-1.3-.9-1.7-1.4-.2-.2-.4-.3-.7-.3h-.8c-.2 0-.4.2-.7.4-.1.1-.5.4-1 .8.2.2.4.4.6.7.1.1.2.3.3.4.1-.1.2-.2.3-.2.3-.4.5-.4.8-.4.2 0 .5.2.7.5.2.2 1.5 2 2.7 3.3-.1 0-.2.1-.4.1-.5.2-1.6.2-2.1.1-.5 0-.6-.2-.9.4-.1.2-.3.4-.5.6-.2.2-.3.4.1 1 .5.8 1.7 3.1 2.2 4.1.4 1 .9 1.2 1.7 1.5.8.3 2.1 1.1 2.3 1.3l.1-.8c-.2-.2-1-.5-1.3-.6-.3-.1-.4-.2 0-.2.3 0 1.3.3 2 .6-.2-.8-.9-1.6-1.4-2.1-.6-.2-1.2-.2-1.4 0 0 .2-.1.4-.3.4-.2 0-.4-.2-.3-.4.1-.2.4-.3.3-.7-.1-.4-.6-.5-1-.5-.5-.7-1-1.7-1.3-2.1-.3-.4-.1-.6.1-.8.4-.3 1.3.2 3 .3.6 0 1.4.1 2.1.1.2 2 1 3.9 3.8 4.6 1.4.3 2.8 1.3 3.3 2.6-5.6-.1-6.5 2.1-6.5 4.1 0 2.3 2 2.2 2 4 0 1.5-4.7 2.2-6.1 2.4-1.2.2-1.9.4-2.5 1-.6.6-1.2 1.1-2.2 2.2 0 0 .4.1.9.1l.8-1c.2-.3.4-.6.6-.6.2 0 .1.3-.1.7l-.7 1.1c2.8.2 2.9-.8 2.9-1.3 0-.4-.7-.7-.3-1 .4-.3.7-.1 1 .3.3.4.4.7 1.2.4 0 0 6-2.5 6.8-2.8.7-.3.5-.6.1-.9-.4-.4-.5-1-.5-1.6 0-1.8 1.1-2.4 3-2.3 0 .3-.1.6-.1.9 0 2.8 4.3 5.6 5.4 5.6.5 0 1.2-.4 1.3 1.3 0 1.3.3 2.1.1 3.6-.2 1.5-.6 1.7-1.5 2.3-.9.6-1.7 2.5-2.1 2.9.4.3.8.3 1.1-.6.3-.8.6-1.3.9-1.5-.3.9-.6 2.1-.7 2.5 1.1.2 2.9-.8 2.9-1.6s-.6-.7-.6-1.2c0-.2.3-.5.6-.5.4 0 .8.4.8.5.5-.3.8-.7.8-1.9V-48c0 .1.1.1.1.2.2.3.6.5 1 .6.4 0 .8-.1 1.2-.3.4-.3.7-.7.8-1.2v-.3c0-.2-.1-.5-.2-.7-.2-.3-.5-.5-.8-.5-.4-.1-1 0-1.4.3-.4.3-.7.6-.8 1.1-.1-1.5-.2-3-.2-3.6.1-.9.1-1.3-.2-1.4-.3-.1-.6.4-1 .4s-1.7-1.2-1.7-2.4 1.3-2.8 1.3-4.5c0-.5.3-.8.5-.3.3.6.6 1.3 1.2 2-.4 2.1 2 4.2 3.9 2.6-.9.1-1.6-.7-2-1.5h.8c.7.8 2.8.8 3.3-1.3-.4.4-1.1.8-1.7.7.8-.6 1.2-1.6 1.2-2.7 0-5.3-6.5-6-6.5-10.8 0-1.8 1.6-3 2.7-3 .4 0 .7.1 1 .3-.4.4-.6 1.1-.6 1.9.2 3.8 6.4 3.7 6.5 5.5.8-3.1-3.9-2.2-4.1-6"/>
    </g>
  </g>
</svg>