<svg xmlns="http://www.w3.org/2000/svg" viewBox="0 0 873 272">
  <g fill="none" fill-rule="evenodd">
    <path fill="#000" fill-rule="nonzero" d="M374.15 49.65C373.672955 50.4644575 373.045092 51.1805602 372.3 51.76 371.56636 52.2539236 370.693541 52.4992945 369.81 52.46 368.787203 52.4252465 367.789725 52.1328825 366.91 51.61L363.39 49.71C361.952378 48.9498612 360.453848 48.310979 358.91 47.8 357.055227 47.2081046 355.116711 46.9210422 353.17 46.95 349.456667 46.95 346.693333 47.74 344.88 49.32 343.04544 50.9366662 342.04168 53.2971559 342.15 55.74 342.098666 57.3291921 342.689847 58.872032 343.79 60.02 345.028158 61.2735396 346.48999 62.2842732 348.1 63 350.07754 63.8961274 352.115954 64.651343 354.2 65.26 356.486667 65.9266667 358.82 66.69 361.2 67.55 363.59184 68.4075584 365.929465 69.4093977 368.2 70.55 370.453251 71.6596218 372.512984 73.1250709 374.3 74.89 376.135707 76.7332882 377.599048 78.9130208 378.61 81.31 379.774346 84.2059303 380.332508 87.3098548 380.25 90.43 380.279717 94.2202881 379.583871 97.9812511 378.2 101.51 376.854651 104.89829 374.81021 107.964951 372.2 110.51 369.446027 113.153009 366.173766 115.196043 362.59 116.51 358.429052 118.037379 354.021818 118.783218 349.59 118.71 346.863006 118.703344 344.143267 118.42869 341.47 117.89 338.741359 117.349063 336.064692 116.572829 333.47 115.57 330.947703 114.601113 328.515081 113.413243 326.2 112.02 324.048361 110.742789 322.060376 109.208146 320.28 107.45L326.14 98.19C326.585422 97.472164 327.213496 96.885501 327.96 96.49 328.7305 96.0611653 329.598205 95.8373525 330.48 95.84 331.744557 95.8664487 332.975618 96.2513721 334.03 96.95 335.223333 97.69 336.556667 98.51 338.03 99.41 339.684547 100.380546 341.421236 101.203716 343.22 101.87 345.440372 102.656175 347.785135 103.032286 350.14 102.98 353.733333 102.98 356.526667 102.19 358.52 100.61 360.513333 99.03 361.513333 96.52 361.52 93.08 361.598623 91.3091141 361.013836 89.5725834 359.88 88.21 358.679168 86.8804989 357.210237 85.8205513 355.57 85.1 353.608685 84.2136912 351.578692 83.487977 349.5 82.93 347.233333 82.3033333 344.9 81.61 342.5 80.85 340.100417 80.0876468 337.760668 79.1484049 335.5 78.04 333.239829 76.9314228 331.186691 75.4431516 329.43 73.64 327.559038 71.6796772 326.094267 69.3686689 325.12 66.84 323.940845 63.6243424 323.384281 60.2136967 323.48 56.79 323.482812 53.5650321 324.139367 50.3741049 325.41 47.41 326.722568 44.3290313 328.660063 41.5538848 331.1 39.26 333.765929 36.7761905 336.891019 34.8365967 340.3 33.55 344.29244 32.0602646 348.529347 31.3343253 352.79 31.41 355.352674 31.4068686 357.911276 31.6142324 360.44 32.03 362.843535 32.4218931 365.206555 33.0310569 367.5 33.85 369.660731 34.6203717 371.748907 35.5807985 373.74 36.72 375.605528 37.7825465 377.346351 39.050429 378.93 40.5L374.15 49.65zM409.91 89.16L409.91 117.7 390.1 117.7 390.1 32.3 420.23 32.3C425.477261 32.1902785 430.708773 32.9125647 435.73 34.44 439.654573 35.6470233 443.287253 37.6523173 446.4 40.33 449.132872 42.7479955 451.251205 45.7815307 452.58 49.18 453.930056 52.6889496 454.608502 56.4204034 454.58 60.18 454.625748 64.1796975 453.930705 68.1533082 452.53 71.9 451.197626 75.4024742 449.047991 78.5360728 446.26 81.04 443.147812 83.7485523 439.502927 85.775381 435.56 86.99 430.595653 88.5110264 425.421106 89.2333701 420.23 89.13L409.91 89.13 409.91 89.16zM409.91 74.21L420.23 74.21C425.39 74.21 429.103333 72.98 431.37 70.52 433.636667 68.06 434.77 64.62 434.77 60.2 434.792172 58.3854242 434.49428 56.5811467 433.89 54.87 433.327199 53.3074362 432.413825 51.8946142 431.22 50.74 429.931762 49.5285655 428.391701 48.6168222 426.71 48.07 424.616307 47.4028109 422.426972 47.0852222 420.23 47.13L409.91 47.13 409.91 74.21zM534.41 117.7L519.05 117.7C517.54179 117.761951 516.053086 117.341611 514.8 116.5 513.718948 115.746027 512.906299 114.667164 512.48 113.42L507.48 98.53 475 98.53 470 113.42C468.953377 116.052514 466.382335 117.75857 463.55 117.7L448 117.7 481.06 32.3 501.34 32.3 534.41 117.7zM479.54 85.05L502.87 85.05 495 61.67 493.21 56.42C492.543333 54.42 491.876667 52.24 491.21 49.88 490.583333 52.2666667 489.94 54.4733333 489.28 56.5 488.62 58.5266667 487.993333 60.2866667 487.4 61.78L479.54 85.05zM595.2 95.6C595.681823 95.6010378 596.159495 95.6891191 596.61 95.86 597.120016 96.0630792 597.580416 96.3734231 597.96 96.77L605.81 105.04C602.443026 109.478234 597.994876 112.979602 592.89 115.21 587.069101 117.621005 580.808692 118.789297 574.51 118.64 568.531606 118.739448 562.59623 117.612951 557.07 115.33 552.110757 113.246804 547.654419 110.127027 544 106.18 540.350251 102.171765 537.547562 97.4677374 535.76 92.35 533.807304 86.7761252 532.836244 80.9057778 532.89 75 532.820684 68.9881629 533.935194 63.0214544 536.17 57.44 538.254151 52.2630797 541.374715 47.5669203 545.34 43.64 549.378131 39.7111868 554.176196 36.6485921 559.44 34.64 565.220181 32.4363437 571.364469 31.343875 577.55 31.42 580.590613 31.4045011 583.62533 31.6892151 586.61 32.27 589.323899 32.8004784 591.982167 33.5838975 594.55 34.61 596.93352 35.5668055 599.2122 36.7664634 601.35 38.19 603.349173 39.5174716 605.196867 41.0600106 606.86 42.79L600.18 51.79C599.737924 52.348535 599.227235 52.8491441 598.66 53.28 597.935034 53.7656854 597.07113 54.0009762 596.2 53.95 595.505542 53.9537318 594.820107 53.7926544 594.2 53.48 593.513712 53.1355063 592.846114 52.7549754 592.2 52.34L589.88 50.87C588.928267 50.2870854 587.92385 49.7949207 586.88 49.4 585.580867 48.908888 584.242848 48.5275527 582.88 48.26 581.093211 47.9252864 579.277734 47.7678557 577.46 47.79 574.080826 47.7489012 570.728904 48.3988678 567.61 49.7 564.690938 50.9332368 562.079136 52.793932 559.96 55.15 557.740894 57.6539437 556.041333 60.5737902 554.96 63.74 553.727761 67.3643328 553.122423 71.1722152 553.17 75 553.120695 78.9553305 553.739386 82.8906103 555 86.64 556.050494 89.7922445 557.704592 92.7098429 559.87 95.23 561.847972 97.4993685 564.298638 99.3083558 567.05 100.53 569.818848 101.749815 572.814432 102.370061 575.84 102.35 577.483669 102.35943 579.12648 102.272615 580.76 102.09 582.164595 101.931284 583.548771 101.626297 584.89 101.18 586.155087 100.751847 587.37175 100.192115 588.52 99.51 589.751972 98.7779344 590.916541 97.9379725 592 97 592.461004 96.601959 592.971986 96.2657867 593.52 96 594.044193 95.7459278 594.617555 95.6094132 595.2 95.6z"/>
    <polygon fill="#000" fill-rule="nonzero" points="669.82 32.3 669.82 47.54 634.76 47.54 634.76 67.47 661.61 67.47 661.61 82.12 634.76 82.12 634.76 102.46 669.81 102.46 669.81 117.7 614.81 117.7 614.81 32.3 669.81 32.3"/>
    <path fill="#000" fill-rule="nonzero" d="M326.56,234.7 L326.56,149.3 L358,149.3 C363.04921,149.210686 368.089378,149.761744 373,150.94 C376.649943,151.806291 380.094817,153.379246 383.14,155.57 C385.65849,157.43985 387.630148,159.950174 388.85,162.84 C390.076424,165.872443 390.684988,169.119251 390.64,172.39 C390.645852,174.267326 390.36943,176.134864 389.82,177.93 C389.256702,179.733771 388.383667,181.4257 387.24,182.93 C385.976187,184.581054 384.453102,186.016333 382.73,187.18 C380.673268,188.5607 378.448599,189.673034 376.11,190.49 C381.736667,191.856667 385.9,194.073333 388.6,197.14 C391.360113,200.439726 392.786844,204.652151 392.6,208.95 C392.629468,212.441957 391.909967,215.899651 390.49,219.09 C389.065476,222.243228 386.953973,225.038067 384.31,227.27 C381.350215,229.728738 377.935262,231.580627 374.26,232.72 C369.841401,234.10624 365.230542,234.781329 360.6,234.72 L326.56,234.72 L326.56,234.7 Z M346.37,185.23 L356.69,185.23 C358.673283,185.246813 360.654215,185.089543 362.61,184.76 C364.196119,184.511205 365.718123,183.954043 367.09,183.12 C368.318367,182.341015 369.294457,181.222506 369.9,179.9 C370.608014,178.274243 370.949428,176.512548 370.9,174.74 C370.949382,173.0183 370.692038,171.301547 370.14,169.67 C369.67965,168.388958 368.868885,167.262896 367.8,166.42 C366.615269,165.541228 365.248297,164.93976 363.8,164.66 C361.900686,164.28071 359.966628,164.103058 358.03,164.13 L346.37,164.13 L346.37,185.23 Z M346.37,198.48 L346.37,219.76 L360.37,219.76 C362.553661,219.830343 364.731185,219.491164 366.79,218.76 C368.273085,218.215261 369.608522,217.331818 370.69,216.18 C371.608721,215.157019 372.270341,213.929765 372.62,212.6 C372.96798,211.295013 373.146118,209.95058 373.15,208.6 C373.1686,207.169344 372.959314,205.744849 372.53,204.38 C372.133117,203.148653 371.402757,202.051381 370.42,201.21 C369.248703,200.259251 367.883378,199.576588 366.42,199.21 C364.391488,198.695224 362.302207,198.459717 360.21,198.51 L346.37,198.51 L346.37,198.48 Z"/>
    <polygon fill="#000" fill-rule="nonzero" points="458.44 149.3 458.44 164.54 423.39 164.54 423.39 184.47 450.24 184.47 450.24 199.12 423.39 199.12 423.39 219.46 458.44 219.46 458.44 234.7 403.44 234.7 403.44 149.3 458.44 149.3"/>
    <polygon fill="#000" fill-rule="nonzero" points="531.71 149.3 531.71 165 507.71 165 507.71 234.7 487.87 234.7 487.87 165 463.87 165 463.87 149.3 531.75 149.3"/>
    <path fill="#000" fill-rule="nonzero" d="M533.47,149.3 L550.12,149.3 C551.642071,149.243921 553.145217,149.651968 554.43,150.47 C555.540654,151.192941 556.345409,152.30037 556.69,153.58 L568.41,198.13 C568.803333,199.576667 569.193333,201.12 569.58,202.76 C569.980335,204.46003 570.274239,206.183376 570.46,207.92 C570.853333,206.086667 571.283333,204.356667 571.75,202.73 C572.216667,201.103333 572.666667,199.57 573.1,198.13 L586.93,153.58 C587.351465,152.368476 588.141788,151.319375 589.19,150.58 C590.398988,149.682317 591.874785,149.217388 593.38,149.26 L599.24,149.26 C600.7397,149.198359 602.222471,149.59609 603.49,150.4 C604.598379,151.151895 605.416851,152.259655 605.81,153.54 L619.53,198.09 C619.956667,199.456667 620.406667,200.913333 620.88,202.46 C621.353333,204.006667 621.763333,205.673333 622.11,207.46 C622.423333,205.74 622.756667,204.1 623.11,202.54 C623.463333,200.98 623.796667,199.513333 624.11,198.14 L635.83,153.59 C636.205573,152.362982 636.99329,151.303273 638.06,150.59 C639.288856,149.712331 640.770449,149.259427 642.28,149.3 L657.87,149.3 L631.48,234.7 L613.54,234.7 L597.48,181.77 C597.206667,180.95 596.923333,180.05 596.63,179.07 C596.336667,178.09 596.053333,177.066667 595.78,176 C595.506667,177.093333 595.223333,178.13 594.93,179.11 C594.636667,180.09 594.353333,180.99 594.08,181.81 L577.78,234.74 L559.85,234.74 L533.47,149.3 Z"/>
    <polygon fill="#000" fill-rule="nonzero" points="720.46 149.3 720.46 164.54 685.41 164.54 685.41 184.47 712.26 184.47 712.26 199.12 685.41 199.12 685.41 219.46 720.46 219.46 720.46 234.7 665.46 234.7 665.46 149.3 720.46 149.3"/>
    <polygon fill="#000" fill-rule="nonzero" points="786.7 149.3 786.7 164.54 751.64 164.54 751.64 184.47 778.49 184.47 778.49 199.12 751.64 199.12 751.64 219.46 786.7 219.46 786.7 234.7 731.7 234.7 731.7 149.3"/>
    <path fill="#000" fill-rule="nonzero" d="M810.55 149.41C811.095464 149.478042 811.627881 149.62631 812.13 149.85 812.624182 150.081994 813.079553 150.388948 813.48 150.76 814.006045 151.251943 814.49723 151.779884 814.95 152.34L855.51 203.63C855.356667 201.99 855.24 200.396667 855.16 198.85 855.08 197.303333 855.026667 195.85 855 194.49L855 149.3 872.47 149.3 872.47 234.7 862.19 234.7C860.865317 234.738865 859.547135 234.500434 858.32 234 857.125966 233.395421 856.096502 232.510082 855.32 231.42L815 180.54C815.12 182.026667 815.216667 183.483333 815.29 184.91 815.363333 186.336667 815.403333 187.67 815.41 188.91L815.41 234.7 797.95 234.7 797.95 149.3 808.38 149.3C809.104939 149.290357 809.829752 149.327099 810.55 149.41zM149 .55L149 82.4C159.60396 83.5589258 169.852742 86.9025483 179.1 92.22 180.666526 84.0099321 184.049051 76.2540421 189 69.52 183.673312 63.0633111 183.839229 53.689986 189.391087 47.4258574 194.942945 41.1617287 204.228466 39.8710523 211.278264 44.3835656 218.328063 48.896079 221.044061 57.8688214 217.680224 65.5334829 214.316387 73.1981444 205.873821 77.2736593 197.78 75.14 192.654063 81.8912639 189.503681 89.933393 188.68 98.37 210.350107 114.374135 223.129174 139.720707 223.11 166.66 223.11 209.9 190 245.6 149 250.92L149 271.46C220 265.77 273.73 207.3 273.73 136 273.73 64.7 220 6.24 149 .55z"/>
    <path d="M223.11 166.66C223.129174 139.720707 210.350107 114.374135 188.68 98.37 187.477748 110.308545 191.02739 122.240083 198.56 131.58L190.47 138.1C180.097904 125.232436 175.933522 108.44317 179.09 92.22 169.769317 87.0777263 159.559688 83.7457703 149 82.4 113.912469 77.867318 79.6862766 95.5423115 63.0691891 126.776146 46.4521015 158.009981 50.9192676 196.270693 74.2847866 222.83632 97.6503055 249.401947 135.027723 258.716793 168.127295 246.22286 201.226867 233.728928 223.126447 202.039086 223.11 166.66zM199 59.12L205.52 67.21C202.63843 69.5314445 200.049475 72.1942743 197.81 75.14 205.903821 77.2736593 214.346387 73.1981444 217.710224 65.5334829 221.074061 57.8688214 218.358063 48.896079 211.308264 44.3835656 204.258466 39.8710523 194.972945 41.1617287 189.421087 47.4258574 183.869229 53.689986 183.703312 63.0633111 189.03 69.52 191.891681 65.6385178 195.242739 62.1429305 199 59.12z"/>
    <path d="M190.48,138.1 L198.57,131.58 C182.717814,111.890231 185.814964,83.080468 205.49,67.21 L199,59.12 C174.883946,78.6023282 171.073748,113.922685 190.48,138.1 Z"/>
    <path fill="#000" fill-rule="nonzero" d="M125,0.55 L125,82.4 C114.426555,83.5544475 104.209534,86.898819 95,92.22 C93.4539435,84.0172468 90.0917834,76.2644609 85.16,69.53 C90.3803721,63.1299119 90.1708637,53.883668 84.665962,47.7266013 C79.1610603,41.5695347 69.9958272,40.3304127 63.0535935,44.8046505 C56.1113598,49.2788882 53.4541027,58.137551 56.787564,65.6941009 C60.1210254,73.2506509 68.455103,77.2606473 76.44,75.15 C81.5659365,81.9012639 84.7163186,89.943393 85.54,98.38 C63.8450587,114.370428 51.0274004,139.708868 51,166.66 C51,209.9 82,245.6 125,250.92 L125,271.46 C54,265.77 0.27,207.3 0.27,136 C0.27,64.7 54,6.24 125,0.55 Z"/>
    <path d="M51.15 166.66C51.1308263 139.720707 63.9098929 114.374135 85.58 98.37 86.7822516 110.308545 83.23261 122.240083 75.7 131.58L83.79 138.1C94.1620965 125.232436 98.3264784 108.44317 95.17 92.22 104.490683 87.0777263 114.700312 83.7457703 125.26 82.4 160.347531 77.867318 194.573723 95.5423115 211.190811 126.776146 227.807898 158.009981 223.340732 196.270693 199.975213 222.83632 176.609694 249.401947 139.232277 258.716793 106.132705 246.22286 73.0331331 233.728928 51.1335532 202.039086 51.15 166.66zM75.29 59.12L68.77 67.21C71.6515696 69.5314445 74.2405252 72.1942743 76.48 75.14 68.3861793 77.2736593 59.9436128 73.1981444 56.579776 65.5334829 53.2159391 57.8688214 55.9319372 48.896079 62.9817356 44.3835656 70.0315341 39.8710523 79.3170554 41.1617287 84.8689134 47.4258574 90.4207713 53.689986 90.5866878 63.0633111 85.26 69.52 82.3983193 65.6385178 79.0472611 62.1429305 75.29 59.12z"/>
    <path d="M83.78,138.1 L75.69,131.58 C91.5421864,111.890231 88.4450362,83.080468 68.77,67.21 L75.29,59.12 C99.3965747,78.611241 103.193246,113.930571 83.78,138.1 Z"/>
  </g>
</svg>
