<?xml version="1.0" encoding="utf-8"?>
<!-- Generator: Adobe Illustrator 20.0.0, SVG Export Plug-In . SVG Version: 6.00 Build 0)  -->
<!DOCTYPE svg PUBLIC "-//W3C//DTD SVG 1.1//EN" "http://www.w3.org/Graphics/SVG/1.1/DTD/svg11.dtd">
<svg version="1.1" id="Layer_1" xmlns="http://www.w3.org/2000/svg" xmlns:xlink="http://www.w3.org/1999/xlink" x="0px" y="0px"
	 viewBox="0 0 174 42.1" style="enable-background:new 0 0 174 42.1;" xml:space="preserve">
<style type="text/css">
	.st0{fill:#41414E;}
	.st1{fill:#F1BF46;}
</style>
<g>
	<path class="st0" d="M64.6,12c-0.3-0.2-0.6-0.3-0.9-0.4s-0.8-0.1-1.3-0.1c-0.6,0-1.1,0.1-1.4,0.4c-0.3,0.3-0.5,0.6-0.5,1.1
		c0,0.4,0.1,0.8,0.4,1.2c0.3,0.3,0.8,0.5,1.5,0.5c0.5,0,1-0.1,1.4-0.3c0.4-0.2,0.7-0.5,0.9-0.8V12z M64.6,17.2v-0.8
		c-0.3,0.3-0.7,0.6-1.2,0.8c-0.5,0.2-1,0.3-1.6,0.3c-0.6,0-1.1-0.1-1.7-0.3c-0.5-0.2-1-0.4-1.5-0.8c-0.4-0.4-0.8-0.8-1-1.4
		c-0.3-0.5-0.4-1.2-0.4-1.9c0-0.7,0.1-1.3,0.4-1.8s0.6-0.9,1.1-1.3c0.5-0.3,1-0.6,1.6-0.8s1.3-0.3,2-0.3c0.6,0,1,0.1,1.4,0.2
		c0.4,0.1,0.7,0.2,1,0.3V8.9c0-0.4-0.1-0.8-0.4-1.1s-0.7-0.5-1.3-0.5c-0.4,0-0.7,0-1,0c-0.3,0-0.6,0.1-0.8,0.1
		c-0.3,0.1-0.5,0.1-0.8,0.2C60,7.8,59.8,8,59.5,8.1l-1.2-2.3c0.4-0.2,0.7-0.4,1-0.5C59.6,5.2,60,5,60.3,4.9c0.4-0.1,0.8-0.2,1.2-0.2
		c0.4-0.1,0.9-0.1,1.4-0.1c0.8,0,1.4,0.1,2,0.3c0.6,0.2,1.1,0.5,1.6,0.8c0.4,0.4,0.8,0.8,1,1.4c0.2,0.5,0.4,1.2,0.4,1.8v8.3H64.6z"
		/>
	<path class="st0" d="M80.2,15.8c-0.3,0.3-0.7,0.6-1.1,0.9c-0.4,0.2-0.8,0.4-1.3,0.6c-0.5,0.1-1,0.2-1.7,0.2c-0.8,0-1.5-0.2-2.3-0.5
		c-0.7-0.3-1.3-0.8-1.8-1.3c-0.5-0.6-0.9-1.2-1.2-2c-0.3-0.8-0.4-1.7-0.4-2.6c0-0.9,0.1-1.8,0.4-2.6c0.3-0.8,0.7-1.5,1.2-2
		c0.5-0.6,1.1-1,1.9-1.3c0.7-0.3,1.5-0.5,2.4-0.5c1.2,0,2.2,0.3,2.9,0.8c0.8,0.5,1.4,1.2,1.9,1.9L79,9.5c-0.4-0.5-0.8-0.9-1.2-1.3
		c-0.4-0.3-1-0.5-1.6-0.5c-0.8,0-1.4,0.3-1.9,0.9c-0.5,0.6-0.7,1.4-0.7,2.4c0,1,0.2,1.8,0.7,2.4c0.5,0.6,1.1,0.9,1.9,0.9
		c0.6,0,1.2-0.1,1.6-0.4c0.4-0.3,0.9-0.7,1.3-1.2l2.1,1.9C80.9,15.1,80.5,15.5,80.2,15.8"/>
	<path class="st0" d="M91.1,17.2v-6.7c0-1.1-0.2-1.8-0.5-2.3c-0.4-0.4-0.9-0.6-1.5-0.6c-0.7,0-1.2,0.2-1.6,0.6
		c-0.4,0.4-0.6,1.1-0.6,2.2v6.7h-3.2V1.7l3.2-1.6v5.6c0.3-0.3,0.7-0.6,1.2-0.8c0.5-0.2,1.1-0.3,1.7-0.3c1.6,0,2.7,0.5,3.4,1.5
		c0.7,1,1.1,2.4,1.1,4.1v6.9H91.1z"/>
	<path class="st0" d="M97,4.9h3.2v12.3H97V4.9z M100.4,2c0,0.5-0.2,0.9-0.6,1.3c-0.4,0.4-0.8,0.6-1.3,0.6c-0.5,0-0.9-0.2-1.3-0.6
		C96.9,3,96.7,2.5,96.7,2s0.2-0.9,0.6-1.3c0.4-0.4,0.8-0.6,1.3-0.6c0.5,0,0.9,0.2,1.3,0.6C100.3,1.1,100.4,1.5,100.4,2"/>
	<path class="st0" d="M110.6,9.6c0-0.3-0.1-0.6-0.2-0.8c-0.1-0.3-0.2-0.5-0.4-0.7c-0.2-0.2-0.4-0.4-0.7-0.5
		c-0.3-0.1-0.6-0.2-0.9-0.2c-0.6,0-1.1,0.2-1.4,0.6s-0.5,0.9-0.6,1.6H110.6z M113.7,11c0,0.2,0,0.4,0,0.6c0,0.2,0,0.3,0,0.4h-7.4
		c0,0.4,0.1,0.8,0.3,1.1c0.2,0.3,0.4,0.5,0.6,0.7c0.2,0.2,0.5,0.3,0.8,0.4c0.3,0.1,0.6,0.1,0.9,0.1c0.5,0,0.9-0.1,1.2-0.2
		c0.4-0.2,0.7-0.4,0.9-0.6l2.3,1.9c-0.5,0.6-1.2,1.1-2,1.5c-0.8,0.3-1.6,0.5-2.4,0.5c-0.9,0-1.7-0.2-2.4-0.5
		c-0.7-0.3-1.3-0.7-1.8-1.3c-0.5-0.6-0.9-1.2-1.2-2c-0.3-0.8-0.4-1.7-0.4-2.6c0-0.9,0.1-1.8,0.4-2.6c0.3-0.8,0.7-1.5,1.2-2
		c0.5-0.6,1.1-1,1.7-1.3c0.7-0.3,1.4-0.5,2.2-0.5c0.8,0,1.5,0.2,2.2,0.5c0.6,0.3,1.2,0.8,1.6,1.4c0.4,0.6,0.8,1.3,1,2.1
		C113.6,9.3,113.7,10.2,113.7,11"/>
	<path class="st0" d="M122.4,17.2h-3.3l-4.4-12.3h3.6l1.8,5.7c0.2,0.5,0.3,1,0.4,1.5c0.1,0.5,0.3,0.9,0.3,1.2
		c0.1-0.3,0.2-0.7,0.3-1.2c0.1-0.5,0.3-1,0.4-1.5l1.8-5.7h3.5L122.4,17.2z"/>
	<path class="st0" d="M128.6,4.9h3.2v12.3h-3.2V4.9z M132.1,2c0,0.5-0.2,0.9-0.6,1.3c-0.4,0.4-0.8,0.6-1.3,0.6
		c-0.5,0-0.9-0.2-1.3-0.6c-0.4-0.4-0.6-0.8-0.6-1.3s0.2-0.9,0.6-1.3c0.4-0.4,0.8-0.6,1.3-0.6c0.5,0,0.9,0.2,1.3,0.6
		C131.9,1.1,132.1,1.5,132.1,2"/>
	<path class="st0" d="M142.6,17.2v-6.7c0-1.1-0.2-1.8-0.5-2.3c-0.4-0.4-0.9-0.6-1.5-0.6c-0.7,0-1.2,0.2-1.6,0.6
		c-0.4,0.4-0.6,1.1-0.6,2.2v6.7h-3.2V4.9h3.2v0.8c0.3-0.3,0.7-0.6,1.2-0.8c0.5-0.2,1.1-0.3,1.7-0.3c1.6,0,2.7,0.5,3.4,1.5
		c0.7,1,1.1,2.4,1.1,4.1v6.9H142.6z"/>
	<path class="st0" d="M155.7,8.7c-0.5-0.7-1.2-1.1-2.2-1.1c-1.3,0-1.9,1-1.9,3.1c0,1.3,0.2,2.2,0.6,2.7s0.9,0.8,1.5,0.8
		c0.5,0,0.9-0.1,1.2-0.3c0.3-0.2,0.6-0.4,0.8-0.8V8.7z M158.9,15.1c0,1-0.1,1.9-0.2,2.7s-0.4,1.4-0.8,2c-0.4,0.5-0.9,1-1.6,1.3
		c-0.7,0.3-1.6,0.5-2.7,0.7l-1.1-2.4c0.6-0.1,1.1-0.2,1.6-0.3s0.7-0.3,1-0.5s0.4-0.5,0.5-0.8c0.1-0.3,0.1-0.7,0.1-1.2
		c-0.3,0.3-0.7,0.5-1.1,0.7c-0.4,0.2-0.9,0.3-1.5,0.3c-0.7,0-1.3-0.1-1.9-0.4c-0.6-0.3-1.1-0.6-1.5-1.2c-0.4-0.5-0.8-1.2-1-2
		c-0.3-0.8-0.4-1.8-0.4-3c0-0.9,0.1-1.8,0.3-2.5s0.5-1.4,0.9-2c0.4-0.6,0.9-1,1.5-1.3c0.6-0.3,1.3-0.5,2-0.5c0.5,0,1,0.1,1.5,0.3
		c0.4,0.2,0.8,0.4,1.1,0.7V4.9h3.2V15.1z"/>
	<path class="st0" d="M99.6,40.4c-0.3,0.3-0.7,0.6-1.1,0.9c-0.4,0.2-0.8,0.4-1.3,0.6c-0.5,0.1-1,0.2-1.7,0.2c-0.8,0-1.5-0.2-2.3-0.5
		c-0.7-0.3-1.3-0.8-1.8-1.3c-0.5-0.6-0.9-1.2-1.2-2c-0.3-0.8-0.4-1.7-0.4-2.6s0.1-1.8,0.4-2.6c0.3-0.8,0.7-1.5,1.2-2
		c0.5-0.6,1.1-1,1.9-1.3c0.7-0.3,1.5-0.5,2.4-0.5c1.2,0,2.2,0.3,2.9,0.8c0.8,0.5,1.4,1.2,1.9,1.9L98.4,34c-0.4-0.5-0.8-0.9-1.2-1.3
		c-0.4-0.3-1-0.5-1.6-0.5c-0.8,0-1.4,0.3-1.9,0.9c-0.5,0.6-0.7,1.4-0.7,2.4c0,1,0.2,1.8,0.7,2.4c0.5,0.6,1.1,0.9,1.9,0.9
		c0.6,0,1.2-0.1,1.6-0.4c0.4-0.3,0.9-0.7,1.3-1.2l2.1,1.9C100.2,39.7,99.9,40,99.6,40.4"/>
	<path class="st0" d="M109.9,41.5v-6.7c0-1.1-0.2-1.8-0.5-2.3c-0.4-0.4-0.9-0.6-1.5-0.6c-0.7,0-1.2,0.2-1.6,0.6
		c-0.4,0.4-0.6,1.1-0.6,2.2v6.7h-3.2V26l3.2-1.6V30c0.3-0.3,0.7-0.6,1.2-0.8c0.5-0.2,1.1-0.3,1.7-0.3c1.6,0,2.7,0.5,3.4,1.5
		c0.7,1,1.1,2.4,1.1,4.1v6.9H109.9z"/>
	<path class="st0" d="M116.3,29.2h3.2v12.3h-3.2V29.2z M119.7,26.3c0,0.5-0.2,0.9-0.6,1.3c-0.4,0.4-0.8,0.6-1.3,0.6
		c-0.5,0-0.9-0.2-1.3-0.6c-0.4-0.4-0.6-0.8-0.6-1.3s0.2-0.9,0.6-1.3c0.4-0.4,0.8-0.6,1.3-0.6c0.5,0,0.9,0.2,1.3,0.6
		C119.6,25.4,119.7,25.8,119.7,26.3"/>
	<polygon class="st0" points="123.5,41.5 123.5,26 126.7,24.4 126.7,41.5 	"/>
	<path class="st0" d="M136.8,33c-0.5-0.7-1.2-1.1-2.2-1.1c-1.3,0-1.9,1-1.9,3.1c0,1.3,0.2,2.2,0.6,2.7s0.9,0.8,1.5,0.8
		c0.5,0,0.9-0.1,1.2-0.3c0.3-0.2,0.6-0.4,0.8-0.8V33z M136.8,41.5v-0.8c-0.3,0.3-0.7,0.5-1.1,0.7c-0.4,0.2-0.9,0.3-1.5,0.3
		c-0.7,0-1.3-0.1-1.9-0.4s-1.1-0.6-1.5-1.2c-0.4-0.5-0.8-1.2-1-2s-0.4-1.8-0.4-3c0-0.9,0.1-1.8,0.3-2.5c0.2-0.8,0.5-1.4,0.9-2
		c0.4-0.6,0.9-1,1.5-1.3c0.6-0.3,1.3-0.5,2-0.5c0.5,0,1,0.1,1.5,0.3c0.4,0.2,0.8,0.4,1.1,0.7V26l3.2-1.6v17.1H136.8z"/>
	<path class="st0" d="M149.9,33c-0.3-0.2-0.6-0.4-0.9-0.6c-0.3-0.1-0.6-0.2-1-0.2c-0.3,0-0.6,0-0.9,0.1c-0.3,0.1-0.5,0.2-0.7,0.4
		c-0.2,0.2-0.3,0.5-0.4,0.8c-0.1,0.3-0.2,0.8-0.2,1.3v6.7h-3.2V29.2h3.2V30c0.3-0.3,0.6-0.6,1-0.8c0.4-0.2,0.9-0.3,1.5-0.3
		c0.5,0,1,0.1,1.4,0.3c0.4,0.2,0.7,0.4,0.9,0.6L149.9,33z"/>
	<path class="st0" d="M158.7,33.9c0-0.3-0.1-0.6-0.2-0.8c-0.1-0.3-0.2-0.5-0.4-0.7c-0.2-0.2-0.4-0.4-0.7-0.5
		c-0.3-0.1-0.6-0.2-0.9-0.2c-0.6,0-1.1,0.2-1.4,0.6c-0.3,0.4-0.6,0.9-0.6,1.6H158.7z M161.8,35.3c0,0.2,0,0.4,0,0.6
		c0,0.2,0,0.3,0,0.4h-7.4c0,0.4,0.1,0.8,0.3,1.1c0.2,0.3,0.4,0.5,0.6,0.7c0.2,0.2,0.5,0.3,0.8,0.4c0.3,0.1,0.6,0.1,0.9,0.1
		c0.5,0,0.9-0.1,1.2-0.2c0.4-0.2,0.7-0.4,0.9-0.6l2.3,1.9c-0.5,0.6-1.2,1.1-2,1.5c-0.8,0.3-1.6,0.5-2.5,0.5c-0.9,0-1.7-0.2-2.4-0.5
		c-0.7-0.3-1.3-0.7-1.8-1.3c-0.5-0.6-0.9-1.2-1.2-2c-0.3-0.8-0.4-1.7-0.4-2.6c0-0.9,0.1-1.8,0.4-2.6c0.3-0.8,0.7-1.5,1.2-2
		c0.5-0.6,1.1-1,1.7-1.3c0.7-0.3,1.4-0.5,2.2-0.5c0.8,0,1.5,0.2,2.2,0.5c0.6,0.3,1.2,0.8,1.6,1.4c0.4,0.6,0.8,1.3,1,2.1
		C161.7,33.6,161.8,34.4,161.8,35.3"/>
	<path class="st0" d="M170.7,41.6V35c0-1.1-0.2-1.8-0.5-2.3c-0.4-0.4-0.9-0.6-1.5-0.6c-0.7,0-1.2,0.2-1.6,0.6
		c-0.4,0.4-0.6,1.1-0.6,2.2v6.7h-3.2V29.3h3.2v0.8c0.3-0.3,0.7-0.6,1.2-0.8c0.5-0.2,1.1-0.3,1.7-0.3c1.6,0,2.7,0.5,3.4,1.5
		c0.7,1,1.1,2.4,1.1,4.1v6.9H170.7z"/>
	<path class="st0" d="M61.4,26.4c-0.4,0-0.7,0.1-0.9,0.3c-0.2,0.2-0.4,0.5-0.4,1v1.8h2.4v1.5h-2.4v10.8h-1.8V31.1h-1.7v-1.5h1.7
		v-1.7c0-1.1,0.3-1.9,0.8-2.3c0.5-0.5,1.3-0.7,2.1-0.7c0.4,0,0.7,0,0.9,0c0.2,0,0.4,0.1,0.7,0.2v1.7C62.4,26.5,61.9,26.4,61.4,26.4"
		/>
	<path class="st0" d="M73.4,35.7c0-1.6-0.3-2.9-1-3.7c-0.7-0.8-1.5-1.2-2.6-1.2c-1.1,0-1.9,0.4-2.6,1.2c-0.6,0.8-1,2-1,3.7
		s0.3,2.9,1,3.7c0.6,0.8,1.5,1.2,2.6,1.2c1.1,0,1.9-0.4,2.6-1.2C73,38.5,73.4,37.3,73.4,35.7 M75.1,35.6c0,1-0.1,2-0.4,2.8
		c-0.3,0.8-0.7,1.5-1.2,2c-0.5,0.6-1.1,1-1.7,1.3c-0.7,0.3-1.4,0.4-2.1,0.4c-0.8,0-1.5-0.1-2.1-0.4c-0.7-0.3-1.2-0.7-1.7-1.2
		c-0.5-0.5-0.8-1.2-1.1-2c-0.3-0.8-0.4-1.7-0.4-2.8c0-1,0.1-2,0.4-2.8c0.3-0.8,0.7-1.5,1.2-2c0.5-0.5,1.1-0.9,1.7-1.2
		c0.7-0.3,1.4-0.4,2.1-0.4c0.8,0,1.5,0.1,2.1,0.4c0.6,0.3,1.2,0.7,1.7,1.2c0.5,0.5,0.8,1.2,1.1,2C75,33.7,75.1,34.6,75.1,35.6"/>
	<path class="st0" d="M84,31.4c-0.3-0.1-0.5-0.3-0.8-0.3c-0.3-0.1-0.6-0.1-1-0.1c-0.9,0-1.5,0.3-2,1c-0.5,0.7-0.7,1.6-0.7,2.7v7.2
		h-1.8V29.6h1.8v1.5c0.3-0.5,0.7-0.9,1.2-1.3c0.5-0.3,1.1-0.5,1.8-0.5c0.5,0,0.8,0,1.1,0.1s0.6,0.1,0.8,0.2L84,31.4z"/>
	<path class="st1" d="M13.3,38.2c-5.8,0-10.5-4.7-10.5-10.5c0-5.8,4.7-10.5,10.5-10.5c5.8,0,10.5,4.7,10.5,10.5
		C23.8,33.5,19.1,38.2,13.3,38.2 M43.1,36c-3.8,0-6.2-1.5-8.3-4.2c-2.4-3.1-4-7.2-6.4-12.1C24.5,11.5,19.2,2.4,6.9,0H0v6
		c6.5,0,11,1.8,14.4,4.7c-0.4,0-0.8,0-1.2,0c-5.3,0-10,2.4-13.2,6.2v21.7c1.1,1.4,2.5,2.6,4,3.5h18.4c2.8-1.8,5.1-4.4,6.4-7.4
		c0.3,0.4,0.5,0.7,0.8,1.1c2.3,3,5.3,5.4,9.3,6.4h4.3V36H43.1z"/>
	<path class="st0" d="M4,42.1H0v-3.5C1.1,40,2.5,41.2,4,42.1"/>
	<path class="st0" d="M14.4,10.7c-0.4,0-0.8,0-1.2,0c-5.3,0-10,2.4-13.2,6.2V6C6.5,6,11,7.8,14.4,10.7"/>
	<path class="st0" d="M23.8,27.7c0,5.8-4.7,10.5-10.5,10.5c-5.8,0-10.5-4.7-10.5-10.5c0-5.8,4.7-10.5,10.5-10.5
		C19.1,17.3,23.8,22,23.8,27.7"/>
	<path class="st0" d="M38.9,42.1H22.4c2.8-1.8,5.1-4.4,6.4-7.4c0.3,0.4,0.5,0.7,0.8,1.1C32,38.8,34.9,41.2,38.9,42.1"/>
	<path class="st0" d="M43.3,0v36h-0.1c-3.8,0-6.2-1.5-8.3-4.2c-2.4-3.1-4-7.2-6.4-12.1C24.5,11.5,19.2,2.4,6.9,0H43.3z"/>
</g>
</svg>
