<svg xmlns="http://www.w3.org/2000/svg" fill="none" viewBox="0.59 0.57 235.55 42.1">
<path d="M79.4113 32.8701H73.4719V30.6932C71.7122 32.4347 69.2924 33.5231 66.4328 33.5231C61.5933 33.5231 58.5137 30.6932 58.5137 26.7749C58.5137 22.6389 61.8133 20.0267 67.3127 20.0267H73.032V18.9383C73.032 16.3261 71.4922 14.8024 68.6325 14.8024C66.2128 14.8024 64.6729 15.6731 62.4732 17.8499L59.1736 13.9316C61.8134 10.8841 65.113 9.14258 69.2924 9.14258C75.2317 9.14258 79.1913 12.6255 79.1913 18.9383V32.8701H79.4113ZM73.032 23.945H67.9726C65.9928 23.945 64.673 24.8158 64.673 26.3396C64.673 27.8633 65.9928 28.7341 67.9726 28.7341C70.8322 28.7341 72.8121 26.7749 72.8121 24.1627V23.945H73.032Z" fill="black"/>
<path d="M89.1879 23.3266C89.8743 26.2065 92.3913 27.9787 96.0524 27.9787C98.3404 27.9787 100.628 27.0926 102.688 25.5419L105.433 29.9725C102.459 32.1878 99.2556 33.5169 95.8236 33.5169C88.2726 33.7385 82.5523 27.9787 82.5523 21.3328C82.3235 14.687 88.2726 8.92723 95.1372 9.14876C101.772 9.14876 106.578 13.8009 106.578 20.0036C106.578 21.1113 106.349 22.2189 106.121 23.5482H89.1879V23.3266ZM99.942 18.6745C99.942 15.7946 97.654 14.0224 94.6794 14.0224C91.9336 14.0224 89.6455 15.7946 88.9591 18.6745H99.942Z" fill="black"/>
<path d="M133.745 9.59563V30.8874C133.745 38.5887 128.803 42.6658 121.037 42.6658C116.33 42.6658 112.33 41.0803 108.8 38.1357L112.33 33.6055C115.153 35.6441 117.271 36.7766 120.331 36.7766C124.332 36.7766 126.921 34.9645 126.921 31.1139V29.7549C125.038 31.5669 122.449 32.6995 119.389 32.6995C112.565 32.6995 107.623 27.9428 107.623 20.921C107.623 13.8992 112.8 9.14258 119.389 9.14258C122.92 9.14258 125.744 10.5017 127.391 12.7668V9.82207H133.745V9.59563ZM120.801 14.8053C117.036 14.8053 114.447 17.0704 114.447 20.921C114.447 24.7717 117.271 27.2632 120.801 27.2632C124.097 27.2632 127.156 24.9982 127.156 20.921C126.921 16.8439 124.097 14.8053 120.801 14.8053Z" fill="black"/>
<path d="M137.924 9.14258H144.727V22.9131C144.727 25.6221 146.603 27.428 149.418 27.428C151.998 27.428 154.108 25.6221 154.108 22.9131V9.14258H160.911V22.4616C160.911 29.0082 155.985 33.5231 149.652 33.5231C143.085 33.5231 138.158 29.0082 138.158 22.4616V9.14258H137.924Z" fill="black"/>
<path d="M184.943 32.8701H179.163V30.6932C177.385 32.4347 174.939 33.5231 172.049 33.5231C167.158 33.5231 164.046 30.6932 164.046 26.7749C164.046 22.6389 167.38 20.0267 172.939 20.0267H178.718V18.9383C178.718 16.3261 177.162 14.8024 174.272 14.8024C171.827 14.8024 170.271 15.6731 168.047 17.8499L164.713 13.9316C167.38 10.8841 170.716 9.14258 174.939 9.14258C180.941 9.14258 184.943 12.6255 184.943 18.9383V32.8701ZM178.718 23.945H173.606C171.605 23.945 170.271 24.8158 170.271 26.3396C170.271 27.8633 171.605 28.7341 173.606 28.7341C176.495 28.7341 178.496 26.7749 178.496 24.1627V23.945H178.718Z" fill="black"/>
<path d="M211.065 33.5231H204.43V19.6239C204.43 16.8897 202.533 15.0668 199.69 15.0668C196.846 15.0668 194.95 16.8897 194.95 19.6239V33.5231H188.078V9.59833H194.239V11.8768C195.898 10.2819 198.505 9.14258 201.586 9.14258C207.274 9.14258 211.065 13.0161 211.065 18.7125V33.5231Z" fill="black"/>
<path d="M236.143 32.8701H230.074V30.6932C228.206 32.4347 225.639 33.5231 222.603 33.5231C217.468 33.5231 214.2 30.6932 214.2 26.7749C214.2 22.6389 217.701 20.0267 223.538 20.0267H229.607V18.9383C229.607 16.3261 227.973 14.8024 224.938 14.8024C222.37 14.8024 220.736 15.6731 218.402 17.8499L214.9 13.9316C217.702 10.8841 221.203 9.14258 225.639 9.14258C231.941 9.14258 236.143 12.6255 236.143 18.9383V32.8701ZM229.373 23.945H224.005C221.903 23.945 220.503 24.8158 220.503 26.3396C220.503 27.8633 221.903 28.7341 224.005 28.7341C227.039 28.7341 229.14 26.7749 229.14 24.1627V23.945H229.373Z" fill="black"/>
<path d="M34.0726 9.93755L24.7845 0.972192C24.2283 0.435265 23.3264 0.435265 22.7702 0.972192L13.482 9.93755C12.9258 10.4745 12.9258 11.345 13.482 11.8819L22.7702 20.8473C23.3264 21.3842 24.2283 21.3842 24.7845 20.8473L34.0726 11.8819C34.6289 11.345 34.6289 10.4745 34.0726 9.93755Z" fill="#E22696"/>
<path d="M46.5472 21.9795L37.2591 13.0142C36.7029 12.4773 35.801 12.4773 35.2448 13.0142L25.9567 21.9795C25.4004 22.5165 25.4004 23.387 25.9567 23.9239L35.2448 32.8893C35.801 33.4262 36.7029 33.4262 37.2591 32.8893L46.5473 23.9239C47.1035 23.387 47.1035 22.5165 46.5472 21.9795Z" fill="#00C1AB"/>
<path d="M21.598 21.9795L12.3099 13.0142C11.7537 12.4773 10.8518 12.4773 10.2955 13.0142L1.00743 21.9795C0.451178 22.5165 0.451177 23.387 1.00743 23.9239L10.2955 32.8893C10.8518 33.4262 11.7537 33.4262 12.3099 32.8893L21.598 23.9239C22.1543 23.387 22.1543 22.5165 21.598 21.9795Z" fill="#9E39F7"/>
</svg>