<?xml version="1.0" encoding="utf-8"?>
<!-- Generator: Adobe Illustrator 19.0.0, SVG Export Plug-In . SVG Version: 6.00 Build 0)  -->
<svg version="1.1" id="layer" xmlns="http://www.w3.org/2000/svg" xmlns:xlink="http://www.w3.org/1999/xlink" x="0px" y="0px"
	 viewBox="-153 -46 652 652" style="enable-background:new -153 -46 652 652;" xml:space="preserve">
<style type="text/css">
	.st0{fill:#0090D4;}
</style>
<path class="st0" d="M473.2,369.9c-1.1,1.8-30.5,75.4-298.5,10.5c-167.4-40.5-216.6-24-301.5,2.3c7.1-3.8,86.8-77,288.6-52.6
	c184.6,22.4,295.6,12.8,311.4-33.4V369.9z M43.5,303.9c-5.8-16.5-11.3-31.7-16.6-45.7c-5.3-14-10.4-27.2-15.4-39.7
	c-5-12.5-9.9-24.4-14.8-35.7c-4.9-11.3-10-22.5-15.2-33.5h-26.8c-5.2,11-10.3,22.2-15.2,33.5c-4.9,11.3-9.8,23.2-14.8,35.7
	c-5,12.5-10.1,25.7-15.3,39.7c-5.2,14-10.7,29.2-16.5,45.7h29.2c2.1-5.9,4.2-11.9,6.4-18c2.2-6,4.3-12.2,6.4-18.4H0.2
	c2.1,6.2,4.2,12.4,6.5,18.3c2.2,5.9,4.4,12,6.5,18.1H43.5z M-32.4,179.2c3.3,7.6,7.1,17.1,11.6,28.6c4.5,11.5,9.1,23.8,13.8,37
	h-50.9c4.8-13.2,9.3-25.5,13.7-36.8C-39.8,196.7-35.8,187.1-32.4,179.2 M148.9,211.1H81.7v-61.8H53.6v154.6h28.1v-68.5h67.2v68.5
	H177V149.3h-28.1V211.1z M327,226.5c0-13.7-2.1-25.5-6.2-35.4c-4.2-9.9-10.1-18.1-17.7-24.5c-7.7-6.5-16.8-11.2-27.6-14.3
	c-10.7-3.1-22.5-4.6-35.5-4.6c-6.2,0-13.4,0.2-21.4,0.7c-8,0.4-15.6,1.5-22.7,3.1v150.1c7.1,1.6,14.6,2.7,22.5,3.2
	c7.9,0.5,14.9,0.8,21.2,0.8c13.1,0,25-1.6,35.8-4.8c10.8-3.2,20-8.1,27.7-14.7c7.7-6.6,13.6-14.9,17.7-24.8
	C324.9,251.5,327,239.9,327,226.5 M223.9,172.8c3.6-0.4,9.5-0.7,17.8-0.7c19,0,33.1,4.7,42.2,14c9.1,9.4,13.6,22.8,13.6,40.4
	c0,17.3-4.6,30.7-13.9,40.3c-9.3,9.6-23.4,14.4-42.3,14.4c-4.6,0-8.2,0-10.9-0.1c-2.7-0.1-4.8-0.2-6.5-0.3V172.8z M383.6,305.7
	c23.9,0,41.7-4,53.3-11.9c11.6-8,17.4-19.9,17.4-35.8c0-9.4-2.2-17.1-6.7-23.2c-4.5-6.1-11.4-10.7-20.7-13.8
	c6.2-3.1,11.1-7.3,14.6-12.5c3.5-5.2,5.2-11.5,5.2-18.7c0-7.9-1.6-14.5-4.9-19.9c-3.3-5.4-7.8-9.7-13.7-12.9
	c-5.9-3.3-12.8-5.6-20.9-7c-8-1.4-16.7-2.1-26.1-2.1c-3.4,0-7,0.1-10.8,0.2c-3.8,0.2-7.6,0.4-11.5,0.7c-3.9,0.3-7.7,0.7-11.4,1.2
	c-3.7,0.5-7.2,1.1-10.5,1.7v150.1c6.3,1.6,13.5,2.7,21.9,3.2C367.2,305.4,375.4,305.7,383.6,305.7 M364.7,171.6
	c2.4-0.3,5.2-0.5,8.6-0.7c3.3-0.2,7.2-0.2,11.5-0.2c10.1,0,18.3,1.6,24.7,4.7c6.3,3.1,9.5,8.4,9.5,15.8c0,7.9-3.1,13.4-9.1,16.4
	c-6.1,3.1-14.5,4.6-25.2,4.6h-19.9V171.6z M389.4,234.3c11.3,0,20.1,1.7,26.5,5.1c6.4,3.4,9.6,9.5,9.6,18.3c0,4.9-1.1,8.9-3.2,12.1
	c-2.2,3.1-5.1,5.6-8.7,7.5c-3.6,1.9-8,3.2-12.9,3.9c-5,0.7-10.4,1.1-16.2,1.1c-3,0-6.2-0.1-9.8-0.2c-3.6-0.2-6.9-0.4-10-0.7v-47.1
	H389.4z"/>
</svg>
