<svg xmlns="http://www.w3.org/2000/svg" xmlns:xlink="http://www.w3.org/1999/xlink" version="1.1" id="layer" x="0px" y="0px" style="enable-background:new 0 0 652 652;" xml:space="preserve" viewBox="26.9 296.9 600 58.4">
<path d="M64.8,335.4H43.2l-3.8,8.8c-0.9,2.2-1.4,3.8-1.4,4.9c0,0.9,0.4,1.6,1.2,2.2c0.8,0.6,2.6,1.1,5.3,1.3v1.5H26.9v-1.5  c2.3-0.4,3.8-0.9,4.5-1.6c1.4-1.3,3-4,4.7-8l19.7-46h1.4l19.5,46.5c1.6,3.7,3,6.2,4.3,7.3s3.1,1.7,5.3,1.9v1.5h-22v-1.5  c2.2-0.1,3.7-0.5,4.5-1.1s1.2-1.4,1.2-2.3c0-1.2-0.6-3.1-1.6-5.7L64.8,335.4z M63.7,332.3l-9.5-22.6l-9.7,22.6H63.7z M152,338.6  l1.4,0.3l-4.8,15.2h-43.3v-1.5h2.1c2.4,0,4.1-0.8,5.1-2.3c0.6-0.9,0.9-2.9,0.9-6.1v-36.1c0-3.5-0.4-5.7-1.2-6.6  c-1.1-1.2-2.7-1.8-4.8-1.8h-2.1v-1.5h25.3v1.5c-3,0-5,0.2-6.2,0.8c-1.2,0.6-2,1.3-2.5,2.2c-0.4,0.9-0.7,3-0.7,6.3v35.1  c0,2.3,0.2,3.8,0.7,4.7c0.3,0.6,0.8,1,1.5,1.3c0.7,0.3,2.8,0.4,6.4,0.4h4.1c4.3,0,7.3-0.3,9-0.9c1.7-0.6,3.3-1.8,4.7-3.4  C149.1,344.6,150.6,342.1,152,338.6z M221.5,338.6l1.4,0.3l-4.8,15.2h-43.3v-1.5h2.1c2.4,0,4.1-0.8,5.1-2.3c0.6-0.9,0.9-2.9,0.9-6.1  v-36.1c0-3.5-0.4-5.7-1.2-6.6c-1.1-1.2-2.7-1.8-4.8-1.8h-2.1v-1.5h25.3v1.5c-3,0-5,0.2-6.2,0.8s-2,1.3-2.5,2.2  c-0.4,0.9-0.7,3-0.7,6.3v35.1c0,2.3,0.2,3.8,0.7,4.7c0.3,0.6,0.8,1,1.5,1.3c0.7,0.3,2.8,0.4,6.4,0.4h4.1c4.3,0,7.3-0.3,9-0.9  c1.7-0.6,3.3-1.8,4.7-3.4C218.7,344.6,220.1,342.1,221.5,338.6z M281.4,296.9v19.3h-1.5c-0.5-3.7-1.4-6.7-2.7-8.9  c-1.3-2.2-3.1-3.9-5.5-5.2c-2.4-1.3-4.8-1.9-7.3-1.9c-2.9,0-5.2,0.9-7.1,2.6c-1.9,1.7-2.8,3.7-2.8,6c0,1.7,0.6,3.3,1.8,4.7  c1.7,2.1,5.8,4.8,12.2,8.2c5.2,2.8,8.8,5,10.7,6.4c1.9,1.5,3.4,3.3,4.4,5.3s1.5,4.2,1.5,6.4c0,4.2-1.6,7.9-4.9,10.9  c-3.3,3.1-7.5,4.6-12.7,4.6c-1.6,0-3.1-0.1-4.6-0.4c-0.9-0.1-2.6-0.6-5.3-1.5c-2.7-0.9-4.4-1.3-5.1-1.3c-0.7,0-1.2,0.2-1.6,0.6  c-0.4,0.4-0.7,1.3-0.9,2.6h-1.5v-19.2h1.5c0.7,4,1.7,7,2.9,9c1.2,2,3.1,3.6,5.5,5c2.5,1.3,5.2,2,8.2,2c3.4,0,6.1-0.9,8.1-2.7  c2-1.8,3-4,3-6.4c0-1.4-0.4-2.8-1.1-4.2c-0.8-1.4-1.9-2.7-3.5-3.9c-1.1-0.8-4-2.6-8.8-5.3c-4.8-2.7-8.2-4.8-10.2-6.4  c-2-1.6-3.6-3.4-4.6-5.3c-1-1.9-1.6-4-1.6-6.3c0-4,1.5-7.5,4.6-10.4c3.1-2.9,7-4.3,11.7-4.3c3,0,6.1,0.7,9.4,2.2  c1.5,0.7,2.6,1,3.3,1c0.7,0,1.3-0.2,1.8-0.6c0.5-0.4,0.8-1.3,1.1-2.6H281.4z M344.8,335.4h-21.6l-3.8,8.8c-0.9,2.2-1.4,3.8-1.4,4.9  c0,0.9,0.4,1.6,1.2,2.2c0.8,0.6,2.6,1.1,5.3,1.3v1.5h-17.6v-1.5c2.3-0.4,3.8-0.9,4.5-1.6c1.4-1.3,3-4,4.7-8l19.7-46h1.4l19.5,46.5  c1.6,3.7,3,6.2,4.3,7.3c1.3,1.1,3.1,1.7,5.3,1.9v1.5h-22v-1.5c2.2-0.1,3.7-0.5,4.5-1.1s1.2-1.4,1.2-2.3c0-1.2-0.6-3.1-1.6-5.7  L344.8,335.4z M343.6,332.3l-9.5-22.6l-9.7,22.6H343.6z M409.6,352.5v1.5h-23.9v-1.5h2c2.3,0,4-0.7,5-2c0.7-0.9,1-3,1-6.3v-36.1  c0-2.8-0.2-4.7-0.5-5.6c-0.3-0.7-0.8-1.3-1.7-1.8c-1.2-0.7-2.5-1-3.8-1h-2v-1.5h23.9v1.5h-2c-2.3,0-3.9,0.7-5,2c-0.7,0.9-1,3-1,6.3  v36.1c0,2.8,0.2,4.7,0.5,5.6c0.3,0.7,0.9,1.3,1.7,1.8c1.2,0.7,2.4,1,3.8,1H409.6z M431.7,298.2h15.2l34.2,41.9v-32.2  c0-3.4-0.4-5.6-1.2-6.4c-1-1.2-2.6-1.7-4.8-1.7h-1.9v-1.5h19.5v1.5h-2c-2.4,0-4,0.7-5,2.1c-0.6,0.9-0.9,2.9-0.9,6V355h-1.5l-36.8-45  v34.4c0,3.4,0.4,5.6,1.1,6.4c1,1.2,2.7,1.7,4.8,1.7h2v1.5h-19.5v-1.5h1.9c2.4,0,4.1-0.7,5.1-2.1c0.6-0.9,0.9-2.9,0.9-6v-38.9  c-1.6-1.9-2.8-3.1-3.7-3.8s-2.1-1.2-3.7-1.7c-0.8-0.2-2-0.4-3.6-0.4V298.2z M562.2,298.2l0.6,13.1h-1.6c-0.3-2.3-0.7-4-1.2-4.9  c-0.9-1.6-2-2.8-3.4-3.5s-3.3-1.1-5.6-1.1h-7.9v42.7c0,3.4,0.4,5.6,1.1,6.4c1,1.2,2.7,1.7,4.8,1.7h1.9v1.5h-23.7v-1.5h2  c2.4,0,4-0.7,5-2.1c0.6-0.9,0.9-2.9,0.9-6v-42.7h-6.7c-2.6,0-4.5,0.2-5.6,0.6c-1.4,0.5-2.7,1.5-3.7,3c-1,1.5-1.6,3.5-1.8,6h-1.6  l0.7-13.1H562.2z M623.2,296.9v19.3h-1.5c-0.5-3.7-1.4-6.7-2.7-8.9c-1.3-2.2-3.1-3.9-5.5-5.2c-2.4-1.3-4.8-1.9-7.3-1.9  c-2.9,0-5.2,0.9-7.1,2.6c-1.9,1.7-2.8,3.7-2.8,6c0,1.7,0.6,3.3,1.8,4.7c1.7,2.1,5.8,4.8,12.2,8.2c5.2,2.8,8.8,5,10.7,6.4  s3.4,3.3,4.4,5.3c1,2,1.5,4.2,1.5,6.4c0,4.2-1.6,7.9-4.9,10.9c-3.3,3.1-7.5,4.6-12.7,4.6c-1.6,0-3.1-0.1-4.6-0.4  c-0.9-0.1-2.6-0.6-5.3-1.5c-2.7-0.9-4.4-1.3-5.1-1.3c-0.7,0-1.2,0.2-1.6,0.6c-0.4,0.4-0.7,1.3-0.9,2.6h-1.5v-19.2h1.5  c0.7,4,1.7,7,2.9,9s3.1,3.6,5.5,5c2.5,1.3,5.2,2,8.2,2c3.4,0,6.1-0.9,8.1-2.7s3-4,3-6.4c0-1.4-0.4-2.8-1.1-4.2  c-0.8-1.4-1.9-2.7-3.5-3.9c-1.1-0.8-4-2.6-8.8-5.3c-4.8-2.7-8.2-4.8-10.2-6.4c-2-1.6-3.6-3.4-4.6-5.3c-1-1.9-1.6-4-1.6-6.3  c0-4,1.5-7.5,4.6-10.4c3.1-2.9,7-4.3,11.7-4.3c3,0,6.1,0.7,9.4,2.2c1.5,0.7,2.6,1,3.3,1c0.7,0,1.3-0.2,1.8-0.6  c0.5-0.4,0.8-1.3,1.1-2.6H623.2z"/>
</svg>