<?xml version="1.0" encoding="UTF-8"?>
<svg xmlns="http://www.w3.org/2000/svg" xmlns:xlink="http://www.w3.org/1999/xlink" width="280pt" height="168pt" viewBox="0 0 280 168" version="1.1">
<g id="surface1">
<path style=" stroke:none;fill-rule:nonzero;fill:rgb(6.698608%,69.398499%,30.599976%);fill-opacity:1;" d="M 105.136719 17.722656 L 96.761719 17.722656 C 96.335938 17.722656 96.152344 17.582031 96.152344 17.0625 L 96.152344 2.027344 C 96.152344 1.652344 96.335938 1.4375 96.714844 1.4375 L 98.59375 1.4375 C 99.023438 1.4375 99.1875 1.601563 99.1875 2.050781 L 99.1875 15.207031 L 105.136719 15.207031 C 105.542969 15.207031 105.707031 15.390625 105.707031 15.746094 L 105.707031 17.15625 C 105.707031 17.582031 105.492188 17.722656 105.136719 17.722656 "/>
<path style=" stroke:none;fill-rule:nonzero;fill:rgb(6.698608%,69.398499%,30.599976%);fill-opacity:1;" d="M 113.871094 10.546875 C 113.820313 9.320313 113.117188 8.195313 111.679688 8.195313 C 110.152344 8.195313 109.230469 9.417969 109.042969 10.808594 L 113.871094 10.808594 C 113.871094 10.753906 113.871094 10.59375 113.871094 10.546875 Z M 115.890625 12.660156 L 109 12.660156 C 109.1875 14.472656 110.503906 15.722656 112.359375 15.722656 C 113.351563 15.722656 114.390625 15.488281 115.253906 15.160156 C 115.351563 15.136719 115.421875 15.085938 115.519531 15.085938 C 115.679688 15.085938 115.800781 15.183594 115.84375 15.371094 L 116.175781 16.570313 C 116.199219 16.683594 116.222656 16.78125 116.222656 16.851563 C 116.222656 17.019531 116.128906 17.132813 115.84375 17.25 C 114.695313 17.765625 113.117188 18.007813 111.890625 18.007813 C 108.199219 18.007813 106.007813 15.652344 106.007813 11.980469 C 106.007813 8.449219 108.34375 6.003906 111.84375 6.003906 C 113.285156 6.003906 114.457031 6.546875 115.277344 7.410156 C 116.363281 8.546875 116.667969 10.03125 116.667969 11.628906 L 116.667969 11.980469 C 116.667969 12.546875 116.480469 12.660156 115.890625 12.660156 "/>
<path style=" stroke:none;fill-rule:nonzero;fill:rgb(6.698608%,69.398499%,30.599976%);fill-opacity:1;" d="M 126.128906 9.535156 C 125.660156 8.851563 124.695313 8.335938 123.800781 8.335938 C 122.367188 8.335938 121.140625 9.5625 121.140625 12.027344 C 121.140625 14.003906 121.894531 15.675781 123.632813 15.675781 C 124.789063 15.675781 125.777344 14.804688 126.128906 14.078125 Z M 129.539063 17.722656 L 128.410156 17.722656 C 127.1875 17.722656 126.652344 17.132813 126.488281 16.335938 L 126.4375 16.335938 C 125.847656 17.207031 124.3125 18.007813 123.023438 18.007813 C 119.707031 18.007813 118.199219 15.273438 118.199219 12.21875 C 118.199219 8.148438 120.648438 6.003906 123.28125 6.003906 C 124.527344 6.003906 125.703125 6.566406 126.292969 7.367188 L 126.34375 6.730469 C 126.359375 6.480469 126.550781 6.3125 126.839844 6.3125 L 128.480469 6.3125 C 128.789063 6.3125 128.976563 6.480469 128.976563 6.824219 L 128.976563 14.992188 C 128.976563 15.324219 129.023438 15.558594 129.117188 15.675781 C 129.191406 15.746094 129.277344 15.773438 129.398438 15.773438 L 129.59375 15.773438 C 129.867188 15.773438 130.011719 15.863281 130.011719 16.171875 L 130.011719 17.273438 C 130.011719 17.554688 129.824219 17.722656 129.539063 17.722656 "/>
<path style=" stroke:none;fill-rule:nonzero;fill:rgb(6.698608%,69.398499%,30.599976%);fill-opacity:1;" d="M 139.003906 9.417969 C 138.527344 8.785156 137.636719 8.261719 136.738281 8.261719 C 134.832031 8.261719 133.988281 10.050781 133.988281 11.980469 C 133.988281 13.910156 134.695313 15.699219 136.597656 15.699219 C 137.46875 15.699219 138.527344 15.113281 139.003906 14.527344 Z M 141.332031 17.722656 L 139.796875 17.722656 C 139.425781 17.722656 139.253906 17.535156 139.234375 17.25 L 139.191406 16.617188 C 138.527344 17.371094 137.214844 18.007813 135.984375 18.007813 C 132.574219 18.007813 131.019531 15.292969 131.019531 12.144531 C 131.019531 8.851563 132.859375 5.976563 136.179688 5.976563 C 137.230469 5.976563 138.335938 6.402344 139.003906 7.089844 L 139.003906 1.789063 C 139.003906 1.371094 139.113281 1.203125 139.496094 1.160156 L 141.234375 0.921875 C 141.261719 0.921875 141.453125 0.898438 141.472656 0.898438 C 141.753906 0.898438 141.84375 1.015625 141.84375 1.371094 L 141.84375 17.132813 C 141.84375 17.535156 141.613281 17.722656 141.332031 17.722656 "/>
<path style=" stroke:none;fill-rule:nonzero;fill:rgb(6.698608%,69.398499%,30.599976%);fill-opacity:1;" d="M 146.675781 17.722656 L 145.027344 17.722656 C 144.601563 17.722656 144.414063 17.554688 144.414063 17.132813 L 144.414063 6.847656 C 144.414063 6.453125 144.648438 6.3125 145.027344 6.3125 L 146.675781 6.3125 C 147.050781 6.3125 147.261719 6.429688 147.261719 6.847656 L 147.261719 17.132813 C 147.261719 17.554688 147.074219 17.722656 146.675781 17.722656 Z M 145.824219 4.804688 C 145.046875 4.804688 144.222656 4.285156 144.222656 3.339844 C 144.222656 2.40625 145.003906 1.839844 145.824219 1.839844 C 146.625 1.839844 147.402344 2.378906 147.402344 3.316406 C 147.402344 4.238281 146.601563 4.804688 145.824219 4.804688 "/>
<path style=" stroke:none;fill-rule:nonzero;fill:rgb(6.698608%,69.398499%,30.599976%);fill-opacity:1;" d="M 159.683594 17.722656 L 157.988281 17.722656 C 157.5625 17.722656 157.425781 17.511719 157.425781 17.109375 L 157.425781 10.710938 C 157.425781 9.417969 157.070313 8.492188 155.636719 8.492188 C 154.71875 8.492188 153.589844 8.992188 152.859375 9.628906 L 152.859375 17.132813 C 152.859375 17.535156 152.695313 17.722656 152.292969 17.722656 L 150.574219 17.722656 C 150.222656 17.722656 150.015625 17.535156 150.015625 17.15625 L 150.015625 6.902344 C 150.015625 6.523438 150.179688 6.3125 150.597656 6.3125 L 152.125 6.3125 C 152.460938 6.3125 152.671875 6.402344 152.695313 6.757813 L 152.71875 7.367188 C 153.796875 6.5 155.167969 6.003906 156.53125 6.003906 C 159.160156 6.003906 160.246094 7.648438 160.246094 10.21875 L 160.246094 17.109375 C 160.246094 17.511719 160.109375 17.722656 159.683594 17.722656 "/>
<path style=" stroke:none;fill-rule:nonzero;fill:rgb(6.698608%,69.398499%,30.599976%);fill-opacity:1;" d="M 170.175781 9.464844 C 169.710938 8.828125 168.792969 8.308594 167.898438 8.308594 C 167.164063 8.308594 166.574219 8.589844 166.148438 8.992188 C 165.425781 9.695313 165.144531 10.898438 165.144531 11.980469 C 165.144531 13.015625 165.382813 14.125 166.082031 14.804688 C 166.507813 15.226563 167.121094 15.4375 167.753906 15.4375 C 168.675781 15.4375 169.710938 14.902344 170.175781 14.3125 Z M 167.449219 22.875 C 166.296875 22.875 165.097656 22.640625 163.96875 22.148438 C 163.707031 22.027344 163.589844 21.886719 163.589844 21.675781 C 163.589844 21.558594 163.632813 21.460938 163.65625 21.367188 L 163.992188 20.335938 C 164.078125 20.078125 164.179688 19.910156 164.34375 19.910156 C 164.460938 19.910156 164.578125 19.960938 164.695313 20.003906 C 165.542969 20.355469 166.507813 20.617188 167.328125 20.617188 C 169.683594 20.617188 170.175781 19.367188 170.175781 17.488281 L 170.175781 16.550781 C 169.472656 17.230469 168.152344 17.742188 167.121094 17.742188 C 165.65625 17.742188 164.484375 17.273438 163.65625 16.40625 C 162.671875 15.390625 162.179688 13.867188 162.179688 12.144531 C 162.179688 8.992188 164.011719 6.03125 167.425781 6.03125 C 167.988281 6.03125 168.574219 6.167969 169.121094 6.402344 C 169.5625 6.59375 170.035156 6.945313 170.320313 7.34375 L 170.363281 6.730469 C 170.390625 6.429688 170.554688 6.3125 170.90625 6.3125 L 172.460938 6.3125 C 172.882813 6.3125 173.027344 6.480469 173.027344 6.875 L 173.027344 16.941406 C 173.027344 20.757813 171.398438 22.875 167.449219 22.875 "/>
<path style=" stroke:none;fill-rule:nonzero;fill:rgb(6.698608%,69.398499%,30.599976%);fill-opacity:1;" d="M 188.488281 17.460938 C 187.757813 17.765625 186.796875 18.007813 185.851563 18.007813 C 184.648438 18.007813 183.613281 17.699219 183.027344 17.019531 C 182.300781 16.191406 182.273438 15.226563 182.273438 13.511719 L 182.273438 8.261719 L 181.164063 8.261719 C 180.71875 8.261719 180.652344 8.171875 180.652344 7.671875 L 180.652344 6.78125 C 180.652344 6.5 180.792969 6.3125 181.078125 6.3125 L 182.273438 6.3125 L 182.273438 3.742188 C 182.273438 3.339844 182.488281 3.230469 182.859375 3.183594 L 184.558594 2.96875 C 184.605469 2.96875 184.628906 2.96875 184.671875 2.96875 C 184.984375 2.96875 185.117188 3.128906 185.117188 3.484375 L 185.117188 6.3125 L 187.78125 6.3125 C 188.0625 6.3125 188.230469 6.402344 188.230469 6.710938 L 188.230469 7.8125 C 188.230469 8.097656 188.039063 8.261719 187.757813 8.261719 L 185.117188 8.261719 L 185.117188 13.65625 C 185.117188 14.355469 185.167969 14.875 185.429688 15.25 C 185.640625 15.558594 185.96875 15.746094 186.535156 15.746094 C 187.117188 15.746094 187.621094 15.609375 188.039063 15.464844 C 188.132813 15.4375 188.199219 15.414063 188.277344 15.414063 C 188.441406 15.414063 188.535156 15.511719 188.582031 15.699219 L 188.8125 16.878906 C 188.839844 16.941406 188.839844 16.96875 188.839844 17.019531 C 188.839844 17.25 188.722656 17.371094 188.488281 17.460938 "/>
<path style=" stroke:none;fill-rule:nonzero;fill:rgb(6.698608%,69.398499%,30.599976%);fill-opacity:1;" d="M 200.230469 17.722656 L 198.15625 17.722656 C 197.824219 17.722656 197.757813 17.632813 197.757813 17.25 L 197.757813 10.710938 C 197.757813 9.441406 197.40625 8.492188 195.988281 8.492188 C 195.078125 8.492188 193.898438 8.992188 193.175781 9.628906 L 193.175781 17.25 C 193.175781 17.605469 193.074219 17.722656 192.722656 17.722656 L 190.703125 17.722656 C 190.410156 17.722656 190.320313 17.605469 190.320313 17.296875 L 190.320313 1.746094 C 190.320313 1.324219 190.511719 1.203125 190.835938 1.160156 L 192.460938 0.945313 C 192.554688 0.921875 192.671875 0.921875 192.769531 0.921875 C 193.023438 0.921875 193.175781 1.039063 193.175781 1.371094 L 193.175781 7.277344 C 194.15625 6.453125 195.636719 6.003906 196.882813 6.003906 C 199.519531 6.003906 200.605469 7.671875 200.605469 10.21875 L 200.605469 17.25 C 200.605469 17.605469 200.535156 17.722656 200.230469 17.722656 "/>
<path style=" stroke:none;fill-rule:nonzero;fill:rgb(6.698608%,69.398499%,30.599976%);fill-opacity:1;" d="M 210.160156 10.546875 C 210.109375 9.320313 209.398438 8.195313 207.96875 8.195313 C 206.441406 8.195313 205.519531 9.417969 205.335938 10.808594 L 210.160156 10.808594 C 210.160156 10.753906 210.160156 10.59375 210.160156 10.546875 Z M 212.183594 12.660156 L 205.285156 12.660156 C 205.46875 14.472656 206.792969 15.722656 208.652344 15.722656 C 209.636719 15.722656 210.671875 15.488281 211.550781 15.160156 C 211.636719 15.136719 211.710938 15.085938 211.804688 15.085938 C 211.96875 15.085938 212.085938 15.183594 212.136719 15.371094 L 212.464844 16.570313 C 212.488281 16.683594 212.511719 16.78125 212.511719 16.851563 C 212.511719 17.019531 212.414063 17.132813 212.136719 17.25 C 210.980469 17.765625 209.398438 18.007813 208.179688 18.007813 C 204.484375 18.007813 202.296875 15.652344 202.296875 11.980469 C 202.296875 8.449219 204.628906 6.003906 208.132813 6.003906 C 209.566406 6.003906 210.75 6.546875 211.570313 7.410156 C 212.648438 8.546875 212.949219 10.03125 212.949219 11.628906 L 212.949219 11.980469 C 212.949219 12.546875 212.769531 12.660156 212.183594 12.660156 "/>
<path style=" stroke:none;fill-rule:nonzero;fill:rgb(6.698608%,69.398499%,30.599976%);fill-opacity:1;" d="M 228.898438 1.925781 L 228.730469 2.910156 C 228.683594 3.117188 228.605469 3.265625 228.429688 3.265625 C 228.328125 3.265625 228.257813 3.238281 228.164063 3.222656 C 227.695313 3.050781 227.128906 2.910156 226.570313 2.910156 C 225.160156 2.910156 224.847656 3.851563 224.847656 5.21875 L 224.847656 6.300781 L 227.460938 6.300781 C 227.742188 6.300781 227.929688 6.394531 227.929688 6.703125 L 227.929688 7.804688 C 227.929688 8.113281 227.742188 8.253906 227.460938 8.253906 L 224.847656 8.253906 L 224.847656 17.050781 C 224.847656 17.476563 224.710938 17.710938 224.261719 17.710938 L 222.566406 17.710938 C 222.164063 17.710938 222 17.5 222 17.101563 L 222 8.253906 L 220.730469 8.253906 C 220.304688 8.253906 220.238281 8.160156 220.238281 7.664063 L 220.238281 6.769531 C 220.238281 6.488281 220.375 6.300781 220.679688 6.300781 L 222 6.300781 L 222 5.664063 C 222 4.886719 222.074219 4.277344 222.164063 3.757813 C 222.535156 1.816406 223.746094 0.621094 226.027344 0.585938 L 226.230469 0.585938 C 227.003906 0.597656 227.980469 0.785156 228.636719 1.070313 C 228.871094 1.167969 228.9375 1.3125 228.9375 1.523438 C 228.9375 1.640625 228.914063 1.785156 228.898438 1.925781 "/>
<path style=" stroke:none;fill-rule:nonzero;fill:rgb(6.698608%,69.398499%,30.599976%);fill-opacity:1;" d="M 232.191406 17.710938 L 230.542969 17.710938 C 230.117188 17.710938 229.933594 17.542969 229.933594 17.125 L 229.933594 6.839844 C 229.933594 6.4375 230.167969 6.300781 230.542969 6.300781 L 232.191406 6.300781 C 232.566406 6.300781 232.777344 6.417969 232.777344 6.839844 L 232.777344 17.125 C 232.777344 17.542969 232.589844 17.710938 232.191406 17.710938 Z M 231.347656 4.796875 C 230.566406 4.796875 229.742188 4.277344 229.742188 3.332031 C 229.742188 2.394531 230.519531 1.828125 231.347656 1.828125 C 232.140625 1.828125 232.917969 2.371094 232.917969 3.308594 C 232.917969 4.230469 232.117188 4.796875 231.347656 4.796875 "/>
<path style=" stroke:none;fill-rule:nonzero;fill:rgb(6.698608%,69.398499%,30.599976%);fill-opacity:1;" d="M 242.617188 9.453125 C 242.144531 8.816406 241.230469 8.300781 240.328125 8.300781 C 239.601563 8.300781 239.015625 8.582031 238.589844 8.980469 C 237.859375 9.6875 237.578125 10.886719 237.578125 11.964844 C 237.578125 13.003906 237.816406 14.117188 238.523438 14.789063 C 238.945313 15.21875 239.554688 15.429688 240.191406 15.429688 C 241.109375 15.429688 242.144531 14.894531 242.617188 14.304688 Z M 239.882813 22.867188 C 238.734375 22.867188 237.535156 22.628906 236.402344 22.136719 C 236.144531 22.015625 236.019531 21.875 236.019531 21.664063 C 236.019531 21.546875 236.074219 21.453125 236.097656 21.359375 L 236.425781 20.324219 C 236.515625 20.066406 236.609375 19.902344 236.777344 19.902344 C 236.894531 19.902344 237.015625 19.949219 237.136719 19.992188 C 237.980469 20.347656 238.945313 20.605469 239.765625 20.605469 C 242.121094 20.605469 242.617188 19.355469 242.617188 17.476563 L 242.617188 16.539063 C 241.90625 17.222656 240.59375 17.738281 239.554688 17.738281 C 238.097656 17.738281 236.917969 17.265625 236.097656 16.394531 C 235.105469 15.382813 234.613281 13.851563 234.613281 12.136719 C 234.613281 8.980469 236.449219 6.015625 239.859375 6.015625 C 240.429688 6.015625 241.011719 6.15625 241.554688 6.394531 C 242 6.582031 242.476563 6.933594 242.753906 7.335938 L 242.800781 6.726563 C 242.828125 6.417969 242.988281 6.300781 243.347656 6.300781 L 244.898438 6.300781 C 245.320313 6.300781 245.460938 6.464844 245.460938 6.867188 L 245.460938 16.929688 C 245.460938 20.746094 243.832031 22.867188 239.882813 22.867188 "/>
<path style=" stroke:none;fill-rule:nonzero;fill:rgb(6.698608%,69.398499%,30.599976%);fill-opacity:1;" d="M 257.511719 17.710938 L 255.4375 17.710938 C 255.109375 17.710938 255.039063 17.621094 255.039063 17.238281 L 255.039063 10.699219 C 255.039063 9.429688 254.683594 8.484375 253.273438 8.484375 C 252.355469 8.484375 251.179688 8.980469 250.449219 9.617188 L 250.449219 17.238281 C 250.449219 17.597656 250.351563 17.710938 250 17.710938 L 247.976563 17.710938 C 247.695313 17.710938 247.605469 17.597656 247.605469 17.289063 L 247.605469 1.738281 C 247.605469 1.3125 247.792969 1.191406 248.121094 1.148438 L 249.742188 0.9375 C 249.84375 0.910156 249.957031 0.910156 250.042969 0.910156 C 250.308594 0.910156 250.449219 1.027344 250.449219 1.355469 L 250.449219 7.265625 C 251.433594 6.4375 252.921875 5.992188 254.167969 5.992188 C 256.800781 5.992188 257.886719 7.664063 257.886719 10.210938 L 257.886719 17.238281 C 257.886719 17.597656 257.8125 17.710938 257.511719 17.710938 "/>
<path style=" stroke:none;fill-rule:nonzero;fill:rgb(6.698608%,69.398499%,30.599976%);fill-opacity:1;" d="M 267.25 17.453125 C 266.523438 17.757813 265.554688 18 264.613281 18 C 263.410156 18 262.378906 17.6875 261.792969 17.007813 C 261.066406 16.183594 261.035156 15.21875 261.035156 13.503906 L 261.035156 8.253906 L 259.933594 8.253906 C 259.480469 8.253906 259.414063 8.160156 259.414063 7.664063 L 259.414063 6.769531 C 259.414063 6.488281 259.558594 6.300781 259.839844 6.300781 L 261.035156 6.300781 L 261.035156 3.734375 C 261.035156 3.332031 261.246094 3.222656 261.628906 3.171875 L 263.320313 2.960938 C 263.367188 2.960938 263.386719 2.960938 263.441406 2.960938 C 263.746094 2.960938 263.886719 3.117188 263.886719 3.476563 L 263.886719 6.300781 L 266.546875 6.300781 C 266.828125 6.300781 266.996094 6.394531 266.996094 6.703125 L 266.996094 7.804688 C 266.996094 8.085938 266.804688 8.253906 266.523438 8.253906 L 263.886719 8.253906 L 263.886719 13.640625 C 263.886719 14.347656 263.933594 14.863281 264.195313 15.242188 C 264.402344 15.550781 264.734375 15.738281 265.300781 15.738281 C 265.882813 15.738281 266.382813 15.597656 266.804688 15.453125 C 266.894531 15.429688 266.972656 15.40625 267.039063 15.40625 C 267.207031 15.40625 267.292969 15.496094 267.339844 15.683594 L 267.585938 16.867188 C 267.601563 16.929688 267.601563 16.960938 267.601563 17.007813 C 267.601563 17.238281 267.488281 17.355469 267.25 17.453125 "/>
<path style=" stroke:none;fill-rule:nonzero;fill:rgb(6.698608%,69.398499%,30.599976%);fill-opacity:1;" d="M 102.648438 34.625 C 102.1875 33.953125 101.234375 33.445313 100.351563 33.445313 C 98.933594 33.445313 97.726563 34.648438 97.726563 37.089844 C 97.726563 39.039063 98.472656 40.6875 100.191406 40.6875 C 101.324219 40.6875 102.304688 39.828125 102.648438 39.105469 Z M 106.015625 42.699219 L 104.898438 42.699219 C 103.691406 42.699219 103.160156 42.125 102.996094 41.335938 L 102.953125 41.335938 C 102.367188 42.191406 100.867188 42.980469 99.582031 42.980469 C 96.3125 42.980469 94.824219 40.289063 94.824219 37.273438 C 94.824219 33.257813 97.246094 31.144531 99.84375 31.144531 C 101.070313 31.144531 102.230469 31.703125 102.8125 32.496094 L 102.855469 31.867188 C 102.878906 31.613281 103.066406 31.449219 103.347656 31.449219 L 104.96875 31.449219 C 105.273438 31.449219 105.453125 31.613281 105.453125 31.960938 L 105.453125 40.011719 C 105.453125 40.335938 105.503906 40.566406 105.597656 40.6875 C 105.667969 40.753906 105.753906 40.777344 105.875 40.777344 L 106.0625 40.777344 C 106.339844 40.777344 106.484375 40.871094 106.484375 41.167969 L 106.484375 42.261719 C 106.484375 42.539063 106.296875 42.699219 106.015625 42.699219 "/>
<path style=" stroke:none;fill-rule:nonzero;fill:rgb(6.698608%,69.398499%,30.599976%);fill-opacity:1;" d="M 115.359375 34.558594 C 114.898438 33.929688 113.988281 33.417969 113.109375 33.417969 C 112.386719 33.417969 111.808594 33.703125 111.394531 34.09375 C 110.671875 34.789063 110.394531 35.972656 110.394531 37.039063 C 110.394531 38.0625 110.632813 39.148438 111.324219 39.828125 C 111.742188 40.246094 112.34375 40.453125 112.96875 40.453125 C 113.878906 40.453125 114.898438 39.917969 115.359375 39.339844 Z M 112.671875 47.785156 C 111.53125 47.785156 110.351563 47.554688 109.230469 47.066406 C 108.976563 46.949219 108.859375 46.808594 108.859375 46.601563 C 108.859375 46.484375 108.914063 46.390625 108.9375 46.296875 L 109.257813 45.277344 C 109.351563 45.027344 109.445313 44.863281 109.601563 44.863281 C 109.722656 44.863281 109.839844 44.90625 109.957031 44.949219 C 110.789063 45.304688 111.742188 45.554688 112.554688 45.554688 C 114.871094 45.554688 115.359375 44.328125 115.359375 42.46875 L 115.359375 41.546875 C 114.671875 42.21875 113.367188 42.730469 112.34375 42.730469 C 110.902344 42.730469 109.746094 42.261719 108.9375 41.402344 C 107.957031 40.40625 107.472656 38.894531 107.472656 37.203125 C 107.472656 34.09375 109.28125 31.171875 112.644531 31.171875 C 113.199219 31.171875 113.78125 31.308594 114.316406 31.539063 C 114.757813 31.726563 115.21875 32.074219 115.503906 32.472656 L 115.546875 31.867188 C 115.566406 31.5625 115.730469 31.449219 116.078125 31.449219 L 117.609375 31.449219 C 118.03125 31.449219 118.164063 31.613281 118.164063 32.007813 L 118.164063 41.9375 C 118.164063 45.695313 116.570313 47.785156 112.671875 47.785156 "/>
<path style=" stroke:none;fill-rule:nonzero;fill:rgb(6.698608%,69.398499%,30.599976%);fill-opacity:1;" d="M 127.714844 34.625 C 127.253906 33.953125 126.300781 33.445313 125.417969 33.445313 C 124.003906 33.445313 122.796875 34.648438 122.796875 37.089844 C 122.796875 39.039063 123.535156 40.6875 125.253906 40.6875 C 126.390625 40.6875 127.371094 39.828125 127.714844 39.105469 Z M 131.078125 42.699219 L 129.96875 42.699219 C 128.761719 42.699219 128.226563 42.125 128.066406 41.335938 L 128.015625 41.335938 C 127.433594 42.191406 125.929688 42.980469 124.652344 42.980469 C 121.382813 42.980469 119.894531 40.289063 119.894531 37.273438 C 119.894531 33.257813 122.308594 31.144531 124.90625 31.144531 C 126.132813 31.144531 127.296875 31.703125 127.878906 32.496094 L 127.925781 31.867188 C 127.949219 31.613281 128.132813 31.449219 128.414063 31.449219 L 130.035156 31.449219 C 130.335938 31.449219 130.519531 31.613281 130.519531 31.960938 L 130.519531 40.011719 C 130.519531 40.335938 130.570313 40.566406 130.660156 40.6875 C 130.730469 40.753906 130.824219 40.777344 130.9375 40.777344 L 131.121094 40.777344 C 131.40625 40.777344 131.542969 40.871094 131.542969 41.167969 L 131.542969 42.261719 C 131.542969 42.539063 131.359375 42.699219 131.078125 42.699219 "/>
<path style=" stroke:none;fill-rule:nonzero;fill:rgb(6.698608%,69.398499%,30.599976%);fill-opacity:1;" d="M 135.625 42.699219 L 133.996094 42.699219 C 133.582031 42.699219 133.390625 42.539063 133.390625 42.125 L 133.390625 31.980469 C 133.390625 31.589844 133.628906 31.449219 133.996094 31.449219 L 135.625 31.449219 C 135.996094 31.449219 136.199219 31.5625 136.199219 31.980469 L 136.199219 42.125 C 136.199219 42.539063 136.015625 42.699219 135.625 42.699219 Z M 134.789063 29.964844 C 134.015625 29.964844 133.214844 29.453125 133.214844 28.527344 C 133.214844 27.59375 133.976563 27.039063 134.789063 27.039063 C 135.574219 27.039063 136.34375 27.574219 136.34375 28.507813 C 136.34375 29.40625 135.554688 29.964844 134.789063 29.964844 "/>
<path style=" stroke:none;fill-rule:nonzero;fill:rgb(6.698608%,69.398499%,30.599976%);fill-opacity:1;" d="M 148.445313 42.699219 L 146.773438 42.699219 C 146.359375 42.699219 146.222656 42.492188 146.222656 42.101563 L 146.222656 35.789063 C 146.222656 34.515625 145.878906 33.601563 144.460938 33.601563 C 143.554688 33.601563 142.4375 34.09375 141.722656 34.722656 L 141.722656 42.125 C 141.722656 42.519531 141.558594 42.699219 141.164063 42.699219 L 139.46875 42.699219 C 139.121094 42.699219 138.910156 42.519531 138.910156 42.144531 L 138.910156 32.03125 C 138.910156 31.65625 139.078125 31.449219 139.492188 31.449219 L 140.996094 31.449219 C 141.320313 31.449219 141.535156 31.539063 141.558594 31.890625 L 141.578125 32.496094 C 142.648438 31.632813 143.996094 31.144531 145.339844 31.144531 C 147.9375 31.144531 149.007813 32.769531 149.007813 35.300781 L 149.007813 42.101563 C 149.007813 42.492188 148.867188 42.699219 148.445313 42.699219 "/>
<path style=" stroke:none;fill-rule:nonzero;fill:rgb(6.698608%,69.398499%,30.599976%);fill-opacity:1;" d="M 154.59375 42.980469 C 153.386719 42.980469 152.066406 42.632813 151.019531 42.167969 C 150.816406 42.078125 150.742188 41.9375 150.742188 41.796875 C 150.742188 41.730469 150.769531 41.65625 150.789063 41.589844 L 151.164063 40.40625 C 151.230469 40.171875 151.34375 40.082031 151.484375 40.082031 C 151.554688 40.082031 151.621094 40.082031 151.738281 40.125 C 152.757813 40.546875 153.855469 40.839844 154.664063 40.839844 C 155.683594 40.839844 156.386719 40.382813 156.386719 39.617188 C 156.386719 38.96875 155.941406 38.617188 154.988281 38.246094 L 153.152344 37.558594 C 151.832031 37.0625 150.769531 36.039063 150.769531 34.464844 C 150.769531 32.1875 152.902344 31.144531 154.964844 31.144531 C 156.085938 31.144531 157.171875 31.332031 158.324219 31.84375 C 158.515625 31.933594 158.609375 32.03125 158.609375 32.167969 C 158.609375 32.238281 158.585938 32.308594 158.558594 32.398438 L 158.167969 33.65625 C 158.121094 33.8125 158.007813 33.910156 157.84375 33.910156 C 157.777344 33.910156 157.679688 33.886719 157.609375 33.863281 C 156.84375 33.558594 155.847656 33.308594 155.105469 33.308594 C 154.128906 33.308594 153.640625 33.839844 153.640625 34.375 C 153.640625 34.886719 153.898438 35.210938 154.78125 35.558594 L 156.867188 36.410156 C 158.097656 36.925781 159.074219 37.875 159.074219 39.382813 C 159.074219 41.820313 156.964844 42.980469 154.59375 42.980469 "/>
<path style=" stroke:none;fill-rule:nonzero;fill:rgb(6.698608%,69.398499%,30.599976%);fill-opacity:1;" d="M 167.425781 42.449219 C 166.699219 42.753906 165.75 42.980469 164.820313 42.980469 C 163.636719 42.980469 162.621094 42.679688 162.035156 42.007813 C 161.320313 41.191406 161.296875 40.246094 161.296875 38.546875 L 161.296875 33.375 L 160.199219 33.375 C 159.761719 33.375 159.699219 33.28125 159.699219 32.796875 L 159.699219 31.910156 C 159.699219 31.632813 159.839844 31.449219 160.113281 31.449219 L 161.296875 31.449219 L 161.296875 28.921875 C 161.296875 28.527344 161.503906 28.410156 161.875 28.363281 L 163.546875 28.152344 C 163.59375 28.152344 163.613281 28.152344 163.660156 28.152344 C 163.960938 28.152344 164.101563 28.316406 164.101563 28.660156 L 164.101563 31.449219 L 166.722656 31.449219 C 167 31.449219 167.164063 31.539063 167.164063 31.84375 L 167.164063 32.929688 C 167.164063 33.210938 166.980469 33.375 166.699219 33.375 L 164.101563 33.375 L 164.101563 38.691406 C 164.101563 39.382813 164.15625 39.898438 164.402344 40.269531 C 164.613281 40.566406 164.941406 40.753906 165.492188 40.753906 C 166.078125 40.753906 166.558594 40.613281 166.980469 40.472656 C 167.070313 40.453125 167.144531 40.425781 167.214844 40.425781 C 167.371094 40.425781 167.46875 40.523438 167.511719 40.710938 L 167.742188 41.863281 C 167.765625 41.9375 167.765625 41.960938 167.765625 42.007813 C 167.765625 42.234375 167.652344 42.355469 167.425781 42.449219 "/>
<path style=" stroke:none;fill-rule:nonzero;fill:rgb(0%,68.199158%,93.699646%);fill-opacity:1;" d="M 182.394531 34.535156 C 181.929688 33.910156 181.054688 33.394531 180.171875 33.394531 C 178.285156 33.394531 177.453125 35.160156 177.453125 37.0625 C 177.453125 38.960938 178.15625 40.730469 180.035156 40.730469 C 180.890625 40.730469 181.929688 40.148438 182.394531 39.570313 Z M 184.695313 42.730469 L 183.183594 42.730469 C 182.816406 42.730469 182.644531 42.539063 182.628906 42.261719 L 182.585938 41.632813 C 181.929688 42.375 180.632813 43.003906 179.429688 43.003906 C 176.058594 43.003906 174.527344 40.335938 174.527344 37.222656 C 174.527344 33.976563 176.339844 31.144531 179.613281 31.144531 C 180.65625 31.144531 181.746094 31.5625 182.394531 32.238281 L 182.394531 27.015625 C 182.394531 26.59375 182.511719 26.441406 182.882813 26.386719 L 184.601563 26.15625 C 184.621094 26.15625 184.808594 26.136719 184.828125 26.136719 C 185.109375 26.136719 185.207031 26.25 185.207031 26.59375 L 185.207031 42.144531 C 185.207031 42.539063 184.972656 42.730469 184.695313 42.730469 "/>
<path style=" stroke:none;fill-rule:nonzero;fill:rgb(0%,68.199158%,93.699646%);fill-opacity:1;" d="M 194.628906 35.648438 C 194.574219 34.441406 193.878906 33.328125 192.464844 33.328125 C 190.964844 33.328125 190.054688 34.535156 189.867188 35.902344 L 194.628906 35.902344 C 194.628906 35.855469 194.628906 35.691406 194.628906 35.648438 Z M 196.621094 37.734375 L 189.824219 37.734375 C 190.007813 39.523438 191.304688 40.753906 193.140625 40.753906 C 194.117188 40.753906 195.136719 40.523438 195.988281 40.195313 C 196.089844 40.175781 196.160156 40.125 196.246094 40.125 C 196.410156 40.125 196.53125 40.21875 196.574219 40.40625 L 196.902344 41.589844 C 196.921875 41.703125 196.945313 41.796875 196.945313 41.863281 C 196.945313 42.027344 196.847656 42.144531 196.574219 42.261719 C 195.433594 42.773438 193.878906 43.003906 192.679688 43.003906 C 189.03125 43.003906 186.878906 40.6875 186.878906 37.0625 C 186.878906 33.582031 189.171875 31.171875 192.628906 31.171875 C 194.050781 31.171875 195.203125 31.703125 196.011719 32.5625 C 197.082031 33.679688 197.390625 35.136719 197.390625 36.71875 L 197.390625 37.0625 C 197.390625 37.625 197.203125 37.734375 196.621094 37.734375 "/>
<path style=" stroke:none;fill-rule:nonzero;fill:rgb(0%,68.199158%,93.699646%);fill-opacity:1;" d="M 215.394531 42.730469 L 213.765625 42.730469 C 213.351563 42.730469 213.167969 42.566406 213.167969 42.144531 L 213.167969 35.789063 C 213.167969 34.535156 212.84375 33.582031 211.425781 33.582031 C 210.546875 33.582031 209.519531 34.046875 208.800781 34.625 C 208.851563 34.832031 208.898438 37.941406 208.898438 38.273438 L 208.898438 42.144531 C 208.898438 42.566406 208.734375 42.730469 208.339844 42.730469 L 206.8125 42.730469 C 206.390625 42.730469 206.203125 42.566406 206.203125 42.144531 L 206.203125 35.789063 C 206.203125 34.558594 205.953125 33.582031 204.535156 33.582031 C 203.625 33.582031 202.703125 34.09375 201.960938 34.746094 L 201.960938 42.144531 C 201.960938 42.566406 201.769531 42.730469 201.378906 42.730469 L 199.753906 42.730469 C 199.332031 42.730469 199.152344 42.566406 199.152344 42.144531 L 199.152344 32.007813 C 199.152344 31.636719 199.355469 31.472656 199.710938 31.472656 L 201.21875 31.472656 C 201.5625 31.472656 201.769531 31.59375 201.796875 31.910156 L 201.8125 32.492188 C 202.769531 31.65625 204.019531 31.171875 205.226563 31.171875 C 206.648438 31.171875 207.648438 31.800781 208.179688 32.679688 C 209.222656 31.679688 210.734375 31.171875 212.148438 31.171875 C 213.839844 31.171875 214.90625 32.007813 215.394531 32.910156 C 215.832031 33.769531 215.949219 34.789063 215.949219 36.273438 L 215.949219 42.144531 C 215.949219 42.566406 215.785156 42.730469 215.394531 42.730469 "/>
<path style=" stroke:none;fill-rule:nonzero;fill:rgb(0%,68.199158%,93.699646%);fill-opacity:1;" d="M 225.601563 35.648438 C 225.558594 34.441406 224.859375 33.328125 223.445313 33.328125 C 221.9375 33.328125 221.035156 34.535156 220.847656 35.902344 L 225.601563 35.902344 C 225.601563 35.855469 225.601563 35.691406 225.601563 35.648438 Z M 227.601563 37.734375 L 220.804688 37.734375 C 220.980469 39.523438 222.285156 40.753906 224.121094 40.753906 C 225.089844 40.753906 226.109375 40.523438 226.972656 40.195313 C 227.066406 40.175781 227.132813 40.125 227.230469 40.125 C 227.390625 40.125 227.507813 40.21875 227.550781 40.40625 L 227.878906 41.589844 C 227.898438 41.703125 227.921875 41.796875 227.921875 41.863281 C 227.921875 42.027344 227.835938 42.144531 227.550781 42.261719 C 226.414063 42.773438 224.859375 43.003906 223.652344 43.003906 C 220.011719 43.003906 217.851563 40.6875 217.851563 37.0625 C 217.851563 33.582031 220.144531 31.171875 223.609375 31.171875 C 225.023438 31.171875 226.183594 31.703125 226.992188 32.5625 C 228.066406 33.679688 228.367188 35.136719 228.367188 36.71875 L 228.367188 37.0625 C 228.367188 37.625 228.179688 37.734375 227.601563 37.734375 "/>
<path style=" stroke:none;fill-rule:nonzero;fill:rgb(0%,68.199158%,93.699646%);fill-opacity:1;" d="M 239.664063 42.730469 L 237.996094 42.730469 C 237.578125 42.730469 237.433594 42.519531 237.433594 42.121094 L 237.433594 35.808594 C 237.433594 34.535156 237.09375 33.625 235.679688 33.625 C 234.765625 33.625 233.65625 34.117188 232.9375 34.746094 L 232.9375 42.144531 C 232.9375 42.539063 232.773438 42.730469 232.378906 42.730469 L 230.6875 42.730469 C 230.335938 42.730469 230.128906 42.539063 230.128906 42.167969 L 230.128906 32.050781 C 230.128906 31.679688 230.292969 31.472656 230.714844 31.472656 L 232.214844 31.472656 C 232.542969 31.472656 232.757813 31.5625 232.773438 31.910156 L 232.800781 32.515625 C 233.867188 31.65625 235.210938 31.171875 236.554688 31.171875 C 239.160156 31.171875 240.222656 32.789063 240.222656 35.324219 L 240.222656 42.121094 C 240.222656 42.519531 240.082031 42.730469 239.664063 42.730469 "/>
<path style=" stroke:none;fill-rule:nonzero;fill:rgb(0%,68.199158%,93.699646%);fill-opacity:1;" d="M 249.28125 42.46875 C 248.5625 42.773438 247.613281 43.003906 246.683594 43.003906 C 245.496094 43.003906 244.480469 42.699219 243.902344 42.027344 C 243.179688 41.21875 243.15625 40.265625 243.15625 38.570313 L 243.15625 33.394531 L 242.066406 33.394531 C 241.628906 33.394531 241.554688 33.308594 241.554688 32.820313 L 241.554688 31.933594 C 241.554688 31.65625 241.695313 31.472656 241.96875 31.472656 L 243.15625 31.472656 L 243.15625 28.941406 C 243.15625 28.550781 243.363281 28.429688 243.738281 28.386719 L 245.40625 28.175781 C 245.457031 28.175781 245.476563 28.175781 245.527344 28.175781 C 245.824219 28.175781 245.964844 28.339844 245.964844 28.683594 L 245.964844 31.472656 L 248.585938 31.472656 C 248.867188 31.472656 249.03125 31.5625 249.03125 31.867188 L 249.03125 32.953125 C 249.03125 33.234375 248.847656 33.394531 248.5625 33.394531 L 245.964844 33.394531 L 245.964844 38.710938 C 245.964844 39.410156 246.011719 39.917969 246.261719 40.289063 C 246.472656 40.589844 246.800781 40.777344 247.351563 40.777344 C 247.933594 40.777344 248.425781 40.636719 248.847656 40.496094 C 248.933594 40.476563 249 40.453125 249.074219 40.453125 C 249.238281 40.453125 249.328125 40.546875 249.371094 40.730469 L 249.605469 41.894531 C 249.625 41.960938 249.625 41.984375 249.625 42.027344 C 249.625 42.261719 249.511719 42.375 249.28125 42.46875 "/>
<path style=" stroke:none;fill-rule:nonzero;fill:rgb(0%,68.199158%,93.699646%);fill-opacity:1;" d="M 253.503906 42.730469 L 251.878906 42.730469 C 251.460938 42.730469 251.28125 42.566406 251.28125 42.144531 L 251.28125 32.007813 C 251.28125 31.613281 251.511719 31.472656 251.878906 31.472656 L 253.503906 31.472656 C 253.878906 31.472656 254.082031 31.59375 254.082031 32.007813 L 254.082031 42.144531 C 254.082031 42.566406 253.898438 42.730469 253.503906 42.730469 Z M 252.664063 29.988281 C 251.898438 29.988281 251.097656 29.472656 251.097656 28.550781 C 251.097656 27.617188 251.855469 27.066406 252.664063 27.066406 C 253.457031 27.066406 254.226563 27.59375 254.226563 28.527344 C 254.226563 29.429688 253.4375 29.988281 252.664063 29.988281 "/>
<path style=" stroke:none;fill-rule:nonzero;fill:rgb(0%,68.199158%,93.699646%);fill-opacity:1;" d="M 263.902344 34.648438 C 263.441406 33.976563 262.484375 33.464844 261.605469 33.464844 C 260.191406 33.464844 258.976563 34.675781 258.976563 37.109375 C 258.976563 39.058594 259.722656 40.707031 261.441406 40.707031 C 262.574219 40.707031 263.550781 39.851563 263.902344 39.128906 Z M 267.265625 42.730469 L 266.152344 42.730469 C 264.945313 42.730469 264.410156 42.144531 264.246094 41.359375 L 264.203125 41.359375 C 263.617188 42.21875 262.113281 43.003906 260.839844 43.003906 C 257.566406 43.003906 256.082031 40.3125 256.082031 37.296875 C 256.082031 33.28125 258.5 31.171875 261.09375 31.171875 C 262.324219 31.171875 263.484375 31.726563 264.066406 32.515625 L 264.113281 31.890625 C 264.132813 31.636719 264.320313 31.472656 264.597656 31.472656 L 266.222656 31.472656 C 266.523438 31.472656 266.707031 31.636719 266.707031 31.980469 L 266.707031 40.035156 C 266.707031 40.359375 266.757813 40.589844 266.851563 40.707031 C 266.917969 40.777344 267.011719 40.800781 267.125 40.800781 L 267.308594 40.800781 C 267.59375 40.800781 267.722656 40.894531 267.722656 41.191406 L 267.722656 42.28125 C 267.722656 42.566406 267.539063 42.730469 267.265625 42.730469 "/>
<path style=" stroke:none;fill-rule:nonzero;fill:rgb(0%,68.199158%,93.699646%);fill-opacity:1;" d="M 19.351563 76.976563 C 18.828125 75.347656 18.480469 74.125 18.191406 73.191406 L 18.074219 73.191406 C 17.78125 74.183594 17.4375 75.40625 16.847656 77.035156 L 12.714844 89.265625 L 23.488281 89.265625 Z M 35.65625 104.871094 L 30.476563 104.871094 C 29.253906 104.871094 28.84375 104.410156 28.496094 103.472656 L 25.472656 94.914063 L 10.734375 94.914063 L 7.707031 103.652344 C 7.472656 104.410156 7.0625 104.871094 6.136719 104.871094 L 0.949219 104.871094 C 0.371094 104.871094 0.136719 104.582031 0.136719 104.117188 C 0.136719 103.945313 0.136719 103.714844 0.25 103.472656 L 14.460938 65.734375 C 14.757813 65.039063 15.160156 64.578125 16.035156 64.578125 L 20.691406 64.578125 C 21.570313 64.578125 22.085938 64.984375 22.324219 65.625 L 36.59375 103.1875 C 36.707031 103.472656 36.707031 103.714844 36.707031 103.945313 C 36.707031 104.527344 36.421875 104.871094 35.65625 104.871094 "/>
<path style=" stroke:none;fill-rule:nonzero;fill:rgb(0%,68.199158%,93.699646%);fill-opacity:1;" d="M 44.5625 104.871094 L 40.140625 104.871094 C 39.324219 104.871094 38.796875 104.460938 38.796875 103.472656 L 38.796875 65.273438 C 38.796875 64.28125 39.203125 63.992188 39.960938 63.871094 L 44.152344 63.292969 C 44.273438 63.292969 44.445313 63.234375 44.5625 63.234375 C 45.261719 63.234375 45.84375 63.585938 45.84375 64.515625 L 45.84375 103.417969 C 45.84375 104.410156 45.378906 104.871094 44.5625 104.871094 "/>
<path style=" stroke:none;fill-rule:nonzero;fill:rgb(0%,68.199158%,93.699646%);fill-opacity:1;" d="M 70.300781 104.871094 L 50.558594 104.871094 C 49.511719 104.871094 49.164063 104.292969 49.164063 103.472656 L 49.164063 102.019531 C 49.164063 101.203125 49.222656 100.796875 49.742188 100.042969 L 62.324219 81.519531 L 62.324219 81.464844 L 51.550781 81.464844 C 50.445313 81.464844 50.214844 81.171875 50.214844 79.949219 L 50.214844 77.851563 C 50.214844 77.152344 50.558594 76.625 51.320313 76.625 L 69.71875 76.625 C 70.828125 76.625 71.0625 77.210938 71.0625 77.851563 L 71.0625 79.480469 C 71.0625 80.179688 70.941406 80.765625 70.476563 81.402344 L 57.667969 99.921875 L 57.667969 100.042969 L 70.246094 100.042969 C 70.941406 100.042969 71.414063 100.273438 71.414063 101.03125 L 71.414063 103.765625 C 71.414063 104.460938 71.003906 104.871094 70.300781 104.871094 "/>
<path style=" stroke:none;fill-rule:nonzero;fill:rgb(0%,68.199158%,93.699646%);fill-opacity:1;" d="M 99.234375 104.871094 L 94.109375 104.871094 C 93.292969 104.871094 93.121094 104.640625 93.121094 103.714844 L 93.121094 87.519531 C 93.121094 84.371094 92.246094 82.039063 88.75 82.039063 C 86.480469 82.039063 83.570313 83.265625 81.761719 84.839844 L 81.761719 103.714844 C 81.761719 104.582031 81.53125 104.871094 80.652344 104.871094 L 75.644531 104.871094 C 74.949219 104.871094 74.714844 104.582031 74.714844 103.824219 L 74.714844 65.328125 C 74.714844 64.28125 75.179688 63.992188 75.996094 63.871094 L 80.015625 63.351563 C 80.246094 63.292969 80.539063 63.292969 80.773438 63.292969 C 81.410156 63.292969 81.761719 63.585938 81.761719 64.398438 L 81.761719 79.015625 C 84.210938 76.976563 87.875 75.867188 90.960938 75.867188 C 97.480469 75.867188 100.160156 80.007813 100.160156 86.292969 L 100.160156 103.714844 C 100.160156 104.582031 99.988281 104.871094 99.234375 104.871094 "/>
<path style=" stroke:none;fill-rule:nonzero;fill:rgb(0%,68.199158%,93.699646%);fill-opacity:1;" d="M 122.9375 87.109375 C 122.816406 84.082031 121.074219 81.289063 117.519531 81.289063 C 113.734375 81.289063 111.464844 84.3125 111 87.753906 L 122.9375 87.753906 C 122.9375 87.636719 122.9375 87.230469 122.9375 87.109375 Z M 127.945313 92.351563 L 110.878906 92.351563 C 111.34375 96.835938 114.605469 99.921875 119.210938 99.921875 C 121.652344 99.921875 124.21875 99.339844 126.371094 98.527344 C 126.601563 98.46875 126.777344 98.351563 127.007813 98.351563 C 127.414063 98.351563 127.707031 98.585938 127.824219 99.046875 L 128.640625 102.019531 C 128.703125 102.3125 128.757813 102.542969 128.757813 102.71875 C 128.757813 103.128906 128.523438 103.417969 127.824219 103.714844 C 124.976563 104.988281 121.074219 105.578125 118.039063 105.578125 C 108.902344 105.578125 103.484375 99.75 103.484375 90.660156 C 103.484375 81.929688 109.246094 75.867188 117.925781 75.867188 C 121.480469 75.867188 124.390625 77.210938 126.433594 79.363281 C 129.109375 82.160156 129.863281 85.832031 129.863281 89.789063 L 129.863281 90.660156 C 129.863281 92.058594 129.398438 92.351563 127.945313 92.351563 "/>
<path style=" stroke:none;fill-rule:nonzero;fill:rgb(0%,68.199158%,93.699646%);fill-opacity:1;" d="M 139.476563 104.871094 L 135.398438 104.871094 C 134.347656 104.871094 133.886719 104.460938 133.886719 103.417969 L 133.886719 77.972656 C 133.886719 76.976563 134.46875 76.625 135.398438 76.625 L 139.476563 76.625 C 140.40625 76.625 140.929688 76.921875 140.929688 77.972656 L 140.929688 103.417969 C 140.929688 104.460938 140.46875 104.871094 139.476563 104.871094 Z M 137.382813 72.902344 C 135.453125 72.902344 133.417969 71.621094 133.417969 69.292969 C 133.417969 66.960938 135.339844 65.5625 137.382813 65.5625 C 139.355469 65.5625 141.285156 66.902344 141.285156 69.230469 C 141.285156 71.503906 139.300781 72.902344 137.382813 72.902344 "/>
<path style=" stroke:none;fill-rule:nonzero;fill:rgb(0%,68.199158%,93.699646%);fill-opacity:1;" d="M 186.480469 104.871094 L 182.40625 104.871094 C 181.355469 104.871094 180.894531 104.460938 180.894531 103.417969 L 180.894531 87.464844 C 180.894531 84.3125 180.078125 81.929688 176.527344 81.929688 C 174.3125 81.929688 171.753906 83.097656 169.945313 84.550781 C 170.058594 85.074219 170.175781 92.875 170.175781 93.691406 L 170.175781 103.417969 C 170.175781 104.460938 169.769531 104.871094 168.777344 104.871094 L 164.933594 104.871094 C 163.886719 104.871094 163.421875 104.460938 163.421875 103.417969 L 163.421875 87.464844 C 163.421875 84.371094 162.777344 81.929688 159.230469 81.929688 C 156.960938 81.929688 154.628906 83.207031 152.761719 84.839844 L 152.761719 103.417969 C 152.761719 104.460938 152.292969 104.871094 151.308594 104.871094 L 147.234375 104.871094 C 146.179688 104.871094 145.71875 104.460938 145.71875 103.417969 L 145.71875 77.972656 C 145.71875 77.035156 146.242188 76.625 147.117188 76.625 L 150.898438 76.625 C 151.777344 76.625 152.292969 76.921875 152.351563 77.738281 L 152.414063 79.195313 C 154.800781 77.09375 157.949219 75.867188 160.972656 75.867188 C 164.527344 75.867188 167.03125 77.441406 168.371094 79.660156 C 170.992188 77.152344 174.78125 75.867188 178.324219 75.867188 C 182.578125 75.867188 185.257813 77.972656 186.480469 80.238281 C 187.585938 82.390625 187.882813 84.957031 187.882813 88.683594 L 187.882813 103.417969 C 187.882813 104.460938 187.476563 104.871094 186.480469 104.871094 "/>
<path style=" stroke:none;fill-rule:nonzero;fill:rgb(0%,68.199158%,93.699646%);fill-opacity:1;" d="M 210.652344 87.109375 C 210.535156 84.082031 208.785156 81.289063 205.238281 81.289063 C 201.453125 81.289063 199.183594 84.3125 198.714844 87.753906 L 210.652344 87.753906 C 210.652344 87.636719 210.652344 87.230469 210.652344 87.109375 Z M 215.660156 92.351563 L 198.597656 92.351563 C 199.0625 96.835938 202.324219 99.921875 206.925781 99.921875 C 209.371094 99.921875 211.9375 99.339844 214.085938 98.527344 C 214.320313 98.46875 214.496094 98.351563 214.726563 98.351563 C 215.132813 98.351563 215.429688 98.585938 215.542969 99.046875 L 216.359375 102.019531 C 216.414063 102.3125 216.476563 102.542969 216.476563 102.71875 C 216.476563 103.128906 216.238281 103.417969 215.542969 103.714844 C 212.6875 104.988281 208.785156 105.578125 205.765625 105.578125 C 196.617188 105.578125 191.199219 99.75 191.199219 90.660156 C 191.199219 81.929688 196.964844 75.867188 205.644531 75.867188 C 209.191406 75.867188 212.105469 77.210938 214.144531 79.363281 C 216.824219 82.160156 217.582031 85.832031 217.582031 89.789063 L 217.582031 90.660156 C 217.582031 92.058594 217.117188 92.351563 215.660156 92.351563 "/>
<path style=" stroke:none;fill-rule:nonzero;fill:rgb(0%,68.199158%,93.699646%);fill-opacity:1;" d="M 237.613281 77.390625 L 236.976563 81.519531 C 236.917969 82.039063 236.625 82.28125 236.160156 82.28125 C 236.101563 82.28125 236.039063 82.28125 235.929688 82.28125 C 235.464844 82.160156 234.882813 82.101563 234.355469 82.101563 C 232.375 82.101563 230.222656 83.15625 228.761719 84.898438 L 228.761719 103.417969 C 228.761719 104.351563 228.355469 104.871094 227.359375 104.871094 L 223.117188 104.871094 C 222.179688 104.871094 221.714844 104.410156 221.714844 103.417969 L 221.714844 78.085938 C 221.714844 76.921875 222.300781 76.625 223.175781 76.625 L 226.898438 76.625 C 227.835938 76.625 228.355469 76.921875 228.355469 77.738281 L 228.40625 79.601563 C 230.222656 77.332031 232.199219 75.867188 235.464844 75.867188 C 235.929688 75.867188 236.566406 75.988281 237.09375 76.105469 C 237.496094 76.21875 237.671875 76.394531 237.671875 76.863281 C 237.671875 77.035156 237.671875 77.210938 237.613281 77.390625 "/>
<path style=" stroke:none;fill-rule:nonzero;fill:rgb(0%,68.199158%,93.699646%);fill-opacity:1;" d="M 242.917969 79.015625 C 242.503906 79.304688 242.210938 79.425781 241.921875 79.425781 C 241.632813 79.425781 241.398438 79.25 241.109375 78.902344 L 240.46875 78.199219 C 240.292969 78.027344 240.234375 77.851563 240.234375 77.621094 C 240.234375 77.390625 240.355469 77.09375 240.640625 76.863281 C 241.804688 75.699219 243.027344 74.125 243.027344 72.730469 C 243.027344 70.980469 240.640625 69.636719 240.640625 67.542969 C 240.640625 65.273438 242.390625 63.699219 244.601563 63.699219 C 247.101563 63.699219 248.855469 66.203125 248.855469 68.589844 C 248.855469 72.84375 246.234375 76.683594 242.917969 79.015625 "/>
<path style=" stroke:none;fill-rule:nonzero;fill:rgb(0%,68.199158%,93.699646%);fill-opacity:1;" d="M 256.21875 105.578125 C 253.1875 105.578125 249.871094 104.699219 247.246094 103.535156 C 246.722656 103.304688 246.554688 102.957031 246.554688 102.597656 C 246.554688 102.429688 246.609375 102.25 246.664063 102.082031 L 247.601563 99.105469 C 247.773438 98.527344 248.0625 98.289063 248.414063 98.289063 C 248.585938 98.289063 248.765625 98.289063 249.054688 98.410156 C 251.617188 99.460938 254.351563 100.21875 256.390625 100.21875 C 258.953125 100.21875 260.703125 99.046875 260.703125 97.132813 C 260.703125 95.5 259.597656 94.621094 257.207031 93.691406 L 252.609375 91.945313 C 249.285156 90.722656 246.609375 88.15625 246.609375 84.199219 C 246.609375 78.488281 251.96875 75.867188 257.148438 75.867188 C 259.945313 75.867188 262.683594 76.335938 265.59375 77.621094 C 266.058594 77.851563 266.289063 78.085938 266.289063 78.4375 C 266.289063 78.609375 266.230469 78.785156 266.179688 79.015625 L 265.183594 82.160156 C 265.066406 82.570313 264.777344 82.800781 264.367188 82.800781 C 264.195313 82.800781 263.960938 82.746094 263.789063 82.6875 C 261.867188 81.929688 259.363281 81.289063 257.5 81.289063 C 255.050781 81.289063 253.832031 82.625 253.832031 83.96875 C 253.832031 85.246094 254.472656 86.0625 256.683594 86.9375 L 261.925781 89.09375 C 265.011719 90.375 267.460938 92.761719 267.460938 96.546875 C 267.460938 102.660156 262.15625 105.578125 256.21875 105.578125 "/>
<path style=" stroke:none;fill-rule:nonzero;fill:rgb(0%,68.199158%,93.699646%);fill-opacity:1;" d="M 105.601563 155.058594 C 102.105469 155.058594 97.964844 154.417969 94.472656 153.199219 C 93.71875 152.898438 93.484375 152.558594 93.484375 152.089844 C 93.484375 151.855469 93.484375 151.625 93.597656 151.335938 L 94.820313 147.542969 C 95 146.96875 95.285156 146.617188 95.867188 146.617188 C 96.105469 146.617188 96.394531 146.675781 96.742188 146.789063 C 99.480469 147.777344 102.507813 148.535156 105.425781 148.535156 C 108.570313 148.535156 112.117188 147.023438 112.117188 143.351563 C 112.117188 140.675781 110.140625 139.21875 107.871094 138.113281 L 100.296875 134.328125 C 96.164063 132.289063 93.425781 128.855469 93.425781 124.316406 C 93.425781 117.207031 100.414063 113.304688 106.878906 113.304688 C 110.71875 113.304688 113.925781 113.890625 117.300781 115.34375 C 118.0625 115.691406 118.464844 116.039063 118.464844 116.507813 C 118.464844 116.738281 118.410156 116.96875 118.289063 117.257813 L 116.894531 120.820313 C 116.664063 121.457031 116.3125 121.6875 115.90625 121.6875 C 115.617188 121.6875 115.324219 121.574219 114.972656 121.457031 C 112.589844 120.464844 109.617188 119.648438 107.289063 119.648438 C 104.546875 119.648438 101.402344 120.820313 101.402344 124.074219 C 101.402344 126.464844 103.613281 127.863281 105.535156 128.792969 L 112.003906 131.941406 C 116.605469 134.152344 119.75 137.238281 119.75 142.59375 C 119.75 150.691406 113.167969 155.058594 105.601563 155.058594 "/>
<path style=" stroke:none;fill-rule:nonzero;fill:rgb(0%,68.199158%,93.699646%);fill-opacity:1;" d="M 136.75 130.886719 C 131.5625 130.886719 129.871094 135.375 129.871094 140.035156 C 129.871094 144.8125 131.328125 149.523438 136.515625 149.523438 C 141.640625 149.523438 143.386719 144.984375 143.386719 140.214844 C 143.386719 135.4375 141.878906 130.886719 136.75 130.886719 Z M 136.453125 155.058594 C 126.964844 155.058594 122.59375 148.65625 122.59375 140.148438 C 122.59375 131.765625 127.722656 125.363281 136.808594 125.363281 C 146.300781 125.363281 150.667969 131.644531 150.667969 140.214844 C 150.667969 148.59375 145.542969 155.058594 136.453125 155.058594 "/>
<path style=" stroke:none;fill-rule:nonzero;fill:rgb(0%,68.199158%,93.699646%);fill-opacity:1;" d="M 175.867188 153.308594 C 173.066406 154.59375 170.5 155.058594 167.414063 155.058594 C 158.453125 155.058594 153.503906 149.472656 153.503906 140.496094 C 153.503906 131.472656 158.914063 125.363281 167.941406 125.363281 C 170.5625 125.363281 173.300781 125.878906 175.746094 126.992188 C 176.210938 127.222656 176.441406 127.339844 176.441406 127.808594 C 176.441406 127.976563 176.386719 128.328125 176.328125 128.503906 L 175.566406 131.589844 C 175.449219 132.113281 175.21875 132.402344 174.875 132.402344 C 174.695313 132.402344 174.464844 132.289063 174.234375 132.171875 C 172.539063 131.472656 170.675781 130.886719 168.636719 130.886719 C 163.632813 130.886719 160.777344 134.449219 160.777344 140.148438 C 160.777344 145.742188 163.34375 149.582031 168.347656 149.582031 C 170.851563 149.582031 172.429688 149.117188 174.464844 148.300781 C 174.640625 148.25 174.875 148.128906 175.046875 148.128906 C 175.398438 148.128906 175.628906 148.421875 175.746094 148.832031 L 176.503906 151.394531 C 176.617188 151.796875 176.679688 152.152344 176.679688 152.382813 C 176.679688 152.847656 176.386719 153.078125 175.867188 153.308594 "/>
<path style=" stroke:none;fill-rule:nonzero;fill:rgb(0%,68.199158%,93.699646%);fill-opacity:1;" d="M 185.765625 154.359375 L 181.6875 154.359375 C 180.636719 154.359375 180.171875 153.949219 180.171875 152.898438 L 180.171875 127.453125 C 180.171875 126.464844 180.753906 126.113281 181.6875 126.113281 L 185.765625 126.113281 C 186.691406 126.113281 187.222656 126.40625 187.222656 127.453125 L 187.222656 152.898438 C 187.222656 153.949219 186.753906 154.359375 185.765625 154.359375 Z M 183.664063 122.390625 C 181.742188 122.390625 179.707031 121.109375 179.707031 118.78125 C 179.707031 116.441406 181.621094 115.054688 183.664063 115.054688 C 185.644531 115.054688 187.566406 116.390625 187.566406 118.71875 C 187.566406 120.988281 185.589844 122.390625 183.664063 122.390625 "/>
<path style=" stroke:none;fill-rule:nonzero;fill:rgb(0%,68.199158%,93.699646%);fill-opacity:1;" d="M 210.339844 136.597656 C 210.21875 133.566406 208.472656 130.777344 204.917969 130.777344 C 201.136719 130.777344 198.863281 133.804688 198.398438 137.238281 L 210.339844 137.238281 C 210.339844 137.121094 210.339844 136.71875 210.339844 136.597656 Z M 215.347656 141.839844 L 198.277344 141.839844 C 198.746094 146.324219 202.007813 149.40625 206.613281 149.40625 C 209.058594 149.40625 211.617188 148.832031 213.769531 148.011719 C 214.007813 147.957031 214.175781 147.84375 214.414063 147.84375 C 214.824219 147.84375 215.113281 148.070313 215.222656 148.535156 L 216.046875 151.507813 C 216.101563 151.796875 216.15625 152.03125 216.15625 152.203125 C 216.15625 152.617188 215.929688 152.898438 215.222656 153.199219 C 212.375 154.480469 208.472656 155.058594 205.445313 155.058594 C 196.304688 155.058594 190.886719 149.238281 190.886719 140.148438 C 190.886719 131.414063 196.648438 125.363281 205.324219 125.363281 C 208.886719 125.363281 211.789063 126.695313 213.828125 128.855469 C 216.511719 131.644531 217.261719 135.316406 217.261719 139.277344 L 217.261719 140.148438 C 217.261719 141.546875 216.800781 141.839844 215.347656 141.839844 "/>
<path style=" stroke:none;fill-rule:nonzero;fill:rgb(0%,68.199158%,93.699646%);fill-opacity:1;" d="M 236.953125 153.714844 C 235.144531 154.480469 232.761719 155.058594 230.429688 155.058594 C 227.457031 155.058594 224.894531 154.300781 223.441406 152.617188 C 221.636719 150.574219 221.574219 148.1875 221.574219 143.9375 L 221.574219 130.953125 L 220.101563 130.953125 C 218.996094 130.953125 218.820313 130.71875 218.820313 129.492188 L 218.820313 127.28125 C 218.820313 126.585938 219.175781 126.113281 219.867188 126.113281 L 221.574219 126.113281 L 221.574219 119.769531 C 221.574219 118.78125 222.101563 118.484375 223.035156 118.371094 L 227.226563 117.84375 C 227.34375 117.84375 227.402344 117.84375 227.515625 117.84375 C 228.277344 117.84375 228.628906 118.253906 228.628906 119.125 L 228.628906 126.113281 L 235.210938 126.113281 C 235.902344 126.113281 236.308594 126.347656 236.308594 127.101563 L 236.308594 129.839844 C 236.308594 130.539063 235.847656 130.953125 235.144531 130.953125 L 228.628906 130.953125 L 228.628906 144.285156 C 228.628906 146.03125 228.738281 147.3125 229.378906 148.25 C 229.90625 148.996094 230.722656 149.472656 232.117188 149.472656 C 233.574219 149.472656 234.792969 149.117188 235.847656 148.765625 C 236.078125 148.714844 236.257813 148.65625 236.425781 148.65625 C 236.835938 148.65625 237.074219 148.886719 237.183594 149.355469 L 237.765625 152.261719 C 237.824219 152.4375 237.824219 152.496094 237.824219 152.617188 C 237.824219 153.199219 237.535156 153.488281 236.953125 153.714844 "/>
<path style=" stroke:none;fill-rule:nonzero;fill:rgb(0%,68.199158%,93.699646%);fill-opacity:1;" d="M 266.777344 127.511719 L 255.304688 157.675781 C 252.679688 164.609375 249.414063 167.054688 242.433594 167.054688 C 241.324219 167.054688 240.332031 167 239.347656 166.765625 C 238.703125 166.648438 238.46875 166.296875 238.46875 165.773438 C 238.46875 165.601563 238.53125 165.480469 238.53125 165.25 L 238.941406 162.226563 C 239.054688 161.46875 239.347656 161.171875 239.984375 161.171875 C 240.101563 161.171875 240.21875 161.171875 240.332031 161.171875 C 241.03125 161.234375 241.734375 161.347656 242.3125 161.347656 C 245.929688 161.347656 247.441406 160.066406 248.605469 157.335938 L 249.710938 154.710938 L 239.109375 127.402344 C 239.054688 127.222656 238.996094 127.101563 238.996094 126.929688 C 238.996094 126.464844 239.347656 126.113281 239.867188 126.113281 L 245.457031 126.113281 C 246.277344 126.113281 246.683594 126.523438 246.914063 127.101563 L 253.382813 146.386719 L 259.488281 127.453125 C 259.789063 126.523438 260.253906 126.113281 261.242188 126.113281 L 265.960938 126.113281 C 266.539063 126.113281 266.886719 126.464844 266.886719 126.929688 C 266.886719 127.101563 266.835938 127.28125 266.777344 127.511719 "/>
<path style=" stroke:none;fill-rule:nonzero;fill:rgb(0%,68.199158%,93.699646%);fill-opacity:1;" d="M 277.523438 167.046875 L 279.496094 167.046875 L 279.496094 1.042969 L 277.523438 1.042969 L 277.523438 167.046875 "/>
</g>
</svg>
