<?xml version="1.0" encoding="utf-8"?>
<!-- Generator: Adobe Illustrator 26.0.3, SVG Export Plug-In . SVG Version: 6.00 Build 0)  -->
<svg version="1.1" id="Layer_1" xmlns="http://www.w3.org/2000/svg" xmlns:xlink="http://www.w3.org/1999/xlink" x="0px" y="0px"
	 viewBox="0 0 550.29 350" style="enable-background:new 0 0 550.29 350;" xml:space="preserve">
<style type="text/css">
	.st0{fill:#E4166E;}
	.st1{clip-path:url(#SVGID_00000145739555199264697020000004117164691088892596_);fill:none;}
	.st2{fill:#FFFFFF;}
	.st3{fill:#282828;}
</style>
<rect class="st0" width="550.29" height="350"/>
<g>
	<defs>
		<rect id="SVGID_1_" x="471.2" y="148.87" width="79.09" height="79.09"/>
	</defs>
	<clipPath id="SVGID_00000178900646767028415260000002715052505545717129_">
		<use xlink:href="#SVGID_1_"  style="overflow:visible;"/>
	</clipPath>
	
		<rect x="117.63" style="clip-path:url(#SVGID_00000178900646767028415260000002715052505545717129_);fill:none;" width="79.09" height="79.09"/>
	
		<rect x="196.72" y="270.91" style="clip-path:url(#SVGID_00000178900646767028415260000002715052505545717129_);fill:none;" width="79.09" height="79.09"/>
	
		<rect y="167.01" style="clip-path:url(#SVGID_00000178900646767028415260000002715052505545717129_);fill:none;" width="79.09" height="79.09"/>
</g>
<g>
	<path class="st2" d="M457.46,176.79c-2.69,13.68-14.5,19.12-26.18,21.75l-0.01-0.03c-6.1,1.32-13.86,2.56-23.75,3.56
		c-2.05,0.21-4.02,0.35-6.57,0.72c-0.58-1.61-1.17-3.02-1.76-4.29c-0.35-0.76-0.72-1.52-1.13-2.28c-0.07-0.13-0.13-0.23-0.2-0.35
		c-0.23-0.4-0.45-0.81-0.69-1.21c-0.25-0.41-0.49-0.78-0.72-1.14c-9.83-15.14-31.35-27.38-45.58-30.39
		c-4.57-0.95-9.55-0.17-12.25,3.39c-0.85,1.04-2.51,3.65-2.07,7.73c0.42,3.93,1.91,13.7,0.69,23.25c0,0,0.01,0,0.02,0
		c-1.94,15.44-8.46,26.38-19.02,31.44c-4.09,1.96-8.15,2.68-11.6,2.69c-9.05-0.54-14.2-7.94-16.7-14.22
		c-1.76-4.42-2.79-11.09-3.35-16c-0.21-3.1-0.27-6.3-0.28-9.61c-0.1-7.49-16.68-7.76-17.47-0.41c-1.13,10.45-3.4,21.5-7.61,31.16
		c-2.22,5.2-5.69,11.44-10.33,14.98c-2.35,1.82-4.39,2.8-6.02,0.5c-4.95-6.71-2.63-22.3-0.98-29.69
		c1.71-7.57-14.19-11.08-15.82-3.52c-2.88,12.88-4.68,31.53,3.7,42.82c7.34,10.04,19.37,10.17,28.96,2.88
		c6.4-4.95,11.22-12.46,14.87-20.48c2.34,5.14,11.28,20.47,33.67,18.21l-0.03-0.04c5.4-0.37,10.97-1.74,16.19-4.24
		c5.57-2.67,12.84-7.6,18.72-16.45c0.61-0.9,1.17-1.82,1.72-2.77c0.09-0.16,0.18-0.31,0.27-0.47c0.47-0.85,0.92-1.72,1.34-2.6
		c2.26-4.57,4.13-9.95,5.38-16.28c2.19-10.28,2.37-19.43,2.37-22.01c5.12,0.59,17.15,6.28,24.2,14.58c0.24,0.32,3.24,4.33,4.94,8.56
		c-14.92,4.43-29.84,12.72-33.01,28.26c-1.67,8.16,1.23,16.08,7.04,19.26c2.35,1.29,5.93,2.33,10.14,2.49
		c8.98,0.33,20.81-3.39,29.66-17.43c4.25-6.74,5.51-13.93,5.22-20.65c3.73-0.48,21.16-2.59,27.64-4c17.1-3.73,32.85-8.46,39.35-25.5
		C474.83,177.61,458.94,169.43,457.46,176.79z M384.97,230.77c-7.23,11.47-15.58,10.46-18.29,9.76c-0.2-0.91-0.25-2.76,0.99-5.22
		c1.53-3.02,6.21-9.04,20.08-13.43C387.54,224.95,386.72,227.99,384.97,230.77z"/>
	<path class="st3" d="M264.84,255.92c-5.58,4.24-11.83,6.49-18.07,6.49c-8.11,0-15.38-3.82-20.42-10.72
		c-5.5-7.4-10.81-21.79-4.89-48.28c1.25-5.8,6.41-9.55,13.13-9.55c0.48,0,0.95,0.04,1.43,0.08c1.64-4.39,3.05-8.78,4.15-13.08
		l23.53-6.57v-16.1h-65.76v16.11l20.12,5.37c-2.66,10.41-7.11,20.97-12.93,30.71l-33.99-36.89c-1.97-2.12-3.77-4.15-5.49-6.1
		c-1.01-1.14-1.99-2.25-2.97-3.33c24.02-11.35,37.36-28.43,36.67-47.03c-0.84-22.67-17.91-37.91-42.47-37.91
		c-24.63,0-50.8,16.35-50.8,46.64c0,11.56,4.6,23.32,14.47,36.93c-19.22,8.89-41.46,24.88-41.46,51.2c0,33.14,25.1,55.4,62.46,55.4
		c21.27,0,40.5-7.04,57.16-20.93l0.36-0.03c0.57,0.6,1.18,1.25,1.81,1.94c7.01,7.55,19.05,22.47,39.24,20.49
		c15.52-1.52,23.91-10.06,28.41-18.08C267.34,253.82,266.11,254.93,264.84,255.92z M149.96,97.75c10.99,0,22.75,11.11,22.75,27.64
		c0,11.18-5.89,18.91-20.29,26.53c-14.6-18-17.62-27.55-17.62-36.3C134.81,104.09,140.19,97.75,149.96,97.75z M152.95,246.1
		c-23.49,0-41.21-15.61-41.21-36.32c0-15.42,6.02-25.43,20.07-33.32c2.28,2.53,4.78,5.28,7.28,8.03l45.6,49.86
		C175.04,242.05,164.09,246.1,152.95,246.1z"/>
</g>
</svg>
