<svg xmlns:xlink="http://www.w3.org/1999/xlink" xmlns="http://www.w3.org/2000/svg" fill="none" viewBox="0.5 0 123 40"><g clip-path="url(#a)"><path fill="#000" d="M113.45 20.62c0 5.39-1.2 9.24-1.62 10.85h-7.8v-.35c.98-2.24 2.1-5.25 2.1-8.33 0-3.43-1.26-5.25-3.5-5.25-3.1 0-4.08 3.92-4.08 7.91v6.02h-7.73V9.42h7.87l-2.04 9.87h1.06C99.46 10.12 102.84 9 106.07 9c5.55 0 7.38 5.6 7.38 11.62Zm-23.76-.14c0 6.3-4.64 11.41-12.23 11.41-7.52 0-12.23-5.11-12.23-11.41S70.01 9 77.46 9c7.38 0 12.23 5.18 12.23 11.48Zm-6.96 0c0-2.8-2.39-4.2-5.27-4.2-2.88 0-5.27 1.33-5.27 4.2 0 2.8 2.32 4.2 5.27 4.2 2.95.07 5.27-1.33 5.27-4.2ZM31.57 37h-7.95V9.42h8.23l-1.9 7.56h.98C31.92 11.59 34.8 9 38.67 9c5.69 0 9.06 5.04 9.06 11.41s-3.37 11.48-9.06 11.48c-4.3 0-7.74-2.38-7.95-8.68h-.91L31.57 37Zm9-16.73c0-2.8-2.05-4.2-4.72-4.2-2.6 0-4.7 1.33-4.7 4.2s2.03 4.2 4.7 4.2c2.67.07 4.71-1.26 4.71-4.2Zm15.8-.98h-.98l1.76-9.87h-7.87v22.05H57V25.1c0-5.39 1.76-7.84 4.43-7.84 1.05 0 1.75.21 2.67.7h.42V9c-5.27 0-7.03 2.52-8.15 10.29ZM119 23.63c-2.67 0-4.5 1.89-4.5 4.13s1.76 4.13 4.5 4.13 4.5-1.89 4.5-4.13-1.83-4.13-4.5-4.13ZM22.3 31.05v.42h-8.44v-.35A8.98 8.98 0 0 0 17.02 23h-.78c.43 4.55-3.02 8.96-8.71 8.96-4.29 0-7.03-3.08-7.03-6.23 0-4.27 4-6.72 9-6.72 2.18 0 4.64.63 6.25 1.75.28-2.94-1.97-4.76-4.92-4.76-4.22 0-7.17 3.5-7.17 3.5h-.49L.64 12.64C3.03 10.54 6.47 9 11.18 9c5.7 0 10.55 2.94 10.55 7.07 0 2.94-1.97 4.76-4.36 4.97v.7c1.76 1.12 4.92 3.64 4.92 9.31Zm-6.75-9.17a7.9 7.9 0 0 0-3.58-.98c-1.97 0-3.3 1.05-3.3 2.66 0 1.47 1.12 2.52 2.6 2.52 2.1-.07 3.72-1.75 4.28-4.2Z"/></g><defs><clipPath id="a"><path fill="#fff" d="M.5 0h123v40H.5z"/></clipPath></defs></svg>