<?xml version="1.0" encoding="UTF-8" standalone="no"?>
<!-- Created with Inkscape (http://www.inkscape.org/) -->

<svg
   xmlns:dc="http://purl.org/dc/elements/1.1/"
   xmlns:cc="http://creativecommons.org/ns#"
   xmlns:rdf="http://www.w3.org/1999/02/22-rdf-syntax-ns#"
   xmlns:svg="http://www.w3.org/2000/svg"
   xmlns="http://www.w3.org/2000/svg"
   xmlns:sodipodi="http://sodipodi.sourceforge.net/DTD/sodipodi-0.dtd"
   xmlns:inkscape="http://www.inkscape.org/namespaces/inkscape"
   width="148.81837"
   height="58.612499"
   id="svg4722"
   version="1.1"
   inkscape:version="0.48.4 r9939"
   sodipodi:docname="Argus Media Logo.svg">
  <defs
     id="defs4724">
    <clipPath
       id="clipPath3001"
       clipPathUnits="userSpaceOnUse">
      <path
         inkscape:connector-curvature="0"
         id="path3003"
         d="m 0,0 595.276,0 0,841.89 L 0,841.89 0,0 z" />
    </clipPath>
  </defs>
  <sodipodi:namedview
     id="base"
     pagecolor="#ffffff"
     bordercolor="#666666"
     borderopacity="1.0"
     inkscape:pageopacity="0.0"
     inkscape:pageshadow="2"
     inkscape:zoom="0.35"
     inkscape:cx="-649.0471"
     inkscape:cy="-171.65374"
     inkscape:document-units="px"
     inkscape:current-layer="layer1"
     showgrid="false"
     inkscape:window-width="1287"
     inkscape:window-height="787"
     inkscape:window-x="78"
     inkscape:window-y="78"
     inkscape:window-maximized="0"
     fit-margin-top="0"
     fit-margin-left="0"
     fit-margin-right="0"
     fit-margin-bottom="0" />
  <metadata
     id="metadata4727">
    <rdf:RDF>
      <cc:Work
         rdf:about="">
        <dc:format>image/svg+xml</dc:format>
        <dc:type
           rdf:resource="http://purl.org/dc/dcmitype/StillImage" />
        <dc:title></dc:title>
      </cc:Work>
    </rdf:RDF>
  </metadata>
  <g
     inkscape:label="Ebene 1"
     inkscape:groupmode="layer"
     id="layer1"
     transform="translate(-275.59081,-489.88623)">
    <g
       id="g3005"
       transform="matrix(1.25,0,0,-1.25,279.76206,548.49873)">
      <path
         inkscape:connector-curvature="0"
         d="m 0,0 c 4.36,15.903 24.344,36.793 54.931,46.89 l -58.268,0 L -3.337,0 0,0 z"
         style="fill:#6caddf;fill-opacity:1;fill-rule:nonzero;stroke:none"
         id="path3007" />
    </g>
    <g
       id="g3009"
       transform="matrix(1.25,0,0,-1.25,388.50419,489.88673)">
      <path
         inkscape:connector-curvature="0"
         d="m 0,0 c -43.835,0 -78.965,-25.586 -86.561,-46.889 l 115.285,0 L 28.724,0 0,0 z"
         style="fill:#005daa;fill-opacity:1;fill-rule:nonzero;stroke:none"
         id="path3011" />
    </g>
    <g
       id="g3013"
       transform="matrix(1.25,0,0,-1.25,357.60569,535.54585)">
      <path
         inkscape:connector-curvature="0"
         d="M 0,0 C -0.748,0.29 -1.375,0.87 -1.667,1.643 -2.655,0.531 -3.719,0.194 -5.024,0.194 c -2.799,0 -4.055,1.497 -4.055,3.622 0,2.824 2.125,4.249 6.037,4.249 l 0.82,0 0,0.651 c 0,1.401 -0.241,2.151 -1.69,2.151 -1.763,0 -3.645,-1.401 -3.645,-1.401 l -1.184,1.906 c 1.835,1.16 3.356,1.667 5.191,1.667 1.908,0 3.188,-0.701 3.718,-2.029 0.22,-0.531 0.22,-1.182 0.193,-2.993 L 0.314,4.516 C 0.29,2.873 0.435,2.342 1.376,1.691 L 0,0 z m -2.753,6.278 c -2.655,0 -3.453,-0.773 -3.453,-2.317 0,-1.159 0.628,-1.836 1.69,-1.836 0.846,0 1.667,0.459 2.198,1.231 l 0.05,2.897 c 0,0 -0.292,0.025 -0.485,0.025"
         style="fill:#ffffff;fill-opacity:1;fill-rule:nonzero;stroke:none"
         id="path3015" />
    </g>
    <g
       id="g3017"
       transform="matrix(1.25,0,0,-1.25,369.34219,522.5381)">
      <path
         inkscape:connector-curvature="0"
         d="m 0,0 c -0.264,0.098 -0.458,0.169 -0.773,0.169 -1.11,0 -2.053,-0.819 -2.293,-1.81 l 0,-8.257 -2.633,0 0,8.619 c 0,1.546 -0.168,2.535 -0.433,3.284 l 2.438,0.628 c 0.289,-0.555 0.459,-1.255 0.459,-1.932 0.965,1.328 1.931,1.956 3.114,1.956 0.387,0 0.628,-0.048 0.942,-0.194 L 0,0 z"
         style="fill:#ffffff;fill-opacity:1;fill-rule:nonzero;stroke:none"
         id="path3019" />
    </g>
    <g
       id="g3021"
       transform="matrix(1.25,0,0,-1.25,386.71956,521.08835)">
      <path
         inkscape:connector-curvature="0"
         d="m 0,0 c -0.771,-0.677 -1.545,-0.796 -2.125,-0.796 -0.337,0 -0.603,0.048 -0.917,0.119 0.699,-0.82 0.773,-1.689 0.773,-2.099 0,-1.039 -0.362,-1.835 -0.991,-2.463 -0.916,-0.917 -2.318,-1.329 -3.645,-1.305 -0.049,-0.024 -0.578,-0.218 -1.038,-0.482 -0.242,-0.145 -0.605,-0.386 -0.605,-0.677 0,-0.144 0.049,-0.241 0.122,-0.313 0.095,-0.096 0.339,-0.146 1.086,-0.169 l 1.256,-0.025 c 1.207,-0.022 2.705,-0.072 3.741,-1.134 0.46,-0.459 0.895,-1.183 0.895,-2.343 0,-1.255 -0.507,-2.077 -1.014,-2.583 -0.846,-0.844 -2.318,-1.423 -4.467,-1.423 -1.715,0 -3.598,0.337 -4.611,1.351 -0.653,0.652 -0.797,1.4 -0.797,1.98 0,0.434 0.096,0.917 0.241,1.304 l 2.342,0 c -0.024,-0.145 -0.047,-0.412 -0.047,-0.604 0,-0.362 0.047,-0.966 0.506,-1.401 0.602,-0.579 1.666,-0.627 2.174,-0.627 1.351,0 2.099,0.386 2.485,0.796 0.315,0.339 0.436,0.701 0.436,1.111 0,0.556 -0.218,0.869 -0.41,1.062 -0.267,0.242 -0.749,0.483 -1.738,0.58 -0.387,0.024 -0.75,0.049 -1.135,0.049 -0.508,0 -1.016,0 -1.524,0.048 -1.496,0.121 -1.978,0.506 -2.149,0.653 -0.361,0.336 -0.433,0.771 -0.433,1.109 0,0.483 0.097,0.845 0.482,1.232 0.483,0.482 1.425,0.796 1.835,0.917 -1.063,0.29 -1.688,0.894 -1.835,1.015 -0.701,0.699 -0.941,1.52 -0.941,2.462 0,1.183 0.433,2.052 1.014,2.68 0.796,0.87 2.175,1.449 3.839,1.449 1.087,0 1.908,-0.241 2.439,-0.387 0.386,-0.097 0.844,-0.241 1.352,-0.241 0.773,0 1.569,0.314 2.174,0.845 L 0,0 z m -5.626,-1.062 c -0.482,0.483 -1.207,0.531 -1.569,0.531 -0.457,0 -1.111,-0.096 -1.57,-0.555 -0.481,-0.507 -0.53,-1.184 -0.53,-1.57 0,-0.482 0.072,-1.111 0.554,-1.569 0.484,-0.46 1.184,-0.507 1.546,-0.507 0.337,0 1.063,0.024 1.569,0.531 0.484,0.483 0.532,1.208 0.532,1.569 0,0.483 -0.096,1.135 -0.532,1.57"
         style="fill:#ffffff;fill-opacity:1;fill-rule:nonzero;stroke:none"
         id="path3023" />
    </g>
    <g
       id="g3025"
       transform="matrix(1.25,0,0,-1.25,398.78619,535.39447)">
      <path
         inkscape:connector-curvature="0"
         d="M 0,0 C -0.532,0.387 -0.845,0.822 -1.063,1.57 -1.956,0.556 -3.139,0.073 -4.54,0.073 c -1.375,0 -2.439,0.483 -3.042,1.207 -0.483,0.579 -0.677,1.375 -0.677,2.898 l 0,8.233 2.633,0.483 0,-8.186 c 0,-1.521 0.218,-2.632 1.715,-2.632 0.869,0 1.955,0.725 2.365,1.593 l 0,8.742 2.633,0.483 0,-9.199 c 0,-1.836 0.748,-2.44 0.748,-2.44 L 0,0 z"
         style="fill:#ffffff;fill-opacity:1;fill-rule:nonzero;stroke:none"
         id="path3027" />
    </g>
    <g
       id="g3029"
       transform="matrix(1.25,0,0,-1.25,409.30682,535.33397)">
      <path
         inkscape:connector-curvature="0"
         d="m 0,0 c -1.499,0 -3.115,0.483 -4.685,1.353 l 0.941,1.907 c 1.087,-0.627 2.585,-1.28 3.961,-1.28 1.158,0 1.979,0.7 1.979,1.714 0,0.941 -0.602,1.425 -1.979,1.715 l -1.474,0.314 c -1.834,0.386 -2.921,1.641 -2.921,3.356 0,2.294 1.834,3.791 4.54,3.791 1.665,0 2.994,-0.508 4.032,-1.064 L 3.524,9.972 C 2.389,10.6 1.496,10.89 0.53,10.89 c -1.135,0 -1.858,-0.532 -1.858,-1.474 0,-0.772 0.41,-1.158 1.641,-1.473 L 1.835,7.559 C 4.296,6.929 4.948,5.578 4.948,4.152 4.948,1.689 2.946,0 0,0"
         style="fill:#ffffff;fill-opacity:1;fill-rule:nonzero;stroke:none"
         id="path3031" />
    </g>
  </g>
</svg>
