<?xml version="1.0" encoding="utf-8"?>
<!-- Generator: Adobe Illustrator 19.2.1, SVG Export Plug-In . SVG Version: 6.00 Build 0)  -->
<svg version="1.1" id="layer" xmlns="http://www.w3.org/2000/svg" xmlns:xlink="http://www.w3.org/1999/xlink" x="0px" y="0px"
	 viewBox="0 0 652 652" style="enable-background:new 0 0 652 652;" xml:space="preserve">
<path d="M170.7,545.3c0,9.7-5.5,14.9-13.9,14.9c-1.8,0-3.5-0.3-5.1-0.8c-1.6-0.6-3.1-1.5-4.3-2.6c-1.2-1.1-2.2-2.5-2.9-4
	c-0.6-1.5-1-3.1-0.9-4.8v-36.1h-18.7v37.8c0,16.4,11.1,26.7,26.4,26.7c3.6,0,7.2-0.7,10.5-2c3.3-1.3,6.3-3.3,8.9-5.8v6.4h18.7v-63.2
	h-18.7V545.3z M414.8,503.7c-4.6,0-9,1.1-13.1,3.3c-4,2.2-7.5,5.2-10.2,9c-1.8-3.7-4.5-6.9-8.1-9.1c-3.5-2.2-7.5-3.3-11.6-3.2
	c-3.6,0.1-7.1,1.1-10.3,2.8c-3.2,1.8-5.9,4.3-8,7.3v-8.7h-19v71.1h19v-37c0-10.9,5.6-16.7,12.7-16.7c6.3,0,11.3,5.1,11.3,14.5v39.2
	h19v-37c0-10.9,5.6-16.7,12.7-16.7c6.3,0,11.2,5.1,11.2,14.5v39.2h19v-41.4C439.4,513.8,429.5,503.7,414.8,503.7 M480.8,503.7
	c-5.5,0-11.1,1.1-16.1,3.5c-5,2.4-9.4,5.8-12.8,10l11.1,10.7c2-2.3,4.5-4.2,7.3-5.4c2.8-1.2,5.9-1.8,9-1.7c8.1,0,12.6,4.3,12.6,10
	l-23,4c-13.4,2.3-21.5,10.2-21.5,21.6c0,10.7,9.6,20,24.5,20c3.7,0,7.4-0.8,10.9-2.3c3.4-1.5,6.5-3.6,9.1-6.3v7.1h20v-43.4
	C512,515.8,499.4,503.7,480.8,503.7L480.8,503.7z M491.9,544.9c0,10-5.9,15.6-14.8,15.6c-6.7,0-9.6-2.8-9.6-7.1c0-4.3,2.9-7,8.1-7.9
	l16.3-2.8L491.9,544.9z M601.8,503.7c-5.5,0-11.1,1.1-16.1,3.5c-5,2.3-9.4,5.8-12.8,10l11.1,10.7c1.9-2.3,4.5-4.1,7.3-5.4
	c2.9-1.2,5.9-1.8,9-1.7c8.1,0,12.6,4.3,12.6,10l-23,4c-13.4,2.3-21.5,10.2-21.5,21.6c0,10.7,9.7,20,24.5,20c3.7,0,7.5-0.8,10.9-2.3
	c3.4-1.5,6.5-3.6,9.1-6.3v7.1h20v-43.4C632.9,515.8,620.3,503.7,601.8,503.7L601.8,503.7z M612.9,544.9c0,10-5.9,15.6-14.8,15.6
	c-6.7,0-9.7-2.8-9.7-7.1c0-4.3,3-7,8.2-7.9l16.3-2.8V544.9z M290.2,503.7c-48.4,0-48.4,72.6,0,72.6S338.6,503.7,290.2,503.7
	L290.2,503.7z M290.2,559.3c-17.5,0.8-27-20.1-15-32.8c12.1-12.7,33.4-4.1,33.5,13.4C308.9,550.4,300.7,559.1,290.2,559.3
	 M238.6,559.5c-4.3-0.2-7.8-2.2-7.8-8.2V524h15.1v-16.5h-15.1v-19.9h-18.1v11c0.1,1.1,0,2.2-0.3,3.2c-0.3,1.1-0.9,2-1.7,2.9
	c-0.8,0.8-1.8,1.5-2.9,2c-1.1,0.5-2.2,0.8-3.4,0.8h-6.8V524h12.8v28.9c0,15.7,9.5,23.4,23.6,23.4h0c7.2,0.2,14.2-2.1,19.9-6.5
	l-8.1-12.1C243.6,559,241.1,559.6,238.6,559.5 M555.3,559.5c-3.7-0.2-6.7-2.2-6.7-8.2V524h12.9v-16.5h-12.9v-19.9H533v11
	c0.2,2.2-0.4,4.4-1.8,6.1c-0.7,0.8-1.5,1.5-2.4,2c-0.9,0.5-1.9,0.8-2.9,0.8H520V524h11v28.9c0,15.7,8.1,23.4,20.2,23.4h0
	c6.3,0.1,12.4-2.2,17.1-6.5l-6.9-12.1C559.6,559,557.4,559.6,555.3,559.5 M57.5,479.5l-37.5,96.8h21.8l8.4-22.8h36.4l8.4,22.8h21.8
	l-37.5-96.8H57.5z M52.8,546.4l15.6-42.7l10.2,27.6L52.8,546.4z M428.8,317.8c36.4-21,80.5,10.7,72.4,51.9
	c-4.5,22.9-24.6,39.4-48,39.4H270.8L428.8,317.8z M230.8,360.1c0,32.1-30.5,55.6-61.5,47.3c-31.1-8.3-45.8-43.8-29.7-71.7l91.2-158
	V360.1z M293.1,167.5c-27.9-16-32.9-54.2-10.2-76.9c22.7-22.8,60.9-17.7,76.9,10.2l91.2,158L293.1,167.5z M293.1,167.5"/>
</svg>
