<svg enable-background="new 0 0 652 652" viewBox="0 0 652 652" xmlns="http://www.w3.org/2000/svg" xmlns:xlink="http://www.w3.org/1999/xlink"><linearGradient id="a" gradientTransform="matrix(1 0 0 -1 0 652)" gradientUnits="userSpaceOnUse" x1="24.3874" x2="162.2116" y1="325.5273" y2="362.4553"><stop offset=".2" stop-color="#ff5800"/><stop offset=".24" stop-color="#ff7000"/><stop offset=".32" stop-color="#ff9500"/><stop offset=".4" stop-color="#ffb200"/><stop offset=".47" stop-color="#ffc600"/><stop offset=".55" stop-color="#ffd300"/><stop offset=".62" stop-color="#ffd700"/><stop offset=".66" stop-color="#ffce00"/><stop offset=".72" stop-color="#ffb600"/><stop offset=".81" stop-color="#ff8e00"/><stop offset=".9" stop-color="#ff5800"/></linearGradient><linearGradient id="b" gradientTransform="matrix(1 0 0 -1 0 652)" gradientUnits="userSpaceOnUse" x1="29.296" x2="173.4696" y1="312.6653" y2="312.6653"><stop offset=".09" stop-color="#ff5800"/><stop offset=".19" stop-color="#ff7907"/><stop offset=".31" stop-color="#ff990e"/><stop offset=".4" stop-color="#ffad12"/><stop offset=".47" stop-color="#ffb414"/><stop offset=".53" stop-color="#ffad12"/><stop offset=".62" stop-color="#ff980e"/><stop offset=".73" stop-color="#ff7707"/><stop offset=".82" stop-color="#ff5800"/></linearGradient><linearGradient id="c" gradientTransform="matrix(1 0 0 -1 0 652)" gradientUnits="userSpaceOnUse" x1="29.9204" x2="177.747" y1="333.9913" y2="302.5769"><stop offset=".5" stop-color="#ff5800"/><stop offset=".64" stop-color="#ce056a" stop-opacity=".99"/><stop offset=".76" stop-color="#cf0768" stop-opacity=".99"/><stop offset=".81" stop-color="#d20d60" stop-opacity=".99"/><stop offset=".85" stop-color="#d81753" stop-opacity=".99"/><stop offset=".88" stop-color="#e12541" stop-opacity=".99"/><stop offset=".91" stop-color="#ec3829"/><stop offset=".94" stop-color="#f94e0c"/><stop offset=".95" stop-color="#ff5800"/></linearGradient><linearGradient id="d" gradientTransform="matrix(1 0 0 -1 0 652)" gradientUnits="userSpaceOnUse" x1="35.9628" x2="180.7841" y1="277.9754" y2="298.3223"><stop offset="0" stop-color="#ff5800"/><stop offset=".06" stop-color="#fc5400"/><stop offset=".13" stop-color="#f54700"/><stop offset=".19" stop-color="#e83300"/><stop offset=".26" stop-color="#d61600"/><stop offset=".3" stop-color="#c80000"/><stop offset=".48" stop-color="#c80000"/><stop offset=".91" stop-color="#ff5800"/></linearGradient><path d="m234.7 311.4c-3.4 0-6.8.3-10.2 1-2.7.4-5.4 1.3-7.9 2.6l1 9.8c2.6-.8 5.2-1.4 7.9-1.8 2.3-.4 4.7-.5 7-.5 9 0 13.4 3.4 13.4 10.3v2.3c-2.9-.5-5.9-.7-8.8-.6-7.8 0-14 1.7-18.6 5.2-4.5 3.4-7 8.8-6.8 14.4 0 12.6 8.6 18.9 25.8 18.9 7.4-.1 14.7-1.1 21.8-3.2v-36.1c.2-14.8-8.1-22.3-24.6-22.3zm11.4 50.4c-2.8.7-5.7 1.1-8.6 1-8.1 0-12.2-2.9-12.2-8.8 0-6.2 4.5-9.2 13.4-9.2 2.5-.1 4.9.1 7.3.6v16.4zm19.5-48.9h14.9l14.5 45.3 14.7-45.3h14.3l-22.2 58.8h-13.9zm84.4-1.5c-3.4 0-6.8.3-10.2 1-2.7.4-5.4 1.3-7.9 2.6l1 9.9c2.6-.8 5.2-1.4 7.9-1.8 2.3-.4 4.7-.5 7-.5 9 0 13.4 3.4 13.4 10.3v2.3c-2.9-.5-5.9-.7-8.8-.6-7.8 0-14 1.7-18.6 5.2-4.5 3.4-7 8.8-6.8 14.4 0 12.6 8.6 18.9 25.8 18.9 7.4-.1 14.7-1.1 21.8-3.2v-36.1c.1-14.9-8.1-22.4-24.6-22.4zm11.3 50.4c-2.8.7-5.7 1.1-8.6 1-8.1 0-12.2-2.9-12.2-8.8 0-6.2 4.5-9.2 13.4-9.2 2.5-.1 4.9.1 7.3.6v16.4zm65.4-24.8c0-5.3-1-9-3-11s-5.6-3-10.8-3c-1.5 0-3 .2-4.5.4-1.7.3-3.3.6-4.9 1v47.2h-13.6v-55.8c3.9-1.5 7.9-2.6 11.9-3.3 4.3-.8 8.6-1.2 13-1.2 17.1 0 25.6 7.7 25.6 23.1v37.1h-13.6v-34.5zm47.2-25.6c-3.4 0-6.8.3-10.2 1-2.7.4-5.4 1.3-7.9 2.6l1 9.9c2.6-.8 5.2-1.4 7.9-1.8 2.3-.4 4.7-.5 7-.5 9 0 13.4 3.4 13.4 10.3v2.3c-2.9-.5-5.9-.7-8.8-.6-7.8 0-14 1.7-18.6 5.2-4.5 3.4-7 8.8-6.8 14.4 0 12.6 8.6 18.9 25.8 18.9 7.4-.1 14.7-1.1 21.8-3.2v-36.1c.2-14.9-8.1-22.4-24.6-22.4zm11.3 50.4c-2.8.7-5.7 1.1-8.6 1-8.1 0-12.2-2.9-12.2-8.8 0-6.2 4.5-9.2 13.4-9.2 2.5-.1 4.9.1 7.3.6v16.4zm64.2-71.6v22.5c-3.2-.9-6.5-1.3-9.9-1.2-9 0-16.2 2.9-21.8 8.7s-8.4 13.4-8.4 22.8c0 9.8 2.7 17.3 8.2 22.5s13.4 7.8 23.9 7.8c7.3-.1 14.6-1.2 21.6-3.2v-79.8h-13.6zm0 70.7c-2.7.7-5.6 1-8.4.8-11.6 0-17.4-6.4-17.4-19.1 0-6.4 1.5-11.4 4.5-14.9s7.2-5.3 12.7-5.2c2.9-.1 5.9.4 8.6 1.5zm77.1-21.8c0-8.5-2.2-15.3-6.7-20.3s-10.6-7.5-18.3-7.5c-8.4 0-15.1 2.8-20 8.4-5 5.6-7.5 13.2-7.5 22.8s2.7 17.1 8 22.5c5.3 5.3 12.9 8 22.7 8 6.3 0 12.5-1.1 18.3-3.3l-1.5-10.3c-5.1 1.7-10.4 2.6-15.7 2.5-11.5 0-17.4-5.2-17.7-15.5h38.4zm-38.4-2.9c.2-3.9 1.6-7.5 4.1-10.5 2.3-2.5 5.5-3.9 8.9-3.8 3.4-.1 6.6 1.3 8.8 3.8s3.4 6 3.4 10.5z" fill="#ff5800"/><path d="m65.9 287.8c-4.6 9-8.4 16.2-11.3 21.6-2.4 4.5-5 8.9-7.9 13.1-2.2 3.1-4.7 5.9-7.7 8.2-3.3 2.5-6.7 4.9-10.3 7l-2.3-3.6c2.6-1.9 5-3.8 7.1-5.7 2.5-2.4 4.8-5 6.7-7.9 3-4.3 5.8-8.9 8.4-13.5 3.2-5.6 7.1-13.2 11.7-22.8 2.8-5.9 5.9-11.6 9.5-17 2.5-3.8 5.4-7.3 8.7-10.4 2.4-2.2 5.1-4 8.1-5.2 2.5-1 5.2-1.4 7.9-1.4 2.6.1 5.2.8 7.6 1.9 3.2 1.7 6 4.1 8.2 6.9 3.8 4.6 7.1 9.5 10 14.7 3.7 6.4 8 14.8 13.1 25.3 2.7 5.8 5.8 11.4 9.2 16.8 2.5 4.1 5.5 7.8 8.9 11.2 2.9 2.9 6.3 5.3 10 7.1 4 2 8.1 3.6 12.4 4.8l2.9 4.9c-5.1-.5-10.2-1.6-15-3.3-4.5-1.6-8.7-4.1-12.3-7.2-4.2-3.7-7.9-7.9-11-12.5-4.1-6.1-7.8-12.6-11-19.2-4.7-9.3-8.6-17-11.8-22.8-2.5-4.7-5.4-9.3-8.6-13.6-1.8-2.6-4.1-4.8-6.7-6.6-1.8-1.1-3.9-1.7-6-1.8-2.2-.1-4.3.4-6.3 1.3-2.5 1.2-4.6 3-6.4 5.1-2.7 3-5.1 6.2-7.2 9.6-2.8 4-5.6 9-8.6 15z" fill="url(#a)"/><path d="m134.8 346.9c6.8.2 13.5-.1 20.3-1 6-.8 12-2.2 17.7-4.1l.7 3.7c-9.2 5.9-22.2 8.5-38.9 8-6.6-.1-13.1-1-19.5-2.6-5-1.3-9.9-3.1-14.6-5.3-3.2-1.5-6.3-3-9.1-4.6-2.9-1.6-5.8-3-8.9-4.4-3-1.3-6-2.4-9.1-3.4-3.2-.9-6.6-1.5-10-1.6-5.3-.2-10.7.2-15.9 1.2-5.4 1-10.7 2.4-15.9 4.4l-2.3-2.7 4.3-2.1c4.5-2.5 9.3-4.4 14.3-5.6 5.1-1.3 10.4-1.8 15.7-1.7 3.8.1 7.5.6 11.2 1.6 3.3.9 6.6 2.1 9.7 3.5 3 1.4 6.1 2.9 9.1 4.6s6.2 3.2 9.5 4.7c4.4 2 8.9 3.6 13.6 4.9 5.9 1.6 12 2.5 18.1 2.5z" fill="url(#b)"/><path d="m144.6 297.4c-2.4-.1-4.8.5-6.9 1.7-2.9 1.8-5.5 4.1-7.6 6.7-3.6 4.3-7 8.8-10.1 13.5-3.8 5.7-8.6 13.2-14.3 22.3-7.7 12.4-14.9 21.4-21.5 26.9s-13.5 8.2-20.8 7.9c-7.7-.3-14.9-4.1-21.6-11.5-6.8-7.4-11.9-17.7-15.3-30.8l6.4 1.2c3.5 10.4 8 18.7 13.5 24.9 5.4 6.2 11.2 9.4 17.3 9.6 5.7.2 11.4-2.2 17.1-7.1 5.8-4.9 12.2-13 19.1-24.2 6.3-10 11.6-18.2 15.8-24.5 3.4-5.1 7.1-10 11.2-14.6 2.5-2.9 5.5-5.3 8.9-7 2.8-1.2 5.9-1.8 8.9-1.6 7.3.3 13.7 4.6 19.4 13 5.6 8.4 10.6 21.3 15 38.6l-7-2.9c-4.4-14.3-8.8-24.9-13.2-31.8-4.4-6.6-9.2-10.1-14.3-10.3z" fill="url(#c)"/><path d="m120 395.1c3.6 0 7.2-1.2 10-3.4 3.3-2.4 7.5-7 12.6-13.6 4-5.1 7.2-9.4 9.7-12.7s4.9-6.3 7.2-8.9c2.2-2.6 4.6-5 6.9-7.4 2.4-2.3 5.3-5.2 8.8-8.6l4 2.2c-3.2 3.7-5.9 6.8-8.1 9.3-2.2 2.6-4.3 5.2-6.4 7.9s-4.4 5.7-7 9.1-5.8 7.7-9.8 12.9c-5.4 7.2-10.2 12.4-14.4 15.4-4 3-8.8 4.5-13.8 4.3-2.5-.1-5-.5-7.3-1.4-2.8-1.2-5.3-2.8-7.6-4.7-3.6-3-7-6.3-10.2-9.9-3.9-4.3-8.8-9.8-14.8-16.6-4.5-5.2-8.6-9.5-12.3-13-3.3-3.2-7-6.1-10.9-8.5-3.6-2.1-7.4-3.8-11.4-5.1-4.6-1.3-9.3-2.2-14-2.7l1.6-4.8c4.9.4 9.8 1.1 14.7 2.1 4.3.9 8.4 2.5 12.2 4.7 4.2 2.4 8.1 5.3 11.6 8.6 4.6 4.3 9 8.9 13.1 13.8 6 6.8 10.8 12.3 14.6 16.3s6.9 7.2 9.4 9.3c1.9 1.8 4 3.2 6.3 4.3 1.6.6 3.4 1 5.3 1.1z" fill="url(#d)"/></svg>