<svg xmlns:xlink="http://www.w3.org/1999/xlink" xmlns="http://www.w3.org/2000/svg" class="w-22 h-10 flex-none text-black" data-component="awin-logo" fill="none" viewBox="0 0 88 40"><path d="M31.5 16h-.45c-.6 0-1.15.399-1.4.947L23 34h1.95c.35 0 .65-.2.8-.548l1.8-4.787h7.35l1.85 4.787c.1.299.45.548.8.548h2l-6.7-17.053c-.2-.598-.75-.947-1.35-.947zm-.3 2.892l2.85 7.579h-5.7s2.85-7.629 2.85-7.579z" fill="currentColor"/><path d="M69.438 34h-2.445V16.05h2.445V34zm6.836 0V19.989l9.43 13.413c.25.349.7.598 1.198.598H88V16h-2.245v13.413l-9.082-12.765c-.3-.349-.748-.598-1.198-.598h-1.447V34h2.246zm-20.159 0h2.046l5.489-18h-1.896c-.4 0-.749.25-.849.648l-3.742 13.413-4.341-13.313A1.079 1.079 0 0051.774 16h-.848c-.5 0-.898.3-1.048.748L45.537 30.06l-3.743-13.363a.855.855 0 00-.848-.648H39L44.389 34h2.046l4.84-14.56L56.115 34z" fill="currentColor"/><path d="M21.317 11.657L11.728.105c-.201-.201-.555-.1-.555.2l.808 11.201L5.016 5.58c-.202-.2-.555 0-.504.302l2.775 11.05-6.712-3.918c-.252-.15-.555.1-.454.402l11.759 26.42c.1.251.504.2.555-.05l2.574-13.562 6.56-11.05a3.098 3.098 0 00-.252-3.516z" fill="#F60"/><path d="M11.93 11.506L4.915 5.58c-.202-.2-.555 0-.504.302l2.775 11.05 5.3 3.114-.556-8.539z" fill="#E74030"/><path d="M12.031 33.958c-.1.302-.505.251-.555-.05l-4.24-16.977-6.762-3.968c-.252-.15-.555.1-.454.402l11.759 26.42c.1.25.504.2.555-.05l2.574-13.562-.05.05-2.827 7.735z" fill="#FAB418"/><path d="M12.031 33.958l2.927-7.735-1.312 2.16c-.151.251-.555.15-.555-.15l-.555-8.188-5.3-3.114 4.24 16.977c.05.301.454.352.555.05z" fill="#DE0732"/><path d="M21.216 11.657L11.627.104c-.151-.2-.504-.05-.504.201l.807 11.201 4.845 4.17c.959.803 1.312 2.159.858 3.365l-2.675 7.031v.1l6.56-11.05c.657-1.054.506-2.46-.302-3.465z" fill="#F60"/><path d="M13.898 20.899c1.11.653 1.666 1.909 1.464 3.164l-.404 2.06 2.675-7.032c.454-1.206.1-2.512-.858-3.366l-4.845-4.168.606 8.538 1.362.804z" fill="#DE0733"/><path d="M13.898 20.899l-1.413-.854.555 8.187c0 .302.404.402.556.15l1.261-2.159.05-.15.404-2.06c.303-1.205-.302-2.461-1.413-3.114z" fill="#CC1D46"/></svg>