<?xml version="1.0" encoding="UTF-8" standalone="no"?>
<!-- Created with Inkscape (http://www.inkscape.org/) -->

<svg
   xmlns:dc="http://purl.org/dc/elements/1.1/"
   xmlns:cc="http://creativecommons.org/ns#"
   xmlns:rdf="http://www.w3.org/1999/02/22-rdf-syntax-ns#"
   xmlns:svg="http://www.w3.org/2000/svg"
   xmlns="http://www.w3.org/2000/svg"
   version="1.1"
   width="424.61435"
   height="424.64624"
   id="svg3448">
  <defs
     id="defs3450" />
  <metadata
     id="metadata3453">
    <rdf:RDF>
      <cc:Work
         rdf:about="">
        <dc:format>image/svg+xml</dc:format>
        <dc:type
           rdf:resource="http://purl.org/dc/dcmitype/StillImage" />
        <dc:title></dc:title>
      </cc:Work>
    </rdf:RDF>
  </metadata>
  <g
     transform="translate(-206.82021,-165.03943)"
     id="layer1">
    <path
       d="m 631.43457,589.68568 -424.61436,0 0,-424.64625 424.61436,0 0,424.64625 z"
       id="path320"
       style="fill:#f60;fill-opacity:1;fill-rule:nonzero;stroke:none" />
    <path
       d="m 508.32638,443.82254 c 0,-24.77661 6.98337,-36.63877 18.30344,-36.63877 11.32007,0 18.33533,11.86216 18.33533,36.63877 0,24.77662 -7.01526,36.63878 -18.33533,36.63878 -11.32007,0 -18.30344,-11.86216 -18.30344,-36.63878 m 80.0377,-0.82907 c 1.62626,-43.39893 -20.91822,-67.56968 -61.73426,-67.56968 -37.78672,0 -59.75723,27.45516 -59.75723,68.39875 0,43.14383 21.97051,68.65386 59.75723,68.65386 l 65.52888,0 0,-24.90416 -20.40802,0 c 9.24738,-9.15172 15.87999,-25.03171 16.6134,-44.57877"
       id="path324"
       style="fill:#ffffff;fill-opacity:1;fill-rule:nonzero;stroke:none" />
    <path
       d="m 303.55422,484.70842 -11.54329,0 0,-29.59163 11.54329,0 c 8.51397,0 13.64786,5.99486 13.64786,14.47694 0,8.54586 -5.13389,15.11469 -13.64786,15.11469 m -11.44762,-79.30429 9.59814,0 c 8.38642,0 12.85068,5.54843 12.85068,13.10577 0,7.58924 -4.46426,13.71164 -12.85068,13.71164 l -9.59814,0 0,-26.81741 z m 46.58768,37.24463 c 15.0828,-7.84433 19.32384,-17.3787 19.13252,-32.27018 -0.2551,-19.1644 -13.93485,-33.00359 -41.83644,-33.00359 l -66.48551,0 0,135.23502 67.66535,0 c 23.43733,0 43.90913,-12.85068 43.90913,-37.91428 0,-16.58151 -8.03566,-27.48705 -22.38505,-32.04697"
       id="path328"
       style="fill:#ffffff;fill-opacity:1;fill-rule:nonzero;stroke:none" />
    <path
       d="m 400.04302,485.66855 c -3.57141,-3.76273 -5.42088,-13.07389 6.72827,-20.82256 5.03823,5.58032 10.96931,12.43614 16.54963,19.48329 -9.34305,6.18618 -17.09172,7.9081 -23.2779,1.33927 m 15.21035,-73.53264 c 6.40939,0 11.19252,4.65557 9.94891,11.25629 -0.63775,3.25253 -2.77421,7.78056 -11.22441,12.81879 -5.29333,-5.19767 -9.08795,-9.43871 -9.08795,-13.48842 0,-6.28185 3.95406,-10.58666 10.36345,-10.58666 m 55.16543,100.06307 c -1.17984,-7.97189 -5.51654,-17.12361 -12.08538,-26.97685 2.67856,-2.55101 5.45277,-5.26145 8.25888,-8.22699 l -15.72056,-18.08023 c -2.51911,2.39157 -4.94256,4.68747 -7.33413,6.9196 -3.89028,-4.49614 -8.09943,-9.15172 -12.65935,-13.87108 13.64786,-8.86473 20.08915,-17.6338 20.08915,-31.63243 0,-13.99863 -14.12618,-26.91308 -36.79822,-26.91308 -23.72432,0 -35.93724,14.60449 -35.93724,30.4526 0,9.15172 5.58031,17.15549 11.89405,24.13886 -11.83028,7.62112 -22.09806,17.66569 -22.86336,30.64391 -1.46683,23.2779 16.00754,36.38368 37.91427,35.49083 8.92851,-0.38265 19.00497,-3.53952 30.58014,-10.90554 1.91325,3.41197 3.25253,6.50506 3.69896,8.9604 l 30.96279,0 z"
       id="path332"
       style="fill:#ffffff;fill-opacity:1;fill-rule:nonzero;stroke:none" />
  </g>
</svg>
