<svg xmlns="http://www.w3.org/2000/svg" viewBox="0 0 140 25">
    <path fill="#783BF9" d="M49.36 8.08a9.63 9.63 0 0 1 2.23 3.2c.5 1.17.74 2.44.74 3.8 0 2.77-1 5.1-2.97 7.02-2 1.93-4.4 2.9-7.18 2.9a9.9 9.9 0 0 1-7.17-2.9 9.44 9.44 0 0 1-2.97-7.01V0h3.78v7.37a9.77 9.77 0 0 1 6.36-2.2c2.78 0 5.17.97 7.18 2.9zm-1.32 9.4c.34-.74.5-1.54.5-2.4 0-.84-.16-1.64-.5-2.4a6.39 6.39 0 0 0-8.36-3.31 6.43 6.43 0 0 0-3.36 3.31 5.91 5.91 0 0 0 0 4.81 6.31 6.31 0 0 0 5.86 3.81 6.24 6.24 0 0 0 4.5-1.84 6.39 6.39 0 0 0 1.36-1.97zm67.07-9.4c1 .97 1.73 2.03 2.22 3.2.49 1.17.74 2.44.75 3.8 0 2.77-.99 5.1-2.97 7.02-2 1.93-4.4 2.9-7.17 2.9a9.9 9.9 0 0 1-7.18-2.9 9.44 9.44 0 0 1-2.97-7.01c0-2.74 1-5.08 2.97-7.01a9.9 9.9 0 0 1 7.18-2.9c2.77 0 5.17.96 7.17 2.9zm-1.31 9.4c.33-.74.5-1.54.5-2.4 0-.84-.17-1.64-.5-2.4a6.38 6.38 0 0 0-8.36-3.31 6.43 6.43 0 0 0-3.36 3.3 5.91 5.91 0 0 0 0 4.82 6.3 6.3 0 0 0 5.86 3.81 6.47 6.47 0 0 0 5.86-3.81zm25.45-6.2c.49 1.17.74 2.44.75 3.8 0 2.77-.99 5.1-2.97 7.02-2 1.93-4.4 2.9-7.18 2.9a9.9 9.9 0 0 1-7.17-2.9 9.44 9.44 0 0 1-2.97-7.01c0-2.74.99-5.08 2.97-7.01a9.9 9.9 0 0 1 7.17-2.9c2.78 0 5.17.96 7.18 2.9a9.72 9.72 0 0 1 2.22 3.2zm-3.53 6.2c.33-.74.5-1.54.5-2.4 0-.84-.17-1.64-.5-2.4a6.4 6.4 0 0 0-10.38-1.97 6.32 6.32 0 0 0-1.84 4.38 6.31 6.31 0 0 0 6.36 6.21 6.24 6.24 0 0 0 4.5-1.84 6.39 6.39 0 0 0 1.36-1.97zM92.38 7.36V0h3.78v15.09c0 2.76-.99 5.1-2.97 7-2 1.94-4.4 2.91-7.17 2.91a9.9 9.9 0 0 1-7.18-2.9 9.44 9.44 0 0 1-2.97-7.01c0-2.74 1-5.08 2.97-7.01a9.9 9.9 0 0 1 7.18-2.9c2.4 0 4.52.72 6.36 2.17zm-.5 10.14c.33-.75.5-1.55.5-2.4 0-.85-.17-1.65-.5-2.4a6.4 6.4 0 0 0-8.36-3.32 6.43 6.43 0 0 0-3.36 3.31 5.91 5.91 0 0 0 0 4.81 6.31 6.31 0 0 0 5.86 3.81 6.25 6.25 0 0 0 4.5-1.84 6.39 6.39 0 0 0 1.36-1.97zm-17.63-2.4l-.01.27v9.45h-3.62v-2.65C69.22 24.1 66.58 25 64.1 25c-5.6 0-10.14-4.44-10.14-9.91 0-5.48 4.54-9.92 10.14-9.92 5.6 0 10.15 4.44 10.15 9.92zM64.1 21.3a6.3 6.3 0 0 0 6.37-6.22 6.3 6.3 0 0 0-6.37-6.23 6.3 6.3 0 0 0-6.37 6.23 6.3 6.3 0 0 0 6.37 6.22z"/>
    <path fill="#783BF9" d="M19.02 5.18c3.65 0 6.8 3 6.8 6.7 0 7.22-7.1 13.08-12.91 13.08C7.1 24.96 0 19.1 0 11.88c0-3.7 3.15-6.7 6.8-6.7 4.44 0 6 3.42 6.11 3.67a6.54 6.54 0 0 1 6.1-3.67zm1.16 6.98v-.2h-2.56v.2c0 2.53-2.12 4.6-4.71 4.6-2.6 0-4.7-2.07-4.7-4.6v-.2H5.63v.2c0 1.9.75 3.68 2.13 5.02a7.31 7.31 0 0 0 5.14 2.08c1.94 0 3.77-.74 5.14-2.08a6.98 6.98 0 0 0 2.13-5.02z"/>
</svg>