<?xml version="1.0" encoding="utf-8"?>
<!-- Generator: Adobe Illustrator 19.2.1, SVG Export Plug-In . SVG Version: 6.00 Build 0)  -->
<svg version="1.1" id="layer" xmlns="http://www.w3.org/2000/svg" xmlns:xlink="http://www.w3.org/1999/xlink" x="0px" y="0px"
	 viewBox="0 0 652 652" style="enable-background:new 0 0 652 652;" xml:space="preserve">
<style type="text/css">
	.st0{fill:#12273F;}
	.st1{fill:#FFFFFF;}
</style>
<circle class="st0" cx="113.7" cy="321" r="91.8"/>
<path class="st1" d="M91.3,285.7C91.3,285.6,91.2,285.6,91.3,285.7c-1,1.3-3.9,2.5-4.7,5.3c-0.1,0.2-0.3,0.3-0.4,0.3c0,0,0,0,0,0
	c-0.8-0.2-2-0.3-3.1,0.3c-0.1,0-0.1,0-0.2,0c-1.8-0.1-4.9,0.3-6.6,2.4c0,0.1,0,0.1,0,0.2c0,0,0.1,0,0.1,0c4.7-2.2,7.8-0.2,8.7,0.5
	c4.5,3.3,9.6,12,16.9,14c0,0,0.1,0,0.1,0.1c0,0,0,0.1,0.1,0.1c0.2,1.3,1.2,2.1,2.3,2c0.9-0.2,1.5-1,1.5-2.1c0,0,0-0.1,0.1-0.1
	c0,0,0.1,0,0.1,0c4.4-1.4,6.7-10.7,10.2-11.7c0.1,0,0.1-0.1,0.1-0.2c0,0,0,0,0,0c-0.4-1.1-1.9-2.2-3.7-2.3c-0.1,0-0.1,0-0.2-0.1
	c-0.8-0.8-3.1-1.6-4.1-1.2c0,0-0.1,0.1,0,0.1c2.2,5.2,0.7,10.7-2.9,12.8c0,0-0.1,0-0.1,0c0-0.1,0-0.1,0-0.2
	c2.8-3.4,2.8-9.4,1.4-12.4c0,0,0,0-0.1,0s0,0,0,0c0,1.1-0.9,2.2-1.5,3.4c-0.1,0.1-0.2,0.2-0.3,0.1c-0.1,0-0.1-0.1-0.1-0.1
	c-0.4-1.4,0.1-2.4,0.3-3.8c0.2-1.5,0.3-3.1,0.4-4.7c1-0.1,1.6-0.3,2-1.4c0.3-0.8,0.9-1.8,1.5-3.3c0.4-1.1,0.7-2.2,0.9-3.3
	c0.1-0.9,0-1.5-0.1-2.4c0-0.9,0.3-1.5,0.3-2.4c0,0,0-0.1-0.1-0.1c-0.2-0.2-0.4-0.3-0.7-0.3c-0.5-0.1-0.9,0.6-0.4,0.8
	c0.6,0.3,0.6,1.1,0.5,1.4c0,0.1-0.1,0.1-0.1,0.1c-0.3,0-0.3-0.1-0.5-0.2c-0.3-0.1-0.5-0.1-0.8-0.1c-0.1,0-0.1,0-0.1,0.1
	c0,0.3,0.1,1-0.5,1.4c-0.1,0-0.1,0-0.1,0c0,0,0,0,0,0c-0.3-0.5-0.5-1.5-0.7-2.1c-0.3-1.1,0.4-1.8,0.7-2c0.6-0.3,1.5-0.3,2.1-0.2
	c0.2,0,0.4,0.1,0.5,0.2c0,0,0.1,0,0,0c-0.4-2-0.2-3.6-1.3-4.7c-0.6-0.7-3.2-1.6-6.4-1.3c-2,0.2-3.1,1.1-5.3,0.6
	c-0.1,0-0.1-0.1-0.1-0.2c0,0,0.1-0.1,0.1-0.1c3.4-0.9,4.2-3.6,9.5-3.2c2.1,0.2,2.1,1.6,2,2.2c0,0.1,0,0.2,0.1,0.2c1,0.5,1.9,1.9,2,3
	c0,0.1,0.1,0.1,0.1,0.1c0,0,0.1,0,0.1-0.1c0.3-0.7,0.4-1.4,0.2-2.2c-0.2-0.7-1-0.9-1.2-1.7c-1-4.4-7.5-2.5-10.2-3.5
	c-1.4-0.5-5.1,0.1-8.9,3.1c-1.7,1.3-2.7,3.8-2.6,7.6c0,1.1-0.4,4.6,1.5,7.8c0.6,0.9,1.3,1.5,2.2,2.5c0,0,0,0,0.1,0s0,0,0-0.1
	c-0.3-2.2-2.5-4.4-2.4-8.2c0.2-2,1.2-3.8,2.3-4.2c0.1,0,0.1,0,0.2,0.1c0,0,0,0.1,0,0.1c-0.3,0.8-0.4,2.1-0.2,2.9
	c0,0.1,0.1,0.1,0.2,0.1c0,0,0,0,0,0c0.9-0.6,1.1-2.3,2.5-3.7c0.9-0.9,2.7-0.7,4.8-1.6c0.1,0,0.2,0,0.2,0.1c0,0,0,0,0,0.1
	c-0.4,2.3-2.7,3-3.4,6.4c-0.5,2.3-3.5,3-3.6,3.7c0,0,0,0.1,0,0.1c1,1.4,2.6,0.9,2.8,1.4c-0.4,0.4-1.2,0.3-1.1,1c0.8,4,0.3,6.5-0.5,8
	c-0.6,1.1-2.3,1.5-4,1.7c-0.1,0-0.3-0.1-0.3-0.2c0,0,0-0.1,0-0.1c0.2-0.6,0.7-1.6,1.4-2.5c0.3-0.4-0.3-0.3-0.9-0.2
	c-0.1,0-0.2-0.1-0.2-0.2c0-0.1,0-0.1,0-0.2C90.2,288.4,91.2,287.2,91.3,285.7z M107.5,283.6c0.2,0.1,0.2,0.2,0.1,0.3
	c0,0-0.3,0.1-0.3,0.2c-0.4,0.4-0.9,0.7-1.8,0.5c-1.1-0.2-1.8-1-2.9-0.9c-0.2,0-0.1-0.4,0.4-0.4c0.6,0,1-0.5,2.2-0.6
	c0.4,0,0.6,0.3,1.1,0.2C106.8,282.6,107.2,283.4,107.5,283.6L107.5,283.6z M106.4,279.8c0.4,0.1,0.7,0.3,0.8,0.7
	c0.1,0.3-0.6,1-1.1,0.9c-0.4,0-0.9-0.4-1.5-0.5c-0.3,0-0.2-0.3,0-0.6c0.2-0.2,0.4-0.3,0.6-0.3C105.7,279.9,105.8,279.7,106.4,279.8
	L106.4,279.8z M99.9,276.3c0.4-0.3,0.6-0.5,1.2-0.8c0.5-0.2,0.4-0.8-0.9-0.6c-0.4,0-0.3-0.2,0.3-0.6c1-0.6,1.1-0.7,3-0.3
	c0.5,0.1,1,0.2,1.5,0.4c0.1,0,0.3,0.5,0.1,0.9c-0.5,1-0.7,1.7-1.5,1.5c-0.9-0.2-1.4,0.1-2.4-0.2c-0.6-0.2-0.8,0-1,0.1
	C99.7,276.9,99.5,276.6,99.9,276.3L99.9,276.3z M98,285.9c1.6,1.1,3.9,2.4,6.6,2.6c0.4,0.1-0.6,1.9-1.9,2.1c-2.2,0.3-4.4-2.8-5-4.4
	c0-0.1,0-0.2,0.1-0.2C97.9,285.8,98,285.9,98,285.9L98,285.9z M91,293.6c7.2,2.6,8.4,9.1,11,12.2c0.1,0.1,0.1,0.2,0,0.2
	c-0.1,0.1-0.2,0.1-0.2,0c-4.6-1.9-6-8-11-12.2c-0.1-0.1-0.1-0.1,0-0.2C90.9,293.6,90.9,293.6,91,293.6z M165.7,369.1
	c0.1,0.2,0.3,0.2,0.4,0.1c0.2-0.1,0.2-0.3,0.1-0.4l0,0c-12.8-27.7-37.2-26.1-48.8-46.7c-0.1-0.2-0.5,0-0.4,0.2
	C127.3,348,152,347.5,165.7,369.1z M48.7,341.2c0,0.1,0.1,0.1,0.1,0.1c0.1,0,0.1,0,0.1-0.1c2.5-10.2,8.8-13.7,14.2-25
	c3.3-6.9,3.8-12.4,9-18.6c0-0.1,0-0.1,0-0.2c0,0-0.1,0-0.2,0c-7,4.5-8.1,12.2-11.5,17.9C55.6,323.5,48.1,324.8,48.7,341.2z
	 M93.7,348.2c2.7-1.8,6.6-3.1,10.4-3c7,0.1,10.7-1.6,12.8-1.6c1.6,0,3.2,0.4,4.6,1.3c0.3,0.2,0.6,0,0.5-0.4c-0.2-1-0.6-2.2-1.7-2.9
	c-1.2-0.9-4.7-2.2-7.2-4.1c-2.7-2-6.2-0.8-10.4-0.6c-4.5,0.2-5.4-0.4-7.8-0.3c-3.1,0.1-4.8,0.5-5.8,1.5c-1.3,1.2-0.7,2.7-0.4,3.3
	c0.1,0.2,0.3,0.2,0.5,0.1c0,0,0,0,0,0c1.1-0.7,4.8-2.5,11.3-0.9c0.1,0,0.2,0.2,0.2,0.3c0,0.1-0.1,0.2-0.2,0.2
	c-6.3,0.3-8.7,1.6-9.8,2.9c-0.1,0.1-0.1,0.3,0,0.5c0.7,1,1.1,2.5,1.8,3.5C92.8,348.4,93.3,348.5,93.7,348.2z M120.6,349.7
	c-1,0.3-1.9,0.8-2.8,1.4c-0.1,0.1-0.1,0.3,0,0.4c0,0,0,0,0,0c2.5,2,6.9,5,8.2,8c3.3,7.6,8.8,16.9,15.5,25.3c0.1,0.1,0.3,0.2,0.5,0.1
	c0.1-0.1,0.1-0.2,0.1-0.3c-1.8-8.7-2.4-20.8-4.7-25.4c-1.3-2.7-8.1-8.2-13.4-11.2c-4.9-2.3-9.7-0.5-13.4,0c-0.1,0-0.2,0.1-0.2,0.2
	c0,0.1,0.1,0.2,0.2,0.2c3.7,1.2,7.2,0.3,9.9,0.9c0.2,0,0.3,0.2,0.2,0.3C120.8,349.6,120.7,349.7,120.6,349.7z M91.6,325.3
	c1.4,4.1,2.9,6,5.2,8c2.3,2,10.1,1.4,11.3,0.8c0.8-0.5,1.1-1.5,1.2-2.1c0.6-2.2,1-8.1,1.7-9c2-2.9,3.1-5.2,3.1-7.7
	c0.1-2.2-0.8-4.3-1.5-8.8c0-0.1-0.2-0.2-0.3-0.2c-0.1,0-0.1,0.1-0.2,0.1c-0.9,1.4-2.6,3.4-4.9,4.4c0,0-0.1,0-0.1,0.1
	c-1.6,1.6-2.1,4.7-2.7,6.3c-0.1,0.2-0.4,0.3-0.6,0.2c-0.1-0.1-0.2-0.2-0.3-0.3c-0.4-1.8-1.3-4.1-2.7-6c0,0-0.1-0.1-0.1-0.1
	c-5.6-1.3-8.8-4.9-11.4-8.3c-0.1-0.2-0.4-0.2-0.5,0c-0.1,0.1-0.1,0.2-0.1,0.3c-0.3,6.2-1.2,11.1-3.2,14.2c-0.1,0.2-0.2,0.4-0.2,0.6
	c0,2.7,0.6,7.6,1.9,10.5c1.3,3,3,4.8,3.9,4.9c1.7,0.5-0.2-3.6-0.2-7.5c0-0.3,0.2-0.5,0.4-0.5C91.4,325,91.6,325.2,91.6,325.3z
	 M176.5,288.1C176.5,288.1,176.5,288.1,176.5,288.1c-2,0.5-3.8,1-5.6,1.7c-0.1,0-0.1,0-0.2-0.1c0,0,0-0.1,0-0.1
	c1.8-2.2,1-4.8,2.1-6.3c0-0.1,0-0.1,0-0.2c0,0-0.1,0-0.1,0c-5.4,1.8-5.4,5.9-4.7,7.9c0,0.1,0,0.1-0.1,0.2c-1.3,0.7-2.6,1.4-3.9,2.2
	c-0.1,0-0.1,0-0.2,0c0,0,0-0.1,0-0.1c1.1-2.6-0.4-4.9,0.3-6.6c0-0.1,0-0.2-0.1-0.2c0,0-0.1,0-0.1,0c-4.6,3.1-3.6,6.9-2.5,8.7
	c0,0.1,0,0.1,0,0.2c-1.3,1-2.5,2.1-3.6,3.3c-0.1-0.1-0.3-0.1-0.4-0.2c-0.5-0.2-1.1-0.4-1.7-0.4c-0.9,0-1.7,0-3.1,0.1
	c-0.7-0.2-0.9-0.4-1.7-0.1c-1.3,0.5-1.8,0.6-2.2,0.9c-1.2,1-2,1.7-2.4,2.3c-0.6,0.8-0.9,1.7-1.2,2.4c-0.7,1.1-2.4,3.1-5.3,5.5
	c-0.8,0.6-3.9,2.7-5.8,4.1c-1.5-0.5-3.4-2.1-5-3.4c-1.6-1.3-2.8-2.4-3.9-4c-1.2-1.8-1.7-2.9-3.6-5c-0.9-0.9-2.2-1.8-3.6-2.5
	c0,0-0.1,0-0.1,0c-0.8,0-2.7,1.2-3.3,2.7c-0.5,1.5-0.9,6.5,0.5,9.2c0.1,0.2,0.4,0.3,0.6,0.2c0.5-0.2,1-0.2,1.4,0
	c1.3,1,1.7,1.5,4.3,4.2c3.3,3.5,6.1,4.9,9.5,6.2c0.8,0.3,3.3,1.4,4.1,1.3c0.8-0.1,2.2-1,4.9-3.3c2.7-2.3,4.1-4.4,5.2-6.2
	c0.6-0.9,4.2-5.6,4.5-5.8c0.3-0.1,1-0.2,1.8-0.2c0.1,0,0.2,0.1,0.2,0.2c0,0,0,0.1,0,0.1c-1.7,2.9-2.7,5.5-3.2,7.1
	c-0.5,1.7,1.3,1.2,1.5,0.2c0.6-2.1,1.6-4.8,3.2-7.6c0.1-0.1,0.2-0.2,0.4-0.2c1.2-0.1,1.6-0.2,1.8-0.2c0.5-0.1,0.8-0.5,0.8-1
	c0-0.2,0.1-0.3,0.6-0.5c0.3-0.1,0.6-0.6,0.6-1c0-0.1,0-0.3-0.2-0.4c-0.1-0.1-0.1-0.2,0-0.3c0,0,0,0,0,0c0.2-0.1,0.6-0.2,0.7-0.5
	c0.2-0.3,0.3-0.6,0.4-0.9c0-0.1,0.1-0.1,0.1-0.1c0.5-0.1,1,0,1.3-0.2c0.6-0.4,0.5-0.4,0.6-1.2c0-0.3-0.3-0.6-0.5-0.6
	c-0.1-0.1-0.2-0.1-0.3-0.2c0,0-0.1,0-0.1,0l-0.1,0.1c-0.1,0.1-0.2,0.2-0.4,0.2c-0.2,0-0.3,0-0.5,0c-0.1,0-0.1-0.1-0.1-0.1
	c0,0,0-0.1,0-0.1c1.8-1.9,3.8-3.7,5.9-5.2c0.1,0,0.2,0,0.2,0c0,0,0,0,0,0c2.2,5.1,8.2,3.3,10.5,2.4c0.1,0,0.1-0.1,0.1-0.2
	c0-0.1-0.1-0.1-0.1-0.1c-3.7,0.3-5-3-9.1-2.9c-0.1,0-0.1-0.1-0.1-0.1c0,0,0-0.1,0.1-0.1c1.5-0.9,3-1.8,4.6-2.5c0.1,0,0.2,0,0.2,0.1
	c2.5,5.2,8.5,3,10.7,1.9c0.1,0,0.1-0.1,0.1-0.2c0,0-0.1-0.1-0.1-0.1c-3.5,0.6-5.1-2.3-8.6-2.3c-0.1,0-0.1-0.1-0.1-0.1
	c0-0.1,0-0.1,0.1-0.1c1.3-0.5,2.6-0.9,4-1.2c0.1,0,0.2,0,0.2,0c4,1.7,6.8-1.2,11-1.2c0.1,0,0.1-0.1,0.1-0.1c0,0,0-0.1-0.1-0.1
	C184.6,284.8,178.1,283.9,176.5,288.1z M154.9,301.3c-0.5,0-1.8-0.3-2.6-0.4c-0.2,0.4-0.2,0.8,0.2,1.1c0.1,0,0.1,0.1,0,0.1
	c0,0.1-0.1,0.1-0.1,0c-0.8-0.2-1.2-0.3-1.6,0c-0.2,0.2-0.2,0.5-0.1,0.7c0,0.1,0,0.3-0.1,0.3c0,0,0,0,0,0c-0.1,0-0.1,0.1-0.2,0.1
	c-0.2,0.1-0.2,0.4-0.1,0.6c0.1,0.3,0.3,0.5,0.5,0.8c0.1,0.1,0.3,0.2,0.4,0.3c0.1,0,0.1,0.1,0,0.2c0,0-0.1,0.1-0.1,0.1
	c-1.3,0-2.6-0.6-2.9-1.9c0-0.1,0-0.2,0.1-0.3c1.6-0.9,2.5-2.5,2.9-2.8c0.4-0.3,1.5-0.1,2.3,0.1c0.7,0.2,2,0.6,3.2-0.3
	c0.1,0,0.1,0,0.2,0c0,0,0,0,0,0.1C156.9,301,155.6,301.3,154.9,301.3z M88.9,353.4c0-0.1,0.2-0.2,0.3-0.2c0.1,0,0.2,0.1,0.2,0.2
	c0.2,1,0.5,2.5,0.7,2.8c0.1,0.3,0.4,0.5,0.8,0.6c0.2,0,0.4-0.1,0.4-0.3c0,0,0-0.1,0-0.1c-0.1-0.7-0.2-2-0.2-2.8c0-0.7-0.1-3.3-0.3-4
	c-0.6-2.1-1-4-2.2-5.7c-0.5-0.7-8.1-8.9-8.9-9.7c-0.8-0.9-3.4-4.4-5.3-6.9c0,0,0-0.1,0-0.1c0,0,0-0.1,0-0.1c0.2-1.3,1.6-4,3-7
	c0-0.1,0-0.1,0-0.2c-1.5-6.7-2.8-12.2-3.7-16.1c0-0.1-0.1-0.1-0.1-0.1c0,0-0.1,0-0.1,0.1c-0.8,2.7-1.6,6.5-2.1,7.8
	c-0.7,2.1-3.6,8.8-4.3,11.9c-0.3,1.1-0.4,2.3-0.5,3.5c-0.1,1.2-0.6,3,0.2,4.1c0.3,0.4,0.5,0.7,0.8,1c1.2,1.6,2.6,3.1,4,4.4
	c3.1,3,8.4,6.5,9.1,7.3c1.3,1.3,1.3,1.4,1.6,3.7c0.1,0.9,0.1,4.8,0.3,5.2c0.2,0.6,0.7,0.7,1.4,1.7c0,0,0.1,0.1,0.1,0.1
	c0.6,1.5,0.7,1.9,0.9,2.7c0.1,0.6,0.4,0.8,0.8,0.8c0.2,0,0.3,0.1,0.3,0.3c0,0.3,0.1,0.6,0.1,0.9c0.2,1.6,0.5,3.2,0.5,3.5
	c0,0.3,1.1,0.7,1.4-1.2c0.2-1.5,0.1-2.5,0.1-3.6C88.2,356.7,88.5,354.8,88.9,353.4z M74.6,287.8l1.1,0.2c0.1,0,0.3-0.1,0.3-0.2
	c0,0,0-0.1,0-0.1c-0.4-1.8-2.1-9.4-7.2-16.4c-0.1-0.1-0.2-0.1-0.3,0c0,0-0.1,0.1-0.1,0.1c-1.4,8.2,0.4,16.1,0.9,17.9
	c0,0.1,0.2,0.2,0.3,0.2c0,0,0.1,0,0.1-0.1l0.9-0.7c0.3-0.2,0.7-0.2,0.9,0.1c0.1,0.1,0.1,0.2,0.1,0.3c1.1,4.5,5.7,23.9,10.7,44.9
	c0.5,2.3,1.3,3.3,2.7,3.9c0.1,0.1,0.3,0,0.4-0.1c0-0.1,0-0.1,0-0.2l-5.5-23.2c0-0.1,0-0.1,0-0.2c1.1-2.8,2.1-5.7,2.7-8.1
	c0-0.1,0.1-0.2,0.2-0.1c0.1,0,0.1,0.1,0.1,0.1c0.2,0.9,0.5,2.8-0.3,5.5c-0.4,1.4,0,2.3,0.4,3.1c0,0.1,0.1,0.1,0.2,0.1
	c0,0,0.1,0,0.1-0.1c2-3.1,4.3-9.4,2.2-16.2c-0.7-2.4-5.2-5.4-7.9-3.1v0c-0.6,0.5-1.1,1.1-1.4,1.8c-0.1,0.1-0.2,0.1-0.3,0.1
	c-0.1,0-0.1-0.1-0.1-0.1c-0.9-3.9-1.6-6.8-2-8.5c-0.1-0.4,0.1-0.7,0.5-0.8C74.4,287.8,74.5,287.8,74.6,287.8z"/>
<path class="st1" d="M188.5,295.9c0,0-0.2-0.6-0.7-0.4c-0.5,0.2-0.3,0.7-0.3,0.7c2.7,8.3,4.1,16.9,3.9,25.6
	c-0.6,32.7-21.6,60.2-50.6,70.7c-0.5,0.2-1,0-1.3-0.4c-8.9-11.5-12.5-23.4-16.9-31.3c-2.2-4-9-7.2-14.6-12c-0.3-0.3-0.7-0.4-1.5-0.5
	c-2.2-0.1-8.9-1.3-13.5,6.2c-1.2,1.9,3.5,9.1,5.5,10.1c4.2,2.2,10.1-1.5,13.3-3.8c0.3-0.2,0.6-0.1,0.8,0.2c0.1,0.2,0.1,0.4,0,0.5
	c-2.1,3.5-10.7,17.9-15.1,12.8c-0.1-0.1-0.3-0.1-0.4,0c-0.1,0.1-0.1,0.2-0.1,0.3c0.6,4.7,3.7,10.3,7.7,8.3c4.7-2.4,6.4-6.8,9.4-14.6
	c0.1-0.2,0.3-0.4,0.6-0.3c0.2,0.1,0.3,0.3,0.3,0.5c-1,9.7-3.9,21.5-10.8,27.3c-0.3,0.2-0.6,0.3-1,0.3c-1.3-0.2-2.5-0.4-3.8-0.7
	c-0.1,0-0.2-0.1-0.2-0.2c-0.5-2-4.3-18.2-8.9-37.5c0-0.1-0.2-0.2-0.3-0.2c-0.1,0-0.1,0.1-0.2,0.1c-0.4,0.7-0.8,2-0.9,3.6v0.1
	c3.9,16.6,7.2,30.1,7.9,33c0,0.1-0.1,0.3-0.2,0.3c0,0-0.1,0-0.1,0c-2.5-0.6-5-1.4-7.4-2.2c-0.1,0-0.2-0.2-0.2-0.3
	c1.2-4.1,1.9-8.7,2.3-13.4v-0.1c-0.9-3.9-1.9-8-2.9-12.2l0,0c-0.1-0.3-0.2-0.6-0.5-0.5s-0.4,0.3-0.4,0.6l0,0c0.1,1,0.1,2.1,0.1,3.1
	c0,0.1-0.1,0.2-0.2,0.2c0,0,0,0,0,0c-4.3-0.4-8.8-1-13.2-1.8c-0.1,0-0.2-0.1-0.2-0.3c0,0,0-0.1,0-0.1c2.9-3.8,5.8-7.6,8.6-11.2
	c0-0.1,0.1-0.1,0-0.2c-0.1-0.5-0.3-1-0.5-1.5l-0.1-0.1c-0.8-0.6-1.6-0.9-1.9-1.4c-0.1-0.1-0.2-0.1-0.3,0c0,0,0,0,0,0
	c-2.4,3.1-5,6.4-7.7,9.8c-0.1,0.1-0.2,0.1-0.3,0c-0.1,0-0.1-0.1-0.1-0.2c0.1-1.2,0.2-2.5,0.4-3.8c0,0,0-0.1,0-0.1
	c2.6-3.3,5.1-6.6,7.6-9.7c0,0,0.1-0.1,0.1-0.2c0-0.6-0.1-1.3-0.1-1.9c0-0.1-0.1-0.2-0.2-0.2c-0.1,0-0.1,0-0.2,0.1
	c-2,2.6-4.2,5.3-6.4,8.2c-0.1,0.1-0.2,0.1-0.3,0c-0.1,0-0.1-0.1-0.1-0.2c0.4-3.6,0.8-7.2,1.3-10.6c0-0.1,0.1-0.2,0.2-0.2
	c1.6,0.2,3.1,0.3,4.7,0.4c0.1,0,0.2,0,0.2-0.1c0-0.1,0-0.1-0.1-0.2c-0.2-0.2-0.4-0.3-0.6-0.4c-1.4-1-3.1-2.3-5.1-3.9
	c0,0-0.1-0.1-0.1-0.1c-7.3-0.6-14.5-1.3-17.9-1.6c-1.3-0.1-2.4,0.2-3.1,1.8c-2.2,6-3.4,11.5-4.1,16.3c0,0.2-0.2,0.3-0.3,0.2
	c-0.1,0-0.2-0.1-0.2-0.1c-6.3-11.6-9.5-24.6-9.2-37.8c0.8-42.4,36.2-76.3,78.6-75.2c26,0.7,48.7,14.2,62,34.5c0,0,0.4,0.5,0.8,0.2
	c0.5-0.3,0.1-0.8,0.1-0.8c-13.7-20.9-37.1-34.9-63.9-35.6c-43.5-1.3-79.8,32.9-81.1,76.4c0,0.3,0,0.7,0,1
	c-0.8,44,34.5,80.3,78.7,80.4c42.7,0.2,78.6-35.3,79.2-77.9C192.7,313.1,191.3,304.3,188.5,295.9z M70.2,382.6
	c0-0.7,0.1-1.7,0.2-2.8c0-0.1,0.1-0.2,0.2-0.2c0,0,0,0,0,0l0.3,0.1c0.1,0,0.1,0.1,0.2,0.1c0.8,1.5,1.6,3.1,2.4,4.7
	c0.1,0.1,0,0.2-0.1,0.3c-0.1,0-0.1,0-0.2,0c-1-0.6-2-1.3-2.9-2C70.3,382.8,70.2,382.7,70.2,382.6z M76.4,386.7
	c-1-1.8-2.2-3.9-3.3-6.1c-0.1-0.1,0-0.3,0.1-0.3c0,0,0.1,0,0.2,0c4.4,1,8.8,1.7,13.3,2.2c0.1,0,0.2,0.1,0.2,0.3c0,0,0,0,0,0
	c-0.4,2.7-0.9,5.4-1.7,8.1c0,0.1-0.2,0.2-0.3,0.2c0,0,0,0,0,0c-2.8-1.2-5.5-2.5-8.1-4c-0.1,0-0.1-0.1-0.1-0.1
	C76.5,386.8,76.5,386.8,76.4,386.7z M64.7,343.7c2.1,0.2,4.5,0.5,6.8,0.7c0.1,0,0.2,0.1,0.2,0.2c0,0,0,0,0,0c-1.1,7.4-2,16-2.7,24.8
	c0,0.1,0.1,0.2,0.2,0.2c5.5,1.1,11.7,2.2,18.2,2.8c0.1,0,0.2,0.1,0.2,0.2c0,2.6-0.2,5.1-0.4,7.5c0,0.1-0.1,0.2-0.2,0.2
	c-6-0.6-12.4-1.8-18.2-3.2c-0.1,0-0.2,0-0.3,0.2c0,0,0,0,0,0c-0.1,1.1-0.1,2.2-0.2,3.3c0,0.2-0.1,0.3-0.3,0.3c-0.1,0-0.1,0-0.2-0.1
	c-5.4-4.2-10.2-9.1-14.4-14.6c-0.1-0.1-0.1-0.3,0.1-0.4c0.1-0.1,0.2-0.1,0.2,0c2.1,0.6,4.7,1.3,7.8,2.1c0.1,0,0.2,0,0.3-0.2
	c0,0,0,0,0,0c0.7-8.5,1.6-16.5,2.6-23.9C64.4,343.8,64.6,343.7,64.7,343.7L64.7,343.7z M57.2,342.8c1.4,0.2,3.1,0.4,5,0.6
	c0.1,0,0.2,0.1,0.2,0.3c0,0,0,0,0,0c-0.5,3.3-0.9,6.6-1.3,9.9c0,0.1-0.1,0.2-0.3,0.2c-0.1,0-0.2-0.1-0.2-0.1
	c-1.4-3.7-2.7-7.2-3.7-10.6C57,342.9,57,342.8,57.2,342.8C57.2,342.8,57.2,342.8,57.2,342.8L57.2,342.8z M52.3,346.3
	c0.1-0.4,0.2-0.8,0.4-1.2c0.1-0.4,0.3-0.8,0.5-1.2c0-0.1,0.2-0.1,0.2-0.1c0,0,0.1,0.1,0.1,0.1c1.7,5,4.4,12.3,6.7,18
	c0,0,0,0.1,0,0.2c0,0.1,0,0.1,0,0.2c-0.1,0.8-0.2,2.2-0.3,3c0,0.1-0.1,0.2-0.2,0.2c0,0,0,0,0,0l-0.2,0c-0.1,0-0.1-0.1-0.1-0.1
	c-2.2-5.2-5.2-13-7.2-18.9C52.3,346.4,52.3,346.3,52.3,346.3L52.3,346.3z M51.6,348.7c0-0.1,0.1-0.2,0.2-0.2c0.1,0,0.1,0.1,0.2,0.1
	c1.4,4.3,3.5,10,5.8,15.9c0,0.1,0,0.3-0.1,0.3c0,0-0.1,0-0.1,0c-2.7-0.7-5-1.4-6.4-1.9c-0.1,0-0.2-0.1-0.2-0.2
	c-0.4-0.7-0.9-1.4-1.3-2c-0.1-0.1-0.1-0.2-0.1-0.4C50,356.4,50.7,352.5,51.6,348.7L51.6,348.7z"/>
<path class="st0" d="M277.3,323.9c0,6-4.9,10.2-11,10.2h-15v-35.3h13.9c6,0,10.7,4,10.7,9.9c0.1,2.7-1.2,5.4-3.3,7.1
	C275.6,317.5,277.4,320.6,277.3,323.9z M258.3,305.3v7.8h7c2.1,0,3.8-1.6,3.8-3.7c0-0.1,0-0.1,0-0.2c0.1-2-1.4-3.8-3.5-3.9
	c-0.1,0-0.2,0-0.3,0H258.3z M266.3,327.7c2.2,0,4-1.7,4.1-3.9c0-0.1,0-0.2,0-0.3c0.1-2.2-1.6-4.1-3.8-4.1c-0.1,0-0.2,0-0.3,0h-8v8.3
	H266.3z M306.7,310.4v23.7h-6.5v-2.9c-1.4,2-3.7,3.6-7.6,3.6c-5.9,0-11.9-4.1-11.9-13.1c0-8.6,5.9-13.6,15.2-13.6
	C300.2,308.2,304.6,309.3,306.7,310.4z M300.2,325.9v-11.1c-1.4-0.4-2.9-0.5-4.4-0.6c-5.3,0-8.7,2.7-8.7,7.5s3.3,7.1,7,7.1
	C296.5,328.9,298.7,327.8,300.2,325.9z M336.2,318.7v15.5h-6.5v-14.7c0-3.4-2.1-5.2-5-5.2c-3.2,0-5.5,1.8-5.5,6.3v13.6h-6.6v-25.2
	h6.5v2.8c1.5-2.3,4.1-3.5,7.5-3.5C332.1,308.2,336.2,312,336.2,318.7z M341.8,334.2v-35.8l6.5-1V320l8.7-11.1h7.8l-10.1,12.5
	l10.4,12.8h-7.6l-9.2-11.5v11.5H341.8z M375.5,321.5c0-7.4,6-13.4,13.3-13.4c7.4,0,13.4,6,13.4,13.3c0,7.4-6,13.4-13.3,13.4
	c0,0,0,0-0.1,0c-7.3,0.1-13.2-5.8-13.3-13C375.5,321.7,375.5,321.6,375.5,321.5z M395.7,321.5c0.1-3.8-2.8-7-6.6-7.1
	c-3.8-0.1-7,2.8-7.1,6.6c0,0.2,0,0.3,0,0.5c-0.1,3.8,2.8,7,6.6,7.1c3.8,0.1,7-2.8,7.1-6.6C395.7,321.9,395.7,321.7,395.7,321.5z
	 M407.7,334.2v-19H404v-6.3h3.7V307c0-6.2,3.3-9.8,10.3-9.8c0.7,0,1.3,0.1,2,0.1v6.3c-0.6-0.1-1.2-0.1-1.7-0.1
	c-2.7,0-4.2,0.9-4.2,3.5v1.9h5.9v6.3h-5.9v18.9H407.7z M457.8,327.5v6.7H436v-35.3h21.6v6.7h-14.7v7.5h13.4v6.6h-13.3v7.9H457.8z
	 M486,318.7v15.5h-6.5v-14.7c0-3.4-2.1-5.2-5-5.2c-3.2,0-5.5,1.8-5.5,6.3v13.6h-6.6v-25.2h6.5v2.8c1.5-2.3,4.1-3.5,7.5-3.5
	C481.8,308.2,486,312,486,318.7z M516.1,310.4v23.2c0,7.6-4.7,11.8-12.5,11.8c-4.8,0-9.2-1.8-11.8-5l5.3-3.3c1.6,1.8,4,2.7,6.4,2.6
	c3.8,0,6.2-1.8,6.2-6v-3c-1.4,2-3.7,3.6-7.6,3.6c-5.9,0-11.9-4.1-11.9-12.8c0-8.4,5.9-13.3,15.2-13.3
	C509.8,308.2,514.1,309.3,516.1,310.4z M509.8,325.3v-10.5c-1.4-0.4-2.9-0.5-4.4-0.6c-5.3,0-8.7,2.6-8.7,7.2c0,4.5,3.3,6.8,7,6.8
	C506.1,328.4,508.3,327.2,509.8,325.3L509.8,325.3z M521.7,325.7v-27.4l6.5-1v28.4c0,2.2,1.3,2.7,3.7,2.7c0.7,0,1.4,0,2.1-0.1v6
	c-1.1,0.1-2.3,0.2-3.4,0.2C524,334.4,521.7,331.6,521.7,325.7z M562.1,310.4v23.7h-6.5v-2.9c-1.4,2-3.7,3.6-7.6,3.6
	c-5.9,0-11.9-4.1-11.9-13.1c0-8.6,5.9-13.6,15.2-13.6C555.6,308.2,560,309.3,562.1,310.4z M555.6,325.9v-11.1
	c-1.4-0.4-2.9-0.5-4.4-0.6c-5.3,0-8.7,2.7-8.7,7.5s3.3,7.1,7,7.1C551.9,328.9,554.1,327.8,555.6,325.9L555.6,325.9z M591.6,318.7
	v15.5h-6.5v-14.7c0-3.4-2.1-5.2-5-5.2c-3.2,0-5.5,1.8-5.5,6.3v13.6h-6.5v-25.2h6.5v2.8c1.5-2.3,4.1-3.5,7.5-3.5
	C587.4,308.2,591.6,312,591.6,318.7z M615.4,298.3l6.5-1v36.8h-6.5v-2.9c-1.4,2-3.7,3.6-7.6,3.6c-5.9,0-11.9-4.1-11.9-13.1
	c0-8.6,5.9-13.6,15.2-13.6c1.5,0,2.9,0.1,4.3,0.3L615.4,298.3z M615.4,325.9v-11.1c-1.4-0.4-2.9-0.5-4.4-0.6c-5.3,0-8.7,2.7-8.7,7.5
	s3.3,7.1,7,7.1C611.7,328.9,614,327.8,615.4,325.9z"/>
</svg>
