<?xml version="1.0" encoding="utf-8"?>
<!-- Generator: Adobe Illustrator 19.2.1, SVG Export Plug-In . SVG Version: 6.00 Build 0)  -->
<svg version="1.1" id="layer" xmlns="http://www.w3.org/2000/svg" xmlns:xlink="http://www.w3.org/1999/xlink" x="0px" y="0px"
	 viewBox="0 0 652 652" style="enable-background:new 0 0 652 652;" xml:space="preserve">
<style type="text/css">
	.st0{fill:#1E417B;}
	.st1{fill:#F0513F;}
	.st2{fill:#27AAE1;}
	.st3{fill:#2276BC;}
	.st4{fill:#201A55;}
	.st5{fill:#1F295C;}
	.st6{fill:#CE2127;}
	.st7{fill:#673537;}
	.st8{fill:#19457D;}
	.st9{fill:#0C3757;}
	.st10{fill:#1283C6;}
	.st11{fill:#221F20;}
</style>
<g>
	<path class="st0" d="M60,389c-21.7,0-39.3-17.6-39.3-39.3H31c0,16,13,29,29,29V389z"/>
	<path class="st1" d="M99.3,349.6H89c0-16-13-29-29-29v-10.4C81.7,310.3,99.3,328,99.3,349.6"/>
	<path class="st2" d="M48.9,311.2v-10.4c9.9,0,17.9-8,17.9-17.9h10.4C77.2,298.5,64.5,311.2,48.9,311.2"/>
	<path class="st3" d="M31,282.9H20.6c0-15.6,12.7-28.3,28.3-28.3V265C39,265,31,273.1,31,282.9"/>
	<path class="st2" d="M126.7,389v-10.4c9.9,0,17.9-8,17.9-17.9H155C155,376.3,142.3,389,126.7,389"/>
	<path class="st3" d="M108.8,360.7H98.4c0-15.6,12.7-28.3,28.3-28.3v10.4C116.8,342.8,108.8,350.9,108.8,360.7"/>
	<path class="st0" d="M115.6,333.4c-21.7,0-39.3-17.6-39.3-39.3h10.4c0,16,13,29,29,29V333.4z"/>
	<path class="st1" d="M155,294h-10.4c0-16-13-29-29-29v-10.4C137.3,254.7,155,272.3,155,294"/>
	<path class="st4" d="M20.6,282.9L20.6,282.9c0,8.8,4,16.7,10.4,21.9V283c0,0,0,0,0,0H20.6z"/>
	<path class="st0" d="M48.9,300.8c-9.9,0-17.9-8-17.9-17.9v21.8c4.9,4,11.1,6.4,17.9,6.4V300.8z"/>
	<path class="st5" d="M31,349.6v-26.6c-6.4,7-10.4,16.3-10.4,26.6v0L31,349.6C31,349.6,31,349.6,31,349.6"/>
	<path class="st3" d="M31,323.1v26.6c0-16,13-29,29-29v-10.4C48.5,310.3,38.2,315.2,31,323.1"/>
	<path class="st0" d="M31,304.8c-6.3-5.2-10.4-13-10.4-21.8v66.7c0-10.2,3.9-19.6,10.4-26.6V304.8z"/>
	<path class="st6" d="M144.6,360.7H155c0-8.8-4-16.7-10.4-21.9V360.7z"/>
	<path class="st1" d="M126.7,332.5v10.4c9.9,0,17.9,8,17.9,17.9h0v-21.9C139.7,334.9,133.5,332.5,126.7,332.5"/>
	<path class="st7" d="M144.6,294.2v26.4c6.4-7,10.3-16.2,10.4-26.4V294h-10.4C144.6,294.1,144.6,294.1,144.6,294.2"/>
	<path class="st2" d="M115.6,323v10.4c11.5,0,21.8-4.9,29-12.8v-26.4C144.5,310.1,131.5,323,115.6,323"/>
	<path class="st1" d="M144.6,320.6v18.3c6.3,5.2,10.4,13.1,10.4,21.9l0,0v-66.6C154.9,304.3,151,313.6,144.6,320.6"/>
	<path class="st8" d="M115.5,265c0,0,0.1,0,0.1,0v-10.4h-0.1c-10.2,0-19.5,4-26.5,10.4H115.5z"/>
	<path class="st3" d="M76.3,294h10.4c0-15.9,12.9-28.9,28.8-29H89C81.2,272.2,76.3,282.6,76.3,294"/>
	<path class="st9" d="M70.8,265c-5.2-6.3-13.1-10.4-21.9-10.4V265H70.8z"/>
	<path class="st1" d="M48.9,265c9.9,0,17.9,8,17.9,17.9h10.4c0-6.8-2.4-13-6.4-17.9L48.9,265L48.9,265z"/>
	<path class="st3" d="M48.9,254.7c8.8,0,16.7,4,21.9,10.4H89c7-6.4,16.3-10.3,26.5-10.4L48.9,254.7"/>
	<path class="st10" d="M60,378.6L60,378.6L60,389H60c10.2,0,19.5-3.9,26.5-10.4H60z"/>
	<path class="st2" d="M99.3,349.6H89c0,16-13,28.9-28.9,29h26.5C94.4,371.4,99.3,361.1,99.3,349.6"/>
	<path class="st5" d="M104.8,378.6c5.2,6.3,13.1,10.4,21.9,10.4v-10.4H104.8z"/>
	<path class="st0" d="M108.8,360.7H98.4c0,6.8,2.4,13,6.4,17.9h21.9C116.8,378.6,108.8,370.6,108.8,360.7"/>
	<path class="st2" d="M104.8,378.6H86.6C79.6,385,70.3,389,60,389h66.7C117.9,389,110,384.9,104.8,378.6"/>
	<path class="st11" d="M207.9,336.3h14.9c9.9,0,15.3,4.4,15.3,12.5c0,11-11.8,11.9-15.4,11.9h-14.8V336.3z M221.6,325.4h-13.7v-20.5
		h15.8c8.1,0,11,5.2,11,10.2C234.8,324.1,226.5,325.4,221.6,325.4 M236.8,330.3c7-3.3,10.8-9,10.8-16.4c0-12.4-8.9-19.9-23.9-19.9
		h-27.2v77.6h26.9c16.5,0,27.6-8.8,27.6-22C250.9,340.3,244.9,332.4,236.8,330.3"/>
	<path class="st11" d="M292.7,347.2v2.3c0,6.7-3.5,13.8-13.5,13.8c-6.6,0-9.9-2.5-9.9-7.3c0-7.2,10.5-8.8,19.2-8.8H292.7z
		 M303.6,361.5v-25.9c0-8.6-5.8-17.8-22.1-17.8c-7.8,0-15.6,2.9-20.7,7.7l-0.7,0.7l7,7.3l1.4-1c3.2-2.5,6.6-5,13.2-5
		c7.6,0,11.1,5,11.1,9.7v1.2h-6.1c-18.6,0-28.8,6.6-28.8,18.5c0,9.5,7.6,16.1,18.5,16.1c7.5,0,13-2.3,17-7.3c0,1.7,0.1,3.5,0.3,5.2
		l0.1,0.9h10.5l-0.1-1.1C303.7,368.1,303.6,365.3,303.6,361.5"/>
	<path class="st11" d="M342.8,317.7c-6.7,0-12.6,2.7-15.9,7V319h-11.5v52.6h11.5v-27c0-10.1,4.8-15.9,13.2-15.9
		c6.7,0,10.6,4.4,10.6,12.1v30.9h11.5V338C362.2,323.1,352.2,317.7,342.8,317.7"/>
</g>
<polygon class="st11" points="422.1,319.1 406,319.1 385.6,339.7 385.6,288 374,288 374,371.6 385.6,371.6 385.6,355 389.4,351.2 
	407.7,371.6 424,371.6 397.5,343.1 "/>
<g>
	<path class="st11" d="M460.1,347.2v2.3c0,6.7-3.5,13.8-13.5,13.8c-6.6,0-9.9-2.5-9.9-7.3c0-7.2,10.5-8.8,19.2-8.8H460.1z
		 M471,361.5v-25.9c0-8.6-5.8-17.8-22.1-17.8c-7.8,0-15.6,2.9-20.7,7.7l-0.7,0.7l7,7.3l1.4-1c3.2-2.5,6.6-5,13.1-5
		c7.6,0,11.1,5,11.1,9.7v1.2H454c-18.6,0-28.8,6.6-28.8,18.5c0,9.5,7.6,16.1,18.5,16.1c7.5,0,13-2.3,17-7.3c0,1.7,0.1,3.5,0.3,5.2
		l0.1,0.9h10.5l-0.1-1.1C471.1,368.1,471,365.3,471,361.5"/>
	<path class="st11" d="M510.1,328.6c9.4,0,15.7,6.7,15.7,16.7c0,10-6.3,16.7-15.7,16.7c-9.4,0-15.7-6.7-15.7-16.7
		C494.4,335.3,500.7,328.6,510.1,328.6 M511.3,317.7c-6.7,0-13,2.7-16.9,7V288h-11.5v83.6h11.5v-5.8c4,4.3,10.4,7,16.9,7
		c15.7,0,26.7-11.3,26.7-27.6C538,329.1,527,317.7,511.3,317.7"/>
</g>
<rect x="546.8" y="288" class="st11" width="11.5" height="83.6"/>
<g>
	<path class="st11" d="M594.8,327.4c8.2,0,13.1,4.7,13.6,12.8h-28.4C580.6,333.9,586.5,327.4,594.8,327.4 M620.6,345.4
		c0-12.8-6.7-27.7-25.6-27.7c-15.5,0-27.1,11.9-27.1,27.6c0,16.2,11.1,27.6,27,27.6c10.1,0,17.6-3.5,23.2-10.7l0.6-0.8l-8.8-6.7
		l-0.6,0.7c-4.1,5-8.1,7.2-13.2,7.2c-7.6,0-15.5-4.8-16.1-12.8h40.6V345.4z"/>
</g>
</svg>
