<?xml version="1.0" encoding="utf-8"?>
<!-- Generator: Adobe Illustrator 19.2.1, SVG Export Plug-In . SVG Version: 6.00 Build 0)  -->
<svg version="1.1" id="layer" xmlns="http://www.w3.org/2000/svg" xmlns:xlink="http://www.w3.org/1999/xlink" x="0px" y="0px"
	 viewBox="0 0 652 652" style="enable-background:new 0 0 652 652;" xml:space="preserve">
<style type="text/css">
	.st0{fill:#020203;}
	.st1{fill:#8FC045;}
</style>
<g>
	<path class="st0" d="M584.8,440.3c-0.1-1.5-0.1-9.5-0.3-17.7c0.3,0,1.2,0,1.2,0s6.7,20.8,19.8,17c2.2-0.6,4.1-2.3,4.8-4.5
		c4.3-13.6-22-11.2-25.2-23.7c-3.9-14.8,15.3-22.1,27.8-14.4c0.7,1.4,2.4,12.8,2.5,12.8c0,0-1.6,0.2-1.8,0c-0.2,0-2.9-8.5-9.4-11.7
		c-1.4-0.7-9.7-2.5-11.5,4.5c-3.5,13.3,32.4,8.6,25,30.3c-1.6,4.6-4.4,7.1-8.3,8.9c-4.9,2.3-12.2,1.6-17.4,0.7
		C589.6,442.2,586.9,441,584.8,440.3"/>
	<g>
		<path class="st0" d="M543.3,394.8c31.3-3,39.5,42.2,6.4,47.6C514.7,448,506.1,398.4,543.3,394.8 M545.5,397.9
			c-22,0-19,45.3,1.5,41.7C565.9,436.3,564.1,397.9,545.5,397.9 M288.7,394.5c-0.2,1.2,0,7.2,0,9.1c15.7-20.3,25.3,1.9,16,4.4
			c-6.1,1.7-5.2-4.5-10.4-4c-1.8,0.2-3.6,1.7-4.9,5.5c-0.5,1.3-0.7,2.6-0.7,4c0,8.3-0.3,18.2,0.4,21.1c1.1,4.5,6.2,6.5,9,6.3v1.4
			c-7-0.1-19.5,0-27.9,0V441c2.1,0.1,8-2.9,8-7.5c-0.1-12.8,0.3-21.6-0.6-25c-0.7-2.5-2.7-4.4-5.1-5.4c-0.6-0.2-3.6-1-1.2-1.8
			C278.2,399.2,283.1,397.4,288.7,394.5 M196,402.6c8.1,2.2,14.9,7.8,16.1,15.2c4,23.9-25,25.7-44.9,24.1
			c-6.3-0.5-12.2,0.4-16.1,0.3v-2.4c4.3-0.4,8.1-1.4,8.1-6.6v-57.5c0-4.3-3.9-5.9-7.9-5.9c-0.2-0.8-0.1-1.6,0-2.4
			c23.7,1,51.2-4.5,55.7,14.8C210.2,396.4,197.5,400.7,196,402.6 M172.1,437.8c5.4,2.2,9.7,2.4,14.9,1.4c17-3.4,19.5-28.8,1.2-32.9
			c-4.3-1-16.1-1.1-16.1-0.4C172.1,405.8,172,434.3,172.1,437.8 M172.1,371c-0.1,0-0.1,31.2-0.1,31.2c0,1.1,11.8,0.3,14.6-0.9
			c15-6.4,12.9-28.1-4.1-29.9C177.8,370.9,172.1,370.6,172.1,371 M264.2,439.1c0.3,0.7,0.5,1.6,0.5,1.6s-1.9,1-3.2,1.3
			c-11,3.2-11.3-6.7-11.3-6.7c-0.1-0.1-0.4-1.4-1.7,0.1c-6.6,7.6-28.5,12.8-27-2.7c0.5-5.6,4.2-9.1,9.8-12.3
			c6.5-3.7,16.5-5.9,17.3-7.9c0.7-1.7,0.4-8.3,0.4-10.1c0-3.9-4.7-3.2-6.3-2.9c-5.2,1.1-8.3,5.6-8.2,7c0.1,7.8-6.5,11-10.1,8.6
			c-5.4-3.6-0.2-12.1,8.6-16c4.9-2.2,8.9-3.7,15.3-4c9-0.5,11.6,3.5,11.6,11.6c0,0-0.1,30.5,0,30.6
			C259.8,437.1,259.6,440,264.2,439.1 M248.8,416.7c-1.5,0.7-14,5.7-16.5,10.5c-1,2-1.5,3.7-0.2,6.3c3.1,6.3,16.6,1.1,16.7-3.1
			C248.9,426,248.8,416.7,248.8,416.7 M416.1,439.1c0.3,0.7,0.5,1.6,0.5,1.6s-1.9,1-3.2,1.3c-11,3.2-11.3-6.8-11.3-6.8
			c-0.1-0.1-0.4-1.4-1.7,0.1c-6.6,7.6-28.5,12.8-27-2.7c0.5-5.6,4.2-9.1,9.8-12.3c6.5-3.7,16.5-5.9,17.3-7.9
			c0.7-1.7,0.4-8.3,0.4-10.1c0-3.9-4.7-3.2-6.3-2.9c-5.2,1.1-8.3,5.6-8.2,7c0.1,7.8-6.5,11-10.1,8.6c-5.4-3.6-0.2-12.1,8.6-16
			c4.9-2.2,8.9-3.7,15.3-4c9-0.5,11.6,3.5,11.6,11.6c0,0-0.1,30.5,0,30.6C411.7,437.1,411.5,440,416.1,439.1 M400.7,416.7
			c-1.5,0.7-14,5.7-16.5,10.5c-1,2-1.5,3.7-0.2,6.3c3.1,6.3,16.6,1.1,16.7-3.1C400.8,426,400.7,416.7,400.7,416.7"/>
		<path class="st0" d="M508.7,363.9c0.1,5,0,62.9,0,62.9c0.5,5.8-0.5,7.8,6.3,11.6l0.1,0.8c-5.4,0.8-10.8,2.1-16,3.7
			c0-3.2,0-6.8,0-6.8c0-5.1-3.4,6.2-16.6,6.8c-28.2,1.3-29.4-53.6,12.6-47.6c3.4,0.5,4.1,2.7,3.7-1.2v-14.8c0,0,0.4-3.5-7.9-7.3
			c-0.4-1.3,1.3-1.5,2-1.7C497.8,369.3,504,366.1,508.7,363.9 M487.5,398c-22.8,3.2-17.4,42.6,1.4,39.5c3.8-0.6,10-6.9,9.9-10.7
			c-0.1-3.9,0.1-18.9-0.2-22.3C498.2,400.1,492.1,397.3,487.5,398 M330.7,394.7l0.2,0v8.1c0.5-0.3,4.2-3.3,10.1-5.5
			c2.3-0.9,18-5,18.4,9c0.1,4.8,0,22.2,0,24.9c0,9.1,8.4,10,8.4,10s0,0.6,0,1.3h-25.3c0.1-0.5,0-1.3,0-1.3s6.4-0.4,6.4-9.3v-23.5
			c0-8.6-9.4-9.6-17.9,1v21.9c0,2.9,0.4,8.9,7.2,10v1.4c-4.7,0.1-21.8,0-25.4,0c0-0.6,0-1.4,0-1.4s7.2-1.2,7.2-10c0-8.7,0-22,0-22
			c-0.8-5.2-7-6.6-6.9-6.6c0,0,0-1,0-1.4C319,399.2,324.6,397.3,330.7,394.7"/>
		<path class="st0" d="M440.4,394.7c-0.2,1.2,0,7.2,0,9.1c15.7-20.3,25.3,1.9,16.1,4.4c-6.1,1.7-5.2-4.5-10.4-4
			c-1.8,0.2-3.6,1.7-5,5.5c-0.2,0.7-0.7,2.1-0.7,4c0,8.3-0.3,18.2,0.4,21.1c1.1,4.5,6.2,6.5,9,6.3v1.4c-7-0.1-19.6,0-27.9,0v-1.3
			c2.1,0.1,8-2.9,8-7.5c-0.1-12.8,0.4-21.6-0.6-25c-0.7-2.5-2.7-4.4-5.1-5.4c-0.6-0.2-3.6-1-1.2-1.7
			C429.8,399.4,434.7,397.5,440.4,394.7"/>
	</g>
	<path class="st0" d="M570.2,394c0.7-0.6,3.9-3.3,3.6-6.3c-0.1-1.1-0.5-2.9-1.7-4.1c-1.4-1.3-2.7-2.6-2.7-5.3c-0.1-2.9,2-5,4.8-5.3
		c4.7,0,6.8,3.2,6.8,7.1c0,6.6-4.1,11.9-9.3,15.5L570.2,394L570.2,394z"/>
	<path class="st1" d="M76.6,376.1c2.5,0,4.5-2.8,4.5-6.3c0-3.5-2-6.3-4.5-6.3c-2.5,0-4.5,2.8-4.5,6.3
		C72.2,373.3,74.2,376.1,76.6,376.1z M122.6,382.6c-7.8-4.9-12.8-3-20.5-8.4c-5.9-4.1-7.8-8-9.5-12.3c-1.2-2.9-1.7-3.8-2.5-3.8
		c-0.5,0-1.2,0.1-1.2,3c0,0,0,0,0,0.1c0,0.1,0,0.2,0,0.3c0,3.5-2.3,15.4-12.2,15.4c-9,0-12.1-11.4-12.1-15.6v-0.1c0-2.9-0.7-3-1.2-3
		c-0.9,0-1.4,0.9-2.5,3.8c-1.7,4.2-3.6,8.1-9.5,12.3c-7.7,5.4-12.7,3.4-20.5,8.4c-7.8,4.9-12.1,14-10,15.2c1.4,0.8,3.1-1.6,4.8-3.8
		c3.4-4.3,9.8-7.8,12.5-5.4c3.2,2.9-0.2,7.6-2.9,14.3c-2.4,5.7-2.1,12.5-1.6,18.1c0.9,10.2-3.6,13.4-1,15.2
		c2.7,1.8,7.3-6.4,8.3-16.4c0.5-5.1,0.3-10.2,2.3-10.2c2.3,0,2.3,9.8,1.6,14.7c-1.4,9.4-6.3,14.1-5.4,23.7c0.6,6.8,4.8,7,4.9,0.2
		c0.1-11.2,10.7-16.9,9.9-36.5c-0.5-11.7-2.1-20.6,4-33.2c1.5-3.2,2.9-6.4,4.2-9.7c0.5,1.3,1.5,3.9,2.2,5
		c7.1,11.7,7.1,11.7,4.4,22.3c-3.7,14.3,3.4,20.1,2.1,29.5c-0.7,5.4,2.6,5.6,3.9,0.1c1.7-6.7-1.1-10.7-1-17.5
		c0.1-3.5,1.2-10.3,3.4-9.8c1.4,0.3,0.3,3.4,0,7.2c-0.4,5.8,1.4,13.5,3.9,12.7c2.4-0.7-0.4-3.5,1.3-10.6c1-4.2,2.8-9.4,1.7-14.3
		c-2.2-9.7,3.1-16.8,4.4-19.1c0.9-1.7,1.8-3.7,2.3-5.6c1.3,3.3,2.8,6.6,4.3,9.9c6.1,12.6,4.4,21.5,4,33.2
		c-0.8,19.6,9.7,25.3,9.9,36.5c0.1,6.9,4.3,6.6,4.9-0.2c0.9-9.6-4.1-14.3-5.4-23.7c-0.7-4.9-0.7-14.7,1.6-14.7c2,0,1.8,5.1,2.3,10.2
		c1,10,5.6,18.1,8.3,16.4c2.7-1.8-1.9-5-1-15.2c0.5-5.6,0.8-12.4-1.6-18.1c-2.7-6.7-6.1-11.3-2.9-14.3c2.7-2.5,9.2,1,12.5,5.4
		c1.7,2.2,3.4,4.6,4.8,3.8C134.7,396.6,130.4,387.5,122.6,382.6z M106.4,375.5c2.5,1.6,6.2-0.1,8.4-3.7c2.2-3.6,2-7.8-0.5-9.3
		c-2.5-1.6-6.2,0.1-8.4,3.7C103.7,369.8,103.9,373.9,106.4,375.5L106.4,375.5z M47,375.5c2.5-1.6,2.7-5.7,0.5-9.3
		c-2.2-3.6-6-5.2-8.4-3.7c-2.5,1.6-2.7,5.7-0.5,9.3C40.8,375.4,44.5,377.1,47,375.5L47,375.5z M134.7,462.3H18.8V346.5h115.9V462.3z
		"/>
	<g>
		<path class="st1" d="M185.8,239.7c6.1,0,9.8-0.8,12.1-2.7c2.2-1.8,3.5-5.1,3.5-8.9c0-3.8-1.3-6.8-3.6-8.6
			c-2.7-2.1-5.8-2.8-12.8-2.8h-10v22.9H185.8L185.8,239.7z M184.3,209.2c6.9,0,9.8-0.7,12.2-3.1c1.9-1.7,2.8-4.1,2.8-7.2
			c0-3.5-1.1-6.2-3.1-7.8c-2.2-1.7-5.1-2.4-10.8-2.4h-10.5v20.5L184.3,209.2L184.3,209.2z M150.8,239.6h3.9c5.8,0,6.4-0.6,6.4-6
			v-38.7c0-5.5-0.6-6.1-6.4-6.1h-3.9v-7.5h37.9c16.4,0,24.4,5.3,24.4,16.2c0,8.1-3.5,12-13.2,14.8c5.6,1.4,8,2.5,10.6,4.6
			c3.5,2.9,5.2,7.1,5.2,12.5c0,5.6-2,10.2-5.6,13.1c-4.5,3.5-10.7,4.7-23.2,4.7h-36C150.8,247.1,150.8,239.6,150.8,239.6z
			 M256.5,217.9c-1.1-9.1-3.5-12.4-9.1-12.4c-5.8,0-9,3.7-10.6,12.4L256.5,217.9L256.5,217.9z M269.1,230.6
			c-1.3,7.2-3.1,10.6-7.3,13.8c-3.9,3-8.9,4.4-14.8,4.4c-14.4,0-24-10-24-24.8c0-14.9,9.8-25,24.4-25c7.4,0,12.9,2.3,16.7,6.9
			c3.7,4.4,4.9,9,5.3,18.9h-33c0.4,6.2,1.2,8.9,3.1,11.7c2.2,3.1,5,4.4,9.3,4.4c3.4,0,6.3-0.9,8.2-2.5c1.8-1.6,2.8-3.5,3.9-7.9
			C260.9,230.6,269.1,230.6,269.1,230.6z M295.1,234.6c0,4.8,1,5.8,5.6,5.8h3.1v6.6h-29.4v-6.6h3c4.7,0,5.7-1,5.7-5.8v-41
			c0-4.8-1-5.8-5.7-5.8h-3v-6.6h20.7L295.1,234.6C295.1,234.6,295.1,234.6,295.1,234.6z M330,187.7c0,4.1-3.3,7.3-7.2,7.3
			c-4.2,0-7.4-3.3-7.4-7.5c0-3.9,3.4-7.1,7.3-7.1C326.7,180.4,330,183.6,330,187.7C330,187.7,330,187.7,330,187.7z M308.3,240.5h3.6
			c4.6,0,5.6-1.1,5.6-5.8v-21.5c0-4.7-1-5.8-5.6-5.8h-3.6v-6.6h21.2v33.9c0,4.7,1,5.8,5.6,5.8h3v6.6h-29.7
			C308.3,247.1,308.3,240.5,308.3,240.5L308.3,240.5z M376.7,217.9c-1.1-9.1-3.5-12.4-9.1-12.4c-5.8,0-9,3.7-10.6,12.4L376.7,217.9
			L376.7,217.9z M389.4,230.6c-1.3,7.2-3.1,10.6-7.3,13.8c-4,3-8.9,4.4-14.8,4.4c-14.4,0-24-10-24-24.8c0-14.9,9.8-25,24.4-25
			c7.4,0,12.9,2.3,16.7,6.9c3.7,4.4,4.9,9,5.3,18.9h-33c0.4,6.2,1.2,8.9,3.1,11.7c2.2,3.1,5,4.4,9.3,4.4c3.4,0,6.3-0.9,8.2-2.5
			c1.8-1.6,2.8-3.5,3.9-7.9C381.2,230.6,389.4,230.6,389.4,230.6z M400.5,212.3c-1.2-3.6-2.8-4.9-5.3-4.9h-2.8v-6.6h25.5v6.6h-1.6
			c-2.8,0-3.9,0.7-3.9,2.5c0,1,0.3,2.6,0.9,4.2l7.3,21.4l7.9-22.3c0.4-1,0.6-2.1,0.6-3.3c0-1.7-1.4-2.5-4.3-2.5h-2.4v-6.6h22.8v6.6
			h-2.5c-2.6,0-4.4,1.9-5.9,5.9L425,247.1h-12.6L400.5,212.3L400.5,212.3z M481.1,217.9c-1.1-9.1-3.5-12.4-9.1-12.4
			c-5.8,0-9,3.7-10.6,12.4L481.1,217.9L481.1,217.9z M493.7,230.6c-1.3,7.2-3.1,10.6-7.3,13.8c-3.9,3-8.9,4.4-14.8,4.4
			c-14.4,0-24-10-24-24.8c0-14.9,9.8-25,24.4-25c7.4,0,12.9,2.3,16.7,6.9c3.7,4.4,4.9,9,5.3,18.9h-33c0.4,6.2,1.2,8.9,3.1,11.7
			c2.2,3.1,5,4.4,9.3,4.4c3.4,0,6.3-0.9,8.2-2.5c1.8-1.6,2.8-3.5,3.9-7.9L493.7,230.6L493.7,230.6z M545.9,187.7
			c0,4.1-3.3,7.3-7.2,7.3c-4.1,0-7.4-3.3-7.4-7.5c0-3.9,3.4-7.1,7.3-7.1C542.6,180.4,545.9,183.6,545.9,187.7
			C545.9,187.7,545.9,187.7,545.9,187.7z M524.3,240.5h3.6c4.6,0,5.6-1.1,5.6-5.8v-21.5c0-4.7-1-5.8-5.6-5.8h-3.6v-6.6h21.2v33.9
			c0,4.7,1,5.8,5.6,5.8h3v6.6h-29.7C524.3,247.1,524.3,240.5,524.3,240.5L524.3,240.5z M558.7,240.5h3.2c4.6,0,5.6-1,5.6-5.8v-21.4
			c0-4.8-1-5.8-5.6-5.8h-3.2v-6.6h20.7v8.1c6.1-7.2,10.4-9.6,16.7-9.6c4.3,0,8.6,1.6,11.1,4c2.5,2.5,3.4,6,3.4,13v18.3
			c0,4.8,1,5.8,5.6,5.8h2.8v6.6H591v-6.6h2c4.6,0,5.6-1,5.6-5.8v-18.3c0-4.1-0.3-5.4-1.4-6.9c-1.3-1.6-3.5-2.6-5.9-2.6
			c-3.5,0-6.8,1.8-9.1,4.8c-2.2,2.9-2.9,5.4-2.9,11v12c0,4.8,1,5.8,5.6,5.8h2v6.6h-28.3L558.7,240.5L558.7,240.5L558.7,240.5z
			 M195.9,316c-0.7,7.7-2,11.4-5,14.9c-3.5,3.9-8.8,6-15.7,6c-14.4,0-23.8-9.7-23.8-24.6c0-14.9,10.4-25.1,25.6-25.1
			c11.3,0,19.4,6,19.4,14.2c0,5-3.2,8.4-7.7,8.4c-4.2,0-7.1-2.7-7.1-6.5c0-3.5,1.8-5.4,5.6-6.1c-3.8-2.8-5.7-3.6-9.2-3.6
			c-8.5,0-13.2,6.5-13.2,18.3c0,10.7,4.2,16.1,12.2,16.1c6.9,0,10-3.3,11.5-12.1L195.9,316L195.9,316L195.9,316z M200,269.3h20.1
			V297c6.1-7.1,10.4-9.6,16.6-9.6c4.2,0,8.6,1.6,11.1,4c2.5,2.5,3.4,6,3.4,13v18.3c0,4.8,1,5.8,5.6,5.8h2.8v6.6h-27.8v-6.6h2
			c4.5,0,5.5-1,5.5-5.8v-18.3c0-4.1-0.3-5.4-1.4-6.9c-1.2-1.6-3.4-2.6-5.8-2.6c-3.5,0-6.8,1.8-9.1,4.8c-2.2,2.8-2.9,5.6-2.9,11.4
			v11.6c0,4.8,1,5.8,5.6,5.8h2v6.6H200v-6.6h2.6c4.6,0,5.6-1,5.6-5.8v-41c0-4.8-1-5.8-5.6-5.8H200C200,275.9,200,269.3,200,269.3z
			 M285.4,275.8c0,4-3.3,7.3-7.2,7.3c-4.2,0-7.4-3.3-7.4-7.5c0-3.9,3.4-7.1,7.3-7.1C282.1,268.5,285.4,271.8,285.4,275.8
			C285.4,275.8,285.4,275.8,285.4,275.8z M263.8,328.6h3.6c4.6,0,5.6-1.1,5.6-5.8v-21.4c0-4.7-1-5.8-5.6-5.8h-3.6v-6.6h21.2v33.9
			c0,4.7,1,5.8,5.6,5.8h3v6.6h-29.7C263.8,335.2,263.8,328.6,263.8,328.6z M318.3,322.8c0,4.8,1,5.8,5.6,5.8h3.1v6.6h-29.4v-6.6h3
			c4.7,0,5.7-1,5.7-5.8v-41c0-4.8-1-5.8-5.7-5.8h-3v-6.6h20.7L318.3,322.8L318.3,322.8z M346,311.9c0,11.2,3.7,16.8,10.8,16.8
			c7.4,0,11.6-5.9,11.6-16.5c0-10.6-4.2-16.5-11.6-16.5C349.8,295.7,346,301.3,346,311.9z M358.5,269.3h21.7v53.5
			c0,4.8,1,5.8,5.6,5.8h2.8v6.6h-20.3v-8.1c-4.1,7.1-8,9.5-15.5,9.5c-12.8,0-20.3-9-20.3-24.7c0-15.7,7.4-24.7,20.2-24.7
			c7.6,0,11.6,2.4,15.6,9.4v-14.8c0-4.8-1-5.8-5.6-5.8h-4.2C358.5,275.9,358.5,269.3,358.5,269.3L358.5,269.3z M424.2,335.2h-31.2
			v-6.6h3.2c4.6,0,5.6-1.1,5.6-5.8v-21.4c0-4.8-1-5.8-5.6-5.8h-3.2v-6.6h20.7v6.9c3.8-5.9,7.2-8.2,12.6-8.2
			c6.7,0,11.7,4.5,11.7,10.6c0,4.8-3.3,8.3-7.9,8.3c-4,0-6.7-2.4-6.7-6c0-3.4,1.7-5.2,5.9-6.6c-1.8-0.6-3.4-1-4.3-1
			c-2.8,0-6.1,2.2-8.1,5.3c-2,3-3.1,7.4-3.1,12.1v12.6c0,4.7,1,5.8,5.6,5.8h4.9L424.2,335.2L424.2,335.2L424.2,335.2z M475.2,306.1
			c-1.1-9.1-3.5-12.4-9.1-12.4c-5.8,0-9,3.7-10.6,12.4H475.2L475.2,306.1z M487.8,318.7c-1.3,7.2-3.1,10.6-7.3,13.8
			c-3.9,3-8.9,4.4-14.8,4.4c-14.4,0-24-10-24-24.8c0-14.9,9.8-25,24.4-25c7.4,0,12.9,2.3,16.7,6.9c3.7,4.4,4.9,9,5.3,18.9h-33
			c0.4,6.2,1.2,8.9,3.1,11.7c2.2,3.1,5,4.4,9.3,4.4c3.4,0,6.3-0.9,8.2-2.5c1.8-1.6,2.8-3.5,3.9-7.9
			C479.6,318.7,487.8,318.7,487.8,318.7L487.8,318.7z M493.6,328.6h3.2c4.6,0,5.6-1,5.6-5.8v-21.4c0-4.8-1-5.8-5.6-5.8h-3.2v-6.6
			h20.7v8.1c6.1-7.2,10.4-9.6,16.7-9.6c4.2,0,8.6,1.6,11.1,4c2.5,2.5,3.4,6,3.4,13.1v18.3c0,4.8,1,5.8,5.6,5.8h2.8v6.6h-27.9v-6.6h2
			c4.6,0,5.6-1,5.6-5.8v-18.3c0-4.1-0.3-5.4-1.4-6.9c-1.3-1.6-3.5-2.6-5.9-2.6c-3.5,0-6.8,1.8-9.1,4.8c-2.2,2.9-2.9,5.4-2.9,11v12
			c0,4.8,1,5.8,5.6,5.8h2v6.6h-28.3L493.6,328.6L493.6,328.6L493.6,328.6z"/>
	</g>
</g>
</svg>
