<svg xmlns:xlink="http://www.w3.org/1999/xlink" xmlns="http://www.w3.org/2000/svg" fill="none" viewBox="0 0 89.49 25">
<g clip-path="url(#clip0_5740_35754)">
<path d="M29.3796 2.71296C26.9722 0.962963 23.9259 0 20.7963 0H13.6018C10.4722 0 7.42592 0.962963 5.02778 2.71296C1.83333 5.03704 0 8.60185 0 12.5C0 16.3981 1.83333 19.963 5.01852 22.287C7.41667 24.037 10.463 25 13.5926 25H20.787C23.9167 25 26.963 24.037 29.3611 22.287C32.5556 19.963 34.3796 16.3981 34.3796 12.5C34.3796 8.60185 32.5648 5.03704 29.3796 2.71296ZM26.6481 15.963C25.0093 17.1852 22.8981 17.8519 20.7222 17.8519H13.6759C11.5 17.8519 9.38889 17.1759 7.75 15.963C5.64815 14.4074 4.5 12.1019 4.5 9.48148C4.5 6.86111 5.65741 4.56481 7.75 3C9.38889 1.77778 11.5 1.11111 13.6759 1.11111H20.7222C22.8981 1.11111 25.0093 1.78704 26.6481 3C28.75 4.55556 29.8981 6.86111 29.8981 9.48148C29.8981 12.1019 28.75 14.4074 26.6481 15.963Z" fill="#002924"/>
<path d="M20.7222 2.22217H13.6759C11.0741 2.22217 8.1759 3.75921 8.1759 6.92587C8.1759 10.0925 11.0741 11.6296 13.6759 11.6296H20.7222C23.3241 11.6296 26.2222 10.0925 26.2222 6.92587C26.2222 3.75921 23.3241 2.22217 20.7222 2.22217Z" fill="#002924"/>
<path d="M52.9722 11.8519C53.6481 11.4815 54.2037 10.8797 54.6296 10.0463C55.0555 9.213 55.2685 8.31485 55.2685 7.35189C55.2685 5.37966 54.6759 3.85189 53.4907 2.75003C52.3148 1.65744 50.5833 1.11115 48.3055 1.11115H39.6759V23.8426H48.8333C50.9352 23.8426 52.6111 23.2315 53.8611 22.0186C55.1111 20.8056 55.7315 19.1574 55.7315 17.0741C55.7315 14.5556 54.8148 12.8148 52.9722 11.8519ZM45.0926 5.80559H47.7778C48.3703 5.80559 48.8333 5.98151 49.1759 6.35189C49.5185 6.713 49.6852 7.22226 49.6852 7.87966C49.6852 8.53707 49.5185 9.04633 49.1759 9.40744C48.8333 9.76855 48.3703 9.95374 47.7778 9.95374H45.0926V5.80559ZM49.5092 18.4537C49.1296 18.8704 48.6203 19.0741 47.9815 19.0741H45.0926V14.5741H47.9722C48.6296 14.5741 49.1389 14.7686 49.5185 15.1667C49.8889 15.5648 50.074 16.1111 50.074 16.8056C50.0833 17.4908 49.8889 18.0371 49.5092 18.4537ZM65.6759 19.4723C64.6666 19.4723 63.8426 19.2315 63.2129 18.75C62.5741 18.2686 62.2037 17.6111 62.0926 16.7778H73.8241C73.8703 16.1852 73.8889 15.5093 73.8889 14.7408C73.8889 12.0926 73.1203 9.963 71.5741 8.3704C70.0278 6.76855 67.9259 5.97226 65.25 5.97226C62.7129 5.97226 60.6389 6.83337 59.0278 8.56485C57.4166 10.2963 56.6111 12.4815 56.6111 15.1389C56.6111 17.9167 57.4352 20.1111 59.0926 21.7223C60.75 23.3334 62.9259 24.1389 65.6481 24.1389C67.6389 24.1389 69.2685 23.713 70.5278 22.8611C71.6759 22.0834 72.537 21.1667 73.1296 20.1019L69.0555 17.713C68.1944 18.8797 67.074 19.4723 65.6759 19.4723ZM63.1296 11.1667C63.6666 10.6389 64.3703 10.3797 65.25 10.3797C66.1666 10.3797 66.9074 10.6389 67.4629 11.1482C68.0185 11.6667 68.3333 12.3056 68.3981 13.0741H62.2222C62.2963 12.3241 62.5926 11.6852 63.1296 11.1667ZM89.4907 12.2778V23.8426H84.2037V12.9074C84.2037 12.25 84.0463 11.7315 83.7315 11.3426C83.4166 10.963 82.9444 10.7686 82.3333 10.7686C81.7407 10.7686 81.2778 10.9537 80.9537 11.3241C80.6296 11.6945 80.4629 12.213 80.4629 12.8704V23.8426H75.1759V6.26855H80.4629V7.38892C81.4259 6.50929 82.6111 6.07411 84.0092 6.07411C85.9352 6.07411 87.3333 6.64818 88.1944 7.77781C89.0555 8.9167 89.4907 10.4167 89.4907 12.2778Z" fill="#002924"/>
</g>
<defs>
<clipPath id="clip0_5740_35754">
<rect width="89.4907" height="25" fill="white"/>
</clipPath>
</defs>
</svg>