<?xml version="1.0" encoding="utf-8"?>
<!-- Generator: Adobe Illustrator 19.2.1, SVG Export Plug-In . SVG Version: 6.00 Build 0)  -->
<svg version="1.1" id="layer" xmlns="http://www.w3.org/2000/svg" xmlns:xlink="http://www.w3.org/1999/xlink" x="0px" y="0px"
	 viewBox="0 0 652 652" style="enable-background:new 0 0 652 652;" xml:space="preserve">
<style type="text/css">
	.st0{fill:none;}
	.st1{fill:#404E7D;}
</style>
<path id="path8" class="st0" d="M297.4,317.2c-5.8-0.2-10.8,4.2-11.3,10h22.6C308.5,322.2,305.2,317.2,297.4,317.2z"/>
<path id="path10" class="st0" d="M248.2,306.3c0-5.6-3.6-9-10.5-9h-10v18.2H238C244.3,315.5,248.2,311.9,248.2,306.3z"/>
<path id="path12" class="st0" d="M239.5,327.2h-11.7v19.2h11.5c6.9,0,11-3.6,11-9.5S246.6,327.2,239.5,327.2z"/>
<path id="path14" class="st1" d="M251.6,320.6c6.5-2.4,10.8-8.7,10.6-15.6c0-11.3-8-19.6-22.2-19.6h-26.2v72.9h28.2
	c13.7,0,22.5-8.5,22.5-20.4C264.7,329.8,259.4,322.7,251.6,320.6z M227.8,297.3h10c6.9,0,10.5,3.5,10.5,9s-3.9,9.1-10.4,9.1h-10.2
	L227.8,297.3z M239.3,346.4h-11.5v-19.2h11.7c7.1,0,10.8,4,10.8,9.8S246.1,346.4,239.3,346.4z"/>
<path id="path16" class="st1" d="M297.1,306.2c-12.9,0-24.9,10.5-24.9,26.6c0,17.1,12.2,27,26.1,27c12.4,0,20.4-7.3,22.9-16
	l-11.4-3.4c-1.6,4.9-6.4,8.1-11.5,7.6c-6.7,0.2-12.3-4.9-12.7-11.5h36.2c0-0.2,0.2-2.3,0.2-4.2C322.2,316.1,312.8,306.2,297.1,306.2
	z M286,327.2c0.5-5.8,5.5-10.2,11.3-10c7.8,0,11.1,4.9,11.3,10H286z"/>
<path id="path18" class="st1" d="M358.9,306.3c-5.9-0.2-11.4,2.7-14.6,7.6v-6.3H331v50.6h13.7v-29.2c0-5.9,3.5-10.5,9.5-10.5
	c6.6,0,9.4,4.4,9.4,10.2v29.5h13.7v-31.9C377.2,315.3,371.4,306.3,358.9,306.3z"/>
<path id="path20" class="st1" d="M409.8,347.3c-7,0-12.9-5.1-12.9-14.3s5.9-14.2,12.7-14.2c5.3-0.2,10,3.4,11.2,8.5l12.2-4.1
	c-2.2-8.5-10-17.1-23.8-17.1c-14.3-0.2-26,11.2-26.2,25.5c0,0.4,0,0.9,0,1.3c-0.3,14.5,11.2,26.4,25.6,26.7c0.4,0,0.7,0,1.1,0
	c10.9,0.5,20.7-6.6,23.6-17.1l-12-4C420,343.9,415.2,347.5,409.8,347.3L409.8,347.3z"/>
<path id="path22" class="st1" d="M468.9,306.3c-5.2-0.2-10.2,1.8-13.8,5.6v-28h-13.7v74.4h13.7v-29.8c0.3-5.6,3.7-9.9,9.5-9.9
	c6.6,0,9.4,4.4,9.4,10.2v29.5h13.7v-32C487.7,315.3,481.7,306.3,468.9,306.3z"/>
<path id="path24" class="st1" d="M527.6,317.8l-10.9-2.4c-6.2-1.3-9.4-5.4-9.4-10.6c0-6.8,5.9-12.1,14.1-12.1
	c7.6-0.4,14.2,5,15.4,12.4l9-3.2c-1.6-7.9-8.2-18.1-24.7-18.1c-13.5,0-24.1,10.2-24.1,21.7c0,10.9,7.4,17.7,17.8,20l10.4,2.3
	c7.3,1.6,10.9,6.1,10.9,11.3c0,6.4-4.9,11.6-15,11.6c-9.1,0.5-17-6.5-17.5-15.6c0,0,0,0,0,0l-9.7,3.1c1.3,10.4,9.7,21.7,27.2,21.7
	c15.5,0,25.2-10.2,25.2-21.6C546.5,328,539.7,320.4,527.6,317.8L527.6,317.8z"/>
<path id="path26" class="st1" d="M577.3,350.9c-8,0-15.1-6.1-15.1-17.4c0-11.3,7.2-17.3,15-17.3c6.4-0.3,12,4.2,13.3,10.5l8.7-3.7
	c-2.1-7.5-8.8-15.7-22-15.7c-14.1,0-24.9,10.8-24.9,26.2c0,15,10.6,26.3,25,26.3c10,0.3,19.1-5.9,22.3-15.4l-8.5-3.7
	C589.5,347,583.7,351.2,577.3,350.9z"/>
<path id="path28" class="st1" d="M613.7,283.2c-3.8,0.1-6.9,3.2-6.8,7.1c0.1,3.8,3.2,6.9,7.1,6.8c3.8-0.1,6.8-3.2,6.8-7
	c0-3.8-3.1-6.9-6.9-6.9C613.8,283.2,613.7,283.2,613.7,283.2z"/>
<path id="rect30" class="st1" d="M608.9,308.8h9.6v49.5h-9.6V308.8z"/>
<path id="path32" class="st1" d="M118.2,303.1c5.2-5.1,8.2-12.2,8.2-19.5h-10c0,4.7-1.8,9.2-5.1,12.5l-12.6,12.6l-13.1-13.2
	c-2.9-3.2-4.6-7.5-4.5-11.8h-10c0,7.3,2.9,14.4,8.1,19.5l12.5,12.5l-12.5,12.5c-5.2,5.2-8.1,12.2-8.1,19.5V363h11v-7.3h11.1v7.3h11
	v-7.3h11v7.3h11.1v-15.3c0-7.3-2.9-14.4-8.1-19.5l-9.2-9.1l-7,7l9.2,9c2.9,2.8,4.7,6.6,5.1,10.5H81.1c0.4-4,2.2-7.7,5.1-10.5
	L118.2,303.1z"/>
<path id="path34" class="st1" d="M98.3,399c-42.9,0-77.6-34.7-77.6-77.6s34.7-77.6,77.6-77.6s77.6,34.7,77.6,77.6l0,0
	C175.9,364.3,141.2,399,98.3,399z M98.3,252.6c-38,0-68.8,30.8-68.8,68.8s30.8,68.8,68.8,68.8s68.8-30.8,68.8-68.8
	C167,283.5,136.3,252.8,98.3,252.6z"/>
</svg>
