<svg xmlns="http://www.w3.org/2000/svg" xmlns:xlink="http://www.w3.org/1999/xlink" version="1.1" id="Layer_1" x="0px" y="0px" style="enable-background:new 0 0 311.81 49.21;" xml:space="preserve" viewBox="0 0 311.81 49.23">
<style type="text/css">
	.st0{fill:#001B3A;}
</style>
<path class="st0" d="M194.42,33.75c0.01,8.54-6.92,15.47-15.46,15.48c-8.54,0.01-15.47-6.92-15.48-15.46  c-0.01-8.54,6.92-15.47,15.46-15.48c0.01,0,0.01,0,0.02,0C187.5,18.29,194.42,25.21,194.42,33.75z M178.96,25.87  c-4.37,0-7.91,3.54-7.91,7.91s3.54,7.91,7.91,7.91c4.37,0,7.91-3.54,7.91-7.91S183.33,25.87,178.96,25.87L178.96,25.87z"/>
<path class="st0" d="M0,48.47V7.8h21.41c7.74,0,11.71,4.94,11.71,10.36c0,5.06-3.18,8.54-7,9.33c4.39,0.68,7.81,4.88,7.81,9.94  c0,6.16-4,11-11.83,11L0,48.47z M24.27,19.69c0-2.5-1.83-4.27-4.75-4.27H8.66v8.54h10.86C22.44,23.96,24.27,22.31,24.27,19.69z   M25.07,36.21c0-2.56-1.83-4.63-5.19-4.63H8.66v9.29h11.22C23.11,40.87,25.07,39.14,25.07,36.21z"/>
<path class="st0" d="M36.58,33.71c-0.23-8.28,6.29-15.18,14.57-15.42c0.23-0.01,0.45-0.01,0.68,0c8.84,0,14.76,6.58,14.76,16.16  v1.83h-21.9c0.58,3.59,3.48,6.59,8.48,6.59c2.86-0.02,5.62-1.03,7.81-2.86l3.47,5.12c-2.93,2.68-7.56,4.08-12.13,4.08  C43.35,49.2,36.58,43.17,36.58,33.71z M51.83,24.63c-3.71-0.23-6.92,2.57-7.2,6.28h14.52C58.9,28.1,56.95,24.63,51.83,24.63z"/>
<path class="st0" d="M90.27,48.47V30.66c0-4.08-2.13-5.48-5.43-5.48c-2.64,0.05-5.11,1.31-6.71,3.41v19.88h-7.74V19.02h7.74v3.78  c2.64-2.9,6.39-4.54,10.31-4.51c6.53,0,9.64,3.65,9.64,9.39v20.79H90.27z"/>
<path class="st0" d="M102.06,33.71c-0.23-8.28,6.29-15.18,14.57-15.42c0.21-0.01,0.42-0.01,0.64,0c8.84,0,14.75,6.58,14.75,16.16  v1.83h-21.85c0.55,3.59,3.48,6.58,8.48,6.58c2.86-0.02,5.62-1.03,7.81-2.86l3.47,5.12c-2.92,2.68-7.56,4.08-12.14,4.08  C108.83,49.2,102.06,43.17,102.06,33.71z M117.27,24.63c-3.71-0.23-6.92,2.57-7.2,6.28h14.52C124.38,28.1,122.43,24.63,117.27,24.63  z"/>
<path class="st0" d="M143.52,48.47l-11.83-29.45h8.3l7.68,20.49l7.74-20.49h8.3l-11.83,29.45H143.52z"/>
<path class="st0" d="M198.7,48.47V7.8h7.74v40.67H198.7z"/>
<path class="st0" d="M210.46,33.71c-0.23-8.28,6.29-15.18,14.57-15.42c0.23-0.01,0.45-0.01,0.68,0c8.84,0,14.75,6.58,14.75,16.16  v1.83h-21.89c0.55,3.59,3.48,6.58,8.48,6.58c2.85-0.02,5.61-1.03,7.8-2.86l3.48,5.12c-2.93,2.68-7.56,4.08-12.14,4.08  C217.27,49.2,210.46,43.17,210.46,33.71z M225.71,24.63c-3.71-0.23-6.92,2.57-7.2,6.28h14.51C232.78,28.1,230.83,24.63,225.71,24.63  z"/>
<path class="st0" d="M264.18,48.47V30.66c0-4.08-2.14-5.48-5.43-5.48c-2.64,0.05-5.11,1.31-6.71,3.41v19.88h-7.77V19.02h7.74v3.78  c2.64-2.9,6.39-4.54,10.31-4.51c6.52,0,9.63,3.65,9.63,9.39v20.79H264.18z"/>
<path class="st0" d="M279.42,41.09v-15.3h-4.88v-6.77h4.88v-8.05h7.74v8.05h6v6.77h-6v13.23c0,1.89,1,3.29,2.68,3.29  c0.98,0.04,1.94-0.28,2.69-0.91l1.64,5.91c-1.15,1-3.23,1.89-6.46,1.89C282.27,49.2,279.42,46.4,279.42,41.09z"/>
<path class="st0" d="M303.7,14.81l-0.94-2.51h-6.35l-0.93,2.51h-3.58L297.61,0h4l5.66,14.81H303.7z M299.59,3.15l-2.32,6.38h4.62  L299.59,3.15z"/>
<path class="st0" d="M308.66,14.81V0h3.15v14.81L308.66,14.81z"/>
</svg>