<?xml version="1.0" encoding="UTF-8" standalone="no"?>
<!-- Created with Inkscape (http://www.inkscape.org/) -->

<svg
   xmlns:dc="http://purl.org/dc/elements/1.1/"
   xmlns:cc="http://creativecommons.org/ns#"
   xmlns:rdf="http://www.w3.org/1999/02/22-rdf-syntax-ns#"
   xmlns:svg="http://www.w3.org/2000/svg"
   xmlns="http://www.w3.org/2000/svg"
   xmlns:sodipodi="http://sodipodi.sourceforge.net/DTD/sodipodi-0.dtd"
   xmlns:inkscape="http://www.inkscape.org/namespaces/inkscape"
   width="115.96298"
   height="27.53002"
   viewBox="0 0 30.681873 7.2839844"
   version="1.1"
   id="svg9538"
   inkscape:version="0.92.0 r15299"
   sodipodi:docname="bibliu.svg">
  <defs
     id="defs9532" />
  <sodipodi:namedview
     id="base"
     pagecolor="#ffffff"
     bordercolor="#666666"
     borderopacity="1.0"
     inkscape:pageopacity="0.0"
     inkscape:pageshadow="2"
     inkscape:zoom="7.8025113"
     inkscape:cx="57.481493"
     inkscape:cy="13.265008"
     inkscape:document-units="mm"
     inkscape:current-layer="layer1"
     showgrid="false"
     fit-margin-top="0"
     fit-margin-left="0"
     fit-margin-right="0"
     fit-margin-bottom="0"
     units="px"
     inkscape:window-width="1280"
     inkscape:window-height="744"
     inkscape:window-x="-4"
     inkscape:window-y="-4"
     inkscape:window-maximized="1" />
  <metadata
     id="metadata9535">
    <rdf:RDF>
      <cc:Work
         rdf:about="">
        <dc:format>image/svg+xml</dc:format>
        <dc:type
           rdf:resource="http://purl.org/dc/dcmitype/StillImage" />
        <dc:title></dc:title>
      </cc:Work>
    </rdf:RDF>
  </metadata>
  <g
     inkscape:label="Layer 1"
     inkscape:groupmode="layer"
     id="layer1"
     transform="translate(2.73543,-145.05905)">
    <g
       transform="translate(-315.19945,-330.06261)"
       id="g9513">
      <path
         id="path9463"
         d="m 320.41514,478.76365 c 0.43397,0.48315 0.67379,1.1077 0.67379,1.75485 0,0.64714 -0.23982,1.27169 -0.67379,1.75485 h -2.87924 c 0.43399,-0.48316 0.67378,-1.10771 0.67378,-1.75485 0,-0.64715 -0.23979,-1.2717 -0.67378,-1.75485 0.43399,-0.48316 0.67378,-1.10771 0.67378,-1.75485 0,-0.64714 -0.23979,-1.2717 -0.67378,-1.75485 h 2.87924 c 0.43397,0.48315 0.67379,1.10771 0.67379,1.75485 0,0.64714 -0.23982,1.27169 -0.67379,1.75485 z"
         inkscape:connector-curvature="0"
         style="fill:#7ff1ab;stroke-width:0.26458332" />
      <path
         id="path9465"
         d="m 317.5578,478.76365 c 0.43241,0.48315 0.67136,1.1077 0.67136,1.75485 0,0.64714 -0.23895,1.27169 -0.67136,1.75485 h -4.96149 v -7.0194 h 4.96149 c 0.43241,0.48315 0.67136,1.10771 0.67136,1.75485 0,0.64714 -0.23895,1.27169 -0.67136,1.75485 z"
         inkscape:connector-curvature="0"
         style="fill:#604dad;stroke-width:0.26458332" />
      <path
         id="path9467"
         d="m 328.80159,479.94917 c 0,0.43666 -0.15433,0.8033 -0.45559,1.09968 -0.30125,0.29636 -0.67185,0.44456 -1.11201,0.44456 h -2.33207 v -5.45953 h 2.1621 c 0.42471,0 0.77988,0.1403 1.07333,0.42899 0.29343,0.28868 0.44035,0.63952 0.44035,1.0606 0,0.48365 -0.19301,0.86566 -0.58611,1.13876 0.49332,0.24173 0.81,0.70207 0.81,1.28694 z m -3.18151,-3.2361 v 1.66915 h 1.44412 c 0.45562,0 0.80315,-0.36663 0.80315,-0.83447 0.002,-0.10885 -0.0184,-0.21692 -0.0596,-0.31752 -0.0412,-0.10061 -0.10234,-0.1916 -0.17976,-0.26735 -0.15433,-0.16378 -0.33973,-0.24961 -0.56362,-0.24961 z m 1.61391,4.10253 c 0.48646,0 0.85706,-0.38989 0.85706,-0.88913 0.002,-0.11597 -0.0197,-0.23109 -0.0634,-0.33838 -0.0437,-0.10726 -0.10851,-0.20442 -0.19058,-0.28554 -0.16217,-0.17103 -0.36293,-0.25654 -0.60233,-0.25654 h -1.61467 v 1.77038 z"
         inkscape:connector-curvature="0"
         style="fill:#000000;stroke-width:0.26458332" />
      <path
         id="path9469"
         d="m 329.32155,476.4094 c 2.1e-4,-0.12251 0.0509,-0.23995 0.14105,-0.32658 0.0901,-0.0866 0.21227,-0.13539 0.3397,-0.1356 0.26077,0 0.47249,0.21147 0.47249,0.46218 0,0.12153 -0.0502,0.23808 -0.1396,0.32401 -0.0894,0.0859 -0.2106,0.13421 -0.33702,0.13421 -0.12639,0 -0.24762,-0.0483 -0.33703,-0.13421 -0.0894,-0.0859 -0.13959,-0.20248 -0.13959,-0.32401 z m 0.12224,5.08401 v -3.91686 h 0.70897 v 3.91686 z"
         inkscape:connector-curvature="0"
         style="fill:#000000;stroke-width:0.26458332" />
      <path
         id="path9471"
         d="m 334.55792,478.08777 c 0.37732,0.3968 0.56978,0.87902 0.56978,1.44709 0,0.56803 -0.19246,1.05812 -0.56978,1.45473 -0.37733,0.39661 -0.83918,0.59049 -1.37819,0.59049 -0.63905,0 -1.12408,-0.25675 -1.4551,-0.7702 v 0.66921 h -0.66993 v -5.44521 h 0.66993 v 2.22415 c 0.33102,-0.51346 0.81605,-0.77018 1.4551,-0.77018 0.53901,7.8e-4 1.00068,0.20312 1.37819,0.59992 z m -0.49284,2.44282 c 0.2618,-0.27221 0.39272,-0.59915 0.39272,-0.99573 0,-0.39662 -0.13092,-0.72356 -0.39272,-0.98809 -0.26181,-0.2722 -0.58439,-0.40447 -0.97007,-0.40447 -0.39272,0 -0.71607,0.13227 -0.97787,0.40447 -0.26181,0.26453 -0.39273,0.5905 -0.39273,0.98809 0,0.39758 0.13092,0.72352 0.39273,0.99573 0.2618,0.26453 0.58438,0.39679 0.97787,0.39679 0.38505,0 0.70839,-0.13226 0.97007,-0.39679 z"
         inkscape:connector-curvature="0"
         style="fill:#000000;stroke-width:0.26458332" />
      <path
         id="path9473"
         d="m 335.82098,481.49341 v -5.71951 h 0.69329 v 5.71951 z"
         inkscape:connector-curvature="0"
         style="fill:#000000;stroke-width:0.26458332" />
      <path
         id="path9475"
         d="m 337.20753,476.4094 c 2.2e-4,-0.12251 0.0509,-0.23995 0.14105,-0.32658 0.0901,-0.0866 0.21228,-0.13539 0.3397,-0.1356 0.26078,0 0.47249,0.21147 0.47249,0.46218 0,0.12153 -0.0502,0.23808 -0.13959,0.32401 -0.0894,0.0859 -0.21061,0.13421 -0.33703,0.13421 -0.12639,0 -0.24762,-0.0483 -0.33702,-0.13421 -0.0894,-0.0859 -0.1396,-0.20248 -0.1396,-0.32401 z m 0.12224,5.08401 v -3.91686 h 0.70898 v 3.91686 z"
         inkscape:connector-curvature="0"
         style="fill:#000000;stroke-width:0.26458332" />
      <path
         id="path9477"
         d="m 338.94069,476.03388 h 0.72144 v 3.58638 c 0,0.7702 0.47334,1.25262 1.31894,1.25262 0.84588,0 1.31895,-0.48242 1.31895,-1.25262 v -3.58638 h 0.71358 v 3.61729 c 0,0.5834 -0.18626,1.05814 -0.5662,1.40811 -0.37995,0.34994 -0.86995,0.5208 -1.46738,0.5208 -0.59743,0 -1.09379,-0.17123 -1.474,-0.5212 -0.3802,-0.34996 -0.56533,-0.82391 -0.56533,-1.40771 z"
         inkscape:connector-curvature="0"
         style="fill:#000000;stroke-width:0.26458332" />
    </g>
  </g>
</svg>
