<svg xmlns="http://www.w3.org/2000/svg" viewBox="0 0 154.64 40.57">
  <g fill="none" fill-rule="nonzero">
    <g fill="#152D72">
      <path d="M149.8641791 17.0119403h-.55074626v1.6522388h-.6119403v-4.46716417h1.71343283c.97910448 0 1.34626866.73432835 1.34626866 1.40746268 0 .6119403-.30597015 1.28507463-1.16268657 1.34626866l1.16268657 1.6522388h-.79552239l-1.10149254-1.59104477zM149.31343284 16.4h.85671641c.6119403 0 .85671642-.30597015.85671642-.79552239s-.30597015-.79552239-.73432836-.79552239h-.97910447V16.4z"/>
      <path d="M150.10895522 20.98955224c-2.50895522 0-4.5283582-2.01940299-4.5283582-4.52835821 0-2.50895522 2.01940298-4.5283582 4.5283582-4.5283582 2.50895523 0 4.52835821 2.01940298 4.52835821 4.5283582-.06119403 2.50895522-2.08059701 4.52835821-4.52835821 4.52835821zm0-8.62835821c-2.2641791 0-4.1 1.8358209-4.1 4.1s1.8358209 4.1 4.1 4.1c2.26417911 0 4.1-1.8358209 4.1-4.1s-1.83582089-4.1-4.1-4.1z"/>
    </g>
    <path fill="#152D72" d="M22.7029851 18.8477612c4.161194-1.5910448 5.5074627-4.9567164 5.5074627-7.5880597C28.2104478 4.34477612 23.4985075 0 16.2164179 0H8.62835821v7.5880597h6.67014929c2.5089552 0 3.7940298 1.71343284 3.7940298 4.2223881 0 2.3865671-1.5298507 4.161194-3.7328358 4.161194H8.62835821V7.5880597H0v32.9223881h17.3791045c8.0776119 0 12.9119403-5.6910448 12.9119403-12.4223881.061194-3.3044776-2.2641791-7.8940298-7.5880597-9.2402985zm-5.7522388 14.0746269H8.62835821v-9.7910448h8.13880599c3.0597015 0 4.5283582 2.5089552 4.5283582 4.8343283 0 2.3865672-1.4686567 4.9567165-4.3447761 4.9567165zM33.4731343 12.8507463h8.01641791v27.6597015H33.4731343zM106.232836 12.8507463h8.01641791v27.6597015H106.232836z"/>
    <path fill="#FF6841" d="M33.4731343 0h7.77164179v7.77164179H33.4731343z"/>
    <path fill="#152D72" d="M137.564179 29.6179104C136.401493 31.5149254 134.320896 32.8 131.934328 32.8c-3.610447 0-6.547761-2.9373134-6.547761-6.5477612s2.937314-6.5477612 6.547761-6.5477612c2.325373 0 4.405971 1.2238806 5.568657 3.0597015l6.119403-4.6507463c-2.570149-3.6716418-6.853731-6.1194029-11.68806-6.1194029-7.832835 0-14.258209 6.3641791-14.258209 14.2582089 0 7.8940299 6.36418 14.258209 14.258209 14.258209 4.895523 0 9.179105-2.4477612 11.749254-6.1805971l-6.119403-4.7119403zM58.6850746 11.9940299c-7.8328358 0-14.2582089 6.3641791-14.2582089 14.2582089 0 7.8940299 6.3641791 14.258209 14.2582089 14.258209 7.8940299 0 14.258209-6.3641791 14.258209-14.258209 0-7.8940298-6.3641791-14.2582089-14.258209-14.2582089zm0 20.7447761c-3.6104477 0-6.4865671-2.8761194-6.4865671-6.4865672 0-3.6104478 2.8761194-6.4865672 6.4865671-6.4865672 3.6104478 0 6.4865672 2.8761194 6.4865672 6.4865672 0 3.6104478-2.8761194 6.4865672-6.4865672 6.4865672zM76.1253731 12.8507463v27.7208955h8.0164179V20.8671642h9.4850747v19.7044776h8.0164183V12.8507463z"/>
    <path fill="#FF6841" d="M110.08806 9.60746269c2.508955 0 4.589552-2.01940299 4.589552-4.58955224 0-2.50895523-2.019403-4.58955224-4.589552-4.58955224-2.508956 0-4.589553 2.01940298-4.589553 4.58955224 0 2.50895522 2.019403 4.58955224 4.589553 4.58955224z"/>
  </g>
</svg>