<svg width="217" height="40" viewBox="0 0 217 40" fill="none" xmlns="http://www.w3.org/2000/svg">
<g clip-path="url(#clip0_2590_7017)">
<path d="M15.2424 29.9306C14.8728 29.9306 14.5957 29.5611 14.2262 29.2839C10.9005 26.2354 7.57491 23.1869 4.24928 20.046C2.77122 18.568 1.20078 17.1823 0.461749 15.15C-0.554417 12.0091 0.461749 8.22155 3.14073 6.09684C4.61879 4.89592 6.46637 4.24927 8.40632 4.24927C11.0853 4.24927 13.6719 5.63495 15.2424 7.85204C15.7042 8.40631 14.6881 9.23772 14.5033 9.88437C14.5033 9.97675 14.3186 9.60724 14.3186 9.69962C14.3186 9.60724 14.2262 9.60724 14.2262 9.51486C13.1176 7.39015 10.8082 6.00446 8.40632 6.00446H8.31394C5.9121 6.00446 3.60263 7.39015 2.4017 9.60724C1.29316 11.7319 1.38554 14.5033 2.95598 16.4433C3.87976 17.6442 4.98831 18.6604 6.09685 19.6765C8.68346 22.1707 11.3624 24.5726 14.0414 26.9744L14.5033 27.4363C14.5033 27.4363 14.6881 29.9306 14.8728 29.9306C15.0576 29.9306 15.15 29.9306 15.2424 29.9306Z" fill="#0FD03B"/>
<path d="M8.314 8.68359C9.69969 8.68359 10.993 9.515 11.6396 10.7159C12.1939 11.8245 12.1939 13.0254 11.732 14.1339C10.993 15.612 9.23779 16.5358 7.57497 16.2587C6.00453 15.9815 4.71123 14.5958 4.52647 13.0254C4.34172 11.8245 4.80361 10.5312 5.7274 9.69976C6.46643 9.05311 7.39022 8.68359 8.314 8.68359ZM8.314 10.3464C7.39022 10.3464 6.46643 11.0854 6.28167 12.0092C6.00454 13.3025 7.20546 14.873 8.7759 14.5958C9.60731 14.4111 10.3463 13.672 10.5311 12.8406C10.6235 11.6397 9.60731 10.3464 8.314 10.3464Z" fill="#0FD03B"/>
<path fill-rule="evenodd" clip-rule="evenodd" d="M22.0785 4.15723C24.8499 4.15723 27.6213 5.72767 29.1917 8.12951C30.7621 10.7161 30.8545 14.2265 29.1917 16.7207C28.3603 18.014 27.2517 19.0302 26.1432 20.0464C22.7252 23.372 19.1224 26.5129 15.612 29.6538L15.5196 29.7461C15.3349 29.8385 15.1501 29.8385 14.9654 29.7461C14.5959 29.5614 14.6882 29.0071 14.6882 28.5452C14.4111 23.6491 14.0416 18.7531 13.8568 13.9494C13.7644 12.1018 13.8568 10.2542 14.7806 8.59141C16.0739 6.0048 18.9377 4.24961 22.0785 4.15723ZM22.0785 9.42282C23.7414 9.42282 25.127 10.8085 25.127 12.4713C25.0347 14.1341 23.649 15.5198 21.9862 15.4274C20.4157 15.3351 19.1224 14.0418 19.03 12.4713C19.03 10.8085 20.3233 9.42282 22.0785 9.42282Z" fill="#0FD03B"/>
<path d="M43.233 12.748C44.7111 10.9004 46.7434 9.97666 49.2377 9.97666C52.009 9.97666 54.2261 10.9928 55.9813 13.1175C57.7365 15.1499 58.5679 17.5517 58.5679 20.2307C58.5679 22.9097 57.6441 25.3115 55.8889 27.3439C54.0414 29.3762 51.8243 30.4847 49.0529 30.4847C46.4663 30.4847 44.434 29.561 43.0483 27.7134H42.9559V30.1152H37.3208V-0.000244141H43.0483V12.748H43.233ZM44.5263 23.8335C45.4501 24.7573 46.6511 25.2192 48.0367 25.2192C49.4224 25.2192 50.6233 24.7573 51.5471 23.8335C52.4709 22.9097 52.9328 21.6164 52.9328 20.1383C52.9328 18.6603 52.4709 17.4593 51.4547 16.5356C50.531 15.6118 49.33 15.1499 47.9444 15.1499C46.5587 15.1499 45.4501 15.6118 44.5263 16.5356C43.6026 17.4593 43.1407 18.6603 43.1407 20.1383C43.0483 21.6164 43.6026 22.8173 44.5263 23.8335Z" fill="#0FD03B"/>
<path d="M72.4247 15.9817C71.9629 15.8893 71.501 15.8893 71.0391 15.8893C67.3439 15.8893 65.6811 18.1988 65.6811 21.7092V30.0233H59.9536V10.3466H65.6811V13.3951C66.5125 11.5475 68.6372 10.1619 71.2238 10.1619C71.6857 10.1619 72.0552 10.1619 72.3324 10.3466V15.9817H72.4247Z" fill="#0FD03B"/>
<path d="M80.4618 3.51049C80.4618 5.45044 78.8914 7.02088 76.859 7.02088C74.9191 7.02088 73.3486 5.45044 73.3486 3.51049C73.3486 1.57053 75.0114 -0.0922852 76.859 -0.0922852C78.8914 -0.0922852 80.4618 1.47815 80.4618 3.51049ZM73.9953 30.0232V10.3465H79.8152V30.0232H73.9953Z" fill="#0FD03B"/>
<path d="M86.5588 31.5936C87.6673 33.8107 89.4225 34.9192 91.8244 34.9192C94.7805 34.9192 96.8128 33.3488 96.8128 30.3003V27.3442H96.7204C95.3347 29.0994 93.4872 29.9308 91.0853 29.9308C88.314 29.9308 86.0045 29.007 84.2493 27.067C82.4941 25.2195 81.5703 22.8176 81.5703 20.0462C81.5703 17.4596 82.4017 15.0578 84.1569 13.1178C85.9121 11.0855 88.1292 10.0693 90.9006 10.0693C93.3948 10.0693 95.3347 10.9931 96.9052 12.7483H96.9976V10.3465H102.633V30.1155C102.633 33.164 101.616 35.5659 99.6765 37.3211C97.7366 39.0763 95.15 39.9077 92.0091 39.9077C87.113 39.9077 83.7874 38.0601 82.0322 34.2726L86.5588 31.5936ZM92.1015 15.1502C89.4225 15.1502 87.2978 17.1825 87.2978 19.9539C87.2978 22.91 89.3301 24.8499 92.1015 24.8499C94.7805 24.8499 96.9052 22.91 96.9052 19.9539C96.9052 17.1825 94.8728 15.1502 92.1015 15.1502Z" fill="#0FD03B"/>
<path d="M117.321 30.0231V19.1224C117.321 16.9053 116.12 15.2425 113.903 15.2425C111.593 15.2425 110.393 16.9053 110.393 19.03V30.0231H104.665V0H110.393V12.6559C111.132 11.6397 111.963 10.9007 112.979 10.5312C114.088 10.1617 115.011 9.97691 115.75 9.97691C118.152 9.97691 119.908 10.7159 121.108 12.2864C122.309 13.7644 122.956 15.612 122.956 17.8291V30.1155H117.321V30.0231Z" fill="#0FD03B"/>
<path d="M138.014 29.9309C137.182 30.208 136.259 30.3004 135.335 30.3004C130.162 30.3004 127.483 27.5291 127.483 22.9101V15.3351H123.972V10.3466H127.575V4.15723H133.302V10.3466H138.198V15.3351H133.302V22.1711C133.302 24.3882 134.503 25.312 136.72 25.312C137.182 25.312 137.644 25.312 138.014 25.1272V29.9309Z" fill="#0FD03B"/>
<path d="M145.866 30.0231H140.046V0H145.866V30.0231Z" fill="#0FD03B"/>
<path d="M150.67 12.9332C152.794 10.9008 155.381 9.97705 158.337 9.97705C161.293 9.97705 163.88 10.9932 165.912 12.9332C167.944 14.8731 169.053 17.275 169.053 20.2311C169.053 23.1872 168.037 25.6814 165.912 27.6214C163.787 29.5613 161.293 30.5775 158.245 30.5775C155.196 30.5775 152.702 29.6537 150.577 27.6214C148.545 25.6814 147.436 23.2796 147.436 20.3235C147.529 17.3674 148.545 14.8731 150.67 12.9332ZM154.827 23.8339C155.75 24.7576 156.951 25.2195 158.337 25.2195C161.108 25.2195 163.141 23.0948 163.141 20.1387C163.141 18.6607 162.679 17.4597 161.755 16.5359C160.831 15.6122 159.63 15.0579 158.245 15.0579C156.859 15.0579 155.75 15.5198 154.827 16.5359C153.903 17.4597 153.441 18.6607 153.441 20.1387C153.349 21.6168 153.903 22.8177 154.827 23.8339Z" fill="#0FD03B"/>
<path d="M172.84 27.6213C170.808 25.6813 169.884 23.2795 169.884 20.3234C169.884 17.3673 170.9 14.9654 173.025 13.0255C175.057 10.9931 177.644 10.0693 180.508 10.0693C184.942 10.0693 188.545 12.2864 189.838 16.1663L184.757 18.291C183.926 16.3511 182.448 15.3349 180.508 15.3349C177.829 15.3349 175.797 17.2749 175.797 20.3234C175.797 23.2795 177.736 25.3118 180.508 25.3118C182.54 25.3118 184.018 24.388 184.85 22.3557L189.93 24.4804C188.452 28.4527 184.85 30.5774 180.415 30.5774C177.367 30.485 174.873 29.5613 172.84 27.6213Z" fill="#0FD03B"/>
<path d="M192.517 28.8222C191.224 27.7136 190.577 26.3279 190.577 24.5727V24.4804C190.577 22.1709 191.686 20.4157 193.533 19.5843C195.381 18.7529 197.228 18.3834 199.353 18.3834H201.293C202.309 18.3834 202.864 17.9215 202.864 16.9053C202.864 15.5196 201.755 14.5035 199.723 14.5035C197.783 14.5035 196.305 15.4272 195.381 17.1824L190.947 14.5958C192.609 11.455 195.658 9.88452 200 9.88452C205.173 9.88452 208.591 12.6559 208.591 17.8291V30.0231H203.233V27.6212H203.141C201.847 29.4688 199.815 30.485 197.228 30.485C195.381 30.3926 193.81 29.9307 192.517 28.8222ZM202.864 22.448V21.9861H199.353C197.69 21.9861 196.397 22.7252 196.397 24.2032C196.397 25.4965 197.413 26.2356 198.891 26.2356C201.385 26.2356 202.864 24.5727 202.864 22.448Z" fill="#0FD03B"/>
<path d="M216.166 30.0231H210.346V0H216.166V30.0231Z" fill="#0FD03B"/>
</g>
<defs>
<clipPath id="clip0_2590_7017">
<rect width="216.351" height="40" fill="white"/>
</clipPath>
</defs>
</svg>
