<svg xmlns="http://www.w3.org/2000/svg" xmlns:xlink="http://www.w3.org/1999/xlink" xmlns:serif="http://www.serif.com/" version="1.1" xml:space="preserve" style="fill-rule:evenodd;clip-rule:evenodd;stroke-linejoin:round;stroke-miterlimit:2;" viewBox="0 8.25 434.25 47.5">
    <path d="M4.107,25.693L1.917,27.883C1.311,28.466 0.829,29.164 0.499,29.938C0.17,30.711 -0,31.543 -0,32.383C-0,33.224 0.17,34.056 0.499,34.829C0.829,35.602 1.311,36.301 1.917,36.883L19.56,54.7C19.978,55.128 20.465,55.483 21,55.75L21,34.153L4.107,25.693Z" style="fill:rgb(61,137,245);fill-rule:nonzero;"/>
    <path d="M43.893,25.693L46.083,27.883C46.689,28.466 47.171,29.164 47.501,29.938C47.83,30.711 48,31.543 48,32.383C48,33.224 47.83,34.056 47.501,34.829C47.171,35.602 46.689,36.301 46.083,36.883L28.44,54.7C28.022,55.128 27.535,55.483 27,55.75L27,34.153L43.893,25.693Z" style="fill:rgb(22,86,185);fill-rule:nonzero;"/>
    <path d="M39.657,21.223L28.617,10.153C28.032,9.551 27.333,9.072 26.56,8.745C25.787,8.418 24.956,8.25 24.117,8.25C23.278,8.25 22.447,8.418 21.674,8.745C20.901,9.072 20.201,9.551 19.617,10.153L8.547,21.223L24.057,28.963L39.657,21.223Z" style="fill:rgb(133,181,248);fill-rule:nonzero;"/>
    <path d="M67.161,50L82.697,50C90.864,50 95.214,45.739 95.214,39.95C95.214,34.57 91.361,31.321 87.224,31.126L87.224,30.771C91.006,29.918 93.794,27.237 93.794,22.958C93.794,17.507 89.746,13.636 81.72,13.636L67.16,13.636L67.161,50ZM74.849,43.715L74.849,34.055L81.294,34.055C84.987,34.055 87.278,36.186 87.278,39.187C87.278,41.921 85.413,43.715 81.117,43.715L74.849,43.715ZM74.849,28.853L74.849,19.851L80.69,19.851C84.099,19.851 86.035,21.609 86.035,24.237C86.035,27.113 83.691,28.853 80.548,28.853L74.849,28.853ZM106.389,13.636L98.825,13.636L98.825,50L106.389,50L106.389,13.636ZM123.521,50.533C131.795,50.533 136.944,44.869 136.944,36.47C136.944,28.018 131.795,22.372 123.521,22.372C115.246,22.372 110.097,28.019 110.097,36.47C110.097,44.869 115.246,50.533 123.521,50.533ZM123.556,44.673C119.739,44.673 117.786,41.175 117.786,36.417C117.786,31.658 119.739,28.143 123.556,28.143C127.303,28.143 129.256,31.658 129.256,36.417C129.256,41.175 127.303,44.673 123.556,44.673ZM152.935,50.533C160.197,50.533 164.76,46.271 165.115,40.004L157.977,40.004C157.533,42.916 155.616,44.549 153.023,44.549C149.49,44.549 147.2,41.584 147.2,36.364C147.2,31.214 149.508,28.267 153.023,28.267C155.793,28.267 157.569,30.096 157.977,32.812L165.115,32.812C164.795,26.509 160.019,22.372 152.899,22.372C144.625,22.372 139.511,28.107 139.511,36.47C139.511,44.762 144.536,50.533 152.935,50.533ZM168.708,50L176.272,50L176.272,41.335L178.314,39.009L185.753,50L194.613,50L183.978,34.535L194.099,22.727L185.416,22.727L176.68,33.079L176.272,33.079L176.272,13.636L168.708,13.636L168.708,50ZM207.759,50.533C215.021,50.533 219.584,46.271 219.939,40.004L212.801,40.004C212.358,42.916 210.44,44.549 207.848,44.549C204.314,44.549 202.024,41.584 202.024,36.364C202.024,31.214 204.332,28.267 207.848,28.267C210.618,28.267 212.393,30.096 212.801,32.812L219.939,32.812C219.62,26.509 214.843,22.372 207.723,22.372C199.449,22.372 194.336,28.107 194.336,36.47C194.336,44.762 199.36,50.533 207.759,50.533ZM231.096,34.233C231.114,30.717 233.262,28.658 236.352,28.658C239.423,28.658 241.235,30.629 241.217,33.984L241.217,50L248.781,50L248.781,32.635C248.798,26.243 245.034,22.372 239.352,22.372C235.215,22.372 232.445,24.325 231.203,27.539L230.883,27.539L230.883,13.636L223.532,13.636L223.532,50L231.096,50L231.096,34.233ZM261.26,50.515C265.291,50.515 267.901,48.757 269.233,46.218L269.446,46.218L269.446,50L276.619,50L276.619,31.605C276.619,25.107 271.115,22.372 265.042,22.372C258.508,22.372 254.211,25.497 253.164,30.469L260.159,31.037C260.674,29.226 262.29,27.894 265.007,27.894C267.581,27.894 269.055,29.19 269.055,31.428L269.055,31.534C269.055,33.292 267.191,33.523 262.45,33.984C257.052,34.482 252.205,36.293 252.205,42.383C252.205,47.781 256.058,50.515 261.26,50.515ZM263.426,45.295C261.1,45.295 259.431,44.212 259.431,42.134C259.431,40.004 261.189,38.956 263.853,38.583C265.504,38.352 268.203,37.962 269.108,37.358L269.108,40.252C269.108,43.111 266.747,45.295 263.426,45.295ZM281.237,50L288.801,50L288.801,22.727L281.237,22.727L281.237,50ZM285.037,19.212C287.292,19.212 289.138,17.489 289.138,15.376C289.138,13.281 287.292,11.559 285.037,11.559C282.8,11.559 280.953,13.281 280.953,15.376C280.953,17.489 282.8,19.212 285.037,19.212ZM301.174,34.233C301.192,30.717 303.287,28.658 306.341,28.658C309.377,28.658 311.206,30.646 311.188,33.984L311.188,50L318.752,50L318.752,32.635C318.752,26.278 315.024,22.372 309.342,22.372C305.294,22.372 302.364,24.361 301.139,27.539L300.819,27.539L300.819,22.727L293.61,22.727L293.61,50L301.174,50L301.174,34.233Z" style="fill-rule:nonzero;"/>
    <path d="M327.885,50.462C330.158,50.462 332.129,48.562 332.146,46.2C332.129,43.874 330.158,41.974 327.885,41.974C325.541,41.974 323.606,43.874 323.624,46.2C323.606,48.562 325.541,50.462 327.885,50.462ZM349.429,50.533C356.691,50.533 361.254,46.271 361.609,40.004L354.471,40.004C354.028,42.916 352.11,44.549 349.518,44.549C345.984,44.549 343.694,41.584 343.694,36.364C343.694,31.214 346.002,28.267 349.518,28.267C352.287,28.267 354.063,30.096 354.471,32.812L361.609,32.812C361.29,26.509 356.513,22.372 349.393,22.372C341.119,22.372 336.006,28.107 336.006,36.47C336.006,44.762 341.03,50.533 349.429,50.533ZM377.525,50.533C385.799,50.533 390.948,44.869 390.948,36.47C390.948,28.018 385.799,22.372 377.525,22.372C369.25,22.372 364.101,28.019 364.101,36.47C364.101,44.869 369.25,50.533 377.525,50.533ZM377.56,44.673C373.743,44.673 371.789,41.175 371.789,36.417C371.789,31.658 373.743,28.143 377.56,28.143C381.306,28.143 383.26,31.658 383.26,36.417C383.26,41.175 381.306,44.673 377.56,44.673ZM394.616,50L402.18,50L402.18,33.629C402.18,30.611 404.098,28.604 406.619,28.604C409.105,28.604 410.774,30.309 410.774,32.99L410.774,50L418.107,50L418.107,33.345C418.107,30.522 419.723,28.604 422.475,28.604C424.89,28.604 426.701,30.114 426.701,33.15L426.701,50L434.247,50L434.247,31.658C434.247,25.746 430.731,22.372 425.653,22.372C421.658,22.372 418.551,24.414 417.432,27.539L417.148,27.539C416.278,24.379 413.49,22.372 409.744,22.372C406.069,22.372 403.281,24.325 402.145,27.539L401.825,27.539L401.825,22.727L394.616,22.727L394.616,50Z" style="fill:rgb(177,184,199);fill-rule:nonzero;"/>
</svg>