<?xml version="1.0" encoding="utf-8"?>
<!-- Generator: Adobe Illustrator 27.0.1, SVG Export Plug-In . SVG Version: 6.00 Build 0)  -->
<svg version="1.1" id="Layer_1" xmlns="http://www.w3.org/2000/svg" xmlns:xlink="http://www.w3.org/1999/xlink" x="0px" y="0px"
	 viewBox="0 0 129 36" style="enable-background:new 0 0 129 36;" xml:space="preserve">
<style type="text/css">
	.st0{fill:#2810FA;}
</style>
<g>
	<g>
		<g>
			<path class="st0" d="M37.5,0.5H25.8v35h11.7V0.5z"/>
			<path class="st0" d="M91.5,12.2v23.3h11.7v-14h2.3v14h9.4v-14h2.3v14H129V12.2H91.5z"/>
			<path class="st0" d="M65.7,12.2v23.3h23.5V12.2H65.7z M81.3,23.8c0,2.1-1.7,3.9-3.9,3.9s-3.9-1.7-3.9-3.9c0-2.1,1.7-3.9,3.9-3.9
				S81.3,21.7,81.3,23.8z"/>
			<path class="st0" d="M39.9,12.2v23.3h23.5V12.2H39.9z M55.5,23.8c0,2.1-1.7,3.9-3.9,3.9c-2.2,0-3.9-1.7-3.9-3.9
				c0-2.1,1.7-3.9,3.9-3.9C53.8,19.9,55.5,21.7,55.5,23.8z"/>
			<path class="st0" d="M11.7,12.2l7-11.7H7L0,12.2v23.3h23.5V12.2H11.7z M15.6,23.8c0,2.1-1.7,3.9-3.9,3.9c-2.2,0-3.9-1.7-3.9-3.9
				c0-2.1,1.7-3.9,3.9-3.9C13.9,19.9,15.6,21.7,15.6,23.8z"/>
		</g>
	</g>
</g>
</svg>
