<svg enable-background="new 0 0 652 652" viewBox="0 0 652 652" xmlns="http://www.w3.org/2000/svg"><g fill="#00537f"><path d="m100.2 238.1c-12.2 4.6-23.1 11-32.3 19.8l-.6.3v.6c-.6 15.5 1.5 29.8 5.8 42.6l.6 1.5 1.2-.9c4.6-3 9.4-5.2 14.9-6.4l.9-.3v-.9c.3-6.4.9-12.8 1.8-19.2 1.8-11.9 4.9-24.1 8.8-35.6l.9-2.4z"/><path d="m59.1 267.4c-8.8 11.9-15.5 24.7-19.5 38.4v.6l.3.6c1.8 3 4 6.1 6.4 8.8 2.7 3 5.8 6.1 8.8 8.8l1.2.9.7-1.5c2.7-6.1 6.4-11.6 11.3-16.1l.6-.6-.3-1.5-.6-1.5c-4-11-6.1-23.1-6.7-36.2v-3.7z"/><path d="m36.9 317c-1.2 6.1-1.8 12.5-1.8 18.6 0 2.7 0 5.8.3 8.5v.9l.9.3c4.9 1.8 10.1 3 15.2 3.7l1.5.3-.3-5.5c0-3.7.3-7.3 1.2-11l.3-.9-.6-.6c-4.3-3.3-8.5-7-11.9-11.3l-4.3-5.2z"/><path d="m36.9 353.9c.9 5.2 2.4 10.4 4.3 15.2l.3 1.2 1.2-.6c4.3-1.8 8.5-3.7 12.5-5.5l.9-.6-.3-1.2c-.6-2.1-1.2-4.3-1.8-6.7l-.3-.9h-.9c-4.9-.6-9.7-1.5-14.6-2.7l-2.1-.6z"/><path d="m164.8 236c-13.1 14.6-24.7 29.5-34.1 44.5-3.7 5.8-7 11.6-10.1 17.4l-.6 1.2 1.2.6c4.6 2.4 8.8 5.5 12.5 9.4l.9.9.9-.6c13.7-11 27.7-21.6 41.7-32 9.7-7 19.8-14 29.8-20.7l1.5-.9-1.5-.9c-12.5-8.8-26.5-15.2-41.1-18.9l-.6-.3z"/><path d="m131.9 232.1c-7.3.3-14.3 1.2-21.3 3h-.6l-.3.6c-5.2 13.4-8.8 26.8-11 40.2-.9 5.8-1.5 11.6-1.8 17.4v1.2h3.3c4.3 0 8.8.6 13.1 1.8l.9.3.6-.9c3.3-6.1 6.7-12.2 10.7-18.3 8.8-14 19.5-28.3 31.7-42l1.5-1.8-2.1-.3c-8.5-1.3-16.8-1.6-24.7-1.2z"/><path d="m57.6 370.3c-4 1.8-8.2 3.7-12.5 5.2l-1.2.6.6 1.2c2.1 4.3 4.6 8.2 7 12.2l.9 1.5 1.2-1.5c2.7-4 5.8-7.6 9.1-11.3l.6-.6-.6-.9c-1.2-1.8-2.4-4-3.3-5.8l-.6-1.2z"/><path d="m99.6 404.7c.9 5.2 1.8 10.4 3 15.5l1.5 5.8h.9c11.3 2.1 22.5 1.8 33.5-.6l1.8-.3-1.2-1.5c-4.6-6.1-9.1-12.5-13.4-18.9l-.3-.6h-.9c-3.3.6-7 .6-11 .6-4.3 0-8.5-.3-12.8-1.2l-1.8-.3z"/><path d="m78.9 395.6c-1.5 5.5-2.7 11.3-3.7 17.4v.9l.6.6c2.1 1.5 4 2.7 6.1 4.3 4.3 2.1 8.8 4 13.4 5.2l2.1.6-.9-3.3c-1.5-6.4-2.7-13.1-3.7-19.5v-.6l-.6-.3c-4-1.5-7.9-3.3-11.3-5.8l-1.5-.9z"/><path d="m66.1 383.7c-3 3.7-6.1 7.6-9.1 11.6l-.6.9.6.9c3.3 4 7 7.6 11 11.3l1.5 1.5.3-2.1c.9-5.5 2.4-11 3.7-16.1v-.3l.3-.9-.6-.6-3-2.7-3.7-4z"/><path d="m194.7 193.7c-5.8 5.2-11 10.1-16.1 15.2-5.5 5.5-11 11-16.1 16.7-10.4-2.1-20.7-3-30.8-2.7-4.6.3-9.1.6-13.7 1.5 2.4-5.5 5.2-11 8.2-16.1 3-5.2 6.1-10.7 9.7-15.8 18.9-3.7 39.3-3.1 58.8 1.2z"/><path d="m61.3 232.7.3-.3c-.9 4.6-1.5 9.4-2.1 14-.3 2.4-.6 5.2-.6 7.9-1.8 1.8-3.3 3.3-4.9 5.2-7.9 9.7-14 20.1-18.6 31.4-1.2-3.3-2.1-6.7-3-10.4 6.6-17.1 16.4-33.2 28.9-47.8z"/><path d="m26.2 299.4c1.2 2.7 2.4 5.5 3.7 7.9-2.4 9.4-3.7 18.9-3.7 28.3v1.8c-1.5-.9-3-1.8-4.6-3 .1-11.6 1.6-23.5 4.6-35z"/><path d="m119.1 196.4c-1.2 2.1-2.4 4.3-3.7 6.1-4.6 8.2-8.5 16.4-12.2 25-11.6 3.3-22.2 8.5-31.7 15.5 1.2-7.9 2.7-16.1 5.2-24.7 12.6-10 26.9-17.3 42.4-21.9z"/><path d="m36.9 381.9c2.4 4.9 5.2 9.7 8.5 14.3-1.5 1.8-2.7 4-4 5.8-3.7-5.8-7-11.9-9.7-18 1.5-.6 3.7-1.5 5.2-2.1z"/><path d="m22.6 349c1.5.9 3.3 1.8 4.9 2.4 0 .9.3 2.1.3 2.1.9 5.8 2.4 11.6 4.6 17.4-1.5.6-3.3 1.2-4.9 1.8-2.5-7.6-4-15.8-4.9-23.7z"/><path d="m187 217.1c6.7-6.7 14-13.1 21.6-19.8 17.7 5.5 33.8 14.3 48.4 25.6-14 7.9-28.3 16.4-42.6 25.6-11.9-8.8-25-15.2-39-19.8 3.7-4 7.7-7.9 11.6-11.6z"/><path d="m121.9 436.7c7.3-.3 14.6-1.2 21.9-3.3.9 1.2 4.9 5.8 4.9 5.8 2.7 3 5.5 6.1 8.2 9.1-13.4 3.7-27.1 4.6-40.8 2.7-2.1-4.9-4-10.1-5.8-14.9 3.9.6 7.6.6 11.6.6z"/><path d="m76.5 425.8c.6.3 1.2.9 1.2.9h.3.3c6.1 3 12.8 5.5 19.2 7.3 1.5 4.9 3.3 9.7 5.2 14.6-7.9-2.1-15.5-4.9-23.1-8.8 0 0-3-2.1-4-2.7 0-4 .3-7.7.9-11.3z"/><path d="m53 406c4 4.3 7.9 8.2 12.5 11.9-.6 3.3-.9 7-1.2 10.7-5.8-4.9-11-10.4-15.8-16.1 1.5-2.3 3-4.4 4.5-6.5z"/><path d="m346.6 425.5c11.3 0 16.8-1.2 16.8-10.1 0-8.2-5.2-11-16.8-11h-32v21zm-32-56.7v18.6h28.4c11.3 0 16.8-1.8 16.8-9.7 0-7.3-5.2-9.1-16.8-9.1 0-.1-28.4.2-28.4.2zm-24-19.5h61.8c21.3 0 32.3 7.9 32.3 23.8 0 9.1-4.6 16.4-13.1 21 11 3.7 16.8 11.6 16.8 23.5 0 16.4-11.3 27.4-31.1 27.4h-66.7z"/><path d="m398.1 349.3h31.1l30.8 68.5 31.7-68.5h30.8v95.6h-23.1v-64l-29.5 64h-20.1l-28.3-64.9v64.9h-23.1c-.3 0-.3-95.6-.3-95.6z"/><path d="m588.8 444.9h-23.8v-76.1h-32.6v-19.5h89.2v19.5h-32.6v76.1z"/></g><path d="m163.6 376.4c-6.4 13.4-16.1 21.9-29.8 25.9l-1.8.6.9 1.5c4.3 6.1 8.5 12.2 13.1 18.3l.6.6.9-.3c3.3-1.2 6.7-2.7 9.7-4.3 16.7-8.8 28.9-22.8 33.5-39l.3-1.5h-1.5c-8.8-.3-17.1-1.2-25-2.1h-.9z" fill="#24b8c9"/><path d="m213.2 260.1c-11 7-21.6 14.6-32.3 22.2-14 10.1-27.7 20.7-41.4 31.7l-.9.6.6.9c3.3 5.2 5.8 10.7 7.3 16.8l.3 1.2 1.2-.3c14-2.4 28.3-5.5 42.9-8.8 18.6-4.3 37.8-9.4 57-15.2l1.2-.3-.6-1.2c-5.5-14.6-13.4-27.4-23.8-38.4-3-3.3-6.7-6.4-10.1-9.1l-.6-.6z" fill="#24b8c9"/><path d="m249.8 315.2c-19.5 5.8-39.3 11-57.9 15.5-14.6 3.3-29.2 6.4-43.3 9.1l-1.2.3v4c0 5.8-1.5 12.8-4 19.8l-.6 1.2 1.2.3c4.6 1.2 9.4 2.1 14.6 3 25.9 4.3 58.2 4.6 96.2.6h.9v-1.2c.3-3.7.3-7.6.3-11.6 0-14.3-1.8-27.7-5.5-40.5l.3-.9z" fill="#24b8c9"/><path d="m229.4 381c-6.7 28-29.5 52.4-60 64-4-4.3-7.9-8.5-11.6-12.8 0 0-1.2-1.5-2.1-2.7 2.1-.9 4-1.8 5.8-2.7 19.2-10.1 33.2-26.5 38.1-45.1 6.3-.1 17.3-.4 29.8-.7z" fill="#24b8c9"/><path d="m266.8 231.1c.9.9 3 2.7 3 2.7 15.2 14.9 26.5 33.2 34.1 54.2-15.8 5.5-31.7 10.7-47.2 15.5-5.8-15.5-14.3-29.2-25.6-40.8-2.1-2.1-4.6-4.3-6.7-6.4 14.1-9 28.4-17.5 42.4-25.2z" fill="#24b8c9"/></svg>