<svg xmlns:dc="http://purl.org/dc/elements/1.1/" xmlns:cc="http://creativecommons.org/ns#" xmlns:rdf="http://www.w3.org/1999/02/22-rdf-syntax-ns#" xmlns:svg="http://www.w3.org/2000/svg" xmlns="http://www.w3.org/2000/svg" xmlns:sodipodi="http://sodipodi.sourceforge.net/DTD/sodipodi-0.dtd" xmlns:inkscape="http://www.inkscape.org/namespaces/inkscape" version="1.1" id="svg6877" inkscape:version="0.92.0 r15299" sodipodi:docname="board.svg" viewBox="0.5 0.5 91.55 30.8">
  <defs id="defs6871">
    <linearGradient id="SVGID_1_" gradientUnits="userSpaceOnUse" x1="55.8699" y1="7.1605" x2="3.8556001" y2="93.726799" gradientTransform="matrix(0.26458333,0,0,-0.26458333,24.530661,186.63096)">
      <stop offset="0" style="stop-color:#32BEF0" id="stop6747"/>
      <stop offset="0.7323" style="stop-color:#2A3284" id="stop6749"/>
    </linearGradient>
    <linearGradient id="SVGID_2_" gradientUnits="userSpaceOnUse" x1="0.02129936" y1="99.949997" x2="19.878201" y2="99.949997" gradientTransform="matrix(0.26458333,0,0,-0.26458333,24.530661,186.63096)">
      <stop offset="1.263787e-03" style="stop-color:#F39325" id="stop6754"/>
      <stop offset="1" style="stop-color:#E83943" id="stop6756"/>
    </linearGradient>
    <linearGradient id="SVGID_3_" gradientUnits="userSpaceOnUse" x1="0.02129936" y1="113.35" x2="19.878201" y2="113.35" gradientTransform="matrix(0.26458333,0,0,-0.26458333,24.530661,186.63096)">
      <stop offset="0" style="stop-color:#00AF94" id="stop6761"/>
      <stop offset="1" style="stop-color:#FCDC30" id="stop6763"/>
    </linearGradient>
  </defs>
  <sodipodi:namedview id="base" pagecolor="#ffffff" bordercolor="#666666" borderopacity="1.0" inkscape:pageopacity="0.0" inkscape:pageshadow="2" inkscape:zoom="2.5924848" inkscape:cx="173.00005" inkscape:cy="58.200032" inkscape:document-units="mm" inkscape:current-layer="layer1" showgrid="false" fit-margin-top="0" fit-margin-left="0" fit-margin-right="0" fit-margin-bottom="0" inkscape:window-width="1280" inkscape:window-height="744" inkscape:window-x="-4" inkscape:window-y="-4" inkscape:window-maximized="1"/>
  <metadata id="metadata6874">
    <rdf:RDF>
      <cc:Work rdf:about="">
        <dc:format>image/svg+xml</dc:format>
        <dc:type rdf:resource="http://purl.org/dc/dcmitype/StillImage"/>
        <dc:title/>
      </cc:Work>
    </rdf:RDF>
  </metadata>
  <g inkscape:label="Layer 1" inkscape:groupmode="layer" id="layer1" transform="translate(-24.530642,-154.35719)">
    <g id="g6925" transform="translate(0.50000137,-0.50000229)">
      <path id="path6745" d="m 54.984212,166.602 c 2.831039,0 5.23875,1.08479 7.170211,3.25438 1.693328,1.85208 2.54,4.07458 2.54,6.6675 0,1.56104 -0.396881,3.06916 -1.217081,4.55083 -0.846669,1.53458 -1.98438,2.75167 -3.46605,3.65125 -1.53458,0.9525 -3.227911,1.42875 -5.053541,1.42875 -1.852081,0 -3.57187,-0.47625 -5.15937,-1.45521 -1.50813,-0.92604 -2.69875,-2.19604 -3.51896,-3.75708 -0.74083,-1.42875 -1.13771,-2.93688 -1.13771,-4.55084 0,-2.77812 1.03188,-5.15937 3.09563,-7.14375 1.87854,-1.71979 4.10104,-2.61937 6.746871,-2.64583 z m -0.0265,5.13292 c -1.34937,0 -2.487081,0.55562 -3.439581,1.66687 -0.687919,0.82021 -1.058329,1.79917 -1.058329,2.98979 0,1.37584 0.47625,2.48709 1.40229,3.38667 0.87312,0.82021 1.878539,1.24354 3.069159,1.24354 1.34938,0 2.434172,-0.50271 3.307302,-1.50812 0.79375,-0.92604 1.164159,-1.95792 1.164159,-3.06917 0,-1.45521 -0.55562,-2.67229 -1.640409,-3.59833 -0.767302,-0.71438 -1.719802,-1.08479 -2.804591,-1.11125 z" class="st0" inkscape:connector-curvature="0" style="fill:#39445d;stroke-width:0.26458332"/>
      <path id="path6752" d="m 41.516921,169.85638 c -1.95792,-2.16959 -4.33917,-3.25438 -7.170209,-3.25438 -1.69333,0.0265 -3.20146,0.37042 -4.55083,1.08479 v -5.23875 h -5.265211 v 13.91709 0 0.0264 c 0,1.61396 0.37042,3.12209 1.13771,4.55084 0.82021,1.56104 1.984371,2.80458 3.51896,3.75708 1.5875,0.9525 3.280831,1.45521 5.159371,1.45521 1.825629,0 3.518959,-0.47625 5.053539,-1.42875 1.45521,-0.89958 2.61938,-2.11667 3.46604,-3.65125 0.82021,-1.48167 1.21709,-2.98979 1.21709,-4.55083 -0.0265,-2.61938 -0.87313,-4.81542 -2.56646,-6.6675 z m -3.88938,9.65729 c -0.87312,1.00541 -1.95791,1.50812 -3.307289,1.50812 -1.19062,0 -2.2225,-0.42333 -3.069161,-1.24354 -0.926049,-0.89958 -1.402299,-2.01083 -1.402299,-3.38667 0,-1.19062 0.34396,-2.19604 1.05834,-2.98979 0.92604,-1.11125 2.090209,-1.66687 3.43958,-1.66687 1.084789,0.0265 2.010829,0.39687 2.857499,1.08479 1.08479,0.92604 1.64042,2.14312 1.64042,3.59833 -0.0529,1.13771 -0.44979,2.16959 -1.21709,3.09563 z" class="st1" inkscape:connector-curvature="0" style="fill:url(#SVGID_1_);stroke-width:0.26458332"/>
      <rect id="rect6759" height="2.5664582" width="5.2652082" class="st2" y="158.9026" x="24.530642" style="fill:url(#SVGID_2_);stroke-width:0.26458332"/>
      <rect id="rect6766" height="2.5664582" width="5.2652082" class="st3" x="24.530642" y="155.35719" style="fill:url(#SVGID_3_);stroke-width:0.26458332"/>
      <path id="path6768" d="m 116.02359,176.36513 v 0 -15.82209 h -5.23875 v 7.14375 c -1.34938,-0.71437 -2.83105,-1.08479 -4.47146,-1.08479 -2.64584,0.0265 -4.89479,0.89958 -6.693957,2.64583 -2.06375,1.98438 -3.095631,4.36563 -3.095631,7.14375 0,1.61396 0.37042,3.12209 1.137709,4.55084 0.820211,1.56104 1.98438,2.80458 3.518959,3.75708 1.5875,0.9525 3.28083,1.45521 5.15938,1.45521 1.82562,0 3.51895,-0.47625 5.05354,-1.42875 1.45521,-0.89958 2.61937,-2.11667 3.46604,-3.65125 0.82021,-1.48167 1.21708,-2.98979 1.21708,-4.55083 -0.0529,-0.0529 -0.0529,-0.10584 -0.0529,-0.15875 z m -6.40292,3.14854 c -0.87313,1.00541 -1.95792,1.50812 -3.30729,1.50812 -1.19063,0 -2.2225,-0.42333 -3.06917,-1.24354 -0.92604,-0.89958 -1.40229,-2.01083 -1.40229,-3.38667 0,-1.19062 0.34396,-2.19604 1.05833,-2.98979 0.92604,-1.11125 2.09021,-1.66687 3.43959,-1.66687 1.08479,0.0265 2.01083,0.39687 2.8575,1.08479 1.08479,0.92604 1.64041,2.14312 1.64041,3.59833 -0.0529,1.13771 -0.44979,2.16959 -1.21708,3.09563 z" class="st0" inkscape:connector-curvature="0" style="fill:#39445d;stroke-width:0.26458332"/>
      <path id="path6770" d="m 92.264001,186.12825 h -5.265209 v -10.53042 c 0,-1.37583 0.0529,-2.35479 0.1323,-2.96333 0.0794,-0.60854 0.264581,-1.21708 0.55562,-1.79917 1.322919,-2.80458 3.75708,-4.20687 7.38188,-4.20687 0.1852,0 0.449789,0 0.846659,0.0265 v 4.84187 l -0.635,0.0265 c -1.164159,0.0265 -1.957909,0.23813 -2.354789,0.66146 -0.423331,0.42333 -0.635,1.19062 -0.635,2.27542 v 11.66812 h -0.0265 z" class="st0" inkscape:connector-curvature="0" style="fill:#39445d;stroke-width:0.26458332"/>
      <path id="path6772" d="m 75.648173,166.602 c 2.831039,0 5.23875,1.08479 7.170208,3.25438 1.693331,1.85208 2.54,4.07458 2.54,6.6675 0,1.56104 -0.39688,3.06916 -1.217089,4.55083 -0.846661,1.53458 -1.984369,2.75167 -3.466041,3.65125 -1.534578,0.9525 -3.227909,1.42875 -5.053539,1.42875 -1.852081,0 -3.57187,-0.47625 -5.15937,-1.45521 -1.50813,-0.92604 -2.69875,-2.19604 -3.518961,-3.75708 -0.740839,-1.42875 -1.137708,-2.93688 -1.137708,-4.55084 0,-2.77812 1.031869,-5.15937 3.095619,-7.14375 1.852089,-1.71979 4.10105,-2.61937 6.746881,-2.64583 z m -0.0265,5.13292 c -1.34937,0 -2.487081,0.55562 -3.439581,1.66687 -0.687919,0.82021 -1.058338,1.79917 -1.058338,2.98979 0,1.37584 0.47625,2.48709 1.402299,3.38667 0.87312,0.82021 1.878539,1.24354 3.069159,1.24354 1.34938,0 2.434169,-0.50271 3.307292,-1.50812 0.79375,-0.92604 1.164169,-1.95792 1.164169,-3.06917 0,-1.45521 -0.55562,-2.67229 -1.640419,-3.59833 -0.767292,-0.71438 -1.719792,-1.08479 -2.804581,-1.11125 z" class="st0" inkscape:connector-curvature="0" style="fill:#39445d;stroke-width:0.26458332"/>
      <rect id="rect6774" height="9.7366667" width="4.7889585" class="st0" y="176.36513" x="80.569397" style="fill:#39445d;stroke-width:0.26458332"/>
    </g>
  </g>
</svg>