<svg xmlns="http://www.w3.org/2000/svg" xmlns:xlink="http://www.w3.org/1999/xlink" version="1.1" id="layer" x="0px" y="0px" style="enable-background:new 0 0 652 652;" xml:space="preserve" viewBox="25.88 176.83 599.95 298.17">
<style type="text/css">
	.st0{fill:#4D4D4F;}
</style>
<path class="st0" d="M619.5,277.9l-51-18.7l6-16.4c1.8-5-0.7-10.6-5.8-12.4l-37.2-13.6l4.7-26.1c1-5.3-2.5-10.3-7.8-11.3l-13.4-2.4  c-5.3-1-10.3,2.5-11.3,7.8l-5.2,28.6c0,0,0,0.1,0,0.1c-0.2,0.4-0.4,0.8-0.6,1.3l-9.3,25.5l-19.3,52.8c-1.8,5,0.7,10.6,5.8,12.4  l118.4,43.3c5,1.8,10.6-0.7,12.4-5.8l19.3-52.8C627.1,285.3,624.5,279.7,619.5,277.9 M451.6,440.1h-5.8v-25.2c0-5.4-4.3-9.7-9.7-9.7  h-34.9c-5.4,0-9.7,4.3-9.7,9.7v34.9v15.5c0,5.4,4.3,9.7,9.7,9.7h34.9h15.5c5.4,0,9.7-4.3,9.7-9.7v-15.5  C461.3,444.4,456.9,440.1,451.6,440.1 M139.7,440.1h-5.8v-25.2c0-5.4-4.3-9.7-9.7-9.7H89.2c-5.4,0-9.7,4.3-9.7,9.7v34.9v15.5  c0,5.4,4.3,9.7,9.7,9.7h34.9h15.5c5.4,0,9.7-4.3,9.7-9.7v-15.5C149.4,444.4,145,440.1,139.7,440.1 M39.9,195.4l39.8,39.8  c1.5,1.5,1.5,4,0,5.5l-7.4,7.4c-1.5,1.5-4,1.5-5.5,0L27,208.3c-1.5-1.5-1.5-4,0-5.5l7.4-7.4C35.9,193.9,38.4,193.9,39.9,195.4   M465.8,257.2c-0.1,0.4-0.1,0.8-0.2,1.2c-0.1,0.4-0.2,0.8-0.4,1.3c-0.2,0.4-0.4,0.9-0.6,1.4c-1.7,4.3-3.3,8.5-4.8,12.5  c-1.5,4-3,8.1-4.4,12.2c-1.5,4.1-2.9,8.3-4.4,12.7c-1.5,4.4-3.1,9.1-4.9,14.2c0.1,0.1,0.1,0.3,0,0.3c0,0.1,0,0.2,0,0.3  c0,0.6-0.1,1.2-0.4,1.7c-0.2,0.5-0.6,1-1,1.4c-0.5,0.4-1,0.7-1.7,1c-0.7,0.2-1.5,0.4-2.5,0.4c-0.7,0-1.4-0.1-1.8-0.4  c-0.5-0.2-0.9-0.5-1.1-0.9c-0.3-0.4-0.5-0.8-0.7-1.3c-0.2-0.5-0.3-0.9-0.4-1.4v0c-0.6-1.9-1.2-3.7-1.8-5.3c-0.6-1.6-1.2-3.3-1.9-5  c-1-2.8-2-5.7-3-8.7c-1-3-2-5.9-3.1-8.8c-0.6,1.6-1.2,3.5-1.9,5.7c-0.7,2.2-1.4,4.4-2.2,6.8c-0.8,2.4-1.6,4.8-2.4,7.2  c-0.8,2.4-1.7,4.7-2.5,6.9c0.1,0.3,0.1,0.5,0.1,0.8v0.5c0,0.6-0.1,1.2-0.4,1.7c-0.3,0.5-0.7,0.9-1.2,1.2c-0.5,0.3-1,0.6-1.7,0.7  c-0.6,0.2-1.3,0.2-2,0.2c-0.9,0-1.7-0.2-2.3-0.6c-0.6-0.4-1-0.8-1.4-1.4c-0.3-0.6-0.6-1.1-0.8-1.8c-0.2-0.6-0.3-1.2-0.4-1.7  c-1.1-2.9-2.2-5.9-3.3-9.1c-1.1-3.2-2.3-6.3-3.5-9.5c-1.2-3.2-2.3-6.3-3.5-9.4c-1.2-3.1-2.3-6.1-3.3-8.9c-1-2.8-2-5.4-2.9-7.9  c-0.9-2.4-1.7-4.5-2.4-6.3c-0.4-0.9-0.7-1.9-1-2.8c-0.3-1-0.4-1.9-0.4-2.7c0-3,1.7-4.5,5.1-4.5c0.4,0,0.8,0,1.1,0.1  c0.4,0.1,0.7,0.2,1.1,0.5c0.4,0.3,0.7,0.7,1.1,1.2c0.3,0.5,0.7,1.2,1,2.1c2.2,6.1,4.1,11.4,5.7,16c1.6,4.6,3.1,8.8,4.4,12.4  c1.3,3.6,2.4,6.8,3.3,9.6c0.9,2.8,1.8,5.3,2.5,7.6c0.8-2.3,1.5-4.4,2.2-6.5c0.7-2,1.4-4,2-6c0.7-2,1.3-3.9,2-5.9  c0.7-2,1.4-4,2.3-6.1c-0.2-0.4-0.5-1-0.8-1.8c-0.3-0.8-0.6-1.6-0.9-2.6c-0.3-0.9-0.7-1.9-1-3c-0.4-1-0.7-2-1.1-3  c-0.3-1-0.7-1.8-1-2.6c-0.3-0.8-0.5-1.4-0.8-1.8c-0.5-0.9-0.9-1.8-1.3-2.7c-0.4-0.9-0.5-1.7-0.5-2.5c0-1.8,0.4-3.1,1.1-3.9  c0.7-0.8,2-1.1,3.9-1.1c0.6,0,1.2,0.1,1.6,0.4c0.5,0.3,1,0.8,1.4,1.6c0.5,0.8,1,1.9,1.6,3.3c0.6,1.4,1.3,3.2,2.1,5.4  c0.2,0.5,0.4,1.1,0.6,1.8c0.2,0.8,0.4,1.4,0.6,1.9c0.3-0.6,0.6-1.3,0.9-2.1c0.3-0.8,0.6-1.6,0.9-2.5c0.3-0.9,0.6-1.8,0.8-2.6  c0.3-0.9,0.5-1.7,0.7-2.5c0.1-0.5,0.3-1.1,0.5-1.7c0.2-0.6,0.5-1.1,0.9-1.6c0.4-0.5,0.9-0.9,1.5-1.2c0.6-0.3,1.4-0.5,2.3-0.5  c1.4,0,2.5,0.5,3.4,1.4c0.8,0.9,1.2,2.1,1.2,3.6c0,0.8-0.2,1.6-0.5,2.4c-0.3,0.8-0.7,1.7-1.2,2.6c-1.2,2.4-2.3,4.8-3.3,7.1  c-1,2.3-2,4.7-3,7.2c0.6,1.7,1.3,3.3,1.9,5c0.6,1.7,1.3,3.5,2,5.5c0.7,2,1.5,4.2,2.4,6.7c0.9,2.4,1.8,5.3,3,8.4  c1.3-3.6,2.5-7.3,3.7-10.9c1.2-3.6,2.3-7.3,3.5-10.9c1.2-3.6,2.4-7.2,3.6-10.8c1.2-3.6,2.5-7.2,3.9-10.8v0c0.2-0.8,0.4-1.6,0.6-2.4  c0.3-0.8,0.6-1.5,1-2c0.4-0.6,0.9-1,1.6-1.4c0.6-0.3,1.4-0.5,2.3-0.5c1.6,0,2.8,0.4,3.6,1.2c0.8,0.8,1.2,1.9,1.2,3.3  C465.9,256.3,465.9,256.7,465.8,257.2 M372.5,274.9c-0.8-3-2-5.6-3.6-7.9c-1.6-2.3-3.6-4.1-6-5.4c-2.4-1.3-5.3-2-8.6-2  c-3.1,0-5.9,0.6-8.4,1.8c-2.4,1.2-4.5,2.9-6.2,5c-1.7,2.2-3,4.8-3.8,7.8c-0.9,3-1.3,6.4-1.3,10.1c0,2.1,0.2,4.1,0.6,6.2  c0.4,2,1,4,1.7,5.8c0.8,1.8,1.7,3.6,2.8,5.1c1.1,1.6,2.4,2.9,3.9,4.1c1.5,1.2,3.1,2.1,4.9,2.7c1.8,0.7,3.7,1,5.8,1  c2.2,0,4.2-0.3,6-1c1.8-0.7,3.4-1.6,4.9-2.7c1.4-1.2,2.7-2.5,3.8-4.1c1.1-1.6,2-3.3,2.7-5.1c0.7-1.8,1.2-3.8,1.6-5.8  c0.3-2,0.5-4.1,0.5-6.2C373.7,281,373.3,277.8,372.5,274.9 M381.2,297.5c-1.4,4.1-3.3,7.6-5.8,10.6c-2.5,3-5.6,5.4-9.2,7.1  c-3.6,1.7-7.6,2.6-12,2.6c-2.9,0-5.7-0.4-8.3-1.2c-2.6-0.8-5-1.9-7.1-3.3c-2.2-1.4-4.1-3.2-5.8-5.2c-1.7-2-3.1-4.3-4.3-6.7  c-1.2-2.5-2.1-5.1-2.7-8c-0.6-2.9-0.9-5.9-0.9-9c0-4.9,0.7-9.5,2.1-13.5c1.4-4.1,3.4-7.6,6-10.5c2.6-2.9,5.7-5.2,9.3-6.9  s7.6-2.4,12.1-2.4c4.7,0,8.8,0.8,12.4,2.4c3.6,1.6,6.6,3.9,9,6.9c2.4,2.9,4.3,6.5,5.5,10.5s1.9,8.6,1.9,13.5  C383.2,289,382.6,293.4,381.2,297.5 M300,285.2c1.4-1.7,2.3-3.6,2.8-5.8c0.5-2.2,0.8-4.4,0.8-6.8c0-2-0.3-3.7-1-5.1  c-0.6-1.4-1.5-2.6-2.5-3.5c-1.1-0.9-2.2-1.6-3.6-2.2c-1.3-0.5-2.7-0.9-4.1-1.2c-1.4-0.2-2.7-0.4-4-0.5c-1.3-0.1-2.5-0.1-3.5-0.1  c-1.4,0-2.9,0-4.3,0.1c-1.5,0-3,0.1-4.7,0.1c-0.1,1.1-0.1,2-0.1,2.9c0,0.9,0,1.7,0,2.5c0,0.8,0,1.7,0,2.5v2.9c0,1.9,0,3.6,0,5.3  c0,1.6,0,3.2,0.1,4.8c0,1.5,0.1,3.1,0.1,4.6c0,1.6,0.1,3.2,0.2,4.9c0.7,0,1.6,0.1,2.5,0.1c1,0,1.9,0.1,2.8,0.1c0.9,0,1.7,0,2.4,0.1  c0.7,0,1.1,0,1.3,0c3.8,0,6.8-0.5,9.2-1.5C296.8,288.3,298.7,286.9,300,285.2 M320,312.2c-0.7,1.1-1.6,2-2.9,2.9  c-1.2,0.8-2.7,1.5-4.5,2c-1.8,0.5-3.7,0.7-5.8,0.7c-2,0-3.8-0.3-5.4-0.9c-1.6-0.6-3-1.3-4.3-2.3c-1.3-1-2.4-2.1-3.4-3.3  s-1.8-2.5-2.5-3.9c-0.7-1.3-1.3-2.7-1.7-4c-0.4-1.3-0.8-2.6-1-3.8h-1.3h-1.7c-0.6,0-1.2,0-1.7,0c-0.6,0-1,0-1.4,0  c-0.8,0-1.8,0-3-0.1c-1.2,0-2.3,0-3.2,0v6.1c0.1,1.3,0.2,2.6,0.5,3.8c0.3,1.2,0.4,2.5,0.4,3.8c0,0.8-0.2,1.5-0.5,2  c-0.3,0.6-0.7,1-1.2,1.4c-0.5,0.4-1,0.6-1.6,0.8c-0.6,0.2-1.1,0.2-1.7,0.2c-0.8,0-1.6-0.1-2.3-0.4c-0.7-0.3-1.3-0.7-1.8-1.2  c-0.5-0.5-0.9-1.1-1.2-1.8c-0.3-0.7-0.4-1.5-0.4-2.4c0-0.6,0-1.2,0.1-1.8c0.1-0.6,0.1-1.1,0.2-1.6v-10.7v-9.1v-7.9v-7.2  c0-2.3,0-4.6,0-6.8c0-2.2,0-4.5,0-6.9c-0.1-0.4-0.3-0.9-0.4-1.6c-0.1-0.7-0.2-1.3-0.2-2c0-0.6,0.1-1.2,0.3-1.8s0.5-1.1,0.8-1.6  c0.4-0.5,0.8-0.8,1.4-1.1s1.2-0.4,1.9-0.4c1.2,0,2.3,0.1,3.5,0.2c1.2,0.1,2.5,0.2,4,0.2c1.3,0,2.5-0.1,3.8-0.2  c1.2-0.1,2.6-0.2,4-0.2c4.2,0,8,0.4,11.4,1.3c3.4,0.8,6.3,2.1,8.7,3.9c2.4,1.8,4.3,4,5.6,6.7c1.3,2.7,2,5.9,2,9.7  c0,3.6-0.5,6.7-1.5,9.5c-1,2.8-2.2,5.2-3.8,7.2c-1.5,2.1-3.3,3.8-5.2,5.1c-1.9,1.4-3.8,2.4-5.6,3.1c0.3,1.5,0.6,2.9,1.2,4.2  c0.5,1.3,1.2,2.5,2.1,3.5c0.8,1,1.8,1.8,3,2.4c1.1,0.6,2.4,0.9,3.8,0.9c1.1,0,2-0.2,2.9-0.5c0.9-0.3,1.6-1,2.3-2  c0.4-0.6,0.9-1,1.4-1.5c0.6-0.4,1.3-0.6,2.1-0.6c1.5,0,2.7,0.4,3.5,1.3c0.8,0.8,1.3,1.9,1.3,3.2C321,310,320.7,311.1,320,312.2   M238.8,285.2c1.4-1.7,2.3-3.6,2.8-5.8c0.5-2.2,0.8-4.4,0.8-6.8c0-2-0.3-3.7-1-5.1c-0.6-1.4-1.5-2.6-2.5-3.5  c-1.1-0.9-2.3-1.6-3.6-2.2c-1.3-0.5-2.7-0.9-4.1-1.2c-1.4-0.2-2.7-0.4-4-0.5c-1.3-0.1-2.5-0.1-3.5-0.1c-1.4,0-2.9,0-4.3,0.1  c-1.5,0-3,0.1-4.7,0.1c-0.1,1.1-0.1,2-0.1,2.9c0,0.9,0,1.7,0,2.5c0,0.8,0,1.7,0,2.5v2.9c0,1.9,0,3.6,0,5.3c0,1.6,0,3.2,0.1,4.8  c0,1.5,0.1,3.1,0.1,4.6c0,1.6,0.1,3.2,0.2,4.9c0.7,0,1.6,0.1,2.5,0.1c1,0,1.9,0.1,2.8,0.1c0.9,0,1.7,0,2.4,0.1c0.7,0,1.1,0,1.3,0  c3.7,0,6.8-0.5,9.2-1.5C235.5,288.3,237.4,286.9,238.8,285.2 M258.7,312.2c-0.7,1.1-1.6,2-2.9,2.9c-1.2,0.8-2.7,1.5-4.5,2  c-1.8,0.5-3.7,0.7-5.8,0.7c-2,0-3.8-0.3-5.4-0.9c-1.6-0.6-3-1.3-4.3-2.3c-1.3-1-2.4-2.1-3.4-3.3c-1-1.2-1.8-2.5-2.5-3.9  c-0.7-1.3-1.3-2.7-1.7-4c-0.4-1.3-0.8-2.6-1-3.8H226h-1.7c-0.6,0-1.2,0-1.7,0c-0.6,0-1,0-1.4,0c-0.8,0-1.8,0-3-0.1  c-1.2,0-2.3,0-3.2,0v6.1c0.1,1.3,0.2,2.6,0.5,3.8c0.3,1.2,0.4,2.5,0.4,3.8c0,0.8-0.2,1.5-0.5,2s-0.7,1-1.2,1.4  c-0.5,0.4-1,0.6-1.6,0.8c-0.6,0.2-1.1,0.2-1.7,0.2c-0.8,0-1.6-0.1-2.3-0.4c-0.7-0.3-1.3-0.7-1.8-1.2c-0.5-0.5-0.9-1.1-1.2-1.8  c-0.3-0.7-0.4-1.5-0.4-2.4c0-0.6,0-1.2,0.1-1.8c0.1-0.6,0.1-1.1,0.2-1.6v-10.7v-9.1v-7.9v-7.2c0-2.3,0-4.6,0-6.8c0-2.2,0-4.5,0-6.9  c-0.1-0.4-0.3-0.9-0.4-1.6c-0.1-0.7-0.2-1.3-0.2-2c0-0.6,0.1-1.2,0.3-1.8c0.2-0.6,0.5-1.1,0.8-1.6c0.4-0.5,0.8-0.8,1.4-1.1  c0.6-0.3,1.2-0.4,1.9-0.4c1.2,0,2.3,0.1,3.5,0.2c1.2,0.1,2.5,0.2,4,0.2c1.3,0,2.5-0.1,3.8-0.2c1.3-0.1,2.6-0.2,4-0.2  c4.2,0,8,0.4,11.4,1.3c3.4,0.8,6.3,2.1,8.7,3.9s4.3,4,5.6,6.7c1.3,2.7,2,5.9,2,9.7c0,3.6-0.5,6.7-1.5,9.5c-1,2.8-2.2,5.2-3.8,7.2  c-1.5,2.1-3.3,3.8-5.2,5.1c-1.9,1.4-3.8,2.4-5.6,3.1c0.2,1.5,0.6,2.9,1.2,4.2c0.5,1.3,1.2,2.5,2.1,3.5c0.8,1,1.8,1.8,3,2.4  c1.1,0.6,2.4,0.9,3.8,0.9c1.1,0,2-0.2,2.9-0.5c0.9-0.3,1.6-1,2.3-2c0.4-0.6,0.9-1,1.4-1.5c0.6-0.4,1.3-0.6,2.1-0.6  c1.5,0,2.7,0.4,3.5,1.3c0.8,0.8,1.3,1.9,1.3,3.2C259.8,310,259.4,311.1,258.7,312.2 M184.1,274.9c-0.8-3-2-5.6-3.6-7.9  c-1.6-2.3-3.6-4.1-6-5.4c-2.4-1.3-5.3-2-8.6-2c-3.1,0-5.9,0.6-8.4,1.8c-2.4,1.2-4.5,2.9-6.2,5c-1.7,2.2-3,4.8-3.8,7.8  c-0.9,3-1.3,6.4-1.3,10.1c0,2.1,0.2,4.1,0.6,6.2c0.4,2,1,4,1.7,5.8c0.8,1.8,1.7,3.6,2.8,5.1c1.1,1.6,2.4,2.9,3.9,4.1  c1.5,1.2,3.1,2.1,4.9,2.7c1.8,0.7,3.7,1,5.8,1c2.2,0,4.2-0.3,6-1c1.8-0.7,3.4-1.6,4.9-2.7c1.4-1.2,2.7-2.5,3.8-4.1  c1.1-1.6,2-3.3,2.7-5.1c0.7-1.8,1.2-3.8,1.6-5.8c0.3-2,0.5-4.1,0.5-6.2C185.3,281,184.9,277.8,184.1,274.9 M192.8,297.5  c-1.4,4.1-3.3,7.6-5.8,10.6c-2.5,3-5.6,5.4-9.2,7.1c-3.6,1.7-7.6,2.6-12,2.6c-2.9,0-5.7-0.4-8.3-1.2c-2.6-0.8-5-1.9-7.1-3.3  c-2.2-1.4-4.1-3.2-5.8-5.2c-1.7-2-3.1-4.3-4.3-6.7c-1.2-2.5-2.1-5.1-2.7-8c-0.6-2.9-0.9-5.9-0.9-9c0-4.9,0.7-9.5,2.1-13.5  c1.4-4.1,3.4-7.6,6-10.5c2.6-2.9,5.7-5.2,9.3-6.9c3.6-1.6,7.6-2.4,12.1-2.4c4.7,0,8.8,0.8,12.4,2.4c3.6,1.6,6.6,3.9,9,6.9  c2.4,2.9,4.3,6.5,5.5,10.5c1.3,4.1,1.9,8.6,1.9,13.5C194.8,289,194.2,293.4,192.8,297.5 M118.8,293c-0.8-1.3-1.7-2.4-2.8-3.2  c-1.1-0.8-2.3-1.4-3.6-1.8c-1.3-0.3-2.5-0.5-3.6-0.5c-1,0-2,0-3,0c-1,0-2.2,0.1-3.5,0.1c-1.3,0-2.8,0.1-4.6,0.1  c-1.7,0-3.8,0.1-6.2,0.1v8.3c0,2.2,0,4,0,5.4c0,1.5,0,2.7,0,3.6v2.7c0.7,0.1,1.3,0.2,2,0.3c0.7,0.1,1.5,0.2,2.4,0.3  c0.9,0.1,2,0.2,3.1,0.2c1.2,0.1,2.6,0.1,4.3,0.1c1.9,0,3.8-0.1,5.8-0.3c2-0.2,3.7-0.7,5.3-1.5c1.6-0.7,2.9-1.8,3.9-3.3  c1-1.4,1.5-3.3,1.5-5.7C119.9,296,119.5,294.3,118.8,293 M114.7,265.4c-0.5-1.2-1.2-2.2-2.2-3c-1-0.8-2.3-1.3-3.9-1.7  c-1.6-0.3-3.4-0.5-5.6-0.5c-0.8,0-2.1,0-3.9,0c-1.8,0-4.3,0.1-7.5,0.2v0.1c0,0.1,0,0.1,0,0.1c0,0,0,0.1,0,0.1  c0.1,2.9,0.1,5.8,0.1,8.7c0,2.9,0,6-0.1,9.3v0.5c1,0.1,2.1,0.3,3.1,0.4c1.1,0.1,2,0.1,2.8,0.1c3.3,0,6.1-0.1,8.4-0.4  c2.3-0.2,4.1-0.7,5.5-1.5c1.4-0.7,2.4-1.8,3.1-3.1c0.6-1.3,0.9-3,0.9-5.1C115.4,268.1,115.2,266.6,114.7,265.4 M128.2,304.5  c-0.7,2.2-1.6,4.1-2.8,5.7c-1.2,1.5-2.6,2.8-4.3,3.7c-1.7,0.9-3.6,1.7-5.7,2.2c-2.1,0.5-4.4,0.9-6.8,1c-2.5,0.2-5,0.3-7.7,0.3  c-0.5,0-1.1,0-2-0.1c-0.9-0.1-1.8-0.1-2.8-0.2c-1-0.1-2.1-0.2-3.2-0.4c-1.1-0.1-2.1-0.3-3-0.5c-0.7,0.3-1.6,0.5-2.8,0.5  c-1.5,0-2.7-0.3-3.6-0.8c-0.9-0.5-1.4-1.4-1.6-2.5c-0.1-0.7-0.1-1.5,0.1-2.4c0.2-0.8,0.3-1.6,0.4-2.3c0.1-2.9,0.1-5.9,0.1-8.9  c0-3,0-6.3,0-9.9c0-3.6-0.1-7.5-0.1-11.8c0-4.3,0-9.2,0-14.7l-0.5-5.6c0-1.2,0.1-2.1,0.2-2.9c0.1-0.7,0.3-1.3,0.7-1.8  c0.3-0.4,0.8-0.7,1.5-0.9c0.6-0.2,1.4-0.3,2.4-0.3c1.4,0,2.8,0,4.1-0.1c1.4,0,2.7-0.1,4.1-0.1c1.4-0.1,2.8-0.1,4.2-0.2  c1.4-0.1,2.8-0.1,4.3-0.1c1,0,2.2,0,3.6,0.1c1.5,0.1,3,0.3,4.6,0.6c1.6,0.3,3.2,0.9,4.8,1.6c1.6,0.7,3,1.8,4.3,3.1  c1.3,1.3,2.3,3,3.1,5.1c0.8,2,1.2,4.5,1.2,7.5c0,2.6-0.5,4.9-1.6,7c-1.1,2.1-2.4,4-4,5.6c0.7,0.3,1.4,0.6,2,1  c0.6,0.4,1.2,0.7,1.7,1.1c0.5,0.4,1,0.7,1.3,1.1c0.4,0.3,0.7,0.6,0.9,0.9c1.2,1.5,2.2,3.1,2.9,5c0.8,1.8,1.1,3.7,1.1,5.5  C129.1,299.6,128.8,302.3,128.2,304.5 M186.6,339.7c-0.2,0.7-0.8,1.5-1.6,2.2c-1.4,2.2-2.8,4.3-4.2,6.5s-2.7,4.2-4,6.2  c-1.3,2-2.4,3.9-3.5,5.7c-1.1,1.8-2,3.4-2.8,4.8c-0.1,1.3-0.2,2.8-0.2,4.4c0,1.6,0.1,3.3,0.1,5.1c0.1,1.8,0.2,3.6,0.3,5.4  c0.1,1.8,0.1,3.6,0.1,5.3c0,0.5-0.1,0.9-0.2,1.3c-0.1,0.4-0.3,0.8-0.6,1.1c-0.3,0.3-0.7,0.6-1.2,0.8c-0.5,0.2-1.2,0.3-1.9,0.3  c-0.6,0-1.2-0.1-1.7-0.3c-0.5-0.2-0.9-0.4-1.3-0.7c-0.4-0.3-0.6-0.7-0.8-1.1c-0.2-0.4-0.3-0.8-0.3-1.3c0-0.8,0-1.6,0-2.2  c0-0.6,0.1-1.3,0.1-2c0-0.7,0.1-1.5,0.1-2.3c0-0.8,0.1-1.9,0.1-3.1c0-1.2,0-2.7,0-4.4c0-1.7,0-3.8-0.1-6.3c-1.7-2.8-3.2-5.3-4.5-7.5  c-1.4-2.2-2.6-4.2-3.8-6.1c-1.2-1.8-2.2-3.5-3.3-5c-1-1.5-2-2.9-2.9-4.3c-0.6-0.9-1.1-1.6-1.5-2.3c-0.4-0.7-0.6-1.3-0.6-1.8  c0-1.3,0.4-2.3,1.2-2.9c0.8-0.7,1.8-1,3.1-1c0.5,0,1,0.1,1.4,0.4c0.4,0.3,0.8,0.7,1.2,1.1c0.4,0.5,0.7,1,1,1.6  c0.3,0.6,0.6,1.2,0.8,1.7c0.8,1.5,1.6,3,2.4,4.4c0.9,1.4,1.8,2.8,2.7,4.2c0.9,1.4,1.9,2.8,2.8,4.2c1,1.4,1.9,2.8,2.8,4.3l1.1,1.8  l1.1-1.8c2.5-3.9,4.7-7.4,6.6-10.4c1.9-3,3.2-5.3,4.1-7.1h0c0.2-0.6,0.5-1.2,0.7-1.7c0.2-0.5,0.5-1,0.9-1.4c0.3-0.4,0.7-0.7,1.1-1  c0.4-0.2,0.9-0.4,1.5-0.4c0.5,0,1,0.1,1.5,0.2s0.9,0.3,1.3,0.6c0.4,0.3,0.7,0.7,1,1.2c0.3,0.5,0.4,1.2,0.4,2  C186.9,338.4,186.8,338.9,186.6,339.7 M147.4,386c-0.1,0.5-0.3,1-0.6,1.4c-0.3,0.4-0.6,0.7-1.1,0.9c-0.5,0.2-1.1,0.3-1.8,0.3  c-0.9,0-1.7-0.2-2.2-0.6c-0.6-0.4-1.1-0.8-1.4-1.4c-0.4-0.5-0.7-1.1-0.9-1.8c-0.2-0.6-0.4-1.2-0.5-1.8c-0.4-1.6-0.9-3.4-1.5-5.3  c-0.5-1.9-1.1-4-1.7-6.1c-0.6-2.1-1.3-4.3-1.9-6.5c-0.7-2.2-1.3-4.4-2-6.5c-0.6-2.1-1.3-4.1-1.9-6.1c-0.6-1.9-1.2-3.6-1.8-5.2  c-0.9,2.4-1.6,4.8-2.4,7.3c-0.7,2.5-1.4,4.9-2.1,7.4c-0.7,2.5-1.4,5-2.1,7.5c-0.7,2.5-1.6,5-2.5,7.4c-0.2,0.5-0.3,1-0.4,1.5  c-0.1,0.5-0.1,1-0.1,1.4c0,0.6-0.1,1.2-0.4,1.6c-0.2,0.4-0.6,0.7-1,1c-0.4,0.2-0.8,0.4-1.3,0.5c-0.5,0.1-1,0.2-1.5,0.2  c-0.8,0-1.5-0.1-2-0.4c-0.5-0.2-0.9-0.6-1.2-1c-0.3-0.4-0.5-0.9-0.7-1.4c-0.1-0.5-0.3-1-0.4-1.6c0-0.3-0.1-0.6-0.2-0.9  c-0.1-0.3-0.1-0.6-0.2-0.9c-0.4-1.4-0.8-2.9-1.3-4.5c-0.5-1.6-1-3.4-1.5-5.1c-0.5-1.8-1.1-3.6-1.6-5.4c-0.6-1.8-1.1-3.6-1.7-5.4  c-0.6-1.7-1.1-3.4-1.6-5c-0.5-1.6-1-3-1.5-4.2c-0.6,1.5-1.2,3.4-1.8,5.4s-1.2,4.3-1.8,6.6c-0.6,2.3-1.3,4.7-1.9,7.2  c-0.6,2.5-1.2,4.8-1.8,7.2c-0.6,2.3-1.2,4.5-1.8,6.6c-0.6,2.1-1.1,3.9-1.6,5.4c-0.5,0.9-1,1.6-1.6,2.1c-0.5,0.5-1.3,0.8-2.3,0.8  c-0.6,0-1.1-0.1-1.6-0.3c-0.5-0.2-0.9-0.5-1.3-0.8c-0.4-0.3-0.6-0.7-0.9-1.2c-0.2-0.4-0.3-0.9-0.3-1.4c0-0.4,0.1-0.8,0.2-1.1  c0.2-0.5,0.5-1.4,0.9-2.9c0.4-1.5,1-3.3,1.6-5.4s1.4-4.6,2.2-7.3c0.8-2.7,1.7-5.6,2.6-8.6c0.9-3,1.8-6.1,2.8-9.3  c0.9-3.2,1.9-6.3,2.8-9.3v0c0.2-0.6,0.3-1.3,0.5-1.9c0.2-0.6,0.4-1.2,0.6-1.8c0.2-0.5,0.4-1,0.6-1.4c0.2-0.4,0.4-0.7,0.5-0.8  c0.4-0.4,0.9-0.7,1.5-0.9c0.6-0.2,1.2-0.3,1.8-0.3c0.8,0,1.5,0.1,2,0.4c0.5,0.3,1,0.7,1.3,1.3c0.4,0.6,0.7,1.2,1,2.1  c0.3,0.8,0.6,1.8,0.9,2.8l8.6,27.2l0.5,1.4c1.2-3.8,2.3-7.1,3.1-10.1c0.9-3,1.6-5.6,2.2-8c0.6-2.3,1.2-4.4,1.6-6.2  c0.5-1.8,0.9-3.4,1.4-4.8c0.2-0.7,0.5-1.4,0.7-2.1c0.2-0.7,0.5-1.4,0.9-2c0.4-0.6,0.8-1.1,1.4-1.4c0.6-0.4,1.3-0.6,2.2-0.6  c0.8,0,1.5,0.1,2.1,0.4c0.6,0.2,1.1,0.8,1.4,1.6c0.2,0.4,0.3,0.8,0.5,1.2c0.2,0.4,0.4,0.9,0.6,1.6c0.2,0.6,0.5,1.4,0.9,2.4  c0.3,1,0.8,2.2,1.3,3.6c0.5,1.5,1.1,3.3,1.8,5.4c0.7,2.1,1.5,4.6,2.4,7.5c0.9,2.9,2,6.3,3.2,10.2c1.2,3.9,2.6,8.3,4.1,13.2  c0.3,0.7,0.5,1.4,0.7,1.9c0.2,0.5,0.3,1,0.3,1.5C147.5,384.9,147.5,385.4,147.4,386 M460.2,339.4c-0.2,0.7-0.8,1.5-1.6,2.2  c-1.4,2.2-2.8,4.3-4.2,6.5c-1.4,2.1-2.7,4.2-4,6.2c-1.3,2-2.4,3.9-3.5,5.7c-1.1,1.8-2,3.4-2.8,4.8c-0.1,1.3-0.2,2.8-0.2,4.4  c0,1.6,0.1,3.3,0.1,5.1c0.1,1.8,0.2,3.6,0.3,5.4c0.1,1.8,0.1,3.6,0.1,5.3c0,0.5-0.1,0.9-0.2,1.3c-0.1,0.4-0.3,0.8-0.6,1.1  c-0.3,0.3-0.7,0.6-1.2,0.8c-0.5,0.2-1.2,0.3-1.9,0.3c-0.6,0-1.2-0.1-1.7-0.3c-0.5-0.2-0.9-0.4-1.3-0.7c-0.4-0.3-0.6-0.7-0.8-1.1  c-0.2-0.4-0.3-0.8-0.3-1.3c0-0.8,0-1.6,0-2.2c0-0.6,0.1-1.3,0.1-2c0-0.7,0.1-1.5,0.1-2.3c0-0.8,0.1-1.9,0.1-3.1c0-1.2,0-2.7,0-4.4  c0-1.7,0-3.8-0.1-6.3c-1.7-2.8-3.2-5.3-4.5-7.5c-1.4-2.2-2.6-4.2-3.8-6.1c-1.2-1.8-2.2-3.5-3.3-5c-1-1.5-2-2.9-3-4.3  c-0.6-0.9-1.1-1.6-1.5-2.3c-0.4-0.7-0.6-1.3-0.6-1.8c0-1.3,0.4-2.3,1.2-2.9c0.8-0.7,1.8-1,3.1-1c0.5,0,1,0.1,1.4,0.4  c0.4,0.3,0.8,0.7,1.2,1.1c0.4,0.5,0.7,1,1,1.6c0.3,0.6,0.6,1.2,0.8,1.7c0.7,1.5,1.6,3,2.4,4.4c0.9,1.4,1.8,2.8,2.7,4.2  c0.9,1.4,1.9,2.8,2.8,4.2c1,1.4,1.9,2.8,2.8,4.3l1.1,1.8l1.1-1.8c2.5-3.9,4.7-7.4,6.6-10.4c1.9-3,3.2-5.3,4.1-7.1h0  c0.2-0.6,0.5-1.2,0.7-1.7c0.3-0.5,0.5-1,0.9-1.4c0.3-0.4,0.7-0.7,1.1-1c0.4-0.2,0.9-0.4,1.5-0.4c0.5,0,1,0.1,1.5,0.2  c0.5,0.1,0.9,0.3,1.3,0.6c0.4,0.3,0.7,0.7,1,1.2c0.2,0.5,0.4,1.2,0.4,2C460.5,338.1,460.4,338.7,460.2,339.4 M407.3,370.5  c0-1.2-0.1-2.4-0.1-3.4c0-1-0.1-2.1-0.1-3.3c0-0.8-0.1-1.6-0.2-2.5c-0.1-0.8-0.2-1.7-0.2-2.7c0-0.3,0.1-0.7,0.2-1.1  c0.1-0.4,0.4-0.8,0.7-1.1c0.3-0.4,0.8-0.6,1.3-0.9c0.5-0.2,1.2-0.4,2-0.4c1.3,0,2.4,0.3,3.1,0.9c0.7,0.6,1.1,1.5,1.1,2.5  c0,0.5,0,0.9,0,1.3c0,0.4,0,0.9,0,1.3c0,0.7-0.1,1.6-0.1,2.6c0,1-0.1,2.4-0.1,4c0,1.6,0,3.5-0.1,5.8c0,2.3,0,5,0,8.2  c0,1.3-0.2,2.3-0.5,3c-0.3,0.7-0.7,1.3-1.3,1.6c-0.5,0.4-1.2,0.6-1.9,0.6c-0.7,0.1-1.5,0.1-2.2,0.1c-0.7,0-1.4,0-2.1,0.1  c-0.7,0.1-1.5,0.1-2.2,0.2c-0.7,0.1-1.5,0.2-2.2,0.2c-0.7,0.1-1.4,0.1-2,0.1c-4.8,0-9.1-0.7-12.8-2.1c-3.7-1.4-6.8-3.4-9.4-5.8  c-2.5-2.4-4.4-5.2-5.7-8.4c-1.3-3.2-1.9-6.6-1.9-10.1c0-4.7,0.7-8.7,2-12.2c1.3-3.5,3.2-6.4,5.6-8.7c2.4-2.3,5.2-4.1,8.4-5.2  c3.2-1.2,6.7-1.7,10.5-1.7c1,0,2.1,0,3.3,0.1c1.2,0,2.5,0.1,3.8,0.3c1.3,0.1,2.6,0.3,3.8,0.6c1.3,0.3,2.4,0.6,3.5,1  c0.8,0.3,1.5,0.8,2.1,1.4c0.6,0.6,0.9,1.4,0.9,2.6c0,1.3-0.3,2.3-1,3.1c-0.6,0.8-1.4,1.2-2.3,1.2c-0.2,0-0.4,0-0.7-0.1  c-0.3,0-0.5-0.1-0.7-0.2c-0.9-0.5-2-0.9-3.2-1.2c-1.3-0.3-2.6-0.5-3.9-0.7c-1.3-0.2-2.6-0.3-3.9-0.4c-1.3-0.1-2.4-0.1-3.3-0.1  c-1.2,0-2.5,0.2-3.9,0.5c-1.3,0.3-2.6,0.8-3.9,1.4c-1.3,0.7-2.5,1.5-3.6,2.5c-1.1,1-2.1,2.2-2.9,3.6c-0.8,1.4-1.5,3-2,4.9  c-0.5,1.8-0.7,3.9-0.7,6.2c0,2.7,0.3,5,0.9,7.1c0.6,2,1.5,3.8,2.6,5.3c1.1,1.5,2.4,2.8,3.9,3.8s3.1,1.9,4.8,2.5  c1.7,0.6,3.5,1.1,5.4,1.4c1.9,0.3,3.7,0.4,5.6,0.4c0.8,0,1.7,0,2.8-0.1c1,0,2.1-0.1,3.1-0.3c0-2.2,0-4.1,0-5.7  C407.4,373.2,407.3,371.8,407.3,370.5 M353.5,370.5c0-1.2-0.1-2.4-0.1-3.4c0-1-0.1-2.1-0.1-3.3c0-0.8-0.1-1.6-0.2-2.5  c-0.1-0.8-0.2-1.7-0.2-2.7c0-0.3,0.1-0.7,0.2-1.1c0.1-0.4,0.4-0.8,0.7-1.1c0.3-0.4,0.8-0.6,1.3-0.9c0.5-0.2,1.2-0.4,2-0.4  c1.3,0,2.4,0.3,3.1,0.9c0.7,0.6,1.1,1.5,1.1,2.5c0,0.5,0,0.9,0,1.3c0,0.4,0,0.9,0,1.3c0,0.7-0.1,1.6-0.1,2.6s-0.1,2.4-0.1,4  c0,1.6,0,3.5-0.1,5.8c0,2.3,0,5,0,8.2c0,1.3-0.2,2.3-0.5,3c-0.3,0.7-0.7,1.3-1.3,1.6c-0.5,0.4-1.2,0.6-1.9,0.6  c-0.7,0.1-1.5,0.1-2.2,0.1c-0.7,0-1.4,0-2.1,0.1c-0.7,0.1-1.5,0.1-2.2,0.2c-0.8,0.1-1.5,0.2-2.2,0.2c-0.7,0.1-1.4,0.1-2,0.1  c-4.8,0-9.1-0.7-12.8-2.1c-3.7-1.4-6.8-3.4-9.4-5.8c-2.5-2.4-4.4-5.2-5.7-8.4c-1.3-3.2-1.9-6.6-1.9-10.1c0-4.7,0.7-8.7,2-12.2  c1.3-3.5,3.2-6.4,5.6-8.7c2.4-2.3,5.2-4.1,8.4-5.2c3.2-1.2,6.7-1.7,10.5-1.7c1,0,2.1,0,3.3,0.1c1.2,0,2.5,0.1,3.8,0.3  c1.3,0.1,2.6,0.3,3.8,0.6c1.3,0.3,2.4,0.6,3.5,1c0.8,0.3,1.5,0.8,2.1,1.4c0.6,0.6,0.9,1.4,0.9,2.6c0,1.3-0.3,2.3-1,3.1  c-0.6,0.8-1.4,1.2-2.3,1.2c-0.2,0-0.4,0-0.7-0.1c-0.3,0-0.5-0.1-0.8-0.2c-0.9-0.5-2-0.9-3.2-1.2c-1.3-0.3-2.6-0.5-3.9-0.7  c-1.3-0.2-2.6-0.3-3.9-0.4c-1.3-0.1-2.4-0.1-3.3-0.1c-1.3,0-2.5,0.2-3.9,0.5c-1.3,0.3-2.6,0.8-3.9,1.4c-1.3,0.7-2.5,1.5-3.6,2.5  c-1.1,1-2.1,2.2-2.9,3.6c-0.8,1.4-1.5,3-2,4.9c-0.5,1.8-0.7,3.9-0.7,6.2c0,2.7,0.3,5,0.9,7.1c0.6,2,1.5,3.8,2.6,5.3  c1.1,1.5,2.4,2.8,3.9,3.8c1.5,1,3.1,1.9,4.8,2.5c1.7,0.6,3.5,1.1,5.4,1.4c1.9,0.3,3.7,0.4,5.6,0.4c0.8,0,1.7,0,2.8-0.1  c1,0,2.1-0.1,3.1-0.3c0-2.2,0-4.1,0-5.7C353.5,373.2,353.5,371.8,353.5,370.5 M301.6,353.3c-0.6-2.4-1.6-4.6-2.9-6.5  c-1.3-1.9-3-3.3-4.9-4.4c-2-1.1-4.3-1.6-7.1-1.6c-2.6,0-4.9,0.5-6.9,1.5c-2,1-3.7,2.4-5.1,4.1c-1.4,1.8-2.4,3.9-3.1,6.4  c-0.7,2.5-1.1,5.3-1.1,8.3c0,1.7,0.2,3.4,0.5,5.1c0.3,1.7,0.8,3.3,1.4,4.8c0.6,1.5,1.4,2.9,2.3,4.2c0.9,1.3,2,2.4,3.2,3.3  c1.2,0.9,2.5,1.7,4,2.2c1.5,0.5,3.1,0.8,4.8,0.8c1.8,0,3.4-0.3,4.9-0.8c1.5-0.5,2.8-1.3,4-2.2c1.2-0.9,2.2-2.1,3.1-3.3  c0.9-1.3,1.6-2.7,2.2-4.2c0.6-1.5,1-3.1,1.3-4.8c0.3-1.7,0.4-3.4,0.4-5.1C302.5,358.3,302.2,355.7,301.6,353.3 M308.7,371.8  c-1.1,3.3-2.7,6.2-4.8,8.7c-2.1,2.5-4.6,4.4-7.5,5.8c-2.9,1.4-6.2,2.1-9.9,2.1c-2.4,0-4.7-0.3-6.8-1c-2.1-0.6-4.1-1.5-5.8-2.7  c-1.8-1.2-3.3-2.6-4.7-4.2c-1.4-1.6-2.6-3.5-3.5-5.5c-1-2-1.7-4.2-2.2-6.5c-0.5-2.3-0.7-4.8-0.7-7.4c0-4,0.6-7.7,1.7-11.1  c1.1-3.3,2.8-6.2,4.9-8.6c2.1-2.4,4.6-4.3,7.6-5.6c3-1.3,6.3-2,9.9-2c3.8,0,7.2,0.7,10.1,2c2.9,1.3,5.4,3.2,7.4,5.6  c2,2.4,3.5,5.3,4.5,8.6c1,3.3,1.5,7,1.5,11.1C310.3,364.9,309.8,368.5,308.7,371.8 M247.4,351.5c-0.9-2.5-2.2-4.5-4-6  c-1.7-1.5-3.9-2.6-6.4-3.2c-2.5-0.6-5.5-0.9-8.7-0.9c-0.4,0-1,0-1.6,0c-0.6,0-1.3,0-2,0.1c-0.7,0-1.4,0.1-2,0.1  c-0.7,0-1.3,0.1-1.8,0.1l0.2,38.3c0.5,0.1,1.1,0.2,1.7,0.3c0.7,0.1,1.3,0.1,2,0.2c0.7,0,1.3,0.1,1.9,0.1c0.6,0,1.1,0,1.4,0  c2.8,0,5.3-0.4,7.4-1.1c2.1-0.7,3.9-1.6,5.4-2.8c1.5-1.1,2.8-2.4,3.8-3.9c1-1.4,1.8-2.9,2.4-4.3c0.6-1.5,1-2.9,1.2-4.2  c0.2-1.3,0.3-2.5,0.3-3.4C248.7,357.1,248.3,354,247.4,351.5 M256,365.2c-0.4,2.2-1.1,4.4-2,6.5c-0.9,2.1-2.1,4.2-3.5,6.2  c-1.5,2-3.3,3.7-5.4,5.2c-2.1,1.5-4.6,2.7-7.5,3.6c-2.9,0.9-6.1,1.3-9.8,1.3c-0.9,0-1.7,0-2.6-0.1c-0.9-0.1-1.7-0.2-2.6-0.3  c-0.9-0.1-1.7-0.2-2.6-0.3c-0.9-0.1-1.8-0.1-2.7-0.1c-1.4,0-2.4-0.3-3-1c-0.6-0.6-0.9-1.6-0.9-2.9c0-1,0-2.1,0.1-3.1  c0.1-1,0.1-2.2,0.1-3.5c0-6,0-12.1-0.1-18.2c0-6.1-0.1-12.2-0.3-18.4c-0.3-0.5-0.5-1-0.7-1.6c-0.2-0.6-0.3-1.1-0.3-1.5  c0-1,0.3-1.8,0.8-2.5c0.5-0.7,1.5-1,2.7-1c0.7,0,1.3,0.1,1.9,0.3c0.6,0.2,1.3,0.3,2,0.3c1.6,0,3.2-0.1,4.7-0.3  c1.6-0.2,3.2-0.3,4.8-0.3c3.3,0,6.3,0.3,9,1c2.6,0.6,5,1.5,7,2.7c2,1.2,3.7,2.5,5.1,4.1c1.4,1.6,2.6,3.3,3.4,5.2  c0.9,1.9,1.5,3.9,1.9,6c0.4,2.1,0.6,4.2,0.6,6.4C256.6,361,256.4,363,256,365.2 M476.9,325h1.6c1.1,0,1.6-0.6,1.6-1.7  c0-1.2-0.5-1.8-1.6-1.8h-1.6V325z M475.5,330.3v-9.8c0-0.1,0-0.2,0.1-0.4c0.1-0.1,0.2-0.2,0.4-0.2h2.5c2,0,3.1,1,3.1,3.1  c0,1.6-0.6,2.5-1.9,2.9l1.8,3.9c0,0.1,0,0.1,0,0.2c0,0.2-0.1,0.4-0.3,0.5c-0.2,0.2-0.4,0.2-0.6,0.2c-0.2,0-0.4-0.2-0.5-0.5l-1.9-4.1  h-1.3v4.1c0,0.4-0.2,0.5-0.7,0.5C475.7,330.9,475.5,330.7,475.5,330.3L475.5,330.3z M471,325.7c0,2.2,0.7,4,2,5.5  c1.3,1.4,3,2.1,5.2,2.1c2.1,0,3.9-0.7,5.3-2.1c1.4-1.4,2-3.3,2-5.6c0-2.2-0.7-4.1-2-5.5c-1.3-1.4-3-2.2-5.2-2.2  c-2.1,0-3.9,0.7-5.3,2.2C471.7,321.6,471,323.4,471,325.7L471,325.7z M469.7,325.7c0-1.5,0.3-2.9,0.8-4.1c0.5-1.2,1.2-2.2,2.1-2.9  c0.9-0.7,1.8-1.3,2.8-1.7c1-0.4,2-0.6,3-0.6s2,0.2,3,0.6c1,0.4,1.9,0.9,2.7,1.7c0.8,0.7,1.5,1.7,2,2.9c0.5,1.2,0.8,2.5,0.8,4  c0,1.5-0.3,2.8-0.8,4c-0.5,1.2-1.2,2.2-2.1,2.9c-0.9,0.7-1.8,1.3-2.8,1.6c-1,0.4-2,0.6-3,0.6s-2-0.2-3-0.6c-1-0.4-1.9-0.9-2.7-1.6  c-0.8-0.7-1.5-1.7-2-2.9C469.9,328.5,469.7,327.2,469.7,325.7L469.7,325.7z"/>
</svg>