<svg xmlns="http://www.w3.org/2000/svg" xmlns:cc="http://creativecommons.org/ns#" xmlns:dc="http://purl.org/dc/elements/1.1/" xmlns:rdf="http://www.w3.org/1999/02/22-rdf-syntax-ns#" version="1.1" xml:space="preserve" viewBox="4.98 5.06 199.99 363.89"><metadata><rdf:RDF><cc:Work rdf:about=""><dc:format>image/svg+xml</dc:format><dc:type rdf:resource="http://purl.org/dc/dcmitype/StillImage"/><dc:title/></cc:Work></rdf:RDF></metadata><g transform="matrix(1.3333 0 0 -1.3333 -838.77 1095.2)"><g fill="#231f20"><path d="m651.89 570.43h-5.2114v-15.212h5.3831c5.8981 0 9.3168 2.477 9.3168 7.4333 0 5.1305-3.3328 7.7791-9.4884 7.7791m0 22.736h-5.2114v-13.336h4.8705c5.4689 0 8.3775 2.6535 8.3775 6.9256 0 3.9337-2.3936 6.4106-8.0366 6.4106m0.59839-48.465h-19.659v58.976h20.085c13.422 0 20.002-5.724 20.002-15.298 0-6.4106-3.6762-10.342-8.4609-12.48 6.4082-2.0502 10.683-6.1531 10.683-14.185 0-11.369-8.5467-17.012-22.651-17.012"/><path d="m705.48 592.65h-3.6762v-17.351h3.4187c6.4965 0 10.087 2.8203 10.087 8.89 0 5.6406-3.3328 8.4609-9.8293 8.4609m0.25505-28.375h-3.7596v-19.575h-14.616v58.976h18.974c14.359 0 23.166-6.4106 23.166-19.232 0-13.331-9.4884-20.169-23.764-20.169"/><path d="m758.81 592.65h-3.6762v-17.351h3.4211c6.4965 0 10.084 2.8203 10.084 8.89 0 5.6406-3.3328 8.4609-9.8293 8.4609m0.2575-28.375h-3.7645v-19.575h-14.614v58.976h18.977c14.359 0 23.163-6.4106 23.163-19.232 0-13.331-9.4909-20.169-23.762-20.169"/></g><path d="m772.6 787.2c-0.93193 1.8933-2.8693 3.1048-5.0397 3.041l-0.90004-2e-3c-29.027 0-32.291 21.621-32.421 22.584-0.36296 2.7271-2.6952 4.8043-5.4812 4.8043h-41.716c-2.7835 0-5.1158-2.0772-5.4787-4.8043-0.12998-0.9638-3.3966-22.584-32.421-22.584l-0.90004 2e-3c-2.1728 0.0638-4.1103-1.1477-5.0422-3.041-0.50029-0.97361-11.914-24.245-10.001-54.92 1.7633-28.36 15.691-68.447 72.087-98.477 0.80684-0.41691 1.7093-0.63763 2.6192-0.64254 0.90004 5e-3 1.8025 0.22563 2.6167 0.64254 56.389 30.03 70.321 70.117 72.084 98.477 1.9104 30.675-9.5056 53.946-10.006 54.92" fill="#681f89"/><path d="m755.66 765.69c-4.6572 3.0606-11.127 7.2984-20.941 13.743-9.8269 6.4474-15.823 3.9852-18.729 2.6339-2.8963-1.3488-8.0856-1.3488-8.0856-1.3488s-5.1967 0-8.093 1.3488c-2.9012 1.3513-8.9023 3.8135-18.732-2.6339-9.8122-6.445-16.282-10.683-20.939-13.743-4.6572-3.0606-4.4364-8.3946-3.5143-11.178 0.91721-2.7933 11.085-33.35 13.692-41.515 2.602-8.1666 1.8295-12.211 1.8295-16.537 0-4.3457-0.41936-11.075 7.1807-15.705 2.9356-1.7903 5.101-3.1832 6.8619-4.6032h0.01c0.42182 5e-3 0.84118 0.0172 1.2728 0.0172 7.0115 0 13.111 2.7026 16.274 6.7098v5e-3c1.415 1.6946 2.2047 3.9508 2.2047 6.4204 0 0 0.5518 5.8785-6.0501 9.1696-7.112 3.5413-7.8723 8.8263-7.8723 8.8263v1.3219h-7e-3c0.38013 3.0361 2.4941 20.382 1.7535 34.241-2.2538 2.4156-5.1722 3.5486-7.0336 4.0391-0.25014 0.0736-0.52236 0.13488-0.79458 0.18884-0.63763 0.14224-1.0472 0.19374-1.0472 0.19374-5.0005 0.59594-10.126 0.90004-14.332 5.7607-3.4481 3.9386-2.9846 6.9281-2.9846 6.9281l-0.0147 2e-3h21.937c1.4935 0 2.7958-0.73573 3.6271-1.854 0.19865-0.32617 0.45124-0.79213 0.72101-1.4813 7e-3 -0.0368 0.0294-0.076 0.0392-0.11526h0.01c5.0986-13.471 0.78232-46.329 0.46841-48.595 2.8178-0.74063 7.8453-1.8172 13.532-1.8172 5.6798 0 10.72 1.0766 13.525 1.8172-0.30165 2.266-4.6302 35.119 0.46596 48.595h0.0147c5e-3 0.0392 0.0294 0.0785 0.0368 0.11526 0.28448 0.68913 0.52236 1.1551 0.73327 1.4813 0.81911 1.1183 2.1214 1.854 3.6173 1.854h21.934l-0.0147-2e-3s0.46351-2.9895-2.9821-6.9281c-4.2084-4.8607-9.3339-5.1648-14.332-5.7607 0 0-0.41201-0.0515-1.0496-0.19374-0.27222-0.054-0.54444-0.11527-0.79458-0.18884-1.8614-0.49049-4.7798-1.6235-7.0286-4.0391-0.74308-13.859 1.3684-31.205 1.7486-34.241v-1.3219s-0.76761-5.285-7.8796-8.8263c-6.6019-3.2912-6.0428-9.1696-6.0428-9.1696 0-2.4696 0.79459-4.7258 2.1974-6.4204v-5e-3c3.171-4.0073 9.2751-6.7098 16.284-6.7098 0.42182 0 0.84364-0.0123 1.263-0.0172 1.7706 1.42 3.9239 2.8129 6.8717 4.6032 7.6025 4.6302 7.1807 11.36 7.1807 15.705 0 4.3261-0.77251 8.3701 1.832 16.537 2.6045 8.1641 12.772 38.721 13.692 41.515 0.9123 2.7835 1.1428 8.1175-3.5168 11.178m-29.507-92.933c-4.0563 0.32372-9.2334 1.7756-15.794 5.2138-0.75289 0.31881-1.5916 0.48803-2.4549 0.48803-0.87306 0-1.702-0.16922-2.4549-0.48803-6.57-3.4383-11.737-4.8901-15.803-5.2138v-2e-3c1.1821-1.4396 2.3126-3.1366 3.5953-5.3487 3.5683-6.1507 9.3535-5.3586 14.663-5.4125 5.2997 0.0539 11.085-0.73818 14.653 5.4125 1.2826 2.2121 2.4058 3.9092 3.5952 5.3512" fill="#fff"/></g></svg>