<?xml version="1.0" encoding="UTF-8" standalone="no"?>
<!DOCTYPE svg PUBLIC "-//W3C//DTD SVG 1.1//EN" "http://www.w3.org/Graphics/SVG/1.1/DTD/svg11.dtd">
<svg width="100%" height="100%" viewBox="0 0 603 139" version="1.1" xmlns="http://www.w3.org/2000/svg" xmlns:xlink="http://www.w3.org/1999/xlink" xml:space="preserve" xmlns:serif="http://www.serif.com/" style="fill-rule:evenodd;clip-rule:evenodd;stroke-linejoin:round;stroke-miterlimit:2;">
    <g transform="matrix(1,0,0,1,-20.6203,-251.804)">
        <path d="M493.1,335.4C493.1,342.4 487.3,344.9 482.5,344.9C473.8,344.9 472.8,340.5 472.8,338.6C472.8,337 473.3,334.7 475.3,333.4C477.3,332.1 480.5,331.9 484.6,331.9L493,331.9L493.1,335.4ZM474.6,318C474.8,316.6 475.5,315.3 476.7,314.4C478.4,313 480.8,312.4 483.7,312.4C486.9,312.4 489.3,313.1 490.9,314.4C492.3,315.8 493.1,317.5 493.1,320L493.1,322.8L484.5,322.8C479.4,322.8 474.1,323.1 469.9,326.1C466.1,328.8 463.9,333.1 463.9,338.3C463.9,347.7 471.2,353.7 482.4,353.7C487,353.7 491.9,351.9 494.6,349.3L494.8,352.9L501.8,352.9L501.8,320C501.8,314.7 500,310.5 496.5,307.5C492.8,304.6 488.3,303.1 483.6,303.3C478.3,303.3 474.1,304.7 470.7,307.5C467.6,310.1 466,313.3 465.7,317.1L474.6,318ZM289.6,335.4C289.6,342.4 283.9,344.9 279,344.9C270.2,344.9 269.3,340.5 269.3,338.6C269.3,337 269.7,334.7 271.7,333.4C273.8,332 276.9,331.9 281,331.9L289.5,331.9L289.5,335.4L289.6,335.4ZM271.1,318C271.3,316.6 272,315.3 273.2,314.4C274.9,313 277.3,312.4 280.3,312.4C283.5,312.4 285.9,313.1 287.5,314.4C289,315.8 289.7,317.5 289.7,320L289.7,322.8L281.2,322.8C276.1,322.8 270.8,323.1 266.5,326.1C262.7,328.8 260.6,333.1 260.6,338.3C260.6,347.7 267.8,353.7 279.1,353.7C283.6,353.7 288.6,351.9 291.3,349.3L291.5,352.9L298.5,352.9L298.5,320C298.5,314.7 296.7,310.5 293.2,307.5C289.5,304.6 284.9,303.1 280.3,303.3C275.1,303.3 270.8,304.7 267.4,307.5C264.3,310.1 262.7,313.3 262.5,317.1L271.1,318ZM383.9,328.4C383.9,333.8 383.1,338.1 381,341C379.2,343.6 376.4,344.9 372.7,344.9C368.9,344.9 366.2,343.6 364.3,341C362.3,338.1 361.2,333.9 361.2,328.4C361.2,323.1 362.2,319.2 364.3,316.2C366.2,313.6 368.9,312.3 372.7,312.3C376.5,312.3 379.2,313.6 381,316.2C383.1,319.2 383.9,323.1 383.9,328.4ZM382.5,286.7L382.5,307.1C379.8,304.6 376.3,303.3 372.7,303.4L372.6,303.4C366.7,303.2 361.2,305.9 357.6,310.5C353.8,315.7 352,322 352.3,328.4C352.3,336.2 354,342.2 357.6,346.7C361.2,351.3 366.8,354 372.6,353.8L372.7,353.8C377.1,353.8 381.5,351.6 384.1,348.9L384.4,353L391.4,353L391.4,286.8L382.5,286.8L382.5,286.7ZM568.7,336.2C568.6,338.9 567.7,340.9 566,342.4C564,344.1 561.5,344.9 558.6,344.9C554.8,344.9 552.1,343.6 550.2,341C547.9,337.3 546.8,333 547,328.6C547,323.2 548.1,319.1 550.2,316.2C552.1,313.6 554.8,312.3 558.6,312.3C561.5,312.3 564,313.1 566,314.8C567.7,316.2 568.5,318.2 568.7,320.9L577.3,320.4C577.1,315 575.3,310.9 571.8,307.9C568.2,304.9 563.7,303.3 558.6,303.3C552.7,303.1 547,305.7 543.4,310.4C539.7,315.7 537.8,322 538.2,328.5C538.2,336.1 539.9,342 543.4,346.6C547,351.3 552.7,353.9 558.6,353.7C563.7,353.7 568.2,352.1 571.8,349.1C575.3,346.1 577.1,342.1 577.3,336.6L568.7,336.2ZM531.3,344.5C529.6,345.7 527.5,345.7 525.6,344.4C524.7,343.7 523.2,342.2 523.2,339.2L523.2,313.2L531.8,313.2L531.8,304.3L523.2,304.3L523.2,295.2L514.3,295.2L514.3,304.4L509.2,304.4L509.2,313.3L514.3,313.3L514.3,339.3C514.3,345.5 517,350.5 521.7,352.8C526.4,355.1 532.1,354.5 536.2,351.2L536.5,350.9L531.6,344.2L531.3,344.5ZM443.3,337.7L433.8,304.3L425.5,304.3L416,337.7L406.4,304.3L397.9,304.3L411.8,353L420.1,353L429.6,319.5L439.1,352.9L447.4,352.9L461.3,304.2L452.8,304.2L443.3,337.7ZM214.7,307.5C214.7,310.5 213.8,312.6 212.1,314C210.1,315.5 206.9,316.2 202.6,316.2L192.5,316.2L192.5,298.6L202.3,298.6C214.7,298.8 214.7,304.9 214.7,307.5M214.4,341.3C212.4,343.1 209.3,344 205.4,344L192.5,344L192.5,325.1L206.2,325.1C209.8,325.2 212.5,326.1 214.5,327.9C216.4,329.6 217.2,331.6 217.2,334.1C217.3,337.3 216.4,339.6 214.4,341.3M218.7,320C222,316.7 223.8,312.2 223.6,307.6C223.9,302.4 221.6,297.5 217.6,294.2C213,291 207.4,289.4 201.8,289.7L183.7,289.7L183.7,353L205.2,353C211.6,353 216.7,351.3 220.4,348C224.3,344.5 226.2,339.9 226.2,334.1C226.2,329.9 224.7,326.1 221.8,322.8C220.8,321.7 219.8,320.8 218.7,320M326,303.4C314.5,303.4 307.6,310.8 307.6,323.3L307.6,353L316.5,353L316.5,323.3C316.5,320.1 317.4,312.5 326.1,312.5C334.8,312.5 335.6,320.1 335.6,323.3L335.6,353L344.5,353L344.5,323.3C344.5,310.8 337.6,303.4 326.1,303.4M604.5,303.4C600.4,303.4 596.9,304.5 593.7,307.1L593.7,286.8L584.9,286.8L584.9,353L593.7,353L593.7,323.5C593.7,316.2 598.8,312.4 603.9,312.4C610.2,312.4 613,318 613,323.2L613,353L621.9,353L621.9,324C621.8,304.4 607.4,303.4 604.5,303.4M252.5,303.4C241,303.4 234,310.8 234,323.3L234,353L242.9,353L242.9,323.3C242.9,320.1 243.8,312.5 252.5,312.5C253.2,312.5 254.5,312.5 255.7,312.9L258,304.2C256.2,303.7 254.3,303.4 252.5,303.4" style="fill-rule:nonzero;"/>
    </g>
    <g id="Artboard1" transform="matrix(10.7599,0,0,2.02658,-299.207,-406.493)">
        <rect x="27.808" y="200.581" width="55.996" height="68.277" style="fill:none;"/>
        <g transform="matrix(0.0929378,0,0,0.493441,25.8913,76.3303)">
            <path d="M21.9,294L21.9,329.4L63.3,349L105.7,304.4L78,253.9C77.1,254.2 76.2,254.6 75.4,255.1L29.4,281.6C24.7,284 21.9,288.7 21.9,294" style="fill:rgb(87,183,221);fill-rule:nonzero;"/>
        </g>
        <g transform="matrix(0.0929378,0,0,0.493441,25.8913,76.3303)">
            <path d="M130.5,278.2L89.9,255C86.3,253 82,252.5 78.1,253.8L105.8,304.3L130.6,278.2L130.5,278.2Z" style="fill:rgb(169,139,188);fill-rule:nonzero;"/>
        </g>
    </g>
    <g transform="matrix(1,0,0,1,-20.6203,-251.804)">
        <path d="M63.3,348.9L113.2,372.4L135.8,359.3L105.6,304.2L63.3,348.9Z" style="fill:rgb(249,145,50);fill-rule:nonzero;"/>
    </g>
    <g transform="matrix(1,0,0,1,-20.6203,-251.804)">
        <path d="M135.9,359.4L136,359.4C140.5,356.8 143.2,352 143.2,346.9L143.2,294C143.2,288.8 140.5,284.1 136,281.4L130.5,278.3L105.7,304.4L135.9,359.4Z" style="fill:rgb(255,109,86);fill-rule:nonzero;"/>
    </g>
    <g transform="matrix(1,0,0,1,-20.6203,-251.804)">
        <path d="M21.9,329.3L21.9,346.8C21.9,351.9 24.7,356.7 29.2,359.3L44.8,368.3L63.3,348.8L21.9,329.3Z" style="fill:rgb(138,197,57);fill-rule:nonzero;"/>
    </g>
    <g transform="matrix(1,0,0,1,-20.6203,-251.804)">
        <path d="M44.9,368.4L75.3,385.9C79.8,388.5 85.4,388.5 89.9,385.9L113.2,372.5L63.3,349C63.3,348.9 44.9,368.4 44.9,368.4Z" style="fill:rgb(255,190,10);fill-rule:nonzero;"/>
    </g>
</svg>
