<?xml version="1.0" encoding="UTF-8"?>
<svg xmlns="http://www.w3.org/2000/svg" xmlns:xlink="http://www.w3.org/1999/xlink" width="116px" height="28px" viewBox="0 0 116 28">
  <!-- Generator: sketchtool 61.1 (101010) - https://sketch.com -->
  <title>1bcfa1e3-326d-40a8-a371-fa8a29a5f894@1.00x</title>
  <desc>Created with sketchtool.</desc>
  <defs>
    <polygon id="path-1" points="0 27.9266567 115.09494 27.9266567 115.09494 0 0 0"></polygon>
  </defs>
  <g id="Symbols" stroke="none" stroke-width="1" fill="none" fill-rule="evenodd">
    <g id="Brightec-Logo">
      <g id="Logo" transform="translate(-0.000000, 0.000000)">
        <path d="M54.0181746,21.1688776 L57.2944881,21.1688776 L57.2944881,13.5715791 C57.2944881,9.25111642 55.5861746,7.40771343 51.5819657,7.40771343 C50.2204134,7.40771343 48.9822493,7.73180299 48.0015179,8.34466866 L47.8417716,8.44465373 L47.8417716,1.69696716 L44.5653537,1.69696716 L44.5653537,21.1688776 L47.8417716,21.1688776 L47.8417716,13.2424746 C47.8417716,10.5427731 50.224697,10.3329821 50.9551,10.3329821 C52.9588761,10.3329821 54.0181746,11.4528776 54.0181746,13.5715791 L54.0181746,21.1688776 Z" id="Fill-1" fill="#555555"></path>
        <mask id="mask-2" fill="white">
          <use xlink:href="#path-1"></use>
        </mask>
        <g id="Clip-4"></g>
        <polygon id="Fill-3" fill="#555555" mask="url(#mask-2)" points="24.4215373 21.1412537 27.8241642 21.1412537 27.8241642 7.35773134 24.4215373 7.35773134"></polygon>
        <path d="M93.248494,16.9395821 L93.1745239,17.0154328 C92.0644493,18.1546567 90.9961657,18.6627313 89.7106731,18.6627313 C87.4437179,18.6627313 85.7345687,16.8312388 85.7345687,14.4023433 L85.7345687,14.3505224 C85.7345687,11.9758507 87.4242851,10.1159403 89.5816433,10.1159403 C91.2083597,10.1159403 92.1948373,10.9196866 93.0183299,11.7881045 L93.0953299,11.8691791 L95.2021209,9.62343284 L95.1354642,9.55155224 C93.6087328,7.90226866 91.9038672,7.16664179 89.6073448,7.16664179 C85.5645836,7.16664179 82.3977627,10.3449552 82.3977627,14.4023433 L82.3977627,14.4538507 C82.3977627,18.4675672 85.5419119,21.6118209 89.5556284,21.6118209 C92.4938522,21.6118209 94.0649866,20.3013582 95.2142403,19.0194179 L95.2813149,18.9445075 L93.248494,16.9395821 Z" id="Fill-5" fill="#555555" mask="url(#mask-2)"></path>
        <path d="M3.40264776,18.4923597 L3.40264776,11.2740015 C3.40264776,11.1702552 4.56203582,10.1545239 6.1473791,10.1545239 C8.30463284,10.1545239 9.88997612,11.5966284 9.88997612,13.9713 L9.88997612,14.2319716 C9.88997612,16.6608672 8.18061791,18.5968373 5.91376716,18.5968373 C4.91433433,18.5968373 3.40264776,18.4923597 3.40264776,18.4923597 L3.40264776,18.4923597 Z M2.08955224e-05,1.69883731 L2.08955224e-05,21.1280164 C2.08955224e-05,21.1280164 1.71679701,21.5459269 6.06881194,21.5459269 C10.0427224,21.5459269 13.2258418,18.157091 13.2258418,14.1939418 C13.2258418,10.1545239 10.1644388,7.20522537 6.12146866,7.20522537 C4.49234925,7.20522537 3.40264776,7.95986716 3.40264776,7.95986716 L3.40264776,1.69883731 L2.08955224e-05,1.69883731 Z" id="Fill-6" fill="#555555" mask="url(#mask-2)"></path>
        <path d="M36.4143552,18.6437687 C34.2571015,18.6437687 32.5672806,16.7838582 32.5672806,14.4091866 L32.5672806,14.3574701 C32.5672806,11.9284701 34.2765343,10.0970821 36.5434896,10.0970821 C37.5000866,10.0970821 39.2635642,10.3654851 39.2635642,10.3654851 L39.2635642,17.5607537 C38.568997,18.1978582 37.6135493,18.6437687 36.4143552,18.6437687 M36.3883403,7.14799254 C32.3746239,7.14799254 29.2304746,10.2921418 29.2304746,14.3058582 L29.2304746,14.3574701 C29.2304746,18.4147537 32.3972955,21.5930672 36.4401612,21.5930672 C37.448997,21.5930672 38.3435343,21.4105448 39.1590866,21.066291 L39.1590866,21.1641866 C39.1590866,23.5334254 37.2574896,24.9776194 35.2486985,24.9776194 C33.963206,24.9776194 32.8950269,24.4695448 31.7848478,23.3303209 L31.7108776,23.2544701 L29.6780567,25.2593955 L29.7451313,25.334306 C30.8944896,26.6162463 32.4656239,27.926709 35.4037433,27.926709 C39.4174597,27.926709 42.5617134,24.7824552 42.5617134,20.7687388 L42.5617134,7.87933582 C42.5617134,7.87933582 39.1590866,7.14799254 36.3883403,7.14799254" id="Fill-7" fill="#555555" mask="url(#mask-2)"></path>
        <path d="M22.8760418,7.37952537 C22.7036537,7.36562985 22.2072806,7.35768955 22.0106537,7.35768955 C21.4528478,7.35768955 20.9581463,7.42518209 20.5255045,7.5595403 C20.0930716,7.69421194 19.713191,7.85761493 19.386594,8.04964478 C19.0594746,8.24209254 18.7760269,8.45324179 18.5358328,8.68403284 C18.2953254,8.91461493 18.0983851,9.12649552 17.944803,9.31852537 L17.8582955,7.35695821 L14.5998478,7.35695821 L14.5998478,21.1412119 L18.0024746,21.1412119 L18.0024746,13.9502269 C18.0024746,13.450406 18.0934746,12.9986448 18.2764149,12.5948388 C18.4588328,12.1912418 18.7040418,11.8451075 19.0117284,11.5567493 C19.318997,11.2684955 19.6844597,11.0476299 20.1073851,10.8936299 C20.5301015,10.7399433 20.9725642,10.6628388 21.4339373,10.6628388 C21.7606388,10.6628388 22.7837881,10.6542716 22.8760418,10.6780925 L22.8760418,7.37952537 Z" id="Fill-8" fill="#555555" mask="url(#mask-2)"></path>
        <path d="M74.5464896,10.0441119 C74.6024896,10.0411866 74.658803,10.0395149 74.7154299,10.0395149 C74.7720567,10.0395149 74.8283701,10.0411866 74.8843701,10.0441119 C76.6611164,10.1226791 77.7939672,11.4346045 78.2813552,13.2040373 L70.8191463,13.2040373 C71.256803,11.4346045 72.7697433,10.1226791 74.5464896,10.0441119 L74.5464896,10.0441119 Z M81.2730716,15.5543657 C81.2730716,15.5543657 81.3474597,15.160694 81.3474597,14.5992313 C81.3474597,10.8891269 78.9774896,7.14579851 74.3828776,7.14579851 C71.7190119,7.14579851 69.6663403,8.61987313 68.5172955,10.8833806 C67.9717134,11.9170821 67.6654896,13.1105299 67.6654896,14.3921567 L67.6654896,14.4436642 C67.6654896,15.4598134 67.8677582,16.4197537 68.2338478,17.2875448 C69.2659821,19.9046045 71.7254896,21.6125 74.8234597,21.6125 C77.148191,21.6125 79.0557433,20.7379179 80.4931463,19.0132015 L78.4423552,17.0052463 C77.5305791,17.9409478 76.6464896,18.4491269 75.6475791,18.6013507 C75.3482507,18.677306 75.0363851,18.7187836 74.7154299,18.7187836 C74.658803,18.7187836 74.6024896,18.7171119 74.5464896,18.7141866 C72.7697433,18.6355149 71.2901313,17.323694 70.827609,15.5543657 L81.2730716,15.5543657 Z" id="Fill-9" fill="#555555" mask="url(#mask-2)"></path>
        <path d="M66.2180776,17.8202448 C64.9576597,18.5080209 64.7447343,18.4810657 64.2200478,18.4810657 C63.6433313,18.4810657 63.2251075,18.2748269 62.9654806,17.8612 C62.7059582,17.447991 62.576197,16.8567522 62.576197,16.0876925 L62.576197,10.1763493 L66.4185701,10.1763493 L66.4185701,7.40811045 L62.576197,7.40811045 L62.576197,3.55758806 L59.1736746,3.55758806 L59.1736746,16.5274388 C59.1736746,17.2771701 59.2504657,17.9646328 59.4042567,18.5892 C59.5581522,19.2140806 59.8127642,19.7474388 60.1687194,20.1894836 C60.5241522,20.6320507 60.9902269,20.9730657 61.5668388,21.2132597 C62.1439731,21.4533493 62.8455403,21.573603 63.6719582,21.573603 C64.4739284,21.573603 65.7851224,21.5728716 67.6712567,20.1598119 L66.2180776,17.8202448 Z" id="Fill-10" fill="#555555" mask="url(#mask-2)"></path>
        <path d="M28.3440761,2.22119403 C28.3440761,3.44786567 27.3495537,4.44238806 26.1228821,4.44238806 C24.8962104,4.44238806 23.9016881,3.44786567 23.9016881,2.22119403 C23.9016881,0.99441791 24.8962104,0 26.1228821,0 C27.3495537,0 28.3440761,0.99441791 28.3440761,2.22119403" id="Fill-11" fill="#555555" mask="url(#mask-2)"></path>
        <path d="M110.69846,24.8988015 C116.560385,19.0368761 116.560385,9.53265224 110.69846,3.67062239 L107.588893,6.78018955 C111.687236,10.942891 111.687236,17.6266373 107.588893,21.7892343 L110.69846,24.8988015 Z" id="Fill-12" fill="#24BAED" mask="url(#mask-2)"></path>
        <path d="M106.441645,14.2847328 C106.441645,15.9246134 105.112272,17.2539866 103.472391,17.2539866 C101.83251,17.2539866 100.503242,15.9246134 100.503242,14.2847328 C100.503242,12.6448522 101.83251,11.3155836 103.472391,11.3155836 C105.112272,11.3155836 106.441645,12.6448522 106.441645,14.2847328" id="Fill-13" fill="#FEDC07" mask="url(#mask-2)"></path>
      </g>
    </g>
  </g>
</svg>
