<svg xmlns="http://www.w3.org/2000/svg" xmlns:xlink="http://www.w3.org/1999/xlink" version="1.1" id="layer" x="0px" y="0px" style="enable-background:new -153 -46 652 652;" xml:space="preserve" viewBox="-126.4 248 599.9 64.86">
<style type="text/css">
	.st0{fill:#002856;}
</style>
<path class="st0" d="M-106.2,280.4c8.5,0,11.7,2.3,13.1,3.3c3.7,2.7,5.9,7.1,5.7,11.7c0,6.3-3.6,13-13.6,13c-8.1,0-8.8-4.5-8.8-9  v-18.9H-106.2z M-109.4,252.9c1.3-0.3,2.5-0.4,3.8-0.4c7-0.1,12.8,5.4,13,12.5c0,0.4,0,0.8,0,1.2c0,7.7-4.5,11.4-13.9,11.4h-3.3  v-24.6L-109.4,252.9z M-126.1,249.5h-0.3v1.4h0.3c3.3-0.4,6.2,1.9,6.7,5.1c0.1,0.6,0.1,1.1,0,1.7v45.3c0.3,3.4-2.3,6.4-5.7,6.6  c-0.3,0-0.6,0-0.9,0h-0.3v1.4h28.8c5.9,0.4,11.7-1.5,16.3-5.2c3.1-2.8,4.9-6.8,4.9-10.9c0-3.3-1.3-14.2-17-16.6  c10.5-3,11.4-11.1,11.4-13.5c0-3.6-1.4-7-4-9.6c-3.8-3.8-10.2-5.7-18.9-5.7L-126.1,249.5L-126.1,249.5z M-40.5,252.4  c12.3,0,12.7,12.3,12.7,13.7c0,11.9-9,13-17.6,13v-26.3C-43.8,252.5-42.2,252.4-40.5,252.4z M-61.8,249.6h-0.3v1.4h0.3  c3.1,0,6.7,0.8,6.7,6.8v45.3c0.6,3.1-1.4,6.1-4.5,6.6c-0.7,0.1-1.4,0.1-2.1,0h-0.3v1.4h23.6v-1.4h-0.3c-4.4,0-6.6-2.2-6.6-6.8v-20.8  c2.4-0.1,4.7,0.4,6.9,1.3c3.1,2.2,5.8,5,7.8,8.3l0.3,0.5l0.1,0.2l8.1,12.4l0.2,0.4l0,0l1,1.3l0.9,1.1c0.6,1,1.4,2,2.2,2.8l0.7,0.8  h14.9v-1.5h-0.3c-2.8-0.5-6.1-1.8-10.8-9.2l-0.1-0.2l0,0l0,0l-5.4-8.5l-0.5-0.5c-3.4-4.9-6.4-9.2-11.4-11  c8.5-1.8,13.4-7.1,13.4-14.7c0.1-6.3-3.9-12-9.8-14.2c-4.4-1.5-9-2.1-13.6-1.8L-61.8,249.6L-61.8,249.6z M66.3,249.5H43v1.3h0.3  c3.3-0.4,6.3,1.9,6.7,5.2c0.1,0.5,0.1,1.1,0,1.6v32.1c0.2,3.5-0.6,7-2.3,10c-3.1,4.5-8.2,7.1-13.7,7.2c-5.9,0.1-11.2-3.3-13.5-8.7  c-1.2-3.2-1.7-6.5-1.6-9.9v-30.5c0-5.9,3.4-6.6,6.6-6.8h0.3v-1.5H2.3v1.3h0.3c3.3-0.4,6.3,1.9,6.7,5.2c0.1,0.5,0.1,1.1,0,1.6v31  c0,22.3,18.2,23.4,21.9,23.4c7.8,0.2,15.1-4,19-10.8v9.9h16.6v-1.4h-0.3c-3.3,0-6.7-1-6.7-6.6v-45.3c0-5.9,3.4-6.6,6.7-6.8h0.3v-1.5  H66.3z M147.1,249.5h-17.2v1.3h0.3c3.2,0.2,6.7,0.9,6.7,6.6v38.4l-41.5-46.3H80v1.3h0.3c3.1,0.2,6,1.9,7.6,4.5l0.3,0.3l0,0l2.3,2.6  v44.8c0,6.5-4.3,6.6-6.6,6.6h-0.1v1.4h17.3v-1.4h-0.3c-2.5,0-6.6-0.2-6.6-6.6v-40.9l44.7,50.6h1.4v-55.2c0-6.2,4.2-6.4,6.7-6.6h0.3  v-1.5H147.1z M194.8,248h-1.1v0.2c-0.2,1-1,1.7-2,1.8c-1.2-0.1-2.3-0.4-3.4-0.7c-2.7-0.9-5.6-1.3-8.4-1.3  c-12.4,0-18.1,8.5-18.1,16.6c0,10.4,7.5,15,14.7,19.6c8.5,5.2,12.9,9.1,12.9,15c-0.1,5.9-4.9,10.6-10.8,10.5  c-3.7-0.1-7.3-1.3-10.3-3.5c-3.1-2.6-5.1-6.3-5.5-10.3v-0.2h-1.4l-0.9,16.3h1.4v-0.3c-0.1-1.1,0.7-2.2,1.9-2.3c0.1,0,0.2,0,0.3,0  c1.7,0.2,3.3,0.8,4.7,1.6c3.1,1.2,6.3,1.8,9.6,1.8c5,0.4,9.9-1.4,13.5-4.8c3.7-3.3,5.8-8,5.7-13c0-9.7-6.8-14-15.4-19.5l-0.5-0.3  c-6.8-4.2-12.3-8.2-12.3-14.5c-0.1-5.4,4.2-9.8,9.5-9.8c0.4,0,0.7,0,1.1,0c6.9,0,11.6,4.2,13,11.7v0.3h1.4l0.7-14.7H194.8z   M295.5,249.5h-16.9v1.3h0.3c3.8,0.3,5.2,1.6,5.2,4.6c-0.2,2.6-0.8,5.2-1.7,7.6l-10.5,31.3l-10.4-34.1l0,0c0-0.3-0.2-0.6-0.3-0.9  l0,0c-0.3-1.2-0.5-2.4-0.6-3.6c-0.1-2.7,2.1-5,4.9-5.1c0.3,0,0.5,0,0.8,0.1h0.5v-1.2l-25.9,1l1.9,0.5h0.3c5,0,6.8,5,7.8,7.7  l-12.2,35.9l-10-33c-0.6-1.9-1-3.8-1.2-5.7c-0.2-2.5,1.7-4.7,4.3-4.9c0.3,0,0.6,0,0.9,0h0.3v-1.4h-23.6v1.3h0.3  c4.1,0.3,6.3,1.9,8.9,10.1l16.1,51.8h1.5l16.5-49.3l15.3,49.3h1.5l16.7-49.3c3.7-11.1,5.7-11.5,9.6-12.4h0.2v-1.5H295.5L295.5,249.5  z M330.3,249.5h-23.2v1.3h0.3c2.5,0.1,6.6,0.4,6.6,6.6v45.5c0,6.5-4.3,6.6-6.6,6.6h-0.3v1.4h23.4v-1.2h-0.3c-2.5,0-6.6-0.2-6.6-6.6  v-45.5c0-6.1,4.1-6.4,6.6-6.6h0.3v-1.6H330.3L330.3,249.5z M345.3,281.4c0,12.1,8.5,31.3,31.5,31.3c9.2,0.3,18.1-3.6,24.1-10.5l0,0  v-4.3l-0.5,0.7c-4.8,6.4-12.2,10.2-20.1,10.3c-11.7,0-23.4-9.1-23.4-29.5c0-17.7,8.1-28.4,21.7-28.4c3.7,0,7.3,0.9,10.6,2.4  c5.5,2.4,9.4,7.5,10.2,13.5v0.3h1.4l0.6-18.7h-1.4v0.3c0.3,1.2-0.4,2.5-1.6,2.8c-0.2,0-0.3,0.1-0.5,0.1l-1.3-0.2  c-1.1-0.3-6.3-1.8-7.3-2.1c-3.1-0.8-6.2-1.2-9.4-1.2c-18.5-0.5-34,14.2-34.5,32.7C345.3,280.9,345.3,281.1,345.3,281.4z   M468.1,249.5h-19.3v1.3h0.3c2.7,0.2,4.1,1.2,4.1,2.8c-0.4,1.7-1.3,3.2-2.6,4.4l-17.7,19.6v-20c0-6.3,4.2-6.5,6.7-6.7h0.3v-1.4  h-23.5v1.3h0.4c2.6,0.2,6.5,0.4,6.5,6.6V303c0.5,3.2-1.7,6.2-4.9,6.7c-0.6,0.1-1.2,0.1-1.8,0h-0.3v1.4h23.6v-1.3h-0.3  c-2.5-0.1-6.7-0.4-6.7-6.6v-22.3l23.9,30.4h16.7v-1.4h-0.4c-5.5-0.8-6.8-2.3-11.1-7.3l-0.3-0.5l0,0l-21.9-27.5l14.5-16.2  c4.3-4.1,6.6-6.4,13.8-7.3h0.3v-1.5H468.1z"/>
</svg>