<svg xmlns:dc="http://purl.org/dc/elements/1.1/" xmlns:cc="http://creativecommons.org/ns#" xmlns:rdf="http://www.w3.org/1999/02/22-rdf-syntax-ns#" xmlns:svg="http://www.w3.org/2000/svg" xmlns="http://www.w3.org/2000/svg" xmlns:sodipodi="http://sodipodi.sourceforge.net/DTD/sodipodi-0.dtd" xmlns:inkscape="http://www.inkscape.org/namespaces/inkscape" version="1.1" id="svg14441" inkscape:version="0.92.0 r15299" sodipodi:docname="centrica.svg" viewBox="0.13 0.13 6.39 1.23">
  <defs id="defs14435">
    <radialGradient id="radialGradient7888" spreadMethod="pad" gradientTransform="matrix(16.51782,0,0,-16.51782,507.88832,239.12735)" gradientUnits="userSpaceOnUse" r="1" cy="0" cx="0" fy="0" fx="0">
      <stop id="stop7882" offset="0" style="stop-opacity:1;stop-color:#4957ae"/>
      <stop id="stop7884" offset="0.6" style="stop-opacity:1;stop-color:#191935"/>
      <stop id="stop7886" offset="1" style="stop-opacity:1;stop-color:#191935"/>
    </radialGradient>
  </defs>
  <sodipodi:namedview id="base" pagecolor="#ffffff" bordercolor="#666666" borderopacity="1.0" inkscape:pageopacity="0.0" inkscape:pageshadow="2" inkscape:zoom="31.904742" inkscape:cx="12.568665" inkscape:cy="2.8299999" inkscape:document-units="mm" inkscape:current-layer="layer1" showgrid="false" fit-margin-top="0" fit-margin-left="0" fit-margin-right="0" fit-margin-bottom="0" units="px" inkscape:window-width="1280" inkscape:window-height="744" inkscape:window-x="-4" inkscape:window-y="-4" inkscape:window-maximized="1"/>
  <metadata id="metadata14438">
    <rdf:RDF>
      <cc:Work rdf:about="">
        <dc:format>image/svg+xml</dc:format>
        <dc:type rdf:resource="http://purl.org/dc/dcmitype/StillImage"/>
        <dc:title/>
      </cc:Work>
    </rdf:RDF>
  </metadata>
  <g inkscape:label="Layer 1" inkscape:groupmode="layer" id="layer1" transform="translate(-120.78302,-229.59513)">
    <g id="g7870" transform="matrix(0.35277777,0,0,-0.35277777,-53.884663,313.84199)">
      <g id="g7872">
        <g id="g7878">
          <g id="g7880">
            <path d="m 507.691,238.312 c -0.268,-0.172 -0.38,-0.485 -0.246,-0.687 v 0 c 0.134,-0.201 0.455,-0.216 0.731,-0.044 v 0 c 0.268,0.178 0.373,0.484 0.247,0.686 v 0 c -0.073,0.112 -0.202,0.168 -0.347,0.168 v 0 c -0.124,0 -0.261,-0.04 -0.385,-0.123 m -3.416,-0.336 c -0.283,-0.008 -0.38,-0.008 -0.38,-0.008 v 0 l -0.15,-0.67 h -0.402 c 0,0 0.119,-0.075 0.186,-0.21 v 0 c 0.052,-0.126 0.075,-0.298 0.037,-0.5 v 0 c -0.066,-0.379 -0.148,-0.745 -0.148,-0.745 v 0 c -0.143,-0.649 0.118,-0.857 0.73,-0.857 v 0 c 0.157,0 0.38,0.014 0.537,0.044 v 0 l 0.127,0.612 c -0.141,-0.023 -0.261,-0.03 -0.343,-0.03 v 0 c -0.127,0 -0.202,0.082 -0.194,0.178 v 0 c 0,0.082 0.022,0.172 0.037,0.247 v 0 l 0.15,0.686 h 0.581 l 0.134,0.575 h -0.611 l 0.157,0.693 c 0,0 -0.134,-0.008 -0.448,-0.015 m -8.779,-1.947 c 0,-0.492 0.209,-1.089 1.223,-1.089 v 0 c 0.597,0 1.156,0.366 1.291,1.008 v 0 h -0.858 c -0.068,-0.195 -0.216,-0.411 -0.433,-0.411 v 0 c -0.261,0 -0.328,0.194 -0.306,0.515 v 0 c 0.015,0.164 0.112,0.745 0.508,0.745 v 0 c 0.283,0 0.306,-0.29 0.306,-0.402 v 0 h 0.857 c 0.007,0.649 -0.462,0.999 -1.134,0.999 v 0 c -0.894,0 -1.454,-0.701 -1.454,-1.365 m 2.685,-0.037 c 0,-0.604 0.358,-1.037 1.194,-1.037 v 0 c 0.858,0 1.148,0.604 1.208,0.753 v 0 h -0.836 c -0.059,-0.119 -0.149,-0.201 -0.335,-0.201 v 0 c -0.164,0 -0.254,0.082 -0.299,0.164 v 0 c -0.044,0.089 -0.067,0.194 -0.059,0.321 v 0 h 1.619 c 0.029,0.112 0.044,0.239 0.044,0.388 v 0 c 0,0.686 -0.507,1 -1.112,1 v 0 c -0.656,0 -1.424,-0.411 -1.424,-1.388 m 1.395,0.857 c 0.246,0 0.365,-0.141 0.321,-0.41 v 0 h -0.769 c 0.061,0.231 0.216,0.41 0.448,0.41 m 11.196,-0.932 c 0,-0.41 0.163,-0.94 0.828,-0.94 v 0 c 0.298,0 0.596,0.157 0.723,0.329 v 0 -0.008 c 0,-0.089 0.007,-0.194 0.045,-0.268 v 0 h 0.865 c -0.045,0.119 -0.045,0.321 0.007,0.559 v 0 c 0.045,0.201 0.359,1.709 0.359,1.709 v 0 h -0.865 l -0.068,-0.292 c -0.104,0.21 -0.327,0.351 -0.671,0.351 v 0 c -0.799,0 -1.223,-0.776 -1.223,-1.44 m 0.909,0.067 c 0,0.359 0.202,0.784 0.508,0.784 v 0 c 0.253,0 0.343,-0.172 0.343,-0.403 v 0 c 0,-0.478 -0.231,-0.776 -0.515,-0.776 v 0 c -0.201,0 -0.336,0.112 -0.336,0.395 m -3.587,0.037 c 0.007,-0.484 0.231,-1.044 1.23,-1.044 v 0 c 0.59,0 1.15,0.329 1.291,0.971 v 0 h -0.858 c -0.067,-0.195 -0.216,-0.374 -0.44,-0.374 v 0 c -0.245,0 -0.32,0.157 -0.298,0.478 v 0 c 0.007,0.171 0.105,0.716 0.507,0.716 v 0 c 0.284,0 0.306,-0.269 0.299,-0.373 v 0 h 0.857 c 0.008,0.649 -0.455,0.962 -1.134,0.962 v 0 c -0.887,0 -1.454,-0.664 -1.454,-1.336 m -6.214,0.955 0.09,0.322 h -0.836 l -0.469,-2.268 h 0.865 l 0.254,1.201 c 0.052,0.239 0.142,0.432 0.418,0.432 v 0 c 0.141,0 0.246,-0.075 0.246,-0.216 v 0 c 0,-0.09 -0.045,-0.246 -0.068,-0.381 v 0 l -0.223,-1.036 h 0.85 l 0.276,1.283 c 0.037,0.164 0.06,0.328 0.06,0.433 v 0 c 0,0.47 -0.374,0.611 -0.671,0.611 v 0 c -0.374,0 -0.612,-0.179 -0.792,-0.381 m 4.26,-0.074 v 0.008 l 0.089,0.388 h -0.835 l -0.471,-2.268 h 0.866 l 0.202,0.947 c 0.089,0.418 0.268,0.582 0.544,0.582 v 0 c 0.134,0 0.216,-0.008 0.358,-0.06 v 0 l 0.164,0.776 c -0.067,0.03 -0.142,0.037 -0.245,0.037 v 0 c -0.277,0 -0.538,-0.194 -0.672,-0.41 m 1.14,0.396 -0.468,-2.268 h 0.864 l 0.47,2.268 z" style="fill:url(#radialGradient7888);stroke:none" id="path7890" inkscape:connector-curvature="0"/>
          </g>
        </g>
      </g>
    </g>
  </g>
</svg>