<?xml version="1.0" encoding="utf-8"?>
<!-- Generator: Adobe Illustrator 19.2.1, SVG Export Plug-In . SVG Version: 6.00 Build 0)  -->
<svg version="1.1" id="layer" xmlns="http://www.w3.org/2000/svg" xmlns:xlink="http://www.w3.org/1999/xlink" x="0px" y="0px"
	 viewBox="0 0 652 652" style="enable-background:new 0 0 652 652;" xml:space="preserve">
<style type="text/css">
	.st0{fill:#002A6F;}
	.st1{fill:#FAC700;}
</style>
<g id="Layer_2">
	<g id="Layer_1-2">
		<path class="st0" d="M203.2,353c-4.7,0-9.3-0.8-13.6-2.5c-4.2-1.6-8-4.1-11.2-7.2c-3.3-3.2-5.9-7.1-7.6-11.3
			c-1.9-4.7-2.9-9.8-2.8-14.9c-0.1-5.1,0.9-10.3,2.8-15c3.5-8.5,10.4-15.2,19-18.6c4.2-1.7,8.7-2.5,13.3-2.5
			c4.3-0.1,8.6,0.7,12.6,2.1c3.4,1.2,6.6,3,9.3,5.3c2.5,2.1,4.6,4.5,6.2,7.3c1.5,2.6,2.7,5.4,3.5,8.3l-12.7,4
			c-0.4-1.7-1.1-3.4-1.9-5c-0.9-1.7-2.2-3.2-3.6-4.5c-1.7-1.4-3.6-2.5-5.6-3.2c-5-1.7-10.5-1.7-15.5,0.1c-2.5,0.9-4.8,2.4-6.8,4.2
			c-2.1,2-3.8,4.5-4.9,7.2c-1.3,3.3-1.9,6.7-1.8,10.2c-0.1,3.4,0.6,6.7,1.9,9.8c1.1,2.7,2.7,5.1,4.8,7.1c2,1.9,4.3,3.4,6.8,4.4
			c2.6,1,5.3,1.5,8,1.5c2.6,0,5.3-0.4,7.7-1.3c2.1-0.8,4-1.9,5.7-3.4c1.5-1.3,2.8-2.8,3.8-4.5c0.9-1.5,1.6-3.2,2.1-4.9l12.5,3.8
			c-0.7,2.9-1.9,5.6-3.4,8.1c-1.7,2.9-3.8,5.4-6.3,7.5c-2.8,2.4-5.9,4.3-9.3,5.6C212,352.3,207.7,353.1,203.2,353"/>
		<path class="st0" d="M251.5,351.5h-12.9V281h12.9v26.6c1.5-1.9,3.6-3.3,5.9-4.1c2.3-0.8,4.6-1.2,7-1.2c2.7-0.1,5.4,0.4,7.9,1.5
			c2.1,1,4,2.4,5.5,4.1c1.5,1.8,2.6,3.8,3.3,6c0.7,2.4,1.1,4.9,1.1,7.4v30.2h-12.9v-28c0.1-2.4-0.6-4.8-2.1-6.8
			c-1.7-1.9-4.2-3-6.8-2.7c-2.4-0.1-4.8,0.8-6.4,2.6c-1.6,1.9-2.5,4.2-2.5,6.7L251.5,351.5z"/>
		<path class="st0" d="M305.7,343.2c1.3,0,2.7-0.2,3.9-0.5c1.2-0.4,2.4-1,3.4-1.9c1-0.9,1.8-2.1,2.3-3.4c0.6-1.7,0.9-3.5,0.9-5.3
			V330l-10.8,1.7c-1.5,0.2-3,0.8-4.2,1.8c-1.2,1.1-1.8,2.6-1.7,4.2c0,1.4,0.6,2.8,1.6,3.8C302.3,342.7,304,343.3,305.7,343.2
			 M286.6,338.4c-0.1-3.8,1.4-7.4,4.1-10c1.3-1.2,2.8-2.2,4.5-2.9c1.8-0.7,3.8-1.3,5.7-1.6l11.7-1.8c1.1-0.1,2.1-0.5,2.8-1.2
			c0.5-0.6,0.8-1.4,0.8-2.2c0-1.7-0.7-3.3-2-4.4c-1.7-1.4-3.9-2-6.1-1.9c-4.7-0.4-8.8,3.1-9.1,7.8c0,0,0,0,0,0l-11.5-2.4
			c0.2-2,0.8-3.9,1.7-5.7c1-1.9,2.4-3.6,4-5.1c1.8-1.6,4-2.9,6.2-3.7c2.7-1,5.6-1.5,8.6-1.5c3.3-0.1,6.5,0.4,9.6,1.5
			c2.4,0.9,4.6,2.2,6.5,4c1.6,1.6,2.9,3.6,3.6,5.9c0.7,2.2,1.1,4.6,1.1,6.9v23.7c0,1.3,0.1,2.7,0.2,4.1c0.1,1.5,0.3,2.6,0.4,3.5
			h-11.9c-0.2-0.9-0.3-1.8-0.3-2.7c-0.1-1.1-0.1-2.2-0.1-3.1c-1.4,2-3.2,3.7-5.3,5c-2.7,1.5-5.7,2.3-8.8,2.1c-2.3,0-4.7-0.4-6.9-1.2
			c-1.9-0.7-3.7-1.8-5.2-3.2C288.1,345.9,286.5,342.3,286.6,338.4"/>
		<path class="st0" d="M363.3,316.4c-1.3-0.3-2.6-0.4-3.9-0.4c-1.6,0-3.2,0.2-4.8,0.7c-1.5,0.4-2.8,1.2-3.9,2.2
			c-1.2,1.2-2.1,2.6-2.7,4.1c-0.7,2.1-1.1,4.3-1,6.5v21.9h-12.9v-48h12.6v7.1c0.6-1.5,1.6-2.8,2.8-3.8c1.1-1,2.3-1.7,3.6-2.3
			c1.2-0.5,2.5-0.9,3.8-1.1c1.1-0.2,2.3-0.3,3.5-0.3c0.5,0,1,0,1.5,0l1.5,0.1L363.3,316.4z"/>
		<path class="st0" d="M368.6,303.6h12.9v47.9h-12.9V303.6z M367,287.9c0-2.2,0.8-4.2,2.3-5.7c3.1-3.1,8.2-3.1,11.3,0
			c1.5,1.5,2.3,3.6,2.3,5.7c0,4.4-3.6,7.9-8,7.9c-2.1,0-4.1-0.9-5.6-2.3C367.8,292,367,290,367,287.9"/>
		<path class="st0" d="M407.4,303.6h9.6v11.5h-9.6v20.1c-0.2,1.6,0.4,3.2,1.5,4.4c1.2,0.9,2.7,1.3,4.2,1.2c0.8,0,1.6,0,2.3-0.1
			c0.6,0,1.1-0.1,1.7-0.3v10.7c-0.9,0.3-1.8,0.6-2.7,0.8c-1.5,0.3-3.1,0.4-4.6,0.4c-4.1,0.2-8.1-1.2-11.1-3.9
			c-2.8-2.9-4.3-6.9-4.1-11v-22.3h-8.7v-11.5h2.4c2.1,0.2,4.2-0.6,5.6-2.2c1.2-1.5,1.9-3.5,1.8-5.4v-6.7h11.7L407.4,303.6z"/>
		<polygon class="st0" points="429.9,370.4 441.2,345.5 420.9,303.6 435.4,303.6 448.1,331.6 459.9,303.6 473.7,303.6 443.6,370.4 
					"/>
		<path class="st0" d="M466.9,325.9l12.9-2.3v6.3c0.1,3.6,1,6.2,2.8,7.8c1.8,1.7,4.3,2.6,6.8,2.5c2.5,0.1,5-0.9,6.7-2.7
			c1.7-2,2.6-4.7,2.4-7.3v-47.7h13.4v47.7c0,3-0.5,6-1.6,8.8c-1,2.7-2.6,5.2-4.6,7.3c-2,2.1-4.4,3.8-7.1,4.9c-2.9,1.2-6,1.8-9.2,1.8
			c-3.2,0-6.3-0.5-9.3-1.6c-5.4-2-9.7-6.3-11.7-11.7c-1.1-2.9-1.6-6.1-1.6-9.2L466.9,325.9z"/>
		<path class="st0" d="M541.2,341.2c1.6,0,3.1-0.3,4.6-0.9c1.5-0.6,2.8-1.5,3.9-2.6c1.2-1.2,2.1-2.7,2.7-4.2c0.7-1.9,1.1-3.9,1-5.9
			c0-2-0.3-4-1-5.9c-0.6-1.6-1.5-3-2.7-4.3c-1.1-1.1-2.4-2-3.9-2.6c-2.9-1.2-6.2-1.2-9.1,0c-1.5,0.6-2.8,1.5-3.9,2.6
			c-1.2,1.2-2.1,2.7-2.7,4.2c-1.4,3.8-1.4,8,0,11.9c0.6,1.6,1.5,3,2.7,4.2c1.1,1.1,2.4,2,3.9,2.6
			C538.1,340.9,539.6,341.2,541.2,341.2 M541.2,302.1c3.4,0,6.8,0.6,10,1.9c6,2.4,10.8,7.2,13.2,13.3c1.3,3.3,1.9,6.7,1.9,10.2
			c0,3.5-0.6,7-1.9,10.2c-1.2,3-3,5.7-5.3,8c-2.3,2.3-5,4.1-7.9,5.3c-6.4,2.5-13.5,2.5-19.9,0c-3-1.2-5.7-3-8-5.3
			c-2.3-2.3-4-5-5.3-8c-1.3-3.3-2-6.7-1.9-10.2c0-3.5,0.6-7,1.9-10.2c2.4-6.1,7.1-10.9,13.2-13.3c3.2-1.3,6.5-1.9,10-1.9"/>
		<path class="st0" d="M607,327.5c0-4.4-1.2-7.8-3.5-10.1c-2.2-2.3-5.2-3.5-8.4-3.5c-1.6,0-3.2,0.3-4.6,0.9
			c-1.4,0.6-2.7,1.4-3.8,2.6c-1.1,1.2-2,2.7-2.6,4.2c-0.7,1.9-1,3.9-1,5.9c0,2,0.3,3.9,1,5.7c0.6,1.6,1.5,3,2.6,4.3
			c1.1,1.2,2.4,2.1,3.9,2.7c1.5,0.6,3,0.9,4.6,0.9c3.2,0.1,6.2-1.2,8.4-3.5C606,335.2,607.1,331.9,607,327.5 M570.7,351.5V281h12.7
			v27.8c1.4-1.9,3.2-3.5,5.4-4.5c2.8-1.4,6-2.1,9.1-1.9c3.2-0.1,6.4,0.6,9.3,1.9c2.7,1.2,5,3,6.9,5.3c2,2.3,3.5,5,4.4,7.9
			c1,3.2,1.5,6.6,1.5,9.9c0,3.4-0.5,6.8-1.6,10.1c-1,2.9-2.5,5.7-4.6,8c-2,2.3-4.4,4.1-7.2,5.3c-2.9,1.3-6.1,1.9-9.2,1.9
			c-3,0.1-5.9-0.6-8.6-1.9c-2.3-1.2-4.2-2.9-5.6-5.1v5.9L570.7,351.5z"/>
		<path class="st0" d="M80.5,340.7c-10.7,0-19.3-8.6-19.3-19.3s8.6-19.3,19.3-19.3s19.3,8.6,19.3,19.3
			C99.8,332,91.2,340.7,80.5,340.7 M124.8,352.2l-15.1-14.7l-0.4-0.4c8.8-16,3.1-36.1-12.9-44.9c-16-8.8-36.1-3.1-44.9,12.9
			c-8.8,16-3.1,36.1,12.9,44.9c10.2,5.6,22.6,5.5,32.6-0.3l0.2,0.2l15.1,14.8c3.5,3.3,9,3.3,12.5,0c3.4-3.3,3.5-8.7,0.3-12.2
			C124.9,352.4,124.8,352.3,124.8,352.2"/>
		<path class="st1" d="M139.3,320.2c0-0.6,0-1.1,0-1.6s0-0.8,0-1.2s-0.1-1.2-0.1-1.8c0-0.4,0-0.7-0.1-1.1c0-0.6-0.1-1.3-0.2-1.9
			c0-0.3-0.1-0.6-0.1-0.9c-0.1-0.7-0.2-1.3-0.4-2l-0.2-0.8c-0.1-0.7-0.3-1.4-0.5-2.1l-0.2-0.7c-0.2-0.7-0.4-1.5-0.6-2.2l-0.2-0.6
			c-0.2-0.7-0.5-1.5-0.7-2.2l-0.3-0.6c-0.3-0.7-0.5-1.4-0.8-2.2l-0.2-0.6c-0.3-0.7-0.6-1.5-0.9-2.1l-0.3-0.6c-0.3-0.7-0.7-1.3-1-2
			l-0.4-0.7c-0.4-0.6-0.7-1.3-1.1-1.9l-0.3-0.5c-2.2-3.5-6.8-4.6-10.3-2.5c-3.5,2.2-4.6,6.8-2.5,10.3l0.1,0.2c0.3,0.5,0.6,1,0.9,1.6
			l0.2,0.4c0.3,0.5,0.6,1.1,0.8,1.6l0.2,0.4c0.3,0.5,0.5,1.1,0.7,1.6l0.2,0.4c0.2,0.5,0.4,1.1,0.6,1.6l0.2,0.4
			c0.2,0.5,0.4,1.1,0.5,1.6l0.1,0.5c0.2,0.5,0.3,1.1,0.5,1.6l0.1,0.5c0.1,0.5,0.3,1.1,0.4,1.6l0.1,0.5c0.1,0.5,0.2,1.1,0.3,1.6
			l0.1,0.6c0.1,0.5,0.1,1,0.2,1.6v0.7c0,0.5,0.1,1,0.1,1.5v0.7c0,0.5,0,1,0,1.5v0.8c0,0.5,0,0.9,0,1.3c0,0.4,0,0.6,0,0.9
			s0,0.8-0.1,1.2c-0.1,0.4,0,0.7-0.1,1c-0.1,0.4-0.1,0.7-0.1,1.1c0,0.4-0.1,0.8-0.2,1.1c-0.1,0.4-0.1,0.7-0.2,1
			c-0.1,0.3-0.2,0.8-0.2,1.2l-0.1,0.5c-0.9,4,1.6,8,5.7,9c0.5,0.1,1.1,0.2,1.6,0.2c3.4,0,6.4-2.4,7.2-5.7l0.2-0.9
			c0.1-0.6,0.2-1.1,0.3-1.7c0.1-0.6,0.1-0.8,0.2-1.3c0.1-0.4,0.2-1.1,0.2-1.7c0.1-0.6,0.1-0.9,0.2-1.3s0.1-1.1,0.1-1.6
			c0-0.5,0-0.9,0.1-1.5c0.1-0.5,0-1,0-1.5c0-0.5,0-1,0-1.5C139.1,321.1,139.3,320.7,139.3,320.2z"/>
		<circle class="st1" cx="110.3" cy="278.7" r="7.6"/>
		<path class="st1" d="M93.5,262.5c-1.4-0.3-2.8-0.6-4.2-0.8l-1-0.1h-0.1h-0.5c-1.1-0.2-2.2-0.3-3.4-0.4h-0.7
			c-0.9-0.1-1.8-0.2-2.7-0.2h-0.7c-0.9,0-1.7,0-2.6,0h-1l-2.2,0.3l-1.2,0.1h-0.3l-1.6,0.2l-1.5,0.2l-0.7,0.1l-1,0.2l-1.5,0.3
			l-1.1,0.3l-0.4,0.1l-0.5,0.1l-1.3,0.3l-1.3,0.4l-0.6,0.2l-0.7,0.3l-0.5,0.2l-1.1,0.4l-0.6,0.2h-0.2l-0.5,0.3H58l-0.6,0.2l-0.6,0.2
			l-0.9,0.4l-0.3,0.1c-0.6,0.2-1.1,0.5-1.7,0.8l-0.1,0.1h-0.1l-0.4,0.2l-0.9,0.5l-0.3,0.2c-0.6,0.3-1.1,0.6-1.6,0.9l-0.1,0.1
			l-0.7,0.4l-0.4,0.2l-0.6,0.3l-0.6,0.4l-0.8,0.5h-0.1l0,0l-1,0.7l-0.6,0.4l-1,0.7l-0.3,0.2l-0.1,0.1l-0.4,0.3l-0.4,0.3l-0.8,0.6
			l-0.6,0.5l-0.2,0.2l-0.2,0.2l-0.3,0.3l-1.2,1.1l-0.2,0.2l-0.4,0.3l-0.1,0.1l-0.1,0.1l-1.3,1.2l-0.2,0.2l-0.3,0.3
			c-0.6,0.6-1.2,1.2-1.8,1.9l-0.1,0.1l-0.4,0.5l0,0l0,0l-1,1.1l-0.2,0.4l-0.2,0.2l-0.1,0.1l-0.2,0.2l-0.4,0.5l-0.1,0.1l-0.8,1.1
			l-0.1,0.1l0,0.2l-0.6,0.8l-0.1,0.1l-0.6,0.8l-0.3,0.5L30,288l-0.4,0.6l-0.6,1.1l-0.3,0.5l-0.2,0.3l0,0l-0.3,0.6l-0.4,0.6l-0.3,0.5
			l0,0l-0.3,0.5v0.1l0,0l-0.4,0.7l-0.2,0.3l-0.5,0.8l-0.4,0.8l-0.1,0.2l-0.2,0.5l-0.3,0.7l-0.3,0.7l-0.3,0.7l-0.2,0.4v0.1l-0.3,0.8
			c-0.2,0.4-0.3,0.9-0.5,1.3l-0.1,0.2v0.1l0,0l-0.3,0.7c-0.2,0.5-0.3,0.9-0.4,1.5c-0.1,0.5-0.3,1.1-0.5,1.7l-0.2,0.6
			c0,0.2-0.1,0.5-0.2,0.7v0.1v0.2l-0.1,0.3l-0.1,0.3l-0.2,0.5c0,0.3-0.1,0.6-0.2,0.9l-0.1,0.4v0.3v0.4v0.2l-0.1,0.6
			c0,0.4-0.1,0.7-0.2,1.1l-0.1,0.6v0.4v0.2l-0.1,0.8c0,0.3,0,0.6-0.1,0.9s0,0.5-0.1,0.7v0.4v0.1c0,0.3,0,0.6,0,0.9s0,0.3,0,0.5
			c0,0.2,0,0.7,0,1v0.5h-0.6v0.3c0,0.1,0,0.2,0,0.2v0.2c0,0.1,0,0.3,0,0.4c0,0.1,0,0.2,0,0.3c0,0.3,0,0.7,0,1s0,0.6,0,0.9
			c0,0.3,0,0.2,0,0.4v0.6c0,0.3,0,0.6,0,1c0,0.3,0,0.7,0,1.1c0,0.4,0.1,1.2,0.1,1.7c0,0.3,0,0.5,0.1,0.8c0.1,0.3,0,0.2,0,0.3
			c0,0.4,0.1,0.7,0.1,1.1v0.3v0.4v0.4c0,0.2,0,0.5,0.1,0.7c0.1,0.2,0.1,0.9,0.2,1.3v0.4v0.2v0.1c0,0.3,0.1,0.6,0.2,0.9
			s0.2,1,0.3,1.5c0.1,0.5,0.2,0.9,0.3,1.3c0.1,0.4,0.3,1.1,0.5,1.6l0.2,0.8v0.2v0.2c0.1,0.4,0.3,0.8,0.4,1.3l0.2,0.7l0.1,0.4
			l0.2,0.6v0.1v0.1c0.2,0.5,0.4,0.9,0.5,1.3l0.2,0.5c0.2,0.5,0.5,1,0.7,1.6l0.1,0.3l0.4,0.9l0.7,0.2v0.1l0,0l0.2,0.5
			c0.2,0.5,0.5,1,0.8,1.6c0.3,0.6,0.5,0.9,0.7,1.3l0.3,0.5l0.2,0.4l0.2,0.4l0.4,0.6l0.6,1l0.1,0.2l0.6,0.8v0.1l0.3,0.4l0.6,0.9
			l0.7,0.9l0,0l0,0l0.4,0.5l0.7,0.8l0.7,0.9v0.1l0,0l0.3,0.4l0.7,0.8L35,361l0.5,0.5l0.3,0.3l0.1,0.1l0.2,0.2l0.2,0.2l0.2,0.2
			l0.2,0.2l0.3,0.3l0,0l0,0l0,0l0.6,0.6l0.3,0.3l0,0l0.1,0.1l0.3,0.3l0.1,0.1l0.6,0.6l0,0l0.6,0.5l0.8,0.7l0.4,0.4l0.4,0.3l0.1,0.1
			l0.5,0.4l0.5,0.4l0.3,0.3l0.8,0.6l0.4,0.3l0.2,0.2l0.3,0.2l0.6,0.4l0.9,0.6l0.4,0.3l0.2,0.2l0.3,0.2l0.5,0.4l1,0.6l0.4,0.3
			l0.2,0.1l0.3,0.2l0.6,0.4l1,0.6l0.6,0.3l0,0l0,0l0.8,0.5l1.6,1l0.4,0.2l0.3,0.2l0.4,0.2l0.3,0.1l1.2,0.5l0.6,0.2l0,0l0,0l0.4,0.2
			L58,377l1,0.4l0.6,0.2h0.1h0.1l0.8,0.3L61,378l1.1,0.3l1,0.3l0.3,0.1h0.2l0,0c0.5,0.1,1,0.2,1.5,0.4c0.7,0.2,1.5,0.4,2.2,0.6
			l0.4,0.1c0.5,0.1,1,0.2,1.5,0.3c0.5,0.1,1.1,0.2,1.6,0.3l0.6,0.1h0.4l0.8,0.1c0.8,0.1,1.6,0.2,2.5,0.2l0.8,0.1H76h0.7h1.2h1.7h1.8
			h1.3h0.7h0.2l1-0.1l1.3-0.1l1.7-0.2l1.2-0.1h0.1c1.2-0.2,2.5-0.4,3.7-0.7c4-0.9,6.5-4.9,5.6-9c-0.8-3.4-3.8-5.8-7.2-5.8
			c-0.5,0-1.1,0.1-1.6,0.2c-1.2,0.2-2.4,0.5-3.6,0.6l-1.5,0.2h-0.8l-1.2,0.1h-1.6h-0.7h-1.6h-0.7l-1.5-0.1l-1.2-0.1l-1.4-0.2
			l-0.7-0.1l0,0c-0.9-0.1-1.8-0.3-2.8-0.5h-0.1c-0.8-0.2-1.7-0.4-2.5-0.7l-1.1-0.3l-0.2-0.1l0,0c-0.6-0.2-1.1-0.4-1.7-0.6l-1.2-0.4
			l-0.3-0.1c-0.6-0.3-1.3-0.6-1.9-0.8l-1.3-0.6l-0.3-0.1c-0.7-0.4-1.4-0.7-2-1.1l-1.3-0.8l-0.4-0.2c-0.5-0.4-1.1-0.7-1.6-1.1
			c-0.5-0.4-1-0.7-1.5-1l-0.3-0.2l-0.1-0.1l-0.5-0.4l-0.7-0.5c-0.7-0.6-1.3-1.1-2-1.7c-0.6-0.6-0.8-0.8-1.2-1.2
			c-0.4-0.4-1-1-1.5-1.5l0,0c-1.6-1.8-3.1-3.8-4.4-5.9l0,0l-0.1-0.2c-0.3-0.5-0.6-1.1-1-1.6l-0.1-0.2l-0.2-0.4l0-0.2
			c-0.2-0.4-0.4-0.7-0.6-1.2l-0.3-0.7l-0.3-0.7c-0.2-0.4-0.4-0.8-0.6-1.2l-0.2-0.4l-0.5-1.5l-0.4-1.1l-0.2-0.2l-0.4-1.1v-0.2v-0.1
			c-0.1-0.4-0.2-0.8-0.3-1.2l-0.2-0.8c0-0.2-0.1-0.5-0.2-0.7c-0.1-0.5-0.2-1-0.3-1.5l-0.1-0.5c-0.1-0.5-0.2-1.1-0.3-1.6v-0.3
			c-0.2-1.3-0.3-2.6-0.4-3.9s-0.1-2.8,0-4.2c0-0.3,0-0.5,0-0.8l0,0c0-0.4,0-0.8,0.1-1.2c0-0.3,0-0.6,0.1-1c0.1-0.3,0.1-0.7,0.1-1.1
			c0.2-1.5,0.4-2.9,0.8-4.4c0.1-0.6,0.3-1.3,0.5-1.9l0.1-0.4l0.3-0.9l0.4-1.1l0.1-0.4c0.2-0.6,0.4-1.1,0.6-1.7l0.5-1.2l0.1-0.2
			c0.4-1,0.8-1.9,1.3-2.8c0.3-0.6,0.7-1.2,1-1.8s0.6-1,0.9-1.5c1.3-2.1,2.8-4,4.4-5.9l0.7-0.7c0.6-0.6,1.1-1.2,1.7-1.8l0,0
			c0.7-0.7,1.5-1.5,2.3-2.1l0.5-0.5l0.3-0.2l0.6-0.5l0.8-0.6l1-0.7l1-0.7l0.2-0.2l0.6-0.5l0.4-0.2l0.7-0.4l0.8-0.5l1.4-0.7l1.3-0.6
			l1.1-0.5l0.5-0.2c0.7-0.3,1.5-0.6,2.2-0.9l0.9-0.3l1.3-0.4l1.1-0.4l0.9-0.2l0.9-0.2l1.3-0.3l1.5-0.3c0.6-0.1,1.2-0.2,1.8-0.3
			l0.9-0.1c0.9-0.1,1.7-0.2,2.6-0.2c0.9,0,1.8-0.1,2.6-0.1h0.2c0.9,0,1.7,0,2.6,0.1h0.6c0.7,0,1.5,0.1,2.2,0.2l1.4,0.2
			c1,0.2,2.1,0.4,3.1,0.6l0.5,0.1c1.8,0.3,3.6-0.1,5.2-1.1c3.5-2.2,4.5-6.9,2.3-10.3C97.1,264.1,95.4,262.9,93.5,262.5z"/>
	</g>
</g>
</svg>
