<svg xmlns:xlink="http://www.w3.org/1999/xlink" xmlns="http://www.w3.org/2000/svg" class="pkg-checkatrade-template-header__logo" preserveAspectRatio="xMidYMid meet" fill="none" viewBox="0 0 464 67"><title>Checkatrade</title>
<g clip-path="url(#a)"><path d="M165.07 67c-7.15 0-12.6-2.07-16.32-6.23-3.72-4.15-5.58-10.11-5.58-17.87 0-7.91 1.94-14 5.84-18.24 3.9-4.25 9.52-6.38 16.88-6.38 4.99 0 9.48 1.16 13.47 3l-5.7 6.72c-4.07-1.24-5.1-1.39-7.86-1.39-8.19 0-12.28 5.4-12.28 16.2 0 5.27 1.02 9.23 3.06 11.88 2.04 2.65 5.03 3.98 8.96 3.98 4.48 0 8.72-1.1 12.7-3.32v8.71a19.92 19.92 0 01-5.74 2.26c-2.04.46-4.52.68-7.43.68zm28.23-51.52c.39-.4.72-.7 1.09-1.06V0l-9.97 4.62v21.35l.95-1.18c3.5-4.32 6.15-7.42 7.93-9.3zm13.36 23.85l19.04-20.2h-11.59l-14.29 15.13-5.69 7.06h-.26l.52-9.05v-2.53l-9.97 11.44v24.97h9.97V50.03l5.51-4.5 15.2 20.62h11.8l-20.24-26.82zM29.7 11.82c-5.88 0-10.5 2.07-13.86 6.21-3.36 4.14-5.05 9.85-5.05 17.13 0 7.63 1.62 13.4 4.86 17.3 3.24 3.91 7.92 5.87 14.05 5.87 2.65 0 5.22-.27 7.7-.79a90.01 90.01 0 007.74-2.02v8.71C40.23 66.07 34.66 67 28.45 67c-9.16 0-16.19-2.76-21.1-8.27C2.46 53.23 0 45.33 0 35.07c0-6.46 1.2-12.12 3.57-16.96A25.4 25.4 0 0113.9 6.97c4.51-2.58 9.8-3.86 15.88-3.86a39.6 39.6 0 0117.7 3.99l-3.67 8.46a54.86 54.86 0 00-6.7-2.61 24.29 24.29 0 00-7.42-1.13zm62.94 54.33h-10.1V37.24c0-3.63-.73-6.33-2.2-8.12-1.47-1.79-3.8-2.68-7-2.68-4.21 0-7.32 1.26-9.3 3.77-1.99 2.5-2.98 6.7-2.98 12.6v23.34H51V4.62L61.05 0v16.79c0 2.7-.16 5.57-.51 8.63h.64a13.95 13.95 0 015.71-5.27 18.52 18.52 0 018.54-1.87c11.46 0 17.2 5.74 17.2 17.22v30.65zm25.92-40.3c-3.2 0-5.75 1-7.68 3.02-1.92 2.01-3.07 4.94-3.44 8.8h21.47c-.06-3.88-1-6.82-2.82-8.82-1.82-2-4.34-3-7.53-3zM120.39 67c-7.36 0-13.11-2.13-17.26-6.4-4.15-4.26-6.22-10.14-6.22-17.62 0-7.68 1.92-13.71 5.77-18.1 3.85-4.4 9.14-6.6 15.87-6.6 6.25 0 11.18 1.88 14.8 5.66 3.63 3.77 5.44 8.95 5.44 15.56v5.4h-31.53c.15 4.56 1.38 8.07 3.72 10.52 2.34 2.45 5.63 3.67 9.89 3.67 2.8 0 5.4-.26 7.8-.78 2.42-.53 5-1.4 7.77-2.62v8.13a31.06 31.06 0 01-7.44 2.46 46.4 46.4 0 01-8.61.72z" fill="#EB1F40"/><path d="M243.9 59c3.65 0 6.58-1.01 8.79-3.04 2.2-2.03 3.31-4.87 3.31-8.52v-4.08l-6.07.25c-4.74.17-8.18.96-10.33 2.36-2.16 1.4-3.23 3.55-3.23 6.44 0 2.1.63 3.72 1.88 4.87 1.26 1.15 3.14 1.72 5.65 1.72zm14.97 6.8l-2-6.54h-.35c-2.28 2.86-4.58 4.8-6.89 5.84-2.31 1.04-5.28 1.55-8.9 1.55-4.65 0-8.28-1.24-10.89-3.74-2.6-2.5-3.9-6.02-3.9-10.58 0-4.85 1.8-8.5 5.42-10.97 3.63-2.47 9.14-3.81 16.56-4.04l8.17-.26v-2.5c0-3.01-.7-5.26-2.12-6.75-1.4-1.48-3.6-2.23-6.56-2.23a22.8 22.8 0 00-6.98 1.07 52.74 52.74 0 00-6.42 2.5l-3.25-7.14a35.3 35.3 0 018.43-3.04c3.05-.7 5.93-1.04 8.64-1.04 6.02 0 10.56 1.3 13.63 3.91 3.06 2.6 4.6 6.7 4.6 12.29V65.8h-7.19z" fill="#EB1F40"/><path d="M292.11 58.92c2.45 0 4.9-.38 7.36-1.14v7.52c-1.11.48-2.55.88-4.3 1.2a29.57 29.57 0 01-5.46.5c-9.52 0-14.29-5-14.29-14.97V26.7h-6.45v-4.42l6.92-3.66 3.43-9.94h6.2v10.45h13.47v7.57h-13.47v25.16c0 2.41.6 4.2 1.82 5.34a6.66 6.66 0 004.77 1.72zm34.86-40.64c2.02 0 3.69.14 5 .43L331 28a19.16 19.16 0 00-4.45-.5c-4.02 0-7.28 1.3-9.78 3.9-2.5 2.61-3.74 6-3.74 10.17v24.57h-10.06V19.13h7.88l1.32 8.29h.51a18.7 18.7 0 016.14-6.68 14.7 14.7 0 018.16-2.46zm21.3 41.07c3.65 0 6.58-1.02 8.8-3.04 2.2-2.03 3.3-4.87 3.3-8.53v-4.07l-6.07.25c-4.74.17-8.18.95-10.33 2.36-2.15 1.4-3.23 3.55-3.23 6.44 0 2.1.63 3.72 1.88 4.87 1.26 1.14 3.14 1.72 5.65 1.72zm14.98 6.8l-2.01-6.55h-.35c-2.28 2.87-4.58 4.81-6.88 5.85-2.32 1.03-5.28 1.55-8.9 1.55-4.65 0-8.28-1.25-10.89-3.74-2.61-2.5-3.91-6.02-3.91-10.59 0-4.84 1.81-8.5 5.43-10.96 3.62-2.47 9.14-3.81 16.55-4.04l8.17-.26V34.9c0-3-.7-5.25-2.11-6.74-1.41-1.49-3.6-2.23-6.57-2.23-2.42 0-4.75.35-6.97 1.06a52.77 52.77 0 00-6.42 2.51l-3.25-7.14a35.28 35.28 0 018.43-3.04c3.05-.7 5.93-1.04 8.64-1.04 6.02 0 10.56 1.3 13.63 3.9 3.06 2.61 4.6 6.71 4.6 12.3v31.66h-7.2zm32.99-7.23c4.14 0 7.14-1.15 9.03-3.46 1.88-2.31 2.85-6.06 2.9-11.25v-1.4c0-5.92-.96-10.13-2.9-12.62-1.94-2.5-4.98-3.75-9.11-3.75a9.26 9.26 0 00-8.18 4.28c-1.9 2.85-2.87 6.9-2.87 12.18 0 5.21.93 9.19 2.79 11.92 1.85 2.73 4.63 4.1 8.34 4.1zm-2.7 8.08c-5.9 0-10.5-2.13-13.81-6.38-3.3-4.25-4.97-10.21-4.97-17.9 0-7.7 1.68-13.7 5.03-18 3.35-4.3 8-6.44 13.93-6.44 6.21 0 10.95 2.28 14.2 6.84h.51a59.22 59.22 0 01-.72-7.99V4.62L417.8 0v66.15h-7.88l-1.75-6.17h-.47c-3.22 4.68-7.94 7.02-14.15 7.02zm50.22-41.15c-3.19 0-5.75 1-7.67 3.02-1.93 2.01-3.07 4.94-3.44 8.8h21.47c-.06-3.88-1-6.82-2.82-8.82-1.83-2-4.34-3-7.54-3zM445.6 67c-7.35 0-13.1-2.13-17.26-6.4-4.15-4.26-6.22-10.14-6.22-17.62 0-7.68 1.92-13.71 5.78-18.1 3.85-4.4 9.14-6.6 15.87-6.6 6.24 0 11.18 1.88 14.8 5.66 3.62 3.77 5.43 8.95 5.43 15.56v5.4h-31.52c.14 4.56 1.38 8.07 3.72 10.52 2.34 2.45 5.63 3.67 9.88 3.67 2.8 0 5.4-.26 7.8-.78 2.42-.53 5-1.4 7.77-2.62v8.13a31.06 31.06 0 01-7.44 2.46 46.4 46.4 0 01-8.6.72zM165.42 33.27a2.4 2.4 0 00-1.67-.08c-3.78 1.27-5.1 3.62-4.75 6.98.6 5.75 1.55 8.1 1.95 9.36.49 1.55 2.43 3.4 4.46 3.4 1.55 0 3.8-.2 7.55-4.25l38.03-42.89c-.18.15.03.03-.02.03l.02-.03c-2.43-.13-6.05.14-7.69.44-1.63.31-2.94.95-4.12 1.62-3.32 1.9-29.83 33.1-30.54 33.1-1.23 0-1.54-3.11-1.83-5.19a3.75 3.75 0 00-.71-1.91s-.28-.37-.68-.58z" fill="#0058A2"/></g><defs><clipPath id="a"><path fill="#fff" d="M0 0h464v67H0z"/></clipPath></defs></svg>