<svg xmlns="http://www.w3.org/2000/svg" xmlns:xlink="http://www.w3.org/1999/xlink" version="1.0" id="katman_1" x="0px" y="0px" style="enable-background:new 0 0 600 450;" xml:space="preserve" viewBox="75.9 144.9 448.4 160.9">
<style type="text/css">
	.st0{fill-rule:evenodd;clip-rule:evenodd;fill:#0E3654;}
</style>
<g id="Layer_1">
	<g id="Logo_Customers_Chip">
		<path id="Combined-Shape" class="st0" d="M487.4,187.1c20.5,0,36.9,17.3,36.9,38.4s-16.5,38.3-36.9,38.3c-6.9,0-13.7-2.1-19.5-5.8    l0,0v46.7c0,0.6-0.5,1.1-1.1,1.1h-18.7c-0.6,0-1.1-0.5-1.1-1.1l0,0V189.2c0-0.6,0.5-1.1,1.1-1.1h18.7c0.6,0,1.1,0.5,1.1,1.1l0,0    v3.7C473.7,189.1,480.5,187,487.4,187.1z M337,144.9c0.4,0,0.8,0.3,0.8,0.8c0,0,0,0,0,0.1v46.9c0,0.5,0.4,0.9,0.9,0.9    c0.2,0,0.5-0.1,0.6-0.2c2.2-2.1,7.1-5.3,16.5-5.3c14,0,33,15.1,33,31.8v44.8c0,0.4-0.3,0.8-0.8,0.8c0,0,0,0-0.1,0h-18.9    c-0.4,0-0.8-0.3-0.8-0.8c0,0,0,0,0-0.1V223l0,0c-0.3-1.1-3-11.1-13-13c-10.6-2.1-17.8,7.9-17.8,12v42.7c0,0.4-0.3,0.8-0.8,0.8    c0,0,0,0-0.1,0h-18.8c-0.7-0.3-1-0.7-1-1.1V145.7c0-0.4,0.3-0.8,0.8-0.8c0,0,0,0,0.1,0L337,144.9z M429.1,188    c0.6,0,1.1,0.5,1.1,1.1v75.1c0,0.6-0.5,1.1-1.1,1.1c0,0,0,0,0,0h-20.7c-0.6,0-1.1-0.5-1.1-1.1v-75.1c0-0.6,0.5-1.1,1.1-1.1H429.1z     M114.3,226.2v0.1c0,10.7,8.6,19.4,19.3,19.4c2.1,0,4.2-0.3,6.2-1c7.9-2.6,13.3-10,13.1-18.4l0,0v-0.1h18.7v0.7c0,21-17,38-38,38    c0,0,0,0,0,0l0,0l-0.6,0c-20.8-0.3-37.4-17.3-37.4-38l0,0l0-0.1c0-0.3,0.3-0.6,0.7-0.6C96.2,226.2,114.3,226.2,114.3,226.2z     M264.1,187.9c13.6-0.8,26.6,5.7,34.1,17c0.6,0.8,0.4,1.9-0.4,2.5c0,0,0,0,0,0l0,0l-14.8,11.5c-0.5,0.1-1,0.1-1.4-0.1    c-1.2-2.3-2.6-4.4-4.3-6.4c-3.2-3-7.5-4.7-11.9-4.7c-10.5,0.5-18.5,9.5-17.9,19.9c0.5,9.7,8.3,17.4,17.9,17.9    c7,0,13.4-4.2,16.2-10.6c0.2-0.4,0.6-0.5,1-0.4c0.1,0,0.1,0.1,0.2,0.1l0,0l14.8,10.4c0.8,0.6,1.1,1.7,0.6,2.6    c-11.8,17.6-35.7,22.2-53.2,10.4c-17.6-11.8-22.2-35.7-10.4-53.2C241.2,194.8,252.2,188.6,264.1,187.9L264.1,187.9z M486.1,207    c-8.3,0-15.7,5.4-18.1,13.4l0,0v11.5c3.3,10,14,15.4,24,12.2c10-3.3,15.4-14,12.2-24C501.5,212.3,494.3,207,486.1,207L486.1,207z     M170.5,170.1c0.6,0,1.1,0.5,1.1,1.1v35.9c0,0.6-0.5,1.1-1.1,1.1h-17.3c-0.6,0-1.1-0.5-1.1-1.1v-35.9c0-0.6,0.5-1.1,1.1-1.1    L170.5,170.1z M104,169.1c16.4-0.4,30.1,12.5,30.5,28.9c0,0.1,0,0.2,0,0.3l0,0v9.4c0,0.3-0.3,0.5-0.6,0.6h-18.7    c-0.3,0-0.5-0.3-0.6-0.6l0,0v-9.8c0-5.3-4.3-9.5-9.5-9.5c-0.1,0-0.2,0-0.3,0c-5.2,0.3-9.3,4.7-9.3,10l0,0v9.4    c0,0.3-0.3,0.5-0.6,0.6H76.5c-0.3,0-0.5-0.3-0.6-0.6l0,0V199C75.8,183.1,88.2,169.9,104,169.1z M429.1,156.5    c0.6,0,1.1,0.5,1.1,1.1v20.6c0,0.6-0.5,1.1-1.1,1.1h-20.7c-0.6,0-1.1-0.5-1.1-1.1v-20.6c0-0.6,0.5-1.1,1.1-1.1H429.1z"/>
	</g>
</g>
</svg>