<?xml version="1.0" encoding="utf-8"?>
<!-- Generator: Adobe Illustrator 19.2.1, SVG Export Plug-In . SVG Version: 6.00 Build 0)  -->
<svg version="1.1" id="layer" xmlns="http://www.w3.org/2000/svg" xmlns:xlink="http://www.w3.org/1999/xlink" x="0px" y="0px"
	 viewBox="0 0 652 652" style="enable-background:new 0 0 652 652;" xml:space="preserve">
<style type="text/css">
	.st0{fill:#601C70;}
</style>
<g>
	<path class="st0" d="M123,391c-37.7,0-65-31.5-65-70.3c0-38.8,27.3-69.7,65-69.7c22.5,0,39.4,9.8,55.1,24.5l22.2-25.6
		c-18.8-18-40.8-30.7-77-30.7c-59.6,0-101.5,45.8-101.5,102.1c0,56.8,42.7,101.5,100.1,101.5c36.8,0,59.3-13.5,79.9-34.9l-22.2-22.5
		C162.6,381.2,147.2,391,123,391"/>
	<path class="st0" d="M517.1,222.6h-70v196.8h70c61.9,0,104.6-43,104.6-98.7C621.7,265,579,222.6,517.1,222.6 M517.1,387.9h-35.4
		V254.1h35.4c41.3,0,68.3,28.4,68.3,67.2S558.5,387.9,517.1,387.9"/>
	<path class="st0" d="M430.7,288.7c0-40.2-29-66.1-74.8-66.1H282v196.9h34.6v-63.3H352C395.3,356.1,430.7,333.1,430.7,288.7
		 M395.6,288.8c0,19.1-16.3,35.8-42.5,35.8h-19.4l-17.2,17V276c0-13.5,7.4-22,22.2-22h14.4C376.6,254.1,395.6,267.6,395.6,288.8"/>
	<rect x="220.3" y="222.6" class="st0" width="34.4" height="196.9"/>
</g>
</svg>
