<svg xmlns="http://www.w3.org/2000/svg" viewBox="0 0 530.71937 104.81786" height="104.816" width="530.716"><g fill="#106b30"><path d="M192.152 28.207a4.812 4.812 0 0 1 1.05 2.923c0 2.697-2.323 4.795-5.095 4.795-1.424 0-2.848-.6-3.897-1.723-2.847-2.998-6.519-4.795-10.265-4.795-9.065 0-15.66 6.968-15.66 16.409 0 9.44 6.595 16.409 15.66 16.409 3.746 0 7.493-1.65 10.265-4.721 1.05-1.123 2.546-1.723 4.046-1.723 2.697 0 4.87 2.098 4.87 4.645 0 1.05-.3 2.098-1.049 2.923-3.746 4.571-9.516 8.317-18.132 8.317-14.985 0-26.598-10.49-26.598-25.85 0-15.36 11.614-25.848 26.598-25.848 8.615.011 14.382 3.693 18.203 8.256zM209.718 24.988a5.693 5.693 0 0 1-5.695 5.695c-3.072 0-5.694-2.549-5.694-5.695 0-3.146 2.622-5.619 5.694-5.619 3.15 0 5.697 2.466 5.697 5.616zm-5.697 46.224a4.7 4.7 0 0 1-4.72-4.72V38.77c0-2.546 2.098-4.646 4.87-4.646 2.548 0 4.646 2.098 4.646 4.646V66.49c.012 2.629-2.096 4.725-4.794 4.725zM229.646 71.664c-6.669 0-10.265-3.446-10.265-9.89v-18.88h-2.323c-2.248 0-4.121-1.873-4.121-4.272 0-2.173 1.872-4.046 4.12-4.046h2.324v-5.62c0-2.622 2.098-4.72 4.87-4.72a4.701 4.701 0 0 1 4.72 4.72v5.62h3.748c2.172 0 4.045 1.872 4.045 4.195 0 2.249-1.873 4.121-4.045 4.121h-3.747v16.332c0 2.849 1.798 3.972 3.296 3.972h.825c2.696 0 4.195 1.8 4.195 4.122 0 2.409-1.424 4.354-7.642 4.354zM274.897 40.493l-14.612 36.19c-2.546 6.294-7.116 8.766-12.437 8.766-3.297 0-5.844-1.649-5.844-4.272 0-2.246 1.798-4.195 4.496-4.195.374 0 .823 0 1.199-.074 1.573-.3 2.922-1.049 3.596-2.548l1.348-3.072L240.28 40.42a3.92 3.92 0 0 1-.3-1.574c0-2.322 1.873-4.72 4.795-4.72 1.873 0 3.672 1.2 4.42 3.146l8.392 22.478 8.392-22.478c.675-1.873 2.548-3.147 4.571-3.147 2.846 0 4.646 2.323 4.646 4.646 0 .602-.07 1.204-.301 1.725zM329.7 71.212a4.7 4.7 0 0 1-4.719-4.72V47.918c0-3.372-1.5-5.77-5.394-5.77-3.372 0-6.144 2.25-7.493 4.196V66.5c0 2.622-2.097 4.72-4.87 4.72a4.701 4.701 0 0 1-4.72-4.72V47.915c0-3.372-1.497-5.769-5.395-5.769-3.295 0-6.067 2.249-7.49 4.272v20.078c0 2.623-2.099 4.72-4.795 4.72a4.7 4.7 0 0 1-4.72-4.72V38.774c0-2.546 2.097-4.645 4.869-4.645 2.546 0 4.646 2.098 4.646 4.645v.526c1.5-2.172 6.293-5.62 11.838-5.62 5.32 0 8.691 2.472 10.038 6.594 2.098-3.297 6.894-6.594 12.438-6.594 6.669 0 10.64 3.522 10.64 10.94v21.877c.024 2.629-2.084 4.725-4.851 4.725zM369.603 71.212h-.748c-.75 0-4.121-.6-4.121-4.195-2.473 2.923-6.744 4.646-11.464 4.646-5.768 0-12.589-3.897-12.589-11.99 0-8.465 6.82-11.686 12.59-11.686 4.794 0 9.065 1.573 11.463 4.42v-4.87c0-3.671-3.146-6.068-7.941-6.068-2.849 0-5.62.674-8.093 2.323-.523.3-1.123.523-1.723.523-1.723 0-3.595-1.423-3.595-3.672 0-.674.223-1.347.523-1.873 2.249-3.595 10.34-5.095 14.535-5.095 8.244 0 15.81 3.298 15.81 13.712v19.104c.024 2.617-2.072 4.713-4.62 4.713zm-4.875-13.628c-1.574-2.1-4.572-3.149-7.641-3.149-3.748 0-6.82 1.95-6.82 5.471 0 3.372 3.072 5.32 6.82 5.32 3.07 0 6.068-1.05 7.64-3.146v-4.493zM403.228 71.664c-4.269 0-8.24-1.8-11.163-5.545v14.235c0 2.546-2.098 4.646-4.795 4.646-2.623 0-4.72-2.099-4.72-4.646V38.77c0-2.546 2.097-4.646 4.87-4.646 2.546 0 4.645 2.098 4.645 4.646v.376c2.772-3.522 6.744-5.471 11.163-5.471 9.29 0 16.035 6.894 16.035 18.956.012 12.077-6.739 19.036-16.025 19.036zm-2.999-29.515c-3.071 0-6.594 1.8-8.166 4.12v12.812c1.573 2.249 5.095 4.12 8.166 4.12 5.47 0 9.141-4.27 9.141-10.563.012-6.218-3.659-10.49-9.136-10.49zM446.314 71.664c-4.269 0-8.24-1.8-11.163-5.545v14.235c0 2.546-2.098 4.646-4.795 4.646-2.623 0-4.72-2.099-4.72-4.646V38.77c0-2.546 2.097-4.646 4.87-4.646 2.546 0 4.645 2.098 4.645 4.646v.376c2.772-3.522 6.744-5.471 11.163-5.471 9.29 0 16.035 6.894 16.035 18.956 0 12.077-6.739 19.036-16.037 19.036zm-2.987-29.515c-3.072 0-6.594 1.8-8.167 4.12v12.812c1.574 2.249 5.095 4.12 8.167 4.12 5.469 0 9.14-4.27 9.14-10.563 0-6.218-3.67-10.49-9.135-10.49zM498.919 55.708h-22.327c.6 4.569 4.271 8.391 10.414 8.391 2.023 0 4.795-.6 7.044-1.798.6-.3 1.273-.45 1.872-.45 2.023 0 4.046 1.575 4.046 3.822 0 4.271-9.217 5.994-14.012 5.994-11.014 0-19.33-7.417-19.33-19.031 0-10.49 7.716-18.956 18.731-18.956 8.166 0 14.386 4.72 16.932 12.212.524 1.65 1.05 3.672 1.05 5.47-.012 2.316-1.958 4.342-4.424 4.342zm-13.571-14.463c-5.92 0-8.467 4.421-8.917 8.018h17.832c-.22-3.44-2.617-8.013-8.916-8.013zM526.153 43.052c-2.923.374-5.695 1.572-7.418 3.82v19.63c0 2.623-2.098 4.72-4.645 4.72h-.151a4.7 4.7 0 0 1-4.72-4.72V38.78c0-2.546 2.097-4.645 4.87-4.645 2.546 0 4.645 2.098 4.645 4.645v.75c1.8-2.397 4.195-5.246 7.792-5.246 2.772 0 4.197 1.723 4.197 3.896.012 2.837-1.945 4.482-4.562 4.864z"/></g><path d="M81.545 0h-56.88C11.041 0-.003 11.043-.003 24.666v55.486c0 13.622 11.043 24.666 24.666 24.666h56.881c13.623 0 24.666-11.044 24.666-24.666V24.666C106.216 11.046 95.171 0 81.546 0z" fill="#3caa35"/><path d="M25.132 54.653a4.931 4.931 0 1 1 4.932-4.931 4.923 4.923 0 0 1-4.924 4.929zm43.997-2.149l-12.19 12.188a3.98 3.98 0 0 1-5.64 0 3.99 3.99 0 0 1 .002-5.64l5.38-5.379H39.342a3.988 3.988 0 0 1-3.987-3.99 3.988 3.988 0 0 1 3.987-3.988h17.334L51.3 40.323a3.984 3.984 0 0 1-.002-5.637 3.983 3.983 0 0 1 5.64-.004l12.19 12.181a3.988 3.988 0 0 1 .001 5.64zm11.953 2.15a4.932 4.932 0 1 1-.005-9.86 4.932 4.932 0 0 1 .007 9.857z" fill="#fff"/></svg>