<svg height="372.09784" width="1000" xmlns="http://www.w3.org/2000/svg" xmlns:xlink="http://www.w3.org/1999/xlink"><clipPath id="a"><path d="m0 841.945h595v-841.89h-595z"/></clipPath><clipPath id="b"><path d="m0 842.04h595.2v-842.04h-595.2z"/></clipPath><clipPath><path d="m0 0h595.276v841.89h-595.276z"/></clipPath><g transform="matrix(1.25 0 0 -1.25 -1802.9646 2376.5309)"><g fill="#263b86"><path d="m0 0c0 .144-.013.272-.135.272-.062 0-.345-.367-.37-.4-.258-.351-.959-.845-1.242-.973-.148-.048-.196-.112-.196-.224 0-.176.122-.176.159-.176.467-.032.627-.063.627-1.069v-3.081c0-.893 0-1.069-.541-1.164-.283-.048-.369-.113-.369-.256 0-.21.124-.21.209-.21.197 0 1.095.064 1.279.064.222 0 1.218-.064 1.427-.064.099 0 .259 0 .259.225 0 .241-.173.256-.443.273-.627.048-.627.479-.627 1.132v3.033c0 1.325.356 1.565.602 1.565.074 0 .172-.032.382-.336.197-.287.369-.415.639-.415.307 0 .75.256.75.909 0 .639-.443.959-.885.959-.714 0-1.316-.911-1.341-.959-.012-.03-.074-.126-.111-.126-.073 0-.073.126-.073.222z" transform="matrix(7.73498964618 0 0 7.73498964618 2223.33039701007 1686.66208065249)"/><path d="m0 0c-.05.432-.111.575-.663.703-.837.175-1.045.223-1.61.223-3.208 0-4.683-2.856-4.683-5.075 0-2.027 1.366-5.125 4.474-5.125 1.241 0 2.065.497 2.262.656.256.192.281.336.293.558l.099 1.358c0 .112 0 .256-.185.256-.122 0-.219-.24-.244-.304-.516-1.23-1.058-2.123-2.188-2.123-1.855 0-2.864 2.552-2.864 4.788 0 2.043.935 4.596 2.95 4.596 1.13 0 1.586-.749 2.028-1.61.135-.255.208-.288.294-.288.147 0 .147.112.147.272z" transform="matrix(7.73498964618 0 0 7.73498964618 1496.57629532108 1701.34231750197)"/><path d="m0 0c0 .495-.296.893-.677.893-.406 0-.689-.43-.689-.877 0-.462.296-.862.689-.862.405 0 .677.431.677.846" transform="matrix(7.73498964618 0 0 7.73498964618 1520.56945970456 1701.22242516246)"/><path d="m0 0c0-.876 0-1.052-.528-1.148-.271-.048-.369-.112-.369-.255 0-.21.123-.21.21-.21.208 0 .773.064 1.289.064.566 0 1.094-.064 1.278-.064.087 0 .209 0 .209.193 0 .144-.061.224-.369.272-.527.096-.527.287-.527 1.165v5.155c0 .352 0 .559-.136.559-.098 0-.48-.431-.565-.511-.209-.192-.492-.399-1.081-.654-.148-.063-.197-.143-.197-.255 0-.191.197-.208.233-.208.442-.032.553-.255.553-1.069z" transform="matrix(7.73498964618 0 0 7.73498964618 1510.76845432389 1642.82325333382)"/><path d="m0 0c0 .334.025.366.234.366.59 0 .871-.032 1.081-.032.16 0 .197.048.221.336.025.288-.061.32-.16.32-.11 0-.197-.032-.369-.032h-.699c-.259 0-.308.064-.308.367v1.084c0 .257-.123.257-.16.257-.086 0-.16-.112-.209-.192-.406-.813-.785-1.245-1.081-1.436l-.332-.224c-.049-.032-.185-.128-.185-.288 0-.176.148-.176.209-.176.099 0 .185.016.283.016.185.016.284-.08.284-.286v-4.582c0-1.196.601-1.741 1.24-1.741.899 0 1.684.975 1.684 1.214 0 .064-.037.144-.098.144-.037 0-.099-.031-.135-.064-.431-.35-.602-.398-.787-.398-.639 0-.713.734-.713 1.452z" transform="matrix(7.73498964618 0 0 7.73498964618 1542.6636841299 1677.89601688648)"/><path d="m0 0c-.024.049-.111.352-.111.527 0 .271.161.382.308.398.466.064.515.064.515.272 0 .16-.085.208-.209.208-.195 0-.429-.048-1.007-.048-1.02 0-1.438.048-1.561.048-.136 0-.332 0-.332-.208 0-.192.148-.208.196-.208.48-.064.579-.08.862-.989l1.585-5.06c.037-.095.172-.704.172-.799 0-.096-.049-.288-.098-.431l-.307-.911c-.185-.538-.357-.57-.542-.57l-.344.016c-.429 0-.528-.4-.528-.752 0-.223.025-.67.675-.67.64 0 .702.256.862.91.233.954.798 2.776 1.142 3.893.517 1.675.96 2.826 1.475 4.199.282.75.406 1.084.689 1.132.381.064.455.08.455.256 0 .192-.148.192-.184.192-.1 0-.468-.064-.948-.064-.455 0-.835.064-.982.064-.074 0-.234 0-.234-.208s.123-.208.43-.223c.319-.017.441-.192.441-.478 0-.16-.049-.447-.159-.799l-1.106-3.384z" transform="matrix(7.73498964618 0 0 7.73498964618 1574.17835244532 1674.93042185614)"/><path d="m0 0c0 .286.049.381.271.381.652 0 .86-.031 1.105-.031.136 0 .186.048.186.192 0 .383-.063.463-.173.463-.111 0-.197-.032-.54-.032h-.602c-.222 0-.272.064-.272.415 0 .576.05 2.537.775 2.537.234 0 .344-.175.7-.798.049-.08.222-.319.381-.319.222 0 .517.735.517.958 0 .621-.861.685-1.033.685-.786.017-2.224-.797-2.433-2.743-.073-.703-.11-.751-.369-.815-.332-.079-.467-.16-.467-.368 0-.159.086-.191.185-.191.049 0 .27.032.294.032.21 0 .284-.048.284-.574v-4.278c0-.669 0-1.085-.628-1.149-.258-.016-.431-.032-.431-.256 0-.241.16-.241.259-.241.074 0 .566.064 1.388.064.862 0 1.28-.064 1.403-.064.098 0 .258 0 .258.225 0 .24-.172.256-.43.272-.628.048-.628.48-.628 1.149z" transform="matrix(7.73498964618 0 0 7.73498964618 1693.36990189912 1677.775351048)"/><path d="m0 0c-.062.192-.098.288-.098.352 0 .048 0 .127.036.207l.825 2.091c.393 1.005.491 1.084.859 1.101.295.031.443.095.443.271 0 .222-.16.222-.283.222-.111 0-.392-.063-.675-.063-.332 0-.862.063-1.009.063-.111 0-.209-.016-.209-.19 0-.16.074-.208.197-.224.271-.064.406-.16.406-.351 0-.128-.086-.366-.135-.526l-.725-1.979-.725 2.059c-.062.191-.124.478-.124.558 0 .127.099.175.271.191.123 0 .443.016.443.256 0 .206-.16.206-.197.206-.185 0-1.021-.063-1.193-.063-.208 0-1.118.063-1.303.063-.098 0-.258 0-.258-.222 0-.192.123-.208.455-.271.209-.049.32-.24.578-.974l1.192-3.416c.037-.095.061-.191.061-.255 0-.048-.012-.096-.049-.192l-.958-2.409-2.274 6.512c-.024.064-.123.334-.123.526 0 .208.221.223.283.239.21 0 .369.032.369.24 0 .222-.172.222-.307.222-.099 0-.737-.063-1.291-.063-.478 0-.982.063-1.216.063-.086 0-.271 0-.271-.222 0-.192.049-.192.455-.271.246-.049.394-.128.665-.927l2.924-8.427c.085-.241.159-.401.282-.401.099 0 .16.081.296.465l1.486 4.039 1.303-4.087c.099-.336.172-.417.283-.417.098 0 .147.097.209.321l2.629 8.046c.431 1.323.591 1.339.861 1.388.32.047.467.063.467.271 0 .222-.159.222-.221.222-.111 0-.406-.063-.836-.063-.332 0-.774.063-.921.063-.135 0-.307 0-.307-.206 0-.192.086-.224.184-.24.393-.08.541-.112.541-.383 0-.174-.148-.654-.222-.878l-1.954-5.905z" transform="matrix(7.73498964618 0 0 7.73498964618 1785.97551844005 1674.93042185614)"/><path d="m0 0c.196 0 .331 0 .331.288 0 .543-.392 2.314-2.248 2.314-1.672 0-3.049-1.532-3.049-3.894 0-2.219 1.23-3.609 2.852-3.609 1.561 0 2.421 1.405 2.421 1.645 0 .048-.025.144-.111.144-.074 0-.087-.015-.269-.255-.295-.368-.8-.638-1.354-.638-1.265 0-2.174 1.373-2.174 3.16 0 .829.11.845.318.845zm-3.11.496c-.283 0-.332 0-.332.175 0 .256.381 1.564 1.488 1.564.185 0 1.02-.032 1.02-.973 0-.415-.308-.766-.835-.766h-1.341z" transform="matrix(7.73498964618 0 0 7.73498964618 1852.7277055876 1667.51798127821)"/><path d="m0 0c0-.384 0-.511.147-.607.05-.048.81-.448 1.548-.448 1.623 0 2.371 1.374 2.371 2.571 0 1.373-1.031 1.916-1.449 2.155-1.241.67-1.512.814-1.512 1.452 0 .574.455.958.984.958.823 0 1.155-.845 1.229-1.149.073-.303.135-.335.22-.335.123 0 .147.191.147.256l.05.94c0 .256 0 .433-.307.479-.098 0-1.007.176-1.191.176-1.635 0-2.188-1.276-2.188-2.187 0-1.149.872-1.596 1.598-1.963.848-.431 1.412-.797 1.412-1.645 0-.829-.638-1.308-1.191-1.308-.996 0-1.352 1.389-1.413 1.677-.062.303-.123.446-.258.446-.161 0-.173-.239-.173-.287z" transform="matrix(7.73498964618 0 0 7.73498964618 1860.74734285276 1637.7715315959)"/><path d="m0 0c0 .334.025.366.234.366.59 0 .873-.032 1.082-.032.158 0 .195.048.22.336.024.288-.062.32-.159.32-.111 0-.196-.032-.368-.032h-.702c-.258 0-.307.064-.307.367v1.084c0 .257-.123.257-.161.257-.085 0-.159-.112-.208-.192-.404-.813-.786-1.245-1.081-1.436l-.332-.224c-.05-.032-.185-.128-.185-.288 0-.176.147-.176.209-.176.099 0 .185.016.283.016.185.016.283-.08.283-.286v-4.582c0-1.196.602-1.741 1.241-1.741.897 0 1.684.975 1.684 1.214 0 .064-.037.144-.098.144-.038 0-.099-.031-.136-.064-.429-.35-.601-.398-.786-.398-.64 0-.713.734-.713 1.452z" transform="matrix(7.73498964618 0 0 7.73498964618 1911.12687741624 1677.89601688648)"/><path d="m0 0c0-.909 0-1.085-.504-1.18-.271-.048-.369-.112-.369-.256 0-.21.123-.21.209-.21.196 0 .566.064 1.266.064.64 0 1.071-.064 1.255-.064.087 0 .21 0 .21.194 0 .144-.062.224-.37.272-.504.095-.504.287-.504 1.18v3.816c0 .526-.135 1.946-1.734 1.946-.431 0-.886-.222-1.377-.75-.062-.063-.345-.462-.431-.462-.047 0-.068.032-.24.382-.395.815-1.157.83-1.305.83-.555 0-.998-.095-1.685-1.037-.074-.095-.135-.175-.172-.175-.05 0-.05.048-.05.318v.783c0 .143-.024.287-.135.287-.086 0-.185-.159-.271-.287-.38-.575-1.167-1.005-1.253-1.037-.135-.048-.185-.112-.185-.208 0-.207.149-.207.344-.224.37-.031.37-.383.37-1.133v-3.065c0-.893 0-1.069-.529-1.164-.27-.048-.381-.112-.381-.256 0-.21.135-.21.233-.21.197 0 .701.064 1.266.064.628 0 1.083-.064 1.242-.064.109 0 .233 0 .233.194 0 .144-.062.224-.368.272-.504.095-.504.287-.504 1.18v3.384c0 .384.037.671.197.895.233.335.503.541 1.056.541.851 0 1.023-.893 1.023-1.707v-3.113c0-.909 0-1.085-.504-1.18-.285-.048-.372-.112-.372-.256 0-.21.111-.21.212-.21.196 0 .59.064 1.267.064.658 0 1.051-.064 1.249-.064.085 0 .209 0 .209.194 0 .144-.062.224-.37.272-.503.095-.503.287-.503 1.18v3.432c0 .336.012.671.184.91.148.192.504.542 1.058.542 1.033 0 1.033-1.085 1.033-1.548z" transform="matrix(7.73498964618 0 0 7.73498964618 1988.48760286352 1643.07464049732)"/><path d="m0 0c0 .495-.289.893-.669.893-.407 0-.691-.43-.691-.877 0-.462.296-.862.691-.862.405 0 .669.431.669.846" transform="matrix(7.73498964618 0 0 7.73498964618 2025.39123846543 1701.22242516246)"/><path d="m0 0c0-.876 0-1.052-.529-1.148-.27-.048-.369-.112-.369-.255 0-.21.124-.21.209-.21.209 0 .775.064 1.292.064.566 0 1.089-.064 1.274-.064.086 0 .208 0 .208.193 0 .144-.061.224-.369.272-.524.096-.524.287-.524 1.165v5.155c0 .352 0 .559-.134.559-.099 0-.479-.431-.566-.511-.209-.192-.492-.399-1.083-.654-.147-.063-.197-.143-.197-.255 0-.191.197-.208.234-.208.443-.032.554-.255.554-1.069z" transform="matrix(7.73498964618 0 0 7.73498964618 2015.64128401642 1642.82325333382)"/><path d="m0 0c0-.893 0-1.069-.53-1.165-.282-.048-.368-.112-.368-.255 0-.21.123-.21.208-.21.21 0 1.108.064 1.292.064.197 0 1.089-.064 1.274-.064.086 0 .209 0 .209.193 0 .144-.061.224-.369.272-.528.096-.528.287-.528 1.181v3.703c0 1.484-.881 2.059-1.693 2.059-.689 0-1.058-.207-1.808-1.117-.037-.048-.098-.095-.172-.095-.05 0-.05.047-.05.317v.784c0 .143-.024.287-.134.287-.087 0-.186-.16-.271-.287-.382-.576-1.168-1.006-1.255-1.037-.136-.048-.172-.113-.172-.208 0-.208.135-.208.332-.225.369-.031.369-.382.369-1.132v-3.065c0-.893 0-1.069-.529-1.165-.271-.048-.369-.112-.369-.255 0-.21.123-.21.222-.21.197 0 1.082.064 1.266.064.234 0 1.107-.064 1.292-.064.086 0 .209 0 .209.193 0 .144-.062.224-.369.272-.529.096-.529.287-.529 1.181v3.384c0 .383.049.654.234.894.282.367.664.542 1.033.542 1.206 0 1.206-1.197 1.206-1.946z" transform="matrix(7.73498964618 0 0 7.73498964618 2070.98900242965 1642.9547481578)"/><path d="m0 0c0-.384 0-.511.147-.607.05-.048.812-.448 1.55-.448 1.625 0 2.375 1.374 2.375 2.571 0 1.373-1.034 1.916-1.452 2.155-1.242.67-1.513.814-1.513 1.452 0 .574.455.958.985.958.823 0 1.155-.845 1.23-1.149.073-.303.135-.335.221-.335.123 0 .147.191.147.256l.049.94c0 .256 0 .433-.307.479-.099 0-1.009.176-1.192.176-1.638 0-2.191-1.276-2.191-2.187 0-1.149.873-1.596 1.599-1.963.848-.431 1.414-.797 1.414-1.645 0-.829-.639-1.308-1.193-1.308-.995 0-1.352 1.389-1.414 1.677-.062.303-.122.446-.258.446-.16 0-.172-.239-.172-.287z" transform="matrix(7.73498964618 0 0 7.73498964618 2094.2875647429 1637.7715315959)"/><path d="m0 0c0 .334.024.366.234.366.59 0 .873-.032 1.082-.032.16 0 .196.048.222.336.024.288-.062.32-.16.32-.112 0-.197-.032-.369-.032h-.701c-.259 0-.308.064-.308.367v1.084c0 .257-.123.257-.16.257-.087 0-.16-.112-.21-.192-.405-.813-.787-1.245-1.082-1.436l-.327-.224c-.048-.032-.184-.128-.184-.288 0-.176.147-.176.209-.176.099 0 .18.016.277.016.185.016.283-.08.283-.286v-4.582c0-1.196.603-1.741 1.243-1.741.898 0 1.685.975 1.685 1.214 0 .064-.037.144-.099.144-.036 0-.097-.031-.135-.064-.43-.35-.602-.398-.787-.398-.64 0-.713.734-.713 1.452z" transform="matrix(7.73498964618 0 0 7.73498964618 2147.4037386432 1677.89601688648)"/><path d="m0 0c.196 0 .332 0 .332.288 0 .543-.394 2.314-2.247 2.314-1.671 0-3.05-1.532-3.05-3.894 0-2.219 1.231-3.609 2.854-3.609 1.556 0 2.418 1.405 2.418 1.645 0 .048-.024.144-.111.144-.074 0-.086-.015-.271-.255-.295-.368-.799-.638-1.347-.638-1.267 0-2.177 1.373-2.177 3.16 0 .829.11.845.32.845zm-3.106.496c-.284 0-.333 0-.333.175 0 .256.381 1.564 1.488 1.564.185 0 1.016-.032 1.016-.973 0-.415-.308-.766-.831-.766h-1.34z" transform="matrix(7.73498964618 0 0 7.73498964618 2200.65450136334 1667.51798127821)"/><path d="m0 0c0 2.411-1.561 3.607-2.963 3.607-1.831 0-2.986-1.931-2.986-3.751 0-1.804 1.13-3.752 3.035-3.752 1.708 0 2.914 1.774 2.914 3.896m-4.671.143c0 1.948.725 3.097 1.609 3.097 1.342 0 1.783-2.299 1.783-3.4 0-1.883-.774-3.368-1.671-3.368-.971 0-1.721 1.693-1.721 3.671" transform="matrix(7.73498964618 0 0 7.73498964618 1672.04530894358 1659.74509018276)"/></g><path d="m0 0c.251.042 1.287.05 1.91-.057.261-.046.123.157.069.204-.044.038-.29.243-.408.34-.018.01-.034.018-.05.024.006.022-.04.052-.096.054-.07.003-.549.03-.826.02-.276-.01-.811-.081-.967-.134-.158-.054-.037-.147-.007-.174.03-.026.153-.163.207-.251.007-.011.012-.014.018-.02-.024-.02.005-.03.15-.006" fill="#d3b334" stroke="#263b86" stroke-miterlimit="10" stroke-width=".145" transform="matrix(7.73498964618 0 0 7.73498964618 1836.45251387308 1859.47799282635)"/><path d="m0 0c.117.03.345.081.385.108s.04.06-.047.07c-.088.01-.289.013-.342.017-.052.003-.136 0-.119-.074s.005-.151.123-.121" fill="#d3b334" stroke="#263b86" stroke-miterlimit="10" stroke-width=".145" transform="matrix(7.73498964618 0 0 7.73498964618 1827.48069938248 1862.70193651088)"/><path d="m0 0-.049-.059c-.024-.002-.035-.038-.068-.083-.08-.397-.109-.626-.128-1.028-.017-.358.007-.507.016-.917l.037-.154c-.008-.007.043-.113.105-.12.269-.029.651.053 1.002-.022.597-.015 1.157-.075 1.262.09.108.17.075.53.127.964.038.746.068 1.09-.037 1.24-.118.168-.771.089-2.267.089m1.865-.971c-.074-.113.023-.245-.008-.394-.031-.148-.145-.227-.219-.313-.074-.085.03-.287-.031-.343-.04-.036-.081.005-.159.085-.075.074-.189-.14-.419-.113-.174.021-.287.128-.361.16-.074.031-.109-.02-.2-.055-.09-.035.012.148-.05.282-.047.102-.145.047-.213.185-.066.137.009.301.024.385.016.086-.058.126-.086.196-.029.075.191-.009.262.082.063.079-.007.126.079.247s.169.09.317.121c.118.016.129.192.196.267.067.074.082-.216.306-.231.172-.012.306-.034.378-.208.074-.18.178-.14.27-.177.071-.027-.012-.062-.086-.176" fill="#d3b334" transform="matrix(7.73498964618 0 0 7.73498964618 1813.89728406482 1853.16314727921)"/><path d="m0 0-.049-.059c-.024-.002-.035-.038-.068-.083-.08-.397-.109-.626-.128-1.028-.017-.358.007-.507.016-.917l.037-.154c-.008-.007.043-.113.105-.12.269-.029.651.053 1.002-.022.597-.015 1.157-.075 1.262.09.108.17.075.53.127.964.038.746.068 1.09-.037 1.24-.118.168-.771.089-2.267.089m1.865-.971c-.074-.113.023-.245-.008-.394-.031-.148-.145-.227-.219-.313-.074-.085.03-.287-.031-.343-.04-.036-.081.005-.159.085-.075.074-.189-.14-.419-.113-.174.021-.287.128-.361.16-.074.031-.109-.02-.2-.055-.09-.035.012.148-.05.282-.047.102-.145.047-.213.185-.066.137.009.301.024.385.016.086-.058.126-.086.196-.029.075.191-.009.262.082.063.079-.007.126.079.247s.169.09.317.121c.118.016.129.192.196.267.067.074.082-.216.306-.231.172-.012.306-.034.378-.208.074-.18.178-.14.27-.177.071-.027-.012-.062-.086-.176z" fill="none" stroke="#263b86" stroke-miterlimit="10" stroke-width=".145" transform="matrix(7.73498964618 0 0 7.73498964618 1813.89728406482 1853.16314727921)"/><path d="m0 0c-.001.036-.06.052-.103.046l-.018-.008c-.258-.006-.47-.117-.613-.285-.091-.106-.092-.197-.202-.464-.013-.051-.027-.079-.051-.127-.019-.039-.034-.06-.057-.096-.006-.005-.008-.009-.012-.014-.038 0-.094-.01-.136-.017l.001.009c.038.074.056.117.076.197.029.119 0 .191.019.311.015.094.028.145.056.236.06.136.026.276-.09.288-.073.007-.134-.025-.167-.092-.074-.15-.123-.232-.228-.363-.108-.138-.18-.21-.318-.319-.485-.667-.85-1.394-.728-2.197.086-.572.257-.742.712-1.303.334-.562.668-1 .532-1.53-.085-.327-.488-.331-.819-.274.06.804-.149 1.205-.516 1.865-.363.652-.879 1.044-1.319 1.652-.022.031-.027.054-.045.09-.003.008-.003.017-.004.026.011.002.022.004.034.009.04.019.069.047.089.081.084-.053.216-.088.282-.027.198.145.071.363.079.477.012.028.029.054.059.076.064.033.124.019.142.043.003.004-.003.007-.003.01.029.007.059.013.087.022.026-.088.328-.079.39.011.164.157.072.5-.007.803-.079.295-.187.352-.13.597.13.093.318-.364.523-.158.18.179-.086.294-.1.509.007.094.255.111.287.257.036.165-.216.345-.28.438-.05.022-.058.022-.093.022-.007 0-.005-.005-.007-.008-.006.003-.013.004-.019.005.001.016.004.034.011.053.018.237.012.376-.036.609-.042.197-.116.326-.164.49.008.12.2.228.2.322 0 .11-.142.115-.2.201-.125.325.024.492-.114.524-.117.027-.123-.082-.259-.165-.103.016-.061.154-.147.189-.026.02-.171-.1-.203-.126-.042-.061-.073-.091-.133-.134-.061-.043-.1-.063-.172-.083-.027-.035-.155-.093-.218-.133-.105-.028-.33-.075-.405-.096-.153-.029-.24-.058-.381-.127-.237-.115-.305-.216-.528-.418-.066-.045-.098-.099-.102-.179-.002-.062.012-.103.051-.152.038-.197-.006-.344.083-.394.228-.132.413-.02.553-.071-.025-.05-.324-.121-.578-.146-.169-.017-.268.057-.433.096-.115.037-.126-.014-.204 0-.038.006-.059.012-.095.025-.031 0-.048-.011-.077-.019-.063-.019.115-.089.254-.217.172-.101.148-.242.376-.26.169-.015.668.28.662.203.038-.057-.149-.121-.261-.165-.21-.083-.375.025-.445-.382 0-.234.502.032.489-.075-.012-.108-.305-.229-.553-.229l-.022-.007c-.051-.026-.194-.116-.22-.168-.03-.06-.006-.11-.05-.169-.169-.229-.535-.04-1.539.398-.43.187-.855.297-1.311.169-.089-.023-.143-.089-.15-.179-.01-.149.229-.219.348-.16.169.011.326.046.438-.089.11-.134.059-.208.009-.447.023-.154.055-.242.129-.378.042-.078.071-.121.129-.189.089-.07.142.024.199-.03.043-.04.029-.079.059-.139.03-.04.062-.021.09-.05.049-.052-.04-.177.039-.177.04-.04.134.035.199.089.011.009.021.017.032.026.021-.035.05-.085.088-.108 0 0-.001 0-.001-.001-.007-.099.036-.16.106-.23.106-.106.23.089.309.009.045-.045-.245-.341-.433-.531-.174-.173-.274-.201-.486-.405-.194-.203-.247-.407-.388-.785-.064-.174-.035-.248-.229-.415-.009.193.055.222.097.362.046.154.044.292.132.387.043.027.107.078.07.115l-8.06-.002c-.037-.037.027-.088.07-.114.088-.096.085-.235.131-.388.043-.14.107-.168.098-.362-.194.167-.166.242-.229.415-.141.378-.194.582-.388.785-.213.204-.312.232-.486.405-.188.19-.478.487-.434.531.08.08.204-.115.31-.009.069.07.114.131.106.23 0 .001-.001.001-.001.002.038.022.068.072.088.108.01-.01.021-.018.031-.026.066-.055.159-.13.199-.09.08 0-.009.126.04.178.028.028.059.009.09.049.029.06.017.099.059.139.057.055.11-.04.199.03.057.069.087.111.129.189.073.137.106.224.128.378-.049.239-.1.314.01.448.111.134.269.099.438.089.119-.06.358.011.347.159-.006.091-.06.156-.149.179-.456.128-.881.019-1.311-.169-1.004-.438-1.37-.626-1.54-.398-.043.059-.019.109-.049.169-.026.052-.169.142-.22.168l-.022.007c-.248 0-.541.121-.554.229-.013.107.49-.159.49.075-.07.408-.235.299-.445.381-.113.045-.299.109-.261.166-.006.077.493-.218.662-.203.228.018.203.159.375.261.14.127.318.196.255.216-.03.008-.046.019-.077.019-.036-.013-.058-.019-.096-.025-.077-.014-.088.038-.203 0-.165-.039-.265-.113-.433-.096-.254.025-.553.096-.578.146.139.052.324-.06.553.071.089.05.045.197.083.394.039.049.053.09.051.153-.004.079-.036.133-.102.178-.223.201-.292.303-.528.418-.141.069-.228.097-.381.127-.076.022-.3.069-.406.096-.061.04-.19.098-.217.133-.072.02-.111.04-.172.083-.06.043-.091.074-.134.134-.031.026-.176.147-.202.126-.086-.035-.044-.173-.147-.189-.136.083-.142.192-.259.165-.139-.032.011-.199-.114-.524-.058-.086-.2-.09-.2-.201 0-.093.192-.202.2-.322-.048-.163-.122-.292-.164-.49-.049-.233-.054-.372-.036-.609.006-.019.009-.037.011-.053-.006 0-.013-.002-.02-.005-.001.003.001.008-.005.008-.036 0-.044 0-.094-.022-.064-.092-.316-.272-.28-.437.032-.146.28-.164.287-.257-.015-.216-.28-.331-.1-.51.205-.206.393.251.522.158.057-.245-.05-.302-.129-.597-.08-.303-.17-.646-.007-.803.061-.089.364-.099.389-.011.029-.008.059-.015.089-.022-.001-.003-.007-.005-.005-.009.019-.025.079-.011.143-.044.029-.022.047-.048.059-.076.008-.114-.119-.332.079-.476.066-.062.198-.026.281.026.021-.034.049-.062.09-.08.012-.006.022-.007.034-.01-.001-.009-.002-.017-.004-.026-.019-.036-.022-.059-.046-.091-.439-.606-.955-.999-1.318-1.651-.368-.66-.576-1.061-.516-1.865-.331-.057-.735-.053-.819.274-.136.53.197.968.531 1.53.456.561.626.731.712 1.303.122.803-.242 1.53-.727 2.197-.138.109-.21.182-.319.319-.104.131-.153.214-.227.364-.033.067-.094.099-.167.091-.116-.012-.15-.152-.091-.288.03-.09.042-.142.057-.235.019-.121-.01-.193.019-.311.019-.08.037-.124.076-.197l.001-.01c-.042.007-.098.017-.136.017-.004.005-.006.009-.012.014-.023.037-.038.057-.057.096-.024.048-.038.076-.052.128-.109.266-.11.357-.202.463-.141.168-.355.279-.611.285l-.02.009c-.043.006-.101-.01-.102-.047-.022-.006-.018-.083.014-.084.134-.096.223-.151.309-.291.208-.343.087-.627.357-.897.22-.219.552-.484 1.145-.7.134-.034.109-.023.116-.01-.003-.062.123-.245.15-.304.088-.19.172-.312.119-.52-.107-.413-.332-.744-.568-1.039-.685-.817-1.039-1.383-.885-2.176.08-.42.695-.627 1.37-.378.052.038.09.053.153.059.018.001.031 0 .045 0 .015-.038.06-.071.105-.086.006-.027.051-.044.11-.073.103-.077.224-.297.154-.513-.115-.359-.411-.577-.667-.912-.017-.006-.027-.028-.033-.051-.048.006-.096-.005-.127-.046-.037-.047-.038-.084-.021-.113-.023-.022-.048-.047-.09-.073-.08-.05.031-.15.014-.244-.034-.175-.297-.167-.284-.358.026-.205.196-.128.245-.257.039-.102-.321-.153-.206-.411.219-.244.463-.18.527-.385.026-.086-.003-.139-.039-.218-.072-.064-.077-.18-.025-.244.057-.072.089-.065.231-.052.069.038.108.058.18.09.097.045.155.068.256.102.042.037.094.042.142.014.034-.021.047-.056.05-.092-.085-.013-.376-.107-.435-.201-.234-.087-.385-.196-.408-.272-.051-.179.027-.208.144-.456.117-.26.14-.609.235-.703.13-.131.454-.092.74.103 1.017.522 1.584.645 2.592 1.069l1.393.585c-.065-.104-.124-.164-.13-.286-.013-.273.091-.377.025-.846-.033-.247-.043-.368.066-.534.169-.26.56-.209.99-.196.305.009 2.105.124 3.753.099l.599.002c1.649.024 3.449-.09 3.754-.099.43-.013.82-.065.99.196.109.166.099.287.065.534-.065.469.039.573.026.845-.006.123-.066.183-.13.287l1.393-.585c1.008-.424 1.575-.547 2.591-1.069.287-.195.611-.234.741-.103.095.094.118.442.235.703.117.248.195.277.143.456-.022.076-.173.185-.408.272-.059.095-.349.187-.434.201.003.036.016.07.05.091.047.029.1.024.141-.012.102-.036.159-.058.257-.103.071-.033.112-.052.18-.09.141-.013.174-.02.231.051.051.065.046.181-.025.245-.036.079-.066.132-.039.218.064.205.308.141.527.385.115.257-.244.308-.206.411.049.13.219.052.244.257.013.192-.249.183-.282.358-.018.094.093.194.012.244-.041.026-.066.051-.089.073.017.029.016.066-.021.113-.031.04-.079.052-.128.045-.005.023-.015.046-.032.052-.256.334-.552.552-.668.912-.069.216.052.435.155.512.058.03.104.047.109.074.047.015.091.047.106.085.014.001.027.002.044.001.064-.006.102-.021.153-.059.675-.249 1.29-.042 1.372.378.153.793-.202 1.359-.886 2.175-.237.296-.461.626-.568 1.04-.053.208.031.33.118.519.027.061.154.243.151.305.007-.014-.019-.024.115.01.594.216.926.48 1.145.7.271.27.15.553.359.898.085.139.174.193.309.29.03.001.034.079.013.084m-4.729 1.891c.132.059.435.136.421.066.065-.274-.102-.172-.204-.239-.1-.066-.296-.236-.296-.091-.014.107-.032.216.079.264m-5.793-6.225c.126.016.125.096.164.202.038.107.173.079.323.068.037-.002.068-.009.092-.017.03.049.082.115.11.161.045.078.061.087.134.087.106-.038.077-.14.198-.125.119.014.272.248.356.106.063-.106-.098-.389-.141-.493-.017-.043-.039-.085-.059-.121.001-.008.003-.017.003-.027 0-.082-.005-.148.091-.255.096-.106.115-.198.024-.318-.108-.141-.004-.157.025-.259.017-.06-.004-.107-.029-.127-.041-.094-.129-.292-.213-.301-.086-.01-.202.129-.308.071-.105-.058-.231-.266-.351-.168-.12.097-.12.077-.26-.01-.178-.11-.343-.202-.3.034.045.236.087.251.165.356.085.115-.097.191.072.28.256.134.218.235.184.239-.036.005-.099.007-.136.013-.029-.027-.09-.062-.183-.085-.089-.022-.144.203-.057.236.17.067.294.092.294.169 0 .043-.041.03-.093.019-.041-.008-.083-.01-.129-.053-.077-.073-.115-.018-.159-.01-.043.01-.051.088-.058.141-.019.14.115.173.241.187m-2.412-.255.192.404c.015.102.118.232.082.329-.04.111-.085.211-.029.311.082.147.257.159.409.176.476.024.482-.499.523-.557.083-.118.288-.012.34-.141.071-.136-.015-.218.012-.353.051-.254.27-.117.323-.581.003-.244-.126-.246-.176-.416-.026-.085-.037-.135-.053-.222.001-.06-.012-.072-.006-.1.007-.029-.094-.186-.086-.216.037-.152.031-.246.087-.391.066-.169.118-.262.237-.399v-.272c-.007-.287-.044-.411-.094-.449-.107-.08-.149-.08-.336-.08-.165.008-.262-.018-.423.018-.168.038-.262.075-.51.013-.18.006-.246-.123-.416-.138-.066-.005-.103-.005-.169 0-.037-.006-.057-.061-.098-.049-.044.012-.019.062-.057.099-.034.119-.069.19-.05.311.044.275.107.441.168.666.15.355.144.41.256.653.031.068-.013.129-.022.204-.004.031-.006.036-.022.077-.13.047-.297.099-.379.247-.152.274.181.559.297.856m-.068-3.285c.232 0 .416-.184.583-.112.273.032.416.123.685.112-.001.012.104-.011.198-.022.267-.033.441-.117.618-.109.214.033.504.083.523.041.063-.137.019-.181-.159-.354-.053-.037-.068-.05-.085-.059-.018-.009-.038-.012-.105-.024-.248-.047-.247-.007-.509.009-.147-.013-.425.12-.475.12-.045.002-.035.006-.108-.007-.113 0-.32-.109-.567-.108-.246.002-.503.169-.623.113-.225-.016-.332-.166-.544-.12-.116.024-.181.055-.274.128-.152.168-.189.21-.135.344.016.04.264-.007.448-.04.153-.008.32.089.529.088m1.343-.913c-.093.042-.276-.087-.467-.087-.019 0-.067-.005-.087-.004-.175.022-.346.124-.432.084-.176-.013-.259-.13-.427-.094-.09.019-.141.044-.213.1-.12.131-.15.164-.107.269.012.031.207-.006.352-.032.119-.006.251.07.414.07.181-.001.325-.145.458-.088.018.001.038.004.054.006.121-.021.272.067.436.068.161 0 .29-.071.407-.065.143.023.334.059.346.029.042-.098.013-.128-.104-.25-.072-.052-.122-.075-.21-.093-.165-.033-.247.076-.42.087m.149-.472c-.025-.041-.052-.062-.098-.075-.08-.023-.118.061-.2.07-.044.033-.135-.065-.229-.065-.065-.001-.123.037-.172.054-.015.004-.035.002-.051-.004-.087-.01-.127-.106-.212-.081-.049.016-.077.039-.105.083-.059.108-.074.136-.053.222.007.026.103-.005.174-.026.013-.001.033-.006.046-.002.052.012.071.052.129.056.101.006.151-.048.25-.067.062-.042.127.067.214.067.078 0 .138-.057.193-.052.068.018.158.047.165.023.02-.079.006-.103-.051-.203m-3.482 4.925c.125.016.124.096.162.202.039.107.174.079.324.068.036-.002.068-.009.092-.017.029.049.082.115.109.161.047.078.063.087.135.087.106-.038.077-.14.197-.125.12.014.273.248.357.106.062-.106-.098-.389-.141-.493-.018-.043-.038-.085-.059-.121.001-.008.003-.017.003-.027 0-.082-.005-.148.091-.255.096-.106.115-.198.024-.318-.107-.141-.004-.157.025-.259.016-.06-.004-.107-.029-.127-.041-.094-.129-.292-.213-.301-.086-.01-.202.129-.308.071-.105-.058-.231-.266-.351-.168-.119.097-.119.077-.26-.01-.177-.11-.342-.202-.3.034.044.236.088.251.166.356.084.115-.098.191.071.28.256.134.218.235.184.239-.036.005-.099.007-.135.013-.03-.027-.091-.062-.183-.085-.09-.022-.145.203-.059.236.171.067.295.092.295.169 0 .043-.04.03-.092.019-.042-.008-.083-.01-.13-.053-.077-.073-.116-.018-.159-.01-.043.01-.05.088-.058.141-.02.14.115.173.242.187m-4.924 6.289c-.014.07.288-.007.421-.066.11-.048.094-.157.079-.263 0-.145-.196.025-.296.09-.102.067-.269-.035-.204.239m2.292-10.616c-.449-.181-.696-.303-1.135-.514-.323-.156-.488-.281-.822-.411-.238-.094-.387-.108-.627-.202-.167-.064-.342-.122-.42-.183-.007-.005-.008-.008-.014-.012.011.044.029.096.032.14.121.151.156.372.086.484-.142.229-.681.158-.866.058-.043.012-.072.006-.088-.011-.017.012-.036.029-.055.045.014.02.024.048.017.067.221.403.55.787 1.002 1.132.821.625 1.145 1.094 1.08 1.392-.047.216-.082.352-.199.527.077.004.159.018.196.018.207 0 .268-.088.336-.167.07-.078.054-.09.04-.148-.04-.168-.257-.946.138-1.262.405-.415.978-.188 1.173-.356.129-.109.129-.335.277-.335.118-.021.152.178.286.197.144.022.263-.111.351-.164-.246-.082-.481-.171-.788-.295m1.416.489c-.198-.057-.363-.107-.521-.158.088.094.163.227.243.227.088 0 .186-.092.28-.036-.001-.011-.002-.021-.002-.033m8.192.002c0 .012-.001.022-.002.033.094-.057.192.036.28.036.08 0 .155-.133.243-.227-.157.051-.323.101-.521.158m.564.868c-.043.04-.079.055-.138.059-.084.067-.15.091-.257.099-.176.013-.295-.069-.412-.187-.063-.098-.101-.151-.178-.237-.065-.074-.105-.113-.178-.178-.06-.049-.083-.072-.06-.119.013-.021.026-.032.05-.04l.114-.024c-.007-.007-.012-.012-.019-.021-.021-.026-.042-.051-.063-.076-.087-.001-.159-.006-.223-.073-.162-.17-.186-.39-.252-.63-.08-.3-.234-.381-.218-.535.089-.236.202-.308.381-.454.13-.106.275-.243.404-.454.024-.023.081-.099.117-.136-.189.019-.369.052-.611.063-.574.026-.899.025-1.473.016-.325-.004-.706-.023-.959-.038-.265-.005-.449-.005-.749-.004l.128-.001c-.3-.002-.484-.002-.748.003-.254.015-.636.035-.961.039-.573.007-.898.01-1.473-.016-.242-.011-.421-.045-.61-.064.036.037.093.114.116.136.13.211.276.349.405.454.179.146.292.219.381.454.016.154-.138.235-.219.535-.065.24-.09.46-.251.63-.064.067-.136.073-.223.073-.021.026-.042.051-.063.077-.007.008-.012.012-.019.02l.113.025c.025.006.039.018.05.04.023.046 0 .069-.059.118-.074.065-.114.105-.178.178-.076.087-.116.139-.178.237-.117.118-.236.2-.413.188-.107-.009-.172-.033-.256-.099-.059-.004-.095-.02-.139-.059-.017-.016-.026-.029-.038-.049-.022.007-.045.006-.071-.008-.013-.006-.021-.015-.03-.023-.473.109-.773.268-.936.69-.285.741.069 1.5-.296 1.864-.315.218-.586.106-.887-.01-.257-.099-.291-.094-.356-.099-.018.003-.037.002-.055.001l-.003.004c-.096-.03-.193-.004-.29.019.063.096.133.181.236.282.266.261.549.224.834.462.315.262.615.9.652.824.061.002-.079-.393.193-.426.182-.023.325.276.397.249.043 0 .08-.123.096-.212.028-.154.002-.268-.096-.392-.078-.081-.137-.313-.079-.372.077-.078.422.185.507.135.068-.025.023-.423.219-.464.131-.027.183.026.25.11.026.039.086.118.068.126.057-.114.095-.207.238-.178.142.028.151.173.169.267.019.095.103.062.108-.012.004-.078-.033-.208-.004-.501.028-.293.057-1.037.523-1.819.559-.934 1.243-1.525 2.029-2.149.207-.164.369-.308.497-.413.402-.331.469-.388.542-.427.107-.058.105-.098.181-.122.082-.027.145.014.145.014s.105.082.15.11c.071.042.152.096.554.427.128.105.29.248.497.413.786.623 1.47 1.215 2.028 2.149.467.782.496 1.526.524 1.819.029.293-.009.422-.004.5.005.075.09.108.108.013.018-.094.027-.239.17-.268.141-.028.18.065.237.179-.018-.008.042-.087.068-.126.066-.083.119-.137.25-.11.196.041.151.439.219.464.085.049.429-.213.507-.135.057.059-.002.291-.08.372-.097.124-.124.237-.095.391.016.09.053.213.095.213.073.026.215-.272.397-.25.274.033.133.429.194.427.036.076.337-.562.651-.824.286-.238.568-.202.835-.462.102-.102.173-.186.236-.282-.097-.023-.195-.049-.291-.019l-.002-.004c-.019.001-.037.002-.056 0-.064.003-.098 0-.355.098-.301.116-.572.227-.888.01-.364-.364-.01-1.124-.295-1.864-.163-.422-.463-.581-.937-.689-.009.007-.016.015-.03.023-.025.013-.048.013-.07.007-.012.021-.021.032-.039.048m4.744-1.897c-.007-.018.002-.046.016-.066-.019-.016-.038-.033-.055-.045-.016.018-.045.023-.087.011-.185.1-.724.171-.867-.058-.069-.112-.034-.332.087-.485.003-.043.02-.095.031-.14-.005.004-.006.007-.012.013-.079.061-.254.119-.421.183-.24.094-.389.108-.628.202-.333.13-.498.255-.822.411-.438.21-.684.333-1.134.514-.308.124-.541.212-.788.295.088.053.207.186.351.164.135-.02.168-.218.286-.197.148 0 .148.225.277.335.195.168.768-.06 1.173.355.395.316.178 1.095.138 1.263-.014.058-.03.069.04.147.068.08.129.168.335.168.037 0 .12-.014.197-.018-.116-.175-.153-.311-.199-.527-.065-.298.259-.767 1.08-1.392.451-.345.781-.729 1.002-1.133" fill="#d3b334" transform="matrix(7.73498964618 0 0 7.73498964618 1936.10702647857 1856.75372947297)"/><path d="m0 0c-.001.036-.06.052-.103.046l-.018-.008c-.258-.006-.47-.117-.613-.285-.091-.106-.092-.197-.202-.464-.013-.051-.027-.079-.051-.127-.019-.039-.034-.06-.057-.096-.006-.005-.008-.009-.012-.014-.038 0-.094-.01-.136-.017l.001.009c.038.074.056.117.076.197.029.119 0 .191.019.311.015.094.028.145.056.236.06.136.026.276-.09.288-.073.007-.134-.025-.167-.092-.074-.15-.123-.232-.228-.363-.108-.138-.18-.21-.318-.319-.485-.667-.85-1.394-.728-2.197.086-.572.257-.742.712-1.303.334-.562.668-1 .532-1.53-.085-.327-.488-.331-.819-.274.06.804-.149 1.205-.516 1.865-.363.652-.879 1.044-1.319 1.652-.022.031-.027.054-.045.09-.003.008-.003.017-.004.026.011.002.022.004.034.009.04.019.069.047.089.081.084-.053.216-.088.282-.027.198.145.071.363.079.477.012.028.029.054.059.076.064.033.124.019.142.043.003.004-.003.007-.003.01.029.007.059.013.087.022.026-.088.328-.079.39.011.164.157.072.5-.007.803-.079.295-.187.352-.13.597.13.093.318-.364.523-.158.18.179-.086.294-.1.509.007.094.255.111.287.257.036.165-.216.345-.28.438-.05.022-.058.022-.093.022-.007 0-.005-.005-.007-.008-.006.003-.013.004-.019.005.001.016.004.034.011.053.018.237.012.376-.036.609-.042.197-.116.326-.164.49.008.12.2.228.2.322 0 .11-.142.115-.2.201-.125.325.024.492-.114.524-.117.027-.123-.082-.259-.165-.103.016-.061.154-.147.189-.026.02-.171-.1-.203-.126-.042-.061-.073-.091-.133-.134-.061-.043-.1-.063-.172-.083-.027-.035-.155-.093-.218-.133-.105-.028-.33-.075-.405-.096-.153-.029-.24-.058-.381-.127-.237-.115-.305-.216-.528-.418-.066-.045-.098-.099-.102-.179-.002-.062.012-.103.051-.152.038-.197-.006-.344.083-.394.228-.132.413-.02.553-.071-.025-.05-.324-.121-.578-.146-.169-.017-.268.057-.433.096-.115.037-.126-.014-.204 0-.038.006-.059.012-.095.025-.031 0-.048-.011-.077-.019-.063-.019.115-.089.254-.217.172-.101.148-.242.376-.26.169-.015.668.28.662.203.038-.057-.149-.121-.261-.165-.21-.083-.375.025-.445-.382 0-.234.502.032.489-.075-.012-.108-.305-.229-.553-.229l-.022-.007c-.051-.026-.194-.116-.22-.168-.03-.06-.006-.11-.05-.169-.169-.229-.535-.04-1.539.398-.43.187-.855.297-1.311.169-.089-.023-.143-.089-.15-.179-.01-.149.229-.219.348-.16.169.011.326.046.438-.089.11-.134.059-.208.009-.447.023-.154.055-.242.129-.378.042-.078.071-.121.129-.189.089-.07.142.024.199-.03.043-.04.029-.079.059-.139.03-.04.062-.021.09-.05.049-.052-.04-.177.039-.177.04-.04.134.035.199.089.011.009.021.017.032.026.021-.035.05-.085.088-.108 0 0-.001 0-.001-.001-.007-.099.036-.16.106-.23.106-.106.23.089.309.009.045-.045-.245-.341-.433-.531-.174-.173-.274-.201-.486-.405-.194-.203-.247-.407-.388-.785-.064-.174-.035-.248-.229-.415-.009.193.055.222.097.362.046.154.044.292.132.387.043.027.107.078.07.115l-8.06-.002c-.037-.037.027-.088.07-.114.088-.096.085-.235.131-.388.043-.14.107-.168.098-.362-.194.167-.166.242-.229.415-.141.378-.194.582-.388.785-.213.204-.312.232-.486.405-.188.19-.478.487-.434.531.08.08.204-.115.31-.009.069.07.114.131.106.23 0 .001-.001.001-.001.002.038.022.068.072.088.108.01-.01.021-.018.031-.026.066-.055.159-.13.199-.09.08 0-.009.126.04.178.028.028.059.009.09.049.029.06.017.099.059.139.057.055.11-.04.199.03.057.069.087.111.129.189.073.137.106.224.128.378-.049.239-.1.314.01.448.111.134.269.099.438.089.119-.06.358.011.347.159-.006.091-.06.156-.149.179-.456.128-.881.019-1.311-.169-1.004-.438-1.37-.626-1.54-.398-.043.059-.019.109-.049.169-.026.052-.169.142-.22.168l-.022.007c-.248 0-.541.121-.554.229-.013.107.49-.159.49.075-.07.408-.235.299-.445.381-.113.045-.299.109-.261.166-.006.077.493-.218.662-.203.228.018.203.159.375.261.14.127.318.196.255.216-.03.008-.046.019-.077.019-.036-.013-.058-.019-.096-.025-.077-.014-.088.038-.203 0-.165-.039-.265-.113-.433-.096-.254.025-.553.096-.578.146.139.052.324-.06.553.071.089.05.045.197.083.394.039.049.053.09.051.153-.004.079-.036.133-.102.178-.223.201-.292.303-.528.418-.141.069-.228.097-.381.127-.076.022-.3.069-.406.096-.061.04-.19.098-.217.133-.072.02-.111.04-.172.083-.06.043-.091.074-.134.134-.031.026-.176.147-.202.126-.086-.035-.044-.173-.147-.189-.136.083-.142.192-.259.165-.139-.032.011-.199-.114-.524-.058-.086-.2-.09-.2-.201 0-.093.192-.202.2-.322-.048-.163-.122-.292-.164-.49-.049-.233-.054-.372-.036-.609.006-.019.009-.037.011-.053-.006 0-.013-.002-.02-.005-.001.003.001.008-.005.008-.036 0-.044 0-.094-.022-.064-.092-.316-.272-.28-.437.032-.146.28-.164.287-.257-.015-.216-.28-.331-.1-.51.205-.206.393.251.522.158.057-.245-.05-.302-.129-.597-.08-.303-.17-.646-.007-.803.061-.089.364-.099.389-.011.029-.008.059-.015.089-.022-.001-.003-.007-.005-.005-.009.019-.025.079-.011.143-.044.029-.022.047-.048.059-.076.008-.114-.119-.332.079-.476.066-.062.198-.026.281.026.021-.034.049-.062.09-.08.012-.006.022-.007.034-.01-.001-.009-.002-.017-.004-.026-.019-.036-.022-.059-.046-.091-.439-.606-.955-.999-1.318-1.651-.368-.66-.576-1.061-.516-1.865-.331-.057-.735-.053-.819.274-.136.53.197.968.531 1.53.456.561.626.731.712 1.303.122.803-.242 1.53-.727 2.197-.138.109-.21.182-.319.319-.104.131-.153.214-.227.364-.033.067-.094.099-.167.091-.116-.012-.15-.152-.091-.288.03-.09.042-.142.057-.235.019-.121-.01-.193.019-.311.019-.08.037-.124.076-.197l.001-.01c-.042.007-.098.017-.136.017-.004.005-.006.009-.012.014-.023.037-.038.057-.057.096-.024.048-.038.076-.052.128-.109.266-.11.357-.202.463-.141.168-.355.279-.611.285l-.02.009c-.043.006-.101-.01-.102-.047-.022-.006-.018-.083.014-.084.134-.096.223-.151.309-.291.208-.343.087-.627.357-.897.22-.219.552-.484 1.145-.7.134-.034.109-.023.116-.01-.003-.062.123-.245.15-.304.088-.19.172-.312.119-.52-.107-.413-.332-.744-.568-1.039-.685-.817-1.039-1.383-.885-2.176.08-.42.695-.627 1.37-.378.052.038.09.053.153.059.018.001.031 0 .045 0 .015-.038.06-.071.105-.086.006-.027.051-.044.11-.073.103-.077.224-.297.154-.513-.115-.359-.411-.577-.667-.912-.017-.006-.027-.028-.033-.051-.048.006-.096-.005-.127-.046-.037-.047-.038-.084-.021-.113-.023-.022-.048-.047-.09-.073-.08-.05.031-.15.014-.244-.034-.175-.297-.167-.284-.358.026-.205.196-.128.245-.257.039-.102-.321-.153-.206-.411.219-.244.463-.18.527-.385.026-.086-.003-.139-.039-.218-.072-.064-.077-.18-.025-.244.057-.072.089-.065.231-.052.069.038.108.058.18.09.097.045.155.068.256.102.042.037.094.042.142.014.034-.021.047-.056.05-.092-.085-.013-.376-.107-.435-.201-.234-.087-.385-.196-.408-.272-.051-.179.027-.208.144-.456.117-.26.14-.609.235-.703.13-.131.454-.092.74.103 1.017.522 1.584.645 2.592 1.069l1.393.585c-.065-.104-.124-.164-.13-.286-.013-.273.091-.377.025-.846-.033-.247-.043-.368.066-.534.169-.26.56-.209.99-.196.305.009 2.105.124 3.753.099l.599.002c1.649.024 3.449-.09 3.754-.099.43-.013.82-.065.99.196.109.166.099.287.065.534-.065.469.039.573.026.845-.006.123-.066.183-.13.287l1.393-.585c1.008-.424 1.575-.547 2.591-1.069.287-.195.611-.234.741-.103.095.094.118.442.235.703.117.248.195.277.143.456-.022.076-.173.185-.408.272-.059.095-.349.187-.434.201.003.036.016.07.05.091.047.029.1.024.141-.012.102-.036.159-.058.257-.103.071-.033.112-.052.18-.09.141-.013.174-.02.231.051.051.065.046.181-.025.245-.036.079-.066.132-.039.218.064.205.308.141.527.385.115.257-.244.308-.206.411.049.13.219.052.244.257.013.192-.249.183-.282.358-.018.094.093.194.012.244-.041.026-.066.051-.089.073.017.029.016.066-.021.113-.031.04-.079.052-.128.045-.005.023-.015.046-.032.052-.256.334-.552.552-.668.912-.069.216.052.435.155.512.058.03.104.047.109.074.047.015.091.047.106.085.014.001.027.002.044.001.064-.006.102-.021.153-.059.675-.249 1.29-.042 1.372.378.153.793-.202 1.359-.886 2.175-.237.296-.461.626-.568 1.04-.053.208.031.33.118.519.027.061.154.243.151.305.007-.014-.019-.024.115.01.594.216.926.48 1.145.7.271.27.15.553.359.898.085.139.174.193.309.29.03.001.034.079.013.084m-4.729 1.891c.132.059.435.136.421.066.065-.274-.102-.172-.204-.239-.1-.066-.296-.236-.296-.091-.014.107-.032.216.079.264zm-5.793-6.225c.126.016.125.096.164.202.038.107.173.079.323.068.037-.002.068-.009.092-.017.03.049.082.115.11.161.045.078.061.087.134.087.106-.038.077-.14.198-.125.119.014.272.248.356.106.063-.106-.098-.389-.141-.493-.017-.043-.039-.085-.059-.121.001-.008.003-.017.003-.027 0-.082-.005-.148.091-.255.096-.106.115-.198.024-.318-.108-.141-.004-.157.025-.259.017-.06-.004-.107-.029-.127-.041-.094-.129-.292-.213-.301-.086-.01-.202.129-.308.071-.105-.058-.231-.266-.351-.168-.12.097-.12.077-.26-.01-.178-.11-.343-.202-.3.034.045.236.087.251.165.356.085.115-.097.191.072.28.256.134.218.235.184.239-.036.005-.099.007-.136.013-.029-.027-.09-.062-.183-.085-.089-.022-.144.203-.057.236.17.067.294.092.294.169 0 .043-.041.03-.093.019-.041-.008-.083-.01-.129-.053-.077-.073-.115-.018-.159-.01-.043.01-.051.088-.058.141-.019.14.115.173.241.187zm-2.412-.255.192.404c.015.102.118.232.082.329-.04.111-.085.211-.029.311.082.147.257.159.409.176.476.024.482-.499.523-.557.083-.118.288-.012.34-.141.071-.136-.015-.218.012-.353.051-.254.27-.117.323-.581.003-.244-.126-.246-.176-.416-.026-.085-.037-.135-.053-.222.001-.06-.012-.072-.006-.1.007-.029-.094-.186-.086-.216.037-.152.031-.246.087-.391.066-.169.118-.262.237-.399v-.272c-.007-.287-.044-.411-.094-.449-.107-.08-.149-.08-.336-.08-.165.008-.262-.018-.423.018-.168.038-.262.075-.51.013-.18.006-.246-.123-.416-.138-.066-.005-.103-.005-.169 0-.037-.006-.057-.061-.098-.049-.044.012-.019.062-.057.099-.034.119-.069.19-.05.311.044.275.107.441.168.666.15.355.144.41.256.653.031.068-.013.129-.022.204-.004.031-.006.036-.022.077-.13.047-.297.099-.379.247-.152.274.181.559.297.856zm-.068-3.285c.232 0 .416-.184.583-.112.273.032.416.123.685.112-.001.012.104-.011.198-.022.267-.033.441-.117.618-.109.214.033.504.083.523.041.063-.137.019-.181-.159-.354-.053-.037-.068-.05-.085-.059-.018-.009-.038-.012-.105-.024-.248-.047-.247-.007-.509.009-.147-.013-.425.12-.475.12-.045.002-.035.006-.108-.007-.113 0-.32-.109-.567-.108-.246.002-.503.169-.623.113-.225-.016-.332-.166-.544-.12-.116.024-.181.055-.274.128-.152.168-.189.21-.135.344.016.04.264-.007.448-.04.153-.008.32.089.529.088zm1.343-.913c-.093.042-.276-.087-.467-.087-.019 0-.067-.005-.087-.004-.175.022-.346.124-.432.084-.176-.013-.259-.13-.427-.094-.09.019-.141.044-.213.1-.12.131-.15.164-.107.269.012.031.207-.006.352-.032.119-.006.251.07.414.07.181-.001.325-.145.458-.088.018.001.038.004.054.006.121-.021.272.067.436.068.161 0 .29-.071.407-.065.143.023.334.059.346.029.042-.098.013-.128-.104-.25-.072-.052-.122-.075-.21-.093-.165-.033-.247.076-.42.087zm.149-.472c-.025-.041-.052-.062-.098-.075-.08-.023-.118.061-.2.07-.044.033-.135-.065-.229-.065-.065-.001-.123.037-.172.054-.015.004-.035.002-.051-.004-.087-.01-.127-.106-.212-.081-.049.016-.077.039-.105.083-.059.108-.074.136-.053.222.007.026.103-.005.174-.026.013-.001.033-.006.046-.002.052.012.071.052.129.056.101.006.151-.048.25-.067.062-.042.127.067.214.067.078 0 .138-.057.193-.052.068.018.158.047.165.023.02-.079.006-.103-.051-.203zm-3.482 4.925c.125.016.124.096.162.202.039.107.174.079.324.068.036-.002.068-.009.092-.017.029.049.082.115.109.161.047.078.063.087.135.087.106-.038.077-.14.197-.125.12.014.273.248.357.106.062-.106-.098-.389-.141-.493-.018-.043-.038-.085-.059-.121.001-.008.003-.017.003-.027 0-.082-.005-.148.091-.255.096-.106.115-.198.024-.318-.107-.141-.004-.157.025-.259.016-.06-.004-.107-.029-.127-.041-.094-.129-.292-.213-.301-.086-.01-.202.129-.308.071-.105-.058-.231-.266-.351-.168-.119.097-.119.077-.26-.01-.177-.11-.342-.202-.3.034.044.236.088.251.166.356.084.115-.098.191.071.28.256.134.218.235.184.239-.036.005-.099.007-.135.013-.03-.027-.091-.062-.183-.085-.09-.022-.145.203-.059.236.171.067.295.092.295.169 0 .043-.04.03-.092.019-.042-.008-.083-.01-.13-.053-.077-.073-.116-.018-.159-.01-.043.01-.05.088-.058.141-.02.14.115.173.242.187zm-4.924 6.289c-.014.07.288-.007.421-.066.11-.048.094-.157.079-.263 0-.145-.196.025-.296.09-.102.067-.269-.035-.204.239zm2.292-10.616c-.449-.181-.696-.303-1.135-.514-.323-.156-.488-.281-.822-.411-.238-.094-.387-.108-.627-.202-.167-.064-.342-.122-.42-.183-.007-.005-.008-.008-.014-.012.011.044.029.096.032.14.121.151.156.372.086.484-.142.229-.681.158-.866.058-.043.012-.072.006-.088-.011-.017.012-.036.029-.055.045.014.02.024.048.017.067.221.403.55.787 1.002 1.132.821.625 1.145 1.094 1.08 1.392-.047.216-.082.352-.199.527.077.004.159.018.196.018.207 0 .268-.088.336-.167.07-.078.054-.09.04-.148-.04-.168-.257-.946.138-1.262.405-.415.978-.188 1.173-.356.129-.109.129-.335.277-.335.118-.021.152.178.286.197.144.022.263-.111.351-.164-.246-.082-.481-.171-.788-.295zm1.416.489c-.198-.057-.363-.107-.521-.158.088.094.163.227.243.227.088 0 .186-.092.28-.036-.001-.011-.002-.021-.002-.033zm8.192.002c0 .012-.001.022-.002.033.094-.057.192.036.28.036.08 0 .155-.133.243-.227-.157.051-.323.101-.521.158zm.564.868c-.043.04-.079.055-.138.059-.084.067-.15.091-.257.099-.176.013-.295-.069-.412-.187-.063-.098-.101-.151-.178-.237-.065-.074-.105-.113-.178-.178-.06-.049-.083-.072-.06-.119.013-.021.026-.032.05-.04l.114-.024c-.007-.007-.012-.012-.019-.021-.021-.026-.042-.051-.063-.076-.087-.001-.159-.006-.223-.073-.162-.17-.186-.39-.252-.63-.08-.3-.234-.381-.218-.535.089-.236.202-.308.381-.454.13-.106.275-.243.404-.454.024-.023.081-.099.117-.136-.189.019-.369.052-.611.063-.574.026-.899.025-1.473.016-.325-.004-.706-.023-.959-.038-.265-.005-.449-.005-.749-.004l.128-.001c-.3-.002-.484-.002-.748.003-.254.015-.636.035-.961.039-.573.007-.898.01-1.473-.016-.242-.011-.421-.045-.61-.064.036.037.093.114.116.136.13.211.276.349.405.454.179.146.292.219.381.454.016.154-.138.235-.219.535-.065.24-.09.46-.251.63-.064.067-.136.073-.223.073-.021.026-.042.051-.063.077-.007.008-.012.012-.019.02l.113.025c.025.006.039.018.05.04.023.046 0 .069-.059.118-.074.065-.114.105-.178.178-.076.087-.116.139-.178.237-.117.118-.236.2-.413.188-.107-.009-.172-.033-.256-.099-.059-.004-.095-.02-.139-.059-.017-.016-.026-.029-.038-.049-.022.007-.045.006-.071-.008-.013-.006-.021-.015-.03-.023-.473.109-.773.268-.936.69-.285.741.069 1.5-.296 1.864-.315.218-.586.106-.887-.01-.257-.099-.291-.094-.356-.099-.018.003-.037.002-.055.001l-.003.004c-.096-.03-.193-.004-.29.019.063.096.133.181.236.282.266.261.549.224.834.462.315.262.615.9.652.824.061.002-.079-.393.193-.426.182-.023.325.276.397.249.043 0 .08-.123.096-.212.028-.154.002-.268-.096-.392-.078-.081-.137-.313-.079-.372.077-.078.422.185.507.135.068-.025.023-.423.219-.464.131-.027.183.026.25.11.026.039.086.118.068.126.057-.114.095-.207.238-.178.142.028.151.173.169.267.019.095.103.062.108-.012.004-.078-.033-.208-.004-.501.028-.293.057-1.037.523-1.819.559-.934 1.243-1.525 2.029-2.149.207-.164.369-.308.497-.413.402-.331.469-.388.542-.427.107-.058.105-.098.181-.122.082-.027.145.014.145.014s.105.082.15.11c.071.042.152.096.554.427.128.105.29.248.497.413.786.623 1.47 1.215 2.028 2.149.467.782.496 1.526.524 1.819.029.293-.009.422-.004.5.005.075.09.108.108.013.018-.094.027-.239.17-.268.141-.028.18.065.237.179-.018-.008.042-.087.068-.126.066-.083.119-.137.25-.11.196.041.151.439.219.464.085.049.429-.213.507-.135.057.059-.002.291-.08.372-.097.124-.124.237-.095.391.016.09.053.213.095.213.073.026.215-.272.397-.25.274.033.133.429.194.427.036.076.337-.562.651-.824.286-.238.568-.202.835-.462.102-.102.173-.186.236-.282-.097-.023-.195-.049-.291-.019l-.002-.004c-.019.001-.037.002-.056 0-.064.003-.098 0-.355.098-.301.116-.572.227-.888.01-.364-.364-.01-1.124-.295-1.864-.163-.422-.463-.581-.937-.689-.009.007-.016.015-.03.023-.025.013-.048.013-.07.007-.012.021-.021.032-.039.048zm4.744-1.897c-.007-.018.002-.046.016-.066-.019-.016-.038-.033-.055-.045-.016.018-.045.023-.087.011-.185.1-.724.171-.867-.058-.069-.112-.034-.332.087-.485.003-.043.02-.095.031-.14-.005.004-.006.007-.012.013-.079.061-.254.119-.421.183-.24.094-.389.108-.628.202-.333.13-.498.255-.822.411-.438.21-.684.333-1.134.514-.308.124-.541.212-.788.295.088.053.207.186.351.164.135-.02.168-.218.286-.197.148 0 .148.225.277.335.195.168.768-.06 1.173.355.395.316.178 1.095.138 1.263-.014.058-.03.069.04.147.068.08.129.168.335.168.037 0 .12-.014.197-.018-.116-.175-.153-.311-.199-.527-.065-.298.259-.767 1.08-1.392.451-.345.781-.729 1.002-1.133z" fill="none" stroke="#263b86" stroke-miterlimit="10" stroke-width=".145" transform="matrix(7.73498964618 0 0 7.73498964618 1936.10702647857 1856.75372947297)"/><path d="m0 0c-.099.079-.096.095-.16.102s-.011.043-.592-.125c-.691-.2-.811-.361-.777-.566.04-.251.44-.146.587-.087.476.192.699.271.692.266.052.022.102.047.14.069.04-.005.114-.001.18.006.283.029.085.213-.07.335" fill="#d3b334" stroke="#263b86" stroke-miterlimit="10" stroke-width=".145" transform="matrix(7.73498964618 0 0 7.73498964618 1831.84632753878 1861.51925659398)"/><path d="m0 0c-.274.49-.344.699-.529.813-.074.046-.164-.019-.255-.068-.156.085-.278.167-.401.057-.054-.047-.007-.109-.02-.184-.117-.107-.24-.233-.206-.349.048-.162.226-.239.54-.833.206-.403.431-.015.472-.13.035-.095-.232-.123-.205-.328.09-.277.297-.594.482-.819.057-.07.102-.175.157-.181.093-.056.261.085.316.093.104-.017.214-.184.314-.097.069.06.029.102.068.225.049.108.193.106.216.225.018.093.001.162-.059.236-.421.568-.343.724-.558.852-.092.055-.224-.098-.322-.069-.066.02-.01.049-.079.147.079.146.15.126.147.234-.002.075-.029.078-.078.176m-.516-.123c-.024-.229-.096-.314-.136-.285.001-.004.003-.008.004-.013-.005.009-.01.014-.015.022-.002.002-.004.003-.005.006-.328.476-.496.465-.419.568.106.141.15.141.255-.026.056.006.094.035.114.088.024.063-.096.096-.052.166.102.039.227.081.28 0 .089-.131.317-.337.22-.544-.106-.079-.237.098-.246.018m.553-1.035c.061.096.015.297.079.307.105.018.21-.096.288-.237.044-.105.184-.351.08-.395-.105-.043-.21.263-.254.141.069-.202.025-.216-.07-.255-.193-.079-.246.105-.333.211-.097.254-.174.249-.071.334.149.122.194-.097.281-.106" fill="#d3b334" transform="matrix(7.73498964618 0 0 7.73498964618 1871.07278053144 1874.85128474813)"/><path d="m0 0c-.274.49-.344.699-.529.813-.074.046-.164-.019-.255-.068-.156.085-.278.167-.401.057-.054-.047-.007-.109-.02-.184-.117-.107-.24-.233-.206-.349.048-.162.226-.239.54-.833.206-.403.431-.015.472-.13.035-.095-.232-.123-.205-.328.09-.277.297-.594.482-.819.057-.07.102-.175.157-.181.093-.056.261.085.316.093.104-.017.214-.184.314-.097.069.06.029.102.068.225.049.108.193.106.216.225.018.093.001.162-.059.236-.421.568-.343.724-.558.852-.092.055-.224-.098-.322-.069-.066.02-.01.049-.079.147.079.146.15.126.147.234-.002.075-.029.078-.078.176m-.516-.123c-.024-.229-.096-.314-.136-.285.001-.004.003-.008.004-.013-.005.009-.01.014-.015.022-.002.002-.004.003-.005.006-.328.476-.496.465-.419.568.106.141.15.141.255-.026.056.006.094.035.114.088.024.063-.096.096-.052.166.102.039.227.081.28 0 .089-.131.317-.337.22-.544-.106-.079-.237.098-.246.018zm.553-1.035c.061.096.015.297.079.307.105.018.21-.096.288-.237.044-.105.184-.351.08-.395-.105-.043-.21.263-.254.141.069-.202.025-.216-.07-.255-.193-.079-.246.105-.333.211-.097.254-.174.249-.071.334.149.122.194-.097.281-.106z" fill="none" stroke="#263b86" stroke-miterlimit="10" stroke-width=".145" transform="matrix(7.73498964618 0 0 7.73498964618 1871.07278053144 1874.85128474813)"/><path d="m0 0c-.024-.005.003.02-.053.017-.057-.003-.308-.073-.352-.083-.043-.01-.122-.051-.076-.131.046-.079.131-.227.203-.197.073.03.314.107.367.141.054.033.054.08.014.15-.041.07-.079.109-.103.103" fill="#d3b334" stroke="#263b86" stroke-miterlimit="10" stroke-width=".145" transform="matrix(7.73498964618 0 0 7.73498964618 1821.18751180635 1862.70193651088)"/><path d="m0 0c.168.06.373.072.306.186-.067.115-.092.125-.168.108-.098-.027-.161-.034-.271-.053-.085-.016-.131-.057-.074-.144.057-.087.039-.158.207-.097" fill="#d3b334" stroke="#263b86" stroke-miterlimit="10" stroke-width=".145" transform="matrix(7.73498964618 0 0 7.73498964618 1823.8468012467 1861.39008226689)"/><path d="m0 0c-.01-.005-.021-.009-.031-.013.022.008.03.012.031.013" fill="#d3b334" transform="matrix(7.73498964618 0 0 7.73498964618 1829.91490062413 1858.35100483491)"/><path d="m0 0c-.143-.25-.237-.292-.256-.532-.017-.24.205-.388.413-.372.204.015.339.18.401.225.201.157.329-.006.398.075.094.111-.093.364-.069.502.023.139.181.351.058.45-.083.068-.392-.096-.551-.103-.158-.008-.19.1-.347.076-.116-.018.053-.147-.047-.321" fill="#d3b334" stroke="#263b86" stroke-miterlimit="10" stroke-width=".145" transform="matrix(7.73498964618 0 0 7.73498964618 1863.736916351 1891.39952159716)"/><path d="m0 0c.559.063 1.132 1.296-.102 1.195-.017-.002-.222-.04-.316-.072-.532-.176-.814-1.262.418-1.123m.123.857.046-.034c.208-.216-.207-.637-.497-.443-.319.216.157.701.451.477" fill="#d3b334" transform="matrix(7.73498964618 0 0 7.73498964618 1818.30081367039 1884.46819737522)"/><path d="m0 0c.559.063 1.132 1.296-.102 1.195-.017-.002-.222-.04-.316-.072-.532-.176-.814-1.262.418-1.123m.123.857.046-.034c.208-.216-.207-.637-.497-.443-.319.216.157.701.451.477z" fill="none" stroke="#263b86" stroke-miterlimit="10" stroke-width=".145" transform="matrix(7.73498964618 0 0 7.73498964618 1818.30081367039 1884.46819737522)"/><path d="m0 0c.073-.031.256-.033.372-.036.114-.003.793.009.939.015s.263.007.403.004.472.014.472.014.091.008.144.03c.09.037.18.034.16.707-.016.518-.087 1.281-.087 1.31-.002.138-.081.269-.081.269-.015.015-.151.103-.271.101-.098-.001-.385.008-.871-.02-.18-.011-.252-.026-.39-.017-.304.021-.574-.005-.661-.027-.139-.035-.152-.081-.193-.212-.043-.131-.07-.995-.089-1.2-.021-.222-.019-.61-.004-.715.021-.152.08-.19.157-.223m.894 1.453c.065 0 .014.33.014.463 0 .103-.019.29.224.257.238-.009.21-.225.215-.299.019-.234-.047-.421.009-.454.057-.037.805.117.744-.17-.031-.145.06-.203-.412-.222-.089-.047-.368-.003-.387-.176-.005-.052.023-.301-.019-.419.008-.006.008-.024-.01-.069-.065-.092-.135-.162-.238-.167-.406-.019-.024.832-.187.827.009.154-.841-.156-.79.214.056.402.688.163.837.215" fill="#d3b334" transform="matrix(7.73498964618 0 0 7.73498964618 1833.4985213272 1835.24504376384)"/><path d="m0 0c.073-.031.256-.033.372-.036.114-.003.793.009.939.015s.263.007.403.004.472.014.472.014.091.008.144.03c.09.037.18.034.16.707-.016.518-.087 1.281-.087 1.31-.002.138-.081.269-.081.269-.015.015-.151.103-.271.101-.098-.001-.385.008-.871-.02-.18-.011-.252-.026-.39-.017-.304.021-.574-.005-.661-.027-.139-.035-.152-.081-.193-.212-.043-.131-.07-.995-.089-1.2-.021-.222-.019-.61-.004-.715.021-.152.08-.19.157-.223m.894 1.453c.065 0 .014.33.014.463 0 .103-.019.29.224.257.238-.009.21-.225.215-.299.019-.234-.047-.421.009-.454.057-.037.805.117.744-.17-.031-.145.06-.203-.412-.222-.089-.047-.368-.003-.387-.176-.005-.052.023-.301-.019-.419.008-.006.008-.024-.01-.069-.065-.092-.135-.162-.238-.167-.406-.019-.024.832-.187.827.009.154-.841-.156-.79.214.056.402.688.163.837.215z" fill="none" stroke="#263b86" stroke-miterlimit="10" stroke-width=".145" transform="matrix(7.73498964618 0 0 7.73498964618 1833.4985213272 1835.24504376384)"/><path d="m0 0c.046.08-.032.121-.075.131-.044.01-.293.08-.351.083-.057.003-.031-.022-.054-.017-.023.006-.062-.033-.103-.103-.04-.07-.04-.117.014-.15.054-.034.294-.111.366-.141.074-.03.157.118.203.197" fill="#d3b334" stroke="#263b86" stroke-miterlimit="10" stroke-width=".145" transform="matrix(7.73498964618 0 0 7.73498964618 1867.26793912448 1861.17814355058)"/><path d="m0 0c.045.009.232.065.254.145.02.08-.098.096-.173.082-.07-.013-.165-.063-.179-.12-.001-.004-.004-.006-.004-.01 0-.001-.002-.003-.002-.004 0-.003.003-.001.004-.003.003-.043.047-.1.1-.09" fill="#d3b334" stroke="#263b86" stroke-miterlimit="10" stroke-width=".145" transform="matrix(7.73498964618 0 0 7.73498964618 1823.42911180581 1822.10948434671)"/><path d="m0 0c.117-.03.106.047.123.121.016.074-.067.077-.12.074-.053-.004-.254-.007-.341-.017s-.087-.043-.047-.07.267-.078.385-.108" fill="#d3b334" stroke="#263b86" stroke-miterlimit="10" stroke-width=".145" transform="matrix(7.73498964618 0 0 7.73498964618 1857.26195651819 1862.70193651088)"/><path d="m0 0c.104-.164.665-.105 1.263-.09.352.075.792-.015 1.061.014.048.005.067.11.07.161.012.026.007.068.012.122.008.409.034.559.016.916-.02.403-.049.631-.129 1.028-.037.053-.046.092-.08.082-1.485.001-2.185.139-2.303-.029-.104-.15-.074-.494-.037-1.24.052-.434.018-.794.127-.964m.226 1.498c.092.037.195-.003.27.178.072.173.208.195.38.207.223.015.238.306.305.232.068-.076.078-.252.196-.268.149-.03.231 0 .316-.121.087-.121.016-.167.078-.246.072-.091.292-.008.262-.083-.027-.07-.101-.11-.085-.195.015-.085.09-.249.023-.386-.067-.138-.165-.083-.212-.184-.062-.135.04-.318-.05-.283-.09.036-.125.087-.199.055-.074-.031-.186-.139-.36-.16-.232-.027-.345.188-.419.114-.08-.081-.122-.121-.161-.086-.062.056.043.258-.031.344-.074.085-.188.165-.22.313-.03.149.067.281-.007.394-.075.114-.156.149-.086.175" fill="#d3b334" transform="matrix(7.73498964618 0 0 7.73498964618 1854.18729813383 1835.42372202467)"/><path d="m0 0c.104-.164.665-.105 1.263-.09.352.075.792-.015 1.061.014.048.005.067.11.07.161.012.026.007.068.012.122.008.409.034.559.016.916-.02.403-.049.631-.129 1.028-.037.053-.046.092-.08.082-1.485.001-2.185.139-2.303-.029-.104-.15-.074-.494-.037-1.24.052-.434.018-.794.127-.964m.226 1.498c.092.037.195-.003.27.178.072.173.208.195.38.207.223.015.238.306.305.232.068-.076.078-.252.196-.268.149-.03.231 0 .316-.121.087-.121.016-.167.078-.246.072-.091.292-.008.262-.083-.027-.07-.101-.11-.085-.195.015-.085.09-.249.023-.386-.067-.138-.165-.083-.212-.184-.062-.135.04-.318-.05-.283-.09.036-.125.087-.199.055-.074-.031-.186-.139-.36-.16-.232-.027-.345.188-.419.114-.08-.081-.122-.121-.161-.086-.062.056.043.258-.031.344-.074.085-.188.165-.22.313-.03.149.067.281-.007.394-.075.114-.156.149-.086.175z" fill="none" stroke="#263b86" stroke-miterlimit="10" stroke-width=".145" transform="matrix(7.73498964618 0 0 7.73498964618 1854.18729813383 1835.42372202467)"/><path d="m0 0c.009-.009.027-.019.06-.032.141-.054.454-.17.769-.296.146-.059.546-.164.587.088.033.205-.086.365-.779.565-.581.168-1.003.271-1.066.264-.064-.006-.117-.058-.068-.093.16-.114.351-.277.443-.435.016-.029.036-.049.054-.061" fill="#d3b334" stroke="#263b86" stroke-miterlimit="10" stroke-width=".145" transform="matrix(7.73498964618 0 0 7.73498964618 1854.7016749453 1858.6681394104)"/><path d="m0 0c.056.088.01.128-.075.144-.109.02-.173.027-.27.054-.077.016-.103.006-.171-.108-.066-.114.141-.126.308-.187.169-.06.15.01.208.097" fill="#d3b334" stroke="#263b86" stroke-miterlimit="10" stroke-width=".145" transform="matrix(7.73498964618 0 0 7.73498964618 1862.5062794983 1862.13805576567)"/><path d="m0 0c.039-.123-.001-.165.068-.226.1-.087.21.081.314.098.055-.008.223-.149.316-.093.055.006.1.111.157.181.185.225.392.542.482.819.027.205-.239.232-.205.328.041.115.266-.273.472.13.304.575.479.666.534.818.001-.418.074-.705.099-1.18.04-.105.088-.304.137-.364-.002-.007.002-.013.02-.02.038-.013.032-.002.143.04.171.072.392.104.414.214.018.086-.034.054-.156.075-.07.011-.037.381.011.4.086 0 .285.037.35-.024.028-.027.111-.264.037-.288-.204-.063-.136-.104.08-.261.111-.082.133-.274.203-.269.094.023.082.11.222.228.056.048.308.233.052.25-.052.003.006.336.06.364.057.029.349.009.349-.039.046-.06.096-.262-.031-.266-.122-.004-.145-.1.081-.274.085-.066.168-.181.222-.17.087.018.209.146.32.245 0 0 .163.134.007.163-.106.02-.124.053-.124.053.006.186-.012.204.041.273 0 .048.287.028.35.038.083.013.126-.06.13-.153.022-.191-.015-.172-.095-.182-.005-.051-.067-.068-.052-.116.02-.069.074-.083.227-.186.153-.104.088-.175.198-.192.047.017.183.107.222.168.103.091.345.205.138.303-.096.046-.083.081-.086.181s.039.139.058.157c.064.062.274.018.36.018.053-.021.064-.301-.046-.321-.233-.041-.061-.113-.007-.167.129-.13.095-.13.204-.194.049-.01.084-.079.122-.065.065-.065.146.267.199.404.033.603.143.899.084 1.547-.073.811 0 1.58.064 1.58.126.083.758.484.326.948-.238.254-.737.093-.832-.369.011-.014.01-.017-.007-.031 0 0-.002-.018-.229-.029-.236-.01-.736.004-.973-.006-.237-.011-.517-.042-.634-.042-.248-.003-.355-.013-.59-.002-.237.011-.719.006-.956.016-.228.01-.257.041-.257.041s.009.038-.019.112l-.005.01c-.137.39-.583.513-.805.277-.432-.464.2-.864.327-.949.063 0 .136-.767.063-1.579-.009-.092-.013-.176-.015-.257-.029.087-.116.175-.201.254-.013.075.035.136-.02.184-.123.109-.245.028-.401-.058-.091.049-.18.115-.255.069-.185-.114-.255-.323-.529-.814-.048-.097-.076-.1-.078-.175-.004-.108.068-.088.146-.235-.068-.098-.012-.126-.078-.146-.098-.029-.229.124-.321.069-.216-.128-.138-.285-.559-.853-.06-.073-.077-.142-.059-.235.023-.119.167-.117.216-.225m6.793 4.881c.018.007.04.004.06-.014.158-.216.012-.479-.191-.428-.43.108-.097.603.131.442m-.486-3.26c-.24.014-.675-.014-.7.058-.015.399-.024.543.01.596.044.071.632.048.661.033.029-.019.111-.692.029-.687m-.654 2.58c.047.047.549.055.58.047.004 0 .006-.002.009-.003.013.006.024.008.032.003.038-.024.012-.075-.004-.114-.035-.223.061-.46-.054-.548-.068-.051-.244-.019-.503-.038-.023-.002-.034.004-.039.012-.002.002-.005.002-.007.005-.01.024.024.028.02.063.042.317-.078.53-.034.573m-.051-.978c.074.087.322.013.591.043.001.001.002-.001.003 0 .009.004.017.012.027.01.034-.004.056-.041.043-.072-.043-.306.101-.612-.023-.639-.219-.046-.641-.046-.637.035-.02.176-.047.572-.004.623m-.983.936c-.008.02.001.04.015.055.006.008.012.013.022.015.002.001.003.004.006.005.005 0 .008-.004.013-.005.001-.001.003.001.004 0 .271-.032.532.037.606-.05.043-.051.016-.446-.004-.623.004-.082-.418-.082-.639-.035-.123.027.02.333-.023.638m-.005-1.002c-.006.013-.001.013.042.04.003.026.504.055.571.018.051-.031.016-.059.04-.149.023-.11-.006-.167-.036-.27-.043-.155.024-.138.002-.221-.018-.042-.405-.027-.61-.004-.083.008-.024.302-.009.586m-.05-.871c.025.072.461.043.702.057.082.005 0-.667-.029-.687-.029-.014-.618-.037-.663.034-.033.052-.023.197-.01.596m-1.013.891c.005.035-.029.039-.019.063.002.005.006.005.009.007.004.007.015.012.037.011.258-.02.47.036.537-.015.115-.086.019-.323.055-.547.016-.038.041-.089.003-.113-.005-.003-.014 0-.022.002-.005-.002-.01-.005-.015-.006-.031-.007-.537.004-.584.051-.042.044.043.23-.001.547m.679-1.026c.024-.11-.006-.166-.035-.27-.044-.155.023-.137.002-.221-.018-.042-.404-.026-.609-.004-.083.009-.023.302-.009.586-.004.013-.001.013.042.04.004.028.504.057.57.018.051-.03.016-.059.039-.149m-.702 2.008c-.011.027.007.058.033.068.002.001.003.002.004.002.002.001.004.004.007.005.004 0 .006-.004.011-.005.005 0 .01.003.015 0 .27-.032.52.037.594-.05.043-.051.016-.446-.003-.623.003-.082-.418-.082-.637-.035-.125.027.02.333-.024.638m-.942.077c.032.008.549-.011.596-.058.044-.043-.043-.176 0-.494-.004-.034.036-.107.025-.13-.001-.002-.002-.002-.003-.003.002-.014-.005-.029-.043-.026-.258.019-.476-.013-.542.038-.115.088-.02.325-.055.548-.01.025-.022.053-.022.077-.017.011.011.044.044.048m-.019-1.056c-.011.032.01.069.044.074.01.001.017-.007.026-.011.006 0 .011.003.016 0 .27-.031.506.044.58-.043.043-.051.016-.446-.003-.622.003-.083-.42-.083-.639-.036-.124.027.02.333-.024.638m-.011-.895c.028.015.618.038.663-.033.033-.054.024-.198.009-.596-.024-.073-.461-.043-.701-.058-.082-.005 0 .668.029.687m-.383 2.132c-.203-.051-.348.211-.191.426.018.016.036.02.053.017 0 .003-.002.007-.001.009l.063.017c.17.103.519-.358.076-.469m-.95-2.213c.053.081.178.039.28 0 .044-.07-.075-.103-.052-.167.02-.052.058-.082.114-.088.105.167.149.167.255.027.077-.104-.091-.092-.419-.568-.002-.003-.004-.004-.005-.007-.005-.007-.01-.012-.015-.021.001.005.003.008.004.012-.04-.028-.111.057-.136.285-.009.081-.14-.096-.246-.017-.097.207.132.412.22.544m-.894-1.491c.078.141.183.254.288.237.064-.01.018-.211.079-.307.087.008.131.228.281.105.102-.084.026-.079-.07-.334-.088-.105-.141-.289-.334-.21-.095.039-.139.052-.07.254-.044.123-.149-.184-.254-.14-.104.044.036.289.08.395" fill="#d3b334" transform="matrix(7.73498964618 0 0 7.73498964618 1808.34278799991 1860.84863299166)"/><path d="m0 0c.039-.123-.001-.165.068-.226.1-.087.21.081.314.098.055-.008.223-.149.316-.093.055.006.1.111.157.181.185.225.392.542.482.819.027.205-.239.232-.205.328.041.115.266-.273.472.13.304.575.479.666.534.818.001-.418.074-.705.099-1.18.04-.105.088-.304.137-.364-.002-.007.002-.013.02-.02.038-.013.032-.002.143.04.171.072.392.104.414.214.018.086-.034.054-.156.075-.07.011-.037.381.011.4.086 0 .285.037.35-.024.028-.027.111-.264.037-.288-.204-.063-.136-.104.08-.261.111-.082.133-.274.203-.269.094.023.082.11.222.228.056.048.308.233.052.25-.052.003.006.336.06.364.057.029.349.009.349-.039.046-.06.096-.262-.031-.266-.122-.004-.145-.1.081-.274.085-.066.168-.181.222-.17.087.018.209.146.32.245 0 0 .163.134.007.163-.106.02-.124.053-.124.053.006.186-.012.204.041.273 0 .048.287.028.35.038.083.013.126-.06.13-.153.022-.191-.015-.172-.095-.182-.005-.051-.067-.068-.052-.116.02-.069.074-.083.227-.186.153-.104.088-.175.198-.192.047.017.183.107.222.168.103.091.345.205.138.303-.096.046-.083.081-.086.181s.039.139.058.157c.064.062.274.018.36.018.053-.021.064-.301-.046-.321-.233-.041-.061-.113-.007-.167.129-.13.095-.13.204-.194.049-.01.084-.079.122-.065.065-.065.146.267.199.404.033.603.143.899.084 1.547-.073.811 0 1.58.064 1.58.126.083.758.484.326.948-.238.254-.737.093-.832-.369.011-.014.01-.017-.007-.031 0 0-.002-.018-.229-.029-.236-.01-.736.004-.973-.006-.237-.011-.517-.042-.634-.042-.248-.003-.355-.013-.59-.002-.237.011-.719.006-.956.016-.228.01-.257.041-.257.041s.009.038-.019.112l-.005.01c-.137.39-.583.513-.805.277-.432-.464.2-.864.327-.949.063 0 .136-.767.063-1.579-.009-.092-.013-.176-.015-.257-.029.087-.116.175-.201.254-.013.075.035.136-.02.184-.123.109-.245.028-.401-.058-.091.049-.18.115-.255.069-.185-.114-.255-.323-.529-.814-.048-.097-.076-.1-.078-.175-.004-.108.068-.088.146-.235-.068-.098-.012-.126-.078-.146-.098-.029-.229.124-.321.069-.216-.128-.138-.285-.559-.853-.06-.073-.077-.142-.059-.235.023-.119.167-.117.216-.225m6.793 4.881c.018.007.04.004.06-.014.158-.216.012-.479-.191-.428-.43.108-.097.603.131.442zm-.486-3.26c-.24.014-.675-.014-.7.058-.015.399-.024.543.01.596.044.071.632.048.661.033.029-.019.111-.692.029-.687zm-.654 2.58c.047.047.549.055.58.047.004 0 .006-.002.009-.003.013.006.024.008.032.003.038-.024.012-.075-.004-.114-.035-.223.061-.46-.054-.548-.068-.051-.244-.019-.503-.038-.023-.002-.034.004-.039.012-.002.002-.005.002-.007.005-.01.024.024.028.02.063.042.317-.078.53-.034.573zm-.051-.978c.074.087.322.013.591.043.001.001.002-.001.003 0 .009.004.017.012.027.01.034-.004.056-.041.043-.072-.043-.306.101-.612-.023-.639-.219-.046-.641-.046-.637.035-.02.176-.047.572-.004.623zm-.983.936c-.008.02.001.04.015.055.006.008.012.013.022.015.002.001.003.004.006.005.005 0 .008-.004.013-.005.001-.001.003.001.004 0 .271-.032.532.037.606-.05.043-.051.016-.446-.004-.623.004-.082-.418-.082-.639-.035-.123.027.02.333-.023.638zm-.005-1.002c-.006.013-.001.013.042.04.003.026.504.055.571.018.051-.031.016-.059.04-.149.023-.11-.006-.167-.036-.27-.043-.155.024-.138.002-.221-.018-.042-.405-.027-.61-.004-.083.008-.024.302-.009.586zm-.05-.871c.025.072.461.043.702.057.082.005 0-.667-.029-.687-.029-.014-.618-.037-.663.034-.033.052-.023.197-.01.596zm-1.013.891c.005.035-.029.039-.019.063.002.005.006.005.009.007.004.007.015.012.037.011.258-.02.47.036.537-.015.115-.086.019-.323.055-.547.016-.038.041-.089.003-.113-.005-.003-.014 0-.022.002-.005-.002-.01-.005-.015-.006-.031-.007-.537.004-.584.051-.042.044.043.23-.001.547zm.679-1.026c.024-.11-.006-.166-.035-.27-.044-.155.023-.137.002-.221-.018-.042-.404-.026-.609-.004-.083.009-.023.302-.009.586-.004.013-.001.013.042.04.004.028.504.057.57.018.051-.03.016-.059.039-.149zm-.702 2.008c-.011.027.007.058.033.068.002.001.003.002.004.002.002.001.004.004.007.005.004 0 .006-.004.011-.005.005 0 .01.003.015 0 .27-.032.52.037.594-.05.043-.051.016-.446-.003-.623.003-.082-.418-.082-.637-.035-.125.027.02.333-.024.638zm-.942.077c.032.008.549-.011.596-.058.044-.043-.043-.176 0-.494-.004-.034.036-.107.025-.13-.001-.002-.002-.002-.003-.003.002-.014-.005-.029-.043-.026-.258.019-.476-.013-.542.038-.115.088-.02.325-.055.548-.01.025-.022.053-.022.077-.017.011.011.044.044.048zm-.019-1.056c-.011.032.01.069.044.074.01.001.017-.007.026-.011.006 0 .011.003.016 0 .27-.031.506.044.58-.043.043-.051.016-.446-.003-.622.003-.083-.42-.083-.639-.036-.124.027.02.333-.024.638zm-.011-.895c.028.015.618.038.663-.033.033-.054.024-.198.009-.596-.024-.073-.461-.043-.701-.058-.082-.005 0 .668.029.687zm-.383 2.132c-.203-.051-.348.211-.191.426.018.016.036.02.053.017 0 .003-.002.007-.001.009l.063.017c.17.103.519-.358.076-.469zm-.95-2.213c.053.081.178.039.28 0 .044-.07-.075-.103-.052-.167.02-.052.058-.082.114-.088.105.167.149.167.255.027.077-.104-.091-.092-.419-.568-.002-.003-.004-.004-.005-.007-.005-.007-.01-.012-.015-.021.001.005.003.008.004.012-.04-.028-.111.057-.136.285-.009.081-.14-.096-.246-.017-.097.207.132.412.22.544zm-.894-1.491c.078.141.183.254.288.237.064-.01.018-.211.079-.307.087.008.131.228.281.105.102-.084.026-.079-.07-.334-.088-.105-.141-.289-.334-.21-.095.039-.139.052-.07.254-.044.123-.149-.184-.254-.14-.104.044.036.289.08.395z" fill="none" stroke="#263b86" stroke-miterlimit="10" stroke-width=".145" transform="matrix(7.73498964618 0 0 7.73498964618 1808.34278799991 1860.84863299166)"/><g clip-path="url(#a)"><g clip-path="url(#b)"><text transform="matrix(1 0 0 -1 514.7567 20.5706)"><tspan fill="#231f20" font-family="Xenogears" font-size="6" x="0 3.336 6.672 10.008 12.006 16.337999 20.34 24.341999 26.34 29.676001 33.012001 36.348 39.683998 43.02" y="0">780-CYP-220212</tspan></text></g></g></g></svg>