<svg xmlns="http://www.w3.org/2000/svg" xmlns:xlink="http://www.w3.org/1999/xlink" version="1.1" id="layer" x="0px" y="0px" style="enable-background:new 0 0 652 652;" xml:space="preserve" viewBox="26.26 254.76 599.94 141.59">
<style type="text/css">
	.st0{fill:#72BF00;}
	.st1{fill:#002B3F;}
</style>
<path class="st0" d="M95.9,254.9c3.1-0.7,6.2,1.2,6.9,4.3s-1.2,6.2-4.3,6.9c-3.1,0.7-6.2-1.2-6.9-4.3  C90.9,258.7,92.8,255.6,95.9,254.9z M95.9,385c3.1-0.7,6.2,1.2,6.9,4.3s-1.2,6.2-4.3,6.9c-3.1,0.7-6.2-1.2-6.9-4.3  S92.8,385.7,95.9,385z M139.2,275.6c2.2-2.2,5.9-2.2,8.1,0c2.2,2.2,2.2,5.9,0,8.1c-2.2,2.2-5.9,2.2-8.1,0  C136.9,281.5,136.9,277.8,139.2,275.6z M141.9,365.9c3.1-0.7,6.2,1.2,6.9,4.3s-1.2,6.2-4.3,6.9c-3.1,0.7-6.2-1.2-6.9-4.3  S138.8,366.7,141.9,365.9z M47.1,367.5c2.2-2.2,5.9-2.2,8.1,0c2.2,2.2,2.2,5.9,0,8.1c-2.2,2.2-5.9,2.2-8.1,0  C44.9,373.3,44.9,369.7,47.1,367.5z M30.7,320.1c3.1-0.7,6.2,1.2,6.9,4.3c0.7,3.1-1.2,6.2-4.3,6.9c-3.1,0.7-6.2-1.2-6.9-4.3  C25.7,323.9,27.6,320.8,30.7,320.1z M158.3,321.6c2.2-2.2,5.9-2.2,8.1,0c2.2,2.2,2.2,5.9,0,8.1c-2.2,2.2-5.9,2.2-8.1,0  C156,327.5,156,323.8,158.3,321.6z M47.1,275.4c2.2-2.2,5.9-2.2,8.1,0c2.2,2.2,2.2,5.9,0,8.1c-2.2,2.2-5.9,2.2-8.1,0  C44.9,281.3,44.9,277.7,47.1,275.4z M97.2,273.9c-3.2,0-5.8,2.6-5.8,5.8c0,0,0,0,0,0v22.9l0,0v0.1c-0.1,3.2,2.4,5.8,5.6,5.9  c3.2,0.1,5.8-2.4,5.9-5.6c0-0.1,0-0.2,0-0.3v-0.2l0,0v-22.9C102.9,276.4,100.3,273.9,97.2,273.9z M97.2,342.9  c-3.2,0-5.7,2.6-5.8,5.7c0,0,0,0,0,0v22.9l0,0v0.2c-0.1,3.2,2.4,5.8,5.6,5.9c3.2,0.1,5.8-2.4,5.9-5.6c0-0.1,0-0.2,0-0.3v-0.2l0,0  v-22.9C103,345.5,100.4,342.9,97.2,342.9C97.2,342.9,97.2,342.9,97.2,342.9z M85.7,319.9H51.2c-3.2-0.1-5.8,2.4-5.9,5.6  c-0.1,3.2,2.4,5.8,5.6,5.9c0.1,0,0.2,0,0.3,0h34.5c3.2-0.1,5.7-2.7,5.6-5.9C91.2,322.4,88.8,320,85.7,319.9z M143.2,331.4  c3.2,0.1,5.8-2.4,5.9-5.6c0.1-3.2-2.4-5.8-5.6-5.9c-0.1,0-0.2,0-0.3,0h-34.5c-3.2-0.1-5.8,2.4-5.9,5.6c-0.1,3.2,2.4,5.8,5.6,5.9  c0.1,0,0.2,0,0.3,0H143.2z M120.2,308.4c3.2,0,5.7-2.6,5.8-5.7c0,0,0,0,0,0v-0.2l0,0v-37.9c0.1-3.2-2.4-5.9-5.5-6  c-3.2-0.1-5.9,2.4-6,5.5c0,0.1,0,0.3,0,0.4v37.9l0,0v0.2C114.5,305.8,117,308.4,120.2,308.4C120.2,308.4,120.2,308.4,120.2,308.4  L120.2,308.4z M74,342.9c-3.2,0-5.7,2.6-5.8,5.7c0,0,0,0,0,0v37.9l0,0v0.1c-0.1,3.2,2.4,5.9,5.5,6c3.2,0.1,5.9-2.4,6-5.5  c0-0.1,0-0.3,0-0.4v-0.1l0,0v-37.9C79.8,345.5,77.2,342.9,74,342.9C74,342.9,74,342.9,74,342.9z M36.2,308.3h38  c3.2-0.1,5.7-2.8,5.5-6c-0.1-3-2.5-5.4-5.5-5.5h-38c-3.2-0.1-5.9,2.4-6,5.5s2.4,5.9,5.5,6C35.9,308.3,36,308.3,36.2,308.3z   M158.2,342.9h-38c-3.2-0.1-5.8,2.4-5.9,5.6c-0.1,3.2,2.4,5.8,5.6,5.9c0.1,0,0.2,0,0.3,0h38c3.2,0.1,5.8-2.4,5.9-5.6  c0.1-3.2-2.4-5.8-5.6-5.9C158.5,342.9,158.4,342.9,158.2,342.9z M74.2,285.4c3.2,0,5.7-2.6,5.8-5.7c0,0,0,0,0,0v-0.2l0,0v-14.9  c0.1-3.2-2.4-5.9-5.5-6c-3.2-0.1-5.9,2.4-6,5.5c0,0.1,0,0.3,0,0.4v14.9l0,0v0.2C68.4,282.8,71,285.4,74.2,285.4  C74.2,285.4,74.2,285.4,74.2,285.4L74.2,285.4z M51.2,354.4c3.2-0.1,5.7-2.8,5.5-6c-0.1-3-2.5-5.4-5.5-5.5h-15  c-3.2-0.1-5.9,2.4-6,5.5c-0.1,3.2,2.4,5.9,5.5,6c0.1,0,0.3,0,0.4,0H51.2z M143.2,308.4h15c3.2-0.1,5.7-2.7,5.6-5.9  c-0.1-3.1-2.5-5.5-5.6-5.6h-15c-3.2-0.1-5.8,2.4-5.9,5.6c-0.1,3.2,2.4,5.8,5.6,5.9C143,308.4,143.1,308.4,143.2,308.4z M120.2,365.8  c-3.2,0-5.8,2.6-5.8,5.8v0.2l0,0v14.9c0.1,3.2,2.8,5.7,6,5.5c3-0.1,5.4-2.5,5.5-5.5v-14.9l0,0v-0.2  C126,368.4,123.4,365.8,120.2,365.8L120.2,365.8z"/>
<path class="st1" d="M262.1,294.7c11.8-0.1,22.2,7.9,25.2,19.3l0.2,1l11.9-1.6l-0.3-1.3c-4.4-16.8-19.7-28.6-37.1-28.4  c-23.4,0-40.4,17.5-40.4,41.7c-0.3,11.3,4,22.2,11.8,30.4c7.6,7.5,18,11.6,28.7,11.5c17,0.4,32.2-10.8,36.9-27.1l0.3-1.2l-11.6-2.3  l-0.3,1c-3.4,11.1-13.7,18.6-25.3,18.6c-16.4,0-28.3-13-28.3-30.9C233.8,307.7,245.7,294.7,262.1,294.7z M338.8,305.8  c-16-0.7-29.6,11.7-30.3,27.8c0,0.9,0,1.8,0,2.7c-0.8,16.1,11.6,29.7,27.7,30.5c0.9,0,1.7,0,2.6,0c16.8,0,30.5-13.7,30.5-30.5  C369.3,319.5,355.6,305.8,338.8,305.8L338.8,305.8z M338.8,356.4c-11.1,0.6-20.5-7.9-21.1-19c-0.6-11.1,7.9-20.5,19-21.1  c11.1-0.6,20.5,7.9,21.1,19c0,0.3,0,0.7,0,1c0.6,10.5-7.4,19.5-17.9,20.1C339.6,356.4,339.2,356.4,338.8,356.4z M443.8,284.6  c-3.6-0.2-6.6,2.6-6.7,6.1c0,0.1,0,0.3,0,0.4c-0.2,3.7,2.7,6.8,6.4,7s6.8-2.7,7-6.4c0-0.2,0-0.4,0-0.6c0.1-3.5-2.7-6.5-6.2-6.6  C444.1,284.6,443.9,284.6,443.8,284.6L443.8,284.6z M438.1,308.3h11.4v57.2h-11.4V308.3z M494.4,306.2c-7.7-0.3-15.1,3-20,9.1v-29.7  H463v80h11.4v-7.2c4.7,6.2,12.1,9.7,19.9,9.4c16.3,0,29.5-13.2,29.5-29.5c0-0.4,0-0.9,0-1.3c0.7-16.2-11.8-29.9-28-30.6  C495.3,306.2,494.8,306.2,494.4,306.2z M493.3,316.7c10.6,0.1,19.2,8.7,19.1,19.4c0,0.3,0,0.5,0,0.8c0.6,10.6-7.5,19.7-18,20.3  c-10.6,0.6-19.7-7.5-20.3-18c0-0.7,0-1.5,0-2.2c-0.5-10.6,7.6-19.6,18.2-20.2C492.6,316.7,493,316.7,493.3,316.7L493.3,316.7z   M378.2,354.7v-69.2h11.4v66.3c0,3.3,2,3.9,4.7,3.9h3.6v9.6h-6.2C384.6,365.5,378.2,363,378.2,354.7z M407,354.7v-69.2h11.3v66.3  c0,3.3,2.1,3.9,4.7,3.9h3.6v9.6h-6.2C413.4,365.5,407,363,407,354.7z M557.5,307.7c-5.3-0.2-10.3,2.3-13.4,6.6v-6h-11.2v57.2h11.4  v-30.7c0-10.2,4.1-16.2,12.7-16.2c2.8-0.1,5.5,0.3,8.1,1.4v-10.9C562.7,308,560.1,307.5,557.5,307.7z M625,355.9  c-2.6,0-4.6-0.5-4.7-3.6v-24.2c0-13.2-9.6-21.7-24.4-21.7c-14.6,0-24,7.9-24,20.2v1.2h11.5v-1.2c-0.1-2.3,0.8-4.6,2.4-6.3  c2.8-2.4,6.4-3.6,10-3.4c8.2,0,13.1,4.1,13.1,11v1.1l-14.1,1.7c-16.3,1.8-25.6,9.1-25.6,19.8c0,10.1,8.4,16.8,20.8,16.8  c7.3,0.4,14.3-2.8,18.9-8.5h0.6c1.7,5.2,7.1,6.8,12.9,6.8h3.8V356L625,355.9z M591.3,357.5c-6.7,0-10.7-2.7-10.7-7.2  c0-6.5,7.9-8.8,14.5-9.6l13.9-1.6v3.6C608.9,351.4,601.7,357.5,591.3,357.5z"/>
</svg>