<svg xmlns="http://www.w3.org/2000/svg" xmlns:xlink="http://www.w3.org/1999/xlink" version="1.1" id="layer" x="0px" y="0px" style="enable-background:new -153 -46 652 652;" xml:space="preserve" viewBox="-126.66 226.9 600.06 105">
<path d="M-115.5,309.8l-11.1-35c-0.2-0.7,0.1-1.6,0.6-2.1l17-13.6c0.6-0.5,1.4-0.3,1.8,0.3l12.7,17.8c0.4,0.6,0.4,1.5,0,2.2  l-19.9,30.7C-114.7,310.5-115.2,310.5-115.5,309.8 M-59.2,330.8l-22.5-28.7c-0.4-0.6-1.4-0.9-2-0.6l-20.5,6.8c-0.7,0.2-1,1-0.8,1.7  l7.5,20.7c0.2,0.7,1,1.2,1.7,1.2l36.1,0C-58.9,331.8-58.7,331.4-59.2,330.8 M-22.6,283.8l-33.8,12.9c-0.7,0.3-1.2,1-1.2,1.8l0,22  c0,0.7,0.6,1.3,1.3,1.3l21.6-0.8c0.7,0,1.5-0.6,1.7-1.3l11.2-35C-21.6,283.9-22,283.5-22.6,283.8 M-55.2,233.9l1.6,36.7  c0,0.7,0.6,1.5,1.3,1.7l20.5,6.8c0.7,0.2,1.4-0.2,1.6-0.9l5.9-21.2c0.2-0.7-0.1-1.6-0.7-2l-29.2-21.6  C-54.8,232.9-55.3,233.2-55.2,233.9 M-111.9,250l34.8,9.8c0.7,0.2,1.6-0.1,2-0.7l12.7-17.8c0.4-0.6,0.3-1.4-0.3-1.8l-18-12.3  c-0.6-0.4-1.5-0.4-2.1,0l-29.2,21.6C-112.7,249.3-112.6,249.8-111.9,250 M51.2,294h2.7l-1.4,13.5c-5.5,2.4-11.4,4.3-19.9,4.3  c-17.1,0-27.2-12.7-27.2-26.9c0-17.9,12.5-29,27.8-29c9.3,0,14.8,2.5,18,4.5l0.4,11.7H49c-3.1-8.7-8.4-12-16.3-12  C19,260.1,14,270.1,14,282c0,13,6.1,25.3,20,25.3C44.2,307.4,48.1,302.7,51.2,294 M58.2,293.4c0-12.2,9.1-19.9,19.7-19.9  c10.9,0,18.3,7.8,18.3,18.6c0,12.2-9.1,19.9-19.7,19.9C65.6,312,58.2,304.2,58.2,293.4 M88.9,294.4c0-9-4.8-16.6-13.1-16.6  c-6.9,0-10.3,5.6-10.3,13.2c0,9,4.8,16.6,13.1,16.6C85.4,307.6,88.9,302,88.9,294.4 M101,307.1l-0.5-13.1h2.5  c2.1,7.3,6.8,13.8,14.9,13.8c7.6,0,12.6-3.6,12.6-9.6c0-5.3-4.1-7.6-9.8-9.9l-7.5-3c-6.6-2.7-12.2-5.7-12.2-14.6  c0-7.6,7.4-14.7,18.1-14.7c6.2,0,12.5,1.8,15.3,4.6v11.6h-2c-1.8-7.3-5.8-12.2-13.8-12.2c-6.4,0-11.1,3.5-11.1,9.1  c0,4.6,3.1,6.8,8.4,8.9l8,3.2c7.6,3.1,13.1,6.2,13.1,15.2c0,10-9.1,15.6-20.3,15.6C110.2,311.9,104.5,310,101,307.1 M151.6,273.6h10  v4.4h-10v21.7c0,5,2,7.3,6.2,7.3c1.6,0,3.1-0.3,4.6-0.9c0.3,0.8,0.6,1.5,0.9,2.2c-1.8,1.8-4.7,3.7-8.9,3.7c-5.2,0-10-2.7-10-9.9V278  h-5.7v-2.4c4.3-2.2,7.1-4.9,10.6-9.3h2.3V273.6z M194.5,302.3c0,3.1,1.4,4.8,3.4,4.8c0.5,0,1.5-0.1,2.3-0.2c0.2,0.7,0.7,1.9,0.9,2.4  c-2.2,1.9-4.2,2.8-6.5,2.8c-3.6,0-5.3-2.5-6.4-6.4c-2.5,2.9-6.5,6.4-12.8,6.4c-6.8,0-10.4-4.1-10.4-9.6c0-6.5,4.2-8.1,9.5-9.6  l12.9-4v-1.5c0-5.7-2.3-10.2-8.2-10.2c-3.9,0-5.5,1.6-5.5,5.2c0,0.7,0.2,2,0.4,3.4l-5.7,0.7c-1-1-1.5-2.1-1.5-3.8  c0-5.7,6-9.1,13.7-9.1c8.5,0,13.9,3.6,13.9,13.4V302.3z M187.3,302.6v-10.4l-11.7,3.8c-2.4,0.8-3.6,2.2-3.6,4.8c0,4,2.2,6,6,6  C182.1,306.9,184.5,305.1,187.3,302.6 M215.4,284.2c3.2-5.8,6.4-10.7,11.4-10.7c1.6,0,2,0.4,3.5,0.9v6.4h-3c-4.4,0-7,1.1-11.3,6.6  v16.8c0,3.5,1.4,3.7,5.7,4.3v3h-18.6v-3c2.9-0.4,5.7-0.8,5.7-4v-23.4l-5.7-2.5V277l10.2-3.4h2.4L215.4,284.2z M268.8,256  c9.3,0,14.8,2.4,18,4.5l0.4,11.7h-2.6c-3.1-8.7-8.4-12-16.3-12c-13.8,0-18.7,10-18.7,21.9c0,13,6.4,25.5,20,25.5  c6.3,0,9.4-1.5,12.2-4.2v-9.7c0-4.7-4.3-5.4-8.6-5.7v-2.8h21.5v2.8c-2.9,0.4-5.7,1-5.7,5.7v12.7c-5.7,3.3-11.8,5.6-20.6,5.6  c-17.1,0-27.3-12.8-27.3-26.9C241,267.2,253.7,256,268.8,256 M309.4,284.2c3.2-5.8,6.6-10.7,11.6-10.7c1.6,0,2.2,0.4,3.7,0.9v6.4  h-3.4c-4.4,0-6.6,1.1-12.3,6.6v16.8c0,3.5,2.9,3.7,7.2,4.3v3h-18.6v-3c2.9-0.4,4.3-0.8,4.3-4v-23.4l-4.3-2.5V277l9.8-3.4h2.4  L309.4,284.2z M324.6,293.4c0-12.2,9.1-19.9,19.7-19.9c10.9,0,18.3,7.8,18.3,18.6c0,12.2-9.1,19.9-19.7,19.9  C332,312,324.6,304.2,324.6,293.4 M355.3,294.4c0-9-4.8-16.6-13.1-16.6c-6.9,0-10.3,5.6-10.3,13.2c0,9,4.8,16.6,13.1,16.6  C351.8,307.6,355.3,302,355.3,294.4 M394.6,304.9c-3,3.6-7.3,7-12.7,7c-6.7,0-11.4-3.2-11.4-11.4v-19c0-2.5-1.1-3.2-4.5-3.6  l-1.2-0.1v-2.8l11-1.3h1.8l0.1,7.1v18.8c0,5.2,2.8,7.1,6.8,7.1c4.2,0,7.5-2.2,10.3-4.6v-20.5c0-2.5-1.1-3.2-4.5-3.6l-1.2-0.1v-2.8  l10.9-1.3h1.8l0.2,7.1v22.5c0,2.4,0.7,2.9,3.9,3.2l1.8,0.2v2.8l-12.4,2h-1L394.6,304.9z M420.6,309.2v12.2c0,3.2,1.4,3.6,5.7,4v2.2  h-18.6v-2.2c2.9-0.4,5.7-0.8,5.7-4v-40.2l-5.7-2.5V277l10.6-3.4h2.4l-0.3,6.4c3-3.8,7.8-6.5,13.1-6.5c10.6,0,16.1,7.8,16.1,17.5  c0,12.9-8.8,21-19.7,21C425.8,312,422,310.8,420.6,309.2 M442.5,293.9c0-7.3-2.7-15.1-11.5-15.1c-4.2,0-8.9,2.1-10.4,4.6v15.7  c0,6.6,4.9,8.8,10.1,8.8C437.9,308,442.5,302.9,442.5,293.9 M463.5,273.5v1.1h-3.1v8.1h-1.2v-8.1h-3.1v-1.1H463.5z M464.6,273.5h1.8  l2.6,7.8l2.6-7.8h1.8v9.2h-1.2v-5.5c0-0.2,0-0.5,0-0.9c0-0.4,0-0.9,0-1.4l-2.6,7.8h-1.2l-2.6-7.8v0.3c0,0.2,0,0.6,0,1  c0,0.5,0,0.8,0,1v5.5h-1.2V273.5z"/>
</svg>