<?xml version="1.0" standalone="no"?>
<!DOCTYPE svg PUBLIC "-//W3C//DTD SVG 20010904//EN"
 "http://www.w3.org/TR/2001/REC-SVG-20010904/DTD/svg10.dtd">
<svg version="1.0" xmlns="http://www.w3.org/2000/svg"
 width="413.000000pt" height="122.000000pt" viewBox="0 0 413.000000 122.000000"
 preserveAspectRatio="xMidYMid meet">
<metadata>
Created by potrace 1.16, written by Peter Selinger 2001-2019
</metadata>
<g transform="translate(0.000000,122.000000) scale(0.100000,-0.100000)"
fill="#000000" stroke="none">
<path d="M2760 1188 c-82 -23 -120 -79 -120 -175 0 -59 22 -112 59 -140 33
-25 116 -37 165 -23 46 13 53 23 37 49 -6 10 -13 11 -29 2 -11 -6 -39 -11 -61
-11 -110 0 -157 156 -70 233 27 25 37 28 83 25 28 -2 57 -6 65 -9 8 -2 15 5
17 18 3 18 -3 24 -34 33 -44 12 -65 12 -112 -2z"/>
<path d="M1790 1020 l0 -170 30 0 30 0 0 75 0 75 90 0 90 0 0 -75 c0 -73 1
-75 25 -75 l25 0 0 170 0 170 -25 0 c-24 0 -25 -2 -25 -70 l0 -70 -90 0 -90 0
0 70 0 70 -30 0 -30 0 0 -170z"/>
<path d="M2140 1020 l0 -170 30 0 29 0 3 120 3 120 45 -67 c62 -92 74 -92 130
-1 l45 73 3 -122 3 -123 24 0 25 0 0 171 0 170 -27 -3 c-22 -2 -37 -19 -78
-85 -27 -45 -53 -82 -57 -83 -4 0 -33 38 -64 85 -49 74 -60 85 -85 85 l-29 0
0 -170z"/>
<path d="M3743 1159 c-16 -6 -23 -17 -23 -34 0 -18 -5 -25 -20 -25 -15 0 -20
-7 -20 -25 0 -18 5 -25 20 -25 18 0 20 -7 20 -82 0 -46 4 -88 8 -94 15 -23 53
-35 88 -28 28 5 35 10 32 28 -2 17 -9 20 -34 18 -28 -3 -32 0 -38 29 -7 39 -8
102 0 122 3 9 14 12 29 10 16 -4 26 1 34 15 13 25 6 32 -35 32 -30 0 -33 3
-36 34 -3 30 -5 33 -25 25z"/>
<path d="M255 1150 c-3 -5 0 -10 7 -10 7 -1 -2 -7 -19 -15 -39 -17 -44 -51
-12 -79 20 -17 23 -17 69 3 27 12 54 21 61 21 24 0 -5 -17 -61 -36 -30 -10
-61 -24 -67 -31 -7 -6 -18 -13 -25 -15 -10 -4 -10 -8 1 -21 9 -11 12 -31 8
-57 -3 -22 -1 -40 3 -40 5 0 10 -12 12 -27 2 -16 8 -27 16 -26 7 2 12 -7 12
-22 0 -33 16 -32 25 3 4 15 9 22 12 15 2 -6 -3 -25 -11 -42 -9 -16 -16 -37
-16 -46 0 -14 4 -13 30 5 17 12 30 28 30 35 0 8 5 17 11 21 11 6 8 -10 -9 -55
-4 -11 -1 -11 16 -2 12 6 25 23 28 36 l6 25 18 -23 18 -22 6 25 c3 14 7 34 9
45 3 11 5 4 6 -16 1 -35 -18 -66 -32 -52 -4 3 -15 -1 -25 -10 -9 -9 -33 -19
-52 -22 -46 -8 -71 -33 -137 -132 -55 -83 -82 -104 -108 -83 -32 26 -15 72 51
140 53 56 73 92 66 126 -6 32 -21 38 -77 29 -40 -6 -48 -11 -66 -47 -20 -38
-20 -40 -2 -34 10 3 1 -8 -19 -25 -55 -45 -47 -52 20 -17 66 35 82 52 82 86 0
19 5 23 23 20 37 -5 25 -51 -30 -115 -67 -76 -84 -104 -81 -133 1 -14 -1 -31
-5 -38 -7 -11 10 -17 36 -13 12 2 8 -17 -5 -21 -8 -3 -7 -6 3 -10 22 -9 58 9
69 34 12 30 65 91 55 63 -5 -11 -14 -45 -20 -75 -21 -89 -22 -91 -63 -94 -17
-1 -42 -70 -35 -97 4 -15 9 -17 19 -8 10 9 12 4 7 -25 -5 -31 -3 -34 15 -29
17 4 20 1 16 -15 -5 -17 0 -19 35 -19 23 0 44 3 47 8 2 4 11 6 19 2 9 -3 15 1
15 11 0 9 7 16 15 16 25 0 17 17 -12 28 -19 6 -34 6 -46 -2 -26 -15 -59 26
-55 68 2 24 13 35 52 58 74 44 85 62 86 138 0 38 4 60 9 52 6 -10 10 -10 20 2
7 8 10 20 6 26 -4 6 7 13 25 16 38 8 37 33 -3 52 -15 7 -25 18 -22 23 4 5 13
3 21 -6 9 -8 20 -15 25 -15 5 0 14 -12 20 -27 8 -22 12 -24 19 -13 8 13 10 12
10 -2 0 -11 5 -15 15 -12 8 4 15 1 15 -5 0 -6 7 -11 16 -11 14 0 14 -3 3 -16
-7 -8 -13 -26 -14 -40 0 -19 3 -23 17 -18 11 3 18 0 18 -8 1 -9 5 -8 14 4 10
13 15 15 24 6 9 -9 12 -7 12 9 0 33 -35 103 -77 153 -25 30 -29 37 -10 21 15
-14 28 -23 30 -20 2 2 13 20 25 40 22 37 66 82 47 49 -4 -8 -15 -24 -25 -35
-9 -11 -22 -32 -28 -48 -11 -26 -10 -28 18 -34 17 -3 30 -9 30 -14 0 -5 -7 -6
-15 -3 -18 7 -19 -5 -4 -43 11 -28 11 -27 30 32 19 63 50 101 104 129 17 9 23
16 14 16 -26 0 -45 28 -30 43 10 9 12 8 9 -5 -1 -9 0 -17 5 -17 26 -3 29 0 16
16 -12 14 -12 16 1 11 8 -2 15 -13 15 -24 0 -10 8 -20 19 -22 15 -3 17 -9 11
-35 -4 -18 -7 -44 -6 -59 1 -21 -2 -26 -15 -21 -13 5 -13 7 -2 14 9 6 6 9 -10
9 -14 0 -21 -4 -17 -11 8 -13 -27 -8 -37 5 -3 5 -14 2 -23 -7 -9 -10 -13 -17
-8 -17 4 0 1 -5 -7 -10 -10 -7 4 -8 45 -5 63 4 78 0 88 -25 3 -8 5 15 4 52 -1
37 2 70 6 74 4 4 7 -32 7 -79 0 -52 4 -87 10 -87 6 0 8 15 4 38 -5 34 -4 37
20 38 28 2 33 -5 14 -24 -9 -9 -8 -12 5 -12 9 0 17 5 17 12 0 6 9 3 20 -7 17
-15 20 -16 20 -3 0 9 -6 18 -14 21 -15 6 -28 67 -14 67 18 0 -4 21 -41 40 -21
10 -41 16 -45 13 -3 -4 -6 -1 -6 6 0 8 6 11 16 7 9 -3 22 -6 29 -6 41 0 119
-103 126 -165 l4 -30 -87 -3 c-78 -2 -88 -1 -88 15 0 16 -1 16 -12 0 -10 -12
-33 -17 -98 -20 l-85 -3 92 -2 c78 -2 92 -5 96 -20 4 -16 5 -16 6 1 1 16 10
17 89 15 l87 -3 -4 -30 c-1 -16 -10 -43 -18 -60 -20 -39 -73 -95 -90 -95 -8 0
-18 -10 -24 -22 l-10 -23 5 23 c3 16 -1 22 -15 22 -27 0 -24 20 4 21 57 3 62
5 61 22 -1 9 3 17 9 17 6 0 7 3 4 6 -4 4 -14 1 -23 -7 -13 -11 -18 -11 -21 -1
-7 18 -21 15 -28 -8 -9 -28 -25 -25 -25 5 0 19 5 25 21 25 11 0 29 5 40 10 10
6 19 7 19 3 0 -4 11 -8 25 -8 27 0 35 21 9 27 -13 3 -13 5 0 23 14 17 17 18
26 5 8 -12 10 -11 10 7 0 17 -5 20 -22 16 -19 -4 -20 -3 -8 6 21 15 -4 15 -32
0 -12 -7 -23 -7 -27 -2 -11 17 -50 10 -48 -8 1 -10 6 -17 11 -16 5 1 12 -7 14
-17 3 -15 0 -17 -13 -12 -15 5 -16 4 -5 -9 10 -12 10 -15 -3 -15 -8 0 -17 6
-19 12 -3 7 -6 -11 -7 -40 -1 -31 -8 -60 -15 -68 -15 -14 -46 -9 -46 8 0 5
-10 8 -22 6 -16 -2 -22 -9 -20 -22 3 -14 -1 -17 -13 -12 -12 4 -16 1 -13 -15
2 -15 17 -27 48 -39 52 -20 65 -52 31 -77 -27 -18 -26 -30 2 -43 21 -11 21
-11 3 4 -16 13 -17 19 -7 29 10 10 15 8 26 -7 13 -17 14 -17 12 10 -1 20 3 29
13 29 10 0 14 -9 13 -29 -2 -28 -2 -28 16 -10 13 14 16 25 10 40 -7 19 -3 23
23 28 41 8 137 106 167 171 13 27 26 75 28 107 6 57 6 57 -28 72 -19 8 -28 15
-21 15 15 1 16 26 1 53 -11 21 -12 21 -25 3 -12 -16 -14 -16 -14 -3 0 9 9 20
20 23 29 9 25 30 -16 75 -28 31 -33 43 -26 57 6 10 7 26 1 40 -5 13 -5 23 0
23 4 0 14 12 21 28 8 15 21 35 29 45 12 15 13 20 2 26 -11 7 -11 10 0 14 12 4
11 7 -1 16 -10 7 -11 11 -2 11 6 0 12 5 12 11 0 6 -7 9 -15 5 -8 -3 -15 -1
-15 4 0 6 5 10 11 10 5 0 7 5 4 10 -5 8 -12 7 -22 -2 -14 -11 -15 -10 -9 10 8
23 -8 32 -17 10 -3 -8 -6 -6 -6 5 -1 22 -21 23 -21 0 0 -15 -2 -14 -15 3 -14
18 -14 18 -15 -5 0 -24 0 -24 -15 -5 -14 18 -14 18 -15 -4 0 -19 -2 -21 -14
-10 -8 7 -12 16 -9 21 2 4 -12 7 -31 7 -25 0 -40 -7 -52 -22 -9 -14 -14 -16
-11 -6 8 22 -3 30 -20 16 -8 -6 -13 -7 -11 -2 2 5 -1 9 -7 9 -5 0 -9 -3 -8 -7
2 -5 -2 -8 -7 -8 -6 0 -10 7 -10 16 0 11 -5 14 -16 10 -9 -3 -20 -6 -26 -6 -6
0 -7 -7 -4 -16 7 -18 -11 -47 -24 -39 -5 3 -11 1 -15 -5 -3 -5 1 -10 9 -10 9
0 16 -9 16 -20 0 -12 -7 -20 -17 -20 -12 0 -14 -3 -7 -10 16 -16 43 -2 37 19
-3 10 6 30 20 46 l24 28 51 -18 c35 -13 52 -25 55 -39 3 -13 5 -8 6 12 1 22
-3 31 -10 26 -7 -4 -10 -1 -7 7 6 18 50 18 56 0 3 -8 0 -11 -7 -7 -7 5 -11 -4
-10 -26 1 -20 3 -25 6 -12 4 19 23 29 90 49 28 8 63 -25 63 -60 0 -14 5 -25
10 -25 6 0 10 -4 10 -10 0 -5 -8 -6 -17 -3 -13 5 -15 2 -10 -11 6 -14 3 -17
-9 -12 -12 4 -14 1 -9 -14 5 -15 2 -20 -13 -20 -21 0 -46 23 -36 33 3 3 12 3
20 0 9 -3 14 2 14 17 0 15 -5 20 -14 17 -10 -4 -14 1 -13 18 2 29 -17 34 -21
5 -2 -11 -10 -20 -18 -20 -8 0 -14 -9 -14 -20 0 -14 5 -18 16 -13 12 4 15 2
12 -8 -3 -8 -17 -14 -33 -14 -16 0 -30 6 -33 14 -3 10 0 12 12 8 11 -4 16 -1
16 9 0 11 -5 14 -16 10 -12 -4 -15 -2 -10 9 4 10 -1 15 -15 15 -11 0 -17 -4
-14 -10 3 -5 1 -10 -4 -10 -6 0 -11 -7 -11 -16 0 -9 5 -12 11 -8 7 4 10 1 7
-7 -6 -18 -60 -18 -66 0 -3 10 0 12 11 8 20 -8 33 11 19 25 -8 8 -16 7 -28 -3
-16 -13 -16 -12 -6 8 13 24 6 56 -12 50 -6 -2 -10 -16 -9 -30 1 -16 -3 -26
-10 -24 -7 1 -12 -5 -12 -13 0 -8 6 -15 14 -15 8 0 16 -5 18 -12 6 -16 -36
-28 -50 -14 -8 8 -8 11 2 11 7 0 9 5 6 10 -4 6 -11 8 -16 5 -5 -4 -9 1 -9 9 0
9 -4 16 -10 16 -14 0 -12 -16 5 -50 13 -25 19 -28 52 -25 32 4 34 3 8 -3 -36
-9 -59 -57 -35 -72 23 -14 -3 -34 -45 -36 -30 -1 -35 3 -41 30 -3 17 -12 41
-20 53 -13 20 -12 22 3 16 16 -6 16 -5 -1 22 -14 21 -16 30 -7 33 8 3 3 14
-15 33 -18 19 -23 29 -13 29 10 1 8 5 -6 16 -11 8 -21 19 -21 24 -1 6 -2 15
-3 21 0 5 -9 9 -18 8 -29 -4 -73 12 -73 26 0 8 -5 17 -11 21 -9 5 -10 -1 -5
-20 5 -20 3 -26 -9 -26 -9 0 -14 4 -11 9 3 5 -1 14 -9 21 -14 11 -14 15 2 32
16 18 16 18 0 12 -10 -3 -17 -1 -17 5 0 14 -17 14 -25 1z"/>
<path d="M2999 1085 c-15 -8 -34 -30 -43 -49 -54 -114 49 -232 158 -181 20 10
43 30 51 46 31 58 12 149 -37 183 -28 20 -94 20 -129 1z m104 -42 c51 -57 24
-153 -43 -153 -36 0 -60 32 -60 78 0 76 61 121 103 75z"/>
<path d="M3232 989 c3 -102 5 -112 27 -130 28 -23 62 -24 101 -4 18 9 31 11
35 5 3 -6 15 -10 26 -10 18 0 19 8 19 125 l0 125 -25 0 c-25 0 -25 0 -25 -93
0 -89 -1 -94 -24 -107 -32 -17 -72 -6 -80 22 -3 13 -6 58 -6 101 0 76 0 77
-26 77 l-26 0 4 -111z"/>
<path d="M3500 975 l0 -125 25 0 c25 0 25 1 25 89 0 96 8 114 55 114 22 0 45
21 45 41 0 12 -57 5 -78 -10 -20 -14 -23 -14 -28 0 -3 9 -15 16 -25 16 -18 0
-19 -9 -19 -125z"/>
<path d="M3932 1093 c-7 -3 -19 -18 -27 -33 -22 -43 -6 -74 52 -102 34 -16 48
-29 48 -43 0 -18 -6 -20 -58 -19 -53 1 -58 0 -55 -19 2 -14 14 -24 37 -30 80
-20 145 22 132 85 -5 27 -16 38 -56 59 -34 17 -50 32 -50 45 0 16 7 19 51 18
41 -1 51 2 51 15 0 9 -5 19 -11 23 -12 9 -94 9 -114 1z"/>
<path d="M1160 1063 c0 -12 6 -24 13 -27 9 -5 9 -7 -1 -12 -7 -3 -18 -11 -25
-18 -6 -6 -26 -22 -44 -34 -35 -25 -37 -60 -3 -42 24 13 30 13 30 0 0 -5 -7
-10 -15 -10 -19 0 -19 -7 0 -27 14 -14 18 -13 38 11 17 19 28 24 46 19 17 -4
28 -1 37 12 12 17 14 17 14 2 0 -19 -76 -71 -101 -70 -12 1 -15 -5 -11 -23 5
-27 22 -43 22 -21 0 8 7 20 15 27 12 10 15 10 15 -3 0 -22 26 -41 34 -25 3 7
4 -2 1 -19 -3 -25 -1 -33 11 -33 8 0 13 4 10 8 -2 4 4 13 15 20 17 11 19 9 19
-13 0 -14 -5 -25 -11 -25 -5 0 -7 -4 -4 -10 3 -5 11 -10 16 -10 6 0 7 5 4 10
-3 6 1 10 10 10 10 0 13 -5 9 -12 -5 -7 -3 -8 5 -4 7 5 10 15 7 23 -4 11 -2
13 9 9 12 -4 15 2 15 29 0 25 4 35 16 35 8 0 13 4 10 9 -3 5 -7 30 -8 55 -1
33 -8 54 -24 71 -12 13 -20 26 -18 28 3 2 -10 10 -28 17 -18 8 -42 22 -52 33
-13 13 -21 16 -24 9 -6 -18 -30 -14 -41 6 -9 15 -10 15 -11 -5z"/>
<path d="M1111 833 c-9 -16 -12 -16 -21 -3 -8 13 -11 11 -16 -8 -4 -13 -12
-21 -19 -18 -7 2 -18 -1 -24 -7 -8 -8 -17 -7 -36 3 -19 10 -30 11 -50 2 -35
-16 -32 -35 4 -27 22 5 30 2 36 -12 16 -36 14 -51 -5 -56 -11 -3 -20 -12 -20
-20 0 -27 50 -104 75 -115 33 -15 31 -16 31 16 0 24 -3 28 -21 24 -16 -3 -26
5 -40 32 -11 19 -16 38 -12 42 3 4 11 -4 16 -18 11 -30 30 -39 62 -31 18 5 21
3 16 -11 -4 -9 -3 -15 2 -12 13 8 112 -45 105 -55 -3 -5 -2 -15 3 -21 5 -9 10
-3 15 17 4 17 5 -3 3 -45 -3 -41 -1 -82 4 -90 6 -9 6 -19 0 -26 -5 -7 -9 -16
-8 -20 1 -5 -1 -17 -6 -27 -8 -19 10 -47 30 -47 7 0 16 -11 19 -25 4 -14 11
-25 17 -25 6 0 0 18 -12 39 -13 23 -20 49 -17 64 4 18 1 24 -9 20 -7 -3 -13
-1 -13 4 0 21 13 20 47 -3 20 -13 42 -24 49 -24 9 0 14 -12 14 -34 0 -19 5
-38 10 -41 12 -7 4 -25 -11 -25 -5 0 -9 6 -9 13 0 8 -7 14 -15 14 -8 0 -15 -7
-15 -14 0 -8 4 -12 9 -8 19 11 21 -15 2 -34 -10 -10 -23 -27 -28 -36 -13 -23
-33 -16 -134 51 -46 30 -94 57 -106 60 -14 4 -23 14 -23 26 0 16 3 18 14 9 10
-8 29 -4 79 16 l66 28 -5 36 c-5 32 -3 38 15 44 15 4 21 15 21 34 0 52 -38 66
-84 30 -29 -23 -33 -55 -11 -85 25 -33 18 -52 -22 -63 -21 -6 -48 -11 -60 -11
-13 0 -37 -14 -55 -30 -18 -17 -25 -27 -15 -24 9 3 17 1 17 -4 0 -6 -10 -12
-22 -14 -15 -2 -31 -19 -47 -47 l-24 -43 26 17 c25 16 27 16 56 -6 33 -24 35
-28 25 -53 -8 -22 -18 -20 -64 9 -22 14 -40 21 -40 15 0 -5 14 -16 30 -25 41
-21 38 -32 -12 -47 -88 -26 -358 -9 -358 22 0 5 14 17 31 25 17 9 29 19 26 22
-5 5 -58 -25 -68 -40 -3 -4 -14 2 -24 13 -18 20 -18 21 10 50 16 17 34 29 40
26 48 -20 47 -20 23 20 -28 50 -39 56 -59 38 -14 -13 -18 -13 -30 2 -12 15
-11 16 9 10 17 -6 22 -3 22 9 0 11 5 15 15 11 21 -8 19 14 -2 29 -12 9 -23 10
-36 3 -14 -7 -29 -3 -61 16 -56 33 -63 52 -31 86 34 36 32 64 -8 94 -42 32
-54 32 -69 1 -9 -20 -8 -32 8 -61 19 -36 19 -36 -2 -52 -20 -16 -20 -17 -2
-54 11 -23 23 -35 32 -32 8 3 16 -3 19 -15 4 -15 12 -20 29 -19 41 5 25 -20
-37 -58 -108 -67 -160 -94 -179 -94 -18 0 -18 -1 -2 -19 10 -11 31 -24 47 -30
30 -10 59 2 181 76 29 17 67 35 83 39 l30 7 -27 -26 c-32 -30 -33 -35 -14 -63
8 -11 18 -36 23 -55 18 -69 115 -99 282 -86 94 8 135 21 148 50 5 12 19 42 31
67 27 56 27 65 0 84 -12 9 -19 19 -15 23 9 9 66 -18 143 -68 70 -45 111 -60
139 -49 32 13 97 80 91 95 -2 7 4 15 15 18 14 4 19 15 20 39 1 18 0 38 -1 43
-1 6 -2 20 -2 33 0 15 -9 27 -23 32 -28 11 -39 40 -26 71 5 13 12 33 16 44 6
17 10 13 29 -25 15 -33 28 -46 46 -48 25 -4 25 -3 5 13 -20 16 -19 16 6 11 17
-4 31 0 39 9 7 8 8 15 3 15 -6 0 -8 11 -5 25 7 39 -4 67 -45 110 -21 21 -46
51 -55 65 -32 45 -18 100 24 100 14 0 18 -8 18 -35 0 -32 4 -37 50 -60 65 -33
72 -31 30 8 -20 17 -31 29 -26 25 20 -15 24 -7 14 27 -8 24 -20 37 -41 45 -44
15 -61 13 -85 -13 -40 -42 -28 -81 48 -163 54 -57 66 -84 50 -114 -27 -51 -83
-5 -85 71 -1 51 -19 88 -21 43 -1 -13 2 -24 7 -24 5 0 9 -7 9 -16 0 -12 -8 -8
-30 13 -16 15 -30 33 -30 40 0 6 -6 14 -12 16 -10 4 -9 8 2 16 13 9 13 11 -3
11 -26 0 -32 28 -12 50 10 11 16 22 14 23 -2 2 -39 23 -81 48 -60 34 -76 48
-72 62 3 9 3 17 0 17 -3 0 -10 -8 -15 -17z"/>
<path d="M2770 621 c0 -201 -4 -191 78 -191 59 0 108 29 128 75 40 97 -18 192
-114 183 l-37 -3 -3 58 c-3 53 -5 57 -27 57 l-25 0 0 -179z m142 2 c20 -18 25
-82 7 -114 -12 -24 -55 -42 -80 -34 -16 5 -19 17 -19 79 0 40 3 76 7 79 12 13
67 7 85 -10z"/>
<path d="M3820 631 c0 -141 3 -172 16 -185 17 -17 69 -22 78 -7 10 15 -4 39
-25 44 -18 5 -19 15 -19 161 l0 156 -25 0 -25 0 0 -169z"/>
<path d="M1905 784 c-5 -1 -22 -5 -37 -8 -52 -12 -70 -83 -31 -127 12 -14 9
-21 -22 -52 -37 -37 -46 -78 -25 -118 27 -49 129 -65 188 -29 32 20 32 20 65
0 36 -22 87 -27 87 -7 0 19 -13 32 -35 35 -41 8 -46 22 -20 60 30 43 31 58 8
67 -12 4 -22 0 -28 -11 -5 -9 -18 -26 -27 -38 l-17 -21 -38 37 -37 38 32 27
c40 35 51 80 25 111 -17 21 -67 42 -88 36z"/>
<path d="M2210 760 c0 -17 7 -20 50 -20 l49 0 3 -152 3 -153 28 -3 27 -3 0
155 0 156 49 0 c40 0 50 3 54 20 5 19 0 20 -129 20 -127 0 -134 -1 -134 -20z"/>
<path d="M2548 674 c-16 -8 -28 -10 -28 -4 0 5 -11 10 -25 10 l-25 0 0 -126 0
-125 28 3 c27 3 27 3 30 93 3 96 12 115 58 115 20 0 34 17 34 41 0 14 -42 10
-72 -7z"/>
<path d="M3385 673 c-20 -11 -30 -12 -33 -4 -2 6 -14 11 -28 11 l-23 0 2 -122
2 -123 28 -3 27 -3 0 94 c0 91 1 94 25 105 33 15 62 15 71 0 6 -9 13 -100 14
-185 0 -7 12 -13 26 -13 l26 0 -4 111 c-3 102 -5 112 -27 130 -28 23 -66 24
-106 2z"/>
<path d="M3603 680 c-22 -9 -30 -30 -18 -42 4 -3 24 -2 47 4 33 7 44 6 59 -8
29 -27 24 -44 -15 -44 -46 0 -94 -18 -106 -40 -41 -76 47 -153 120 -107 17 10
22 9 29 -1 10 -17 46 -12 45 6 -1 6 -2 53 -2 102 -2 82 -4 93 -27 115 -26 27
-87 33 -132 15z"/>
<path d="M3985 665 c-25 -25 -32 -59 -16 -84 5 -7 30 -25 57 -40 26 -14 49
-32 52 -38 7 -22 -44 -38 -82 -26 -29 9 -36 8 -41 -5 -9 -25 23 -42 77 -42 39
0 54 5 73 25 46 45 29 93 -45 129 -24 11 -46 27 -48 34 -5 18 37 30 75 22 30
-7 33 -6 33 15 0 27 -17 35 -71 35 -29 0 -47 -7 -64 -25z"/>
<path d="M3040 581 c0 -84 3 -102 21 -125 23 -29 60 -34 104 -14 19 9 28 9 37
0 7 -7 20 -12 30 -12 16 0 18 11 18 125 l0 125 -30 0 -30 0 0 -94 0 -94 -29
-10 c-22 -8 -34 -7 -50 4 -19 14 -21 25 -21 105 0 88 0 89 -25 89 -25 0 -25 0
-25 -99z"/>
<path d="M1850 363 c-36 -13 -60 -47 -60 -85 0 -43 14 -60 95 -111 55 -35 66
-59 39 -88 -19 -22 -61 -25 -99 -7 -22 10 -28 9 -36 -3 -14 -22 -11 -29 18
-40 69 -26 154 -6 179 43 29 57 0 105 -95 159 -43 24 -55 49 -36 75 10 14 22
16 69 11 50 -5 56 -4 56 13 0 11 -9 24 -19 30 -21 10 -85 12 -111 3z"/>
<path d="M2081 249 c-59 -55 -53 -168 11 -213 43 -30 165 -15 152 19 -4 10
-17 12 -55 8 -52 -6 -75 4 -89 42 -7 19 -3 20 74 25 69 4 81 8 80 23 -1 9 -2
26 -3 36 0 11 -13 33 -27 50 -22 27 -33 31 -73 31 -34 0 -53 -6 -70 -21z"/>
<path d="M2300 145 l0 -125 30 0 30 0 0 95 c0 93 1 96 26 105 14 6 30 7 36 4
6 -4 14 0 19 7 17 27 9 39 -24 39 -18 0 -39 -6 -46 -12 -11 -10 -14 -10 -18 0
-3 6 -16 12 -29 12 l-24 0 0 -125z"/>
<path d="M2481 262 c2 -5 24 -61 49 -125 38 -100 48 -117 66 -117 22 0 34 23
103 198 l21 52 -25 0 c-28 0 -43 -24 -71 -112 -10 -32 -20 -58 -24 -58 -3 0
-19 37 -36 83 -27 73 -34 82 -58 85 -16 2 -27 -1 -25 -6z"/>
<path d="M2884 236 c-65 -65 -42 -193 39 -212 64 -15 132 2 121 31 -4 10 -17
12 -53 8 -43 -5 -50 -3 -69 22 -31 39 -29 89 4 122 22 22 31 25 70 19 38 -5
44 -3 44 13 0 23 -19 31 -77 31 -38 0 -50 -5 -79 -34z"/>
<path d="M3114 247 c-22 -19 -28 -34 -32 -82 -8 -99 31 -145 123 -145 56 0 75
8 75 30 0 16 -6 18 -53 13 -50 -5 -55 -3 -75 22 -12 15 -22 32 -22 36 0 5 37
9 81 9 l82 0 -6 47 c-7 63 -40 93 -102 93 -32 0 -52 -7 -71 -23z"/>
</g>
</svg>
