<svg xmlns="http://www.w3.org/2000/svg" fill="none" viewBox="0.28 0.19 98.53 18.47">
<path d="M12.8755 9.12221L12.6795 7.96521H10.75L10.8141 15.477H12.8818L12.8755 11.902C12.8755 10.73 13.3579 9.88854 14.6241 9.88854H15.4683V7.96521H15.1065C13.9005 7.96521 13.2976 8.43102 12.8755 9.12221Z" fill="black"/>
<path d="M60.8833 9.12221L60.6873 7.96521H58.7578V15.477H60.8833V11.902C60.8833 10.73 61.3657 9.88854 62.6319 9.88854H63.4761V7.96521H63.1143C61.9083 7.96521 61.3054 8.43102 60.8833 9.12221Z" fill="black"/>
<path d="M19.6541 7.85733C17.3113 7.85733 15.7637 9.38497 15.7637 11.7353C15.7637 14.0856 17.2812 15.5845 19.8023 15.5845C21.821 15.5845 23.1325 14.4087 23.3687 12.9399H21.3198C21.1427 13.6448 20.5535 14.0117 19.7131 14.0117C18.6667 14.0117 17.9746 13.3656 17.9293 12.2925V12.1898H23.4264C23.4704 11.9544 23.4855 11.7052 23.4855 11.4849C23.4566 9.26602 21.9228 7.85608 19.6541 7.85608V7.85733ZM17.9746 10.84C18.0927 9.94344 18.7697 9.4 19.6692 9.4C20.6126 9.4 21.2457 9.91464 21.3939 10.84H17.9746Z" fill="black"/>
<path d="M30.1555 5.71499L30.1254 8.69765C29.6279 8.06656 28.8591 7.64583 27.7889 7.64583C25.7237 7.64583 24.2012 9.19351 24.2012 11.5826C24.2012 13.9718 25.7237 15.5495 27.8039 15.5495C28.9194 15.5495 29.6731 15.0536 30.1857 14.3925L30.3967 15.4594H32.2508L32.2257 4.83972L30.1555 5.71499ZM28.2712 13.8215C27.1105 13.8215 26.3719 12.92 26.3719 11.5977C26.3719 10.2754 27.1105 9.37382 28.2712 9.37382C29.432 9.37382 30.1555 10.2904 30.1555 11.6127C30.1555 12.935 29.432 13.8215 28.2712 13.8215Z" fill="black"/>
<path d="M35.7187 7.73608H33.5781V15.4595H35.7187V7.73608Z" fill="black"/>
<path d="M66.4374 7.77344H64.2969V15.4968H66.4374V7.77344Z" fill="black"/>
<path d="M39.2427 12.9502V9.56937H41.0214V7.78127H39.2427V5.61753L37.1172 4.88501V13.2958C37.1172 14.7684 37.8558 15.5046 39.3331 15.5046H41.0667V13.7165H40.0115C39.4537 13.7165 39.2427 13.4912 39.2427 12.9502Z" fill="black"/>
<path d="M45.5535 10.8751C44.4606 10.7424 43.8099 10.6835 43.8099 10.1088C43.8099 9.62293 44.3413 9.32867 45.154 9.32867C45.9668 9.32867 46.5723 9.69681 46.6313 10.3004H48.6262C48.5232 8.75393 47.1187 7.85613 45.0812 7.85613C43.1316 7.8411 41.8163 8.82781 41.8163 10.3304C41.8163 11.833 43.1906 12.2888 44.9631 12.4954C46.1891 12.6569 46.7067 12.702 46.7067 13.3206C46.7067 13.8503 46.1753 14.1307 45.3035 14.1307C44.2848 14.1307 43.7082 13.6737 43.6341 13.0113H41.6543C41.7435 14.6316 43.1755 15.6183 45.2885 15.6183C47.4014 15.6183 48.7455 14.6617 48.7455 13.1591C48.7455 11.4511 47.2971 11.0529 45.5548 10.8764L45.5535 10.8751Z" fill="black"/>
<path d="M54.1872 7.7361C53.0867 7.7361 52.3029 8.23196 51.8054 8.8931L51.5944 7.82626H49.7402V18.3983H51.8657V14.5717C52.3632 15.2028 53.132 15.6385 54.2022 15.6385C56.2825 15.6385 57.7899 14.1059 57.7899 11.7017C57.7899 9.29755 56.2825 7.71982 54.1872 7.73485V7.7361ZM53.7198 13.9118C52.5591 13.9118 51.8356 12.9952 51.8356 11.6729C51.8356 10.3506 52.5591 9.46409 53.7198 9.46409C54.8806 9.46409 55.6343 10.3657 55.6343 11.6729C55.6343 12.9802 54.8806 13.9118 53.7198 13.9118Z" fill="black"/>
<path d="M72.1813 7.66333C70.9904 7.66333 70.2819 8.11411 69.7845 8.71515L69.5885 7.75349H67.7344V15.4769H69.8599V11.525C69.8599 10.1877 70.493 9.40635 71.5934 9.40635C72.6938 9.40635 73.1611 10.0975 73.1611 11.4048V15.4769H75.2866V11.1944C75.2866 8.54986 73.8545 7.66333 72.1813 7.66333Z" fill="black"/>
<path d="M82.2664 7.84127L82.0855 8.90811C81.573 8.23194 80.7891 7.73608 79.6736 7.73608C77.6084 7.73608 76.0859 9.26874 76.0859 11.6278C76.0859 13.9869 77.6084 15.5346 79.6887 15.5196C80.774 15.5196 81.5428 15.0988 82.0554 14.4527V15.2641C82.0554 16.4662 81.3469 17.0522 80.156 17.0522C79.1762 17.0522 78.5883 16.6315 78.3923 15.8952H76.2518C76.3573 17.6833 77.8346 18.66 79.9902 18.66C82.9598 18.66 84.1356 17.2475 84.1356 15.3392V7.84127H82.2664ZM80.156 13.8216C78.9953 13.8216 78.2566 12.9351 78.2566 11.6428C78.2566 10.3506 78.9953 9.44905 80.156 9.44905C81.3167 9.44905 82.0403 10.3656 82.0403 11.6579C82.0403 12.9501 81.3167 13.8216 80.156 13.8216Z" fill="black"/>
<path d="M34.6482 4.80469C33.9548 4.80469 33.4121 5.31557 33.4121 6.00677C33.4121 6.69796 33.9548 7.19382 34.6482 7.19382C35.3416 7.19382 35.8843 6.68294 35.8843 6.00677C35.8843 5.3306 35.3416 4.80469 34.6482 4.80469Z" fill="black"/>
<path d="M65.283 4.88855C64.5895 4.88855 64.0469 5.39943 64.0469 6.09063C64.0469 6.78183 64.5895 7.27768 65.283 7.27768C65.9764 7.27768 66.5191 6.7668 66.5191 6.09063C66.5191 5.41446 65.9764 4.88855 65.283 4.88855Z" fill="black"/>
<path d="M5.18473 7.00479C6.41454 7.00479 7.24991 7.75234 7.49863 8.89557H9.69446C9.44573 6.66671 7.73228 5.14282 5.30155 5.14282C2.1975 5.14282 0.279297 7.2089 0.279297 10.3619C0.279297 13.5148 2.1975 15.5809 5.30155 15.5809C7.73228 15.5809 9.44573 14.0557 9.69446 11.8281H7.49863C7.24991 12.9714 6.41454 13.7189 5.18473 13.7189C3.51525 13.7189 2.52034 12.3265 2.52034 10.3619C2.52034 8.3972 3.5165 7.00479 5.18473 7.00479Z" fill="black"/>
<path fill-rule="evenodd" clip-rule="evenodd" d="M98.367 7.0396H98.3663L98.3589 7.03738C98.3522 7.03516 98.3411 7.0322 98.3263 7.02702C98.2968 7.01741 98.2516 7.00336 98.1932 6.98413C98.0764 6.94494 97.9063 6.88578 97.7 6.80592C97.4027 6.69056 97.0337 6.53527 96.6403 6.33857C97.084 5.63607 97.3953 4.75684 97.5114 3.70013C97.6002 2.88818 97.3946 2.02669 96.9539 1.36043C96.5094 0.686027 95.7818 0.16026 94.8441 0.186881C93.8998 0.214242 93.2521 0.772545 92.8993 1.46469C92.557 2.13614 92.4704 2.95917 92.5924 3.68682C92.8084 4.96907 93.746 5.93852 94.7192 6.62771C94.4685 6.80888 94.203 6.94494 93.9353 7.04034C92.9045 7.40638 91.8093 7.18675 91.1165 6.57299C91.6614 5.83425 92.06 4.86998 92.1894 3.69199C92.2486 3.15587 92.1369 2.38238 91.8271 1.71833C91.5165 1.05429 90.9249 0.345868 89.9481 0.280794C88.7664 0.201671 87.8591 0.967027 87.5418 2.01338C87.2261 3.05604 87.4856 4.34865 88.4514 5.50001C88.6703 5.7603 89.0585 5.79432 89.3188 5.57617C89.5791 5.35803 89.6131 4.96907 89.395 4.70877C88.6496 3.81992 88.5446 2.9503 88.7198 2.36981C88.8943 1.79228 89.3351 1.47357 89.8653 1.50906C90.2017 1.53125 90.4916 1.7701 90.7112 2.23966C90.9308 2.70997 90.9981 3.25718 90.9656 3.55741C90.6898 6.07458 89.0385 7.09284 87.9611 7.05734C86.8807 7.02185 85.6414 6.04796 85.6414 4.02845C85.6414 2.98431 85.895 2.30548 86.1228 1.90246C86.2381 1.69911 86.3491 1.56083 86.4252 1.478C86.4629 1.43659 86.4925 1.40923 86.5088 1.39444C86.5162 1.38779 86.5206 1.38409 86.5228 1.38261C86.789 1.17778 86.8423 0.796948 86.6412 0.52704C86.4378 0.254173 86.0525 0.197973 85.7797 0.401329V0.402068H85.7782L85.7752 0.405766C85.773 0.407245 85.7708 0.409463 85.7678 0.411681C85.7619 0.416118 85.756 0.421295 85.7479 0.42721C85.7323 0.439781 85.7139 0.45531 85.6909 0.476016C85.6458 0.515947 85.5874 0.572147 85.5208 0.644616C85.3863 0.790293 85.2177 1.00474 85.052 1.29757C84.7178 1.88546 84.4102 2.77356 84.4102 4.02845C84.4102 6.60626 86.0762 8.22719 87.9212 8.28783C88.7087 8.31371 89.5384 8.02901 90.2587 7.46331C91.3191 8.43425 92.9274 8.70489 94.3472 8.19983C94.8826 8.00979 95.3877 7.71252 95.8321 7.30729C96.3645 7.58903 96.8681 7.80421 97.2548 7.95359C97.4811 8.04084 97.6689 8.10666 97.802 8.15103C97.8686 8.17321 97.9211 8.19022 97.9581 8.20131C97.9766 8.20723 97.9914 8.21166 98.001 8.21462L98.0135 8.21832H98.0172L98.0187 8.2198C98.3448 8.31593 98.6872 8.12884 98.7826 7.80273C98.878 7.47663 98.6916 7.13499 98.3655 7.03886L98.367 7.0396ZM96.2876 3.56554C96.1885 4.4677 95.9282 5.1776 95.5733 5.72185C94.6682 5.11178 93.9531 4.3553 93.8059 3.48272C93.7201 2.97396 93.7911 2.42527 93.9952 2.02448C94.189 1.64365 94.4766 1.42994 94.8782 1.41811C95.2864 1.40628 95.6517 1.62368 95.926 2.03853C96.2048 2.46077 96.3453 3.03312 96.2869 3.56554H96.2876Z" fill="#7D2DFF"/>
</svg>