<svg xmlns:xlink="http://www.w3.org/1999/xlink" xmlns="http://www.w3.org/2000/svg" fill="none" viewBox="0.41 0 126.17 45.12">
                <g clip-path="url(#clip0_34_8451)">
                    <path class="logo-top" d="M20.9482 0.648885H20.9426L20.5978 0.448498C19.5686 -0.149499 17.8846 -0.149499 16.8554 0.448498L16.5105 0.648885H16.5091L16.2759 0.785206L15.9522 0.973306H15.9542L1.28906 9.54783L18.7287 19.7445L36.1682 9.54783L20.9482 0.648885Z" fill="#0b70c0"/>
                    <path class="logo-left" d="M0.412109 12.6462V31.9152L0.413207 31.9178L0.412475 32.4781C0.410403 34.0875 1.32987 35.921 2.45577 36.5527L3.06705 36.8956L13.1979 42.8843L16.0447 44.5671H16.05L16.3949 44.7675C16.6728 44.929 17.0002 45.043 17.3478 45.1173V22.6575L0.412109 12.6462Z" fill="#0b70c0"/>
                    <path class="logo-right" d="M37.0832 12.6462V31.9152L37.0821 31.9178L37.0828 32.4781C37.0849 34.0875 36.1654 35.921 35.0395 36.5527L34.4282 36.8956L24.2974 42.8843L21.4506 44.5671H21.4453L21.1004 44.7675C20.8225 44.929 20.4951 45.043 20.1475 45.1173V26.1649V22.6575L37.0832 12.6462Z" fill="#0b70c0"/>

                </g>
                <g class="logo-title" fill="#212628">
                    <path d="M63.5864 30.9469C63.2855 30.6269 62.9316 30.4675 62.5245 30.4683C62.117 30.4697 61.723 30.6085 61.3423 30.886C60.9988 31.1586 60.6361 31.3987 60.2582 31.6131C60.1287 31.6878 59.9966 31.756 59.864 31.8234C59.8164 31.8474 59.7699 31.8732 59.7218 31.8964C59.219 32.1403 58.6953 32.3337 58.1497 32.4742C57.4048 32.6666 56.6429 32.7622 55.8643 32.7622C54.6496 32.7622 53.5215 32.5642 52.4792 32.1683C51.4365 31.7724 50.5317 31.1729 49.7643 30.3688C48.9964 29.5653 48.395 28.5817 47.9601 27.4177C47.5246 26.2542 47.3072 24.9163 47.3072 23.4048C47.3072 22.0371 47.5075 20.7899 47.9086 19.6617C48.3092 18.5343 48.888 17.5564 49.6441 16.7285C50.4001 15.9008 51.299 15.2653 52.3418 14.8211C53.384 14.3774 54.5584 14.1552 55.8644 14.1552C56.6891 14.1552 57.4677 14.2632 58.2012 14.4792C58.9341 14.6951 59.6327 14.9831 60.2975 15.3429C60.6869 15.5589 61.0821 15.6432 61.4832 15.5949C61.8838 15.547 62.2102 15.3429 62.4626 14.9831C62.8063 14.5276 62.9378 14.0237 62.8577 13.4715C62.7772 12.9198 62.4852 12.512 61.9815 12.2478C61.0879 11.7203 60.1198 11.312 59.0775 11.0241C58.0347 10.7363 56.964 10.5923 55.8644 10.5923C54.0998 10.5923 52.4734 10.9105 50.9843 11.546C49.4947 12.182 48.1947 13.0699 47.0838 14.2093C45.9722 15.3491 45.1131 16.7049 44.5063 18.2761C43.8991 19.8479 43.5957 21.5575 43.5957 23.4048C43.5957 25.4685 43.9222 27.3041 44.5751 28.9113C45.228 30.5189 46.127 31.8747 47.2728 32.9781C48.4182 34.082 49.724 34.9216 51.1905 35.4973C52.6564 36.0733 54.2147 36.3612 55.8644 36.3612C56.5973 36.3612 57.319 36.2892 58.0293 36.1452C58.7392 36.0013 59.4384 35.8095 60.1256 35.5693C60.813 35.3298 61.4429 35.0419 62.0159 34.7056C62.0418 34.6914 62.065 34.6754 62.0898 34.6604C62.607 34.367 63.0835 34.0484 63.5146 33.7015C63.9571 33.3662 64.194 32.934 64.2253 32.4045C64.2567 31.8756 64.0436 31.3894 63.5864 30.9469Z" fill="#212628"/>
                    <path d="M84.073 10.7727C84.5768 10.7727 84.9778 10.9469 85.2758 11.2946C85.5734 11.6425 85.7225 12.0807 85.7225 12.6082V26.2484C85.7225 28.1683 85.3215 29.8834 84.5199 31.3949C83.7177 32.9066 82.6178 34.0886 81.2207 34.9399C79.823 35.792 78.2078 36.2177 76.3751 36.2177C74.565 36.2177 72.9557 35.792 71.5467 34.9399C70.1376 34.0886 69.0261 32.9066 68.2131 31.3949C67.3997 29.8834 66.9932 28.1683 66.9932 26.2484V12.6082C66.9932 12.0807 67.1651 11.6425 67.5086 11.2946C67.8523 10.9469 68.2992 10.7727 68.8489 10.7727C69.284 10.7727 69.679 10.9469 70.0346 11.2946C70.3895 11.6425 70.5672 12.0807 70.5672 12.6082V26.2484C70.5672 27.5204 70.8362 28.63 71.3749 29.5774C71.913 30.5256 72.6291 31.269 73.5227 31.8088C74.4164 32.3487 75.3666 32.6186 76.3751 32.6186C77.4749 32.6186 78.4827 32.3487 79.3994 31.8088C80.3154 31.269 81.0542 30.5256 81.616 29.5774C82.1771 28.63 82.458 27.5204 82.458 26.2484V12.6082C82.458 12.0807 82.6007 11.6425 82.8875 11.2946C83.1737 10.9469 83.5688 10.7727 84.073 10.7727Z" fill="#212628"/>
                    <path d="M106.91 25.1864C106.405 24.2865 105.764 23.573 104.985 23.0449C104.475 22.6998 103.943 22.4225 103.389 22.2105C103.434 22.1884 103.481 22.1683 103.525 22.1452C104.475 21.6413 105.197 20.9519 105.69 20.0757C106.182 19.2001 106.429 18.2223 106.429 17.1426C106.429 15.0793 105.884 13.5076 104.796 12.4278C103.708 11.3481 102.11 10.8083 100.002 10.8083H91.4383C90.9571 10.8083 90.5447 10.9826 90.201 11.3302C89.8575 11.6782 89.6855 12.1163 89.6855 12.6438V34.1659C89.6855 34.6939 89.8575 35.132 90.201 35.4795C90.5447 35.8276 90.9571 36.0014 91.4383 36.0014H100.002C100.872 36.0014 101.76 35.8878 102.665 35.6595C103.57 35.4317 104.401 35.042 105.157 34.4897C105.913 33.9381 106.52 33.1761 106.978 32.2044C107.436 31.2327 107.666 30.0152 107.666 28.5514C107.666 27.2079 107.413 26.0861 106.91 25.1864ZM101.858 15.1811C102.43 15.7452 102.717 16.5909 102.717 17.7184C102.717 18.8222 102.402 19.6562 101.772 20.2197C101.142 20.7837 100.414 21.0778 99.5897 21.1015H93.397V14.3353H99.521C100.506 14.3353 101.285 14.6176 101.858 15.1811ZM102.855 31.5566C102.121 32.2168 101.159 32.5463 99.9677 32.5463H93.397V24.6285H99.7615C100.403 24.6285 101.044 24.7247 101.686 24.9164C102.327 25.1088 102.866 25.4804 103.301 26.0321C103.736 26.5843 103.954 27.4239 103.954 28.5514C103.954 29.8954 103.587 30.8969 102.855 31.5566Z" fill="#212628"/>
                    <path d="M112.978 10.8083H124.869C125.35 10.8083 125.757 10.9765 126.089 11.3121C126.421 11.6484 126.587 12.0679 126.587 12.5718C126.587 13.0756 126.421 13.4839 126.089 13.7955C125.757 14.1076 125.35 14.2633 124.869 14.2633H114.49L114.834 13.6515V21.7133L114.525 21.3534H123.322C123.804 21.3534 124.21 21.5216 124.542 21.8572C124.874 22.1935 125.041 22.6254 125.041 23.1529C125.041 23.6568 124.874 24.0651 124.542 24.3766C124.21 24.6887 123.804 24.8444 123.322 24.8444H114.593L114.834 24.5206V32.8342L114.593 32.5463H124.869C125.35 32.5463 125.757 32.7206 126.089 33.0681C126.421 33.4162 126.587 33.8184 126.587 34.2739C126.587 34.7777 126.421 35.1915 126.089 35.5155C125.757 35.8394 125.35 36.0014 124.869 36.0014H112.978C112.497 36.0014 112.085 35.8276 111.741 35.4795C111.398 35.132 111.226 34.6939 111.226 34.1659V12.6438C111.226 12.1163 111.398 11.6782 111.741 11.3302C112.085 10.9826 112.497 10.8083 112.978 10.8083Z" fill="#212628"/>
                </g>

            </svg>