<?xml version="1.0" encoding="utf-8"?>
<!-- Generator: Adobe Illustrator 19.2.1, SVG Export Plug-In . SVG Version: 6.00 Build 0)  -->
<svg version="1.1" id="layer" xmlns="http://www.w3.org/2000/svg" xmlns:xlink="http://www.w3.org/1999/xlink" x="0px" y="0px"
	 viewBox="0 0 652 652" style="enable-background:new 0 0 652 652;" xml:space="preserve">
<style type="text/css">
	.st0{fill:#4C12A1;}
	.st1{fill:#FFFFFF;}
</style>
<path class="st0" d="M583,325.6c0,138.1-115,250-256.7,250c-141.8,0.2-256.9-111.8-256.9-250c0-138.2,115-250,256.7-250
	C468,75.6,583,187.6,583,325.6L583,325.6z M583,325.6"/>
<path class="st1" d="M513.5,367.7c17,0,32.6-10.4,32.6-26.8c0-14.6-8.1-21-22.7-24.9l-7.4-2.1c-7.3-1.9-12.1-3.9-12.1-8.3
	c0-3.4,2.9-6.4,9.1-6.4c5.6,0,9.1,2.8,10.5,6.4l15.8-7.6c-5.6-10.6-17.1-14.4-26.8-14.4c-16.1,0-27.5,9.7-27.5,22.9
	c0,13.1,10,18.7,20.7,21.7l10.3,2.8c8.5,2.4,10.9,4.7,10.9,10.1c0,6.1-6.2,9.5-12.9,9.5c-7.3,0-14.5-3.9-14.5-11.1
	c0-0.9,0-1.2,0.2-2.4h-19.2c-0.4,1.8-0.4,2.4-0.4,3.3C479.9,356.5,493.9,367.7,513.5,367.7L513.5,367.7z M435.2,402.7
	c12.6,0,23.5-5.8,30.2-14.8c4.2-5.8,6.5-12.7,6.5-21.5v-81h-19v46.6c0,10.7-7.2,18.3-17.6,18.3c-10.1,0-17.6-7.1-17.6-18.3v-46.6
	h-19v47.8c0,22,16.1,34.6,35.7,34.6c10.9,0,19.4-3.9,25.7-9.7v1.2c-1.4,2.1-3.2,3.7-5.3,5.5c0,13.9-8.9,20.3-18.6,20.3
	c-10.3,0-16.1-5.1-17.9-12.5h-18.7C399.9,385.4,412.6,402.7,435.2,402.7L435.2,402.7z M343,365.8h19v-48.4c0-9.3,8-16.9,17.6-16.9
	c3.2,0,6.3,0.3,8.7,1.8v-18c-2.9-0.6-5.8-0.9-8.7-0.9c-9.8,0-18.5,3.6-25,9.9v-1.2c1.3-2.3,2.9-3.6,4.7-5v-1.6H343V365.8z
	 M285.6,365.8h19v-48.4c0-9.3,8-16.9,17.6-16.9c3.3,0,6.3,0.3,8.7,1.8v-18c-2.9-0.6-5.8-0.9-8.7-0.9c-9.8,0-18.5,3.6-25,9.9v-1.2
	c1.3-2.3,2.9-3.6,4.7-5v-1.6h-16.3V365.8z M237,367.7c9.8,0,18.5-4.6,25-10.4v1.2c-1.5,2.8-2.9,3.9-4.7,5.8v1.5h16.3v-80.5h-19v46.6
	c0,10.7-7.3,18.3-17.6,18.3c-9.9,0-17.7-7.2-17.7-18.3v-46.6h-19v47.8C200.3,354.1,214.6,367.7,237,367.7L237,367.7z M154.3,367.7
	c16.1,0,31.7-8.8,38.6-23.5l-16.8-8.5c-4,8.7-11.2,14.3-21.7,14.3c-13.8,0-23.6-10.2-23.6-24.5c0-14.1,9.8-24.5,23.6-24.5
	c10.5,0,17.9,5.7,21.7,14.3l16.8-8.5c-6.7-14.6-22.3-23.5-38.6-23.5c-24.1,0-43.5,19.1-43.5,42.2
	C110.8,348.7,130.1,367.7,154.3,367.7L154.3,367.7z M154.3,367.7"/>
</svg>
