<?xml version="1.0" encoding="utf-8"?>
<!-- Generator: Adobe Illustrator 19.0.0, SVG Export Plug-In . SVG Version: 6.00 Build 0)  -->
<svg version="1.1" id="layer" xmlns="http://www.w3.org/2000/svg" xmlns:xlink="http://www.w3.org/1999/xlink" x="0px" y="0px"
	 viewBox="-153 -46 652 652" style="enable-background:new -153 -46 652 652;" xml:space="preserve">
<style type="text/css">
	.st0{fill-rule:evenodd;clip-rule:evenodd;}
</style>
<path class="st0" d="M433.2,297.7h20.7v-1.6h-6.8v-13.6c2.7,0.3,5.4,0.4,8.1,0.1c1.5-0.2,3.1-0.5,4.1-0.7c1.1-0.2,1.6-0.4,2.2-0.6
	c0.6-0.2,1.1-0.4,1.7-0.7c0.5-0.2,1-0.5,1.5-0.8c0.5-0.3,0.9-0.6,1.3-0.9c0.4-0.3,0.8-0.7,1.1-1c0.3-0.4,0.6-0.8,0.9-1.2
	c0.7-1.4,0.9-3.2,0.2-4.9c-0.2-0.5-0.5-1-0.9-1.4c-0.3-0.4-0.7-0.8-1-1.1c-0.4-0.3-0.7-0.6-1.3-1c-0.6-0.4-1.3-0.8-2.1-1.1
	c-0.8-0.4-1.6-0.7-2.7-0.9c-1.1-0.3-2.5-0.6-3.8-0.8c-3.7-0.5-7.5-0.2-11.3-0.1h-12v1.6h6.8v29.4h-6.8V297.7z M447.1,266.7
	c1.9-0.1,3.8-0.2,5.7,0c0.8,0.1,1.6,0.2,2.2,0.3c0.6,0.1,1,0.2,1.4,0.3c0.4,0.1,0.8,0.3,1.2,0.4c0.4,0.2,0.7,0.4,1.1,0.7
	c1.1,0.9,1.6,2,1.8,3.1c0.1,0.4,0.1,0.7,0.2,1.2c0,0.5,0.1,1.1,0,1.8c0,0.6-0.1,1.3-0.3,1.8c-0.1,0.5-0.3,0.9-0.5,1.3
	c-0.4,0.8-0.8,1.4-1.7,2c-0.9,0.7-2.4,1.3-3.7,1.5c-2,0.4-3.6,0.3-5.5,0.2c-0.6,0-1.3-0.1-1.9-0.2V266.7z M386.2,266.7h6.8v20.5
	c0,0.6,0,1.2,0.1,1.8c0.1,0.6,0.2,1.2,0.4,2c0.3,0.8,0.7,1.7,1.3,2.6c0.6,0.8,1.4,1.5,2,2c0.6,0.5,1.1,0.7,1.5,0.9
	c0.5,0.2,0.9,0.4,1.5,0.6c0.5,0.2,1.2,0.4,1.8,0.5c0.6,0.2,1.3,0.3,2.3,0.4c1,0.1,2.4,0.3,3.8,0.3c1.4,0,2.8,0,3.9-0.1
	c1.1-0.1,1.9-0.2,2.6-0.3c0.8-0.1,1.5-0.3,2.2-0.6c1.4-0.4,2.4-0.9,3.6-1.7c0.6-0.4,1.2-0.9,1.7-1.5c0.5-0.6,1-1.2,1.3-1.7
	c0.6-1,0.7-1.5,0.9-2.3c0.2-0.8,0.3-1.6,0.3-2.5v-21h6.8v-1.6h-15.5v1.6h6.8v20.2c0,1.2-0.1,2.5-0.4,3.8c-0.1,0.4-0.3,0.7-0.4,1
	c-0.1,0.3-0.3,0.5-0.4,0.7c-0.3,0.3-0.5,0.6-0.8,0.9c-0.1,0.1-0.2,0.2-0.6,0.6c-0.4,0.3-1,0.9-1.7,1.3c-0.7,0.4-1.5,0.7-2.2,0.9
	c-1.4,0.4-2.5,0.5-3.8,0.7c-0.6,0.1-1.3,0.1-1.9,0.1c-0.6,0-1.3,0-1.8-0.1c-1.1-0.1-1.8-0.2-2.8-0.4c-0.5-0.1-1-0.3-1.5-0.6
	c-0.5-0.2-1-0.6-1.4-0.9c-1.2-1.1-1.9-2.7-2.1-4c-0.1-0.4-0.1-0.9-0.2-1.2c-0.1-0.7-0.1-1.2-0.1-1.8v-21h6.8v-1.6h-20.7V266.7z
	 M340.1,288.1c0.4,0.7,1.1,1.7,1.8,2.6c0.8,0.9,1.6,1.7,2.6,2.5c1,0.8,2.1,1.5,3.2,2.1c1.2,0.6,2.4,1.2,3.7,1.6
	c1.3,0.4,2.7,0.8,4.2,1c1.4,0.3,2.9,0.4,5,0.3c2.1-0.1,4.9-0.4,7.5-1.3c2.6-0.9,5-2.3,6.6-3.5c1.6-1.2,2.5-2,3.2-3
	c0.8-0.9,1.5-1.9,2-2.9c1.2-2.1,1.8-4.4,1.7-6.6c0-1.2-0.2-2.3-0.5-3.4c-0.3-1.1-0.8-2.2-1.4-3.2c-0.6-1-1.3-2-2.2-2.9
	c-0.8-0.9-1.7-1.7-2.8-2.5c-1-0.7-2.1-1.4-3.3-2c-1.2-0.6-2.4-1.1-4.1-1.6c-1.7-0.5-3.9-1-6.1-1.1c-2.2-0.1-4.4,0.1-6.4,0.5
	c-2,0.4-3.6,1-5.2,1.7c-1.6,0.7-3.1,1.6-4.3,2.5c-1.2,0.9-2.1,1.7-3,2.6c-0.9,0.9-1.6,1.9-2.3,3c-1.4,2.2-2.1,4.8-2,7.3
	c0.1,1.3,0.4,2.5,0.6,3.4c0.2,0.8,0.4,1.2,0.6,1.5C339.6,287.1,339.7,287.4,340.1,288.1 M346.8,275.5c0.2-0.9,0.4-1.8,0.8-2.6
	c0.3-0.8,0.8-1.6,1.3-2.3c1.1-1.5,2.6-2.7,4-3.4c0.7-0.4,1.4-0.6,2.1-0.8c0.7-0.2,1.4-0.3,2.2-0.4c0.8-0.1,1.8-0.2,2.8-0.2
	c1,0,2,0.1,2.8,0.2c0.8,0.1,1.5,0.2,2.2,0.4c0.7,0.2,1.4,0.4,2.2,0.8s1.9,1.1,2.7,1.9c0.8,0.8,1.5,1.8,1.9,2.6
	c0.4,0.8,0.6,1.4,0.8,1.9c0.2,0.6,0.4,1.2,0.6,2.4c0.2,1.2,0.4,3,0.4,4.8s-0.1,3.6-0.3,4.8c-0.1,1.2-0.3,1.9-0.5,2.5
	c-0.2,0.6-0.3,1.3-0.6,2c-0.3,0.7-0.7,1.4-1.2,2.1c-0.5,0.7-1.1,1.3-1.6,1.7c-0.5,0.5-1,0.8-1.5,1.1c-0.5,0.3-1,0.5-1.6,0.7
	c-0.6,0.2-1.2,0.4-1.9,0.5c-0.7,0.1-1.3,0.2-2.1,0.3c-0.8,0.1-1.6,0.1-2.5,0.1c-0.9,0-1.7,0-2.5-0.1c-0.8-0.1-1.4-0.2-2.1-0.3
	c-0.7-0.1-1.3-0.3-2-0.6c-0.7-0.3-1.6-0.7-2.4-1.2c-1.5-1-2.7-2.8-3.3-4.3c-0.6-1.5-0.8-2.6-1-3.9c-0.4-2.6-0.4-5.2-0.2-7.8
	C346.5,277.5,346.6,276.5,346.8,275.5 M318.9,280c1-0.2,2.2-0.6,3.2-1.1c0.7-0.3,1.3-0.7,1.9-1.1c0.5-0.4,0.9-0.7,1.3-1.1
	c0.4-0.4,0.7-0.8,0.9-1.2c0.4-0.7,0.5-1.1,0.6-1.7c0.1-0.3,0.1-0.6,0.1-1c0-0.3,0-0.7-0.2-1.3c-0.2-0.6-0.5-1.3-0.9-2
	c-0.4-0.7-1-1.3-1.8-1.9c-0.8-0.6-1.9-1.2-3-1.7c-1.1-0.4-2.3-0.7-3.4-0.9c-2.2-0.3-4.1-0.3-6.2-0.3c-2.1,0-4.2,0.1-6.2,0.1H293v1.6
	h6.8v29.4H293v1.6h20.7v-1.6h-6.8v-15c2.3,0,4.5,0,6.8,0c1.2,0.1,2.5,0.1,3.8,0.7c0.4,0.2,0.8,0.4,1.2,0.7c0.7,0.6,1.2,1.2,1.5,1.8
	c0.4,0.9,0.5,1.6,0.6,2.4l0.4,4c0.1,1,0.3,2.1,0.7,3.1c0.2,0.5,0.4,1,0.7,1.4c0.9,1.3,2.4,2,3.6,2.3c0.4,0.1,0.8,0.2,1.3,0.3
	c0.5,0.1,1.2,0.1,1.8,0.2c0.7,0,1.3,0,1.9,0c0.5,0,1,0,1.4-0.1c0.4,0,0.8-0.1,1.1-0.2c0.6-0.1,0.9-0.2,1.3-0.4
	c0.6-0.2,1.1-0.6,1.6-0.9l-1.3-1.2c-0.4,0.3-0.6,0.5-1,0.6c-0.5,0.2-1.2,0.4-1.9,0.5c-0.4,0-0.8,0-1.1,0c-0.3,0-0.5-0.1-0.6-0.2
	c-0.2-0.1-0.3-0.2-0.4-0.2c-0.1-0.1-0.2-0.1-0.2-0.2c-0.1-0.1-0.1-0.1-0.3-0.3c-0.2-0.3-0.5-0.7-0.7-1.2c-0.7-1.6-0.5-3.3-0.7-5
	c-0.1-1-0.2-2-0.4-3c-0.1-0.4-0.2-0.7-0.4-1.2c-0.2-0.4-0.5-1-0.9-1.4c-0.4-0.5-0.8-0.8-1.3-1.2c-1.4-0.9-3.2-1.6-4.8-2
	C319.9,280.2,319.4,280.1,318.9,280 M306.9,266.6c2.1-0.1,4.2-0.2,6.3,0c0.5,0.1,1,0.2,1.4,0.3c0.8,0.2,1.3,0.4,1.9,0.7
	c0.3,0.2,0.6,0.4,0.9,0.7c0.6,0.6,1.1,1.3,1.3,2c0.1,0.4,0.2,0.8,0.3,1.3c0.1,0.5,0.1,1.2,0.1,1.8c0,0.6-0.1,1.3-0.2,1.8
	c-0.1,0.5-0.3,0.9-0.5,1.3c-0.2,0.4-0.4,0.7-0.7,1c-0.8,0.9-1.9,1.3-2.8,1.5c-0.9,0.2-2,0.3-3,0.3h-5.1V266.6z M290.4,280.9h-25.6
	v1.8h10.4v4.4c0,1-0.1,2-0.5,2.9c-0.4,0.9-0.9,1.7-1.5,2.4c-0.6,0.7-1.1,1.1-1.7,1.6c-0.6,0.4-1.2,0.8-2.1,1.2
	c-0.8,0.4-1.9,0.7-2.9,1c-2.1,0.6-4.3,0.6-6.5,0.6c-1.1,0-2.2-0.1-3.5-0.3c-1.3-0.2-2.7-0.6-4-1.1c-1.3-0.6-2.5-1.4-3.4-2.1
	c-0.9-0.7-1.4-1.3-1.9-1.9c-0.5-0.6-0.9-1.3-1.3-2c-0.4-0.7-0.7-1.4-1-2.2c-1.6-4.4-1.8-9.2-1.6-13.8c0.1-1.6,0.3-3.1,0.6-4.5
	c0.3-1.4,0.6-2.5,1-3.6c0.4-1.1,1-2.2,1.6-3c0.5-0.8,1.1-1.4,1.6-2c0.6-0.6,1.2-1.1,1.8-1.6c0.7-0.5,1.4-0.9,2.2-1.3
	c0.8-0.4,1.6-0.7,2.3-0.9c0.7-0.2,1.2-0.3,1.7-0.4c0.5-0.1,1-0.2,1.9-0.3c0.9-0.1,2.1-0.2,3.4-0.2c1.2,0,2.5,0,3.9,0.2
	c1.4,0.2,2.9,0.4,4.3,1c1.4,0.5,2.8,1.3,3.8,1.9c1,0.7,1.6,1.2,2.2,1.8c0.6,0.6,1.1,1.3,1.5,1.8c0.4,0.6,0.6,1,0.8,1.4
	c0.6,1.3,1,2.6,1.3,3.8h1.8v-12.7H279c-0.2,0.2-0.4,0.4-0.6,0.5c-0.2,0.2-0.5,0.3-0.6,0.4c-0.2,0.1-0.2,0.1-0.3,0.1
	c-0.1,0-0.1,0-0.3,0.1c-0.2,0-0.5,0.1-0.7,0.1c-0.9,0.1-2.3,0.1-3.5-0.3c-1.6-0.5-3.2-1-4.9-1.4c-0.8-0.2-1.6-0.3-2.7-0.4
	c-1.1-0.1-2.4-0.1-3.7-0.1c-1.3,0-2.6,0.1-4.1,0.2c-1.5,0.2-3.2,0.5-4.9,0.9c-1.7,0.5-3.3,1.1-4.7,1.7c-1.4,0.6-2.6,1.3-3.7,2
	c-1.1,0.7-2.2,1.5-3.3,2.4c-1,0.8-2,1.7-2.9,2.7c-0.9,1-1.6,2-2.3,3c-0.6,0.9-1,1.8-1.4,2.7c-0.4,0.9-0.7,1.8-1,2.9
	c-0.3,1.1-0.4,2.4-0.5,3.7c0,1.3,0.1,2.6,0.3,3.7c0.2,1.2,0.5,2.2,0.9,3.2c0.4,1,0.9,2,1.7,3.1c0.8,1.1,1.8,2.4,2.9,3.6
	c1.1,1.2,2.4,2.3,4.2,3.5c1.8,1.2,4.2,2.6,6.7,3.6c2.5,0.9,5.2,1.4,7.3,1.7c2.1,0.3,3.5,0.3,5,0.2c1.4,0,2.9-0.1,4.3-0.3
	c1.4-0.2,2.8-0.5,4.1-0.8c2-0.5,4-1.3,5.9-2c0.6-0.2,1.1-0.4,1.7-0.5c0.6-0.1,1.2-0.1,1.6-0.1c0.4,0,0.5,0,0.6,0.1
	c0.6,0.1,1.3,0.6,1.9,1h1.6v-13.3h6.5V280.9z M180.9,297.7h1.7c0.1-0.2,0.2-0.4,0.3-0.6c0.1-0.1,0.2-0.3,0.3-0.3
	c0.1,0,0.3-0.1,0.5-0.1c0.7-0.1,1.8,0.1,2.7,0.3c3.7,1,7.5,1.4,11.2,1.3c0.6,0,1.1,0,2.1-0.1c1-0.1,2.3-0.3,3.6-0.7
	c1.3-0.4,2.6-0.9,3.5-1.4c1-0.5,1.7-1,2.3-1.5c0.6-0.5,1.2-1.1,1.8-1.8c0.6-0.7,1.1-1.6,1.4-2.5c0.3-0.9,0.5-1.9,0.5-2.7
	c0-0.7,0-1.2-0.1-1.7c-0.1-0.5-0.3-1-0.5-1.4c-0.2-0.4-0.4-0.8-0.7-1.1c-0.6-0.7-1.2-1.3-1.9-1.8c-0.4-0.3-0.7-0.5-1.2-0.7
	c-1-0.5-2.3-1-3.5-1.3c-4-1-7.9-1.8-11.9-2.8c-1-0.3-2-0.5-2.9-0.9c-0.5-0.2-0.9-0.4-1.3-0.6c-0.4-0.2-0.7-0.4-1.1-0.7
	c-0.6-0.5-1-1-1.2-1.5c-0.2-0.4-0.3-0.8-0.3-1.1c0-0.3,0-0.8,0.1-1.4c0.1-0.3,0.2-0.6,0.3-0.9c0.3-0.6,0.6-1,1.2-1.4
	c0.3-0.3,0.7-0.5,1.2-0.8c0.5-0.3,0.9-0.5,1.5-0.7c1.2-0.4,2.8-0.7,4.3-0.8c0.7,0,1.4,0,2.1,0c1.4,0.1,2.9,0.4,4.4,1.1
	c0.8,0.3,1.5,0.8,2.2,1.3c0.7,0.6,1.3,1.2,1.8,2c0.5,0.8,0.9,1.6,1.1,2.1c0.2,0.5,0.2,0.7,0.3,0.8c0.1,0.3,0.1,0.6,0.2,0.9h1.6v-9
	h-1.6c-0.2,0.3-0.4,0.6-0.8,0.8c0,0-0.1,0-0.2,0.1c0,0-0.1,0-0.3,0c-0.4,0-1.3,0-1.9-0.2c-1.7-0.5-3.2-1.1-4.9-1.3
	c-2.2-0.3-4.5-0.3-6.8,0.1c-1.2,0.2-2.4,0.6-3.3,0.9c-0.9,0.3-1.6,0.7-2.3,1.1c-0.7,0.4-1.3,0.9-1.9,1.4c-0.6,0.6-1.2,1.3-1.7,2.1
	c-0.4,0.8-0.7,1.7-0.9,2.4c-0.3,1.5-0.2,2.5,0.2,3.7c0.2,0.6,0.5,1.2,0.9,1.8c0.4,0.5,0.9,1,1.5,1.4c0.6,0.4,1.3,0.8,2,1.2
	c0.7,0.3,1.5,0.6,2.1,0.8c1.3,0.4,2.3,0.7,3.5,1l7,1.6c0.6,0.1,1.2,0.3,1.8,0.5c0.6,0.2,1.2,0.4,1.7,0.6c0.5,0.2,0.9,0.4,1.3,0.6
	c0.4,0.2,0.8,0.5,1.1,0.7c0.3,0.2,0.5,0.4,0.7,0.6c0.2,0.2,0.4,0.4,0.6,0.7c0.2,0.3,0.4,0.7,0.5,1.1c0.3,0.8,0.2,1.8-0.1,2.7
	c-0.1,0.5-0.3,1-0.6,1.4c-0.5,0.8-1.1,1.4-2.1,2.1c-1,0.6-2.3,1.2-3.6,1.4c-2.1,0.4-4.2,0.3-6.3,0.3c-0.8,0-1.5-0.1-2.3-0.2
	c-0.8-0.1-1.5-0.3-2.3-0.6c-0.8-0.3-1.8-0.7-2.6-1.3c-0.8-0.6-1.6-1.3-2.1-2c-0.5-0.6-0.9-1.2-1.2-1.8c-0.3-0.6-0.6-1.2-0.8-1.6
	c-0.4-0.9-0.5-1.4-0.7-2.1h-1.5V297.7z M159.9,280c1-0.2,2.2-0.6,3.2-1.1c0.7-0.3,1.3-0.7,1.9-1.1c0.5-0.4,0.9-0.7,1.3-1.1
	c0.4-0.4,0.7-0.8,0.9-1.2c0.4-0.7,0.5-1.1,0.6-1.6c0.1-0.3,0.1-0.6,0.1-1c0-0.3,0-0.7-0.2-1.3c-0.2-0.6-0.5-1.3-0.9-2
	c-0.4-0.7-1-1.3-1.8-1.9c-0.8-0.6-1.9-1.2-3-1.7c-1.1-0.4-2.3-0.7-3.4-0.9c-2.2-0.3-4.1-0.3-6.2-0.3c-2.1,0-4.1,0.1-6.2,0.1H134v1.6
	h6.8v29.4H134v1.6h20.7v-1.6h-6.8v-15c2.3,0,4.5,0,6.8,0c1.2,0.1,2.5,0.1,3.8,0.7c0.4,0.2,0.8,0.4,1.1,0.7c0.7,0.6,1.2,1.2,1.5,1.8
	c0.4,0.9,0.5,1.6,0.6,2.4l0.4,4c0.1,1,0.3,2.1,0.7,3.1c0.2,0.5,0.4,1,0.7,1.4c0.9,1.3,2.4,2,3.6,2.3c0.4,0.1,0.8,0.2,1.3,0.3
	c0.5,0.1,1.2,0.1,1.8,0.2c0.7,0,1.3,0,1.9,0c0.5,0,1,0,1.4-0.1c0.4,0,0.8-0.1,1.1-0.2c0.6-0.1,0.9-0.2,1.3-0.4
	c0.6-0.2,1.1-0.6,1.6-0.9l-1.3-1.2c-0.4,0.3-0.6,0.5-1,0.6c-0.5,0.2-1.2,0.4-1.9,0.5c-0.4,0-0.8,0-1.1,0c-0.3,0-0.5-0.1-0.6-0.2
	c-0.2-0.1-0.3-0.2-0.4-0.2c-0.1-0.1-0.2-0.1-0.2-0.2c-0.1-0.1-0.1-0.1-0.3-0.3c-0.2-0.2-0.5-0.7-0.7-1.2c-0.7-1.6-0.5-3.3-0.7-5
	c-0.1-1-0.2-2-0.4-3c-0.1-0.4-0.2-0.7-0.4-1.2c-0.2-0.4-0.5-1-0.9-1.4c-0.4-0.5-0.8-0.8-1.3-1.2c-1.4-0.9-3.2-1.6-4.8-2
	C160.9,280.2,160.4,280.1,159.9,280 M147.9,266.6c2.1-0.1,4.2-0.2,6.3,0c0.5,0.1,1,0.2,1.4,0.3c0.8,0.2,1.3,0.4,1.9,0.7
	c0.3,0.2,0.6,0.4,0.9,0.7c0.6,0.6,1.1,1.3,1.3,2c0.1,0.4,0.2,0.8,0.3,1.3c0.1,0.5,0.1,1.2,0.1,1.8c0,0.6-0.1,1.3-0.2,1.8
	c-0.1,0.5-0.3,0.9-0.5,1.3c-0.2,0.4-0.4,0.7-0.7,1c-0.8,0.9-1.9,1.3-2.8,1.5c-0.9,0.2-2,0.3-3,0.3h-5.1V266.6z M88.5,297.7h38.3V287
	h-1.6c-0.1,0.4-0.2,0.8-0.3,1.1c-0.1,0.2-0.1,0.5-0.4,1.2c-0.3,0.7-0.8,1.8-1.6,2.7c-0.7,0.9-1.7,1.7-2.6,2.2
	c-0.9,0.6-1.6,0.9-2.4,1.2c-0.8,0.3-1.6,0.4-2.2,0.5c-0.6,0.1-1,0.1-1.3,0.1c-0.4,0-0.7,0-1.1,0h-11.1v-15h4.5
	c1.2,0,2.5,0.1,3.8,0.7c0.4,0.2,0.8,0.4,1.1,0.7c0.9,0.7,1.4,1.7,1.8,2.6c0.4,0.9,0.7,1.8,1,2.8h1.5v-14.8h-1.5
	c-0.1,0.5-0.3,0.9-0.5,1.4c-0.2,0.5-0.4,0.9-0.5,1.3c-0.4,0.8-0.6,1.1-1,1.7c-0.3,0.3-0.6,0.7-1,1c-0.4,0.3-0.9,0.5-1.3,0.7
	c-0.8,0.3-1.3,0.3-1.9,0.4c-0.7,0.1-1.6,0.1-2.4,0.1h-3.5v-12.7h9.7c1.6,0,3.1,0.1,4.7,0.6c0.5,0.2,1.1,0.4,1.6,0.7
	c0.5,0.3,1.1,0.7,1.6,1.1c1,0.9,1.7,2,2.3,3.1c0.3,0.5,0.6,1.1,0.8,1.7h1.5v-8.7H88.5v1.6h6.8v29.4h-6.8V297.7z M43.1,297.7h38.3
	V287h-1.6c-0.1,0.4-0.1,0.8-0.3,1.1c-0.1,0.2-0.1,0.5-0.4,1.2c-0.3,0.7-0.8,1.8-1.6,2.7c-0.7,0.9-1.7,1.7-2.6,2.2
	c-0.9,0.6-1.6,0.9-2.4,1.2c-0.8,0.3-1.6,0.4-2.2,0.5c-0.6,0.1-1,0.1-1.3,0.1c-0.4,0-0.7,0-1.1,0H57v-15h4.5c1.2,0,2.5,0.1,3.8,0.7
	c0.4,0.2,0.8,0.4,1.1,0.7c0.9,0.7,1.5,1.7,1.8,2.6c0.3,0.9,0.7,1.8,1,2.7h1.5v-14.8H69c-0.1,0.5-0.3,0.9-0.5,1.4
	c-0.2,0.5-0.4,0.9-0.5,1.3c-0.4,0.8-0.6,1.2-1,1.7c-0.3,0.3-0.6,0.7-1,1c-0.4,0.3-0.9,0.5-1.3,0.7c-0.8,0.3-1.3,0.3-1.9,0.4
	c-0.7,0.1-1.6,0.1-2.4,0.1H57v-12.7h9.7c1.6,0,3.1,0.1,4.7,0.6c0.5,0.2,1.1,0.4,1.6,0.7c0.5,0.3,1.1,0.7,1.6,1.1
	c1,0.9,1.7,2,2.3,3.1c0.3,0.5,0.6,1.1,0.8,1.7H79v-8.7H43.1v1.6h6.8v29.4h-6.8V297.7z M22.8,274.6c0.7-0.1,1.3-0.3,2-0.5
	c1.3-0.4,2.7-0.9,4.1-1.7c0.7-0.4,1.4-0.9,1.9-1.3c0.5-0.4,0.9-0.7,1.2-1.1c0.3-0.3,0.7-0.7,1-1.2c0.3-0.5,0.7-1.1,0.9-1.8
	c0.4-1.3,0.4-2.7,0-4.1c-0.2-0.7-0.5-1.3-0.9-1.9c-0.4-0.6-0.8-1.1-1.3-1.6c-0.5-0.5-1-0.8-1.5-1.2c-0.5-0.3-1-0.7-1.9-1.1
	c-0.8-0.4-2-0.9-3.2-1.2c-2.3-0.7-4.7-1.1-7-1.2c-4.6-0.3-9.2,0-13.8,0h-14.6v1.8h9v39.2h-9v1.8H4.4c3.3,0,6.5,0.3,9.8,0.2
	c1.3,0,2.5,0,3.9-0.1c1.4-0.1,2.9-0.2,4.4-0.5c1.5-0.3,3-0.6,4.1-0.9c1.1-0.3,1.8-0.6,2.5-0.9c0.7-0.3,1.4-0.6,2-1
	c1.3-0.8,2.3-1.4,3.3-2.7c0.5-0.6,1.1-1.4,1.5-2.3c0.4-0.9,0.7-1.9,0.8-2.8c0.1-1,0.1-2-0.1-2.7c-0.1-0.8-0.3-1.3-0.6-1.8
	c-0.3-0.5-0.5-1-1-1.6c-0.5-0.6-1.1-1.2-1.8-1.8c-0.7-0.6-1.5-1.1-2.3-1.5c-2.2-1.1-4.6-1.9-6.9-2.4
	C23.7,274.8,23.3,274.7,22.8,274.6 M7.8,275.7h8.4c0.6,0,1.2,0,1.7,0.1c1.2,0.1,2.6,0.4,4.1,1.1c0.7,0.4,1.4,0.9,2,1.4
	c0.6,0.6,1.1,1.2,1.4,1.9c0.4,0.7,0.6,1.5,0.8,2.1c0.2,0.6,0.2,1.1,0.3,1.6c0.1,1,0.1,2.2,0,3.4c-0.1,0.7-0.2,1.3-0.3,1.9
	c-0.3,1.2-0.5,1.9-1.1,2.8c-0.3,0.5-0.7,1-1.2,1.5c-1,0.9-2.1,1.4-3.1,1.8c-1.1,0.4-2.3,0.6-3.5,0.7c-0.6,0.1-1.3,0.1-2.1,0.2
	c-1.7,0.1-3.8,0.1-5.7,0c-0.5,0-1.1-0.1-1.6-0.1V275.7z M7.8,256.7c2.6-0.2,5.2-0.2,7.8,0c1,0.1,2.1,0.2,3.3,0.6
	c0.6,0.2,1.2,0.4,1.8,0.7c0.5,0.3,1,0.6,1.4,1c0.4,0.4,0.8,0.8,1.1,1.3c1.3,2,1.3,4.3,1.2,6.6c-0.1,1-0.3,2.1-0.8,3.2
	c-0.3,0.5-0.6,1-0.9,1.4c-1,1.2-2.5,1.8-3.8,2.1c-1.2,0.3-2.6,0.4-4,0.4H7.8V256.7z M-66.1,297.7h38.3V287h-1.6
	c-0.1,0.4-0.1,0.8-0.3,1.1c-0.1,0.2-0.1,0.5-0.4,1.2c-0.3,0.7-0.8,1.8-1.6,2.7c-0.7,0.9-1.7,1.7-2.6,2.2c-0.9,0.6-1.6,0.9-2.4,1.2
	c-0.8,0.3-1.6,0.4-2.2,0.5c-0.6,0.1-1,0.1-1.3,0.1c-0.4,0-0.7,0-1.1,0h-11.1v-15h4.5c1.2,0,2.5,0.1,3.8,0.7c0.4,0.2,0.8,0.4,1.1,0.7
	c0.9,0.7,1.5,1.7,1.8,2.6c0.3,0.9,0.7,1.8,1,2.7h1.5v-14.8h-1.5c-0.1,0.5-0.3,0.9-0.5,1.4c-0.2,0.5-0.4,0.9-0.5,1.3
	c-0.4,0.8-0.5,1.1-1,1.7c-0.3,0.3-0.6,0.7-1,1c-0.4,0.3-0.9,0.5-1.3,0.7c-0.8,0.3-1.3,0.3-1.9,0.4c-0.7,0.1-1.6,0.1-2.4,0.1h-3.5
	v-12.7h9.7c1.6,0,3.1,0.1,4.7,0.6c0.5,0.2,1.1,0.4,1.6,0.7c0.5,0.3,1.1,0.7,1.6,1.1c1,0.9,1.7,2,2.3,3.1c0.3,0.6,0.6,1.1,0.8,1.7
	h1.5v-8.7h-35.9v1.6h6.8v29.4h-6.8V297.7z M-131.4,297.7h14.2c3.9,0,7.8,0.3,11.7,0.2c1.8,0,3.7-0.1,5.5-0.1c1,0,2-0.1,3.1-0.2
	c1-0.1,2-0.3,2.9-0.4c0.8-0.2,1.4-0.3,2.1-0.5c0.6-0.2,1.2-0.4,2.3-0.7c1.1-0.4,2.6-0.9,4-1.6c1.4-0.7,2.8-1.5,4.1-2.4
	c2.6-1.8,4.7-4.1,6-6.4c0.7-1.1,1.1-2.2,1.5-3.3c0.4-1.1,0.6-2.2,0.8-3.6c0.2-1.3,0.2-2.9,0-4.5c-0.2-1.5-0.5-3.1-1-4.3
	c-0.4-1.3-0.9-2.3-1.5-3.3c-0.6-1-1.3-1.9-1.9-2.6c-0.6-0.7-1.2-1.3-1.8-1.8c-0.6-0.5-1.3-1-2.2-1.7c-0.9-0.6-2.2-1.3-3.5-2
	c-2.6-1.2-5.2-2-7.7-2.6c-6.3-1.6-12.3-1.3-18.5-1.2c-1.5,0.1-3,0.1-4.5,0.1h-15.5v1.8h9v39.2h-9V297.7z M-113.3,256.7
	c3.5-0.1,7-0.3,10.5,0c1.4,0.1,2.8,0.3,3.9,0.5c1.2,0.2,2.2,0.5,3.2,0.8c1,0.3,2,0.7,3.1,1.2c1.1,0.5,2.3,1.3,3.4,2.1
	c1.1,0.9,2,1.9,2.8,3.1c0.8,1.2,1.3,2.5,1.7,3.5c0.4,1.1,0.6,2,0.8,2.8c0.3,1.8,0.5,3.6,0.5,5.5c0,0.9,0,1.9-0.1,2.7
	c-0.1,1.7-0.4,3.1-0.9,4.6c-0.2,0.7-0.5,1.4-0.8,2.1c-0.3,0.7-0.7,1.4-1.1,2c-0.4,0.6-0.8,1.2-1.3,1.8c-0.5,0.6-0.9,1.1-1.5,1.7
	c-0.6,0.5-1.2,1-1.8,1.5c-1.4,0.9-2.9,1.6-4.4,2.1c-1.6,0.5-3.3,0.8-5,1c-0.9,0.1-1.7,0.2-3,0.2c-1.3,0.1-3,0.1-4.8,0.1
	c-1.7,0-3.5-0.1-5.2-0.2V256.7z"/>
</svg>
