<?xml version="1.0" encoding="utf-8"?>
<!-- Generator: Adobe Illustrator 25.4.1, SVG Export Plug-In . SVG Version: 6.00 Build 0)  -->
<svg version="1.1" id="Layer_1" xmlns="http://www.w3.org/2000/svg" xmlns:xlink="http://www.w3.org/1999/xlink" x="0px" y="0px"
	 viewBox="0 0 68.5 24" style="enable-background:new 0 0 68.5 24;" xml:space="preserve">
<style type="text/css">
	.st0{fill:#1C4396;}
	.st1{fill:#2C71F0;}
</style>
<path class="st0" d="M56.1,23.5c-0.1,0-0.2-0.1-0.2-0.2V1.4c0-0.1,0.1-0.2,0.1-0.2l3.8-0.8c0.1,0,0.2,0.1,0.2,0.2v22.7
	c0,0.1-0.1,0.2-0.2,0.2H56.1z"/>
<path class="st0" d="M8,24c-1.5,0-2.9-0.4-4.1-1.1c-1.2-0.7-2.2-1.8-2.9-3c-0.7-1.3-1-2.8-1-4.4c0-1.6,0.3-3.1,1-4.4
	c0.7-1.3,1.7-2.3,2.9-3C5.1,7.3,6.5,6.9,8,6.9c1.2,0,2.3,0.2,3.2,0.7c0.7,0.4,1.4,0.9,1.9,1.5c0.1,0.1,0.4,0.1,0.4-0.1V1
	c0-0.1,0.1-0.2,0.1-0.2L17.4,0c0.1,0,0.2,0.1,0.2,0.2v23.2c0,0.1-0.1,0.2-0.2,0.2H14c-0.1,0-0.2-0.1-0.2-0.1l-0.3-1.8
	c0-0.2-0.2-0.2-0.3-0.1c-0.5,0.6-1.1,1.1-1.8,1.6C10.5,23.7,9.4,24,8,24z M8.9,20.3c1.4,0,2.5-0.4,3.3-1.3c0.9-0.9,1.3-2.1,1.3-3.5
	c0-1.4-0.4-2.6-1.3-3.5c-0.9-0.9-2-1.4-3.3-1.4c-1.3,0-2.4,0.4-3.3,1.3c-0.9,0.9-1.3,2.1-1.3,3.5s0.4,2.6,1.3,3.5
	C6.4,19.8,7.6,20.3,8.9,20.3z"/>
<path class="st0" d="M27.9,24c-1.6,0-3.1-0.3-4.4-1c-1.3-0.7-2.3-1.7-3-3c-0.7-1.3-1.1-2.7-1.1-4.4c0-1.7,0.3-3.2,1-4.5
	c0.7-1.3,1.7-2.3,3-3c1.3-0.7,2.8-1.1,4.5-1.1c1.6,0,3,0.3,4.2,1c1.2,0.7,2.2,1.7,2.9,2.9c0.7,1.2,1,2.5,1,4c0,0.2,0,0.5,0,0.8
	c0,0.2,0,0.4,0,0.7c0,0.1-0.1,0.2-0.2,0.2h-12c-0.1,0-0.2,0.1-0.2,0.2c0.1,1.2,0.5,2.1,1.3,2.8c0.8,0.7,1.8,1.1,2.9,1.1
	c0.9,0,1.6-0.2,2.1-0.6c0.6-0.4,1-0.8,1.3-1.4c0-0.1,0.1-0.1,0.2-0.1h3.9c0.1,0,0.2,0.1,0.2,0.2c-0.3,0.9-0.8,1.8-1.5,2.6
	c-0.7,0.8-1.6,1.5-2.6,2C30.3,23.7,29.2,24,27.9,24z M27.9,10.3c-1,0-1.9,0.3-2.7,0.9c-0.7,0.5-1.2,1.3-1.5,2.4
	c0,0.1,0.1,0.2,0.2,0.2h7.7c0.1,0,0.2-0.1,0.2-0.2c-0.1-1-0.5-1.8-1.2-2.4C29.9,10.6,29,10.3,27.9,10.3z"/>
<path class="st0" d="M46.1,24c-1.6,0-3.1-0.3-4.4-1c-1.3-0.7-2.3-1.7-3-3c-0.7-1.3-1.1-2.7-1.1-4.4c0-1.7,0.3-3.2,1-4.5
	c0.7-1.3,1.7-2.3,3-3c1.3-0.7,2.8-1.1,4.5-1.1c1.6,0,3,0.3,4.2,1c1.2,0.7,2.2,1.7,2.9,2.9c0.7,1.2,1,2.5,1,4c0,0.2,0,0.5,0,0.8
	c0,0.2,0,0.4,0,0.7c0,0.1-0.1,0.2-0.2,0.2h-12c-0.1,0-0.2,0.1-0.2,0.2c0.1,1.2,0.5,2.1,1.3,2.8c0.8,0.7,1.8,1.1,2.9,1.1
	c0.9,0,1.6-0.2,2.1-0.6c0.6-0.4,1-0.8,1.3-1.4c0-0.1,0.1-0.1,0.2-0.1h3.9c0.1,0,0.2,0.1,0.2,0.2c-0.3,0.9-0.8,1.8-1.5,2.6
	c-0.7,0.8-1.6,1.5-2.6,2C48.6,23.7,47.4,24,46.1,24z M46.2,10.3c-1,0-1.9,0.3-2.7,0.9c-0.7,0.5-1.2,1.3-1.5,2.4
	c0,0.1,0.1,0.2,0.2,0.2h7.7c0.1,0,0.2-0.1,0.2-0.2c-0.1-1-0.5-1.8-1.2-2.4C48.1,10.6,47.2,10.3,46.2,10.3z"/>
<circle class="st1" cx="65.6" cy="20.7" r="2.8"/>
</svg>
