<svg xmlns:xlink="http://www.w3.org/1999/xlink" xmlns="http://www.w3.org/2000/svg" fill="none" viewBox="0 0 713 196.76">
<path d="M661.29 0H713V196.73H661.29V0ZM510.93 0H560.39V151.76H625.6V196.76H510.94L510.93 0ZM361.69 0H411.16V151.76H476.36V196.76H361.7L361.69 0ZM194.19 0H311.96V42.44H240.01V77.85H301.01V117.76H240.01V154.29H318.14V196.73H194.2L194.19 0ZM57.61 152.89C70.82 152.89 77.61 150.89 84.61 146.71C94.45 140.8 106.25 124.22 106.25 98.65C106.25 71.1 96.14 55.65 84.05 48.34C77.59 44.4 69.16 43.84 57.63 43.84H47.5V152.89H57.61ZM0 0H59.29C79.29 0 93.29 0.84 105.38 7C135.45 22.45 155.38 53.65 155.38 98.62C155.38 139.62 135.38 173.62 106.48 187.71C90.74 195.3 79.21 196.71 59.26 196.71H0V0Z" fill="black"/>
</svg>