<svg xmlns="http://www.w3.org/2000/svg" height="800" width="1200" viewBox="-7.14924 -4.040975 61.96008 24.24585"><defs><linearGradient x1="0" y1="0" x2="1" y2="0" gradientUnits="userSpaceOnUse" gradientTransform="rotate(150 -2.405 98.2771) scale(15.10002)" spreadMethod="pad" id="a"><stop offset="0" stop-color="#faa61a"/><stop offset=".0622" stop-color="#faa61a"/><stop offset="1" stop-color="#fff200"/></linearGradient><linearGradient x1="0" y1="0" x2="1" y2="0" gradientUnits="userSpaceOnUse" gradientTransform="rotate(-60 181.4806 68.864) scale(4.65132)" spreadMethod="pad" id="b"><stop offset="0" stop-color="#0089cf"/><stop offset=".1162" stop-color="#0089cf"/><stop offset=".9939" stop-color="#00b6f1"/><stop offset="1" stop-color="#00b6f1"/></linearGradient><linearGradient x1="0" y1="0" x2="1" y2="0" gradientUnits="userSpaceOnUse" gradientTransform="rotate(60 -136.9529 118.6796) scale(13.6745)" spreadMethod="pad" id="c"><stop offset="0" stop-color="#90278c"/><stop offset="1" stop-color="#e92627"/></linearGradient><linearGradient x1="0" y1="0" x2="1" y2="0" gradientUnits="userSpaceOnUse" gradientTransform="rotate(60 -139.6165 117.1465) scale(4.65124)" spreadMethod="pad" id="d"><stop offset="0" stop-color="#0089cf"/><stop offset=".1784" stop-color="#0089cf"/><stop offset="1" stop-color="#00b6f1"/></linearGradient></defs><path d="M4.1358 12.8651l.0003 2.4698c.0014.1362.0325.26.0956.369.0625.1087.1535.1969.27.2664L.2671 13.5259l-.0162-.01c.564.346 2.0239.0797 3.8848-.6513" fill="#00ae4d"/><path d="M43.9848 183.4608h-.0282c-.2879 1.1462-2.7115 3.2752-5.982 5.164-1.34.774-2.6438 1.4037-3.7939 1.856v2.469c.0014.1369.0325.2607.0956.37.0625.108.1535.197.27.266l-3.2315-1.8658 3.2438 1.873c.2173.1259.5207.1865.8893.1865 1.1197 0 2.841-.5609 4.5939-1.5734 2.3308-1.3454 3.943-3.0409 3.943-4.0555z" fill="url(#a)" transform="translate(-30.0448 -177.6156)"/><path d="M30.0455 188.005l-.0007 2.6757c.0003.0998.0222.1898.0674.2674.0451.079.1125.143.2.1934l.001.0007-.0006-.0004c.0003.0004.0007.0004.0007.0004.0003 0 .0003.0003.0003.0003l.0007.0004.0014.001v-.0004l.0011.0007s-.0003-.0003-.001-.0003l.952.5493-.951-.549c.1651.0931.3993.1373.6932.1373.7398 0 1.8553-.284 3.1708-.8008v-2.4758zm.268 3.1375c.0004 0 .0008 0 .0008.0004z" fill="url(#b)" transform="translate(-30.0448 -177.6156)"/><path d="M35.4186 177.6156c-.3556.003-.6484.0642-.86.1863l-4.2387 2.4469c.9444-.5278 4.178.514 7.6546 2.5213 3.4897 2.015 6.0142 4.3031 6.0106 5.3805v-4.906c0-1.0147-1.6122-2.7101-3.9433-4.056-1.737-1.0033-3.4431-1.5631-4.5628-1.573z" fill="url(#c)" transform="translate(-30.0448 -177.6156)"/><path d="M34.5339 177.8163l-4.2217 2.4374c-.0875.0504-.1549.1146-.2.1926-.0452.0787-.067.1683-.0674.2685l.0007 2.6754h4.1352v-4.9452c.0014-.1365.0325-.2604.0956-.3694.0604-.1047.1475-.1905.258-.2593z" fill="url(#d)" transform="translate(-30.0448 -177.6156)"/><path d="M4.1358 3.299L4.136.829c.0014-.1365.0325-.2603.0956-.369.0625-.1086.1535-.1972.27-.2667L.2671 2.6382l-.0162.01c.564-.346 2.0239-.0804 3.8848.6512" fill="#3e3092"/><path d="M13.9399 10.5251l.0003-4.8965c.0018.5598-.6794 1.447-1.8242 2.4535 1.138.9995 1.8182 1.8828 1.8239 2.443" fill="#c9252c"/><path d="M21.542 10.9174c0 .623-.0022 2.892-2.4653 2.892-1.5494 0-2.6282-1.0329-2.6282-2.7156 0-1.646 1.0894-2.7351 2.6635-2.7351 1.0594 0 1.922.5337 2.2832 1.3077l-.998.5712c-.2512-.5013-.6777-.8121-1.304-.8121-.9037 0-1.4188.8089-1.4188 1.6623 0 .8929.5408 1.657 1.4323 1.657.6653 0 1.059-.4569 1.1105-.87H19.063v-.9574zm-1.613-5.8666c0 1.0692-.678 1.508-1.4682 1.508h-.4554V3.55h.4713c.8537 0 1.4524.5109 1.4524 1.5008m1.2132 0c0-1.5886-1.1656-2.5464-2.5863-2.5464h-1.7159v5.0924h1.716c1.4125 0 2.5862-.9578 2.5862-2.546m1.4009-.973h-1.0696v3.519h1.0696zm.0794-1.1533c0-.3355-.2713-.6145-.6146-.6145-.3355 0-.6067.279-.6067.6145 0 .3352.2712.6146.6067.6146.3433 0 .6146-.2794.6146-.6146m1.3846 1.8006c.2476-.423.6548-.6946 1.2136-.6946h.1594V5.116c-.1757-.0794-.2554-.0956-.4392-.0956-.6862 0-.9338.447-.9338 1.0456v1.5307h-1.0696V4.0788h1.0696zm4.1378.6499h-1.4915c.0472-.3933.334-.6978.7574-.6978.407 0 .7023.2904.7341.6978m1.0216.7102v-.3168c0-1.1197-.6141-1.8017-1.8196-1.8017-1.1578 0-1.8313.7218-1.8313 1.8712 0 1.1973.7451 1.8704 1.9192 1.8704.7902 0 1.484-.2872 1.6845-1.1091H28.097c-.1354.2314-.4067.3192-.6703.3192-.471 0-.7891-.274-.7972-.8332zm3.2001-.8691c-.1538-.1195-.4822-.3312-.8643-.3312-.5108 0-.918.3944-.918.9528 0 .5754.3987.9525.942.9525.3768 0 .7193-.187.8647-.3009v.9469c-.1538.1005-.5468.2723-1.0354.2723-1.0301 0-1.881-.7048-1.881-1.8305 0-1.1974.843-1.911 1.9286-1.911.4745 0 .7638.0984.9634.226zm-9.3026 5.5565c.2477-.4234.6544-.6947 1.2132-.6947h.1598v1.0859c-.176-.0801-.2557-.096-.4388-.096-.6865 0-.9342.4466-.9342 1.0456v1.531h-1.07V10.126h1.07zm4.509 1.1006c0 .5186-.3704.9215-.8738.9215-.5023 0-.8735-.403-.8735-.9215 0-.5027.3712-.9066.8735-.9066.5034 0 .8738.4039.8738.9066m1.13 0c0-1.1818-.8855-1.8669-2.0038-1.8669-1.1176 0-2.0034.685-2.0034 1.8669 0 1.1811.8943 1.8828 2.0034 1.8828 1.1183 0 2.0038-.7091 2.0038-1.8828m1.4835-1.7554v1.8313c0 .519.1316.8647.683.8647.5422 0 .6784-.3457.6784-.8647v-1.8313h1.07v1.9516c0 1.1409-.6319 1.6863-1.7484 1.6863-1.1183 0-1.7526-.5454-1.7526-1.6863v-1.9516zm5.6524 1.7677c0 .5425-.359.9292-.8459.9292-.4872 0-.8544-.4106-.8544-.9292 0-.519.3672-.937.8544-.937.4943 0 .846.4103.846.937m1.1335.008c0-1.2051-.6707-1.8874-1.6207-1.8874-.5108 0-.9335.2318-1.1733.5747v-.4547h-1.0697v5.2422h1.0697V13.245c.2875.3753.7263.5108 1.1733.5108.9183 0 1.6207-.6569 1.6207-1.8623m-.0544-5.3342h1.4422v1.0375H35.753V2.504h1.1652zm2.8631-2.4808h-1.0696v3.5179h1.0696zm.0798-1.154c0-.3355-.2717-.6145-.6146-.6145-.3358 0-.6071.279-.6071.6145 0 .3352.2713.6146.6071.6146.343 0 .6146-.2794.6146-.6146m1.375 1.6012c.2957-.423.719-.5588 1.1974-.5588.9341 0 1.221.5824 1.221 1.4368V7.597H42.585V5.8267c0-.4074 0-.9655-.63-.9655-.5433 0-.719.375-.719.8858v1.85h-1.0696V4.0784h1.0696zm5.3273.8493h-1.492c.047-.3933.3342-.6978.7571-.6978.4075 0 .7028.2904.7349.6978m1.0982.7102v-.3168c0-1.1197-.6911-1.8017-1.8966-1.8017-1.1578 0-1.8312.7218-1.8312 1.8712 0 1.1973.7454 1.8704 1.919 1.8704.7903 0 1.5611-.2872 1.7612-1.1091h-1.0986c-.1358.2314-.4071.3192-.6706.3192-.471 0-.7895-.274-.7977-.8332zM34.1739 7.5974l-1.0696-.0004V5.1815h-.382v-.9881h.382V3.068h1.0696v1.1261h.5955v.9878h-.5955z" fill="#11034c"/></svg>