<?xml version="1.0" encoding="UTF-8" standalone="no"?>
<!-- Generator: Adobe Illustrator 15.0.2, SVG Export Plug-In . SVG Version: 6.00 Build 0)  -->

<svg
   xmlns:dc="http://purl.org/dc/elements/1.1/"
   xmlns:cc="http://creativecommons.org/ns#"
   xmlns:rdf="http://www.w3.org/1999/02/22-rdf-syntax-ns#"
   xmlns:svg="http://www.w3.org/2000/svg"
   xmlns="http://www.w3.org/2000/svg"
   xmlns:sodipodi="http://sodipodi.sourceforge.net/DTD/sodipodi-0.dtd"
   xmlns:inkscape="http://www.inkscape.org/namespaces/inkscape"
   version="1.1"
   id="Layer_1"
   x="0px"
   y="0px"
   width="100"
   height="23"
   viewBox="0 0 100 23"
   enable-background="new 0 0 351.273 461.059"
   xml:space="preserve"
   inkscape:version="0.92.4 (5da689c313, 2019-01-14)"
   sodipodi:docname="DN logo.svg"><title
   id="title820">Discovery Networks International logo</title><metadata
   id="metadata135"><rdf:RDF><cc:Work
       rdf:about=""><dc:format>image/svg+xml</dc:format><dc:type
         rdf:resource="http://purl.org/dc/dcmitype/StillImage" /><dc:title>Discovery Networks International logo</dc:title><cc:license
         rdf:resource="http://scripts.sil.org/OFL" /></cc:Work><cc:License
       rdf:about="http://scripts.sil.org/OFL"><cc:permits
         rdf:resource="http://scripts.sil.org/pub/OFL/Reproduction" /><cc:permits
         rdf:resource="http://scripts.sil.org/pub/OFL/Distribution" /><cc:permits
         rdf:resource="http://scripts.sil.org/pub/OFL/Embedding" /><cc:permits
         rdf:resource="http://scripts.sil.org/pub/OFL/DerivativeWorks" /><cc:requires
         rdf:resource="http://scripts.sil.org/pub/OFL/Notice" /><cc:requires
         rdf:resource="http://scripts.sil.org/pub/OFL/Attribution" /><cc:requires
         rdf:resource="http://scripts.sil.org/pub/OFL/ShareAlike" /><cc:requires
         rdf:resource="http://scripts.sil.org/pub/OFL/DerivativeRenaming" /><cc:requires
         rdf:resource="http://scripts.sil.org/pub/OFL/BundlingWhenSelling" /></cc:License></rdf:RDF></metadata><defs
   id="defs133"><pattern
     y="0"
     x="0"
     height="6"
     width="6"
     patternUnits="userSpaceOnUse"
     id="EMFhbasepattern" /></defs><sodipodi:namedview
   pagecolor="#ffffff"
   bordercolor="#666666"
   borderopacity="1"
   objecttolerance="1"
   gridtolerance="1"
   guidetolerance="1"
   inkscape:pageopacity="0"
   inkscape:pageshadow="2"
   inkscape:window-width="1366"
   inkscape:window-height="705"
   id="namedview131"
   showgrid="false"
   inkscape:zoom="1"
   inkscape:cx="-6.011887"
   inkscape:cy="14.656896"
   inkscape:window-x="-8"
   inkscape:window-y="-8"
   inkscape:window-maximized="1"
   inkscape:current-layer="Layer_1"
   inkscape:showpageshadow="false">
</sodipodi:namedview>
<g
   transform="matrix(0.15780356,0,0,0.15780356,-518.02312,-6.88686)"
   id="color_000000ff" /><g
   id="color_868686ff"
   transform="matrix(0.03854182,0,0,0.03854182,-4.973258,0.5502)" /><g
   transform="matrix(0.13117361,0,0,0.12883172,-42.796784,63.2117)"
   id="color_000000ff-6-3-4"
   style="opacity:0.46520003;fill:#00ff00" /><g
   transform="matrix(0.79798858,0,0,0.79116343,152.44221,-243.06572)"
   id="color_000000ff-0" /><path
   style="fill:#d8d8d9;stroke-width:1.00444543"
   d="m 9.447471,1.18274 v 2.36069 c 0.366048,0.16067 0.716583,0.35385 1.04666,0.57668 0.531704,0.36494 1.005297,0.80255 1.407537,1.30083 V 3.38997 h 2.755128 c 2.934712,0 4.850848,1.99126 4.850848,4.71177 0,2.72051 -1.916136,4.67221 -4.850848,4.67221 h -2.160461 c -0.510454,0.8842 -1.225543,1.6402 -2.087328,2.20841 h 4.248989 c 4.390881,0 7.424939,-3.01582 7.424939,-6.91899 h -0.0013 c 0,-3.90417 -3.034055,-6.88063 -7.424938,-6.88063 z m 33.038758,3.24789 c -3.154358,0 -5.469494,2.48361 -5.469494,5.4611 0,2.9765 2.315274,5.40235 5.450311,5.40235 2.054095,0 3.273098,-0.80787 4.311331,-1.95184 l -1.457892,-1.41953 c -0.758592,0.76893 -1.59686,1.30083 -2.734746,1.30083 -1.85682,0 -3.153171,-1.49817 -3.153171,-3.37137 0,-1.83352 1.277311,-3.33301 3.034478,-3.33301 1.216187,0 1.996491,0.53211 2.734746,1.30203 L 46.698049,6.22422 C 45.719813,5.15963 44.481345,4.43063 42.486229,4.43063 Z M 52.99,4.43161 c -1.508587,-0.0159 -2.95953,0.56422 -4.023586,1.60776 -0.501947,0.4966 -0.901959,1.0821 -1.178541,1.72526 -0.28676,0.6568 -0.429216,1.36122 -0.429216,2.1113 v 0.0407 c -0.004,0.71706 0.137911,1.42815 0.418424,2.09093 0.26933,0.64189 0.667011,1.2245 1.168951,1.71565 1.06749,1.02334 2.507956,1.59105 4.004408,1.57779 0.77498,0.007 1.5433,-0.14056 2.25757,-0.43401 0.66761,-0.27399 1.27324,-0.67274 1.784,-1.17374 0.50205,-0.49711 0.90255,-1.0831 1.17975,-1.72646 0.28472,-0.65681 0.42921,-1.35375 0.42921,-2.09092 v -0.0372 c 0.006,-0.72141 -0.1361,-1.43735 -0.41842,-2.10411 V 7.73358 C 57.63064,6.43129 56.57056,5.3969 55.23679,4.85616 54.55039,4.57339 53.80249,4.43174 52.99,4.43174 Z m 21.91994,0 c -0.71636,-0.009 -1.42637,0.13598 -2.07894,0.42442 -0.61726,0.27684 -1.17065,0.67308 -1.62694,1.16416 -0.46574,0.5032 -0.82752,1.08879 -1.06704,1.72525 -0.2562,0.67528 -0.38546,1.39007 -0.38006,2.11011 v 0.0407 c 0,0.80167 0.14118,1.53528 0.42082,2.20003 0.26139,0.63745 0.6506,1.21745 1.14618,1.70487 0.49103,0.47673 1.07559,0.85269 1.71805,1.10541 0.67593,0.26571 1.39819,0.39935 2.12689,0.39445 0.97113,0 1.80698,-0.17734 2.50456,-0.53353 0.69394,-0.3505 1.30917,-0.83362 1.80918,-1.41952 l -1.42073,-1.2421 c -0.37832,0.37489 -0.81562,0.68669 -1.29604,0.92559 -0.43928,0.21033 -0.95966,0.31651 -1.5586,0.31651 -0.78503,0 -1.454,-0.22658 -2.0082,-0.68098 C 72.64793,12.21355 72.306,11.55879 72.1728,10.70553 h 7.74864 c 0.0126,-0.11488 0.0222,-0.23002 0.03,-0.3453 C 79.99374,9.52705 79.88914,8.69234 79.64092,7.89405 79.4443,7.24536 79.12322,6.63992 78.69377,6.10885 78.27379,5.59689 77.74644,5.18856 77.11598,4.88595 76.48348,4.58334 75.74787,4.43155 74.90996,4.43155 Z M 31.817,4.47121 c -0.519625,0 -1.007854,0.0734 -1.467484,0.2182 -0.437068,0.13345 -0.843591,0.34731 -1.197725,0.63064 -0.33643,0.27214 -0.608944,0.61209 -0.798483,0.9963 -0.193207,0.38893 -0.29014,0.83275 -0.29014,1.33081 v 0.0395 c 0,0.50104 0.0994,0.92038 0.299732,1.26367 0.199308,0.3413 0.455311,0.62684 0.76851,0.85603 0.312182,0.23118 0.666136,0.41864 1.058651,0.5635 0.392515,0.14386 0.782536,0.27009 1.16895,0.37526 l 0.887205,0.26616 c 0.285743,0.0854 0.539273,0.18282 0.758918,0.29493 0.219647,0.11212 0.393225,0.24099 0.520334,0.38486 0.12512,0.14311 0.19147,0.32507 0.188231,0.51314 v 0.0395 c 0.0084,0.32618 -0.153211,0.63343 -0.429216,0.81766 -0.285743,0.20439 -0.687692,0.30572 -1.207316,0.30572 -0.584615,-0.007 -1.163049,-0.11644 -1.707269,-0.3249 -0.626641,-0.23543 -1.215353,-0.55783 -1.748031,-0.95675 l -1.077833,1.61736 c 0.649991,0.50424 1.382111,0.89806 2.166456,1.16415 0.740651,0.25668 1.520761,0.38919 2.306731,0.39326 0.546063,0 1.058253,-0.0673 1.538219,-0.20622 0.477934,-0.1389 0.895042,-0.34179 1.246882,-0.61266 0.353874,-0.26887 0.62933,-0.60671 0.829655,-1.01549 0.199309,-0.40678 0.298533,-0.88727 0.298533,-1.4399 v -0.0384 c 0,-0.47325 -0.09922,-0.8751 -0.298533,-1.20252 C 35.434394,10.41861 35.172886,10.1335 34.862269,9.90578 34.538945,9.66991 34.186108,9.474 33.813209,9.3231 33.426796,9.16634 33.041463,9.02853 32.655049,8.90946 32.360066,8.80795 32.064672,8.7096 31.767845,8.61333 31.506922,8.53203 31.252892,8.43027 31.008926,8.30881 30.812215,8.21381 30.633475,8.08681 30.4802,7.93354 30.349822,7.80474 30.277789,7.6302 30.279979,7.44918 v -0.0384 c 0,-0.30261 0.129331,-0.55288 0.389652,-0.74933 0.259304,-0.19644 0.621693,-0.29613 1.087423,-0.29613 0.440309,0 0.919085,0.0896 1.43871,0.26615 0.518609,0.17761 1.030615,0.41676 1.537021,0.71937 l 0.95794,-1.69649 C 35.117765,5.27965 34.492064,4.98793 33.833591,4.78753 33.182146,4.58147 32.501816,4.47403 31.817,4.47101 Z m -8.334922,0.17624 0.0013,10.41625 H 25.89921 V 4.6474 Z m 35.217202,9.8e-4 4.33531,10.49419 h 2.17605 L 69.52197,4.64843 h -2.53572 l -2.85464,7.65514 -2.83426,-7.65514 z m 23.06731,0 v 10.41621 h 2.41463 v -3.96605 c 0,-0.6965 0.0671,-1.30776 0.26137,-1.81278 0.72707,-1.89502 2.75458,-2.43349 3.80298,-2.58727 L 87.41831,4.70832 C 86.57533,4.85218 85.09133,5.25385 84.18122,6.37003 V 4.64838 Z m 7.23431,0 3.91688,10.34073 -0.0312,0.0719 c 0,0 -0.78858,2.10889 -1.50345,2.62085 -0.54911,0.2778 -1.83643,0.25673 -2.32352,0.223 v 1.95065 c 0.85012,-9.8e-4 2.85119,0.0525 3.49487,-0.35128 0.80842,-0.50402 0.98864,-0.7221 1.54182,-1.82837 C 94.69829,16.47043 99.31642,4.6484 99.31642,4.6484 H 96.79988 L 94.0987,12.28316 91.57616,4.6484 Z M 74.88836,6.38567 c 0.3669,-0.006 0.73142,0.0641 1.06824,0.20621 0.30894,0.13618 0.58466,0.33494 0.80927,0.58268 0.23121,0.25892 0.41254,0.55524 0.53712,0.87642 0.13423,0.33535 0.22067,0.44506 0.26137,0.82606 h -5.41195 c 0.10576,-0.81556 0.40336,-1.22645 0.88841,-1.73245 0.48606,-0.506 1.10115,-0.75892 1.84754,-0.75892 z M 52.94924,6.52354 c 0.45096,-0.006 0.89829,0.0849 1.30923,0.26617 0.38502,0.17216 0.73029,0.416 1.01788,0.71935 0.29052,0.31022 0.51823,0.67222 0.669,1.06585 0.16067,0.40778 0.23979,0.84047 0.23979,1.30083 v 0.0407 c 0.002,0.43282 -0.0718,0.86269 -0.21941,1.27085 -0.14744,0.40183 -0.3604,0.75265 -0.63902,1.05625 -0.596,0.64314 -1.44822,1.00335 -2.33671,0.98671 -0.46674,10e-6 -0.89512,-0.0898 -1.287639,-0.26735 -0.393531,-0.1776 -0.73436,-0.42159 -1.019087,-0.73015 -0.28676,-0.30956 -0.510366,-0.66666 -0.668999,-1.07544 C 49.854621,10.75053 49.77449,10.32334 49.77449,9.87686 V 9.83726 C 49.77079,9.39712 49.84528,8.95881 49.995091,8.54363 50.132724,8.15676 50.349904,7.80178 50.632919,7.49936 50.913577,7.20271 51.249898,6.9682 51.642414,6.78961 52.03391,6.61202 52.47131,6.52344 52.94924,6.52344 Z M 38.962589,18.10151 c -0.225896,0.0141 -0.438115,0.0702 -0.621042,0.19542 -0.324112,0.20871 -0.478687,0.5142 -0.465183,0.90399 0.01412,0.38918 0.21176,0.65403 0.563495,0.80688 0.09883,0.0417 0.184116,0.0832 0.282945,0.1115 0.16881,0.0553 0.337724,0.0838 0.507146,0.13907 0.15469,0.0558 0.323681,0.0975 0.478371,0.18105 0.225053,0.1298 0.253848,0.44384 0.05636,0.61263 -0.08497,0.0711 -0.187143,0.11893 -0.296134,0.13909 -0.380586,0.0694 -0.73214,-0.0278 -1.056252,-0.22301 L 38.11616,20.75952 c -0.126452,0.15347 -0.252991,0.29253 -0.380057,0.446 0.298526,0.26785 0.662852,0.44942 1.056252,0.52753 0.112953,0.0276 0.225761,0.0419 0.338095,0.0696 h 0.26856 c 0.02824,-0.0135 0.05541,-0.0276 0.06953,-0.0276 0.155305,-0.0417 0.325197,-0.0691 0.466382,-0.13908 0.394092,-0.18047 0.576337,-0.50096 0.591071,-0.91838 0.01412,-0.41741 -0.197909,-0.68093 -0.577881,-0.86202 -0.06998,-0.0277 -0.126646,-0.0556 -0.196624,-0.0839 -0.184155,-0.0553 -0.367112,-0.0976 -0.53592,-0.15346 -0.169422,-0.0553 -0.352455,-0.11013 -0.507145,-0.19423 -0.249126,-0.13683 -0.257233,-0.49254 -0.0144,-0.64023 0.0841,-0.0558 0.211693,-0.0974 0.310521,-0.1115 0.309995,-0.0417 0.605179,0.0702 0.872818,0.223 0.07059,0.0417 0.127498,0.0829 0.212209,0.12469 l 0.338097,-0.45919 c -0.04236,-0.0276 -0.07068,-0.0545 -0.09831,-0.0827 -0.408824,-0.29219 -0.873853,-0.40409 -1.366776,-0.37646 z m -11.280678,0.006 c -0.180587,0.0114 -0.366008,0.0475 -0.556301,0.10671 v -9.8e-4 c -0.732936,0.23694 -1.155246,0.7653 -1.254075,1.51664 -0.127067,0.96006 0.478409,1.80908 1.423123,2.01778 0.06998,0.0135 0.126961,0.0419 0.183435,0.0696 h 0.505947 c 0.07059,-0.0276 0.156004,-0.0555 0.226597,-0.0696 1.479376,-0.36216 1.832109,-2.1149 0.930365,-3.06084 -0.422635,-0.42817 -0.917331,-0.61327 -1.459091,-0.57908 z m 46.545839,0.0108 c -0.17838,-0.009 -0.36608,0.005 -0.5599,0.0395 -0.85939,0.13874 -1.47881,0.87718 -1.50705,1.73964 -0.0282,0.9042 0.54994,1.65474 1.40994,1.84994 0.07,0.0135 0.1536,0.0419 0.2242,0.0696 h 0.50715 c 0.0565,-0.0277 0.12695,-0.0554 0.18343,-0.0696 1.36643,-0.3063 1.8462,-1.87828 1.08502,-2.8942 C 75.22203,18.373 74.76289,18.1442 74.22775,18.11825 Z m -9.38038,0.0395 c -0.52178,1.18228 -1.05663,2.3788 -1.57779,3.5752 H 63.917 c 0.12707,-0.2922 0.25392,-0.57077 0.36687,-0.84884 h 1.70487 c 0.12707,0.29219 0.25454,0.57104 0.36687,0.86322 h 0.6762 c -0.53528,-1.21048 -1.0704,-2.40727 -1.59217,-3.58955 z m 17.31846,0 c -0.52116,1.19639 -1.05663,2.3788 -1.57779,3.5752 h 0.64742 c 0.12707,-0.2922 0.25454,-0.57077 0.36687,-0.84884 h 1.70488 c 0.12645,0.29219 0.25391,0.57076 0.36686,0.84884 h 0.6762 c -0.53589,-1.21051 -1.05721,-2.39292 -1.57899,-3.5752 z m -72.711166,0.0131 c -0.02824,0 -0.05569,2.7e-4 -0.08393,0.0144 v 3.54762 h 0.619845 v -1.2373 c 0,-0.4039 -0.01412,-0.82199 0,-1.22529 0.01412,0 0.02723,-2.8e-4 0.04196,-0.0144 0.647612,0.82133 1.296431,1.65626 1.944655,2.47698 h 0.450796 c 0.02762,0 0.04249,-0.0131 0.07073,-0.0131 V 18.1854 h -0.619842 v 2.37986 c -0.01412,0 -0.02904,0.0131 -0.04316,0.0131 -0.634106,-0.80721 -1.2542,-1.60024 -1.888306,-2.40745 z m 13.091054,0 c -0.295875,0.86308 -0.579339,1.72602 -0.875215,2.58849 h -0.02757 c -0.281756,-0.86244 -0.563485,-1.72512 -0.845241,-2.57407 h -0.689383 c 0.422941,1.197 0.831747,2.3788 1.254074,3.5752 h 0.563496 c 0.295875,-0.83485 0.577257,-1.65534 0.859629,-2.49017 h 0.04316 c 0.295876,0.83483 0.576059,1.66945 0.85843,2.49017 h 0.550306 c 0.422942,-1.1964 0.831747,-2.37881 1.254075,-3.5752 h -0.663006 c -0.281756,0.86245 -0.549097,1.71163 -0.830855,2.57408 h -0.0013 -0.04197 c -0.295875,-0.86245 -0.57694,-1.7254 -0.872815,-2.58847 z m 8.060369,0 c -0.05647,0 -0.09818,2.7e-4 -0.154661,0.0144 v 3.54762 h 0.634231 v -1.22411 h 0.787694 c 0.295875,0.41742 0.592258,0.82081 0.874015,1.22411 h 0.74693 c -0.324112,-0.45916 -0.647947,-0.88995 -0.957941,-1.3356 0.127067,-0.0417 0.211422,-0.0688 0.296134,-0.12469 0.408824,-0.22283 0.577613,-0.57165 0.563495,-1.0167 -0.01412,-0.43091 -0.21102,-0.76485 -0.619843,-0.94594 -0.212566,-0.0954 -0.444423,-0.14273 -0.677394,-0.13908 z m 25.222973,0 c -0.0565,0 -0.0982,2.7e-4 -0.15466,0.0144 v 3.54762 h 0.63423 v -1.22411 h 0.78889 c 0.29587,0.41742 0.59226,0.82081 0.87401,1.22411 h 0.74574 c -0.32412,-0.45916 -0.64856,-0.88995 -0.95795,-1.3356 0.0454,-0.01 0.089,-0.0286 0.12709,-0.0552 0.0424,-0.0135 0.0704,-0.0279 0.1127,-0.042 0.45057,-0.22221 0.63396,-0.58505 0.61985,-1.07184 -0.0282,-0.45915 -0.25352,-0.77959 -0.69058,-0.94595 -0.19706,-0.0785 -0.40778,-0.1163 -0.61985,-0.11151 z m 3.62195,0 v 3.54763 h 0.61984 v -2.4626 c 0.0141,0 0.0279,-0.0131 0.042,-0.0131 0.64823,0.83484 1.29643,1.65507 1.94466,2.47578 h 0.53472 V 18.171 h -0.61985 c -0.0141,0.22282 -0.0132,0.41744 -0.0132,0.61265 v 1.76602 c -0.0141,0 -0.029,2.7e-4 -0.0432,0.0144 -0.6341,-0.7931 -1.25393,-1.59996 -1.87391,-2.39306 z m 11.23032,0 v 3.56201 h 0.61985 v -3.56201 z m 14.4854,0 c -0.0423,0 -0.0838,0.0144 -0.14027,0.0144 v 3.54762 H 87.549 v -0.5707 h -1.8895 v -2.99131 z m -35.272348,0.002 c -0.677644,0.002 -1.33449,0.0123 -1.391951,0.0264 v 0.55631 h 1.126989 v 2.97692 h 0.633033 v -2.97686 h 1.142574 v -0.5563 c -0.134126,-0.0209 -0.832419,-0.0281 -1.510645,-0.0264 z m -36.395747,0.012 c -0.04236,0.27808 -0.02797,3.43651 0.0144,3.54762 h 2.677198 v -0.55624 h -2.057355 v -0.94596 h 1.789993 v -0.57068 h -1.789993 v -0.91838 c 0.676463,-0.0141 1.353048,9.2e-4 2.015392,-0.0131 v -0.54311 z m 3.25508,0 v 0.58387 h 1.142575 v 2.96375 h 0.633032 v -2.97692 h 1.141376 v -0.57069 z m 17.48751,0 v 3.54762 h 0.619845 v -1.04307 c 0.197045,-0.18108 0.380251,-0.36264 0.576683,-0.54311 l 1.226499,1.58618 h 0.775703 c -0.535891,-0.69549 -1.056943,-1.3625 -1.564596,-2.03098 0.493535,-0.50029 0.972433,-0.98812 1.479473,-1.51664 h -0.788893 c -0.549394,0.57088 -1.085323,1.1418 -1.635331,1.71206 -0.0135,0.0141 -0.01345,0.0131 -0.02757,0.0131 h -0.0144 c 0,0 -0.01345,9.2e-4 -0.02757,-0.0131 v -1.71206 z m 8.736563,0 v 3.54762 h 0.619843 v -3.54762 z m 1.662907,0 v 3.54762 h 0.619845 v -2.46259 c 0.01412,0 0.02784,-0.0144 0.04196,-0.0144 0.648225,0.83483 1.310549,1.65627 1.944655,2.47698 h 0.53592 v -3.54761 h -0.63423 c -0.01412,0.80721 -0.0144,1.60088 -0.0144,2.37986 -0.01412,0 -0.02758,-9.2e-4 -0.02758,0.0131 -0.634106,-0.7931 -1.25393,-1.59996 -1.873917,-2.39306 z m 7.524445,0 v 3.54762 h 2.69159 v -0.5563 h -2.04297 c -0.0141,-0.33393 -0.0144,-0.63964 -0.0144,-0.94595 h 1.7888 v -0.57063 h -1.78879 v -0.93156 h 2.02977 v -0.54312 z m 14.8235,0 v 0.58387 h 1.14258 v 2.96375 h 0.63423 v -2.97692 h 1.12699 v -0.57069 z m 9.79402,0.0144 v 3.54762 h 0.61984 v -2.46259 c 0.0141,0 0.0284,-0.0144 0.0432,-0.0144 0.64762,0.83483 1.30935,1.66977 1.94346,2.47698 h 0.52273 v -3.54756 h -0.63424 v 2.37866 c -0.0141,0 -0.0147,8.7e-4 -0.0288,0.0144 -0.6341,-0.7931 -1.25393,-1.59996 -1.87392,-2.39305 z m -2.70597,0.48676 c 0.53589,0.0141 1.00018,0.38986 1.14137,0.91838 0.0282,0.12522 0.0428,0.23623 0.0564,0.36208 -0.0141,0.58376 -0.35166,1.05686 -0.87282,1.20971 -0.72692,0.21037 -1.4703,-0.27903 -1.56459,-1.02987 -0.0282,-0.20871 -0.0133,-0.41687 0.0432,-0.61145 0.16881,-0.52914 0.63363,-0.86296 1.19653,-0.84885 z m -46.292871,0.009 c 0.553602,0.0307 1.050887,0.43898 1.144973,1.03468 0.05647,0.25046 0.02775,0.4872 -0.05635,0.72414 -0.183541,0.47267 -0.605216,0.76493 -1.126988,0.76493 -0.648225,0 -1.170025,-0.48644 -1.226499,-1.14018 -0.04236,-0.57088 0.239669,-1.07174 0.704966,-1.28045 0.18412,-0.0807 0.375365,-0.11334 0.5599,-0.10312 z m 28.594341,0.0467 h 0.91598 c 0.0847,0 0.18385,0.0137 0.26856,0.042 0.2394,0.0694 0.38033,0.23604 0.39445,0.47237 0.0282,0.26457 -0.0852,0.47398 -0.31052,0.58508 -0.0847,0.0417 -0.18292,0.0839 -0.28175,0.0839 -0.35174,0.0141 -0.70417,0 -1.07064,0 v -1.16895 c 0.0282,-0.0135 0.0557,-0.0144 0.0839,-0.0144 z m -25.279316,0.0144 c 0.380587,0 0.747065,-0.0135 1.099415,0 0.437061,0.0283 0.662103,0.4168 0.521532,0.79248 -0.08472,0.22283 -0.281862,0.34796 -0.507145,0.36208 -0.366468,0.0276 -0.733829,0.0144 -1.113802,0.0144 z m 34.030266,0.15225 c 0.21117,0.48741 0.40868,0.93368 0.61985,1.40635 h -1.2253 c 0.19704,-0.47267 0.39429,-0.91894 0.60545,-1.40635 z m 17.30408,0.0432 h 0.042 c 0.19766,0.44503 0.39461,0.90401 0.59226,1.36318 h -1.22649 c 0.19766,-0.45917 0.39461,-0.91814 0.59227,-1.36318 z"
   id="path2"
   inkscape:connector-curvature="0" /><path
   style="opacity:0.8;fill:#37abc8;fill-opacity:0.83529412;stroke-width:0;stroke-miterlimit:4;stroke-dasharray:none"
   d="M 6.276031,3.78156 A 5.5999984,5.5999893 0 0 0 0.683575,9.38758 5.5999984,5.5999893 0 0 0 6.28659,14.98154 5.5999984,5.5999893 0 0 0 11.883571,9.38155 V 9.37095 A 5.5999984,5.5999893 0 0 0 6.276031,3.78153 Z m -0.08448,0.29116 c 0.07428,0.0161 0.02523,0.10052 0.006,0.14332 -0.04968,-0.007 -0.09945,-0.0127 -0.149353,-0.0181 -0.0063,0.0112 -0.01908,0.0341 -0.02564,0.0453 -0.07452,0.0206 -0.153511,0.0134 -0.227802,0.0362 -0.07113,0.0252 -0.139023,0.0596 -0.209699,0.086 -0.07226,0.0277 -0.156363,0.006 -0.224784,0.0453 C 5.16133,4.52454 4.945232,4.60929 4.722127,4.65965 4.480731,4.67435 4.280175,4.82576 4.065876,4.92216 c -0.04562,0.004 -0.09731,-0.029 -0.137284,0.003 -0.101842,0.0714 -0.199828,0.14948 -0.312284,0.20215 -0.108843,0.008 -0.176185,0.10428 -0.27306,0.14182 0.0093,-0.0316 0.0099,-0.0742 0.04828,-0.0845 C 3.504661,5.13453 3.596805,5.04459 3.71739,5.01114 3.972787,4.81925 4.272136,4.69718 4.56976,4.59024 c 0.056,-0.0219 0.110517,-0.0504 0.149354,-0.0981 -0.0099,-0.0337 -0.03168,-0.0477 -0.06488,-0.0407 -0.09913,0.005 -0.183032,0.0639 -0.271552,0.1026 -0.144747,0.0669 -0.301279,0.1028 -0.44806,0.16443 -0.196007,0.0561 -0.356316,0.18925 -0.525,0.2987 C 3.338032,5.06577 3.253078,5.10157 3.207467,5.18011 3.134077,5.30124 2.99875,5.35299 2.892165,5.43657 2.891238,5.49137 2.898965,5.553 2.858975,5.59648 2.774295,5.69338 2.662394,5.76503 2.587423,5.87105 2.655393,5.83375 2.699459,5.75634 2.780527,5.74283 2.766747,5.78913 2.742307,5.83253 2.715657,5.87257 2.60162,6.04637 2.490479,6.22076 2.376216,6.39455 2.326086,6.47145 2.254482,6.53711 2.225355,6.62687 c -0.03433,0.0999 -0.06584,0.19924 -0.09655,0.30022 -0.01309,0.0359 -0.02428,0.0772 -0.05431,0.10258 -0.06052,0.005 -0.05171,-0.0865 -0.04677,-0.12823 0.0411,-0.20082 0.05207,-0.41038 0.134267,-0.60043 0.06142,-0.15068 0.156521,-0.28432 0.264009,-0.4043 0.08897,-0.087 0.10909,-0.21923 0.188577,-0.3138 C 2.90046,5.20761 3.29301,4.92141 3.723414,4.73959 3.802454,4.70249 3.865386,4.6388 3.942164,4.59779 4.12846,4.49909 4.329849,4.43699 4.529017,4.37149 4.655474,4.32999 4.774964,4.26617 4.901646,4.22515 c 0.186298,-0.0265 0.376418,0.005 0.562715,-0.0226 0.135037,-0.027 0.273727,-0.0167 0.410345,-0.012 0.126908,0.0399 0.19329,-0.13945 0.316811,-0.11767 z m 0.840301,0.0996 c 0.07632,0.0208 0.151838,0.0435 0.220258,0.0845 -0.01965,0.0355 -0.04017,0.0712 -0.06185,0.10561 -0.09258,-0.0291 -0.188472,-0.0437 -0.280604,-0.0724 -0.0068,-0.008 -0.02059,-0.0252 -0.02716,-0.0332 0.05533,-0.017 0.107126,-0.0442 0.149353,-0.0845 z m -0.45862,0.0633 c 0.03523,-0.005 0.06783,-7.7e-4 0.09504,0.0317 -0.02326,0.0174 -0.04614,0.0339 -0.06939,0.0513 0.123972,-0.0121 0.271608,-0.0415 0.369612,0.0589 -0.0962,0.0259 -0.197531,-0.0185 -0.29418,0.0136 -0.01445,0.0183 -0.02802,0.0378 -0.04224,0.0559 0.139328,-0.0211 0.280819,-0.005 0.417888,0.0241 0.07452,0.0192 0.149433,-0.004 0.223276,-0.0166 0.04177,-0.0245 -0.0091,-0.0633 -0.02263,-0.0875 0.0081,-0.0146 0.01578,-0.029 0.02414,-0.0437 0.03681,-0.01 0.07262,-0.0232 0.101078,-0.0498 0.101165,0.0114 0.201803,0.0419 0.285129,0.1026 -0.04155,0.0387 -0.08601,0.0738 -0.132759,0.10559 -0.04832,-0.013 -0.09665,-0.0255 -0.146336,-0.0317 0.02461,0.0117 0.07344,0.0349 0.09806,0.0468 -0.02732,0.008 -0.08281,0.0247 -0.110129,0.0332 0.191265,0.0806 0.362471,-0.0846 0.552155,-0.0784 -0.0014,0.0138 -0.0032,0.0419 -0.0046,0.0558 0.03545,0.0114 0.07061,0.0232 0.105603,0.0362 -0.07248,0.0149 -0.146565,0.023 -0.217241,0.0453 0.01265,0.0112 0.03865,0.0341 0.0513,0.0453 -0.0081,0.0128 -0.02506,0.0385 -0.03319,0.0513 -0.06661,0.009 -0.163161,-0.0165 -0.200647,0.0573 0.129166,0.0373 0.261855,0.0619 0.384699,0.11917 -0.02259,0.0348 -0.05214,0.0647 -0.09504,0.0709 0.05329,0.0941 0.18777,0.086 0.233837,0.18858 0.04358,0.024 0.109025,0.086 0.0528,0.13275 C 8.101917,5.29021 8.012525,5.22201 7.929424,5.18031 7.864384,5.12481 7.802047,5.05458 7.707657,5.06717 7.692297,5.08267 7.676017,5.09827 7.660887,5.11387 7.545496,5.06257 7.409535,5.03557 7.3305,4.92681 c 0.07045,-0.005 0.140523,-0.004 0.211206,-0.006 -0.0036,-0.0236 -0.007,-0.046 -0.01056,-0.0694 -0.12894,0.0295 -0.243156,-0.0829 -0.369612,-0.0332 -0.06458,0.0212 -0.132973,0.005 -0.199138,0.008 -0.08468,-0.0224 -0.165914,-0.0816 -0.256466,-0.0543 0.121714,0.0307 0.235475,0.0874 0.331897,0.16897 0.042,0.0444 0.06888,0.13811 0.146336,0.10559 -0.0095,0.0511 0.02796,0.0873 0.0528,0.12673 0.07316,7.8e-4 0.156715,-0.007 0.212715,0.0513 -0.02574,0.038 -0.05292,0.0899 -0.107112,0.083 C 7.244106,5.3226 7.191504,5.2079 7.096661,5.2094 6.981496,5.1956 6.867189,5.1497 6.790411,5.05854 6.707761,5.11834 6.586038,5.06554 6.57317,4.96344 6.53568,4.92754 6.50095,4.88504 6.449463,4.86994 6.371103,4.84724 6.322403,4.75591 6.235239,4.76132 c -0.06549,0.0135 -0.123316,0.0487 -0.188577,0.0633 0.0022,0.01 0.0068,0.0294 0.0091,0.0392 -0.0822,-0.0126 -0.163636,-0.0358 -0.247413,-0.0256 -0.06774,0.003 -0.138559,0.0219 -0.205172,0.002 -0.05465,-0.0114 -0.0292,-0.0789 -0.02263,-0.11617 0.0043,-0.0572 0.07309,-0.0273 0.110129,-0.0392 0.07158,0.005 0.111031,-0.0708 0.181035,-0.0739 0.116294,-0.0399 0.264967,0.0783 0.362068,-0.0256 0.02123,-0.019 0.0441,-0.0348 0.06939,-0.0483 -0.03161,-0.0229 -0.107135,-0.0259 -0.08297,-0.0815 0.116972,0.0256 0.229151,-0.0168 0.331896,-0.0709 -0.03906,-0.0437 -0.111839,-0.004 -0.135776,-0.0709 0.01288,-0.0131 0.03865,-0.0382 0.0513,-0.0513 0.03353,-0.005 0.07037,-0.0202 0.105603,-0.0256 z M 5.378404,4.79984 c 0.0435,-0.007 0.08627,-0.0136 0.129742,0 0.0149,0.0366 -0.02102,0.0575 -0.04224,0.08 -0.04945,0.0414 -0.09977,0.0845 -0.156895,0.11466 -0.084,0.0117 -0.170503,-0.002 -0.254958,0 0.05758,-0.0719 0.156298,-0.10125 0.193104,-0.19009 0.04403,0.0107 0.08775,0.002 0.13125,-0.005 z m 0.497845,0.1931 c 0.04178,0.004 0.08502,0.0108 0.125216,0.0241 -0.0076,0.0101 -0.02404,0.0294 -0.03168,0.0392 0.07949,-0.002 0.159327,-0.003 0.238363,0.008 -0.0059,0.0368 -0.01534,0.0735 -0.02867,0.10862 0.05284,0.002 0.103973,0.0119 0.153879,0.0302 -0.0019,0.0149 -0.0058,0.0439 -0.0076,0.0589 0.05216,7.7e-4 0.105639,-6.4e-4 0.156897,0.0106 0.05758,0.0131 0.09543,0.0616 0.134267,0.10259 l -0.03168,0.0633 c -0.04607,-0.0174 -0.09265,-0.0338 -0.140301,-0.0453 0.06368,0.0472 0.132981,0.0885 0.203663,0.12371 0.01241,-0.0213 0.02379,-0.0436 0.03621,-0.0649 0.05893,0.019 0.136215,0.0198 0.164439,0.086 -0.04584,0.0266 -0.08833,0.003 -0.126724,-0.0226 -0.0099,0.036 -0.01994,0.0716 -0.03168,0.10711 -0.07587,-0.0101 -0.139612,-0.0545 -0.206681,-0.0875 -0.0063,0.0334 -0.01177,0.0661 -0.01811,0.0996 -0.04223,-0.0254 -0.08101,-0.0558 -0.114655,-0.092 -4.63e-4,-0.0151 -0.0011,-0.0452 -0.0015,-0.0603 -0.12194,-0.0392 -0.246307,-0.0676 -0.365086,-0.11616 -0.07248,0.071 -0.191055,0.0245 -0.254957,0.10258 0.130295,0.0232 0.266164,0.0106 0.39375,0.0497 0.05555,0.0286 0.102935,0.0717 0.161422,0.095 0.09078,0.0392 0.19287,0.0688 0.259483,0.14785 0.04516,0.0687 0.155678,0.0495 0.187069,0.13125 0.0271,0.0579 0.0607,0.11312 0.08599,0.17197 -0.01919,0.0162 -0.03851,0.0321 -0.05883,0.0467 C 6.644707,6.03926 6.55043,5.93323 6.420812,5.88789 6.329362,5.84869 6.229315,5.85569 6.132666,5.84719 c -0.0093,-0.01 -0.02823,-0.0306 -0.03772,-0.0407 -0.120359,0.003 -0.238314,0.0348 -0.357544,0.0483 -0.01423,-0.0222 -0.02801,-0.0444 -0.04224,-0.0663 -0.01378,0.009 -0.04205,0.0273 -0.05582,0.0362 0.02235,0.0352 0.04842,0.0663 0.07845,0.095 -0.118553,0.0382 -0.250679,0.0116 -0.368103,0.0633 -0.02461,-0.014 -0.04953,-0.0283 -0.07392,-0.0423 C 5.171894,6.03529 5.016332,6.08586 4.96801,6.23035 4.97975,6.29165 5.02153,6.34983 5.00573,6.4144 4.98428,6.506 4.91289,6.57182 4.850343,6.63617 c 0.03929,0.009 0.07854,0.0248 0.11918,0.0241 0.0411,-0.014 0.07672,-0.0399 0.114655,-0.0603 0.01129,0.0169 0.03268,0.051 0.04375,0.0679 0.03252,-0.0149 0.06449,-0.0304 0.09655,-0.0467 0.04358,0.011 0.08804,0.0187 0.132759,0.0256 0.02213,0.0226 0.04485,0.0443 0.06789,0.0663 -0.03409,0.0378 -0.06924,0.075 -0.101077,0.11465 0.105682,-0.01 0.184893,-0.0842 0.260991,-0.15086 0.05893,0.005 0.131115,0.0353 0.171983,-0.0257 -0.05578,-0.0245 -0.112428,-0.0473 -0.165948,-0.0769 0.02416,-0.0267 0.04985,-0.0541 0.08147,-0.0724 0.05487,-0.002 0.103286,0.0295 0.149353,0.0558 0.0032,0.0149 0.0087,0.0439 0.01207,0.0589 0.04516,0.0259 0.08734,0.0589 0.119182,0.10108 0.056,0.0147 0.110822,0.0357 0.152371,0.0784 0.0149,-0.003 0.04393,-0.0105 0.05883,-0.0136 0.02032,0.0357 0.02567,0.0923 0.07241,0.10258 0.05894,0.0149 0.120121,0.0278 0.170474,0.0649 0.01829,-0.0163 0.03708,-0.032 0.05582,-0.0483 -0.04855,-0.0419 -0.09083,-0.0906 -0.13125,-0.1403 0.03523,-0.0444 0.129397,-0.1124 0.146336,-0.0151 0.02439,-0.0222 0.04363,-0.0499 0.06035,-0.0785 C 6.496262,6.63042 6.444702,6.63972 6.393664,6.64512 6.345794,6.59682 6.271049,6.55342 6.251855,6.48973 6.324795,6.39863 6.440292,6.35405 6.55207,6.33736 c 0.042,0.0378 0.09223,0.064 0.149353,0.0679 -0.01264,0.0854 -0.01447,0.17449 -0.04224,0.25646 -0.03523,0.0414 -0.0811,0.0706 -0.122198,0.10561 0.01061,0.011 0.03012,0.0325 0.04074,0.0437 0.02303,-0.0124 0.04765,-0.0241 0.07091,-0.0362 0.05352,0.0868 0.02467,0.21642 -0.08146,0.24138 0.04087,0.0543 0.01788,0.15785 0.09353,0.17801 0.07813,-0.005 0.09527,-0.0912 0.132758,-0.14483 0.04268,-0.0485 0.101032,-0.0798 0.149354,-0.1222 -9.27e-4,-0.0776 0.0117,-0.15928 0.08599,-0.19913 -0.01874,-0.0662 -0.04303,-0.13074 -0.05883,-0.19763 4.48e-4,-0.0444 0.02604,-0.0842 0.0362,-0.12672 -0.04991,0.0105 -0.108569,0.0161 -0.119182,-0.0483 0.01897,-0.0162 0.03836,-0.0334 0.05733,-0.0498 -0.01942,-0.0185 -0.03813,-0.0362 -0.05733,-0.0543 -0.02348,0.0245 -0.04233,0.0707 -0.08297,0.0453 -0.04404,-0.0767 0.03557,-0.14314 0.09203,-0.18253 0.04675,0.0174 0.09541,0.0369 0.125216,0.0799 0.102297,0.13716 0.07639,0.32649 0.173491,0.46617 0.02167,0.0252 -0.01421,0.0421 -0.02866,0.0558 0.0056,0.0536 0.0091,0.10782 0.01358,0.16143 0.06074,-0.0868 0.103076,-0.18958 0.191595,-0.25345 -0.01106,0.0767 -0.0313,0.15273 -0.0347,0.23082 0.0691,-0.0112 0.14585,-0.0255 0.165948,-0.10561 0.03794,0.006 0.07695,0.0109 0.114655,0.0196 0.02168,0.0329 0.0028,0.0667 -0.01056,0.0981 -0.02055,0.0105 -0.04153,0.0209 -0.06186,0.0317 0.07181,0.005 0.112061,0.0671 0.168965,0.10258 0.05103,0.0314 0.08095,0.0863 0.12069,0.12974 -0.0569,0.033 -0.130696,0.0509 -0.190087,0.0136 -0.02665,0.009 -0.05504,0.0565 -0.08147,0.0226 -0.0025,-0.0121 -0.0081,-0.0362 -0.01056,-0.0483 -0.03365,-0.0174 -0.06743,-0.0346 -0.101077,-0.0513 -0.02754,0.0144 -0.05513,0.03 -0.08448,0.0407 -0.028,-0.0234 -0.04686,-0.0804 -0.09203,-0.0589 -0.07881,0.03 -0.137061,0.12439 -0.104095,0.2082 0.05533,0.0181 0.117192,0.006 0.175,0.009 0.0076,0.007 0.02252,0.0225 0.03017,0.0302 0.05781,-0.0256 0.119971,-0.0382 0.173491,0.003 -0.07136,0.0103 -0.135237,0.0445 -0.165948,0.11315 0.0041,0.0161 0.01251,0.0488 0.0166,0.0649 -0.05487,0.0252 -0.112951,0.0449 -0.16444,0.0769 0.03929,0.008 0.07966,0.0141 0.119181,0.0211 -0.0041,0.0405 -0.009,0.0806 -0.01509,0.12069 C 7.30932,7.7065 7.27932,7.7169 7.24906,7.7266 7.248364,7.7508 7.24676,7.7745 7.24606,7.799 7.23364,7.805 7.2087,7.8169 7.19628,7.8231 7.20438,7.8563 7.19348,7.888 7.17817,7.9166 7.14949,7.9216 7.12214,7.9256 7.09369,7.9302 7.05846,7.9076 7.02013,7.89 6.979035,7.8819 c -0.02665,0.0444 -0.06217,0.083 -0.107112,0.10862 -0.04516,-0.009 -0.04968,-0.053 -0.05733,-0.0905 -0.03116,0.0236 -0.08477,0.0303 -0.09203,0.0754 -0.0075,0.0456 -0.02905,0.0856 -0.06789,0.11013 -0.0029,-0.0195 -0.0091,-0.059 -0.01207,-0.0785 -0.03771,0.0159 -0.07597,0.0283 -0.116164,0.0136 0.118779,-0.21914 0.346597,-0.33673 0.520475,-0.50389 -0.0131,-0.0272 -0.0646,-0.0553 -0.04224,-0.089 0.04088,-0.0474 0.08952,-0.0877 0.12069,-0.14332 -0.03478,-0.002 -0.06955,-0.004 -0.104095,-0.005 -0.0271,0.0345 -0.05449,0.0871 -0.107112,0.0724 -0.08852,-0.0165 -0.181053,-0.007 -0.260991,0.0362 -0.07181,0.0472 -0.129627,0.11182 -0.184052,0.17802 0.0029,0.0138 0.0091,0.0419 0.01207,0.0559 -0.02597,0.0529 -0.02703,0.11126 -0.02564,0.16896 -0.03071,0.0261 -0.06379,-0.006 -0.0875,-0.0241 -0.01535,0.0584 -0.05113,0.10122 -0.116163,0.092 -0.01671,0.0472 -0.03473,0.0951 -0.0528,0.14181 0.03974,0.0144 0.08267,0.0216 0.117672,0.0467 0.0059,0.0371 0.0045,0.0756 0.006,0.11315 0.03206,7.8e-4 0.06426,0.003 0.09655,0.006 -0.02687,0.052 -0.05901,0.10187 -0.107112,0.13578 -0.142489,0.065 -0.251867,0.18528 -0.395259,0.24892 -0.0289,-0.0236 -0.05792,-0.0484 -0.0875,-0.0709 -0.0052,0.0283 -0.01284,0.0566 -0.02414,0.083 -0.056,0.009 -0.121144,7.7e-4 -0.158405,0.0543 C 5.547077,8.60618 5.498462,8.72083 5.40249,8.7247 5.32504,8.7307 5.248233,8.7403 5.176197,8.7714 5.137137,8.7919 5.096917,8.7764 5.058525,8.7634 5.127625,8.7147 5.199639,8.6685 5.262189,8.61103 c 0.05984,-0.0161 0.11953,-0.0283 0.178017,-0.0498 0.02778,-0.0252 0.02577,-0.0661 0.03319,-0.0996 -0.06571,0.0169 -0.133876,0.028 -0.199137,0.0468 -0.06888,0.0205 -0.120613,0.0813 -0.193104,0.092 -0.103423,0.0152 -0.208635,-7.6e-4 -0.312284,0.009 -0.07475,0.0273 -0.146355,0.074 -0.226293,0.0362 -0.128489,0.0978 -0.294824,0.15139 -0.455604,0.11315 -0.06887,-0.0254 -0.0727,0.0846 -0.137284,0.0815 -0.04697,0.0137 -0.07799,-0.034 -0.111638,-0.0573 -0.05871,0.002 -0.116737,0.01 -0.175,0.0166 0.01874,0.0165 0.03731,0.0331 0.05582,0.0498 -0.01829,0.0199 -0.03708,0.0406 -0.05582,0.0603 C 3.592142,8.87688 3.5435,8.81108 3.475983,8.7724 3.439633,8.7824 3.403953,8.7919 3.367363,8.8011 3.343203,8.7638 3.318203,8.7269 3.290423,8.69247 c -0.03365,0.008 -0.06743,0.0157 -0.101078,0.0226 -0.01897,0.0268 -0.03836,0.0529 -0.05733,0.08 -0.0122,-0.002 -0.03608,-0.005 -0.04828,-0.008 0.02665,-0.0902 -0.0266,-0.17581 -0.04828,-0.26099 -0.05307,0.0327 -0.105721,0.0646 -0.159913,0.095 -0.08152,-0.038 -0.18423,-0.0606 -0.232328,-0.14483 -0.0088,-0.0286 0.0016,-0.0978 0.04677,-0.0724 0.05578,0.0126 0.112062,0.021 0.168965,0.0272 -0.01332,-0.14174 -0.146055,-0.22666 -0.227801,-0.3304 -0.05352,0.0323 -0.107618,0.0644 -0.167457,0.083 0.0061,-0.084 0.04283,-0.16421 0.07241,-0.24137 l 0.02263,0.009 c 0.0036,0.0112 0.0099,0.0343 0.01358,0.0453 0.0192,-0.0341 0.03979,-0.0677 0.06035,-0.10108 C 2.610071,7.8378 2.611161,7.77156 2.572311,7.7205 2.530311,7.7546 2.487951,7.789 2.442569,7.8186 2.438469,7.8011 2.430069,7.7669 2.425979,7.7492 2.393459,7.7552 2.361719,7.7611 2.329429,7.7673 2.301209,7.7474 2.272879,7.7277 2.246459,7.7054 2.273329,7.6805 2.301209,7.6563 2.329429,7.633 h 0.08298 c 0.03206,-0.0616 0.09584,-0.11165 0.08297,-0.18858 -0.021,0.0238 -0.04131,0.0479 -0.06186,0.0724 -0.02484,-0.004 -0.05082,-0.008 -0.07543,-0.012 -0.01713,-0.0655 0.01109,-0.13016 0.0046,-0.19612 -0.0029,-0.0582 0.01302,-0.11408 0.0347,-0.16745 0.07858,-0.0172 0.07588,-0.11834 0.146336,-0.15087 0.01197,-0.0486 0.02148,-0.11012 0.08448,-0.11012 -2.25e-4,0.1177 -0.07075,0.21513 -0.102586,0.32435 -0.02416,0.0531 -0.0032,0.11185 -0.01056,0.16746 0.021,-0.0106 0.04312,-0.0144 0.06638,-0.009 C 2.609899,7.26437 2.667719,7.17827 2.69911,7.08096 2.698183,7.03606 2.68921,6.99266 2.68403,6.9482 2.72399,6.904 2.75247,6.8504 2.76399,6.7913 2.74705,6.7953 2.71304,6.8018 2.6961,6.8049 L 2.63425,6.7596 C 2.68076,6.6529 2.7103,6.53434 2.791147,6.44732 2.883507,6.31863 2.902658,6.12829 3.056664,6.05206 3.164152,5.96256 3.223614,5.79571 3.376491,5.77146 3.355041,5.84176 3.328761,5.9097 3.302571,5.97814 3.202309,6.01424 3.167044,6.12402 3.104942,6.20141 c 0.0054,0.0541 -0.0052,0.10491 -0.02866,0.15388 0.01174,0.0103 0.03631,0.032 0.04828,0.0423 -0.01423,0.014 -0.02824,0.028 -0.04224,0.0422 -0.0074,0.1896 -0.126209,0.34062 -0.203664,0.50389 0.0099,0.14242 -0.07099,0.2731 -0.182543,0.35301 0.0081,0.0321 0.01478,0.064 0.02112,0.0966 -0.03409,0.0291 -0.06531,0.0602 -0.09353,0.095 0.01089,0.0394 0.01906,0.0799 0.0076,0.12069 0.03523,0.0378 0.07205,0.0759 0.117672,0.10108 0.02642,-0.0174 0.05286,-0.0348 0.07996,-0.0513 0.0039,0.0806 0.007,0.16552 -0.03319,0.23836 0.02913,0.0522 0.02656,0.14132 0.101079,0.14935 0.135489,0.0284 0.211391,0.15491 0.264008,0.27306 0.08129,0.0819 0.20753,-0.0837 0.288146,0.006 0.03907,0.0307 -0.01671,0.0636 -0.03319,0.089 0.0761,0.038 0.15794,0.066 0.224784,0.12068 0.07452,0.0197 0.147701,0.0433 0.221768,0.0649 0.0822,-4.6e-4 0.163708,-0.006 0.245905,0 0.09913,-0.0218 0.20101,-0.03 0.301724,-0.0392 0.0901,-0.0121 0.116035,-0.11147 0.161422,-0.17651 0.04968,0.002 0.06916,0.0608 0.102586,0.0905 0.06052,-0.002 0.122929,0.002 0.182543,-0.012 C 4.910042,8.4487 4.941092,8.3972 4.981738,8.3633 5.049258,8.3486 5.118109,8.3454 5.185401,8.3271 5.144521,8.2967 5.101811,8.2707 5.058678,8.2441 5.126648,8.1878 5.219983,8.1548 5.3076,8.1717 5.40131,8.1889 5.475536,8.1155 5.559539,8.0887 5.785354,8.0122 5.940479,7.81878 6.089065,7.64064 6.150265,7.56374 6.237491,7.49886 6.262556,7.39926 6.247876,7.28591 6.183746,7.1766 6.083031,7.12168 5.998581,7.07358 5.902853,7.05128 5.808462,7.03418 5.717462,7.01588 5.626784,7.04788 5.53691,7.05678 5.44026,7.07668 5.360282,7.00608 5.268376,6.99048 5.083885,6.93228 4.885866,7.01428 4.743376,7.1338 4.674736,7.1318 4.606856,7.1167 4.538204,7.1172 4.495074,7.1445 4.421921,7.24342 4.400919,7.1383 4.366589,7.1473 4.331379,7.1562 4.296825,7.164 c 0.02055,-0.0417 0.04373,-0.0823 0.06789,-0.1222 0.01784,-0.002 0.05284,-0.004 0.07091,-0.005 0.01784,-0.062 0.118524,-0.0847 0.09504,-0.15388 -0.05714,0.002 -0.104482,0.0348 -0.143319,0.0739 -0.028,-0.006 -0.05473,-0.0178 -0.07845,-0.0347 0.0013,-0.0181 0.0046,-0.0541 0.006,-0.0724 -0.05442,-0.003 -0.130323,0.0457 -0.155388,-0.0287 0.08762,-0.047 0.201107,-0.0288 0.276077,-0.0996 0.0402,-0.0524 0.106617,-0.0128 0.159914,-0.0136 0.0054,-0.13671 0.10042,-0.2474 0.11013,-0.38319 -0.01942,-0.0238 -0.03813,-0.0489 -0.05733,-0.0724 l -0.01056,-0.008 c -0.03613,0.0108 -0.07211,0.0227 -0.107112,0.0362 -0.0052,0.0487 -0.01026,0.0976 -0.01659,0.14633 -0.0551,0.0163 -0.0933,-0.0159 -0.122198,-0.0603 l -0.06035,0.0603 c -0.02687,-0.0185 -0.061,-0.0341 -0.06487,-0.0724 -0.06594,0.0408 -0.129687,0.0966 -0.211207,0.0966 -0.0551,0.0522 -0.107806,0.10764 -0.149354,0.17198 0.0047,0.0165 0.0149,0.0497 0.01961,0.0663 -0.10952,0.0477 -0.149732,0.16388 -0.221768,0.25044 -0.02778,-0.005 -0.0552,-0.01 -0.08297,-0.0151 -0.01784,0.0456 -0.04198,0.0896 -0.09504,0.0966 -6.96e-4,-0.0385 -0.0019,-0.0777 -0.003,-0.11617 -0.125551,0.0341 -0.131368,0.18282 -0.185561,0.2806 -0.0402,0.0627 -0.0049,0.13552 0.05431,0.16897 0.0049,-0.0175 0.01467,-0.052 0.01961,-0.0694 0.049,0.0156 0.05293,0.0685 0.07845,0.1056 0.08965,0.0593 0.196918,0.085 0.288147,0.14181 0.01535,0.0645 -0.05636,0.0573 -0.09655,0.0724 0.04742,0.0558 0.127401,0.0981 0.197629,0.0573 0.04494,-0.0309 0.09802,-0.0383 0.150862,-0.0437 0.028,0.0162 0.05573,0.0318 0.08599,0.0437 0.04403,-0.0202 0.08195,-0.0568 0.132758,-0.0573 0.06458,-7.7e-4 0.119313,-0.0413 0.182543,-0.0467 0.06323,0.0161 0.117334,0.0555 0.171983,0.0905 -0.01264,0.0114 -0.03843,0.0338 -0.0513,0.0453 0.0063,0.006 0.01931,0.0195 0.02564,0.0256 0.09778,-0.002 0.180341,-0.12301 0.280603,-0.0724 0.0036,0.0112 0.01146,0.0341 0.01509,0.0453 0.06865,-0.0126 0.141495,-0.0286 0.205173,0.0106 0.08265,0.0472 0.21591,-0.0301 0.264008,0.0784 -0.07362,0.0204 -0.134758,0.0631 -0.190086,0.11465 -0.136843,-0.006 -0.276652,0.0358 -0.405819,-0.0271 -0.02755,0.0219 -0.05588,0.0439 -0.08297,0.0663 0.02597,0.027 0.05573,0.0494 0.08599,0.0709 0.0027,0.0616 -0.05398,0.11079 -0.113147,0.092 -0.08761,-0.0307 -0.134048,0.0691 -0.209698,0.089 -0.09033,0.0263 -0.163093,-0.0481 -0.239871,-0.083 -0.04336,0.009 -0.08661,0.0186 -0.129741,0.0287 0.0084,0.0273 0.01774,0.0552 0.02564,0.083 -0.01174,0.002 -0.03631,0.004 -0.04828,0.005 -0.0359,-0.0288 -0.07166,-0.0571 -0.107112,-0.086 -0.03749,0.006 -0.07483,0.0118 -0.111637,0.0196 0.04245,0.0738 0.0959,0.14427 0.110129,0.23082 -0.04787,0.0202 -0.09509,0.0703 -0.150863,0.0483 C 3.7362,8.42376 3.68863,8.41586 3.673733,8.37186 3.629693,8.28256 3.556413,8.21307 3.510802,8.12445 3.482342,8.06655 3.436402,8.02032 3.390112,7.9766 3.337042,7.9351 3.255435,7.9156 3.240759,7.83931 3.219979,7.75601 3.136947,7.69949 3.144209,7.60699 c -0.02462,-0.0253 -0.05059,-0.0507 -0.07543,-0.0754 0.04649,-0.0898 0.01139,-0.19262 0.04526,-0.28513 0.01784,0.005 0.05458,0.015 0.07241,0.0196 0.0022,-0.15227 -0.0102,-0.30644 0.01509,-0.45711 C 3.224799,6.69285 3.356545,6.64416 3.388608,6.53287 3.439418,6.3522 3.534894,6.1844 3.654125,6.04106 c 0.08107,-0.10123 0.210316,-0.13012 0.324353,-0.175 0.02483,-0.0153 0.08117,-0.0218 0.04978,-0.0694 0.02461,-0.0124 0.04885,-0.0246 0.07392,-0.0362 -0.0086,-0.0249 -0.01649,-0.0487 -0.02414,-0.0739 -0.01875,-0.0105 -0.03859,-0.0215 -0.05733,-0.0317 0.0068,-0.027 0.01386,-0.0531 0.02112,-0.08 0.03161,0.0181 0.0626,0.0362 0.09353,0.0558 0.129844,-0.0371 0.231956,-0.17386 0.377156,-0.1418 -0.01829,0.0865 -0.114097,0.1726 -0.06487,0.26099 0.05803,-0.0124 0.123272,-0.0196 0.165948,-0.0663 0.06097,-0.0653 0.0736,-0.16091 0.132759,-0.2278 0.03071,-0.0331 0.07514,-0.0471 0.114654,-0.0663 C 4.942525,5.35465 4.99448,5.26919 5.082773,5.24764 5.218714,5.21054 5.353482,5.16694 5.4901,5.13298 c 0.12352,-0.0287 0.250761,0.0407 0.371121,-0.0106 0.0039,-0.0442 0.0083,-0.0875 0.01509,-0.13126 z M 7.304913,5.41083 C 7.440402,5.36983 7.603475,5.42993 7.677542,5.55264 7.726322,5.62074 7.636592,5.70179 7.57043,5.66579 7.457523,5.61659 7.353011,5.52762 7.304913,5.41083 Z m 1.513145,0.092 c 0.04265,-0.005 0.08461,-0.007 0.126725,0.006 0.06594,0.0185 0.129419,0.0616 0.155388,0.12823 -0.01987,0.0586 -0.129495,0.047 -0.12069,-0.0241 -0.02664,0.0158 -0.05331,0.0311 -0.07996,0.0467 -0.03839,-0.006 -0.07649,-0.0127 -0.114655,-0.0181 -0.0046,0.0145 -0.01378,0.0444 -0.01811,0.0589 -0.100488,0.0133 -0.187063,0.0857 -0.291164,0.0724 -0.0045,-0.035 0.03404,-0.1047 -0.02716,-0.095 -0.115842,0.006 -0.236867,-0.0466 -0.279095,-0.16293 0.07204,-0.002 0.143317,0.0292 0.214224,0.005 0.0099,0.0219 0.0188,0.0434 0.02716,0.0663 0.06007,0.0208 0.119986,0.0441 0.178018,0.0709 0.02484,-0.0536 0.05682,-0.1037 0.101078,-0.14332 0.04268,0.002 0.08558,-0.006 0.128232,-0.0106 z m -1.000215,0.2444 c 0.03161,0.0337 0.05487,0.0724 0.07091,0.11616 0.05849,-0.0144 0.117043,-0.0385 0.178017,-0.0392 0.103875,0.005 0.189262,0.0713 0.264009,0.13879 0.07903,0.0726 0.170564,0.1299 0.248922,0.20367 -0.0079,0.01 -0.02355,0.0304 -0.03168,0.0407 0.119456,0.0643 0.243136,0.12187 0.36056,0.19008 0.0079,0.0377 -0.05097,0.0446 -0.07694,0.0392 -0.06413,-0.0117 -0.117424,-0.0503 -0.179526,-0.0679 -0.03545,-4.6e-4 -0.06834,0.0169 -0.101077,0.0272 0.03816,0.0394 0.08162,0.0731 0.12069,0.11164 -0.03229,0.004 -0.06622,0.0317 -0.09806,0.012 -0.07723,-0.0399 -0.155262,-0.0805 -0.238362,-0.10712 -0.0054,-0.0249 -0.01747,-0.0457 -0.0362,-0.0633 0.03026,-0.0589 0.0507,-0.12261 0.05884,-0.18858 -0.06277,-0.007 -0.126393,-0.0164 -0.18556,-0.0392 0.0036,-0.009 0.01146,-0.0273 0.01509,-0.0362 C 8.086763,6.05857 7.995536,6.00637 7.903855,5.95844 7.851695,5.92934 7.789464,5.92874 7.736399,5.90264 c -0.03794,-0.0238 -0.06773,-0.0583 -0.09957,-0.089 0.05962,-0.0231 0.121196,-0.043 0.181035,-0.0663 z M 7.669999,6.11986 c 0.05216,0.0287 0.07025,0.0834 0.07996,0.13879 0.07926,0.0243 0.164212,0.0354 0.235344,0.0815 0.05849,0.0362 0.103884,0.0895 0.146336,0.14331 -0.03523,0.0353 -0.06606,0.0736 -0.09202,0.11616 0.06864,-0.0106 0.137133,-0.0226 0.206681,-0.0271 -0.04448,0.0408 -0.08796,0.0835 -0.129742,0.12672 0.042,0.027 0.08283,0.0555 0.123707,0.0845 -0.03684,0.0286 -0.07476,0.0592 -0.04224,0.10712 -0.04064,0.0252 -0.07868,0.0548 -0.116164,0.0845 -0.03704,-0.0289 -0.06727,-0.0636 -0.09504,-0.10108 0.0097,-0.0281 0.01861,-0.0569 0.02564,-0.086 -0.02032,-0.0287 -0.0438,-0.0549 -0.06638,-0.0815 0.0014,-0.0353 -0.0042,-0.0702 -0.01509,-0.10409 -0.0411,0.0151 -0.0811,0.0306 -0.122198,0.0453 -0.0034,-0.0172 -0.01146,-0.0522 -0.01509,-0.0694 -0.03726,-0.009 -0.07309,-0.0221 -0.105603,-0.0422 0.01558,-0.0424 0.03224,-0.0859 0.04828,-0.12823 0.02845,0.009 0.0558,0.019 0.08448,0.0287 C 7.75831,6.36656 7.695505,6.29649 7.627757,6.23168 c 0.01084,-0.0385 0.02554,-0.0752 0.04224,-0.11163 z m 1.478448,0.3862 c 0.02611,-0.004 0.05198,-0.002 0.07694,0.0151 0.165974,0.0833 0.336805,0.18177 0.446551,0.33793 -0.122843,0.0513 -0.253163,-0.002 -0.368103,-0.0497 -0.08829,-0.0417 -0.182213,-0.0877 -0.24138,-0.16896 -0.0092,-0.0375 0.0022,-0.0745 0.0076,-0.11164 0.02551,-0.008 0.05234,-0.0188 0.07845,-0.0226 z M 2.085086,7.30563 c -0.0621,0.24592 -0.21214,0.47552 -0.191595,0.73771 0.02665,0.0975 0.03187,0.19795 0.02716,0.29871 0.100714,0.10807 0.147701,0.24955 0.188577,0.38922 0.06074,0.0273 0.08282,0.0981 0.119181,0.14936 0.04042,0.0801 0.114968,0.13407 0.155388,0.21422 0.169813,0.0547 0.339044,0.10941 0.508405,0.16594 0.08287,0.0311 0.107192,-0.0896 0.181035,-0.095 0.182007,-0.0456 0.382275,0.007 0.520474,0.13426 0.07587,0.006 0.151927,0.0104 0.227801,0.0166 C 3.727572,9.44901 3.564496,9.50085 3.411168,9.5173 3.086446,9.5512 2.763219,9.4791 2.444142,9.4283 2.377302,9.4193 2.318877,9.3851 2.258582,9.3574 2.114061,9.2873 1.96484,9.21713 1.851255,9.09943 1.769285,9.01293 1.687676,8.92357 1.630996,8.81732 1.595546,8.73332 1.585136,8.64083 1.551036,8.55633 1.482616,8.46883 1.398009,8.38478 1.374528,8.2712 1.377228,8.2043 1.446288,8.1964 1.493708,8.2199 1.511098,8.1327 1.516238,8.04258 1.541988,7.9574 1.628248,7.83994 1.757159,7.75334 1.812032,7.61344 1.855392,7.51154 1.91479,7.41418 1.996083,7.33887 c 0.0228,-0.0255 0.05829,-0.0252 0.08901,-0.0332 z M 1.137673,8.33451 c -0.01784,0.13579 0.0364,0.26404 0.06035,0.39525 -0.01874,0.003 -0.05518,0.0105 -0.07392,0.0136 0.021,0.0469 0.05862,0.0357 0.09655,0.0151 0.007,0.0107 0.02013,0.0331 0.02716,0.0437 0.05804,-0.003 0.077,0.0604 0.09957,0.10259 0.02487,0.0446 0.02765,0.0962 0.02564,0.14633 0.01716,0.15937 0.141714,0.26824 0.238363,0.38319 0.188103,0.03 0.363282,0.10666 0.544611,0.16142 0.0086,0.0236 0.01706,0.0471 0.02564,0.0709 0.16191,-0.005 0.351249,0.0364 0.442027,0.18706 0.102745,0.0474 0.224831,0.0409 0.318318,0.10863 -0.01038,0.0107 -0.03034,0.033 -0.04073,0.0437 0.07181,0.0339 0.139709,0.0755 0.214224,0.10258 0.04268,-0.002 0.08556,-0.008 0.128232,-0.0106 -0.02755,0.0506 -0.08822,0.0792 -0.143319,0.0663 -0.149038,-0.0568 -0.2966,-0.11554 -0.442025,-0.18104 -0.07994,-0.0374 -0.222021,-0.0395 -0.235345,0.0755 0.06707,0.0599 0.151927,0.0193 0.227802,0.006 0.06052,0.0506 0.09181,0.13284 0.167457,0.16443 0.128262,0.0627 0.27312,0.017 0.408836,0.0287 -0.01129,-0.0112 -0.03374,-0.0325 -0.04526,-0.0437 0.105455,-0.0333 0.216188,-0.0199 0.324353,-0.0286 -0.0032,-0.0145 -0.01041,-0.0442 -0.01358,-0.0589 0.01333,-0.004 0.04076,-0.0112 0.05431,-0.0151 0.02281,-0.11771 0.152796,-0.15116 0.247413,-0.19009 0.05148,0.0297 0.06935,0.0964 0.117673,0.13276 -0.05013,0.0314 -0.108507,0.0432 -0.162932,0.0633 -0.08558,0.0437 -0.149183,0.12849 -0.247413,0.14633 -0.191039,0.047 -0.389717,0.12582 -0.586854,0.0649 -0.205492,0.0197 -0.404937,-0.0491 -0.594396,-0.1222 C 2.196455,10.16165 2.152449,9.99424 2.012669,9.98328 1.920539,9.98628 1.841572,9.93718 1.76073,9.90028 1.70495,9.87488 1.6743,9.82058 1.646075,9.76903 l 0.04677,-0.0106 C 1.654455,9.72593 1.618175,9.69093 1.587241,9.65131 1.715052,9.65431 1.821244,9.73751 1.935732,9.78558 1.899152,9.72648 1.860002,9.65909 1.790905,9.63623 1.702155,9.60603 1.604423,9.60213 1.525388,9.54723 1.338413,9.39748 1.154202,9.2137 1.089396,8.97396 c -0.01626,-0.0135 -0.03179,-0.026 -0.04828,-0.0392 -0.02958,0.005 -0.06071,0.01 -0.09052,0.0151 -0.0045,-0.0215 -0.01339,-0.0642 -0.01811,-0.086 0.01694,7.7e-4 0.05095,7.7e-4 0.06789,0.002 -0.02619,-0.0515 -0.04974,-0.10585 -0.06939,-0.15991 0.02055,-0.003 0.06092,-0.008 0.08147,-0.0106 0.0073,0.0158 0.02291,0.046 0.03017,0.0619 -0.0041,-0.0607 -0.02605,-0.11695 -0.0362,-0.17651 0.02033,-7.7e-4 0.05964,-0.002 0.07996,-0.003 -0.06209,-0.0753 -0.07291,-0.22983 0.0513,-0.24288 z m 5.506464,0.40732 c 0.09823,0.0619 0.168929,0.17699 0.150862,0.2972 -0.09145,0.0245 -0.174514,-0.0363 -0.265517,-0.0332 -0.05035,0.0408 -0.06898,0.10973 -0.12069,0.14935 -0.04335,0.0298 -0.09967,0.0248 -0.149354,0.0302 -0.03929,-0.0378 -0.09135,-0.0896 -0.05883,-0.14935 0.06436,-0.11174 0.189475,-0.1637 0.292673,-0.23082 0.04878,-0.0236 0.0926,-0.0728 0.150861,-0.0633 z M 5.376896,9.21554 c 0.0032,0.0444 -0.04611,0.0712 -0.05582,0.11315 -0.005,0.0477 -1.18e-4,0.0954 -0.0015,0.14331 C 5.249796,9.4278 5.176527,9.3828 5.090265,9.4041 c -0.01061,0.0517 0.01543,0.0976 0.03168,0.14482 -0.06526,0.005 -0.129807,-7.7e-4 -0.194612,0.006 -0.06007,0.0287 -0.09771,0.0893 -0.143319,0.13579 -0.06277,-0.0527 -0.02788,-0.1505 -0.0875,-0.2082 0.01672,-0.0212 0.03391,-0.0427 0.0513,-0.0633 0.0079,0.0188 0.02356,0.0567 0.03168,0.0755 0.119683,-0.0195 0.192718,-0.12744 0.29569,-0.18104 0.09281,-0.0497 0.194462,-0.0996 0.301724,-0.0981 z m 0.280603,0.095 c 0.04855,0.019 0.07156,0.0667 0.09504,0.11013 -0.07316,0.0684 -0.176031,0.0876 -0.271551,0.0679 0.0086,-0.0371 6e-6,-0.0892 0.03772,-0.11164 0.04607,-0.0222 0.09679,-0.0357 0.138792,-0.0663 z m 1.096767,0.0573 c 0.04423,0.0714 0.02393,0.15449 -0.0046,0.2278 -0.07881,0.0119 -0.171585,0.03 -0.232328,-0.0362 0.02687,-0.0176 0.05415,-0.0341 0.08146,-0.0513 0.0122,-0.0824 0.08651,-0.11512 0.155388,-0.1403 z M 4.569784,9.67258 c -0.02958,0.0868 -0.108937,0.14001 -0.187069,0.17801 -0.09597,0.0465 -0.206511,0.0148 -0.304741,-0.008 0.03342,-0.0458 0.07886,-0.0802 0.131249,-0.10108 0.112005,-0.0486 0.23704,-0.10809 0.360561,-0.0694 z m 3.337068,0.0241 c 0.03952,0.0252 0.07265,0.0602 0.114655,0.0815 0.05646,7.7e-4 0.1018,-0.0594 0.156896,-0.0468 0.01648,0.0321 0.02659,0.0675 0.04375,0.0996 0.05917,0.0824 0.192251,0.0956 0.215733,0.20668 -0.08242,0.0112 -0.167928,0.0199 -0.247414,-0.0106 -0.05149,-0.0151 -0.105266,-0.0494 -0.159914,-0.0302 -0.07271,0.0252 -0.113159,0.10447 -0.188578,0.12371 -0.07519,0.003 -0.147067,-0.0469 -0.173491,-0.11768 -0.03093,-0.10417 -0.207412,-0.0186 -0.205172,-0.14936 0.03455,0.0138 0.07061,0.0267 0.105603,0.0392 0.04155,-0.0357 0.01956,-0.10142 0.03017,-0.15086 0.102971,-0.0162 0.215175,0.0168 0.307759,-0.0453 z m -1.578017,0.0573 c 0.09439,0.009 0.218264,0.0435 0.238362,0.15388 -0.101164,0.005 -0.20901,-0.0499 -0.238362,-0.15388 z m -0.06939,0.095 c 0.04019,-0.0144 0.07003,0.0206 0.08901,0.0513 -0.05939,0.0219 -0.122167,0.0354 -0.179526,0.0633 0.03929,0.0623 0.0971,0.13769 0.179526,0.12672 0.07836,0.004 0.179486,-0.0273 0.232327,0.0513 -0.22175,0.0701 -0.460454,0.0438 -0.684914,0.003 -0.01355,0.002 -0.04076,0.005 -0.05431,0.006 0.04291,0.0657 0.134533,0.0346 0.190085,0.083 l -0.02564,0.0392 c -0.112455,0.0296 -0.227886,0.045 -0.339439,0.0784 -0.145426,0.0417 -0.305201,0.0656 -0.451077,0.0136 -0.05917,-0.0368 -0.09652,-0.10044 -0.15388,-0.1403 -0.03613,0.038 -0.06385,0.0889 -0.114655,0.10863 -0.06752,-0.003 -0.106446,-0.0718 -0.149353,-0.11617 0.04675,-0.0272 0.09705,-0.0514 0.15237,-0.0498 0.04651,0.005 0.08541,0.0368 0.131251,0.0437 0.09958,-0.005 0.198895,-0.018 0.298706,-0.0226 0.05262,0.003 0.103376,0.0249 0.156896,0.0226 0.02055,-0.0229 0.03783,-0.0471 0.05884,-0.0694 0.05533,0.009 0.109724,0.0301 0.165948,0.0332 0.05894,-0.005 0.06233,-0.0762 0.07543,-0.12069 -0.01671,-0.0224 -0.03202,-0.0441 -0.04828,-0.0663 0.02439,-0.009 0.04757,-0.0174 0.07241,-0.0256 0.01897,-0.0453 0.04621,-0.098 0.101078,-0.10259 0.09913,-0.009 0.198517,0.0127 0.297198,-0.009 z m 0.719612,0.12974 c 0.02868,0.005 0.05757,0.0181 0.08297,0.0272 0.06051,0.0311 0.14928,0.0881 0.113146,0.16896 0.0219,0.0141 0.04274,0.0295 0.06488,0.0437 l -0.0347,0.0423 c -0.147005,-7.7e-4 -0.283773,-0.0614 -0.42694,-0.0845 -0.03907,-0.002 -0.07248,-0.021 -0.09957,-0.0483 0.04697,-0.0341 0.102024,-0.0371 0.156896,-0.0302 -0.04042,-0.0545 0.02979,-0.0793 0.06185,-0.10561 0.02473,-0.0182 0.05279,-0.019 0.08147,-0.0136 z m 0.336422,0.2097 c 0.16349,0.003 0.286401,0.12816 0.423922,0.20216 0.06026,0.0273 0.11536,0.0982 0.05733,0.15839 -0.05917,-0.0344 -0.112279,-0.077 -0.16444,-0.12069 C 7.5309,10.34198 7.392707,10.30337 7.315479,10.18842 Z m -5.553231,0.0966 c 0.08626,0.003 0.162704,0.0427 0.233836,0.089 0.07836,0.052 0.171723,0.0725 0.2625,0.0905 v 0.0679 c 0.09439,0.027 0.134694,0.13473 0.22931,0.15991 0.098,0.0381 0.194822,-0.028 0.294181,-0.0211 0.06978,0.002 0.134101,-0.0278 0.199138,-0.0498 0.05917,-0.0149 0.07021,-0.10131 0.137284,-0.10108 0.06774,-0.019 0.11393,0.0393 0.162932,0.0739 0.0971,-0.005 0.190594,-0.0414 0.288146,-0.0437 0.07791,0 0.149067,0.0422 0.226293,0.0453 0.119004,-0.0277 0.241565,-0.11282 0.365086,-0.0558 -0.0063,0.0985 -0.08492,0.18618 -0.184052,0.19159 -0.06775,0.008 -0.130859,-0.0756 -0.19612,-0.0302 -0.03884,0.0206 -0.06697,0.0559 -0.09655,0.0875 -0.07068,0.0127 -0.142645,0.0182 -0.214224,0.0166 0.0013,0.0144 0.0046,0.0429 0.006,0.0573 -0.100939,0.0637 -0.22797,0.0793 -0.342458,0.0498 -0.05917,-0.0154 -0.121195,-0.0213 -0.181034,-0.008 0.02507,0.0335 0.05463,0.0701 0.09957,0.0739 0.15107,0.024 0.300839,-0.0278 0.452586,-0.0136 0.07068,0.0847 0.175426,0.12207 0.270043,0.17197 0.06707,0.0336 0.121918,0.10123 0.203664,0.095 -0.04381,-0.0529 -0.103227,-0.0867 -0.155388,-0.12974 0.117424,-0.0325 0.241032,-0.0403 0.362069,-0.0302 0.07045,-0.005 0.101942,0.068 0.153879,0.10259 0.05465,0.049 0.125131,0.0693 0.193103,0.092 -0.01264,0.0861 -0.07622,0.14745 -0.129741,0.20971 l 0.0528,0.0573 c -0.01129,0.005 -0.0342,0.0158 -0.04526,0.0212 -0.145425,0.005 -0.28408,-0.0659 -0.429957,-0.0498 -0.03704,0.005 -0.04114,0.0548 -0.0181,0.08 0.04675,0.0548 0.116356,0.0805 0.173491,0.12219 -0.02823,0.0227 -0.05664,0.0436 -0.08599,0.0649 0.03116,0.0328 0.0626,0.0661 0.09353,0.0996 -0.03794,0.0202 -0.06773,0.0517 -0.09504,0.0845 -0.178168,-0.0689 -0.24748,-0.27979 -0.420905,-0.35603 -0.05262,-0.0252 -0.111457,-0.022 -0.167457,-0.0151 0.03636,0.0242 0.07438,0.0464 0.111639,0.0694 -0.02055,0.0103 -0.06243,0.0304 -0.08298,0.0407 0.05803,0.0536 0.174521,0.01 0.199138,0.0996 0.0083,0.041 0.05852,0.095 0.01358,0.12822 -0.121263,0.0197 -0.241474,-0.0113 -0.357543,-0.0422 -0.02078,-0.0263 -0.04115,-0.0529 -0.06035,-0.08 0.03433,-0.0256 0.07158,-0.0492 0.104094,-0.0769 0.02326,-0.0512 -0.01118,-0.0969 -0.05431,-0.12069 -0.217911,-0.1335 -0.474618,-0.17663 -0.690949,-0.31379 -0.03117,0.013 -0.06343,0.0271 -0.09504,0.0392 0.08604,0.0358 0.143936,0.11152 0.220258,0.16141 0.04336,0.0256 0.11883,0.0154 0.13125,0.0769 -0.141586,0.03 -0.269226,-0.059 -0.381681,-0.13276 -0.01512,0.0307 -0.02582,0.0638 -0.0362,0.0966 -0.056,-0.0323 -0.116238,-0.0649 -0.152371,-0.12069 0.01581,-0.063 0.08987,-0.0452 0.137285,-0.0483 0.01445,-0.0135 0.0293,-0.0259 0.04375,-0.0392 -0.06277,-0.0344 -0.118059,-0.0826 -0.156897,-0.14332 -0.04042,-0.0677 -0.115699,-0.10572 -0.144828,-0.18104 0.03613,-0.0155 0.09456,-0.002 0.114656,-0.0437 -0.03636,-0.0614 -0.03282,-0.15431 -0.107112,-0.18405 -0.123747,-0.0584 -0.26307,-0.10197 -0.354526,-0.2112 -0.02845,-0.0494 -0.05764,-0.097 -0.09806,-0.13729 0.0068,-0.0456 0.0045,-0.0919 0,-0.13728 z m 2.910128,0.15841 c 0.04288,0.01 0.08384,0.0299 0.119182,0.0558 -0.0041,0.0744 -0.05258,0.14139 -0.123708,0.16294 -0.136166,0.0446 -0.320504,0.0117 -0.390732,-0.12824 0.08174,-0.0467 0.177449,-0.0552 0.265517,-0.0845 0.04223,-0.0159 0.08686,-0.0158 0.129741,-0.006 z m 3.435128,0.0467 c 0.04561,0.0266 0.112529,0.0782 0.06939,0.13729 -0.05961,0.0144 -0.15343,0.0473 -0.191595,-0.0196 0.0018,-0.0632 0.07929,-0.0838 0.122198,-0.11768 z m -2.434912,0.15086 c 0.09778,0.12388 0.240509,0.19111 0.363577,0.28362 0.05081,0.0291 0.04493,0.0937 0.06638,0.14182 0.07204,0.0311 0.1572,0.009 0.230819,0.0392 0.0612,0.0236 0.09612,0.083 0.138794,0.12975 0.04313,-0.0268 0.08291,-0.0601 0.126723,-0.086 0.05554,-0.0316 0.128533,0.0422 0.09353,0.0965 -0.05803,0.10624 -0.189186,0.13204 -0.298707,0.14031 -0.15378,0.005 -0.315064,-0.0135 -0.452586,-0.0875 -0.04855,-0.0195 -0.05628,-0.0726 -0.06488,-0.11768 -0.03635,-0.027 -0.07384,-0.0509 -0.10862,-0.0799 -0.02597,-0.0515 -0.03353,-0.10933 -0.05431,-0.16294 -0.143844,-0.002 -0.294622,-0.0162 -0.431466,0.0392 -0.01897,0.0549 -0.04261,0.13335 -0.110129,0.1403 -0.049,-0.0177 -0.0836,-0.0592 -0.13125,-0.0784 -0.05917,-0.01 -0.121792,-0.008 -0.178017,-0.0317 -0.0032,-0.0449 0.05279,-0.0572 0.08147,-0.0799 0.133457,-0.0691 0.299013,-0.13064 0.443535,-0.0603 0.05871,0.0254 0.129718,-0.0107 0.153879,-0.0679 0.02348,-0.0504 0.04078,-0.10457 0.06336,-0.15539 0.01716,-0.002 0.05072,-0.002 0.06789,-0.003 z m -4.239224,0.086 c 0.137296,0.0392 0.264023,0.11387 0.377156,0.20065 0.05216,0.0321 0.03329,0.1101 0.08297,0.14332 0.05736,0.0369 0.1249,0.0483 0.188578,0.0694 0.0056,0.0671 0.0062,0.15008 -0.05431,0.19311 -0.06955,0.0133 -0.119859,-0.0519 -0.156897,-0.10108 C 1.796575,11.12935 1.746996,11.00925 1.670219,10.90804 1.609479,10.82054 1.445561,10.85474 1.433365,10.727 Z m 4.936206,0.0769 c 0.06842,-0.008 0.135243,0.0181 0.203664,0.0151 0.06187,0.003 0.138142,-0.0101 0.18556,0.0407 0.03658,0.043 0.08571,0.0901 0.07845,0.15237 -0.02123,0.0163 -0.04803,0.021 -0.07241,0.0302 -0.05826,-0.0275 -0.117342,-0.0543 -0.176508,-0.08 -0.06142,-0.0288 -0.128746,0.005 -0.193103,-0.009 -0.06165,-0.0163 -0.07894,-0.11475 -0.02564,-0.14935 z m -4.203016,0.6819 c 0.02442,-0.002 0.04646,0.002 0.06487,0.0226 0.04832,0.0426 0.03539,0.12875 -0.03168,0.14181 -0.04629,-0.041 -0.105954,-0.0813 -0.107113,-0.15086 0.0228,-0.004 0.0495,-0.0113 0.07392,-0.0136 z m 0.636638,0.1584 c 0.130294,6.9e-4 0.245572,0.0738 0.337931,0.16143 -0.0831,0.0423 -0.17828,0.0228 -0.267026,0.0166 -0.03591,-0.0538 -0.06411,-0.11275 -0.07091,-0.17802 z m 7.594393,0.29117 c 0.04268,0.0998 0.01164,0.21292 -0.04978,0.29719 -0.166877,0.24639 -0.324289,0.50699 -0.543102,0.71056 -0.17162,0.12388 -0.350436,0.23719 -0.520474,0.36358 -0.08581,0.0701 -0.203168,0.0764 -0.289655,0.14483 -0.128715,0.0941 -0.269312,0.17132 -0.422414,0.21573 -0.186523,0.065 -0.385859,0.0718 -0.577802,0.11164 -0.232138,0.0476 -0.469822,0.0122 -0.701508,-0.0196 -0.173878,-0.0538 -0.345087,0.0346 -0.518965,0.0377 -0.25201,0.0536 -0.513756,0.0375 -0.760345,-0.0347 -0.03207,-0.009 -0.05919,-0.0294 -0.08448,-0.0497 0.168007,-0.0422 0.342874,-0.0661 0.50388,-0.13277 0.0314,-0.01 0.0553,-0.0545 0.02414,-0.08 -0.09687,-0.0853 -0.229271,-0.11491 -0.353018,-0.0815 0.0049,-0.011 0.01467,-0.0328 0.01961,-0.0437 0.181781,-0.0165 0.363437,-0.0406 0.546121,-0.0468 0.02846,0.0103 0.05459,0.0265 0.08147,0.0407 0.173199,-0.0291 0.349387,-0.0354 0.52349,-0.0136 0.124425,-0.006 0.252044,0.0138 0.37263,-0.0272 0.106584,-0.0327 0.218527,-0.0104 0.32737,-0.0211 0.112682,-0.0167 0.228493,-0.0192 0.340949,0 0.08784,0.016 0.166499,-0.10821 0.248922,-0.0453 -0.05103,0.0403 -0.09916,0.0864 -0.155388,0.11918 -0.09868,0.0202 -0.199728,0.0295 -0.300215,0.0272 -0.200072,0.0357 -0.403007,0.0602 -0.606466,0.0483 -0.100261,-7.7e-4 -0.21921,-0.0299 -0.29418,0.0573 0.107488,0.10237 0.238015,-0.0446 0.359051,-0.009 0.08965,0.025 0.176935,0.0612 0.271552,0.0619 0.211137,0.022 0.406105,-0.0806 0.6125,-0.10258 0.06029,-0.009 0.09901,-0.0655 0.153879,-0.0875 0.109521,-0.0415 0.242392,-0.0359 0.328879,-0.12521 0.091,-0.0593 0.185804,-0.11397 0.265517,-0.18858 -0.104552,0.0291 -0.207967,0.0661 -0.31681,0.0755 0.04155,-0.0444 0.0809,-0.0942 0.135776,-0.1222 0.106359,-0.0536 0.230362,-0.0587 0.334914,-0.11616 0.06661,-0.0362 0.118349,-0.0942 0.188577,-0.1237 0.03613,-0.0175 0.07881,-0.0272 0.10862,-0.0559 0.252688,-0.2576 0.468111,-0.55389 0.746767,-0.78448 z m -6.105385,0.0709 c 0.08987,0.0254 0.195934,0.0927 0.181034,0.20215 -0.0612,1.6e-4 -0.121195,-0.0101 -0.181034,-0.0211 0.01174,0.0149 0.0348,0.0437 0.04677,0.0589 -0.133456,-0.003 -0.26134,-0.0428 -0.390732,-0.0724 0.01626,-0.0387 0.04903,-0.0644 0.07996,-0.0905 0.09055,0.0114 0.168163,0.0621 0.25194,0.0951 0.01152,-0.0344 0.02371,-0.0691 0.03772,-0.10259 -0.0088,-0.0231 -0.01729,-0.0463 -0.02564,-0.0694 z m 0.256465,0.14181 c 0.02086,7e-4 0.04691,0.01 0.06035,0.0151 0.09552,0.0346 0.182191,0.0884 0.265517,0.14633 0.05555,0.041 0.116909,0.0813 0.147844,0.14633 -0.153328,-0.0236 -0.300286,-0.0839 -0.440517,-0.14935 -0.05194,-0.0181 -0.05863,-0.0785 -0.06789,-0.12521 -0.0029,-0.027 0.01383,-0.0339 0.0347,-0.0332 z m -1.353232,0.11315 c 0.121484,0.0128 0.220245,0.1334 0.178017,0.25797 -0.107264,-0.0337 -0.207377,-0.1357 -0.178017,-0.25797 z m 1.909914,0.18857 c 0.07497,0.0211 0.137865,0.0748 0.16293,0.15086 -0.04472,0.0222 -0.0876,0.0505 -0.137284,0.0603 -0.0219,-0.0139 -0.04433,-0.0283 -0.06488,-0.0437 0.0022,-0.0582 0.01235,-0.11548 0.03922,-0.16746 z M 4.17604,12.66703 c 0.05216,-0.003 0.09114,0.0368 0.138793,0.0497 0.05758,-0.008 0.12254,-0.0449 0.176509,-0.005 0.06436,0.0494 0.136759,0.0835 0.209698,0.11767 -0.03523,0.0167 -0.08838,0.0222 -0.111638,0.0453 0.06639,0.0664 0.159328,0.10653 0.238362,0.15991 -0.01535,0.008 -0.04521,0.026 -0.06035,0.0347 0.01039,0.007 0.03185,0.0202 0.04224,0.0271 0.01355,-0.01 0.04054,-0.028 0.05431,-0.0377 0.112908,0.0131 0.23149,0.008 0.334914,0.0633 0.05238,0.0202 0.08579,0.0684 0.132758,0.0965 0.185169,0.0174 0.390101,-0.0407 0.555172,0.0725 0.014,0.0844 0.104228,0.0768 0.167457,0.089 0.01378,0.0154 0.02802,0.0299 0.04224,0.0453 -0.155812,0.026 -0.292474,-0.0917 -0.44806,-0.0528 -0.0076,-0.008 -0.02252,-0.0236 -0.03017,-0.0317 -0.193298,-0.0149 -0.386679,-0.047 -0.574784,-0.0935 -0.07632,0.0282 -0.156275,-0.002 -0.217241,-0.0513 0.03116,7.7e-4 0.09232,0.002 0.123707,0.003 -0.07181,-0.0616 -0.152152,-0.0227 -0.227802,-0.003 -0.03974,-0.0309 -0.08315,-0.0548 -0.13125,-0.0694 -0.02552,-0.012 -0.06688,-0.0195 -0.06487,-0.0559 0.04245,-0.0172 0.08722,-0.006 0.131251,-0.003 -0.06052,-0.0394 -0.131017,-0.0578 -0.19763,-0.083 0.02167,-0.0142 0.04296,-0.0283 0.06487,-0.0423 -0.09981,-0.022 -0.197277,-0.0569 -0.280603,-0.11767 0.104326,-0.0817 0.188591,0.0813 0.301724,0.0513 -0.05013,-0.0724 -0.130999,-0.1544 -0.226292,-0.11315 -0.05103,-0.0263 -0.105155,-0.0519 -0.14332,-0.0965 z m -0.253448,0.47975 c 0.04562,0.002 0.08819,0.02 0.113147,0.0649 -0.0612,0.035 -0.129591,0.0511 -0.199138,0.0573 -0.01626,-0.0323 -0.03247,-0.064 -0.04828,-0.0966 0.03986,-0.0152 0.08866,-0.028 0.134267,-0.0256 z m 0.203664,0.12521 c 0.06481,0.0284 0.123944,0.0733 0.165948,0.13125 -0.0052,0.0463 -0.05313,0.11329 -0.102586,0.0815 -0.04539,-0.06 -0.09452,-0.13464 -0.06336,-0.21272 z m 0.500862,0.18254 c 0.107939,-0.009 0.21384,0.0354 0.28362,0.11919 0.100037,0.005 0.185618,0.0602 0.250431,0.13426 0.08445,0.0133 0.175835,0.0182 0.247414,0.0709 0.05171,0.0323 0.101897,0.094 0.168966,0.0633 0.0551,-0.0234 0.106602,0.0114 0.150861,0.0407 -9.27e-4,0.0145 -0.0036,0.0444 -0.0046,0.0589 0.109746,0.0774 0.22694,0.14777 0.354525,0.19009 0.06052,0.0217 0.107372,-0.0336 0.158406,-0.0558 0.03138,0.003 0.0626,0.009 0.09353,0.0166 -0.0095,-0.0131 -0.02823,-0.0395 -0.03772,-0.0528 0.151748,0.0444 0.307632,0.004 0.461638,0.0181 -0.01513,0.0316 -0.03233,0.0625 -0.0513,0.092 0.01581,0.005 0.04604,0.0142 0.06186,0.0196 -0.08265,0.0444 -0.191734,0.004 -0.259483,0.08 -0.04742,2.3e-4 -0.09159,0.015 -0.134267,0.0347 -0.0822,0.003 -0.166572,-0.0253 -0.247414,-0.003 -0.04155,0.0291 -0.07709,0.067 -0.116164,0.0996 0.03094,0.0204 0.06131,0.0409 0.0875,0.0679 -0.03501,0.014 -0.08129,0.005 -0.108621,0.0362 -0.09574,0.0318 -0.223304,0.1183 -0.307759,0.0196 -0.196233,0.0487 -0.39492,-0.0359 -0.591379,0.008 -0.02168,0.005 -0.04425,0.007 -0.06638,0.008 -0.111779,-0.0663 -0.246452,-0.0787 -0.362069,-0.0151 -0.04358,-0.0175 -0.08812,-0.0345 -0.13125,-0.0528 -0.01084,-0.035 -0.03308,-0.0633 -0.05431,-0.092 0.07339,-0.006 0.148441,-0.0135 0.215733,-0.0467 -0.0041,-0.0106 -0.01273,-0.0315 -0.01659,-0.0423 -0.114036,-0.0381 -0.232721,-0.0586 -0.346983,-0.095 0.01558,-0.033 0.04812,-0.047 0.07996,-0.0589 -0.01716,-0.0506 -0.02956,-0.10202 -0.03319,-0.15539 0.09326,-0.0121 0.201271,0.01 0.282112,-0.0483 0.108843,0.0316 0.220667,0.0688 0.306251,0.14785 -0.06074,0.0133 -0.133094,-0.002 -0.182543,0.0437 0.125326,0.0206 0.250319,-0.0159 0.375646,-0.0136 0.03026,0.003 0.05572,-0.0146 0.08147,-0.0272 0.104778,0.0348 0.194986,0.10429 0.300215,0.13728 0.04765,0.0204 0.09197,-0.0142 0.135777,-0.0287 -0.12736,-0.0643 -0.292874,-0.0535 -0.387716,-0.17651 0.01739,-0.0112 0.05223,-0.0325 0.06939,-0.0437 -0.06548,-0.0148 -0.127453,-0.0416 -0.187068,-0.0724 -0.0014,-0.0536 -0.04315,-0.0876 -0.07996,-0.11918 -0.04561,-0.0161 -0.10387,6.3e-4 -0.141811,-0.0362 -0.03704,-0.0344 -0.03978,-0.0882 -0.0513,-0.13426 -0.100488,-6.9e-4 -0.244291,-0.0103 -0.265517,-0.13578 z M 3.65104,13.7804 c 0.0514,-7.8e-4 0.104919,0.004 0.155388,0 0.02981,0.0339 0.05026,0.0742 0.06336,0.11767 -0.123972,0.0119 -0.279204,0.0298 -0.366594,-0.0815 0.04607,-0.0277 0.09644,-0.0355 0.147844,-0.0362 z m 0.322845,0.25193 c 0.09123,-2.2e-4 0.182668,0.0402 0.241379,0.11164 0.0411,0.0419 -0.0074,0.0977 -0.02414,0.1403 -0.101617,-0.0561 -0.200478,-0.11645 -0.298707,-0.17802 0.02619,-0.0256 0.05053,-0.054 0.08147,-0.0739 z m 0.88556,0.48427 c 0.04426,0.002 0.09031,-0.009 0.132759,0.009 0.007,0.0625 0.0357,0.11526 0.07996,0.15991 -0.120586,0.0107 -0.253649,-0.0159 -0.348492,-0.0965 0.06413,-0.0355 0.1372,-0.002 0.205173,-0.003 -0.01739,-0.0172 -0.05201,-0.0521 -0.06939,-0.0694 z m 0.917241,0.0407 c 2.26e-4,0.0146 -2.25e-4,0.0429 0,0.0573 0.03365,-0.0124 0.114298,-0.003 0.08901,0.0513 -0.05216,0.0245 -0.111001,0.0308 -0.167457,0.0347 0.01152,-0.0192 0.03503,-0.0579 0.04677,-0.0769 -0.119456,0.007 -0.244564,0.0307 -0.359052,-0.0181 0.03093,-0.0437 0.08299,-0.0183 0.125215,-0.0181 0.091,0.0157 0.173611,-0.0483 0.265517,-0.0302 z m 0.837285,0.092 c -0.0025,0.0119 -0.0068,0.0361 -0.0091,0.0483 -0.08333,0.008 -0.178015,-0.0219 -0.248922,0.0362 -0.06639,0.0524 -0.138379,0.10656 -0.227802,0.0981 0.0022,-0.0362 0.0054,-0.0727 0.0091,-0.10863 0.04788,7.8e-4 0.09545,0.01 0.143319,0.003 0.09326,-0.0774 0.220498,-0.062 0.333406,-0.0769 z"
   id="path957"
   inkscape:connector-curvature="0" /></svg>