<?xml version="1.0" encoding="utf-8"?>
<!-- Generator: Adobe Illustrator 19.2.1, SVG Export Plug-In . SVG Version: 6.00 Build 0)  -->
<svg version="1.1" id="layer" xmlns="http://www.w3.org/2000/svg" xmlns:xlink="http://www.w3.org/1999/xlink" x="0px" y="0px"
	 viewBox="0 0 652 652" style="enable-background:new 0 0 652 652;" xml:space="preserve">
<style type="text/css">
	.st0{fill:#414141;}
	.st1{fill:#009FE3;}
</style>
<path class="st0" d="M267.5,258.5h18.8c16.9,0,28,10.1,28,27.5s-11.1,27.5-28,27.5h-18.8L267.5,258.5z M285.7,304.9
	c11.2,0,18.3-6.6,18.3-19c0-12.5-7.3-18.8-18.3-18.8h-8.2v37.9H285.7z M345,273.1c12.1,0,21.8,8.6,21.8,20.7s-9.7,20.7-21.7,20.7
	s-21.8-8.5-21.8-20.7S333,273.1,345,273.1z M345,306.1c6.5,0.1,11.8-5.1,11.9-11.6c0-0.2,0-0.4,0-0.6c0.3-6.5-4.8-12-11.2-12.2
	c-6.5-0.3-12,4.8-12.2,11.2c0,0.3,0,0.7,0,1c-0.3,6.5,4.8,12,11.2,12.2C344.8,306.1,345,306.1,345,306.1L345,306.1z M377.8,274h9.4
	v4.6c0,0.9-0.1,1.8-0.1,2.7h0.1c2.5-4.9,7.4-8,12.9-8.2c6,0,9.9,2.8,11.5,8.1h0.1c2.7-5,7.8-8.1,13.5-8.1c8.2,0,12.9,4.7,12.9,15
	v25.4h-9.8V290c0-4.5-0.9-7.9-5.4-7.9c-5,0-8.4,4-9.5,9c-0.4,1.7-0.5,3.4-0.5,5.1v17.4h-9.8V290c0-4.2-0.7-7.9-5.3-7.9
	c-5.1,0-8.5,4-9.7,9.1c-0.4,1.7-0.5,3.3-0.5,5v17.4h-9.8V274z M468.9,273.1c11.4,0,17.5,8.3,17.5,18.8c0,1.2-0.2,3.8-0.2,3.8h-27.3
	c0.4,6.1,5.7,10.8,11.9,10.5c4.2-0.2,8.2-1.7,11.4-4.3l3.9,7c-4.5,3.7-10.1,5.7-15.9,5.7c-11.2,0.5-20.6-8.1-21.1-19.3
	c0-0.5,0-0.9,0-1.4C448.8,281.6,457.1,273.1,468.9,273.1z M476.5,288.9c-0.2-5.4-3.5-8.2-7.8-8.2c-4.8-0.2-8.9,3.4-9.5,8.2H476.5z
	 M498.7,301.8c2.9,2.7,6.8,4.2,10.8,4.3c2.8,0,5.2-1.2,5.2-3.6c0-5.9-19.2-5.1-19.2-17.8c0-7.4,6.6-11.6,15.1-11.6
	c4.8-0.3,9.6,1.4,13.2,4.5l-3.6,7.3c-2.7-2.2-6.1-3.5-9.7-3.4c-2.6,0-5,1.1-5,3.6c0,5.6,19.2,4.9,19.2,17.6
	c0,6.6-5.7,11.9-15.1,11.9c-5.6,0.1-11.1-2-15.3-5.8L498.7,301.8z M537.4,282.5h-5.1v-7.8h5.4v-11.4h9.7v11.4h9v7.8h-9v15.3
	c0,6.5,5.1,7.4,7.8,7.4c0.6,0,1.2,0,1.8-0.1v8.6c-1,0.2-2,0.2-3,0.2c-5.5,0-16.4-1.6-16.4-14.8L537.4,282.5z M568,258.5h9.8v8.8H568
	V258.5z M568,274h9.8v39.5H568V274z M610.4,273.1c5.7-0.3,11.3,1.9,15.3,5.9l-4.3,6.8c-2.8-2.6-6.5-4.2-10.3-4.2
	c-6.5-0.1-11.9,5-12,11.5c0,0.3,0,0.5,0,0.8c-0.2,6.6,5,12.2,11.7,12.4c0.2,0,0.4,0,0.7,0c4.4-0.2,8.5-2,11.6-5l3.8,7
	c-4.3,4.2-10.2,6.5-16.3,6.3c-13.1,0-21.5-9.2-21.5-20.7S597.3,273.1,610.4,273.1z M411.2,346.2c11.4,0,17.5,8.3,17.5,18.7
	c0,1.2-0.2,3.8-0.2,3.8h-27.3c0.4,6.1,5.7,10.8,11.9,10.5c4.1-0.2,8.1-1.6,11.4-4.2l3.8,7c-4.5,3.7-10.1,5.7-15.9,5.7
	c-13.1,0-21.2-9.4-21.2-20.7C391.1,354.7,399.4,346.2,411.2,346.2z M418.8,362c-0.1-5.3-3.5-8.2-7.8-8.2c-4.8-0.1-8.9,3.4-9.4,8.2
	H418.8z M439.2,347.2h9.5v4.6c0,0.9-0.1,1.8-0.1,2.7h0.1c2.7-5.2,8.2-8.4,14.1-8.2c8.8,0,13.7,4.6,13.7,15v25.4h-9.8v-23.3
	c0-4.8-1.2-8.1-6.3-8.1c-4.9,0-9.3,3.3-10.6,8.1c-0.5,1.7-0.7,3.5-0.7,5.3v18.1h-9.8L439.2,347.2z M506.3,346.2
	c11.4,0,17.5,8.3,17.5,18.7c0,1.2-0.2,3.8-0.2,3.8h-27.3c0.4,6.1,5.7,10.8,11.9,10.5c4.1-0.2,8.1-1.6,11.4-4.2l3.8,7
	c-4.5,3.7-10.1,5.7-15.9,5.7c-13.1,0-21.2-9.4-21.2-20.7C486.2,354.7,494.5,346.2,506.3,346.2z M513.8,362c-0.2-5.3-3.5-8.2-7.8-8.2
	c-4.8-0.1-8.9,3.4-9.4,8.2L513.8,362z M534.2,347.2h9.5v6.8c0,1.5-0.1,2.8-0.1,2.8h0.1c1.5-5.8,6.6-9.9,12.5-10.1
	c0.6,0,1.2,0.1,1.7,0.2v9.7c-0.8-0.1-1.5-0.2-2.3-0.2c-5,0-9.5,3.4-10.8,8.3c-0.6,2.1-0.9,4.2-0.9,6.3v15.6h-9.8L534.2,347.2z
	 M587.1,361.9h1.3v-0.6c0-5.2-3.3-7-7.6-7c-3.9,0.2-7.6,1.6-10.8,3.8l-3.7-7.1c4.5-3.2,9.9-4.9,15.5-4.9c10.4,0,16.4,5.7,16.4,15.7
	v24.8h-9.1v-3.3c0-0.9,0-1.9,0.1-2.8h-0.1c-2.3,4.5-7,7.2-12.1,7c-7,0-13.4-4.4-13.4-12.3C563.6,362.7,580.6,361.9,587.1,361.9z
	 M579.5,379.9c5.2,0,8.9-5.6,8.9-10.4v-0.9h-1.7c-5,0-13.2,0.7-13.2,6.2C573.6,377.4,575.5,379.9,579.5,379.9z M610.1,331.7h9.8
	v41.2c0,4.2,1.5,5.4,4,5.4c0.5,0,1,0,1.5,0v8.6c-1,0.1-2.1,0.2-3.1,0.2c-5.4,0-12.2-1.4-12.2-12.7V331.7z M200.5,321.4
	c0-0.9-0.7-1.6-1.6-1.6h-9.2c-0.9,0-1.6,0.7-1.6,1.6v29.2h-3.9c-9.4,0-16.6-3.7-20.8-10.2h-14.2c6,14.4,20.6,21.8,35,21.8h14.5
	c0.4,0,0.8-0.1,1.1-0.3c0.5-0.3,0.7-0.8,0.7-1.3V321.4z M57.7,330.5c0,0.9,0.7,1.6,1.6,1.6h9.2c0.9,0,1.6-0.7,1.6-1.6v-28.4h4
	c9.7,0,16.9,3.9,21.2,10.8h14.1c-5.9-14.8-20.6-22.4-35.2-22.4H59.5c-1,0-1.8,0.7-1.8,1.7c0,0,0,0.1,0,0.1V330.5L57.7,330.5z
	 M95.1,340.3c-5,6.7-12.9,10.5-21.2,10.3H59.3c-0.9,0-1.6,0.7-1.6,1.6v4.2l0,0v4.2c0,0.9,0.7,1.6,1.6,1.6h14.8
	c17,0,30.5-8.7,35.6-21.8L95.1,340.3z M162.7,312.9c4.9-7,12.9-11,21.5-10.8H199c0.9,0,1.6-0.7,1.6-1.6v-8.5c0-0.9-0.7-1.6-1.6-1.6
	h-14.8c-17.3,0-30.8,9-35.8,22.4L162.7,312.9L162.7,312.9z M372.3,361.6v16.5h-7.1c-11,0-18.3-6.6-18.3-18.8s7.1-19,18.3-19h14.6
	v-8.5h-15.2c-16.9,0-28,10.2-28,27.5c0,17.3,11.1,27.5,28,27.5h17.6v-25.1H372.3z"/>
<path class="st1" d="M129.1,428.7c-56.5,0-102.3-45.8-102.3-102.3S72.6,224,129.1,224s102.3,45.8,102.3,102.3l0,0
	C231.3,382.8,185.6,428.6,129.1,428.7z M129.1,234.1c-51,0.1-92.2,41.4-92.2,92.4s41.4,92.2,92.4,92.2c50.9-0.1,92.2-41.4,92.2-92.3
	C221.4,275.4,180.1,234.1,129.1,234.1z M157.6,320.7h-23v-22.9c0-0.9-0.7-1.6-1.6-1.6H125c-0.9,0-1.6,0.7-1.6,1.6v22.9h-22.9
	c-0.9,0-1.6,0.7-1.6,1.6v8.1c0,0.9,0.7,1.6,1.6,1.6h22.9v22.9c0,0.9,0.7,1.6,1.6,1.6h8.1c0.9,0,1.6-0.7,1.6-1.6v-23h22.9
	c0.9,0,1.6-0.7,1.6-1.6v-8.1C159.2,321.4,158.5,320.7,157.6,320.7z M275.3,357.1v-0.1c-4.5-2.2-7.2-6.9-6.9-11.8
	c0-9.6,7.7-14.2,17.1-14.2c2.4,0.1,4.8,0.4,7.1,0.9l-2.4,7.8c-1.2-0.3-2.4-0.4-3.6-0.4c-4.6,0-8.3,2.5-8.3,7.2
	c0,3.1,1.8,7.2,8.2,7.2h8.6v-7h9.7v7h7v8.5h-7v6.3c0,11-7.2,18.4-19.4,18.4c-11.7,0-19.4-7.1-19.4-16.2
	C266.1,364.5,269.8,359.2,275.3,357.1z M285.5,377.8c6.1,0,9.8-3.4,9.8-9.9V362h-9.2c-6,0-9.9,2.7-9.9,7.9
	C276.2,374.3,279.9,377.8,285.5,377.8z"/>
</svg>
