<?xml version="1.0" encoding="utf-8"?>
<!-- Generator: Adobe Illustrator 19.2.1, SVG Export Plug-In . SVG Version: 6.00 Build 0)  -->
<svg version="1.1" id="layer" xmlns="http://www.w3.org/2000/svg" xmlns:xlink="http://www.w3.org/1999/xlink" x="0px" y="0px"
	 viewBox="0 0 652 652" style="enable-background:new 0 0 652 652;" xml:space="preserve">
<style type="text/css">
	.st0{fill:#231815;}
	.st1{fill:#D3003B;}
</style>
<g>
	<path class="st0" d="M58.5,333.4c0-0.8,0-1.7-0.1-2.6c-0.8-3.8-3.8-7-8-7c-6.6,0-9.6,6-9.6,13.2c0,8.3,4.1,12.7,9.6,12.7
		c4,0,7.1-2.9,7.7-6.5c0.2-1.1,0.3-2.4,0.3-3.6V333.4z M78.4,285.8v61.3c0,6.8,0.2,13.6,0.4,17.3H61.1l-0.8-7.4h-0.2
		c-3.7,6.2-10.2,8.6-16.5,8.6c-12.6,0-23.1-11-23.1-28.1c-0.1-18.3,11.5-28.8,24.4-28.8c6,0,11,1.8,13.4,5.2h0.2v-28.1H78.4z"/>
</g>
<g>
	<path class="st0" d="M94.1,328.3c0-8.6-0.2-13.8-0.4-18.4h17l0.7,9.9h0.4c2.9-8.3,9.8-11.1,14.5-11.1c1.8,0,2.5,0,4,0.4v18.7
		c-1.4-0.3-3-0.6-5.1-0.6c-5.9,0-9.8,2.4-10.9,6.9c-0.2,1-0.3,2.1-0.3,3.4v26.9H94.1V328.3z"/>
	<path class="st0" d="M177,328.4c0-7.2-0.2-13.5-0.4-18.5h17.1l0.9,7h0.4c2-2.9,7.2-8.2,16.3-8.2c12.7,0,19.6,8.6,19.6,23.6v32.1
		H211v-29.7c0-6.3-2.2-10-7-10c-3.9,0-5.7,2.7-6.5,4.8c-0.4,1-0.5,2.5-0.5,4v30.9H177V328.4z"/>
	<path class="st0" d="M266,332.1h0.2c1.2-2.4,2.3-4.6,3.5-6.6l9-15.5h23.8l-18.8,21.9l21.6,32.5h-24.6L270,343.6l-4,5.3v15.5h-19.9
		v-78.6H266V332.1z"/>
	<path class="st0" d="M342.7,339.5c-8.1,0-12.7,2.3-12.7,7.1c0,3.4,2.3,5.2,5.6,5.2c2.9,0,6-2,6.9-5c0.2-0.9,0.2-1.9,0.2-2.9V339.5z
		 M362.1,351.1c0,5.4,0.2,10.5,0.9,13.3h-17.9l-1.1-4.8h-0.3c-3.9,4.3-9.3,6-15.2,6c-11.1,0-17.9-8.1-17.9-17.2
		c0-14.6,13.1-21,31.5-21.1v-0.4c0-2.2-1.6-4.7-8.8-4.7c-5.8,0-11.8,2-15.4,4.1l-3.5-12.7c3.5-1.8,11.3-4.9,22.6-4.9
		c18.7,0,25.2,10.4,25.2,24V351.1z"/>
	<path class="st0" d="M390.1,310l3.2,20c0.9,5.4,1.8,11.6,2.6,18h0.2c1-6.4,2.5-12.7,3.6-17.9l4.3-20.2h15.6l4.1,19.4
		c1.3,6.1,2.7,12.3,3.7,18.7h0.2c0.7-6.4,1.6-12.7,2.6-18.9l3.3-19.2h19.5L437,364.4h-18.8l-3.7-16.2c-1.1-5.1-1.9-9.6-3-16.6h-0.2
		c-0.8,7-1.7,11.7-2.9,16.4l-4,16.4h-18.8L369.9,310H390.1z"/>
	<path class="st0" d="M490.3,339.5c-8.1,0-12.7,2.3-12.7,7.1c0,3.4,2.3,5.2,5.7,5.2c2.9,0,6-2,6.9-5c0.2-0.9,0.2-1.9,0.2-2.9V339.5z
		 M509.7,351.1c0,5.4,0.2,10.5,0.9,13.3h-17.9l-1.1-4.8h-0.3c-3.9,4.3-9.3,6-15.1,6c-11.1,0-17.9-8.1-17.9-17.2
		c0-14.6,13.1-21,31.6-21.1v-0.4c0-2.2-1.7-4.7-8.9-4.7c-5.8,0-11.8,2-15.4,4.1l-3.5-12.7c3.5-1.8,11.3-4.9,22.6-4.9
		c18.7,0,25.2,10.4,25.2,24V351.1z"/>
	<path class="st0" d="M524.6,328.3c0-8.6-0.2-13.8-0.5-18.4h17.1l0.7,9.9h0.5c2.9-8.3,9.8-11.1,14.5-11.1c1.8,0,2.6,0,4,0.4v18.7
		c-1.4-0.3-3-0.6-5.1-0.6c-5.9,0-9.8,2.4-10.8,6.9c-0.2,1-0.3,2.1-0.3,3.4v26.9h-19.9V328.3z"/>
	<path class="st0" d="M602.1,330.7c0-3.1-1.4-8.9-7.7-8.9c-5.9,0-8.2,5.4-8.5,8.9H602.1z M586.1,344.2c0.7,4.3,7,6.7,13.9,6.7
		c5.2,0,10.1-0.5,14.9-2.1l2.6,13.3c-6.5,2.7-13.6,3.6-20.4,3.6c-19.2,0-30-10.6-30-27.9c0-12.7,8.2-29,28.2-29
		c17.6,0,25.1,13,25.1,27.9c0,3.3-0.5,6.2-0.8,7.5H586.1z"/>
	<rect x="141.4" y="309.9" class="st0" width="19.7" height="54.5"/>
	<path class="st1" d="M151.1,302c-6.6,0-11.2-4.9-11.2-11.6c0-6.8,4.7-11.6,11.3-11.6s11.2,4.6,11.3,11.6c0,6.8-4.6,11.6-11.3,11.6
		H151.1z"/>
</g>
</svg>
