<?xml version="1.0" encoding="utf-8"?>
<!-- Generator: Adobe Illustrator 15.1.0, SVG Export Plug-In . SVG Version: 6.00 Build 0)  -->
<!DOCTYPE svg PUBLIC "-//W3C//DTD SVG 1.1//EN" "http://www.w3.org/Graphics/SVG/1.1/DTD/svg11.dtd">
<svg version="1.1" id="Layer_1" xmlns="http://www.w3.org/2000/svg" xmlns:xlink="http://www.w3.org/1999/xlink" x="0px" y="0px"
	 width="800px" height="230px" viewBox="0 0 800 230" enable-background="new 0 0 800 230" xml:space="preserve">
<g>
	<path d="M157.589,6h-32.555H18v20h16.949C41.123,26,46,30.994,46,37.168v70.44v15.715C46,129.497,41.123,135,34.949,135H18v19
		h103.386h36.203c40.973,0,74.088-33.168,74.088-74.14C231.677,38.887,198.562,6,157.589,6z M114.931,135H101V26h13.931
		c30.029,0,54.444,24.191,54.444,54.5C169.375,110.529,144.96,135,114.931,135z"/>
	<path d="M361,140.442V154h67v-17h-12.504c-4.49,0-8.138-3.649-8.138-8.139L407.077,50H336v17h14.949
		c4.491,0,8.051,4.125,8.051,8.616v43.779c0,10.385-9.651,18.522-22,18.522c-12.348,0-22-8.7-22-19.083V50h-68v17h11.338
		c4.491,0,7.662,4.125,7.662,8.616c0,0,0,44.622,0,47.708c0,3.087,0.8,6.174,1.642,8.7c5.613,15.154,25.491,26.1,49.065,26.1
		C335.79,158.123,352,151.107,361,140.442z"/>
	<path d="M604.367,128.619c0,0,0.28-44.463,0-47.55c0-3.087-0.562-6.235-1.403-8.76c-5.613-15.155-25.294-26.13-48.867-26.13
		c-19.084,0-35.097,6.986-44.097,17.65V50h-68v18h13.348c4.49,0,7.652,3.406,7.652,7.896v52.48c0,4.489-2.882,8.624-7.372,8.624H442
		v17h88.84l0.28-18h-10.945c-4.49,0-8.175-3.415-8.175-7.906V84.595c0-10.383,9.652-18.521,22-18.521s22,8.699,22,19.083v43.219
		c0,4.489-3.271,8.624-7.761,8.624H541v17h86v-17h-14.494C608.016,137,604.367,133.108,604.367,128.619z"/>
	<path d="M780.89,108c0.28-2,0.28-3.844,0.28-5.809c0-30.87-33.396-56.226-74.369-56.226c-41.255,0-74.37,24.929-74.37,56.079
		c0,30.87,33.396,56.104,74.37,56.104c32.835,0,60.617-16.289,70.44-38.74l-34.799,0.555c-4.21,11.226-14.97,19.361-27.88,19.361
		c-16.277,0-29.563-13.193-29.563-29.47c0-0.841,0-1.853,0-1.853H780.89z M684,89v-6.369c0-10.383,10.152-18.803,22.5-18.803
		s22.5,8.42,22.5,18.803V89H684z"/>
	<polygon points="233,191 227,191 227,223 247,223 247,218 233,218 	"/>
	<path d="M297.066,190.115c-5.051,0-8.98,1.686-12.348,4.771c-3.368,3.087-5.052,7.297-5.052,12.067c0,4.771,1.403,8.7,4.771,11.787
		c3.087,3.087,7.297,4.771,12.067,4.771c5.052,0,9.261-1.684,12.91-4.771c3.367-3.087,5.051-7.016,5.051-11.787
		c0-4.771-1.684-8.98-5.051-12.067C306.328,191.801,302.118,190.115,297.066,190.115z M305.205,214.813
		c-2.245,1.964-4.771,3.087-8.139,3.087s-5.893-0.843-8.139-3.087c-1.964-2.245-3.087-4.771-3.087-7.858
		c0-3.367,0.842-6.174,3.087-8.139c1.964-1.964,4.771-3.087,8.139-3.087c3.087,0,5.613,1.123,8.139,3.368
		c2.245,2.245,3.368,4.771,3.368,7.857S307.45,212.567,305.205,214.813z"/>
	<polygon points="375,213.689 355.159,191 350,191 350,223 356,223 356,200.219 375.646,223 380.417,223 381,223 381,191 375,191 	
		"/>
	<path d="M441.034,192.803c-2.524-1.403-6.174-1.803-10.383-1.803H419v32h11.09c2.807,0,4.49,0,5.613,0
		c1.121,0,2.244-0.306,3.367-0.866c2.245-0.843,3.929-2.259,5.612-3.661c1.684-1.684,2.807-3.374,3.649-5.338
		c0.561-1.965,1.121-3.933,1.121-6.178c0-3.087-0.841-5.814-2.244-8.34S443.561,194.206,441.034,192.803z M440.193,214.251
		c-0.563,0.842-1.123,1.122-1.966,1.685c-0.561,0.561-1.684,1.031-2.806,1.312c-1.122,0.282-2.807,0.753-5.052,0.753H425v-22h5.09
		c1.964,0,3.648,0.005,4.49,0.285c0.842,0,1.684,0.283,2.807,0.844c1.123,0.281,1.964,0.844,2.807,1.686
		c1.964,1.965,3.087,4.491,3.087,7.578S442.157,212.286,440.193,214.251z"/>
	<path d="M501.652,190.115c-5.051,0-8.979,1.686-12.348,4.771c-3.368,3.087-5.052,7.297-5.052,12.067
		c0,4.771,1.403,8.7,4.771,11.787c3.088,3.087,7.298,4.771,12.068,4.771c5.051,0,9.542-1.684,12.909-4.771s5.052-7.016,5.052-11.787
		c0-4.771-1.685-8.98-5.052-12.067C510.914,191.801,506.704,190.115,501.652,190.115z M509.791,214.813
		c-2.244,1.964-4.771,3.087-8.139,3.087c-3.367,0-5.893-1.123-8.138-3.087c-1.965-2.245-3.088-4.771-3.088-7.858
		c0-3.367,0.843-6.174,3.088-8.139c1.964-1.964,4.771-3.087,8.138-3.087c3.088,0,5.895,1.123,8.139,3.368
		c2.246,2.245,3.367,4.771,3.367,7.857S512.037,212.567,509.791,214.813z"/>
	<polygon points="580,213.689 560.026,191 555,191 555,223 561,223 561,200.219 580.513,223 585.283,223 586,223 586,191 580,191 	
		"/>
</g>
</svg>
