<?xml version="1.0" encoding="utf-8"?>
<!-- Generator: Adobe Illustrator 19.2.1, SVG Export Plug-In . SVG Version: 6.00 Build 0)  -->
<svg version="1.1" id="layer" xmlns="http://www.w3.org/2000/svg" xmlns:xlink="http://www.w3.org/1999/xlink" x="0px" y="0px"
	 viewBox="0 0 652 652" style="enable-background:new 0 0 652 652;" xml:space="preserve">
<style type="text/css">
	.st0{fill:#3B362F;}
</style>
<g>
	<path class="st0" d="M568,287.6h-10.6l25.9,70.7c-2.4,8.8-6.2,15.6-11.6,20.7c-2.4,2.4-7.8,3.7-16.1,3.6v8h3.6
		c1.6,0.2,2.9,0.2,4.1,0c3.1-0.1,6-0.6,8.5-1.5c3.1-1.1,6-2.9,8.5-5.7c2.9-3.1,5.5-7.1,7.8-12.5c1.6-3.6,12.5-31.3,32.6-83.2h-10.1
		l-22,57.8L568,287.6"/>
</g>
<g>
	<path class="st0" d="M42.6,289.1c-4.4,1.8-8.1,4.2-11.4,7.3c-3.4,3.3-5.9,7-7.6,11.4c-2,4.6-2.9,9.4-2.9,14.8
		c0,7.5,1.5,13.8,4.2,19.2c2.3,4.6,5.5,8.3,9.9,11.2c3.4,2.3,7.3,3.9,11.7,5c3.4,0.8,6.7,1.3,10.1,1.3c8.3,0,15-1.8,20-5.2V252.6
		H66.6v35.3c-2.9-1-6.3-1.5-10.4-1.5C51.4,286.5,46.9,287.3,42.6,289.1 M49.6,296.7c2.5-0.9,4.7-1.2,6.8-1.2c4.2,0,7.7,0.8,10.1,2.6
		v50.5c-2.4,1-5.7,1.5-9.8,1.5c-3.1,0-6-0.3-8.8-1.1c-3.2-0.8-6-2.3-8.3-4.1c-5.7-4.7-8.6-12.1-8.6-22c0-5.2,1-9.8,2.9-13.7
		c1.8-3.3,4.1-6.1,7.2-8.3C43.6,299.2,46.5,297.7,49.6,296.7"/>
	<path class="st0" d="M508.4,252.8h-10.1v101.6c5.1,2.9,11.7,4.4,20,4.4c3.3,0,6.5-0.5,9.8-1.5c4.2-1.1,8-3.1,11.4-5.5
		c4.1-3.1,7.2-6.8,9.4-11.6c2.6-5.7,3.9-12.2,3.9-19.9c0-5.4-0.8-10.2-2.6-14.7c-1.6-4.1-3.9-7.6-6.8-10.6c-2.8-2.8-5.9-5-9.6-6.5
		c-3.4-1.5-7.2-2.1-10.9-2.1c-6.2,0-11.1,0.8-14.5,2.5V252.8 M508.4,302.2c-0.3-4.7,4.1-7,13.2-7c3.4,0,6.5,0.8,9.3,2.3
		c2.5,1.5,4.7,3.4,6.5,6c1.8,2.5,3.1,5.1,3.9,8.1c0.8,3.1,1.3,6.2,1.3,9.6c0,4.7-0.6,9-2,12.7c-1.3,3.6-3.1,6.5-5.4,9
		c-2.1,2.4-4.7,4.2-7.6,5.4c-2.6,1.1-5.4,1.8-8.3,1.8c-7.3,0-11.1-1.3-10.9-3.9V302.2z"/>
	<path class="st0" d="M101.7,287.6H91.6c0.2,21.3,0.2,37,0.2,46.9c0,7.8,2,13.8,5.9,18.1c1.8,2.1,4.1,3.8,6.8,4.7
		c2.8,1.1,5.9,1.6,9.3,1.6c9.6,0,16.9-3.6,21.8-10.9l1.6,9.4h7.8v-45.1c0-1.9,0.5-3.9,1.6-5.9c1.1-2.1,2.6-3.9,4.4-5.5
		c2-1.8,4.2-3.1,6.7-4.1c2.4-1.2,5-1.6,7.8-1.6c8.3,0,12.4,4.9,12.5,14.8v47.4h9.9v-46.9c0-8.3-2.5-14.7-7.2-19.1
		c-2-1.8-4.2-3.2-7-4.1c-2.5-0.8-4.9-1.3-7.7-1.3c-8,0-15.2,3.6-21.8,10.8l-1.3-9.3h-8.3v46.9c0,1.3-0.5,2.8-1.3,4.6
		c-1,1.8-2.3,3.4-3.9,4.9c-1.8,1.6-3.9,2.9-6.3,3.9c-2.8,1.1-5.9,1.6-9,1.6c-8.3,0-12.6-5.1-12.6-15.2V287.6"/>
	<path class="st0" d="M409.9,296.9c2.6-1.1,5.2-1.6,8-1.6c8.3,0,12.4,4.9,12.5,14.8v47.4h9.8v-46.4c0.3-1.8,1-3.6,2.1-5.5
		c1.1-1.8,2.8-3.6,4.6-5.1c1.9-1.6,4.1-2.9,6.4-3.8c2.4-1,5-1.4,7.7-1.4c8.8,0,12.9,4.9,12.4,14.8v47.4h9.9v-46.9
		c0-8.3-2.3-14.7-7-19.1c-2.1-1.8-4.4-3.2-7.2-4.1c-2.4-0.8-4.9-1.3-7.7-1.3c-5.1,0-10.3,2-16,5.9c-1.8,1.3-3.4,2.8-5.2,4.2
		c-0.8,0.8-1.6,1.6-2.1,2.1c-1.8-4.1-4.7-7.3-8.5-9.4c-3.3-1.8-7-2.8-11.1-2.8c-8.3,0-15.8,3.6-22.3,10.9l-1.5-9.5h-7.8v46.9
		c0,1.3-0.5,2.8-1.3,4.6c-0.8,1.8-2.1,3.4-3.8,4.9c-2,1.6-4.1,2.9-6.4,3.9c-2.8,1.1-5.9,1.6-9,1.6c-9.6,0-14-5.1-13.5-15.1v-46.7
		h-9.9c0.2,21.3,0.2,37,0.2,46.9c0,3.9,0.5,7.3,1.6,10.4c1,3.1,2.4,5.5,4.6,7.6c2,2.1,4.4,3.6,7.2,4.7c2.8,1.1,6,1.6,9.4,1.6
		c8.1,0,15.5-3.6,21.8-10.9l1.6,9.5h7.8v-45.1c0-2,0.5-3.9,1.6-5.9c1.1-2.1,2.6-3.9,4.4-5.5C405.3,299.2,407.4,297.9,409.9,296.9"/>
	<path class="st0" d="M212.5,287.7H204l-0.2,69.9h10.4v-45.1c0-1.9,0.5-3.9,1.6-5.9c1.1-2.1,2.6-3.9,4.6-5.5c2-1.8,4.1-3.1,6.5-4
		c2.4-1.2,5.1-1.6,7.8-1.6c8.3,0,12.4,4.9,12.5,14.8v47.4h9.9v-46.9c0-8.3-2.3-14.7-7-19.1c-2.1-1.8-4.4-3.2-7-4.1
		c-2.5-0.8-5.1-1.3-7.8-1.3c-8,0-15.1,3.6-21.7,10.8L212.5,287.7"/>
	<path class="st0" d="M284,252.5h-10.3v105h10.4v-45.1c0-1.9,0.5-3.9,1.5-5.9c1.1-2.1,2.6-3.9,4.5-5.5c2-1.8,4.1-3.1,6.5-4
		c2.6-1.2,5.2-1.6,8-1.6c8.1,0,12.2,4.9,12.4,14.8v47.4h9.9v-46.9c0-8.3-2.3-14.7-7-19.1c-2-1.8-4.2-3.2-7-4.1
		c-2.5-0.8-5-1.3-7.8-1.3c-8,0-15,3.4-21.2,10.3V252.5"/>
</g>
</svg>
