<svg xmlns="http://www.w3.org/2000/svg" xmlns:xlink="http://www.w3.org/1999/xlink" version="1.1" id="layer" x="0px" y="0px" style="enable-background:new 0 0 652 652;" xml:space="preserve" viewBox="20.2 252.4 600 138.4">
<style type="text/css">
	.st0{fill:#009FDE;}
	.st1{fill:#8CD6F3;}
	.st2{fill:#003B80;}
	.st3{fill:#FFFFFF;}
</style>
<polygon class="st0" points="271.5,273.1 253.9,273.1 253.9,280.4 263.4,280.4 263.4,342.4 253.5,342.4 253.5,350.1 280.5,350.1   280.5,342.4 271.5,342.4 "/>
<polygon class="st0" points="607.8,342.4 607.8,300.5 620.2,300.5 620.2,293.2 607.8,293.2 607.8,273.1 600.1,273.1 600.1,293.2   589,293.2 589,300.5 600.1,300.5 600.1,350.1 620.2,350.1 620.2,342.4 "/>
<g>
	<path class="st0" d="M218.4,299.4c11.3,0,20.7,7.9,22.5,18.6h-43.6C198.7,307.7,208.1,299.4,218.4,299.4 M218.5,292.2   c-16.1,0-29.2,13.4-29.2,29.9c0,16.2,13.3,29.3,29.6,29.3c9.8,0,18.9-4.9,24.4-12.7l-6.1-4.1c-4,6.2-10.7,9.6-18.5,9.6   c-11.3,0-20.7-8.3-21.5-19.9h51.2v-2.3C248.4,305.4,235.2,292.2,218.5,292.2"/>
	<path class="st0" d="M314.3,299.4c11.3,0,20.7,7.9,22.5,18.6h-43.6C294.7,307.7,304.1,299.4,314.3,299.4 M314.4,292.2   c-16.1,0-29.2,13.4-29.2,29.9c0,16.2,13.3,29.3,29.6,29.3c9.8,0,19-4.9,24.4-12.7l-6.1-4.1c-4,6.2-10.7,9.6-18.5,9.6   c-11.3,0-20.7-8.3-21.5-19.9h51v-2.3C344.1,305.4,331.1,292.2,314.4,292.2"/>
	<path class="st0" d="M485,299.4c11.3,0,20.7,7.9,22.5,18.6h-43.6C465.3,307.7,474.7,299.4,485,299.4 M485.2,292.2   c-16.1,0-29.2,13.4-29.2,29.9c0,16.2,13.3,29.3,29.6,29.3c9.8,0,18.9-4.9,24.4-12.7l-6.1-4.1c-4,6.2-10.7,9.6-18.5,9.6   c-11.3,0-20.7-8.3-21.5-19.9h51.3v-2.3C515.1,305.4,501.9,292.2,485.2,292.2"/>
	<path class="st0" d="M537.4,317.9c0-10.6,7.5-17.9,16.7-17.9c9.2,0,16.7,7.3,16.7,17.9v24.5h-9.4v7.7h26.5v-7.7h-9.4V318   c0-18.7-12.6-25.8-24.4-25.8c-6.4,0-12.5,2.7-16.7,8.2v-7.3h-17.1v7.3h9.4v41.9h-9.4v7.7h26.5v-7.7h-9.4L537.4,317.9z"/>
	<path class="st0" d="M366.8,316.4c0-9.7,6.8-16.4,15.2-16.4c8.4,0,15.2,6.7,15.2,16.4v26h-9.4v7.7h26.5v-7.7h-9.4v-26   c0-9.6,6.8-16.4,15.2-16.4c8.4,0,15.2,6.8,15.2,16.4v26h-9.4v7.7h26.9v-7.7h-9.4v-24.4c0-18.3-12.6-25.7-22.7-25.7   c-8.9,0-15.2,4.1-19.5,11.2c-3.9-7.1-10.9-11.2-18.9-11.2c-5.6,0-12.3,2.4-15.4,8.2v-7.3h-17.1v7.3h9.4v41.9h-9.4v7.7h26.5v-7.7   h-9.4L366.8,316.4z"/>
	<path class="st0" d="M158.6,321.6c0,38.2-31,69.2-69.2,69.2c-38.2,0-69.2-31-69.2-69.2c0-38.2,31-69.2,69.2-69.2   C127.6,252.4,158.6,283.4,158.6,321.6"/>
	<path class="st1" d="M51.7,313.9c3.6-17.6,19.1-30.8,37.7-30.8c18.6,0,34.1,13.2,37.7,30.8H51.7z M89.4,267.8   c-29.7,0-53.8,24.1-53.8,53.8c0,2.6,0.2,5.2,0.6,7.7h91h15.6c0.4-2.5,0.6-5.1,0.6-7.7C143.2,291.9,119.1,267.8,89.4,267.8"/>
	<path class="st2" d="M127,313.9c-3.6-17.6-19.1-30.8-37.7-30.8c-18.6,0-34.1,13.2-37.7,30.8H127z"/>
	<path class="st3" d="M121.3,343c-6.9,10.3-18.6,17.1-32,17.1c-18.6,0-34.1-13.2-37.7-30.8H36.1c3.7,26.1,26.2,46.1,53.3,46.1   c18.7,0,35.1-9.5,44.8-23.9L121.3,343z"/>
	<path class="st2" d="M121.3,343l12.8,8.5c4.4-6.5,7.4-14.1,8.5-22.2H127C126,334.3,124.1,338.9,121.3,343"/>
</g>
</svg>