<svg id="Layer_1" data-name="Layer 1" xmlns="http://www.w3.org/2000/svg" viewBox="0 0 388 100"><defs><style>.cls-7{fill:#483b8c}</style></defs><path fill="#333068" d="M35.08 61.84l7.53 3.3.51-.88V42.11l-.51-.55-7.53-3.14v23.42z"/><path fill="#037f7f" d="M.12 78.71l.76.06L25.41 68.3v-.36l-.35-.75L1.04 43.53H.12v35.18z"/><path fill="#3fb7af" d="M42.05 100l.24-.75.12-22.33-.36-.5-16.65-8.48.01.36L41.6 99.49l.45.51z"/><path fill="#079791" d="M.12 78.71L42.06 100 25.41 67.94.12 78.71z"/><path fill="#80ba27" d="M42.05 100l42.06-21.31-.09-.33-13.95-15.59-.53-.28-.53.36-26.79 36.62-.17.53z"/><path fill="#5b2883" d="M84.11 20.4l-15.54-7.63-.78.78-7.13 17.66v1.16l1.33-.16 21.28-10.86.84-.95z"/><path class="cls-7" d="M84.11 43.83L42.62 65.14V41.56L84.11 20.4v23.43z"/><path fill="#5d8099" d="M.12 43.53h.92l24.02-10.44.44-.64-.77-.8-23.33-9.7H.12v21.58z"/><path fill="#adce70" d="M84.12 78.68V55.1l-14.58 7.39 14.58 16.19z"/><path fill="#64b76c" d="M42.06 76.42L42.05 100l27.49-37.5-27.48 13.92z"/><path class="cls-7" d="M42.62 23.58l1.36-.11 23.81-9.92.78-.78L42.62 0l-.36 1.17-.09 21.25.45 1.16z"/><path fill="#322870" d="M60.66 32.37l7.91-19.6-25.96 10.81 18.05 8.79z"/><path fill="#416681" d="M.12 43.53l25.29 24.41.09-35.49L.12 43.53z"/><path fill="#5b54a3" d="M42.62 0L.12 21.95l25.38 10.5 17.12-8.87V0z"/><path d="M121.35 25.62c12.44 0 18.66 9.79 18.66 20.86 0 1-.18 2.47-.18 2.47h-36.69c0 13.26 9 20.86 19.58 20.86A20.71 20.71 0 0 0 136.9 64l2.1 3.25a25 25 0 0 1-16.29 6.31c-12.9 0-23.6-9.33-23.6-23.88.01-15.46 10.53-24.06 22.24-24.06zM136 45.38c-.46-11.16-7.14-16.19-14.73-16.19-8.42 0-16.2 5.49-17.84 16.19zm11.31-18.66h3.85v8.05a19 19 0 0 1-.37 3.75h.21c2.29-6.86 10.43-12.9 17.57-12.9 9.15 0 13.45 4.3 14.46 12.44h.18c2.56-6.4 9.51-12.44 17.38-12.44 11.81 0 15.28 7 15.28 17.84v29H212V44.83c0-8.6-1.74-15.64-11.44-15.64-7.59 0-14.09 6.77-16.1 13.9a24 24 0 0 0-.91 7v22.37h-3.85V44.83c0-7.87-1.1-15.64-11.16-15.64-8.14 0-14.55 7.13-16.65 14.73a22.68 22.68 0 0 0-.73 6.22v22.32h-3.85zm97.88-1.1c12.44 0 18.66 9.79 18.66 20.86 0 1-.18 2.47-.18 2.47H227c0 13.26 9 20.86 19.58 20.86A20.71 20.71 0 0 0 260.74 64l2.1 3.21a24.91 24.91 0 0 1-16.28 6.31c-12.9 0-23.61-9.33-23.61-23.88.05-15.42 10.52-24.02 22.24-24.02zm14.63 19.76c-.45-11.16-7.13-16.19-14.73-16.19-8.41 0-16.19 5.49-17.84 16.19zm11.33-18.66H275v8.69a19.54 19.54 0 0 1-.36 3.75h.18c2.29-7 7.41-12.81 14.64-12.81a14.56 14.56 0 0 1 2.65.27v3.85a14.41 14.41 0 0 0-2.1-.19c-7.14 0-11.62 6-13.63 12.81A32.46 32.46 0 0 0 275 52.7v19.76h-3.84zm49.91 17.84h3V43c0-10.15-5.22-13.63-12.54-13.63a21.5 21.5 0 0 0-13.08 4.39l-2.19-3.11s5.48-5 15.46-5c10.52 0 16.19 5.85 16.19 17.29v29.52h-3.84v-6a21.12 21.12 0 0 1 .36-4.11h-.18c.09 0-4.12 11.25-16 11.25-7.41 0-15.55-4.12-15.55-13.27.01-15.59 20.23-15.77 28.37-15.77zM308.43 70c10 0 15.65-10.34 15.65-19.39v-2.48h-2.93c-7.78 0-24.43 0-24.43 11.89 0 4.85 3.94 9.98 11.71 9.98zm29.1-61.58h3.93v64h-3.93zm30.87 17.2c11.52 0 15.82 10.34 15.82 10.34h.19a19 19 0 0 1-.37-3.75V8.42h3.84v64H384V66.7a14.66 14.66 0 0 1 .37-3.48h-.19a17.5 17.5 0 0 1-16.56 10.34c-12.26 0-19.76-9.79-19.76-24 .04-14.56 8.55-23.94 20.54-23.94zm-.55 44.19c8.41 0 16.28-6 16.28-20.31 0-10.16-5.21-20.13-15.92-20.13-9 0-16.28 7.41-16.28 20.22 0 12.35 6.59 20.22 15.92 20.22z" fill="#005156"/></svg>