<svg xmlns="http://www.w3.org/2000/svg" fill="none" viewBox="0 0.29 135.27 33.6">
<path d="M127.633 21.5176C126.971 21.5264 126.318 21.3561 125.745 21.0248C125.179 20.6962 124.716 20.2162 124.408 19.6389C124.073 19.0078 123.905 18.3017 123.918 17.5874C123.905 16.8721 124.074 16.1652 124.408 15.533C124.716 14.9564 125.18 14.4774 125.745 14.1499C126.318 13.8186 126.971 13.6484 127.633 13.6572C128.294 13.6485 128.945 13.8187 129.517 14.1499C130.083 14.4774 130.546 14.9564 130.854 15.533C131.19 16.1647 131.359 16.872 131.344 17.5874C131.359 18.3019 131.19 19.0083 130.854 19.6389C130.546 20.2162 130.083 20.6962 129.517 21.0248C128.945 21.356 128.294 21.5263 127.633 21.5176ZM127.633 24.7389C128.995 24.76 130.341 24.4432 131.551 23.8169C132.678 23.2298 133.622 22.346 134.283 21.2611C134.949 20.1529 135.292 18.8804 135.274 17.5874C135.292 16.2943 134.949 15.0219 134.283 13.9136C133.623 12.8281 132.678 11.9442 131.551 11.3579C130.341 10.7315 128.995 10.4148 127.633 10.4359C126.269 10.4144 124.922 10.7312 123.711 11.3579C122.584 11.9442 121.639 12.8281 120.98 13.9136C120.313 15.0219 119.97 16.2943 119.988 17.5874C119.97 18.8804 120.313 20.1529 120.98 21.2611C121.64 22.346 122.585 23.2298 123.711 23.8169C124.922 24.4436 126.269 24.7604 127.633 24.7389ZM113.678 21.0652C113.017 21.3677 112.299 21.5221 111.572 21.5176C110.867 21.5295 110.172 21.3566 109.555 21.0162C108.975 20.69 108.498 20.2066 108.181 19.6216C107.846 18.9966 107.677 18.2962 107.691 17.5874C107.691 16.3945 108.051 15.4417 108.771 14.7291C109.149 14.3671 109.595 14.0855 110.085 13.9012C110.574 13.717 111.096 13.634 111.618 13.6572C112.253 13.6542 112.881 13.7898 113.458 14.0546C114.036 14.3193 114.548 14.7068 114.96 15.1901L117.435 12.9513C116.746 12.133 115.869 11.4926 114.88 11.0842C113.783 10.6371 112.607 10.4166 111.422 10.4359C110.051 10.4119 108.696 10.7256 107.475 11.3493C106.344 11.9246 105.397 12.8062 104.743 13.8935C104.079 15.0098 103.739 16.2888 103.761 17.5874C103.739 18.886 104.079 20.165 104.743 21.2813C105.393 22.363 106.331 23.2429 107.452 23.8226C108.653 24.4428 109.989 24.7566 111.341 24.736C112.38 24.7339 113.412 24.5815 114.407 24.2836C115.378 24.0077 116.294 23.5693 117.118 22.987V17.2906H113.678V21.0652ZM97.1651 15.8067C97.1817 16.0841 97.1353 16.3616 97.0295 16.6186C96.9238 16.8755 96.7613 17.1053 96.5543 17.2906C96.1489 17.6383 95.5467 17.8121 94.7476 17.8121H92.5866V13.7782H94.7476C95.5448 13.7782 96.147 13.9549 96.5543 14.3084C96.7605 14.4962 96.9223 14.7276 97.028 14.9858C97.1336 15.244 97.1805 15.5224 97.1651 15.8009M97.2026 24.4681H101.369L98.4012 20.146C99.2182 19.7722 99.9111 19.1723 100.398 18.4172C100.872 17.6367 101.114 16.7371 101.095 15.824C101.117 14.8703 100.857 13.9314 100.349 13.1242C99.8291 12.3397 99.0909 11.7247 98.2254 11.355C97.201 10.9211 96.0961 10.71 94.9839 10.7355H88.7026V24.4911H92.5924V20.8347H94.7131L97.2026 24.4681ZM78.4248 24.7562C80.4667 24.7562 82.0553 24.1991 83.1905 23.085C84.3258 21.9709 84.8934 20.3919 84.8934 18.3481V10.724H81.0641V18.2299C81.0641 20.4313 80.1997 21.532 78.4709 21.532C76.7421 21.532 75.8719 20.4313 75.8604 18.2299V10.724H71.9648V18.3481C71.9648 20.39 72.5314 21.968 73.6648 23.0821C74.7981 24.1962 76.3867 24.7533 78.4305 24.7533M68.1556 24.4652V10.7096H64.9544L60.2377 18.6477L55.4056 10.7096H52.216V24.4652H55.8119V17.3713L59.33 23.1081H61.0588L64.5798 17.1955V24.4853L68.1556 24.4652ZM41.5982 21.457V18.9416H47.7095V16.043H41.5982V13.7379H48.5365V10.7326H37.7487V24.4882H48.79V21.4801L41.5982 21.457Z" fill="#002936"/>
<path d="M17.2726 6.03239C16.6416 6.66336 15.7861 7.01817 14.8937 7.01893C14.0012 7.01893 13.1452 6.66437 12.514 6.03323C11.8829 5.40209 11.5283 4.54607 11.5283 3.65351C11.5283 2.76094 11.8829 1.90493 12.514 1.27379C13.1452 0.642647 14.0012 0.288086 14.8937 0.288086C15.7863 0.288086 16.6423 0.642647 17.2734 1.27379C17.9046 1.90493 18.2592 2.76094 18.2592 3.65351C18.2584 4.54584 17.9036 5.40141 17.2726 6.03239Z" fill="url(#paint0_linear_3136_15441)"/>
<path d="M24.3889 9.23448C24.0122 9.39061 23.6084 9.47098 23.2007 9.47098C22.3776 9.47098 21.5883 9.14403 21.0064 8.56207C20.4244 7.9801 20.0975 7.19078 20.0975 6.36776C20.0975 5.54447 20.4243 4.75485 21.0062 4.17243C21.5881 3.59001 22.3774 3.26243 23.2007 3.26167C24.0237 3.26167 24.813 3.5886 25.395 4.17057C25.9769 4.75253 26.3039 5.54185 26.3039 6.36487C26.3043 6.77264 26.2243 7.17648 26.0685 7.55331C25.9127 7.93014 25.6842 8.27258 25.396 8.56105C25.1078 8.84951 24.7656 9.07835 24.3889 9.23448Z" fill="url(#paint1_linear_3136_15441)"/>
<path d="M13.4156 30.3235C13.8068 29.9323 14.3374 29.7125 14.8906 29.7125C15.4442 29.7125 15.9751 29.9322 16.3668 30.3233C16.7585 30.7144 16.9791 31.2449 16.9799 31.7985C16.9799 32.3517 16.7602 32.8823 16.369 33.2735C15.9778 33.6647 15.4472 33.8844 14.894 33.8844C14.6198 33.8849 14.3481 33.8313 14.0947 33.7266C13.8412 33.622 13.6109 33.4684 13.4168 33.2747C13.2227 33.0809 13.0688 32.8508 12.9638 32.5975C12.8587 32.3442 12.8047 32.0727 12.8047 31.7985C12.8047 31.2452 13.0244 30.7147 13.4156 30.3235Z" fill="url(#paint2_linear_3136_15441)"/>
<path d="M25.3934 13.2715C25.3934 14.0265 25.6933 14.7506 26.2272 15.2845C26.7611 15.8183 27.4852 16.1183 28.2402 16.1183C28.9949 16.1175 29.7186 15.8173 30.2523 15.2836C30.786 14.7499 31.0862 14.0263 31.087 13.2715C31.0862 12.5167 30.786 11.7931 30.2523 11.2594C29.7186 10.7257 28.9949 10.4255 28.2402 10.4247C27.4852 10.4247 26.7611 10.7246 26.2272 11.2585C25.6933 11.7924 25.3934 12.5165 25.3934 13.2715Z" fill="url(#paint3_linear_3136_15441)"/>
<path d="M26.4065 20.3354C26.8928 19.8491 27.5524 19.5759 28.2402 19.5759C28.9279 19.5759 29.5875 19.8491 30.0739 20.3354C30.5602 20.8218 30.8334 21.4814 30.8334 22.1691C30.8334 22.8569 30.5602 23.5165 30.0739 24.0028C29.5875 24.4891 28.9279 24.7623 28.2402 24.7623C27.5524 24.7623 26.8928 24.4891 26.4065 24.0028C25.9202 23.5165 25.6469 22.8569 25.6469 22.1691C25.6469 21.4814 25.9202 20.8218 26.4065 20.3354Z" fill="url(#paint4_linear_3136_15441)"/>
<path d="M23.1978 26.7389C22.8922 26.7389 22.5896 26.7992 22.3073 26.9162C22.025 27.0333 21.7685 27.2048 21.5526 27.421C21.3366 27.6372 21.1654 27.8939 21.0487 28.1764C20.932 28.4588 20.8721 28.7615 20.8725 29.0671C20.8725 29.3727 20.9328 29.6753 21.0498 29.9576C21.1668 30.2399 21.3384 30.4964 21.5546 30.7123C21.7708 30.9283 22.0275 31.0995 22.3099 31.2162C22.5924 31.3329 22.8951 31.3927 23.2007 31.3923C23.8174 31.3923 24.4088 31.1474 24.8449 30.7113C25.2809 30.2752 25.5259 29.6838 25.5259 29.0671C25.5259 28.4496 25.2806 27.8575 24.844 27.4208C24.4074 26.9842 23.8152 26.7389 23.1978 26.7389Z" fill="url(#paint5_linear_3136_15441)"/>
<path d="M5.3093 27.7896C5.6481 27.4508 6.10763 27.2605 6.58677 27.2605C7.06618 27.2605 7.52599 27.4507 7.86525 27.7894C8.20452 28.1281 8.39549 28.5877 8.39626 29.0671C8.39626 29.5462 8.20592 30.0057 7.86712 30.3445C7.52831 30.6833 7.0688 30.8737 6.58966 30.8737C6.35217 30.8741 6.11693 30.8276 5.89741 30.737C5.67789 30.6464 5.47838 30.5133 5.31032 30.3456C5.14225 30.1778 5.00892 29.9785 4.91795 29.7591C4.82698 29.5397 4.78016 29.3046 4.78016 29.0671C4.78016 28.5879 4.97049 28.1284 5.3093 27.7896Z" fill="url(#paint6_linear_3136_15441)"/>
<path d="M1.54729 20.6161C1.34399 20.6157 1.14261 20.6554 0.954715 20.7331C0.766819 20.8107 0.596097 20.9247 0.452342 21.0684C0.308588 21.2122 0.194629 21.3829 0.117005 21.5708C0.039381 21.7587 -0.000376952 21.9601 2.69342e-06 22.1634C-0.000376952 22.3667 0.039381 22.568 0.117005 22.7559C0.194629 22.9438 0.308588 23.1145 0.452342 23.2583C0.596097 23.4021 0.766819 23.516 0.954715 23.5936C1.14261 23.6713 1.34399 23.711 1.54729 23.7106C1.95742 23.7099 2.35052 23.5466 2.64053 23.2566C2.93054 22.9666 3.09381 22.5735 3.09458 22.1634C3.09496 21.9601 3.05518 21.7587 2.97756 21.5708C2.89993 21.3829 2.78597 21.2122 2.64222 21.0684C2.49846 20.9247 2.32774 20.8107 2.13985 20.7331C1.95195 20.6554 1.75059 20.6157 1.54729 20.6161Z" fill="url(#paint7_linear_3136_15441)"/>
<path d="M2.45821 14.1832C2.21675 14.4252 1.88916 14.5616 1.54731 14.5623C1.20595 14.5616 0.87878 14.4256 0.637405 14.1842C0.396029 13.9429 0.260093 13.6157 0.259332 13.2744C0.258953 13.105 0.291993 12.9372 0.35655 12.7806C0.421107 12.624 0.515922 12.4817 0.635558 12.3618C0.755195 12.2419 0.897294 12.1467 1.05375 12.0818C1.2102 12.0169 1.37793 11.9835 1.54731 11.9835C1.8889 11.9835 2.2165 12.1192 2.45804 12.3607C2.69958 12.6023 2.83526 12.9299 2.83526 13.2715C2.83527 13.6133 2.69967 13.9412 2.45821 14.1832Z" fill="url(#paint8_linear_3136_15441)"/>
<path d="M6.58679 7.39929C6.85961 7.39929 7.12124 7.29091 7.31415 7.098C7.50706 6.90509 7.61544 6.64346 7.61544 6.37064C7.61544 6.23556 7.58882 6.10181 7.53713 5.97701C7.48543 5.8522 7.40967 5.7388 7.31415 5.64329C7.21863 5.54777 7.10523 5.472 6.98043 5.42031C6.85563 5.36861 6.72188 5.342 6.58679 5.342C6.45171 5.342 6.31794 5.36861 6.19314 5.42031C6.06834 5.472 5.95494 5.54777 5.85942 5.64329C5.7639 5.7388 5.68814 5.8522 5.63644 5.97701C5.58475 6.10181 5.55815 6.23556 5.55815 6.37064C5.55815 6.64346 5.66651 6.90509 5.85942 7.098C6.05233 7.29091 6.31398 7.39929 6.58679 7.39929Z" fill="url(#paint9_linear_3136_15441)"/>
<path d="M17.51 12.2313C17.51 12.6898 17.6922 13.1296 18.0164 13.4538C18.3406 13.778 18.7803 13.9601 19.2388 13.9601C19.6973 13.9601 20.1371 13.778 20.4613 13.4538C20.7855 13.1296 20.9676 12.6898 20.9676 12.2313C20.9676 11.7728 20.7855 11.3331 20.4613 11.0089C20.1371 10.6846 19.6973 10.5025 19.2388 10.5025C18.7803 10.5025 18.3406 10.6846 18.0164 11.0089C17.6922 11.3331 17.51 11.7728 17.51 12.2313Z" fill="url(#paint10_linear_3136_15441)"/>
<path d="M20.9106 14.9433C21.2062 14.6477 21.6071 14.4817 22.0251 14.4817C22.2323 14.4813 22.4376 14.5218 22.6291 14.6008C22.8207 14.6798 22.9948 14.7959 23.1414 14.9423C23.2881 15.0886 23.4044 15.2625 23.4838 15.4539C23.5632 15.6453 23.6041 15.8505 23.6041 16.0577C23.6041 16.476 23.4381 16.8772 23.1426 17.1732C22.8471 17.4693 22.4462 17.636 22.028 17.6367C21.6092 17.6367 21.2076 17.4704 20.9114 17.1743C20.6153 16.8781 20.449 16.4765 20.449 16.0577C20.449 15.6397 20.615 15.2389 20.9106 14.9433Z" fill="url(#paint11_linear_3136_15441)"/>
<path d="M22.0251 22.4198C22.4072 22.4198 22.7736 22.268 23.0438 21.9978C23.314 21.7277 23.4657 21.3612 23.4657 20.9791C23.4657 20.597 23.314 20.2306 23.0438 19.9604C22.7736 19.6902 22.4072 19.5384 22.0251 19.5384C21.643 19.5384 21.2765 19.6902 21.0064 19.9604C20.7362 20.2306 20.5844 20.597 20.5844 20.9791C20.5844 21.3612 20.7362 21.7277 21.0064 21.9978C21.2765 22.268 21.643 22.4198 22.0251 22.4198Z" fill="url(#paint12_linear_3136_15441)"/>
<path d="M18.3184 23.9119C18.5604 23.6705 18.8883 23.5349 19.2302 23.5349C19.5718 23.5349 19.8994 23.6706 20.1409 23.9121C20.3825 24.1537 20.5181 24.4813 20.5181 24.8228C20.5181 25.1647 20.3825 25.4926 20.1411 25.7346C19.8996 25.9766 19.572 26.1129 19.2302 26.1137C18.8881 26.1129 18.5602 25.9767 18.3183 25.7348C18.0763 25.4929 17.9401 25.165 17.9393 24.8228C17.9401 24.481 18.0764 24.1534 18.3184 23.9119Z" fill="url(#paint13_linear_3136_15441)"/>
<path d="M14.6286 27.4622C14.9343 27.4622 15.2275 27.3407 15.4436 27.1246C15.6598 26.9085 15.7812 26.6153 15.7812 26.3096C15.7812 26.004 15.6598 25.7108 15.4436 25.4947C15.2275 25.2785 14.9343 25.1571 14.6286 25.1571C14.323 25.1571 14.0298 25.2785 13.8137 25.4947C13.5975 25.7108 13.4761 26.004 13.4761 26.3096C13.4761 26.6153 13.5975 26.9085 13.8137 27.1246C14.0298 27.3407 14.323 27.4622 14.6286 27.4622Z" fill="url(#paint14_linear_3136_15441)"/>
<path d="M9.64074 23.8983C9.76238 23.8482 9.89271 23.8226 10.0242 23.823C10.1558 23.8226 10.2861 23.8482 10.4078 23.8983C10.5294 23.9484 10.64 24.022 10.7331 24.1149C10.8263 24.2077 10.9001 24.3181 10.9506 24.4396C11.001 24.5611 11.027 24.6913 11.027 24.8228C11.027 25.0888 10.9213 25.3438 10.7333 25.5319C10.5452 25.7199 10.2902 25.8256 10.0242 25.8256C9.75831 25.8256 9.50326 25.7199 9.31522 25.5319C9.12717 25.3438 9.02154 25.0888 9.02154 24.8228C9.02154 24.6913 9.04749 24.5611 9.09792 24.4396C9.14834 24.3181 9.22224 24.2077 9.31539 24.1149C9.40854 24.022 9.5191 23.9484 9.64074 23.8983Z" fill="url(#paint15_linear_3136_15441)"/>
<path d="M7.2322 20.1291C7.00294 20.1291 6.78307 20.2202 6.62096 20.3823C6.45886 20.5444 6.36779 20.7643 6.36779 20.9935C6.36779 21.2228 6.45886 21.4426 6.62096 21.6047C6.78307 21.7668 7.00294 21.8579 7.2322 21.8579C7.46145 21.8579 7.68132 21.7668 7.84343 21.6047C8.00554 21.4426 8.0966 21.2228 8.0966 20.9935C8.0966 20.7643 8.00554 20.5444 7.84343 20.3823C7.68132 20.2202 7.46145 20.1291 7.2322 20.1291Z" fill="url(#paint16_linear_3136_15441)"/>
<path d="M6.7259 16.562C6.59251 16.4281 6.51762 16.2468 6.51762 16.0577C6.51762 15.869 6.59261 15.688 6.72608 15.5545C6.85955 15.421 7.04056 15.3461 7.22931 15.3461C7.41833 15.3461 7.59966 15.4209 7.73358 15.5543C7.86751 15.6877 7.94312 15.8687 7.94388 16.0577C7.94388 16.2473 7.8686 16.429 7.73459 16.563C7.60058 16.697 7.41883 16.7723 7.22931 16.7723C7.04029 16.7716 6.85929 16.6959 6.7259 16.562Z" fill="url(#paint17_linear_3136_15441)"/>
<path d="M10.0242 12.8018C10.1771 12.8018 10.3237 12.7411 10.4317 12.633C10.5398 12.525 10.6005 12.3784 10.6005 12.2256C10.6005 12.0727 10.5398 11.9262 10.4317 11.8181C10.3237 11.71 10.1771 11.6493 10.0242 11.6493C9.87141 11.6493 9.72482 11.71 9.61675 11.8181C9.50868 11.9262 9.44798 12.0727 9.44798 12.2256C9.44798 12.3784 9.50868 12.525 9.61675 12.633C9.72482 12.7411 9.87141 12.8018 10.0242 12.8018Z" fill="url(#paint18_linear_3136_15441)"/>
<path d="M15.9411 9.40903C16.2907 9.75864 16.4871 10.2328 16.4871 10.7272C16.4871 11.2217 16.2907 11.6958 15.9411 12.0455C15.5915 12.3951 15.1173 12.5915 14.6229 12.5915C14.378 12.5919 14.1354 12.5439 13.909 12.4504C13.6827 12.3568 13.477 12.2195 13.3038 12.0463C13.1306 11.8731 12.9933 11.6675 12.8998 11.4411C12.8062 11.2148 12.7583 10.9722 12.7587 10.7272C12.7583 10.4823 12.8062 10.2397 12.8998 10.0134C12.9933 9.78703 13.1306 9.58137 13.3038 9.40819C13.477 9.235 13.6827 9.09769 13.909 9.00414C14.1354 8.91059 14.378 8.86263 14.6229 8.86301C15.1173 8.86301 15.5915 9.05942 15.9411 9.40903Z" fill="url(#paint19_linear_3136_15441)"/>
<path d="M16.6225 16.5389C16.8284 16.5382 17.0255 16.4559 17.1708 16.3101C17.3161 16.1642 17.3976 15.9668 17.3976 15.761C17.3968 15.5556 17.315 15.3589 17.1698 15.2137C17.0246 15.0685 16.8279 14.9866 16.6225 14.9859C16.4167 14.9859 16.2193 15.0674 16.0734 15.2127C15.9276 15.358 15.8453 15.5551 15.8446 15.761C15.8446 15.9673 15.9265 16.1652 16.0724 16.3111C16.2183 16.457 16.4162 16.5389 16.6225 16.5389Z" fill="url(#paint20_linear_3136_15441)"/>
<path d="M18.1538 18.1433C18.0676 18.1794 17.9752 18.1982 17.8817 18.1986C17.788 18.1986 17.6952 18.1801 17.6087 18.1442C17.5221 18.1082 17.4436 18.0555 17.3774 17.9892C17.3113 17.9228 17.2589 17.844 17.2233 17.7573C17.1877 17.6706 17.1696 17.5777 17.17 17.484C17.17 17.2953 17.245 17.1143 17.3784 16.9808C17.5119 16.8473 17.6929 16.7723 17.8817 16.7723C18.07 16.7731 18.2502 16.8484 18.3831 16.9818C18.5159 17.1152 18.5905 17.2958 18.5905 17.484C18.5909 17.5775 18.5729 17.6701 18.5374 17.7566C18.502 17.8431 18.4499 17.9218 18.3841 17.9881C18.3183 18.0545 18.24 18.1072 18.1538 18.1433Z" fill="url(#paint21_linear_3136_15441)"/>
<path d="M18.5271 19.7084C18.5271 19.5373 18.4591 19.3731 18.3381 19.2521C18.217 19.131 18.0529 19.063 17.8817 19.063C17.7967 19.0626 17.7125 19.0791 17.6338 19.1113C17.5552 19.1436 17.4837 19.1911 17.4235 19.251C17.3632 19.311 17.3154 19.3823 17.2828 19.4608C17.2502 19.5393 17.2334 19.6234 17.2334 19.7084C17.2334 19.7934 17.2502 19.8776 17.2828 19.9561C17.3154 20.0346 17.3632 20.1059 17.4235 20.1659C17.4837 20.2258 17.5552 20.2733 17.6338 20.3056C17.7125 20.3378 17.7967 20.3543 17.8817 20.3539C18.0529 20.3539 18.217 20.2859 18.3381 20.1648C18.4591 20.0438 18.5271 19.8796 18.5271 19.7084Z" fill="url(#paint22_linear_3136_15441)"/>
<path d="M16.215 21.0211C16.3231 20.913 16.4697 20.8523 16.6225 20.8523C16.7754 20.8523 16.9219 20.913 17.03 21.0211C17.1381 21.1292 17.1988 21.2758 17.1988 21.4286C17.1988 21.5814 17.1381 21.728 17.03 21.8361C16.9219 21.9441 16.7754 22.0049 16.6225 22.0049C16.4697 22.0049 16.3231 21.9441 16.215 21.8361C16.107 21.728 16.0463 21.5814 16.0463 21.4286C16.0463 21.2758 16.107 21.1292 16.215 21.0211Z" fill="url(#paint23_linear_3136_15441)"/>
<path d="M14.0293 22.1115C14.0293 22.2483 14.0836 22.3795 14.1804 22.4762C14.2771 22.5729 14.4083 22.6272 14.5451 22.6272C14.6821 22.6273 14.8136 22.573 14.9108 22.4764C15.008 22.3797 15.063 22.2485 15.0637 22.1115C15.063 21.9744 15.008 21.8433 14.9108 21.7466C14.8136 21.65 14.6821 21.5957 14.5451 21.5957C14.4083 21.5957 14.2771 21.6501 14.1804 21.7468C14.0836 21.8435 14.0293 21.9747 14.0293 22.1115Z" fill="url(#paint24_linear_3136_15441)"/>
<path d="M12.2974 21.0164C12.3523 20.9937 12.4111 20.982 12.4705 20.982C12.5299 20.982 12.5887 20.9937 12.6436 21.0164C12.6985 21.0392 12.7484 21.0725 12.7904 21.1145C12.8324 21.1565 12.8657 21.2064 12.8884 21.2613C12.9112 21.3161 12.9229 21.375 12.9229 21.4344C12.9229 21.4938 12.9112 21.5526 12.8884 21.6075C12.8657 21.6624 12.8324 21.7122 12.7904 21.7542C12.7484 21.7962 12.6985 21.8296 12.6436 21.8523C12.5887 21.875 12.5299 21.8868 12.4705 21.8868C12.3508 21.886 12.2361 21.8381 12.1515 21.7534C12.0668 21.6687 12.0189 21.5541 12.0181 21.4344C12.0181 21.375 12.0298 21.3161 12.0526 21.2613C12.0753 21.2064 12.1086 21.1565 12.1506 21.1145C12.1926 21.0725 12.2425 21.0392 12.2974 21.0164Z" fill="url(#paint25_linear_3136_15441)"/>
<path d="M11.2113 19.3223C11.1089 19.3223 11.0107 19.363 10.9383 19.4354C10.8659 19.5078 10.8252 19.606 10.8252 19.7084C10.8252 19.7591 10.8352 19.8094 10.8546 19.8562C10.874 19.903 10.9025 19.9456 10.9383 19.9815C10.9742 20.0173 11.0167 20.0458 11.0636 20.0652C11.1104 20.0846 11.1606 20.0945 11.2113 20.0945C11.2621 20.0945 11.3123 20.0846 11.3591 20.0652C11.406 20.0458 11.4485 20.0173 11.4844 19.9815C11.5202 19.9456 11.5486 19.903 11.5681 19.8562C11.5875 19.8094 11.5975 19.7591 11.5975 19.7084C11.5975 19.606 11.5568 19.5078 11.4844 19.4354C11.412 19.363 11.3137 19.3223 11.2113 19.3223Z" fill="url(#paint26_linear_3136_15441)"/>
<path d="M11.4395 17.7151C11.379 17.7756 11.297 17.8096 11.2114 17.8096C11.1258 17.8096 11.0437 17.7756 10.9832 17.7151C10.9226 17.6546 10.8887 17.5725 10.8887 17.4869C10.8887 17.4013 10.9226 17.3192 10.9832 17.2587C11.0437 17.1982 11.1258 17.1642 11.2114 17.1642C11.297 17.1642 11.379 17.1982 11.4395 17.2587C11.5001 17.3192 11.5341 17.4013 11.5341 17.4869C11.5341 17.5725 11.5001 17.6546 11.4395 17.7151Z" fill="url(#paint27_linear_3136_15441)"/>
<path d="M12.2141 15.7552C12.2137 15.7891 12.22 15.8228 12.2327 15.8542C12.2455 15.8857 12.2643 15.9143 12.2881 15.9384C12.312 15.9625 12.3404 15.9817 12.3717 15.9947C12.403 16.0078 12.4366 16.0146 12.4705 16.0146C12.5044 16.0146 12.538 16.0078 12.5693 15.9947C12.6006 15.9817 12.629 15.9625 12.6529 15.9384C12.6767 15.9143 12.6955 15.8857 12.7082 15.8542C12.721 15.8228 12.7273 15.7891 12.7269 15.7552C12.7269 15.6872 12.6999 15.622 12.6518 15.5739C12.6037 15.5258 12.5385 15.4988 12.4705 15.4988C12.4025 15.4988 12.3373 15.5258 12.2892 15.5739C12.2411 15.622 12.2141 15.6872 12.2141 15.7552Z" fill="url(#paint28_linear_3136_15441)"/>
<path d="M15.14 14.4889C15.2978 14.6467 15.3864 14.8607 15.3864 15.0839C15.3864 15.307 15.2978 15.521 15.14 15.6788C14.9822 15.8366 14.7682 15.9252 14.5451 15.9252C14.322 15.9252 14.108 15.8366 13.9502 15.6788C13.7924 15.521 13.7037 15.307 13.7037 15.0839C13.7037 14.8607 13.7924 14.6467 13.9502 14.4889C14.108 14.3311 14.322 14.2425 14.5451 14.2425C14.7682 14.2425 14.9822 14.3311 15.14 14.4889Z" fill="url(#paint29_linear_3136_15441)"/>
<defs>
<linearGradient id="paint0_linear_3136_15441" x1="31.087" y1="0.288083" x2="-4.66844e-06" y2="33.8844" gradientUnits="userSpaceOnUse">
<stop stop-color="#FF1055"/>
<stop offset="1" stop-color="#FFD363"/>
</linearGradient>
<linearGradient id="paint1_linear_3136_15441" x1="31.087" y1="0.288083" x2="-4.66844e-06" y2="33.8844" gradientUnits="userSpaceOnUse">
<stop stop-color="#FF1055"/>
<stop offset="1" stop-color="#FFD363"/>
</linearGradient>
<linearGradient id="paint2_linear_3136_15441" x1="31.087" y1="0.288083" x2="-4.66844e-06" y2="33.8844" gradientUnits="userSpaceOnUse">
<stop stop-color="#FF1055"/>
<stop offset="1" stop-color="#FFD363"/>
</linearGradient>
<linearGradient id="paint3_linear_3136_15441" x1="31.087" y1="0.288083" x2="-4.66844e-06" y2="33.8844" gradientUnits="userSpaceOnUse">
<stop stop-color="#FF1055"/>
<stop offset="1" stop-color="#FFD363"/>
</linearGradient>
<linearGradient id="paint4_linear_3136_15441" x1="31.087" y1="0.288083" x2="-4.66844e-06" y2="33.8844" gradientUnits="userSpaceOnUse">
<stop stop-color="#FF1055"/>
<stop offset="1" stop-color="#FFD363"/>
</linearGradient>
<linearGradient id="paint5_linear_3136_15441" x1="31.087" y1="0.288083" x2="-4.66844e-06" y2="33.8844" gradientUnits="userSpaceOnUse">
<stop stop-color="#FF1055"/>
<stop offset="1" stop-color="#FFD363"/>
</linearGradient>
<linearGradient id="paint6_linear_3136_15441" x1="31.087" y1="0.288083" x2="-4.66844e-06" y2="33.8844" gradientUnits="userSpaceOnUse">
<stop stop-color="#FF1055"/>
<stop offset="1" stop-color="#FFD363"/>
</linearGradient>
<linearGradient id="paint7_linear_3136_15441" x1="31.087" y1="0.288083" x2="-4.66844e-06" y2="33.8844" gradientUnits="userSpaceOnUse">
<stop stop-color="#FF1055"/>
<stop offset="1" stop-color="#FFD363"/>
</linearGradient>
<linearGradient id="paint8_linear_3136_15441" x1="31.087" y1="0.288083" x2="-4.66844e-06" y2="33.8844" gradientUnits="userSpaceOnUse">
<stop stop-color="#FF1055"/>
<stop offset="1" stop-color="#FFD363"/>
</linearGradient>
<linearGradient id="paint9_linear_3136_15441" x1="31.087" y1="0.288083" x2="-4.66844e-06" y2="33.8844" gradientUnits="userSpaceOnUse">
<stop stop-color="#FF1055"/>
<stop offset="1" stop-color="#FFD363"/>
</linearGradient>
<linearGradient id="paint10_linear_3136_15441" x1="31.087" y1="0.288083" x2="-4.66844e-06" y2="33.8844" gradientUnits="userSpaceOnUse">
<stop stop-color="#FF1055"/>
<stop offset="1" stop-color="#FFD363"/>
</linearGradient>
<linearGradient id="paint11_linear_3136_15441" x1="31.087" y1="0.288083" x2="-4.66844e-06" y2="33.8844" gradientUnits="userSpaceOnUse">
<stop stop-color="#FF1055"/>
<stop offset="1" stop-color="#FFD363"/>
</linearGradient>
<linearGradient id="paint12_linear_3136_15441" x1="31.087" y1="0.288083" x2="-4.66844e-06" y2="33.8844" gradientUnits="userSpaceOnUse">
<stop stop-color="#FF1055"/>
<stop offset="1" stop-color="#FFD363"/>
</linearGradient>
<linearGradient id="paint13_linear_3136_15441" x1="31.087" y1="0.288083" x2="-4.66844e-06" y2="33.8844" gradientUnits="userSpaceOnUse">
<stop stop-color="#FF1055"/>
<stop offset="1" stop-color="#FFD363"/>
</linearGradient>
<linearGradient id="paint14_linear_3136_15441" x1="31.087" y1="0.288083" x2="-4.66844e-06" y2="33.8844" gradientUnits="userSpaceOnUse">
<stop stop-color="#FF1055"/>
<stop offset="1" stop-color="#FFD363"/>
</linearGradient>
<linearGradient id="paint15_linear_3136_15441" x1="31.087" y1="0.288083" x2="-4.66844e-06" y2="33.8844" gradientUnits="userSpaceOnUse">
<stop stop-color="#FF1055"/>
<stop offset="1" stop-color="#FFD363"/>
</linearGradient>
<linearGradient id="paint16_linear_3136_15441" x1="31.087" y1="0.288083" x2="-4.66844e-06" y2="33.8844" gradientUnits="userSpaceOnUse">
<stop stop-color="#FF1055"/>
<stop offset="1" stop-color="#FFD363"/>
</linearGradient>
<linearGradient id="paint17_linear_3136_15441" x1="31.087" y1="0.288083" x2="-4.66844e-06" y2="33.8844" gradientUnits="userSpaceOnUse">
<stop stop-color="#FF1055"/>
<stop offset="1" stop-color="#FFD363"/>
</linearGradient>
<linearGradient id="paint18_linear_3136_15441" x1="31.087" y1="0.288083" x2="-4.66844e-06" y2="33.8844" gradientUnits="userSpaceOnUse">
<stop stop-color="#FF1055"/>
<stop offset="1" stop-color="#FFD363"/>
</linearGradient>
<linearGradient id="paint19_linear_3136_15441" x1="31.087" y1="0.288083" x2="-4.66844e-06" y2="33.8844" gradientUnits="userSpaceOnUse">
<stop stop-color="#FF1055"/>
<stop offset="1" stop-color="#FFD363"/>
</linearGradient>
<linearGradient id="paint20_linear_3136_15441" x1="31.087" y1="0.288083" x2="-4.66844e-06" y2="33.8844" gradientUnits="userSpaceOnUse">
<stop stop-color="#FF1055"/>
<stop offset="1" stop-color="#FFD363"/>
</linearGradient>
<linearGradient id="paint21_linear_3136_15441" x1="31.087" y1="0.288083" x2="-4.66844e-06" y2="33.8844" gradientUnits="userSpaceOnUse">
<stop stop-color="#FF1055"/>
<stop offset="1" stop-color="#FFD363"/>
</linearGradient>
<linearGradient id="paint22_linear_3136_15441" x1="31.087" y1="0.288083" x2="-4.66844e-06" y2="33.8844" gradientUnits="userSpaceOnUse">
<stop stop-color="#FF1055"/>
<stop offset="1" stop-color="#FFD363"/>
</linearGradient>
<linearGradient id="paint23_linear_3136_15441" x1="31.087" y1="0.288083" x2="-4.66844e-06" y2="33.8844" gradientUnits="userSpaceOnUse">
<stop stop-color="#FF1055"/>
<stop offset="1" stop-color="#FFD363"/>
</linearGradient>
<linearGradient id="paint24_linear_3136_15441" x1="31.087" y1="0.288083" x2="-4.66844e-06" y2="33.8844" gradientUnits="userSpaceOnUse">
<stop stop-color="#FF1055"/>
<stop offset="1" stop-color="#FFD363"/>
</linearGradient>
<linearGradient id="paint25_linear_3136_15441" x1="31.087" y1="0.288083" x2="-4.66844e-06" y2="33.8844" gradientUnits="userSpaceOnUse">
<stop stop-color="#FF1055"/>
<stop offset="1" stop-color="#FFD363"/>
</linearGradient>
<linearGradient id="paint26_linear_3136_15441" x1="31.087" y1="0.288083" x2="-4.66844e-06" y2="33.8844" gradientUnits="userSpaceOnUse">
<stop stop-color="#FF1055"/>
<stop offset="1" stop-color="#FFD363"/>
</linearGradient>
<linearGradient id="paint27_linear_3136_15441" x1="31.087" y1="0.288083" x2="-4.66844e-06" y2="33.8844" gradientUnits="userSpaceOnUse">
<stop stop-color="#FF1055"/>
<stop offset="1" stop-color="#FFD363"/>
</linearGradient>
<linearGradient id="paint28_linear_3136_15441" x1="31.087" y1="0.288083" x2="-4.66844e-06" y2="33.8844" gradientUnits="userSpaceOnUse">
<stop stop-color="#FF1055"/>
<stop offset="1" stop-color="#FFD363"/>
</linearGradient>
<linearGradient id="paint29_linear_3136_15441" x1="31.087" y1="0.288083" x2="-4.66844e-06" y2="33.8844" gradientUnits="userSpaceOnUse">
<stop stop-color="#FF1055"/>
<stop offset="1" stop-color="#FFD363"/>
</linearGradient>
</defs>
</svg>