<svg xmlns:xlink="http://www.w3.org/1999/xlink" xmlns="http://www.w3.org/2000/svg" fill="none" viewBox="0 0 616.22 247.57">
<path fill-rule="evenodd" clip-rule="evenodd" d="M231 86V185.637H293.227V167.367H250.342V144.32H289.163V127.035H250.342V104.27H293.227V86H231ZM310.311 116.494V185.636H328.952V145.164C328.952 137.433 333.577 131.532 341.846 131.532C350.254 131.532 354.04 137.151 354.04 144.6V185.636H372.538V145.164C372.538 137.715 377.306 131.532 385.294 131.532C393.844 131.532 397.487 137.151 397.487 144.6V185.636H415.566V140.804C415.566 122.256 403.372 114.529 390.62 114.529C381.508 114.529 374.221 117.618 368.756 126.052C365.251 118.603 357.822 114.529 348.293 114.529C340.725 114.529 331.894 118.178 328.109 124.928V116.494H310.311ZM434.464 185.636V116.494H452.262V124.928C456.047 118.178 464.875 114.529 472.443 114.529C481.971 114.529 489.401 118.603 492.905 126.052C498.371 117.618 505.661 114.529 514.77 114.529C527.522 114.529 539.715 122.256 539.715 140.804V185.636H521.637V144.6C521.637 137.151 517.993 131.532 509.443 131.532C501.455 131.532 496.691 137.715 496.691 145.164V185.636H478.193V144.6C478.193 137.151 474.407 131.532 465.996 131.532C457.727 131.532 453.101 137.433 453.101 145.164V185.636H434.464ZM597.158 154.584V157.674C597.158 169.903 589.871 173.692 582.026 173.692C575.995 173.692 573.056 169.761 573.056 165.686C573.056 160.206 576.699 157.674 581.602 156.974L597.158 154.584ZM591.973 143.342L575.015 145.868C563.523 147.698 554.414 154.302 554.414 166.81C554.414 177.488 563.384 187.61 578.097 187.61C588.33 187.61 594.916 182.829 598.42 177.349C598.42 180.021 598.698 183.814 599.118 185.64H616.218C615.798 183.254 615.378 178.476 615.378 174.681V140.67C615.378 126.756 607.248 114.394 585.384 114.394C566.743 114.394 556.934 126.335 555.813 137.159L572.354 140.67C572.913 134.63 577.257 129.428 585.526 129.428C593.375 129.428 597.157 133.506 597.157 138.422C597.157 140.809 595.898 142.779 591.973 143.342Z" fill="#110942"/>
<path fill-rule="evenodd" clip-rule="evenodd" d="M152.462 200.302C149.517 189.463 139.416 182.195 132.269 174.088C121.164 161.484 137.974 150.184 143.573 140.117C147.934 132.272 148.539 121.499 143.552 113.832C138.656 106.31 129.99 100.884 128.317 91.6897C127.153 85.2976 131.278 79.5379 132.378 73.4183C133.327 68.1454 133.881 62.6264 133.635 57.2714C133.465 53.6071 131.355 48.649 133.38 45.2413C138.687 36.3199 146.664 24.5729 143.173 14.1276C140.75 6.88092 133.791 0.465028 125.499 0.0258378C120.019 -0.265192 114.932 1.93076 110.783 5.17707C110.372 5.4972 105.775 9.6748 105.68 9.62453C97.3718 6.48141 87.1257 4.90985 76.877 4.90985C66.6309 4.90985 56.3822 6.48141 48.0766 9.62453C47.9786 9.6748 43.3844 5.4972 42.9735 5.17707C38.822 1.93076 33.7374 -0.265192 28.2552 0.0258378C19.9656 0.465028 13.0067 6.88092 10.5837 14.1276C7.09235 24.5729 15.0692 36.3199 20.3765 45.2413C22.3992 48.649 20.2916 53.6071 20.122 57.2714C19.8728 62.6264 20.4268 68.1454 21.3759 73.4183C22.4787 79.5379 26.601 85.2976 25.4372 91.6897C23.7644 100.884 15.0983 106.31 10.2046 113.832C5.2181 121.499 5.82253 132.272 10.1834 140.117C15.7796 150.184 32.5896 161.484 21.4846 174.088C14.3402 182.195 4.23989 189.463 1.29464 200.302C-3.52486 218.026 4.88408 250.089 30.3495 247.417C37.2792 246.687 43.8589 243.882 50.3751 241.708C59.1101 238.792 67.7788 239.036 76.877 239.036C85.9778 239.036 94.6466 238.792 103.379 241.708C109.895 243.882 116.477 246.687 123.407 247.417C148.873 250.089 157.282 218.026 152.462 200.302" fill="#962DFF"/>
</svg>