<svg xmlns="http://www.w3.org/2000/svg" viewBox="0 0 220.02 25.38"><defs><style>.cls-1{fill:#202945;}.cls-2{fill:#80bc00;}</style></defs><g id="Header"><path class="cls-1" d="M120,0a1.7,1.7,0,0,0-1.7,1.7V23.53a1.7,1.7,0,0,0,3.4,0V1.72A1.7,1.7,0,0,0,120,0"/><path class="cls-1" d="M178,0a1.7,1.7,0,0,0-1.7,1.7V23.53a1.7,1.7,0,1,0,3.4,0V1.72A1.7,1.7,0,0,0,178,0"/><path class="cls-1" d="M219.89,23.08,212,2.44a3.53,3.53,0,0,0-6.59,0l-7.83,20.44a1.7,1.7,0,1,0,3.17,1.22l7.84-20.45a.14.14,0,0,1,.23,0l7.89,20.64a1.7,1.7,0,0,0,1.59,1.09,1.64,1.64,0,0,0,.61-.11,1.7,1.7,0,0,0,1-2.19"/><path class="cls-1" d="M99.34.49a1.7,1.7,0,0,0-2.2,1L89.3,21.91a.13.13,0,0,1-.23,0L81.18,1.28A1.7,1.7,0,0,0,78,2.49l7.88,20.64a3.54,3.54,0,0,0,6.59,0l7.84-20.45a1.7,1.7,0,0,0-1-2.19"/><path class="cls-1" d="M58.35,0a1.7,1.7,0,0,0-1.7,1.7v17L43.18.9a2.26,2.26,0,0,0-4.06,1.36V23.53a1.7,1.7,0,1,0,3.4,0V5.67L56.76,24.52a1.7,1.7,0,0,0,1.5.66h.09a1.7,1.7,0,0,0,1.7-1.7V1.72A1.7,1.7,0,0,0,58.35,0"/><path class="cls-1" d="M156.8,0H140.87a1.7,1.7,0,0,0,0,3.4h6.27V23.53a1.7,1.7,0,1,0,3.4,0V3.42h6.26a1.7,1.7,0,0,0,0-3.4"/><path class="cls-1" d="M5.86,3.42,3.17,0H19.3a1.7,1.7,0,0,1,0,3.4ZM11.7,14.07H19a1.7,1.7,0,0,0,0-3.4H11.6l.19.24a2.77,2.77,0,0,1,0,3.05Zm7.6,7.76H5.56l-2.7,3.4H19.3a1.7,1.7,0,0,0,0-3.4"/><path class="cls-2" d="M11.79,10.91l-.19-.24H3.4V3.42H5.86L3.17,0H1.7A1.64,1.64,0,0,0,.8.29,1.68,1.68,0,0,0,0,1.72v21.8H0a1.7,1.7,0,0,0,1.7,1.7H2.86l2.7-3.4H3.4V14.07h8.3l.09-.11a2.77,2.77,0,0,0,0-3.05"/></g></svg>