<svg xmlns="http://www.w3.org/2000/svg" viewBox="0 0 216.9 58.88"><defs><style>.cls-1,.cls-2{fill:#1d1d1b;}.cls-1{fill-rule:evenodd;}</style></defs><g id="Layer_2" data-name="Layer 2"><g id="E"><path class="cls-1" d="M216.9,48.63a9.24,9.24,0,0,1-9.2,9.27,8.83,8.83,0,0,1-3.55-.71,9.09,9.09,0,0,1-2.92-2,9.2,9.2,0,0,1-2.72-6.52,8.62,8.62,0,0,1,.7-3.5,9.61,9.61,0,0,1,2-2.88,9.39,9.39,0,0,1,2.91-2,8.76,8.76,0,0,1,3.54-.73,9.29,9.29,0,0,1,6.56,2.66,9.57,9.57,0,0,1,2,2.85,8.67,8.67,0,0,1,.73,3.5"/><path class="cls-1" d="M183.59,45.41l0,10.82a1.77,1.77,0,0,1-.61,1.36,2.16,2.16,0,0,1-1.5.56l-44.1.17a2.13,2.13,0,0,1-1.55-.55,1.79,1.79,0,0,1-.58-1.35L135,2a1.85,1.85,0,0,1,.57-1.36,2.11,2.11,0,0,1,1.54-.56l13.26,0a2.15,2.15,0,0,1,1.5.55,1.73,1.73,0,0,1,.63,1.35l.19,39.8a1.77,1.77,0,0,0,.58,1.35,2.09,2.09,0,0,0,1.55.56l26.6-.11a2.16,2.16,0,0,1,1.5.56,1.73,1.73,0,0,1,.63,1.35"/><path class="cls-2" d="M117.31,45.28l0,11a1.78,1.78,0,0,1-.56,1.33,1.86,1.86,0,0,1-1.37.55l-27.81.12A39.14,39.14,0,0,1,73.5,56.07a27.76,27.76,0,0,1-9.91-6.22,25,25,0,0,1-5.85-9.22,33.52,33.52,0,0,1-1.94-11.3A27.81,27.81,0,0,1,58.09,18a29.17,29.17,0,0,1,6.37-9.3A30.49,30.49,0,0,1,74,2.36,29.46,29.46,0,0,1,85.59,0a29.86,29.86,0,0,1,11.7,2.26,30.87,30.87,0,0,1,9.58,6.22,29,29,0,0,1,6.45,9.26,27.84,27.84,0,0,1,2.39,11.34,19.14,19.14,0,0,1-1.34,7.17A19.63,19.63,0,0,1,110.93,42c-.7.94-.48,1.41.65,1.4h3.79a1.91,1.91,0,0,1,1.37.54,1.77,1.77,0,0,1,.57,1.33M85.82,43.06a13.09,13.09,0,0,0,5.42-1.16,15.25,15.25,0,0,0,4.45-3,13.47,13.47,0,0,0,3-4.4,13.68,13.68,0,0,0-.05-10.68,13.84,13.84,0,0,0-3-4.45,14.1,14.1,0,0,0-4.48-3,14,14,0,0,0-10.85,0,14.37,14.37,0,0,0-4.45,3,13.76,13.76,0,0,0-3,4.47,13.44,13.44,0,0,0-1.06,5.37,13.13,13.13,0,0,0,1.1,5.32,13.53,13.53,0,0,0,3,4.37,15.26,15.26,0,0,0,4.47,3,13.11,13.11,0,0,0,5.44,1.11"/><path class="cls-1" d="M16,17v3.36a1.81,1.81,0,0,0,.57,1.35,1.84,1.84,0,0,0,1.37.55l21.79-.09a1.83,1.83,0,0,1,1.37.56,1.81,1.81,0,0,1,.57,1.35l0,11A1.91,1.91,0,0,1,39.8,37L18,37.1a1.84,1.84,0,0,0-1.36.57A1.81,1.81,0,0,0,16.08,39v3A1.93,1.93,0,0,0,18,44l25-.11a1.85,1.85,0,0,1,1.37.56A1.81,1.81,0,0,1,45,45.77l.05,11a1.91,1.91,0,0,1-1.92,1.92l-40.94.17A1.85,1.85,0,0,1,.8,58.33,1.89,1.89,0,0,1,.23,57L0,2.37A1.84,1.84,0,0,1,.56,1,1.86,1.86,0,0,1,1.92.45L42.86.27a1.86,1.86,0,0,1,1.36.56,1.81,1.81,0,0,1,.57,1.35L44.84,13a1.83,1.83,0,0,1-.56,1.36,1.86,1.86,0,0,1-1.36.56l-25,.11a1.89,1.89,0,0,0-1.37.56A1.83,1.83,0,0,0,16,17"/></g></g></svg>