<svg xmlns="http://www.w3.org/2000/svg" xmlns:xlink="http://www.w3.org/1999/xlink" fill="var(--baseBlack)" viewBox="0 0 215 53"><path d="M171.151 12.3149C162.336 12.3149 157.037 18.6549 157.037 26.5C157.037 34.3907 162.336 40.7306 171.151 40.7306C179.921 40.7306 185.265 34.3907 185.265 26.5C185.265 18.6093 179.921 12.3149 171.151 12.3149ZM171.151 36.1239C165.442 36.1239 162.107 31.9277 162.107 26.5C162.107 21.0723 165.442 16.8304 171.151 16.8304C176.861 16.8304 180.149 21.0266 180.149 26.4544C180.149 31.9277 176.861 36.1239 171.151 36.1239Z" fill="inherit"/><path d="M202.348 40.6851C209.702 40.6851 214.361 36.7625 215 30.8331H209.884C209.199 34.2083 206.596 36.124 202.348 36.124C197.095 36.124 193.943 32.4751 193.943 26.5C193.943 20.4794 197.141 16.8761 202.348 16.8761C206.596 16.8761 209.153 18.7462 209.884 22.3038H215C214.361 16.2832 209.702 12.2694 202.348 12.2694C193.989 12.2694 188.873 18.062 188.873 26.4544C188.873 34.8925 193.989 40.6851 202.348 40.6851Z" fill="inherit"/><path d="M138.309 40.0009H143.425V26.9561C143.425 20.9811 146.348 17.7427 151.601 17.7427C156.854 17.7427 156.534 17.7427 156.534 17.7427V12.9991H151.647C147.034 12.9991 144.521 14.5955 143.197 18.6549L142.238 18.5181L143.379 12.9991H138.264V40.0009H138.309Z" fill="inherit"/><path d="M85.324 24.0826C85.5524 19.5215 88.6127 16.4199 93.5458 16.4199C98.4789 16.4199 101.448 19.339 101.448 24.0826H85.324ZM106.518 24.9492C106.518 17.5146 101.357 12.3149 93.6372 12.3149C85.5524 12.3149 80.2539 17.8795 80.2539 26.5C80.2539 35.2117 85.5067 40.7306 93.8655 40.7306C100.215 40.7306 105.239 37.2642 106.153 32.2926H101.037C99.9405 34.8012 97.4283 36.2607 93.8655 36.2607C88.7041 36.2607 85.461 33.2048 85.324 28.0051H106.335C106.427 26.728 106.518 26.1351 106.518 24.9492Z" fill="inherit"/><path d="M118.851 40.0009H123.054L134.975 12.9991H129.494L121.272 34.2995L120.587 34.3451L112.365 12.9991H106.93L118.851 40.0009Z" fill="inherit"/><path d="M69.7482 26.4088C69.7482 24.4931 68.9717 22.7143 67.6014 21.1179C66.6879 21.9389 65.6373 22.7599 64.3584 23.4897C65.0892 24.4019 65.5003 25.3597 65.5003 26.4088C65.5003 32.3382 52.8479 36.8537 34.8513 36.8537C16.9004 36.8993 4.24793 32.3838 4.24793 26.4088C4.24793 25.4053 4.61334 24.4019 5.34417 23.4897C4.1109 22.7599 3.06034 21.9845 2.1468 21.1179C0.776503 22.7143 0 24.4931 0 26.4088C0 35.1661 15.6214 40.5938 34.897 40.5938C54.1268 40.6394 69.7482 35.1661 69.7482 26.4088ZM62.4857 29.7384C60.5216 28.7349 58.2377 27.8683 55.6342 27.1386C52.6652 27.9596 49.3308 28.5981 45.768 29.0086C50.7924 29.6472 55.1774 30.6962 58.5575 32.0645C60.2018 31.3348 61.5264 30.5594 62.4857 29.7384ZM23.7975 28.963C20.2804 28.5525 17.0374 27.9139 14.1141 27.1386C11.5562 27.8683 9.22668 28.7349 7.26259 29.7384C8.17612 30.5594 9.45507 31.2892 11.0537 32.0189C14.3881 30.6506 18.6817 29.6016 23.7975 28.963ZM69.7482 14.185C69.7482 5.47332 54.1268 0 34.897 0C15.6214 0 0 5.47332 0 14.185C0 22.9423 15.6214 28.3701 34.897 28.3701C54.1268 28.4157 69.7482 22.9423 69.7482 14.185ZM65.546 14.185C65.546 20.1145 52.8936 24.6299 34.897 24.6299C16.9004 24.6756 4.24793 20.1601 4.24793 14.185C4.24793 8.25559 16.9004 3.7401 34.897 3.7401C51.9343 3.7401 65.546 8.25559 65.546 14.185ZM58.5575 19.7496C60.2018 19.0198 61.5264 18.2444 62.4857 17.4234C56.0909 14.1394 46.1334 12.315 34.897 12.315C23.6605 12.315 13.6573 14.1394 7.30826 17.4234C8.2218 18.2444 9.50074 18.9742 11.0994 19.704C16.5349 17.4234 24.8938 16.0551 34.897 16.0551C44.4434 16.0551 52.9392 17.469 58.5575 19.7496ZM2.1468 33.5241C0.776503 35.1205 0 36.8537 0 38.815C0 47.5723 15.6214 53 34.897 53C54.1725 53 69.7939 47.5267 69.7939 38.815C69.7939 36.8993 69.0174 35.1205 67.6471 33.5241C66.7336 34.3907 65.683 35.1661 64.4041 35.8959C65.1349 36.8081 65.546 37.7659 65.546 38.815C65.546 44.7444 52.8936 49.2599 34.897 49.2599C16.9004 49.2599 4.24793 44.7444 4.24793 38.815C4.24793 37.8115 4.61334 36.8081 5.34417 35.8959C4.1109 35.1205 3.06034 34.3451 2.1468 33.5241Z" fill="inherit"/></svg>