<?xml version="1.0" encoding="UTF-8" standalone="no"?>
<!-- Created with Inkscape (http://www.inkscape.org/) -->

<svg
   version="1.1"
   id="svg2"
   width="1066.6667"
   height="800"
   viewBox="0 0 1066.6667 800"
   sodipodi:docname="FA-crest-2009.ai"
   xmlns:inkscape="http://www.inkscape.org/namespaces/inkscape"
   xmlns:sodipodi="http://sodipodi.sourceforge.net/DTD/sodipodi-0.dtd"
   xmlns="http://www.w3.org/2000/svg"
   xmlns:svg="http://www.w3.org/2000/svg">
  <defs
     id="defs6">
    <clipPath
       clipPathUnits="userSpaceOnUse"
       id="clipPath22">
      <path
         d="M 0,600 H 800 V 0 H 0 Z"
         id="path20" />
    </clipPath>
  </defs>
  <sodipodi:namedview
     id="namedview4"
     pagecolor="#ffffff"
     bordercolor="#000000"
     borderopacity="0.25"
     inkscape:showpageshadow="2"
     inkscape:pageopacity="0.0"
     inkscape:pagecheckerboard="0"
     inkscape:deskcolor="#d1d1d1" />
  <g
     id="g8"
     inkscape:groupmode="layer"
     inkscape:label="FA-crest-2009"
     transform="matrix(1.3333333,0,0,-1.3333333,0,800)">
    <path
       d="m 204.473,583.327 h 395.758 v -86.64 H 204.473 Z"
       style="fill:#212e65;fill-opacity:1;fill-rule:nonzero;stroke:none"
       id="path10" />
    <g
       id="g12"
       transform="translate(277.0967,568.9839)">
      <path
         d="m 0,0 v -11.737 h 15.341 v -46.228 h 13.645 v 46.228 H 42.854 L 47.485,0 Z"
         style="fill:#ffffff;fill-opacity:1;fill-rule:nonzero;stroke:none"
         id="path14" />
    </g>
    <g
       id="g16">
      <g
         id="g18"
         clip-path="url(#clipPath22)">
        <g
           id="g24"
           transform="translate(341.5996,549.0103)">
          <path
             d="M 0,0 V 19.974 H -12.628 V -37.991 H 0 v 27.063 c 2.145,1.918 6.326,4.855 10.377,4.855 3.269,0 5.075,-1.582 5.983,-3.617 0.672,-1.58 0.899,-3.269 0.899,-5.854 v -22.447 h 12.629 v 24.798 c 0,4.399 -0.457,6.887 -1.24,9.033 C 26.503,1.698 21.428,5.077 14.102,5.077 8.015,5.077 3.842,2.931 0,0"
             style="fill:#ffffff;fill-opacity:1;fill-rule:nonzero;stroke:none"
             id="path26" />
        </g>
        <g
           id="g28"
           transform="translate(447.5947,544.4019)">
          <path
             d="m 0,0 v 12.845 h 27.07 l 4.397,11.737 H -13.527 V -33.383 H 0 v 21.19 H 17.576 L 22.234,0 Z"
             style="fill:#ffffff;fill-opacity:1;fill-rule:nonzero;stroke:none"
             id="path30" />
        </g>
        <g
           id="g32"
           transform="translate(399.6675,554.0874)">
          <path
             d="m 0,0 c -13.084,0 -21.317,-8.789 -21.317,-22.11 0,-13.632 8.233,-22.199 22.334,-22.199 6.085,0 10.259,1.013 13.19,2.246 l 3.383,9.706 c -3.155,-1.234 -8.798,-2.716 -15.111,-2.716 -7.771,0 -11.728,3.497 -12.407,9.034 H 20.514 C 21.989,-11.15 13.873,0 0,0 m -9.928,-17.814 c 0.451,5.196 4.17,8.798 9.472,8.798 5.635,0 8.804,-3.829 9.476,-8.798 H -9.928"
             style="fill:#ffffff;fill-opacity:1;fill-rule:nonzero;stroke:none"
             id="path34" />
        </g>
        <g
           id="g36"
           transform="translate(506.4687,568.9839)">
          <path
             d="m 0,0 h -15.796 l -22.1,-57.965 h 13.639 l 4.059,11.492 H 3.72 l 3.83,-11.492 h 14.082 z m -16.252,-35.073 7.776,21.875 h 0.445 l 7.575,-21.875 z"
             style="fill:#ffffff;fill-opacity:1;fill-rule:nonzero;stroke:none"
             id="path38" />
        </g>
        <g
           id="g40"
           transform="translate(402.3516,481.2275)">
          <path
             d="m 0,0 h -197.878 v -253.788 c -0.071,-52.777 17.124,-98.838 50.384,-135.407 33.167,-36.546 81.764,-63.641 144.22,-80.993 l 3.273,-1.182 3.286,1.185 c 62.449,17.35 111.041,44.447 144.208,80.99 33.26,36.569 50.455,82.63 50.387,135.407 L 197.88,0 Z"
             style="fill:#212e65;fill-opacity:1;fill-rule:nonzero;stroke:none"
             id="path42" />
        </g>
        <g
           id="g44"
           transform="translate(402.3516,471.0957)">
          <path
             d="m 0,0 h -187.748 v -243.656 c 0,-101.264 64.846,-172.763 187.532,-206.735 l 0.216,-0.078 0.218,0.078 c 122.685,33.972 187.531,105.471 187.531,206.735 l 0,243.656 z"
             style="fill:#ffffff;fill-opacity:1;fill-rule:nonzero;stroke:none"
             id="path46" />
        </g>
        <g
           id="g48"
           transform="translate(361.7964,184.3477)">
          <path
             d="m 0,0 c 1.051,0.38 3.512,0.435 5.216,-0.223 1.635,-0.604 5.748,-2.331 4.792,-8.937 -0.474,-3.268 -3.551,-7.114 -3.551,-7.114 1.53,-0.19 5.593,-1.358 7.607,1.537 1.871,2.694 -0.139,4.675 -0.139,4.675 1.681,-0.268 6.091,-2.282 6.079,-7.636 -0.018,-8.739 -4.164,-11.698 -4.164,-11.698 0.306,0.071 2.577,0.221 4.463,-0.325 1.454,-0.423 2.734,-1.19 3.017,-1.965 -1.82,-5.082 -11.175,-7.697 -12.523,-12.396 -0.678,-2.369 0.19,-4.022 2.11,-4.222 4.331,-0.434 6.713,4.702 6.901,6.717 1.347,0 4.426,-2.125 3.062,-6.135 -1.314,-3.871 -5.31,-7.377 -10.253,-7.54 -3.741,-0.118 -5.593,1.753 -5.593,1.753 -1.38,-1.001 -3.334,-4.563 -1.275,-7.181 1.759,-2.247 5.333,-2.128 5.333,-2.128 -0.1,-1.443 -2.829,-5.706 -8.2,-5.218 -5.259,0.479 -7.514,5.521 -7.514,8.305 -1.651,-2.578 -2.03,-7.381 -3.883,-10.726 -2.393,-4.314 -5.071,-6.528 -7.037,-7.057 0.574,1.531 1.739,3.718 1.365,6.602 -0.568,4.267 -2.849,4.891 -2.849,4.891 -0.195,-1.719 -0.535,-6.167 -2.984,-10.006 -2.026,-3.196 -5.003,-4.576 -7.938,-4.415 -3.35,0.196 -5.865,2.187 -6.522,5.055 -0.306,1.368 -0.384,3.177 -0.067,4.24 0.847,-0.95 2.978,-1.684 4.313,-0.828 1.042,0.661 1.593,1.307 1.438,3.594 -0.102,1.472 -1.121,4.31 -1.51,6.412 -0.322,1.731 -0.039,3.985 -0.039,3.985 -0.584,0.106 -2.243,-1.436 -3.517,-2.922 -1.988,-2.32 -2.343,-4.679 -2.343,-4.679 -1.648,2.648 -2.326,5.943 -1.914,9.712 0.422,3.878 3.702,8.677 3.702,8.677 0,0 -3.436,-1.683 -6.697,-0.931 -2.455,0.569 -5.199,2.917 -5.321,6.473 -0.212,5.724 5.226,7.281 5.226,7.281 -0.54,-1.397 -0.623,-4.598 2.449,-4.598 2.555,0 3.472,2.116 3.836,4.252 0.745,4.482 -1.181,7.18 -1.466,11.293 -0.127,1.92 -0.132,4.683 1.17,6.897 0.868,0 1.859,-0.179 3.06,-0.815 1.058,-0.538 2.338,-2.146 2.338,-2.146 0.535,2.454 -1.451,5.442 0.79,9.695 1.169,2.549 4.048,3.917 4.048,3.917 0,0 -0.791,-2.748 0.278,-4.763 0.873,-2.193 3,-3.652 2.989,-3.619 -0.262,1.344 1.086,5.789 2.058,7.23 5.605,8.305 12.974,5.65 13.27,5.539 -2.389,-1.72 -2.778,-7.197 0.856,-8.728 4.246,-1.814 6.283,1.681 6.807,3.763 C 2.433,-1.959 0,0 0,0"
             style="fill:#212e65;fill-opacity:1;fill-rule:nonzero;stroke:none"
             id="path50" />
        </g>
        <g
           id="g52"
           transform="translate(364.8735,153.1367)">
          <path
             d="m 0,0 c -1.174,-1.061 -2.788,-2.306 -3.551,-1.956 -0.767,0.352 -0.591,2.161 -0.327,3.564 -1.426,0.755 -2.377,1.375 -2.377,1.375 0,0 -0.924,-3.657 -1.403,-5.289 4.799,-2.917 9.389,-2.793 11.494,1.764 0,0 -2.065,0.15 -3.836,0.542"
             style="fill:#ffffff;fill-opacity:1;fill-rule:nonzero;stroke:none"
             id="path54" />
        </g>
        <g
           id="g56"
           transform="translate(347.2075,161.5498)">
          <path
             d="m 0,0 c -0.111,-1.563 -0.104,-3.594 0.646,-3.996 0.746,-0.383 2.06,0.87 3.005,1.916 1.476,-0.652 2.534,-1.024 2.534,-1.024 0,0 -2.31,-2.961 -3.296,-4.348 -5.269,1.999 -7.975,5.682 -5.672,10.158 0,0 1.387,-1.535 2.783,-2.706"
             style="fill:#ffffff;fill-opacity:1;fill-rule:nonzero;stroke:none"
             id="path58" />
        </g>
        <g
           id="g60"
           transform="translate(341.165,127.4766)">
          <path
             d="m 0,0 c -2.039,1.025 -2.701,3.552 -2.79,4.982 -0.194,3.268 0.623,4.458 1.403,6.507 -1.93,2.371 -1.664,6.388 -0.044,8.51 0.841,-2.867 2.737,-6.919 5.475,-6.74 1.771,0.122 2.5,2.338 3.336,3.412 -1.069,0.561 -1.287,0.628 -2.6,1.652 -1.335,1.035 -1.592,2.483 -0.823,3.996 0.751,1.503 3.305,3.184 4.441,3.311 -1.169,-0.94 -3.057,-3.389 -2.059,-4.496 1.391,-1.446 4.813,-3.056 6.495,-3.257 2.114,-0.209 2.811,4.275 2.811,4.275 0.167,-0.747 0.996,-3.327 -0.345,-5.631 -0.88,-1.371 -1.91,-1.838 -3.357,-1.637 -0.868,0.134 -1.525,0.299 -2.771,0.868 C 8.693,14.127 7.635,12.49 8.313,11.266 9.834,9.149 14.008,10.098 16.807,11.171 16.106,8.617 13.156,5.906 10.117,6.011 9.166,4.408 8.286,2.484 5.876,0.87 4.681,0.067 2.408,-1.206 0,0"
             style="fill:#ffffff;fill-opacity:1;fill-rule:nonzero;stroke:none"
             id="path62" />
        </g>
        <g
           id="g64"
           transform="translate(259.5649,445.4878)">
          <path
             d="m 0,0 c 0.957,0.326 1.998,0.4 3.679,0 2.716,-0.643 7.024,-4.314 6.857,-13.096 -0.151,-8.778 -2.444,-14.315 -0.317,-19.795 3.039,-7.831 13.746,-14.51 26.954,-19.964 4.632,-1.915 7.185,-2.769 7.185,-2.769 -0.639,-0.958 -2.871,-3.306 -3.829,-9.217 -1.201,-7.43 2.572,-11.813 2.572,-11.813 -1.125,-1.289 -3.963,-3.974 -4.815,-9.598 -0.801,-5.254 1.443,-11.171 1.443,-11.171 -1.276,0 -7.77,1.795 -11.377,5.917 -4.598,5.254 -4.28,13.09 -4.28,13.09 1.123,-0.799 1.602,-0.963 3.039,-0.963 1.429,0 3.679,0.49 3.968,2.889 0.311,2.637 -0.289,4.775 -8.121,6.211 -4.157,0.771 -4.947,4.641 -4.947,4.641 2.387,-0.803 5.966,0.475 6.121,3.19 0.156,2.714 -1.502,4.094 -6.288,4.475 -5.338,0.434 -12.107,0.228 -16.519,3.677 -1.637,1.276 -2.767,3.965 -2.767,3.965 1.631,-0.351 4.169,-0.209 5.91,0.977 3.04,2.084 2.406,4.639 2.406,4.639 -3.04,0.643 -7.638,1.773 -8.945,4.797 -2.082,4.782 0.317,9.423 0.317,9.423 -1.119,0.468 -2.237,0.313 -3.355,-0.487 -1.114,-0.796 -3.674,-4.154 -6.552,-4.101 -3.673,0.038 -3.673,4.422 -3.673,4.422 -0.958,-0.321 -1.975,-1.175 -3.346,-2.552 -1.764,-1.756 -2.72,-4.161 -2.72,-4.161 -1.114,1.764 -0.796,7.027 2.56,9.91 3.445,2.958 7.624,2.501 9.74,2.073 1.597,-0.317 3.188,-0.142 3.35,1.13 0.118,0.919 -0.629,1.881 -2.181,2.535 -3.04,1.238 -7.353,2.772 -7.353,6.117 0,3.362 2.549,4.002 2.549,4.002 -0.312,0.478 -0.474,1.753 -2.71,3.198 -2.232,1.43 -5.433,1.273 -5.433,1.273 1.432,1.278 4.715,1.571 7.025,1.278 2.838,-0.359 8.27,-1.801 11.464,-10.43 0.813,-2.234 1.437,-4.041 3.028,-3.66 1.57,0.378 1.725,2.236 1.246,3.66 -0.47,1.436 -2.042,2.872 -1.718,5.59 0.417,3.552 4.341,3.35 4.341,3.35 0,1.284 -0.563,2.87 -1.202,4.095 C 2.672,-2.04 0,0 0,0"
             style="fill:#212e65;fill-opacity:1;fill-rule:nonzero;stroke:none"
             id="path66" />
        </g>
        <g
           id="g68"
           transform="translate(278.2983,331.4004)">
          <path
             d="m 0,0 c 3.963,2.26 2.773,4.896 2.773,4.896 -3.935,-0.685 -10.498,0.495 -12.44,3.15 -3.084,4.202 -1.253,8.858 -1.253,8.858 -1.192,0.217 -2.243,-0.178 -3.166,-1.208 -0.913,-1.026 -2.665,-4.867 -5.466,-5.465 -3.601,-0.76 -4.575,3.509 -4.575,3.509 -0.852,-0.524 -1.665,-1.583 -2.693,-3.242 -1.319,-2.099 -1.722,-4.645 -1.722,-4.645 -1.484,1.459 -2.352,6.673 0.292,10.219 2.692,3.642 6.873,4.132 9.031,4.194 1.627,0.039 3.146,0.564 3.018,1.847 -0.094,0.911 -1.013,1.692 -2.694,1.965 -3.239,0.554 -7.774,1.077 -8.526,4.35 -0.741,3.269 1.607,4.455 1.607,4.455 -0.422,0.401 -0.851,1.609 -3.355,2.51 -2.498,0.91 -5.577,0.044 -5.577,0.044 1.113,1.573 4.252,2.601 6.568,2.806 2.831,0.284 8.079,0.078 13.112,-7.615 1.296,-1.994 2.665,-3.62 4.141,-2.901 1.748,0.859 1.274,2.404 0.406,3.845 -0.785,1.289 -2.632,2.349 -2.927,5.074 -0.379,3.545 3.501,4.235 3.501,4.235 -0.284,1.236 -1.192,2.666 -2.082,3.715 -0.902,1.055 -3.952,2.452 -3.952,2.452 0.864,0.507 1.853,0.827 3.578,0.802 2.8,-0.017 7.822,-2.639 9.607,-11.238 1.798,-8.602 2.06,-11.894 6.112,-16.163 4.046,-4.274 10.641,-8.902 20.014,-9.597 11.722,-0.839 21.089,2.358 25.135,7.891 1.158,-1.16 2.665,-1.681 5.538,-1.502 8.399,0.529 12.35,8.518 13.413,13.427 1.058,-1.711 3.211,-3.143 6.601,-3.545 10.854,-1.278 17.249,10.076 14.489,16.043 1.385,-0.331 5.12,-0.228 8.931,1.344 4.688,1.908 8.739,6.379 8.895,11.017 2.338,0.691 13.563,3.459 34.23,3.459 23.637,0 72.399,-8.081 88.802,-8.298 13.156,-0.187 27.437,2.037 37.901,10.283 3.567,2.81 4.338,5.265 4.13,6.96 -0.333,2.58 -3.061,3.971 -8.387,4.04 -13.853,0.223 -36.411,-10.561 -69.844,-9.929 -21.734,0.423 -47.281,5.683 -46.859,21.014 0.401,14.726 19.169,14.902 23.646,14.902 7.234,0 11.063,-1.258 16.806,-1.269 6.2,-0.006 9.857,2.268 9.962,5.032 0.079,2.075 -1.791,3.692 -6.099,3.692 -4.281,0 -11.782,-2.774 -19.185,-2.975 -6.679,-0.192 -11.004,1.893 -11.705,5.961 -1.108,6.351 6.962,7.861 7.024,7.878 -0.419,-1.071 -0.334,-4.149 4.597,-5.802 7.32,-2.452 15.301,2.029 23.109,2.029 5.317,0 13.809,-1.141 13.392,-8.789 -0.423,-7.83 -9.512,-9.756 -12.133,-10.441 1.808,-0.426 3.679,-1.088 5.258,-2.507 3.407,-3.033 5.328,-2.17 5.328,-2.17 -0.212,-1.921 -2.551,-5.975 -8.25,-5.753 -4.685,0.19 -10.229,5.101 -14.487,6.601 -4.251,1.475 -8.082,2.438 -13.742,2.187 -5.748,-0.25 -11.582,-2.877 -12.846,-7.517 -2.593,-9.316 12.341,-12.144 16.17,-12.778 -1.019,1.701 -1.436,6.265 1.268,8.738 3.29,3.03 6.497,2.388 8.716,1.909 -2.12,-1.494 -2.12,-3.607 -1.268,-5.535 0.85,-1.915 3.85,-8.794 28.753,-7.452 21.726,1.171 33.378,5.515 42.583,7.163 5.732,1.021 7.19,1.288 7.19,1.288 -1.697,0.552 -3.734,5.336 -0.49,9.228 2.037,2.454 4.135,2.597 5.872,2.775 4.621,0.45 8.103,-3.37 8.52,-5.129 -1.871,0.055 -4.896,-0.139 -5.749,-2.527 -1.391,-3.907 2.466,-4.809 5.244,-6.604 1.832,-1.186 4.842,-4.274 3.986,-9.392 -1.192,-7.141 -10.454,-16.074 -30.313,-20.78 -6.155,-1.478 -12.082,-2.326 -14.909,-1.929 2.343,-3.105 5.955,-6.385 15.333,-6.167 13.073,0.299 28.853,6.096 34.062,16.956 1.342,-1.126 2.934,-5.429 0.856,-10.543 -3.6,-8.861 -2.864,-10.89 -2.864,-10.89 0.944,0.348 3.871,0.262 5.799,-0.918 5.063,-3.09 2.466,-10.23 1.981,-10.658 -0.713,0.901 -2.571,3.038 -5.733,2.184 -3.612,-0.969 -3.216,-5.221 -3.228,-5.177 2.772,-0.575 5.17,-2.414 5.11,-5.943 -0.107,-6.287 -6.746,-9.169 -6.746,-9.169 0,0 5.042,-2.224 5.332,-5.951 0.412,-5.41 -3.696,-6.183 -3.696,-6.183 0.012,-0.977 0.919,-2.282 1.759,-3.045 1.77,-1.625 4.68,-1.642 4.68,-1.642 -0.306,-0.665 -1.063,-2.176 -4.736,-1.686 -3.506,0.462 -8.988,2.701 -10.002,13.41 -0.421,4.465 -1.379,4.782 -2.553,4.465 -1.026,-0.287 -1.493,-1.069 -1.493,-2.556 0,-1.499 1.164,-4.116 -0.628,-7.243 -1.336,-2.338 -5.171,-2.507 -6.179,-1.278 -0.657,-1.31 -0.852,-2.098 -0.852,-3.618 0,-1.914 1.359,-4.48 1.359,-4.48 -2.528,0 -6.461,3.334 -4.771,10.871 0.646,2.877 3.419,6.397 4.475,7.983 1.27,1.92 1.231,3.198 0.641,3.796 -0.658,0.66 -1.887,0.587 -2.766,-0.281 -1.065,-1.052 -3.48,-4.786 -6.768,-4.956 -3.569,-0.2 -3.618,3.971 -3.618,3.971 -1.397,0.028 -2.51,-0.296 -4.396,-1.79 -2.372,-1.875 -3.324,-4.257 -3.324,-4.257 -1.012,0.159 -1.915,7.527 6.595,11.011 8.187,3.367 16.987,3.841 17.465,11.355 0.257,4.021 -2.559,6.695 -7.012,6.381 -8.198,-0.577 -12.166,-8.942 -17.481,-12.139 -4.741,-2.839 -7.876,-0.849 -7.876,-0.849 1.391,0.541 3.947,2.444 4.475,4.895 0.634,2.947 -0.857,4.901 -0.857,4.901 -2.343,-0.638 -9.094,-2.711 -18.957,-2.335 -12.395,0.473 -25.107,6.977 -27.473,15.114 -1.169,-1.442 -2.766,-4.47 -2.766,-8.092 0,-6.613 6.116,-14.146 23.643,-16.392 6.489,-0.832 11.888,0.414 12.996,1.065 -0.228,-1.982 -2.767,-5.495 -7.68,-7.106 -4.848,-1.573 -8.922,-1.117 -9.356,-0.986 1.007,-0.907 2.02,-4.497 1.487,-6.606 -1.605,-6.292 -8.622,-7.722 -10.226,-7.667 1.125,1.054 2.64,2.554 2.64,4.898 0,3.305 -2.64,4.135 -4.542,4.325 -3.352,0.314 -4.687,-0.713 -4.687,-0.713 0.69,-1.859 0.366,-6 -3.636,-7.021 -5.67,-1.436 -8.147,1.806 -11.37,2.791 -0.219,-1.292 1.124,-4.052 0.301,-5.983 -1.068,-2.502 -2.988,-3.301 -5.319,-2.764 -0.058,-1.658 0.422,-2.621 1.123,-3.837 1.145,-1.992 3.549,-2.98 3.549,-2.98 -2.492,-0.421 -8.709,-0.552 -10.212,5.963 -0.583,2.558 0.215,5.967 0.852,7.665 0.639,1.696 0.857,3.082 -0.213,3.517 -1.067,0.425 -2.025,-0.484 -2.771,-1.592 -1.051,-1.6 -2.755,-6.61 -6.824,-6.61 -4.05,0 -3.934,3.395 -3.934,3.395 -0.963,-0.158 -2.238,-1.268 -3.039,-2.86 -0.942,-1.881 -1.12,-4.161 -1.12,-4.161 -1.057,1.277 -2.414,2.81 -1.756,6.178 0.85,4.367 5.927,6.402 9.422,7.398 2.677,0.764 3.533,1.767 3.422,2.827 -0.078,0.852 -1.08,1.108 -2.783,0.924 -2.354,-0.256 -5.31,-1.534 -7.185,-0.072 -1.158,0.898 -1.28,2.716 -0.686,4.678 -1.474,0 -2.012,0.091 -4.045,-0.423 -2.934,-0.741 -4.476,-2.342 -4.476,-2.342 0,1.498 1.499,7.665 9.363,8.099 7.898,0.42 13.296,-6.406 19.813,-7.027 7.949,-0.771 10.22,3.247 10.22,3.247 -2.393,0.468 -16.921,3.346 -17.879,13.406 -0.789,8.316 5.751,12.089 5.751,12.089 -4.32,-0.103 -9.89,-2.599 -17.103,-6.971 C 133.947,17.46 123.097,3.885 104.141,3.841 91.879,3.813 86.464,11.291 86.464,11.291 86.047,10.214 84.5,8.519 84.755,5.544 c 0.484,-5.488 7.031,-4.9 7.031,-4.9 -0.206,-1.289 -2.878,-4.901 -8.727,-4.547 -9.636,0.609 -11.388,5.715 -17.46,6.876 0,-3.089 -0.957,-9.144 -5.962,-12.701 -6.172,-4.383 -11.348,-2.538 -13.207,-1.558 2.554,1.073 4.581,2.782 4.899,5.115 0.211,1.594 -0.803,3.433 -3.146,3.308 -6.072,-0.311 -12.294,-7.939 -18.996,-8.638 -5.266,-0.543 -7.664,2.992 -7.664,2.992 1.586,-0.064 7.241,0.887 7.241,4.764 0,2.366 -2.266,3.322 -4.046,3.322 -5.149,0 -11.108,-5.328 -20.449,-5.328 -11.08,0 -11.288,4.48 -11.288,4.48 C -5.526,-1.488 -1.479,-0.862 0,0"
             style="fill:#212e65;fill-opacity:1;fill-rule:nonzero;stroke:none"
             id="path70" />
        </g>
        <g
           id="g72"
           transform="translate(350.4712,309.6553)">
          <path
             d="m 0,0 c 1.163,0.417 3.327,0.543 5.309,0.217 1.919,-0.331 8.253,-2.838 7.246,-10.024 -0.59,-4.173 -5.059,-7.369 -5.059,-7.369 3.517,-2.248 8.943,-0.321 10.802,3.116 1.732,3.197 0.435,5.183 0.435,5.183 1.864,-0.295 9.562,-3.199 8.876,-11.792 -0.627,-7.861 -4.935,-11.834 -4.935,-11.834 0.338,0.065 2.555,0.461 4.785,-0.201 1.621,-0.48 3.035,-1.498 3.368,-2.338 -2.254,-6.261 -13.374,-8.615 -14.855,-13.836 -0.757,-2.643 0.206,-4.476 2.326,-4.697 4.827,-0.479 7.454,5.219 7.67,7.459 1.491,0 4.086,-2.161 3.407,-6.822 -0.846,-5.846 -5.933,-10.255 -12.556,-10.494 -4.158,-0.15 -6.172,1.702 -6.172,1.702 -0.854,-0.85 -3.134,-3.031 -3.475,-6.328 -0.467,-4.452 4.103,-5.296 4.103,-5.296 -0.1,-1.627 -3.401,-5.774 -7.869,-5.774 -7.642,0 -8.739,5.871 -8.739,8.943 -3.089,-2.753 -3.061,-6.505 -4.686,-10.418 -3.73,-9.072 -7.971,-9.171 -9.524,-9.171 0.646,1.711 1.431,3.616 1.019,6.817 -0.619,4.746 -3.628,6.116 -3.628,6.116 -0.211,-1.926 -0.747,-6.866 -4.186,-11.866 -3.835,-5.594 -8.165,-7.39 -13.063,-6.912 -5.822,0.556 -7.987,4.786 -8.02,8.192 -0.034,4.186 2.276,7.193 2.343,7.235 0.245,-1.49 0.767,-2.983 2.906,-3.195 2.125,-0.211 4.474,1.382 5.431,4.899 0.903,3.305 0.44,4.898 0.618,7.935 0.168,2.718 1.192,5.279 1.192,5.279 -0.641,0.104 -2.343,0.633 -5.116,-1.292 -2.787,-1.938 -3.612,-5.309 -3.612,-5.309 -1.537,2.287 -1.53,7.313 -0.145,11.276 1.414,4.045 4.079,6.288 5.137,7.129 -2.866,0.532 -6.917,2.906 -6.895,7.198 0.033,5.464 5.464,5.62 5.464,5.62 -0.477,-2.504 0.257,-4.808 3.669,-4.853 3.2,-0.056 4.943,2.939 5.376,7.391 0.312,3.273 -1.431,6.868 -3.188,8.805 0,0 1.44,1.325 2.926,1.744 1.588,0.461 2.979,0.382 4.165,0.114 0,0 -2.355,3.836 -2.438,6.914 -0.056,2.405 0.5,5.432 1.313,6.868 0.958,0 2.365,-0.523 3.19,-0.947 1.757,-0.918 2.96,-2.548 2.871,-2.405 -0.501,2.595 0.328,6.035 1.541,8.063 6.061,10.122 15.647,6.833 15.969,6.708 -3.079,-2.422 -4.725,-7.746 -0.256,-9.182 4.085,-1.313 7.023,2.416 7.674,4.949 C 3.989,-1.475 0,0 0,0"
             style="fill:#212e65;fill-opacity:1;fill-rule:nonzero;stroke:none"
             id="path74" />
        </g>
        <g
           id="g76"
           transform="translate(359.4307,275.5371)">
          <path
             d="m 0,0 c -1.301,-1.158 -3.083,-2.524 -3.94,-2.148 -0.852,0.385 -0.663,2.381 -0.368,3.936 -1.574,0.861 -2.637,1.53 -2.637,1.53 0,0 -1.026,-4.052 -1.56,-5.842 5.338,-3.264 10.431,-3.13 12.769,1.938 0,0 -2.299,0.169 -4.264,0.586"
             style="fill:#ffffff;fill-opacity:1;fill-rule:nonzero;stroke:none"
             id="path78" />
        </g>
        <g
           id="g80"
           transform="translate(339.8174,284.8984)">
          <path
             d="m 0,0 c -0.134,-1.748 -0.123,-3.996 0.713,-4.431 0.811,-0.433 2.281,0.958 3.332,2.127 1.637,-0.722 2.822,-1.145 2.822,-1.145 0,0 -2.565,-3.297 -3.662,-4.827 -5.849,2.221 -8.876,6.307 -6.3,11.281 0,0 1.531,-1.713 3.095,-3.005"
             style="fill:#ffffff;fill-opacity:1;fill-rule:nonzero;stroke:none"
             id="path82" />
        </g>
        <g
           id="g84"
           transform="translate(333.0928,247.041)">
          <path
             d="m 0,0 c -2.259,1.136 -3,3.936 -3.1,5.549 -0.211,3.606 0.697,4.935 1.565,7.219 -2.149,2.638 -1.859,7.101 -0.056,9.456 0.941,-3.202 3.045,-7.698 6.084,-7.485 1.975,0.127 2.776,2.593 3.702,3.795 -1.181,0.616 -1.421,0.678 -2.896,1.831 -1.468,1.146 -1.757,2.75 -0.912,4.431 0.852,1.681 3.69,3.523 4.943,3.667 -1.304,-1.03 -3.396,-3.751 -2.288,-4.976 1.542,-1.613 5.354,-3.405 7.223,-3.618 2.339,-0.256 3.118,4.742 3.118,4.742 0.19,-0.823 1.107,-3.695 -0.39,-6.251 -0.969,-1.518 -2.11,-2.058 -3.723,-1.813 -0.945,0.144 -1.704,0.317 -3.072,0.952 C 9.658,15.695 8.478,13.886 9.239,12.506 10.932,10.163 15.573,11.23 18.68,12.411 17.9,9.572 14.628,6.556 11.244,6.679 10.191,4.898 9.207,2.761 6.54,0.968 5.204,0.078 2.673,-1.336 0,0"
             style="fill:#ffffff;fill-opacity:1;fill-rule:nonzero;stroke:none"
             id="path86" />
        </g>
        <g
           id="g88"
           transform="translate(260.2041,312.0488)">
          <path
             d="m 0,0 c 0.963,0.32 1.998,0.384 3.669,0 2.727,-0.637 7.029,-4.33 6.873,-13.106 -0.166,-8.79 -2.449,-14.323 -0.317,-19.809 3.038,-7.804 13.157,-14.506 26.364,-19.96 4.637,-1.926 7.186,-2.755 7.186,-2.755 -0.634,-0.963 -2.866,-3.317 -3.818,-9.223 -1.208,-7.413 2.565,-11.821 2.565,-11.821 -1.124,-1.285 -3.962,-3.974 -4.808,-9.584 -0.863,-5.688 1.442,-11.183 1.442,-11.183 -1.28,0 -7.781,1.798 -11.376,5.912 -4.604,5.271 -4.28,13.103 -4.28,13.103 1.111,-0.799 1.597,-0.959 3.028,-0.959 1.447,0 3.683,0.485 3.968,2.873 0.327,2.654 -0.502,4.686 -7.531,5.966 -4.164,0.752 -5.533,4.887 -5.533,4.887 2.387,-0.784 5.957,0.484 6.123,3.2 0.16,2.717 -1.497,4.074 -6.289,4.477 -5.344,0.428 -11.516,0.221 -15.946,3.671 -1.637,1.276 -2.755,3.957 -2.755,3.957 1.613,-0.338 4.151,-0.206 5.91,0.988 3.033,2.075 2.394,4.634 2.394,4.634 -3.04,0.64 -7.631,1.775 -8.95,4.793 -2.077,4.797 0.329,9.422 0.329,9.422 -1.121,0.479 -2.244,0.329 -3.362,-0.472 -1.109,-0.801 -3.662,-4.153 -6.54,-4.109 -3.679,0.044 -3.679,4.419 -3.679,4.419 -0.958,-0.31 -1.97,-1.169 -3.356,-2.549 -1.759,-1.758 -2.711,-4.158 -2.711,-4.158 -1.118,1.76 -0.801,7.041 2.549,9.912 3.452,2.953 7.63,2.489 9.74,2.067 1.615,-0.313 3.201,-0.14 3.362,1.135 0.112,0.912 -0.624,1.881 -2.193,2.52 -3.028,1.253 -7.347,2.773 -7.347,6.135 0,3.35 2.561,3.995 2.561,3.995 -0.329,0.476 -0.484,1.766 -2.717,3.195 -2.237,1.431 -5.437,1.275 -5.437,1.275 1.447,1.283 4.73,1.575 7.034,1.283 2.828,-0.364 8.262,-1.806 11.454,-10.427 0.825,-2.231 1.443,-4.041 3.035,-3.669 1.574,0.378 1.73,2.232 1.246,3.669 -0.484,1.436 -2.047,2.877 -1.73,5.576 0.422,3.557 4.358,3.362 4.358,3.362 0,1.272 -0.575,2.858 -1.209,4.088 C 2.667,-2.034 0,0 0,0"
             style="fill:#212e65;fill-opacity:1;fill-rule:nonzero;stroke:none"
             id="path90" />
        </g>
        <g
           id="g92"
           transform="translate(277.208,200.8447)">
          <path
             d="M 0,0 C 3.945,2.271 2.76,4.887 2.76,4.887 -2.181,3.764 -6.5,3.767 -8.521,5.655 c -3.818,3.556 -1.246,8.36 -1.246,8.36 -1.197,0.217 -2.25,-0.197 -3.174,-1.22 -0.907,-1.028 -2.66,-4.869 -5.466,-5.464 -3.594,-0.764 -4.563,3.512 -4.563,3.512 C -23.833,10.33 -24.634,9.257 -25.676,7.609 -26.988,5.5 -27.4,2.963 -27.4,2.963 c -1.475,1.458 -2.344,6.667 0.296,10.217 2.708,3.64 6.884,4.125 9.033,4.18 1.63,0.044 3.149,0.563 3.021,1.854 -0.083,0.912 -1.018,1.697 -2.693,1.98 -3.245,0.546 -7.776,1.07 -8.521,4.342 -0.747,3.261 1.602,4.462 1.602,4.462 -0.423,0.391 -0.857,1.606 -3.357,2.512 -2.498,0.895 -5.581,0.029 -5.581,0.029 1.129,1.568 4.251,2.605 6.572,2.809 2.829,0.278 8.093,0.09 13.114,-7.613 1.302,-1.998 2.665,-3.613 4.14,-2.89 1.754,0.853 1.28,2.393 0.4,3.836 -0.777,1.292 -2.625,2.344 -2.915,5.058 -0.395,3.565 3.49,4.241 3.49,4.241 -0.273,1.243 -1.192,2.671 -2.077,3.718 -0.896,1.063 -3.945,2.449 -3.945,2.449 0.857,0.524 1.847,0.825 3.572,0.815 2.794,-0.024 7.815,-2.652 9.601,-11.246 C 0.155,25.113 0.417,21.812 4.475,17.555 8.51,13.297 15.184,9.361 24.484,7.959 c 11.977,-1.792 20.409,1.147 25.134,7.603 1.153,-1.158 3.535,-1.753 6.406,-1.57 8.405,0.513 11.489,8.883 12.547,13.782 1.067,-1.71 3.216,-3.14 6.6,-3.55 10.86,-1.283 17.259,10.073 14.476,16.039 1.398,-0.328 5.132,-0.223 8.957,1.336 4.674,1.927 8.72,6.407 8.876,11.021 3.412,0.818 14.589,1.776 34.808,1.669 23.644,-0.139 72.4,-8.315 88.797,-8.315 12.706,0 25.05,1.169 35.53,9.423 3.039,2.398 4.276,5.454 4.109,6.751 -0.318,2.559 -3.051,4.52 -8.371,4.474 -11.076,-0.095 -32.9,-10.131 -67.447,-9.284 -21.75,0.535 -47.302,5.677 -46.881,21.007 0.403,14.725 19.187,14.904 23.651,14.904 7.247,0 11.064,-1.269 16.82,-1.269 6.189,-0.011 7.258,3.329 7.568,5.244 0.333,2.025 -0.299,4.707 -4.941,6.442 -1.303,0.483 -3.379,0.893 -3.379,0.893 0,0 3.534,1.444 7.045,1.477 5.923,0.045 11.811,-2.354 11.811,-7.7 0,-7.347 -8.615,-9.1 -11.393,-10.063 2.133,-0.155 4.253,-1.365 5.846,-2.784 3.4,-3.043 6.984,-2.17 6.984,-2.17 -0.206,-1.914 -2.873,-5.425 -8.243,-5.32 -4.682,0.094 -10.231,5.242 -14.499,6.745 -4.251,1.475 -8.075,2.444 -13.742,2.194 -5.744,-0.255 -11.575,-2.894 -12.856,-7.524 -2.577,-9.319 12.612,-12.387 16.19,-12.781 -1.018,1.716 -1.436,6.251 1.252,8.727 2.972,2.733 6.842,2.333 8.732,1.925 -2.125,-1.496 -2.291,-4.339 -1.435,-6.259 0.851,-1.916 4.308,-8.834 28.918,-7.826 19.332,0.796 29.622,4.357 40.194,6.529 4.846,0.967 7.188,1.134 7.188,1.134 -1.697,0.534 -4.368,6.289 -0.93,10.019 1.938,2.126 4.347,2.694 6.323,2.76 3.764,0.157 7.91,-2.714 8.512,-5.108 -2.35,0.311 -5.034,-0.674 -5.762,-3.106 -1.059,-3.607 3.284,-4.741 5.248,-6.024 1.681,-1.089 4.71,-3.494 3.986,-8.302 -1.058,-7.151 -10.453,-16.235 -30.311,-20.946 -6.144,-1.463 -10.97,-2.199 -13.04,-2.199 1.047,-1.378 5.382,-5.936 13.468,-5.741 13.085,0.301 28.848,6.088 34.075,16.947 1.318,-1.108 2.915,-5.415 0.839,-10.537 -3.595,-8.859 -2.867,-8.348 -2.867,-8.348 0.948,0.338 3.88,0.243 5.805,-0.924 5.066,-3.083 2.455,-10.228 1.983,-10.647 -0.717,0.897 -2.577,3.033 -5.739,2.188 -3.606,-0.981 -3.211,-4.22 -3.222,-4.176 2.783,-0.578 5.163,-2.409 5.114,-5.945 -0.107,-6.295 -6.751,-8.725 -6.751,-8.725 0,0 3.891,-2.242 4.175,-5.966 0.411,-5.393 -4.413,-6.178 -4.413,-6.178 -0.04,-1.307 0.293,-2.233 0.917,-3.23 1.252,-1.959 3.923,-2.549 4.052,-2.561 -0.145,-0.294 -1.041,-2.148 -4.525,-1.468 -3.507,0.68 -6.16,3.473 -6.861,12.846 -0.318,4.118 -1.382,4.78 -2.561,4.475 -1.03,-0.289 -1.481,-1.07 -1.481,-2.565 0,-1.493 1.146,-4.109 -0.635,-7.241 -1.347,-2.339 -5.169,-2.495 -6.178,-1.285 -0.857,-1.688 -0.857,-1.688 -0.857,-3.608 0,-1.918 1.359,-4.469 1.359,-4.469 -2.539,0 -6.45,3.327 -4.781,10.852 0.639,2.878 3.433,6.402 4.486,7.995 1.273,1.914 1.23,3.199 0.64,3.783 -0.658,0.657 -1.892,0.596 -2.767,-0.279 -1.091,-1.057 -3.482,-4.792 -6.778,-4.963 -3.557,-0.192 -3.608,3.984 -3.608,3.984 -1.39,0.021 -2.514,-0.294 -4.407,-1.78 -2.366,-1.882 -3.329,-4.264 -3.329,-4.264 -1.002,0.155 -1.903,7.535 6.612,11.015 8.195,3.361 16.988,3.836 17.476,11.348 0.252,4.024 -2.566,6.701 -7.04,6.378 -8.188,-0.567 -9.751,-8.943 -15.071,-12.135 -4.748,-2.837 -7.876,-0.85 -7.876,-0.85 1.38,0.53 3.929,2.456 4.463,4.905 0.64,2.933 -0.851,4.885 -0.851,4.885 -2.338,-0.624 -9.094,-2.704 -18.956,-2.336 -12.397,0.466 -25.126,6.984 -27.463,15.115 -1.185,-1.435 -2.777,-4.464 -2.777,-8.087 0,-6.601 6.084,-13.318 23.643,-15.237 5.183,-0.574 11.723,0.973 13.003,1.718 -0.218,-1.97 -2.785,-5.132 -7.693,-6.744 -4.836,-1.572 -8.915,-1.125 -9.362,-0.993 1.014,-0.901 2.028,-4.495 1.498,-6.59 -1.597,-6.293 -8.626,-7.731 -10.218,-7.668 1.118,1.062 2.627,2.548 2.627,4.885 0,3.313 -2.639,4.153 -4.542,4.326 -3.357,0.317 -4.676,-0.697 -4.676,-0.697 0.69,-1.87 0.368,-6.022 -3.645,-7.033 -5.677,-1.437 -8.143,1.814 -11.378,2.792 -0.199,-1.291 1.132,-4.061 0.313,-5.988 -1.074,-2.503 -2.988,-3.295 -5.326,-2.762 -0.05,-1.646 0.423,-2.616 1.124,-3.839 1.146,-1.981 3.562,-2.982 3.562,-2.982 -2.071,-0.864 -8.721,-0.546 -10.215,5.965 -0.593,2.56 0.208,5.956 0.847,7.664 0.642,1.709 0.853,3.09 -0.217,3.518 -1.068,0.422 -2.019,-0.478 -2.755,-1.587 -1.063,-1.604 -2.771,-6.6 -6.825,-6.6 -4.06,0 -3.95,3.4 -3.95,3.4 -0.963,-0.16 -2.236,-1.285 -3.039,-2.884 -0.929,-1.864 -1.106,-4.146 -1.106,-4.146 -1.077,1.268 -2.417,2.801 -1.765,6.169 0.839,4.362 5.927,6.399 9.423,7.401 2.682,0.778 3.528,1.76 3.427,2.816 -0.089,0.875 -1.084,1.125 -2.77,0.946 -2.376,-0.266 -5.32,-1.541 -7.209,-0.083 -1.157,0.906 -1.741,3.179 -1.146,5.148 -1.493,0 -1.697,0.211 -3.729,-0.322 -2.929,-0.735 -4.325,-2.906 -4.325,-2.906 0,1.492 1.486,7.671 9.367,8.086 7.898,0.43 13.637,-7.029 20.176,-7.251 8.01,-0.257 9.858,3.467 9.858,3.467 -3.245,0.517 -16.642,3.941 -17.883,11.537 -1.275,7.829 5.744,11.788 5.744,11.788 -3.83,-0.105 -9.897,-2.593 -17.099,-6.966 C 135.682,15.295 124.828,3.528 105.871,3.484 93.61,3.439 88.2,11.288 88.2,11.288 87.772,10.215 86.23,8.51 86.492,5.544 c 0.479,-5.493 7.024,-4.909 7.024,-4.909 -0.211,-1.27 -2.878,-4.899 -8.722,-4.53 -9.646,0.595 -11.398,5.709 -17.46,6.877 0,-3.093 -0.962,-9.594 -5.972,-13.155 -6.16,-4.375 -11.487,-1.229 -13.202,0.262 2.555,1.062 4.581,2.769 4.893,5.114 0.222,1.602 -0.801,3.434 -3.134,3.316 -6.077,-0.321 -12.289,-9.327 -19.013,-10.03 -5.258,-0.522 -7.663,2.985 -7.663,2.985 1.597,-0.035 7.253,0.902 7.253,4.782 0,2.364 -2.278,3.315 -4.047,3.315 -5.144,0 -11.121,-5.326 -20.449,-5.326 -11.082,0 -13.024,4.477 -13.024,4.477 C -5.533,-1.481 -1.486,-0.856 0,0"
             style="fill:#212e65;fill-opacity:1;fill-rule:nonzero;stroke:none"
             id="path94" />
        </g>
        <g
           id="g96"
           transform="translate(319.3525,121.0986)">
          <path
             d="m 0,0 c -2.138,3.936 -1.157,9.251 0.278,11.822 0,0 -4.854,-0.039 -8.95,0.635 -11.661,1.931 -20.932,7.263 -24.84,13.001 -2.732,4.006 -1.931,8.911 -3.445,16.019 -1.514,7.101 -5.678,9.25 -7.981,9.254 -1.431,0.007 -2.249,-0.245 -2.961,-0.682 0,0 2.243,-0.635 3.277,-2.005 0.707,-0.912 1.498,-2.044 1.732,-3.084 0,0 -3.2,-0.572 -2.866,-3.495 0.238,-2.267 1.774,-3.116 2.426,-4.202 0.651,-1.063 0.88,-2.566 -0.317,-3.162 -1.22,-0.605 -2.014,0.77 -3.134,2.367 -3.991,5.809 -8.538,6.188 -10.892,6.261 -2.365,0.083 -4.798,-1.041 -5.71,-2.343 0,0 2.543,0.734 4.614,-0.012 2.063,-0.745 2.438,-1.737 2.783,-2.059 0,0 -1.938,-0.99 -1.315,-3.691 0.63,-2.711 4.399,-3.133 7.07,-3.567 1.385,-0.223 2.158,-0.88 2.241,-1.635 0.107,-1.06 -1.146,-1.482 -2.493,-1.537 -1.792,-0.046 -5.242,-0.456 -7.463,-3.495 -2.154,-2.951 -1.425,-7.236 -0.206,-8.453 0,0 0.317,2.097 1.409,3.855 0.852,1.363 1.507,2.238 2.215,2.678 0,0 0.84,-3.519 3.795,-2.868 2.327,0.491 3.752,3.68 4.509,4.532 0.757,0.847 1.63,1.18 2.616,1.001 0,0 -1.064,-4.174 1.507,-7.636 1.616,-2.203 4.904,-3.282 8.02,-2.554 0,0 0.748,-3.318 -2.103,-4.904 -1.847,-1.029 -3.763,-0.968 -5.136,-0.978 0,0 1.324,-2.167 2.954,-2.685 4.014,-1.269 7.771,-0.467 11.549,-0.206 3.184,0.229 4.804,-1.085 4.48,-3.188 -0.445,-2.822 -6.182,-3.407 -6.182,-3.407 0.633,-0.635 1.497,-1.636 4.68,-1.913 4.264,-0.38 8.248,2.336 13.843,1.913 5.737,-0.433 9.923,-6.769 11.36,-9.578 1.095,-2.176 1.891,-5.115 1.891,-5.115 C 4.385,-12.161 3.746,-6.901 0,0"
             style="fill:#212e65;fill-opacity:1;fill-rule:nonzero;stroke:none"
             id="path98" />
        </g>
        <g
           id="g100"
           transform="translate(331.4517,99.1641)">
          <path
             d="m 0,0 c -12.062,0.919 -12.612,7.346 -15.879,11.996 -4.47,6.366 -9.211,5.425 -11.515,4.14 -1.241,-0.691 -1.838,-1.331 -2.227,-2.061 0,0 2.31,0.919 3.829,0.441 0.929,-0.286 1.764,-0.512 3.028,-1.892 0,0 -2.516,-2.077 -0.785,-4.476 0.908,-1.252 2.834,-1.775 4.186,-2.432 2.12,-1.035 1.942,-2.119 1.285,-2.927 -0.774,-0.924 -2.215,-0.328 -3.895,0.528 -6.768,3.468 -10.915,2.2 -13.38,0.546 -1.604,-1.064 -2.84,-3.011 -2.996,-4.588 0,0 1.85,1.877 4.019,2.25 2.172,0.379 2.984,0.417 3.445,0.306 0,0 -0.789,-1.798 0.447,-3.393 1.447,-1.873 5.586,-1.026 8.142,-0.08 1.301,0.468 2.298,0.295 2.738,-0.322 0.619,-0.863 -0.261,-1.872 -1.398,-2.571 -1.542,-0.912 -4.34,-2.121 -4.78,-5.844 -0.44,-3.625 3.039,-6.111 4.702,-6.558 0,0 -1.441,1.337 -1.341,3.403 0.063,1.607 0.085,1.607 0.491,2.341 0,0 2.521,-1.825 4.792,0.19 1.058,0.946 1.591,3.669 1.685,4.135 0.241,1.12 0.824,1.844 1.776,2.182 0,0 0.997,-5.327 4.954,-7.102 2.482,-1.097 4.308,-1.169 6.79,-1.041 3.112,0.166 5.789,1.436 8.037,1.38 3.485,-0.066 4.024,-2.381 3.846,-4.151 -0.245,-2.515 -3.662,-4.142 -6.69,-3.673 0,0 1.748,-4.776 8.783,-4.32 9.741,0.652 13.096,9.918 18.68,9.763 1.757,-0.067 3.366,-0.817 3.366,-3.528 0,-2.706 -2.883,-6.068 -4.637,-7.503 1.058,-0.658 7.142,-1.359 12.457,4.797 3.986,4.626 4.152,8.615 4.318,10.119 0,0 2.544,-4.059 8.139,-3.885 5.271,0.155 6.033,3.729 6.505,4.53 0,0 -5.104,-0.162 -6.389,3.996 -0.818,2.672 0.328,5.11 0.956,6.073 1.854,-1.052 5.683,-4.943 13.626,-4.67 9.7,0.31 19.157,15.868 25.229,16.999 0,0 -2.019,-6.837 0.635,-10.943 4.521,-6.98 13.058,-6.925 17.237,-5.533 0,0 -0.178,-3.206 -5.688,-6.012 -4.535,-2.294 -10.864,0.579 -16.034,-2.638 -5.166,-3.238 -3.868,-7.969 -3.324,-8.983 0,0 0.462,1.659 2.148,3.255 1.186,1.109 1.598,1.254 2.6,1.801 0.329,-1.544 1.086,-2.73 2.193,-2.907 1.831,-0.295 3.35,1.692 4.842,2.728 1.058,0.757 1.837,0.963 2.216,0.412 0.467,-0.675 0.261,-1.671 -1.252,-3.184 -1.994,-1.976 -4.672,-5.249 -3.623,-8.516 0.822,-2.539 2.314,-3.051 3.506,-3.529 0,0 -0.724,1.603 -0.792,3.228 -0.055,1.375 0.39,2.605 0.98,3.084 0,0 1.192,-2.349 3.952,-0.834 2.733,1.518 2.021,5.548 2.137,7.011 0.09,1.035 0.4,1.993 1.28,2.106 0.886,0.099 1.247,-0.898 1.46,-2.3 0.199,-1.374 0.934,-3.979 2.281,-5.499 3.433,-3.846 8.115,-1.63 9.133,-0.211 0,0 -2.003,-0.222 -3.523,0.685 -0.924,0.568 -1.598,1.034 -2.193,2.163 1.787,0.519 2.794,1.776 2.576,3.859 -0.171,1.613 -2.102,2.982 -2.43,3.933 2.537,0.551 6.514,-1.363 8.436,1.681 2.016,3.201 -1.442,4.949 0.157,8.623 1.274,2.554 3.038,3.033 5.749,4.785 2.71,1.755 3.028,2.873 3.028,2.873 -1.915,-0.958 -8.89,-1.581 -15.808,2.41 -7.496,4.302 -8.136,8.136 -8.447,10.219 1.752,0.639 4.306,1.586 10.528,-0.797 6.224,-2.393 13.581,-6.111 21.408,-7.87 7.524,-1.691 16.768,-0.644 16.768,-0.644 -0.777,-1.905 -2.304,-3.279 -5.003,-4.375 -5.215,-2.133 -11.282,-1.369 -17.956,-6.167 -5.576,-4.052 -4.079,-9.069 -3.317,-9.04 0,0 0.373,1.886 1.866,3.596 1.18,1.369 1.947,1.758 2.977,1.937 0,0 0.629,-3.072 3.239,-2.432 2.405,0.595 3.645,3.679 4.28,4.603 0.528,0.773 1.426,0.995 2.01,0.601 0.507,-0.346 0.728,-1.301 0.055,-2.882 -0.544,-1.315 -2.102,-4.303 -2.165,-6.512 -0.189,-5.789 3.156,-7.683 5.013,-7.32 0,0 -1.35,1.669 -1.618,3.095 -0.261,1.407 -0.261,1.407 0.117,2.778 0.924,-0.764 3.723,-0.113 4.387,1.813 0.873,2.561 -0.347,4.331 -0.553,5.422 -0.217,1.101 0.019,1.741 0.747,2.098 0.813,0.395 1.53,0.295 2.493,-2.946 1.994,-6.621 7.486,-7.512 10.046,-6.834 2.632,0.692 3.199,2.667 3.269,2.966 0,0 -1.588,-0.968 -3.686,-0.428 -1.275,0.324 -1.87,0.979 -2.211,1.887 0,0 2.924,1.146 1.855,5.06 -0.73,2.715 -4.765,3.651 -4.765,3.651 4.02,1.135 9.529,-0.546 13.775,3.685 2.394,2.393 2.078,5.909 1.164,7.669 0.016,-0.034 5.816,0.934 8.901,2.874 4.528,2.847 5.43,7.668 5.43,7.668 -1.452,-1.125 -6.867,-4.988 -19.497,-4.794 -19.953,0.33 -22.667,9.106 -22.667,9.106 2.081,-0.479 17.698,-2.259 26.838,-2.086 9.896,0.199 27.233,2.438 28.246,11.987 0.606,5.735 -1.904,7.159 -1.086,10.854 0.296,1.321 1.842,2.272 3.317,2.154 1.774,-0.143 2.531,-0.934 2.531,-0.934 0.312,1.275 -0.295,4.763 -4.601,4.847 -6.49,0.139 -7.977,-5.922 -7.659,-7.825 -9.584,3.691 -24.445,2.726 -35.626,2.755 -10.046,0.039 -29.871,0.64 -32.738,6.033 -1.588,3.017 -0.15,5.438 -0.15,5.438 -1.438,0.474 -4.792,0 -6.084,-2.249 -1.736,-3.062 -0.483,-6.317 0.65,-7.178 -1.757,0 -18.372,0.956 -18.059,10.379 0.266,7.674 8.994,8.211 11.392,8.211 2.387,0 9.223,-0.698 17.844,-6.246 2.817,-1.815 7.325,-3.49 10.231,-3.49 7.352,0 9.26,4.557 9.26,5.995 -1.435,-1.281 -2.716,-1.398 -4.948,-1.116 -2.554,0.325 -5.098,3.03 -5.098,3.03 2.388,0.171 9.579,3.193 9.891,8.788 0.321,5.742 -4.265,7.57 -7.297,7.57 -4.274,0 -6.006,-1.678 -7.251,-2.924 2.091,0.318 6.093,0.48 5.926,-3.683 -0.166,-4.153 -5.465,-5.254 -8.967,-5.6 -6.379,-0.634 -13.234,2.443 -21.538,2.248 -6.713,-0.155 -16.369,-3.356 -17.176,-12.306 -0.818,-9.221 9.004,-15.8 36.322,-17.27 26.226,-1.413 42.188,0.478 53.042,-0.422 7.981,-0.662 12.443,-2.896 12.244,-6.584 -0.279,-5.015 -9.323,-7.359 -17.361,-7.408 -30.332,-0.206 -50.307,9.811 -80.663,10.762 -21.55,0.688 -40.04,-6.222 -49.135,-11.33 0.157,-2.24 0.317,-8.75 -5.911,-12.579 C 34.046,9.841 27.902,13.131 26.828,14.592 23.632,6.283 14.047,-1.062 0,0"
             style="fill:#212e65;fill-opacity:1;fill-rule:nonzero;stroke:none"
             id="path102" />
        </g>
        <g
           id="g104"
           transform="translate(340.2412,125.7686)">
          <path
             d="m 0,0 8.358,9.69 c 0,0 -1.151,0.88 -2.482,1.558 -1.463,0.718 -2.843,1.124 -2.843,1.124 L 0,0"
             style="fill:#212e65;fill-opacity:1;fill-rule:nonzero;stroke:none"
             id="path106" />
        </g>
        <g
           id="g108"
           transform="translate(332.0581,245.1377)">
          <path
             d="m 0,0 9.306,10.781 c 0,0 -1.28,0.963 -2.778,1.708 -1.618,0.813 -3.149,1.246 -3.149,1.246 L 0,0"
             style="fill:#212e65;fill-opacity:1;fill-rule:nonzero;stroke:none"
             id="path110" />
        </g>
        <g
           id="g112"
           transform="translate(405.8262,426.9536)">
          <path
             d="m 0,0 c 0,-2.023 -1.646,-3.67 -3.672,-3.67 -2.027,0 -3.674,1.647 -3.674,3.67 0,2.035 1.647,3.682 3.674,3.682 C -1.646,3.682 0,2.035 0,0"
             style="fill:#ef373f;fill-opacity:1;fill-rule:nonzero;stroke:none"
             id="path114" />
        </g>
        <g
           id="g116"
           transform="translate(422.626,432.5166)">
          <path
             d="M 0,0 C 0,0 -0.569,1.734 -0.574,1.756 -1.287,1.528 -3.002,0.941 -4.192,1.289 c -1.542,0.44 -2.612,3.779 -4.709,4.797 -1.537,0.729 -3.78,-0.915 -3.924,-1.154 0.211,0.478 0.979,2.893 -0.384,4.405 -1.486,1.653 -4.843,1.519 -5.67,2.889 -0.637,1.071 -0.602,2.827 -0.613,3.562 h -1.85 c 0,-0.735 0.012,-2.547 -0.672,-3.584 -0.902,-1.317 -4.465,-1.22 -6.078,-2.9 -1.163,-1.228 -0.283,-4.198 -0.1,-4.403 -0.389,0.342 -2.343,1.853 -4.202,1.016 -2.032,-0.907 -2.944,-4.133 -4.498,-4.498 -1.213,-0.278 -2.871,0.304 -3.584,0.526 0,0 -0.562,-1.744 -0.562,-1.775 0.708,-0.225 2.426,-0.768 3.19,-1.736 1.002,-1.267 -0.218,-4.617 0.891,-6.674 0.801,-1.494 3.878,-1.461 4.128,-1.358 -0.444,-0.261 -2.382,-1.595 -2.165,-3.617 0.234,-2.207 3.023,-4.069 2.89,-5.66 -0.117,-1.237 -1.169,-2.639 -1.598,-3.243 0,0 1.481,-1.077 1.491,-1.083 0.446,0.594 1.486,2.068 2.65,2.491 1.513,0.545 4.325,-1.566 6.624,-1.147 1.452,0.273 2.465,2.725 2.431,3.237 0.111,-0.506 0.779,-3.002 2.639,-3.317 2.204,-0.353 4.964,1.893 6.438,1.271 1.141,-0.489 2.151,-1.925 2.607,-2.513 0,0 1.474,1.067 1.496,1.078 -0.445,0.603 -1.525,2.057 -1.575,3.301 -0.049,1.599 2.889,3.611 3.206,5.907 0.227,1.684 -2.037,3.12 -2.31,3.186 0.201,-0.071 2.787,-0.027 3.801,1.74 1.113,1.92 -0.056,5.072 0.991,6.275 C -2.394,-0.757 -0.708,-0.25 0,0 m -9.719,-7.152 c -0.885,-1.072 -2.978,-0.281 -3.518,-0.141 l -0.173,-0.651 -0.25,-0.633 c 0.513,-0.2 2.583,-0.597 2.66,-1.984 0.117,-2.148 -2.91,-4.247 -2.805,-4.16 0.106,0.086 -2.816,-2.143 -4.836,-1.361 -1.287,0.501 -1.108,2.605 -1.157,3.162 l -0.674,-0.04 -0.735,0.044 c -0.033,-0.55 0.145,-2.587 -1.153,-3.083 -2.015,-0.79 -4.869,1.436 -4.742,1.359 0.1,-0.075 -2.938,1.865 -2.827,4.012 0.084,1.39 2.066,1.926 2.589,2.144 l -0.206,0.591 -0.202,0.699 c -0.532,-0.148 -2.655,-1.04 -3.544,0.037 -1.364,1.681 -0.178,5.209 -0.217,5.073 -0.04,-0.139 1.146,3.498 3.234,4.058 1.347,0.363 2.398,-1.392 2.754,-1.826 l 0.528,0.445 0.609,0.412 c -0.285,0.468 -1.632,2.029 -0.875,3.189 1.169,1.809 4.904,1.787 4.753,1.772 -0.14,-0.006 3.607,0.037 4.764,-1.772 0.758,-1.16 -0.578,-2.721 -0.879,-3.189 l 0.647,-0.396 0.549,-0.516 c 0.363,0.413 1.426,2.175 2.762,1.822 2.081,-0.551 3.206,-4.113 3.162,-3.988 -0.051,0.131 1.14,-3.392 -0.218,-5.079"
             style="fill:#ef373f;fill-opacity:1;fill-rule:nonzero;stroke:none"
             id="path118" />
        </g>
        <g
           id="g120"
           transform="translate(514.8311,426.9536)">
          <path
             d="m 0,0 c 0,-2.023 -1.65,-3.67 -3.679,-3.67 -2.03,0 -3.673,1.647 -3.673,3.67 0,2.035 1.643,3.682 3.673,3.682 C -1.65,3.682 0,2.035 0,0"
             style="fill:#ef373f;fill-opacity:1;fill-rule:nonzero;stroke:none"
             id="path122" />
        </g>
        <g
           id="g124"
           transform="translate(531.6143,432.5166)">
          <path
             d="M 0,0 C 0,0 -0.573,1.734 -0.573,1.756 -1.286,1.528 -2.995,0.941 -4.191,1.289 c -1.554,0.44 -2.612,3.779 -4.716,4.797 -1.519,0.729 -3.762,-0.915 -3.911,-1.154 0.21,0.478 0.973,2.893 -0.391,4.405 -1.481,1.653 -4.829,1.519 -5.653,2.889 -0.635,1.071 -0.607,2.827 -0.614,3.562 h -1.853 c 0,-0.735 0.022,-2.547 -0.674,-3.584 -0.896,-1.317 -4.445,-1.22 -6.059,-2.9 -1.181,-1.228 -0.285,-4.198 -0.107,-4.403 -0.4,0.342 -2.355,1.853 -4.231,1.016 -2.026,-0.907 -2.933,-4.133 -4.496,-4.498 -1.204,-0.278 -2.873,0.304 -3.574,0.526 0,0 -0.567,-1.744 -0.574,-1.775 0.708,-0.225 2.433,-0.768 3.196,-1.736 1.001,-1.267 -0.217,-4.617 0.896,-6.674 0.802,-1.494 3.862,-1.461 4.13,-1.358 -0.462,-0.261 -2.389,-1.595 -2.166,-3.617 0.222,-2.207 3.011,-4.069 2.878,-5.66 -0.117,-1.237 -1.174,-2.639 -1.591,-3.243 0,0 1.468,-1.077 1.486,-1.083 0.444,0.594 1.507,2.068 2.676,2.491 1.515,0.545 4.313,-1.566 6.607,-1.147 1.458,0.273 2.487,2.725 2.438,3.237 0.111,-0.506 0.79,-3.002 2.634,-3.317 2.202,-0.353 4.968,1.893 6.443,1.271 1.137,-0.489 2.144,-1.925 2.589,-2.513 0,0 1.48,1.067 1.495,1.078 -0.433,0.603 -1.512,2.057 -1.557,3.301 -0.066,1.599 2.883,3.611 3.201,5.907 0.222,1.684 -2.049,3.12 -2.316,3.186 0.206,-0.071 2.783,-0.027 3.802,1.74 1.108,1.92 -0.044,5.072 0.995,6.275 C -2.384,-0.757 -0.708,-0.25 0,0 m -9.708,-7.152 c -0.89,-1.072 -2.982,-0.281 -3.523,-0.141 l -0.172,-0.651 -0.25,-0.633 c 0.516,-0.2 2.581,-0.597 2.66,-1.984 0.122,-2.148 -2.917,-4.247 -2.806,-4.16 0.107,0.086 -2.805,-2.143 -4.825,-1.361 -1.296,0.501 -1.125,2.605 -1.164,3.162 l -0.674,-0.04 -0.728,0.044 c -0.039,-0.55 0.133,-2.587 -1.152,-3.083 -2.02,-0.79 -4.875,1.436 -4.763,1.359 0.126,-0.075 -2.917,1.865 -2.8,4.012 0.077,1.39 2.065,1.926 2.587,2.144 l -0.206,0.591 -0.205,0.699 c -0.53,-0.148 -2.667,-1.04 -3.562,0.037 -1.366,1.681 -0.19,5.209 -0.218,5.073 -0.039,-0.139 1.174,3.498 3.25,4.058 1.343,0.363 2.399,-1.392 2.75,-1.826 l 0.524,0.445 0.616,0.412 c -0.287,0.468 -1.625,2.029 -0.88,3.189 1.171,1.809 4.894,1.787 4.755,1.772 -0.128,-0.006 3.596,0.037 4.765,-1.772 0.754,-1.16 -0.586,-2.721 -0.875,-3.189 l 0.633,-0.396 0.563,-0.516 c 0.356,0.413 1.415,2.175 2.751,1.822 2.087,-0.551 3.206,-4.113 3.161,-3.988 -0.056,0.131 1.146,-3.392 -0.212,-5.079"
             style="fill:#ef373f;fill-opacity:1;fill-rule:nonzero;stroke:none"
             id="path126" />
        </g>
        <g
           id="g128"
           transform="translate(299.2261,426.8286)">
          <path
             d="m 0,0 c 0,-2.023 -1.648,-3.676 -3.667,-3.676 -2.032,0 -3.679,1.653 -3.679,3.676 0,2.029 1.647,3.676 3.679,3.676 C -1.648,3.676 0,2.029 0,0"
             style="fill:#ef373f;fill-opacity:1;fill-rule:nonzero;stroke:none"
             id="path130" />
        </g>
        <g
           id="g132"
           transform="translate(316.0171,432.3862)">
          <path
             d="M 0,0 C 0,0 -0.562,1.739 -0.567,1.756 -1.273,1.533 -2.994,0.951 -4.19,1.293 c -1.542,0.44 -2.605,3.78 -4.703,4.804 -1.536,0.732 -3.779,-0.922 -3.93,-1.16 0.218,0.478 0.98,2.894 -0.384,4.399 -1.486,1.659 -4.832,1.528 -5.66,2.895 -0.639,1.065 -0.6,2.821 -0.618,3.567 h -1.853 c 0,-0.746 0.022,-2.551 -0.673,-3.59 -0.903,-1.328 -4.459,-1.221 -6.063,-2.914 -1.174,-1.212 -0.294,-4.177 -0.11,-4.394 -0.389,0.36 -2.349,1.854 -4.203,1.016 -2.026,-0.907 -2.945,-4.132 -4.503,-4.491 -1.206,-0.279 -2.866,0.295 -3.579,0.512 0,0 -0.56,-1.736 -0.567,-1.759 0.713,-0.223 2.433,-0.765 3.202,-1.745 0.99,-1.266 -0.211,-4.612 0.889,-6.668 0.802,-1.494 3.88,-1.472 4.136,-1.363 -0.456,-0.262 -2.393,-1.59 -2.182,-3.613 0.24,-2.212 3.028,-4.076 2.893,-5.666 -0.11,-1.235 -1.173,-2.638 -1.597,-3.252 0,0 1.475,-1.066 1.487,-1.08 0.444,0.606 1.492,2.081 2.661,2.504 1.507,0.551 4.329,-1.569 6.612,-1.14 1.458,0.266 2.488,2.718 2.431,3.23 0.118,-0.506 0.787,-3.008 2.655,-3.328 2.188,-0.349 4.949,1.897 6.424,1.276 1.151,-0.483 2.154,-1.924 2.61,-2.517 0,0 1.469,1.072 1.486,1.078 -0.429,0.619 -1.509,2.06 -1.553,3.304 -0.061,1.601 2.872,3.618 3.195,5.917 0.228,1.68 -2.038,3.116 -2.304,3.178 0.194,-0.062 2.778,-0.028 3.789,1.74 1.114,1.925 -0.039,5.078 1.003,6.28 C -2.387,-0.757 -0.701,-0.239 0,0 m -9.707,-7.146 c -0.889,-1.072 -2.988,-0.279 -3.528,-0.151 l -0.172,-0.637 -0.245,-0.638 c 0.512,-0.205 2.577,-0.604 2.655,-1.984 0.123,-2.159 -2.911,-4.252 -2.805,-4.16 0.111,0.086 -2.806,-2.142 -4.826,-1.369 -1.297,0.508 -1.119,2.605 -1.157,3.164 l -0.673,-0.039 -0.736,0.045 c -0.044,-0.546 0.134,-2.581 -1.158,-3.09 -2.014,-0.784 -4.868,1.442 -4.757,1.37 0.121,-0.075 -2.929,1.856 -2.806,4.01 0.077,1.381 2.065,1.928 2.588,2.137 l -0.217,0.59 -0.195,0.698 c -0.539,-0.136 -2.66,-1.03 -3.551,0.042 -1.358,1.676 -0.173,5.216 -0.21,5.075 -0.035,-0.125 1.141,3.502 3.233,4.055 1.341,0.377 2.404,-1.396 2.76,-1.819 l 0.523,0.44 0.612,0.414 c -0.295,0.462 -1.637,2.021 -0.878,3.18 1.162,1.813 4.896,1.785 4.746,1.779 -0.127,-0.005 3.602,0.034 4.776,-1.779 0.752,-1.159 -0.59,-2.718 -0.88,-3.18 l 0.641,-0.398 0.556,-0.518 c 0.351,0.421 1.419,2.178 2.755,1.823 2.083,-0.551 3.211,-4.107 3.162,-3.982 -0.046,0.136 1.146,-3.397 -0.213,-5.078"
             style="fill:#ef373f;fill-opacity:1;fill-rule:nonzero;stroke:none"
             id="path134" />
        </g>
        <g
           id="g136"
           transform="translate(299.0088,289.3623)">
          <path
             d="m 0,0 c 0,-2.037 -1.646,-3.663 -3.674,-3.663 -2.031,0 -3.667,1.626 -3.667,3.663 0,2.027 1.636,3.662 3.667,3.662 C -1.646,3.662 0,2.027 0,0"
             style="fill:#ef373f;fill-opacity:1;fill-rule:nonzero;stroke:none"
             id="path138" />
        </g>
        <g
           id="g140"
           transform="translate(315.8013,294.9111)">
          <path
             d="M 0,0 C 0,0 -0.562,1.754 -0.574,1.765 -1.275,1.521 -2.995,0.952 -4.192,1.298 c -1.546,0.434 -2.604,3.784 -4.713,4.783 -1.526,0.743 -3.769,-0.91 -3.913,-1.144 0.211,0.473 0.98,2.9 -0.39,4.406 -1.485,1.653 -4.842,1.522 -5.666,2.883 -0.634,1.066 -0.595,2.838 -0.611,3.578 h -1.849 c 0,-0.74 0.018,-2.568 -0.674,-3.595 -0.908,-1.327 -4.464,-1.213 -6.071,-2.914 -1.169,-1.212 -0.289,-4.179 -0.106,-4.402 -0.389,0.362 -2.344,1.85 -4.204,1.019 -2.024,-0.896 -2.943,-4.136 -4.496,-4.486 -1.208,-0.273 -2.877,0.306 -3.59,0.512 0,0 -0.563,-1.737 -0.563,-1.759 0.708,-0.223 2.44,-0.775 3.202,-1.753 0.984,-1.263 -0.211,-4.619 0.884,-6.669 0.808,-1.491 3.88,-1.452 4.137,-1.341 -0.456,-0.271 -2.389,-1.603 -2.171,-3.623 0.227,-2.221 3.016,-4.075 2.888,-5.677 -0.117,-1.224 -1.173,-2.626 -1.597,-3.244 0,0 1.475,-1.075 1.487,-1.085 0.444,0.602 1.496,2.076 2.653,2.508 1.52,0.546 4.331,-1.573 6.618,-1.145 1.463,0.272 2.477,2.709 2.445,3.234 0.099,-0.513 0.773,-3.012 2.637,-3.313 2.192,-0.361 4.963,1.887 6.44,1.263 1.135,-0.487 2.148,-1.925 2.593,-2.524 0,0 1.481,1.079 1.498,1.088 -0.44,0.602 -1.514,2.049 -1.57,3.301 -0.051,1.61 2.894,3.596 3.207,5.911 0.227,1.692 -2.044,3.127 -2.317,3.188 0.201,-0.071 2.794,-0.032 3.807,1.726 1.102,1.926 -0.044,5.077 0.991,6.286 C -2.388,-0.75 -0.701,-0.239 0,0 m -9.713,-7.14 c -0.885,-1.081 -2.989,-0.285 -3.517,-0.145 l -0.178,-0.657 -0.24,-0.628 c 0.518,-0.211 2.578,-0.607 2.655,-1.989 0.113,-2.148 -2.922,-4.244 -2.806,-4.151 0.107,0.078 -2.81,-2.144 -4.829,-1.38 -1.297,0.512 -1.114,2.628 -1.153,3.174 l -0.685,-0.035 -0.729,0.035 c -0.038,-0.546 0.129,-2.584 -1.152,-3.084 -2.02,-0.781 -4.882,1.452 -4.764,1.368 0.116,-0.078 -2.928,1.86 -2.806,4.008 0.084,1.402 2.072,1.926 2.584,2.137 l -0.208,0.586 -0.199,0.717 c -0.535,-0.139 -2.665,-1.046 -3.545,0.026 -1.359,1.671 -0.178,5.211 -0.224,5.072 -0.033,-0.135 1.153,3.512 3.234,4.052 1.352,0.362 2.41,-1.381 2.762,-1.804 l 0.523,0.434 0.611,0.412 c -0.294,0.468 -1.63,2.02 -0.868,3.19 1.158,1.8 4.887,1.769 4.755,1.764 -0.146,-0.011 3.588,0.036 4.762,-1.764 0.752,-1.17 -0.59,-2.722 -0.879,-3.19 l 0.64,-0.39 0.556,-0.522 c 0.352,0.418 1.419,2.171 2.757,1.831 2.086,-0.574 3.211,-4.124 3.16,-4.003 -0.044,0.14 1.146,-3.395 -0.217,-5.064"
             style="fill:#ef373f;fill-opacity:1;fill-rule:nonzero;stroke:none"
             id="path142" />
        </g>
        <g
           id="g144"
           transform="translate(405.96,289.4307)">
          <path
             d="m 0,0 c 0,-2.016 -1.652,-3.676 -3.667,-3.676 -2.043,0 -3.674,1.66 -3.674,3.676 0,2.037 1.631,3.661 3.674,3.661 C -1.652,3.661 0,2.037 0,0"
             style="fill:#ef373f;fill-opacity:1;fill-rule:nonzero;stroke:none"
             id="path146" />
        </g>
        <g
           id="g148"
           transform="translate(422.7461,294.9844)">
          <path
             d="M 0,0 C 0,0 -0.556,1.742 -0.562,1.764 -1.278,1.53 -2.993,0.946 -4.185,1.286 c -1.553,0.44 -2.611,3.796 -4.708,4.803 -1.536,0.735 -3.779,-0.924 -3.924,-1.146 0.211,0.473 0.98,2.891 -0.385,4.396 -1.491,1.651 -4.848,1.52 -5.653,2.895 -0.651,1.059 -0.614,2.827 -0.635,3.578 h -1.842 c 0,-0.751 0.016,-2.571 -0.674,-3.606 -0.896,-1.331 -4.459,-1.227 -6.073,-2.903 -1.169,-1.224 -0.282,-4.194 -0.104,-4.4 -0.391,0.34 -2.34,1.842 -4.197,1.016 -2.037,-0.91 -2.951,-4.133 -4.503,-4.495 -1.208,-0.278 -2.867,0.302 -3.574,0.513 0,0 -0.579,-1.726 -0.584,-1.749 0.712,-0.238 2.443,-0.778 3.207,-1.757 0.989,-1.271 -0.213,-4.61 0.889,-6.669 0.801,-1.491 3.875,-1.459 4.13,-1.358 -0.451,-0.267 -2.393,-1.592 -2.171,-3.616 0.234,-2.217 3.028,-4.074 2.889,-5.662 -0.116,-1.241 -1.169,-2.632 -1.609,-3.255 0,0 1.493,-1.079 1.509,-1.091 0.428,0.601 1.48,2.081 2.649,2.51 1.509,0.55 4.331,-1.563 6.618,-1.142 1.458,0.269 2.477,2.721 2.438,3.24 0.106,-0.519 0.773,-3.017 2.634,-3.318 2.202,-0.366 4.963,1.894 6.437,1.269 1.148,-0.488 2.15,-1.943 2.601,-2.526 0,0 1.479,1.07 1.496,1.09 -0.445,0.609 -1.513,2.054 -1.558,3.284 -0.06,1.615 2.877,3.62 3.195,5.918 0.222,1.691 -2.038,3.126 -2.304,3.198 0.189,-0.078 2.776,-0.032 3.795,1.722 1.108,1.931 -0.049,5.075 0.997,6.293 C -2.387,-0.757 -0.694,-0.233 0,0 m -9.711,-7.137 c -0.875,-1.094 -2.977,-0.282 -3.507,-0.155 l -0.178,-0.65 -0.255,-0.63 c 0.521,-0.199 2.588,-0.595 2.665,-1.975 0.106,-2.165 -2.917,-4.253 -2.823,-4.169 0.123,0.095 -2.792,-2.148 -4.808,-1.369 -1.308,0.501 -1.13,2.616 -1.169,3.174 l -0.667,-0.052 -0.747,0.052 c -0.032,-0.546 0.145,-2.59 -1.151,-3.102 -2.009,-0.757 -4.866,1.453 -4.759,1.392 0.122,-0.095 -2.927,1.841 -2.811,3.989 0.095,1.393 2.076,1.933 2.588,2.139 l -0.206,0.595 -0.199,0.701 c -0.535,-0.127 -2.672,-1.034 -3.552,0.051 -1.347,1.658 -0.166,5.193 -0.206,5.065 -0.039,-0.141 1.146,3.495 3.223,4.052 1.346,0.361 2.403,-1.387 2.766,-1.816 l 0.524,0.447 0.617,0.4 c -0.307,0.478 -1.643,2.009 -0.885,3.189 1.168,1.795 4.893,1.779 4.759,1.773 -0.144,0 3.591,0.022 4.769,-1.773 0.741,-1.18 -0.595,-2.711 -0.878,-3.189 l 0.633,-0.384 0.558,-0.523 c 0.356,0.427 1.407,2.171 2.755,1.819 2.087,-0.551 3.206,-4.106 3.155,-3.995 -0.05,0.138 1.159,-3.385 -0.211,-5.056"
             style="fill:#ef373f;fill-opacity:1;fill-rule:nonzero;stroke:none"
             id="path150" />
        </g>
        <g
           id="g152"
           transform="translate(514.7598,289.3623)">
          <path
             d="m 0,0 c 0,-2.037 -1.646,-3.663 -3.672,-3.663 -2.033,0 -3.674,1.626 -3.674,3.663 0,2.027 1.641,3.662 3.674,3.662 C -1.646,3.662 0,2.027 0,0"
             style="fill:#ef373f;fill-opacity:1;fill-rule:nonzero;stroke:none"
             id="path154" />
        </g>
        <g
           id="g156"
           transform="translate(531.5361,294.9111)">
          <path
             d="M 0,0 C 0,0 -0.562,1.754 -0.562,1.765 -1.28,1.521 -2.989,0.952 -4.181,1.298 c -1.548,0.434 -2.604,3.784 -4.72,4.783 -1.524,0.743 -3.767,-0.91 -3.908,-1.144 0.206,0.473 0.975,2.9 -0.388,4.406 -1.487,1.653 -4.837,1.522 -5.66,2.883 -0.64,1.066 -0.603,2.838 -0.613,3.578 h -1.858 c 0,-0.74 0.022,-2.568 -0.669,-3.595 -0.891,-1.327 -4.447,-1.213 -6.056,-2.914 -1.18,-1.212 -0.288,-4.179 -0.116,-4.402 -0.385,0.362 -2.343,1.85 -4.225,1.019 -2.027,-0.896 -2.921,-4.136 -4.491,-4.486 -1.209,-0.273 -2.873,0.306 -3.579,0.512 0,0 -0.567,-1.737 -0.567,-1.759 0.701,-0.223 2.43,-0.775 3.194,-1.753 0.996,-1.263 -0.222,-4.619 0.897,-6.669 0.791,-1.491 3.861,-1.452 4.118,-1.341 -0.451,-0.271 -2.382,-1.603 -2.165,-3.623 0.234,-2.221 3.028,-4.075 2.887,-5.677 -0.123,-1.224 -1.173,-2.626 -1.602,-3.244 0,0 1.479,-1.075 1.491,-1.085 0.451,0.602 1.509,2.076 2.679,2.508 1.507,0.546 4.324,-1.573 6.611,-1.145 1.459,0.272 2.473,2.709 2.438,3.234 0.111,-0.513 0.773,-3.012 2.632,-3.313 2.2,-0.361 4.965,1.887 6.434,1.263 1.136,-0.487 2.144,-1.925 2.595,-2.524 0,0 1.479,1.079 1.496,1.088 -0.436,0.602 -1.513,2.049 -1.557,3.301 -0.062,1.61 2.876,3.596 3.194,5.911 0.228,1.692 -2.027,3.127 -2.304,3.188 0.211,-0.071 2.782,-0.032 3.801,1.726 1.102,1.926 -0.061,5.077 0.991,6.286 0.812,0.94 2.5,1.451 3.201,1.69 m -9.714,-7.14 c -0.868,-1.081 -2.967,-0.285 -3.505,-0.145 l -0.178,-0.657 -0.246,-0.628 c 0.512,-0.211 2.582,-0.607 2.661,-1.989 0.116,-2.148 -2.922,-4.244 -2.816,-4.151 0.11,0.078 -2.806,-2.144 -4.809,-1.38 -1.314,0.512 -1.135,2.628 -1.168,3.174 l -0.673,-0.035 -0.741,0.035 c -0.04,-0.546 0.138,-2.584 -1.153,-3.084 -2.01,-0.781 -4.864,1.452 -4.748,1.368 0.122,-0.078 -2.927,1.86 -2.815,4.008 0.083,1.402 2.076,1.926 2.588,2.137 l -0.206,0.586 -0.195,0.717 c -0.546,-0.139 -2.673,-1.046 -3.567,0.026 -1.365,1.671 -0.185,5.211 -0.213,5.072 -0.051,-0.135 1.164,3.512 3.24,4.052 1.346,0.362 2.409,-1.381 2.759,-1.804 l 0.524,0.434 0.612,0.412 c -0.284,0.468 -1.63,2.02 -0.873,3.19 1.163,1.8 4.897,1.769 4.753,1.764 -0.134,-0.011 3.584,0.036 4.753,-1.764 0.756,-1.17 -0.579,-2.722 -0.874,-3.19 l 0.635,-0.39 0.556,-0.522 c 0.356,0.418 1.419,2.171 2.762,1.831 2.092,-0.574 3.206,-4.124 3.162,-4.003 -0.051,0.14 1.139,-3.395 -0.225,-5.064"
             style="fill:#ef373f;fill-opacity:1;fill-rule:nonzero;stroke:none"
             id="path158" />
        </g>
        <g
           id="g160"
           transform="translate(307.2734,164.9795)">
          <path
             d="m 0,0 c 0,-1.641 -1.345,-2.972 -2.977,-2.972 -1.648,0 -2.973,1.331 -2.973,2.972 0,1.648 1.325,2.982 2.973,2.982 C -1.345,2.982 0,1.648 0,0"
             style="fill:#ef373f;fill-opacity:1;fill-rule:nonzero;stroke:none"
             id="path162" />
        </g>
        <g
           id="g164"
           transform="translate(320.8716,169.4824)">
          <path
             d="M 0,0 C 0,0 -0.462,1.413 -0.462,1.424 -1.03,1.239 -2.421,0.769 -3.389,1.052 -4.642,1.403 -5.5,4.107 -7.213,4.927 -8.45,5.526 -10.258,4.19 -10.375,4.003 c 0.168,0.389 0.784,2.324 -0.323,3.56 -1.201,1.348 -3.907,1.237 -4.586,2.338 -0.511,0.858 -0.49,2.292 -0.495,2.89 h -1.508 c 0,-0.598 0.022,-2.072 -0.541,-2.9 -0.729,-1.076 -3.6,-0.994 -4.903,-2.362 -0.968,-0.989 -0.245,-3.383 -0.095,-3.561 -0.322,0.29 -1.903,1.496 -3.405,0.829 -1.644,-0.734 -2.378,-3.345 -3.646,-3.64 -0.98,-0.228 -2.322,0.239 -2.906,0.418 0,0 -0.456,-1.415 -0.456,-1.425 0.579,-0.189 1.97,-0.635 2.593,-1.425 0.808,-1.025 -0.178,-3.728 0.719,-5.399 0.656,-1.213 3.139,-1.18 3.344,-1.101 -0.373,-0.213 -1.931,-1.292 -1.753,-2.927 0.19,-1.792 2.444,-3.296 2.338,-4.588 -0.1,-1.001 -0.958,-2.136 -1.296,-2.639 0,0 1.196,-0.866 1.207,-0.878 0.356,0.489 1.203,1.686 2.143,2.033 1.241,0.444 3.512,-1.276 5.359,-0.919 1.186,0.211 2.01,2.192 1.977,2.616 0.095,-0.412 0.639,-2.444 2.142,-2.689 1.787,-0.291 4.024,1.531 5.211,1.029 0.928,-0.394 1.747,-1.565 2.109,-2.049 0,0 1.206,0.87 1.213,0.88 -0.345,0.491 -1.23,1.671 -1.269,2.678 -0.051,1.291 2.343,2.916 2.593,4.804 0.178,1.345 -1.641,2.503 -1.87,2.57 0.162,-0.067 2.259,-0.033 3.083,1.409 0.897,1.553 -0.033,4.091 0.801,5.075 C -1.931,-0.618 -0.567,-0.206 0,0 m -7.864,-5.783 c -0.718,-0.874 -2.417,-0.234 -2.85,-0.129 l -0.139,-0.522 -0.201,-0.506 c 0.407,-0.168 2.088,-0.491 2.155,-1.614 0.088,-1.738 -2.366,-3.452 -2.289,-3.375 0.106,0.069 -2.265,-1.723 -3.895,-1.101 -1.058,0.408 -0.907,2.109 -0.941,2.571 l -0.551,-0.044 -0.595,0.049 c -0.023,-0.461 0.106,-2.096 -0.942,-2.508 -1.619,-0.635 -3.934,1.157 -3.846,1.102 0.102,-0.069 -2.364,1.501 -2.275,3.251 0.055,1.123 1.685,1.556 2.097,1.736 l -0.172,0.477 -0.161,0.569 c -0.434,-0.101 -2.165,-0.84 -2.878,0.033 -1.097,1.347 -0.139,4.202 -0.167,4.113 -0.032,-0.117 0.931,2.838 2.621,3.277 1.081,0.291 1.942,-1.123 2.222,-1.48 l 0.433,0.368 0.496,0.333 c -0.244,0.38 -1.313,1.632 -0.718,2.568 0.952,1.474 3.975,1.452 3.852,1.452 -0.111,-0.005 2.927,0.022 3.868,-1.452 0.607,-0.936 -0.479,-2.188 -0.713,-2.568 l 0.517,-0.322 0.458,-0.416 c 0.278,0.35 1.13,1.752 2.225,1.484 1.692,-0.456 2.595,-3.35 2.561,-3.244 -0.045,0.105 0.93,-2.75 -0.172,-4.102"
             style="fill:#ef373f;fill-opacity:1;fill-rule:nonzero;stroke:none"
             id="path166" />
        </g>
        <g
           id="g168"
           transform="translate(405.2373,164.9795)">
          <path
             d="m 0,0 c 0,-1.641 -1.335,-2.972 -2.979,-2.972 -1.646,0 -2.981,1.331 -2.981,2.972 0,1.648 1.335,2.982 2.981,2.982 C -1.335,2.982 0,1.648 0,0"
             style="fill:#ef373f;fill-opacity:1;fill-rule:nonzero;stroke:none"
             id="path170" />
        </g>
        <g
           id="g172"
           transform="translate(418.834,169.4824)">
          <path
             d="M 0,0 C 0,0 -0.456,1.413 -0.468,1.424 -1.04,1.239 -2.433,0.769 -3.394,1.052 c -1.252,0.351 -2.109,3.055 -3.82,3.875 -1.24,0.599 -3.056,-0.737 -3.178,-0.924 0.185,0.389 0.796,2.324 -0.305,3.56 -1.202,1.348 -3.919,1.237 -4.58,2.338 -0.525,0.858 -0.495,2.292 -0.513,2.89 h -1.498 c 0,-0.598 0.022,-2.072 -0.539,-2.9 -0.73,-1.076 -3.607,-0.994 -4.92,-2.362 -0.952,-0.989 -0.229,-3.383 -0.088,-3.561 -0.308,0.29 -1.899,1.496 -3.408,0.829 -1.634,-0.734 -2.375,-3.345 -3.634,-3.64 -0.979,-0.228 -2.327,0.239 -2.906,0.418 0,0 -0.449,-1.415 -0.456,-1.425 0.568,-0.189 1.966,-0.635 2.584,-1.425 0.817,-1.025 -0.174,-3.728 0.722,-5.399 0.651,-1.213 3.151,-1.18 3.345,-1.101 -0.356,-0.213 -1.926,-1.292 -1.752,-2.927 0.194,-1.792 2.449,-3.296 2.331,-4.588 -0.083,-1.001 -0.935,-2.136 -1.285,-2.639 0,0 1.197,-0.866 1.208,-0.878 0.35,0.489 1.207,1.686 2.153,2.033 1.214,0.444 3.507,-1.276 5.36,-0.919 1.169,0.211 2.005,2.192 1.97,2.616 0.083,-0.412 0.624,-2.444 2.137,-2.689 1.787,-0.291 4.019,1.531 5.215,1.029 0.926,-0.394 1.731,-1.565 2.105,-2.049 0,0 1.192,0.87 1.202,0.88 -0.35,0.491 -1.219,1.671 -1.258,2.678 -0.051,1.291 2.343,2.916 2.595,4.804 0.188,1.345 -1.66,2.503 -1.866,2.57 0.151,-0.067 2.25,-0.033 3.073,1.409 0.895,1.553 -0.044,4.091 0.805,5.075 C -1.933,-0.618 -0.573,-0.206 0,0 m -7.869,-5.783 c -0.713,-0.874 -2.416,-0.234 -2.845,-0.129 l -0.14,-0.522 -0.2,-0.506 c 0.408,-0.168 2.088,-0.491 2.149,-1.614 0.1,-1.738 -2.365,-3.452 -2.277,-3.375 0.095,0.069 -2.275,-1.723 -3.905,-1.101 -1.049,0.408 -0.919,2.109 -0.942,2.571 l -0.546,-0.044 -0.607,0.049 c -0.021,-0.461 0.112,-2.096 -0.923,-2.508 -1.631,-0.635 -3.946,1.157 -3.853,1.102 0.095,-0.069 -2.375,1.501 -2.28,3.251 0.067,1.123 1.68,1.556 2.092,1.736 l -0.168,0.477 -0.16,0.569 c -0.44,-0.101 -2.16,-0.84 -2.873,0.033 -1.095,1.347 -0.144,4.202 -0.172,4.113 -0.027,-0.117 0.924,2.838 2.617,3.277 1.09,0.291 1.947,-1.123 2.243,-1.48 l 0.417,0.368 0.5,0.333 c -0.239,0.38 -1.324,1.632 -0.712,2.568 0.941,1.474 3.962,1.452 3.851,1.452 -0.116,-0.005 2.907,0.022 3.864,-1.452 0.606,-0.936 -0.485,-2.188 -0.718,-2.568 l 0.528,-0.322 0.44,-0.416 c 0.289,0.35 1.145,1.752 2.236,1.484 1.688,-0.456 2.588,-3.35 2.551,-3.244 -0.034,0.105 0.935,-2.75 -0.167,-4.102"
             style="fill:#ef373f;fill-opacity:1;fill-rule:nonzero;stroke:none"
             id="path174" />
        </g>
        <g
           id="g176"
           transform="translate(505.6592,165.0586)">
          <path
             d="m 0,0 c 0,-1.639 -1.329,-2.973 -2.982,-2.973 -1.632,0 -2.984,1.334 -2.984,2.973 0,1.642 1.352,2.959 2.984,2.959 C -1.329,2.959 0,1.642 0,0"
             style="fill:#ef373f;fill-opacity:1;fill-rule:nonzero;stroke:none"
             id="path178" />
        </g>
        <g
           id="g180"
           transform="translate(519.2461,169.5547)">
          <path
             d="m 0,0 c 0,0 -0.45,1.407 -0.45,1.426 -0.585,-0.18 -1.978,-0.647 -2.94,-0.38 -1.241,0.35 -2.115,3.06 -3.817,3.891 -1.23,0.585 -3.044,-0.745 -3.167,-0.935 0.178,0.383 0.79,2.342 -0.319,3.557 -1.208,1.345 -3.917,1.229 -4.579,2.349 -0.507,0.857 -0.485,2.28 -0.491,2.887 h -1.503 c 0,-0.607 0.012,-2.076 -0.544,-2.9 -0.724,-1.08 -3.636,-0.991 -4.932,-2.371 -0.952,-0.991 -0.228,-3.372 -0.094,-3.549 -0.317,0.277 -1.898,1.491 -3.4,0.812 -1.644,-0.723 -2.378,-3.34 -3.642,-3.636 -0.974,-0.215 -2.319,0.241 -2.893,0.418 0,0 -0.457,-1.402 -0.461,-1.419 0.567,-0.196 1.969,-0.634 2.576,-1.425 0.812,-1.031 -0.168,-3.74 0.734,-5.393 0.64,-1.219 3.135,-1.191 3.341,-1.102 -0.363,-0.212 -1.927,-1.297 -1.755,-2.933 0.184,-1.785 2.444,-3.299 2.333,-4.587 -0.095,-1.008 -0.941,-2.136 -1.286,-2.626 0,0 1.191,-0.88 1.201,-0.896 0.357,0.496 1.203,1.687 2.155,2.038 1.218,0.454 3.496,-1.271 5.367,-0.936 1.178,0.231 1.997,2.209 1.992,2.626 0.072,-0.406 0.611,-2.437 2.119,-2.672 1.775,-0.301 4.03,1.526 5.211,1.021 0.934,-0.403 1.741,-1.566 2.098,-2.054 0,0 1.212,0.883 1.224,0.894 -0.356,0.479 -1.236,1.665 -1.268,2.666 -0.056,1.302 2.331,2.917 2.587,4.782 0.188,1.363 -1.653,2.532 -1.859,2.588 0.15,-0.056 2.247,-0.028 3.062,1.407 0.9,1.554 -0.04,4.102 0.816,5.072 C -1.926,-0.613 -0.562,-0.189 0,0 m -7.857,-5.771 c -0.713,-0.892 -2.417,-0.234 -2.852,-0.141 l -0.14,-0.517 -0.205,-0.511 c 0.423,-0.174 2.093,-0.486 2.166,-1.61 0.095,-1.752 -2.373,-3.451 -2.289,-3.377 0.095,0.067 -2.264,-1.731 -3.901,-1.107 -1.039,0.412 -0.901,2.119 -0.935,2.57 l -0.556,-0.032 -0.578,0.032 c -0.046,-0.444 0.099,-2.093 -0.954,-2.505 -1.641,-0.616 -3.952,1.167 -3.862,1.109 0.1,-0.067 -2.365,1.507 -2.28,3.255 0.065,1.129 1.69,1.558 2.091,1.731 l -0.16,0.484 -0.158,0.556 c -0.433,-0.104 -2.159,-0.834 -2.876,0.046 -1.103,1.334 -0.145,4.207 -0.173,4.101 -0.039,-0.105 0.924,2.838 2.622,3.285 1.085,0.289 1.936,-1.13 2.231,-1.47 l 0.418,0.356 0.501,0.327 c -0.245,0.385 -1.326,1.638 -0.707,2.585 0.935,1.458 3.984,1.435 3.88,1.435 -0.122,0 2.887,0.023 3.839,-1.435 0.625,-0.947 -0.474,-2.2 -0.706,-2.585 l 0.516,-0.311 0.446,-0.422 c 0.3,0.339 1.152,1.758 2.238,1.48 1.686,-0.456 2.593,-3.34 2.554,-3.245 -0.034,0.118 0.931,-2.753 -0.17,-4.084"
             style="fill:#ef373f;fill-opacity:1;fill-rule:nonzero;stroke:none"
             id="path182" />
        </g>
        <g
           id="g184"
           transform="translate(405.0205,61.8574)">
          <path
             d="m 0,0 c 0,-1.642 -1.336,-2.978 -2.978,-2.978 -1.643,0 -2.972,1.336 -2.972,2.978 0,1.648 1.329,2.973 2.972,2.973 C -1.336,2.973 0,1.648 0,0"
             style="fill:#ef373f;fill-opacity:1;fill-rule:nonzero;stroke:none"
             id="path186" />
        </g>
        <g
           id="g188"
           transform="translate(418.6162,66.3555)">
          <path
             d="M 0,0 C 0,0 -0.451,1.424 -0.462,1.424 -1.034,1.245 -2.421,0.767 -3.389,1.058 -4.635,1.414 -5.51,4.116 -7.201,4.942 -8.449,5.531 -10.257,4.195 -10.38,4.005 c 0.173,0.385 0.785,2.349 -0.317,3.563 -1.197,1.335 -3.929,1.226 -4.586,2.338 -0.517,0.85 -0.489,2.292 -0.505,2.894 h -1.493 c 0,-0.602 0.016,-2.081 -0.551,-2.905 -0.724,-1.075 -3.595,-0.997 -4.903,-2.36 -0.957,-0.991 -0.241,-3.384 -0.095,-3.574 -0.322,0.301 -1.899,1.515 -3.401,0.836 -1.646,-0.73 -2.382,-3.351 -3.651,-3.64 -0.968,-0.222 -2.32,0.245 -2.894,0.417 0,0 -0.461,-1.407 -0.461,-1.424 0.572,-0.196 1.968,-0.629 2.587,-1.425 0.802,-1.012 -0.179,-3.735 0.717,-5.394 0.664,-1.214 3.146,-1.19 3.352,-1.107 -0.373,-0.206 -1.926,-1.276 -1.748,-2.922 0.179,-1.787 2.443,-3.296 2.327,-4.592 -0.095,-1.003 -0.952,-2.138 -1.292,-2.633 0,0 1.197,-0.868 1.209,-0.88 0.361,0.491 1.206,1.681 2.148,2.027 1.225,0.451 3.512,-1.27 5.364,-0.918 1.176,0.222 2,2.186 1.977,2.614 0.083,-0.428 0.629,-2.436 2.125,-2.676 1.794,-0.301 4.031,1.524 5.221,1.019 0.935,-0.395 1.743,-1.564 2.1,-2.042 0,0 1.208,0.873 1.213,0.88 -0.357,0.49 -1.219,1.667 -1.264,2.669 -0.05,1.298 2.338,2.923 2.595,4.805 0.187,1.352 -1.649,2.51 -1.86,2.566 0.151,-0.056 2.255,-0.024 3.077,1.412 0.885,1.547 -0.044,4.109 0.801,5.077 C -1.926,-0.606 -0.572,-0.194 0,0 m -7.863,-5.795 c -0.707,-0.874 -2.41,-0.217 -2.846,-0.112 l -0.144,-0.529 -0.199,-0.523 c 0.422,-0.156 2.086,-0.468 2.147,-1.591 0.101,-1.747 -2.36,-3.434 -2.27,-3.373 0.089,0.077 -2.282,-1.731 -3.902,-1.108 -1.058,0.417 -0.924,2.109 -0.945,2.578 l -0.551,-0.034 -0.59,0.034 c -0.039,-0.446 0.104,-2.093 -0.936,-2.506 -1.631,-0.635 -3.946,1.171 -3.858,1.113 0.106,-0.077 -2.371,1.503 -2.274,3.241 0.06,1.125 1.679,1.563 2.097,1.736 l -0.178,0.484 -0.162,0.561 c -0.435,-0.121 -2.16,-0.845 -2.866,0.023 -1.107,1.359 -0.15,4.225 -0.167,4.118 -0.039,-0.104 0.919,2.84 2.61,3.285 1.085,0.29 1.949,-1.136 2.238,-1.475 l 0.423,0.352 0.501,0.333 c -0.239,0.378 -1.325,1.642 -0.718,2.582 0.952,1.475 3.968,1.447 3.857,1.442 -0.118,0 2.906,0.033 3.864,-1.442 0.599,-0.94 -0.487,-2.204 -0.725,-2.582 l 0.53,-0.312 0.445,-0.429 c 0.294,0.351 1.146,1.777 2.236,1.487 1.687,-0.445 2.595,-3.329 2.549,-3.229 -0.039,0.106 0.926,-2.76 -0.166,-4.124"
             style="fill:#ef373f;fill-opacity:1;fill-rule:nonzero;stroke:none"
             id="path190" />
        </g>
        <g
           id="g192"
           transform="translate(350.4092,444.9009)">
          <path
             d="m 0,0 c 1.174,0.428 3.329,0.553 5.32,0.217 1.921,-0.306 8.088,-2.677 7.241,-10.002 -0.428,-3.653 -2.125,-5.972 -2.125,-5.972 1.697,-0.211 6.211,-1.505 8.448,1.709 2.076,2.986 -0.144,5.187 -0.144,5.187 1.859,-0.292 9.156,-3.17 9.16,-11.791 0.017,-9.292 -4.903,-12.991 -4.903,-12.991 0.339,0.076 3.301,0 4.943,-0.358 1.653,-0.376 3.044,-1.339 3.356,-2.207 -2.021,-5.636 -13.843,-9.261 -15.334,-14.463 -0.741,-2.641 0.223,-4.486 2.348,-4.697 4.821,-0.473 7.449,5.22 7.665,7.455 1.486,0 4.081,-2.154 3.4,-6.813 -0.84,-5.852 -5.938,-10.257 -12.556,-10.497 -4.158,-0.141 -6.184,1.698 -6.184,1.698 -0.834,-0.849 -3.127,-3.031 -3.466,-6.326 -0.458,-4.466 4.112,-5.306 4.112,-5.306 -0.105,-1.612 -3.401,-5.767 -7.881,-5.767 -7.63,0 -8.727,5.858 -8.727,8.953 -3.089,-2.769 -3.072,-6.515 -4.693,-10.436 -3.722,-9.056 -7.975,-9.169 -9.522,-9.169 0.646,1.708 1.436,3.632 1.019,6.823 -0.618,4.748 -3.639,6.108 -3.639,6.108 -0.213,-1.914 -0.741,-6.845 -4.16,-11.859 -3.85,-5.587 -8.181,-7.381 -13.079,-6.913 -5.816,0.553 -7.997,4.786 -8.014,8.201 -0.023,4.809 2.281,7.185 2.339,7.232 0.25,-1.483 0.766,-2.98 2.904,-3.186 2.131,-0.217 4.865,1.289 5.432,4.89 0.741,4.685 -0.222,4.901 0.251,8.726 0.233,1.949 1.552,4.483 1.552,4.483 -0.629,0.098 -2.342,0.635 -5.104,-1.28 -2.787,-1.95 -3.623,-5.329 -3.623,-5.329 -1.53,2.296 -1.519,7.312 -0.127,11.284 1.408,4.053 4.067,6.293 5.137,7.136 -2.873,0.534 -7.353,4.046 -7.558,7.995 -0.373,7.217 5.821,8.096 5.821,8.096 -0.078,-2.453 0.728,-4.887 4.119,-5.335 3.262,-0.429 6.022,1.937 6.45,6.375 0.53,5.547 -1.681,8.431 -1.982,13.008 -0.139,2.126 0.497,5.863 1.125,7.669 0.957,0 1.966,-0.061 3.417,-0.501 1.454,-0.434 2.924,-2.338 2.845,-2.204 -0.502,2.6 1.704,8.594 3.751,11.221 6.44,8.254 15.156,5.878 15.484,5.745 -2.661,-1.91 -5.204,-9.318 -0.791,-10.428 5.204,-1.328 7.938,3.868 8.522,6.167 C 3.833,-2.438 0,0 0,0"
             style="fill:#212e65;fill-opacity:1;fill-rule:nonzero;stroke:none"
             id="path194" />
        </g>
        <g
           id="g196"
           transform="translate(359.2134,409.7021)">
          <path
             d="m 0,0 c -1.301,-1.185 -3.083,-2.56 -3.94,-2.17 -0.852,0.386 -0.663,2.393 -0.373,3.932 -1.581,0.848 -2.632,1.539 -2.632,1.539 0,0 -1.026,-4.057 -1.558,-5.861 5.336,-3.253 10.429,-3.116 12.767,1.963 0,0 -2.299,0.164 -4.264,0.597"
             style="fill:#ffffff;fill-opacity:1;fill-rule:nonzero;stroke:none"
             id="path198" />
        </g>
        <g
           id="g200"
           transform="translate(339.6001,419.0396)">
          <path
             d="m 0,0 c -0.123,-1.733 -0.118,-3.997 0.702,-4.431 0.828,-0.43 2.292,0.947 3.338,2.132 1.643,-0.729 2.817,-1.157 2.817,-1.157 0,0 -2.56,-3.287 -3.657,-4.815 -5.844,2.224 -8.867,6.315 -6.3,11.274 0,0 1.536,-1.706 3.1,-3.003"
             style="fill:#ffffff;fill-opacity:1;fill-rule:nonzero;stroke:none"
             id="path202" />
        </g>
        <g
           id="g204"
           transform="translate(332.8706,381.1895)">
          <path
             d="m 0,0 c -2.26,1.127 -3,3.943 -3.088,5.541 -0.218,3.617 0.696,4.933 1.553,7.23 -2.155,2.621 -1.859,7.096 -0.051,9.456 0.936,-3.203 3.04,-7.706 6.077,-7.495 1.977,0.131 2.778,2.6 3.708,3.786 -1.185,0.626 -1.419,0.69 -2.9,1.839 -1.464,1.158 -1.748,2.755 -0.912,4.436 0.857,1.669 3.695,3.531 4.947,3.687 -1.296,-1.049 -3.396,-3.757 -2.282,-5.006 1.536,-1.606 5.349,-3.395 7.213,-3.607 2.338,-0.262 3.118,4.753 3.118,4.753 0.183,-0.849 1.112,-3.704 -0.384,-6.275 -0.97,-1.509 -2.116,-2.045 -3.718,-1.806 -0.963,0.147 -1.704,0.325 -3.095,0.962 C 9.663,15.69 8.482,13.884 9.239,12.503 10.932,10.155 15.568,11.215 18.68,12.406 17.899,9.556 14.628,6.554 11.249,6.68 10.186,4.89 9.216,2.763 6.535,0.957 5.204,0.067 2.683,-1.339 0,0"
             style="fill:#ffffff;fill-opacity:1;fill-rule:nonzero;stroke:none"
             id="path206" />
        </g>
        <g
           id="g208"
           transform="translate(331.8359,379.2803)">
          <path
             d="m 0,0 9.294,10.778 c 0,0 -1.263,0.974 -2.761,1.715 -1.618,0.809 -3.149,1.252 -3.149,1.252 L 0,0"
             style="fill:#212e65;fill-opacity:1;fill-rule:nonzero;stroke:none"
             id="path210" />
        </g>
      </g>
    </g>
  </g>
</svg>
