<svg xmlns="http://www.w3.org/2000/svg" id="Calque_1" data-name="Calque 1" viewBox="0 0 145.63 23.68">
  <path id="Tracé_2295" data-name="Tracé 2295" d="M7.365,12.441a5.212,5.212,0,0,1-3.432-1.065,3.4,3.4,0,0,1-.746-.854,3.9,3.9,0,0,1-.509-2.034c0-2.521,2.209-3.048,4.063-3.048h8.142V2.36H6.306A6.624,6.624,0,0,0,1.645,3.833L1.6,3.872A4.918,4.918,0,0,0,.293,5.953,6.445,6.445,0,0,0,0,7.927,6.069,6.069,0,0,0,.289,9.851a4.629,4.629,0,0,0,2.17,2.592H.632A.559.559,0,0,0,.073,13v12.15h3.27v-9.4a.2.2,0,0,1,.186-.2H14.875V12.441Z" transform="translate(0.002 -1.92)"/>
  <path id="Tracé_2296" data-name="Tracé 2296" d="M95.47,5.448h5.705V22.084H95.47v3.078h14.679V22.084h-5.707V5.448h5.707V2.37H95.47Z" transform="translate(-77.67 -1.928)"/>
  <path id="Tracé_2297" data-name="Tracé 2297" d="M204.038,22.927l-6.22-20.443-.035-.114H191.93V25.163H195.2V4.6l6.222,20.451.034.114h5.854V2.37h-3.27Z" transform="translate(-156.146 -1.928)"/>
  <path id="Tracé_2298" data-name="Tracé 2298" d="M397.5,15.274h10.586V12.2H397.5V5.448h10.776V2.37H394.23V25.163h14.239V22.084H397.5Z" transform="translate(-320.729 -1.928)"/>
  <path id="Tracé_2299" data-name="Tracé 2299" d="M497.282,12.264a10.064,10.064,0,0,0-5.295-2.12,22.287,22.287,0,0,1-2.564-.516,6.777,6.777,0,0,1-1.775-.725,2.972,2.972,0,0,1-1.025-1,2.8,2.8,0,0,1-.337-1.415V6.3a2.657,2.657,0,0,1,.337-1.352,3.117,3.117,0,0,1,.932-1,4.847,4.847,0,0,1,1.4-.639,5.948,5.948,0,0,1,1.659-.226,6.66,6.66,0,0,1,1.918.274,5.133,5.133,0,0,1,1.587.777,3.619,3.619,0,0,1,1.066,1.258,3.774,3.774,0,0,1,.4,1.762V8.6h3.268V6.961a6.712,6.712,0,0,0-.559-2.675,6.28,6.28,0,0,0-1.613-2.237A7.964,7.964,0,0,0,494.088.557a10.879,10.879,0,0,0-6.5-.117,7.221,7.221,0,0,0-2.424,1.275,6.037,6.037,0,0,0-1.585,1.969,5.58,5.58,0,0,0-.559,2.513V6.57a5.942,5.942,0,0,0,.539,2.61,5.353,5.353,0,0,0,1.544,1.9,8.056,8.056,0,0,0,2.386,1.253,16.187,16.187,0,0,0,3.084.7A9.49,9.49,0,0,1,494.6,14.3a2.766,2.766,0,0,1,1.158,2.424v.186a3.4,3.4,0,0,1-1.148,2.672,5.286,5.286,0,0,1-3.526,1.018,6.107,6.107,0,0,1-4.249-1.38,5.341,5.341,0,0,1-1.5-4.148V14.011h-3.268v1.253a9.173,9.173,0,0,0,.591,3.328,7.62,7.62,0,0,0,1.732,2.662,7.917,7.917,0,0,0,2.832,1.782,11,11,0,0,0,3.863.641,10.789,10.789,0,0,0,3.393-.49,7.17,7.17,0,0,0,2.491-1.393,5.811,5.811,0,0,0,1.536-2.157,7.061,7.061,0,0,0,.515-2.73v-.373A5.518,5.518,0,0,0,497.282,12.264Z" transform="translate(-392.19 0.001)"/>
  <path id="Tracé_2300" data-name="Tracé 2300" d="M309.373,9.811a6.017,6.017,0,0,0,.291-1.924,6.339,6.339,0,0,0-.291-1.974,4.9,4.9,0,0,0-1.3-2.075.186.186,0,0,0-.041-.035,6.6,6.6,0,0,0-4.661-1.492H294.78V5.4h8.142c1.853,0,4.064.528,4.064,3.048a3.867,3.867,0,0,1-.513,2.034,3.294,3.294,0,0,1-.736.854A5.208,5.208,0,0,1,302.3,12.4h-7.523v3.117h11.324a.209.209,0,0,1,.207.209v9.387h3.272V12.963a.559.559,0,0,0-.559-.559H307.2a4.629,4.629,0,0,0,2.172-2.593Z" transform="translate(-239.82 -1.879)"/>
  <path id="Tracé_2301" data-name="Tracé 2301" d="M661.468,13.178a29.425,29.425,0,0,1-2.521,11.446l-.088.173H662l.035-.063a26.025,26.025,0,0,0,2.8-11.559,25.184,25.184,0,0,0-2.647-11.351l-.034-.063h-3.08l.086.173A28.334,28.334,0,0,1,661.468,13.178Z" transform="translate(-536.021 -1.432)" fill="#00ed6b"/>
  <path id="Tracé_2302" data-name="Tracé 2302" d="M635.075,25.355a19.984,19.984,0,0,1-2.142,8.662l-.073.147h2.45l.03-.054a17.779,17.779,0,0,0,2.394-8.77,17.061,17.061,0,0,0-2.25-8.576l-.03-.054H633.03l.075.147a18.894,18.894,0,0,1,1.971,8.5Z" transform="translate(-514.868 -13.594)" fill="#00ed6b"/>
  <path id="Tracé_2303" data-name="Tracé 2303" d="M616,47.053h1.633l.017-.034a13.348,13.348,0,0,0,1.439-5.934,12.968,12.968,0,0,0-1.361-5.832l-.017-.034H616.1l.045.089a14.477,14.477,0,0,1,1.189,5.78,15.175,15.175,0,0,1-1.294,5.879Z" transform="translate(-501.151 -28.653)" fill="#00ed6b"/>
  <path id="Tracé_2304" data-name="Tracé 2304" d="M709.505,13.387a29.414,29.414,0,0,1,2.519-11.444l.088-.173H708.97l-.034.063a26,26,0,0,0-2.8,11.559,25.21,25.21,0,0,0,2.647,11.352l.034.063h3.091l-.086-.173A28.112,28.112,0,0,1,709.505,13.387Z" transform="translate(-574.486 -1.44)" fill="#00ed6b"/>
  <path id="Tracé_2305" data-name="Tracé 2305" d="M740.721,25.551a19.985,19.985,0,0,1,2.142-8.664l.073-.147h-2.455l-.028.054a17.872,17.872,0,0,0-2.383,8.757,17.091,17.091,0,0,0,2.25,8.576l.03.054h2.424l-.075-.147a18.935,18.935,0,0,1-1.978-8.483Z" transform="translate(-600.463 -13.619)" fill="#00ed6b"/>
  <path id="Tracé_2306" data-name="Tracé 2306" d="M767.6,28.39h-1.633l-.017.032a13.349,13.349,0,0,0-1.439,5.936,12.968,12.968,0,0,0,1.361,5.832l.017.032h1.607l-.045-.089a14.471,14.471,0,0,1-1.19-5.78,15.184,15.184,0,0,1,1.294-5.88Z" transform="translate(-621.973 -23.097)" fill="#00ed6b"/>
</svg>