<svg xmlns="http://www.w3.org/2000/svg" width="229.44" height="57.398" viewBox="0 0 229.44 57.398">
  <g id="Group_2" data-name="Group 2" transform="translate(0 0)">
    <path id="Path_1" data-name="Path 1" d="M58.771,9.841a.659.659,0,0,0-.659,0L49.181,15a.659.659,0,0,0-.33.571V25.88a.659.659,0,0,0,.329.571l8.877,5.135v9.744L40.739,31.322a.659.659,0,0,1-.329-.571V10.692a.659.659,0,0,1,.329-.571L58.112.088a.66.66,0,0,1,.659,0L76.148,10.121a.659.659,0,0,1,.329.571v9.365ZM68.058,36l8.019-4.632L68.058,26.74Z" transform="translate(-31.217 0)" fill="#39153b"/>
    <path id="Path_2" data-name="Path 2" d="M18.41,79.922V70.639l8.04,4.642Zm-.712,22.2L8.775,96.965a.659.659,0,0,1-.329-.57V75.963L.33,80.635a.659.659,0,0,0-.33.571v20.064a.659.659,0,0,0,.329.571l17.377,10.033a.66.66,0,0,0,.659,0l17.372-10.028a.658.658,0,0,0,.33-.571V81.268l-8.442,4.876V96.394a.659.659,0,0,1-.329.571l-8.939,5.162A.659.659,0,0,1,17.7,102.126Z" transform="translate(0 -54.569)" fill="#d9000d"/>
    <path id="Path_3" data-name="Path 3" d="M108.117,85.12,99.2,79.959a.659.659,0,0,0-.659,0l-8.877,5.125L81.221,80.2l17.3-9.99a.66.66,0,0,1,.659,0l17.38,10.031a.658.658,0,0,1,.33.571v20.065a.659.659,0,0,1-.33.571L99.186,111.482a.66.66,0,0,1-.659,0l-8.093-4.673,17.683-10.236a.659.659,0,0,0,.329-.57V85.69A.659.659,0,0,0,108.117,85.12ZM88.877,96.165l-8.056-4.652v9.3Z" transform="translate(-62.435 -54.172)" fill="#46ace5"/>
    <path id="Path_4" data-name="Path 4" d="M279.593,60.68l1.76-.34a.243.243,0,0,0,.2-.239V45.983a.243.243,0,0,0-.2-.239l-1.76-.341a.243.243,0,0,1-.2-.239v-2a.243.243,0,0,1,.243-.243h15.617a.243.243,0,0,1,.243.243V48.22a.243.243,0,0,1-.243.243h-2.643a.243.243,0,0,1-.243-.225l-.147-1.967a.243.243,0,0,0-.242-.225H285.85a.243.243,0,0,0-.243.243v5.086a.243.243,0,0,0,.243.243h6.6a.243.243,0,0,1,.243.243V54.5a.243.243,0,0,1-.243.243h-6.6a.243.243,0,0,0-.243.243V60.1a.243.243,0,0,0,.2.239l1.773.341a.243.243,0,0,1,.2.239v1.987a.243.243,0,0,1-.243.243h-7.892a.243.243,0,0,1-.243-.243V60.919A.243.243,0,0,1,279.593,60.68Zm17.644,0,1.561-.331a.252.252,0,0,0,.2-.246V51.187a.251.251,0,0,0-.2-.247l-1.759-.339a.251.251,0,0,1-.2-.247V48.368a.251.251,0,0,1,.251-.251H302.8a.251.251,0,0,1,.252.251V60.1a.252.252,0,0,0,.2.246l1.548.331a.252.252,0,0,1,.2.246V62.9a.252.252,0,0,1-.252.251h-7.459a.251.251,0,0,1-.251-.251V60.922A.251.251,0,0,1,297.237,60.676Zm9.479,0,1.565-.335a.241.241,0,0,0,.19-.235v-8.93a.241.241,0,0,0-.2-.236l-1.764-.342a.241.241,0,0,1-.195-.236V48.357a.241.241,0,0,1,.241-.241h5.47a.241.241,0,0,1,.24.221l.163,1.975a4.734,4.734,0,0,1,1.362-1.82,3.043,3.043,0,0,1,1.932-.653,4.929,4.929,0,0,1,.673.048,4.2,4.2,0,0,1,.591.119l-.406,3.477a.241.241,0,0,1-.245.213l-1.448-.036a2.844,2.844,0,0,0-1.472.347,2.231,2.231,0,0,0-.861.929.269.269,0,0,0-.028.121v7.05a.241.241,0,0,0,.19.235l1.564.335a.241.241,0,0,1,.19.235v2a.241.241,0,0,1-.241.241h-7.466a.241.241,0,0,1-.241-.241v-2A.241.241,0,0,1,306.716,60.678Zm23.145-7.392h-2.284a.243.243,0,0,1-.237-.189l-.366-1.6a.253.253,0,0,0-.094-.147,3.662,3.662,0,0,0-.976-.5,4.2,4.2,0,0,0-1.4-.223,2.723,2.723,0,0,0-1.7.48,1.458,1.458,0,0,0-.625,1.2,1.368,1.368,0,0,0,.6,1.132,6.39,6.39,0,0,0,2.39.8,9.739,9.739,0,0,1,4.141,1.632,3.592,3.592,0,0,1,1.348,2.966,3.945,3.945,0,0,1-1.745,3.314,7.548,7.548,0,0,1-4.591,1.285,9.617,9.617,0,0,1-3.189-.507,8.165,8.165,0,0,1-2.487-1.378.252.252,0,0,1-.092-.192l-.038-3.013a.243.243,0,0,1,.243-.246h2.4a.243.243,0,0,1,.234.177l.506,1.783a2.308,2.308,0,0,0,.986.452,5.715,5.715,0,0,0,1.306.146,3.316,3.316,0,0,0,1.882-.445,1.393,1.393,0,0,0,.646-1.209,1.413,1.413,0,0,0-.653-1.153,6.666,6.666,0,0,0-2.4-.861,9.658,9.658,0,0,1-4.009-1.6,3.487,3.487,0,0,1-1.354-2.9,4.2,4.2,0,0,1,1.556-3.258,6.5,6.5,0,0,1,4.432-1.369,11.4,11.4,0,0,1,3.313.473,7.187,7.187,0,0,1,2.361,1.135.248.248,0,0,1,.093.194l.038,3.372A.243.243,0,0,1,329.861,53.286Zm8.241-8.615V47.88a.236.236,0,0,0,.236.236H340.5a.236.236,0,0,1,.236.236v2.376a.236.236,0,0,1-.236.236h-2.167a.236.236,0,0,0-.236.236v7.419a1.769,1.769,0,0,0,.361,1.25,1.288,1.288,0,0,0,.973.376,6.681,6.681,0,0,0,.73-.035c.208-.023.442-.062.7-.118l.323,2.728a.245.245,0,0,1-.174.261,9.684,9.684,0,0,1-1.149.255,9.468,9.468,0,0,1-1.446.1,4.321,4.321,0,0,1-3.23-1.153,5.051,5.051,0,0,1-1.133-3.654V51.2a.236.236,0,0,0-.236-.236h-1.736a.236.236,0,0,1-.236-.236V48.353a.236.236,0,0,1,.236-.236h1.736a.236.236,0,0,0,.236-.236V44.671a.236.236,0,0,1,.236-.236h3.572A.236.236,0,0,1,338.1,44.671Zm27.849,5.072h-2.586a.231.231,0,0,1-.228-.2l-.374-2.417a.245.245,0,0,0-.072-.14,4.274,4.274,0,0,0-1.448-.888,6.025,6.025,0,0,0-2.147-.347,4.759,4.759,0,0,0-4.064,1.917,8.178,8.178,0,0,0-1.424,5v.709a8.264,8.264,0,0,0,1.417,5.015,4.671,4.671,0,0,0,4,1.932,6.591,6.591,0,0,0,2.188-.347,3.726,3.726,0,0,0,1.482-.888.249.249,0,0,0,.065-.135l.375-2.422a.231.231,0,0,1,.228-.2h2.586a.231.231,0,0,1,.231.231v3.68a.241.241,0,0,1-.06.16,8.726,8.726,0,0,1-3.06,2.189,10.356,10.356,0,0,1-4.244.841,8.657,8.657,0,0,1-6.669-2.821,10.262,10.262,0,0,1-2.6-7.239V52.7a10.33,10.33,0,0,1,2.584-7.239,8.629,8.629,0,0,1,6.683-2.835,10.167,10.167,0,0,1,4.238.855,9.132,9.132,0,0,1,3.065,2.189.242.242,0,0,1,.061.161v3.678A.231.231,0,0,1,365.95,49.742Zm9.123,13.7a6.77,6.77,0,0,1-5.2-2.084,7.453,7.453,0,0,1-1.945-5.294v-.556a8.221,8.221,0,0,1,1.841-5.516,6.864,6.864,0,0,1,9.663-.32,7.059,7.059,0,0,1,1.682,4.961v1.961a.248.248,0,0,1-.248.248h-8.728l-.027.084a3.912,3.912,0,0,0,.993,2.445,3.1,3.1,0,0,0,2.4.959,7.826,7.826,0,0,0,2.237-.271,9.868,9.868,0,0,0,1.706-.726.249.249,0,0,1,.346.115l.91,2.074a.25.25,0,0,1-.077.3,8.266,8.266,0,0,1-2.253,1.117A10.253,10.253,0,0,1,375.073,63.442Zm-.361-12.477a2.114,2.114,0,0,0-1.779.862,4.488,4.488,0,0,0-.806,2.265l.042.069h4.975V53.8a3.255,3.255,0,0,0-.6-2.064A2.177,2.177,0,0,0,374.712,50.965Zm7.974,9.714,1.577-.337a.233.233,0,0,0,.184-.228V51.171a.233.233,0,0,0-.189-.229l-1.777-.344a.233.233,0,0,1-.189-.229V48.349a.233.233,0,0,1,.233-.233h5.487a.233.233,0,0,1,.232.213l.163,1.941a5.5,5.5,0,0,1,1.848-1.793,4.794,4.794,0,0,1,2.459-.639,4.525,4.525,0,0,1,3.557,1.431,6.613,6.613,0,0,1,1.278,4.488v6.357a.233.233,0,0,0,.184.228l1.578.337a.233.233,0,0,1,.184.228v2.011a.233.233,0,0,1-.233.233h-7.288a.233.233,0,0,1-.233-.233V60.9a.233.233,0,0,1,.178-.226l1.38-.331a.233.233,0,0,0,.179-.226V53.772a3.045,3.045,0,0,0-.611-2.147,2.463,2.463,0,0,0-1.848-.632,3.13,3.13,0,0,0-1.446.326,2.968,2.968,0,0,0-1.02.857.248.248,0,0,0-.05.149v7.8a.232.232,0,0,0,.175.225l1.289.327a.233.233,0,0,1,.176.226v2.018a.233.233,0,0,1-.233.233h-7.176a.233.233,0,0,1-.233-.233V60.907A.233.233,0,0,1,382.686,60.679Zm23.156-16v3.2a.24.24,0,0,0,.24.24h2.159a.24.24,0,0,1,.24.24v2.368a.24.24,0,0,1-.24.24h-2.159a.241.241,0,0,0-.24.24v7.415a1.769,1.769,0,0,0,.361,1.25,1.289,1.289,0,0,0,.974.376,6.7,6.7,0,0,0,.73-.035c.208-.023.442-.062.7-.118l.323,2.725a.248.248,0,0,1-.177.266,9.572,9.572,0,0,1-1.147.254,9.463,9.463,0,0,1-1.445.1,4.322,4.322,0,0,1-3.23-1.153,5.054,5.054,0,0,1-1.132-3.654V51.205a.241.241,0,0,0-.24-.24H399.83a.24.24,0,0,1-.24-.24V48.357a.24.24,0,0,1,.24-.24h1.728a.24.24,0,0,0,.24-.24v-3.2a.24.24,0,0,1,.24-.24H405.6A.24.24,0,0,1,405.842,44.675Zm4.908,16,1.567-.335a.239.239,0,0,0,.189-.234V51.176a.239.239,0,0,0-.194-.235l-1.767-.342a.239.239,0,0,1-.193-.235v-2.01a.239.239,0,0,1,.239-.239h5.474a.239.239,0,0,1,.238.219l.163,1.976a4.732,4.732,0,0,1,1.361-1.82,3.046,3.046,0,0,1,1.932-.653,4.932,4.932,0,0,1,.674.048,4.213,4.213,0,0,1,.591.119l-.406,3.479a.239.239,0,0,1-.243.211l-1.449-.036a2.847,2.847,0,0,0-1.473.347,2.237,2.237,0,0,0-.861.93.27.27,0,0,0-.028.12v7.052a.239.239,0,0,0,.189.234l1.568.336a.239.239,0,0,1,.189.234v2a.239.239,0,0,1-.239.239H410.8a.239.239,0,0,1-.239-.239v-2A.239.239,0,0,1,410.75,60.678Zm20.58,2.472a7.393,7.393,0,0,1-.292-.771,6.188,6.188,0,0,1-.194-.8,5.581,5.581,0,0,1-1.758,1.348,5.253,5.253,0,0,1-2.369.514,4.964,4.964,0,0,1-3.508-1.2,4.24,4.24,0,0,1-1.3-3.273A3.719,3.719,0,0,1,423.6,55.7a8.849,8.849,0,0,1,4.975-1.153h1.834a.236.236,0,0,0,.236-.236V53.077a2.216,2.216,0,0,0-.626-1.682,2.58,2.58,0,0,0-1.849-.6,4.377,4.377,0,0,0-1.236.16,3.28,3.28,0,0,0-.876.382l-.231,1.414a.236.236,0,0,1-.233.2H422.98a.236.236,0,0,1-.236-.237l.012-2.967a.242.242,0,0,1,.108-.2,11.469,11.469,0,0,1,2.443-1.193,9.23,9.23,0,0,1,3.133-.514,7.134,7.134,0,0,1,4.537,1.368,4.666,4.666,0,0,1,1.744,3.9v6.211c0,.232,0,.45.007.653a4.959,4.959,0,0,0,.048.584l1.033.139a.236.236,0,0,1,.2.234v1.99a.236.236,0,0,1-.236.236Zm-3.515-2.709a3.515,3.515,0,0,0,1.667-.4,3.26,3.26,0,0,0,1.119-.927.252.252,0,0,0,.048-.15V56.995a.236.236,0,0,0-.236-.236h-1.834a2.826,2.826,0,0,0-1.959.6,1.891,1.891,0,0,0-.667,1.452,1.5,1.5,0,0,0,.493,1.195A2.013,2.013,0,0,0,427.815,60.441Zm9.278-16.718V41.715a.24.24,0,0,1,.239-.24h5.746a.24.24,0,0,1,.239.24V60.108a.24.24,0,0,0,.19.234l1.581.336a.24.24,0,0,1,.19.234v2a.24.24,0,0,1-.24.24h-7.5a.24.24,0,0,1-.24-.24v-2a.24.24,0,0,1,.19-.234l1.58-.336a.24.24,0,0,0,.19-.234V44.535a.24.24,0,0,0-.194-.235l-1.78-.342A.239.239,0,0,1,437.093,43.723ZM303.054,45.717v-2.55a.247.247,0,0,0-.247-.247h-3.564a.246.246,0,0,0-.247.247v2.55a.246.246,0,0,0,.247.246h3.564A.247.247,0,0,0,303.054,45.717Z" transform="translate(-215.837 -32.04)" fill="#39153b"/>
    <path id="Path_5" data-name="Path 5" d="M280.921,173.99a.406.406,0,0,1-.108-.292v-8.264a.407.407,0,0,1,.108-.292.414.414,0,0,1,.571,0,.408.408,0,0,1,.108.292V173.7a.407.407,0,0,1-.108.292.413.413,0,0,1-.571,0Zm7.775-3.872v3.592a.4.4,0,0,1-.1.285.365.365,0,0,1-.279.108.371.371,0,0,1-.394-.394v-3.542a1.993,1.993,0,0,0-.368-1.333,1.479,1.479,0,0,0-1.168-.419,1.969,1.969,0,0,0-1.466.559,2.036,2.036,0,0,0-.552,1.5v3.237a.4.4,0,0,1-.1.285.364.364,0,0,1-.279.108.371.371,0,0,1-.394-.394v-5.56a.371.371,0,0,1,.394-.393.36.36,0,0,1,.267.1.378.378,0,0,1,.1.279v.8a2.057,2.057,0,0,1,.844-.895,2.557,2.557,0,0,1,1.276-.311Q288.7,167.732,288.7,170.119Zm2.611,3.865a3.344,3.344,0,0,1-.907-.4,1.554,1.554,0,0,1-.336-.286.427.427,0,0,1-.1-.273.305.305,0,0,1,.082-.216.26.26,0,0,1,.2-.089.9.9,0,0,1,.393.19,4.142,4.142,0,0,0,.755.393,2.668,2.668,0,0,0,.971.152,2.127,2.127,0,0,0,1.168-.273.877.877,0,0,0,.419-.78.8.8,0,0,0-.152-.5,1.211,1.211,0,0,0-.508-.343,6.19,6.19,0,0,0-1.016-.285,3.888,3.888,0,0,1-1.606-.654,1.329,1.329,0,0,1-.476-1.073,1.594,1.594,0,0,1,.635-1.314,2.583,2.583,0,0,1,1.65-.5,3.471,3.471,0,0,1,.946.127,2.431,2.431,0,0,1,.781.368q.444.3.444.6a.329.329,0,0,1-.083.222.253.253,0,0,1-.2.1.808.808,0,0,1-.394-.2,3.856,3.856,0,0,0-.679-.387,2.163,2.163,0,0,0-.857-.146,1.7,1.7,0,0,0-1.054.3.958.958,0,0,0-.394.806.823.823,0,0,0,.133.482,1.089,1.089,0,0,0,.457.336,5.209,5.209,0,0,0,.933.285,6.656,6.656,0,0,1,1.346.432,1.6,1.6,0,0,1,.673.546,1.589,1.589,0,0,1-.45,2.063,2.88,2.88,0,0,1-1.733.476A3.825,3.825,0,0,1,291.307,173.984Zm9.706-6.119a.386.386,0,0,1,.108.285v5.56a.371.371,0,0,1-.393.394.349.349,0,0,1-.267-.108.4.4,0,0,1-.1-.285v-.774a2.04,2.04,0,0,1-.831.889,2.446,2.446,0,0,1-1.225.3,2.119,2.119,0,0,1-1.644-.6,2.558,2.558,0,0,1-.552-1.784v-3.592a.371.371,0,0,1,.394-.393.366.366,0,0,1,.279.108.4.4,0,0,1,.1.285v3.542a2.018,2.018,0,0,0,.362,1.326,1.411,1.411,0,0,0,1.136.425,1.883,1.883,0,0,0,1.428-.565,2.086,2.086,0,0,0,.539-1.5v-3.225a.4.4,0,0,1,.1-.285.365.365,0,0,1,.279-.108A.386.386,0,0,1,301.013,167.865Zm5.107-.045a.3.3,0,0,1,.1.254q0,.318-.381.355l-.381.038a1.842,1.842,0,0,0-1.339.647,2.058,2.058,0,0,0-.438,1.308v3.288a.4.4,0,0,1-.1.292.379.379,0,0,1-.279.1.4.4,0,0,1-.286-.1.382.382,0,0,1-.108-.292v-5.56a.382.382,0,0,1,.108-.292.4.4,0,0,1,.286-.1.361.361,0,0,1,.267.1.378.378,0,0,1,.1.279v.825a2.124,2.124,0,0,1,1.929-1.193l.178-.013A.538.538,0,0,1,306.12,167.821Zm5.128.5a2.486,2.486,0,0,1,.552,1.765V173.7a.4.4,0,0,1-.1.286.415.415,0,0,1-.558,0,.4.4,0,0,1-.1-.286v-.762a1.994,1.994,0,0,1-.774.882,2.19,2.19,0,0,1-1.168.311,2.459,2.459,0,0,1-1.092-.241,1.921,1.921,0,0,1-.78-.673,1.689,1.689,0,0,1-.286-.952,1.5,1.5,0,0,1,.356-1.066,2.167,2.167,0,0,1,1.18-.546,12.4,12.4,0,0,1,2.3-.165h.267v-.47a1.816,1.816,0,0,0-.343-1.225,1.369,1.369,0,0,0-1.079-.387,3.5,3.5,0,0,0-1.79.5l-.2.133a.515.515,0,0,1-.273.108.265.265,0,0,1-.209-.1.345.345,0,0,1-.083-.235q0-.279.444-.546a3.966,3.966,0,0,1,.99-.394,4.331,4.331,0,0,1,1.079-.14A2.195,2.195,0,0,1,311.248,168.316Zm-.736,4.583a1.989,1.989,0,0,0,.527-1.422v-.419H310.8a12.958,12.958,0,0,0-1.866.1,1.755,1.755,0,0,0-.914.349.932.932,0,0,0-.267.717,1.113,1.113,0,0,0,.406.882,1.484,1.484,0,0,0,1,.349A1.774,1.774,0,0,0,310.511,172.9Zm8.157-2.78v3.592a.4.4,0,0,1-.1.285.364.364,0,0,1-.279.108.372.372,0,0,1-.394-.394v-3.542a1.991,1.991,0,0,0-.368-1.333,1.479,1.479,0,0,0-1.168-.419,1.97,1.97,0,0,0-1.466.559,2.037,2.037,0,0,0-.552,1.5v3.237a.4.4,0,0,1-.1.285.365.365,0,0,1-.28.108.371.371,0,0,1-.393-.394v-5.56a.371.371,0,0,1,.393-.393.361.361,0,0,1,.267.1.378.378,0,0,1,.1.279v.8a2.056,2.056,0,0,1,.844-.895,2.556,2.556,0,0,1,1.276-.311Q318.668,167.732,318.669,170.119Zm2.761,3.618a2.625,2.625,0,0,1-1-1.117,4.081,4.081,0,0,1,.006-3.345,2.735,2.735,0,0,1,1.015-1.136,2.792,2.792,0,0,1,1.5-.406,3.5,3.5,0,0,1,.94.127,2.576,2.576,0,0,1,.812.381,1.437,1.437,0,0,1,.324.3.482.482,0,0,1,.1.286.339.339,0,0,1-.076.229.241.241,0,0,1-.19.089.846.846,0,0,1-.406-.216,3.328,3.328,0,0,0-.66-.381,2.053,2.053,0,0,0-.8-.14,1.9,1.9,0,0,0-1.549.679,2.865,2.865,0,0,0-.558,1.872,2.76,2.76,0,0,0,.552,1.834,1.908,1.908,0,0,0,1.542.654,2.037,2.037,0,0,0,.806-.14,5.117,5.117,0,0,0,.7-.381c.076-.051.15-.1.222-.14a.374.374,0,0,1,.171-.063.255.255,0,0,1,.2.089.322.322,0,0,1,.076.216.422.422,0,0,1-.089.266,1.686,1.686,0,0,1-.343.292,2.666,2.666,0,0,1-.831.4,3.388,3.388,0,0,1-.971.146A2.823,2.823,0,0,1,321.43,173.736Zm9.792-.92a.328.328,0,0,1,.083.222q0,.28-.432.546a3.707,3.707,0,0,1-1.93.546,2.926,2.926,0,0,1-2.222-.851,3.243,3.243,0,0,1-.813-2.336,3.74,3.74,0,0,1,.362-1.682,2.69,2.69,0,0,1,1.016-1.13,2.826,2.826,0,0,1,1.5-.4,2.411,2.411,0,0,1,1.885.768,3.045,3.045,0,0,1,.692,2.114.478.478,0,0,1-.1.336.437.437,0,0,1-.33.108h-4.227a2.637,2.637,0,0,0,.609,1.777,2.1,2.1,0,0,0,1.612.609,2.487,2.487,0,0,0,.914-.146,6.021,6.021,0,0,0,.787-.387.905.905,0,0,1,.394-.19A.252.252,0,0,1,331.222,172.816Zm-3.853-3.891a2.562,2.562,0,0,0-.635,1.561h3.923a2.408,2.408,0,0,0-.508-1.568,1.708,1.708,0,0,0-1.358-.552A1.874,1.874,0,0,0,327.369,168.925Zm15.995,4.875a.32.32,0,0,1-.108.241.351.351,0,0,1-.247.1.312.312,0,0,1-.241-.114l-1.232-1.321a3.816,3.816,0,0,1-1.288,1.06,3.482,3.482,0,0,1-1.568.362,3.525,3.525,0,0,1-1.435-.279,2.27,2.27,0,0,1-.99-.8,2.085,2.085,0,0,1-.356-1.206,2.311,2.311,0,0,1,.527-1.492,6.348,6.348,0,0,1,1.619-1.327l.038-.025a6.753,6.753,0,0,1-.844-1.086,1.974,1.974,0,0,1-.273-1.022,1.722,1.722,0,0,1,.59-1.4,2.242,2.242,0,0,1,1.492-.5,2.006,2.006,0,0,1,1.384.464,1.622,1.622,0,0,1,.52,1.276,1.85,1.85,0,0,1-.425,1.206,6.271,6.271,0,0,1-1.39,1.155l2.3,2.5a6.337,6.337,0,0,0,.546-2.412.407.407,0,0,1,.127-.292.373.373,0,0,1,.254-.1.324.324,0,0,1,.247.1.372.372,0,0,1,.083.292,6.55,6.55,0,0,1-.774,2.933l1.346,1.447A.386.386,0,0,1,343.364,173.8Zm-3.351-.641a3,3,0,0,0,1.066-.946l-2.552-2.729-.051.038a5.787,5.787,0,0,0-1.415,1.162,1.829,1.829,0,0,0-.387,1.149,1.436,1.436,0,0,0,.558,1.206,2.364,2.364,0,0,0,1.486.432A2.809,2.809,0,0,0,340.013,173.159Zm-2.056-5.465a6.934,6.934,0,0,0,.723.927,6.238,6.238,0,0,0,1.206-.965,1.285,1.285,0,0,0,.343-.863,1.117,1.117,0,0,0-.318-.825,1.167,1.167,0,0,0-.863-.317,1.334,1.334,0,0,0-.946.336,1.179,1.179,0,0,0-.362.908A1.506,1.506,0,0,0,337.957,167.694Zm12.2,6.3a.422.422,0,0,1-.1-.292v-7.921h-2.932a.367.367,0,0,1-.26-.089.385.385,0,0,1,0-.508.366.366,0,0,1,.26-.089h6.626a.357.357,0,0,1,.254.1.352.352,0,0,1,0,.5.357.357,0,0,1-.254.1h-2.92V173.7a.408.408,0,0,1-.108.292.375.375,0,0,1-.285.115A.355.355,0,0,1,350.155,173.99Zm8.6-1.174a.329.329,0,0,1,.083.222q0,.28-.432.546a3.706,3.706,0,0,1-1.929.546,2.926,2.926,0,0,1-2.222-.851,3.242,3.242,0,0,1-.813-2.336,3.744,3.744,0,0,1,.362-1.682,2.692,2.692,0,0,1,1.016-1.13,2.826,2.826,0,0,1,1.5-.4,2.412,2.412,0,0,1,1.885.768,3.045,3.045,0,0,1,.692,2.114.479.479,0,0,1-.1.336.436.436,0,0,1-.33.108h-4.227a2.638,2.638,0,0,0,.609,1.777,2.1,2.1,0,0,0,1.612.609,2.488,2.488,0,0,0,.914-.146,6.035,6.035,0,0,0,.787-.387.9.9,0,0,1,.394-.19A.252.252,0,0,1,358.757,172.816Zm-3.853-3.891a2.562,2.562,0,0,0-.634,1.561h3.923a2.407,2.407,0,0,0-.508-1.568,1.708,1.708,0,0,0-1.358-.552A1.874,1.874,0,0,0,354.9,168.925Zm6.437,4.811a2.626,2.626,0,0,1-1-1.117,4.08,4.08,0,0,1,.006-3.345,2.737,2.737,0,0,1,1.016-1.136,2.792,2.792,0,0,1,1.5-.406,3.5,3.5,0,0,1,.939.127,2.578,2.578,0,0,1,.812.381,1.447,1.447,0,0,1,.324.3.482.482,0,0,1,.1.286.338.338,0,0,1-.076.229.24.24,0,0,1-.19.089.847.847,0,0,1-.406-.216,3.317,3.317,0,0,0-.66-.381,2.051,2.051,0,0,0-.8-.14,1.9,1.9,0,0,0-1.549.679,2.863,2.863,0,0,0-.559,1.872,2.76,2.76,0,0,0,.552,1.834,1.908,1.908,0,0,0,1.542.654,2.039,2.039,0,0,0,.806-.14,5.114,5.114,0,0,0,.7-.381q.114-.076.222-.14a.376.376,0,0,1,.172-.063.254.254,0,0,1,.2.089.321.321,0,0,1,.076.216.423.423,0,0,1-.089.266,1.687,1.687,0,0,1-.343.292,2.665,2.665,0,0,1-.832.4,3.385,3.385,0,0,1-.971.146A2.824,2.824,0,0,1,361.342,173.736Zm9.969-3.618v3.592a.4.4,0,0,1-.1.285.365.365,0,0,1-.279.108.372.372,0,0,1-.394-.394v-3.542a1.991,1.991,0,0,0-.368-1.333,1.478,1.478,0,0,0-1.168-.419,1.97,1.97,0,0,0-1.466.559,2.037,2.037,0,0,0-.552,1.5v3.237a.4.4,0,0,1-.1.285.365.365,0,0,1-.28.108.371.371,0,0,1-.393-.394v-8.29a.371.371,0,0,1,.393-.393.366.366,0,0,1,.28.108.4.4,0,0,1,.1.285v3.491a2.032,2.032,0,0,1,.844-.876,2.573,2.573,0,0,1,1.263-.3Q371.31,167.732,371.31,170.119Zm6.869,0v3.592a.4.4,0,0,1-.1.285.365.365,0,0,1-.279.108.372.372,0,0,1-.394-.394v-3.542a1.992,1.992,0,0,0-.368-1.333,1.479,1.479,0,0,0-1.168-.419,1.97,1.97,0,0,0-1.466.559,2.037,2.037,0,0,0-.552,1.5v3.237a.4.4,0,0,1-.1.285.365.365,0,0,1-.279.108.371.371,0,0,1-.394-.394v-5.56a.371.371,0,0,1,.394-.393.361.361,0,0,1,.267.1.378.378,0,0,1,.1.279v.8a2.056,2.056,0,0,1,.844-.895,2.556,2.556,0,0,1,1.276-.311Q378.179,167.732,378.18,170.119Zm2.755,3.618a2.64,2.64,0,0,1-1-1.117,4.189,4.189,0,0,1,0-3.377,2.641,2.641,0,0,1,1-1.117,3.01,3.01,0,0,1,2.977,0,2.585,2.585,0,0,1,1,1.117,4.254,4.254,0,0,1,0,3.377,2.584,2.584,0,0,1-1,1.117,3.01,3.01,0,0,1-2.977,0Zm2.99-.939a3.5,3.5,0,0,0-.006-3.726,2.009,2.009,0,0,0-2.99,0,3.557,3.557,0,0,0-.012,3.726,1.809,1.809,0,0,0,1.5.647A1.846,1.846,0,0,0,383.924,172.8ZM386.8,174a.381.381,0,0,1-.108-.292v-8.29a.381.381,0,0,1,.108-.292.4.4,0,0,1,.285-.1.361.361,0,0,1,.381.393v8.29a.361.361,0,0,1-.381.394A.4.4,0,0,1,386.8,174Zm3.469-.267a2.639,2.639,0,0,1-1-1.117,4.189,4.189,0,0,1,0-3.377,2.641,2.641,0,0,1,1-1.117,3.01,3.01,0,0,1,2.977,0,2.585,2.585,0,0,1,1,1.117,4.254,4.254,0,0,1,0,3.377,2.584,2.584,0,0,1-1,1.117,3.01,3.01,0,0,1-2.977,0Zm2.99-.939a3.5,3.5,0,0,0-.006-3.726,2.009,2.009,0,0,0-2.99,0,3.557,3.557,0,0,0-.013,3.726,1.809,1.809,0,0,0,1.5.647A1.846,1.846,0,0,0,393.254,172.8Zm8.005-4.932a.386.386,0,0,1,.108.285v5.535a2.828,2.828,0,0,1-.667,2.038,2.619,2.619,0,0,1-1.974.692,5.115,5.115,0,0,1-1.225-.134,3.7,3.7,0,0,1-1.009-.412q-.457-.279-.457-.546a.321.321,0,0,1,.083-.228.273.273,0,0,1,.209-.089.5.5,0,0,1,.21.07l.184.1a5.555,5.555,0,0,0,.889.4,3.48,3.48,0,0,0,1.13.159,1.836,1.836,0,0,0,1.4-.5,2.066,2.066,0,0,0,.47-1.473v-1.206a2.02,2.02,0,0,1-.819.958,2.526,2.526,0,0,1-1.339.336,2.725,2.725,0,0,1-1.441-.381,2.576,2.576,0,0,1-.978-1.079,3.84,3.84,0,0,1,0-3.2,2.576,2.576,0,0,1,.978-1.079,2.725,2.725,0,0,1,1.441-.381,2.544,2.544,0,0,1,1.32.324,2.036,2.036,0,0,1,.825.946v-.851a.4.4,0,0,1,.1-.285.365.365,0,0,1,.279-.108A.387.387,0,0,1,401.26,167.865Zm-1.206,4.665a3.066,3.066,0,0,0-.006-3.484,1.863,1.863,0,0,0-1.5-.641,1.887,1.887,0,0,0-1.511.635,3.074,3.074,0,0,0,0,3.5,1.9,1.9,0,0,0,1.511.629A1.867,1.867,0,0,0,400.054,172.53Zm8.043-4.773a.372.372,0,0,1,.254.1.313.313,0,0,1,.114.241.364.364,0,0,1-.038.165l-3.593,7.883a.342.342,0,0,1-.33.216.379.379,0,0,1-.248-.089.284.284,0,0,1-.108-.229.339.339,0,0,1,.038-.152l.9-1.968-2.6-5.662a.341.341,0,0,1-.038-.152.325.325,0,0,1,.133-.26.446.446,0,0,1,.286-.108.328.328,0,0,1,.33.229l2.285,5.129,2.285-5.116A.342.342,0,0,1,408.1,167.758Zm11.774,1.8a.333.333,0,0,1,.1.247v3.364a.458.458,0,0,1-.292.457,5.388,5.388,0,0,1-1.263.381,8.148,8.148,0,0,1-1.5.139,4.472,4.472,0,0,1-2.254-.539,3.536,3.536,0,0,1-1.447-1.574,6.289,6.289,0,0,1-.006-4.907,3.611,3.611,0,0,1,1.422-1.58,4.209,4.209,0,0,1,2.2-.552,4.763,4.763,0,0,1,1.663.286,3.217,3.217,0,0,1,1.27.819.51.51,0,0,1,.165.368.39.39,0,0,1-.076.241.229.229,0,0,1-.19.1.549.549,0,0,1-.28-.127,4.519,4.519,0,0,0-1.244-.774,3.686,3.686,0,0,0-1.308-.216,3.014,3.014,0,0,0-2.431,1.009,5.247,5.247,0,0,0,.006,5.757,3.133,3.133,0,0,0,2.514,1,7.238,7.238,0,0,0,1.25-.108,5.075,5.075,0,0,0,1.1-.311v-2.92H417.2a.385.385,0,0,1-.273-.089.353.353,0,0,1,0-.482.385.385,0,0,1,.273-.089h2.425A.335.335,0,0,1,419.871,169.554Zm5.21-1.733a.3.3,0,0,1,.1.254q0,.318-.381.355l-.381.038a1.841,1.841,0,0,0-1.339.647,2.058,2.058,0,0,0-.438,1.308v3.288a.4.4,0,0,1-.1.292.379.379,0,0,1-.279.1.4.4,0,0,1-.286-.1.382.382,0,0,1-.108-.292v-5.56a.382.382,0,0,1,.108-.292.4.4,0,0,1,.286-.1.361.361,0,0,1,.267.1.378.378,0,0,1,.1.279v.825a2.124,2.124,0,0,1,1.929-1.193l.178-.013A.539.539,0,0,1,425.08,167.821Zm1.763,5.916a2.638,2.638,0,0,1-1-1.117,4.187,4.187,0,0,1,0-3.377,2.639,2.639,0,0,1,1-1.117,3.01,3.01,0,0,1,2.977,0,2.588,2.588,0,0,1,1,1.117,4.256,4.256,0,0,1,0,3.377,2.587,2.587,0,0,1-1,1.117,3.01,3.01,0,0,1-2.977,0Zm2.989-.939a3.5,3.5,0,0,0-.006-3.726,2.009,2.009,0,0,0-2.99,0,3.557,3.557,0,0,0-.013,3.726,1.809,1.809,0,0,0,1.5.647A1.846,1.846,0,0,0,429.833,172.8Zm7.636-4.932a.386.386,0,0,1,.108.285v5.56a.371.371,0,0,1-.393.394.349.349,0,0,1-.267-.108.4.4,0,0,1-.1-.285v-.774a2.04,2.04,0,0,1-.831.889,2.446,2.446,0,0,1-1.225.3,2.119,2.119,0,0,1-1.644-.6,2.558,2.558,0,0,1-.552-1.784v-3.592a.371.371,0,0,1,.394-.393.365.365,0,0,1,.279.108.4.4,0,0,1,.1.285v3.542a2.018,2.018,0,0,0,.362,1.326,1.411,1.411,0,0,0,1.136.425,1.883,1.883,0,0,0,1.428-.565,2.086,2.086,0,0,0,.539-1.5v-3.225a.4.4,0,0,1,.1-.285.365.365,0,0,1,.279-.108A.386.386,0,0,1,437.469,167.865Zm6.224.266a2.64,2.64,0,0,1,.965,1.13,3.949,3.949,0,0,1,.343,1.695,3.831,3.831,0,0,1-.343,1.669,2.554,2.554,0,0,1-2.4,1.5,2.49,2.49,0,0,1-1.295-.324,2.034,2.034,0,0,1-.825-.946V176a.4.4,0,0,1-.1.285.366.366,0,0,1-.279.108.371.371,0,0,1-.394-.393v-7.845a.371.371,0,0,1,.394-.393.366.366,0,0,1,.279.108.4.4,0,0,1,.1.285V169a2.035,2.035,0,0,1,.825-.946,2.49,2.49,0,0,1,1.295-.324A2.6,2.6,0,0,1,443.693,168.132Zm-.032,4.659a2.8,2.8,0,0,0,.539-1.834,2.93,2.93,0,0,0-.539-1.879,1.821,1.821,0,0,0-1.5-.673,1.8,1.8,0,0,0-1.492.66,3.575,3.575,0,0,0-.006,3.726,1.788,1.788,0,0,0,1.485.654A1.857,1.857,0,0,0,443.662,172.791Z" transform="translate(-216.932 -127.457)" fill="#464545"/>
  </g>
</svg>
