<?xml version="1.0" encoding="utf-8"?>
<!-- Generator: Adobe Illustrator 19.0.0, SVG Export Plug-In . SVG Version: 6.00 Build 0)  -->
<svg version="1.1" id="Layer_1" xmlns="http://www.w3.org/2000/svg" xmlns:xlink="http://www.w3.org/1999/xlink" x="0px" y="0px"
	 viewBox="-365 336.2 500 132.2" style="enable-background:new -365 336.2 500 132.2;" xml:space="preserve">
<style type="text/css">
	.st0{fill:#27235C;}
</style>
<g>
	<path class="st0" d="M-247.5,389.1c1.1,0.2,2.1,0.3,3,0.5c2.9,0.8,4.9,3.5,4.8,6.3c-0.2,2.9-2.4,5.2-5.5,5.7
		c-0.9,0.1-1.9,0.1-2.8,0.1c-8.5,0-16.9,0-25.4,0c-1,0-2.1,0-3.5,0c1.8,3.8,3.4,7.3,5.2,10.5c1.9,3.5,1.9,6.6-0.4,9.8
		c-1.6,2.2-2.9,4.6-4.4,7.1c0.9,0.3,1.5,0.5,2.1,0.7c3,1.2,4.5,3.7,4.2,7c-0.3,2.9-2.5,5.3-5.7,5.5c-4.3,0.2-8.6,0.3-12.8,0
		c-4.9-0.3-7.3-5.3-4.8-9.7c2.5-4.4,5.1-8.7,7.9-12.9c1.4-2.1,1.5-3.8,0.3-5.9c-1.9-3.3-3.4-6.8-5.1-10.2c-0.5-1.1-1.1-2.1-2.9-1.3
		c-0.1,2.2-0.3,4.5-0.4,6.8c0,0.9-0.1,1.7,0,2.6c0.3,4.2-1.5,6.7-5.5,8.2c-4.8,1.8-9.5,3.9-14.2,5.8c-0.7,0.3-1.3,0.6-2.3,1.1
		c0.7,1.2,1.3,2.2,1.8,3.3c1.5,3.2,0.5,6.8-2.4,8.4c-3.1,1.7-6.5,1-8.5-2c-2-3.2-4-6.5-5.7-9.8c-2-3.9-0.5-7.7,3.5-9.3
		c5.8-2.4,11.6-4.6,17.5-6.9c1-0.4,1.9-0.8,3-1.3c0-2.2,0-4.3,0-6.8c-1.2,0-2.2,0-3.2,0c-9.6,0-19.2,0-28.8,0c-1.1,0-2.3,0-3.4-0.2
		c-3.2-0.6-5.5-3.3-5.5-6.3c0-3.1,2.3-5.8,5.5-6.3c0.8-0.1,1.7-0.1,2.6-0.2c1.3-0.1,1.6-0.8,1.2-2.4c-2.7,0-5.5,0-8.3,0
		c-1.1,0-2.3,0-3.4,0c-3.5-0.2-6.1-2.8-6.1-6.2c-0.1-3.5,2.5-6.4,6.1-6.5c4.6-0.1,9.1-0.1,13.7,0c1.4,0,2.7-0.1,3-2.3
		c-1-0.1-2-0.2-2.9-0.2c-7.4,0-14.8,0-22.2,0c-4.6,0-7.5-4-6.2-8.4c0.8-2.6,3.2-4.4,6.3-4.5c4.9-0.1,9.9,0,14.8,0
		c6.1,0,12.2,0.1,18.2-0.1c1.2,0,2.7-0.4,3.6-1.1c5.6-4.4,11.9-7.5,18.8-9c0.4-0.1,0.7-0.2,1.2-0.4c-0.7-3.5-0.6-6.9,2.1-9.5
		c1.7-1.7,3.9-2.6,6.4-2.6c6,0.1,9.1,4.5,8.3,12.2C-263.6,353.8-251.1,367.3-247.5,389.1z M-259.4,385.2c-0.9-2.9-1.4-5.9-2.6-8.6
		c-3.4-7.8-9-13.5-17.4-16.1c-2.4-0.7-4.2,0.2-4.8,2.2c-0.6,2,0.3,3.8,2.6,4.7c8.7,3.1,13.1,9.6,14.5,18.4c0.4,2.5,1.8,3.8,3.9,3.6
		C-260.9,389.2-259.8,387.9-259.4,385.2z"/>
	<path class="st0" d="M-99.2,395.3c2.9-3.7,6.4-6.1,10.9-6.9c11.2-2.1,21.6,2.3,26.1,12.5c4.7,10.9,4.5,21.8-2.1,32
		c-4.6,7-11.3,10.4-19.8,10.4c-5.6,0-10.5-1.2-14.6-6.1c-0.1,1.2-0.2,1.9-0.2,2.6c0,7.1,0,14.2,0,21.3c-0.1,5.2-4.5,8.5-9.3,7
		c-2.8-0.9-4.4-2.9-4.9-5.7c-0.1-0.7-0.1-1.5-0.1-2.3c0-21.1,0-42.1,0-63.2c0-2.9,0.7-5.2,3.3-6.7c3.6-2.1,8.1-0.7,9.9,3.1
		C-99.8,393.8-99.6,394.4-99.2,395.3z M-99.3,415.5c0.5,2.3,0.8,4.7,1.6,6.9c1.8,4.7,5.4,7.3,10.3,7.8c4.9,0.5,9-1.3,11.7-5.5
		c3-4.7,2.9-9.7,1.5-14.8c-1.6-5.7-6.3-9.2-11.9-9.3c-5.5-0.1-10,3.2-11.9,8.9C-98.6,411.3-98.9,413.3-99.3,415.5z"/>
	<path class="st0" d="M-12.2,436.7c-11.9,11.6-31,7.8-37.1-7.9c-4.3-11-4-22,3.5-31.9c6.5-8.5,15.7-10.6,25.5-8.3
		c2.8,0.7,5.3,2.8,8,4.4c0-0.4,0.2-1.1,0.2-1.9c0.1-6.6,0.1-13.3,0.2-19.9c0.1-5,4.6-8.1,9.3-6.6c2.4,0.8,3.9,2.4,4.5,4.7
		c0.3,1.2,0.5,2.4,0.5,3.7c-0.1,20.6-0.2,41.2-0.2,61.8c0,3.1-0.8,5.7-3.9,7c-2.6,1.1-5.1,0.9-7.2-0.8
		C-10.3,440-11.1,438.3-12.2,436.7z M-11.6,415.9c-0.1,0-0.2-0.1-0.3-0.1c-0.2-1.4-0.2-2.8-0.5-4.2c-1-5.6-5.3-9.7-10.9-10.5
		c-5.1-0.7-10.6,1.9-12.7,6.8c-2.5,5.5-2.5,11.3,0.5,16.7c2.4,4.3,6.3,6.3,11.1,6.2c4.9-0.2,8.8-2.5,10.7-7.2
		C-12.8,421.1-12.3,418.4-11.6,415.9z"/>
	<path class="st0" d="M102.5,392.3c3.3-2.8,7.2-4.1,11.5-4.5c10.7-1.1,19.3,5.6,20.7,16.2c0.3,2.6,0.5,5.3,0.5,7.9
		c0.1,7.5,0,15,0,22.5c0,2.9-0.9,5.4-3.6,7c-4.7,2.8-10.6-0.4-10.7-5.9c-0.1-7.9,0-15.8,0-23.6c0-1.2-0.1-2.5-0.3-3.7
		c-1-5-3.8-7.4-8.8-7.6c-4.6-0.2-8.3,2.4-9.5,7c-0.4,1.4-0.5,2.8-0.5,4.2c-0.1,7.7,0,15.4,0,23.1c0,2.4-0.7,4.5-2.6,6
		c-4,3.2-9.7,1.5-11.2-3.4c-0.4-1.2-0.4-2.6-0.4-3.9c0-20.2,0-40.4,0-60.7c0-0.6,0-1.1,0-1.7c0.3-4.4,3.1-7.1,7.3-7.1
		c4.2,0,7.1,2.9,7.1,7.2c0.1,5.9,0,11.8,0,17.7c0,1,0,2,0,3C102.1,392.1,102.3,392.2,102.5,392.3z"/>
	<path class="st0" d="M-201.5,389.8c2.4,0,4.3,0,6.3,0c1.1,0,2.3,0,3.4,0.3c3,0.8,4.9,3.5,4.5,6.4c-0.3,3-2.6,5.3-5.6,5.5
		c-2.2,0.1-4.4,0-6.5,0.1c-0.6,0-1.3,0.1-2.2,0.2c-0.1,1.2-0.1,2.3-0.1,3.4c0,9.8,0,19.6,0,29.3c0,3.1-1.1,5.3-3.9,6.7
		c-4.3,2.1-9.1-0.1-10.2-4.8c-0.3-1.2-0.3-2.4-0.3-3.7c0-9.3,0-18.6,0-27.9c0-1,0-2,0-3.5c-2.4,0-4.6,0.1-6.7,0
		c-2.4-0.1-4.4-1.2-5.4-3.6c-1-2.2-0.6-4.3,0.7-6.2c1.3-1.7,3.1-2.5,5.2-2.5c2.1,0,4.2,0,6.6,0c0.1-1.3,0.1-2.4,0.1-3.5
		c0.2-2.8,0.1-5.7,0.8-8.5c2.7-10.8,12.7-14.4,21.6-13.1c1.7,0.3,3.5,0.9,5.1,1.7c2.5,1.4,3.5,4.2,2.8,6.9c-0.6,2.3-2.6,3.6-5.7,3.8
		c-1.9,0.1-3.8,0.1-5.6,0.6c-3,0.7-4.5,2.6-4.7,5.7C-201.6,385.1-201.5,387.2-201.5,389.8z"/>
	<path class="st0" d="M58.6,387.7c3.2,0.6,6.5,1.1,9.7,1.9c3.1,0.8,5.3,2.8,7.1,5.4c1.7,2.5,1.6,4.9-0.3,7c-1.9,2.1-4.7,2.7-7.2,1.3
		c-1.5-0.8-2.7-2-4.2-3c-2.9-2-5.9-2-8.9-0.4c-1.7,0.9-2.8,2.4-2.6,4.4c0.2,2,1.5,3.2,3.4,3.8c0.9,0.3,1.8,0.5,2.8,0.7
		c3.1,0.8,6.3,1.4,9.4,2.3c2.9,0.8,5.5,2.2,7.6,4.3c7.9,8,4.9,21.9-5.9,26.1c-7.1,2.8-14.3,2.7-21.3-0.4c-3.1-1.4-5.7-3.4-7.6-6.3
		c-1.6-2.4-1.5-5.4,0.4-7.3c2.1-2.3,5.2-2.7,7.7-0.9c1.1,0.7,2,1.7,3,2.7c2.8,2.6,6,3.5,9.7,2.8c2.7-0.5,4.6-2.4,4.7-4.7
		c0.1-2.2-1.3-4-4-4.8c-2.3-0.7-4.6-1.1-6.9-1.8c-2.3-0.6-4.6-1.1-6.8-2.1c-8-3.4-11.5-12.3-7.7-20.1
		C44.1,391.1,50.3,387.8,58.6,387.7z"/>
	<path class="st0" d="M-176.5,398c0-8.6,0-17.3,0-25.9c0-3.9,1.8-6.4,5-7.5c4.2-1.4,8.5,0.9,9.4,5.2c0.3,1.4,0.4,2.8,0.4,4.2
		c0,16.1,0,32.3,0,48.4c0,1.2,0.1,2.5,0.6,3.6c0.7,1.7,2.4,1.8,4.1,2.1c6.8,1,7.6,8.2,4.9,11.7c-1.5,1.8-3.3,2.7-5.7,2.7
		c-10.1,0.3-18.4-8-18.7-18.6c0-0.2,0-0.4,0-0.6C-176.5,414.9-176.5,406.5-176.5,398z"/>
	<path class="st0" d="M14.9,415.6c0-6.5-0.1-12.9,0-19.4c0.1-4.4,3.2-7.3,7.5-7.1c3.6,0.1,6.3,2.7,6.7,6.5c0.2,1.5,0,3,0,4.5
		c0,11.7,0.1,23.3,0.1,35c0,5.8-5.6,9.1-10.6,6.4c-2.6-1.4-3.8-3.6-3.7-6.5C14.9,428.5,14.9,422.1,14.9,415.6
		C14.9,415.6,14.9,415.6,14.9,415.6z"/>
	<path class="st0" d="M-142,415.5c0-6.6,0-13.1,0-19.7c0-3.4,2.3-6.1,5.5-6.7c3.6-0.6,6.9,1,8.1,4.3c0.5,1.4,0.6,3,0.6,4.5
		c0.1,11.8,0.2,23.5,0.3,35.3c0,1.3-0.1,2.7-0.4,3.9c-0.9,3.5-4.1,5.6-7.8,5.2c-3.5-0.4-6.2-3.1-6.2-6.6
		C-142,429-142,422.3-142,415.5C-142,415.5-142,415.5-142,415.5z"/>
	<path class="st0" d="M31,372.5c0.1,5-3.7,8.8-8.7,8.9c-4.9,0-8.8-3.6-8.9-8.4c-0.1-5,3.9-9,8.9-9.1C27.1,363.8,30.9,367.6,31,372.5
		z"/>
	<path class="st0" d="M-126.1,372.9c-0.1,4.9-3.8,8.5-8.8,8.4c-5-0.1-8.7-3.9-8.6-9c0.1-4.9,3.9-8.6,8.8-8.5
		C-129.7,363.9-126,367.8-126.1,372.9z"/>
</g>
</svg>
