<svg xmlns="http://www.w3.org/2000/svg" role="img" style="fill: rgb(255, 255, 255); transition: fill .35s; width: 261px; height: 66px;" viewBox="0 0.03 261 65.97">
    <title>zensar</title><desc>Foolproof and Zensar</desc><g fill="#000"><path d="M253.9 12.2l2.3.2a15.2 15.2 0 0 0 2.1.3 2.6 2.6 0 0 0 2.7-2.6c0-2.8-3.9-3.1-5.6-3.1-4.8 0-10.3.9-10.3 8.3v1.1h-2.4c-1.7 0-2.7.9-2.7 2.5a2.6 2.6 0 0 0 2.8 2.6h2.5v12.9c0 1.7 0 3.6 2.7 3.6a3.6 3.6 0 0 0 2-.6 4.3 4.3 0 0 0 .6-2.8V21.5h6.4a2.5 2.5 0 0 0 2.7-2.6c0-1.6-1-2.5-2.7-2.5h-6.5c0-2.9.6-4.2 3.4-4.2M227 32.1a6.1 6.1 0 0 1-6.3-6.4c0-3.9 2.6-6.6 6.3-6.6s6.4 2.7 6.4 6.6a6.1 6.1 0 0 1-6.4 6.4m0-18.1c-7.1 0-12 4.7-12 11.5S219.9 37 227 37s12-4.7 12-11.5S234.1 14 227 14M200 32.1a6.1 6.1 0 0 1-6.3-6.4c0-3.9 2.6-6.6 6.3-6.6s6.4 2.7 6.4 6.6a6.1 6.1 0 0 1-6.4 6.4m0-18.1c-7.1 0-12 4.7-12 11.5S192.9 37 200 37s12-4.7 12-11.5S207.1 14 200 14M181.6 14a11.9 11.9 0 0 0-8.2 3.5 3.7 3.7 0 0 0-.7-2.8 3 3 0 0 0-2-.6 3.6 3.6 0 0 0-2 .6 4 4 0 0 0-.7 2.9v16a5.1 5.1 0 0 0 .4 2.4c.3.7 1.1 1.1 2.3 1.1a3.6 3.6 0 0 0 2-.6 3.8 3.8 0 0 0 .7-2.8v-9.9c2.6-2.9 4.8-4.3 6.8-4.3a4.9 4.9 0 0 1 1.7.6 4.4 4.4 0 0 0 2.1.7 3.1 3.1 0 0 0 3-3c0-2.8-3.2-3.8-5.4-3.8M149.1 25.6c0-3.5 2.4-6.2 5.6-6.2s5.7 2.7 5.7 6.2-2.4 6.2-5.7 6.2-5.6-2.6-5.6-6.2m6-11.6a10.8 10.8 0 0 0-6 1.8c-.2-1.2-1.1-1.8-2.5-1.8a3.1 3.1 0 0 0-2 .7c-.6.6-.6 1.6-.6 2.7v25.3a4 4 0 0 0 .6 2.7 3 3 0 0 0 2 .6 2.6 2.6 0 0 0 1.9-.6 4 4 0 0 0 .6-2.7V35a11.2 11.2 0 0 0 6.4 1.9c6 0 10.5-4.8 10.5-11.1S161.2 14 155.1 14M139.3 7.6A3.6 3.6 0 0 0 137 7a4 4 0 0 0-2.2.6 3.3 3.3 0 0 0-.8 2.7v24.2a4.5 4.5 0 0 0 .4 2.4c.4.7 1.3 1.1 2.7 1.1a4 4 0 0 0 2.2-.6 3.6 3.6 0 0 0 .7-2.7V10.3a3.6 3.6 0 0 0-.7-2.7M119 32.1a6.1 6.1 0 0 1-6.3-6.4c0-3.9 2.6-6.6 6.3-6.6s6.4 2.7 6.4 6.6a6.1 6.1 0 0 1-6.4 6.4m0-18.1c-7.1 0-12 4.7-12 11.5S111.9 37 119 37s12-4.7 12-11.5S126.1 14 119 14M92 32.1a6.1 6.1 0 0 1-6.3-6.4c0-3.9 2.6-6.6 6.3-6.6s6.4 2.7 6.4 6.6a6.1 6.1 0 0 1-6.4 6.4M92 14c-7.1 0-12 4.7-12 11.5S84.9 37 92 37s12-4.7 12-11.5S99.1 14 92 14M80.5 14.2a2.6 2.6 0 0 0 2.5-2.6A2.6 2.6 0 0 0 80.5 9H66.6a2.5 2.5 0 0 0-2.6 2.8v22.4c0 1.7 0 3.8 2.8 3.8s2.8-2 2.8-3.8v-9.7H76a2.5 2.5 0 0 0 2.4-2.4 2.4 2.4 0 0 0-2.4-2.4h-6.4v-5.5zM44 20.9v-9.6a2.1 2.1 0 0 0-.5-1.2L33.4.2c-.3-.3-.5-.2-.5.2v9.5a.7.7 0 0 1-.7.7H11.4a.8.8 0 0 0-.7.7v9.6a.7.7 0 0 0 .7.7H33v9.8a.7.7 0 0 1-.7.7H11.5a.8.8 0 0 0-.7.7v20.5a.8.8 0 0 1-.2.5.6.6 0 0 1-.5.2H.4c-.4 0-.5.3-.3.5l10.1 10a1.8 1.8 0 0 0 1.2.5h9.7a.7.7 0 0 0 .7-.7V43.8a.7.7 0 0 1 .7-.7h20.8a.7.7 0 0 0 .7-.7v-9.6a1.6 1.6 0 0 0-.5-1.1l-10.1-10h9.9a.7.7 0 0 0 .7-.8zM70.6 66c-.2 0-.3-.3-.4-.6l-1-2.7h-4.4l-1 2.7c-.1.3-.2.6-.4.6s-.4-.1-.4-.3a.8.8 0 0 1 .2-.5l3.2-8.7c.2-.4.3-.5.6-.5s.5.1.6.5l3.2 8.7a.8.8 0 0 1 .2.5c0 .2-.2.3-.4.3zM67 56.8l-2 5.3h4zM91.9 56.6l-5.8 7.7h5.3c.4 0 .5.2.5.4s-.1.3-.5.3h-6c-.2 0-.4-.1-.4-.3s.1-.2.1-.3l5.8-7.7h-5.3c-.3 0-.5-.1-.5-.4s.2-.3.5-.3h6a.4.4 0 0 1 .4.3c0 .1-.1.2-.1.3zM103.5 65h-6.2c-.2 0-.3 0-.3-.4v-8.2c0-.4.1-.4.3-.4h6.2c.4 0 .5.1.5.3s-.1.4-.5.4h-5.7v3h3.1a.5.5 0 0 1 .5.4c0 .2-.2.3-.5.3h-3.1v3.9h5.7c.4 0 .5.1.5.4s-.1.3-.5.3zM115.5 66a.8.8 0 0 1-.7-.4l-5-8.4v8.3a.5.5 0 0 1-.4.5c-.3 0-.4-.1-.4-.5v-9.1a.5.5 0 0 1 .5-.4c.3 0 .5.1.7.5l5 8.3v-8.3a.5.5 0 0 1 .4-.5c.2 0 .4.1.4.5v9.1a.5.5 0 0 1-.5.4zM124.5 66c-2.2 0-3.5-1.4-3.5-3s.1-.4.3-.4.4.1.4.4a2.6 2.6 0 0 0 2.8 2.3c1.3 0 2.8-.6 2.8-2.1a1.9 1.9 0 0 0-1.8-1.7l-1.5-.3c-1.2-.2-2.6-1-2.6-2.5s1.4-2.7 3.1-2.7a3.1 3.1 0 0 1 3.2 2.4c0 .4 0 .6-.3.6s-.3-.2-.4-.5a2.5 2.5 0 0 0-2.5-1.8c-1.3 0-2.4.6-2.4 2s.8 1.6 2 1.8l1.5.2a2.7 2.7 0 0 1 2.4 2.5c0 1.1-.9 2.8-3.5 2.8zM140.6 66c-.2 0-.3-.3-.4-.6l-1-2.7h-4.4l-1 2.7c-.1.3-.2.6-.4.6s-.4-.1-.4-.3a.8.8 0 0 1 .2-.5l3.2-8.7c.2-.4.3-.5.6-.5s.5.1.6.5l3.2 8.7a.8.8 0 0 1 .2.5c0 .2-.2.3-.4.3zm-3.6-9.2l-2 5.3h4zM152.6 65c-.1 0-.3-.1-.3-.2l-2-2.8a2.5 2.5 0 0 0-2-1.2h-1.6v3.8c0 .3-.1.4-.3.4s-.4-.1-.4-.4v-8.3a.3.3 0 0 1 .3-.3h3.4a2.6 2.6 0 0 1 2.8 2.4 2.4 2.4 0 0 1-2.5 2.3 3.2 3.2 0 0 1 1 1l1.9 2.7c0 .1.1.2.1.3s-.2.3-.4.3zm-2.9-8.3h-3v3.4h3a2.3 2.3 0 0 0 1.8-.8 1.9 1.9 0 0 0 0-1.8 1.8 1.8 0 0 0-1.8-.8zM174.4 64.8a3.9 3.9 0 0 1-2.8 1.2c-2.9 0-4.6-2.2-4.6-5s1.4-5 4.2-5a3.6 3.6 0 0 1 2.8 1.2c.5.4.7.7.7.8a.4.4 0 0 1-.4.4l-.3-.2a3.6 3.6 0 0 0-2.7-1.5c-2.4 0-3.6 1.9-3.6 4.3s1.4 4.3 3.9 4.3a3.4 3.4 0 0 0 2.7-1.5l.3-.2h.3a.4.4 0 0 1 .1.3 2.1 2.1 0 0 1-.6.9zM184 66c-2.5 0-4-2.4-4-5s1.4-5 4-5 4 2.3 4 5-1.4 5-4 5zm0-9.3c-2.2 0-3.3 2-3.3 4.3s1.1 4.3 3.3 4.3 3.3-2 3.3-4.3-1.1-4.3-3.3-4.3zM201.6 66c-.2 0-.3-.1-.4-.5l-.2-8.6-2.3 5.5c-.1.3-.3.4-.7.4a.7.7 0 0 1-.7-.4l-2.2-5.5-.3 8.6c0 .4-.2.5-.4.5s-.4-.1-.4-.5l.3-8.9c0-.2 0-.3.2-.4s.3-.2.5-.2.6.1.7.4L198 62l2.3-5.6c.1-.3.3-.4.7-.4l.5.2c.2.1.2.2.2.4l.3 8.9c0 .4-.1.5-.4.5zM210 61.3h-2.2v3.3a.4.4 0 0 1-.4.4c-.3 0-.4-.1-.4-.4v-8.3c0-.3.1-.3.3-.3h2.7c2.9 0 4 1 4 2.7s-1.1 2.6-4 2.6zm.2-4.6h-2.4v4h2.4c2.1 0 3-.6 3-2s-1-2-3-2zM225.6 66c-.2 0-.3-.3-.4-.6l-1-2.7h-4.4l-1 2.7c-.1.3-.2.6-.4.6s-.4-.1-.4-.3a.8.8 0 0 1 .2-.5l3.2-8.7c.2-.4.3-.5.6-.5s.5.1.6.5l3.2 8.7a.8.8 0 0 1 .2.5c0 .2-.2.3-.4.3zm-3.6-9.2l-2 5.3h3.9zM237.5 66a.8.8 0 0 1-.7-.4l-5-8.4v8.3a.5.5 0 0 1-.4.5c-.3 0-.4-.1-.4-.5v-9.1a.5.5 0 0 1 .5-.4c.3 0 .5.1.7.5l5 8.3v-8.3a.5.5 0 0 1 .4-.5c.2 0 .4.1.4.5v9.1a.5.5 0 0 1-.5.4zM249.9 56.6l-3 5.5v3.4c0 .4-.2.5-.4.5s-.3-.1-.3-.4v-3.5l-3.1-5.5a.4.4 0 0 1-.1-.3c0-.2.2-.3.4-.3s.2.1.3.3l2.8 5 2.8-5q.1-.3.3-.3a.4.4 0 0 1 .4.3.4.4 0 0 1-.1.3z"/></g></svg>