<?xml version="1.0" encoding="utf-8"?>
<!-- Generator: Adobe Illustrator 19.2.1, SVG Export Plug-In . SVG Version: 6.00 Build 0)  -->
<svg version="1.1" id="layer" xmlns="http://www.w3.org/2000/svg" xmlns:xlink="http://www.w3.org/1999/xlink" x="0px" y="0px"
	 viewBox="0 0 652 652" style="enable-background:new 0 0 652 652;" xml:space="preserve">
<style type="text/css">
	.st0{fill:#FBB343;}
</style>
<g>
	<g id="logo_dark">
		<path id="XMLID_1_" class="st0" d="M626,347.9c0,11.5-9.3,20.7-20.7,20.7c-11.5,0-20.7-9.3-20.7-20.7c0-11.5,9.3-20.7,20.7-20.7
			C616.7,327.8,626,337,626,347.9"/>
		<polygon id="XMLID_3_" points="41.8,299.9 41.8,319 77.3,319 77.3,333.8 41.8,333.8 41.8,367 26,367 26,284.7 84.4,284.7 
			84.4,299.9 		"/>
		<path id="XMLID_4_" d="M259.5,284.7v48.5c0,22.9-13.1,35.5-34.4,35.5c-21.3,0-34.4-12.5-34.4-35.5v-48.5h16.9v48.5
			c0,13.6,6,20.2,17.5,20.2c11.5,0,17.5-6.5,17.5-20.2v-48.5H259.5z"/>
		<path id="XMLID_7_" d="M342.4,284.7V367h-14.7c0,0-35.5-54.5-36-54.5h-0.5V367h-15.3v-82.4h14.7c0,0,35.5,54,36,54l0,0v-54H342.4z
			"/>
		<path id="XMLID_8_" d="M389.8,284.7c23.5,0,40.4,16.4,40.4,41.5S413.3,367,389.8,367h-31.1v-82.4H389.8z M390.9,351.8
			c13.1,0,22.9-9.3,22.9-25.6c0-16.9-10.4-26.7-23.5-26.7h-15.3v52.4H390.9z"/>
		<path id="XMLID_10_" d="M496.2,367l-14.7-28.4h-19.6V367H446v-82.4h34.9c18.5,0,30.5,10.9,30.5,27.3c0,11.5-5.5,19.6-14.7,23.5
			l17.5,31.6C514.2,367,496.2,367,496.2,367z M461.8,324.5H482c8.2,0,12.5-6,12.5-12.5c0-7.1-4.4-12.5-12.5-12.5h-20.2V324.5z"/>
		<path id="XMLID_11_" d="M590,284.7l-29.5,45.8V367h-15.8v-36.5l-29.5-45.8h18l19.6,31.6l0,0l19.6-31.6
			C572.5,284.7,590,284.7,590,284.7z"/>
		<path id="XMLID_15_" d="M178.2,325.6c0,23.5-19.1,42.5-42.5,42.5S93.1,349,93.1,325.6c-0.5-23.5,18.5-42.5,42-42.5
			C159.1,283,178.2,302.1,178.2,325.6 M135.1,352.8c14.7,0,26.7-12,26.7-26.7s-12-26.7-26.7-26.7c-14.7,0-26.7,12-26.7,26.7
			S120.4,352.8,135.1,352.8"/>
	</g>
</g>
</svg>
