<?xml version="1.0" encoding="utf-8"?>
<!-- Generator: Adobe Illustrator 25.2.1, SVG Export Plug-In . SVG Version: 6.00 Build 0)  -->
<svg version="1.1" id="Layer_1" xmlns="http://www.w3.org/2000/svg" xmlns:xlink="http://www.w3.org/1999/xlink" x="0px" y="0px"
	 viewBox="0 0 500.7 172.1" style="enable-background:new 0 0 500.7 172.1;" xml:space="preserve">
<style type="text/css">
	.st0{fill:#04587A;}
	.st1{fill:none;}
	.st2{clip-path:url(#SVGID_2_);fill:url(#SVGID_3_);}
	.st3{clip-path:url(#SVGID_5_);fill:url(#SVGID_6_);}
	.st4{clip-path:url(#SVGID_8_);fill:url(#SVGID_9_);}
	.st5{clip-path:url(#SVGID_11_);fill-rule:evenodd;clip-rule:evenodd;fill:#0A3B4F;}
	.st6{clip-path:url(#SVGID_13_);fill:url(#SVGID_14_);}
	.st7{clip-path:url(#SVGID_16_);fill:url(#SVGID_17_);}
	.st8{clip-path:url(#SVGID_19_);fill:url(#SVGID_20_);}
	.st9{clip-path:url(#SVGID_22_);fill:url(#SVGID_23_);}
	.st10{clip-path:url(#SVGID_25_);fill:url(#SVGID_26_);}
	.st11{clip-path:url(#SVGID_28_);fill:url(#SVGID_29_);}
	.st12{clip-path:url(#SVGID_31_);fill:url(#SVGID_32_);}
	.st13{clip-path:url(#SVGID_34_);fill:url(#SVGID_35_);}
	.st14{clip-path:url(#SVGID_37_);fill:url(#SVGID_38_);}
	.st15{clip-path:url(#SVGID_40_);fill:url(#SVGID_41_);}
</style>
<path class="st0" d="M228.3,52.6H303c0.2,0,0.3,0.1,0.3,0.3v15.4c0,0.2-0.1,0.3-0.3,0.3h-53.4v10.4H303c0.2,0,0.3,0.1,0.3,0.3v14.1
	c0,0.2-0.1,0.3-0.3,0.3h-53.4v26.2c0,0.2-0.1,0.3-0.3,0.3h-21c-0.2,0-0.3-0.1-0.3-0.3V53C228,52.8,228.1,52.6,228.3,52.6"/>
<path class="st0" d="M344.2,52.6h67c0.2,0,0.3,0.1,0.3,0.3v15.4c0,0.2-0.1,0.3-0.3,0.3h-59.9c-2.6,0-4.4,1.2-5.4,3.5
	c-0.2,1-0.3,1.6-0.3,1.8c0,2.5,1.6,4.2,4.7,5.1h40.2c7.6,0,13.7,3.3,18.5,9.8c1.6,2.9,2.4,5.8,2.4,8.5v3.8c0,8.7-5,14.8-15,18.3
	c-2.3,0.5-4.4,0.7-6.2,0.7h-66.5c-0.2,0-0.3-0.1-0.3-0.3v-15.4c0-0.2,0.1-0.3,0.3-0.3h59.8c2.5,0,4.2-1,5.1-3
	c0.4-0.8,0.6-1.6,0.6-2.3c0-2.5-1.5-4.1-4.4-5c-0.5-0.1-1.1-0.2-1.8-0.2h-38.9c-7.6,0-13.7-3.3-18.4-9.8c-1.6-2.9-2.4-5.8-2.4-8.5
	v-4.5c0-6.3,3.3-11.5,10-15.4C336.8,53.6,340.4,52.6,344.2,52.6"/>
<path class="st0" d="M431.8,52.6h21c0.2,0,0.3,0.1,0.3,0.3v51.2h47.3c0.2,0,0.3,0.1,0.3,0.3v15.4c0,0.2-0.1,0.3-0.3,0.3h-68.6
	c-0.2,0-0.3-0.1-0.3-0.3V53C431.5,52.8,431.6,52.6,431.8,52.6"/>
<rect class="st1" width="500.7" height="172.1"/>
<g>
	<defs>
		<path id="SVGID_1_" d="M143.8,119.5l-8.6-5.3c-9.3,15.2-26,25.3-45.1,25.3c-9.8,0-18.9-2.7-26.8-7.3l-8.6,14.6
			c10.4,6.1,22.5,9.6,35.4,9.6c35.9,0,65.5-27.2,69.3-62.1l-6.8-0.8C151.6,103.1,148.5,111.8,143.8,119.5"/>
	</defs>
	<clipPath id="SVGID_2_">
		<use xlink:href="#SVGID_1_"  style="overflow:visible;"/>
	</clipPath>
	
		<linearGradient id="SVGID_3_" gradientUnits="userSpaceOnUse" x1="-1.008080e-05" y1="172.116" x2="1" y2="172.116" gradientTransform="matrix(0 62.8164 62.8164 0 -10704.6299 93.6776)">
		<stop  offset="0" style="stop-color:#9C1543"/>
		<stop  offset="0.2238" style="stop-color:#A21945"/>
		<stop  offset="0.5207" style="stop-color:#B4244C"/>
		<stop  offset="0.8572" style="stop-color:#D43659"/>
		<stop  offset="1" style="stop-color:#E64060"/>
	</linearGradient>
	<rect x="54.7" y="93.7" class="st2" width="104.7" height="62.8"/>
</g>
<g>
	<defs>
		<path id="SVGID_4_" d="M55.7,63.9c-4.4,6.5-6.9,14.4-6.9,22.8c0,15.1,8.2,28.4,20.3,35.6l0,0l0,0l0,0l0,0l0,0l0,0l0,0l0,0l0,0.1
			l0,0.1l0,0.1l0,0.1l-0.2,0.3l0,0.1l-1.9,3.2l0,0l0,0c6.8,4,14.8,6.3,23.3,6.3c5.8,0,11.3-1.1,16.4-3l-5.8-15.2
			c-3.3,1.3-6.9,2-10.6,2c-16.4,0-29.7-13.3-29.7-29.7c0-6.1,1.8-11.7,5-16.4l-13.6-9L55.7,63.9z"/>
	</defs>
	<clipPath id="SVGID_5_">
		<use xlink:href="#SVGID_4_"  style="overflow:visible;"/>
	</clipPath>
	
		<linearGradient id="SVGID_6_" gradientUnits="userSpaceOnUse" x1="2.031194e-06" y1="172.116" x2="1" y2="172.116" gradientTransform="matrix(0 71.3662 71.3662 0 -12205.584 61.2989)">
		<stop  offset="0" style="stop-color:#6C4796"/>
		<stop  offset="0.1543" style="stop-color:#684492"/>
		<stop  offset="0.3558" style="stop-color:#5E3C84"/>
		<stop  offset="0.5837" style="stop-color:#4E3170"/>
		<stop  offset="0.8289" style="stop-color:#3B2458"/>
		<stop  offset="0.9999" style="stop-color:#2C1A45"/>
		<stop  offset="1" style="stop-color:#2C1A45"/>
	</linearGradient>
	<rect x="48.9" y="61.3" class="st3" width="57.6" height="71.4"/>
</g>
<g>
	<defs>
		<path id="SVGID_7_" d="M20.3,86.7c0,13.3,3.7,25.8,10.2,36.3l14.5-8.8c4.5,7.4,10.8,13.6,18.3,18l3.5-5.9
			c-13.6-8-22.7-22.7-22.7-39.6c0-9.4,2.8-18.1,7.7-25.4l3.9,2.6c5-7.5,12.4-13.3,21.1-16.2l-7-20.5c6.3-2.1,13.1-3.3,20.2-3.3
			c17.4,0,33.1,7,44.5,18.4l4.8-4.8C126.8,24.8,109.4,17,90.1,17C51.6,17,20.3,48.2,20.3,86.7"/>
	</defs>
	<clipPath id="SVGID_8_">
		<use xlink:href="#SVGID_7_"  style="overflow:visible;"/>
	</clipPath>
	
		<linearGradient id="SVGID_9_" gradientUnits="userSpaceOnUse" x1="2.647029e-06" y1="172.116" x2="1" y2="172.116" gradientTransform="matrix(0 115.2899 115.2899 0 -19763.3652 16.9597)">
		<stop  offset="0" style="stop-color:#0A3B4F"/>
		<stop  offset="0.1105" style="stop-color:#0D4054"/>
		<stop  offset="0.2543" style="stop-color:#154B62"/>
		<stop  offset="0.4166" style="stop-color:#215F7A"/>
		<stop  offset="0.5924" style="stop-color:#2F7898"/>
		<stop  offset="0.7791" style="stop-color:#4298BE"/>
		<stop  offset="0.9723" style="stop-color:#58BFEB"/>
		<stop  offset="1" style="stop-color:#5BC5F2"/>
	</linearGradient>
	<rect x="20.3" y="17" class="st4" width="119.1" height="115.3"/>
</g>
<g>
	<defs>
		<rect id="SVGID_10_" width="500.7" height="172.1"/>
	</defs>
	<clipPath id="SVGID_11_">
		<use xlink:href="#SVGID_10_"  style="overflow:visible;"/>
	</clipPath>
	<path class="st5" d="M54.7,146.9c-9.9-5.8-18.2-14-24.2-23.8l14.5-8.8c4.5,7.4,10.8,13.6,18.3,18L54.7,146.9L54.7,146.9z"/>
</g>
<g>
	<defs>
		<path id="SVGID_12_" d="M69.9,27.1l7,20.5l0,0c4.2-1.4,8.6-2.2,13.2-2.2c11.4,0,21.7,4.6,29.2,12.1l15.3-15.3
			c-11.4-11.4-27.1-18.4-44.5-18.4C83,23.8,76.2,25,69.9,27.1"/>
	</defs>
	<clipPath id="SVGID_13_">
		<use xlink:href="#SVGID_12_"  style="overflow:visible;"/>
	</clipPath>
	
		<linearGradient id="SVGID_14_" gradientUnits="userSpaceOnUse" x1="0" y1="172.0979" x2="1" y2="172.0979" gradientTransform="matrix(51.0967 13.9355 13.9355 -51.0967 -2334.8955 8823.7129)">
		<stop  offset="0" style="stop-color:#7D933D"/>
		<stop  offset="0.1901" style="stop-color:#819741"/>
		<stop  offset="0.436" style="stop-color:#8DA24E"/>
		<stop  offset="0.7126" style="stop-color:#A1B567"/>
		<stop  offset="1" style="stop-color:#BDD18B"/>
	</linearGradient>
	<polygon class="st6" points="74.4,7.4 143.2,26.1 130.1,74 61.3,55.2 	"/>
</g>
<g>
	<defs>
		<path id="SVGID_15_" d="M119.3,57.6c-7.5-7.5-17.8-12.1-29.2-12.1c-4.6,0-9.1,0.8-13.2,2.2h0l3.7,11c3-1,6.2-1.6,9.5-1.6
			c16.4,0,29.7,13.3,29.7,29.7c0,5.7-1.6,10.9-4.3,15.4l19.8,12.1c3.9-6.4,6.5-13.8,7.4-21.7l10.1,1.1c0.3-2.3,0.4-4.6,0.4-6.9
			c0-17.4-7-33.1-18.4-44.5L119.3,57.6z"/>
	</defs>
	<clipPath id="SVGID_16_">
		<use xlink:href="#SVGID_15_"  style="overflow:visible;"/>
	</clipPath>
	
		<linearGradient id="SVGID_17_" gradientUnits="userSpaceOnUse" x1="-4.809446e-06" y1="172.116" x2="1" y2="172.116" gradientTransform="matrix(76.1441 0 0 -76.1441 76.8664 13183.8516)">
		<stop  offset="0" style="stop-color:#01444F"/>
		<stop  offset="0.153" style="stop-color:#004852"/>
		<stop  offset="0.3542" style="stop-color:#00535C"/>
		<stop  offset="0.5824" style="stop-color:#00676D"/>
		<stop  offset="0.8284" style="stop-color:#008685"/>
		<stop  offset="0.9999" style="stop-color:#00A19A"/>
		<stop  offset="1" style="stop-color:#00A19A"/>
	</linearGradient>
	<rect x="76.9" y="42.2" class="st7" width="76.1" height="72"/>
</g>
<g>
	<defs>
		<path id="SVGID_18_" d="M135.2,114.2l8.6,5.3c4.7-7.7,7.8-16.4,8.8-25.8l-10.1-1.1C141.7,100.4,139.1,107.8,135.2,114.2"/>
	</defs>
	<clipPath id="SVGID_19_">
		<use xlink:href="#SVGID_18_"  style="overflow:visible;"/>
	</clipPath>
	
		<linearGradient id="SVGID_20_" gradientUnits="userSpaceOnUse" x1="2.747905e-05" y1="172.116" x2="1" y2="172.116" gradientTransform="matrix(0 26.9315 26.9315 0 -4491.4341 92.5603)">
		<stop  offset="0" style="stop-color:#36A9E1"/>
		<stop  offset="0.9997" style="stop-color:#36A9E1"/>
		<stop  offset="1" style="stop-color:#36A9E1"/>
	</linearGradient>
	<rect x="135.2" y="92.6" class="st8" width="17.5" height="26.9"/>
</g>
<g>
	<defs>
		<path id="SVGID_21_" d="M44.2,86.7c0,0.3,0,0.5,0,0.8v0c0,0.2,0,0.5,0,0.7v0l0,0.4l0,0.4l0,0.4l0,0.4l0,0.4l0,0.4l0,0.3l0,0.4
			l0,0.3l0,0.4l0,0.4l0,0.3l0.1,0.4l0.1,0.4l0,0.3l0.1,0.4l0.1,0.3l0.1,0.4l0.1,0.4l0.1,0.4l0.1,0.3l0.1,0.4l0.1,0.3l0.1,0.4
			l0.1,0.3l0.1,0.4l0.1,0.3l0.1,0.4l0.1,0.4l0.1,0.4l0.1,0.3l0.1,0.4l0.1,0.3l0.1,0.4l0.1,0.3l0.1,0.4l0.1,0.3l0.1,0.3l0.1,0.3
			l0.1,0.4l0.1,0.3l0.2,0.4l0.1,0.3l0.2,0.4l0.1,0.2l0.2,0.5l0.1,0.2c0.1,0.2,0.2,0.3,0.2,0.5l0.1,0.1c0.1,0.2,0.2,0.4,0.3,0.6
			l0,0.1c0.1,0.2,0.2,0.4,0.3,0.6l0.1,0.1c0.4,0.9,0.9,1.7,1.4,2.6l0,0c0.7,1.3,1.5,2.5,2.4,3.7l0.1,0.1c0.3,0.4,0.5,0.7,0.8,1.1
			l0,0c0.1,0.2,0.3,0.4,0.4,0.5l0.1,0.1c0.1,0.2,0.3,0.3,0.4,0.5l0.1,0.1c0.1,0.2,0.3,0.3,0.4,0.5l0.1,0.1c0.1,0.2,0.3,0.3,0.4,0.5
			l0.1,0.1c0.1,0.2,0.3,0.3,0.4,0.5l0,0c0.2,0.2,0.3,0.3,0.5,0.5l0.1,0.1c0.2,0.2,0.3,0.3,0.5,0.5l0,0c0.2,0.2,0.3,0.3,0.5,0.5
			l0.1,0.1c0.2,0.2,0.3,0.3,0.5,0.4l0.1,0.1c0.2,0.1,0.3,0.3,0.5,0.4l0.1,0.1c0.2,0.1,0.3,0.3,0.5,0.4l0.1,0.1
			c0.5,0.5,1.1,1,1.6,1.4l0,0c1.6,1.3,3.2,2.5,4.9,3.5l0,0l0,0l0,0l0,0l0,0l0,0l0,0l0,0l0.5,0.3l0,0l0,0l0,0l0,0l0.3,0.2l0,0l0,0
			l1.9-3.2l0-0.1l0.2-0.3l0-0.1l0-0.1l0-0.1l0-0.1l0,0l0,0l0,0l0,0l0,0l0,0l0,0l0,0c-12.2-7.2-20.3-20.4-20.3-35.6
			c0-8.4,2.5-16.3,6.9-22.8l-3.9-2.6C47,68.6,44.2,77.3,44.2,86.7"/>
	</defs>
	<clipPath id="SVGID_22_">
		<use xlink:href="#SVGID_21_"  style="overflow:visible;"/>
	</clipPath>
	
		<linearGradient id="SVGID_23_" gradientUnits="userSpaceOnUse" x1="2.346341e-06" y1="172.116" x2="1" y2="172.116" gradientTransform="matrix(0 65.0323 65.0323 0 -11136.4209 61.2989)">
		<stop  offset="0" style="stop-color:#36A9E1"/>
		<stop  offset="0.9997" style="stop-color:#36A9E1"/>
		<stop  offset="1" style="stop-color:#36A9E1"/>
	</linearGradient>
	<rect x="44.2" y="61.3" class="st9" width="25" height="65"/>
</g>
<g>
	<defs>
		<path id="SVGID_24_" d="M30.1,128.8c13.4,18.4,34.9,29.4,57.7,29.4c4.4,0,8.8-0.4,13.1-1.2l-0.7-3.8c-4.1,0.8-8.2,1.1-12.4,1.1
			c-21.5,0-41.9-10.4-54.5-27.8L30.1,128.8z M16.6,87c0,11.9,3,23.7,8.7,34.1l3.4-1.9c-5.4-9.8-8.2-21-8.2-32.2
			c0-14.4,4.5-28.1,12.9-39.6L30.2,45C21.3,57.3,16.6,71.8,16.6,87"/>
	</defs>
	<clipPath id="SVGID_25_">
		<use xlink:href="#SVGID_24_"  style="overflow:visible;"/>
	</clipPath>
	
		<linearGradient id="SVGID_26_" gradientUnits="userSpaceOnUse" x1="1.244343e-06" y1="172.116" x2="1" y2="172.116" gradientTransform="matrix(84.3049 0 0 -84.3049 16.5729 14611.835)">
		<stop  offset="0" style="stop-color:#7D933D"/>
		<stop  offset="0.1901" style="stop-color:#819741"/>
		<stop  offset="0.436" style="stop-color:#8DA24E"/>
		<stop  offset="0.7126" style="stop-color:#A1B567"/>
		<stop  offset="1" style="stop-color:#BDD18B"/>
	</linearGradient>
	<rect x="16.6" y="45" class="st10" width="84.3" height="113.1"/>
</g>
<g>
	<defs>
		<path id="SVGID_27_" d="M5.8,87.3c0-45.1,36.7-81.9,81.9-81.9c45.1,0,81.9,36.7,81.9,81.9c0,45.1-36.7,81.9-81.9,81.9
			C42.5,169.1,5.8,132.4,5.8,87.3 M3.8,87.3c0,46.2,37.6,83.8,83.8,83.8c46.2,0,83.8-37.6,83.8-83.8c0-46.2-37.6-83.8-83.8-83.8
			C41.4,3.4,3.8,41,3.8,87.3"/>
	</defs>
	<clipPath id="SVGID_28_">
		<use xlink:href="#SVGID_27_"  style="overflow:visible;"/>
	</clipPath>
	
		<linearGradient id="SVGID_29_" gradientUnits="userSpaceOnUse" x1="0" y1="172.116" x2="1" y2="172.116" gradientTransform="matrix(162.5853 88.0671 88.0671 -162.5853 -15158.4365 28022.9551)">
		<stop  offset="0" style="stop-color:#0A3B4F"/>
		<stop  offset="0.1105" style="stop-color:#0D4054"/>
		<stop  offset="0.2543" style="stop-color:#154B62"/>
		<stop  offset="0.4166" style="stop-color:#215F7A"/>
		<stop  offset="0.5924" style="stop-color:#2F7898"/>
		<stop  offset="0.7791" style="stop-color:#4298BE"/>
		<stop  offset="0.9723" style="stop-color:#58BFEB"/>
		<stop  offset="1" style="stop-color:#5BC5F2"/>
	</linearGradient>
	<polygon class="st11" points="41.8,-66.8 241.6,41.5 133.4,241.3 -66.4,133 	"/>
</g>
<g>
	<defs>
		<path id="SVGID_30_" d="M0,87.3c0,40,27,74.9,65.8,84.9l2.4-9.4c-34.4-8.9-58.5-39.9-58.5-75.5c0-25.2,12.2-48.9,32.7-63.5
			l-5.6-7.9C13.8,32.3,0,59,0,87.3"/>
	</defs>
	<clipPath id="SVGID_31_">
		<use xlink:href="#SVGID_30_"  style="overflow:visible;"/>
	</clipPath>
	
		<linearGradient id="SVGID_32_" gradientUnits="userSpaceOnUse" x1="0" y1="172.0788" x2="1" y2="172.0788" gradientTransform="matrix(162.5853 88.0671 88.0671 -162.5853 -15170.1279 28044.541)">
		<stop  offset="0" style="stop-color:#0A3B4F"/>
		<stop  offset="0.1105" style="stop-color:#0D4054"/>
		<stop  offset="0.2543" style="stop-color:#154B62"/>
		<stop  offset="0.4166" style="stop-color:#215F7A"/>
		<stop  offset="0.5924" style="stop-color:#2F7898"/>
		<stop  offset="0.7791" style="stop-color:#4298BE"/>
		<stop  offset="0.9723" style="stop-color:#58BFEB"/>
		<stop  offset="1" style="stop-color:#5BC5F2"/>
	</linearGradient>
	<polygon class="st12" points="15.5,-12.7 133.6,51.3 52.7,200.7 -65.4,136.7 	"/>
</g>
<g>
	<defs>
		<path id="SVGID_33_" d="M129.6,21.6c7.9,5,14.7,11.4,20.3,18.8c5.6,7.5,9.8,15.8,12.4,24.8l9.3-2.7c-3-10.1-7.7-19.5-14-27.9
			c-6.3-8.4-14-15.5-22.9-21.2L129.6,21.6z"/>
	</defs>
	<clipPath id="SVGID_34_">
		<use xlink:href="#SVGID_33_"  style="overflow:visible;"/>
	</clipPath>
	
		<linearGradient id="SVGID_35_" gradientUnits="userSpaceOnUse" x1="0" y1="172.1212" x2="1" y2="172.1212" gradientTransform="matrix(162.5853 88.0671 88.0671 -162.5853 -15124.5293 27960.3574)">
		<stop  offset="0" style="stop-color:#0A3B4F"/>
		<stop  offset="0.1105" style="stop-color:#0D4054"/>
		<stop  offset="0.2543" style="stop-color:#154B62"/>
		<stop  offset="0.4166" style="stop-color:#215F7A"/>
		<stop  offset="0.5924" style="stop-color:#2F7898"/>
		<stop  offset="0.7791" style="stop-color:#4298BE"/>
		<stop  offset="0.9723" style="stop-color:#58BFEB"/>
		<stop  offset="1" style="stop-color:#5BC5F2"/>
	</linearGradient>
	<polygon class="st13" points="139.2,-4.2 193.4,25.2 162.1,82.8 107.9,53.5 	"/>
</g>
<g>
	<defs>
		<path id="SVGID_36_" d="M158.2,120.4c-4.8,10.1-11.8,19.3-20.4,26.5l6.2,7.4c9.6-8.1,17.6-18.4,22.9-29.8
			c5.4-11.4,8.2-24.1,8.3-36.7l-9.7-0.1C165.5,99,162.9,110.3,158.2,120.4"/>
	</defs>
	<clipPath id="SVGID_37_">
		<use xlink:href="#SVGID_36_"  style="overflow:visible;"/>
	</clipPath>
	
		<linearGradient id="SVGID_38_" gradientUnits="userSpaceOnUse" x1="0" y1="172.1081" x2="1" y2="172.1081" gradientTransform="matrix(162.5853 88.0671 88.0671 -162.5853 -15156.2812 28018.9766)">
		<stop  offset="0" style="stop-color:#0A3B4F"/>
		<stop  offset="0.1105" style="stop-color:#0D4054"/>
		<stop  offset="0.2543" style="stop-color:#154B62"/>
		<stop  offset="0.4166" style="stop-color:#215F7A"/>
		<stop  offset="0.5924" style="stop-color:#2F7898"/>
		<stop  offset="0.7791" style="stop-color:#4298BE"/>
		<stop  offset="0.9723" style="stop-color:#58BFEB"/>
		<stop  offset="1" style="stop-color:#5BC5F2"/>
	</linearGradient>
	<polygon class="st14" points="146.3,72.1 203.1,102.9 166.8,170 109.9,139.2 	"/>
</g>
<g>
	<defs>
		<path id="SVGID_39_" d="M95.7,0l-0.9,9.7c4.6,0.4,9.2,1.3,13.7,2.5c0.8,0.2,1.6,0.5,2.4,0.7l2.9-9.3c-0.9-0.3-1.8-0.5-2.7-0.8
			C106.1,1.4,100.9,0.5,95.7,0z"/>
	</defs>
	<clipPath id="SVGID_40_">
		<use xlink:href="#SVGID_39_"  style="overflow:visible;"/>
	</clipPath>
	
		<linearGradient id="SVGID_41_" gradientUnits="userSpaceOnUse" x1="0" y1="172.117" x2="1" y2="172.117" gradientTransform="matrix(162.5853 88.0671 88.0671 -162.5853 -15120.8877 27953.6348)">
		<stop  offset="0" style="stop-color:#0A3B4F"/>
		<stop  offset="0.1105" style="stop-color:#0D4054"/>
		<stop  offset="0.2543" style="stop-color:#154B62"/>
		<stop  offset="0.4166" style="stop-color:#215F7A"/>
		<stop  offset="0.5924" style="stop-color:#2F7898"/>
		<stop  offset="0.7791" style="stop-color:#4298BE"/>
		<stop  offset="0.9723" style="stop-color:#58BFEB"/>
		<stop  offset="1" style="stop-color:#5BC5F2"/>
	</linearGradient>
	<polygon class="st15" points="99.2,-8 119.2,2.9 109.5,20.8 89.4,10 	"/>
</g>
</svg>
