<svg xmlns:xlink="http://www.w3.org/1999/xlink" xmlns="http://www.w3.org/2000/svg" fill="none" class="header_header__logo__D9kuU" viewBox="0 0 115.58 24"><path fill="#000" fill-rule="evenodd" d="M0 5.37C0 2.167 1.984 0 5.635 0a7.4 7.4 0 0 1 4.284 1.3L8.254 4.245A2.88 2.88 0 0 0 6.27 3.54c-1.375 0-2.047.867-2.047 2.303v1.504h4.895V10.9H4.223v12.766H0V5.369ZM76.587.313a2.592 2.592 0 1 1-2.59 2.594v-.002a2.58 2.58 0 0 1 2.57-2.592zm21.05 11.777c-1.055-3.394-3.202-5.057-7.103-5.057v.01c-4.927 0-7.902 3.199-7.902 8.478 0 5.28 2.975 8.478 7.902 8.478 3.903 0 6.048-1.664 7.102-5.057l-3.9-.96c-.545 1.625-1.537 2.457-3.072 2.457-2.429 0-3.612-1.631-3.612-4.927s1.212-4.927 3.612-4.927c1.535 0 2.527.831 3.071 2.464l3.901-.96ZM74.44 7.353h4.225v16.318H74.44zm-8.604 3.552h5.662V7.353h-9.887v16.318h4.225zm-15.803 9.534c1.888 0 2.88-.96 2.88-3.455v-9.63h4.222v9.597c0 4.736-2.4 7.039-7.102 7.039-4.703 0-7.136-2.303-7.136-7.04V7.354h4.223v9.631c0 2.495 1.024 3.455 2.913 3.455ZM30.136 1.275h4.223v6.078h5.215v3.552h-5.215v7.223c0 1.76.928 2.303 2.143 2.303.96 0 1.504-.35 2.176-.959l1.633 3.014a7.34 7.34 0 0 1-4.544 1.498c-3.647 0-5.635-2.144-5.635-5.346zm-8.38 6.078v9.631h-.001c0 2.495-.993 3.455-2.88 3.455s-2.911-.96-2.911-3.455v-9.63H11.74v9.597c0 4.736 2.431 7.039 7.134 7.039s7.103-2.303 7.103-7.04V7.354zm86.246-.324c4.478 0 7.582 2.399 7.582 7.615v1.92h-11.038c.096 2.655 1.631 3.999 3.583 3.999 1.791 0 3.168-.896 3.901-2.432l3.393 1.733c-1.439 2.53-3.646 4.12-7.198 4.12-5.247 0-7.966-3.323-7.966-8.575 0-5.214 3.072-8.38 7.743-8.38m.095 3.364c-2.24 0-3.296 1.663-3.488 3.36h6.847c0-1.664-.767-3.36-3.359-3.36" clip-rule="evenodd"/></svg>