<?xml version="1.0" standalone="no"?>
<!DOCTYPE svg PUBLIC "-//W3C//DTD SVG 20010904//EN"
 "http://www.w3.org/TR/2001/REC-SVG-20010904/DTD/svg10.dtd">
<svg version="1.0" xmlns="http://www.w3.org/2000/svg"
 width="400.000000pt" height="400.000000pt" viewBox="0 0 400.000000 400.000000"
 preserveAspectRatio="xMidYMid meet">
<metadata>
Created by potrace 1.16, written by Peter Selinger 2001-2019
</metadata>
<g transform="translate(0.000000,400.000000) scale(0.100000,-0.100000)"
fill="#000000" stroke="none">
<path d="M0 2000 l0 -2000 2000 0 2000 0 0 2000 0 2000 -2000 0 -2000 0 0
-2000z m1204 490 c137 -20 242 -94 291 -204 27 -60 39 -106 28 -106 -99 -6
-126 -4 -130 10 -38 122 -111 179 -240 188 -209 14 -332 -110 -350 -350 -14
-191 80 -358 223 -398 63 -18 189 -8 240 18 83 42 140 127 146 216 l3 48 -147
-2 -148 -1 0 61 0 60 208 -2 207 -3 0 -250 0 -250 -40 0 c-39 0 -40 1 -59 52
l-18 53 -36 -32 c-83 -72 -213 -107 -332 -89 -232 36 -380 224 -380 481 1 295
176 498 440 509 14 0 56 -4 94 -9z m1816 0 c159 -26 270 -135 270 -267 l0 -33
-59 0 -60 0 -15 54 c-27 93 -97 136 -221 136 -125 0 -191 -45 -202 -138 -6
-50 -4 -53 31 -87 39 -37 75 -50 251 -90 234 -55 315 -125 315 -276 0 -153
-102 -250 -293 -279 -85 -13 -141 -8 -237 20 -126 38 -212 135 -227 258 l-6
52 67 0 66 0 0 -30 c0 -60 48 -128 115 -163 50 -26 176 -35 251 -18 98 22 151
100 128 189 -16 63 -61 88 -240 133 -193 48 -231 62 -278 101 -50 41 -76 96
-76 160 0 79 16 121 65 176 49 54 112 87 197 101 74 12 85 12 158 1z m-806
-39 c201 -65 298 -254 267 -522 -19 -167 -76 -273 -181 -337 -93 -56 -133 -62
-376 -64 l-219 -1 -3 464 c-1 255 0 469 2 474 5 14 460 2 510 -14z"/>
<path d="M1840 2000 l0 -362 153 4 c148 3 153 4 207 34 59 33 111 97 131 162
17 56 23 240 9 305 -16 81 -63 145 -130 182 -53 29 -60 30 -212 33 l-158 4 0
-362z"/>
</g>
</svg>
