<?xml version="1.0" encoding="utf-8"?>
<!-- Generator: Adobe Illustrator 19.2.1, SVG Export Plug-In . SVG Version: 6.00 Build 0)  -->
<svg version="1.1" id="layer" xmlns="http://www.w3.org/2000/svg" xmlns:xlink="http://www.w3.org/1999/xlink" x="0px" y="0px"
	 viewBox="0 0 652 652" style="enable-background:new 0 0 652 652;" xml:space="preserve">
<style type="text/css">
	.st0{fill:#191530;}
	.st1{fill:#DE1B76;}
</style>
<title>HATCH 2020 LOGO</title>
<path class="st0" d="M420,410.8h-46.7l-34.7-119.5l-35.2,119.5h-46.4l-55.5-179.2h45.9l0.2,0.7l32.9,120.9l34.3-121.7h47.4
	l35.2,122.1l33-122.1h45.2C475.6,231.4,420,410.8,420,410.8z M493.4,231.6h41v179.2h-41V231.6z M108.7,415
	c-26.4,0-47.8-8.5-63.6-25.1c-15.6-16.9-23.6-39.7-23.6-68c0-28,8.6-50.9,25.6-68.2c16.9-17.6,39.5-26.4,66.9-26.4
	c35.5,0,64,15.9,79.7,44.9l1.5,2.8L165,299.6l-2.3-3.4c-12-18.4-28.6-27.8-49-27.8c-15.5,0-27.8,4.9-36.8,14.5
	c-9.1,9.8-13.7,22.5-13.7,38.9c0,16.1,4.4,29,13,38.2s20.7,14,35.5,14c17.3,0,32.5-8.3,43.6-23.4h-40.7v-39.1h85.9v99.9h-34.3v-22.6
	c-6.7,8.1-14.6,14.3-23.9,18.9C132.1,412.6,120.9,415,108.7,415z"/>
<path class="st1" d="M587.3,409.4c23.4,0,34.2-10.9,34.2-34.2c0-23.3-10.9-34.2-34.2-34.2c-23.4,0-34.2,10.9-34.2,34.2
	C553.1,398.5,563.8,409.4,587.3,409.4z"/>
</svg>
