<svg xmlns="http://www.w3.org/2000/svg" fill="none" viewBox="0.19 1.98 128.83 48.02"><path d="M109.957 22.264a2.728 2.728 0 0 0-2.447 1.354v-.89a.242.242 0 0 0-.241-.241h-1.02a.241.241 0 0 0-.241.241v7.416c0 .03.006.061.018.09a.242.242 0 0 0 .053.074.229.229 0 0 0 .17.058h1.075a.224.224 0 0 0 .223-.133.23.23 0 0 0 .018-.09v-4.32c0-1.204.631-2.168 1.854-2.168 1.224 0 1.854.89 1.854 1.983v4.506c0 .059.024.115.065.157a.225.225 0 0 0 .158.065h1.094a.222.222 0 0 0 .222-.222v-4.765a2.755 2.755 0 0 0-1.68-2.906 2.765 2.765 0 0 0-1.175-.209ZM88.82 7.673h-5.247a.222.222 0 0 0-.223.223v.945a.223.223 0 0 0 .223.223h3.708a.24.24 0 0 1 .223.26 3.392 3.392 0 0 1-.946 2.094 4.375 4.375 0 0 1-3.245 1.317A4.505 4.505 0 0 1 78.79 8.08a4.507 4.507 0 0 1 4.524-4.653 3.95 3.95 0 0 1 3.023 1.205.26.26 0 0 0 .333 0l.705-.705a.26.26 0 0 0 0-.334 5.006 5.006 0 0 0-1.669-1.13 6.193 6.193 0 0 0-2.392-.483 5.99 5.99 0 0 0-6.044 6.082 5.765 5.765 0 0 0 1.854 4.32 5.842 5.842 0 0 0 4.283 1.853 5.673 5.673 0 0 0 4.283-1.724v1.298a.222.222 0 0 0 .223.223h.945a.222.222 0 0 0 .241-.223V7.895a.24.24 0 0 0-.278-.222ZM91.638 2.037h-1.075a.241.241 0 0 0-.241.241v11.384c0 .133.108.24.24.24h1.076a.241.241 0 0 0 .241-.24V2.278a.241.241 0 0 0-.24-.24ZM97.274 5.782a4.19 4.19 0 1 0 4.079 4.172 3.974 3.974 0 0 0-1.131-2.974 3.993 3.993 0 0 0-2.948-1.198Zm0 6.99a2.837 2.837 0 1 1 2.485-2.818 2.54 2.54 0 0 1-2.485 2.818ZM106.842 5.8a3.113 3.113 0 0 0-2.243.835.245.245 0 0 1-.252.028.236.236 0 0 1-.099-.087.236.236 0 0 1-.039-.126V2.278a.241.241 0 0 0-.241-.24h-1.057a.242.242 0 0 0-.241.241V13.68a.23.23 0 0 0 .072.165.22.22 0 0 0 .169.058h1.057a.222.222 0 0 0 .241-.223v-.908a2.835 2.835 0 0 0 2.577 1.353 3.705 3.705 0 0 0 3.708-4.19 3.702 3.702 0 0 0-2.145-3.8 3.706 3.706 0 0 0-1.507-.334Zm-.278 6.953a2.505 2.505 0 0 1-2.373-2.818 2.47 2.47 0 0 1 1.38-2.54c.31-.149.649-.23.993-.24 1.427 0 2.336 1.074 2.336 2.78 0 1.706-.927 2.818-2.336 2.818ZM118.393 8.656c0-1.539-.927-2.874-3.319-2.874a3.112 3.112 0 0 0-3.263 2.336.28.28 0 0 0 .204.278l1.02.223a.224.224 0 0 0 .181-.03.216.216 0 0 0 .065-.067.216.216 0 0 0 .032-.089 1.67 1.67 0 0 1 1.761-1.335c1.206 0 1.725.63 1.725 1.41 0 .278-.13.519-.612.574l-2.151.315c-1.372.204-2.41.983-2.41 2.392a2.472 2.472 0 0 0 .82 1.752 2.456 2.456 0 0 0 1.831.621 2.932 2.932 0 0 0 2.577-1.316 5.487 5.487 0 0 0 0 1.057h1.242a.223.223 0 0 0 .241-.26v-1.02l.056-3.967Zm-1.557 1.854a2.084 2.084 0 0 1-1.369 2.232c-.298.105-.616.14-.93.104a1.202 1.202 0 0 1-1.182-.683 1.198 1.198 0 0 1-.116-.467c0-.704.501-1.075 1.168-1.186l2.429-.352v.352ZM121.453 2.037h-1.075a.241.241 0 0 0-.241.241v11.384c0 .133.108.24.241.24h1.075a.241.241 0 0 0 .241-.24V2.278a.241.241 0 0 0-.241-.24ZM82.423 23.896l-1.743-.371a1.705 1.705 0 0 1-1.52-1.687 2.077 2.077 0 0 1 2.28-1.854 2.354 2.354 0 0 1 2.41 1.724.26.26 0 0 0 .316.185l1-.352a.22.22 0 0 0 .158-.191.22.22 0 0 0-.009-.087 4.023 4.023 0 0 0-7.787.779 3.208 3.208 0 0 0 2.855 3.17l1.688.37a1.854 1.854 0 0 1 1.742 1.855c0 1.02-.797 1.854-2.41 1.854a2.651 2.651 0 0 1-2.78-2.225.242.242 0 0 0-.297-.185l-1.094.352a.241.241 0 0 0-.167.26 4.079 4.079 0 0 0 4.357 3.263 3.71 3.71 0 0 0 4.041-3.449 3.355 3.355 0 0 0-3.04-3.411ZM93.27 25.12c0-1.54-.927-2.874-3.32-2.874a3.115 3.115 0 0 0-3.225 2.336.241.241 0 0 0 .185.26l1.039.24a.221.221 0 0 0 .246-.097.223.223 0 0 0 .032-.088 1.631 1.631 0 0 1 1.761-1.335c1.205 0 1.724.63 1.724 1.41 0 .277-.13.518-.612.574l-2.15.315c-1.372.204-2.429.983-2.429 2.392a2.485 2.485 0 0 0 2.67 2.373 2.873 2.873 0 0 0 2.558-1.317c-.007.355.024.71.093 1.057h1.242a.223.223 0 0 0 .241-.26 6.886 6.886 0 0 1 0-1.02l-.055-3.967Zm-1.558 1.853a2.095 2.095 0 0 1-2.299 2.336 1.205 1.205 0 0 1-1.298-1.15c0-.704.501-1.074 1.169-1.186l2.428-.352v.352ZM101.391 22.487h-1.168a.24.24 0 0 0-.223.148l-2.002 5.358a.222.222 0 0 1-.427 0l-2.002-5.358a.223.223 0 0 0-.222-.148h-1.243a.24.24 0 0 0-.222.315l3.04 7.416a.26.26 0 0 0 .223.13h1.26a.222.222 0 0 0 .204-.13l3.004-7.416a.23.23 0 0 0 .009-.11.245.245 0 0 0-.231-.205ZM104.191 22.487h-1.057a.241.241 0 0 0-.241.24v7.398c0 .133.108.241.241.241h1.057a.241.241 0 0 0 .241-.24v-7.398a.241.241 0 0 0-.241-.241ZM121.452 22.487h-1.298v1.094a2.538 2.538 0 0 0-2.447-1.243 3.84 3.84 0 0 0-2.54 6.447 3.84 3.84 0 0 0 2.54 1.21 2.763 2.763 0 0 0 2.021-.76.243.243 0 0 1 .267-.046.24.24 0 0 1 .141.232v.407c0 1.706-.76 2.559-2.429 2.559a2.073 2.073 0 0 1-2.132-1.687.216.216 0 0 0-.032-.088.216.216 0 0 0-.152-.102.222.222 0 0 0-.094.005l-1.057.24a.262.262 0 0 0-.185.279 3.54 3.54 0 0 0 3.708 2.706 3.707 3.707 0 0 0 3.986-3.949v-7.063a.247.247 0 0 0-.089-.194.241.241 0 0 0-.208-.047Zm-3.522 6.248a2.26 2.26 0 0 1-2.299-2.522 2.293 2.293 0 0 1 1.562-1.959 2.299 2.299 0 1 1 .737 4.48ZM126.811 25.824l-1.298-.278c-.611-.13-.908-.464-.908-.946a1.206 1.206 0 0 1 1.335-1.038 1.538 1.538 0 0 1 1.594 1.057.226.226 0 0 0 .297.148l.908-.334a.24.24 0 0 0 .149-.315 2.803 2.803 0 0 0-2.948-1.854 2.706 2.706 0 0 0-2.837 2.485 2.283 2.283 0 0 0 1.984 2.224l1.353.297c.668.13 1.039.52 1.039 1.001 0 .482-.482 1.057-1.372 1.057a1.725 1.725 0 0 1-1.854-1.205.244.244 0 0 0-.297-.185l-.964.333a.227.227 0 0 0-.132.108.221.221 0 0 0-.016.17 3.04 3.04 0 0 0 3.244 2.04 2.654 2.654 0 0 0 2.93-2.448 2.411 2.411 0 0 0-2.207-2.317ZM104.302 19.465h-1.057a.241.241 0 0 0-.241.24v1.057c0 .133.108.241.241.241h1.057a.241.241 0 0 0 .241-.24v-1.057a.241.241 0 0 0-.241-.241ZM88.82 40.637h-5.247a.223.223 0 0 0-.223.223v.945a.223.223 0 0 0 .223.223h3.708a.242.242 0 0 1 .222.26 3.504 3.504 0 0 1-.945 2.113 4.655 4.655 0 1 1-3.245-8.01 3.95 3.95 0 0 1 3.022 1.206.241.241 0 0 0 .334 0l.705-.705a.223.223 0 0 0 0-.315 4.784 4.784 0 0 0-1.67-1.15 6.191 6.191 0 0 0-2.39-.481 6.082 6.082 0 0 0-2.328 11.699 6.082 6.082 0 0 0 2.327.463 5.675 5.675 0 0 0 4.394-1.687v1.297a.242.242 0 0 0 .223.241h.946a.241.241 0 0 0 .24-.24v-5.785a.24.24 0 0 0-.296-.297ZM100.037 38.746a4.19 4.19 0 1 0 4.079 4.19 3.982 3.982 0 0 0-1.125-2.985 3.99 3.99 0 0 0-2.954-1.205Zm0 7.008a2.836 2.836 0 1 1 2.484-2.818 2.547 2.547 0 0 1-.619 1.958 2.534 2.534 0 0 1-1.865.86ZM111.978 38.987h-1.057a.244.244 0 0 0-.177.077.235.235 0 0 0-.051.085.233.233 0 0 0-.013.098v4.505a1.867 1.867 0 0 1-.48 1.42 1.856 1.856 0 0 1-1.374.6c-1.316 0-1.854-.963-1.854-2.038v-4.487a.258.258 0 0 0-.26-.26h-1.057a.236.236 0 0 0-.177.077.25.25 0 0 0-.064.183v4.709a2.927 2.927 0 0 0 .774 2.249 2.908 2.908 0 0 0 2.193.921 2.579 2.579 0 0 0 2.354-1.205c-.024.321-.024.643 0 .964h1.15a.258.258 0 0 0 .259-.26V39.21a.256.256 0 0 0-.166-.222ZM117.893 38.82a2.914 2.914 0 0 0-2.652 1.41v-1.002a.241.241 0 0 0-.241-.24h-1.038a.242.242 0 0 0-.241.241v10.53a.242.242 0 0 0 .241.241h1.076a.222.222 0 0 0 .222-.241v-3.3a.244.244 0 0 1 .272-.217.24.24 0 0 1 .117.05 3.21 3.21 0 0 0 2.207.797 3.705 3.705 0 0 0 3.564-2.597 3.71 3.71 0 0 0 .144-1.556 3.699 3.699 0 0 0-.919-2.876 3.706 3.706 0 0 0-2.752-1.24Zm-.278 6.897a2.799 2.799 0 0 1 0-5.562 2.8 2.8 0 0 1 0 5.562ZM95.29 40.137v-1.038a.241.241 0 0 0-.24-.241h-.279a2.595 2.595 0 0 0-2.373 1.501v-1.13a.241.241 0 0 0-.24-.242H91.1a.241.241 0 0 0-.24.241v7.416a.241.241 0 0 0 .24.241h1.094a.221.221 0 0 0 .211-.15.22.22 0 0 0 .012-.09v-3.709c0-1.724.89-2.428 2.188-2.428h.519a.241.241 0 0 0 .24-.242l-.074-.13Z" fill="#000"/><path d="M42.757 2.074a21.546 21.546 0 0 0-21.638 21.099 3.133 3.133 0 0 0 3.115 3.152h9.141a1.54 1.54 0 0 1 1.52 1.854 13.07 13.07 0 0 1-12.83 10.753A13.406 13.406 0 0 1 8.514 26.215a13.404 13.404 0 0 1 12.179-14.037 1.54 1.54 0 0 0 1.372-1.538V5.078a1.557 1.557 0 0 0-1.688-1.558A21.991 21.991 0 0 0 .204 26.28a21.988 21.988 0 0 0 21.86 21.143 21.547 21.547 0 0 0 21.639-21.117 3.115 3.115 0 0 0-3.115-3.152H31.52A1.538 1.538 0 0 1 30 21.3a12.977 12.977 0 0 1 12.812-10.735 13.406 13.406 0 0 1 10.155 22.113 13.406 13.406 0 0 1-8.783 4.622 1.558 1.558 0 0 0-1.372 1.539v5.562A1.557 1.557 0 0 0 44.5 45.94a21.991 21.991 0 0 0 20.173-22.76 21.987 21.987 0 0 0-21.86-21.143l-.056.037Z" fill="#3B63A9"/></svg>