<?xml version="1.0" encoding="utf-8"?>
<!-- Generator: Adobe Illustrator 19.2.1, SVG Export Plug-In . SVG Version: 6.00 Build 0)  -->
<svg version="1.1" id="layer" xmlns="http://www.w3.org/2000/svg" xmlns:xlink="http://www.w3.org/1999/xlink" x="0px" y="0px"
	 viewBox="0 0 652 652" style="enable-background:new 0 0 652 652;" xml:space="preserve">
<style type="text/css">
	.st0{fill:#BFD732;}
</style>
<g>
	<path d="M68,369.9c-29.4,0-47.7-25.1-47.7-52c0-28.4,16.4-51.5,47.7-51.5c23.1,0,40.9,13.5,42.4,33.2H90.1
		c-1-9.2-10.6-16.4-21.7-16.4c-16.4,0-27,12.5-27,35.6c0,15.9,8.2,33.7,27,33.7c17.3,0,23.6-8.7,23.6-22.2H70.4v-15.9h40.5v16.4
		C110.4,353.5,100.2,369.9,68,369.9z"/>
	<path d="M121.9,366.5v-97.8h18.8v97.8H121.9z"/>
	<path d="M149.9,325.1c1.4-15.9,15.9-30.4,31.8-31.8c25.1-2.4,41.4,13,41.4,37.6c0,22.6-14,37.6-36.6,37.6
		C161.4,368.4,147.5,350.1,149.9,325.1z M203.8,330.8c0-14.5-5.8-21.7-17.3-21.7c-11.6,0-17.3,7.2-17.3,21.7s5.8,21.7,17.3,21.7
		C198,352.5,203.8,345.3,203.8,330.8L203.8,330.8z"/>
	<path d="M231.8,366.5v-97.8h18.8v35.6c5.3-7.7,12.5-11.1,21.2-11.1c18.3,0,29.4,15.4,29.4,37.1c0,24.1-13,38.5-30.8,38.5
		c-8.7,0-15.4-3.4-19.8-10.6v8.7h-18.8V366.5z M281.9,331.3c0-14.5-5.3-22.2-16.4-22.2c-10.6,0-15.9,7.7-15.9,23.1
		c0,12,7.2,20.7,15.9,20.7C275.1,353,281.9,343.9,281.9,331.3z"/>
	<path d="M357,366.5c-0.5-1.9-1-4.3-1-6.3c-4.3,4.8-12,8.2-21.7,8.2c-16.4,0-24.1-8.2-24.1-19.8c0-20.7,14-23.1,32.8-25.5
		c9.6-1.4,12-3.4,12-8.2c0-4.8-4.8-7.2-12-7.2c-8.7,0-12,4.3-13,10.6h-17.8c0.5-14.9,8.7-25.1,31.3-25.1c22.6,0,30.4,10.1,30.4,28.4
		V367H357V366.5z M356.1,331.3c-1.9,1.9-5.3,2.9-12,4.3c-10.6,1.9-14.5,5.3-14.5,11.1c0,5.3,3.4,8.2,9.2,8.2
		c9.6,0,16.9-7.2,17.3-15.4V331.3z"/>
	<path d="M433.6,366.5v-43.4c0-11.1-3.4-14-12-14c-10.1,0-14.5,5.3-14.5,16.4v40.9h-18.8v-71.8h17.3v10.6
		c4.3-8.2,11.6-12.5,23.1-12.5c13.5,0,23.6,8.2,23.6,24.1v49.6H433.6z"/>
	<path d="M507.3,339.5c-0.5,7.7-3.9,12.5-11.1,12.5c-7.7,0-11.1-5.3-11.1-14.5v-29.4h29.4v-14.9h-29.4v-17.8h-18.8v64.1
		c0,15.4,8.2,28.9,29.4,28.9c20.2,0,28.9-13.5,28.9-28.9l0,0H507.3z"/>
	<path class="st0" d="M547.8,263.4c-1.9-1.4-4.8-0.5-6.3,1.4c-0.5,1-1,2.4-0.5,3.4l8.7,12.5c16.4,24.6,16.4,56.8,0,81.4l-8.7,12.5
		c-0.5,2.4,0.5,4.8,2.9,5.3c1,0.5,2.4,0,3.4-0.5l70.8-54c2.4-1.9,2.9-5.3,1-7.7c-0.5-0.5-0.5-1-1-1L547.8,263.4z"/>
</g>
</svg>
