<svg xmlns="http://www.w3.org/2000/svg" xmlns:xlink="http://www.w3.org/1999/xlink" version="1.1" id="layer" x="0px" y="0px" style="enable-background:new 0 0 652 652;" xml:space="preserve" viewBox="27 281.5 600 88.3">
<path d="M66.2,321.9h27.5c0.5,2.8,1.1,7.8,1.1,13.9c0,16.8-13,33.8-32.4,33.8c-18.9,0-35.5-16.5-35.4-39.4  c0.1-24,18.3-39.5,42.3-39.5c2.6,0,5.6,0.3,7.8,0.5l8.1,25.8l-3.4,1.1l-8.6-7.9c-7.5-6.8-12.6-9-17.8-9c-7,0-12.6,5.1-12.6,15.3  c0,19,13.6,38.7,28.6,38.7c7.1,0,10.6-2.6,13.1-5.3l-18.4-24.1V321.9z M166.3,337.1c0,18.3-14,32.7-33.3,32.7  c-19.3,0-33.3-14.4-33.3-32.7c0-18.3,14-32.7,33.3-32.7C152.3,304.5,166.3,318.9,166.3,337.1 M143.9,333.6  c-4.9-14.8-11.3-23.6-18.9-21.1c-7.6,2.5-7.6,13.4-2.9,28.1c4.9,14.8,11.3,23.6,18.9,21.1C148.7,359.3,148.7,348.4,143.9,333.6   M230.4,341.3l1.5,5c-2,11.1-10.4,23.3-27.1,23.3c-18.9,0-33.7-15.9-33.7-38.8c0-24.6,18.1-40.2,40.5-40.2c3.3,0,6.1,0.3,7.8,0.5  l8.1,25.8l-3.4,1.1l-8.6-7.9c-7.4-6.6-11.9-9.1-17-9.1c-7,0-11.6,5.3-11.6,15.4c0,19,10.5,36.2,25.9,36.2  C222.3,352.5,227.4,347.3,230.4,341.3 M303.4,358.3l1.3,4c-1,1.7-5.4,7.1-13.1,7.1c-10.4,0-14.6-6.1-17.6-14.4  c-2.9,7.8-9.5,14.5-21.5,14.5c-10.8,0-16.6-7.1-16.6-14.9c0-10.8,8.9-18.4,27.9-28.3c-2.4-4.5-7.8-6.6-13.5-6.6  c-7-0.1-14.8,2.9-18.8,8.3l-1.4-4.3c3-8.1,13-18.9,29-18.9c14.4,0,24.1,8.8,28.6,22.6l8.6,26.5c1.3,4,3.3,5.1,4.9,5.1  C302,359.2,302.9,358.8,303.4,358.3 M267.9,338.6l-2.6-7.9c-7.1,5.4-10.6,12.3-10.6,17.3c0,6.5,3.3,9.5,7.8,9.5  C270.2,357.5,271.8,350.3,267.9,338.6 M355.6,324.1l-3.3,1.1c-6.8-3.1-9.3-3.4-14.9-3.4c-3.4,0-6.6,1.5-6.6,1.5v33.8  c0,3.5,1.7,6.1,6.4,7.5v3.8h-31.4v-3.8c4.1-1.4,4.5-4,4.5-7.5v-36c0-6.5-1.9-8.8-8.5-11.5v-3.8h28.8l-0.5,13.6h0.3l2.4-3.1  c4.7-6.3,10.8-10.8,16.6-10.8h0.5L355.6,324.1z M419.3,364.7v3.8h-25.8l0.1-8.1h-0.6c-2,3-7.3,8.6-16.6,8.6  c-14.3,0-23.1-12-23.1-27.5c0-20.4,13.8-35.2,36.3-35.2c1.8,0,3.5,0.1,3.5,0.1v-5.1c0-5.5-2.8-7.4-7.3-7.8v-3.4l26.6-8.6h1.1v75.7  C413.6,360.7,415.2,363.3,419.3,364.7 M393.1,347.9v-32.8c-0.9-0.4-2.4-0.9-4.6-0.9c-7.4,0-16.5,5.6-16.5,21.4  c0,14.6,5.6,22.6,13.3,22.6C388.1,358.3,393.1,356.9,393.1,347.9 M455.9,364.7v3.8h-32v-3.8c4.1-1.4,5.8-4,5.8-7.5v-55.9  c0-5.5-2.8-7.4-7.3-7.8v-3.4l26.6-8.6h1.1v75.7C450.1,360.7,451.7,363.3,455.9,364.7 M521.2,338.8l1.4,4.3  c-2.1,14.6-14,26.5-29.5,26.5c-19.9,0-32.7-14.9-32.7-33.7c0-17.1,12-30.9,28.9-30.9c12.3,0,21.4,7.5,25.1,17.6l-32.8,22.1  c4.6,4.9,11.1,8.3,18.6,8.3C510.5,353,518.3,345.9,521.2,338.8 M473.2,324.6c0,5.5,1.9,11.3,5.1,16.1l5.5-5.3  c3.8-3.5,6.9-7.4,6.9-12.8c0-4.1-2.8-9-8.3-9C477.4,313.7,473.2,317.6,473.2,324.6 M557.4,328.8c12.1,6.1,17,12.1,17,20.5  c0,10.1-8.1,20.3-25.5,20.3c-9.3,0-14.6-1.5-19.1-3.4l-5.9-18.3l3.3-1l2.9,2.8c8.9,8.4,16.5,13.9,22.4,13.9c4.4,0,6.8-2.8,6.8-5.6  c0-2.8-0.5-6-8-9.8l-11.1-5.6c-9.8-5-14.4-11.1-14.4-18.1c0-12,10.5-19,24-19c9.1,0,14.3,1.3,14.3,1.3l5.1,15.9l-3.3,1l-2-1.8  c-10.4-9.1-14-11-18.4-11c-3.1,0-5.8,2-5.8,4.8c0,2,0.4,4.5,6.6,7.6L557.4,328.8z M610,328.9c12,6.3,17,12,17,20.4  c0,10.1-8.1,20.3-25.5,20.3c-9.3,0-14.6-1.5-19.1-3.4l-5.9-18.3l3.3-1l2.9,2.8c8.9,8.4,16.5,13.9,22.4,13.9c4.4,0,6.8-2.8,6.8-5.6  c0-2.8-0.5-5.9-8-9.8l-11.1-5.8c-9.8-5-14.4-11-14.4-18c0-12,10.5-19,24-19c9.1,0,14.3,1.3,14.3,1.3l5.1,15.9l-3.3,1l-2-1.8  c-10.4-9.1-14-11-18.4-11c-3.1,0-5.8,2-5.8,4.8c0,2,0.4,4.4,6.6,7.6L610,328.9z"/>
</svg>