<svg xmlns="http://www.w3.org/2000/svg" xmlns:xlink="http://www.w3.org/1999/xlink" version="1.1" id="layer" x="0px" y="0px" style="enable-background:new 0 0 652 652;" xml:space="preserve" viewBox="22 220.2 600 204.5">
<style type="text/css">
	.st0{fill:#FC5A5E;}
	.st1{fill:#1B0E3D;}
</style>
<path class="st0" d="M22,298.8c0,24.5,19.9,44.4,44.5,44.4c11.8,0,23.1-4.7,31.4-13c8.3-8.3,13-19.6,13-31.4  c0-24.5-19.9-44.4-44.5-44.4C41.9,254.4,22,274.3,22,298.8z M47.3,290.9c3.2-7.7,10.8-12.8,19.2-12.8c11.4,0,20.7,9.3,20.7,20.7  c0,8.4-5.1,15.9-12.8,19.2c-7.8,3.2-16.7,1.4-22.6-4.5C45.8,307.6,44.1,298.6,47.3,290.9z"/>
<path class="st0" d="M22,380.3c0,24.5,19.9,44.4,44.5,44.4c24.6,0,44.5-19.9,44.5-44.4c0-24.5-19.9-44.4-44.5-44.4  C41.9,335.9,22,355.8,22,380.3z M47.3,372.4c3.2-7.7,10.8-12.8,19.2-12.8c11.4,0,20.7,9.3,20.7,20.7c0,8.4-5.1,15.9-12.8,19.2  c-7.8,3.2-16.7,1.4-22.6-4.5C45.8,389.1,44.1,380.1,47.3,372.4z"/>
<path class="st0" d="M107.1,298.8c0,24.5,19.9,44.4,44.5,44.4c11.8,0,23.1-4.7,31.4-13c8.3-8.3,13-19.6,13-31.4  c0-24.5-19.9-44.4-44.5-44.4C127,254.4,107.1,274.3,107.1,298.8z M130.8,298.8c0-11.5,9.3-20.7,20.7-20.7c11.4,0,20.7,9.3,20.7,20.7  c0,11.5-9.3,20.7-20.7,20.7C140.1,319.6,130.8,310.3,130.8,298.8z"/>
<path class="st1" d="M255.4,252.6c17.3,0,31.1,11.3,31.1,32.9v53.9h-23v-49.1c0-10.8-4-18.5-14.8-18.5c-12.3,0-18.7,10.1-18.7,23.4  v44.2h-22.8V220.2h22.6v43.8C229.9,263.9,236.5,252.6,255.4,252.6z M318.8,305.8h58.7c0.4-3.6,0.7-7.2,0.7-10.8  c0-28.4-18.7-42.5-39.3-42.5c-21.7,0-43.4,15.3-43.4,44.7c0,29.7,22.2,44,44.7,44c14.5,0.2,28.3-6.3,37.3-17.6l-14-13.8  c-5.5,7.6-13.8,11.3-23.2,11.3C331.3,321.1,320.7,317.4,318.8,305.8z M318.8,288.5c1.4-9.7,8.4-16.6,19.2-16.6  c10.1,0,17.5,5.9,18.4,16.6H318.8z M467.7,285.5v53.9h-23v-49.1c0-10.8-4-18.5-14.8-18.5c-12.3,0-18.7,10.1-18.7,23.4v44.2h-22.8  v-84.7H411v10.4c5.6-8.4,15.1-12.6,25.5-12.6C453.9,252.6,467.7,263.8,467.7,285.5z M622,336.2c0,27.7-21.9,42.5-44.4,42.5  c-19.2,0-36.8-10.6-42.4-30.8l20.5-7.4c2.9,12.9,12.3,18.7,22.7,18.7c11.9,0,21-7.1,21-21.3v-12.3c-4.9,8.1-14.6,12.9-23.9,12.9  c-17.7,0-34.5-11.4-34.5-34.5v-49.4h22.8v46.4c0,10.8,5.5,18.1,16.5,18.1c11.6,0,18.7-8.9,18.7-23v-41.5h22.8L622,336.2z   M531.7,277.5c-2.3-0.5-4.6-0.7-6.9-0.7c-11.7,0-21.9,5.7-21.9,23.9v38.7h-22.9v-84.7h22.2v11.8c5.2-11.2,16.8-12.5,24.1-12.5  c1.8,0,3.6,0.1,5.3,0.3V277.5z"/>
</svg>