<svg xmlns="http://www.w3.org/2000/svg" xmlns:xlink="http://www.w3.org/1999/xlink" version="1.1" id="layer" x="0px" y="0px" style="enable-background:new 0 0 652 652;" xml:space="preserve" viewBox="26.9 239 600 172.11">
<style type="text/css">
	.st0{fill:#34D9C3;}
</style>
<path class="st0" d="M158.9,368.2c-23.8,0-43.2-19.4-43.2-43.2c0-23.8,19.4-43.2,43.2-43.2s43.2,19.4,43.2,43.2l0,0  C202.1,348.8,182.7,368.2,158.9,368.2z M158.9,297.9C144,297.9,132,310,132,325c0,15,12.1,26.9,26.9,26.9s26.9-12.1,27.1-26.9  C186,310.2,173.9,298.1,158.9,297.9z M249.8,368.2c-23.8,0-43.2-19.4-43.2-43.2c0-23.8,19.4-43.2,43.2-43.2S293,301.2,293,325l0,0  C293,348.8,273.6,368.2,249.8,368.2z M249.8,297.9c-14.8,0-26.9,12.1-26.9,27.1c0,14.8,12.1,26.9,27.1,26.9  c14.8,0,26.9-12.1,26.9-26.9C276.9,310.2,264.9,298.1,249.8,297.9z M454.1,368.2c-23.8,0-43.2-19.4-43.2-43.2  c0-23.8,19.4-43.2,43.2-43.2c23.8,0,43.2,19.4,43.2,43.2C497.3,348.8,477.9,368.2,454.1,368.2z M454.1,297.9  c-14.8,0-27.1,12.1-27.1,27.1c0,15,12.1,27.1,27.1,27.1c14.8,0,26.9-12.1,27.1-26.9C481,310.2,468.9,298.1,454.1,297.9z   M113.3,324.6c-0.2-23.8-19.8-43-43.6-42.8s-43,19.8-42.8,43.6c0.2,23.8,19.8,43,43.6,42.8c9.7,0,19-3.5,26.7-9.5v9.2  c0,14.8-12.1,26.9-27.1,26.9c-10.6,0-20.3-6.2-24.5-15.9H28.4c6,23.1,29.7,36.8,52.7,30.8c19-5.1,32.2-22.1,32.2-41.7V324.6  L113.3,324.6z M70.1,352.1c-14.8,0-26.9-12.1-26.9-27.1c0-14.8,12.1-27.1,27.1-26.9c14.8,0,26.9,12.1,26.9,26.9  C97,339.8,84.9,351.9,70.1,352.1L70.1,352.1z M368.6,239v52.3c-18.7-14.8-45.8-11.9-60.6,6.8c-14.8,18.7-11.9,45.8,6.8,60.6  c18.7,14.8,45.8,11.9,60.6-6.8c6.2-7.7,9.5-17.2,9.5-26.9v-86H368.6z M341.5,351.9c-14.8,0-27.1-12.1-27.1-27.1s12.1-26.9,27.1-26.9  c14.8,0,27.1,12.1,27.1,27.1l0,0C368.4,339.8,356.4,351.9,341.5,351.9z M610.6,239v52.3c-18.7-14.8-45.8-11.9-60.6,6.8  c-14.8,18.7-11.9,45.8,6.8,60.6c18.7,14.8,45.8,11.9,60.6-6.8c6.2-7.7,9.5-17.2,9.5-26.9v-86H610.6z M583.5,351.9  c-14.8,0-27.1-12.1-27.1-27.1s12.1-26.9,27.1-26.9c14.8,0,27.1,12.1,27.1,27.1l0,0C610.4,339.8,598.3,351.9,583.5,351.9z M389.5,239  h16.1v128.9h-16.1V239z M518.4,367.8h-16.1V325c0-23.8,19.4-43.2,43.2-43.2v16.1c-14.8,0-26.9,12.1-27.1,27.1L518.4,367.8  L518.4,367.8z"/>
</svg>