<?xml version="1.0" encoding="utf-8"?>
<!-- Generator: Adobe Illustrator 19.2.1, SVG Export Plug-In . SVG Version: 6.00 Build 0)  -->
<svg version="1.1" id="layer" xmlns="http://www.w3.org/2000/svg" xmlns:xlink="http://www.w3.org/1999/xlink" x="0px" y="0px"
	 viewBox="0 0 652 652" style="enable-background:new 0 0 652 652;" xml:space="preserve">
<g id="goodwood_white_logo_for_cs">
	<g id="Group-4-Copy" transform="translate(0.000000, 13.000000)">
		<g id="Group-3">
			<path id="Fill-650" d="M96.9,323.5c-1.4,0.1-2.6,0.3-3.3,0.4l-2.6,0.4c-1.2,0.2-1.4,0.3-1.7,1.3c-0.3,1.1-0.5,2.7-0.5,4.6
				c0,1.4,0.1,2.1,0.4,4c-0.9,1-1.7,1.8-2.5,2.5c-6.7,6.6-15.5,9.8-26.9,9.8c-11.8,0-22.4-3.8-29-10.4c-6.4-6.3-10.8-17.5-10.8-27.6
				c0-21,16.9-37.1,39.1-37.1c5.3,0,12.1,1.1,19.1,3.1c3,0.9,3.3,1,4.3,1c1.1,0,1.7-0.4,2.5-1.5h2.7l2.9,23.8h-2.9
				c-1-2-1.8-3.5-2.2-4.5c-4.3-9-5.6-11.3-8.3-13.6c-3.4-2.9-9.8-4.7-15.9-4.7c-7,0-13.7,2.6-17.2,6.7c-4.4,5.3-7.3,15.5-7.3,26.1
				c0,20.6,10.9,34.5,26.9,34.5c4.2,0,7.5-0.9,9.5-2.6c1.7-1.5,2.3-3.9,2.3-8.4c0-3.1-0.3-5.6-1-6.2c-0.6-0.9-4.5-1.4-12.6-2v-2.6
				h37.6v2.7L96.9,323.5"/>
			<path id="Fill-652" d="M143.2,296.3c-9.6,0-16.8,10.1-16.8,23.8c0,13.5,7.5,23.8,17.2,23.8c9.6,0,16.9-10.3,16.9-24.1
				C160.5,306.8,152.9,296.3,143.2,296.3z M143.8,346.5c-16.1,0-29-11.8-29-26.3c0-14.7,12.6-26.6,28.3-26.6
				c16.1,0,29.1,11.9,29.1,26.7C172.2,334.8,159.6,346.5,143.8,346.5z"/>
			<path id="Fill-653" d="M213.8,296.3c-9.6,0-16.8,10.1-16.8,23.8c0,13.5,7.5,23.8,17.2,23.8c9.6,0,16.9-10.3,16.9-24.1
				C231.1,306.8,223.5,296.3,213.8,296.3z M214.4,346.5c-16.1,0-29-11.8-29-26.3c0-14.7,12.6-26.6,28.3-26.6
				c16.1,0,29.1,11.9,29.1,26.7C242.8,334.8,230.2,346.5,214.4,346.5z"/>
			<path id="Fill-654" d="M298,303.3c-3.2-3.9-6.5-4.9-15.3-4.9c-1.5,0-2.4,0.1-4.3,0.2c-0.4,4-0.6,5.6-0.6,8.5v28.4
				c0,2.7,0.1,4.3,0.6,8.2l1.3,0.2c1.6,0.1,3.2,0.1,4.6,0.1c3.1,0,4.6-0.2,7-1c7.4-2.3,12.3-10.9,12.3-21.6
				C303.7,314.3,301.7,307.6,298,303.3z M309,340.4c-2.1,2.1-4.9,3.8-8.3,4.9c-3,1-5,1.2-9.1,1.2H256v-1.8l9.5-0.5
				c1-0.1,1.3-0.2,1.4-0.8c0.1-0.5,0.2-1.1,0.3-1.7c0.1-1,0.2-2,0.2-3v-35.1c0-2.1-0.2-3.6-0.5-4.8c-0.1-0.6-0.3-0.7-1.4-0.8
				l-7.8-0.5v-1.8h27.9c5.7,0,9.8,0.5,13.9,1.8c9.8,3,16.1,12.6,16.1,24.7C315.6,329.5,313.1,336.4,309,340.4z"/>
			<path id="Fill-655" d="M402,299.2c-1.1,1-3.2,4.8-7.4,14.8l-5.4,12.6c-3.8,8.9-5.2,12-8.3,20H379l-11.3-27.2l-11.4,27.2h-2.1
				l-16.4-39.6c-0.6-1.5-1-2.5-1.3-3.2c-1.1-2.1-2-3.6-2.7-4.2c-1.2-1-3.9-1.6-9.3-2v-1.8h31.1v1.8c-2.9,0.2-4.1,0.2-5.6,0.4
				c-2,0.2-2.9,1-2.9,2.2c0,0.4,0.1,0.8,0.6,2.2L359,331l11.1-26.6h2.6l1.4,3.6l4.2,10.8c3,7.6,3.3,8.3,5.1,12.2l8.6-20.5
				c0.4-1,1.4-3.7,2.2-6.2c0.5-1.3,0.6-2.2,0.6-2.9c0-1.2-0.4-2.1-1.1-2.5c-1-0.5-3.5-0.9-8.8-1.3v-1.8h25.5v1.8
				C405.2,297.8,403.2,298.2,402,299.2"/>
			<path id="Fill-656" d="M445.4,296.3c-9.6,0-16.8,10.1-16.8,23.8c0,13.5,7.5,23.8,17.2,23.8c9.6,0,16.9-10.3,16.9-24.1
				C462.7,306.8,455.1,296.3,445.4,296.3z M446,346.5c-16.1,0-29-11.8-29-26.3c0-14.7,12.6-26.6,28.3-26.6
				c16.1,0,29.1,11.9,29.1,26.7C474.4,334.8,461.8,346.5,446,346.5z"/>
			<path id="Fill-657" d="M518.2,296.3c-9.6,0-16.8,10.1-16.8,23.8c0,13.5,7.5,23.8,17.2,23.8c9.6,0,16.9-10.3,16.9-24.1
				C535.5,306.8,527.9,296.3,518.2,296.3z M518.8,346.5c-16.1,0-29-11.8-29-26.3c0-14.7,12.6-26.6,28.3-26.6
				c16.1,0,29.1,11.9,29.1,26.7C547.2,334.8,534.6,346.5,518.8,346.5z"/>
			<path id="Fill-658" d="M602.4,303.3c-3.2-3.9-6.5-4.9-15.3-4.9c-1.5,0-2.4,0.1-4.2,0.2c-0.4,4-0.6,5.6-0.6,8.5v28.4
				c0,2.7,0.1,4.3,0.6,8.2l1.3,0.2c1.6,0.1,3.2,0.1,4.6,0.1c3.1,0,4.6-0.2,7-1c7.4-2.3,12.3-10.9,12.3-21.6
				C608.2,314.3,606.1,307.6,602.4,303.3z M613.4,340.4c-2.1,2.1-4.9,3.8-8.3,4.9c-3,1-5,1.2-9.1,1.2h-35.6v-1.8l9.5-0.5
				c1-0.1,1.3-0.2,1.4-0.8c0.1-0.5,0.2-1.1,0.3-1.7c0.1-1,0.2-2,0.2-3v-35.1c0-2.1-0.2-3.6-0.5-4.8c-0.2-0.6-0.3-0.7-1.4-0.8
				l-7.8-0.5v-1.8H590c5.7,0,9.8,0.5,13.9,1.8c9.8,3,16.1,12.6,16.1,24.7C620,329.5,617.5,336.4,613.4,340.4z"/>
		</g>
	</g>
</g>
</svg>
