<svg id="Layer_1" data-name="Layer 1" xmlns="http://www.w3.org/2000/svg" xmlns:xlink="http://www.w3.org/1999/xlink" viewBox="0 0 464 320"><defs><style>.cls-1{fill:none;}.cls-2{clip-path:url(#clip-path);}.cls-3{fill:#1d1d1b;}.cls-13,.cls-4{font-size:54px;font-family:HelveticaNeue, Helvetica Neue;}.cls-4{letter-spacing:-0.01em;}.cls-5{letter-spacing:-0.03em;}.cls-6{letter-spacing:-0.03em;}.cls-7{letter-spacing:-0.01em;}.cls-8{letter-spacing:-0.01em;}.cls-9{letter-spacing:-0.02em;}.cls-10{letter-spacing:-0.01em;}.cls-11{letter-spacing:-0.02em;}.cls-12{letter-spacing:0em;}.cls-14{letter-spacing:-0.01em;}.cls-15{letter-spacing:-0.01em;}.cls-16{letter-spacing:-0.02em;}.cls-17{letter-spacing:-0.01em;}.cls-18{letter-spacing:-0.01em;}.cls-19{letter-spacing:-0.01em;}.cls-20{letter-spacing:-0.01em;}.cls-21{letter-spacing:0.02em;}.cls-22{letter-spacing:-0.02em;}.cls-23{fill:#2f88c9;}</style><clipPath id="clip-path"><rect class="cls-1" width="464" height="320"/></clipPath></defs><g class="cls-2"><path class="cls-3" d="M75.23,56.09c-.56,1.08-1,1.71-1,2.54s.95,1.43,1.36,2.26c.38-1,1-1.71.93-2.47s-1.13-1.77-1.32-2.33"/><path class="cls-3" d="M89.69,56.09c.57,1.08,1,1.71,1,2.54s-.94,1.43-1.36,2.26c-.38-1-1-1.71-.92-2.47s1.13-1.77,1.31-2.33"/><path class="cls-3" d="M66.91,55.48a1,1,0,1,0-1-1,1,1,0,0,0,1,1"/><path class="cls-3" d="M67.57,56.87a1,1,0,1,0-1.95,0,1,1,0,0,0,1.95,0"/><path class="cls-3" d="M68.05,59.23a1,1,0,0,0-2,0,1,1,0,0,0,2,0"/><path class="cls-3" d="M72.32,50.82a1,1,0,1,0-1-1,1,1,0,0,0,1,1"/><path class="cls-3" d="M69.9,51.57a1,1,0,1,0-1-1,1,1,0,0,0,1,1"/><path class="cls-3" d="M68,53.24a1,1,0,1,0-1-1,1,1,0,0,0,1,1"/><path class="cls-3" d="M74.87,51.05a1,1,0,1,0-1-1,1,1,0,0,0,1,1"/><path class="cls-3" d="M77.29,51.75a1,1,0,1,0-1-1,1,1,0,0,0,1,1"/><path class="cls-3" d="M79.57,52.82a1,1,0,1,0-1-1,1,1,0,0,0,1,1"/><path class="cls-3" d="M97,54.5a1,1,0,1,0,1-1,1,1,0,0,0-1,1"/><path class="cls-3" d="M98.3,55.89a1,1,0,1,0,1,1,1,1,0,0,0-1-1"/><path class="cls-3" d="M97.82,58.26a1,1,0,0,0-1,1,1,1,0,0,0,1,1,1,1,0,0,0,1-1,1,1,0,0,0-1-1"/><path class="cls-3" d="M92.57,50.82a1,1,0,1,0-1-1,1,1,0,0,0,1,1"/><path class="cls-3" d="M95,51.57a1,1,0,1,0-1-1,1,1,0,0,0,1,1"/><path class="cls-3" d="M96.91,53.24a1,1,0,1,0-1-1,1,1,0,0,0,1,1"/><path class="cls-3" d="M90,51.05a1,1,0,1,0-1-1,1,1,0,0,0,1,1"/><path class="cls-3" d="M87.6,51.75a1,1,0,1,0-1-1,1,1,0,0,0,1,1"/><path class="cls-3" d="M84.35,51.85a1,1,0,1,0,1-1,1,1,0,0,0-1,1"/><path class="cls-3" d="M80.78,57.13h1.09V53a4,4,0,0,1-1.09-.34Z"/><path class="cls-3" d="M84.12,52.61a4,4,0,0,1-1.09.33v4.19h1.09Z"/><path class="cls-3" d="M81.83,48V45.51A3.11,3.11,0,0,0,79.41,48Z"/><path class="cls-3" d="M83.09,48h2.38a3.06,3.06,0,0,0-2.38-2.48Z"/><path class="cls-3" d="M79.45,49.18a3.07,3.07,0,0,0,6,0Z"/><path class="cls-3" d="M84.13,45.12A3.46,3.46,0,0,1,82.79,43,4,4,0,0,1,85,44.36V41a3.82,3.82,0,0,1-2.22,1.41A4.92,4.92,0,0,1,84.07,40H80.82a4.76,4.76,0,0,1,1.28,2.41A3.82,3.82,0,0,1,79.88,41v3.36A4,4,0,0,1,82.1,43a3.46,3.46,0,0,1-1.34,2.17Z"/><path class="cls-3" d="M84.22,115.22a1.2,1.2,0,1,1,0-2.4,1.2,1.2,0,1,1,0,2.4m-5.76-1.79a1.31,1.31,0,1,1,1.31-1.31,1.31,1.31,0,0,1-1.31,1.31m-2-5.84-.33-.24a1.16,1.16,0,0,0-1.64,0,7.07,7.07,0,0,0-.7.75l-.34.38.23.18c.63.5.73,1.06.55,1.38a.56.56,0,0,1-.33.25A1.65,1.65,0,0,1,72.7,110l-.24-.13-.14.24-.11.16c-.06.08-.11.17-.17.26a2.33,2.33,0,0,0-.4,1.12.93.93,0,0,0,0,.24,1.06,1.06,0,0,0,.61.63l.15.09c.29.19.69.42,1,.59a1.69,1.69,0,0,1-1.67.06,2.53,2.53,0,0,1-1.38-1.84,5.11,5.11,0,0,1,.93-2.6l.09-.14-.09-.15a6.83,6.83,0,0,1-.44-.84c.33,0,.64.1,1,.17l.15,0,.12-.11c.36-.41,1.66-1.71,2.86-1.71a2.08,2.08,0,0,1,1.52.76A2.4,2.4,0,0,1,77,108c-.18-.12-.36-.26-.55-.41m11.25,4.62a62.31,62.31,0,0,1-10.15-3.64v0a2.66,2.66,0,0,0-.7-2.07,2.53,2.53,0,0,0-1.93-.95,2.57,2.57,0,0,0-.94.18,19.57,19.57,0,0,1-1.41-1.46,16.67,16.67,0,0,1-3-5.24,18.78,18.78,0,0,1-.88-3.47,3.17,3.17,0,0,1-3.21,2.33c0-.21,0-.71-.17-.76-.51.56-1.26,1.17-3,.56a26.17,26.17,0,0,0,1.13,4,23.68,23.68,0,0,0,4.41,7.42,21.53,21.53,0,0,0,2,2,2.8,2.8,0,0,0,0,.4,3.08,3.08,0,0,0,1.7,2.35,2.34,2.34,0,0,0,2.5-.28,27.94,27.94,0,0,0,5.45,2.11,24.6,24.6,0,0,0,6.27,1,11.1,11.1,0,0,0,5.43-1.94,15.15,15.15,0,0,0,2.06-1.56l.21-.19a17.7,17.7,0,0,1-5.7-.69"/><path class="cls-3" d="M86.87,124.68A1.08,1.08,0,0,0,86,124c-1.26,0-.77,3.3-2.26,3.3a.9.9,0,0,1-1-.88c0-.47.33-.61.33-1s-.29-.51-.62-.51-.62.13-.62.51.32.51.32,1a.89.89,0,0,1-1,.88c-1.5,0-1-3.3-2.26-3.3a1,1,0,0,0-.82.64,2.87,2.87,0,0,1-.4-1.3,1.44,1.44,0,0,1,1.45-1.45c1.68,0,1.29,2.29,2.08,2.29a.56.56,0,0,0,.62-.56c0-.65-1.17-1.27-1.17-2.19s.85-1.73,1.79-2.48c.94.75,1.78,1.54,1.78,2.48S83.1,123,83.1,123.66a.56.56,0,0,0,.62.56c.8,0,.41-2.29,2.08-2.29a1.46,1.46,0,0,1,1.46,1.45,3.11,3.11,0,0,1-.39,1.3m-4.39,4.64a.82.82,0,1,1,.82-.82.82.82,0,0,1-.82.82m3.32-8a2.17,2.17,0,0,0-.62.1v-3.69a25,25,0,0,1-5.37-.8v4.5a2,2,0,0,0-.65-.11,2.1,2.1,0,0,0-2.09,2.1,3.82,3.82,0,0,0,1,2.38c.24-.59.46-1.05.77-1.05.65,0,.36,3.18,2.23,3.28a1.45,1.45,0,0,0-.1.51A1.48,1.48,0,0,0,82.48,130a1.46,1.46,0,0,0,1.46-1.47,1.25,1.25,0,0,0-.09-.51c1.87-.08,1.56-3.28,2.21-3.28.32,0,.51.44.8,1.05a3.88,3.88,0,0,0,1-2.38,2.1,2.1,0,0,0-2.1-2.1"/><path class="cls-3" d="M129,125.72a.38.38,0,0,0-.48-.24c-4.31,1.25-9.65-2.32-14.83-5.77-4.34-2.89-8.46-5.63-12-5.63a7.28,7.28,0,0,0-3.46.82,6.21,6.21,0,0,0-2.74,3.18,19.31,19.31,0,0,1-1.72,3.22,4.66,4.66,0,0,0-1,2.47,2.7,2.7,0,0,0,.9,1.93,9.75,9.75,0,0,0,2.26,1.55l.66.33c.85.41,1.38.69,1.48,1.17a29.11,29.11,0,0,1-6.41,1.82,57.5,57.5,0,0,1-18.39,0,28.64,28.64,0,0,1-6.42-1.83c.06-.72.6-1,1.54-1.44.21-.1.44-.21.66-.33a12.36,12.36,0,0,0,2.22-1.39,2.32,2.32,0,0,0,.89-1.81,4.81,4.81,0,0,0-1-2.47,19.31,19.31,0,0,1-1.72-3.22,6.11,6.11,0,0,0-2.74-3.17,7.18,7.18,0,0,0-3.45-.83c-3.52,0-7.64,2.74-12,5.65-5.18,3.44-10.52,7-14.82,5.75a.41.41,0,0,0-.49.24.42.42,0,0,0,.21.5,17.63,17.63,0,0,1,3.59,2.35c1.55,1.22,3,2.35,4.64,2.35a11.07,11.07,0,0,0,5.16-1.53,56.61,56.61,0,0,0,5.28-3.31c3.4-2.34,6.93-4.73,10.26-5-.35.36-.69.66-1,.94-1,.88-1.84,1.65-1.84,3.2a7.11,7.11,0,0,0,1,3.28c.17.35.36.74.56,1.19a12.88,12.88,0,0,1,.75,2.4c.1.4.2.83.34,1.35a5.09,5.09,0,0,0,3,3.53c2.84,1.44,7.73,2.17,14.55,2.17S94.16,138.41,97,137a5,5,0,0,0,3-3.53c.15-.52.25-.95.35-1.35a12.17,12.17,0,0,1,.75-2.4c.27-.6.53-1.09.77-1.53a5.64,5.64,0,0,0,.91-2.82c0-1.55-.89-2.35-1.93-3.28q-.5-.44-1.05-1c3.34.28,6.87,2.67,10.27,5a53,53,0,0,0,5.28,3.33,11.11,11.11,0,0,0,5.17,1.53c1.62,0,3.08-1.15,4.64-2.36a17.42,17.42,0,0,1,3.58-2.35.41.41,0,0,0,.21-.49"/><path class="cls-3" d="M83,92.26V76.1a12.17,12.17,0,0,1,4.88,1.26,13.85,13.85,0,0,1,4.45,3.52,16.79,16.79,0,0,1,3,5.24,18.68,18.68,0,0,1,1.1,6.14Zm-.56-22.89a17.19,17.19,0,0,0-9.59,2.57c-1.06-.63-1.51-1.25-1.51-2,0-2.61,7.36-2.84,11.1-2.84s11.09.23,11.09,2.84c0,.72-.45,1.34-1.52,2a17.08,17.08,0,0,0-9.57-2.57m-.24,22.89H68.48a18.68,18.68,0,0,1,1.1-6.14,17,17,0,0,1,3-5.24,14,14,0,0,1,4.46-3.52,12.14,12.14,0,0,1,5.19-1.27Zm20.88-1a5.7,5.7,0,0,1-1.66-1.93c-.5-1.07-2.64-5.26-3-5.82a2.58,2.58,0,0,1-.41-1.26,1.9,1.9,0,0,1,.45-1.12c.16-.2.63-.66.81-.94s.26-.36.37-.5a19.81,19.81,0,0,0-2.6-3.51,20.61,20.61,0,0,0-4.17-3.61A3.1,3.1,0,0,0,94.58,70a2.34,2.34,0,0,0-.86-1.83,24.08,24.08,0,0,1,3.72-7.54l-2.76-1.17a4.31,4.31,0,0,1,.6,3.12,3.58,3.58,0,0,1-1.54-2.09,12.16,12.16,0,0,1-1,3A2.53,2.53,0,0,1,95,63.25a3.3,3.3,0,0,1-3.48,1.17c-1-.24-2-.76-1.92-1.53a.91.91,0,0,1,1-.93c.61,0,.64,1,.45,1.38.79-.45,1.62-2.76.37-3.11-1-.26-1.86,1.07-2.18,2.1-.19-1.25-.7-2.42-1.67-2.36-1.28.09-.86,2.44-.42,3,.07-.82.53-1.26.9-1.24s.79.27.72,1S87.57,64,86.34,64s-3.22-.36-3.41-2.62a4.3,4.3,0,0,1,2.46,1.47,14.26,14.26,0,0,1,0-3.75A3.9,3.9,0,0,1,83,60.57,4.56,4.56,0,0,1,85,58H80a4.6,4.6,0,0,1,2,2.6,4,4,0,0,1-2.39-1.47,14.71,14.71,0,0,1,0,3.75A4.23,4.23,0,0,1,82,61.39C81.8,63.64,79.75,64,78.58,64s-2.29-.46-2.37-1.22.37-1,.71-1,.83.42.9,1.24c.45-.6.86-2.95-.41-3-1-.06-1.5,1.11-1.68,2.36-.32-1-1.21-2.36-2.18-2.1-1.24.35-.42,2.66.38,3.11-.2-.41-.16-1.33.44-1.38a.93.93,0,0,1,1,.93c0,.77-.94,1.29-1.92,1.53A3.32,3.32,0,0,1,70,63.26a2.55,2.55,0,0,1,2.29.21,12.59,12.59,0,0,1-1-3,3.51,3.51,0,0,1-1.58,2.11,4.37,4.37,0,0,1,.61-3.14L67.48,60.6c1.32,1.46,2.87,4.8,3.74,7.56A2.32,2.32,0,0,0,70.39,70,3.06,3.06,0,0,0,72,72.55a20.34,20.34,0,0,0-4.17,3.61,23.09,23.09,0,0,0-4.42,7.37c.38.39,2,2.2,2.43,2.69A4.49,4.49,0,0,1,67,88.64a3.71,3.71,0,0,0,1,2.59,4.66,4.66,0,0,1,.55,1.84H82.24v15a2.08,2.08,0,0,0-1.58.75c1.59.64,3.09,1.22,4.62,1.69a4.09,4.09,0,0,1,.83-2.2s-2-.19-3.07-.24v-15H96.48A19.1,19.1,0,0,1,95.38,99a16.79,16.79,0,0,1-3,5.24,13.81,13.81,0,0,1-4.45,3.51c-.28.13-.27.33-.55.44a4.2,4.2,0,0,0-.66,1.21,5.94,5.94,0,0,0-.3,1.37c.63.19,1,.3,1.57.45,4.71,1.17,5.89.82,6.15.62h0a20.94,20.94,0,0,0,3-2.78,23.51,23.51,0,0,0,4.42-7.42,25.86,25.86,0,0,0,1.62-9.06c0-.57,0-.76,0-1.33"/><path class="cls-3" d="M90.56,82.67a.39.39,0,0,0-.14.38.41.41,0,0,0,.41.26,1,1,0,0,0-.32.57,1,1,0,0,0,.64-.14.39.39,0,0,0,.13.45.35.35,0,0,0,.36,0,14.77,14.77,0,0,1,2,5.46.34.34,0,1,0-.23.48H90.07a.44.44,0,0,0-.22-.45.39.39,0,0,0-.45.17,1,1,0,0,0-.27-.6.92.92,0,0,0-.26.6.4.4,0,0,0-.46-.17.46.46,0,0,0-.22.45H85.33a1,1,0,0,0,.2-.57.87.87,0,0,0-.58.21V85.12a.37.37,0,0,0,.3-.67,1,1,0,0,0,.6-.27.94.94,0,0,0-.6-.26.4.4,0,0,0,.17-.45.42.42,0,0,0-.47-.22V79.32a.91.91,0,0,0,.5.2,1,1,0,0,0-.13-.56,11,11,0,0,1,2.58,1.26,12.79,12.79,0,0,1,2.66,2.45m3.79,7a.25.25,0,0,1-.14.48,15.31,15.31,0,0,0-2.58-6.81s0,0,0,0a.86.86,0,0,0,.57-.7.85.85,0,0,0-.86.37,3.65,3.65,0,0,0-.29-.37,12.79,12.79,0,0,0-2.92-2.74,10.58,10.58,0,0,0-3.23-1.48.26.26,0,0,1,.49-.07c0-.43-.32-.64-.54-.56a.37.37,0,0,0-.24.34.89.89,0,0,0-.6-.33.89.89,0,0,0,.18.64.39.39,0,0,0-.35.18.47.47,0,0,0,.47.63c-.21-.17-.12-.5.14-.47V84a.83.83,0,0,0-.87.21.85.85,0,0,0,.87.23v5.7c-.29,0-.36-.33-.13-.48-.44,0-.62.39-.52.59a.43.43,0,0,0,.43.21A.91.91,0,0,0,84,91a.89.89,0,0,0,.6-.24.39.39,0,0,0,.21.44c.2.1.58-.08.58-.51a.26.26,0,0,1-.49-.12h4a.91.91,0,0,0,.23.88.91.91,0,0,0,.23-.88h4.41a.26.26,0,0,1-.48.15.48.48,0,0,0,.6.49.4.4,0,0,0,.2-.44.86.86,0,0,0,.61.21.9.9,0,0,0-.25-.59.41.41,0,0,0,.43-.21.48.48,0,0,0-.53-.58"/><path class="cls-3" d="M92,88.18a.73.73,0,0,0,.37-.34.48.48,0,0,1-.38,0c.13-.08.29,0,.13-.25s-.26-.26-.42-.07a1,1,0,0,1-1.22-.85.64.64,0,0,0,.36.3A.75.75,0,0,0,91,87a.58.58,0,0,0,.14,0,1.18,1.18,0,0,0,.31,0h0v0a.51.51,0,0,0,.42-.43c0-.44-.38-.64-.84-1l-.44-.39c-.15-.31,0-.61-.45-1.17a2.18,2.18,0,0,0-.13-.52,1.46,1.46,0,0,0,.25,1.7c.44.49,1.39,1,1.36,1.37,0,.1-.11.18-.24.22a.32.32,0,0,0-.13,0l-.09,0a.79.79,0,0,1-.21-.1,1.48,1.48,0,0,1-.32-.25,10.21,10.21,0,0,1-1-1.21,1.78,1.78,0,0,1-.18-1.58c.31-.43-.19-1.32-.48-1.52a.87.87,0,0,0,0-.46.49.49,0,0,1-.27,0c-.09-.16-.12-.2-.22-.21s-.19-.14-.22-.21c-.1.09-.14.19-.25.2s-.23,0-.29,0a.4.4,0,0,1-.34.12c-.18,0-.18.1-.15.23s0,.21.12.26l.06,0,.14.16.1-.18c.08-.07.31-.09.36.08s0,.15-.09.16l-.4,0c-.09,0-.09.12-.09.21s.12.16.33.1.6-.09.6.09c0,.48-.55.45-.67,1a1.16,1.16,0,0,1-.34-.32A1.79,1.79,0,0,0,87,83a2.32,2.32,0,0,0-.41-.34c-.19-.11-.2-.2-.2-.4s.08-.32.07-.48a.85.85,0,0,0,0-.15.27.27,0,0,0-.25-.16s.09.07.09.17l-.07.09a.1.1,0,0,0,0,.16V82s0,0,0,0-.1-.3-.2-.3a.27.27,0,0,0-.09,0,0,0,0,0,0,0,0c0-.12-.13-.22-.28-.07a.26.26,0,0,1,.12,0,.54.54,0,0,0,0,.12c0,.12.09.18.23.18a0,0,0,0,1,0,0l0,.06s0,0,0,0c-.22-.1-.3,0-.32.09a.22.22,0,0,0,0,.1c-.09,0-.11.17,0,.25s0-.12,0-.14,0,0,0,0,.06,0,.06.06.06,0,.12,0a.06.06,0,0,1,.06,0l.07,0s0,0,0,0-.12.26,0,.31c-.08.15-.33.09-.32-.14-.18.3.13.52.38.41,0,.1,0,.32.06.32s0-.06,0-.06,0,0,0,0,0,.16.14.17a.1.1,0,0,1,0-.1c0,.08.09.15.13.22a2.09,2.09,0,0,0,.94,1,2.7,2.7,0,0,0-.67.63c-.16.15-.4.32-.54.24s-.08-.1-.17-.17a.23.23,0,0,0-.18,0l-.09,0a.25.25,0,0,0-.3.08.25.25,0,0,1,.2,0v.09c0,.07.05.15.34.13,0,0,0,0,0,0a.15.15,0,0,1-.16,0c-.13,0-.19-.14-.28,0l-.07.08h0c-.12.05-.22.26-.09.36a.21.21,0,0,1,.09-.18l.06.07c.08.13.17.19.37-.1,0,0,0,0,0,0s-.13.33,0,.36h.09v0a.26.26,0,0,0,.33.16.28.28,0,0,1-.18-.2h.08c.11-.11,0-.24,0-.32a0,0,0,0,1,0,0c0,.06.12.2.27.11a.21.21,0,0,0,.12-.18.83.83,0,0,1,.53-.1c0-.11.09-.26.3-.31a.33.33,0,0,1,.37.07,1.42,1.42,0,0,1,.21-.36c0,.83,1.11.82,1.38,1.32a2,2,0,0,0-.94-.18c-.27,0-.74.31-.81.62a1.17,1.17,0,0,0,.49.9c-.33.06-.45,0-.74,0h0c-.26,0-.29-.43-.6-.31,0,0-.07,0-.08.06h0c-.11,0-.27.15-.25.27a.27.27,0,0,1,.2-.11.1.1,0,0,0,0,.06s0,.1.12.1.08,0,.12,0a0,0,0,0,1,0,0c0,.11-.38-.07-.31.25l0,.1c0,.08.07.19.24.13,0,0-.09-.06-.08-.11h.07s0,0,0,0,0,0,0,0a0,0,0,0,1,0,0s0,0,0,.07a.93.93,0,0,0,0,.1c0,.12.15.24.32.12,0,0-.15,0-.16-.09a.12.12,0,0,0,.08,0,.12.12,0,0,0,0-.11s0,0,0,0h.08a0,0,0,0,1,.05,0,.19.19,0,0,0,.23.09.14.14,0,0,0,.11-.08l.14.08c0-.11.05-.22.31,0l.2-.13s.24.1.34,0,.07-.15.07-.27-.17-.23-.23-.47c-.08-.43.5-.66.84-.59a1.88,1.88,0,0,0,1.06,1.17c.38.13.54-.29.67-.23s0,0,.06.12a2.56,2.56,0,0,1,0,.45c0,.09-.26,0-.4,0a.13.13,0,0,0-.14.07c-.13,0-.27.12-.26.25a.52.52,0,0,1,.21-.11.15.15,0,0,1,0,.06.18.18,0,0,0,.31.11s.07,0,0,0-.26.23-.11.28l.08,0a.23.23,0,0,0,.16.22c0-.06,0-.09,0-.2h.09c.1,0,0-.21.17-.27s0,0,0,0-.07.26,0,.3h.08a.2.2,0,0,0,.3.09.38.38,0,0,1-.13-.1l.08-.11c.07-.25-.15-.25-.15-.36s.25,0,.25-.29v0c.11-.07.23-.15.25-.24a.59.59,0,0,1-.32-.06Z"/><path class="cls-3" d="M79.48,95.66h-.17a.44.44,0,0,0-.51.38c0,.29.17.45.45.47h.14a1,1,0,0,0,0,.18c-.06.41-.16,1.1-.28,1.89L77,95.64a9.86,9.86,0,0,1,2.15-.81c.32,0,.4.17.32.83m-.78,5.11-3.22-4.64a6.83,6.83,0,0,0,1-.31l2.43,3.47c-.07.49-.16,1-.24,1.48m-.33,2.09-4.58-6.59.43,0a5.49,5.49,0,0,0,.7-.05l3.67,5.27c-.07.5-.16,1-.22,1.35M73.2,96.32l5,7.23c-2.7-1-5.37-3.46-5-7.23m7.48-.57h-.24v-.22a1.26,1.26,0,0,0-1.32-1.4c-.76,0-2.26,1-4.35,1a5.86,5.86,0,0,1-2.61-.82l-.26.63a.17.17,0,0,0,0-.07.52.52,0,1,0-.51.51.51.51,0,0,0,.39-.19l-.26.63.27.11A8.53,8.53,0,0,0,78,104.34c.62-.16,1.24-.06,1.24.61,0,.41-.2.58-.57.58s-.4-.13-.4-.3.48-.11.53-.31-.11-.36-.38-.36a.7.7,0,0,0-.73.67.9.9,0,0,0,.94.91,1.2,1.2,0,0,0,1.29-1.39c.22,0,.48,0,.52-.24l0-.64-.22,0,.17-7.25.17,0a.45.45,0,0,0,.52-.4.45.45,0,0,0-.43-.45"/><path class="cls-3" d="M77,80.43c0-.05,0-.09.09-.09s.08,0,.1-.07,0-.08-.09-.13.09,0,.06-.06-.1,0-.11,0,0,0,0-.07a.06.06,0,0,1,.08,0l.26.13s0,0,0,.06,0,.07,0,.09,0-.08-.06-.09,0,0,0,.09-.13,0-.15,0,0,.08,0,.13,0,.07,0,.13a.16.16,0,0,1-.2.09.19.19,0,0,1,0-.22m.3-.66a.13.13,0,0,1-.2.07c-.07-.07,0-.09-.07-.22l.27.15m.21.11a1.55,1.55,0,0,0,.31.12c-.14,0-.1.1-.2.09s-.13-.12-.11-.21m-.71.17h0m3,1.1c1,0,1.46-.32,1.46-.62,0-1.09-2.68-.42-2.68-1.07a.43.43,0,0,1,.19-.31h0c1.37-.12,1.38-1.06,2.36-1.24-1.17-.17-1.34.75-1.84.8a.61.61,0,0,0,.34-.57c-.23.32-.76.35-1,.71a.29.29,0,0,0,0,.2.47.47,0,0,0-.28.39c0,1,2.73.32,2.73,1.07,0,.27-.47.44-1.22.44-.57,0-1-.4-2-.13,0-.17.36-.51.22-.67a.24.24,0,0,0,.17-.2.38.38,0,0,0-.2-.1s0-.11,0-.14a.58.58,0,0,0-.06-.15.93.93,0,0,0-.23-.16.79.79,0,0,0-.25-.07.54.54,0,0,0-.15,0c-.07,0-.13,0-.14.07a.31.31,0,0,0-.19-.09.4.4,0,0,0,0,.29c-.09,0-.2.26-.29.23s.06.11.09.11c-.08.15-.12.32-.21.32l.07.09a2.75,2.75,0,0,0-.14.62.76.76,0,0,0-.22-.17c-.16-.09-.15-.17-.12-.32s.11-.26.12-.39,0-.09,0-.12a.21.21,0,0,0-.21-.15A.15.15,0,0,1,76,80l-.07.06s-.06.1,0,.14,0,0,0,0a.15.15,0,0,1,0,.06s0,0,0,0-.06-.23-.15-.25h-.07s0,0,0,0-.09-.18-.25-.05c0,0,.09,0,.1,0l-.05.11c0,.1.06.14.17.15s.05,0,.05,0,0,0,0,0,0,0,0,0c-.2-.08-.29,0-.31.08v.07c-.08,0-.11.13,0,.21s0-.1.06-.11h0l0,0s0,0,.12,0h0l0,0a0,0,0,0,1,0,0c-.15.12-.15.23,0,.27s0,0,0,0c0,.22-.36.17-.31,0-.22.24.06.43.33.31h0c0,.05,0,.08.07.09a.06.06,0,0,1,.06,0s0,0,0,0a.11.11,0,0,0,.09.15s0-.1,0-.1.12.19.26.34a2.64,2.64,0,0,1-.61.19,1.28,1.28,0,0,0-.47,0c-.16.08-.53.23-.65.07s0-.11-.07-.19-.09-.1-.12-.1h-.1a.2.2,0,0,0-.25,0,.15.15,0,0,1,.14.09s0,.07,0,.09,0,.12.23.2a0,0,0,0,1,0,0,.14.14,0,0,1-.15,0c-.09-.07-.1-.18-.21-.11L74,82h0c-.1,0-.26.12-.19.24a.19.19,0,0,1,.13-.11.45.45,0,0,1,0,.08c0,.13.08.21.33,0,0,0,0,0,0,0s-.22.21-.1.29l.06,0s0,0,0,0a.21.21,0,0,0,.21.23.23.23,0,0,1-.08-.21l.08,0c.12,0,.06-.2.12-.25s0,0,0,0,0,.2.19.19a.23.23,0,0,0,.18-.22s0,0,0,0a.14.14,0,0,1,.07.16.16.16,0,0,0,.1-.1.22.22,0,0,1,0,.25.4.4,0,0,0,.23-.25.35.35,0,0,0,0,.08h0a.47.47,0,0,0,.29,0s0,0,0,0a.14.14,0,0,0,0,.14s0-.07,0-.07,0,.14.09.23c0-.36.23-.22.46-.37,0,0,0,0,0,0a.29.29,0,0,1-.09.11c.08,0,.27-.08.27-.21s.08-.07.15-.12a.25.25,0,0,0,.26-.13c0,.05,0,.15,0,.18.24,0,.49-.26.58-.28.51-.11-.32-.47.73-.42a.49.49,0,0,0,.31-.11c-.08.16-.08.48.08.5a.59.59,0,0,1,.27.12s0,0,0,0a.66.66,0,0,0-.22.06c-.26.16-.26-.37-.52-.27L78,82c-.1,0-.25.13-.22.23a.31.31,0,0,1,.16-.09v.06s0,.08.1.08.06,0,.1,0,0,0,0,0-.32-.06-.26.21a.15.15,0,0,0,0,.08c0,.09,0,.17.2.12,0,0-.08-.05-.07-.1h.07s0,0,0,0h0s0,0,0,0,0,0,0,.06,0,.07,0,.08.13.2.27.1c0,0-.13,0-.14-.07a.1.1,0,0,0,.06,0s0,0,0-.09,0,0,0,0h.11a.16.16,0,0,0,.2.09c.17-.05,0-.21.16-.24a.14.14,0,0,1,.11,0c.14,0,.34,0,.38,0a.39.39,0,0,0-.13-.4c-.09,0,0-.15-.08-.29a1.21,1.21,0,0,0,.52.14c.38,0,0-.06.18-.16a.59.59,0,0,1,.46,0c.05,0,.09,0,.07.09s0,.22,0,.31-.2,0-.3,0a.17.17,0,0,0-.13,0c-.09,0-.2.11-.19.21a.38.38,0,0,1,.17-.08v0a.14.14,0,0,0,.25.08s0,0,0,0-.21.19-.1.25l.07,0a.16.16,0,0,0,.11.18s0-.06,0-.16h.07c.08,0,0-.17.14-.22a0,0,0,0,1,0,0c0,.1-.06.22,0,.24h.07c0,.08.12.13.23.06a.2.2,0,0,1-.11-.06s.07-.07.07-.09c.06-.21-.11-.21-.11-.29s.19,0,.19-.24a.13.13,0,0,0-.08-.12s0,0,0,0h0s.1,0,.13-.06c-.14,0-.1-.11-.12-.2a0,0,0,0,1,0,0s.08-.09.07-.22c-.05.07-.22.15-.23,0s0-.12-.16-.09-.38-.1-.85-.15c0,0,0,0,0,0"/><path class="cls-3" d="M75.37,86.33h0s0,0,0,0m-.79-1.68c0-.06.06-.12.1-.12a.11.11,0,0,0,.12-.08c0-.07,0-.1-.11-.15s.11,0,.07-.08-.1,0-.12,0,0,0,0-.07.06,0,.1,0l.3.15s.07,0,.07.07,0,.1,0,.1,0-.09-.08-.1,0,.05,0,.12-.14-.06-.18,0,0,.09,0,.15,0,.08,0,.15-.11.17-.21.11a.17.17,0,0,1-.07-.24m.36-.77c0,.08-.16.15-.24.07s0-.1-.09-.26a1.69,1.69,0,0,0,.33.19m.23.11a1.66,1.66,0,0,0,.37.15c-.17,0-.12.11-.24.11s-.15-.15-.13-.26m-1.53,1.38s0,0,0,0,0,0,0,0m7.52-.56c0-.29-.34-.48-1.29-.48s-3.13.35-3.13-.18c0-.27.42-.25.93-.22a.41.41,0,0,0,.21.11c1.24.37,2.7-.29,3.45-.07-.88-.68-1.63,0-2.56-.19.55,0,.73-.15.76-.3-.43.27-1.24-.14-1.74.17a.18.18,0,0,0-.08.07c-.69,0-1.24,0-1.24.43,0,1,2.58.39,3.39.39s1,.09,1,.24-.81.29-1.27.29A20.49,20.49,0,0,0,75.5,85c.1-.2.33-.47.21-.62a.3.3,0,0,0,.19-.25.43.43,0,0,0-.22-.1c0-.06,0-.13-.07-.17s0-.15-.07-.17a.82.82,0,0,0-.27-.18,1.4,1.4,0,0,0-.3-.09l-.17,0c-.06,0-.15,0-.16.07a.4.4,0,0,0-.22-.1.42.42,0,0,0,0,.35c-.12,0-.24.29-.35.26s.08.12.11.12c-.09.18-.14.38-.25.38.07.1.12.14.17.15A2.4,2.4,0,0,0,74,85l-.21-.08h0a.18.18,0,0,1-.09,0l.09,0-.11,0a2.8,2.8,0,0,0-.43-.35c-.18-.12-.18-.21-.17-.41s.1-.32.1-.47,0-.1,0-.15a.23.23,0,0,0-.24-.17.21.21,0,0,1,.09.18l-.09.09a.13.13,0,0,0,0,.16s0,0,0,0a.26.26,0,0,1,0,.07s0,0,0,0-.08-.29-.19-.3-.06,0-.08,0,0,0,0,0-.13-.23-.28-.07a.19.19,0,0,1,.12,0,.27.27,0,0,0,0,.13c0,.12.07.17.2.18s0,0,.05,0a.15.15,0,0,0,0,.06s0,0,0,0c-.22-.1-.32,0-.32.1a.21.21,0,0,0,0,.08c-.09.06-.11.17,0,.27s0-.12.05-.14l0,0s0,.06,0,.06.05,0,.13,0a0,0,0,0,1,0,0l.06,0s0,0,0,0c-.16.15-.14.29,0,.32,0,0,0,0,0,.05a.18.18,0,1,1-.35-.05c-.22.3.12.54.38.38,0,0,0,0,0,0s0,.09.09.09S73,85,73,85s0,0,0,0a.16.16,0,0,0,.12.17s0-.11,0-.11.16.21.38.33.31.27.43.15c0,.19.14.4.11.4a2.6,2.6,0,0,0-.67,0c-.19.1-.64.26-.76.08s0-.12-.09-.23-.1-.1-.14-.1h-.11a.24.24,0,0,0-.3,0,.15.15,0,0,1,.16.1s0,.09,0,.1,0,.15.28.25c0,0,0,0,0,0a.15.15,0,0,1-.16,0c-.11-.09-.13-.22-.26-.14l-.09,0h0c-.13,0-.32.14-.24.28a.23.23,0,0,1,.16-.11s0,.06,0,.08.09.25.39.06c0,0,0,0,0,0s-.27.24-.11.34l.06,0s0,0,0,0a.29.29,0,0,0,.25.29.32.32,0,0,1-.09-.25l.09,0c.14-.06.07-.23.15-.28s0,0,0,0,0,.23.21.21a.23.23,0,0,0,.22-.24h0a.15.15,0,0,1,.08.18.28.28,0,0,0,.12-.12.24.24,0,0,1-.07.29.44.44,0,0,0,.28-.29l.06.1a0,0,0,0,1,0,0,.58.58,0,0,0,.34,0,0,0,0,0,1,0,0,.15.15,0,0,0,0,.16s.05-.08.08-.08,0,.16.09.26c0-.42.27-.26.53-.43,0,0,0,0,0,0a.24.24,0,0,1-.12.15c.29.05.77-.38.83-.56a1.14,1.14,0,0,1,.28,0c.85.07.26-.77,1.61-.53a.5.5,0,0,0,.33-.15c-.09.18-.09.55.08.58a.69.69,0,0,1,.33.14s0,0,0,0a1,1,0,0,0-.26.06c-.29.19-.29-.43-.59-.31l-.09.06c-.12,0-.29.15-.26.27a.32.32,0,0,1,.2-.11v.06s0,.1.11.1.08,0,.12,0a0,0,0,0,1,0,0c0,.11-.39-.07-.32.25,0,0,0,.08.06.09s.07.2.23.14c0,0-.09,0-.08-.11h.08s0,0,0,0,0,0,0,0,0,0,0,0,0,0,0,.06a.36.36,0,0,0,0,.11.19.19,0,0,0,.32.12s-.14,0-.16-.08l.08,0a.28.28,0,0,0,0-.13s0,0,0,0h.08s0,0,.06,0A.18.18,0,0,0,78,87c.2-.06,0-.25.2-.28s.07,0,.1,0,.42,0,.45,0a.4.4,0,0,0-.15-.46c-.1,0,0-.18-.08-.32a1.46,1.46,0,0,0,.59.14,1,1,0,0,0,.75-.19.67.67,0,0,1,.53,0c.06,0,.11,0,.09.1,0,.24,0,.25,0,.36s-.24,0-.37,0a.19.19,0,0,0-.14,0,.3.3,0,0,0-.22.25.46.46,0,0,1,.2-.11v.06a.17.17,0,0,0,.28.11s.06,0,0,0-.24.21-.11.26a.12.12,0,0,0,.08,0c0,.11.06.21.14.22s0-.08,0-.19h.08c.1,0,0-.2.17-.25s0,0,0,0-.06.25,0,.29l.08,0a.19.19,0,0,0,.27.08s-.1,0-.11-.1.07-.1.07-.11c.07-.23-.15-.24-.15-.34s.24,0,.24-.26a.16.16,0,0,0-.09-.15s0,0,0,0,.13,0,.17-.09c-.19,0-.13-.13-.15-.22s0,0,0,0,.1-.12.08-.26c-.06.09-.25.17-.28,0s0-.12-.17-.08a8.76,8.76,0,0,1-1.05-.08c.63,0,1.56-.17,1.56-.53"/><path class="cls-3" d="M73.48,88.9c0-.06,0-.11.09-.11s.1,0,.12-.08,0-.1-.1-.13.1-.06.06-.09-.11,0-.12,0,0-.06.06-.07,0,0,.09,0l.29.13s.06,0,.06.08,0,.09,0,.09,0-.08-.08-.09-.05,0,0,.1-.13,0-.17,0a.11.11,0,0,0,0,.15s0,.08,0,.15a.15.15,0,0,1-.2.1.17.17,0,0,1-.06-.23m.34-.74c0,.08-.15.16-.23.08s0-.1-.08-.26a.86.86,0,0,0,.31.18m.22.12a1.42,1.42,0,0,0,.36.14c-.17,0-.12.09-.23.09s-.14-.14-.13-.23m6.69.75c0-.28-.3-.46-1.22-.46s-3.73.34-3.73-.18c0-.32,1-.19,1.65-.17a.32.32,0,0,0,.2.13c1.18.33,2.41-.46,3.26-.18-.67-.6-1.54.07-2.43-.11.53,0,1.07-.11,1.1-.26-.4.27-1.55-.17-2,.12l-.09.07c-.87,0-1.93-.11-1.93.4,0,.91,3.21.38,4,.38s.93.08.93.23-.77.26-1.2.26c-.71,0-3.71-.39-4.9,0,.07-.21.36-.52.22-.67.12-.06.2-.14.2-.24a.43.43,0,0,0-.22-.1s0-.11-.06-.16,0-.13-.06-.15a1.28,1.28,0,0,0-.27-.19,1,1,0,0,0-.27-.07s-.16,0-.17,0-.14,0-.16.07a.25.25,0,0,0-.21-.09.47.47,0,0,0,0,.32c-.1,0-.21.28-.32.26s.07.1.11.11c-.09.16-.14.36-.24.36a.37.37,0,0,0,.1.11,1.5,1.5,0,0,0,0,.29l-.09,0h-.15a.57.57,0,0,0-.16,0c-.14,0-.24-.24-.49-.38a.38.38,0,0,1-.19-.39c0-.15.09-.3.07-.45s0-.09,0-.14a.22.22,0,0,0-.24-.15.17.17,0,0,1,.1.15.21.21,0,0,0-.07.09.11.11,0,0,0,0,.16.08.08,0,0,1,0,0,.15.15,0,0,1,0,.06s0,0,0,0-.1-.27-.2-.28h-.08v0c0-.12-.13-.22-.26-.08,0,0,.09,0,.11,0a.41.41,0,0,0,0,.12c0,.13.08.17.21.17s0,0,0,0,0,0,0,.06,0,0,0,0c-.21-.09-.3,0-.31.09a.22.22,0,0,0,0,.08c-.08.06-.1.17,0,.26,0,0,0-.12,0-.14h0l0,.06s0,0,.12,0a0,0,0,0,1,0,0l.07,0s0,0,0,0-.12.27.07.3c0,0,0,0,0,0,0,.25-.35.21-.34,0a.28.28,0,0,0,.39.38s0,0,0,0,0,.09.08.09a.06.06,0,0,1,.06,0s0,0,0,0a.18.18,0,0,0,.13.18c0-.06,0-.11,0-.11a2.75,2.75,0,0,0,.61.55c.06,0,.17,0,.2-.11a.19.19,0,0,0,.08.1c0,.17.12.38.09.38a3.37,3.37,0,0,0-.76,0c-.17.1-.58.25-.71.08s0-.12-.08-.21a.2.2,0,0,0-.14-.11h-.1a.21.21,0,0,0-.28,0,.18.18,0,0,1,.16.1l0,.09s0,.14.25.23c0,0,0,0,0,0a.14.14,0,0,1-.16,0c-.09-.08-.11-.19-.23-.12a.3.3,0,0,1-.09,0h0c-.11,0-.3.13-.22.27a.27.27,0,0,1,.15-.12.13.13,0,0,1,0,.08c0,.14.09.25.37.06,0,0,0,0,0,0s-.24.23-.11.32l.07.06s0,0,0,0a.23.23,0,0,0,.22.26.26.26,0,0,1-.07-.23s.06,0,.07,0,.07-.21.14-.26.05,0,.05,0,0,.21.2.19a.24.24,0,0,0,.22-.23s0,0,0,0a.13.13,0,0,1,.08.15.31.31,0,0,0,.12-.1.25.25,0,0,1-.07.27.4.4,0,0,0,.26-.27l.06.09v0a.58.58,0,0,0,.33,0s0,0,0,0,0,.13,0,.16,0-.08.06-.08,0,.16.08.25c0-.4.52-.2.78-.37,0,0,0,0,0,0a.32.32,0,0,1-.11.13.56.56,0,0,0,.33-.13s0,0,0,0l.41-.18a.5.5,0,0,0,0-.12l.15,0h0c.26,0,.23-.19.34-.17,1.49.2.63-.64,2.4-.48.09,0,.12,0,.19-.1-.1.17-.1.45.08.49a.52.52,0,0,1,.3.13s0,0,0,0a1.15,1.15,0,0,0-.24.06c-.29.18-.29-.4-.58-.29l-.08.06c-.11,0-.28.13-.25.25a.31.31,0,0,1,.19-.1.15.15,0,0,0,0,.06s0,.09.11.09.07,0,.12,0,0,0,0,0-.36-.07-.29.24l0,.1c0,.08.07.17.23.13,0,0-.09-.07-.08-.11H77s0,0,0-.06h0s0,0,0,0,0,0,0,.07a.44.44,0,0,0,0,.1c0,.1.16.22.31.11,0,0-.15,0-.15-.08a.13.13,0,0,1,.07,0s0-.07,0-.11,0,0,0,0h.07a.09.09,0,0,1,.07,0,.17.17,0,0,0,.21.1c.2-.08,0-.25.19-.28s.09,0,.12,0,.38,0,.42,0a.39.39,0,0,0-.15-.44c-.09,0,0-.17-.09-.32a1.5,1.5,0,0,0,.58.15,1,1,0,0,0,.71-.18.67.67,0,0,1,.51,0,.08.08,0,0,1,.08.1c-.05.21,0,.24,0,.32s-.22,0-.35,0-.13.05-.13.07a.25.25,0,0,0-.22.24.43.43,0,0,1,.19-.1.06.06,0,0,0,0,0,.15.15,0,0,0,.27.09s0,0,0,0-.25.21-.11.27l.07,0a.19.19,0,0,0,.13.19s0-.07,0-.17h.08c.09,0,0-.19.15-.24h0c0,.1-.06.24,0,.27l.08,0a.16.16,0,0,0,.26.07.15.15,0,0,1-.12-.09.21.21,0,0,0,.07-.09c.06-.23-.12-.23-.12-.32s.21,0,.21-.26a.13.13,0,0,0-.09-.14,0,0,0,0,1,0,0h0c.06,0,.12,0,.16-.08-.17,0-.1-.12-.14-.21s0,0,0,0,.08-.11.06-.25c0,.09-.24.17-.24,0s0-.12-.19-.08a6.39,6.39,0,0,1-1-.08c.53,0,1.48-.15,1.48-.49"/><path class="cls-3" d="M87.79,96.39h0m-1.37-2.13s0,0,0,0,0,0,0,0m-.07.32h0Zm.24.42c0-.07.06-.12.1-.12s.09,0,.11-.08,0-.1-.11-.14.11,0,.07-.08-.1,0-.11,0,0-.06,0-.08a.09.09,0,0,1,.1,0l.3.14s0,0,0,.09,0,.07,0,.08,0-.08-.08-.1,0,.05,0,.11-.13-.06-.16,0a.11.11,0,0,0,0,.15s0,.07,0,.15-.1.15-.2.1a.17.17,0,0,1-.07-.23m.34-.74c-.05.08-.14.15-.23.07s0-.1-.09-.24a2.61,2.61,0,0,0,.32.17m.22.12a2.37,2.37,0,0,0,.36.13c-.17,0-.13.1-.23.1s-.14-.14-.13-.23m6.59,1.69s0,0,0,0a.26.26,0,0,0,.1-.24c-.07.08-.25.17-.26,0s0-.12-.17-.09a6.88,6.88,0,0,1-1.07-.07s-.06,0,0,0c.52,0,1.48-.12,1.48-.46s-.3-.45-1.22-.45-3.72.33-3.72-.19c0-.32.95-.19,1.65-.17a.28.28,0,0,0,.2.13c1.17.33,2.51-.54,3.23-.34-.92-.32-1.51.24-2.4.05.52,0,1.07-.11,1.1-.25-.41.26-1.55-.18-2,.13a.17.17,0,0,0-.08.06c-.87,0-1.92-.11-1.92.39,0,.92,3.19.39,3.95.39s.94.08.94.22-.75.28-1.18.28c-.73,0-3.71-.4-4.91,0,.06-.21.36-.51.23-.66a.31.31,0,0,0,.18-.24.44.44,0,0,0-.22-.1c0-.06,0-.12,0-.16s0-.14-.07-.15a.94.94,0,0,0-.54-.27l-.17,0s-.14,0-.15.07a.41.41,0,0,0-.21-.1.5.5,0,0,0,0,.33c-.11,0-.22.28-.32.25s.06.11.1.12-.13.35-.24.35c.07.1.12.15.16.15a2.65,2.65,0,0,0,0,.27l-.16-.06h-.15l-.15,0c-.14,0-.25-.25-.49-.39s-.19-.19-.19-.38.08-.3.07-.45,0-.1,0-.14a.27.27,0,0,0-.25-.16.21.21,0,0,1,.1.16l-.07.08a.15.15,0,0,0,0,.17s0,0,0,0a.25.25,0,0,1,0,.07s0,0,0,0-.1-.27-.19-.28h-.09v0c0-.11-.13-.21-.27-.07,0,0,.1,0,.11,0a.63.63,0,0,1,0,.13c0,.12.09.16.21.16a.06.06,0,0,1,0,0,.43.43,0,0,1,0,.05s0,0,0,0c-.21-.09-.3,0-.3.1v.09c-.07,0-.09.15.05.23s0-.11,0-.13h0l0,0s.06,0,.13,0h0a.1.1,0,0,0,0,0,0,0,0,0,1,0,0c-.15.14-.12.27.07.31,0,0,0,0,0,0,0,.25-.36.2-.34,0-.19.29.15.51.38.37,0,0,0,0,0,0s0,.09.08.09a.06.06,0,0,1,.06,0s0,0,0,0a.15.15,0,0,0,.12.17s0-.11,0-.11.21.38.59.59c0,0,.14-.1.22-.13a.21.21,0,0,0,.13.16l.06,0c0,.18.18.35.14.35a1.34,1.34,0,0,0-.52,0c-.17.1-.6.24-.72.07s0-.12-.08-.21-.1-.11-.14-.11h-.1a.25.25,0,0,0-.28,0,.22.22,0,0,1,.15.11.56.56,0,0,1,0,.08c0,.07,0,.16.26.25,0,0,0,0,0,0s-.1,0-.14,0-.13-.19-.25-.13l-.09,0s0,0,0,0-.29.14-.2.28a.15.15,0,0,1,.13-.13.45.45,0,0,1,0,.08c0,.15.09.25.37.06,0,0,0,0,0,0s-.25.24-.1.33a.2.2,0,0,1,0,0v0a.25.25,0,0,0,.23.26.24.24,0,0,1-.09-.24s.07,0,.08,0,.08-.21.16-.27,0,0,0,0,0,.22.2.2a.22.22,0,0,0,.21-.22s0,0,0,0a.15.15,0,0,1,.08.16s.09,0,.12-.11a.27.27,0,0,1-.07.28.39.39,0,0,0,.26-.27.21.21,0,0,1,.06.08h0a.55.55,0,0,0,.32,0s0,0,0,0a.23.23,0,0,0,0,.17s0-.09.06-.09,0,.16.09.26c0-.41.26-.25.52-.41,0,0,0,0,0,0a.31.31,0,0,1-.12.14c.1.07.47-.17.47-.32s.14,0,.26-.07.23-.19.33-.19c1.51.21.64-.63,2.4-.46.08,0,.12-.1.2-.17-.09.17-.1.52.09.55a1.25,1.25,0,0,1,.3.12s0,0,0,0a.9.9,0,0,0-.26.06c-.26.18-.27-.4-.56-.3,0,0-.07,0-.08.07a.25.25,0,0,0-.25.25.29.29,0,0,1,.19-.11v.06s0,.1.11.1.06,0,.1,0a0,0,0,0,1,0,0c0,.11-.36-.06-.29.24l.06.09c0,.09.06.19.22.13,0,0-.09-.06-.08-.1h.08s0,0,0-.06,0,0,0,0,0,0,0,0,0,0,0,.07a.38.38,0,0,0,0,.1c0,.11.14.22.31.11-.05,0-.15,0-.17-.07l.09,0a.16.16,0,0,0,0-.11s0,0,0,0h.08s0,0,0,0a.18.18,0,0,0,.23.09c.2-.06,0-.23.19-.26a.13.13,0,0,1,.12,0c.15,0,.36,0,.42,0a.46.46,0,0,0-.15-.45c-.1,0,0-.15-.08-.29a1.49,1.49,0,0,0,.57.14,1.35,1.35,0,0,0,.75-.17A.73.73,0,0,1,93.2,96s.09,0,.06.11,0,.24,0,.34-.23,0-.35,0a.17.17,0,0,0-.13.06.31.31,0,0,0-.25.23.54.54,0,0,1,.2-.09v0a.16.16,0,0,0,.27.11s.05,0,0,0-.26.2-.13.26l.06,0a.19.19,0,0,0,.13.2s0-.09,0-.18h.08c.09,0,.07-.18.18-.24s0,0,0,0-.07.24,0,.26l.07,0c0,.09.12.14.25.08,0,0-.09,0-.1-.09a.26.26,0,0,0,.07-.1c.09-.23-.1-.23-.1-.32s.23,0,.25-.27a.14.14,0,0,0-.08-.13h0c.06,0,.12,0,.17-.07-.17,0-.11-.14-.13-.23"/><path class="cls-3" d="M87.13,98.65c-.1,0-.14-.14-.12-.23a1.39,1.39,0,0,0,.34.14c-.15,0-.12.09-.22.09m-.15.2s0-.08-.08-.1,0,0,0,.1-.12-.06-.15,0,0,.09,0,.14a.17.17,0,0,1,0,.13c0,.07-.1.15-.19.1a.15.15,0,0,1-.06-.21c0-.06.06-.11.09-.11a.09.09,0,0,0,.11-.06c0-.08,0-.11-.1-.14s.09-.06.06-.08-.09,0-.11,0,0-.05,0-.07a.06.06,0,0,1,.08,0l.28.13a.07.07,0,0,1,.06.07s0,.08,0,.1m-.18-.53c0,.07-.14.14-.22.07s0-.1-.07-.24a2.6,2.6,0,0,0,.29.17m2.84.05a.3.3,0,0,0,.21.15c1.12.33,2.41-.51,3.07-.33-.88-.3-1.43.23-2.28,0,.5,0,1-.1,1-.23-.39.25-1.48-.16-1.94.12a.18.18,0,0,0-.07.05c-.62,0-1.11,0-1.11.39,0,.87,2.33.36,3.06.36s.64.07.64.22-.84.26-1.25.26a18.46,18.46,0,0,0-3.69-.1c.09-.19.3-.43.18-.57a.26.26,0,0,0,.18-.23.3.3,0,0,0-.21-.09.14.14,0,0,0,0-.16s0-.13-.06-.14a.77.77,0,0,0-.26-.17.51.51,0,0,0-.42-.06c-.06,0-.13,0-.14.06a.36.36,0,0,0-.2-.08.51.51,0,0,0,0,.31c-.09,0-.2.27-.29.24s.06.1.09.11-.13.35-.22.35A.47.47,0,0,0,86,99a1.91,1.91,0,0,0-.06.33l-.11,0h0a.7.7,0,0,1-.46-.13c-.17-.1-.18-.18-.18-.36s.07-.28.07-.43,0-.09,0-.13a.25.25,0,0,0-.24-.15.21.21,0,0,1,.09.15.26.26,0,0,0-.06.08.1.1,0,0,0,0,.15.06.06,0,0,1,0,0,.26.26,0,0,1,0,.07s0,0,0,0-.08-.27-.18-.27h-.07v0c0-.11-.12-.2-.25-.07a.16.16,0,0,1,.1,0s0,.1,0,.11.08.16.2.17,0,0,0,0l0,0s0,0,0,0c-.2-.08-.27,0-.29.1s0,.06,0,.08-.1.15,0,.23,0-.11,0-.11,0,0,0,0l.05,0s.06,0,.12,0,0,0,0,0,0,0,.07,0,0,0,0,0-.12.26.06.28,0,0,0,0c0,.24-.34.19-.33-.06-.17.29.15.5.39.36h0c0,.06,0,.1.08.1s0-.06.05-.06,0,0,0,0a.14.14,0,0,0,.11.15s0-.1,0-.1,0-.1.33.06a.28.28,0,0,0,.12.12l.22,0c0,.17,0,.42,0,.42a1.83,1.83,0,0,0-.51,0c-.16.09-.56.24-.68.08s0-.13-.07-.21a.22.22,0,0,0-.13-.1h-.1a.25.25,0,0,0-.28,0,.18.18,0,0,1,.16.09l0,.09s0,.13.24.22c0,0,0,0,0,0a.11.11,0,0,1-.14,0c-.09-.07-.11-.18-.23-.11l-.09,0s0,0,0,0-.27.13-.2.26a.19.19,0,0,1,.14-.12l0,.08c0,.13.08.23.34,0,0,0,0,0,0,0s-.23.22-.09.31a.2.2,0,0,0,0,.05s0,0,0,0a.24.24,0,0,0,.22.25.28.28,0,0,1-.08-.22l.08,0c.13,0,.07-.2.14-.25s0,0,0,0A.18.18,0,0,0,85,101a.19.19,0,0,0,.2-.21h0a.16.16,0,0,1,.07.17.56.56,0,0,0,.11-.11.22.22,0,0,1-.06.26.39.39,0,0,0,.24-.26.21.21,0,0,1,.06.08l0,0s.14,0,.3,0h0c0,.07,0,.13,0,.16s0-.08.07-.08,0,.15.08.24c0-.38.35-.28.58-.45,0,0,0,0,0,0a.25.25,0,0,1-.11.12c.27.16.53-.2.61-.39,0,0,0,0,.07-.07a.08.08,0,0,1,0,.11c.25,0,.22-.19.32-.17.76.06.17-.64,1.4-.43.08,0,.23-.07.3-.13-.09.16-.09.5.08.52a.74.74,0,0,1,.29.12s0,0,0,0a.62.62,0,0,0-.24,0c-.26.17-.27-.39-.54-.27l-.08,0c-.1,0-.26.13-.24.25a.31.31,0,0,1,.18-.11v.07s0,.09.1.09.08,0,.12,0,0,0,0,0-.33-.06-.28.23a.43.43,0,0,0,.06.09c0,.08.06.18.21.11,0,0-.08,0-.07-.09h.07s0,0,0-.05h0s0,0,0,0,0,0,0,.06l0,.09a.19.19,0,0,0,.3.12s-.14,0-.15-.08.07,0,.07,0a.15.15,0,0,0,0-.1s0,0,0,0h.07l.06,0a.15.15,0,0,0,.21.08c.18-.06,0-.22.17-.25h.12c.14,0,.36,0,.39,0a.37.37,0,0,0-.14-.42c-.09,0,0-.16-.07-.3a1.22,1.22,0,0,0,.53.14,1.42,1.42,0,0,0,.8-.17.62.62,0,0,1,.49,0s.08,0,0,.09c-.1.22,0,.24-.1.32s-.22,0-.34,0a.26.26,0,0,0-.13.06c-.11,0-.25.12-.26.23a.46.46,0,0,1,.2-.1.35.35,0,0,1,0,.06c0,.13.12.19.22.08s.06,0,0,0-.29.2-.18.25l.07,0c0,.09,0,.18.07.18s0-.07.06-.16h.07c.09,0,.1-.18.21-.22s0,0,0,0-.1.22,0,.25l.07,0c0,.08.1.13.24.07,0,0-.1,0-.1-.08l.1-.1c.11-.22-.08-.22,0-.31s.22,0,.27-.24c0,0,0-.11,0-.13a0,0,0,0,1,0,0h0a.15.15,0,0,0,.17-.07c-.17,0-.08-.12-.08-.21a0,0,0,0,1,0,0,.27.27,0,0,0,.13-.23c-.06.07-.26.15-.24,0s0-.1-.15-.08A9.28,9.28,0,0,1,91,99.65s-.05,0,0,0c.49,0,1.52-.11,1.52-.43s-.06-.44-.92-.44-2.84.32-2.84-.17c0-.24.38-.22.84-.2"/><path class="cls-3" d="M86.11,103.08c0-.06.06-.11.09-.11s.08,0,.1,0,0-.1-.09-.13.09-.05.05-.09-.09,0-.1,0,0,0,0-.07.05,0,.08,0l.26.12s0,0,0,.07,0,.09,0,.1,0-.09-.06-.1,0,0,0,.1-.12,0-.15,0,0,.09,0,.14a.16.16,0,0,1,0,.12c0,.06-.09.15-.18.1a.14.14,0,0,1-.06-.2m.31-.67c0,.07-.14.14-.2.06s0-.08-.09-.22a1.82,1.82,0,0,0,.29.16m.19.11a2.63,2.63,0,0,0,.32.13c-.14,0-.11.08-.2.08s-.13-.13-.12-.21m2.11-.1a.31.31,0,0,0,.2.15c1.13.32,2.41-.52,3.09-.34-.88-.31-1.44.24-2.29,0,.49,0,1-.09,1-.23-.39.25-1.48-.18-1.94.1l-.09.1c-.34.07-.64.25-.64.51,0,.73,2.88.16,2.88.4s-.56.38-1.33.38a7.8,7.8,0,0,0-2.79-.06h0c.08-.21.34-.53.23-.67a.23.23,0,0,0,.17-.2.35.35,0,0,0-.19-.1c0-.06,0-.1-.06-.15s0-.12-.06-.14a1.16,1.16,0,0,0-.24-.16.83.83,0,0,0-.25-.08s-.13,0-.14,0-.13,0-.14,0A.33.33,0,0,0,86,102a.38.38,0,0,0,0,.3c-.1,0-.2.25-.28.22s.06.1.08.1c-.08.16-.11.33-.21.34a.45.45,0,0,0,.1.1,1.87,1.87,0,0,0,0,.7c-.18-.18-.44-.6-.62-.7s-.16-.17-.16-.35.06-.26,0-.39a.51.51,0,0,0,0-.14.24.24,0,0,0-.22-.14.16.16,0,0,1,.09.14.45.45,0,0,1-.06.09.08.08,0,0,0,0,.14v.09s0,0,0,0-.09-.25-.18-.26h-.07v0c0-.11-.11-.18-.23-.06s.08,0,.08,0,0,.09,0,.11.08.14.18.14,0,0,0,0,0,0,0,0,0,0,0,0c-.2-.08-.28,0-.28.08a.26.26,0,0,0,0,.09c-.06,0-.08.14,0,.22s0-.11,0-.12h0l0,0s0,0,.11,0,0,0,0,0l.06,0s0,0,0,0-.1.25.06.28,0,0,0,0c0,.24-.33.19-.31,0-.17.27.13.47.36.33h0s0,.08.07.08,0-.05,0-.05a0,0,0,0,1,0,0,.13.13,0,0,0,.11.15s0-.09,0-.09,0,.36.34.55a.36.36,0,0,0,.39.28c.06.15.14.28.11.28a1.71,1.71,0,0,0-.55,0,.85.85,0,0,1-.37.12v0s0,0,0,0a.23.23,0,0,1-.27-.06c0-.05,0-.1-.08-.19a.22.22,0,0,0-.12-.1h-.09a.25.25,0,0,0-.26,0,.24.24,0,0,1,.15.1s0,.07,0,.08,0,.13.22.21c0,0,0,0,0,0s-.09,0-.13,0-.11-.18-.23-.11l-.07,0,0,0c-.1,0-.27.13-.19.26a.18.18,0,0,1,.13-.11.36.36,0,0,1,0,.07c0,.12.07.22.32,0,0,0,0,0,0,0s-.23.21-.09.29l0,0v0c0,.14.13.24.21.23a.21.21,0,0,1-.08-.21s.06,0,.08,0,.06-.19.13-.24,0,0,0,0,.05.2.19.19a.2.2,0,0,0,.19-.21s0,0,0,0a.12.12,0,0,1,.07.15l.11-.1a.2.2,0,0,1-.06.24.32.32,0,0,0,.23-.24.13.13,0,0,1,0,.07h0a.48.48,0,0,0,.29,0h0a.24.24,0,0,0,0,.15s0-.07.06-.07,0,.14.09.22c0-.36.23-.21.45-.36,0,0,0,0,0,0a.5.5,0,0,1-.1.13c.09,0,.34-.12.34-.26a1.48,1.48,0,0,0,.21-.62h.1c.3,0,.44-.25.75-.27a.89.89,0,0,0-.1.44c0,.17.23.35.28.4s0,0,0,0a.9.9,0,0,0-.22.06c-.25.16-.26-.36-.52-.27L87,105c-.11,0-.25.12-.22.23a.28.28,0,0,1,.16-.1v0c0,.06,0,.1.11.1s0,0,.09,0a0,0,0,0,1,0,0c0,.09-.33-.06-.26.21a.49.49,0,0,0,0,.09c0,.07,0,.16.2.11,0,0-.08,0-.07-.11l.07,0s0,0,0,0h0s0,0,0,0,0,0,0,.06a.26.26,0,0,0,0,.08c0,.1.12.2.27.1,0,0-.13,0-.14-.07l.07,0s0-.06,0-.09,0,0,0,0h.07a.05.05,0,0,1,0,0,.16.16,0,0,0,.2.08c.17,0,0-.21.16-.24a.21.21,0,0,1,.11,0c.14,0,.24,0,.29,0a.39.39,0,0,0-.14-.41c-.09,0,.14-.59-.29-.85.2,0,.83.14.94,0a1.19,1.19,0,0,1,.44.21s0,.08,0,.12-.14.16-.23.19h0c-.06,0-.12-.14-.17-.16s-.13,0-.13,0a.23.23,0,0,0-.27.1.43.43,0,0,1,.2,0,.17.17,0,0,0,0,0s0,.06,0,.09h0s0,0,0,0-.29,0-.24.09l0,.07a.17.17,0,0,0,0,.22.18.18,0,0,1,.12-.12l0,.06c.06.06.15-.09.26-.06s0,0,0,0-.19.1-.15.19a.09.09,0,0,0,0,.06.17.17,0,0,0,.11.22s0-.09,0-.14H89c.19-.1.08-.23.13-.29s.17.12.31,0a.11.11,0,0,0,0-.14h0s.09.08.16,0c-.12-.1,0-.14.05-.22s0,0,0,0a.23.23,0,0,0,.2-.11c-.09,0-.3-.11-.17-.16s.23-.17.15-.28-.46-.21-.47-.44h.27c1,0,1.59-.26,1.58-.57,0-.65-2.94,0-2.94-.42,0-.15.18-.26.41-.33"/><path class="cls-3" d="M41.78,51.91a.7.7,0,1,0-.7.7.7.7,0,0,0,.7-.7"/><path class="cls-3" d="M41.53,50a.7.7,0,0,0-.71-.7.7.7,0,1,0,.71.7"/><path class="cls-3" d="M41.93,49.21a.71.71,0,1,0,0-1.41.71.71,0,0,0,0,1.41"/><path class="cls-3" d="M43.8,49.08a.7.7,0,1,0,0-1.4.7.7,0,0,0,0,1.4"/><path class="cls-3" d="M51.78,47.78a.7.7,0,1,0,0-1,.7.7,0,0,0,0,1"/><path class="cls-3" d="M51.62,46.29a.7.7,0,0,0-1-1,.7.7,0,0,0,0,1,.71.71,0,0,0,1,0"/><path class="cls-3" d="M49.77,46a.71.71,0,0,0,0-1,.72.72,0,0,0-1,0,.7.7,0,0,0,1,1"/><path class="cls-3" d="M48.18,47.17a.71.71,0,0,0-1-1,.7.7,0,0,0,0,1,.72.72,0,0,0,1,0"/><path class="cls-3" d="M43.69,46.2l.57,1.23.71-.86.09,0c0,.42.09,1.14.09,1.54A.88.88,0,0,0,46,49a.89.89,0,0,0,.9-.89.9.9,0,0,0-.47-.79,7.38,7.38,0,0,1-1-.93.3.3,0,0,0,0-.1l1.19.1-.47-1.26-.89.75-.05,0-.06-1.3L44,45l.81,1a.23.23,0,0,0,0,.1Z"/><path class="cls-3" d="M51.83,48.38a1.85,1.85,0,0,1,.39,1,2,2,0,0,1-.73-.67l.14,1.64a1.58,1.58,0,0,1,.59-.59c0,1.07-.49,1.51-.85,1.58a.7.7,0,0,1-.84-.54c-.09-.48.33-.77.74-.35.08-1-.71-1-1.06-.55a1.42,1.42,0,0,0-.59-2.08A1.52,1.52,0,0,0,50,49.93c-.65-.33-1.23.22-.65,1,.12-.63.67-.49.8,0s-.3,1-1,1.19c-1,.31-1.34-.34-1.59-.87a1.37,1.37,0,0,1,1.32.26l-.49-1.6a1.58,1.58,0,0,1-1,1,5.17,5.17,0,0,1,.3-1.4l-1.93.79A4.82,4.82,0,0,1,47,51a1.64,1.64,0,0,1-1.37,0l.78,1.49c.15-.66.48-1.07.75-1.11.2.56.41,1.25-.52,1.73-.65.34-1.33.24-1.55-.15s0-.93.56-.57c-.09-.93-.9-.92-1.14-.22a1.53,1.53,0,0,0-1.23-1.8,1.44,1.44,0,0,0,1,1.92c-.54-.06-1.11.48-.37,1.13,0-.6.49-.67.77-.27a.68.68,0,0,1-.23,1c-.31.19-.92.19-1.7-.54a1.39,1.39,0,0,1,.83,0l-1-1.28a2,2,0,0,1-.06,1,1.82,1.82,0,0,1-.39-1l-.79.7A9,9,0,0,1,44,55.66a35.08,35.08,0,0,1,4.3-2.13,33.91,33.91,0,0,1,4.55-1.47,9.16,9.16,0,0,1,.09-3.72Z"/><path class="cls-3" d="M54.05,57.68c-1,.77-2.28.06-2.88-.94a28.25,28.25,0,0,0,4-1.84c-1,1.5-.31,2.17-1.09,2.78m-.22,10.2a1.92,1.92,0,0,1-2.49-1.31c-.25-.77-.45-1.38-.15-1.68.55-.54.72-1,.39-1.63s-1.21-.41-2.09-.2c.41-.74.44-1.27-.12-1.2s-.68,1.17-1.06,1-.15-.76-.15-1.09.29-.62.75-.83l3.67-1.39c.48-.17.8-.26,1.13.07s.81.54.63.89-.94-.42-1.48,0-.06.7.76.94c-.8.46-1.63.77-1.36,1.6s.63.89,1.4.89c.42,0,.72.6,1.06,1.31a1.81,1.81,0,0,1-.89,2.59m-7-7.37c-1,.09-1-.86-2.69-1.28a29.52,29.52,0,0,0,4.14-1.38c.26,1.13-.2,2.54-1.45,2.66M67.25,93.08c.27-.74-1.11-1.6-1.27-2.67a5.34,5.34,0,0,0-1.26-3.55C63.51,85.44,59.31,81,58,79.52a2,2,0,0,1,1.86.54c.45.42,1.35,1.27,2.19,2.1A22.53,22.53,0,0,1,66.53,75c.25-.29.51-.57.77-.83a10,10,0,0,0-2.49.82c0-1.23,0-2.23-.8-3,.32-1.73,0-3.82-3.82-6.39,2,.48,3.14,2.27,4.66.89-1.36,0-1.39-3-6.3-5.46,1.87,0,3.34,3,5.51,1.27-2.05-.24-2.73-3.88-6.42-5,1.28.16,2.6.79,3.71-.71-1.29.3-2-.88-3.41-1a4.55,4.55,0,0,0-.15-3.75,4.68,4.68,0,0,0-2.66.94c-.11-.88-1-.93-1.85-.86,0,.37.24.93-.18,1a34.64,34.64,0,0,0-4.55,1.37,25.13,25.13,0,0,0-4.18,2.25c-.35.23-.64-.32-.85-.58-.6.52-1.18,1.17-.75,1.83a5.32,5.32,0,0,0-2.86,1,3.33,3.33,0,0,0,2.26,2.75C39.9,63.81,42,65.9,40,67.87c2.82.11,2.32-3.82,3.75-4.36C43.56,66.27,42,66.76,42,69.73c0,1.59,1,3.32.1,4.36,2.35-.64,1.74-5.86,3.2-7.42a4.29,4.29,0,0,1-.19,2.64c-.83,2.44.09,5.77-1.19,6.84,2.4-.23,2.69-4.09,4.67-5.51-1.7,3.49-3.45,10.88-6,14.58C38.51,90.75,36.11,97.5,32.34,97.5a2.78,2.78,0,0,1-2.91-3.12c0-6.28,10.79-10.6,10.79-17.31A4,4,0,0,0,36.27,73,5.58,5.58,0,0,0,33,74.31,3.46,3.46,0,0,0,31.69,74c-3.82,0-2.8,6.85-6.12,6.78,1.31.73,3.59-.7,4.92-2.62-.55,4.45-6.95,3.26-6.46,8.6.89-4.18,11.09-3.57,11.09-9.91a2.46,2.46,0,0,0-.87-1.78,3.91,3.91,0,0,1,2.15-.68,2.4,2.4,0,0,1,2.33,2.7C38.73,82.76,28,87.48,28,94.38a4.92,4.92,0,0,0,.89,2.9,1.78,1.78,0,0,1-2.17-.58c-.07,1.77,2.47,2.89,4.07,2a4.05,4.05,0,0,0,1.11.22,3,3,0,0,1-3,1.65c2.63,2.08,7.21-.64,7-3C38,95.9,39.3,93,40.81,91.13c-.1.44-.18.88-.24,1.3-1.54,2.8-3,5.31-3.38,9-.33,3.08-1.89,5.86-4.06,5.86-.47,0-1.25-.62-1.62-.31-.68.58,0,1.19,0,1.76,0,.88-1.69,1.75-1.69,4.46,0,1.22.71,2.68.44,3.48a4.91,4.91,0,0,0,2-3c.74,3.57-1.53,3.42.11,6.59a1.31,1.31,0,0,1,1.89-1.05c.65.44.34.74-.14,1.22s-.91,2.85,1.26,2.7c-.41-.26-.43-.89.63-1.11,1.5-.3,1.94.38,3.53.38,1,0,1.25-1.28,2-1.28s.78.6.5,1c1.26-.34,1.49-1,1.49-1.72s-.57-1.15-.13-1.43,1.9,0,1.32,1.22c.75-.13,1.14-.68,1.14-1.59s-1-1.45-2-1.29c-.17-.57-1-.88-1.8-.88-1.76,0-1.48,1.39-2.69,1.39-1.93,0-3.8-2.51-3.8-6.74,0-2.27,2.43-2.84,4.16-3.58a14.84,14.84,0,0,0,6.56-5.65c1.43-2.37,1.47-5,1.28-8.06a5.1,5.1,0,0,1,2.72,4.85,3,3,0,0,1-1.75,3c-.66.3-.88.18-1,.56a.86.86,0,0,0,.53.91c.88.45.69,1.29.94,2.2a6.84,6.84,0,0,0,2.41,3.39,9.55,9.55,0,0,0,0-2.64c1.86.92.38,4.68,4,4.68a.92.92,0,0,1-.11-1.51c.39-.15.87.25,1.58,1.22s.51.9,2.23.9.93-.59,1.85-.59.84,1.05.35,1.83a2,2,0,0,0,1.47-2.84,1.48,1.48,0,0,1,2.27,1,1.8,1.8,0,0,0-1-3,1.06,1.06,0,0,0-1-1,13.92,13.92,0,0,0-1.72,0c-.63,0-1,.94-1.72.94-2.26,0-6.77-4.12-6.77-5.9s4.3-2.86,4.3-5.64c0-3.61-3.55-4.84-6.54-7.16,1.06-1.2,4.18-1.47,5.94-.61.2-1,.84-.76,1.08-2.49.64,1.52,0,2.83.63,3.48.51-.74,1.79-.62,1.71-2.51.39,1.18-.5,3,.39,3.78.16-1,.73-1.16,1.11-1.16s.69.26.69.84c0,1.44-1.79.77-1.79,2.4,0,.69.86.91.86,1.36a1,1,0,0,1-1.57.55,1.84,1.84,0,0,0,1.61,1.19,2.27,2.27,0,0,0,2-1.45c.42,1,.1,2.19-.64,2.34.78.39,2.65,0,2.43-2.37,1.06.18,1.61.89,1,2.16.86-.21,1.65-.63,1.65-1.55,0-.71-.77-.92-.42-1.85"/><path class="cls-3" d="M136.74,110.41a2.26,2.26,0,1,1,2.27,2.26,2.26,2.26,0,0,1-2.27-2.26m-.77,0a3,3,0,1,0,3-3,3,3,0,0,0-3,3"/><path class="cls-3" d="M126,115.91c-.86-.16-1.47-.81-1.35-1.44a1,1,0,0,1,.43-.63,1.82,1.82,0,0,1,1.34-.24,1.53,1.53,0,0,1,1.38,1.29s0,.09,0,.14a1.47,1.47,0,0,1-1.79.88m-1.37-2.7a1.72,1.72,0,0,0-.28,2.63,2.75,2.75,0,0,0,3.23.59,1.79,1.79,0,0,0,1-1.26,2.18,2.18,0,0,0-2-2.34,2.62,2.62,0,0,0-1.93.38"/><path class="cls-3" d="M107.8,72.45a1.68,1.68,0,0,1,1.78-1.51.77.77,0,0,1,.57.29.83.83,0,0,1,.15.63,1.57,1.57,0,0,1-.63,1,1.28,1.28,0,0,1-1.72,0,.77.77,0,0,1-.15-.49m.16-1.78a2,2,0,0,0-.62,2.75h0a2,2,0,0,0,2.8.08,2.37,2.37,0,0,0,.92-1.53,1.64,1.64,0,0,0-.31-1.21,1.59,1.59,0,0,0-1.07-.6,2.45,2.45,0,0,0-1.73.51"/><path class="cls-3" d="M122.28,111.61h0a.94.94,0,0,1-.68-.32,2,2,0,0,1,0-2.56,1,1,0,0,1,.7-.3c.65,0,1.15.74,1.14,1.62a1.83,1.83,0,0,1-.51,1.27,1,1,0,0,1-.68.29m-1.18-3.45a2.65,2.65,0,0,0-.75,1.83V110a2.52,2.52,0,0,0,.68,1.78,1.75,1.75,0,0,0,1.22.57,1.78,1.78,0,0,0,1.25-.52,2.5,2.5,0,0,0,.75-1.81,2.66,2.66,0,0,0-.51-1.65,1.8,1.8,0,0,0-1.39-.76,1.73,1.73,0,0,0-1.25.51"/><path class="cls-3" d="M106.87,86.64a1.44,1.44,0,0,1-.93-1.74,1,1,0,0,1,.59-.49,1.77,1.77,0,0,1,1.36.12,1.84,1.84,0,0,1,.94,1,1,1,0,0,1,0,.75,1.06,1.06,0,0,1-.57.5,2,2,0,0,1-1.37-.13m-.61-3a1.82,1.82,0,0,0-1,.88,2.2,2.2,0,0,0,1.29,2.78,2.67,2.67,0,0,0,2,.15,1.7,1.7,0,0,0,1-.88,1.72,1.72,0,0,0,0-1.34,2.7,2.7,0,0,0-3.3-1.59"/><path class="cls-3" d="M128.24,97.47a1.26,1.26,0,1,1-.1-2,1.42,1.42,0,0,1,.1,2m-3.58,5.65a1.41,1.41,0,0,1-1.89.56,1.6,1.6,0,0,1,1.78-2.54,1.42,1.42,0,0,1,.11,2M112.42,72.24c.41-1.31,1.21-3.92,1.21-3.92l1.38.53a5,5,0,0,0-1.31.94,1.41,1.41,0,0,0,1.24-.09l-.55,1.39a1.75,1.75,0,0,0-.91-.81,1.42,1.42,0,0,0,.93,1.78c.84.43,1.39.5,1.61.11s-.28-1.13-1-.84c-.07-.72.34-1.1.81-1.1s.68.34.79.81a2.25,2.25,0,0,1,1.56-2.43,2.35,2.35,0,0,1-.79,2.75,1,1,0,0,1,1.17.14c.27.41.18,1-.47,1.29a.69.69,0,0,0-1.26-.32c-.26.48.12.94.9,1.37a1.42,1.42,0,0,0,2.09-.58,1.66,1.66,0,0,0-1.29.26l.92-1.71a1.75,1.75,0,0,0,.59,1,2.25,2.25,0,0,0,0-1.67l2,1.14a2.23,2.23,0,0,0-1.41.88,1.8,1.8,0,0,0,1.16,0l-1,1.66a1.64,1.64,0,0,0-.41-1.25,1.42,1.42,0,0,0,.55,2.1c.75.46,1.34.55,1.63.1a.69.69,0,0,0-.91-.94c0-.73.39-1.08.87-1s.66.46.73.92a2.35,2.35,0,0,1,2-2,2.24,2.24,0,0,1-1.31,2.57.89.89,0,0,1,1.09.28c.24.42.11,1-.55,1.24a.69.69,0,0,0-1.23-.43c-.22.39.11.84.91,1.34a1.42,1.42,0,0,0,2-.09A1.82,1.82,0,0,0,125,77.2l.92-1.17a1.4,1.4,0,0,0,.54,1.12,4.4,4.4,0,0,0,.15-1.6l1.16.92s-1.87,2-2.79,3Zm14.83,16.85a.93.93,0,0,1,.29-.7,1,1,0,0,1,.71-.24A1.92,1.92,0,0,1,130,90a1,1,0,0,1-.28.69h0A1,1,0,0,1,129,91a1.79,1.79,0,0,1-1.23-.62,1.84,1.84,0,0,1-.53-1.25m5.43,25a2,2,0,0,1,2.15-1.42,1.08,1.08,0,0,1,.63.41,1,1,0,0,1,.13.73,1.85,1.85,0,0,1-.82,1.12,1.43,1.43,0,0,1-2-.1,1,1,0,0,1-.12-.74M106.85,76.43a1.59,1.59,0,0,1-.47,1.07.91.91,0,0,1-.58.23c-.5,0-.91-.62-.91-1.3a.31.31,0,0,1,0-.1,1.48,1.48,0,0,1,.46-1.07A.86.86,0,0,1,106,75a.84.84,0,0,1,.56.29,1.6,1.6,0,0,1,.34,1.11m8-16.41c.42-.82,0-2.05,1.48-2.05.72,0,1.38.73,2.25,1a9,9,0,0,0-3.73,1m23.28,20.54c1,2.71,2.94,3.68,4.45,3-3.35-.39-.63-6.11-4.95-6.11a3.1,3.1,0,0,0-.69.09,3.49,3.49,0,0,0-2.8-1.11,5.34,5.34,0,0,0-5,5.4c0,7.81,9.08,8.5,9.08,15.42A3.16,3.16,0,0,1,135,100.5c-1.53,0-2.76-1.71-4-4.39a34,34,0,0,0-3.34-4.85,2.7,2.7,0,0,0,1.35.48,1.7,1.7,0,0,0,1.26-.47,1.68,1.68,0,0,0,.53-1.22V90a2.65,2.65,0,0,0-.73-1.76,2.62,2.62,0,0,0-1.78-.84,1.74,1.74,0,0,0-1.26.46,1.75,1.75,0,0,0-.54,1.23v.06a2.32,2.32,0,0,0,.15.81c-2-2.56-3.77-5.07-3.77-6.44,0-1.21.84-2.27,1.87-3.55l.35.2.28-.31c.36-.4,1.12-1.23,2.69-2.91l.08-.11h0l.38-.4-1-.78a10.55,10.55,0,0,0,.65-1.92c.32,1.25,1,2.06,1.85,1.81-.59-1.31.61-3-.18-6.23.74,1.23,1.81,1.88,2.57,1.65-2-1.78.61-4.27-2-8.13a1.53,1.53,0,0,0,1.8-.3c-2.39-.33-1.3-3.38-5.5-4.48,1-.18,1.66-.78,1.5-1.34-1.1.8-2.08-1.49-5.71-1.42a5.33,5.33,0,0,0-2.91-3.5,4.82,4.82,0,0,1-.26,2.81L107.48,43c-.35-.32-.54-.4-.63-.28s-.1.33.12.57L117.14,56c-.77.27-1.51.59-2.3.88a1.39,1.39,0,0,0-.89,1.31A21.38,21.38,0,0,0,109.59,61c-.63.56-1.13.71-.57,2,.21.48-.45,1.69,1,.81,1-.59,3.17-1.8,3.49-1,.17.4-.91.91-1.65,1.19s-1.55.86-1.44,1.15.71,0,.74.28.29.64.58.64.68-.62.91-.41-.11,1.59-.35,1.94a2.31,2.31,0,0,0,1.93-2.09c0-.85.26-1.07.44-1.18s.38.91.15,1.53c.61-.13,1.24-.93,1.15-2.42a1.72,1.72,0,0,1,.85-.41c.39,0,1.16,1,2.25,1a3.35,3.35,0,0,0,3.25-2.38,2.21,2.21,0,0,0-.28-1.68,2.78,2.78,0,0,1,1,2.17c0,2.85-5,4.18-7.11,6.16-.08.07-.15.15-.23.21l-2.36-.91-.16.52s0,.11-.15.44c-.24.82-.75,2.51-1.07,3.48l-.12.39.2.12a13.26,13.26,0,0,0-2.79,6.1,23,23,0,0,0-1.72-1.57,2.48,2.48,0,0,0-.42-2.32,1.53,1.53,0,0,0-2.23-.13l-.22.22-.25-.2a20,20,0,0,1-2.33-2,1.22,1.22,0,0,0-1-.43l-1.06,0c-.35,0-.55.29-.94.64l-1.35,1c.3.3.57.6.86.92l.45.53c.16-.13.3-.24.42-.32a1.26,1.26,0,0,1,.87-.25,1.35,1.35,0,0,1,1,.67c.22.33,2.13,2.84,3.72,4.59l-.5.18a8.3,8.3,0,0,1-2.89.18c-.68-.06-.82-.23-1.27.5a10.06,10.06,0,0,1-.63.87c-.23.28-.41.6.07,1.41.7,1.19,2.44,4.29,3,5.7A3.23,3.23,0,0,0,105.16,91a16.58,16.58,0,0,1,3.21,1.79l.08-1.08a6.68,6.68,0,0,0-1.78-.87c-.4-.14-.5-.31,0-.31a11.85,11.85,0,0,1,2.73.85,8.07,8.07,0,0,0-1.89-2.86,2.68,2.68,0,0,0-1.93,0,.44.44,0,0,1-.44.51.43.43,0,0,1-.43-.56c.1-.32.57-.42.47-1s-.85-.71-1.33-.76c-.67-1-1.45-2.41-1.81-3s-.13-.91.1-1.11c.58-.48,1.79.26,4.19.41.84,0,1.9.1,3,.14.31,2.81,1.44,5.47,5.32,6.43a6.59,6.59,0,0,1,4.54,3.7c-7.77-.14-9,2.89-9,5.75,0,3.24,2.73,3.06,2.73,5.5,0,2.13-6.53,3-8.51,3.3a5.46,5.46,0,0,0-3.42,1.43c-.8.8-1.62,1.57-3.08,3a4.67,4.67,0,0,0,1.24.11l1.1-1.43c.33-.47.55-.88.77-.84s.07.4-.18.91l-.91,1.54c3.84.26,4.09-1.17,4.09-1.76s-1-1-.4-1.34,1-.11,1.46.4.59.94,1.64.54c0,0,8.36-3.46,9.41-3.94s.69-.85.12-1.31a2.71,2.71,0,0,1-.73-2.23c0-2.54,1.53-3.31,4.24-3.27,0,.44-.08.85-.08,1.23,0,3.94,6,7.8,7.59,7.8.71,0,1.69-.53,1.75,1.85a23,23,0,0,1,.08,5A3.73,3.73,0,0,1,127,118.8c-1.22.85-2.36,3.52-2.88,4.1.54.35,1.13.39,1.58-.91a3.93,3.93,0,0,1,1.26-2.1c-.47,1.18-.82,2.92-1,3.45,1.53.26,4-1.12,4-2.2s-.86-1-.86-1.71a.83.83,0,0,1,.86-.66,1.25,1.25,0,0,1,1.12.7c.68-.36,1.1-1,1.08-2.59,0-.62,0-1.26-.07-1.91,0,.07.08.17.13.24a1.83,1.83,0,0,0,1.39.79,2.76,2.76,0,0,0,1.66-.46,2.57,2.57,0,0,0,1.14-1.61,1.65,1.65,0,0,0,0-.38,1.67,1.67,0,0,0-.28-.93,1.7,1.7,0,0,0-1.12-.74,2.53,2.53,0,0,0-1.93.41,2.58,2.58,0,0,0-1.1,1.46c-.13-2.14-.28-4.17-.22-5,.09-1.2.14-1.74-.27-1.92s-.84.49-1.44.49-2.33-1.61-2.33-3.31,1.84-3.91,1.75-6.26c0-.72.42-1.1.71-.43a10.76,10.76,0,0,0,1.67,2.75c-.49,2.94,2.75,5.8,5.41,3.68-1.32.19-2.22-1-2.81-2.15a4.3,4.3,0,0,0,.73.07l.39,0c.93,1.15,3.9,1.06,4.66-1.81a3,3,0,0,1-2.35,1A4.8,4.8,0,0,0,139.55,97c0-7.45-9-8.32-9-15.1a4.18,4.18,0,0,1,3.73-4.14,2.26,2.26,0,0,1,1.4.46,3.38,3.38,0,0,0-.85,2.58c.25,5.36,9,5.1,9.11,7.67,1-3.89-5.55-2.68-5.78-7.91"/></g><text class="cls-4" transform="translate(22 199)">G<tspan class="cls-5" x="40.61" y="0">o</tspan><tspan class="cls-6" x="69.77" y="0">v</tspan><tspan class="cls-7" x="94.88" y="0">e</tspan><tspan class="cls-8" x="123.6" y="0">r</tspan><tspan class="cls-9" x="141.15" y="0">n</tspan><tspan class="cls-10" x="170.37" y="0">m</tspan><tspan x="215.67" y="0">e</tspan><tspan class="cls-11" x="244.29" y="0">n</tspan><tspan class="cls-12" x="273.29" y="0">t </tspan></text><text class="cls-13" transform="translate(22 258.99)"><tspan class="cls-14">D</tspan><tspan class="cls-15" x="37.69" y="0">i</tspan><tspan class="cls-16" x="48.98" y="0">g</tspan><tspan class="cls-9" x="79.05" y="0">i</tspan><tspan class="cls-17" x="90.23" y="0">t</tspan><tspan class="cls-18" x="106.65" y="0">a</tspan><tspan x="135.1" y="0">l </tspan><tspan class="cls-19" x="162.1" y="0">S</tspan><tspan class="cls-20" x="196.45" y="0">e</tspan><tspan class="cls-21" x="225.12" y="0">r</tspan><tspan class="cls-22" x="244.07" y="0">v</tspan><tspan class="cls-17" x="270.1" y="0">ic</tspan><tspan x="309.9" y="0">e</tspan></text><g class="cls-2"><rect class="cls-23" y="40" width="4" height="220"/></g></svg>