<svg xmlns="http://www.w3.org/2000/svg" xmlns:xlink="http://www.w3.org/1999/xlink" version="1.1" id="Layer_1" x="0px" y="0px" style="enable-background:new 0 0 440 214;" xml:space="preserve" viewBox="12.1 61.8 415.8 96.6">
<style type="text/css">
	.st0{fill-rule:evenodd;clip-rule:evenodd;fill:#1A3752;}
	.st1{fill-rule:evenodd;clip-rule:evenodd;fill:#534582;}
	.st2{fill-rule:evenodd;clip-rule:evenodd;fill:#387AC4;}
	.st3{fill-rule:evenodd;clip-rule:evenodd;fill:#37BFA7;}
	.st4{fill-rule:evenodd;clip-rule:evenodd;fill:#8FE1A1;}
</style>
<path class="st0" d="M12.1,139.7l12.5-3.3c0.9,5.6,5.4,9.7,11.9,9.7c8.7,0,13.6-4.4,13.6-14.2v-3.7c-2.1,3.3-6.8,6.5-14.2,6.5  c-13.6,0-23.8-10.5-23.8-24.8c0-13.5,9.8-24.9,23.8-24.9c8.1,0,12.8,3.5,14.5,7v-6h13.3v45.6c0,14-7.6,26.8-26.8,26.8  C22.9,158.2,13.6,149.5,12.1,139.7z M38.3,122.8c7.1,0,12-5.1,12-13S44.9,97,38.3,97c-6.8,0-12.2,5-12.2,12.9  C26,117.8,31.1,122.8,38.3,122.8z M86.2,156.7H72.4V85.9h13.4v6.2c2.3-3.9,8-7.4,15.7-7.4c14.9,0,23.6,11.4,23.6,26.6  c0,15.5-9.7,26.9-24.1,26.9c-7.1,0-12.2-2.8-14.7-6.2V156.7z M111.4,111.4c0-9-5.6-14.3-12.7-14.3c-7.1,0-12.8,5.3-12.8,14.3  s5.7,14.4,12.8,14.4C105.8,125.8,111.4,120.5,111.4,111.4z M146.4,136.9h-13.8V85.9h13.2v6.2c2.8-5,9.3-7.7,14.9-7.7  c7,0,12.6,3,15.2,8.5c4-6.2,9.4-8.5,16.2-8.5c9.4,0,18.5,5.7,18.5,19.4v33.1h-13.4v-30.3c0-5.5-2.7-9.7-9-9.7  c-5.9,0-9.4,4.6-9.4,10.1v29.9H165v-30.3c0-5.5-2.8-9.7-9-9.7c-6,0-9.5,4.5-9.5,10.1V136.9z M269.5,61.8v65.9c0,3.4,0.2,7.2,0.4,9.2  h-13.2c-0.2-1-0.5-3.5-0.5-5.9c-2.3,4-7.5,7.2-14.3,7.2c-14.5,0-24.9-11.4-24.9-26.9c0-14.9,10.1-26.7,24.5-26.7  c8.8,0,13,3.6,14.4,6.3V61.8H269.5z M230.9,111.3c0,9.1,5.4,14.5,12.7,14.5c7.1,0,12.6-5.4,12.6-14.6c0-9.1-5.5-14.2-12.6-14.2  C236.5,97,230.9,102.2,230.9,111.3z"/>
<g transform="translate(94 17)">
	<path class="st1" d="M321.8,120.1c-3.4,0-6.3-1.2-8.6-3.5c-2.3-2.3-3.5-5.2-3.5-8.7c0-3.6,1.2-6.4,3.5-8.6c2.3-2.2,5.2-3.3,8.6-3.3   c3.4,0,6.3,1.1,8.6,3.3c2.3,2.2,3.5,5.1,3.5,8.6c0,3.5-1.2,6.4-3.5,8.7C328.1,119,325.2,120.1,321.8,120.1z"/>
	<path class="st2" d="M285.7,120.1c-3.4,0-6.3-1.2-8.6-3.5c-2.3-2.3-3.5-5.2-3.5-8.7c0-3.6,1.2-6.4,3.5-8.6c2.3-2.2,5.2-3.3,8.6-3.3   s6.3,1.1,8.6,3.3c2.3,2.2,3.5,5.1,3.5,8.6c0,3.5-1.2,6.4-3.5,8.7C291.9,119,289.1,120.1,285.7,120.1z"/>
	<path class="st3" d="M249.5,120.1c-3.4,0-6.3-1.2-8.6-3.5c-2.3-2.3-3.5-5.2-3.5-8.7c0-3.6,1.2-6.4,3.5-8.6c2.3-2.2,5.2-3.3,8.6-3.3   s6.3,1.1,8.6,3.3c2.3,2.2,3.5,5.1,3.5,8.6c0,3.5-1.2,6.4-3.5,8.7C255.8,119,252.9,120.1,249.5,120.1z"/>
	<path class="st4" d="M213.4,120.1c-3.4,0-6.3-1.2-8.6-3.5c-2.3-2.3-3.5-5.2-3.5-8.7c0-3.6,1.2-6.4,3.5-8.6c2.3-2.2,5.2-3.3,8.6-3.3   s6.3,1.1,8.6,3.3c2.3,2.2,3.5,5.1,3.5,8.6c0,3.5-1.2,6.4-3.5,8.7C219.6,119,216.8,120.1,213.4,120.1z"/>
</g>
</svg>