<svg width="1294" height="263" viewBox="0 0 1294 263" fill="none" xmlns="http://www.w3.org/2000/svg">
<path fill-rule="evenodd" clip-rule="evenodd" d="M781.82 57.2904V258.31H821.038V190.968L823.049 192.643C836.457 203.029 852.547 208.39 869.642 208.39C911.876 208.39 946.402 174.217 946.402 131.668C946.402 89.4535 912.212 54.9452 869.642 54.9452C852.882 54.9452 836.457 60.3057 823.049 70.6917L821.038 72.3669V57.2904H781.82ZM819.697 131.668C819.697 108.215 838.803 89.1185 862.267 89.1185C885.731 89.1185 904.837 108.215 904.837 131.668C904.837 155.12 885.731 174.217 862.267 174.217C838.803 174.217 819.697 155.12 819.697 131.668ZM714.11 206.045H753.328V57.2904H714.11V72.3669L712.099 70.6917C698.691 60.3057 682.602 54.9452 665.507 54.9452C623.272 54.9452 588.747 89.1185 588.747 131.668C588.747 173.882 622.937 208.39 665.507 208.39C682.267 208.39 698.691 203.029 712.099 192.643L714.11 190.968V206.045ZM673.217 89.1185C696.68 89.1185 715.786 108.215 715.786 131.668C715.786 155.12 696.68 174.217 673.217 174.217C649.753 174.217 630.647 155.12 630.647 131.668C630.647 108.215 649.753 89.1185 673.217 89.1185ZM139.249 16.0815L48.4106 173.546C42.3771 183.932 46.0642 198.339 56.7905 204.369C67.1816 210.4 81.595 206.715 87.6286 195.994L132.88 117.596L178.467 38.8637C184.5 28.4777 180.813 14.0713 170.087 8.04076C159.696 2.01019 145.282 5.69554 139.249 16.0815ZM48.4106 16.0815C54.4441 5.69554 68.8576 2.01019 79.2487 8.04076C89.6397 14.0713 93.6621 28.4777 87.6286 38.8637L42.0419 117.596C36.0083 127.982 21.5949 132.003 11.2038 125.972C0.812717 119.606 -3.20964 105.535 2.8239 94.814L48.4106 16.0815ZM184.835 94.814C190.869 84.428 205.282 80.4076 215.674 86.4382C226.065 92.4688 230.087 106.875 224.053 117.261L178.467 196.329C172.433 206.715 158.02 210.735 147.629 204.704C137.238 198.674 133.215 184.268 139.249 173.882L184.835 94.814ZM372.545 95.4841V135.688H423.16L422.49 137.363C420.479 143.059 416.791 148.419 412.434 152.439C403.719 161.15 391.652 166.176 379.249 167.516C376.568 167.851 373.886 167.851 371.205 167.851C354.78 167.851 339.026 161.485 327.294 149.759C315.562 138.033 309.193 122.622 309.193 105.87C309.193 89.1185 315.562 73.707 327.294 61.9809C339.026 50.2548 354.445 43.8892 371.205 43.8892C379.249 43.8892 387.294 45.5643 395.004 48.5796C402.378 51.5949 409.417 56.2853 415.115 61.9809L443.607 33.5032C434.222 24.1223 422.825 16.4166 410.423 11.3911C398.02 6.36561 384.948 3.68535 371.54 3.68535C344.389 3.68535 318.579 14.4064 299.473 33.5032C280.366 52.6 269.64 78.3975 269.64 105.535C269.64 132.673 280.366 158.47 299.473 177.567C318.579 196.664 344.389 207.385 371.54 207.385C375.897 207.385 380.255 207.05 384.612 206.715C405.395 204.034 425.506 195.324 440.925 180.582C456.68 165.171 465.73 145.069 465.73 122.957V112.906C465.73 102.855 457.685 94.814 447.629 94.814H372.545V95.4841ZM487.853 57.2904V206.045H529.082V135.688C529.082 134.683 529.082 133.343 529.417 132.338V130.997C529.417 109.555 546.848 92.1338 568.3 92.1338H579.362V55.2803C577.686 54.9452 575.674 54.9452 573.998 54.9452C556.568 54.9452 540.144 62.986 529.753 76.7223L527.406 79.7376V56.9554H487.853V57.2904ZM966.849 0V206.045H1008.08V121.282C1008.08 102.185 1023.5 86.4382 1042.94 86.4382C1062.04 86.4382 1077.8 101.85 1077.8 121.282V205.71H1119.03V116.591C1119.03 82.0828 1091.21 54.2752 1056.68 54.2752C1039.25 54.2752 1022.49 61.6459 1010.76 74.3771L1008.41 76.7223V0H966.849ZM1124.73 57.2904L1189.75 208.39L1189.08 210.4C1186.74 215.761 1183.39 221.791 1178.69 225.476C1174.33 228.827 1168.64 230.167 1163.27 230.167C1158.58 230.167 1154.22 229.162 1149.87 227.487C1145.84 226.146 1142.16 223.801 1139.14 221.456L1124.39 250.269C1129.42 254.624 1135.79 257.304 1142.16 259.315C1149.53 261.66 1157.24 263 1164.95 263C1178.02 263 1190.42 259.985 1201.15 252.614C1213.22 244.238 1221.26 229.832 1226.29 216.431L1294 57.6255H1254.78L1210.87 160.815L1167.3 57.6255H1124.73V57.2904Z" fill="#989EF2"/>
</svg>
