<svg xmlns="http://www.w3.org/2000/svg" xmlns:xlink="http://www.w3.org/1999/xlink" viewBox="0 0 172.09 158.38">
  <defs>
    <style>
      .a {
        fill: none;
      }

      .b {
        clip-path: url(#a);
      }

      .c {
        fill: #74b14a;
      }

      .d {
        clip-path: url(#b);
      }
    </style>
    <clipPath id="a" transform="translate(0 0)">
      <rect class="a" y="0.01" width="172.06" height="158.24"/>
    </clipPath>
    <clipPath id="b" transform="translate(0 0)">
      <rect class="a" width="172.06" height="158.25"/>
    </clipPath>
  </defs>
  <title>Logo</title>
  <g class="b">
    <path class="c" d="M112.49,114.23H74.15c-2.8,0-5.59,0-6.59-1.2-1.2-1.4-1-4.39-1-7V3.19c0-2.79,1-3.19,10-3.19C86.73,0,87.92.2,87.92,3.39V86.87c0,2.59-.19,6,1.21,7,1,.59,3.39.8,5.39.8h17.77c2.6,0,2.79,1,2.79,9.39,0,9.58-.19,10.18-2.59,10.18" transform="translate(0 0)"/>
    <path class="c" d="M169.46,114.23H131.12c-2.8,0-5.59,0-6.59-1.2-1.2-1.4-1-4.39-1-7V3.19c0-2.79,1-3.19,10-3.19C143.7,0,144.9.2,144.9,3.39V86.87c0,2.59-.2,6,1.2,7,1,.59,3.39.8,5.39.8h17.77c2.6,0,2.8,1,2.8,9.39,0,9.58-.2,10.18-2.6,10.18" transform="translate(0 0)"/>
    <path class="c" d="M29,20.57c5.4,0,7.39,5.59,7.39,8.38,0,2,.2,7.79.2,10.59,0,2.2,2.6,2,9.59,2,10.19,0,12-.8,12-2.6V28.16C58.11,14.38,48.33,0,29,0,10,0,0,14.38,0,28.16V86c0,13.78,10,28.16,29,28.16,19.38,0,29.16-14.38,29.16-28.16V57.67c0-2.79-1.59-4-9.58-4.19s-16.78,0-19.38,1.8c-.79.39-.79,2.59-.79,6,0,3.19,0,5.19.79,6,1,.6,3.4.6,5.4,1.2,1.2.39,1.79,1,1.79,2.79v14c0,2.8-2,8.39-7.39,8.39-6,0-7.58-6.39-7.58-11.39V32c0-5,1.59-11.38,7.58-11.38" transform="translate(0 0)"/>
  </g>
  <g class="d">
    <path class="c" d="M7.45,152.8a3.27,3.27,0,0,1-1.9-.52l-.06-.05c-.12-.09-.27-.21-.45-.37v.84H3v-23h2V136L5,136a3.81,3.81,0,0,1,2.75-1.11,4,4,0,0,1,1.71.4c1.75.93,1.8,3,1.83,4.39v8.81a5,5,0,0,1-.68,2.57,3.6,3.6,0,0,1-3.16,1.76m-.1-16a2.25,2.25,0,0,0-2.22,1.66A4,4,0,0,0,5,139.62v8.21a3.6,3.6,0,0,0,.53,2,2.24,2.24,0,0,0,1.85,1.11,1.77,1.77,0,0,0,1.46-.81A4.06,4.06,0,0,0,9.3,148v-8.38a3.22,3.22,0,0,0-.7-2.28,1.64,1.64,0,0,0-1.25-.47" transform="translate(0 0)"/>
    <path class="c" d="M17.64,152.73a5.27,5.27,0,0,1-1.52-.22,3.72,3.72,0,0,1-2.3-2.25,4.77,4.77,0,0,1-.28-2v-8.94a6.07,6.07,0,0,1,.21-1.67A3.71,3.71,0,0,1,17.64,135a3.89,3.89,0,0,1,3.45,1.62,7.15,7.15,0,0,1,.73,3.87v3.87H15.53v3.91a4.34,4.34,0,0,0,.13,1.14,1.89,1.89,0,0,0,2.08,1.44,2.23,2.23,0,0,0,1.47-.53,1.48,1.48,0,0,0,.39-.62,8.64,8.64,0,0,0,.22-2.71v-.78h2v2.23a4.42,4.42,0,0,1-.8,2.81,4,4,0,0,1-3.38,1.51m2.15-10.2v-2.82c0-1.61-.44-2.15-.82-2.45a2.2,2.2,0,0,0-1.29-.41,2.16,2.16,0,0,0-1.29.41,3.13,3.13,0,0,0-.86,2.59v2.68Z" transform="translate(0 0)"/>
    <polygon class="c" points="33.58 135.75 33.58 130.22 31.55 130.22 31.55 135.75 27 135.75 27 130.22 24.97 130.22 24.97 135.75 23.2 135.75 23.2 137.73 24.97 137.73 24.97 152.7 27 152.7 27 137.73 31.55 137.73 31.55 152.7 33.58 152.7 33.58 137.73 36.13 137.73 36.13 135.75 33.58 135.75"/>
    <path class="c" d="M41.62,152.73a5.28,5.28,0,0,1-1.53-.22,3.7,3.7,0,0,1-2.3-2.25,4.77,4.77,0,0,1-.28-2v-8.94a6.07,6.07,0,0,1,.21-1.67,3.72,3.72,0,0,1,3.9-2.69,3.91,3.91,0,0,1,3.44,1.62,7.15,7.15,0,0,1,.73,3.87v3.87H39.5v3.91a4.34,4.34,0,0,0,.13,1.14,1.89,1.89,0,0,0,2.08,1.44,2.23,2.23,0,0,0,1.47-.53,1.51,1.51,0,0,0,.39-.62,8,8,0,0,0,.22-2.7v-.79h2v2.23a4.42,4.42,0,0,1-.8,2.81,4,4,0,0,1-3.37,1.51m2.14-10.2v-2.82c0-1.61-.44-2.15-.82-2.45a2.25,2.25,0,0,0-1.29-.41,2.2,2.2,0,0,0-1.3.41,3.1,3.1,0,0,0-.85,2.59v2.68Z" transform="translate(0 0)"/>
    <path class="c" d="M53.5,137.75c-1.85.34-3.47,1.77-3.47,3.44V152.7H48V135.75h2v2.11a4.87,4.87,0,0,1,3.51-2.38Z" transform="translate(0 0)"/>
    <path class="c" d="M129.35,137.75c-1.86.34-3.48,1.77-3.48,3.44V152.7h-2V135.75h2v2.11a4.82,4.82,0,0,1,3.51-2.38Z" transform="translate(0 0)"/>
    <path class="c" d="M84.57,137.75c-1.86.34-3.47,1.77-3.47,3.44V152.7h-2V135.75h2v2.11a4.87,4.87,0,0,1,3.51-2.38Z" transform="translate(0 0)"/>
    <path class="c" d="M63,152.7v-15h-1.9v-2h2v-3.13a2.94,2.94,0,0,1,1.53-2.73,3.47,3.47,0,0,1,1.74-.41,7.31,7.31,0,0,1,.85.07l.26,0v1.92l-.32,0c-.12,0-.28,0-.47,0a1.44,1.44,0,0,0-1.59,1,4.14,4.14,0,0,0,0,.8v2.49h2.07v2H65v15Z" transform="translate(0 0)"/>
    <path class="c" d="M72.59,152.76a4,4,0,0,1-3.86-2.28,5.89,5.89,0,0,1-.31-1.92v-9.2a4.49,4.49,0,0,1,.76-2.73A4.27,4.27,0,0,1,72.75,135a3.67,3.67,0,0,1,3.86,2.43,6,6,0,0,1,.25,2.07v8.12a8,8,0,0,1-.25,2.29,4,4,0,0,1-4,2.88M72.75,137a2.26,2.26,0,0,0-1.42.41c-.89.66-.89,1.58-.89,2.64v8.23a5.25,5.25,0,0,0,.09,1,1.94,1.94,0,0,0,2.06,1.46,2,2,0,0,0,2-1.26,4.27,4.27,0,0,0,.21-1.4V139.6c0-1-.12-1.75-.84-2.26a2,2,0,0,0-1.24-.35" transform="translate(0 0)"/>
    <path class="c" d="M97.26,152.73a5.27,5.27,0,0,1-1.52-.22,3.68,3.68,0,0,1-2.3-2.25,4.74,4.74,0,0,1-.29-2v-8.94a5.81,5.81,0,0,1,.22-1.67A3.71,3.71,0,0,1,97.26,135a3.92,3.92,0,0,1,3.45,1.62,7.13,7.13,0,0,1,.73,3.86v3.88H95.15v3.91a4.34,4.34,0,0,0,.13,1.14,1.88,1.88,0,0,0,2.08,1.44,2.24,2.24,0,0,0,1.47-.53,1.51,1.51,0,0,0,.39-.62,8.57,8.57,0,0,0,.22-2.7v-.79h2v2.23a4.35,4.35,0,0,1-.79,2.81,4,4,0,0,1-3.38,1.51m2.15-10.2v-2.82c0-1.61-.44-2.15-.82-2.45a2.23,2.23,0,0,0-1.29-.41,2.16,2.16,0,0,0-1.29.41,3.1,3.1,0,0,0-.86,2.59v2.68Z" transform="translate(0 0)"/>
    <path class="c" d="M117.45,152.73a5.27,5.27,0,0,1-1.52-.22,3.7,3.7,0,0,1-2.3-2.25,4.77,4.77,0,0,1-.28-2v-8.94a6.07,6.07,0,0,1,.21-1.67,3.71,3.71,0,0,1,3.89-2.69,3.94,3.94,0,0,1,3.46,1.62,7.23,7.23,0,0,1,.72,3.87v3.87h-6.29v3.91a4.34,4.34,0,0,0,.13,1.14,1.88,1.88,0,0,0,2.08,1.44,2.23,2.23,0,0,0,1.47-.53,1.51,1.51,0,0,0,.39-.62,8,8,0,0,0,.22-2.7v-.79h2v2.23a4.36,4.36,0,0,1-.8,2.81,4,4,0,0,1-3.38,1.51m2.15-10.2v-2.82c0-1.6-.44-2.15-.82-2.45a2.26,2.26,0,0,0-1.29-.41,2.18,2.18,0,0,0-1.29.41,3.06,3.06,0,0,0-.86,2.59v2.68Z" transform="translate(0 0)"/>
  </g>
  <g class="b">
    <path class="c" d="M146.73,152.76a4,4,0,0,1-3.85-2.28,5.59,5.59,0,0,1-.31-1.92v-9.2a4.41,4.41,0,0,1,.75-2.73A4.29,4.29,0,0,1,146.9,135a4.09,4.09,0,0,1,3,1.07,4,4,0,0,1,.84,1.36,5.78,5.78,0,0,1,.26,2.07v8.12a8,8,0,0,1-.25,2.29,4,4,0,0,1-4,2.88M146.9,137a2.25,2.25,0,0,0-1.42.41c-.9.66-.9,1.58-.9,2.64v8.23a4.74,4.74,0,0,0,.1,1,1.92,1.92,0,0,0,2,1.46,2,2,0,0,0,2-1.26,4.57,4.57,0,0,0,.21-1.4V139.6c0-1-.12-1.75-.85-2.26a2,2,0,0,0-1.23-.35" transform="translate(0 0)"/>
    <path class="c" d="M167.89,152.73a5.28,5.28,0,0,1-1.53-.22,3.7,3.7,0,0,1-2.3-2.25,4.94,4.94,0,0,1-.28-2v-8.94a6.07,6.07,0,0,1,.21-1.67,3.72,3.72,0,0,1,3.9-2.69,3.92,3.92,0,0,1,3.45,1.62,7.14,7.14,0,0,1,.72,3.87v3.87h-6.29v3.91a4.34,4.34,0,0,0,.13,1.14,1.89,1.89,0,0,0,2.09,1.44,2.24,2.24,0,0,0,1.47-.53,1.59,1.59,0,0,0,.39-.62,8.27,8.27,0,0,0,.21-2.69v-.8h2v2.23a4.41,4.41,0,0,1-.79,2.81,4,4,0,0,1-3.38,1.51m2.14-10.2v-2.82c0-1.61-.44-2.15-.82-2.45a2.23,2.23,0,0,0-1.29-.41,2.18,2.18,0,0,0-1.29.41,3.13,3.13,0,0,0-.86,2.59v2.68Z" transform="translate(0 0)"/>
  </g>
  <g class="d">
    <path class="c" d="M138.68,135.33,136,148.08l-2.64-12.75h-2L135,152.27l-.43,1.9a3.48,3.48,0,0,1-.27.88,2.19,2.19,0,0,1-2.15,1.24,5.1,5.1,0,0,1-.66,0l-.32,0,0,2.05h.3a4.78,4.78,0,0,0,3.79-1.18,5.31,5.31,0,0,0,1.21-2.54l0-.13,4.33-19.07Z" transform="translate(0 0)"/>
    <path class="c" d="M109.47,135.33l-2,11.84-.15,1c-.09-.59-.18-1.13-.27-1.6l-2-11.19H103l3.24,17.37h2.13l3.27-17.37Z" transform="translate(0 0)"/>
    <path class="c" d="M161.53,152.7V138.44a5,5,0,0,0-.17-1.18,3.27,3.27,0,0,0-3.29-2.39,3.8,3.8,0,0,0-2.68,1.11l-.14.13v-.78h-2V152.7h2V138.61a3.18,3.18,0,0,1,.39-.74,2.68,2.68,0,0,1,2.13-1.15,1.63,1.63,0,0,1,1.62,1.07,4.12,4.12,0,0,1,.13.77.7.7,0,0,0,0,.2V152.7Z" transform="translate(0 0)"/>
  </g>
</svg>