<svg xmlns="http://www.w3.org/2000/svg" xmlns:xlink="http://www.w3.org/1999/xlink" version="1.1" id="layer" x="0px" y="0px" style="enable-background:new 0 0 652 652;" xml:space="preserve" viewBox="15.2 258.19 608.5 135.71">
<style type="text/css">
	.st0{fill:url(#SVGID_1_);}
	.st1{opacity:0.62;fill:url(#SVGID_2_);enable-background:new    ;}
	.st2{opacity:0.56;fill:url(#SVGID_3_);enable-background:new    ;}
	.st3{fill:url(#SVGID_4_);}
	.st4{opacity:0.62;fill:url(#SVGID_5_);enable-background:new    ;}
	.st5{opacity:0.47;fill:url(#SVGID_6_);enable-background:new    ;}
	.st6{fill:url(#SVGID_7_);}
	.st7{opacity:0.62;fill:url(#SVGID_8_);enable-background:new    ;}
	.st8{opacity:0.39;fill:url(#SVGID_9_);enable-background:new    ;}
	.st9{fill:url(#SVGID_10_);}
	.st10{opacity:0.62;fill:url(#SVGID_11_);enable-background:new    ;}
	.st11{opacity:0.56;fill:url(#SVGID_12_);enable-background:new    ;}
	.st12{fill:url(#SVGID_13_);}
	.st13{fill:url(#SVGID_14_);}
	.st14{opacity:0.35;fill:url(#SVGID_15_);enable-background:new    ;}
	.st15{fill:url(#SVGID_16_);}
	.st16{fill:url(#SVGID_17_);}
	.st17{filter:url(#Adobe_OpacityMaskFilter);}
	.st18{fill:url(#SVGID_18_);}
	.st19{mask:url(#mask_1_);}
	.st20{opacity:0.68;fill:url(#SVGID_19_);enable-background:new    ;}
	.st21{fill:url(#SVGID_20_);}
	.st22{fill:url(#SVGID_21_);}
	.st23{fill:url(#SVGID_22_);}
	.st24{fill:url(#SVGID_23_);}
	.st25{fill:url(#SVGID_24_);}
	.st26{fill:url(#SVGID_25_);}
	.st27{fill:#1B2436;}
</style>
<linearGradient id="SVGID_1_" gradientUnits="userSpaceOnUse" x1="542.2512" y1="337.6713" x2="608.7864" y2="278.9078" gradientTransform="matrix(1 0 0 -1 0 652)">
	<stop offset="6.000000e-002" style="stop-color:#FCB326"/>
	<stop offset="0.14" style="stop-color:#FCAF2D"/>
	<stop offset="0.25" style="stop-color:#FDA242"/>
	<stop offset="0.38" style="stop-color:#FD8E63"/>
	<stop offset="0.53" style="stop-color:#FE7291"/>
	<stop offset="0.6" style="stop-color:#FF64A8"/>
	<stop offset="0.96" style="stop-color:#C800FF"/>
</linearGradient>
<path class="st0" d="M586.8,327.5c-16.2-8.9-31.8-11.7-51.3-9.2c-0.1,0-0.4,0-0.6,0.1c29.4,2.8,53.3,30,53.5,60.2  c0,1.3-0.1,3.3-0.2,4.8c0,0.6,0.4,1.1,1,1.1c0.2,0,0.4,0,0.6-0.2c4.2-2.8,8-6.4,10.7-10.6c6.3-9.6,8.8-20,8.3-28  C605.1,340.6,598.4,333.8,586.8,327.5L586.8,327.5z"/>
<linearGradient id="SVGID_2_" gradientUnits="userSpaceOnUse" x1="568.9567" y1="306.7123" x2="607.1866" y2="344.5403" gradientTransform="matrix(1 0 0 -1 0 652)">
	<stop offset="0" style="stop-color:#FFFFFF;stop-opacity:0"/>
	<stop offset="9.000000e-002" style="stop-color:#F2EBF8;stop-opacity:8.000000e-002"/>
	<stop offset="0.27" style="stop-color:#CEB7E4;stop-opacity:0.28"/>
	<stop offset="0.5" style="stop-color:#9562C4;stop-opacity:0.62"/>
	<stop offset="0.74" style="stop-color:#5300A0"/>
</linearGradient>
<path class="st1" d="M586.8,327.5c-16.2-8.9-31.8-11.7-51.3-9.2c-0.1,0-0.4,0-0.6,0.1c29.4,2.8,53.3,30,53.5,60.2  c0,1.3-0.1,3.3-0.2,4.8c0,0.6,0.4,1.1,1,1.1c0.2,0,0.4,0,0.6-0.2c4.2-2.8,8-6.4,10.7-10.6c6.3-9.6,8.8-20,8.3-28  C605.1,340.6,598.4,333.8,586.8,327.5L586.8,327.5z"/>
<linearGradient id="SVGID_3_" gradientUnits="userSpaceOnUse" x1="531.3907" y1="346.6655" x2="614.4414" y2="274.0987" gradientTransform="matrix(1 0 0 -1 0 652)">
	<stop offset="0.19" style="stop-color:#FFFFFF;stop-opacity:0"/>
	<stop offset="0.3" style="stop-color:#FFD9DF;stop-opacity:0.17"/>
	<stop offset="0.52" style="stop-color:#FF889C;stop-opacity:0.52"/>
	<stop offset="0.71" style="stop-color:#FF4D6B;stop-opacity:0.78"/>
	<stop offset="0.84" style="stop-color:#FF294D;stop-opacity:0.94"/>
	<stop offset="0.91" style="stop-color:#FF1B41"/>
</linearGradient>
<path class="st2" d="M586.8,327.5c-16.2-8.9-31.8-11.7-51.3-9.2c-0.1,0-0.4,0-0.6,0.1c29.4,2.8,53.3,30,53.5,60.2  c0,1.3-0.1,3.3-0.2,4.8c0,0.6,0.4,1.1,1,1.1c0.2,0,0.4,0,0.6-0.2c4.2-2.8,8-6.4,10.7-10.6c6.3-9.6,8.8-20,8.3-28  C605.1,340.6,598.4,333.8,586.8,327.5L586.8,327.5z"/>
<linearGradient id="SVGID_4_" gradientUnits="userSpaceOnUse" x1="519.7095" y1="323.0772" x2="600.4286" y2="252.9098" gradientTransform="matrix(1 0 0 -1 0 652)">
	<stop offset="0" style="stop-color:#F7A71E"/>
	<stop offset="0.13" style="stop-color:#F7A621"/>
	<stop offset="0.21" style="stop-color:#F8A229"/>
	<stop offset="0.28" style="stop-color:#F99A38"/>
	<stop offset="0.34" style="stop-color:#FA904D"/>
	<stop offset="0.4" style="stop-color:#FB8368"/>
	<stop offset="0.45" style="stop-color:#FD7389"/>
	<stop offset="0.49" style="stop-color:#FF64A8"/>
	<stop offset="0.83" style="stop-color:#C800FF"/>
</linearGradient>
<path class="st3" d="M588.3,375.9c-0.2,0.3-0.4,0.6-0.7,0.9c-7,8.9-17.1,14.9-28.3,16.7c-2.3,0.4-4.7,0.5-7.1,0.3  c-0.3,0-0.6-0.1-0.9-0.1c-0.5-0.1-0.8-0.5-0.8-1c0-0.2,0.1-0.4,0.2-0.5c0.8-0.9,1.7-1.8,2.4-2.8c1.6-1.9,3-4,4.3-6.2  c11-19.2,6.9-44.1-10.8-58.6c-3.6-3-7.5-4.7-10.9-6.4c11.3,1.3,21.7,6.1,30.2,13.3C578.8,342.3,587.6,358.9,588.3,375.9L588.3,375.9  z"/>
<linearGradient id="SVGID_5_" gradientUnits="userSpaceOnUse" x1="537.6454" y1="292.9045" x2="613.044" y2="314.9299" gradientTransform="matrix(1 0 0 -1 0 652)">
	<stop offset="0" style="stop-color:#FFFFFF;stop-opacity:0"/>
	<stop offset="0.13" style="stop-color:#F4EFF7;stop-opacity:6.000000e-002"/>
	<stop offset="0.32" style="stop-color:#D6C3E0;stop-opacity:0.24"/>
	<stop offset="0.55" style="stop-color:#A57ABA;stop-opacity:0.52"/>
	<stop offset="0.82" style="stop-color:#611787;stop-opacity:0.91"/>
	<stop offset="0.87" style="stop-color:#51007B"/>
</linearGradient>
<path class="st4" d="M588.3,375.9c-0.2,0.3-0.4,0.6-0.7,0.9c-7,8.9-17.1,14.9-28.3,16.7c-2.3,0.4-4.7,0.5-7.1,0.3  c-0.3,0-0.6-0.1-0.9-0.1c-0.5-0.1-0.8-0.5-0.8-1c0-0.2,0.1-0.4,0.2-0.5c0.8-0.9,1.7-1.8,2.4-2.8c1.6-1.9,3-4,4.3-6.2  c11-19.2,6.9-44.1-10.8-58.6c-3.6-3-7.5-4.7-10.9-6.4c11.3,1.3,21.7,6.1,30.2,13.3C578.8,342.3,587.6,358.9,588.3,375.9L588.3,375.9  z"/>
<linearGradient id="SVGID_6_" gradientUnits="userSpaceOnUse" x1="540.1484" y1="295.753" x2="598.3991" y2="296.1193" gradientTransform="matrix(1 0 0 -1 0 652)">
	<stop offset="0.2" style="stop-color:#FFFFFF;stop-opacity:0"/>
	<stop offset="0.24" style="stop-color:#FFE4E9;stop-opacity:0.12"/>
	<stop offset="0.32" style="stop-color:#FFB0BD;stop-opacity:0.35"/>
	<stop offset="0.41" style="stop-color:#FF8297;stop-opacity:0.55"/>
	<stop offset="0.49" style="stop-color:#FF5D78;stop-opacity:0.71"/>
	<stop offset="0.57" style="stop-color:#FF4060;stop-opacity:0.84"/>
	<stop offset="0.65" style="stop-color:#FF2C4F;stop-opacity:0.93"/>
	<stop offset="0.72" style="stop-color:#FF1F45;stop-opacity:0.98"/>
	<stop offset="0.79" style="stop-color:#FF1B41"/>
</linearGradient>
<path class="st5" d="M588.3,375.9c-0.2,0.3-0.4,0.6-0.7,0.9c-7,8.9-17.1,14.9-28.3,16.7c-2.3,0.4-4.7,0.5-7.1,0.3  c-0.3,0-0.6-0.1-0.9-0.1c-0.5-0.1-0.8-0.5-0.8-1c0-0.2,0.1-0.4,0.2-0.5c0.8-0.9,1.7-1.8,2.4-2.8c1.6-1.9,3-4,4.3-6.2  c11-19.2,6.9-44.1-10.8-58.6c-3.6-3-7.5-4.7-10.9-6.4c11.3,1.3,21.7,6.1,30.2,13.3C578.8,342.3,587.6,358.9,588.3,375.9L588.3,375.9  z"/>
<linearGradient id="SVGID_7_" gradientUnits="userSpaceOnUse" x1="518.0028" y1="321.4867" x2="566.9203" y2="251.7195" gradientTransform="matrix(1 0 0 -1 0 652)">
	<stop offset="8.000000e-002" style="stop-color:#F7BC17"/>
	<stop offset="0.19" style="stop-color:#F9A340"/>
	<stop offset="0.46" style="stop-color:#FF64A8"/>
	<stop offset="0.66" style="stop-color:#E230D6"/>
	<stop offset="0.85" style="stop-color:#C800FF"/>
</linearGradient>
<path class="st6" d="M557.6,383.4c-2.3,1.4-4.8,2.6-7.4,3.3c-9.4,2.7-22.3-0.7-30.2-5.1c-0.7-0.5-1.4-1-2.1-1.6  c-0.4-0.3-0.5-1-0.1-1.4c0.1-0.2,0.3-0.3,0.6-0.3c0.7-0.2,1.4-0.3,2.1-0.5c18.5-5.3,29.2-24.7,23.8-43.2c0,0,0,0,0-0.1  c-1.7-5.9-4.8-12-8.8-16.2c0.1,0,0.4,0,0.6,0.1c2.9,1.5,5.9,2.8,9,5c0.6,0.4,1.2,0.9,1.8,1.4C564.5,339.3,568.6,364.2,557.6,383.4  L557.6,383.4z"/>
<linearGradient id="SVGID_8_" gradientUnits="userSpaceOnUse" x1="517.1884" y1="312.7578" x2="575.0961" y2="262.4201" gradientTransform="matrix(1 0 0 -1 0 652)">
	<stop offset="0.22" style="stop-color:#FFFFFF;stop-opacity:0"/>
	<stop offset="0.33" style="stop-color:#F8F5FA;stop-opacity:4.000000e-002"/>
	<stop offset="0.45" style="stop-color:#E4D7EA;stop-opacity:0.16"/>
	<stop offset="0.58" style="stop-color:#C2A6D1;stop-opacity:0.35"/>
	<stop offset="0.71" style="stop-color:#9462AE;stop-opacity:0.62"/>
	<stop offset="0.85" style="stop-color:#580A80;stop-opacity:0.96"/>
	<stop offset="0.87" style="stop-color:#51007B"/>
</linearGradient>
<path class="st7" d="M557.6,383.4c-2.3,1.4-4.8,2.6-7.4,3.3c-9.4,2.7-22.3-0.7-30.2-5.1c-0.7-0.5-1.4-1-2.1-1.6  c-0.4-0.3-0.5-1-0.1-1.4c0.1-0.2,0.3-0.3,0.6-0.3c0.7-0.2,1.4-0.3,2.1-0.5c18.5-5.3,29.2-24.7,23.8-43.2c0,0,0,0,0-0.1  c-1.7-5.9-4.8-12-8.8-16.2c0.1,0,0.4,0,0.6,0.1c2.9,1.5,5.9,2.8,9,5c0.6,0.4,1.2,0.9,1.8,1.4C564.5,339.3,568.6,364.2,557.6,383.4  L557.6,383.4z"/>
<linearGradient id="SVGID_9_" gradientUnits="userSpaceOnUse" x1="514.3414" y1="295.3582" x2="562.6353" y2="302.1468" gradientTransform="matrix(1 0 0 -1 0 652)">
	<stop offset="0" style="stop-color:#FFFFFF;stop-opacity:0"/>
	<stop offset="9.000000e-002" style="stop-color:#FFF3F5;stop-opacity:5.000000e-002"/>
	<stop offset="0.26" style="stop-color:#FFD3DA;stop-opacity:0.19"/>
	<stop offset="0.49" style="stop-color:#FF9FAF;stop-opacity:0.42"/>
	<stop offset="0.77" style="stop-color:#FF5975;stop-opacity:0.73"/>
	<stop offset="1" style="stop-color:#FF1B41"/>
</linearGradient>
<path class="st8" d="M557.6,383.4c-2.3,1.4-4.8,2.6-7.4,3.3c-9.4,2.7-22.3-0.7-30.2-5.1c-0.7-0.5-1.4-1-2.1-1.6  c-0.4-0.3-0.5-1-0.1-1.4c0.1-0.2,0.3-0.3,0.6-0.3c0.7-0.2,1.4-0.3,2.1-0.5c18.5-5.3,29.2-24.7,23.8-43.2c0,0,0,0,0-0.1  c-1.7-5.9-4.8-12-8.8-16.2c0.1,0,0.4,0,0.6,0.1c2.9,1.5,5.9,2.8,9,5c0.6,0.4,1.2,0.9,1.8,1.4C564.5,339.3,568.6,364.2,557.6,383.4  L557.6,383.4z"/>
<linearGradient id="SVGID_10_" gradientUnits="userSpaceOnUse" x1="517.6293" y1="321.8968" x2="537.2748" y2="264.7717" gradientTransform="matrix(1 0 0 -1 0 652)">
	<stop offset="7.000000e-002" style="stop-color:#FFA548"/>
	<stop offset="0.24" style="stop-color:#FF7C76"/>
	<stop offset="0.44" style="stop-color:#FF4FA8"/>
	<stop offset="0.49" style="stop-color:#F945B3"/>
	<stop offset="0.74" style="stop-color:#D913EA"/>
	<stop offset="0.86" style="stop-color:#CD00FF"/>
</linearGradient>
<path class="st9" d="M528.9,374c-0.3,0-0.5,0-0.8,0c-9.6,0-16.9-3.8-21.2-8.1c-1.5-1.5-2.8-3.2-3.8-5c-0.3-0.4-0.1-1,0.3-1.3  c0.2-0.1,0.4-0.1,0.6-0.1c1.3,0.2,2.6,0.3,3.9,0.3h0.4c4.2,0.1,8.3-0.8,12.1-2.6c0.1,0,0.1-0.1,0.2-0.1  c13.8-6.4,20.4-22.4,15.1-36.6c-0.3-0.7-0.6-1.5-0.9-2.2c0.1,0,0.3,0,0.4,0c4.1,4.2,7.1,10.3,8.8,16.2  C548.6,349.6,542.3,365.8,528.9,374L528.9,374z"/>
<linearGradient id="SVGID_11_" gradientUnits="userSpaceOnUse" x1="519.9495" y1="310.8768" x2="550.1664" y2="284.6082" gradientTransform="matrix(1 0 0 -1 0 652)">
	<stop offset="0.21" style="stop-color:#FFFFFF;stop-opacity:0"/>
	<stop offset="0.35" style="stop-color:#E7DCED;stop-opacity:0.14"/>
	<stop offset="0.62" style="stop-color:#A981BE;stop-opacity:0.5"/>
	<stop offset="0.95" style="stop-color:#51007B"/>
</linearGradient>
<path class="st10" d="M528.9,374c-0.3,0-0.5,0-0.8,0c-9.6,0-16.9-3.8-21.2-8.1c-1.5-1.5-2.8-3.2-3.8-5c-0.3-0.4-0.1-1,0.3-1.3  c0.2-0.1,0.4-0.1,0.6-0.1c1.3,0.2,2.6,0.3,3.9,0.3h0.4c4.2,0.1,8.3-0.8,12.1-2.6c0.1,0,0.1-0.1,0.2-0.1  c13.8-6.4,20.4-22.4,15.1-36.6c-0.3-0.7-0.6-1.5-0.9-2.2c0.1,0,0.3,0,0.4,0c4.1,4.2,7.1,10.3,8.8,16.2  C548.6,349.6,542.3,365.8,528.9,374L528.9,374z"/>
<linearGradient id="SVGID_12_" gradientUnits="userSpaceOnUse" x1="506.4806" y1="314.0637" x2="547.2349" y2="298.9525" gradientTransform="matrix(1 0 0 -1 0 652)">
	<stop offset="0" style="stop-color:#FFFFFF;stop-opacity:0"/>
	<stop offset="0.12" style="stop-color:#FFE2E7;stop-opacity:0.13"/>
	<stop offset="0.96" style="stop-color:#FF1B41"/>
</linearGradient>
<path class="st11" d="M528.9,374c-0.3,0-0.5,0-0.8,0c-9.6,0-16.9-3.8-21.2-8.1c-1.5-1.5-2.8-3.2-3.8-5c-0.3-0.4-0.1-1,0.3-1.3  c0.2-0.1,0.4-0.1,0.6-0.1c1.3,0.2,2.6,0.3,3.9,0.3h0.4c4.2,0.1,8.3-0.8,12.1-2.6c0.1,0,0.1-0.1,0.2-0.1  c13.8-6.4,20.4-22.4,15.1-36.6c-0.3-0.7-0.6-1.5-0.9-2.2c0.1,0,0.3,0,0.4,0c4.1,4.2,7.1,10.3,8.8,16.2  C548.6,349.6,542.3,365.8,528.9,374L528.9,374z"/>
<linearGradient id="SVGID_13_" gradientUnits="userSpaceOnUse" x1="553.0674" y1="389.8031" x2="568.2803" y2="369.4983" gradientTransform="matrix(1 0 0 -1 0 652)">
	<stop offset="0.1" style="stop-color:#FFCE32"/>
	<stop offset="0.24" style="stop-color:#FFC63B"/>
	<stop offset="0.46" style="stop-color:#FFAF55"/>
	<stop offset="0.74" style="stop-color:#FF8A7D"/>
	<stop offset="1" style="stop-color:#FF64A8"/>
</linearGradient>
<path class="st12" d="M575.1,278.7c-8.8-2.9-18.1-3.8-27-2.4c8.2-4.6,12.6-13.5,14.2-17.2c0.3-0.8,1.2-1.1,1.9-0.8  c0.1,0,0.2,0.1,0.3,0.1C571,263,574.6,270.7,575.1,278.7z"/>
<linearGradient id="SVGID_14_" gradientUnits="userSpaceOnUse" x1="569.9811" y1="386.4504" x2="598.8707" y2="347.7489" gradientTransform="matrix(1 0 0 -1 0 652)">
	<stop offset="0.18" style="stop-color:#FCC924"/>
	<stop offset="0.27" style="stop-color:#FCC32B"/>
	<stop offset="0.4" style="stop-color:#FDB440"/>
	<stop offset="0.56" style="stop-color:#FD9B61"/>
	<stop offset="0.74" style="stop-color:#FE788E"/>
	<stop offset="0.83" style="stop-color:#FF64A8"/>
</linearGradient>
<path class="st13" d="M591.3,286.8c-2.5-1.7-5.1-3.3-7.8-4.7c-8.3-4.1-17.5-6.4-26.6-6.5c0.6-0.1,3.9-0.4,5.2-0.7  c8-1.9,17.6-8.7,21.3-15.5c0.3-0.6,1.1-0.9,1.7-0.6c0.1,0.1,0.2,0.1,0.3,0.2C592.7,266.1,594.4,277.3,591.3,286.8z"/>
<linearGradient id="SVGID_15_" gradientUnits="userSpaceOnUse" x1="569.7632" y1="386.3102" x2="589.4731" y2="353.3169" gradientTransform="matrix(1 0 0 -1 0 652)">
	<stop offset="0.25" style="stop-color:#FCC924"/>
	<stop offset="0.36" style="stop-color:#FDB43F"/>
	<stop offset="0.59" style="stop-color:#FE8083"/>
	<stop offset="0.71" style="stop-color:#FF64A8"/>
</linearGradient>
<path class="st14" d="M583.5,282.1c0.3-0.5,0.6-1.1,0.9-1.6c4.3-10.2,1.2-19.1,0.1-21.7c-0.5,0-0.9,0.3-1.1,0.7  c-3.6,6.8-13.3,13.6-21.3,15.5c-1.3,0.3-4.5,0.6-5.2,0.7C566,275.8,575.2,278,583.5,282.1z"/>
<linearGradient id="SVGID_16_" gradientUnits="userSpaceOnUse" x1="503.8277" y1="394.6649" x2="640.7501" y2="275.6408" gradientTransform="matrix(1 0 0 -1 0 652)">
	<stop offset="3.000000e-002" style="stop-color:#FCEE21"/>
	<stop offset="9.000000e-002" style="stop-color:#FCEE21"/>
	<stop offset="0.17" style="stop-color:#FCE827"/>
	<stop offset="0.28" style="stop-color:#FDD738"/>
	<stop offset="0.4" style="stop-color:#FDBA54"/>
	<stop offset="0.54" style="stop-color:#FE937A"/>
	<stop offset="0.68" style="stop-color:#FF64A8"/>
	<stop offset="0.99" style="stop-color:#B22EFF"/>
</linearGradient>
<path class="st15" d="M614,350.9c-0.1,0.5-0.6,0.8-1.1,0.6c-0.2-0.1-0.5-0.2-0.6-0.5c-2.2-4.3-8.8-14.4-25.5-23.6  c-16.4-9-32.1-11.7-51.9-9.2c-0.9-1.7-4.4-7.1-6.2-8.9c1.7-2.4,24.3-24.7,60.7-9.4C607.4,307.7,619,331.8,614,350.9z"/>
<linearGradient id="SVGID_17_" gradientUnits="userSpaceOnUse" x1="516.8125" y1="372.4713" x2="639.6153" y2="292.9868" gradientTransform="matrix(1 0 0 -1 0 652)">
	<stop offset="0.24" style="stop-color:#FCB825"/>
	<stop offset="0.29" style="stop-color:#FCB22D"/>
	<stop offset="0.37" style="stop-color:#FDA144"/>
	<stop offset="0.48" style="stop-color:#FE8569"/>
	<stop offset="0.59" style="stop-color:#FF5E9C"/>
	<stop offset="0.62" style="stop-color:#FF55A8"/>
	<stop offset="0.88" style="stop-color:#B22EFF"/>
</linearGradient>
<path class="st16" d="M614,350.9c-0.1,0.5-0.6,0.8-1.1,0.6c-0.2-0.1-0.5-0.2-0.6-0.5c-2.2-4.3-8.8-14.4-25.5-23.6  c-16.4-9-32.1-11.7-51.9-9.2c-0.9-1.7-4.4-7.1-6.2-8.9c1.7-2.4,24.3-24.7,60.7-9.4C607.4,307.7,619,331.8,614,350.9z"/>
<defs>
	<filter id="Adobe_OpacityMaskFilter" filterUnits="userSpaceOnUse" x="528.8" y="294.7" width="86.4" height="56.9">
		<feColorMatrix type="matrix" values="1 0 0 0 0  0 1 0 0 0  0 0 1 0 0  0 0 0 1 0"/>
	</filter>
</defs>
<mask maskUnits="userSpaceOnUse" x="528.8" y="294.7" width="86.4" height="56.9" id="mask_1_">
	<g class="st17">
		
			<linearGradient id="SVGID_18_" gradientUnits="userSpaceOnUse" x1="612.4494" y1="352.925" x2="566.6246" y2="328.4056" gradientTransform="matrix(1 0 0 -1 0 652)">
			<stop offset="0" style="stop-color:#FFFFFF;stop-opacity:0"/>
			<stop offset="7.000000e-002" style="stop-color:#D7D7D7;stop-opacity:0.16"/>
			<stop offset="1" style="stop-color:#000000"/>
		</linearGradient>
		<rect x="526.6" y="283.2" class="st18" width="97.1" height="71.7"/>
	</g>
</mask>
<g class="st19">
	
		<radialGradient id="SVGID_19_" cx="1558.3945" cy="2288.8213" r="75.6523" gradientTransform="matrix(0.6575 -0.7534 -0.6329 -0.5523 976.8442 2804.5798)" gradientUnits="userSpaceOnUse">
		<stop offset="0.28" style="stop-color:#FFFFFF;stop-opacity:0"/>
		<stop offset="0.54" style="stop-color:#FFFEFE;stop-opacity:1.000000e-002"/>
		<stop offset="0.63" style="stop-color:#FFF9F8;stop-opacity:4.000000e-002"/>
		<stop offset="0.7" style="stop-color:#FEF1EF;stop-opacity:8.000000e-002"/>
		<stop offset="0.76" style="stop-color:#FEE5E2;stop-opacity:0.15"/>
		<stop offset="0.8" style="stop-color:#FDD5D1;stop-opacity:0.24"/>
		<stop offset="0.84" style="stop-color:#FDC2BC;stop-opacity:0.35"/>
		<stop offset="0.88" style="stop-color:#FCACA3;stop-opacity:0.48"/>
		<stop offset="0.92" style="stop-color:#FB9186;stop-opacity:0.64"/>
		<stop offset="0.95" style="stop-color:#F97466;stop-opacity:0.8"/>
		<stop offset="0.98" style="stop-color:#F85442;stop-opacity:0.99"/>
		<stop offset="0.98" style="stop-color:#F85240"/>
	</radialGradient>
	<path class="st20" d="M614,350.9c-0.1,0.5-0.6,0.8-1.1,0.6c-0.2-0.1-0.5-0.2-0.6-0.5c-2.2-4.3-8.8-14.4-25.5-23.6   c-16.4-9-32.1-11.7-51.9-9.2c-0.9-1.7-4.4-7.1-6.2-8.9c1.7-2.4,24.3-24.7,60.7-9.4C607.4,307.7,619,331.8,614,350.9z"/>
</g>
<linearGradient id="SVGID_20_" gradientUnits="userSpaceOnUse" x1="533.0069" y1="375.8553" x2="612.4629" y2="306.7849" gradientTransform="matrix(1 0 0 -1 0 652)">
	<stop offset="0.2" style="stop-color:#FCC924"/>
	<stop offset="0.29" style="stop-color:#FCBB33"/>
	<stop offset="0.45" style="stop-color:#FD985A"/>
	<stop offset="0.68" style="stop-color:#FE5E99"/>
	<stop offset="0.95" style="stop-color:#FF0FEF"/>
	<stop offset="1" style="stop-color:#FF00FF"/>
</linearGradient>
<path class="st21" d="M611.1,311.1c-6.4-15.9-20.3-27.3-36-32.4c-8.8-2.9-18.1-3.8-27-2.4c-13.2,2.1-25.6,9.2-33.7,22.4  c2.1,0.6,8.9,4.7,14.5,10.7c2.5,2.7,4.7,5.7,6.2,8.9c0,0,25.4-13.5,40.9-13.1c11,0.3,22.4,2.8,33,7.4  C611.2,313.7,611.7,312.5,611.1,311.1z"/>
<radialGradient id="SVGID_21_" cx="504.1875" cy="384.4826" r="116.4889" gradientTransform="matrix(1 0 0 -1 0 652)" gradientUnits="userSpaceOnUse">
	<stop offset="9.000000e-002" style="stop-color:#FCC924"/>
	<stop offset="0.15" style="stop-color:#FCC924;stop-opacity:0.87"/>
	<stop offset="0.27" style="stop-color:#FCC924;stop-opacity:0.64"/>
	<stop offset="0.39" style="stop-color:#FCC924;stop-opacity:0.45"/>
	<stop offset="0.51" style="stop-color:#FCC924;stop-opacity:0.29"/>
	<stop offset="0.62" style="stop-color:#FCC924;stop-opacity:0.16"/>
	<stop offset="0.73" style="stop-color:#FCC924;stop-opacity:7.000000e-002"/>
	<stop offset="0.84" style="stop-color:#FCC924;stop-opacity:2.000000e-002"/>
	<stop offset="0.93" style="stop-color:#FCC924;stop-opacity:0"/>
</radialGradient>
<path class="st22" d="M603.4,310.5c1.9,0.7,3.7,1.4,5.5,2.2c2.4,1.1,2.8-0.1,2.2-1.5c-15.3-38-73.3-50.4-96.8-12.4  c2.1,0.6,8.9,4.7,14.5,10.7c2.5,2.7,4.7,5.7,6.2,8.9c0.2,0,0.4,0,0.6-0.1c19.5-2.4,35.1,0.3,51.3,9.2c16.7,9.2,23.3,19.3,25.5,23.6  c0.2,0.4,0.8,0.6,1.2,0.4c0.2-0.1,0.4-0.3,0.5-0.6C617.5,337.4,612.8,321.4,603.4,310.5L603.4,310.5z"/>
<radialGradient id="SVGID_22_" cx="517.3817" cy="378.8566" r="75.1127" gradientTransform="matrix(1 0 0 -1 0 652)" gradientUnits="userSpaceOnUse">
	<stop offset="0.32" style="stop-color:#FCC924"/>
	<stop offset="0.79" style="stop-color:#FCC924;stop-opacity:0"/>
</radialGradient>
<path class="st23" d="M603.4,310.5c1.9,0.7,3.7,1.4,5.5,2.2c2.4,1.1,2.8-0.1,2.2-1.5c-15.3-38-73.3-50.4-96.8-12.4  c2.1,0.6,8.9,4.7,14.5,10.7c2.5,2.7,4.7,5.7,6.2,8.9c0.2,0,0.4,0,0.6-0.1c19.5-2.4,35.1,0.3,51.3,9.2c16.7,9.2,23.3,19.2,25.5,23.6  c0.2,0.4,0.8,0.6,1.2,0.4c0.2-0.1,0.4-0.3,0.5-0.6C617.5,337.4,612.8,321.4,603.4,310.5L603.4,310.5z"/>
<radialGradient id="SVGID_23_" cx="529.2769" cy="351.5518" r="21.8467" fx="520.7545" fy="351.5518" gradientTransform="matrix(1 0 0 -1 0 652)" gradientUnits="userSpaceOnUse">
	<stop offset="0" style="stop-color:#FCEE21"/>
	<stop offset="0.69" style="stop-color:#FFFFFF"/>
</radialGradient>
<path class="st24" d="M550.8,295.9c-6.2,1.8-12.1,4.8-17.2,8.8c-2.2-4.9-0.1-10.6,4.8-12.8C542.9,289.9,548.3,291.6,550.8,295.9  L550.8,295.9z"/>
<linearGradient id="SVGID_24_" gradientUnits="userSpaceOnUse" x1="500.4104" y1="359.1727" x2="530.7988" y2="313.5909" gradientTransform="matrix(1 0 0 -1 0 652)">
	<stop offset="0.13" style="stop-color:#FCEE21"/>
	<stop offset="0.6" style="stop-color:#FE7A59"/>
	<stop offset="0.7" style="stop-color:#FF5F66"/>
</linearGradient>
<path class="st25" d="M528.8,309.4c-7,8.9-15.5,11.9-16.7,12.3l-0.1,0l-0.1,0l0,0c-1.9,0.6-3.6,1.5-5.2,2.8  c-0.7,0.6-1.9,0.6-2.5-0.2c-0.2-0.2-0.3-0.5-0.4-0.7c-1.3-5.1-1.1-16.1,6.7-22.5c1.1-0.9,3.7-2.4,3.8-2.5  C516.4,299.3,523.2,303.4,528.8,309.4z"/>
<linearGradient id="SVGID_25_" gradientUnits="userSpaceOnUse" x1="523.0727" y1="351.843" x2="523.8838" y2="311.8051" gradientTransform="matrix(1 0 0 -1 0 652)">
	<stop offset="0.22" style="stop-color:#FCAD00"/>
	<stop offset="0.25" style="stop-color:#FCA909"/>
	<stop offset="0.53" style="stop-color:#FE787B"/>
	<stop offset="0.65" style="stop-color:#FF64A8"/>
</linearGradient>
<path class="st26" d="M534.9,318.3c-8.6,2.9-16.5,1.4-22.9,3.4c1.3-0.4,9.7-3.4,16.7-12.3C531.2,312.1,533.5,315.1,534.9,318.3z"/>
<path class="st27" d="M15.2,334.1c0-34.1,26.9-58.4,65.1-58.4c11.3,0,23.7,2.1,30.6,5.3v21.3h-0.8l-26.6-19  c-1.4-0.5-4.2-0.8-6.9-0.8c-20.1,0-34.3,18.7-34.3,44.5c0,28.8,17.7,51.3,40.1,51.3c1.5,0,3-0.2,4.5-0.5l-0.4-0.2v-47.9l-6.8-8.3  v-0.8h39.7v0.8l-6.8,8.3v55.7h-0.8l-17.2-5.3c-6.6,3.3-16.9,5.7-26.1,5.7C36.9,385.9,15.2,364.9,15.2,334.1z M137.8,319.5l-8-8v-0.6  l28.5-7.5h1.5l1.1,16.2h0.9c6.5-11.5,12.2-16.2,19.5-16.2c3,0,5.6,0.9,6.9,2.1v24.4h-0.8l-15.3-10.3c-0.5-0.1-0.9-0.1-1.4-0.1  c-3.1,0-7.7,3-9.2,6.6v49.5l8,7.2v0.8H131v-0.8l6.8-7.2V319.5z M194.7,383.6V383l6.8-7.4v-56.1l-8-7.8v-0.8l30.3-7.5h1.5v72.3  l6.8,7.4v0.6L194.7,383.6L194.7,383.6z M200.4,279.4c0-7.4,5-11.9,13-11.9c8,0,13,4.5,13,11.9c0,7.2-5,11.8-13,11.8  C205.4,291.2,200.4,286.6,200.4,279.4z M243.2,383.6v-0.8l6.8-7.2v-61.4h-10.7v-0.6l10.9-9.4c3.3-21.9,16.8-36.8,33.2-36.8  c4.1,0,8.9,0.9,10.9,2l-2.4,19.8H291l-21.6-9.5c-4.7,0.5-8.8,8.1-8.8,15.1c0,8.9,6.8,13.9,18.4,13.9h20.1  c1.2-23.2,14.2-41.2,30.3-41.2c3.8,0,8.3,0.9,10.4,2l-2.6,19.6h-0.8l-19.2-9.1c-4.4,0.4-7.8,6.9-7.8,14.1c0,9.6,6.3,14.7,18.6,14.7  h46.2l-1.2,8.6v58.6l6.8,7.1v0.6h-37.5V383l6.9-7.4v-61.4h-26.4v61.4l9.1,7.2v0.8h-39.8v-0.8l6.9-7.4v-61.3h-25.2v61.4l9.1,7.2v0.8  L243.2,383.6L243.2,383.6z M348.3,279.4c0-7.4,5-11.9,13-11.9c8.1,0,13.1,4.5,13.1,11.9c0,7.2-5,11.8-13.1,11.8  C353.3,291.2,348.3,286.6,348.3,279.4z M421.7,375.7l6.8,7.2v0.8h-37.5v-0.8l6.8-7.2v-56.1l-8-8v-0.8l28.5-7.4h1.5l1.1,14.2h1  c8.3-9.5,17.2-14.2,27.2-14.2c13.4,0,22.8,8.8,22.8,21.1v51.2l6.8,7.2v0.8h-37.6v-0.8l6.9-7.7v-45.9c0-7.4-4.5-11.9-11.8-11.9  c-4.8,0-9.6,1.9-14.7,5.9L421.7,375.7L421.7,375.7z"/>
</svg>