<?xml version="1.0" encoding="UTF-8" standalone="no"?>
<!-- Created with Inkscape (http://www.inkscape.org/) -->

<svg
   xmlns:dc="http://purl.org/dc/elements/1.1/"
   xmlns:cc="http://creativecommons.org/ns#"
   xmlns:rdf="http://www.w3.org/1999/02/22-rdf-syntax-ns#"
   xmlns:svg="http://www.w3.org/2000/svg"
   xmlns="http://www.w3.org/2000/svg"
   xmlns:sodipodi="http://sodipodi.sourceforge.net/DTD/sodipodi-0.dtd"
   xmlns:inkscape="http://www.inkscape.org/namespaces/inkscape"
   width="133.28381"
   height="41.237301"
   viewBox="0 0 35.264675 10.910702"
   version="1.1"
   id="svg92170"
   inkscape:version="0.92.0 r15299"
   sodipodi:docname="gvc holdings.svg">
  <defs
     id="defs92164" />
  <sodipodi:namedview
     id="base"
     pagecolor="#ffffff"
     bordercolor="#666666"
     borderopacity="1.0"
     inkscape:pageopacity="0.0"
     inkscape:pageshadow="2"
     inkscape:zoom="6.7808802"
     inkscape:cx="66.141873"
     inkscape:cy="5.7442059"
     inkscape:document-units="mm"
     inkscape:current-layer="layer1"
     showgrid="false"
     fit-margin-top="0"
     fit-margin-left="0"
     fit-margin-right="0"
     fit-margin-bottom="0"
     units="px"
     inkscape:window-width="1280"
     inkscape:window-height="744"
     inkscape:window-x="-4"
     inkscape:window-y="-4"
     inkscape:window-maximized="1" />
  <metadata
     id="metadata92167">
    <rdf:RDF>
      <cc:Work
         rdf:about="">
        <dc:format>image/svg+xml</dc:format>
        <dc:type
           rdf:resource="http://purl.org/dc/dcmitype/StillImage" />
        <dc:title></dc:title>
      </cc:Work>
    </rdf:RDF>
  </metadata>
  <g
     inkscape:label="Layer 1"
     inkscape:groupmode="layer"
     id="layer1"
     transform="translate(-108.74401,-147.75793)">
    <g
       id="g92258"
       transform="translate(0.13229282,-0.13228828)">
      <path
         d="m 132.76349,154.54671 v -2.52906 h -0.52952 v 0.94085 h -1.04387 v -0.94085 h -0.25717 c -0.0737,0 -0.13618,0.0257 -0.18768,0.0772 -0.0515,0.0512 -0.0773,0.1136 -0.0773,0.18733 v 2.26448 h 0.52211 v -1.12501 h 1.04387 v 1.12501 z"
         style="fill:#fc5d00;fill-opacity:1;fill-rule:nonzero;stroke:none;stroke-width:0.35277778"
         id="path45978"
         inkscape:connector-curvature="0" />
      <path
         d="m 134.17146,152.60572 c -0.16192,-0.0589 -0.34325,-0.0748 -0.54398,-0.0476 -0.20109,0.0268 -0.36548,0.11394 -0.49283,0.2607 -0.0783,0.0882 -0.13582,0.19861 -0.17251,0.3309 -0.037,0.13229 -0.0554,0.26459 -0.0554,0.39723 0,0.16157 0.0222,0.31715 0.0663,0.46673 0.0441,0.14957 0.11748,0.26846 0.22049,0.35665 0.0981,0.0882 0.22895,0.15064 0.39335,0.18733 0.16404,0.0367 0.32738,0.0332 0.48895,-0.0109 0.18132,-0.0392 0.3309,-0.1397 0.44838,-0.30127 0.054,-0.0783 0.0981,-0.17392 0.13264,-0.28681 0.0339,-0.11289 0.0512,-0.24765 0.0512,-0.40463 0,-0.21555 -0.0416,-0.40429 -0.12488,-0.56586 -0.0882,-0.18133 -0.22542,-0.30903 -0.41169,-0.38241 m -0.0589,1.38218 c -0.0586,0.0882 -0.1263,0.14323 -0.20215,0.16546 -0.0762,0.0222 -0.15063,0.0198 -0.22436,-0.007 -0.0734,-0.0268 -0.12489,-0.06 -0.15417,-0.0991 -0.0737,-0.0882 -0.11535,-0.24377 -0.12488,-0.46708 -0.0102,-0.22296 0.0367,-0.39053 0.1397,-0.50341 0.0339,-0.0342 0.0882,-0.0625 0.16157,-0.0847 0.0734,-0.0219 0.14711,-0.0208 0.22049,0.004 0.0737,0.0243 0.13864,0.0808 0.19509,0.16898 0.0561,0.0882 0.0843,0.22049 0.0843,0.39687 -0.005,0.19615 -0.0367,0.33832 -0.0956,0.42651"
         style="fill:#fc5d00;fill-opacity:1;fill-rule:nonzero;stroke:none;stroke-width:0.35277778"
         id="path45982"
         inkscape:connector-curvature="0" />
      <path
         d="m 134.85338,152.01754 v 2.52906 h 0.5147 v -2.28635 c 0,-0.0688 -0.0247,-0.12629 -0.0737,-0.17286 -0.049,-0.0466 -0.1076,-0.0699 -0.17639,-0.0699 z"
         style="fill:#fc5d00;fill-opacity:1;fill-rule:nonzero;stroke:none;stroke-width:0.35277778"
         id="path45986"
         inkscape:connector-curvature="0" />
      <path
         d="m 137.08477,152.0102 h -0.25012 v 0.8382 c -0.0586,-0.0931 -0.13723,-0.16933 -0.23495,-0.22789 -0.0935,-0.049 -0.20144,-0.0737 -0.32385,-0.0737 -0.23036,0 -0.41875,0.0956 -0.56585,0.28681 -0.14253,0.18627 -0.21344,0.43392 -0.21344,0.7426 0,0.31362 0.0709,0.56127 0.21344,0.7426 0.0734,0.0931 0.17145,0.16051 0.29386,0.20214 0.12241,0.0416 0.24765,0.0624 0.375,0.0624 0.2353,0 0.45332,-0.061 0.6544,-0.1838 0.20109,-0.12241 0.30163,-0.35771 0.30163,-0.70555 v -1.43369 c 0,-0.0639 -0.0247,-0.12136 -0.0737,-0.17286 -0.049,-0.0515 -0.10795,-0.0773 -0.17639,-0.0773 m -0.35278,1.99249 c -0.0737,0.10301 -0.17674,0.15452 -0.30903,0.15452 -0.13723,0 -0.24236,-0.0515 -0.31609,-0.15452 -0.0734,-0.10301 -0.11042,-0.25224 -0.11042,-0.44838 0,-0.17674 0.037,-0.31362 0.11042,-0.41205 0.0737,-0.10265 0.17392,-0.15416 0.30163,-0.15416 0.13229,0 0.23741,0.049 0.31608,0.14711 0.0734,0.10266 0.11007,0.24236 0.11007,0.4191 0,0.19614 -0.0342,0.34537 -0.10266,0.44838"
         style="fill:#fc5d00;fill-opacity:1;fill-rule:nonzero;stroke:none;stroke-width:0.35277778"
         id="path45990"
         inkscape:connector-curvature="0" />
      <path
         d="m 137.77403,152.59101 h -0.26458 v 1.9558 h 0.5147 v -1.70568 c 0,-0.0688 -0.0247,-0.12735 -0.0737,-0.17674 -0.049,-0.0487 -0.10795,-0.0734 -0.17639,-0.0734"
         style="fill:#fc5d00;fill-opacity:1;fill-rule:nonzero;stroke:none;stroke-width:0.35277778"
         id="path45994"
         inkscape:connector-curvature="0" />
      <path
         d="m 137.77403,152.01754 h -0.26458 v 0.40428 h 0.5147 v -0.15416 c 0,-0.0688 -0.0247,-0.12735 -0.0737,-0.17674 -0.049,-0.0487 -0.10795,-0.0734 -0.17639,-0.0734"
         style="fill:#fc5d00;fill-opacity:1;fill-rule:nonzero;stroke:none;stroke-width:0.35277778"
         id="path45998"
         inkscape:connector-curvature="0" />
      <path
         d="m 139.64886,152.716 c -0.18133,-0.11254 -0.37994,-0.16898 -0.59549,-0.16898 -0.21096,0.01 -0.40322,0.0709 -0.57714,0.1838 -0.17428,0.11289 -0.26106,0.33584 -0.26106,0.66886 v 1.14688 h 0.5147 v -1.24989 c 0,-0.11747 0.0342,-0.2032 0.10302,-0.25717 0.0684,-0.054 0.14675,-0.0808 0.2353,-0.0808 0.0882,0 0.16757,0.0268 0.23883,0.0808 0.0709,0.054 0.10654,0.1397 0.10654,0.25717 v 1.00013 c 0,0.0734 0.0233,0.1337 0.0699,0.17991 0.0466,0.0469 0.10654,0.0699 0.18027,0.0699 h 0.25717 v -1.14688 c 0,-0.3429 -0.0907,-0.57079 -0.27199,-0.68368"
         style="fill:#fc5d00;fill-opacity:1;fill-rule:nonzero;stroke:none;stroke-width:0.35277778"
         id="path46002"
         inkscape:connector-curvature="0" />
      <path
         d="m 141.57884,152.73805 c -0.20108,-0.12735 -0.4191,-0.19121 -0.6544,-0.19121 -0.30868,0 -0.53305,0.0945 -0.67275,0.28293 -0.1397,0.18909 -0.20955,0.43533 -0.20955,0.73907 0,0.26 0.0526,0.46955 0.15804,0.62865 0.10549,0.15946 0.23178,0.26847 0.37889,0.32703 0.14675,0.0589 0.29492,0.0713 0.44485,0.037 0.14923,-0.0342 0.26811,-0.1203 0.35631,-0.25753 v 0.12488 c -0.01,0.15699 -0.0476,0.27446 -0.11395,0.35313 -0.066,0.0783 -0.1397,0.12595 -0.22049,0.14323 -0.0808,0.0173 -0.16157,0.007 -0.24271,-0.0293 -0.0808,-0.0367 -0.14076,-0.0896 -0.17991,-0.15804 h -0.53693 c 0.10795,0.42121 0.38735,0.63217 0.8382,0.63217 0.2353,0 0.45332,-0.0624 0.6544,-0.18732 0.20073,-0.12524 0.30127,-0.35913 0.30127,-0.70238 v -1.03646 c 0,-0.3429 -0.10054,-0.5782 -0.30127,-0.70591 m -0.21308,1.01812 c -0.0197,0.11535 -0.0515,0.20002 -0.0956,0.254 -0.0931,0.12735 -0.23813,0.1725 -0.43392,0.13582 -0.19614,-0.0367 -0.29421,-0.22437 -0.29421,-0.56233 0,-0.15699 0.0296,-0.29669 0.0885,-0.4191 0.0586,-0.12242 0.17145,-0.1838 0.33796,-0.1838 0.12242,0 0.21555,0.0441 0.2794,0.13229 0.0635,0.0882 0.10407,0.18874 0.12136,0.30127 0.0173,0.11289 0.0159,0.22684 -0.004,0.34185"
         style="fill:#fc5d00;fill-opacity:1;fill-rule:nonzero;stroke:none;stroke-width:0.35277778"
         id="path46006"
         inkscape:connector-curvature="0" />
      <path
         d="m 143.60438,153.56884 c -0.0981,-0.0833 -0.27199,-0.15663 -0.52211,-0.22049 -0.0194,0 -0.0402,-0.002 -0.0624,-0.007 -0.0219,-0.005 -0.0476,-0.012 -0.0773,-0.0222 -0.25471,-0.0536 -0.38206,-0.11994 -0.38206,-0.19826 0,-0.0589 0.0219,-0.10301 0.066,-0.13229 0.049,-0.0296 0.12241,-0.0441 0.22049,-0.0441 0.10301,0 0.18379,0.0219 0.24271,0.066 0.0194,0.0198 0.0392,0.0395 0.0589,0.0589 0.0487,0.0833 0.11995,0.12489 0.21308,0.12489 h 0.31609 c -0.01,-0.19579 -0.0857,-0.35525 -0.2279,-0.47802 -0.15204,-0.11253 -0.35524,-0.16898 -0.60995,-0.16898 -0.2353,0 -0.42651,0.0564 -0.57362,0.16898 -0.14217,0.12277 -0.21307,0.27729 -0.21307,0.4632 0,0.14711 0.0487,0.26494 0.14675,0.35313 0.0882,0.0882 0.26212,0.1644 0.52211,0.2279 0.0441,0.0148 0.11042,0.0293 0.19862,0.0441 0.20567,0.0441 0.30868,0.11007 0.30868,0.19862 0,0.0586 -0.0293,0.10548 -0.0882,0.1397 -0.0639,0.0342 -0.1397,0.0512 -0.22789,0.0512 -0.12277,0 -0.22049,-0.0243 -0.29422,-0.0734 -0.0688,-0.049 -0.10548,-0.12241 -0.11006,-0.22048 h -0.50024 v 0.0219 c 0,0.2159 0.0713,0.37994 0.21343,0.49283 0.13723,0.11289 0.34537,0.16898 0.62477,0.16898 0.29421,0 0.5147,-0.054 0.66181,-0.16157 0.15698,-0.11783 0.2353,-0.28434 0.2353,-0.50024 0,-0.14676 -0.0466,-0.26459 -0.1397,-0.35278"
         style="fill:#fc5d00;fill-opacity:1;fill-rule:nonzero;stroke:none;stroke-width:0.35277778"
         id="path46010"
         inkscape:connector-curvature="0" />
      <path
         d="m 124.97782,149.08123 -1.97026,6.79344 -2.14701,-7.55791 h -2.32339 l 3.4999,10.11661 h 1.99955 l 3.44099,-10.11661 h -1.50001 c -0.54892,0 -0.8823,0.25471 -0.99977,0.76447"
         style="fill:#000000;fill-opacity:1;fill-rule:nonzero;stroke:none;stroke-width:0.35277778"
         id="path46014"
         inkscape:connector-curvature="0" />
      <path
         d="m 134.12401,156.34524 c -0.41169,0.31362 -0.93133,0.47061 -1.55857,0.47061 -0.90205,0 -1.57833,-0.30375 -2.02918,-0.91158 -0.47061,-0.58844 -0.70591,-1.43122 -0.70591,-2.52942 0,-1.13665 0.2353,-1.9999 0.70591,-2.58798 0.48966,-0.58808 1.18604,-0.88229 2.08774,-0.88229 0.64699,0 1.16628,0.1471 1.55892,0.44132 0.1958,0.19615 0.36266,0.42192 0.49989,0.67628 0.19579,0.41169 0.52917,0.61771 0.99977,0.61771 h 1.26471 c -0.0984,-1.137 -0.51012,-2.0193 -1.23507,-2.64689 -0.76483,-0.647 -1.79423,-0.97049 -3.08822,-0.97049 -1.58785,0 -2.80388,0.46072 -3.64666,1.38218 -0.82339,0.8823 -1.23508,2.20557 -1.23508,3.97016 0,1.72544 0.40146,3.0293 1.20579,3.9116 0.80363,0.92181 1.97027,1.38218 3.49956,1.38218 1.31339,0 2.37208,-0.32349 3.17641,-0.97049 0.78387,-0.66639 1.22485,-1.5882 1.32327,-2.76436 h -2.02918 c -0.15734,0.64699 -0.42192,1.11724 -0.7941,1.41146"
         style="fill:#000000;fill-opacity:1;fill-rule:nonzero;stroke:none;stroke-width:0.35277778"
         id="path46018"
         inkscape:connector-curvature="0" />
      <path
         d="m 116.13612,154.90464 c -0.13652,0.57503 -0.39476,1.03576 -0.77505,1.38183 -0.43145,0.37253 -0.98072,0.5588 -1.64677,0.5588 -0.90205,0 -1.59844,-0.30374 -2.08809,-0.91158 -0.51012,-0.62759 -0.76482,-1.48978 -0.76482,-2.58833 0,-1.07773 0.24518,-1.94098 0.73519,-2.58798 0.49,-0.60748 1.15675,-0.91157 1.99989,-0.91157 0.647,0 1.16629,0.13758 1.55893,0.41169 0.25435,0.19614 0.4505,0.41169 0.58808,0.64699 0.19579,0.37289 0.49988,0.5588 0.91158,0.5588 h 1.41181 c -0.15734,-1.03893 -0.63747,-1.88207 -1.44109,-2.52906 -0.82339,-0.60748 -1.86302,-0.91158 -3.1175,-0.91158 -1.45098,0 -2.61726,0.49001 -3.49956,1.47038 -0.84314,0.94086 -1.26471,2.22532 -1.26471,3.85233 0,1.64712 0.4311,2.94111 1.29399,3.88232 0.84279,0.96062 1.98967,1.44075 3.441,1.44075 0.60748,0 1.16628,-0.1076 1.6764,-0.3235 0.48965,-0.2353 0.91158,-0.60748 1.26435,-1.11725 l 0.0882,0.38206 c 0.13688,0.54927 0.48013,0.82338 1.0294,0.82338 h 0.5588 v -3.42053 c 0,0 -1.22202,-0.20002 -1.96003,-0.10795"
         style="fill:#000000;fill-opacity:1;fill-rule:nonzero;stroke:none;stroke-width:0.35277778"
         id="path46022"
         inkscape:connector-curvature="0" />
      <path
         d="m 117.32526,155.1725 c -0.25118,0 -0.51647,-0.0423 -0.78881,-0.12629 -0.24448,-0.0755 -0.74542,-0.27164 -1.53141,-0.60043 -0.68792,-0.2861 -0.95179,-0.3168 -1.03293,-0.3168 -0.16898,0 -0.45121,0 -0.56903,0.64559 l -0.0706,0.38664 h -1.17828 l 0.0183,-0.48895 c 0.0275,-0.72284 0.23177,-1.27458 0.60713,-1.63971 0.37641,-0.36689 0.81033,-0.5528 1.28905,-0.5528 0.28928,0 0.84808,0.0755 2.35973,0.72884 0.69144,0.2995 0.96132,0.33196 1.04493,0.33196 0.1591,0 0.27446,-0.0437 0.37465,-0.14217 0.10689,-0.10442 0.16862,-0.26141 0.18873,-0.47942 l 0.0395,-0.42792 h 1.21038 l -0.0138,0.48436 c -0.0183,0.65193 -0.20638,1.18181 -0.5588,1.57551 -0.36972,0.41239 -0.83679,0.62159 -1.38889,0.62159"
         style="fill:#fc5d00;fill-opacity:1;fill-rule:nonzero;stroke:none;stroke-width:0.35277778"
         id="path46026"
         inkscape:connector-curvature="0" />
    </g>
  </g>
</svg>
