<?xml version="1.0" encoding="UTF-8" standalone="no"?>
<!DOCTYPE svg PUBLIC "-//W3C//DTD SVG 1.1//EN" "http://www.w3.org/Graphics/SVG/1.1/DTD/svg11.dtd">
<svg width="100%" height="100%" viewBox="0 0 188 40" version="1.1" xmlns="http://www.w3.org/2000/svg" xmlns:xlink="http://www.w3.org/1999/xlink" xml:space="preserve" xmlns:serif="http://www.serif.com/" style="fill-rule:evenodd;clip-rule:evenodd;stroke-linejoin:round;stroke-miterlimit:2;">
    <g id="Artboard1" transform="matrix(31.3915,0,0,6.87798,0,0)">
        <rect x="0" y="0" width="5.967" height="5.687" style="fill:none;"/>
        <clipPath id="_clip1">
            <rect x="0" y="0" width="5.967" height="5.687"/>
        </clipPath>
        <g clip-path="url(#_clip1)">
            <g transform="matrix(0.0084285,0,0,0.0384682,-0.00716422,-0.0542709)">
                <g id="Layer-1" serif:id="Layer 1">
                    <g id="g15469">
                        <g id="g15467">
                            <path id="path15451" d="M0.85,2.268L33.165,2.268L33.165,55.276L33.449,55.276C38.268,44.787 51.591,38.268 63.496,38.268C96.378,38.268 98.929,63.213 98.929,78.236L98.929,144.283L66.614,144.283L66.614,94.394C66.614,80.22 68.031,66.047 50.457,66.047C38.268,66.047 32.882,76.819 32.882,88.157L32.882,144.283L0.85,144.283L0.85,2.268Z" style="fill:rgb(255,158,24);fill-rule:nonzero;"/>
                            <path id="path15453" d="M115.654,72.85C116.22,59.244 122.173,50.457 130.961,45.071C139.748,39.969 151.087,37.984 162.142,37.984C185.386,37.984 208.063,43.37 208.063,72.567L208.063,117.638C208.063,126.425 208.063,136.063 211.748,144L179.717,144C178.583,140.882 178.299,137.764 177.732,134.362C169.512,143.433 157.039,147.118 145.417,147.118C126.709,147.118 111.969,137.197 111.969,115.937C111.969,82.205 146.835,85.039 169.228,80.22C174.614,79.087 177.732,77.102 177.732,70.583C177.732,62.929 168.945,59.811 162.142,59.811C153.354,59.811 147.685,64.063 145.984,72.85L115.654,72.85ZM157.323,126.142C172.63,126.142 177.732,117.071 176.882,95.811C172.346,98.929 164.126,99.496 157.039,101.48C149.953,103.181 143.717,106.583 143.717,114.52C144,123.024 150.236,126.142 157.323,126.142" style="fill:rgb(255,158,24);fill-rule:nonzero;"/>
                            <rect id="rect15455" x="223.937" y="2.835" width="32.315" height="141.165" style="fill:rgb(255,158,24);"/>
                            <path id="path15457" d="M392.031,38.268C418.961,38.268 436.819,53.858 433.701,83.339C430.016,119.622 405.071,146.268 369.354,146.268C342.142,146.268 323.717,131.811 326.835,102.047C330.52,65.764 356.315,38.268 392.031,38.268M372.472,121.606C390.898,121.606 399.402,100.346 401.102,84.756C402.52,72 399.118,62.929 387.213,62.929C369.921,62.929 360.567,86.74 358.866,100.63C357.732,112.252 361.134,121.606 372.472,121.606" style="fill:rgb(255,158,24);fill-rule:nonzero;"/>
                            <path id="path15459" d="M332.504,40.535L312.661,40.535L312.661,36C312.661,26.646 317.197,25.512 324.567,25.512C327.402,25.512 330.236,25.795 333.354,26.079L333.354,1.984C328.252,1.701 322.866,1.417 317.764,1.417C290.551,1.134 280.63,10.488 280.63,40.535L265.039,40.535L265.039,62.646L280.63,62.646L280.63,144L312.945,144L312.945,62.646L324.85,62.646L332.504,40.535Z" style="fill:rgb(255,158,24);fill-rule:nonzero;"/>
                            <path id="path15461" d="M444.756,123.024L444.756,40.819L475.937,40.819L475.937,57.543L476.22,57.543C481.039,45.071 491.811,38.268 505.701,38.268C507.969,38.268 510.236,38.551 512.504,38.835L511.087,43.087L502.583,66.614L501.165,66.614C485.291,66.614 476.787,77.669 476.787,89.858L476.787,144L444.472,144L444.472,123.024L444.756,123.024Z" style="fill:rgb(255,158,24);fill-rule:nonzero;"/>
                            <path id="path15463" d="M610.866,144.283L580.252,144.283L580.252,132.661L579.969,132.661C573.732,142.583 564.378,147.685 552.756,147.685C521.858,147.685 508.819,119.622 508.819,90.425C508.819,63.496 522.425,37.701 550.205,37.701C562.394,37.701 571.748,42.52 578.268,51.874L578.551,51.874L578.551,1.417L610.866,1.417L610.866,144.283ZM541.134,91.276C541.134,105.449 545.953,121.323 560.693,121.323C576.283,121.323 579.685,105.449 579.685,92.409C579.685,77.386 574.583,63.496 560.693,63.496C545.953,63.496 541.134,78.236 541.134,91.276" style="fill:rgb(255,158,24);fill-rule:nonzero;"/>
                            <path id="path15465" d="M663.591,145.984C647.15,145.984 634.11,141.449 621.921,133.228L631.276,106.866C641.48,114.236 654.236,119.622 663.591,119.622C671.528,119.622 675.213,116.787 675.213,112.535C675.213,99.496 626.74,107.433 626.74,72.567C626.74,51.307 644.598,37.417 668.976,37.417C681.449,37.417 696.189,42.236 706.394,47.622L697.039,72.567C686.835,66.898 676.063,63.213 667.559,63.213C660.756,63.213 657.354,66.047 657.354,69.732C657.354,83.055 707.528,74.835 707.528,111.969C707.244,133.512 688.252,145.984 663.591,145.984" style="fill:rgb(255,158,24);fill-rule:nonzero;"/>
                        </g>
                    </g>
                </g>
            </g>
        </g>
    </g>
</svg>
