<svg xmlns="http://www.w3.org/2000/svg" preserveAspectRatio="xMidYMid slice" fill="none" viewBox="0 0 232.33 80">
  <g clip-path="url(#clip0_4134_52855)">
    <path d="M197.195 55.2451L197.702 57.2746L198.115 57.7027C199.256 56.3549 201.349 54.9597 204.441 54.9597C210.355 54.9597 213.59 58.432 213.59 64.7742V79.0759H208.341V65.9158C208.341 61.7141 206.581 59.9066 203.141 59.9066C199.7 59.9066 197.893 62.38 197.893 65.9158V79.0759H192.645V55.2451H197.179" fill="#0D0802"/>
    <path d="M94.3881 76.6817C93.2306 78.0135 91.1694 79.3613 88.1252 79.3613C82.2111 79.3613 78.9766 75.8889 78.9766 69.5467V55.2451H84.2247V68.4051C84.2247 72.6068 85.9847 74.4143 89.4253 74.4143C92.866 74.4143 94.6735 71.9409 94.6735 68.4051V55.2451H99.9217V79.0759L95.276 79.0441L94.7686 77.0146L94.404 76.6817" fill="#0D0802"/>
    <path d="M41.7932 45.8428H47.7073L58.2829 71.5921L68.8585 45.8428H74.7726V79.2186H69.4293V58.0515L60.6612 79.2186H55.8887L47.1206 58.0515V79.2186H41.7773V45.8428H41.7932Z" fill="#0D0802"/>
    <path d="M47.1402 0.54364V14.5599H58.4451V0.54364H63.7884V33.9194H58.4451V19.6178H47.1402V33.9194H41.7969V0.54364H47.1402Z" fill="#0D0802"/>
    <path d="M72.2054 23.8036C72.7762 26.8003 75.4875 29.242 78.9282 29.242C82.3688 29.242 83.3201 28.481 84.319 26.9588H90.5661C88.9488 31.3033 84.319 34.2048 78.9282 34.2048C73.5373 34.2048 66.6719 28.7664 66.6719 21.9961C66.6719 15.2258 72.0152 9.78735 78.7855 9.78735C85.5558 9.78735 90.899 15.2258 90.899 21.9961C90.899 28.7664 90.8515 23.2328 90.7564 23.8036H72.2054ZM72.4433 19.1262H85.1277C84.3666 16.6528 81.798 14.6391 78.7855 14.6391C75.7729 14.6391 73.2043 16.6369 72.4433 19.1262Z" fill="#0D0802"/>
    <path d="M94.0859 0.0045166H99.3341V33.9194H94.0859V0.0045166Z" fill="#0D0802"/>
    <path d="M108.025 10.0886L108.516 12.134L108.833 12.4194L109.008 12.2133C110.53 10.8814 112.734 9.80322 115.635 9.80322C122.738 9.80322 127.463 14.5757 127.463 22.0119C127.463 29.4482 122.738 34.2207 115.635 34.2207C108.532 34.2207 110.102 33.0791 108.627 31.4618V45.8745H103.379V10.0886H108.025ZM115.382 29.1628C119.536 29.1628 122.295 26.1185 122.295 22.0119C122.295 17.9054 119.536 14.8611 115.382 14.8611C111.227 14.8611 108.516 17.9054 108.516 22.0119C108.516 26.1185 111.227 29.1628 115.382 29.1628Z" fill="#0D0802"/>
    <path d="M107.295 71.2115C107.295 73.2093 108.865 74.3985 110.435 74.3985C112.004 74.3985 113.479 73.352 113.479 71.4494C113.479 69.5467 111.148 68.5954 108.802 67.9294C106.423 67.2635 103.839 65.4084 103.839 61.5397C103.839 57.6709 106.788 54.9597 110.419 54.9597C114.05 54.9597 114.763 56.0537 116.095 58.0039L112.861 61.1909C112.48 60.2395 111.719 59.6212 110.768 59.6212C109.816 59.6212 108.865 60.5725 108.865 61.5238C108.865 63.6167 111.529 63.5692 114.113 64.5205C116.539 65.4243 118.743 67.2794 118.743 71.3384C118.743 75.3974 115.271 79.3454 110.451 79.3454C105.63 79.3454 102.301 75.7145 102.301 71.1957H107.311L107.295 71.2115Z" fill="#0D0802"/>
    <path d="M123.832 45.4305C125.783 45.4305 127.352 47.0002 127.352 48.998C127.352 50.9958 125.783 52.5655 123.832 52.5655C121.882 52.5655 120.312 50.9958 120.312 48.998C120.312 47.0002 121.882 45.4305 123.832 45.4305ZM123.832 45.4305C125.783 45.4305 127.352 47.0002 127.352 48.998C127.352 50.9958 125.783 52.5655 123.832 52.5655C121.882 52.5655 120.312 50.9958 120.312 48.998C120.312 47.0002 121.882 45.4305 123.832 45.4305ZM121.216 55.245H126.464V79.0758H121.216V55.245Z" fill="#0D0802"/>
    <path d="M141.224 74.4143C145.283 74.4143 148.137 71.4652 148.137 67.1684H153.385C153.385 74.1289 148.137 79.3771 141.224 79.3771C134.311 79.3771 129.016 74.1765 129.016 67.1684C129.016 60.1603 134.216 54.9597 141.224 54.9597C148.232 54.9597 147.757 56.3391 149.945 58.5747L146.092 62.0629C144.903 60.7786 143.333 59.9224 141.224 59.9224C137.118 59.9224 134.359 62.8715 134.359 67.1684C134.359 71.4652 137.118 74.4143 141.224 74.4143Z" fill="#0D0802"/>
    <path d="M159 45.4305C160.951 45.4305 162.52 47.0002 162.52 48.998C162.52 50.9958 160.951 52.5655 159 52.5655C157.05 52.5655 155.48 50.9958 155.48 48.998C155.48 47.0002 157.05 45.4305 159 45.4305ZM156.384 55.245H161.632V79.0758H156.384V55.245Z" fill="#0D0802"/>
    <path d="M220.881 71.2115C220.881 73.2093 222.451 74.3985 224.021 74.3985C225.59 74.3985 227.065 73.352 227.065 71.4494C227.065 69.5467 224.734 68.5954 222.387 67.9294C220.009 67.2635 217.425 65.4084 217.425 61.5397C217.425 57.6709 220.374 54.9597 224.005 54.9597C227.636 54.9597 228.349 56.0537 229.681 58.0039L226.446 61.1909C226.066 60.2395 225.305 59.6212 224.354 59.6212C223.402 59.6212 222.451 60.5725 222.451 61.5238C222.451 63.6167 225.115 63.5692 227.699 64.5205C230.125 65.4243 232.329 67.2794 232.329 71.3384C232.329 75.3974 228.857 79.3454 224.036 79.3454C219.216 79.3454 215.887 75.7145 215.887 71.1957H220.897L220.881 71.2115Z" fill="#0D0802"/>
    <path d="M10.4805 0.54364H0V79.2344H10.4805V0.54364Z" fill="#0D0802"/>
    <path d="M21.0726 54.0559C23.831 54.0559 26.0671 51.7914 26.0671 48.998C26.0671 46.2046 23.831 43.9401 21.0726 43.9401C18.3142 43.9401 16.0781 46.2046 16.0781 48.998C16.0781 51.7914 18.3142 54.0559 21.0726 54.0559Z" fill="#0D0802"/>
    <path d="M21.0726 36.0441C23.831 36.0441 26.0671 33.7796 26.0671 30.9862C26.0671 28.1928 23.831 25.9283 21.0726 25.9283C18.3142 25.9283 16.0781 28.1928 16.0781 30.9862C16.0781 33.7796 18.3142 36.0441 21.0726 36.0441Z" fill="#0D0802"/>
    <path d="M188.507 55.8792V79.71H184.052L183.544 77.6171L183.164 77.2207C182.165 78.505 179.533 79.9796 176.346 79.9796C169.528 79.9796 164.375 74.9217 164.375 67.7709C164.375 60.62 169.528 55.5621 176.346 55.5621C183.164 55.5621 182.165 57.0367 183.164 58.321L183.544 57.7978L184.052 55.8475H188.507V55.8792ZM176.536 60.6517C172.572 60.6517 169.528 63.8863 169.528 67.8026C169.528 71.7189 172.572 74.9534 176.536 74.9534C180.5 74.9534 183.354 71.7189 183.354 67.8026C183.354 63.8863 180.405 60.6517 176.536 60.6517Z" fill="#0D0802"/>
  </g>
  <defs>
    <clipPath id="clip0_4134_52855">
      <rect width="232.315" height="80" fill="white"/>
    </clipPath>
  </defs>
</svg>