<?xml version="1.0" encoding="utf-8"?>
<!-- Generator: Adobe Illustrator 16.0.0, SVG Export Plug-In . SVG Version: 6.00 Build 0)  -->
<!DOCTYPE svg PUBLIC "-//W3C//DTD SVG 1.1//EN" "http://www.w3.org/Graphics/SVG/1.1/DTD/svg11.dtd">
<svg version="1.1" id="圖層_1" xmlns="http://www.w3.org/2000/svg" xmlns:xlink="http://www.w3.org/1999/xlink" x="0px" y="0px"
	 width="348.644px" height="100px" viewBox="0 0 348.644 100" enable-background="new 0 0 348.644 100" xml:space="preserve">
<polygon fill="#3E3A39" points="268.732,1.171 268.732,20.038 293.995,20.038 293.995,1.171 306.488,1.171 306.488,48.346 
	293.995,48.346 293.995,27.579 268.732,27.579 268.732,48.346 256.235,48.346 256.235,1.171 "/>
<polygon fill="#3E3A39" points="150.151,1.171 150.151,9.193 131.039,9.193 131.039,48.346 118.528,48.346 118.528,9.193 
	99.416,9.193 99.416,1.171 "/>
<path fill="#3E3A39" d="M168.987,9.192l-8.693,21.451h17.402L168.987,9.192z M198.708,48.343h-13.918l-4.08-10.136h-23.425
	l-4.071,10.136h-13.918l22.043-47.174h15.318L198.708,48.343z"/>
<rect x="316.386" y="1.171" fill="#3E3A39" width="12.497" height="47.175"/>
<polygon fill="#3E3A39" points="34.805,1.171 34.805,20.038 60.043,20.038 60.043,1.171 72.543,1.171 72.543,48.346 60.043,48.346 
	60.043,27.579 34.805,27.579 34.805,48.346 22.32,48.346 22.32,1.171 "/>
<rect x="82.458" y="1.171" fill="#3E3A39" width="12.485" height="47.175"/>
<path fill="#3E3A39" d="M198.276,35.292c-1.114-3.178-1.69-6.537-1.69-10.072c0-4.958,0.866-9.749,3.246-13.748
	c2.446-4.095,6.207-7.273,10.726-8.95C214.876,0.89,219.533,0,224.411,0c5.618,0,10.907,1.217,15.785,3.315
	c4.504,1.941,7.903,6,8.906,10.909c0.219,0.96,0.341,1.981,0.434,2.994H236.42c-0.039-1.275-0.242-2.507-0.669-3.627
	c-1.001-2.609-3.166-4.649-5.857-5.454c-1.738-0.543-3.596-0.834-5.483-0.834c-2.166,0-4.257,0.376-6.195,1.067
	c-3.195,1.123-5.681,3.726-6.807,6.931c-1.099,3.091-1.729,6.441-1.729,9.919c0,2.893,0.472,5.666,1.204,8.289
	c0.952,3.435,3.527,6.196,6.828,7.459c2.081,0.789,4.352,1.238,6.699,1.238c2.021,0,3.957-0.306,5.776-0.896
	c2.443-0.786,4.441-2.584,5.46-4.897c0.692-1.55,1.045-3.245,1.045-5.061h13.154c-0.084,1.532-0.29,3.052-0.627,4.471
	c-1.12,4.673-4.406,8.588-8.736,10.404c-4.946,2.068-10.371,3.283-16.072,3.283c-4.412,0-8.688-0.688-12.67-1.952
	C205.644,45.647,200.364,41.255,198.276,35.292"/>
<path fill="#3E3A39" d="M11.568,61.509l-0.444,0.042L0,62.569v1.651l0.352,0.029c4.483,0.532,4.483,0.532,4.483,3.758v23.327h6.732"
	/>
<line fill="#3E3A39" x1="11.568" y1="91.335" x2="11.568" y2="61.509"/>
<path fill="#3E3A39" d="M34.733,70.364c-4.156,0-6.619,2.799-7.774,4.514v-4.582l-9.476,1.487v1.565l0.362,0.023
	c2.877,0.081,3.487,0.672,3.487,3.354v14.603h5.627V80.606c0-2.867,2.713-6.563,5.557-6.563c2.693,0,2.827,2.231,2.827,5.899v11.386
	h5.627V76.727C40.97,72.632,38.752,70.364,34.733,70.364"/>
<path fill="#3E3A39" d="M56.755,78.524c-2.218-1.103-4.135-2.04-4.135-3.572c0-1.741,2.104-1.918,2.982-1.918
	c2.327,0,4.38,1.264,5.289,1.808l0.874,0.525v-4.193l-0.702-0.176c-1.015-0.219-2.924-0.634-5.121-0.634
	c-5.291,0-8.466,2.273-8.466,6.084c0,3.43,3.292,5.036,6.198,6.452c2.248,1.123,4.391,2.156,4.391,3.799
	c0,1.56-1.37,2.449-3.751,2.449c-2.631,0-4.855-1.353-6.186-2.15l-0.59-0.383v4.337l0.404,0.108
	c1.144,0.269,3.266,0.746,6.165,0.746c5.702,0,9.114-2.326,9.114-6.248C63.22,81.688,59.776,79.997,56.755,78.524"/>
<path fill="#3E3A39" d="M79.909,73.453c3.835,0,4.291,4.182,4.291,7.309c0,5.353-1.381,7.957-4.247,7.957
	c-3.662,0-4.423-3.42-4.423-6.284v-1.766C75.529,78.516,75.942,73.453,79.909,73.453 M81.508,70.364
	c-2.086,0-4.135,0.989-5.927,2.912v-2.98l-0.477,0.068l-8.989,1.419v1.565l0.392,0.023c2.825,0.081,3.382,0.646,3.382,3.354v23.271
	h5.639V89.388c1.038,1.27,2.67,2.416,5.784,2.416c5.887,0,9.011-3.826,9.011-11.042C90.324,74.154,87.097,70.364,81.508,70.364"/>
<path fill="#3E3A39" d="M97.962,76.729v14.6h5.623v-21.03l-0.446,0.063l-8.898,1.422v1.568l0.392,0.026
	C97.394,73.45,97.962,74.023,97.962,76.729"/>
<path fill="#3E3A39" d="M100.829,67.822c1.949,0,3.548-1.403,3.548-3.088c0-1.651-1.578-3.017-3.505-3.017
	c-1.905,0-3.441,1.365-3.441,3.017C97.431,66.419,98.954,67.822,100.829,67.822"/>
<path fill="#3E3A39" d="M127.181,75.009V70.63l-0.341-0.035c-0.908-0.161-1.835-0.228-2.682-0.228c-3.175,0-4.844,2.321-5.72,4.17
	v-4.241l-0.476,0.071l-8.977,1.416v1.568l0.379,0.021c2.857,0.081,3.444,0.651,3.444,3.352v14.608h5.63V80.81
	c0-1.769,0.557-5.917,5.876-5.917c0.608,0,1.299,0.206,1.938,0.382l0.928,0.257V75.009z"/>
<path fill="#3E3A39" d="M139.924,72.613c3.021,0,3.783,2.169,3.875,4.155h-8.096C135.862,75.319,136.746,72.613,139.924,72.613
	 M149.439,78.862c0-5.648-3.135-8.495-9.334-8.495c-6.998,0-10.535,3.366-10.535,10.024c0,7.15,4.57,11.412,12.237,11.412
	c3.332,0,5.9-0.845,6.886-1.149l0.324-0.108V87.84l-0.551,0.197c-0.914,0.332-2.575,0.676-4.416,0.676
	c-5.983,0-8.23-4.988-8.36-9.457h13.749V78.862z"/>
<path fill="#3E3A39" d="M200.782,70.364c-4.157,0-6.526,2.584-7.724,4.507V60.818l-0.451,0.051l-8.964,1.097v1.592l0.406,0.018
	c2.766,0.107,3.381,0.729,3.381,3.447v24.307h5.628V80.852c0-3.829,2.858-6.808,5.311-6.808c3.124,0,3.124,2.369,3.124,4.436v12.85
	h5.63V77.834C207.123,75.604,207.123,70.364,200.782,70.364"/>
<path fill="#3E3A39" d="M222.917,72.613c2.999,0,3.772,2.169,3.856,4.155h-8.088C218.825,75.319,219.75,72.613,222.917,72.613
	 M232.421,78.862c0-5.648-3.121-8.495-9.343-8.495c-6.978,0-10.55,3.366-10.55,10.024c0,7.15,4.582,11.412,12.252,11.412
	c3.342,0,5.92-0.845,6.873-1.149l0.355-0.108V87.84l-0.535,0.197c-0.95,0.332-2.587,0.676-4.43,0.676
	c-5.994,0-8.252-4.988-8.378-9.457h13.755V78.862z"/>
<path fill="#3E3A39" d="M169.203,64.453v6.393h-3.774v2.503h3.774v12.61c0,5.43,3.515,5.848,7.753,5.848
	c1.07,0,2.124-0.141,3.311-0.322l0.331-0.06v-2.527l-0.483,0.09c-0.487,0.116-1.064,0.161-1.715,0.161
	c-3.381,0-3.555-0.991-3.555-3.883V73.349h6.338v-2.503h-6.338v-6.393H169.203z"/>
<path fill="#3E3A39" d="M280.022,61.992h-5.63v22.285c-1.198-1.771-14.707-22.285-14.707-22.285h-12.996v1.685l1.12,0.2
	c3.408,0.576,3.697,0.618,3.697,3.958v23.5h6.052V68.008c1.165,1.774,15.415,23.327,15.415,23.327h7.449V61.992H280.022z"/>
<path fill="#3E3A39" d="M296.084,72.613c3.032,0,3.794,2.169,3.877,4.161h-8.094C292.02,75.325,292.931,72.613,296.084,72.613
	 M305.63,78.862c0-5.64-3.15-8.495-9.349-8.495c-7.001,0-10.555,3.375-10.555,10.048c0,7.127,4.575,11.389,12.245,11.389
	c3.34,0,5.896-0.804,6.885-1.132l0.323-0.107V87.84l-0.532,0.216c-0.935,0.313-2.583,0.687-4.405,0.687
	c-6.004,0-8.262-5.018-8.375-9.462h13.763V78.862z"/>
<path fill="#3E3A39" d="M336.672,64.453v6.393h-3.781v2.503h3.781v12.61c0,5.43,3.519,5.848,7.754,5.848
	c1.052,0,2.094-0.141,3.289-0.322l0.34-0.06v-2.527l-0.492,0.09c-0.496,0.116-1.063,0.161-1.69,0.161
	c-3.402,0-3.588-0.991-3.588-3.883V73.349h6.359v-2.503h-6.359v-6.393H336.672z"/>
<path fill="#3E3A39" d="M325.323,77.523l5.782-6.702h-5.946l-5.508,6.362l-4.823-6.345h-8.629v1.619l0.382,0.036
	c2.918,0.191,3.587,0.723,5.4,3.104l3.527,4.689l-5.773,6.675h5.968l2.58-3.005l5.544,7.407h6.688l-10.579-13.841H325.323z"/>
<polygon fill="#D71629" points="336.592,64.453 330.642,64.453 337.849,56.12 343.796,56.12 "/>
<rect x="0.001" fill="none" width="348.643" height="100"/>
</svg>
