<svg height="111.26" viewBox="0 0 350 111.25986" width="350" xmlns="http://www.w3.org/2000/svg" xmlns:xlink="http://www.w3.org/1999/xlink"><linearGradient id="a" gradientTransform="matrix(85.278 0 0 85.278 253.78 596.49)" gradientUnits="userSpaceOnUse"><stop offset="0" stop-color="#1c3a62"/><stop offset=".58496" stop-color="#1c3a62"/><stop offset="1" stop-color="#44aae4"/></linearGradient><linearGradient id="b" gradientTransform="matrix(0 -40.717 40.717 0 311.82 646.75)" gradientUnits="userSpaceOnUse"><stop offset="0" stop-color="#44aae4"/><stop offset=".3" stop-color="#44aae4"/><stop offset=".88281" stop-color="#1c3a62"/><stop offset=".9" stop-color="#1c3a62"/><stop offset="1" stop-color="#1c3a62"/></linearGradient><linearGradient id="c" gradientTransform="matrix(65.293 0 0 65.293 253.78 622.36)" gradientUnits="userSpaceOnUse"><stop offset="0" stop-color="#1c3a62"/><stop offset=".67807" stop-color="#1c3a62"/><stop offset="1" stop-color="#44aae4"/></linearGradient><linearGradient id="d" gradientTransform="matrix(65.293 0 0 65.293 253.78 655.01)" gradientUnits="userSpaceOnUse"><stop offset="0" stop-color="#44aae4"/><stop offset=".2449" stop-color="#1c3a62"/><stop offset=".9767" stop-color="#1c3a62"/><stop offset="1" stop-color="#1c3a62"/></linearGradient><linearGradient id="e" gradientTransform="matrix(65.293 0 0 65.293 253.78 629.99)" gradientUnits="userSpaceOnUse"><stop offset="0" stop-color="#44aae4"/><stop offset=".18646" stop-color="#1c3a62"/><stop offset=".92808" stop-color="#1c3a62"/><stop offset="1" stop-color="#1c3a62"/></linearGradient><linearGradient id="f" gradientTransform="matrix(69.021 0 0 69.021 322.75 600.47)" gradientUnits="userSpaceOnUse"><stop offset="0" stop-color="#44aae4"/><stop offset=".41856" stop-color="#44aae4"/><stop offset=".59154" stop-color="#44aae4"/><stop offset="1" stop-color="#1f436d"/></linearGradient><linearGradient id="g" gradientTransform="matrix(65.293 0 0 65.293 326.48 630.52)" gradientUnits="userSpaceOnUse"><stop offset="0" stop-color="#44aae4"/><stop offset=".74594" stop-color="#44aae4"/><stop offset="1" stop-color="#1c3a62"/></linearGradient><linearGradient id="h" gradientTransform="matrix(0 -32.647 32.647 0 333.79 679.49)" gradientUnits="userSpaceOnUse"><stop offset="0" stop-color="#44aae4"/><stop offset=".15" stop-color="#44aae4"/><stop offset=".37358" stop-color="#44aae4"/><stop offset="1" stop-color="#1c3a62"/></linearGradient><g stroke-width=".19633" transform="translate(-253.78 -571.7)"><g fill="#44aae4"><path d="m448.23 583.11-.12565-.0214-8.3382 23.041h-4.1897l-8.2911-22.956-.12958.0214.59881 13.657v4.893l3.3298.64103v3.7427h-12.887v-3.7427l3.3141-.64103v-22.336l-3.3141-.64103v-3.7641h11.458l7.9299 22.937h.12958l7.9947-22.937h11.497v3.7641l-3.3318.64103v22.336l3.3318.64103v3.7427h-12.88v-3.7427l3.3141-.64103v-4.893l.59685-13.743"/><path d="m459.18 594.35c-.0569-3.4458.964-6.2705 2.8959-8.4729 1.8926-2.2578 4.602-3.3039 8.0064-3.3039 3.3946-.00078 6.0942 1.0981 8.0261 3.2947 1.9123 2.1428 2.8959 5.0218 2.8959 8.4822v.45098c-.002 3.4572-.96596 6.3095-2.8959 8.4975-1.9496 2.1489-4.5922 3.2794-7.9829 3.2794-3.4751-.0185-6.1177-1.0928-8.0496-3.2794-1.9712-2.2256-2.8959-5.0202-2.8959-8.4975zm6.2434.45098c-.0432 2.089.3691 3.8008 1.1093 5.077.7225 1.264 1.9398 1.9113 3.5929 1.9113 1.5687-.0583 2.786-.64123 3.534-1.9235.70876-1.2885 1.123-2.9703 1.123-5.0648v-.45098c-.0216-2.0493-.37696-3.7219-1.1328-5.0188-.79122-1.3266-1.9437-1.9478-3.5674-1.9478-1.6492-.0338-2.8076.64947-3.5497 1.9478-.75981 1.2685-1.1093 2.9695-1.1093 5.0188z"/><path d="m483.19 602.39 2.9901-.64103v-14.342l-3.3141-.64122v-3.761h9.1295l.27683 3.3131c.74607-1.1872 1.7179-2.1013 2.8449-2.7579 1.0661-.65791 2.3835-.98461 3.7814-.98461 2.3265-.00078 4.1583.73468 5.4698 2.2025 1.3135 1.4534 1.9692 3.7702 1.9692 6.9054v10.065l2.9921.64103v3.7427h-11.927v-3.7427l2.6721-.64103v-10.044c-.01-1.5875-.3161-2.6552-.9424-3.3041-.6479-.69325-1.5746-.97243-2.8449-.97243-.88153-.0475-1.5667.16806-2.2205.5032-.68913.3159-1.2016.80987-1.6433 1.4234v12.393l2.517.64103v3.7427h-11.75v-3.7427"/><path d="m521.89 606.58c-3.3534-.0185-6.0019-1.0682-7.9986-3.2057-2.0281-2.1995-2.9901-4.8516-2.9901-8.1447v-.85601c-.0196-3.4388.9424-6.2589 2.8311-8.4822 1.8416-2.2839 4.4234-3.33 7.602-3.3161 3.0903-.00078 5.5405.94102 7.2643 2.8223 1.6944 1.8559 2.5857 4.4259 2.5857 7.6324v3.3958h-13.808l-.0393.12899c.10798 1.5116.62041 2.7808 1.5235 3.7641.85208.95634 2.1361 1.4725 3.6891 1.4725 1.341-.0583 2.5288-.13822 3.4417-.41426.90116-.32906 1.9084-.71623 2.9901-1.316l1.6904 3.8469c-.95614.71327-2.1911 1.392-3.7087 1.905-1.5255.48632-3.2081.76688-5.0732.76688zm-.55562-19.194c-1.1839-.0338-2.0693.44312-2.7408 1.3282-.70091.86504-1.0818 2.0446-1.2389 3.482l.0648.10719h7.6511v-.55523c-.0314-1.3728-.31021-2.3835-.93062-3.1751-.66753-.82814-1.555-1.187-2.8056-1.187"/><path d="m557.53 586.77-2.1597.32218-8.5071 22.508c-.70287 1.6243-1.5667 3.0622-2.6839 4.1874-1.1701 1.063-2.8017 1.6902-5.0536 1.6902-.53206-.0383-1.0229-.043-1.4882-.12879-.49279-.14431-1.0052-.20478-1.6315-.36204l.72447-4.5524c.14332-.03.4064.0567.62041.0858.21203.007.39855.043.55758.043.98166-.0361 1.8357-.25386 2.3933-.76079.5517-.54914.98167-1.1366 1.282-1.8928l.70484-1.7517-7.3311-19.044-2.1597-.34358v-3.761h11.332v3.761l-2.5896.42957 3.1649 9.2306.3161 1.6688.12958.0216 3.6577-10.921-2.6093-.42957v-3.761h11.33v3.761"/><path d="m568.35 597.75c-.0609-1.701.46334-3.1297 1.3881-4.3468.86386-1.2302 2.3364-2.4911 4.231-3.8163-1.0013-1.359-1.6904-2.507-2.1695-3.5892-.5085-1.1136-.71465-2.1887-.71465-3.3162-.055-2.5009.76962-4.4336 2.3069-5.9082 1.502-1.507 3.6007-2.215 6.1786-2.215 2.2598-.0122 4.1053.70268 5.5228 2.1076 1.4057 1.3429 2.1282 3.103 2.1282 5.0986-.002 1.339-.34948 2.6719-1.0484 3.8253-.74214 1.1289-1.6531 2.1658-2.8625 3.0371l-1.9888 1.411 5.8998 6.8777c.51046-.85896.91294-1.78 1.1976-2.7761.27682-1.0561.428-2.0501.428-3.1629h4.6609c-.004 1.9129-.24345 3.7757-.72839 5.43-.50654 1.6219-1.2251 3.1197-2.2225 4.4022l4.4469 5.215-.0432.10739h-6.9266l-1.6472-1.9021c-1.2624.76315-2.4561 1.3714-3.7401 1.764-1.3292.37107-2.6564.58586-4.123.58586-3.1551-.0185-5.5778-.81596-7.4174-2.4481-1.9005-1.6849-2.7565-3.7586-2.7565-6.3808zm10.494 4.0403c.73036-.0583 1.5098-.096 2.2637-.28842.69698-.2193 1.4823-.48003 2.1813-.86504l-6.4122-7.4361-.40445.27604c-.74606.64731-1.2232 1.349-1.4882 1.9971-.30824.60117-.39463 1.3007-.39463 1.957-.0452 1.2234.3907 2.3124 1.1741 3.1323.74214.7761 1.8122 1.2271 3.0805 1.2271zm-2.1813-19.173c-.0177.59823.15314 1.2448.45942 1.8928.26898.59136.76766 1.3643 1.3822 2.1473l1.8338-1.1962c.73428-.55994 1.3351-1.04 1.6138-1.5799.26505-.58605.41623-1.1336.41623-1.7762-.0196-.75234-.26113-1.3453-.78141-1.9021-.54187-.61727-1.1996-.83441-2.0379-.83441-.98951-.0444-1.6394.31001-2.1381.92963-.50261.59195-.74803 1.3928-.74803 2.3191"/><path d="m433.01 613.29c3.5261-.0308 6.373.91648 8.4325 2.7487 2.0262 1.8 3.0883 4.2288 3.0883 7.1936-.0137 2.9711-1.0288 5.3717-3.0883 7.1814-2.0929 1.7633-4.871 2.7119-8.4325 2.7119h-5.2578v6.9054l3.3298.64103v3.7427h-12.887v-3.7427l3.3141-.64103v-22.336l-3.3141-.64103v-3.7641h3.3141zm-5.2578 15.032h5.2578c1.7022-.002 3.051-.47316 3.9424-1.4203.85012-1.0009 1.337-2.1573 1.337-3.6261-.0294-1.5184-.44764-2.7333-1.337-3.7089-.93258-1.0062-2.2048-1.4662-3.9424-1.4662h-5.2578v10.221"/><path d="m456.71 644.87c-3.3534-.0185-6.0019-1.0682-7.9986-3.2057-2.0281-2.1995-2.9901-4.8516-2.9901-8.1447v-.85601c-.0196-3.4388.94239-6.2589 2.8311-8.4822 1.8416-2.2839 4.4234-3.33 7.602-3.3161 3.0903-.00078 5.5405.94102 7.2643 2.8223 1.6944 1.8559 2.5857 4.4259 2.5857 7.6324v3.3958h-13.808l-.0393.12899c.10798 1.5116.62041 2.7808 1.5235 3.7641.85208.95634 2.1361 1.4725 3.6891 1.4725 1.341-.0583 2.5288-.13822 3.4417-.41427.90117-.32905 1.9084-.71622 2.9902-1.316l1.6904 3.8469c-.95614.71327-2.1911 1.392-3.7087 1.905-1.5255.48632-3.2081.76688-5.0732.76688zm-.55562-19.194c-1.1839-.0338-2.0694.44312-2.7408 1.3282-.7009.86504-1.0818 2.0446-1.2388 3.482l.0648.1072h7.6511v-.55523c-.0314-1.3728-.3102-2.3835-.93061-3.1751-.66753-.82813-1.555-1.187-2.8056-1.187"/><path d="m468.46 640.68 2.9902-.64103v-14.342l-3.3141-.64122v-3.761h9.1295l.27683 3.3131c.74607-1.1872 1.7179-2.1013 2.8449-2.7579 1.0661-.65791 2.3835-.98461 3.7814-.98461 2.3265-.00078 4.1583.73468 5.4698 2.2025 1.3135 1.4534 1.9692 3.7702 1.9692 6.9054v10.065l2.9921.64103v3.7427h-11.927v-3.7427l2.6721-.64103v-10.044c-.01-1.5875-.3161-2.6552-.9424-3.3041-.6479-.69325-1.5746-.97243-2.8449-.97243-.88153-.0475-1.5667.16806-2.2205.5032-.68912.3159-1.2016.80987-1.6433 1.4234v12.393l2.517.64103v3.7427h-11.75v-3.7427"/><path d="m515.16 629.24h-4.1858l-.6636-2.8867c-.44764-.34123-.96792-.62591-1.6158-.85287-.65182-.27153-1.3645-.34358-2.144-.34358-1.1073-.0591-1.9692.24699-2.6112.73939-.69502.44705-.96007 1.1067-.96007 1.8467-.0609.69482.30628 1.2815.9208 1.7456.57133.39876 1.8377.87113 3.6734 1.2271 2.8409.5568 4.9868 1.4081 6.369 2.5125 1.3311 1.1012 2.0733 2.6228 2.0733 4.5616-.0216 2.0638-.89331 3.7794-2.6839 5.0986-1.8318 1.3029-4.1406 1.9755-7.0621 1.9755-1.8278-.0185-3.4162-.25995-4.9044-.77925-1.5373-.53991-2.8115-1.2638-3.9659-2.2333l-.0628-5.1965h4.3606l.85601 3.0155c.31806.25916.87368.54522 1.5137.69639.6106.12507 1.3135.22402 2.0124.22402 1.2192-.0338 2.2303-.22794 2.8939-.68422.63219-.45785.99344-1.0767.99344-1.862-.0353-.71857-.33572-1.2738-1.0052-1.7731-.69698-.53225-1.9005-.94023-3.695-1.3252-2.7604-.60588-4.7787-1.3782-6.1688-2.4665-1.3998-1.1028-2.0831-2.5753-2.0831-4.4573-.0353-1.971.79907-3.6092 2.3933-5.0126 1.5471-1.468 3.8717-2.1076 6.8226-2.1076 1.7611-.0153 3.4928.24247 5.0948.72702 1.5746.42349 2.8606 1.1059 3.7735 1.8622l.0609 5.7488"/><path d="m518.28 640.68 3.0137-.64103v-14.342l-3.3337-.64122v-3.761h9.5771v18.744l2.9882.64103v3.7427h-12.245zm9.2571-24.922h-6.2434v-4.6814h6.2434z"/><path d="m532.22 632.64c-.0569-3.4458.96399-6.2705 2.8959-8.4729 1.8926-2.2578 4.602-3.3039 8.0064-3.3039 3.3946-.00078 6.0942 1.0981 8.0261 3.2947 1.9123 2.1428 2.8959 5.0218 2.8959 8.4822v.45098c-.002 3.4572-.96596 6.3095-2.8959 8.4975-1.9496 2.1489-4.5922 3.2794-7.9829 3.2794-3.4751-.0185-6.1177-1.0928-8.0496-3.2794-1.9712-2.2256-2.8959-5.0202-2.8959-8.4975zm6.2434.45098c-.0432 2.089.36911 3.8008 1.1093 5.077.7225 1.264 1.9398 1.9113 3.5929 1.9113 1.5687-.0583 2.786-.64123 3.534-1.9235.70876-1.2885 1.123-2.9703 1.123-5.0648v-.45098c-.0216-2.0493-.37696-3.7219-1.1328-5.0188-.79122-1.3266-1.9437-1.9478-3.5674-1.9478-1.6492-.0338-2.8076.64947-3.5497 1.9478-.75981 1.2685-1.1093 2.9695-1.1093 5.0188z"/><path d="m556.03 640.68 2.9902-.64103v-14.342l-3.3141-.64122v-3.761h9.1295l.27683 3.3131c.74607-1.1872 1.7179-2.1013 2.8449-2.7579 1.0661-.65791 2.3835-.98461 3.7814-.98461 2.3265-.00078 4.1583.73468 5.4698 2.2025 1.3135 1.4534 1.9692 3.7702 1.9692 6.9054v10.065l2.9921.64103v3.7427h-11.927v-3.7427l2.6721-.64103v-10.044c-.01-1.5875-.3161-2.6552-.9424-3.3041-.6479-.69325-1.5746-.97243-2.8449-.97243-.88153-.0475-1.5667.16806-2.2205.5032-.68913.3159-1.2016.80987-1.6433 1.4234v12.393l2.517.64103v3.7427h-11.75v-3.7427"/><path d="m602.92 629.24h-4.1858l-.6636-2.8867c-.44764-.34123-.96792-.62591-1.6158-.85287-.65182-.27153-1.3645-.34358-2.144-.34358-1.1073-.0591-1.9692.24699-2.6112.73939-.69502.44705-.96007 1.1067-.96007 1.8467-.0609.69482.30628 1.2815.9208 1.7456.57133.39876 1.8377.87113 3.6734 1.2271 2.8409.5568 4.9868 1.4081 6.369 2.5125 1.3311 1.1012 2.0733 2.6228 2.0733 4.5616-.0216 2.0638-.89331 3.7794-2.6839 5.0986-1.8318 1.3029-4.1407 1.9755-7.0621 1.9755-1.8278-.0185-3.4162-.25995-4.9044-.77925-1.5373-.53991-2.8115-1.2638-3.9659-2.2333l-.0628-5.1965h4.3605l.85601 3.0155c.31806.25916.87368.54522 1.5137.69639.6106.12507 1.3135.22402 2.0124.22402 1.2192-.0338 2.2303-.22794 2.8939-.68422.63219-.45785.99345-1.0767.99345-1.862-.0353-.71857-.33573-1.2738-1.0052-1.7731-.69698-.53225-1.9005-.94023-3.695-1.3252-2.7604-.60588-4.7787-1.3782-6.1688-2.4665-1.3998-1.1028-2.0831-2.5753-2.0831-4.4573-.0353-1.971.79907-3.6092 2.3933-5.0126 1.5471-1.468 3.8717-2.1076 6.8226-2.1076 1.7611-.0153 3.4928.24247 5.0948.72702 1.5746.42349 2.8606 1.1059 3.7735 1.8622l.0609 5.7488"/><path d="m441.84 661.32h-4.6825l-.81282-4.2763c-.57721-.36282-1.3331-.63965-2.3737-.89567-1.07-.30765-2.1459-.38658-3.3141-.38658-1.7434-.0522-3.0294.36047-3.962 1.0798-.9581.70091-1.3998 1.6496-1.3998 2.7885-.0177 1.0231.4869 1.9219 1.4627 2.5983.93258.62885 2.6623 1.3928 5.0536 2.1475 3.4064.91098 6.0392 2.2172 7.8121 3.7855 1.7611 1.5047 2.6642 3.6253 2.6642 6.1752-.053 2.6383-1.0563 4.7672-3.1668 6.3072-2.1518 1.5031-4.8867 2.3069-8.3343 2.3069-2.4797-.0184-4.6904-.39188-6.6792-1.1748-2.0006-.80222-3.6439-1.8659-4.9692-3.2487v-6.5004h4.8317l.66361 4.4265c.5674.50163 1.4745.93808 2.5523 1.2732 1.019.28979 2.2775.50006 3.6007.50006 1.6944-.0139 3.0098-.34829 3.8992-1.0461.88546-.75784 1.337-1.6329 1.337-2.8009-.0589-1.2394-.42408-2.1604-1.2722-2.8867-.87368-.78611-2.3324-1.4089-4.4548-2.0493-3.7362-1.1012-6.4829-2.3375-8.3775-3.804-1.8985-1.4754-2.8449-3.4786-2.8449-6.0309-.0353-2.547 1.068-4.584 3.2061-6.1876 2.0811-1.6604 4.8258-2.4265 8.0594-2.4695 2.3305-.0193 4.5726.36419 6.5398 1.092 1.9515.67028 3.6204 1.6949 4.9613 2.9051v6.3716"/><path d="m455.53 682.95c-3.3534-.0184-6.0019-1.0682-7.9986-3.2057-2.0281-2.1995-2.9902-4.8516-2.9902-8.1447v-.85601c-.0196-3.4388.9424-6.2589 2.8311-8.4822 1.8416-2.2839 4.4234-3.33 7.602-3.316 3.0903-.00079 5.5405.94102 7.2643 2.8223 1.6944 1.8559 2.5857 4.4259 2.5857 7.6324v3.3958h-13.808l-.0393.12899c.10798 1.5116.62041 2.7809 1.5235 3.7641.85208.95633 2.1361 1.4725 3.6891 1.4725 1.341-.0583 2.5288-.13821 3.4417-.41426.90116-.32905 1.9084-.71622 2.9901-1.316l1.6904 3.8469c-.95614.71328-2.1911 1.392-3.7087 1.905-1.5255.48631-3.2081.76687-5.0732.76687zm-.55562-19.194c-1.1839-.0338-2.0693.44312-2.7408 1.3282-.70091.86505-1.0818 2.0446-1.2389 3.482l.0648.1072h7.6511v-.55523c-.0314-1.3728-.31021-2.3835-.93062-3.1751-.66753-.82813-1.555-1.187-2.8056-1.187"/><path d="m468.1 678.76 2.9941-.64102v-14.342l-3.3121-.64123v-3.7609h9.1255l.27879 3.3775c.50654-1.2247 1.2389-2.132 2.0929-2.8007.84227-.6795 1.8455-1.0062 2.9725-1.0062.30432-.00079.67146.0259 1.0327.0766.32591.023.66753.10975.91099.18102l-.66165 5.6876-2.5641-.0644c-.96595-.063-1.6688.17787-2.2676.53363-.61256.31138-1.0523.86209-1.3645 1.5186v11.24l2.9882.64102v3.7427h-12.226v-3.7427"/><path d="m496.09 663.14-2.1813.40798 3.0569 10.344.40837 2.1781h.12566l.44763-2.1781 3.0157-10.323-2.2244-.42958v-3.7609h10.494v3.7609l-2.0085.32219-6.8206 19.044h-5.9606l-6.8402-19.044-2.0085-.32219v-3.7609h10.496v3.7609"/><path d="m511.41 678.76 3.0137-.64102v-14.342l-3.3337-.64123v-3.7609h9.5771v18.744l2.9882.64102v3.7427h-12.245zm9.2571-24.922h-6.2434v-4.6814h6.2434z"/><path d="m536.01 678.17c1.0995-.0583 2.0006-.32375 2.6701-.97263.62041-.70935 1.0052-1.5131 1.0052-2.5951h5.6446l.0609.12565c-.004 2.3146-.81871 4.294-2.6289 5.8686-1.8455 1.5583-4.0602 2.3621-6.7519 2.3621-3.4594-.0184-6.1059-1.0898-7.9731-3.2701-1.9044-2.2211-2.7997-4.9804-2.7997-8.4024v-.64123c-.0196-3.4395.95811-6.2012 2.8743-8.3962 1.8553-2.2486 4.6511-3.2946 8.1988-3.2946 1.82-.00079 3.5379.2784 5.0202.83441 1.4646.53913 2.7153 1.3406 3.6989 2.3528l.0864 6.1784h-5.0693l-1.0229-3.6139c-.34947-.28979-.7009-.49378-1.1564-.67166-.49868-.23776-.97577-.26995-1.5569-.26995-1.8122-.0338-3.0137.64259-3.7421 1.9264-.76766 1.2608-1.0896 2.9342-1.0896 4.9542v.64123c-.006 2.014.33573 3.7327 1.0033 4.9943.65772 1.2424 1.8475 1.8897 3.5281 1.8897"/><path d="m559 682.95c-3.3534-.0184-6.0019-1.0682-7.9986-3.2057-2.0281-2.1995-2.9902-4.8516-2.9902-8.1447v-.85601c-.0196-3.4388.9424-6.2589 2.8311-8.4822 1.8416-2.2839 4.4234-3.33 7.602-3.316 3.0903-.00079 5.5405.94102 7.2643 2.8223 1.6944 1.8559 2.5857 4.4259 2.5857 7.6324v3.3958h-13.808l-.0393.12899c.10799 1.5116.62041 2.7809 1.5235 3.7641.85209.95633 2.1361 1.4725 3.6891 1.4725 1.341-.0583 2.5288-.13821 3.4417-.41426.90117-.32905 1.9084-.71622 2.9902-1.316l1.6904 3.8469c-.95614.71328-2.1911 1.392-3.7087 1.905-1.5255.48631-3.2081.76687-5.0732.76687zm-.55563-19.194c-1.1839-.0338-2.0693.44312-2.7408 1.3282-.7009.86505-1.0818 2.0446-1.2389 3.482l.0648.1072h7.6511v-.55523c-.0314-1.3728-.3102-2.3835-.93061-3.1751-.66753-.82813-1.555-1.187-2.8056-1.187"/></g><path d="m321.99 571.88-10.91 5.4643-4.6315 2.3183-52.664 26.373v13.526c0 1.2883 1.3527 2.1228 2.5013 1.543l13.806-6.9068 52.664-26.373 4.5058-2.2616 11.802-5.91-15.524-7.7726c-.24345-.12212-.5085-.18259-.77551-.18259-.26505 0-.5301.0605-.77355.18259" fill="url(#a)"/><path d="m304.56 613.29v26.206l14.511 7.2559v-40.72z" fill="url(#b)"/><path d="m316.57 599.13-62.787 31.392v13.523c0 1.2862 1.3527 2.1243 2.5052 1.5491l62.787-31.394v-13.521c0-1.0054-.8246-1.734-1.7316-1.734-.2572 0-.52028.0575-.77355.18475" fill="url(#c)"/><path d="m253.78 645.78c0 .65575.36911 1.2548.9581 1.5493l64.334 32.167v-16.323l-65.292-32.648" fill="url(#d)"/><path d="m253.78 621.29c0 .65575.37107 1.2548.9581 1.5469l7.2054 3.6052 16.321 8.1617 24.485 12.241 13.818 6.9109c1.1525.57349 2.5072-.26309 2.5072-1.5508v-13.522l-16.325-8.1631-8.1615-4.0778-24.5-12.26-16.31-8.15" fill="url(#e)"/><path d="m327.26 585.56-4.5058 2.2616 66.521 33.288c1.1466.57133 2.4993-.26308 2.4993-1.5514v-13.526l-52.713-26.383" fill="url(#f)"/><path d="m327.44 638.21c-.58703.29077-.95614.88978-.95614 1.5469v15.253l16.323-8.1617 48.013-24.008c.58704-.29214.95614-.89115.95614-1.5446v-15.255" fill="url(#g)"/><path d="m326.48 655.01v24.485l14.609-7.3057v-24.485z" fill="url(#h)"/></g></svg>