<svg xmlns="http://www.w3.org/2000/svg" xmlns:xlink="http://www.w3.org/1999/xlink" version="1.1" id="Layer_1" x="0px" y="0px" style="enable-background:new 0 0 3000 1122;" xml:space="preserve" viewBox="144.95 122.59 2710.09 876.82">
<style type="text/css">
	.st0{fill:#999999;}
	.st1{fill:#22B573;}
	.st2{fill:#009245;}
	.st3{fill:#00A99D;}
	.st4{fill:#8CC63F;}
</style>
<g>
	<path class="st0" d="M144.96,137.97c0-9.84,4.92-15.38,14.76-15.38h11.68c9.84,0,15.38,5.54,15.38,15.38v154.36   c0,14.14-2.46,25.21-2.46,25.21h1.23c11.69-28.9,53.51-79.33,123.61-79.33c76.87,0,103.93,43.66,103.93,119.92v181.42   c0,9.84-4.92,15.38-14.76,15.38h-11.69c-9.84,0-15.37-5.54-15.37-15.38V369.21c0-48.58-7.38-91.63-67.65-91.63   c-65.19,0-116.85,53.51-116.85,127.92v134.07c0,9.84-5.53,15.38-15.38,15.38h-11.68c-9.84,0-14.76-5.54-14.76-15.38V137.97z"/>
	<path class="st0" d="M854.41,260.97c0-9.84,5.53-15.37,15.37-15.37h11.07c9.22,0,14.76,5.53,14.76,15.37v35.67   c0,12.3-2.46,22.14-2.46,22.14h1.23c11.68-28.29,52.27-80.56,124.84-80.56c76.87,0,103.93,43.66,103.93,119.92v181.42   c0,9.84-5.54,15.38-15.37,15.38h-11.69c-9.84,0-14.76-5.54-14.76-15.38V369.21c0-48.58-7.99-91.63-67.65-91.63   c-65.8,0-117.46,54.12-117.46,126.07v135.91c0,9.84-4.92,15.38-14.76,15.38h-11.68c-9.84,0-15.37-5.54-15.37-15.38V260.97z"/>
	<path class="st0" d="M1324.97,238.21c82.41,0,129.15,59.65,129.15,147.6c0,8.61-6.76,15.38-15.99,15.38H1215.5   c1.85,78.72,55.96,123.61,119.92,123.61c38.74,0,67.03-17.22,81.18-28.29c8.61-5.54,15.37-4.3,20.29,3.69l4.92,7.38   c4.3,7.38,3.07,14.76-4.3,20.29c-16.61,12.3-53.51,34.44-103.32,34.44c-92.25,0-161.74-66.42-161.74-161.75   C1172.45,299.1,1241.33,238.21,1324.97,238.21z M1411.68,369.82c-2.46-65.19-41.82-97.17-87.94-97.17   c-51.66,0-96.56,34.44-106.39,97.17H1411.68z"/>
	<path class="st0" d="M1488.03,639.19c6.76,3.07,15.99,7.99,27.06,7.99c27.67,0,46.12-23.98,57.81-51.04l18.45-43.67l-121.77-289.04   c-4.3-10.46,0.61-17.83,11.68-17.83h14.15c9.22,0,14.14,3.69,17.22,11.68l86.72,214.02c5.53,15.37,11.07,32.59,11.07,32.59h1.23   c0,0,4.31-17.22,10.46-32.59l84.87-213.4c3.07-8.61,7.99-12.3,17.22-12.3h13.53c11.07,0,15.99,6.76,12.3,17.83l-145.75,354.23   c-15.99,39.98-47.97,66.42-89.17,66.42c-17.84,0-32.6-6.15-42.44-11.07c-7.99-3.69-10.46-12.3-6.76-19.68l3.69-6.76   C1473.89,638.57,1480.65,636.73,1488.03,639.19z"/>
	<path class="st0" d="M1899.65,238.21c75.03,0,101.47,62.12,101.47,62.12h1.23c0,0-1.85-10.46-1.85-23.37V137.97   c0-9.84,5.53-15.38,15.37-15.38h11.68c9.84,0,14.76,5.54,14.76,15.38v401.59c0,9.84-4.92,15.38-14.76,15.38h-10.46   c-9.84,0-15.37-4.92-15.37-14.76V516.8c0-11.07,2.46-19.07,2.46-19.07h-1.23c0,0-26.44,64.58-107.62,64.58   c-83.02,0-134.68-66.42-134.68-162.36C1760.66,302.17,1818.47,238.21,1899.65,238.21z M1901.49,524.8   c51.65,0,100.24-36.9,100.24-124.85c0-62.73-31.98-123.61-98.4-123.61c-54.73,0-99.62,45.51-99.62,123.61   C1803.71,476.22,1843.68,524.8,1901.49,524.8z"/>
	<path class="st0" d="M2243.6,238.21c82.41,0,129.15,59.65,129.15,147.6c0,8.61-6.76,15.38-15.99,15.38h-222.63   c1.85,78.72,55.96,123.61,119.92,123.61c38.74,0,67.03-17.22,81.18-28.29c8.6-5.54,15.37-4.3,20.29,3.69l4.92,7.38   c4.3,7.38,3.07,14.76-4.31,20.29c-16.6,12.3-53.5,34.44-103.32,34.44c-92.25,0-161.75-66.42-161.75-161.75   C2091.08,299.1,2159.96,238.21,2243.6,238.21z M2330.31,369.82c-2.46-65.19-41.82-97.17-87.94-97.17   c-51.66,0-96.56,34.44-106.39,97.17H2330.31z"/>
	<path class="st0" d="M2391.9,262.81c-3.07-10.45,1.84-17.22,12.91-17.22h12.92c8.61,0,14.76,3.69,17.22,12.91l70.72,217.71   c4.92,14.76,9.23,33.21,9.23,33.21h1.23c0,0,4.92-18.45,9.84-33.21l71.95-217.09c2.46-8.61,8.61-12.3,17.22-12.3h14.76   c8.61,0,14.76,3.69,17.22,12.3l71.95,217.09c4.92,14.76,9.84,33.21,9.84,33.21h1.23c0,0,3.69-17.84,9.23-33.21l70.72-217.71   c2.46-9.22,8.61-12.91,17.22-12.91h12.92c11.07,0,15.38,6.76,12.3,17.22l-94.71,279.21c-2.46,9.22-8.61,12.91-17.22,12.91h-19.07   c-9.23,0-14.76-3.69-17.22-12.91l-71.95-207.26c-4.92-15.38-9.22-33.21-9.22-33.21h-1.23c0,0-4.3,17.83-9.84,33.21l-71.34,207.26   c-2.46,9.22-8,12.91-17.22,12.91h-19.07c-9.23,0-14.76-3.69-17.84-12.91L2391.9,262.81z"/>
	<g>
		<g>
			<path class="st1" d="M153.17,814.13v-7.83c0-3.48,1.74-5.43,5.22-5.43h5.44c3.48,0,5.22,1.96,5.22,5.43v7.83     c0,3.48-1.74,5.22-5.22,5.22h-5.44C154.91,819.35,153.17,817.6,153.17,814.13z M153.61,849.79c0-3.48,1.96-5.43,5.44-5.43h4.13     c3.48,0,5.22,1.96,5.22,5.43v98.51c0,3.48-1.74,5.43-5.22,5.43h-4.13c-3.48,0-5.44-1.96-5.44-5.43V849.79z"/>
			<path class="st1" d="M202.1,849.79c0-3.48,1.96-5.43,5.44-5.43h3.91c3.26,0,5.22,1.96,5.22,5.43v12.61     c0,4.35-0.87,7.83-0.87,7.83h0.44c4.13-10,18.48-28.49,44.15-28.49c27.18,0,36.75,15.44,36.75,42.41v64.15     c0,3.48-1.96,5.43-5.44,5.43h-4.13c-3.48,0-5.22-1.96-5.22-5.43v-60.24c0-17.18-2.83-32.4-23.92-32.4     c-23.27,0-41.54,19.14-41.54,44.58v48.06c0,3.48-1.74,5.43-5.22,5.43h-4.13c-3.48,0-5.44-1.96-5.44-5.43V849.79z"/>
			<path class="st1" d="M322.38,936.34l1.74-2.17c1.96-2.61,4.35-2.83,7.39-0.87c4.78,3.7,14.79,10,28.92,10     c12.18,0,22.18-6.09,22.18-17.61c0-24.58-58.5-17.18-58.5-53.28c0-20.23,17.18-30.66,37.19-30.66c15.66,0,25.44,5.65,30.01,8.92     c2.83,1.74,3.26,4.35,1.52,7.17l-1.52,2.39c-1.74,3.04-4.35,3.26-7.39,1.52c-4.13-2.82-11.96-6.96-23.48-6.96     c-11.53,0-21.53,5-21.53,16.96c0,25.23,58.28,17.18,58.28,53.71c0,18.05-15.22,30.88-36.97,30.88     c-19.14,0-31.53-8.05-36.97-12.61C320.64,941.78,320.42,939.17,322.38,936.34z"/>
			<path class="st1" d="M423.08,849.79c0-3.48,1.74-5.43,5.22-5.43h3.48c3.48,0,5.22,1.96,5.22,5v7.83c0,4.35-0.65,7.39-0.65,7.39     h0.43c0,0,9.35-22.84,38.27-22.84c29.36,0,47.62,23.49,47.62,57.41c0,34.58-20.66,57.2-49.15,57.2     c-26.53,0-36.1-22.18-36.1-22.18H437c0,0,0.87,3.91,0.87,9.57v48.06c0,3.48-1.96,5.44-5.43,5.44h-4.13     c-3.48,0-5.22-1.96-5.22-5.44V849.79z M472.01,943.08c19.57,0,35.45-16.09,35.45-43.93c0-26.74-14.35-43.92-34.58-43.92     c-18.27,0-35.45,13.05-35.45,44.14C437.43,921.33,449.61,943.08,472.01,943.08z"/>
			<path class="st1" d="M548.79,814.13v-7.83c0-3.48,1.74-5.43,5.22-5.43h5.44c3.48,0,5.22,1.96,5.22,5.43v7.83     c0,3.48-1.74,5.22-5.22,5.22h-5.44C550.53,819.35,548.79,817.6,548.79,814.13z M549.22,849.79c0-3.48,1.96-5.43,5.44-5.43h4.13     c3.48,0,5.22,1.96,5.22,5.43v98.51c0,3.48-1.74,5.43-5.22,5.43h-4.13c-3.48,0-5.44-1.96-5.44-5.43V849.79z"/>
			<path class="st1" d="M597.72,849.79c0-3.48,1.96-5.43,5.44-5.43h3.91c3.26,0,5.22,1.96,5.22,5.43v14.79     c0,4.78-0.87,8.69-0.87,8.69h0.44c5.22-15.87,17.83-29.57,35.23-29.57c3.92,0,5.66,1.74,5.66,5.22v3.91     c0,3.48-2.39,5.44-6.09,5.44c-23.05,0-34.14,26.31-34.14,49.14v40.89c0,3.48-1.74,5.43-5.22,5.43h-4.13     c-3.48,0-5.44-1.96-5.44-5.43V849.79z"/>
			<path class="st1" d="M670.8,814.13v-7.83c0-3.48,1.74-5.43,5.22-5.43h5.44c3.48,0,5.22,1.96,5.22,5.43v7.83     c0,3.48-1.74,5.22-5.22,5.22h-5.44C672.54,819.35,670.8,817.6,670.8,814.13z M671.23,849.79c0-3.48,1.96-5.43,5.44-5.43h4.13     c3.48,0,5.22,1.96,5.22,5.43v98.51c0,3.48-1.74,5.43-5.22,5.43h-4.13c-3.48,0-5.44-1.96-5.44-5.43V849.79z"/>
			<path class="st1" d="M719.73,849.79c0-3.48,1.96-5.43,5.44-5.43h3.91c3.26,0,5.22,1.96,5.22,5.43v12.61     c0,4.35-0.87,7.83-0.87,7.83h0.44c4.13-10,18.48-28.49,44.15-28.49c27.18,0,36.75,15.44,36.75,42.41v64.15     c0,3.48-1.96,5.43-5.44,5.43h-4.13c-3.48,0-5.22-1.96-5.22-5.43v-60.24c0-17.18-2.83-32.4-23.92-32.4     c-23.27,0-41.53,19.14-41.53,44.58v48.06c0,3.48-1.74,5.43-5.22,5.43h-4.13c-3.48,0-5.44-1.96-5.44-5.43V849.79z"/>
			<path class="st1" d="M860.23,980.49c4.78,2.17,13.26,5.65,25.44,5.65c20.22,0,37.62-10,37.62-34.36v-11.31     c0-4.13,0.65-7.83,0.65-7.83h-0.43c-6.52,12.39-17.61,20.44-34.79,20.44c-29.36,0-48.71-23.05-48.71-56.76     c0-32.18,17.83-54.59,48.28-54.59c28.27,0,35.66,20.01,35.66,20.01h0.44c0,0-0.44-1.52-0.44-3.7v-8.91     c0-2.83,1.74-4.79,5.22-4.79h3.48c3.48,0,5.43,1.96,5.43,5.43v101.34c0,34.8-25.88,48.28-51.97,48.28     c-11.31,0-22.4-2.39-31.53-6.53c-3.26-1.52-4.13-3.7-2.61-6.96l1.31-3.05C854.79,980.05,856.75,979.18,860.23,980.49z      M923.51,897.41c0-32.4-15.66-42.4-33.92-42.4c-22.18,0-34.36,15.66-34.36,40.88c0,27.4,14.13,43.93,35.66,43.93     C908.29,939.82,923.51,929.16,923.51,897.41z"/>
			<path class="st1" d="M1026.18,806.3c0-3.48,1.74-5.43,5.22-5.43h4.13c3.48,0,5.44,1.96,5.44,5.43v54.59c0,5-0.87,8.91-0.87,8.91     h0.44c4.13-10.22,18.92-28.05,43.71-28.05c27.18,0,36.75,15.44,36.75,42.41v64.15c0,3.48-1.74,5.43-5.22,5.43h-4.13     c-3.48,0-5.44-1.96-5.44-5.43v-60.24c0-17.18-2.61-32.4-23.92-32.4c-23.05,0-41.32,18.92-41.32,45.24v47.41     c0,3.48-1.96,5.43-5.44,5.43h-4.13c-3.48,0-5.22-1.96-5.22-5.43V806.3z"/>
			<path class="st1" d="M1199.94,841.74c29.14,0,45.67,21.1,45.67,52.19c0,3.05-2.39,5.43-5.65,5.43h-78.72     c0.65,27.84,19.79,43.71,42.4,43.71c13.7,0,23.71-6.09,28.71-10c3.04-1.96,5.44-1.52,7.17,1.31l1.74,2.61     c1.52,2.61,1.08,5.22-1.52,7.18c-5.87,4.35-18.92,12.18-36.53,12.18c-32.62,0-57.19-23.48-57.19-57.2     C1146.01,863.27,1170.37,841.74,1199.94,841.74z M1230.6,888.28c-0.87-23.05-14.79-34.36-31.09-34.36     c-18.27,0-34.14,12.18-37.62,34.36H1230.6z"/>
			<path class="st1" d="M1328.91,886.76h6.31v-3.48c0-21.09-11.52-28.27-26.97-28.27c-12.18,0-21.53,4.56-26.53,7.61     c-3.04,1.52-5.44,1.08-7.39-1.74l-1.3-2.17c-1.74-2.83-1.31-5.65,1.52-7.39c5.65-3.48,17.83-9.57,34.79-9.57     c26.1,0,40.67,14.57,40.67,41.97v64.59c0,3.48-1.74,5.43-5.22,5.43h-3.48c-3.48,0-5.44-1.74-5.44-5.43v-8.7     c0-5,0.65-8.26,0.65-8.26h-0.44c0.22,0-9.78,25.01-36.97,25.01c-18.48,0-36.97-10.88-36.97-31.97     C1262.15,888.72,1307.82,886.76,1328.91,886.76z M1301.73,943.95c21.09,0,33.49-21.75,33.49-40.89v-5.22h-6.09     c-17.18,0-51.76,0.65-51.76,25.22C1277.37,933.29,1285.42,943.95,1301.73,943.95z"/>
			<path class="st1" d="M1382.21,806.3c0-3.48,1.74-5.43,5.22-5.43h4.13c3.48,0,5.43,1.96,5.43,5.43v118.95     c0,13.7,6.53,15.23,11.31,15.87c2.61,0.22,4.57,1.53,4.57,4.79v3.26c0,3.27-1.52,5.44-5.65,5.44c-8.92,0-25.01-2.83-25.01-26.75     V806.3z"/>
			<path class="st1" d="M1438.54,857.62h-9.13c-3.48,0-5.22-1.74-5.22-5.22v-1.74c0-3.48,1.74-5.44,5.22-5.44h9.35v-25.66     c0-3.48,1.96-5.44,5.43-5.44h3.91c3.48,0,5.22,1.96,5.22,5.44v25.66h22.18c3.48,0,5.44,1.96,5.44,5.44v1.74     c0,3.48-1.96,5.22-5.44,5.22h-22.18v54.8c0,25.22,15.44,28.27,23.92,28.7c4.35,0.44,5.87,1.74,5.87,5.44v2.82     c0,3.48-1.74,5.22-6.09,5.22c-23.92,0-38.49-14.57-38.49-40.23V857.62z"/>
			<path class="st1" d="M1504,806.3c0-3.48,1.74-5.43,5.22-5.43h4.13c3.48,0,5.44,1.96,5.44,5.43v54.59c0,5-0.87,8.91-0.87,8.91     h0.44c4.13-10.22,18.92-28.05,43.71-28.05c27.18,0,36.75,15.44,36.75,42.41v64.15c0,3.48-1.74,5.43-5.22,5.43h-4.13     c-3.48,0-5.43-1.96-5.43-5.43v-60.24c0-17.18-2.61-32.4-23.92-32.4c-23.05,0-41.32,18.92-41.32,45.24v47.41     c0,3.48-1.96,5.43-5.44,5.43h-4.13c-3.48,0-5.22-1.96-5.22-5.43V806.3z"/>
			<path class="st1" d="M1623.62,983.53c2.39,1.08,5.65,2.83,9.57,2.83c9.79,0,16.31-8.48,20.44-18.05l6.52-15.44l-43.06-102.2     c-1.52-3.7,0.22-6.31,4.13-6.31h5c3.26,0,5,1.3,6.08,4.13l30.66,75.68c1.96,5.43,3.91,11.52,3.91,11.52h0.44     c0,0,1.52-6.09,3.7-11.52l30.01-75.46c1.08-3.05,2.83-4.35,6.09-4.35h4.78c3.91,0,5.66,2.39,4.35,6.31l-51.54,125.26     c-5.65,14.14-16.96,23.48-31.53,23.48c-6.31,0-11.52-2.17-15-3.91c-2.83-1.3-3.7-4.35-2.39-6.96l1.3-2.39     C1618.62,983.31,1621.01,982.66,1623.62,983.53z"/>
			<path class="st1" d="M1848.72,886.76h6.31v-3.48c0-21.09-11.53-28.27-26.97-28.27c-12.18,0-21.53,4.56-26.53,7.61     c-3.04,1.52-5.43,1.08-7.39-1.74l-1.3-2.17c-1.74-2.83-1.31-5.65,1.52-7.39c5.65-3.48,17.83-9.57,34.8-9.57     c26.09,0,40.66,14.57,40.66,41.97v64.59c0,3.48-1.74,5.43-5.22,5.43h-3.48c-3.48,0-5.43-1.74-5.43-5.43v-8.7     c0-5,0.65-8.26,0.65-8.26h-0.44c0.22,0-9.79,25.01-36.97,25.01c-18.49,0-36.97-10.88-36.97-31.97     C1781.95,888.72,1827.62,886.76,1848.72,886.76z M1821.53,943.95c21.1,0,33.49-21.75,33.49-40.89v-5.22h-6.09     c-17.18,0-51.76,0.65-51.76,25.22C1797.18,933.29,1805.22,943.95,1821.53,943.95z"/>
			<path class="st1" d="M1904.83,857.62h-9.13c-3.48,0-5.22-1.74-5.22-5.22v-1.74c0-3.48,1.74-5.44,5.22-5.44h9.35v-25.66     c0-3.48,1.96-5.44,5.44-5.44h3.91c3.48,0,5.22,1.96,5.22,5.44v25.66h22.18c3.48,0,5.43,1.96,5.43,5.44v1.74     c0,3.48-1.96,5.22-5.43,5.22h-22.18v54.8c0,25.22,15.44,28.27,23.92,28.7c4.35,0.44,5.87,1.74,5.87,5.44v2.82     c0,3.48-1.74,5.22-6.09,5.22c-23.92,0-38.49-14.57-38.49-40.23V857.62z"/>
			<path class="st1" d="M1974.43,857.62h-9.13c-3.48,0-5.22-1.74-5.22-5.22v-1.74c0-3.48,1.74-5.44,5.22-5.44h9.35v-25.66     c0-3.48,1.96-5.44,5.44-5.44h3.91c3.48,0,5.22,1.96,5.22,5.44v25.66h22.18c3.48,0,5.43,1.96,5.43,5.44v1.74     c0,3.48-1.96,5.22-5.43,5.22h-22.18v54.8c0,25.22,15.44,28.27,23.92,28.7c4.35,0.44,5.87,1.74,5.87,5.44v2.82     c0,3.48-1.74,5.22-6.09,5.22c-23.92,0-38.49-14.57-38.49-40.23V857.62z"/>
			<path class="st1" d="M2085.56,841.74c29.14,0,45.67,21.1,45.67,52.19c0,3.05-2.39,5.43-5.65,5.43h-78.72     c0.65,27.84,19.79,43.71,42.4,43.71c13.7,0,23.7-6.09,28.71-10c3.04-1.96,5.44-1.52,7.17,1.31l1.74,2.61     c1.53,2.61,1.09,5.22-1.52,7.18c-5.87,4.35-18.92,12.18-36.54,12.18c-32.62,0-57.19-23.48-57.19-57.2     C2031.63,863.27,2055.99,841.74,2085.56,841.74z M2116.23,888.28c-0.87-23.05-14.79-34.36-31.1-34.36     c-18.27,0-34.14,12.18-37.62,34.36H2116.23z"/>
			<path class="st1" d="M2157.12,849.79c0-3.48,1.96-5.43,5.44-5.43h3.91c3.26,0,5.22,1.96,5.22,5.43v12.61     c0,4.35-0.87,7.83-0.87,7.83h0.43c4.13-10,18.49-28.49,44.15-28.49c27.19,0,36.75,15.44,36.75,42.41v64.15     c0,3.48-1.96,5.43-5.44,5.43h-4.13c-3.48,0-5.22-1.96-5.22-5.43v-60.24c0-17.18-2.82-32.4-23.92-32.4     c-23.27,0-41.53,19.14-41.53,44.58v48.06c0,3.48-1.74,5.43-5.22,5.43h-4.13c-3.48,0-5.44-1.96-5.44-5.43V849.79z"/>
			<path class="st1" d="M2326.32,841.74c26.53,0,35.88,21.96,35.88,21.96h0.44c0,0-0.65-3.7-0.65-8.26V806.3     c0-3.48,1.96-5.43,5.44-5.43h4.13c3.48,0,5.22,1.96,5.22,5.43v142c0,3.48-1.74,5.43-5.22,5.43h-3.7c-3.48,0-5.44-1.74-5.44-5.22     v-8.26c0-3.91,0.87-6.74,0.87-6.74h-0.44c0,0-9.35,22.84-38.06,22.84c-29.36,0-47.62-23.48-47.62-57.41     C2277.18,864.36,2297.62,841.74,2326.32,841.74z M2326.97,943.08c18.27,0,35.45-13.05,35.45-44.14     c0-22.18-11.31-43.71-34.79-43.71c-19.36,0-35.23,16.09-35.23,43.71C2292.4,925.9,2306.53,943.08,2326.97,943.08z"/>
			<path class="st1" d="M2467.91,886.76h6.31v-3.48c0-21.09-11.53-28.27-26.97-28.27c-12.18,0-21.53,4.56-26.53,7.61     c-3.04,1.52-5.44,1.08-7.39-1.74l-1.3-2.17c-1.74-2.83-1.31-5.65,1.52-7.39c5.65-3.48,17.83-9.57,34.8-9.57     c26.09,0,40.66,14.57,40.66,41.97v64.59c0,3.48-1.74,5.43-5.22,5.43h-3.48c-3.48,0-5.44-1.74-5.44-5.43v-8.7     c0-5,0.65-8.26,0.65-8.26h-0.44c0.22,0-9.79,25.01-36.97,25.01c-18.49,0-36.97-10.88-36.97-31.97     C2401.15,888.72,2446.81,886.76,2467.91,886.76z M2440.72,943.95c21.1,0,33.49-21.75,33.49-40.89v-5.22h-6.09     c-17.18,0-51.76,0.65-51.76,25.22C2416.37,933.29,2424.42,943.95,2440.72,943.95z"/>
			<path class="st1" d="M2520.99,849.79c0-3.48,1.96-5.43,5.43-5.43h3.91c3.26,0,5.22,1.96,5.22,5.43v12.61     c0,4.35-0.87,7.83-0.87,7.83h0.43c4.13-10,18.49-28.49,44.15-28.49c27.19,0,36.75,15.44,36.75,42.41v64.15     c0,3.48-1.96,5.43-5.44,5.43h-4.13c-3.48,0-5.22-1.96-5.22-5.43v-60.24c0-17.18-2.82-32.4-23.92-32.4     c-23.27,0-41.53,19.14-41.53,44.58v48.06c0,3.48-1.74,5.43-5.22,5.43h-4.13c-3.48,0-5.43-1.96-5.43-5.43V849.79z"/>
			<path class="st1" d="M2698.01,841.74c18.7,0,30.88,8.05,36.32,12.4c2.61,1.96,2.83,4.57,0.65,7.39l-1.52,2.39     c-1.96,3.05-4.35,3.05-7.4,1.09c-4.78-3.7-14.35-10-27.62-10c-23.92,0-42.62,18.05-42.62,44.14c0,25.88,18.7,43.93,42.84,43.93     c15.22,0,25.66-7.17,30.88-11.52c2.82-2.18,5.22-1.74,7.17,1.31l1.52,2.17c1.74,2.83,1.09,5.22-1.3,7.4     c-5.65,4.56-18.7,13.92-38.93,13.92c-32.62,0-57.41-23.27-57.41-57.2C2640.61,865.45,2665.62,841.74,2698.01,841.74z"/>
			<path class="st1" d="M2809.37,841.74c29.14,0,45.67,21.1,45.67,52.19c0,3.05-2.39,5.43-5.65,5.43h-78.72     c0.65,27.84,19.79,43.71,42.4,43.71c13.7,0,23.7-6.09,28.71-10c3.04-1.96,5.44-1.52,7.17,1.31l1.74,2.61     c1.53,2.61,1.09,5.22-1.52,7.18c-5.87,4.35-18.92,12.18-36.54,12.18c-32.62,0-57.19-23.48-57.19-57.2     C2755.44,863.27,2779.8,841.74,2809.37,841.74z M2840.04,888.28c-0.87-23.05-14.79-34.36-31.1-34.36     c-18.27,0-34.14,12.18-37.62,34.36H2840.04z"/>
		</g>
	</g>
	<g>
		<g>
			<g>
				<g>
					<path class="st2" d="M621.57,235.92c0.37,0-2.11,0.02,1.71,0.02l-0.01,18.47c-0.51,0-0.86,0-1.13,0h0l-0.15-0.02l-0.08-0.01       h-0.05h-0.05c-8.81-0.01-17.42,0.86-25.74,2.51c-59.15,11.77-103.9,63.51-103.95,126.13v0.01c0,0.11,0.02,0.22,0.02,0.33       l-18.78-0.02c0,0-0.04-0.03-0.04-0.38C473.37,301.31,539.93,235.84,621.57,235.92z"/>
				</g>
				<g>
					<path class="st2" d="M504.17,383.7c3.32-60.3,41.92-104.77,94.19-115.19c5.65-1.13,11.45-1.84,24.34-2.13l-0.09,117.4       L504.17,383.7z"/>
				</g>
			</g>
		</g>
		<g>
			<g>
				<g>
					<path class="st3" d="M657.43,235.92c-0.37,0,2.11,0.02-1.71,0.02l0.02,18.47c0.51,0,0.85,0,1.13,0h0.01l0.14-0.02l0.08-0.01       h0.06h0.06c8.81-0.01,17.42,0.86,25.73,2.51c59.15,11.77,103.9,63.51,103.95,126.13l0,0.01c0,0.11-0.01,0.22-0.02,0.33       l18.78-0.02c0,0,0.04-0.03,0.04-0.38C805.63,301.31,739.07,235.84,657.43,235.92z"/>
				</g>
				<g>
					<path class="st3" d="M774.84,383.7c-3.33-60.3-41.93-104.77-94.19-115.19c-5.65-1.13-11.46-1.84-24.34-2.13l0.08,117.4       L774.84,383.7z"/>
				</g>
			</g>
		</g>
		<g>
			<g>
				<g>
					<path class="st4" d="M621.57,562.4c0.37,0-2.11-0.02,1.71-0.03l-0.01-18.47c-0.51,0-0.86,0-1.13,0h0l-0.15,0.02h-0.08       l-0.05,0.01h-0.05c-8.81,0-17.42-0.86-25.74-2.53c-59.15-11.76-103.9-63.49-103.95-126.11v-0.01c0-0.11,0.02-0.22,0.02-0.32       l-18.78,0.01c0,0-0.04,0.03-0.04,0.38C473.37,496.99,539.93,562.47,621.57,562.4z"/>
				</g>
				<g>
					<path class="st4" d="M504.17,414.61c3.32,60.3,41.92,104.78,94.19,115.19c5.65,1.13,11.45,1.82,24.34,2.12l-0.09-117.39       L504.17,414.61z"/>
				</g>
			</g>
		</g>
		<g>
			<g>
				<g>
					<path class="st1" d="M657.43,562.4c-0.37,0,2.11-0.02-1.71-0.03l0.02-18.47c0.51,0,0.85,0,1.13,0h0.01l0.14,0.02h0.08       l0.06,0.01h0.06c8.81,0,17.42-0.86,25.73-2.53c59.15-11.76,103.9-63.49,103.95-126.11l0-0.01c0-0.11-0.01-0.22-0.02-0.32       l18.78,0.01c0,0,0.04,0.03,0.04,0.38C805.63,496.99,739.07,562.47,657.43,562.4z"/>
				</g>
				<g>
					<path class="st1" d="M774.84,414.61c-3.33,60.3-41.93,104.78-94.19,115.19c-5.65,1.13-11.46,1.82-24.34,2.12l0.08-117.39       L774.84,414.61z"/>
				</g>
			</g>
		</g>
	</g>
</g>
<g>
</g>
<g>
</g>
<g>
</g>
<g>
</g>
<g>
</g>
<g>
</g>
<g>
</g>
<g>
</g>
<g>
</g>
<g>
</g>
<g>
</g>
<g>
</g>
<g>
</g>
<g>
</g>
<g>
</g>
<g>
</g>
<g>
</g>
<g>
</g>
</svg>