<svg xmlns="http://www.w3.org/2000/svg" fill="none" viewBox="0 0 102.34 24">
<path fill-rule="evenodd" clip-rule="evenodd" d="M21.3655 4.29428C21.1835 5.96951 22.1053 7.57033 23.6442 8.25034C26.7131 9.60636 26.7131 13.9704 23.6442 15.3264C22.1053 16.0065 21.1835 17.6073 21.3655 19.2825C21.7278 22.6234 17.9574 24.8058 15.2516 22.8202C13.8948 21.8249 12.0511 21.8249 10.6942 22.8202C7.98848 24.8058 4.21802 22.6242 4.58038 19.2825C4.76236 17.6073 3.84049 16.0065 2.30166 15.3264C-0.767221 13.9704 -0.767221 9.60636 2.30166 8.25034C3.84049 7.57033 4.76236 5.96951 4.58038 4.29428C4.21802 0.953435 7.98848 -1.229 10.6942 0.756632C12.0511 1.75185 13.8948 1.75185 15.2516 0.756632C17.9574 -1.229 21.7278 0.952635 21.3655 4.29428ZM19.2288 17.2985L15.0912 13.1512C14.3401 12.3984 14.3401 11.1784 15.0912 10.4256L19.2288 6.27831L18.4698 5.5175L14.3322 9.66476C13.5819 10.4176 12.3647 10.4176 11.6137 9.66476L7.47606 5.5175L6.71702 6.27831L10.8546 10.4264C11.6057 11.1784 11.6057 12.3984 10.8546 13.1512L6.71702 17.2985L7.47606 18.0593L11.6137 13.912C12.3639 13.1592 13.5811 13.1592 14.3322 13.912L18.4698 18.0593L19.2288 17.2985ZM94.4151 14.1654L101.693 7.52211L98.789 7.55811L89.1393 16.5134L88.6365 16.059C89.5879 14.9861 89.5828 13.7733 89.575 11.9294C89.5743 11.7576 89.5735 11.5804 89.5735 11.3974V0.780407H87.397V23.5759H89.5735V18.5607L92.8547 15.5646L99.5472 23.5759H102.342L94.4151 14.1654ZM44.7894 7.06603C41.4427 7.06603 39.7834 9.70367 39.2965 11.3645H38.492C39.1417 10.1925 39.3971 9.01966 39.3971 6.12202V0.781139H37.2524V23.5767H39.429V16.2822C39.429 13.8725 39.7866 9.02046 44.3025 9.02046C46.772 9.02046 48.3316 10.5181 48.3316 13.8397V23.5767H50.4762V13.3181C50.4746 9.73647 48.8504 7.06603 44.7894 7.06603ZM60.1545 7.06614C55.8325 7.06614 52.2712 10.4206 52.2712 15.5655C52.2712 20.7112 55.9363 24 60.1545 24C64.3727 24 68.0378 20.7112 68.0378 15.5655C68.0378 10.4206 64.4765 7.06614 60.1545 7.06614ZM60.1545 22.0784C57.1119 22.0784 54.6576 19.9615 54.6576 15.5975C54.6576 11.2334 57.1119 9.01897 60.1545 9.01897C63.197 9.01897 65.6513 11.2334 65.6513 15.5975C65.6521 19.9615 63.197 22.0784 60.1545 22.0784ZM69.8338 15.5655C69.8338 10.4206 73.3951 7.06614 77.7171 7.06614C82.0391 7.06614 85.6004 10.4206 85.6004 15.5655C85.6004 20.7112 81.9353 24 77.7171 24C73.4989 24 69.8338 20.7112 69.8338 15.5655ZM72.2203 15.5975C72.2203 19.9615 74.6746 22.0784 77.7171 22.0784C80.7597 22.0784 83.2148 19.9615 83.214 15.5975C83.214 11.2334 80.7597 9.01897 77.7171 9.01897C74.6746 9.01897 72.2203 11.2334 72.2203 15.5975Z" fill="#1D1D1B"/>
</svg>