<svg width="157" height="24" viewBox="0 0 157 24" fill="none" xmlns="http://www.w3.org/2000/svg">
<path d="M0 22.815V0.584961H4.69967V22.815H0ZM2.65963 13.542V9.32709H16.0106V13.542H2.65963ZM13.7892 22.815V0.584961H18.4889V22.815H13.7892Z" fill="#202124"/>
<path d="M52.5726 22.815C50.6332 22.815 48.9714 22.47 47.5871 21.78C46.2519 21.1367 45.1466 20.0973 44.4213 18.8028C43.6958 17.5086 43.333 15.9553 43.333 14.1428V0.584961H48.0714V14.0567C48.0714 15.0592 48.2379 15.9077 48.5709 16.602C48.8867 17.2798 49.4169 17.8341 50.0793 18.179C50.7519 18.5345 51.5833 18.7126 52.5736 18.7133C53.564 18.7141 54.3983 18.536 55.0767 18.179C55.7386 17.8335 56.2687 17.2794 56.5851 16.602C56.9174 15.907 57.0835 15.0585 57.0835 14.0567V0.584961H61.8219V14.1428C61.8219 15.9539 61.4591 17.5087 60.7336 18.8071C60.011 20.1038 58.9049 21.1439 57.5678 21.7844C56.1828 22.4714 54.5177 22.815 52.5726 22.815Z" fill="#202124"/>
<path d="M73.0382 22.815C71.0639 22.815 69.3754 22.5212 67.973 21.9336C66.5705 21.3459 65.4938 20.4783 64.7429 19.3308C63.9913 18.1847 63.5955 16.7835 63.5557 15.1271H68.2589C68.2937 16.1082 68.5169 16.8886 68.9286 17.4682C69.3388 18.0478 69.9231 18.4792 70.5953 18.699C71.2954 18.9384 72.1289 19.0585 73.0958 19.0592C73.9982 19.0592 74.7592 18.9545 75.3789 18.745C75.9986 18.5355 76.4654 18.2248 76.7793 17.8131C77.0931 17.4029 77.2504 16.8919 77.2511 16.2802C77.2669 15.811 77.1248 15.3503 76.8478 14.9728C76.5781 14.6231 76.1432 14.3242 75.5431 14.076C74.943 13.8278 74.1225 13.607 73.0817 13.4135L70.6996 12.9996C69.3856 12.7638 68.2426 12.3817 67.2706 11.8532C66.3333 11.3554 65.5451 10.6145 64.9875 9.707C64.4345 8.80547 64.158 7.70829 64.158 6.41549C64.1387 5.26413 64.44 4.13035 65.0277 3.14259C65.6076 2.1812 66.5172 1.41727 67.7566 0.850802C68.996 0.284332 70.5637 0.000729987 72.4598 0C74.4277 0 76.0664 0.279589 77.3761 0.838759C78.6858 1.39793 79.6737 2.20091 80.3398 3.24772C81.0074 4.29306 81.3792 5.55155 81.4553 7.02321H76.9652C76.8985 6.2976 76.7195 5.69573 76.4281 5.21758C76.1367 4.73944 75.6815 4.37445 75.0626 4.1226C74.4429 3.87003 73.6184 3.74373 72.5892 3.74373C71.7673 3.74373 71.0834 3.83936 70.5376 4.03062C69.9919 4.22187 69.5849 4.49525 69.3167 4.85076C69.0435 5.2185 68.9014 5.66834 68.9134 6.12751C68.8971 6.57212 69.0104 7.01181 69.2395 7.39221C69.457 7.73385 69.8248 8.02584 70.343 8.2682C70.8613 8.51055 71.5629 8.71495 72.4479 8.88138L74.7386 9.28762C76.468 9.5891 77.8694 10.0234 78.9428 10.5906C80.0162 11.1578 80.8015 11.8656 81.2987 12.7138C81.7952 13.5613 82.0438 14.5833 82.0446 15.7797C82.0446 17.2207 81.697 18.4701 81.0019 19.5279C80.3069 20.5856 79.2845 21.3992 77.9349 21.9686C76.5897 22.5321 74.9575 22.8143 73.0382 22.815Z" fill="#202124"/>
<path d="M83.7778 22.815V0.584961H100.533V4.82222H88.6073V18.5755H100.456V22.8127L83.7778 22.815ZM86.4177 13.5499V9.4241H99.4852V13.5499H86.4177Z" fill="#202124"/>
<path d="M113.349 23.3999C111.492 23.3999 109.915 23.0786 108.619 22.436C107.378 21.8464 106.343 20.8804 105.652 19.668C104.971 18.4645 104.613 17.027 104.578 15.3554H109.239C109.279 16.2623 109.453 17.0112 109.763 17.6021C110.058 18.1812 110.527 18.6479 111.099 18.9345C111.682 19.234 112.399 19.3838 113.249 19.3838C113.935 19.4016 114.617 19.2715 115.25 19.0019C115.775 18.7768 116.222 18.3948 116.533 17.9054C116.837 17.3952 116.992 16.8053 116.977 16.2069C116.993 15.5954 116.834 14.9925 116.521 14.4724C116.204 13.9759 115.75 13.5885 115.216 13.3603C114.65 13.1034 113.971 12.975 113.181 12.975H111.599V9.49925H113.115C113.89 9.49925 114.544 9.3944 115.074 9.1847C115.561 9.00823 115.982 8.67938 116.277 8.24444C116.562 7.78656 116.705 7.25074 116.687 6.70767C116.703 6.17747 116.561 5.65489 116.281 5.20908C115.995 4.78452 115.589 4.45971 115.118 4.27781C114.544 4.05543 113.933 3.94864 113.319 3.96326C112.691 3.94696 112.067 4.06478 111.486 4.30926C110.985 4.52878 110.562 4.90239 110.276 5.37871C109.985 5.86026 109.82 6.47363 109.783 7.2188H105.114C105.16 5.68801 105.51 4.38378 106.163 3.30609C106.816 2.2284 107.751 1.40796 108.968 0.844779C110.184 0.282343 111.653 0.000748916 113.373 0C114.985 0 116.386 0.243773 117.578 0.731317C118.77 1.21886 119.687 1.92247 120.33 2.84214C120.973 3.76256 121.295 4.85448 121.295 6.1179C121.31 7.02304 121.076 7.91425 120.621 8.6893C120.154 9.45619 119.508 10.0913 118.742 10.5372C117.878 11.0429 116.933 11.3854 115.952 11.5483L116.006 10.4159C117.085 10.5704 118.128 10.926 119.083 11.4652C119.934 11.9488 120.65 12.6504 121.16 13.5018C121.659 14.3429 121.909 15.3221 121.91 16.4394C121.93 17.7242 121.565 18.9841 120.865 20.0489C120.168 21.1026 119.173 21.9264 117.88 22.5203C116.587 23.1142 115.076 23.4073 113.349 23.3999Z" fill="#202124"/>
<path d="M131.843 23.3999C129.985 23.3999 128.408 23.0786 127.11 22.436C125.869 21.846 124.834 20.8801 124.143 19.668C123.461 18.4645 123.103 17.027 123.067 15.3554H127.73C127.772 16.2623 127.947 17.0112 128.256 17.6021C128.551 18.1813 129.019 18.6482 129.591 18.9345C130.175 19.234 130.892 19.3838 131.743 19.3838C132.429 19.4018 133.112 19.2717 133.746 19.0019C134.271 18.7771 134.718 18.395 135.028 17.9054C135.333 17.3954 135.488 16.8053 135.472 16.2069C135.488 15.5956 135.33 14.9929 135.017 14.4724C134.7 13.9761 134.245 13.5888 133.711 13.3603C133.144 13.1034 132.465 12.975 131.674 12.975H130.085V9.49925H131.601C132.378 9.49925 133.031 9.3944 133.561 9.1847C134.048 9.00803 134.469 8.67922 134.765 8.24444C135.049 7.7862 135.191 7.25056 135.174 6.70767C135.19 6.17741 135.048 5.65469 134.768 5.20908C134.481 4.78428 134.075 4.4594 133.604 4.27781C133.029 4.05532 132.418 3.94853 131.804 3.96326C131.176 3.94709 130.552 4.0649 129.971 4.30926C129.47 4.52878 129.047 4.90239 128.761 5.37871C128.469 5.86026 128.304 6.47363 128.266 7.2188H123.595C123.641 5.68801 123.991 4.38378 124.644 3.30609C125.298 2.2284 126.234 1.40796 127.451 0.844779C128.669 0.282343 130.137 0.000748916 131.858 0C133.472 0 134.875 0.243773 136.066 0.731317C137.258 1.21886 138.175 1.92247 138.819 2.84214C139.462 3.76256 139.784 4.85448 139.784 6.1179C139.799 7.02311 139.566 7.91446 139.11 8.6893C138.643 9.45638 137.997 10.0916 137.23 10.5372C136.366 11.0429 135.42 11.3854 134.439 11.5483L134.492 10.4159C135.572 10.5704 136.615 10.926 137.571 11.4652C138.423 11.9485 139.139 12.6502 139.649 13.5018C140.15 14.3429 140.4 15.3221 140.399 16.4394C140.419 17.724 140.055 18.984 139.355 20.0489C138.658 21.1026 137.663 21.9264 136.368 22.5203C135.074 23.1142 133.565 23.4073 131.843 23.3999Z" fill="#202124"/>
<path d="M144.53 22.815C144.557 20.502 144.871 18.2013 145.464 15.9651C146.028 13.8299 146.854 11.772 147.921 9.8378C148.958 7.96361 150.215 6.21989 151.667 4.6438H140.978V0.584961H156.578V4.47989C155.057 6.00598 153.737 7.71999 152.652 9.58021C151.616 11.4121 150.851 13.3839 150.38 15.4343C149.872 17.5812 149.597 20.0414 149.556 22.815H144.53Z" fill="#202124"/>
<path d="M41.6001 10.5607H34.8246L40.6922 7.13058L39.567 5.15545L33.6983 8.58554L37.086 2.64457L35.1364 1.50417L31.7486 7.44514V0.584961H29.496V7.44514L26.1082 1.50417L24.1586 2.64457L27.5463 8.58554L21.6787 5.15545L20.5524 7.13058L26.42 10.5607H19.6445V12.8404H26.42L20.5524 16.2704L21.6787 18.2456L27.5463 14.8144L24.1586 20.7565L26.1082 21.8958L29.496 15.9548V22.815H31.7486V15.9548L35.1364 21.8958L37.086 20.7565L33.6983 14.8144L39.567 18.2456L40.6922 16.2704L34.8246 12.8404H41.6001V10.5607Z" fill="#FF005C"/>
</svg>
