<?xml version="1.0" encoding="UTF-8" standalone="no"?>
<!-- Created with Inkscape (http://www.inkscape.org/) -->

<svg
   xmlns:dc="http://purl.org/dc/elements/1.1/"
   xmlns:cc="http://creativecommons.org/ns#"
   xmlns:rdf="http://www.w3.org/1999/02/22-rdf-syntax-ns#"
   xmlns:svg="http://www.w3.org/2000/svg"
   xmlns="http://www.w3.org/2000/svg"
   xmlns:sodipodi="http://sodipodi.sourceforge.net/DTD/sodipodi-0.dtd"
   xmlns:inkscape="http://www.inkscape.org/namespaces/inkscape"
   width="88.299591mm"
   height="23.72086mm"
   viewBox="0 0 88.299591 23.72086"
   version="1.1"
   id="svg968"
   inkscape:version="0.92.4 (5da689c313, 2019-01-14)"
   sodipodi:docname="House of Commons Logo.svg">
  <defs
     id="defs962">
    <clipPath
       clipPathUnits="userSpaceOnUse"
       id="clipPath20">
      <path
         d="M 0,841.89 H 595.276 V 0 H 0 Z"
         id="path18"
         inkscape:connector-curvature="0" />
    </clipPath>
  </defs>
  <sodipodi:namedview
     id="base"
     pagecolor="#ffffff"
     bordercolor="#666666"
     borderopacity="1.0"
     inkscape:pageopacity="0.0"
     inkscape:pageshadow="2"
     inkscape:zoom="2.8"
     inkscape:cx="155.20378"
     inkscape:cy="19.368077"
     inkscape:document-units="mm"
     inkscape:current-layer="layer1"
     showgrid="false"
     fit-margin-top="0"
     fit-margin-left="0"
     fit-margin-right="0"
     fit-margin-bottom="0"
     inkscape:window-width="1920"
     inkscape:window-height="1017"
     inkscape:window-x="-8"
     inkscape:window-y="-8"
     inkscape:window-maximized="1" />
  <metadata
     id="metadata965">
    <rdf:RDF>
      <cc:Work
         rdf:about="">
        <dc:format>image/svg+xml</dc:format>
        <dc:type
           rdf:resource="http://purl.org/dc/dcmitype/StillImage" />
        <dc:title></dc:title>
      </cc:Work>
    </rdf:RDF>
  </metadata>
  <g
     inkscape:label="Layer 1"
     inkscape:groupmode="layer"
     id="layer1"
     transform="translate(-63.9514,-82.544324)">
    <g
       id="g12"
       transform="matrix(0.68839921,0,0,-0.68839921,43.462024,641.12349)"
       style="fill:#006e46;fill-opacity:1">
      <g
         id="g14"
         style="fill:#006e46;fill-opacity:1">
        <g
           id="g16"
           clip-path="url(#clipPath20)"
           style="fill:#006e46;fill-opacity:1">
          <g
             id="g22"
             transform="translate(66.7378,794.0835)"
             style="fill:#006e46;fill-opacity:1">
            <path
               d="M 0,0 V 14.406 H 2.617 V 8.438 h 6.408 v 5.968 h 2.617 V 0 H 9.025 V 6.188 H 2.617 V 0 Z m 13.194,5.699 c 0,3.84 2.078,5.87 5.258,5.87 3.18,0 5.259,-2.03 5.259,-5.87 0,-3.84 -2.079,-5.992 -5.259,-5.992 -3.18,0 -5.258,2.152 -5.258,5.992 m 2.519,0 c 0,-2.691 0.905,-3.987 2.739,-3.987 1.81,0 2.715,1.296 2.715,3.987 0,2.568 -0.929,3.815 -2.715,3.815 -1.81,0 -2.739,-1.247 -2.739,-3.815 m 16.383,-3.62 c -0.49,-1.639 -1.591,-2.372 -3.473,-2.372 -2.055,0 -3.425,1.051 -3.425,3.717 V 11.3 h 2.568 V 3.962 c 0,-1.565 0.563,-2.348 1.859,-2.348 1.199,0 2.421,1.028 2.421,3.204 V 11.3 h 2.569 V 0 h -2.201 z m 6.188,1.248 c 0.195,-1.273 1.1,-1.811 2.372,-1.811 1.15,0 2.006,0.441 2.006,1.346 0,0.831 -0.416,1.272 -1.663,1.565 l -1.664,0.391 c -2.03,0.514 -2.836,1.59 -2.836,3.253 0,2.666 2.151,3.498 4.353,3.498 2.494,0 4.011,-0.905 4.207,-3.106 L 42.613,8.169 c -0.098,1.052 -0.734,1.492 -1.908,1.492 -1.076,0 -1.736,-0.489 -1.736,-1.32 0,-0.734 0.318,-1.175 1.394,-1.419 L 41.928,6.58 c 2.103,-0.49 3.228,-1.517 3.228,-3.498 0,-2.446 -1.981,-3.375 -4.549,-3.375 -2.641,0 -4.158,0.782 -4.524,2.861 z M 53.9,3.449 56.125,2.789 c -0.513,-2.3 -2.445,-3.082 -4.622,-3.082 -3.082,0 -5.185,2.103 -5.185,5.821 0,3.815 2.03,6.041 5.283,6.041 3.008,0 4.574,-2.03 4.574,-4.892 0,-0.587 -0.098,-1.149 -0.196,-1.516 h -7.191 c 0.098,-2.055 1.052,-3.449 2.813,-3.449 1.125,0 1.932,0.44 2.299,1.737 m -0.22,3.375 c 0.025,0.147 0.025,0.293 0.025,0.44 0,1.296 -0.832,2.348 -2.226,2.348 -1.492,0 -2.446,-1.052 -2.618,-2.788 z M 60.6,5.699 c 0,3.84 2.079,5.87 5.259,5.87 3.18,0 5.259,-2.03 5.259,-5.87 0,-3.84 -2.079,-5.992 -5.259,-5.992 -3.18,0 -5.259,2.152 -5.259,5.992 m 2.52,0 c 0,-2.691 0.904,-3.987 2.739,-3.987 1.809,0 2.715,1.296 2.715,3.987 0,2.568 -0.929,3.815 -2.715,3.815 -1.81,0 -2.739,-1.247 -2.739,-3.815 m 12.847,6.628 c 0,1.541 0.66,2.03 1.737,2.03 0.756,0 1.27,-0.17 1.855,-0.487 v 2.315 c -0.591,0.209 -1.264,0.324 -2.051,0.324 -2.152,0 -4.109,-1.027 -4.109,-4.084 V 11.3 H 71.76 V 9.294 h 1.639 V 0 h 2.568 v 9.294 h 2.887 V 11.3 H 75.967 Z M 11.291,-14.042 c -1.297,-2.079 -2.936,-3.082 -5.919,-3.082 -3.791,0 -6.409,2.691 -6.409,7.484 0,4.794 2.691,7.509 6.824,7.509 2.739,0 4.574,-1.223 5.577,-3.522 l -2.47,-1.223 c -0.539,1.615 -1.615,2.47 -3.229,2.47 -2.519,0 -3.987,-2.005 -3.987,-5.258 0,-3.229 1.321,-5.136 3.938,-5.136 1.614,0 2.715,0.66 3.595,2.177 z m 0.824,2.91 c 0,3.84 2.079,5.871 5.259,5.871 3.179,0 5.258,-2.031 5.258,-5.871 0,-3.839 -2.079,-5.992 -5.258,-5.992 -3.18,0 -5.259,2.153 -5.259,5.992 m 2.519,0 c 0,-2.69 0.905,-3.986 2.74,-3.986 1.81,0 2.714,1.296 2.714,3.986 0,2.569 -0.929,3.816 -2.714,3.816 -1.811,0 -2.74,-1.247 -2.74,-3.816 m 22.148,5.871 c 1.883,0 3.301,-1.028 3.301,-3.449 v -8.12 h -2.567 v 7.215 c 0,1.345 -0.514,2.177 -1.737,2.177 -1.198,0 -2.348,-0.832 -2.348,-2.984 v -6.408 h -2.544 v 7.215 c 0,1.345 -0.513,2.177 -1.761,2.177 -1.198,0 -2.323,-0.832 -2.323,-3.009 v -6.383 h -2.569 v 11.299 h 2.079 l 0.319,-2.177 c 0.587,1.737 1.931,2.447 3.497,2.447 1.565,0 2.764,-0.661 3.058,-2.495 0.586,1.785 2.005,2.495 3.595,2.495 m 17.698,0 c 1.884,0 3.302,-1.028 3.302,-3.449 v -8.12 h -2.568 v 7.215 c 0,1.345 -0.513,2.177 -1.736,2.177 -1.199,0 -2.348,-0.832 -2.348,-2.984 v -6.408 h -2.544 v 7.215 c 0,1.345 -0.514,2.177 -1.761,2.177 -1.199,0 -2.324,-0.832 -2.324,-3.009 v -6.383 h -2.567 v 11.299 h 2.079 l 0.318,-2.177 c 0.586,1.737 1.932,2.447 3.497,2.447 1.565,0 2.764,-0.661 3.057,-2.495 0.587,1.785 2.006,2.495 3.595,2.495 m 4.839,-5.871 c 0,3.84 2.078,5.871 5.258,5.871 3.18,0 5.259,-2.031 5.259,-5.871 0,-3.839 -2.079,-5.992 -5.259,-5.992 -3.18,0 -5.258,2.153 -5.258,5.992 m 2.519,0 c 0,-2.69 0.905,-3.986 2.739,-3.986 1.81,0 2.715,1.296 2.715,3.986 0,2.569 -0.929,3.816 -2.715,3.816 -1.809,0 -2.739,-1.247 -2.739,-3.816 m 11.997,3.424 c 0.612,1.688 1.908,2.447 3.62,2.447 1.81,0 3.399,-1.028 3.399,-3.523 v -8.046 h -2.567 v 7.19 c 0,1.346 -0.538,2.202 -1.835,2.202 -1.247,0 -2.446,-0.685 -2.446,-3.009 v -6.383 h -2.568 v 11.299 h 2.08 z m 10.586,-5.796 c 0.196,-1.272 1.101,-1.81 2.372,-1.81 1.15,0 2.006,0.44 2.006,1.345 0,0.832 -0.416,1.272 -1.663,1.566 l -1.663,0.391 c -2.03,0.513 -2.837,1.59 -2.837,3.253 0,2.666 2.152,3.498 4.353,3.498 2.495,0 4.011,-0.906 4.207,-3.107 L 88.75,-8.661 c -0.098,1.052 -0.733,1.492 -1.907,1.492 -1.076,0 -1.737,-0.489 -1.737,-1.321 0,-0.734 0.318,-1.174 1.394,-1.418 l 1.565,-0.343 c 2.104,-0.489 3.229,-1.516 3.229,-3.498 0,-2.445 -1.981,-3.375 -4.549,-3.375 -2.642,0 -4.158,0.783 -4.525,2.862 z m -94.938,28.735 -0.348,-0.18 V 15.05 c 0.402,-0.714 0.508,-1.658 0.259,-2.605 -0.413,0.307 -0.7,0.766 -0.84,1.301 l -0.348,-0.18 v -0.001 c -0.138,-0.52 -0.319,-1.036 -0.545,-1.543 -0.224,-0.504 -0.486,-0.98 -0.778,-1.428 l -0.005,-0.011 0.098,-0.373 c 0.349,0.18 0.744,0.281 1.164,0.281 0.141,0 0.28,-0.012 0.415,-0.034 -0.356,-0.843 -1.19,-1.435 -2.163,-1.435 -0.913,0 -1.703,0.522 -2.091,1.284 0.276,0.129 0.491,0.378 0.561,0.698 0.098,0.446 -0.185,0.655 -0.087,1.1 0.098,0.446 0.538,0.728 0.984,0.63 0.346,-0.076 0.593,-0.358 0.64,-0.689 0.239,0.144 0.421,0.382 0.486,0.677 0.125,0.57 -0.235,1.133 -0.804,1.258 -0.363,0.08 -0.722,-0.038 -0.968,-0.28 0.148,0.224 0.258,0.476 0.319,0.752 0.149,0.678 -0.03,1.355 -0.432,1.881 -0.587,-0.309 -1.033,-0.848 -1.183,-1.527 -0.06,-0.275 -0.066,-0.55 -0.025,-0.816 -0.122,0.323 -0.398,0.581 -0.761,0.66 -0.57,0.126 -1.133,-0.235 -1.258,-0.804 -0.065,-0.294 0,-0.587 0.157,-0.818 0.182,0.28 0.524,0.433 0.87,0.357 0.446,-0.098 0.728,-0.539 0.63,-0.985 -0.098,-0.445 -0.443,-0.516 -0.541,-0.962 -0.058,-0.263 -0.007,-0.525 0.123,-0.739 0,0 0.021,-0.032 0.054,-0.086 -0.462,-0.36 -1.043,-0.574 -1.674,-0.574 -1.507,0 -2.729,1.221 -2.729,2.729 v 0.221 c 0.86,-0.136 1.624,-0.568 2.181,-1.187 l 0.292,0.291 v 3.265 l -0.297,0.297 c -0.557,-0.617 -1.318,-1.046 -2.176,-1.183 v 0.003 c 0,1.186 0.81,2.183 1.906,2.469 l -0.3,0.302 c -0.809,0.058 -1.625,0.088 -2.449,0.088 -0.823,0 -1.64,-0.03 -2.449,-0.088 l -0.301,-0.302 c 1.097,-0.286 1.907,-1.282 1.907,-2.469 v -0.003 c -0.858,0.137 -1.619,0.566 -2.176,1.183 l -0.297,-0.297 v -3.265 l 0.292,-0.291 c 0.558,0.619 1.32,1.051 2.181,1.187 v -0.221 c 0,-1.508 -1.222,-2.729 -2.729,-2.729 -0.627,0 -1.204,0.211 -1.665,0.566 0.027,0.059 0.045,0.094 0.045,0.094 0.129,0.214 0.181,0.476 0.123,0.739 -0.098,0.446 -0.443,0.517 -0.541,0.962 -0.098,0.446 0.184,0.887 0.63,0.985 0.346,0.076 0.688,-0.077 0.87,-0.357 0.156,0.231 0.222,0.524 0.157,0.818 -0.125,0.569 -0.689,0.93 -1.259,0.804 -0.362,-0.079 -0.639,-0.337 -0.76,-0.66 0.04,0.266 0.035,0.541 -0.026,0.816 -0.149,0.679 -0.595,1.218 -1.182,1.527 -0.403,-0.526 -0.581,-1.203 -0.432,-1.881 0.061,-0.276 0.171,-0.528 0.319,-0.752 -0.246,0.242 -0.605,0.36 -0.967,0.28 -0.57,-0.125 -0.931,-0.688 -0.805,-1.258 0.064,-0.295 0.246,-0.533 0.486,-0.677 0.047,0.331 0.294,0.613 0.639,0.689 0.446,0.098 0.887,-0.184 0.985,-0.63 0.098,-0.445 -0.185,-0.654 -0.087,-1.1 0.07,-0.32 0.285,-0.57 0.561,-0.698 v 0 c -0.388,-0.762 -1.179,-1.284 -2.091,-1.284 -0.973,0 -1.808,0.592 -2.164,1.435 0.136,0.022 0.274,0.034 0.416,0.034 0.419,0 0.815,-0.101 1.164,-0.281 l 0.097,0.373 -0.005,0.011 c -0.291,0.448 -0.553,0.924 -0.777,1.428 -0.226,0.507 -0.407,1.022 -0.545,1.542 v 0.002 l -0.349,0.18 c -0.14,-0.535 -0.427,-0.994 -0.839,-1.301 -0.249,0.947 -0.143,1.891 0.258,2.605 v 10e-4 l -0.348,0.18 c -0.608,-0.209 -1.429,-0.542 -2.025,-0.807 l 3.499,-7.858 c 3.113,1.388 6.561,2.16 10.19,2.16 3.629,0 7.077,-0.772 10.19,-2.16 l 3.499,7.858 c -0.596,0.265 -1.417,0.599 -2.026,0.807 M -8.916,-1.484 V -2.62 c 0.915,-0.214 1.531,-1.001 1.531,-1.983 0,-0.982 -0.616,-1.768 -1.531,-1.982 v -1.137 c 0.915,-0.214 1.531,-1 1.531,-1.982 0,-0.983 -0.616,-1.769 -1.531,-1.983 v -1.136 c 0.915,-0.214 1.531,-1.001 1.531,-1.983 0,-1.156 -0.853,-2.04 -2.04,-2.04 -1.193,0 -2.041,0.884 -2.041,2.04 0,0.983 0.613,1.77 1.53,1.983 v 1.136 c -0.917,0.213 -1.53,1 -1.53,1.983 0,0.983 0.613,1.769 1.53,1.983 v 1.135 c -0.917,0.214 -1.53,1 -1.53,1.983 0,0.983 0.613,1.77 1.53,1.983 v 1.136 c -0.917,0.213 -1.53,1 -1.53,1.983 0,0.983 0.613,1.769 1.53,1.983 v 1.135 c -0.752,0.175 -1.299,0.736 -1.472,1.473 h -1.078 v -21.936 h -0.235 c -0.526,1.58 -1.315,3.04 -2.316,4.327 v 0.264 h 1.02 v 3.061 h -2.551 v -3.061 h 0.51 v -0.28 c -0.661,-1.319 -1.15,-2.77 -1.43,-4.311 h -0.2 c -0.279,1.541 -0.769,2.992 -1.431,4.311 v 0.28 h 0.511 v 3.061 h -2.551 v -3.061 h 0.51 v -0.28 c -0.662,-1.319 -1.151,-2.77 -1.43,-4.311 h -0.2 c -0.28,1.541 -0.769,2.992 -1.431,4.311 v 0.28 h 0.51 v 3.061 h -2.55 v -3.061 h 0.51 v -0.28 c -0.662,-1.319 -1.152,-2.77 -1.431,-4.311 h -0.2 c -0.279,1.541 -0.769,2.992 -1.43,4.311 v 0.28 h 0.51 v 3.061 h -2.551 v -3.061 h 1.02 v -0.264 c -1.001,-1.287 -1.79,-2.747 -2.316,-4.327 h -0.235 V 5.09 h -1.078 C -33.125,4.353 -33.674,3.793 -34.423,3.618 V 2.481 c 0.914,-0.214 1.53,-1 1.53,-1.982 0,-0.982 -0.616,-1.769 -1.53,-1.983 V -2.62 c 0.914,-0.214 1.53,-1.001 1.53,-1.983 0,-0.982 -0.616,-1.768 -1.53,-1.982 v -1.137 c 0.914,-0.214 1.53,-1 1.53,-1.982 0,-0.983 -0.616,-1.769 -1.53,-1.983 v -1.136 c 0.914,-0.214 1.53,-1.001 1.53,-1.983 0,-1.156 -0.853,-2.04 -2.04,-2.04 -1.193,0 -2.041,0.884 -2.041,2.04 0,0.983 0.614,1.77 1.531,1.983 v 1.136 c -0.917,0.213 -1.531,1 -1.531,1.983 0,0.983 0.614,1.769 1.531,1.983 v 1.135 c -0.917,0.214 -1.531,1 -1.531,1.983 0,0.983 0.614,1.77 1.531,1.983 v 1.136 c -0.917,0.213 -1.531,1 -1.531,1.983 0,0.983 0.614,1.769 1.531,1.983 v 1.135 c -0.917,0.214 -1.531,1 -1.531,1.983 0,1.156 0.848,2.041 2.041,2.041 1.005,0 1.77,-0.634 1.982,-1.53 h 21.543 c 0.21,0.896 0.972,1.53 1.983,1.53 1.187,0 2.04,-0.885 2.04,-2.041 0,-0.982 -0.616,-1.768 -1.531,-1.982 V 2.481 c 0.915,-0.214 1.531,-1 1.531,-1.982 0,-0.982 -0.616,-1.769 -1.531,-1.983 m -25.518,-12.412 c -0.047,-0.233 -0.242,-0.4 -0.5,-0.4 -0.258,0 -0.452,0.167 -0.499,0.4 -0.323,-0.161 -0.521,-0.487 -0.521,-0.91 0,-0.61 0.411,-1.02 1.021,-1.02 0.61,0 1.02,0.41 1.02,1.02 0,0.423 -0.197,0.749 -0.521,0.91 m 0,5.102 c -0.047,-0.233 -0.242,-0.4 -0.5,-0.4 -0.258,0 -0.452,0.167 -0.499,0.4 -0.323,-0.161 -0.521,-0.487 -0.521,-0.91 0,-0.423 0.198,-0.75 0.521,-0.911 0.047,0.234 0.241,0.4 0.499,0.4 0.258,0 0.453,-0.166 0.5,-0.4 0.324,0.161 0.521,0.488 0.521,0.911 0,0.423 -0.197,0.749 -0.521,0.91 m 0,5.101 c -0.047,-0.233 -0.242,-0.4 -0.5,-0.4 -0.258,0 -0.452,0.167 -0.499,0.4 -0.323,-0.161 -0.521,-0.487 -0.521,-0.91 0,-0.423 0.198,-0.749 0.521,-0.91 0.047,0.233 0.241,0.4 0.499,0.4 0.258,0 0.453,-0.167 0.5,-0.4 0.324,0.161 0.521,0.487 0.521,0.91 0,0.423 -0.197,0.75 -0.521,0.91 m 0.521,9.293 c 0,0.611 -0.41,1.021 -1.02,1.021 -0.61,0 -1.021,-0.41 -1.021,-1.021 0,-0.423 0.198,-0.749 0.521,-0.91 0.047,0.233 0.241,0.4 0.499,0.4 0.258,0 0.453,-0.167 0.5,-0.4 0.324,0.161 0.521,0.487 0.521,0.91 m 6.122,-10.203 h -2.551 v -3.061 h 2.551 z m 0,4.592 h -2.551 v -3.061 h 2.551 z m 0,4.591 h -2.551 V 1.519 h 2.551 z m 4.591,-9.183 h -2.551 v -3.061 h 2.551 z m 0,4.592 h -2.551 v -3.061 h 2.551 z m 0,4.591 h -2.551 V 1.519 h 2.551 z m 4.592,-9.183 h -2.551 v -3.061 h 2.551 z m 0,4.592 h -2.551 v -3.061 h 2.551 z m 0,4.591 h -2.551 V 1.519 h 2.551 z m 4.591,-9.183 h -2.551 v -3.061 h 2.551 z m 0,4.592 h -2.551 v -3.061 h 2.551 z m 0,4.591 h -2.551 V 1.519 h 2.551 z m 4.092,0.11 c 0.047,0.233 0.24,0.4 0.499,0.4 0.258,0 0.453,-0.167 0.5,-0.4 0.323,0.161 0.521,0.487 0.521,0.91 0,0.611 -0.41,1.021 -1.02,1.021 -0.611,0 -1.021,-0.41 -1.021,-1.021 0,-0.423 0.197,-0.749 0.521,-0.91 m 0.999,-18.586 c -0.047,-0.233 -0.242,-0.4 -0.5,-0.4 -0.259,0 -0.452,0.167 -0.499,0.4 -0.324,-0.161 -0.521,-0.487 -0.521,-0.91 0,-0.61 0.41,-1.02 1.021,-1.02 0.61,0 1.02,0.41 1.02,1.02 0,0.423 -0.198,0.749 -0.521,0.91 m 0,5.102 c -0.047,-0.233 -0.242,-0.4 -0.5,-0.4 -0.259,0 -0.452,0.167 -0.499,0.4 -0.324,-0.161 -0.521,-0.487 -0.521,-0.91 0,-0.423 0.197,-0.75 0.521,-0.911 0.047,0.234 0.24,0.4 0.499,0.4 0.258,0 0.453,-0.166 0.5,-0.4 0.323,0.161 0.521,0.488 0.521,0.911 0,0.423 -0.198,0.749 -0.521,0.91 m 0,5.101 c -0.047,-0.233 -0.242,-0.4 -0.5,-0.4 -0.259,0 -0.452,0.167 -0.499,0.4 -0.324,-0.161 -0.521,-0.487 -0.521,-0.91 0,-0.423 0.197,-0.749 0.521,-0.91 0.047,0.233 0.24,0.4 0.499,0.4 0.258,0 0.453,-0.167 0.5,-0.4 0.323,0.161 0.521,0.487 0.521,0.91 0,0.423 -0.198,0.75 -0.521,0.91 m -25.508,5.102 c -0.047,-0.233 -0.242,-0.4 -0.5,-0.4 -0.258,0 -0.452,0.167 -0.499,0.4 -0.323,-0.161 -0.521,-0.487 -0.521,-0.91 0,-0.423 0.198,-0.749 0.521,-0.91 0.047,0.233 0.241,0.4 0.499,0.4 0.258,0 0.453,-0.167 0.5,-0.4 0.324,0.161 0.521,0.487 0.521,0.91 0,0.423 -0.197,0.749 -0.521,0.91 m 25.508,0 c -0.047,-0.233 -0.242,-0.4 -0.5,-0.4 -0.259,0 -0.452,0.167 -0.499,0.4 -0.324,-0.161 -0.521,-0.487 -0.521,-0.91 0,-0.423 0.197,-0.749 0.521,-0.91 0.047,0.233 0.24,0.4 0.499,0.4 0.258,0 0.453,-0.167 0.5,-0.4 0.323,0.161 0.521,0.487 0.521,0.91 0,0.423 -0.198,0.749 -0.521,0.91"
               style="fill:#006e46;fill-opacity:1;fill-rule:nonzero;stroke:none"
               id="path24"
               inkscape:connector-curvature="0" />
          </g>
        </g>
      </g>
    </g>
  </g>
</svg>
