<?xml version="1.0" encoding="utf-8"?>
<!-- Generator: Adobe Illustrator 19.2.1, SVG Export Plug-In . SVG Version: 6.00 Build 0)  -->
<svg version="1.1" id="layer" xmlns="http://www.w3.org/2000/svg" xmlns:xlink="http://www.w3.org/1999/xlink" x="0px" y="0px"
	 viewBox="0 0 652 652" style="enable-background:new 0 0 652 652;" xml:space="preserve">
<style type="text/css">
	.st0{fill:#D40000;}
	.st1{fill:#FFFFFF;}
</style>
<circle class="st0" cx="73.2" cy="325.1" r="46.7"/>
<path class="st1" d="M82.9,300.1h12.5v50.3H82.9V300.1z"/>
<path class="st1" d="M51.1,351.3l31.4-31.8H63.5v-19.3H51.1V351.3z"/>
<path d="M541.1,351.7h35.4v-10.1H552v-12.1h20.9v-10.1H552v-10.9h23.8v-10.1h-34.6L541.1,351.7L541.1,351.7L541.1,351.7z
	 M508.5,351.7h10.9v-43.1h14.5v-10.1H494v10.1h14.5L508.5,351.7L508.5,351.7L508.5,351.7z M466.6,352.5h2c11.3,0,18.9-5.2,18.9-16.1
	v-37.9h-10.9v36.2c0,4.8-2,7.7-8.5,7.7h-2c-6,0-8.1-2.4-8.1-7.7v-36.2h-10.9v38.3C447.7,347.2,455.4,352.5,466.6,352.5z
	 M411.5,321.9v-13.3h10.5c4.8,0,6.8,2,6.8,6v1.6c0,4-2.4,6-6.4,6L411.5,321.9L411.5,321.9z M400.6,351.7h10.9v-20.5h10.1l7.2,20.5
	h12.5l-9.7-22.6c4.8-2.4,8.5-6.8,8.5-13.3v-1.2c0-10.1-6.8-15.7-17.3-15.7H401L400.6,351.7C400.6,351.7,400.6,351.7,400.6,351.7z
	 M366,352.5h2c5.6,0,10.5-2.8,12.5-8.1h0.8l1.6,7.2h7.7v-29.8H370v8.9h10.5v4c0,4.8-2.8,8.1-8.1,8.1h-2.8c-5.2,0-8.1-2.8-8.1-8.5
	V315c0-4.8,2.4-7.7,8.5-7.7h2c5.2,0,7.7,2.8,7.7,7.2v0.8h10.9v-0.8c0-10.5-6.4-16.9-18.1-16.9H370c-11.3,0-19.3,5.6-19.3,17.3V336
	C350.7,346.8,357.5,352.5,366,352.5z M330.5,351.7h10.9v-53.2h-10.9C330.5,298.5,330.5,351.7,330.5,351.7z M297.9,351.7h10.9v-43.1
	h14.5v-10.1h-39.9v10.1h14.5C297.9,308.6,297.9,351.7,297.9,351.7z M251.6,321.9v-13.3h10.5c4.8,0,6.8,2,6.8,6v1.6c0,4-2.4,6-6.4,6
	L251.6,321.9L251.6,321.9z M240.7,351.7h10.9v-20.5h10.1l7.2,20.5h12.5l-9.7-22.6c4.8-2.4,8.5-6.8,8.5-13.3v-1.2
	c0-10.1-6.8-15.7-17.3-15.7h-21.7L240.7,351.7C240.7,351.7,240.7,351.7,240.7,351.7z M209.7,352.5h2c11.3,0,18.9-5.2,18.9-16.1
	v-37.9h-10.9v36.2c0,4.8-2,7.7-8.5,7.7h-2c-6,0-8.1-2.4-8.1-7.7v-36.2h-10.9v38.3C190.8,347.2,198.4,352.5,209.7,352.5L209.7,352.5z
	 M139.7,351.7h10.9v-22.1h19.3v22.1h10.9v-53.2h-10.9v20.5h-19.3v-20.5h-10.9C139.7,298.5,139.7,351.7,139.7,351.7z M585,351.7h10.9
	v-14.1c0-10.1,0-17.3-0.8-27.4h0.8c2,5.6,3.6,10.5,8.1,20.9l8.1,20.5h14.5v-53.2h-10.9v12.9c0,10.1,0.4,16.9,1.2,28.2H616
	c-2.4-6.8-4.8-13.3-8.9-23.8l-6.8-17.3H585L585,351.7L585,351.7L585,351.7z"/>
</svg>
