<svg xmlns:xlink="http://www.w3.org/1999/xlink" xmlns="http://www.w3.org/2000/svg" aria-labelledby="title-logo" role="img" focusable="false" viewBox="-0.02 -0.06 636.88 99.21">
                        <title id="title-logo">IAG Loyalty</title>
                        <path fill="#000" d="M-.024 2.726h21.799v78.438H-.024V2.726zM110.583 42.33c0 23.645 18.178 40.371 42.491 40.371a52.79 52.79 0 0033.907-12.042V35.527h-35.913v15.838h15.39v9.48c-3.234 2.117-7.249 3.234-12.489 3.234-12.38 0-21.193-9.035-21.193-21.637v-.223c0-11.935 8.702-21.414 19.967-21.414 7.694 0 13.269 2.677 18.846 7.358l12.712-15.277C176.05 5.75 166.347 1.508 152.629 1.508c-24.203 0-42.046 17.845-42.046 40.598v.224zM82.072 2.724H61.156L27.85 81.164h33.54L50.285 40.608l-.185-.445h11.177a5.207 5.207 0 013.629 1.407S91.755 70.46 98.978 76.168c5.809 4.591 9.37 4.919 12.112 4.919 1.808 0 4.507-.005 4.507-.005L82.072 2.724z"/>
                        <path fill="#05CDFF" d="M347.32 99.151a27.218 27.218 0 01-13.793-3.53l4.524-9.932a16.453 16.453 0 007.835 2.207c3.752 0 6.069-1.656 8.276-6.732l-24.277-58.262h14.235l16.552 43.256 15.118-43.256h13.903l-23.172 59.917c-4.635 11.918-9.821 16.332-19.201 16.332zM212.608 81.164h54.18V68.805h-40.607V2.715h-13.573v78.45zm328.98 17.987c9.38 0 14.566-4.414 19.201-16.332l23.173-59.918h-13.904l-15.117 43.256-16.553-43.256h-14.235l24.277 58.263c-2.207 5.077-4.524 6.732-8.276 6.732a16.453 16.453 0 01-7.835-2.207l-4.524 9.931a27.21 27.21 0 0013.793 3.53zm-35.419-16.463a23.381 23.381 0 0012.028-2.98V68.784a17.96 17.96 0 01-8.277 1.987c-4.524 0-7.172-2.097-7.172-7.284v-29.11h15.669V22.902h-15.669V7.432h-13.353v15.47h-7.393v11.475h7.393v31.207c0 12.8 6.953 17.104 16.774 17.104zm-46.147-1.524h13.639V-.06h-13.639v81.225zm136.296.02h40.533v-12.36h-40.533v12.36zm0-22.96h40.533v-12.36h-40.533v12.36zm0-22.961h40.533V22.9h-40.533v12.362zm0-22.963h40.533V-.06h-40.533V12.3zm-265.13 39.822v.221c0 16.551-13.243 30.345-31.228 30.345-17.766 0-30.898-13.573-30.898-30.124v-.221c0-16.663 13.242-30.456 31.118-30.456 17.875 0 31.008 13.572 31.008 30.235zm-13.353.221c0-10.263-7.393-18.76-17.875-18.76-10.704 0-17.545 8.387-17.545 18.54v.22c0 10.152 7.393 18.758 17.765 18.758 10.814 0 17.655-8.496 17.655-18.537v-.221zM449.579 22.89v58.274h-13.352V75.48c-5.682 4.779-10.262 7.207-19.862 7.209-12.208 0-27.032-9.278-27.032-31.076.018-18.813 13.154-29.737 27.032-29.737 9.6.002 14.18 2.43 19.862 7.209v-6.194h13.352zm-13.378 29.107c0-11.255-7.945-18.648-16.884-18.648-9.158 0-16.772 7.062-16.772 18.648v.22c0 11.256 7.724 18.649 16.772 18.649 8.939 0 16.884-7.504 16.884-18.648v-.221z"/>
                    </svg>