<?xml version="1.0" encoding="utf-8"?>
<!-- Svg Vector Icons : http://www.onlinewebfonts.com/icon -->
<!DOCTYPE svg PUBLIC "-//W3C//DTD SVG 1.1//EN" "http://www.w3.org/Graphics/SVG/1.1/DTD/svg11.dtd">
<svg version="1.1" xmlns="http://www.w3.org/2000/svg" xmlns:xlink="http://www.w3.org/1999/xlink" x="0px" y="0px" viewBox="0 0 1000 1000" enable-background="new 0 0 1000 1000" xml:space="preserve">
<metadata> Svg Vector Icons : http://www.onlinewebfonts.com/icon </metadata>
<g><path d="M10,304v26.8h190.8V304H10z M227.8,304v26.8h271.8c0,0-27.8-26.8-64.5-26.8H227.8z M552.9,304v26.8h164.5l-9.8-26.8H552.9z M835.3,304l-9.8,26.8h163V304H835.3z M10,356.2V383h190.8v-26.8H10z M227.8,356.2V383h303.4c0,0-3.5-20.6-9.7-26.8H227.8z M552.9,356.2V383h182.5l-9-26.8H552.9z M815.8,356.2l-9,26.8h181.8v-26.8H815.8z M64.8,408.3v26.9h82.6v-26.9H64.8z M282.6,408.3v26.9h82.6v-26.9H282.6z M445.6,408.3v26.9h82.6c0,0,5.2-14.2,5.2-26.9H445.6z M607.8,408.3v26.9h146.5l-9.8-26.9H607.8z M797.8,408.3l-9.8,26.9h147.2v-26.9H797.8z M64.8,460.5v26.8h82.6v-26.8H64.8z M282.6,460.5v26.8h211c0,0,17.7-13.8,23.3-26.8H282.6z M607.8,460.5v26.8h82.6v-14.9l5.2,14.9h151.3l5.6-14.9v14.9h82.6v-26.8H780.1l-8.2,22.7l-8.3-22.7H607.8z M64.8,512.7v26.8h82.6v-26.8H64.8z M282.6,512.7v26.8h234.3c-5.6-13-23.3-26.8-23.3-26.8H282.6z M607.8,512.7v26.8h82.6v-26.8H607.8z M705.4,512.7l10,26.8h113.5l9.5-26.8H705.4z M852.6,512.7v26.8h82.6v-26.8H852.6z M64.8,564.8v26.8h82.6v-26.8H64.8z M282.6,564.8v26.8h82.6v-26.8H282.6z M445.6,564.8v26.8h87.9c0-12.7-5.2-26.8-5.2-26.8H445.6z M607.8,564.8v26.8h82.6v-26.8H607.8z M724.1,564.8l9.7,26.8h76.1l9.8-26.8H724.1z M852.6,564.8v26.8h82.6v-26.8H852.6z M11.5,617v26.9h190.8V617H11.5z M227.8,617v26.9h293.7c6.2-6.1,9.7-26.9,9.7-26.9H227.8z M554.4,617v26.9h135.9V617H554.4z M742.9,617l10,26.9h38.7l9.3-26.9H742.9z M852.6,617v26.9H990V617H852.6z M11.5,669.2V696h190.8v-26.8H11.5z M227.8,669.2V696h207.3c36.8,0,64.5-26.8,64.5-26.8H227.8z M554.4,669.2V696h135.9v-26.8H554.4z M761.8,669.2l9.6,26.7l1.6,0l9.7-26.8H761.8z M852.6,669.2V696H990v-26.8H852.6z"/></g>
</svg>