<?xml version="1.0" encoding="utf-8"?>
<!-- Generator: Adobe Illustrator 19.2.1, SVG Export Plug-In . SVG Version: 6.00 Build 0)  -->
<svg version="1.1" id="layer" xmlns="http://www.w3.org/2000/svg" xmlns:xlink="http://www.w3.org/1999/xlink" x="0px" y="0px"
	 viewBox="0 0 652 652" style="enable-background:new 0 0 652 652;" xml:space="preserve">
<style type="text/css">
	.st0{fill:#00D7FF;}
</style>
<path class="st0" d="M21.8,204.2h26.1v114H21.8V204.2z M112,204.2l-10.1,54.6l-9.5-54.6H56.6v114H80v-76l13.5,76h16.1l13.9-76v76
	H147v-114H112z M211.3,204.2l-10.1,54.6l-9.5-54.6h-35.8v114h23.4l-0.1-76l13.6,76h16.1l13.9-76v76h23.4v-114H211.3z M397.4,318.3
	h26.1v-114h-26.1V318.3z M458.9,282.3h11.6l-5.6-38.2L458.9,282.3z M477.3,204.2l22.8,114h-24.3l-3.1-20.1h-16.3l-3.3,20.1h-25.1
	l23.7-114H477.3z M318.8,402.7h11.6l-5.6-38.2L318.8,402.7z M337.3,324.7l22.8,114.1h-24.3l-3.1-20.1h-16.3l-3.3,20.1h-25.1
	l23.7-114.1H337.3z M485.9,204.2v21.3h21.8v92.7h26.1v-92.7h21.8v-21.3H485.9z M77.2,324.5l-10.1,54.7l-9.5-54.7H21.8v114.1h23.4
	v-76l13.5,76h16.1l13.9-76v76h23.4V324.5H77.2z M120.1,324.5v114.1h58.4v-21.3h-33.3v-25.8h27.4v-20.6h-27.4v-25h33.3v-21.3H120.1z
	 M256.4,438.6h26.1V324.6h-26.1V438.6z M353.3,204.2c6,0,19.9-0.3,27.4,9c8.4,10.8,10.9,34.4,10.9,48c0,23.3-1.4,37.2-9.7,48
	c-7.5,9.4-21.5,9-27.4,9H324v-114v0H353.3 M354.2,298.1c11.4-0.2,11.8-5.3,11.8-36.9c0-22.5,0.1-38.4-13-38.4h-3v75.2H354.2
	 M212.6,324.6c6,0,19.9-0.3,27.4,9c8.4,10.8,10.9,34.4,10.9,48c0,23.3-1.4,37.2-9.7,48c-7.5,9.3-21.5,9-27.4,9h-30.5v-114v0H212.6
	 M213.5,418.5c11.4-0.2,11.8-5.3,11.8-36.9c0-22.5,0.1-38.4-13-38.4h-3v75.2H213.5 M256,204.2v114h61.3v-21.3h-35.2v-25.6h29.2
	v-20.6h-29.2v-25.2h35.2v-21.3H256z M560.5,204.2v114h61.3v-21.3h-35.2v-25.6h29.2v-20.6h-29.2v-25.2h33.8v-21.3H560.5z
	 M420.8,328.4c3.8,3.8,4.5,10.4,4.5,16.8c0,6.4-0.7,13-4.5,16.8c-3.4,3.7-8.9,3.7-10.1,3.7c-1.3,0-6.7,0-10.1-3.7
	c-3.8-3.7-4.5-10.4-4.5-16.8c0-6.4,0.7-13,4.5-16.8c3.4-3.7,8.9-3.7,10.1-3.7C412,324.8,417.4,324.8,420.8,328.4 M410.7,357.7
	c2.1,0,3.9-0.6,3.9-12.5s-2-12.5-3.9-12.5c-2,0-3.8,0.6-3.8,12.5S408.8,357.7,410.7,357.7 M424.1,371.1h-26v7.5h26V371.1z
	 M381,356.9c0.1,11.4-1.4,12.9-4.4,12.9c-3.3,0-4.8-1.7-4.8-17.4c0-14.7,1-17.7,4.6-17.7c3.1,0,4.3,0.7,4.6,10.6l11.6-0.3
	c-0.4-16.1-6.6-20.3-15.9-20.3c-12.4,0-17.4,8.9-17.4,27.6c0,22.6,6.3,27.7,17.8,27.7c11.3-0.7,15.8-5.9,16.1-23.2L381,356.9z"/>
</svg>
