<svg xmlns:xlink="http://www.w3.org/1999/xlink" xmlns="http://www.w3.org/2000/svg" fill="none" viewBox="0 0 253.53 40.03">
<path d="M27.1444 28V28.1333C27.1444 28.1722 27.1444 28.1667 27.1444 28ZM27.1444 25.4833V8.88889H22.7722V26.6667H25.9333C26.6 26.6778 27.1333 27.2278 27.1444 27.8778V28C27.1444 28.0389 27.1444 28.1 27.1444 28.1333V28.2222V29.9278C27.1444 30.5833 27.6833 31.1111 28.35 31.1111H31.6611V26.6833H28.3778C27.7 26.6833 27.15 26.15 27.1444 25.4833ZM13.9611 12.1222V10.0722C13.9611 9.41667 13.4222 8.88889 12.7556 8.88889H9.44444V13.3167H12.7278C13.4056 13.3167 13.9556 13.85 13.9611 14.5167V31.1111H18.3333V13.3333H15.1944C14.5167 13.3333 13.9722 12.7833 13.9611 12.1222ZM52.6556 27.5889H54.9944V9.75H52.6556V27.5889ZM65.8222 20.9333C65.55 20.7611 65.2 20.6333 64.8222 20.5111C64.45 20.3889 63.7222 20.1889 62.6 19.9111C61.3278 19.6389 61.05 19.5389 60.7278 19.4389C59.9556 19.1389 59.6278 18.7389 59.6278 18.0667C59.6278 16.8944 60.6278 16.1444 62.1278 16.1444C63.7 16.1444 64.9778 16.8944 65.6778 18.2667L67.2778 16.9944C66.4778 15.3722 64.5055 14.2944 62.2333 14.2944C60.8333 14.2944 59.6833 14.6667 58.7833 15.4167C57.8833 16.1389 57.4333 17.0889 57.4333 18.2389C57.4333 19.3889 57.8555 20.2889 58.8333 20.8611C59.1055 21.0333 59.4556 21.2111 59.8556 21.3611C60.2556 21.4833 60.9056 21.6611 61.8278 21.8611C62.6 22.0333 63.1278 22.1333 63.35 22.2111C63.5778 22.2611 63.8 22.3111 63.9722 22.3833C64.8722 22.6833 65.2222 23.1556 65.2222 23.9333C65.2222 25.2333 64.0722 26.0056 62.35 26.0056C60.6278 26.0056 59.05 25.0556 58.35 23.5556L56.6 24.8278C57.5222 26.7278 59.7722 27.8778 62.3444 27.8778C63.7944 27.8778 64.9944 27.4778 65.9667 26.7056C66.9389 25.9333 67.4167 24.9333 67.4167 23.7333C67.4167 22.4611 66.9167 21.5611 65.8167 20.9333H65.8222ZM79.0278 16.3111C80.0389 17.5111 80.5833 19.1833 80.5833 21.0833C80.5833 22.9833 80.0389 24.6556 79.0278 25.8556C77.9444 27.1556 76.3611 27.8778 74.5889 27.8778C72.8167 27.8778 71.2333 27.1556 70.15 25.8556C69.1389 24.6556 68.5944 22.9833 68.5944 21.0833C68.5944 19.1833 69.1389 17.5111 70.15 16.3111C71.2333 15.0111 72.8167 14.2889 74.5889 14.2889C76.3611 14.2889 77.9444 15.0111 79.0278 16.3111ZM78.3389 21.0833C78.3389 18.0833 76.8611 16.1833 74.5889 16.1833C72.3167 16.1833 70.8389 18.1056 70.8389 21.0833C70.8389 24.0611 72.3167 25.9556 74.5889 25.9556C76.8611 25.9556 78.3389 24.0833 78.3389 21.0833ZM96.4389 14.2833C94.7389 14.2833 93.1944 15.1056 92.2667 16.5056C91.5667 15.0833 90.3167 14.2833 88.6444 14.2833C86.9722 14.2833 85.7 15.0056 84.8722 16.3056V14.5333H82.6222V27.5889H84.8722V19.7778C84.8722 18.8556 85.1944 18.0278 85.7222 17.4056C86.3222 16.7833 87.1444 16.3833 87.9722 16.3833C89.6444 16.3833 90.5667 17.5556 90.5667 19.5778V27.5889H92.8167V19.7778C92.8167 18.8556 93.1389 18.0278 93.6667 17.4056C94.2667 16.7833 95.0889 16.3833 95.9111 16.3833C97.5833 16.3833 98.5055 17.5556 98.5055 19.5778V27.5889H100.75V18.9778C100.75 16.1556 99.05 14.2833 96.4278 14.2833H96.4389ZM113.222 16.3056C114.244 17.5056 114.794 19.1778 114.794 21.0778C114.794 22.9778 114.244 24.65 113.222 25.85C112.122 27.15 110.528 27.8722 108.728 27.8722C106.928 27.8722 105.333 27.15 104.233 25.85C103.211 24.65 102.661 22.9778 102.661 21.0778C102.661 19.1778 103.211 17.5056 104.233 16.3056C105.333 15.0056 106.928 14.2833 108.728 14.2833C110.528 14.2833 112.122 15.0056 113.222 16.3056ZM112.522 21.0778C112.522 18.0778 111.022 16.1778 108.728 16.1778C106.433 16.1778 104.933 18.1 104.933 21.0778C104.933 24.0556 106.433 25.95 108.728 25.95C111.022 25.95 112.522 24.0778 112.522 21.0778ZM118.783 16.2556V14.6167H116.55V27.5833H118.783V20.4944C118.783 19.3778 118.728 18.1222 119.372 17.4278C119.822 16.9778 120.256 16.8111 121.222 16.8111C121.644 16.8111 123.272 16.8278 123.272 16.8278V14.6167H121.189C120.589 14.6167 119.4 14.8389 118.783 16.2556ZM135.783 16.3667C136.672 17.5833 137.167 19.2444 137.167 21.0333C137.167 22.8222 136.672 24.4833 135.761 25.7C134.75 27.0667 133.244 27.7833 131.544 27.7833C129.844 27.7833 128.339 26.9889 127.55 25.6222V31.9722H125.328V14.5333H127.55V16.4167C128.367 15.1 129.794 14.2833 131.544 14.2833C133.294 14.2833 134.778 15.0056 135.789 16.3667H135.783ZM134.922 21.0333C134.922 18.1278 133.489 16.2444 131.15 16.2444C129.006 16.2444 127.5 17.9056 127.5 20.5889V21.5056C127.5 24.1611 129.006 25.8222 131.15 25.8222C133.444 25.8222 134.922 23.9389 134.922 21.0333ZM145.294 14.35C143.711 14.35 142.328 15.0722 141.439 16.3611V9.75556H139.217V27.5889H141.439V19.8389C141.439 18.8444 141.761 18.0278 142.378 17.4056C143.022 16.7611 143.789 16.4389 144.678 16.4389C146.433 16.4389 147.372 17.5556 147.372 19.6167V27.5889H149.594V19.0167C149.594 16.1611 147.939 14.3444 145.294 14.3444V14.35ZM152.522 27.5889H154.717V14.5778H152.522V27.5889ZM162.928 25.9056C160.556 25.9056 159.011 24.0056 159.011 21.0833C159.011 18.1611 160.561 16.2333 162.928 16.2333C164.6 16.2333 165.772 17.2333 166.172 19.0056L168.117 18.0333C167.444 15.7333 165.494 14.2833 162.928 14.2833C161.106 14.2833 159.483 14.9833 158.389 16.2833C157.317 17.5056 156.767 19.1833 156.767 21.0833C156.767 22.9833 157.317 24.6556 158.389 25.8833C159.489 27.1833 161.111 27.8833 162.928 27.8833C165.5 27.8833 167.494 26.3833 168.167 24.0611L166.172 23.1389C165.772 24.9111 164.6 25.9111 162.928 25.9111V25.9056ZM152.228 12.6778H155.006V9.75556H152.228V12.6778ZM194.478 9.9H192.1V27.5889H203.356V25.5167H194.478V9.89444V9.9ZM228.678 16.5333C229.567 17.7444 230.061 19.3944 230.061 21.1722C230.061 22.95 229.567 24.6 228.656 25.8111C227.644 27.1667 226.139 27.8833 224.439 27.8833C222.739 27.8833 221.233 27.0944 220.444 25.7389V27.6111H218.222V9.89444H220.444V16.5778C221.261 15.2722 222.689 14.4556 224.439 14.4556C226.189 14.4556 227.672 15.1722 228.683 16.5278L228.678 16.5333ZM227.817 21.1722C227.817 18.2889 226.383 16.4111 224.044 16.4111C221.9 16.4111 220.394 18.0611 220.394 20.7278V21.6389C220.394 24.2778 221.9 25.9333 224.044 25.9333C226.339 25.9333 227.817 24.0611 227.817 21.1722ZM239.767 21.0056C239.494 20.8333 239.15 20.7111 238.783 20.5833C238.411 20.4611 237.7 20.2611 236.589 19.9889C235.333 19.7167 235.061 19.6167 234.739 19.5167C233.972 19.2222 233.656 18.8222 233.656 18.1556C233.656 16.9944 234.639 16.25 236.122 16.25C237.672 16.25 238.933 16.9944 239.622 18.35L241.2 17.0889C240.411 15.4833 238.467 14.4167 236.222 14.4167C234.844 14.4167 233.706 14.7889 232.822 15.5278C231.933 16.2444 231.489 17.1833 231.489 18.3222C231.489 19.4611 231.906 20.35 232.867 20.9167C233.139 21.0889 233.483 21.2611 233.878 21.4111C234.272 21.5333 234.911 21.7056 235.822 21.9056C236.589 22.0778 237.106 22.1778 237.328 22.25C237.55 22.3 237.772 22.35 237.944 22.4222C238.833 22.7167 239.178 23.1889 239.178 23.9556C239.178 25.2389 238.044 26.0056 236.344 26.0056C234.644 26.0056 233.089 25.0667 232.4 23.5833L230.678 24.8444C231.589 26.7222 233.806 27.8611 236.344 27.8611C237.772 27.8611 238.956 27.4667 239.917 26.7C240.878 25.9333 241.344 24.9444 241.344 23.7556C241.344 22.4944 240.85 21.6056 239.767 20.9889V21.0056ZM215.483 25.7056H216.622V27.6556H213.939C213.222 27.6556 212.817 27.2222 212.817 26.1833C211.994 27.25 210.3 27.8778 208.617 27.8778C207.378 27.8778 206.356 27.5278 205.539 26.8611C204.744 26.1667 204.344 25.2722 204.344 24.1556C204.344 21.9444 205.783 20.6333 209.261 19.9111L212.417 19.2667V18.7222C212.417 17.2111 211.55 16.3889 209.861 16.3889C208.272 16.3889 207.256 17.1111 206.856 18.6L204.744 18.0556C205.417 15.8444 207.378 14.4333 209.933 14.4333C212.939 14.4333 214.628 15.9444 214.628 18.6278V24.9556C214.628 25.5722 214.572 25.7111 215.489 25.7111L215.483 25.7056ZM212.411 21.0056L209.878 21.55C207.394 22.0444 206.55 22.7889 206.55 24.0556C206.55 25.3222 207.417 26.0667 208.883 26.0667C209.878 26.0667 210.722 25.7944 211.389 25.2722C212.061 24.7278 212.406 24.0556 212.406 23.2389V21.0056H212.411ZM253.533 5.55556V34.4444C253.533 37.5111 251.044 40 247.978 40H184.917C182.722 40 180.828 38.7222 179.922 36.8722C179.028 38.7389 177.122 40.0333 174.917 40.0333H45.55C43.3389 40.0333 41.4389 38.7389 40.5444 36.8722C39.6444 38.7222 37.75 40 35.5556 40H5.55556C2.48889 40 0 37.5111 0 34.4444V5.55556C0 2.48889 2.48333 0 5.55556 0H35.5556C37.7667 0 39.6667 1.29444 40.5611 3.16111C41.4611 1.31111 43.3556 0.0333333 45.55 0.0333333H174.9C177.094 0.0333333 178.989 1.31111 179.889 3.16111C180.783 1.29444 182.689 0 184.9 0H247.961C251.028 0 253.517 2.48889 253.517 5.55556H253.533ZM39.9944 34.4611V5.58889C39.9944 5.58889 39.9944 5.57778 39.9944 5.57222V5.55556C39.9944 3.10556 38 1.11111 35.55 1.11111H5.55556C3.10556 1.11111 1.11111 3.10556 1.11111 5.55556V34.4444C1.11111 36.8944 3.10556 38.8889 5.55556 38.8889H35.5556C38 38.8889 39.9889 36.9056 40 34.4611H39.9944ZM179.344 34.4444V5.58889C179.344 3.13889 177.35 1.14444 174.9 1.14444H45.55C43.1056 1.14444 41.1167 3.12778 41.1056 5.57222V34.4444C41.1056 34.4444 41.1056 34.4556 41.1056 34.4611V34.4778C41.1056 36.9278 43.1 38.9222 45.55 38.9222H174.9C177.35 38.9222 179.344 36.9278 179.344 34.4778V34.4444ZM252.411 5.55556C252.411 3.10556 250.417 1.11111 247.967 1.11111H184.906C182.456 1.11111 180.461 3.10556 180.461 5.55556V34.4444C180.461 36.8944 182.456 38.8889 184.906 38.8889H247.967C250.417 38.8889 252.411 36.8944 252.411 34.4444V5.55556Z" fill="#1E1E1E"/>
</svg>