<svg xmlns="http://www.w3.org/2000/svg" xmlns:xlink="http://www.w3.org/1999/xlink" version="1.1" id="layer" x="0px" y="0px" style="enable-background:new 0 0 652 652;" xml:space="preserve" viewBox="26.6 198.3 599.6 256.9">
<style type="text/css">
	.st0{fill:#FF7D7D;}
</style>
<rect x="121.2" y="198.3" class="st0" width="403.1" height="256.9"/>
<path d="M577.7,400.1c-0.3-0.7-0.7-4.9-0.7-6.9c0-2,0.3-3.9,0.8-5.8c1.1-4,2.2-6.8,5.3-9.7c0.2-0.2,1.4-1.3,1.6-1.5  c0.4-0.4,1.2-0.9,1.6-1.2c2.1-1.6,4.3-2.6,7.1-3.5c1.5-0.6,3.1-0.6,5-0.6c2.6,0,5.5,1.5,8.3,2.3c4,1.1,7.8,2.6,11.1,5.2  c0.6,0.5,3.9,3.6,4.1,3.8c2.3,2.4,2.8,3.7,3.7,6.4c0.3,0.9,0.6,2.2,0.6,3.4c0,3-0.9,6.8-2.3,10.5c-0.8,2.2-2.3,4.8-3.1,5.9  c-0.7,0.8-0.9,2.1-1.4,2.9c-1.8,2.5-3.7,4.5-5.5,5.2c-3.1,1.2-6.2,1.5-9.3,1.5c-3.6,0-5.9-1-9.2-2.3c-3.7-1.4-8.7-2.5-11.5-5.2  c-1.6-1.6-3.1-3.9-4.4-6.9C579.2,403.1,577.9,400.6,577.7,400.1 M362.8,409.5c5.5,4.3,10.8,4.7,16.8,6.3c4.2,1.1,9.3,2.2,15.1,2.2  c17.5,0,25.1-3.7,32.4-8c7.1-4.6,11.6-8.9,15.9-17.5l1.2-1.8c1.8-4,5.8-7.7,6.7-11.7c0.6-2.5,0.9-4.9,1.5-8c0.3-1.8,0.9-5.5,0.9-8.3  c0-2.8-0.3-5.5-0.6-8.3c-2.6-8.4-6.1-15.4-10.7-19.3c-4.6-4-13.5-10.2-18.7-14.1c-6.7-5-15.4-8.2-22.7-12.2c-4-2.1-7.7-5.2-11.6-7.4  c-2.1-1.5-7.4-3.3-9-16.3c-0.5-3.7-0.1-7.4,3.8-11.6c2.4-2.1,11-4.6,12-4.6c6.8,0,11,2,13.8,7.5c1.5,2.8,3.9,5.7,4.8,10.9  c0.6,3.7,1.2,7.4,5.2,7.4c1.5,0,1.3-1.2,4.3-0.6c4,0.8,7.1-1.6,8.3-1.8c2.9-0.5,6.9,1.8,11.1,1.8c2.8,0,3.2-2,4-2.9  c0.9-1,2.4-2.6,2.7-4.4c0.3-2.8,0.6-13.5-0.3-16c-0.9-2.4-6.9-17.7-12.6-23.5c-3.8-3.9-12-6.4-26.1-10.4c-3.8-1.1-12.7-2-16.8-2  c-5.5,0-23.2,4-34.3,12.3c-5.8,4.3-9.5,10.7-12.9,17.8c-3.1,6.4-6.1,13.5-6.1,19.6c0,8,0.2,17.7,3.3,23.2c0.9,2.1,2.7,5.5,3.7,6.8  c1,1.3,14,16.8,27.7,25.1c9.8,5.2,19.6,11.4,29.4,18.7c4.3,3.1,6.7,6.4,6.7,10.1c0,6.4-3.1,7.7-7,9.8c-2.1,0.9-4.6,1.5-7.1,2.1  c-2.5,0.6-4.9,1.2-7.4,1.2c-8.3,0-13.2-5.2-15.6-9.8l-7.1-12.2c-0.9-1.8-3.5-3.1-3.6-0.8c0,1-0.5,1.2-0.6,1.2  c-2.1-1-5.3,0.1-4.9,0.7c1.5,2.5,0.7,2.1-1.5,2.7c-0.7,0.2-4.6-0.4-4.6,0.3c0,0.8-0.9,1.9-3.7,0.4c-0.4-0.2-1.9,1-3.9,0.3  c-1.1-0.4-2.6,3.7-3.1,3.7c-1.9,0-4.5-4.1-4.4,0.4c0,3.7,0.9,6.1,1.7,8.1c0.7,2,4,8.9,5.2,11.7C347.7,396.5,354.8,403.7,362.8,409.5   M61.7,415.1c2.8,1.2,11.1,2.5,17.7,2.5c3.1-0.3,6.4-0.3,9.3-1.5c5.1-2.2,32.8-13.1,37.6-22.9c4.8-9.9,10.2-21.7,10.2-41.2  c0-4-0.3-17-0.3-26.6c0-14.9,0.3-22.6,0-31c0.3-9.6-1.2-20.5-1.2-29.5c0-9.3,2.9-21-2-26c-0.6-0.6-3-1-5.2-1.7  c-2.5-0.8-5.2-2-6.3-2.1c-5.8-0.3-8.9,1.2-16,4.2c-2.9,1.2-4.3,2.6-8.5,3.1c-3.1,0.3-4.8,2.2-5,3c-0.6,1.9-1.2,6.4-1.2,9.2  c0,9.6,1.2,16.3,1.2,24v17.9c0,4.6,0.2,8.7,0.2,14.5c0,10.8,2,22.9,1.4,31.9c-0.6,10.2-0.7,18.6-1.8,25.8c-1,6.6-3.7,8.6-13.3,11  h-1.9c-8.4,0-11.8-8.1-13.6-13.9c-1.9-5.9-2.2-11.8-2.5-14.6c-0.9-7.5-5.5-6.9-7.8-5.2c-0.9,0.8-1.9-0.1-2.4,1  c-0.3,0.5-0.7,1.6-1.6,1.9c-0.4,0.1-0.4,0-1.9-0.4c-1.6-0.4-3.9,5.3-4.6,5.2c-0.9-0.1-1.7-0.4-1.7-2c0-1.7-4.9,2.3-5.6,2.3  c-1.2,0-1.1-1.8-2.3-1.2c-0.8,0.3-1.5,1.8-2.7,1.8c-1.8,0-2.2-0.4-2.8,0.5c-0.6,1-0.6,1.7-0.3,4.5c1.5,26.6,7.1,35.9,18.2,46.4  c2.2,2.2,9.6,5.3,13.3,7.1C58.6,413.6,58.9,413.9,61.7,415.1 M175.1,293.9c-0.3,7.1-0.9,13.9-0.9,21.4c0.3,6.5,0,13.3,0.3,19.8  c0.6,9.3,1.2,19.2,1.9,22.3c0.3,6.2,0.9,11.5,1.5,15.8c0.9,4.3,0.9,6.8,1.2,7.1c5,12.1,9,17,9,17c8.1,10.8,17,13.9,31,18.9  c4.3,1.6,12.7,2.8,20.1,2.2c10-0.8,25.2-5.3,36.3-8.4c12-3.4,20.4-14.2,25-26.6c2.2-5.6,5.3-17.7,6.2-29.1  c0.9-11.1,0.6-27.6,0.6-31.6c0,0.3,0.3-9.6,0.9-20.4c0.6-9.3,1.2-19.2,1.2-26.3l-0.9-8.1c0.3-3.1,0.3-6.5,0.3-9.9v-3.7  c0-0.6-0.3-1.8-0.3-2.5c0-0.7,0.5-0.8,0.3-2.8c0,0-0.6-3.1-0.9-4.5c-0.1-0.6-3.7-2.5-4.5-2.7c-6.4-2-8.6-2.4-10-2.6  c-1.6-0.2-1.6-0.2-2.5,0.6c-1.5,1.4,0.6,2-1.6,2c-0.7,0-1.3-1-2.3-0.8c-0.6,0.1-1.6,1.1-3.2,1.4c-2.1,0.4-2.4,0.5-2.6-0.3  c-0.7-2.8-1.8,1.2-6.5,1.1c-0.8,0-0.7,0.3-1.7,1.2c-0.7,0.6-3.1-1.2-3.7-0.7c-3.2,3.2-5.3,8.3-5.3,9.9c0,1.6,0,4.5,0.3,9.8v13.6  c0,9.6-0.3,18.9-0.3,28.5c-0.3,7.1-0.3,13.9-0.6,21.1c-0.3,5.9-0.8,12-0.8,17.9c0,24.7,0.5,28.9-21.9,35.7  c-7.7,2.3-14.7-1.3-19.1-12.5c-1.5-6.1-2.3-10.4-2.8-16.3c-0.2-2.5-0.2-5.2-0.3-7.7c0-6-0.1-9.9-0.1-13.3l-0.5-26.6  c0-5,0-10.8-0.3-16.1c-0.3-5.6-0.1-11.5,0.2-17l0.6-15.2c0-1.5,0-4.3,0-4.3c-0.3-4-0.9-6.5-4.3-8.4c-2.5-1.2-2.4-1.3-5.2-2.1  c-2.8-0.8-4.4-3.9-10.9-2.2c-1,0.2-5.2,1.5-10.2,0.4c-2.1-0.5-4.4,0.1-5.6,1.2c-0.7,0.6-4.8,2.9-5.6,7.7c-0.7,4.8-1.9,11.5-1.9,19.5  C174.8,270.4,175.4,285.6,175.1,293.9 M550.9,369.9c0.3-8.1,0.4-11.7,0.4-19.7c0-8.4,1.7-57.8,1.7-61.8c0-4,0.6-8.9,0.6-12.9  l14.9-0.7l19.2-1.5c2.8,0,4.7-3.4,4.7-5.9V262c0-1.2,0.9-2.2,0.9-3.1c0-1.9-2.8-5.9-1.2-7.7c1.2-1.5,1.2-3.7,0.6-4.3  c-1.5-1.6-0.9-1.6-0.6-2.5c0.9-2.8-0.6-2.5-1.9-3.7c-1.5-1.5-2.5-2.8-8.1-2.8c-2.5,0-5,0.3-7.4,0.3c-7.1,0-10.5-0.3-17.7-0.3  c-5.9,0-37.5-0.1-37.5-0.1c-11.2-0.5-16.3,0.6-28.7,0c-8.4-0.3-11.5-0.3-13,0.3c-1.9,0.9-4,2.5-5.3,5.9c-0.6,1.2,0.2,4.7-0.4,6.9  c-0.3,1.9-0.6,5.2-0.9,6.4c-0.8,2.7,0.9,2.8,0.9,4.6c0,1.9-1.2,2.5-0.6,4.7c0.9,5,3.7,4.4,7.4,5c4.6,0.6,24.8,1.5,30.2,2.3  c0,5.6-0.3,12.7-0.3,18.9c0,2.5,0.3,5.7,0.3,10.4c0,3.7-0.3,12.8-0.3,17.1l0.6,14.8c0,5.9,0.6,7.4,0.6,12.7c0,4.6-0.6,8.4-0.6,13  c0,4.6,0.3,6.5,0.3,11.2c0,2.5,1.1,13.1,1.4,15.9c0.3,2.8,0.3,5.3,0.3,8.1c0,2.2,1.4,19.9,1.5,20.9c0.3,2.5,3.2,1.1,5-0.3  c1.4-1.1,0.4-1.4,1.2-1.4h0.2c1.5,0,2.6,2.7,4.7,2.8c1,0,0.5-3.8,1.2-3.8c0.6,0,2.5,0.2,3.8,1c0.3,0.2,0.2,1.3,0.6,1.3  c4.2,0,5.9-1.1,7-1.5c2.8-1.2,5.7-4.2,6.2-4.3c0.7-0.2,2.2,2.4,2.7,1.9c1.5-1.4,2.8-4.3,2.8-5.2c0-0.9,0.4-2.6,0.4-2.6  c0.9-2.5,1.8-6.8,1.8-9.9c0.3-3.1-0.1-6.1-0.1-9.2c0-2.2,0.5-7.3,0.5-9.5V369.9"/>
</svg>