<svg xmlns="http://www.w3.org/2000/svg" height="46.519295" width="400.00003" id="svg61" xml:space="preserve" viewBox="0 0 400.00002 46.519295" y="0" x="0" version="1.1">
  <style id="style2" type="text/css">
    .st1{fill:#ff8000}.st4{display:inline;opacity:.5;fill:#446cb2}
  </style>
  <path style="stroke-width:.776396" id="House_1_" class="st1" d="M46.165162 22.599262c-1.5295-2.554343-3.21428-5.01552-5.054339-7.360236l-.04658-.06211-.01553-.01553c-.09317-.116459-.33385-.41149-.419254-.527949-.838508-1.149067-1.824531-10.3493627-1.940991-11.0248267-.139751-.799689-.364906-1.630433-1.521736-1.754656-.93944-.100932-2.329189-.256211-3.866454-.33385-.714284-.03882-1.079191.349378-1.265526.698756-.131987.240683-.186335.512422-.186335.78416-.02329 1.180123.0078 1.754656.0078 1.902171 0 .01553 0 .03106-.0078.04658-.01553.0854-.06211.147515-.124223.201863-.131988.108696-.326087.100932-.465838-.0078-.729812-.551241-4.52639-3.439435-6.630424-4.73601705-.100932-.05435-.201863-.108696-.302795-.155279-.768632-.341615-1.661488-.357143-2.3913.06211-.05435.03106-.100932.06211-.147515.09317C21.095329.84460025 9.2552858 7.5681923.29567279 22.521584c0 0-.559006.78416-.139752 1.513972.403727.838508 4.31676401 1.079191 4.94564501 1.149067.70652.07764.698756.652173.698756.652173.06988 6.141294.178571 9.114892 1.180123 19.526366 0 0 .163043 1.086955 1.23447 1.141302.434782.02329 2.0496862-.06987 6.3431572-.170807.163043.01553.310559-.100931.326087-.263974v-.07764c-.41149-4.246888-.543478-7.927006-.551242-8.136633-.0078-.155279-.147515-.380434-.287266-.434782-1.583849-.908384-2.523288-2.492232-2.538816-4.316763-.11646-8.408372.395962-14.867989.395962-14.867989s.04658-.892855.838508-.82298c.78416.06988.737576.954968.737576.954968-.279502 3.62577-.388198 10.155263-.388198 10.155263s0 1.242234 1.187887 1.242234c1.187886 0 1.187886-1.242234 1.187886-1.242234-.03882-5.108688.395962-10.248431.395962-10.248431s0-.869564.838508-.869564c.458074 0 .628881.310559.698757.56677.03882.131987.04658.271738.03106.41149-.349378 4.425458-.388198 10.131971-.388198 10.131971s0 1.242234 1.187887 1.242234c1.187886 0 1.187886-1.343166 1.187886-1.343166-.02329-4.239123.395962-10.131971.395962-10.131971.03882-.458074.263975-.8618.830744-.8618.698757.02329.753104.690993.737576.8618-.37267 4.596266-.380434 11.645944-.364906 14.666126.05435 1.816767-.869564 3.524839-2.414592 4.472042-.139751.09317-.217391.263975-.201863.434782.100931 2.795027.33385 5.900612.535713 8.121105.0078.147515.124224.271739.271739.287267 1.187886 0 3.470491-.01553 4.89906-.01553 2.298133 0 3.214281.01553 4.899061.03882.186335 0 .279503-.139752.29503-.333851.434782-4.021733.590062-6.940983.60559-7.197193.02329-.287267-.326087-.341615-.326087-.341615-.527949-.06987-1.762419-.217391-2.810554-.388198-1.048135-.170807-1.086955-1.366457-1.086955-1.366457-.885092-12.554328 5.737568-20.380402 5.737568-20.380402s.659937-.869564 1.576085-.52795c.807452.302795 1.017079 2.62422 1.032607 2.763971.885091 10.395946-.11646 22.515492-.690993 27.461136-.02329.201863.06988.364906.256211.403726.225155.03882 4.208068.170807 4.572974.131987.644409-.06988 1.164594-.559005 1.265526-1.203414 1.413041-9.728245 1.19565-19.479782 1.19565-19.479782.03106-.349379.302795-.621117.652173-.652173l3.812106-.41149c.496893-.06988.923911-.271739 1.149066-.698757.201863-.465837.186335-1.024843-.07764-1.467389"/>
  <path style="stroke-width:.776396" class="st1" d="M66.413577 15.922254h-6.001543c-1.948755 0-1.948755 0-2.352481 2.274841-.403726 2.274842-.403726 2.352481 1.381986 2.352481h3.571422l-2.026394 11.59936c-.489129 2.593164-1.622668 4.378875-5.108687 5.434774-.892856.240683-1.133539.56677-1.133539.970496 0 .489129.163043.892855.566769 1.863351.56677 1.381985.892856 1.622668 1.381986 1.622668.489129 0 1.381985-.240683 1.700308-.326087 4.945644-1.622668 6.972038-5.434773 7.787254-9.976692l2.274841-13.058985c.388198-2.756207.388198-2.756207-2.041922-2.756207" id="path7"/>
  <path style="stroke-width:.776396" class="st1" d="M86.770685 15.922254c-2.43012 0-2.43012 0-2.7562 2.026395l-1.78572 10.543461c-.48913 3.082293-1.29658 4.868005-4.30123 4.868005-2.91925 0-3.97515-1.785712-3.48602-4.541919l1.70031-10.054331c.48913-2.841611.40372-2.841611-2.1118-2.841611-2.430121 0-2.515524 0-2.841611 1.948755L69.402703 28.41447c-1.055899 6.001544 2.678567 9.73601 7.950302 9.73601 5.9239 0 8.92079-2.678568 9.89905-9.006197l1.78571-10.465822c.41149-2.756207.24845-2.756207-2.26708-2.756207" id="path9"/>
  <path style="stroke-width:.776396" class="st1" d="M97.880915 33.197071c1.94876-.07764 3.004655-.970495 3.004655-1.863351 0-1.133538-1.381985-1.537264-3.245335-2.111798-3.64906-1.133538-6.97204-2.43012-6.97204-6.327629 0-4.619558 3.81211-7.135082 8.59471-7.135082 2.026385 0 4.301225.07764 5.760855.240683 1.29658.163043 1.62267.566769 1.21894 2.593164-.40373 2.026394-.89285 2.189437-2.02639 2.111797-1.38199-.07764-3.15994-.240682-5.271725-.240682-2.43012 0-3.15994.892855-3.15994 1.700307 0 1.055899.9705 1.622669 3.24534 2.274841 4.215825 1.218943 6.972035 2.91925 6.972035 6.568313 0 4.301235-3.15993 6.816759-8.276385 6.972038-2.7562.07764-5.19409-.07764-7.29812-.403726-1.62267-.240682-1.70031-.240682-1.29658-2.593163.40372-2.111798.40372-2.274841 1.94875-2.111798 2.98913.326086 4.86024.41149 6.80123.326086" id="path11"/>
  <path style="stroke-width:.776396" class="st1" d="M124.41037 15.922254h-13.71115c-1.94876 0-1.94876 0-2.35249 2.352481-.40372 2.352481-.32608 2.352481 1.38199 2.352481h4.46428l-2.51553 14.51861c-.48912 2.84161-.40372 2.84161 2.1118 2.84161 2.35248 0 2.43012 0 2.75621-2.026394l2.59316-15.326062h4.30124c1.94875 0 1.94875 0 2.35248-2.352481.39596-2.360245.39596-2.360245-1.38199-2.360245" id="path13"/>
  <path style="stroke-width:.776396" class="st1" d="M148.57959 20.549576c1.94875 0 1.94875 0 2.35248-2.352481.40373-2.35248.40373-2.35248-1.38199-2.35248h-9.81364c-3.48602 0-3.40838 0-3.97515 3.486019l-2.51553 14.681653c-.65217 3.812106-.56677 3.812106 2.91925 3.812106h9.57297c2.02639 0 1.94875 0 2.35248-2.274841.40373-2.352481.40373-2.352481-1.38199-2.352481h-8.27638l.65217-4.215831h6.8944c1.86335 0 1.86335 0 2.18944-2.189438.32609-2.274841.32609-2.274841-2.18944-2.274841h-6.08694l.65217-3.975149z" id="path15"/>
  <path style="stroke-width:.776396" class="st1" d="m158.96001 28.329067 3.15993-6.972039c.24068-.566769.24068-.566769.65217-.566769.40373 0 .40373 0 .48913.652173l.9705 6.894399h-5.27173zm8.5947-9.728245c-.48913-2.756207-.48913-2.756207-4.37887-2.756207-3.64906 0-3.57142 0-4.70496 2.274841L150.2799 35.23123c-1.21894 2.43012-.9705 2.678567 2.02639 2.678567 2.35248 0 2.35248 0 3.32298-2.189438l1.29658-2.91925h7.9503l.40372 2.91925c.32609 2.189438.40373 2.189438 2.75621 2.189438 2.67857 0 2.91925-.163043 2.43012-2.841611z" id="path17"/>
  <path style="stroke-width:.776396" class="st1" d="M186.94133 15.922254h-13.7888c-1.94875 0-1.94875 0-2.35248 2.352481-.40373 2.352481-.32609 2.352481 1.38199 2.352481h4.46427l-2.51552 14.51861c-.48913 2.84161-.40373 2.84161 2.1118 2.84161 2.35248 0 2.43012 0 2.75621-2.026394l2.59316-15.326062h4.30123c1.94876 0 1.94876 0 2.35248-2.352481.48137-2.360245.48137-2.360245-1.30434-2.360245" id="path19"/>
  <path style="stroke-width:.776396" class="st1" d="M204.30155 20.510756h-5.21738c-.36491 0-.6677-.29503-.6677-.6677v-3.121113c0-.364907.29503-.667701.6677-.667701h16.34314c.3649 0 .6677.29503.6677.667701v3.121113c0 .364906-.29503.6677-.6677.6677h-5.21738c-.18634 0-.33386.147516-.33386.333851v16.141278c0 .364906-.29503.667701-.6677.667701h-3.9208c-.3649 0-.6677-.295031-.6677-.667701V20.844607c.0155-.178571-.13199-.333851-.31832-.333851z" id="path23"/>
  <path style="stroke-width:.776396" class="st1" d="M212.71769 33.034028c0-2.989125 2.22825-4.681669 6.84005-4.914588l4.08384-.201863v-.06988c0-1.925463-1.42857-2.686331-3.28416-2.686331-1.31987 0-2.58539.388198-3.34626 1.024843-.17081.139751-.41926.124223-.5823-.02329-.52019-.504657-1.59161-1.545028-2.21273-2.142854-.27174-.263974-.27174-.698756 0-.954967 1.35869-1.281054 3.63353-2.220493 6.63819-2.220493 4.88353 0 7.70185 2.686331 7.70185 6.739119v9.402161c0 .364906-.29503.667701-.6677.667701h-3.28416c-.3649 0-.6677-.295031-.6677-.667701v-.931675h-.0699c-.99379 1.296581-2.75621 1.995338-4.91459 1.995338-3.51708 0-6.23446-1.824531-6.23446-5.01552zm10.92389-1.389749v-.11646c0-.194099-.16304-.341614-.34938-.33385l-3.10558.178571c-1.66149.100932-2.52329.597825-2.52329 1.591613 0 1.125774 1.09472 1.630432 2.42236 1.630432 2.02639 0 3.55589-1.125775 3.55589-2.950306z" id="path25"/>
  <path style="stroke-width:.776396" class="st1" d="M234.61206 37.653586h-3.58695c-.36491 0-.6677-.295031-.6677-.667701v-22.08071c0-.364906.29503-.667701.6677-.667701h3.58695c.36491 0 .6677.295031.6677.667701v11.746876c0 .302794.36491.45031.57453.225155l5.10869-5.42701c.12422-.131988.3028-.209627.48137-.209627h4.16925c.58229 0 .88509.690993.48912 1.11801l-5.35713 5.791917c-.10869.116459-.11646.29503-.0233.427018l5.95496 8.020173c.32608.434782.0155 1.063663-.53572 1.063663h-4.23135c-.20963 0-.40373-.09317-.52795-.256211l-3.81987-4.953408c-.24845-.318322-.71429-.349378-.99379-.06211l-1.09472 1.094719c-.12422.124223-.1941.295031-.1941.473602v3.043473c0 .349378-.30279.652173-.6677.652173z" id="path27"/>
  <path style="stroke-width:.776396" class="st1" d="M245.73782 29.447077c0-4.021732 2.46117-8.60247 8.40061-8.60247 5.97825 0 8.29967 4.580738 8.29967 8.60247 0 .310559-.0388.745341-.0932 1.118011-.0466.326086-.32608.574533-.65993.574533h-10.50464c-.24069 0-.40373.248447-.3028.465838.64441 1.467389 2.18168 2.127326 3.68788 2.127326 1.21895 0 2.4146-.349378 3.18323-.923912.25621-.194099.62888-.163043.8618.06988l2.06521 2.003102c.27174.263975.27174.690993 0 .954968-1.3354 1.281054-3.59471 2.220493-6.28104 2.220493-5.93167-.0078-8.65682-4.588502-8.65682-8.610235zm5.3416-1.723599h6.08695c.22516 0 .38044-.217391.31832-.434782-.50465-1.64596-1.809-2.321425-3.34626-2.321425-1.56056 0-2.87267.675465-3.37733 2.321425-.0621.209627.0932.434782.31832.434782z" id="path29"/>
  <path style="stroke-width:.776396" class="st1" d="M279.50329 21.248333h4.00621c.29503 0 .55124.186335.63664.465838l3.01242 9.759301h.0699l3.06676-9.767065c.0854-.279503.34161-.465838.63665-.465838h4.10713c.28727 0 .54348.186335.62888.458074l3.13664 9.767065h.0699l3.01242-9.759301c.0854-.279503.34161-.465838.63664-.465838h4.00621c.45807 0 .78416.458074.62111.892856l-5.46583 15.077615c-.0932.263975-.34161.434782-.62111.434782h-4.23913c-.2795 0-.53571-.178571-.62888-.45031l-2.91148-8.400607c-.10094-.302795-.52795-.295031-.62888 0l-2.82609 8.392843c-.0932.271739-.34161.45031-.62888.45031h-4.23912c-.2795 0-.52795-.178571-.62112-.434782l-5.46583-15.077615c-.15528-.419254.16304-.877328.62888-.877328z" id="path31"/>
  <path style="stroke-width:.776396" class="st1" d="M324.0762 43.344571v-3.012418c0-.395962.34162-.698757.73758-.659937.25621.03106.53571.04658.79192.04658 1.64596 0 2.3059-.551241 2.87267-1.793475.0776-.163044.0854-.357143.0155-.52795l-5.98602-15.240659c-.17081-.434781.14752-.908383.62112-.908383h3.93633c.2795 0 .52795.178571.62888.442546l3.56366 9.984456h.0699l3.56366-9.984456c.0932-.263975.34162-.442546.62888-.442546h3.80435c.46583 0 .79192.473602.62111.908383l-6.118 15.49687c-1.66149 4.15372-3.2531 6.444089-7.74067 6.444089-.45808 0-.9705-.03106-1.42857-.09317-.34161-.05435-.5823-.33385-.5823-.659936z" id="path33"/>
  <path style="stroke-width:.776396" class="st1" d="M341.0094 29.447077c0-4.083844 2.59317-8.60247 8.36956-8.60247 2.35248 0 4.2857.830744 5.57452 2.05745.27174.256211.26398.690993 0 .954967l-1.02484.986024c-.24845.240682-.63665.248446-.89286.02329-1.02484-.900619-2.35248-1.304345-3.65682-1.304345-3.09006 0-5.38043 2.492232-5.38043 5.877319 0 3.385088 2.29037 5.87732 5.38043 5.87732 1.39751 0 2.62422-.41149 3.73446-1.296582.26398-.209627.64441-.201863.89286.03882l1.00931.993787c.27174.271739.26398.714285-.0233.970496-1.36646 1.242234-3.22981 2.026394-5.61334 2.026394-5.78416 0-8.36956-4.518626-8.36956-8.602471z" id="path35"/>
  <path style="stroke-width:.776396" class="st1" d="M355.74541 29.447077c0-4.021732 2.72515-8.60247 8.50154-8.60247 5.77638 0 8.50153 4.580738 8.50153 8.60247 0 4.021733-2.72515 8.602471-8.50153 8.602471-5.77639 0-8.50154-4.580738-8.50154-8.602471zm8.5093 5.947196c3.19099 0 5.51241-2.523288 5.51241-5.947196 0-3.423907-2.32142-5.947195-5.51241-5.947195s-5.51241 2.523288-5.51241 5.947195c0 3.423908 2.32142 5.947196 5.51241 5.947196z" id="path37"/>
  <path style="stroke-width:.776396" class="st1" d="M374.68171 21.248333h1.45963c.3649 0 .6677.29503.6677.667701v.993787h.0699c.8618-1.226706 2.59317-2.05745 4.85248-2.05745 2.33695 0 4.19254.830744 5.35713 2.329189.13199.170807.3882.178571.52795.0078 1.22671-1.5295 3.17546-2.329188 5.6444-2.329188 4.1149 0 6.73912 2.523288 6.73912 6.909926v9.231352c0 .364906-.29503.667701-.6677.667701h-1.59161c-.36491 0-.6677-.295031-.6677-.667701v-8.68011c0-3.121113-1.49845-4.852477-4.25465-4.852477-2.6941 0-4.34782 1.7236-4.34782 4.852477v8.664545c0 .364906-.29503.667701-.6677.667701h-1.59161c-.36491 0-.6677-.295031-.6677-.667701v-8.664582c0-3.121113-1.49845-4.852477-4.25466-4.852477-2.69409 0-4.34782 1.7236-4.34782 4.852477v8.664582c0 .364906-.29503.667701-.6677.667701h-1.59161c-.36491 0-.6677-.295031-.6677-.667701V21.90827c.008-.364907.30279-.659937.6677-.659937z" id="path39"/>
  <path style="stroke-width:.776396" class="st1" d="M262.86512 33.034028c0-2.989125 2.22826-4.681669 6.84005-4.914588l4.08385-.201863v-.06988c0-1.925463-1.42857-2.686331-3.28416-2.686331-1.31987 0-2.5854.388198-3.34627 1.024843-.17081.139751-.41925.124223-.5823-.02329-.52018-.504657-1.59161-1.545028-2.21272-2.142854-.27174-.263974-.27174-.698756 0-.954967 1.35869-1.281054 3.63353-2.220493 6.63818-2.220493 4.88354 0 7.70185 2.686331 7.70185 6.739119v9.402161c0 .364906-.29503.667701-.6677.667701h-3.28415c-.36491 0-.6677-.295031-.6677-.667701v-.931675h-.0699c-.99379 1.296581-2.75621 1.995338-4.91459 1.995338-3.51707 0-6.23446-1.824531-6.23446-5.01552zm10.9239-1.389749v-.11646c0-.194099-.16305-.341614-.34938-.33385l-3.10559.178571c-1.66149.100932-2.52329.597825-2.52329 1.591613 0 1.125774 1.09472 1.630432 2.42236 1.630432 2.0264 0 3.5559-1.125775 3.5559-2.950306z" id="path41"/>
  <path style="stroke-width:.776396" class="st1" d="M306.60729 33.034028c0-2.989125 2.22825-4.681669 6.84005-4.914588l4.08384-.201863v-.06988c0-1.925463-1.42857-2.686331-3.28415-2.686331-1.31988 0-2.5854.388198-3.34627 1.024843-.17081.139751-.41926.124223-.5823-.02329-.52019-.504657-1.59161-1.545028-2.21273-2.142854-.27174-.263974-.27174-.698756 0-.954967 1.35869-1.281054 3.63354-2.220493 6.63819-2.220493 4.88353 0 7.70185 2.686331 7.70185 6.739119v9.402161c0 .364906-.29503.667701-.6677.667701h-3.28416c-.3649 0-.6677-.295031-.6677-.667701v-.931675h-.0699c-.99379 1.296581-2.75621 1.995338-4.91459 1.995338-3.50931 0-6.23446-1.824531-6.23446-5.01552zm10.93166-1.389749v-.11646c0-.194099-.16305-.341614-.34938-.33385l-3.10559.178571c-1.66149.100932-2.52329.597825-2.52329 1.591613 0 1.125774 1.09472 1.630432 2.42236 1.630432 2.0264 0 3.5559-1.125775 3.5559-2.950306z" id="path43"/>
  <circle style="stroke-width:.776396" class="st1" cx="338.72681" cy="35.992104" r="1.9720465" id="circle45"/>
</svg>
