<?xml version="1.0" encoding="UTF-8" standalone="no"?>
<svg
   xmlns:dc="http://purl.org/dc/elements/1.1/"
   xmlns:cc="http://creativecommons.org/ns#"
   xmlns:rdf="http://www.w3.org/1999/02/22-rdf-syntax-ns#"
   xmlns:svg="http://www.w3.org/2000/svg"
   xmlns="http://www.w3.org/2000/svg"
   viewBox="0 0 3999.9333 786.25336"
   height="786.25336"
   width="3999.9333"
   xml:space="preserve"
   id="svg2"
   version="1.1"><metadata
     id="metadata8"><rdf:RDF><cc:Work
         rdf:about=""><dc:format>image/svg+xml</dc:format><dc:type
           rdf:resource="http://purl.org/dc/dcmitype/StillImage" /></cc:Work></rdf:RDF></metadata><defs
     id="defs6" /><g
     transform="matrix(1.3333333,0,0,-1.3333333,0,786.25333)"
     id="g10"><g
       transform="scale(0.1)"
       id="g12"><g
         transform="scale(1.84049)"
         id="g14"><path
           id="path16"
           style="fill:#eb232c;fill-opacity:1;fill-rule:nonzero;stroke:none"
           d="m 16105.9,3188.36 h -1678.1 c -238.4,0 -238.4,0 -288.3,-282.7 -49.9,-282.71 -44.3,-282.71 166.6,-282.71 h 546.7 L 14548.2,859.341 c -55.5,-343.864 -50.5,-343.864 259.6,-343.864 283.4,0 300.2,0 338.9,244.016 l 320.8,1863.457 h 521.1 c 235.3,0 235.3,0 284.6,282.71 49.2,282.07 48.6,282.7 -167.3,282.7 M 5250.9,1079.64 c 236.55,13.72 360.7,115.45 360.7,231.53 0,138.54 -171.64,188.46 -399.39,255.24 -449.33,138.54 -848.73,295.81 -848.73,772.6 0.62,560.41 461.18,864.95 1043.44,864.95 244.02,0 524.21,-14.35 705.8,-31.2 162.89,-14.98 192.88,-73.02 151.04,-317.03 -41.83,-243.39 -98.61,-268.98 -233.41,-257.11 -167.89,14.35 -385.06,29.95 -638.41,26.83 -299.55,-3.74 -384.43,-105.47 -384.43,-210.31 0,-127.31 116.7,-199.7 393.79,-271.47 515.49,-149.77 853.72,-352.6 853.72,-796.31 0,-521.092 -388.16,-826.261 -1009.12,-850.601 -338.24,-13.105 -629.05,11.86 -886.79,49.297 -197.83,28.714 -204.7,32.458 -155.4,316.409 44.94,258.985 51.18,277.085 232.78,255.235 350.1,-42.43 577.89,-51.79 814.41,-38.06 M 1424.75,3188.36 H 690.218 c -240.264,0 -240.264,0 -289.567,-278.33 -49.301,-278.34 -43.059,-287.08 169.745,-287.08 H 1006 L 763.857,1211.94 C 709.566,894.915 567.898,682.106 141.664,551.048 33.0775,518.601 0,474.916 0,425.615 0,371.32 21.8416,316.405 65.529,201.577 131.056,32.4536 174.739,0 234.65,0 294.559,0 403.773,33.0733 441.84,43.6832 1047.81,240.268 1288.08,704.574 1386.05,1261.24 l 273.96,1588.25 c 59.92,333.25 59.92,338.87 -235.26,338.87 m 2476.29,0 c -292.06,0 -297.68,-1.87 -339.49,-244.64 L 3340.63,1659.4 c -61.16,-371.32 -161.63,-589.74 -522.34,-589.74 -360.72,0 -483.65,216.55 -428.12,549.17 l 209.69,1227.54 c 55.55,343.86 45.56,341.99 -259.61,341.99 -297.68,0 -305.79,2.49 -344.49,-241.52 L 1774.84,1658.15 C 1648.16,928.616 2097.49,476.786 2740.28,476.786 c 720.8,0 1084,321.398 1205.7,1092.114 l 219.67,1276.22 c 59.28,343.24 45.55,343.24 -264.61,343.24 m 4588.16,0 H 6811.06 c -238.41,0 -238.41,0 -288.29,-282.7 -49.93,-282.71 -44.34,-282.71 166.59,-282.71 h 546.7 L 6931.52,859.341 c -55.53,-343.864 -50.58,-343.864 259.6,-343.864 283.35,0 300.2,0 338.88,244.016 l 320.79,1863.457 h 521.05 c 235.27,0 235.27,0 284.6,282.71 49.28,282.07 49.28,282.7 -167.24,282.7 m 2945,-565.41 c 235.8,0 236.5,2.5 284.5,282.71 48.7,282.07 48.1,282.7 -167.9,282.7 h -1197.5 c -421.28,0 -413.18,0 -485.55,-426.86 L 9560.06,976.043 c -77.37,-460.566 -72.97,-460.566 360.12,-460.566 h 1170.12 c 244,0 238.4,0 288.3,277.094 49.9,288.319 49.9,288.319 -171.6,288.319 h -1009.8 l 83,515.47 h 837.5 c 227.2,0 227.2,0 266.5,266.48 44.3,271.47 44.3,271.47 -266.5,271.47 h -748.8 l 83,488.02 h 982.3 z m 2305.2,232.78 c -61.1,332.63 -61.1,332.63 -532.3,332.63 -443.7,0 -438.1,0 -571,-271.47 L 11632.6,837.5 c -144.1,-299.558 -121.7,-321.393 249.6,-321.393 288.4,0 282.8,0 405.1,266.478 l 161,355.085 h 964.8 l 49.9,-355.085 c 38.7,-266.478 49.9,-266.478 338.3,-266.478 324.4,0 355.6,23.092 293.9,343.86 l -355.8,1995.763 z m -1047.7,-1181.36 388.1,848.73 c 33.1,72.4 33.1,72.4 77.4,72.4 49.9,0 49.9,0 61.2,-77.39 L 13335,1675 h -643.3 v -0.63" /></g></g></g></svg>