<svg xmlns="http://www.w3.org/2000/svg" fill="none" viewBox="-0.56 0.5 106.26 35">
<mask id="mask0_5805_34476" style="mask-type:luminance" maskUnits="userSpaceOnUse" x="0" y="0" width="106" height="36">
<path d="M105.7 0.5H0V35.5H105.7V0.5Z" fill="white"/>
</mask>
<g mask="url(#mask0_5805_34476)">
<mask id="mask1_5805_34476" style="mask-type:luminance" maskUnits="userSpaceOnUse" x="-1" y="0" width="33" height="36">
<path d="M31.0615 0.5H-0.560059V35.5H31.0615V0.5Z" fill="white"/>
</mask>
<g mask="url(#mask1_5805_34476)">
<path d="M24.6857 18.0232L31.0616 0.547485L13.5652 10.6931V25.3515L31.0616 35.4971L24.6857 18.0232Z" fill="#201E42"/>
<path d="M13.5652 1.55078H0.926514V18.0233L13.5652 10.6932V1.55078Z" fill="#201E42"/>
<path d="M0.926514 34.4938H13.5652V25.3515L0.926514 18.0233V34.4938Z" fill="#201E42"/>
</g>
<path d="M43.4614 7.48611H47.9106V16.8768L56.2158 7.48611H61.6141L53.9324 16.1367L62.1189 28.2237H56.7798L50.7883 19.3954L47.9116 22.6542V28.2237H43.4624V7.48611H43.4614Z" fill="#201E42"/>
<path d="M77.8686 24.6978V28.2227H75.7329C73.5677 28.2227 72.8853 27.1853 72.9153 25.7342C71.8478 27.4233 70.305 28.4004 67.9324 28.4004C64.6404 28.4004 62.2676 26.8308 62.2676 23.9275C62.2676 20.6979 64.6998 18.8611 69.2676 18.8611H72.293V18.12C72.293 16.7572 71.3144 15.8684 69.5642 15.8684C67.9324 15.8684 66.8354 16.6096 66.6574 17.7344H62.6235C62.9201 14.7718 65.6489 12.8166 69.6829 12.8166C73.9541 12.8166 76.4153 14.7126 76.4153 18.357V23.7488C76.4153 24.5482 76.7422 24.6968 77.3946 24.6968H77.8693L77.8686 24.6978ZM72.2923 21.6469H69.2375C67.488 21.6469 66.4795 22.3579 66.4795 23.6313C66.4795 24.6978 67.3391 25.3796 68.7338 25.3796C70.9288 25.3796 72.2629 24.0169 72.293 21.9431V21.6469H72.2923Z" fill="#201E42"/>
<path d="M80.1228 16.5213H77.6021V12.9964H80.1228V8.73035H84.306V12.9964H87.806V16.5213H84.306V23.1874C84.306 24.2539 84.7211 24.6978 85.818 24.6978H87.8942V28.2227H84.4838C81.5767 28.2227 80.1228 26.7705 80.1228 23.8683V16.5213Z" fill="#201E42"/>
<path d="M88.8132 20.6096C88.8132 15.9288 91.9863 12.8187 96.8506 12.8187C101.716 12.8187 104.889 15.9298 104.889 20.6096C104.889 25.2894 101.716 28.4005 96.8506 28.4005C91.9856 28.4005 88.8132 25.2904 88.8132 20.6096ZM100.647 20.6096C100.647 18.0317 99.1935 16.2251 96.8506 16.2251C94.5084 16.2251 93.0846 18.0327 93.0846 20.6096C93.0846 23.1865 94.5084 24.9941 96.8506 24.9941C99.1935 24.9941 100.647 23.1875 100.647 20.6096Z" fill="#201E42"/>
</g>
</svg>