<svg width="543" height="143" viewBox="0 0 543 143" fill="none" xmlns="http://www.w3.org/2000/svg">
<path d="M68.3752 74.1719H3.07227V139.523H68.3752V74.1719Z" fill="#002575"/>
<path d="M68.1847 2.88672H2.88184V68.2377H68.1847V2.88672Z" fill="#002575"/>
<path d="M74.3291 74.1719C110.362 74.1719 139.608 103.392 139.632 139.475H74.3291V74.1719Z" fill="#002575"/>
<path d="M74.3291 68.2377C110.386 68.2377 139.632 38.9704 139.632 2.88672H74.3291V68.2377Z" fill="#002575"/>
<path d="M68.1847 2.88672H2.88184V68.2377H68.1847V2.88672Z" fill="#002575"/>
<path d="M185.548 116.308C192.097 117.428 194.289 120.24 194.289 126.27V127.152C194.289 133.849 190.954 137.186 180.356 137.186C178.213 137.186 174.117 137.186 167.639 137.09L168.591 132.157C174.164 132.324 176.808 132.252 180.356 132.252C187.263 132.252 188.787 131.132 188.787 126.961C188.787 123.338 188.096 122.099 183.5 121.241L176.427 120.121C169.401 119.001 167.734 115.879 167.734 110.468V109.467C167.734 103.438 171.187 99.6719 181.357 99.6719C185.286 99.6719 187.334 99.6719 193.122 99.7672L192.169 104.701C187.191 104.534 184 104.605 180.856 104.605C174.688 104.605 173.212 105.726 173.212 109.682C173.212 113.019 173.902 114.401 178.237 115.068L185.548 116.308Z" fill="#002575"/>
<path d="M227.94 99.8168L226.94 104.75H214.532V137.092H209.03V104.726H195.932L196.932 99.793L227.94 99.8168Z" fill="#002575"/>
<path d="M230.751 122.074V99.7656H236.252V122.121C236.252 130.916 237.872 133.275 245.16 133.275C252.447 133.275 254.067 130.963 254.067 122.121V99.7895H259.568V122.097C259.568 132.37 257.115 138.066 245.183 138.066C233.252 138.066 230.751 132.346 230.751 122.074Z" fill="#002575"/>
<path d="M266.714 99.8164H280.217C292.625 99.8164 296.293 105.393 296.293 116.309V120.551C296.293 131.562 292.625 137.116 280.217 137.116H266.714V99.8164ZM272.215 132.158H280.217C287.815 132.158 290.53 130.109 290.53 120.17V116.667C290.53 106.633 287.815 104.726 280.217 104.726H272.215V132.158Z" fill="#002575"/>
<path d="M308.176 99.8164V137.068H302.675V99.8164H308.176Z" fill="#002575"/>
<path d="M314.56 120.813V116.046C314.56 105.297 317.013 98.8145 330.516 98.8145C343.758 98.8145 346.473 104.725 346.473 116.046V120.813C346.473 131.561 344.02 138.044 330.516 138.044C317.298 138.068 314.56 132.133 314.56 120.813ZM340.733 120.622V116.284C340.733 105.535 338.852 103.605 330.516 103.605C322.181 103.605 320.299 105.392 320.299 116.284V120.622C320.299 131.371 322.181 133.301 330.516 133.301C338.852 133.301 340.757 131.49 340.733 120.622Z" fill="#002575"/>
<path d="M368.86 116.308C375.409 117.428 377.6 120.24 377.6 126.27V127.152C377.6 133.849 374.266 137.186 363.668 137.186C361.524 137.186 357.428 137.186 350.95 137.09L351.903 132.157C357.476 132.324 360.119 132.252 363.668 132.252C370.574 132.252 372.099 131.132 372.099 126.961C372.099 123.338 371.408 122.099 366.812 121.241L359.738 120.121C352.713 119.001 351.045 115.879 351.045 110.468V109.467C351.045 103.438 354.499 99.6719 364.668 99.6719C368.598 99.6719 370.646 99.6719 376.433 99.7672L375.48 104.701C370.503 104.534 367.312 104.605 364.168 104.605C357.976 104.605 356.523 105.726 356.523 109.682C356.523 113.019 357.214 114.401 361.548 115.068L368.86 116.308Z" fill="#002575"/>
<path d="M181.738 32.2965L206.125 5.50781H219.629L192.145 35.2995L222.725 68.4516H207.268L181.738 39.9708V68.4516H169.901V5.50781H181.738V32.2965Z" fill="#002575"/>
<path d="M230.156 49.3585C230.156 57.8432 231.656 59.7737 240.182 59.7737C244.326 59.7737 249.28 59.869 257.044 59.6069L255.281 68.449C248.732 68.7112 245.255 68.6159 239.682 68.6159C222.963 68.6159 218.748 60.9177 218.748 47.8332V42.8997C218.748 28.7427 223.345 21.0684 240.039 21.0684C255.496 21.0684 260.188 28.3137 260.188 38.2045V39.706C260.188 47.8332 258.425 49.3347 253.21 49.3347L230.156 49.3585ZM230.156 40.9692H249.089V38.9672C249.089 32.1747 247.065 29.7914 239.635 29.7914C231.609 29.7914 230.108 32.0794 230.108 41.0169" fill="#002575"/>
<path d="M268.308 74.7173C274.929 74.9794 278.644 74.8841 282.884 74.8841C290.91 74.8841 293.839 72.6438 293.839 64.1114V63.2296C291.457 65.1601 289.076 66.6854 281.288 66.6854C269.88 66.6854 263.712 62.6099 263.712 51.6466V22.4746H275.191V49.3348C275.191 54.6496 275.715 57.4619 283.765 57.4619C292.243 57.4619 293.791 55.2216 293.791 48.5483V22.4746H305.27V64.2068C305.27 78.4353 299.174 84.1076 283.36 84.1076C278.406 84.1076 274.882 84.2029 266.403 83.9408L268.308 74.7173Z" fill="#002575"/>
<path d="M354.975 56.6039L363.358 22.4746H374.313L360.714 68.4491H349.235L341.186 36.3456L333.064 68.4491H321.395L307.986 22.4746H319.561L327.491 56.4133L336.256 22.4746H346.663L354.975 56.6039Z" fill="#002575"/>
<path d="M418.205 43.0665V47.857C418.205 64.8264 412.108 69.8552 396.294 69.8552C380.481 69.8552 374.312 64.8025 374.312 47.857V43.0665C374.312 26.0972 380.409 21.0684 396.294 21.0684C412.203 21.0684 418.205 26.0972 418.205 43.0665ZM406.535 42.8997C406.535 31.9364 404.678 30.268 396.294 30.268C387.887 30.268 385.958 31.9602 385.958 42.8997V48.1192C385.958 58.9872 387.816 60.6794 396.294 60.6794C404.773 60.6794 406.535 58.9872 406.535 48.1192V42.8997Z" fill="#002575"/>
<path d="M434.757 68.4503H423.254V38.2058C423.254 26.456 430.065 22.2852 441.806 22.2852C446.26 22.2852 449.142 22.2852 452.214 22.3805L450.332 31.9138C447.951 31.8185 444.76 31.747 442.902 31.747C435.495 31.747 434.733 34.4878 434.733 40.0648V68.4503H434.757Z" fill="#002575"/>
<path d="M473.435 68.4503C457.002 68.4503 451.977 62.6111 451.977 46.619V42.901C451.977 27.8145 457.049 21.1173 472.22 21.1173C477.245 21.1173 481.746 22.3566 483.961 24.1203V2.76562H495.44V60.1325C495.44 66.1385 493.154 68.4503 485.985 68.4503H473.435ZM483.937 59.2506V40.5176C483.937 32.1283 481.818 30.2693 473.601 30.2693C465.123 30.2693 463.575 32.3905 463.575 42.6388V46.4521C463.575 57.3201 465.266 59.2745 473.744 59.2745L483.937 59.2506Z" fill="#002575"/>
<path d="M524.996 40.6134C535.689 41.5905 538.237 47.4059 538.237 53.6025V54.9372C538.237 63.8509 532.141 68.6414 518.97 68.6414C514.517 68.6414 505.824 68.7367 498.822 68.4745L500.585 59.108C506.586 59.2034 514.017 59.2749 519.399 59.2749C525.305 59.2749 527.092 58.1547 527.092 54.818C527.092 52.244 526.21 50.8379 521.519 50.3612L511.802 49.5747C502.538 48.8835 499.084 43.1159 499.084 36.8477V35.6322C499.084 27.2429 504.3 22.3809 517.803 22.3809C522.829 22.3809 528.402 22.4762 537.237 22.5477L535.475 31.9142C525.043 31.652 520.447 31.7474 516.827 31.7474C511.611 31.7474 509.944 32.7245 509.944 35.5607C509.944 38.3969 510.73 39.374 515.684 39.803L524.996 40.6134Z" fill="#002575"/>
</svg>
