<svg xmlns="http://www.w3.org/2000/svg" viewBox="0 0 95 111" width="95" height="111" preserveAspectRatio="xMinYMid" aria-hidden="true" focusable="false">
<path fill="#1C2654" d="M6,70.6c-0.1,0-0.2,0-0.4,0c-0.1,0-0.3,0-0.4,0c-0.1,0-0.3,0-0.4,0c-0.1,0-0.2,0-0.3,0c0-0.1,0-0.2,0-0.2
	c0-0.1,0-0.1,0-0.2c0.3,0,0.6,0,0.9,0c0.3,0,0.6,0,0.9,0c0.3,0,0.6,0,0.9,0c0.3,0,0.6,0,0.9,0c0,0.1,0,0.2,0,0.2c0,0.1,0,0.1,0,0.2
	c-0.1,0-0.2,0-0.3,0c-0.1,0-0.2,0-0.4,0c-0.1,0-0.3,0-0.4,0c-0.1,0-0.3,0-0.4,0c0,0.5,0,0.9,0,1.4v1.2c0,0.3,0,0.6,0,0.9
	c0,0.3,0,0.6,0,0.9c-0.1,0-0.2,0-0.3,0c-0.1,0-0.2,0-0.3,0c0-0.3,0-0.6,0-0.9c0-0.3,0-0.6,0-0.9V72C6.1,71.5,6.1,71,6,70.6
	 M12.4,71.1c0-0.3,0-0.6,0-0.9c0.1,0,0.1,0,0.2,0c0.1,0,0.1,0,0.2,0c0.1,0,0.1,0,0.2,0c0.1,0,0.1,0,0.2,0c0,0.3,0,0.6,0,0.9
	c0,0.3,0,0.6,0,0.9v1.2c0,0.3,0,0.6,0,0.9c0,0.3,0,0.6,0,0.9c-0.1,0-0.2,0-0.3,0c-0.1,0-0.2,0-0.3,0c0-0.3,0-0.6,0-0.9
	c0-0.3,0-0.6,0-0.9v-0.6c-0.2,0-0.5,0-0.7,0c-0.2,0-0.5,0-0.7,0c-0.2,0-0.5,0-0.7,0c-0.2,0-0.5,0-0.7,0v0.6c0,0.3,0,0.6,0,0.9
	c0,0.3,0,0.6,0,0.9c-0.1,0-0.2,0-0.3,0c-0.1,0-0.2,0-0.3,0c0-0.3,0-0.6,0-0.9c0-0.3,0-0.6,0-0.9V72c0-0.3,0-0.6,0-0.9
	c0-0.3,0-0.6,0-0.9c0.1,0,0.1,0,0.2,0c0.1,0,0.1,0,0.2,0c0.1,0,0.1,0,0.2,0c0.1,0,0.1,0,0.2,0c0,0.3,0,0.6,0,0.9c0,0.3,0,0.6,0,0.9
	v0.2c0.2,0,0.5,0,0.7,0c0.2,0,0.5,0,0.7,0c0.2,0,0.5,0,0.7,0c0.2,0,0.5,0,0.7,0V72C12.4,71.7,12.4,71.4,12.4,71.1 M14.4,71.1
	c0-0.3,0-0.6,0-0.9c0.2,0,0.4,0,0.6,0c0.2,0,0.4,0,0.6,0c0.2,0,0.4,0,0.6,0c0.2,0,0.4,0,0.6,0c0,0.1,0,0.1,0,0.2c0,0.1,0,0.1,0,0.2
	c-0.1,0-0.3,0-0.4,0c-0.1,0-0.2,0-0.4,0c-0.1,0-0.3,0-0.4,0c-0.2,0-0.3,0-0.6,0c0,0.1,0,0.3,0,0.4c0,0.1,0,0.3,0,0.5
	c0,0.2,0,0.4,0,0.5c0,0.2,0,0.3,0,0.4c0.2,0,0.4,0,0.5,0c0.2,0,0.3,0,0.4,0c0.1,0,0.3,0,0.4,0c0.1,0,0.2,0,0.3,0c0,0.1,0,0.1,0,0.2
	c0,0.1,0,0.1,0,0.2c-0.1,0-0.3,0-0.4,0c-0.2,0-0.3,0-0.5,0c-0.2,0-0.3,0-0.4,0c-0.1,0-0.2,0-0.3,0c0,0,0,0.1,0,0.1c0,0,0,0.1,0,0.2
	v0.7c0,0.3,0,0.5,0,0.6c0,0.2,0,0.3,0,0.4h0.5c0.2,0,0.3,0,0.5,0c0.2,0,0.3,0,0.5,0c0.1,0,0.3,0,0.4-0.1c0,0,0,0.1,0,0.1
	c0,0,0,0.1,0,0.1c0,0.1,0,0.1,0,0.2c-0.2,0-0.4,0-0.6,0H15c-0.2,0-0.4,0-0.6,0c0-0.3,0-0.6,0-0.9s0-0.6,0-0.9V72
	C14.5,71.7,14.5,71.4,14.4,71.1 M20.8,72.4c0.1,0,0.2,0,0.2,0c0.1,0,0.3,0,0.4,0c0.2,0,0.3-0.1,0.4-0.2c0.1-0.1,0.2-0.2,0.3-0.3
	c0.1-0.1,0.1-0.3,0.1-0.5c0-0.2,0-0.3-0.1-0.4c-0.1-0.1-0.2-0.2-0.3-0.3c-0.1-0.1-0.2-0.1-0.3-0.1c-0.1,0-0.2,0-0.4,0
	c-0.2,0-0.3,0-0.4,0c-0.1,0-0.2,0-0.3,0c0,0.3,0,0.5,0,0.7c0,0.2,0,0.5,0,0.7v0.4C20.7,72.4,20.7,72.4,20.8,72.4 M20,71.1
	c0-0.3,0-0.6,0-0.9c0.1,0,0.3,0,0.4,0c0.1,0,0.3,0,0.4,0c0.1,0,0.3,0,0.4,0c0.1,0,0.3,0,0.4,0c0.2,0,0.4,0,0.5,0.1
	c0.2,0,0.3,0.1,0.5,0.2c0.1,0.1,0.2,0.2,0.3,0.3c0.1,0.1,0.1,0.3,0.1,0.5c0,0.2,0,0.4-0.1,0.6c-0.1,0.2-0.2,0.3-0.4,0.4
	c-0.1,0.1-0.3,0.2-0.5,0.2c-0.2,0.1-0.3,0.1-0.4,0.1c0.1,0.1,0.1,0.2,0.2,0.3c0.1,0.1,0.2,0.3,0.3,0.4c0.1,0.1,0.2,0.3,0.4,0.5
	c0.1,0.2,0.2,0.3,0.4,0.5c0.1,0.1,0.2,0.3,0.3,0.4c0.1,0.1,0.2,0.2,0.3,0.3c-0.1,0-0.1,0-0.2,0h-0.4c-0.1,0-0.1,0-0.2,0
	c-0.1-0.1-0.2-0.2-0.3-0.4c-0.1-0.2-0.3-0.4-0.5-0.6c-0.2-0.2-0.3-0.4-0.5-0.7c-0.2-0.2-0.3-0.4-0.5-0.5h-0.3v0.5c0,0.3,0,0.6,0,0.9
	c0,0.3,0,0.6,0,0.9c-0.1,0-0.2,0-0.3,0c-0.1,0-0.2,0-0.3,0c0-0.3,0-0.6,0-0.9c0-0.3,0-0.6,0-0.9V72C20,71.7,20,71.4,20,71.1
	 M28.2,71.6c-0.1-0.3-0.2-0.5-0.4-0.7c-0.2-0.2-0.4-0.3-0.6-0.4c-0.2-0.1-0.5-0.1-0.7-0.1c-0.3,0-0.5,0-0.7,0.1
	c-0.2,0.1-0.4,0.2-0.6,0.4c-0.2,0.2-0.3,0.4-0.4,0.7c-0.1,0.3-0.1,0.6-0.1,1c0,0.4,0,0.7,0.1,1c0.1,0.3,0.2,0.5,0.4,0.7
	c0.2,0.2,0.4,0.3,0.6,0.4c0.2,0.1,0.5,0.1,0.7,0.1c0.3,0,0.5,0,0.7-0.1c0.2-0.1,0.4-0.2,0.6-0.4c0.2-0.2,0.3-0.4,0.4-0.7
	c0.1-0.3,0.1-0.6,0.1-1C28.4,72.2,28.3,71.9,28.2,71.6 M24.1,71.5c0.1-0.3,0.3-0.6,0.5-0.8c0.2-0.2,0.5-0.4,0.8-0.5
	c0.3-0.1,0.7-0.2,1-0.2c0.4,0,0.7,0.1,1,0.2c0.3,0.1,0.6,0.3,0.8,0.5c0.2,0.2,0.4,0.5,0.5,0.8c0.1,0.3,0.2,0.6,0.2,1
	c0,0.4-0.1,0.7-0.2,1c-0.1,0.3-0.3,0.6-0.5,0.8c-0.2,0.2-0.5,0.4-0.8,0.5c-0.3,0.1-0.7,0.2-1,0.2c-0.4,0-0.7-0.1-1-0.2
	c-0.3-0.1-0.6-0.3-0.8-0.5c-0.2-0.2-0.4-0.5-0.5-0.8s-0.2-0.6-0.2-1C23.9,72.2,24,71.8,24.1,71.5 M30.6,72.7
	c-0.1-0.1-0.2-0.3-0.3-0.5c-0.1-0.2-0.2-0.4-0.3-0.6c-0.1-0.2-0.2-0.4-0.3-0.6c-0.1-0.2-0.2-0.3-0.3-0.5c-0.1-0.1-0.2-0.3-0.2-0.3
	c0.1,0,0.1,0,0.2,0c0.1,0,0.1,0,0.2,0c0.1,0,0.1,0,0.2,0c0.1,0,0.1,0,0.2,0c0.2,0.4,0.4,0.8,0.6,1.2c0.2,0.4,0.4,0.8,0.7,1.2
	c0.1-0.2,0.2-0.3,0.3-0.5c0.1-0.2,0.2-0.4,0.3-0.6c0.1-0.2,0.2-0.4,0.3-0.6c0.1-0.2,0.2-0.4,0.3-0.6c0.1,0,0.2,0,0.3,0
	c0.1,0,0.2,0,0.3,0c-0.2,0.3-0.4,0.6-0.6,0.9c-0.2,0.3-0.3,0.5-0.5,0.7c-0.1,0.2-0.2,0.4-0.3,0.6c-0.1,0.2-0.2,0.3-0.3,0.5
	c0,0.2,0,0.3,0,0.5c0,0.2,0,0.4,0,0.6c0,0.2,0,0.4,0,0.5c0,0.2,0,0.3,0,0.4c-0.1,0-0.2,0-0.3,0c-0.1,0-0.2,0-0.3,0
	c0-0.2,0-0.5,0-0.9c0-0.3,0-0.7,0-1.1C30.7,72.9,30.6,72.8,30.6,72.7 M34.3,72.8c0.1,0,0.2,0,0.4,0c0.1,0,0.3,0,0.4,0
	c0.1,0,0.3,0,0.4,0c0.1,0,0.3,0,0.4,0L35,71.1L34.3,72.8z M37.3,74.9c-0.1,0-0.1,0-0.2,0h-0.4c-0.1,0-0.1,0-0.2,0
	c0-0.1-0.1-0.2-0.1-0.4c-0.1-0.1-0.1-0.3-0.2-0.5c-0.1-0.2-0.1-0.3-0.2-0.5c-0.1-0.2-0.1-0.3-0.2-0.5c-0.1,0-0.3,0-0.4,0
	c-0.1,0-0.3,0-0.4,0c-0.1,0-0.3,0-0.4,0c-0.1,0-0.3,0-0.4,0c-0.1,0.4-0.3,0.7-0.4,1c-0.1,0.3-0.2,0.6-0.3,0.8c-0.1,0-0.2,0-0.3,0
	c-0.1,0-0.2,0-0.3,0c0.4-0.8,0.7-1.6,1.1-2.4c0.4-0.8,0.7-1.6,1.1-2.4h0.1c0.1,0.3,0.2,0.5,0.4,0.9c0.1,0.3,0.3,0.6,0.4,0.9
	c0.1,0.3,0.3,0.6,0.4,0.9c0.1,0.3,0.3,0.6,0.4,0.9c0.1,0.3,0.2,0.5,0.3,0.7C37.2,74.6,37.2,74.8,37.3,74.9L37.3,74.9z M38.2,71.1
	c0-0.3,0-0.6,0-0.9c0.1,0,0.1,0,0.2,0c0.1,0,0.1,0,0.2,0c0.1,0,0.1,0,0.2,0c0.1,0,0.1,0,0.2,0c0,0.3,0,0.6,0,0.9c0,0.3,0,0.6,0,0.9
	c0,0.6,0,1.1,0,1.5c0,0.4,0,0.8,0,1.1c0.3,0,0.6,0,0.9,0c0.3,0,0.6,0,1-0.1c0,0.1,0,0.1,0,0.2c0,0.1,0,0.1,0,0.2c-0.2,0-0.4,0-0.6,0
	h-1.3c-0.2,0-0.4,0-0.6,0c0-0.3,0-0.6,0-0.9c0-0.3,0-0.6,0-0.9V72C38.2,71.7,38.2,71.4,38.2,71.1 M44.4,74c0,0.2,0,0.5,0,0.7
	c0.1,0,0.2,0,0.3,0c0.1,0,0.2,0,0.4,0c0.1,0,0.3,0,0.4-0.1c0.1-0.1,0.3-0.1,0.4-0.2c0.1-0.1,0.2-0.2,0.2-0.4
	c0.1-0.1,0.1-0.3,0.1-0.5c0-0.2,0-0.4-0.1-0.5c-0.1-0.1-0.2-0.2-0.3-0.3c-0.1-0.1-0.3-0.1-0.5-0.1c-0.2,0-0.4,0-0.6,0h-0.3v0.7
	C44.3,73.5,44.3,73.7,44.4,74 M45.2,72.3c0.2,0,0.3-0.1,0.4-0.2c0.1-0.1,0.2-0.2,0.3-0.3c0.1-0.1,0.1-0.3,0.1-0.5
	c0-0.2,0-0.3-0.1-0.4c-0.1-0.1-0.2-0.2-0.3-0.3c-0.1-0.1-0.2-0.1-0.4-0.1c-0.1,0-0.3,0-0.4,0c-0.1,0-0.2,0-0.3,0c-0.1,0-0.2,0-0.2,0
	c0,0.2,0,0.4,0,0.6c0,0.2,0,0.4,0,0.6v0.5h0.4C44.9,72.3,45,72.3,45.2,72.3 M43.8,71.1c0-0.3,0-0.6,0-0.9c0.1,0,0.2,0,0.4,0
	c0.1,0,0.2,0,0.4,0c0.1,0,0.2,0,0.4,0c0.1,0,0.2,0,0.4,0c0.2,0,0.4,0,0.6,0c0.2,0,0.3,0.1,0.5,0.2c0.1,0.1,0.2,0.2,0.3,0.3
	c0.1,0.1,0.1,0.3,0.1,0.5c0,0.3-0.1,0.6-0.3,0.8c-0.2,0.2-0.5,0.3-0.8,0.4v0c0.4,0,0.7,0.1,1,0.3c0.2,0.2,0.4,0.5,0.4,0.9
	c0,0.3-0.1,0.5-0.2,0.6c-0.1,0.2-0.2,0.3-0.4,0.4c-0.2,0.1-0.4,0.2-0.6,0.2c-0.2,0-0.4,0.1-0.6,0.1c-0.1,0-0.2,0-0.3,0
	c-0.1,0-0.2,0-0.3,0h-0.3c-0.1,0-0.2,0-0.3,0c0-0.3,0-0.6,0-0.9c0-0.3,0-0.6,0-0.9V72C43.8,71.7,43.8,71.4,43.8,71.1 M52,71.6
	c-0.1-0.3-0.2-0.5-0.4-0.7c-0.2-0.2-0.4-0.3-0.6-0.4c-0.2-0.1-0.5-0.1-0.7-0.1c-0.3,0-0.5,0-0.7,0.1c-0.2,0.1-0.4,0.2-0.6,0.4
	c-0.2,0.2-0.3,0.4-0.4,0.7c-0.1,0.3-0.1,0.6-0.1,1c0,0.4,0,0.7,0.1,1c0.1,0.3,0.2,0.5,0.4,0.7c0.2,0.2,0.4,0.3,0.6,0.4
	c0.2,0.1,0.5,0.1,0.7,0.1c0.3,0,0.5,0,0.7-0.1c0.2-0.1,0.4-0.2,0.6-0.4c0.2-0.2,0.3-0.4,0.4-0.7c0.1-0.3,0.1-0.6,0.1-1
	C52.1,72.2,52.1,71.9,52,71.6 M47.9,71.5c0.1-0.3,0.3-0.6,0.5-0.8c0.2-0.2,0.5-0.4,0.8-0.5c0.3-0.1,0.7-0.2,1-0.2
	c0.4,0,0.7,0.1,1,0.2c0.3,0.1,0.6,0.3,0.8,0.5c0.2,0.2,0.4,0.5,0.5,0.8c0.1,0.3,0.2,0.6,0.2,1c0,0.4-0.1,0.7-0.2,1
	c-0.1,0.3-0.3,0.6-0.5,0.8c-0.2,0.2-0.5,0.4-0.8,0.5c-0.3,0.1-0.7,0.2-1,0.2c-0.4,0-0.7-0.1-1-0.2c-0.3-0.1-0.6-0.3-0.8-0.5
	c-0.2-0.2-0.4-0.5-0.5-0.8c-0.1-0.3-0.2-0.6-0.2-1C47.7,72.2,47.8,71.8,47.9,71.5 M54.6,72.4c0.1,0,0.2,0,0.2,0c0.1,0,0.3,0,0.4,0
	c0.2,0,0.3-0.1,0.4-0.2c0.1-0.1,0.2-0.2,0.3-0.3c0.1-0.1,0.1-0.3,0.1-0.5c0-0.2,0-0.3-0.1-0.4c-0.1-0.1-0.2-0.2-0.3-0.3
	c-0.1-0.1-0.2-0.1-0.3-0.1c-0.1,0-0.2,0-0.4,0c-0.2,0-0.3,0-0.4,0c-0.1,0-0.2,0-0.3,0c0,0.3,0,0.5,0,0.7c0,0.2,0,0.5,0,0.7v0.4
	C54.5,72.4,54.6,72.4,54.6,72.4 M53.9,71.1c0-0.3,0-0.6,0-0.9c0.1,0,0.3,0,0.4,0c0.1,0,0.3,0,0.4,0c0.1,0,0.3,0,0.4,0
	c0.1,0,0.3,0,0.4,0c0.2,0,0.4,0,0.5,0.1c0.2,0,0.3,0.1,0.5,0.2c0.1,0.1,0.2,0.2,0.3,0.3c0.1,0.1,0.1,0.3,0.1,0.5
	c0,0.2,0,0.4-0.1,0.6c-0.1,0.2-0.2,0.3-0.4,0.4c-0.1,0.1-0.3,0.2-0.5,0.2c-0.2,0.1-0.3,0.1-0.4,0.1c0.1,0.1,0.1,0.2,0.2,0.3
	c0.1,0.1,0.2,0.3,0.3,0.4c0.1,0.1,0.2,0.3,0.4,0.5c0.1,0.2,0.2,0.3,0.4,0.5c0.1,0.1,0.2,0.3,0.3,0.4c0.1,0.1,0.2,0.2,0.3,0.3
	c-0.1,0-0.1,0-0.2,0h-0.4c-0.1,0-0.1,0-0.2,0c-0.1-0.1-0.2-0.2-0.3-0.4c-0.1-0.2-0.3-0.4-0.5-0.6c-0.2-0.2-0.3-0.4-0.5-0.7
	c-0.2-0.2-0.3-0.4-0.5-0.5h-0.3v0.5c0,0.3,0,0.6,0,0.9c0,0.3,0,0.6,0,0.9c-0.1,0-0.2,0-0.3,0c-0.1,0-0.2,0-0.3,0c0-0.3,0-0.6,0-0.9
	c0-0.3,0-0.6,0-0.9V72C53.9,71.7,53.9,71.4,53.9,71.1 M62.1,71.6c-0.1-0.3-0.2-0.5-0.4-0.7c-0.2-0.2-0.4-0.3-0.6-0.4
	c-0.2-0.1-0.5-0.1-0.7-0.1c-0.3,0-0.5,0-0.7,0.1c-0.2,0.1-0.4,0.2-0.6,0.4c-0.2,0.2-0.3,0.4-0.4,0.7c-0.1,0.3-0.1,0.6-0.1,1
	c0,0.4,0,0.7,0.1,1c0.1,0.3,0.2,0.5,0.4,0.7s0.4,0.3,0.6,0.4c0.2,0.1,0.5,0.1,0.7,0.1c0.3,0,0.5,0,0.7-0.1c0.2-0.1,0.4-0.2,0.6-0.4
	c0.2-0.2,0.3-0.4,0.4-0.7c0.1-0.3,0.1-0.6,0.1-1C62.2,72.2,62.2,71.9,62.1,71.6 M58,71.5c0.1-0.3,0.3-0.6,0.5-0.8
	c0.2-0.2,0.5-0.4,0.8-0.5c0.3-0.1,0.7-0.2,1-0.2c0.4,0,0.7,0.1,1,0.2c0.3,0.1,0.6,0.3,0.8,0.5c0.2,0.2,0.4,0.5,0.5,0.8
	c0.1,0.3,0.2,0.6,0.2,1c0,0.4-0.1,0.7-0.2,1s-0.3,0.6-0.5,0.8c-0.2,0.2-0.5,0.4-0.8,0.5c-0.3,0.1-0.7,0.2-1,0.2
	c-0.4,0-0.7-0.1-1-0.2c-0.3-0.1-0.6-0.3-0.8-0.5c-0.2-0.2-0.4-0.5-0.5-0.8c-0.1-0.3-0.2-0.6-0.2-1C57.8,72.2,57.9,71.8,58,71.5
	 M67.5,70.9c0-0.4,0-0.6,0-0.7c0,0,0.1,0,0.1,0c0,0,0.1,0,0.1,0c0.1,0,0.1,0,0.2,0c0,0.2,0,0.3,0,0.6c0,0.2,0,0.5,0,0.7
	c0,0.3,0,0.5,0,0.8c0,0.3,0,0.5,0,0.8c0,0.3-0.1,0.6-0.1,0.8c-0.1,0.2-0.2,0.4-0.4,0.6c-0.2,0.2-0.4,0.3-0.6,0.4
	C66.5,75,66.2,75,65.9,75c-0.7,0-1.2-0.2-1.5-0.5c-0.3-0.3-0.5-0.8-0.5-1.5c0-0.2,0-0.4,0-0.6c0-0.2,0-0.3,0-0.5c0-0.4,0-0.7,0-1
	c0-0.3,0-0.5,0-0.8c0.1,0,0.1,0,0.2,0c0.1,0,0.1,0,0.2,0c0.1,0,0.1,0,0.1,0c0,0,0.1,0,0.1,0c0,0.1,0,0.2,0,0.4c0,0.2,0,0.3,0,0.5
	c0,0.2,0,0.4,0,0.7c0,0.2,0,0.5,0,0.7c0,0.2,0,0.3,0,0.5c0,0.2,0,0.3,0,0.5c0,0.2,0.1,0.3,0.1,0.5c0.1,0.1,0.1,0.3,0.3,0.4
	c0.1,0.1,0.3,0.2,0.4,0.3c0.2,0.1,0.4,0.1,0.6,0.1c0.2,0,0.5,0,0.6-0.1c0.2-0.1,0.3-0.2,0.4-0.3c0.1-0.1,0.2-0.3,0.3-0.4
	c0.1-0.2,0.1-0.3,0.1-0.5c0-0.2,0-0.3,0-0.5c0-0.2,0-0.3,0-0.5C67.5,71.8,67.5,71.3,67.5,70.9 M73.1,70.8c-0.1-0.1-0.2-0.2-0.3-0.2
	c-0.1-0.1-0.3-0.1-0.4-0.1c-0.2,0-0.3-0.1-0.5-0.1c-0.3,0-0.5,0-0.8,0.1c-0.2,0.1-0.5,0.2-0.6,0.4c-0.2,0.2-0.3,0.4-0.4,0.7
	c-0.1,0.3-0.2,0.6-0.2,1c0,0.3,0,0.6,0.1,0.9c0.1,0.3,0.2,0.5,0.4,0.7c0.2,0.2,0.4,0.3,0.6,0.4c0.3,0.1,0.5,0.1,0.9,0.1
	c0.1,0,0.2,0,0.3,0c0.1,0,0.2,0,0.3,0c0.1,0,0.2,0,0.3-0.1c0.1,0,0.2-0.1,0.2-0.1c0-0.1,0-0.3,0-0.4c0-0.1,0-0.3,0-0.4
	c0-0.2,0-0.3,0-0.5c0-0.2,0-0.3,0-0.5c0.1,0,0.2,0,0.3,0c0,0,0.1,0,0.1,0c0.1,0,0.1,0,0.1,0c0,0.1,0,0.3,0,0.5c0,0.2,0,0.5,0,0.9
	c0,0.1,0,0.2,0,0.3c0,0.1,0,0.2,0,0.3c-0.1,0-0.2,0.1-0.4,0.1c-0.1,0-0.3,0.1-0.5,0.1c-0.2,0-0.3,0-0.5,0.1c-0.2,0-0.3,0-0.4,0
	c-0.4,0-0.8,0-1.1-0.1c-0.3-0.1-0.6-0.2-0.8-0.5c-0.2-0.2-0.4-0.5-0.5-0.8c-0.1-0.3-0.2-0.7-0.2-1.1c0-0.4,0.1-0.7,0.2-1
	c0.1-0.3,0.3-0.6,0.5-0.8c0.2-0.2,0.5-0.4,0.8-0.5c0.3-0.1,0.7-0.2,1.1-0.2c0.2,0,0.4,0,0.6,0c0.2,0,0.3,0.1,0.5,0.1
	c0.1,0,0.3,0.1,0.4,0.1c0.1,0,0.2,0.1,0.3,0.1c0,0.1-0.1,0.1-0.1,0.2c0,0.1,0,0.2-0.1,0.3h-0.1C73.2,71,73.2,70.9,73.1,70.8
	 M78.2,71.1c0-0.3,0-0.6,0-0.9c0.1,0,0.1,0,0.2,0c0.1,0,0.1,0,0.2,0s0.1,0,0.2,0c0.1,0,0.1,0,0.2,0c0,0.3,0,0.6,0,0.9
	c0,0.3,0,0.6,0,0.9v1.2c0,0.3,0,0.6,0,0.9c0,0.3,0,0.6,0,0.9c-0.1,0-0.2,0-0.3,0c-0.1,0-0.2,0-0.3,0c0-0.3,0-0.6,0-0.9
	c0-0.3,0-0.6,0-0.9v-0.6c-0.2,0-0.5,0-0.7,0c-0.2,0-0.5,0-0.7,0c-0.2,0-0.5,0-0.7,0c-0.2,0-0.5,0-0.7,0v0.6c0,0.3,0,0.6,0,0.9
	c0,0.3,0,0.6,0,0.9c-0.1,0-0.2,0-0.3,0c-0.1,0-0.2,0-0.3,0c0-0.3,0-0.6,0-0.9c0-0.3,0-0.6,0-0.9V72c0-0.3,0-0.6,0-0.9
	c0-0.3,0-0.6,0-0.9c0.1,0,0.1,0,0.2,0c0.1,0,0.1,0,0.2,0s0.1,0,0.2,0c0.1,0,0.1,0,0.2,0c0,0.3,0,0.6,0,0.9c0,0.3,0,0.6,0,0.9v0.2
	c0.2,0,0.5,0,0.7,0c0.2,0,0.5,0,0.7,0c0.2,0,0.5,0,0.7,0c0.2,0,0.5,0,0.7,0V72C78.2,71.7,78.2,71.4,78.2,71.1 M86.2,71.6
	c-0.1-0.3-0.2-0.5-0.4-0.7c-0.2-0.2-0.4-0.3-0.6-0.4c-0.2-0.1-0.5-0.1-0.7-0.1c-0.3,0-0.5,0-0.7,0.1c-0.2,0.1-0.4,0.2-0.6,0.4
	c-0.2,0.2-0.3,0.4-0.4,0.7c-0.1,0.3-0.1,0.6-0.1,1c0,0.4,0,0.7,0.1,1c0.1,0.3,0.2,0.5,0.4,0.7s0.4,0.3,0.6,0.4
	c0.2,0.1,0.5,0.1,0.7,0.1c0.3,0,0.5,0,0.7-0.1c0.2-0.1,0.4-0.2,0.6-0.4c0.2-0.2,0.3-0.4,0.4-0.7c0.1-0.3,0.1-0.6,0.1-1
	C86.3,72.2,86.3,71.9,86.2,71.6 M82.1,71.5c0.1-0.3,0.3-0.6,0.5-0.8c0.2-0.2,0.5-0.4,0.8-0.5c0.3-0.1,0.7-0.2,1-0.2
	c0.4,0,0.7,0.1,1,0.2c0.3,0.1,0.6,0.3,0.8,0.5c0.2,0.2,0.4,0.5,0.5,0.8c0.1,0.3,0.2,0.6,0.2,1c0,0.4-0.1,0.7-0.2,1
	c-0.1,0.3-0.3,0.6-0.5,0.8c-0.2,0.2-0.5,0.4-0.8,0.5c-0.3,0.1-0.7,0.2-1,0.2c-0.4,0-0.7-0.1-1-0.2c-0.3-0.1-0.6-0.3-0.8-0.5
	c-0.2-0.2-0.4-0.5-0.5-0.8s-0.2-0.6-0.2-1C81.9,72.2,82,71.8,82.1,71.5 M88.1,71.1c0-0.3,0-0.6,0-0.9c0.2,0,0.4,0,0.6,0
	c0.2,0,0.4,0,0.6,0c0.2,0,0.4,0,0.6,0c0.2,0,0.4,0,0.7,0c0,0.1,0,0.1,0,0.2c0,0.1,0,0.1,0,0.2c-0.1,0-0.3,0-0.4,0
	c-0.2,0-0.3,0-0.5,0c-0.2,0-0.4,0-0.5,0c-0.2,0-0.3,0-0.4,0c0,0.2,0,0.3,0,0.5c0,0.1,0,0.3,0,0.4c0,0.2,0,0.3,0,0.4
	c0,0.1,0,0.3,0,0.4c0.3,0,0.6,0,0.9,0c0.3,0,0.6,0,0.9-0.1c0,0.1,0,0.1,0,0.2c0,0.1,0,0.1,0,0.2c-0.1,0-0.2,0-0.4,0
	c-0.1,0-0.3,0-0.4,0c-0.2,0-0.3,0-0.5,0h-0.5v0.6c0,0.3,0,0.6,0,0.9c0,0.3,0,0.6,0,0.9c-0.1,0-0.2,0-0.3,0c-0.1,0-0.2,0-0.3,0
	c0-0.3,0-0.6,0-0.9c0-0.3,0-0.6,0-0.9V72C88.1,71.7,88.1,71.4,88.1,71.1 M34.9,66.7C19.4,66.7,5.6,66,0,62.5
	c6.3,4,23.4,3.4,41.3,3.4c4,0,8.1,0,12.1,0c18.9,0,35.5,0.6,41.6-3.6c-6.3,4.3-22.6,4.6-41.6,4.6c-4,0-8.1,0-12.1,0
	C39.1,66.7,37,66.7,34.9,66.7 M60.1,106c15.4,0,29.2,0.7,34.9,4.3c-6.3-4-23.4-3.4-41.3-3.4c-4,0-8.1,0-12.1,0
	c-18.9,0-35.5-0.6-41.6,3.6c6.3-4.3,22.6-4.6,41.6-4.6c4,0,8.1,0,12.1,0C55.9,106.1,58,106,60.1,106 M5.1,88.1c0-0.7,0-1.5,0-2.3v-3
	c0-0.8,0-1.5,0-2.3C5,79.8,5,79.1,5,78.3c0.2,0,0.3,0,0.4,0.1c0.1,0,0.3,0,0.4,0s0.3,0,0.4,0c0.1,0,0.3,0,0.4-0.1
	c0,0.8-0.1,1.5-0.1,2.3c0,0.7,0,1.5,0,2.3v1c0,0.1,0,0.1,0.1,0.1c0,0,0.1-0.1,0.2-0.2c0.4-0.4,0.8-0.7,1.3-1.2
	c0.4-0.4,0.9-0.9,1.4-1.4c0.5-0.5,0.9-1,1.3-1.5c0.4-0.5,0.9-1,1.3-1.4c0.1,0,0.2,0,0.4,0.1c0.1,0,0.2,0,0.3,0c0.1,0,0.3,0,0.4,0
	c0.1,0,0.3,0,0.4-0.1c-0.4,0.3-0.9,0.8-1.4,1.2c-0.5,0.5-1,1-1.5,1.5c-0.5,0.5-1,1-1.5,1.5c-0.5,0.5-0.9,0.9-1.2,1.3
	C9.1,84.8,10,85.9,11,87c1,1.1,1.9,2.2,2.9,3.3c-0.2,0-0.3,0-0.5,0h-1c-0.2,0-0.3,0-0.5,0c-0.4-0.5-0.9-1-1.4-1.6
	c-0.5-0.6-1-1.2-1.5-1.8c-0.5-0.6-0.9-1.1-1.3-1.6c-0.4-0.5-0.7-0.8-0.9-1c-0.1-0.1-0.2-0.1-0.2-0.1c-0.1,0-0.1,0-0.1,0.1v1.5
	c0,0.8,0,1.5,0,2.3c0,0.7,0.1,1.5,0.1,2.2c-0.3,0-0.6,0-0.9,0c-0.3,0-0.6,0-0.9,0C5,89.6,5,88.9,5.1,88.1 M15.8,80.6
	c0-0.7-0.1-1.5-0.1-2.3c0.2,0,0.3,0,0.4,0.1c0.1,0,0.3,0,0.4,0c0.1,0,0.3,0,0.4,0c0.1,0,0.3,0,0.4-0.1c0,0.8-0.1,1.5-0.1,2.3
	c0,0.7,0,1.5,0,2.3v3c0,0.8,0,1.5,0,2.3c0,0.7,0.1,1.5,0.1,2.2c-0.3,0-0.6,0-0.9,0c-0.3,0-0.6,0-0.9,0c0-0.7,0.1-1.5,0.1-2.2
	c0-0.7,0-1.5,0-2.3v-3C15.8,82.1,15.8,81.3,15.8,80.6 M26.2,85.8c-1.5-1.6-3-3.3-4.5-4.9c0,0.3,0,0.8,0,1.3c0,0.5,0,1.3,0,2.2
	c0,0.2,0,0.5,0,0.9c0,0.4,0,0.7,0,1.1c0,0.4,0,0.8,0,1.2c0,0.4,0,0.8,0,1.1c0,0.4,0,0.7,0,0.9c0,0.3,0,0.4,0,0.5c-0.2,0-0.4,0-0.6,0
	c-0.2,0-0.4,0-0.6,0c0-0.1,0-0.3,0.1-0.6c0-0.3,0.1-0.7,0.1-1.1c0-0.4,0-0.9,0.1-1.4c0-0.5,0.1-1,0.1-1.5c0-0.5,0-1,0-1.5
	c0-0.5,0-0.9,0-1.3c0-1.1,0-2.1,0-2.9c0-0.8,0-1.4,0-1.8h0.3c0.7,0.8,1.5,1.6,2.3,2.5c0.8,0.9,1.6,1.8,2.4,2.6
	c0.8,0.9,1.6,1.7,2.3,2.4c0.7,0.8,1.3,1.4,1.9,2v-2.4c0-1.2,0-2.4,0-3.6c0-1.2-0.1-2.3-0.1-3.3c0.2,0.1,0.4,0.1,0.6,0.1
	c0.1,0,0.3,0,0.6-0.1c0,0.3,0,0.6-0.1,1.2c0,0.5-0.1,1.1-0.1,1.6c0,0.6-0.1,1.2-0.1,1.7c0,0.6,0,1,0,1.4v1.1c0,0.4,0,0.8,0,1.2
	c0,0.4,0,0.9,0,1.3c0,0.4,0,0.8,0,1.2c0,0.4,0,0.7,0,1v0.6h-0.2C29.2,89,27.7,87.4,26.2,85.8 M43.6,79.8c-0.3-0.2-0.6-0.4-0.9-0.6
	c-0.3-0.2-0.7-0.3-1.1-0.4c-0.4-0.1-0.8-0.1-1.3-0.1c-0.7,0-1.4,0.1-2,0.3c-0.6,0.2-1.2,0.6-1.6,1c-0.5,0.5-0.8,1-1.1,1.8
	c-0.3,0.7-0.4,1.5-0.4,2.5c0,0.9,0.1,1.6,0.4,2.3c0.2,0.7,0.6,1.3,1,1.7c0.4,0.5,1,0.8,1.6,1.1c0.6,0.3,1.4,0.4,2.2,0.4
	c0.2,0,0.5,0,0.8,0c0.3,0,0.5-0.1,0.8-0.1c0.3,0,0.5-0.1,0.7-0.2c0.2-0.1,0.4-0.2,0.6-0.2c0-0.4,0-0.7,0-1.1c0-0.4,0-0.7,0-1.1
	c0-0.4,0-0.8,0-1.2c0-0.4,0-0.8-0.1-1.2c0.3,0.1,0.6,0.1,0.8,0.1c0.1,0,0.3,0,0.4,0c0.1,0,0.3,0,0.4-0.1c0,0.3,0,0.7-0.1,1.3
	c0,0.6,0,1.3,0,2.3c0,0.2,0,0.5,0,0.7c0,0.2,0,0.5,0,0.7c-0.2,0.1-0.5,0.2-0.9,0.3c-0.4,0.1-0.8,0.2-1.2,0.2
	c-0.4,0.1-0.8,0.1-1.2,0.2c-0.4,0.1-0.8,0.1-1.1,0.1c-1,0-2-0.1-2.8-0.4c-0.8-0.3-1.5-0.6-2.1-1.2c-0.6-0.5-1-1.2-1.3-2
	c-0.3-0.8-0.5-1.7-0.5-2.7c0-1,0.2-1.9,0.5-2.7c0.3-0.8,0.8-1.4,1.4-2c0.6-0.5,1.3-0.9,2.2-1.2c0.8-0.3,1.8-0.4,2.8-0.4
	c0.6,0,1.1,0,1.6,0.1c0.5,0.1,0.9,0.1,1.2,0.3c0.4,0.1,0.7,0.2,0.9,0.3c0.3,0.1,0.5,0.2,0.7,0.3c-0.1,0.2-0.2,0.4-0.3,0.6
	c-0.1,0.3-0.1,0.5-0.1,0.7h-0.2C44.1,80.2,43.9,80,43.6,79.8 M47.9,88.7c0.2,0.2,0.4,0.4,0.6,0.6c0.2,0.2,0.5,0.3,0.8,0.4
	c0.3,0.1,0.6,0.2,1,0.2c0.4,0,0.7-0.1,1-0.2c0.3-0.1,0.6-0.3,0.8-0.5c0.2-0.2,0.4-0.5,0.5-0.8c0.1-0.3,0.2-0.6,0.2-1
	c0-0.5-0.1-1-0.4-1.3c-0.3-0.3-0.6-0.6-1-0.8c-0.4-0.2-0.8-0.4-1.3-0.6c-0.5-0.2-0.9-0.4-1.3-0.7c-0.4-0.3-0.7-0.6-1-1
	c-0.3-0.4-0.4-1-0.4-1.6c0-0.5,0.1-0.9,0.3-1.3c0.2-0.4,0.4-0.8,0.8-1c0.3-0.3,0.7-0.5,1.2-0.7c0.5-0.2,1-0.2,1.6-0.2
	c0.6,0,1,0.1,1.5,0.2c0.4,0.1,0.8,0.3,1.1,0.6c-0.1,0.2-0.2,0.4-0.3,0.6c-0.1,0.2-0.1,0.5-0.2,0.8H53c-0.1-0.2-0.1-0.3-0.2-0.5
	c-0.1-0.2-0.2-0.4-0.4-0.5c-0.2-0.2-0.4-0.3-0.6-0.4c-0.2-0.1-0.5-0.2-0.8-0.2c-0.3,0-0.6,0.1-0.9,0.2c-0.3,0.1-0.5,0.3-0.7,0.4
	c-0.2,0.2-0.4,0.4-0.5,0.7c-0.1,0.3-0.2,0.6-0.2,0.9c0,0.6,0.1,1,0.4,1.3c0.3,0.3,0.6,0.6,1,0.8c0.4,0.2,0.8,0.4,1.3,0.6
	c0.5,0.2,0.9,0.4,1.3,0.6c0.4,0.2,0.8,0.6,1,0.9c0.3,0.4,0.4,0.9,0.4,1.5c0,0.5-0.1,1-0.3,1.5c-0.2,0.5-0.5,0.9-0.8,1.3
	c-0.4,0.4-0.8,0.6-1.3,0.8c-0.5,0.2-1.1,0.3-1.8,0.3c-0.7,0-1.3-0.1-1.8-0.3c-0.4-0.2-0.8-0.4-1.1-0.7c0.1-0.3,0.2-0.5,0.2-0.7
	c0-0.2,0.1-0.5,0.1-0.8h0.2C47.6,88.3,47.7,88.5,47.9,88.7 M59,79.2c-0.3,0-0.6,0-1,0c-0.3,0-0.7,0-1,0c-0.3,0-0.7,0-1,0.1
	c-0.3,0-0.6,0.1-0.8,0.1c0.1-0.2,0.1-0.4,0.1-0.6c0-0.1,0-0.3-0.1-0.5c0.8,0,1.5,0,2.3,0.1c0.7,0,1.5,0,2.3,0c0.8,0,1.5,0,2.3,0
	c0.7,0,1.5,0,2.3-0.1c-0.1,0.2-0.1,0.4-0.1,0.6c0,0.2,0,0.3,0.1,0.5c-0.2,0-0.5-0.1-0.8-0.1c-0.3,0-0.6,0-1-0.1c-0.3,0-0.7,0-1,0
	c-0.3,0-0.7,0-1,0c0,1.2-0.1,2.4-0.1,3.6v3c0,0.8,0,1.5,0,2.3c0,0.7,0.1,1.5,0.1,2.2c-0.3,0-0.6,0-0.9,0c-0.3,0-0.6,0-0.9,0
	c0-0.7,0.1-1.5,0.1-2.2c0-0.7,0-1.5,0-2.3v-3C59.1,81.6,59,80.4,59,79.2 M75.7,81.8c-0.2-0.7-0.6-1.3-1-1.8c-0.4-0.5-1-0.8-1.5-1
	c-0.6-0.2-1.2-0.3-1.9-0.3c-0.7,0-1.3,0.1-1.9,0.3c-0.6,0.2-1.1,0.6-1.5,1c-0.4,0.5-0.8,1-1,1.8c-0.2,0.7-0.4,1.5-0.4,2.5
	c0,1,0.1,1.8,0.4,2.5c0.2,0.7,0.6,1.3,1,1.8c0.4,0.5,0.9,0.8,1.5,1c0.6,0.2,1.2,0.3,1.9,0.3c0.7,0,1.3-0.1,1.9-0.3
	c0.6-0.2,1.1-0.6,1.5-1c0.4-0.5,0.8-1,1-1.8c0.2-0.7,0.4-1.5,0.4-2.5C76.1,83.4,76,82.5,75.7,81.8 M65.2,81.7c0.3-0.8,0.8-1.4,1.3-2
	c0.6-0.5,1.3-0.9,2.1-1.2c0.8-0.3,1.7-0.4,2.6-0.4c1,0,1.9,0.1,2.7,0.4c0.8,0.3,1.5,0.7,2.1,1.2c0.6,0.5,1,1.2,1.3,2
	c0.3,0.8,0.5,1.7,0.5,2.7c0,1-0.2,1.9-0.5,2.7c-0.3,0.8-0.8,1.4-1.3,2c-0.6,0.5-1.3,0.9-2.1,1.2c-0.8,0.3-1.7,0.4-2.7,0.4
	c-1,0-1.8-0.1-2.6-0.4c-0.8-0.3-1.5-0.7-2.1-1.2c-0.6-0.5-1-1.2-1.3-2c-0.3-0.8-0.5-1.7-0.5-2.7C64.7,83.3,64.9,82.5,65.2,81.7
	 M85.8,85.8c-1.5-1.6-3-3.3-4.5-4.9c0,0.3,0,0.8,0,1.3c0,0.5,0,1.3,0,2.2c0,0.2,0,0.5,0,0.9c0,0.4,0,0.7,0,1.1c0,0.4,0,0.8,0,1.2
	c0,0.4,0,0.8,0,1.1c0,0.4,0,0.7,0,0.9c0,0.3,0,0.4,0,0.5c-0.2,0-0.4,0-0.6,0c-0.2,0-0.4,0-0.6,0c0-0.1,0-0.3,0.1-0.6
	c0-0.3,0.1-0.7,0.1-1.1c0-0.4,0-0.9,0.1-1.4c0-0.5,0.1-1,0.1-1.5c0-0.5,0-1,0-1.5c0-0.5,0-0.9,0-1.3c0-1.1,0-2.1,0-2.9
	c0-0.8,0-1.4,0-1.8h0.3c0.7,0.8,1.5,1.6,2.3,2.5c0.8,0.9,1.6,1.8,2.4,2.6c0.8,0.9,1.6,1.7,2.3,2.4c0.7,0.8,1.3,1.4,1.9,2v-2.4
	c0-1.2,0-2.4,0-3.6c0-1.2-0.1-2.3-0.1-3.3c0.2,0.1,0.4,0.1,0.6,0.1c0.1,0,0.3,0,0.6-0.1c0,0.3,0,0.6-0.1,1.2c0,0.5-0.1,1.1-0.1,1.6
	c0,0.6-0.1,1.2-0.1,1.7c0,0.6,0,1,0,1.4v1.1c0,0.4,0,0.8,0,1.2c0,0.4,0,0.9,0,1.3c0,0.4,0,0.8,0,1.2c0,0.4,0,0.7,0,1v0.6h-0.2
	C88.8,89,87.4,87.4,85.8,85.8 M11.4,95.1c0-0.6,0-1.1-0.1-1.3c0.1,0,0.2,0,0.3,0c0.1,0,0.2,0,0.2,0c0.1,0,0.2,0,0.4-0.1
	c0,0.3,0,0.6-0.1,1c0,0.4,0,0.8-0.1,1.3c0,0.5,0,0.9-0.1,1.4c0,0.5,0,1,0,1.4c0,0.6-0.1,1.1-0.3,1.5c-0.2,0.4-0.4,0.8-0.7,1.1
	c-0.3,0.3-0.7,0.5-1.1,0.7c-0.4,0.2-0.9,0.2-1.5,0.2c-1.2,0-2.2-0.3-2.7-0.9c-0.6-0.6-0.8-1.5-0.8-2.7c0-0.4,0-0.7,0-1
	c0-0.3,0-0.6,0-0.9c0-0.7,0-1.3,0-1.9c0-0.5,0-1,0-1.4c0.1,0,0.2,0,0.3,0c0.1,0,0.2,0,0.3,0c0.1,0,0.2,0,0.3,0c0.1,0,0.2,0,0.3,0
	c0,0.2,0,0.4,0,0.7c0,0.3,0,0.6,0,1c0,0.4,0,0.8,0,1.2c0,0.4,0,0.9,0,1.3c0,0.3,0,0.6,0,0.9c0,0.3,0,0.6,0.1,0.9
	c0,0.3,0.1,0.6,0.2,0.8c0.1,0.3,0.3,0.5,0.5,0.7c0.2,0.2,0.5,0.4,0.8,0.5c0.3,0.1,0.7,0.2,1.2,0.2c0.5,0,0.8-0.1,1.2-0.2
	c0.3-0.1,0.6-0.3,0.8-0.5c0.2-0.2,0.4-0.5,0.5-0.8c0.1-0.3,0.2-0.6,0.2-0.9c0-0.3,0.1-0.6,0.1-0.9c0-0.3,0-0.6,0-0.9
	C11.4,96.7,11.4,95.8,11.4,95.1 M16.5,98.1c0.3,0,0.5,0,0.8-0.1c0.3-0.1,0.5-0.2,0.8-0.3c0.2-0.2,0.4-0.4,0.6-0.6
	c0.1-0.3,0.2-0.6,0.2-1c0-0.4-0.1-0.6-0.2-0.9c-0.1-0.2-0.2-0.4-0.4-0.5c-0.2-0.1-0.4-0.2-0.7-0.3c-0.3,0-0.5-0.1-0.9-0.1h-1.1V98
	C15.9,98,16.2,98.1,16.5,98.1 M14.6,95.4c0-0.5,0-1.1-0.1-1.6c0.2,0,0.4,0,0.6,0c0.2,0,0.4,0,0.6,0c0.1,0,0.2,0,0.4,0
	c0.1,0,0.3,0,0.4,0c0.1,0,0.3,0,0.4,0c0.1,0,0.2,0,0.3,0c0.1,0,0.3,0,0.5,0c0.2,0,0.4,0,0.6,0.1c0.2,0,0.4,0.1,0.6,0.2
	c0.2,0.1,0.4,0.2,0.5,0.4c0.2,0.2,0.3,0.4,0.4,0.6c0.1,0.2,0.1,0.5,0.1,0.9c0,0.5-0.1,1-0.4,1.3c-0.2,0.3-0.5,0.6-0.9,0.8
	c-0.3,0.2-0.7,0.3-1.1,0.4c-0.4,0.1-0.7,0.1-1,0.1c-0.2,0-0.4,0-0.5,0c-0.2,0-0.3,0-0.5,0v0.7c0,0.5,0,1.1,0,1.6
	c0,0.5,0,1.1,0.1,1.6c-0.2,0-0.4,0-0.6,0c-0.2,0-0.4,0-0.6,0c0-0.5,0-1,0.1-1.6c0-0.5,0-1.1,0-1.6V97C14.6,96.5,14.6,95.9,14.6,95.4
	 M28.7,96.3c-0.2-0.5-0.4-0.9-0.7-1.3c-0.3-0.3-0.7-0.6-1.1-0.7c-0.4-0.2-0.9-0.2-1.4-0.2c-0.5,0-0.9,0.1-1.4,0.2
	c-0.4,0.2-0.8,0.4-1.1,0.7c-0.3,0.3-0.6,0.7-0.7,1.3c-0.2,0.5-0.3,1.1-0.3,1.8c0,0.7,0.1,1.3,0.3,1.8c0.2,0.5,0.4,0.9,0.7,1.2
	c0.3,0.3,0.7,0.6,1.1,0.7c0.4,0.2,0.9,0.2,1.4,0.2c0.5,0,0.9-0.1,1.4-0.2c0.4-0.2,0.8-0.4,1.1-0.7c0.3-0.3,0.6-0.7,0.7-1.2
	c0.2-0.5,0.3-1.1,0.3-1.8C29,97.4,28.9,96.8,28.7,96.3 M21.2,96.2c0.2-0.6,0.5-1,1-1.4c0.4-0.4,0.9-0.7,1.5-0.9
	c0.6-0.2,1.2-0.3,1.9-0.3c0.7,0,1.3,0.1,1.9,0.3c0.6,0.2,1.1,0.5,1.5,0.9c0.4,0.4,0.7,0.9,1,1.4c0.2,0.6,0.3,1.2,0.3,1.9
	c0,0.7-0.1,1.3-0.3,1.9c-0.2,0.6-0.5,1-1,1.4c-0.4,0.4-0.9,0.7-1.5,0.9c-0.6,0.2-1.2,0.3-1.9,0.3c-0.7,0-1.3-0.1-1.9-0.3
	c-0.6-0.2-1.1-0.5-1.5-0.9c-0.4-0.4-0.7-0.9-1-1.4c-0.2-0.6-0.3-1.2-0.3-1.9C20.8,97.4,21,96.8,21.2,96.2 M35.9,99.1
	c-1.1-1.2-2.2-2.3-3.2-3.5c0,0.2,0,0.5,0,0.9c0,0.4,0,0.9,0,1.6c0,0.2,0,0.4,0,0.7c0,0.3,0,0.5,0,0.8c0,0.3,0,0.6,0,0.9
	c0,0.3,0,0.6,0,0.8c0,0.2,0,0.5,0,0.7c0,0.2,0,0.3,0,0.4c-0.1,0-0.3,0-0.4,0c-0.2,0-0.3,0-0.5,0c0-0.1,0-0.2,0.1-0.5
	c0-0.2,0-0.5,0.1-0.8c0-0.3,0-0.7,0.1-1c0-0.4,0-0.7,0.1-1.1c0-0.4,0-0.7,0-1.1c0-0.4,0-0.7,0-0.9c0-0.8,0-1.5,0-2.1
	c0-0.6,0-1,0-1.3h0.2c0.5,0.5,1,1.1,1.6,1.8c0.6,0.6,1.2,1.3,1.7,1.9c0.6,0.6,1.1,1.2,1.6,1.7c0.5,0.5,1,1,1.3,1.4v-1.7
	c0-0.9,0-1.7,0-2.6c0-0.8,0-1.6-0.1-2.3c0.2,0,0.3,0.1,0.4,0.1c0.1,0,0.2,0,0.4-0.1c0,0.2,0,0.5-0.1,0.8c0,0.4,0,0.8-0.1,1.2
	c0,0.4,0,0.8-0.1,1.2c0,0.4,0,0.7,0,1v0.8c0,0.3,0,0.6,0,0.9c0,0.3,0,0.6,0,0.9c0,0.3,0,0.6,0,0.9c0,0.3,0,0.5,0,0.7v0.4h-0.2
	C38,101.4,37,100.3,35.9,99.1 M45.9,94.5c-0.2,0-0.4,0-0.7,0c-0.2,0-0.5,0-0.7,0c-0.2,0-0.5,0-0.7,0c-0.2,0-0.4,0-0.6,0.1
	c0-0.2,0.1-0.3,0.1-0.4c0-0.1,0-0.2-0.1-0.4c0.5,0,1.1,0,1.6,0c0.5,0,1.1,0,1.6,0c0.5,0,1.1,0,1.6,0c0.5,0,1.1,0,1.6,0
	c0,0.2-0.1,0.3-0.1,0.4c0,0.1,0,0.2,0.1,0.4c-0.2,0-0.4,0-0.6-0.1c-0.2,0-0.4,0-0.7,0c-0.2,0-0.5,0-0.7,0c-0.2,0-0.5,0-0.7,0
	c0,0.9,0,1.7,0,2.6v2.2c0,0.6,0,1.1,0,1.6c0,0.5,0,1.1,0.1,1.6c-0.2,0-0.4,0-0.6,0c-0.2,0-0.4,0-0.6,0c0-0.5,0-1,0.1-1.6
	c0-0.5,0-1.1,0-1.6V97C45.9,96.2,45.9,95.3,45.9,94.5 M57.3,95.4c0-0.5,0-1.1-0.1-1.6c0.1,0,0.2,0,0.3,0c0.1,0,0.2,0,0.3,0
	c0.1,0,0.2,0,0.3,0c0.1,0,0.2,0,0.3,0c0,0.5,0,1.1-0.1,1.6c0,0.5,0,1.1,0,1.6v2.2c0,0.5,0,1.1,0,1.6c0,0.5,0,1.1,0.1,1.6
	c-0.2,0-0.4,0-0.6,0s-0.4,0-0.6,0c0-0.5,0-1,0.1-1.6c0-0.5,0-1.1,0-1.6v-1.1c-0.4,0-0.9,0-1.3,0c-0.4,0-0.9,0-1.3,0
	c-0.4,0-0.9,0-1.3,0c-0.4,0-0.9,0-1.3,0v1.1c0,0.5,0,1.1,0,1.6c0,0.5,0,1.1,0.1,1.6c-0.2,0-0.4,0-0.6,0s-0.4,0-0.6,0
	c0-0.5,0-1,0.1-1.6c0-0.5,0-1.1,0-1.6V97c0-0.5,0-1.1,0-1.6c0-0.5,0-1.1-0.1-1.6c0.1,0,0.2,0,0.3,0c0.1,0,0.2,0,0.3,0
	c0.1,0,0.2,0,0.3,0c0.1,0,0.2,0,0.3,0c0,0.5,0,1.1-0.1,1.6c0,0.5,0,1.1,0,1.6v0.4c0.4,0,0.9,0,1.3,0c0.4,0,0.9,0,1.3,0
	c0.4,0,0.9,0,1.3,0c0.4,0,0.9,0,1.3,0V97C57.3,96.5,57.3,95.9,57.3,95.4 M62.1,98.5c0.2,0,0.4,0,0.7,0c0.2,0,0.5,0,0.7,0
	c0.2,0,0.5,0,0.7,0s0.5,0,0.7,0l-1.4-3.2L62.1,98.5z M67.7,102.4c-0.1,0-0.2,0-0.3,0h-0.7c-0.1,0-0.2,0-0.3,0
	c-0.1-0.2-0.1-0.4-0.2-0.7c-0.1-0.3-0.2-0.6-0.3-0.8c-0.1-0.3-0.2-0.6-0.4-0.9c-0.1-0.3-0.2-0.6-0.3-0.9c-0.3,0-0.5,0-0.8,0
	c-0.3,0-0.5,0-0.8,0c-0.3,0-0.5,0-0.8,0c-0.2,0-0.5,0-0.8,0c-0.3,0.7-0.5,1.3-0.7,1.9c-0.2,0.6-0.4,1.1-0.5,1.5c-0.1,0-0.3,0-0.5,0
	c-0.2,0-0.3,0-0.5,0c0.7-1.5,1.3-2.9,2-4.3c0.6-1.4,1.3-2.9,1.9-4.4h0.2c0.2,0.5,0.4,1,0.6,1.6c0.2,0.6,0.5,1.1,0.7,1.7
	c0.2,0.6,0.5,1.1,0.7,1.7c0.2,0.6,0.5,1.1,0.7,1.6c0.2,0.5,0.4,0.9,0.6,1.3C67.4,101.9,67.6,102.2,67.7,102.4L67.7,102.4z
	 M71.6,97.1c0.6,1.1,1.2,2.3,1.8,3.4c0.1-0.2,0.2-0.4,0.4-0.7c0.2-0.3,0.3-0.6,0.5-1c0.2-0.4,0.4-0.8,0.7-1.2
	c0.2-0.4,0.5-0.9,0.7-1.4c0.2-0.5,0.5-0.9,0.7-1.4c0.2-0.4,0.5-0.9,0.7-1.2h0.2c0.1,0.8,0.2,1.6,0.3,2.3c0.1,0.7,0.2,1.5,0.2,2.2
	c0.1,0.7,0.2,1.4,0.2,2.1c0.1,0.7,0.2,1.4,0.3,2.1c-0.1,0-0.2,0-0.3,0h-0.6c-0.1,0-0.2,0-0.3,0c-0.1-1.1-0.2-2.2-0.3-3.2
	c-0.1-1-0.2-2.1-0.3-3.2h0c-0.6,1.1-1.1,2.1-1.7,3.1c-0.6,1-1.1,2.1-1.6,3.3h-0.1c-0.5-1.1-1-2.1-1.6-3.2c-0.5-1.1-1.1-2.1-1.6-3.2
	h0c-0.1,0.5-0.1,1.1-0.2,1.7c-0.1,0.6-0.1,1.2-0.2,1.8c-0.1,0.6-0.1,1.1-0.1,1.7c0,0.5-0.1,0.9-0.1,1.3c-0.1,0-0.3,0-0.4,0
	c-0.2,0-0.3,0-0.4,0c0.1-0.7,0.2-1.4,0.3-2.1c0.1-0.8,0.2-1.5,0.3-2.3c0.1-0.8,0.2-1.5,0.3-2.2c0.1-0.7,0.2-1.4,0.2-2.1h0.2
	C70.5,94.8,71.1,96,71.6,97.1 M80.2,95.4c0-0.5,0-1.1-0.1-1.6c0.4,0,0.7,0,1.1,0c0.4,0,0.7,0,1.1,0c0.4,0,0.7,0,1.1,0
	c0.4,0,0.7,0,1.1,0c0,0.1,0,0.3,0,0.4c0,0.1,0,0.2,0,0.4c-0.3,0-0.5,0-0.7-0.1c-0.2,0-0.5,0-0.7,0c-0.2,0-0.5,0-0.8,0
	c-0.3,0-0.6,0-1,0c0,0.3,0,0.5,0,0.8c0,0.2,0,0.5,0,0.8c0,0.3,0,0.6,0,0.9c0,0.3,0,0.5,0,0.7c0.4,0,0.7,0,1,0c0.3,0,0.6,0,0.8,0
	c0.2,0,0.5,0,0.7,0c0.2,0,0.4,0,0.6,0c0,0.1,0,0.3,0,0.4c0,0.1,0,0.3,0,0.4c-0.2,0-0.5,0-0.8-0.1c-0.3,0-0.6,0-0.9,0
	c-0.3,0-0.6,0-0.8,0c-0.3,0-0.5,0-0.6,0c0,0.1,0,0.2,0,0.2c0,0.1,0,0.2,0,0.3v1.2c0,0.5,0,0.9,0,1.2c0,0.3,0,0.5,0,0.7h0.9
	c0.3,0,0.6,0,0.9,0c0.3,0,0.6,0,0.9,0c0.3,0,0.5-0.1,0.7-0.1c0,0.1,0,0.1,0,0.2c0,0.1,0,0.1,0,0.2c0,0.1,0,0.2,0,0.3
	c-0.4,0-0.7,0-1.1,0h-2.3c-0.4,0-0.8,0-1.1,0c0-0.5,0-1.1,0.1-1.6c0-0.5,0-1.1,0-1.6V97C80.2,96.5,80.2,95.9,80.2,95.4 M86.4,101.2
	c0.1,0.2,0.2,0.3,0.4,0.4c0.2,0.1,0.4,0.2,0.6,0.3c0.2,0.1,0.5,0.1,0.7,0.1c0.3,0,0.5,0,0.7-0.1c0.2-0.1,0.4-0.2,0.6-0.4
	c0.2-0.2,0.3-0.4,0.4-0.6c0.1-0.2,0.1-0.5,0.1-0.7c0-0.4-0.1-0.7-0.3-0.9c-0.2-0.2-0.4-0.4-0.7-0.6c-0.3-0.2-0.6-0.3-0.9-0.4
	c-0.3-0.1-0.7-0.3-0.9-0.5c-0.3-0.2-0.5-0.4-0.7-0.7C86.1,96.9,86,96.5,86,96c0-0.3,0.1-0.7,0.2-1c0.1-0.3,0.3-0.5,0.5-0.7
	c0.2-0.2,0.5-0.4,0.9-0.5c0.3-0.1,0.7-0.2,1.1-0.2c0.4,0,0.7,0,1,0.1c0.3,0.1,0.6,0.2,0.8,0.4c-0.1,0.1-0.1,0.3-0.2,0.4
	c0,0.2-0.1,0.4-0.1,0.6H90c0-0.1-0.1-0.2-0.2-0.4c-0.1-0.1-0.2-0.3-0.3-0.4c-0.1-0.1-0.3-0.2-0.4-0.3c-0.2-0.1-0.4-0.1-0.6-0.1
	s-0.4,0-0.6,0.1c-0.2,0.1-0.4,0.2-0.5,0.3c-0.1,0.1-0.3,0.3-0.3,0.5c-0.1,0.2-0.1,0.4-0.1,0.6c0,0.4,0.1,0.7,0.3,0.9
	c0.2,0.2,0.4,0.4,0.7,0.6c0.3,0.2,0.6,0.3,0.9,0.4c0.3,0.1,0.7,0.3,0.9,0.4c0.3,0.2,0.5,0.4,0.7,0.7c0.2,0.3,0.3,0.6,0.3,1.1
	c0,0.4-0.1,0.7-0.2,1.1c-0.1,0.3-0.3,0.6-0.6,0.9c-0.3,0.3-0.6,0.4-1,0.6c-0.4,0.1-0.8,0.2-1.3,0.2c-0.5,0-0.9-0.1-1.3-0.2
	c-0.3-0.1-0.6-0.3-0.8-0.5c0.1-0.2,0.1-0.4,0.2-0.5c0-0.2,0.1-0.4,0.1-0.6h0.1C86.2,100.9,86.3,101.1,86.4,101.2 M48.8,22.9
	L48.8,22.9L48.8,22.9z M43,21.5c-0.1,0-0.1,0-0.1,0c-0.3,0.1-0.5,0.5-0.4,0.8c0.1,0.3,0.3,0.4,0.6,0.4c0.1,0,0.1,0,0.2,0
	c0,0,0.1,0,0.2,0c0.3-0.1,0.7-0.2,1.2-0.4l-0.9-1C43.4,21.3,43.2,21.4,43,21.5 M44.9,20.9l0.9,1.1c0.5-0.1,1-0.2,1.5-0.2l-1-1.1
	C45.8,20.7,45.3,20.8,44.9,20.9 M47.9,20.5c-0.1,0-0.2,0-0.3,0l1.1,1.2c0.7,0,1.3,0.1,1.8,0.2l-1.2-1.4
	C48.9,20.6,48.4,20.5,47.9,20.5 M52.9,22.5c0.3,0.1,0.7-0.1,0.8-0.4c0.1-0.3-0.1-0.7-0.4-0.8c-0.1,0-1-0.3-2.3-0.6l1.3,1.6
	C52.7,22.5,52.9,22.5,52.9,22.5 M68.5,50.3L68.5,50.3L68.5,50.3 M72.5,26.8c-0.1,0.1-0.1,0.2-0.2,0.3c-0.3,0.3-0.2,0.3-0.4,0
	c-0.2-0.3-0.4-0.5-0.6-0.8c-0.4-0.4-0.6-0.8-0.5-1.4c-0.2,0.4-0.3,0.7-0.2,1.2c0.1,0.4,0.3,0.7,0.5,1c0.4,0.6,0.3,0.7-0.3,1
	c-0.3,0.2-0.7,0.2-1,0.3c-0.1,0-0.2,0-0.2-0.1c-0.1-0.4-0.3-0.8-0.5-1.1c-0.1-0.2-0.1-0.3,0-0.4c0.3-0.3,0.5-0.6,0.7-1
	c0.1-0.3,0.4-0.5,0.6-0.7c0.6-0.6,0.7-1.3,0.7-2.1c0-0.2-0.1-0.3,0-0.4c0.1,0,0.2,0.2,0.2,0.3c0.2,0.5,0.4,0.9,0.7,1.4
	c0.1,0.2,0.3,0.3,0.4,0.5C72.8,25.3,72.8,26.2,72.5,26.8L72.5,26.8z M68.7,28.8c-0.2,0-0.4,0-0.6,0.1c-0.6,0-1.1,0.1-1.6,0.4
	c-0.1,0.1-0.2,0.1-0.3,0c-0.1-0.1,0-0.2,0-0.3c0.2-0.5,0.6-0.8,1-1c0.3-0.2,0.7-0.4,1-0.6c0.1-0.1,0.2-0.1,0.3,0
	c0.2,0.4,0.4,0.7,0.4,1.1C68.9,28.7,68.8,28.8,68.7,28.8L68.7,28.8z M66.5,48.6c0.1,0,0.2,0.1,0.2,0.2c0,0.3,0,0.6-0.1,0.8
	c-0.1,0.2-0.1,0.3,0.1,0.5c0.4,0.3,0.5,0.8,0.7,1.2c0.4,0.9,2.2,2.3,2.4,2.7c0.1,0.2,0.2,0.6,0.2,0.8c0,0.4-0.3,1.6-0.4,1.7
	c-0.2,0.2-0.3,0.3-0.5,0.5c-0.2,0-0.3-0.1-0.4-0.1c-0.3-0.1-0.4-0.1-0.7-0.2l0,0c0-0.1,0.1-0.2,0-0.3c0,0.1-0.1,0.2-0.1,0.2
	c0,0,0,0,0,0l0,0c0-0.1,0-0.2-0.1-0.3c0,0.1,0,0.2-0.1,0.2c0,0,0,0-0.1,0c0-0.1,0-0.2-0.1-0.3c0,0.1,0,0.2-0.1,0.2c0,0,0,0,0,0
	c0,0,0,0,0,0c0,0,0,0,0,0c0-0.1,0.1-0.3-0.1-0.4c0,0.1,0,0.2-0.1,0.3c0,0-0.1,0.1,0,0.1c0,0,0,0-0.1,0c0,0,0,0,0,0
	c0-0.1,0-0.2-0.1-0.3c0,0.1,0,0.2-0.1,0.3c0,0,0,0,0,0c-0.1,0-0.1,0.1-0.1,0.1c0.1-0.2,0.1-0.4,0.1-0.5c-0.1,0.2-0.3,0.3-0.4,0.3
	c-0.1,0-0.2,0.1-0.3,0.1c-0.2,0-0.4-0.1-0.5-0.1c0,0,0,0,0,0c0.1-0.1,0.2-0.3,0.3-0.4c0.2-0.4,0.2-0.9-0.1-1.2c0.1,0.4-0.8,1-0.8,1
	c0,0,0.1-0.3,0.1-0.4c0-0.5-0.2-0.8-0.4-1.2c-0.1,0.5-0.6,0.9-0.7,1.5c-0.3-0.4-0.7-0.6-0.9-1.1c0-0.1,0,0,0,0s-0.5,0.8,0,1.6
	c0,0-0.1,0-0.1,0.1c-0.1-0.1-0.2-0.1-0.2-0.2c0-0.1,0.1-0.3-0.1-0.4c0,0.1,0,0.2-0.1,0.3c0,0,0,0,0,0c0,0,0,0-0.1,0l0,0l0,0
	c0,0,0,0,0,0c0,0,0,0,0,0c0.1-0.1,0.1-0.3-0.1-0.4c0,0.1,0,0.2-0.1,0.3c-0.1,0-0.1-0.1-0.2-0.1c0,0-0.1,0-0.1,0c0-0.1,0-0.2-0.1-0.3
	c0,0.1,0,0.2-0.1,0.3c0,0,0,0,0,0c-0.1,0-0.2-0.1-0.3-0.1v0c0-0.3,0-0.6,0.1-0.8c0-0.4,0-0.8,0.1-1.2c0.1-0.2,0.1-0.4,0.1-0.6
	c0-0.1,0-0.1,0-0.2c0.1,0,0.1,0,0.2-0.1c0.7-0.5,1.5-0.6,2.4-0.5c0.3,0,0.5,0,0.8,0c0.4,0,0.6-0.2,0.5-0.6c-0.2-0.9,0-1.8,0-2.7
	c0-0.2,0.1-0.3,0.3-0.3C66,48.6,66.3,48.6,66.5,48.6L66.5,48.6z M70.8,59.3c0.2,0.3,0.1,0.6-0.1,0.8c-0.2,0.3-0.5,0.5-0.9,0.4
	c-0.5-0.1-1-0.2-1.5-0.2c-0.6,0-1.2,0.1-1.7,0.3c-0.8,0.3-1.6,0.6-2.5,0.7c-1.1,0.1-2.1,0-3.1-0.4c-0.8-0.3-1.6-0.5-2.5-0.6
	c-1-0.1-2,0-3,0.4c-1.8,0.8-3.6,0.7-5.5,0.1c-1.1-0.4-2.3-0.6-3.5-0.5c-0.6,0.1-1.1,0.2-1.7,0.4c-1.9,0.6-3.7,0.7-5.6,0.1
	c-1.4-0.5-2.9-0.7-4.4-0.3c-0.7,0.2-1.3,0.4-1.9,0.6c-1.2,0.3-2.3,0.3-3.5-0.2c-0.6-0.2-1.1-0.5-1.7-0.6c-0.7-0.2-1.3-0.1-1.9,0
	c-0.5,0.1-0.9,0-1.3-0.2C24.1,60,24,59.7,24,59.4c0-0.1,0.1-0.3,0.3-0.3c0.2,0,0.1,0.2,0.1,0.3c-0.1,0.2,0,0.2,0.2,0.2
	c0.1,0,0.3,0,0.4-0.1c1.2-0.5,2.4-0.3,3.5,0.1c0.7,0.3,1.5,0.5,2.2,0.6c0.8,0.1,1.7,0,2.4-0.3c1.2-0.4,2.4-0.7,3.6-0.6
	c0.8,0,1.7,0.2,2.5,0.5c1,0.4,2,0.6,3.1,0.4c0.7-0.1,1.4-0.3,2.1-0.5c1-0.4,2-0.5,3.1-0.4c1.2,0.1,2.3,0.4,3.5,0.8
	c1.4,0.4,2.7,0.3,4-0.2c1.5-0.5,3-0.7,4.5-0.4c0.8,0.2,1.5,0.5,2.2,0.7c1.3,0.3,2.5,0.3,3.7-0.2c0.7-0.3,1.4-0.5,2.1-0.6
	c0.4-0.1,0.6,0,0.8,0c0.5,0,0.9,0.2,1.4,0.3c0.1,0,0.2,0,0.3,0c0.2,0,0.3-0.1,0.2-0.3c0-0.1,0-0.3,0.1-0.3
	C70.6,59,70.7,59.2,70.8,59.3L70.8,59.3z M24.6,54.3c0.1-0.4,0.4-0.8,0.7-1.1c0.3-0.3,0.7-0.6,1-0.8c0.4-0.3,0.8-0.7,1-1.3
	c0.1-0.3,0.3-0.5,0.5-0.8c0.2-0.2,0.2-0.4,0.1-0.6c-0.1-0.3-0.1-0.6-0.2-0.8c0-0.2,0-0.3,0.2-0.2c0.3,0.1,0.5,0.2,0.8,0.2
	c0.1,0,0.1,0.1,0.1,0.2c0,0.4,0.1,0.7,0.1,1c0.1,0.4-0.1,1.4-0.1,1.5c0,0.7,0.1,0.7,0.6,0.7c0.3,0,2,0,2.4,0c1,0,1.1,0.7,1.4,0.5
	c0,0,0.1,0,0.1,0.1c-0.1,0.9,0,1.8,0,2.6c0,0.2,0,0.3-0.1,0.5c0,0,0,0-0.1,0c0,0,0,0,0,0c0-0.1,0-0.2,0-0.3c-0.1,0-0.2,0.1-0.2,0.3
	c0,0,0,0-0.1,0c0,0,0,0-0.1,0c0,0,0,0,0-0.1c0-0.1,0-0.2,0-0.3c-0.2,0-0.2,0.2-0.2,0.3c0,0,0,0.1,0,0.1c0,0-0.1,0-0.1,0
	c0-0.1,0-0.2,0-0.2c-0.1,0-0.2,0.1-0.2,0.2c0,0,0,0-0.1,0l0,0c0-0.1,0-0.2,0-0.3c-0.2,0-0.2,0.2-0.2,0.3c0,0,0,0,0,0
	c0,0-0.1,0-0.1,0c0.1-0.3,0.2-0.6,0.2-0.8c-0.3,0.1-0.5,0.3-0.8,0.5c-0.3,0.2-0.5,0.4-0.8,0.6c0.1-1,0.1-1.2-0.3-1.6
	c-0.1,0.4-0.4,0.7-0.6,0.9c-0.2-0.4-0.3-0.8-0.5-1.1c-0.2,0.5-0.5,0.9-0.4,1.5c-0.3-0.1-0.5-0.3-0.8-0.4c0,0.4,0,0.7,0.1,1l0,0
	c0,0,0,0-0.1,0c0,0,0,0,0,0c0-0.1,0-0.2,0-0.2c-0.1,0-0.2,0.1-0.2,0.2h0c0,0,0,0,0,0c0-0.1,0-0.2,0-0.3c-0.2,0-0.2,0.2-0.2,0.3h-0.1
	h-0.1c0-0.1,0-0.2,0-0.2c-0.1,0-0.2,0.1-0.2,0.2c0,0,0,0-0.1,0c0,0,0,0,0,0c0-0.1,0-0.2,0-0.3c-0.2,0-0.2,0.2-0.2,0.3
	c0,0-0.1,0-0.1,0c0-0.1,0-0.2,0-0.3c-0.2,0-0.2,0.2-0.2,0.3c0,0,0,0-0.1,0c0-0.1,0-0.2,0-0.3c-0.2,0-0.2,0.2-0.2,0.3c0,0,0,0,0,0
	c0,0,0,0-0.1,0c0-0.1,0-0.2,0-0.3c-0.2,0-0.2,0.2-0.2,0.3c0,0,0,0,0,0c0,0,0,0,0,0c-0.1-0.1-0.1-0.2,0-0.3c-0.2,0.1-0.2,0.2-0.2,0.4
	c-0.4,0.1-0.7,0.2-0.9,0.3c0,0-0.1-0.1-0.1-0.1c-0.2-0.2-0.6-1.1-0.6-1.7C24.5,54.9,24.5,54.6,24.6,54.3L24.6,54.3z M30,44.3
	c0.3-0.3,0.7-0.5,1.1-0.7c0,0,0.1,0,0.1-0.1c0.1-0.1,0.2,0,0.1-0.3c0-0.1,0.4-0.6,1-0.7c0.1,0,0.1-0.1,0-0.1
	c-0.1-0.1-0.2-0.1-0.1-0.2c0.1-0.1,0.2-0.2,0.4-0.2c0.2,0.1,0.4,0.2,0.6,0.3c0.6,0.4,1.3,0.7,2,1c0.2,0.1,0.5,0.2,0.6,0.4
	c0,0,0,0.1,0.1,0.1c0.4,0.2,0.5,0.6,0.6,1.1c0.1,0.5,0.2,1,0.4,1.5c0,0.1,0,0.3,0,0.5c0.1,0.6,0.4,1,0.6,1c0.1,0,0.3,0,0.3,0
	c0,0,0-0.2,0.1-0.2c0,0,0.1,0.1,0.1,0.2c0,0,0.1,0,0.2-0.1c0-0.1,0.1-0.1,0.1-0.2c0-0.2-0.1-0.6-0.1-0.7c0-0.1-0.1-0.3-0.1-0.4
	c0-0.1,0-0.2,0-0.3c0.7,2.3,1.9,5,4,7.1c-0.1,0.3-0.3,0.9-0.2,1.3c-0.4-0.4-0.8-0.5-1.1-0.8c0.1,0.2,0.2,0.7,0.4,1.1
	c-0.1,0-0.1,0-0.2,0c0-0.1,0-0.1,0-0.2c-0.1,0-0.2,0.1-0.2,0.2c0,0,0,0-0.1,0c0-0.1,0-0.2,0-0.3c-0.1,0-0.2,0.1-0.2,0.2c0,0,0,0,0,0
	c0-0.1,0-0.1,0-0.2c0-0.4,0.1-0.8,0.2-1.2c0.2-0.6,0.2-1.2-0.1-1.9c-0.1,0.1-0.2,0.3-0.3,0.2c-0.1,0-0.2-0.2-0.3-0.3
	c-0.1,0.3-0.3,0.4-0.5,0.6c-0.1,0.1-0.1,0.1-0.2-0.1c-0.1-0.3-0.2-0.6-0.1-0.9c0-0.1,0-0.1-0.1-0.2c-0.1,0-0.1,0-0.1,0.1
	c-0.2,0.3-0.6,0.5-0.7,0.9c-0.2-0.3-0.6-0.4-0.8-0.6c-0.1-0.1-0.2-0.1-0.3,0.1c0,0.2-0.2,0.3-0.3,0.5c0,0-0.1,0.1-0.1,0.1
	c-0.1,0.2-0.2,0.1-0.3,0.1c-0.3,0-0.2,0.4,0,0.6c0,0,0.2,0.1,0.1,0.2c0,0.1-0.9,0.1-1,0.1c0,0,0,0-0.1,0c0,0,0,0,0,0
	c0-0.1-0.5-0.7-0.6-0.9c-0.1-0.2-0.6-0.5-0.8-0.5c-0.3-0.4-0.8-0.5-1.2-0.5c-0.4,0-0.8,0.1-1.2,0c-0.2,0-0.4-0.1-0.5-0.2
	c-0.3-0.1-0.4-0.4-0.3-0.7c0.1-0.5,0.3-1,0.5-1.5c0.3-1,0.5-2,0.3-3.1c0-0.2-0.1-0.5-0.1-0.7c0-0.1-0.1-0.2-0.2-0.1
	c-0.1,0.1-0.2,0.1-0.3,0c-0.2-0.1-0.5-0.2-0.8-0.3C29.8,44.6,29.8,44.6,30,44.3L30,44.3z M34.7,37.8c0,0,0.1-0.1,0.1-0.2
	c0-0.1,0-0.7,0-0.9c0-0.2-0.1-2.4,0.1-2.5c0.1-0.1,0.1-0.1,0.1-0.1s0,0,0.1-0.3c0.1-0.3,0.2-0.5,0.6-0.7c0.4-0.2,1-0.2,1.2-0.2
	c0.1,0,0.4,0.1,0.6,0.1V42c0,0.6,0.1,1.5,0.3,2.4c-0.1-0.2-0.2-0.5-0.2-0.6c0-0.1-0.3-0.6-0.4-0.8C37,43,35.8,42,35.7,41.9
	c0,0-1.4-1.3-1.4-1.3c0,0-0.1-0.1,0-0.1c0-0.1,0.2-0.2,0.1-0.5c-0.1-0.1-0.1-0.2-0.1-0.3c0-0.1,0-0.4,0-0.5c0-0.1,0.2-0.2,0.3-0.3
	c0.1-0.2,0.2-0.4,0.2-0.4C34.6,38.7,33.9,38.3,34.7,37.8L34.7,37.8z M42.8,30c-0.1-1.2-0.9-3-1.2-3.6c0.3-0.1,0.8-0.2,1.3-0.4
	c0.3,0.7,0.9,2.6,1,3.4c0.1,1,0.1,2.9,0.1,3.5H43c0-0.1,0-0.1,0-0.2C43,32.5,42.9,30.3,42.8,30L42.8,30z M43.6,23.7
	c0.5-0.2,2.5-0.9,5-0.9c0.1,0,0.2,0,0.2,0c0,0,0,0,0,0l0,0c0.2,0.2,0.4,0.5,0.5,0.8c0,0.1,0.1,0.2,0.1,0.3c-0.6,0-2.2,0.1-2.4,0.2
	c-0.1,0.1-0.2,0.2-0.4,0.4c-0.1,0.1-0.2,0.2-0.3,0.3c-1.4,0.1-3.1,0.4-4.2,0.6C42.8,24.5,43.4,23.8,43.6,23.7L43.6,23.7z M49.5,25.4
	c0,0,0,0.1,0,0.1c0,0.2,0,0.3-0.1,0.5l0,0c0,0,0,0.1,0,0.1c-0.1,0.5-0.4,0.8-0.8,1.1c-0.2-0.6-0.4-1.4-0.5-1.7
	c0-0.2-0.1-0.2-0.3-0.2c-0.3,0.2-0.6,0.5-0.8,0.7c-0.1,0.1-0.1,0.1-0.3,0.3c-0.3,0.5,0,0.7,0.3,0.9c0.5,0.3,1,0.6,1.5,0.8
	c0,0,0,0,0.1,0c0,0,0,0,0,0c0,0,0,0,0,0c0,0,0.1,0,0.1,0l0,0c0.1,0,0.1,0,0.2,0c0.5,0,0.9-0.5,1.1-0.7l0,0l0.1-0.1
	c0.1-0.1,0.1-0.2,0.2-0.2c0,0,0,0,0,0c0,0,0,0,0.1,0c0,0,0.1,0,0.1,0c0,0.1,0.1,0.1,0.1,0.2c0,0.1,0.1,0.2,0.1,0.2
	c0.1,0.3,0.3,0.6,0.6,0.9c0.1,0.1,0.4,0.3,0.5,0.3c0,0,0.1,0,0.1,0c0,0,0-0.1,0-0.1c0-0.2,0-0.5-0.1-0.8c-0.1-0.2-0.2-0.5-0.3-0.7
	c0-0.1-0.1-0.2-0.1-0.2c0-0.1-0.4-1-0.4-0.8c0.1,0.1,0.3,0.5,0.5,0.6c0.1,0.1,0.3,0.1,0.5,0.1c0,0,0.1,0,0.1,0l0,0
	c0.1,0,0.2,0,0.3-0.1c0.1,0,0.1-0.1,0.1-0.1c0,0,0-0.1-0.1-0.1c-0.1,0-0.3-0.2-0.4-0.3c0,0-0.1-0.1-0.1-0.1
	c-0.2-0.2-0.3-0.4-0.5-0.7c-0.1-0.2-0.2-0.3-0.2-0.6c-0.1-0.3-0.2-0.7-0.3-1.1l0,0c0,0,0,0,0,0c0,0,0,0,0,0c0,0,0.2,0.2,0.3,0.2
	c0.4,0.3,1.3,0.5,1.8,0.6c0.2,1,0,2.3-0.1,3c-0.1,1.1-0.3,3-0.2,5l-0.5,0c-0.3-0.3-1.2-1-3.3-1.1c-0.1,0-0.2,0-0.3,0
	c-1.2,0-2.7,0.4-3.6,1c0-0.8,0-2.3-0.1-3.2c-0.1-0.9-0.7-2.7-1-3.5c0.9-0.2,1.8-0.2,2.5-0.2l0,0c0.2,0,0.3-0.1,0.7-0.5
	c0.1-0.1,0.2-0.2,0.2-0.2c0.3,0,1.4-0.1,2.2-0.1C49.5,25,49.5,25.2,49.5,25.4L49.5,25.4z M45.8,32.9c0.8-0.4,1.9-0.6,2.7-0.6
	c0.1,0,0.2,0,0.3,0c1.3,0.1,2,0.4,2.4,0.6H45.8z M55.8,38.2c-0.1,0.1-0.2,0.2-0.2,0.4c-0.3,0-0.6-0.2-0.7-0.4
	c-0.1-0.1,0-0.2,0.1-0.1C55.4,38.4,55.6,38.3,55.8,38.2L55.8,38.2z M56,37.5c-0.3,0.1-0.9,0.2-0.9-0.1c0.3-0.1,0.4-0.4,0.7-0.4
	C55.7,37.1,55.8,37.3,56,37.5L56,37.5z M54.9,36.5c0.3-0.2,0.7-0.4,1-0.4c0.1,0,0.2,0.1,0.1,0.2c-0.2,0.2-0.2,0.3-0.2,0.5
	c-0.5,0-0.6,0.5-1.1,0.6c0.1,0.5,0.9,0.5,1.3,0.4c0,0,0,0,0,0c0.1,0.1,0,0.3-0.1,0.3c-0.4,0.1-0.5,0.1-1-0.1
	c-0.3-0.1-0.4,0.2-0.3,0.3c0.1,0.2,0.4,0.6,0.9,0.6c0,0.2,0,0.3,0.2,0.4c0.1,0.1,0,0.2-0.1,0.2c-0.3-0.1-0.8-0.2-1-0.4
	c-0.5-0.5-0.8-0.7-1.3-0.7c-0.3,0-0.6,0-1.1,0.2c-0.1,0-0.1,0.3,0.2,0.4c-0.2,0-0.6-0.1-0.6-0.2c-0.4-0.1-0.1-0.2,0-0.2
	c-0.3,0-0.4,0.1-0.4,0.1c-0.3,0.1,0.7,0.5,1.4,0.6c0,0-0.1,0.1-0.1,0.1c-0.1,0.1-0.3,0.2-0.5,0.1c-0.5-0.1-0.9-0.3-1-0.4
	C51,39,50.4,39,50.2,39c-0.8,0.1-1.9,0.1-1.9,0.1c-0.4,0-0.5,0.1-0.5,0.3c-0.1-0.1-0.2-0.1-0.3-0.2c-0.1-0.1,0-0.2,0.1-0.2
	c-0.1,0-0.4,0.1-0.6,0.1c0.1,0.2,0.5,0.4,0.7,0.5c0,0,0,0,0,0c0,0.1,0,0.2-0.1,0.3c-0.3-0.2-0.8-0.6-1.1-0.7c-0.2,0-0.5,0-0.8,0
	c0,0,0,0,0.1,0c0.6,0.1,1.2,0.7,1.7,0.9c0,0,0,0,0,0c0,0.2-0.3,0.3-0.5,0.2c-0.5-0.4-1.1-0.8-1.6-0.9c-1.7-0.2-3.3-0.4-3.8-0.4
	c-0.5,0-2-0.1-2-0.1c-0.4,0-0.7-0.1-0.8-0.3c-0.1-0.1-0.3-0.3-0.3-0.4c0.1-0.1,0.1-0.1,0.1-0.1c0,0,0.1,0,0.1,0c0,0,0,0,0,0
	c0.1,0,1,0.2,1-0.1c0.3,0.1,0.9,0.4,1.4,0.2c0,0-1-0.3-1.4-0.5c-0.4-0.2-1-0.1-1.1-0.1c-0.2,0-0.2-0.1-0.2-0.2
	c-0.1-0.6,3.3-1.4,5.6-1.7c0.8-0.1,1.6-0.7,2.3-1.1c0.3-0.2,0.7-0.2,1-0.1c0,0,0,0,0,0c-0.6,0.2-1.6,0.7-1.3,1c0.2,0,0.1,0,0.5,0
	c-0.5-0.1,0.7-0.7,1.1-0.9c0.1,0.1,0.3,0.1,0.5,0.2c-0.4,0.2-1,0.5-1,0.6c0,0.1,0,0.1,0.1,0.2c0.3,0,0.2,0,0.4,0
	c-0.4-0.1,0.6-0.6,0.8-0.7c0.2,0.1,0.4,0.1,0.6,0.2c-0.2,0.1-0.4,0.2-0.6,0.4c-0.4,0.2-0.1,0.3-0.1,0.3c1,0.2,1.9,0.3,2.6,0.5
	c0.1,0,0.4,0,0.7-0.1c0.2-0.1,0.5-0.2,1.1-0.3c0.1,0,0.2,0.1,0.1,0.3l0,0c-0.4,0-0.8,0.2-1.1,0.3c-0.2,0-0.3,0-0.4,0
	c0.2,0.1,0.5,0.2,0.8,0.3c-0.1-0.1-0.2-0.1,0.1-0.2c0.1,0,0.4-0.1,0.6-0.1c-0.3,0.2-0.3,0.4-0.2,0.4c0.4,0.1,0.7,0.2,1,0.2
	C54.1,37.1,54.4,36.9,54.9,36.5L54.9,36.5z M57.7,32.9c0.5,0,0.9,0.1,1.4,0.2c0.3,0.1,0.4,0.4,0.5,0.7c0.1,0.4,0,0.8,0,1.1
	c0,0.4,0,0.9,0.1,1.3c0.1,0.3,0.1,0.7,0,1c0,0.1,0,0.2,0.1,0.3c0.2,0.2,0.2,0.4,0.2,0.7c0,0.2,0,0.2,0.2,0.2c0.2,0,0.2,0.1,0.2,0.2
	c0,0.1,0,0.2-0.1,0.3c-0.1,0.3-0.1,0.5,0,0.8c0.1,0.3,0.2,0.5,0.1,0.9c0.1-0.1,0.2-0.1,0.3-0.2c0.1,0.1,0,0.2-0.1,0.3
	c-0.1,0.1-0.2,0.1-0.3,0.2C60,41,59.8,41,59.7,41.2c-0.5,0.4-1.1,0.7-1.6,1.1c0,0-0.6,0.4-0.9,1.3c-0.1,0.3-0.2,0.6-0.3,0.9
	c0.2-1,0.3-1.9,0.3-2.5v-9.1h-0.1C57.3,32.9,57.5,32.9,57.7,32.9L57.7,32.9z M56.2,47L56.2,47C56.2,47.1,56.2,47.1,56.2,47
	C56.1,47.1,56.2,47.1,56.2,47L56.2,47z M43.6,54.8C43.6,54.8,43.6,54.8,43.6,54.8c0.1,0.1,0.2,0.2,0.4,0.2c-0.2,0-0.3,0-0.5,0
	C43.5,55,43.6,54.9,43.6,54.8L43.6,54.8z M53.1,50.2C53,50.3,53,50.4,53,50.5c-0.2,0-0.4-0.2-0.5-0.2c0,0,0-0.1,0.1-0.1
	C52.8,50.3,53,50.3,53.1,50.2L53.1,50.2z M53.2,49.7c-0.2,0.1-0.6,0.2-0.7-0.1c0.2-0.1,0.3-0.3,0.5-0.3
	C53.1,49.4,53.1,49.6,53.2,49.7L53.2,49.7z M54.6,44.6c-0.1,0.1-0.2,0.2-0.2,0.4c-0.3,0-0.5-0.2-0.6-0.3c0-0.1,0-0.2,0.1-0.1
	C54.3,44.7,54.5,44.7,54.6,44.6L54.6,44.6z M54.8,44c-0.3,0.1-0.8,0.2-0.8-0.1c0.3-0.1,0.4-0.3,0.6-0.4C54.6,43.6,54.6,43.8,54.8,44
	L54.8,44z M40.7,44.3c-0.4-0.2-0.8-0.1-0.9-0.1c-0.1,0-0.1-0.1-0.1-0.1c0-0.5,2.8-1.2,4.9-1.5c0.7-0.1,1.4-0.6,2-0.9
	c0.3-0.1,0.6-0.2,0.8-0.1c0,0,0,0,0,0c-0.5,0.2-1.4,0.6-1.2,0.8c0.2,0,0.1,0,0.4,0c-0.4-0.1,0.6-0.6,1-0.7c0.1,0.1,0.3,0.1,0.4,0.1
	c-0.4,0.2-0.8,0.4-0.9,0.5c0,0.1,0,0.1,0.1,0.2c0.3,0,0.2,0,0.4,0c-0.4-0.1,0.5-0.5,0.7-0.6c0.2,0.1,0.3,0.1,0.5,0.1
	c-0.2,0.1-0.3,0.2-0.6,0.3c-0.3,0.2,0,0.2,0,0.2c0.9,0.1,1.6,0.3,2.3,0.5c0.1,0,0.4,0,0.6,0c0.2-0.1,0.4-0.1,0.9-0.2
	c0.1,0,0.2,0.1,0.1,0.2l0,0c-0.3,0-0.7,0.2-0.9,0.2c-0.1,0-0.3,0-0.4,0c0.2,0,0.4,0.2,0.7,0.3c-0.1,0-0.2-0.1,0.1-0.2
	c0.1,0,0.3-0.1,0.5-0.1c-0.3,0.1-0.3,0.3-0.2,0.3c0.4,0.1,0.6,0.1,0.9,0.1c0.4,0,0.7-0.2,1.1-0.6c0.2-0.2,0.6-0.3,0.8-0.4
	c0.1,0,0.1,0.1,0.1,0.2c-0.2,0.1-0.2,0.3-0.2,0.4c-0.4,0-0.5,0.4-0.9,0.5c0.1,0.5,0.8,0.4,1.2,0.3c0,0,0,0,0,0
	c0.1,0.1,0,0.3-0.1,0.3c-0.3,0.1-0.4,0.1-0.9-0.1c-0.2-0.1-0.3,0.1-0.3,0.2c0.1,0.2,0.3,0.5,0.8,0.5c0,0.2,0,0.3,0.2,0.4
	c0.1,0,0,0.2-0.1,0.1c-0.3-0.1-0.6-0.2-0.9-0.4c-0.4-0.4-0.7-0.6-1.1-0.6c-0.2,0-0.5,0-0.9,0.2c-0.1,0-0.1,0.2,0.2,0.4
	c-0.2,0-0.5-0.1-0.6-0.1c-0.3-0.1-0.1-0.2,0-0.2C51,45,50.8,45,50.8,45c-0.3,0.1,0.6,0.4,1.2,0.5c0,0-0.1,0.1-0.1,0.1
	c-0.1,0.1-0.3,0.1-0.4,0.1c-0.4-0.1-0.7-0.3-0.8-0.3c-0.2-0.1-0.7-0.1-0.9-0.1c-0.7,0.1-1.7,0.1-1.7,0.1c-0.4,0-0.5,0.1-0.5,0.2
	c-0.1-0.1-0.1-0.1-0.2-0.2c-0.1-0.1,0-0.1,0.1-0.2c-0.1,0-0.3,0.1-0.5,0.1c0.1,0.1,0.4,0.3,0.6,0.4c0,0,0,0,0,0c0,0.1,0,0.2-0.1,0.2
	c-0.3-0.2-0.7-0.5-1-0.6c-0.2,0-0.4,0-0.6,0c0,0,0,0,0.1,0c0.5,0,1.1,0.6,1.5,0.8c0,0,0,0,0,0c0,0.2-0.3,0.3-0.4,0.2
	c-0.4-0.3-0.9-0.7-1.4-0.8c-1.5-0.1-2.9-0.3-3.3-0.3c-0.4,0-1.8-0.1-1.8-0.1c-0.3,0-0.6-0.1-0.7-0.2c-0.1-0.1-0.3-0.3-0.2-0.4
	c0-0.1,0.1,0,0.1,0c0,0,0,0,0.1,0c0,0,0,0,0,0c0.1,0,0.9,0.1,0.9-0.1c0.2,0.1,0.8,0.3,1.2,0.2C42,44.7,41.1,44.5,40.7,44.3
	L40.7,44.3z M41.9,50c-0.3-0.1-0.7-0.1-0.8-0.1c-0.1,0-0.1-0.1-0.1-0.1c0-0.4,2.3-1,3.9-1.2c0.6-0.1,1.1-0.5,1.6-0.7
	c0.2-0.1,0.5-0.1,0.7,0c0,0,0,0,0,0c-0.4,0.1-1.1,0.5-0.9,0.7c0.2,0,0.1,0,0.3,0c-0.4-0.1,0.5-0.5,0.8-0.6c0.1,0,0.2,0.1,0.3,0.1
	c-0.3,0.1-0.7,0.3-0.7,0.4c0,0.1,0,0.1,0.1,0.1c0.2,0,0.1,0,0.3,0c-0.3-0.1,0.4-0.4,0.6-0.5c0.2,0.1,0.2,0.1,0.4,0.1
	c-0.2,0.1-0.3,0.1-0.4,0.3c-0.3,0.2,0,0.2,0,0.2c0.7,0.1,1.3,0.2,1.8,0.4c0,0,0.3,0,0.5,0c0.1,0,0.3-0.1,0.8-0.2
	c0.1,0,0.2,0.1,0.1,0.2l0,0c-0.3,0-0.5,0.1-0.8,0.2c-0.1,0-0.2,0-0.3,0c0.1,0,0.4,0.2,0.5,0.2c-0.1,0-0.1-0.1,0.1-0.2
	c0.1,0,0.3-0.1,0.4-0.1c-0.2,0.1-0.2,0.2-0.1,0.3c0.3,0.1,0.5,0.1,0.7,0.1c0.3,0,0.5-0.1,0.9-0.5c0.2-0.2,0.5-0.3,0.7-0.3
	c0.1,0,0.1,0.1,0.1,0.1c-0.1,0.1-0.2,0.2-0.2,0.3c-0.3,0-0.4,0.3-0.7,0.4c0.1,0.4,0.6,0.3,0.9,0.3c0,0,0,0,0,0
	c0.1,0.1,0,0.2-0.1,0.2c-0.3,0-0.3,0.1-0.7-0.1c-0.2-0.1-0.3,0.1-0.2,0.2c0.1,0.1,0.3,0.4,0.6,0.4c0,0.1,0,0.2,0.2,0.3
	c0.1,0,0,0.1,0,0.1c-0.2,0-0.5-0.1-0.7-0.3c-0.4-0.3-0.6-0.5-0.9-0.5c-0.2,0-0.4,0-0.7,0.1c-0.1,0-0.1,0.2,0.2,0.3
	c-0.2,0-0.4-0.1-0.4-0.1c-0.2-0.1-0.1-0.1,0-0.2c-0.2,0-0.3,0.1-0.3,0.1c-0.2,0.1,0.5,0.3,1,0.4c0,0-0.1,0.1-0.1,0.1
	c-0.1,0.1-0.2,0.1-0.3,0.1c-0.4-0.1-0.6-0.2-0.7-0.3c-0.2-0.1-0.6-0.1-0.7,0c-0.5,0.1-1.3,0.1-1.3,0.1c-0.3,0-0.4,0.1-0.4,0.2
	c-0.1-0.1-0.1,0-0.2-0.1c-0.1-0.1,0-0.1,0.1-0.1c-0.1,0-0.3,0-0.4,0.1c0.1,0.1,0.3,0.2,0.5,0.4c0,0,0,0,0,0c0,0,0,0.1,0,0.2
	c-0.2-0.1-0.6-0.4-0.8-0.5c-0.2,0-0.4,0-0.5,0c0,0,0,0,0,0c0.4,0,0.9,0.5,1.2,0.6c0,0,0,0,0,0c0,0.2-0.2,0.2-0.3,0.1
	c-0.3-0.3-0.8-0.6-1.1-0.6c-1.2-0.1-2.3-0.3-2.7-0.3c-0.3,0-1.4-0.1-1.4-0.1c-0.2,0-0.5-0.1-0.6-0.2c-0.1-0.1-0.2-0.2-0.2-0.3
	c0,0,0.1,0,0.1,0c0,0,0,0,0,0c0,0,0,0,0,0c0,0,0.7,0.1,0.7-0.1c0.2,0.1,0.6,0.3,1,0.2C42.9,50.3,42.2,50.1,41.9,50L41.9,50z
	 M42.8,54.2c0,0,0-0.1-0.1-0.1c0.1,0.1,0.3,0.2,0.4,0.4c0,0,0,0,0,0c-0.1,0.1-0.3,0.5-0.3,0.5S42.9,54.5,42.8,54.2L42.8,54.2z
	 M51.7,55.2c-0.1,0-0.1,0-0.2,0c0-0.1,0-0.2-0.1-0.3c0,0.1,0,0.2-0.1,0.3c0,0,0,0,0,0c-0.1,0-0.1,0-0.2,0c0-0.1,0-0.2-0.1-0.3
	c0,0.1,0,0.2-0.1,0.3c0,0,0,0,0,0c-0.2,0-0.3,0-0.3,0c0,0-0.1,0-0.1,0c0.4-0.3,0.8-0.6,1.1-0.9C51.6,54.7,51.6,55,51.7,55.2
	L51.7,55.2z M61.3,42.4c0.2-0.1,0.4-0.2,0.7-0.1c0.2,0,0.2,0.1,0.3,0.2c0.1,0.1,0.2,0.2,0.4,0.3c0,0,0.1,0.1,0,0.1
	c-0.2,0.1-0.1,0.1,0,0.2c0.4,0.2,0.8,0.6,1.1,0.9c0.2,0.2,0.4,0.3,0.7,0.5c0.1,0,0.1,0.1,0.1,0.1c0,0.1-0.1,0.1-0.1,0.1
	c-0.4,0.1-0.8,0.3-1.2,0.6c-0.1,0-0.1,0.1-0.1,0.2c0,0.1,0,0.1,0,0.2c-0.4,0.8-0.4,1.6-0.1,2.4c0.2,0.5,0.4,1,0.7,1.5
	c0.2,0.3,0.3,0.7,0.4,1.1c0.1,0.2-0.1,0.4-0.4,0.5c-0.4,0.2-1.9,0.2-2.2,0.3c-0.1,0-0.2,0-0.2,0c-0.3,0.2-0.6,0.3-0.9,0.4
	c-0.4,0.1-0.6,0.5-0.8,0.8c-0.1,0.1-0.2,0.3-0.2,0.4c-0.1,0-0.1,0-0.2,0c-0.3-0.1-0.5-0.1-0.7-0.1c-0.2,0-0.4,0.1-0.4,0.1
	c-0.1,0-0.2,0-0.2-0.1c0-0.2-0.1-0.3-0.1-0.5c-0.1-0.4-0.3-0.6-0.7-0.7c-0.3-0.1-0.4,0.1-0.6,0.2c-0.2,0.1-0.2,0.1-0.3-0.1
	c-0.2-0.5-0.2-0.5-0.6-0.1c-0.2,0.2-0.4,0.3-0.5,0.6c-0.1,0.1-0.2,0.2-0.3,0c-0.1-0.2-0.3-0.3-0.5-0.5c0,0.2,0,0.4,0.1,0.6
	c0.3,0.7,0.3,1.4,0.1,2.2c-0.1,0.3-0.1,0.5-0.1,0.8c-0.2,0-0.3,0-0.5,0c-0.1,0-0.2,0-0.2,0c0.5-0.5,0.7-0.9,0.4-1.5
	c-0.2,0.2-0.5,0.4-0.8,0.6c0-0.4-0.4-0.8-0.6-1.1c-0.1,0.3-0.4,0.7-0.4,1c-0.1-0.1-0.2-0.2-0.4-0.2c1.9-1.9,3.2-4.2,4-6.3
	c0,0.3,0,1,0,1.1c0,0.1,0.2,0.2,0.2,0.2l0.2-0.5l0,0.4c0.1,0.2,0.2,0.2,0.3,0c0.2-0.3,0.5-0.6,0.5-1c0-0.3,0-0.6,0-0.9
	c0-0.1,0-0.3,0.1-0.4c0.1-0.2,0.2-0.5,0.2-0.7c0-0.4,0.1-0.8,0.3-1.2c0.3-0.7,0.7-1.2,1.4-1.4C60,43,60.6,42.7,61.3,42.4L61.3,42.4z
	 M27.7,29.3c-0.1,0.1-0.1,0-0.2,0c-0.5-0.3-1.4-0.5-1.8-0.4c-0.3,0-0.4-0.1-0.4-0.4c0-0.1,0-0.1,0-0.2c0-0.4,0.2-0.7,0.2-1
	c0-0.1,0.1-0.1,0.2-0.1c0.5,0.3,1,0.5,1.4,0.9c0.3,0.3,0.5,0.6,0.8,1C27.8,29.1,27.8,29.2,27.7,29.3L27.7,29.3z M74.5,21.3
	c-0.1,0.2-0.1,0.3-0.1,0.5c0,0.5,0,0.9-0.1,1.4c0,0.2-0.1,0.4-0.3,0.5c-0.1-0.6-0.3-1.1-0.6-1.5c-0.3-0.4-0.7-0.8-1.2-1.1
	c0,0.2,0.1,0.3,0.2,0.4c0.3,0.4,0.5,0.9,0.7,1.4c0.1,0.4,0.2,0.8,0.1,1.3c0,0.1,0,0.2-0.1,0.2c-0.1,0-0.1-0.1-0.2-0.1
	c-0.2-0.2-0.3-0.4-0.4-0.6c-0.3-0.4-0.5-0.9-1-1.1c-0.4-0.2-0.5-0.4-0.4-0.8c0,0,0,0,0,0c-0.3,0.4-0.3,0.9-0.4,1.4
	c-0.1,0.5-0.3,0.9-0.6,1.3c0-1.1-0.5-2-0.9-3c-0.2,0.7-0.1,1.3,0.1,1.8c0.1,0.4,0.2,0.7,0.2,1.1c0,0.1-0.1,0.2-0.2,0.1
	c-0.3-0.2-0.5-0.4-0.6-0.7c-0.1-0.2-0.2-0.5-0.4-0.7c-0.1-0.2-0.3-0.4-0.6-0.4c0.3,0.2,0.4,0.5,0.4,0.8c0,0.6,0.3,1.2,0.7,1.6
	c0.4,0.3,0.3,0.6,0,1.1c-0.1,0.1-0.1,0.2-0.2,0.2c-0.1,0-0.2-0.2-0.2-0.3c0-0.1,0-0.2-0.1-0.1c-0.1,0-0.1,0.1-0.1,0.1
	c0,0.2,0.1,0.6,0.1,0.6s-0.4,0.3-0.6,0.4c0,0-0.3,0.1-0.3,0c0-0.5-0.2-1-0.3-1.5c-0.1-0.3,0-0.7,0-1c-0.1,0-0.1,0.1-0.1,0.1
	c-0.1,0.4-0.3,0.7-0.3,1.1c0,0.4,0.1,0.9,0.2,1.3c0.1,0.4-0.1,0.7-0.5,0.8c-0.3,0.1-0.5,0-0.7-0.3c-0.1-0.1-0.1-0.2-0.2-0.3
	c-0.1-0.3-0.2-0.5-0.4-0.8c-0.1-0.2-0.3-0.4-0.5-0.6c0.1,0.3,0.3,0.6,0.3,0.9c0.1,0.7,0.2,1.4,0.8,1.8c0.1,0.1,0,0.2-0.1,0.3
	c0,0-0.1,0.1-0.1,0c-0.6-0.3-1.1-0.6-1.3-1.3c0-0.1-0.1-0.3-0.2-0.4c0,0.3-0.1,0.5-0.1,0.8c0,0.2,0,0.4,0.2,0.6
	c0.1,0.2,0.3,0.3,0.5,0.5c0,0,0.1,0.1,0.1,0.1c0,0-0.1,0.1-0.1,0.1c-0.7,0.1-1.3,0.1-1.7-0.5c-0.1-0.2-0.3-0.4-0.5-0.5
	c-0.1,0-0.1-0.1-0.2,0c-0.1,0.1,0,0.1,0,0.2c0.2,0.3,0.4,0.6,0.6,0.9c0.2,0.2,0.4,0.4,0.7,0.4c0.4,0.1,0.7,0,1.1,0
	c0.2,0,0.4,0,0.6,0.1c-0.1,0.1-0.3,0.1-0.4,0.2c-0.2,0.3-0.5,0.5-0.8,0.6c-0.5,0.2-1,0.4-1.5,0.5c-0.1,0-0.3,0-0.3,0.2
	c-0.1,0.4-0.2,0.8,0,1.2c0.2,0.3,0.4,0.4,0.7,0.4c0.2,0,0.4-0.1,0.6-0.1c0.2-0.1,0.5-0.1,0.7,0c0.2,0.1,0.3,0.5,0.1,0.6
	c-0.3,0.1-0.6,0.3-0.9,0.1c-0.2-0.1-0.3,0-0.3,0.2c0,0.1,0,0.2,0,0.2c0.1,0.1,0,0.2-0.1,0.2c-0.3,0.1-0.6,0.2-0.8,0.4
	c-0.3,0.3-0.6,0.6-1,0.8c-0.2,0.1-0.3,0.1-0.3-0.1c-0.1-0.7-0.3-1.4-0.4-2.2c0-0.2-0.2-0.6-0.2-0.7c-0.1-0.2-0.5-0.3-0.5-0.3
	c-0.1,0-0.2,0-0.4,0c-0.8-0.1-1.6-0.3-2.4-0.4c-0.1,0-0.3,0-0.4,0c-0.3,0-0.6,0.2-0.9,0.3c-0.2,0-0.4,0-0.5,0.2c0,0-0.3,0.4-0.6,0.8
	h-1l0-0.1c-0.1-2,0.1-4,0.2-5.1c0-0.3,0.1-0.7,0.1-1.2c0,0.1,0.1,0.2,0.1,0.4c0,0,0,0,0,0c0.1,0.4,0.1,0.7,0,1c0,0.1,0,0.2-0.1,0.3
	c0,0.2-0.1,0.5-0.1,0.7c0,0.3,0,0.6,0,0.8c0,0,0,0.1,0,0.1c0,0,0,0,0.1,0c0,0,0,0,0.1,0c0,0,0.5-0.3,0.7-0.5
	c0.2-0.2,0.6-0.6,0.6-1.1c0-0.2,0-0.3-0.1-0.5c-0.1-0.1-0.1-0.2-0.1-0.2c0,0,0,0,0,0c0,0,0,0,0,0c0,0,0.5,0.5,1.3,0.6l0,0l0,0
	c0,0-0.2-0.7-0.6-1.2c-0.2-0.3-0.5-0.6-1-0.9c0,0,0,0,0-0.1c0,0-0.1-0.1-0.1-0.1c0,0,0-0.1,0-0.1c0,0,0,0,0.1-0.1c0,0,0.1,0,0.1,0
	c0.1,0,0.1,0,0.2,0c0.5,0.2,0.9,0.4,1.3,0.7c0,0,0.2,0.1,0.3,0.2c0.5,0.3,1.3,0.8,1.4,0.9c0.2,0.1,0.6,0.3,1.1,0.3
	c0.5,0,0.9-0.1,1.4-0.4c0.4-0.3,0.8-0.5,1-0.8c0.7-0.6,0.5-1.5,0.5-1.5c-0.1-0.3-0.3-0.4-0.6-0.6c-0.1-0.1-0.3-0.1-0.4-0.1
	c0,0-0.1,0-0.1,0c0,0,0,0-0.1,0c-0.1,0-0.1,0.1-0.2,0.1c-0.2,0.2-0.3,0.5-0.3,0.8c0,0.1,0,0.3,0,0.4c0,0.1,0,0.2,0,0.2
	c0,0,0,0.1,0,0.1c0,0.2,0.1,0.4,0,0.5c-0.2,0.1-0.6-0.1-0.6-0.1c-0.2-0.1-0.4-0.2-0.8-0.3c-0.6-0.2-2.1-0.9-2.5-1.1
	c0.4,0.1,1.5,0.1,1.9,0.1c0.1,0,0.1,0,0.1,0c0.2,0,0.4-0.1,0.5-0.2c0.1,0,0.1-0.1,0.1-0.2c0-0.1,0-0.1-0.1-0.1c0,0-0.1,0-0.1-0.1
	c0,0,0,0,0,0c-0.2-0.1-0.7-0.3-1-0.3c0.3-0.1,1.3-0.3,1.5-0.6c0.2-0.3,0.2-0.9,0.1-1.1c0-0.3,0-0.6-0.1-0.8c0.1,0,0.2,0,0.4,0
	c0,0,0.2,0.1,0.3,0.1c0.5,0.2,1.3,0.5,1.6,0.5c0,0,0.1,0,0.1,0c0.2,0,0.3-0.1,0.5-0.1c0.2,0,0.4-0.1,0.6-0.1c0.1,0,0.1,0,0.1-0.1
	c0,0,0-0.1,0-0.2c-0.1-0.1-0.1-0.2-0.2-0.2c-0.1-0.1-0.1-0.2-0.2-0.3c-0.1-0.2-0.8-0.9-1.7-0.9c0,0-0.1,0-0.1,0c0,0,0,0,0,0
	c0,0,0,0,0,0c0,0,0,0,0,0c0.5-0.1,0.8-0.4,1-0.6c0.2-0.3,0.3-0.6,0.2-1l0,0l0,0c0,0,0,0-0.1,0c0,0,0,0-0.1,0c-0.1,0-0.2,0-0.2,0
	c-0.2,0-0.3,0-0.5,0.1c-0.4,0-0.8,0.2-1.2,0.4c-0.1,0.1-0.4,0.3-0.4,0.4c-0.2,0.2-0.6,0.4-0.9,0.5c-0.1,0-0.1,0.1-0.2,0.1l0,0
	c-0.2,0.2-0.4,0.5-0.7,0.7l-0.3,0.3c0,0-0.1,0-0.1,0.1c0,0,0,0,0,0c0,0,0,0,0,0c0.1-0.1,1-1.2,1.2-1.5c0.1-0.2,0.3-0.4,0.4-0.6
	c0.1-0.2,0.2-0.3,0.3-0.5c0,0,1.7-2.5,1.9-2.7c0,0,0.1-0.1,0.1-0.1c0.2-0.2,0.5-0.5,0.9-0.8c0.2,0.1,0.3,0.2,0.4,0.4l0,0
	c0,0,0.1,0.1,0.1,0.2l0,0c0.2,0.3,0.5,0.8,0.2,1.5c-0.1,0.1,0,0.2,0,0.3c0.4,0.5,0.8,0.6,1,0.6c-0.1,0-0.2,0-0.2,0
	c-0.7,0-1.1-0.8-1.2-1c0,0,0-0.1-0.1-0.1c0-0.1-0.1-0.1-0.1-0.2c0-0.1-0.1-0.1-0.1-0.1c0,0-0.1,0-0.1,0.1l0,0
	c-0.1,0.1-0.2,0.2-0.2,0.3c0,0.1-0.1,0.1-0.1,0.2c-0.1,0.1-0.2,0.2-0.2,0.4c-0.1,0.3,0,0.6,0.2,0.7c0.2,0.2,0.5,0.3,0.8,0.3
	c0,0,0.1,0,0.1,0c0.4,0,0.8-0.1,1.1-0.2c0.2-0.1,0.5-0.2,0.7-0.4c0.5-0.4,0.5-1,0.1-1.7l0,0l-0.2-0.4c0.1,0,0.2,0,0.2,0.1
	c0,0,0.1,0,0.1,0c0.1,0,0.2,0.1,0.3,0.1c0.1,0,0.1,0,0.2,0c0,0,0,0,0,0c0.1,0,0.1,0,0.1-0.1c0-0.1,0-0.1-0.1-0.1c0,0,0,0,0,0
	c-0.2-0.1-0.3-0.3-0.5-0.5c0-0.1-0.1-0.1-0.1-0.2c-0.1-0.1-0.1-0.1-0.2-0.2c-0.1-0.1-0.2-0.3-0.4-0.4c-0.2-0.2-0.4-0.3-0.7-0.3
	c-0.2-0.1-0.5-0.1-0.9-0.1c-0.8,0-1.5,0.2-2,0.4c-1,0.5-1.9,2.3-2.6,3.5c-0.2,0.4-0.4,0.8-0.5,0.9c-0.2,0.3-0.4,0.6-0.6,0.9
	c0,0-0.1,0.1-0.1,0.1c0-0.1,0-0.2,0.1-0.3c0.1-0.3,0.1-0.6,0.2-0.8l0-0.1c0-0.2,0-1.1,0-1.2c-0.1-0.3-0.1-0.6-0.2-0.9l0-0.1
	c0,0,0,0,0,0c0,0,0-0.1-0.1-0.1c0,0,0,0,0,0c-0.1,0-0.1,0-0.1,0.1c0,0,0,0,0,0c0,0.1-0.1,0.1-0.1,0.2c-0.1,0.1-0.2,0.2-0.3,0.3
	c-0.2,0.2-0.2,0.3-0.3,0.5c-0.1,0.2-0.1,0.4,0,0.6c0,0,0,0.1,0,0.1c0,0,0,0,0,0c-0.1-0.6-0.9-1.3-1.1-1.4c-0.1,0-0.1-0.1-0.2-0.1
	c-0.3-0.2-0.6-0.3-0.8-0.5c0,0-0.1-0.1-0.1-0.1c-0.1,0-0.1,0-0.1,0.1c0,0.1,0,0.3-0.1,0.4c0,0.1,0,0.2-0.1,0.3
	c-0.1,0.5-0.1,1,0.2,1.5c0.1,0.2,0.3,0.3,0.4,0.5c0.1,0.1,0.1,0.2,0.2,0.2c0,0,0,0,0,0c0,0,0,0-0.1,0l0,0c0,0,0,0-0.1,0
	c-0.1,0-0.2,0-0.2,0.1l-0.1,0.1l0.1,0c0.4,0.1,0.7,0.6,0.8,0.9c0.1,0.3,0.2,0.7,0.1,1.1c-0.1,0.4-0.2,0.8-0.6,1.3
	c-0.2,0.2-0.6,0.5-0.7,0.5c-0.1,0.1-0.3,0.1-0.4,0.1c-0.1-0.1-0.2-0.2-0.3-0.3l0,0c0,0-0.1-0.1-0.1-0.1l-0.1,0
	C51.5,22.3,50,22,48.6,22c-2.6,0-4.7,0.7-5.3,0.9c0,0-0.1,0.1-0.2,0.1c-0.2,0-0.3,0-0.3,0c0,0-0.1,0-0.1,0c-0.1,0-0.2-0.1-0.3-0.1
	c-0.1,0-0.1,0-0.2,0.1C42.2,23,42,23,41.9,23c-0.4,0-0.7-0.1-0.8-0.2c-0.4-0.1-1-0.4-1.2-1.3c0,0,0,0,0,0c-0.2-0.8,0.6-2.3,0.8-2.3
	c0,0-0.2,0-0.5,0c0,0,0,0,0,0c-0.1,0-0.2,0-0.3,0c-0.1,0-0.2,0-0.2,0c0.3-0.2,0.4-0.5,0.5-0.7c0.4-1,0.1-1.8,0-1.8c0,0,0,0,0,0
	c0,0-0.1,0-0.1,0l0,0c0,0-0.1,0.1-0.1,0.1c-0.1,0.1-0.2,0.1-0.3,0.2c-0.3,0.2-0.6,0.5-0.8,0.8c-0.1,0.1-0.1,0.2-0.2,0.5
	c0,0.1-0.1,0.2-0.1,0.2c0,0,0-0.1,0-0.2c0-0.6-0.7-1.6-0.7-1.6c0,0,0,0,0,0c0,0-0.1,0-0.1,0.1l0,0c0,0,0,0,0,0
	c-0.1,0.3-0.2,0.6-0.3,0.9c0,0.1-0.1,0.5,0,0.8c0.1,0.2,0.1,1.1,0,1.4l0,0.1c0,0.1,0,0.1-0.1,0.1c0,0,0,0,0,0c0,0,0,0-0.1-0.1
	c0,0,0,0,0,0c-0.1-0.2-0.2-0.3-0.3-0.5l0,0c-0.1-0.3-0.2-0.5-0.3-0.8l-0.1-0.2c0-0.1-0.1-0.2-0.1-0.4c0-0.1-0.1-0.3-0.1-0.4
	c0-0.1-0.1-0.2-0.1-0.4c-0.2-0.7-0.6-1.7-0.7-1.9c-0.1-0.2-0.3-0.4-0.5-0.5c-0.2-0.1-0.8-0.3-1-0.4c-0.8-0.2-1.3-0.3-1.8-0.3
	c0,0-0.1,0-0.2,0c-0.5,0-1.5,0.1-2,0.5c-0.2,0.2-0.5,0.3-0.7,0.4l-0.1,0c-0.1,0.1-0.5,0.2-0.6,0.3c-0.2,0.1-0.1,0.2-0.1,0.2
	c0.3,0.4,0.9,0.2,0.9,0.2c0,0-0.3,0.5-0.3,1c0,0,0,0.5,0.1,0.6c0.4,1,1.4,1.2,1.7,1.2c0,0,0,0,0.1,0c0.2,0,0.4,0,0.7,0c0,0,0,0,0,0
	c0.1,0,0.2-0.1,0.3-0.2c0.1-0.1,0.1-0.2,0.2-0.4c0-0.2,0-0.4,0-0.6c0,0,0-0.1,0-0.1c0-0.1-0.1-0.3-0.1-0.5c0-0.1,0-0.1,0-0.1
	c0,0,0,0,0,0c0,0,0,0-0.1,0c0,0-0.1,0-0.1,0c-0.1,0-0.3,0.1-0.4,0.2c0,0-0.1,0-0.1,0.1c-0.1,0-0.2,0.1-0.2,0.1c0-1,0.5-1.7,1.1-2
	c0.1,0,0.4-0.2,1-0.4c0,0,0,0,0,0l0,0c0.1,0.1,0.2,0.4,0.3,0.6c0,0.1,0.1,0.1,0.1,0.2c0.1,0.1,1,2,1.3,2.8c0.1,0.2,0.1,0.3,0.2,0.4
	c0.1,0.1,0.2,0.3,0.3,0.5c0.1,0.1,0.1,0.2,0.2,0.3c0.2,0.3,0.5,0.6,0.6,0.7c0,0-0.1,0-0.1,0c0,0,0,0,0,0c0,0-0.3-0.2-0.5-0.4
	c-0.1-0.1-0.1-0.1-0.2-0.1c-0.3-0.2-1-0.7-1.2-0.8c-0.3-0.2-1.2-0.3-1.5-0.3c0,0,0,0,0,0c0,0-0.1,0-0.1,0c0,0,0,0.1,0,0.1
	c0.4,1,1.3,1.3,1.7,1.5c0.1,0,0.1,0,0.1,0.1c-0.1,0-0.2,0-0.2,0c-0.1,0-0.1,0-0.2,0c-0.2,0-0.3,0-0.4,0c-0.1,0-0.2,0-0.3,0
	c-0.3,0-0.6,0.1-0.8,0.3c-0.2,0.2-0.4,0.4-0.5,0.6c-0.1,0.1-0.1,0.2-0.2,0.3c-0.1,0.2-0.2,0.4-0.4,0.6c0,0-0.1,0.1,0,0.1
	c0,0,0,0,0.1,0.1c0.2,0.1,0.4,0.1,0.6,0.1c0,0,0.1,0,0.1,0l0.1,0c0.2,0,0.3,0,0.5-0.1c0.4-0.1,1.2-0.4,1.6-0.5c0.1,0,0.1,0,0.1,0
	c0.1,0,0.3-0.1,0.4-0.1c0,0,0.1,0,0.1,0c0.3,0,0.5,0.1,0.8,0.1l0.1,0c0.2,0.1,0.4,0.5,0.6,0.7c0,0,0,0,0,0c0.1,0.3,0.3,0.5,0.4,0.6
	c-0.4,0.1-0.9,0.3-1.1,0.5l-0.1,0c0,0-0.1,0.1-0.1,0.1c0,0.1,0.1,0.1,0.1,0.1c0,0,0,0,0.1,0c0,0,0.1,0,0.1,0.1c0,0,0,0,0.1,0
	c0.3,0.1,0.9,0.4,1.3,0.5c0.1,0,0.5,0,0.7-0.1c0.1,0,0.1,0,0.1,0c0,0-0.1,0-0.1,0.1c-0.1,0.1-0.2,0.1-0.3,0.2
	c-0.1,0.1-0.3,0.1-0.4,0.2c-0.2,0.1-0.5,0.3-0.7,0.4c-0.1,0.1-0.2,0.1-0.4,0.2c0,0,0,0,0,0c-0.4,0.3-0.8,0.4-1.1,0.5
	c0.2-0.5,0.1-1.1-0.3-1.6c0,0,0-0.1-0.1-0.1c0,0-0.1,0-0.1,0c-0.2,0.1-0.3,0.2-0.5,0.3l0,0c-0.3,0.2-0.4,0.4-0.4,0.6
	c-0.1,0.3,0,0.5,0.2,0.8c0,0,0.1,0.1,0.1,0.1c0,0,0,0,0,0c0.1,0.1,0.1,0.1,0.2,0.2l0,0c0.4,0.4,0.8,0.7,1.2,0.8
	c0.1,0,0.2,0.1,0.3,0.1c0.1,0,0.2,0,0.3,0c0.1,0,0.3,0,0.4,0c0.6-0.1,1.3-0.5,1.4-0.5l0.2-0.1c0.2-0.2,0.5-0.3,0.7-0.5
	c0.2-0.1,0.3-0.2,0.5-0.3c0.2-0.1,0.3-0.1,0.4-0.1c0,0,0,0.1-0.1,0.1c-0.3,0.4-0.4,0.9-0.4,1.5c0,0.2-0.1,0.4-0.2,0.6
	c0,0.1-0.1,0.2-0.1,0.3l0,0.1l0.1,0c0.2,0,0.5-0.1,0.7-0.3c0,0,0.1-0.1,0.1-0.1c0,0,0,0,0.1,0c0.3,0.7,1.2,1.4,1.4,1.4l0.1,0l0,0
	c0-0.1,0-0.1,0-0.2c0,0,0,0,0,0c0-0.2,0-0.3,0.1-0.4c0.1-0.2,0.1-0.4,0.1-0.6c0,0-0.1-0.2-0.1-0.4c0.3,0.8,0.7,1.8,0.8,2.5
	c0,0.3,0.1,1.8,0.1,2.5c-0.1,0.1-0.1,0.1-0.2,0.2c-0.1,0.1-0.1,0.2-0.1,0.2h-1.6c0-0.1-0.2-0.2-0.5-0.4c-0.3-0.2-0.6-0.5-0.9-0.6
	c-0.2,0-0.3,0-0.5,0c-0.1-0.1-0.2-0.2-0.4-0.2c-0.1,0-0.2,0-0.3,0c-0.1,0-1.7,0.3-1.8,0.3c-0.3,0-1.1,0.1-1.2,0.1
	c-0.9,0.4-1.2,3.1-1.2,3.1c0,0,0,0,0,0c-0.2-0.3-0.5-0.5-0.9-0.5c-0.1,0-0.2-0.1-0.3-0.2c-0.2-0.3-0.5-0.5-0.8-0.6
	c-0.2-0.1-0.2-0.1-0.1-0.3c0,0,0.1-0.1,0-0.1c-0.1,0-0.1,0-0.2,0c-0.3,0-0.6,0-0.8-0.2c-0.1-0.1-0.1-0.2-0.1-0.3
	c0.1-0.2,1,0,1.4-0.1c0.2,0,0.6-0.3,0.7-0.4c0.2-0.3,0.1-0.5,0.1-0.8c0.1-0.4,0-0.4-0.3-0.5c-0.1,0-0.1,0-0.2,0
	c-0.6-0.1-1.9-0.6-2-0.9C30,30,29.8,30,29.5,30c-0.1,0-0.2,0-0.2-0.1c1.5,0.1,2-0.7,2-1.1c-0.2,0.5-1.7,0.7-1.8,0.7
	c-0.2,0-0.1-0.1,0-0.2c0.2-0.1,0.5-0.3,0.6-0.6h0c0.2-0.3,0.2-0.8,0.2-0.9c0-0.1,0-0.1-0.1-0.1c-0.1,0-0.1,0.1-0.1,0.1
	c-0.2,0.7-0.7,1-1.4,1.1c-0.2,0.1-0.3,0-0.3-0.2c-0.1-0.2,0-0.3,0.1-0.5c0.1-0.2,0.2-0.3,0.3-0.5c0.4-0.5,0.5-1,0.1-1.5
	c-0.2-0.3-0.3-0.5-0.5-0.8c0.3,0.9,0.2,1.8-0.5,2.5c-0.1-0.2-0.3-0.4-0.5-0.6c-0.1-0.1-0.1-0.1,0-0.3c0.1-0.5,0.2-0.9,0-1.4
	c-0.1-0.4-0.6-1.4-0.6-1.6c-0.3,0.7,0.2,2,0.1,2.5c0,0.1,0,0.2-0.2,0.2c-0.5-0.2-1-0.5-1.3-1c-0.2-0.3-0.2-0.5,0-0.8
	c0.1-0.2,1-1.1,0.9-2.5c-0.3,0.7-0.6,1.3-1.1,1.8c-0.1,0-0.1,0.2-0.2,0.1c0,0,0-0.1-0.1-0.2c0,0-0.1-0.7,0.1-2.4
	c0-0.2-0.1-0.1-0.1,0c-0.3,0.6-0.5,1.2-0.6,1.8c0,0.3,0,0.6,0,0.9c-0.7-0.1-1-0.8-1.4-1.2c-0.1,0-0.1,1.1,0.7,1.5
	c0.5,0.3,0.9,0.7,1.2,1.2c0.2,0.4,0.3,0.7,0.1,1c0,0-0.5,0.9-0.3,1.5c0,0.1-0.1,0.2-0.2,0.2c-0.7,0-1.3-0.2-1.7-0.7
	c-0.1-0.1-0.1-0.2-0.1-0.4c0.1-0.4,0.3-0.8,0.5-1.2c0.2-0.3,0.3-0.6,0.4-1c0-0.1,0.1-0.2,0-0.2c-0.1,0-0.1,0.1-0.3,0.2
	c-0.4,0.4-0.9,0.8-1.1,1.4c0,0.1,0,0.1-0.1,0.1c-0.1,0-0.1-0.1-0.1-0.1c-0.3-0.5-0.2-0.9,0.1-1.4c0.2-0.4,0.4-0.8,0.5-1.2
	c0.1-0.5,0-1.1-0.2-1.5c0-0.1-0.1-0.2-0.2-0.2c-0.1,0-0.1,0.2-0.1,0.2c0,0.2,0,0.4,0,0.7c0,0.6-0.1,1.2-0.6,1.7
	c-0.1,0.1-0.2,0.2-0.3-0.1c-0.1-0.5-0.2-1-0.2-1.6c0-0.6-0.2-1.6-0.4-1.8c0,0.3,0,0.7-0.1,1c-0.1,0.6-0.2,1.1-0.2,1.8
	c0,0.1,0,0.1-0.1,0.2c-0.1,0-0.1-0.1-0.2-0.1c-0.3-0.4-0.4-1-0.6-1.5c-0.1-0.3-0.2-0.5-0.3-0.8c0.1,0.8-0.2,2.2,0.8,3.2
	c0.3,0.3,0.7,0.5,0.9,0.9c0.1,0.2,0.2,0.4,0.3,0.7c0.3,0.6,0.7,1.1,1,1.7c0.2,0.3,0.5,0.7,0.9,0.6c0,0,0.1,0,0.1,0
	c0.8,0.3,1.6,0.3,2.3,0.2c0.4,0,0.8,0,1.1,0.1c0.2,0.1,0.4,0.2,0.4,0.4c0,0.2,0.1,0.3,0,0.5c-0.2,0.2-0.9-0.4-1.6-0.4
	c-0.5,0-0.8,0.1-1.5,0.1c-0.1,0-0.2,0.1,0,0.2c0.1,0.1,0.6,0.3,0.6,0.4c-0.1,0.2,0,0.1,0.1,0.2c0.1,0.1,1.2,1.1,2,1
	c0.1,0,0.2,0,0.2,0.2c-0.1,0.4-0.1,0.8,0.1,1.2c0.1,0.4,0.2,0.7,0.1,1.1c0,0.1,0.1,0.1,0.1,0.1c0.3-0.2,0.3,0,0.4,0.2
	c0.1,0.3,0.2,0.7,0.5,1c0.1,0.1,0.1,0.1,0.1,0.2c0.1,0.1,0,0.4,0,0.5c0,0.1-0.2,0.5-0.3,0.6c0.1,0,0.3-0.1,0.3-0.1
	c0.1,0.9-0.1,2.9-0.7,3.7c-0.3,0.4-0.8,1.6-2,3.1c-0.3,0.4-0.4,0.9-0.6,1.3c-0.2,0.7-0.7,1.1-1.3,1.4c-0.1,0.1-0.3,0.1-0.4-0.1
	c-0.2-0.3-0.2-0.1-0.3,0c-0.1,0.1-0.2,0.3-0.2,0.5c0,0.2,0,0.3-0.2,0.3c-0.2,0.1-0.3,0.3-0.5,0.5c-0.1,0.1-0.1,0.3-0.1,0.4
	c0.1,0.2,0.2,0.4,0,0.7c0.2-0.1,0.4-0.2,0.6-0.3c0.1-0.1,0.1-0.1,0.2,0c0.2,0.2,0.5,0.3,0.7,0.1c-0.3-0.2-0.4-0.3-0.1-0.6
	c0.2-0.2,0.4-0.3,0.6-0.4c0,0,0.1-0.1,0.2,0c0.1,0,0,0.1,0,0.2c-0.1,0.5,0,1,0.1,1.4c0.1,0.4,0.2,0.8,0.2,1.1c0.2,1-0.3,1.8-1.1,2.4
	c-0.4,0.3-0.4,0.4-0.3,0.8c0,0.1,0.1,0.2,0.1,0.3c0.3,0.6,0.4,1.3,0.6,1.9c0.1,0.4,0.2,1.3,0.5,1.5l0,0c-0.1,0-0.2-0.1-0.3-0.2
	c-0.1,0.1,0,0.2,0.1,0.3c0,0-0.1,0-0.1,0.1c0,0,0,0,0,0c-0.1,0-0.2-0.1-0.3-0.2c-0.1,0.1,0,0.2,0.1,0.3c0,0,0,0-0.1,0.1c0,0,0,0,0,0
	c-0.1,0-0.2-0.1-0.3-0.2c-0.1,0.2,0,0.3,0.1,0.4c0,0,0,0,0,0c0,0,0,0,0,0c-0.1,0-0.2-0.1-0.3-0.2c-0.1,0.2,0,0.3,0.1,0.4l-0.1,0.1
	c-0.1,0.1,0,0.2,0,0.3c0,0.2,0.2,0.4,0.4,0.6c-0.1,0.5,0.2,0.9,0.6,1.2c0.2,0.1,0.3,0.2,0.5,0.2c-0.2,0.2-0.2,0.5-0.1,0.8
	c0.1,0.3,0.4,0.5,0.8,0.5h0c0.1,0,0.3,0,0.4-0.2c0.1-0.2,0.3-0.3,0.6-0.3c0.7,0,1.3,0.2,1.8,0.4l0.1,0.1c0.5,0.2,1,0.4,1.5,0.5
	c0.5,0.1,1,0.1,1.4,0.1c0.9,0,1.9-0.2,2.8-0.6c0.7-0.3,1.5-0.5,2.3-0.5c0.6,0,1.2,0.1,1.8,0.3c0.9,0.3,2.2,0.6,3.5,0.7
	c1.3,0,2.6-0.3,3.5-0.6c0.7-0.2,1.3-0.3,2-0.3c0.6,0,1.2,0.1,1.7,0.3c0.1,0,0.3,0.1,0.4,0.1c0.9,0.3,1.8,0.5,2.8,0.6
	c0.3,0,0.5,0,0.7,0c1,0,1.9-0.2,2.7-0.5c0.8-0.4,1.6-0.5,2.4-0.5c0.6,0,1.3,0.1,1.9,0.3l0.1,0c0.6,0.2,1.2,0.4,1.8,0.5
	c0.5,0.1,1,0.1,1.5,0.1c1,0,2-0.2,3-0.6c0.5-0.2,1-0.4,1.5-0.4l0.1,0c0.2,0,0.3,0,0.5,0c0.3,0,0.5,0.1,0.6,0.2
	c0.1,0.3,0.3,0.3,0.4,0.3c0,0,0,0,0,0c0.3,0,0.7-0.3,0.8-0.6c0-0.2,0-0.4,0-0.5c0.4,0,0.8-0.2,1.1-0.6c0.2-0.3,0.3-0.6,0.3-0.8
	c0.1-0.1,0.2-0.2,0.2-0.4c0-0.3,0-0.5,0-0.7c0,0,0,0,0,0c0.1-0.1,0.2-0.2,0.2-0.4c-0.1,0.1-0.1,0.2-0.3,0.2c0,0,0,0,0,0c0,0,0,0,0,0
	c0.1-0.1,0.2-0.2,0.1-0.4c-0.1,0.1-0.1,0.2-0.3,0.2c0,0,0,0-0.1-0.1c0.1-0.1,0.1-0.2,0.1-0.3c-0.1,0.1-0.1,0.1-0.2,0.2
	c0,0-0.1-0.1-0.1-0.1c0.1-0.1,0.1-0.2,0.1-0.3c-0.1,0.1-0.2,0.2-0.3,0.2c0,0,0,0,0,0c0,0-0.1,0-0.1-0.1c0,0,0.1-0.1,0.1-0.2
	c0.1,0,0.1-0.1,0.1-0.2c-0.1-1.2,0.1-2.3,0.6-3.4c0.1-0.3,0.1-0.4-0.2-0.6c-0.4-0.3-0.6-0.7-0.9-1.1c-0.4-0.7-0.4-1.4-0.2-2.2
	c0.2-0.7,0.3-1.4,0.2-2.1c0-0.1-0.1-0.2,0-0.4c0.2,0.1,0.4,0.2,0.6,0.3c0.1,0.1,0.3,0.1,0.3,0.3c0,0.2-0.2,0.2-0.3,0.3c0,0,0,0,0,0
	c0.2,0.2,0.4,0.2,0.6,0.2c0.2-0.1,0.3-0.1,0.5,0c0.2,0.1,0.4,0.1,0.6,0c-0.3-0.2-0.3-0.4-0.3-0.6c0-0.2,0-0.3,0-0.5
	c0-0.4-0.1-0.6-0.5-0.7c-0.1,0-0.1-0.1-0.1-0.2c0-0.2-0.1-0.4-0.2-0.6C71.5,46,71.4,46,71.3,46c-0.1,0-0.1,0.1-0.1,0.2
	c0,0.2-0.2,0.3-0.4,0.3c-0.3,0-0.7-0.4-0.7-0.5c0,0-0.1-0.1-0.1-0.1c-0.2-0.4-0.5-0.8-0.7-1.2c-0.5-1-1.1-2-1.8-3
	c-0.8-1.1-1.2-2.4-1.1-3.7c0-0.5,0.1-1,0.6-1.3c0.1,0,0.1-0.1,0-0.2c-0.2-0.1-0.2-0.3-0.1-0.5c0.1-0.5,0.3-0.9,0.4-1.4
	c0-0.1,0.1-0.3,0.2-0.4c0,0,0.2,0,0.3,0.1c0,0,0.1,0,0.1,0c0,0,0-0.1,0-0.1c-0.2-0.3-0.2-0.6-0.1-0.9c0,0,0-0.1,0-0.2
	c0,0,0.2-0.5,0.2-0.7c0-0.2,0-0.3,0-0.5c0.6,0.1,1-0.3,1.3-0.6c0.4-0.3,0.5-0.8,0.9-1.3c-0.4,0.2-0.8,0.2-1.2,0.1
	c-0.2,0-0.4,0-0.7,0.1c-0.2,0.1-0.5,0.2-0.7,0.2c-0.2,0-0.4-0.1-0.3-0.3c0-0.2,0.2-0.3,0.4-0.4c0.3-0.1,0.7-0.1,1,0
	c0.3,0,0.5-0.1,0.6-0.3c0.1-0.2,0.2-0.2,0.4-0.2c0.4-0.1,0.9-0.1,1.3-0.1c0.5-0.1,0.9-0.2,1-0.7c0-0.1,0.1-0.1,0.1-0.1
	c0.8-0.6,1.3-1.4,1.5-2.3c0-0.1,0-0.2,0.1-0.3c0.2-0.2,0.4-0.5,0.6-0.8c0.3-0.5,0.5-1.1,0.5-1.7C74.9,22.4,74.5,21.9,74.5,21.3
	L74.5,21.3z M42.9,37.7c0.2-0.5,0-1-0.4-1.1c-0.1,0-0.2,0-0.3,0c-0.1,0-0.1,0.1,0,0.1c0,0,0.1,0,0.1,0c0.4,0.1,0.6,0.6,0.4,1
	c-0.1,0.4-0.5,0.6-0.8,0.6c0,0,0,0,0,0c0,0,0,0,0,0C42.2,38.4,42.7,38.2,42.9,37.7 M44.1,37.7c-0.4,0.1-1.6,0.4-1.5,0.7
	c0,0.1,0.2,0.1,0.3,0.1c0.1,0,1.1-0.2,1.3-0.2c0.1,0,0.2-0.2,0-0.2c-0.9,0.1-1.3,0.2-1.3,0.2s0.3-0.2,1.3-0.4
	C44.7,37.9,44.4,37.7,44.1,37.7 M44.1,38.5c-0.4,0-0.8,0.1-1,0.1c0,0,0.9,0,1,0C44.3,38.7,44.3,38.5,44.1,38.5 M41,37
	c-0.1-0.1-0.3,0-0.4,0.1c0,0,0,0.1,0,0.1c0,0,0,0.1,0,0.1c0,0.1,0.1,0.2,0.1,0.2c0.1,0.1,0.3,0,0.4-0.1C41.2,37.3,41.1,37.1,41,37
	 M42.5,44.7c0.4,0.1,0.8-0.1,0.9-0.5c0.2-0.4,0-0.8-0.4-1c-0.1,0-0.2,0-0.3,0c-0.1,0-0.1,0.1,0,0.1c0,0,0.1,0,0.1,0
	c0.3,0.1,0.5,0.5,0.3,0.9C43.1,44.5,42.8,44.7,42.5,44.7C42.5,44.7,42.5,44.7,42.5,44.7C42.5,44.7,42.5,44.7,42.5,44.7 M43.2,44.8
	c0,0.1,0.2,0.1,0.3,0.1c0.1,0,1-0.1,1.1-0.1c0.1,0,0.2-0.2,0-0.2c-0.8,0.1-1.1,0.2-1.1,0.2s0.3-0.2,1.1-0.3c0.4-0.1,0.1-0.3-0.1-0.2
	C44.2,44.3,43.2,44.5,43.2,44.8 M44.5,44.9c-0.3,0-0.7,0.1-0.8,0.1c0,0,0.8,0,0.9,0C44.6,45.1,44.6,44.9,44.5,44.9 M41.8,43.6
	c-0.1-0.1-0.3,0-0.3,0.1c0,0,0,0,0,0.1c0,0,0,0.1,0,0.1c0,0.1,0,0.1,0.1,0.2c0.1,0.1,0.3,0,0.3-0.1C42,43.8,41.9,43.7,41.8,43.6
	 M43.4,50.3c0.3,0.1,0.6-0.1,0.7-0.4c0.1-0.3,0-0.7-0.3-0.8c-0.1,0-0.2,0-0.2,0c0,0-0.1,0,0,0.1c0,0,0.1,0,0.1,0
	c0.3,0.1,0.4,0.4,0.3,0.7C43.8,50.1,43.6,50.3,43.4,50.3C43.4,50.2,43.3,50.3,43.4,50.3C43.3,50.3,43.4,50.3,43.4,50.3 M43.9,50.4
	c0,0.1,0.2,0.1,0.2,0.1s0.8-0.1,0.9-0.1c0.1,0,0.1-0.2,0-0.1c-0.7,0.1-0.9,0.1-0.9,0.1s0.2-0.1,0.9-0.2c0.3-0.1,0.1-0.2-0.1-0.2
	C44.7,50,43.9,50.2,43.9,50.4 M45,50.4c-0.2,0-0.5,0-0.7,0.1c0,0,0.6,0,0.7,0C45.1,50.6,45.1,50.4,45,50.4 M42.8,49.4
	c-0.1-0.1-0.2,0-0.3,0.1c0,0,0,0,0,0.1c0,0,0,0,0,0.1c0,0.1,0,0.1,0.1,0.1c0.1,0.1,0.2,0,0.3-0.1C42.9,49.6,42.9,49.4,42.8,49.4
	 M23.1,58.1C23.1,58.1,23.1,58.1,23.1,58.1C23.1,58.1,23.1,58.1,23.1,58.1 M23.2,57.9C23.2,57.9,23.2,57.9,23.2,57.9
	C23.2,57.9,23.2,57.9,23.2,57.9 M23.5,57.7C23.5,57.7,23.5,57.7,23.5,57.7C23.5,57.7,23.5,57.7,23.5,57.7 M23.8,57.5
	C23.8,57.5,23.8,57.5,23.8,57.5C23.8,57.5,23.8,57.5,23.8,57.5 M26.4,56.3C26.4,56.3,26.4,56.3,26.4,56.3
	C26.4,56.3,26.4,56.3,26.4,56.3 M26.7,56.3C26.7,56.3,26.7,56.3,26.7,56.3C26.7,56.3,26.7,56.3,26.7,56.3 M27,56.3
	C27,56.3,27,56.3,27,56.3C27,56.3,27,56.3,27,56.3 M27.2,56.3C27.2,56.3,27.2,56.3,27.2,56.3C27.2,56.3,27.2,56.3,27.2,56.3
	 M27.5,56.3C27.5,56.3,27.5,56.3,27.5,56.3C27.5,56.3,27.5,56.3,27.5,56.3 M27.8,56.3C27.8,56.3,27.8,56.3,27.8,56.3
	C27.8,56.3,27.8,56.3,27.8,56.3 M28.1,56.2C28.1,56.3,28.1,56.3,28.1,56.2C28.1,56.3,28.1,56.3,28.1,56.2 M28.3,56.3
	C28.3,56.3,28.3,56.3,28.3,56.3C28.3,56.3,28.3,56.3,28.3,56.3 M32.6,55.8C32.6,55.8,32.6,55.8,32.6,55.8
	C32.6,55.8,32.6,55.8,32.6,55.8 M32.9,55.9C32.9,55.9,32.9,55.9,32.9,55.9C32.9,55.9,32.9,55.9,32.9,55.9 M33.1,55.7
	C33.1,55.7,33.1,55.7,33.1,55.7C33.1,55.7,33.1,55.7,33.1,55.7 M33.4,55.8C33.4,55.8,33.4,55.8,33.4,55.8
	C33.4,55.8,33.4,55.8,33.4,55.8 M40.7,54.7C40.7,54.7,40.7,54.7,40.7,54.7C40.7,54.7,40.7,54.7,40.7,54.7 M41,54.8
	C41,54.8,41,54.8,41,54.8C41,54.8,41,54.8,41,54.8 M51.4,54.8C51.4,54.8,51.4,54.8,51.4,54.8L51.4,54.8 M51,54.9
	C51,54.9,51,54.9,51,54.9L51,54.9 M62.5,55.6C62.5,55.6,62.5,55.6,62.5,55.6L62.5,55.6 M62.2,55.4C62.2,55.5,62.2,55.5,62.2,55.4
	L62.2,55.4 M61.7,55.4C61.7,55.4,61.7,55.4,61.7,55.4L61.7,55.4 M68,56.4C68,56.4,68,56.4,68,56.4C68,56.4,68,56.4,68,56.4
	 M67.7,56.3C67.7,56.3,67.7,56.3,67.7,56.3L67.7,56.3 M67.5,56.3C67.5,56.3,67.5,56.3,67.5,56.3C67.5,56.3,67.5,56.3,67.5,56.3
	 M67.3,56.1C67.3,56.1,67.3,56.1,67.3,56.1L67.3,56.1 M66.9,56.2C66.9,56.2,66.9,56.2,66.9,56.2L66.9,56.2 M71.7,58.1
	C71.7,58.1,71.7,58.1,71.7,58.1C71.7,58.1,71.7,58.1,71.7,58.1 M71.6,57.9C71.6,57.9,71.6,57.9,71.6,57.9
	C71.6,57.9,71.6,57.9,71.6,57.9 M71.3,57.7C71.3,57.7,71.3,57.7,71.3,57.7C71.3,57.7,71.3,57.7,71.3,57.7 M71.1,57.4
	C71.1,57.4,71.1,57.4,71.1,57.4C71.1,57.4,71.1,57.4,71.1,57.4 M49.8,12.8V15c0,0.4,0,0.7-0.1,1l-2.3-2.8l-2.3,2.8
	C45.1,15.7,45,15.4,45,15v-2.2L49.8,12.8z M47.4,18.4L47.4,18.4c-0.2,0-0.9-0.3-1.5-0.9l1.5-1.8c0,0,0,0,0,0h0h0l0,0h0c0,0,0,0,0,0
	c0,0,0,0,0,0l1.5,1.8C48.3,18.1,47.6,18.4,47.4,18.4L47.4,18.4z M44.2,13.4c0,0.2-0.3,0.5-1.1,0.9c-0.1,0-0.2,0.1-0.3,0.2
	c0,0,0.2-0.3,0.4-0.6c0.2-0.4,0.2-0.9,0-1.4c-0.1-0.3-0.3-0.6-0.6-0.8c-0.2-0.1-0.3-0.2-0.5-0.2c-0.2-0.1-0.2-0.1-0.1-0.3
	c0.1,0,0.1,0.1,0.2,0.1c0.2,0,0.2,0,0.3-0.1c0-0.1,0.1-0.1,0.1-0.2c0.1-0.1,0.1-0.1,0.2-0.1c0.1,0,0.2,0,0.4,0
	c0.2-0.1,0.3,0,0.4,0.2c0.1,0.2,0.1,0.3,0.1,0.5c0,0.3,0.1,0.7,0.2,1c0,0.1,0.1,0.2,0.1,0.2C44.3,13,44.3,13.2,44.2,13.4L44.2,13.4z
	 M54.2,0.6c-0.1-0.1-0.3-0.2-0.4-0.2c0,0-0.1,0-0.1,0c0,0,0.2,0.3,0.3,0.4c0.2,0.3,0.2,0.6,0.1,0.9C54,1.9,54,2.1,53.8,2.2
	c-0.1,0-0.4-0.5-0.5-0.7C53.2,1.2,53,0.2,53,0c0,0,0,0,0,0c0,0,0,0,0,0c0,0-0.1,0.5-0.2,0.8c-0.1,0.3,0,0.5,0.1,0.8
	c0,0.1,0.1,0.3,0.1,0.5c0,0.1,0,0.2,0,0.2c-0.1,0-0.1-0.1-0.2-0.1c-0.2-0.2-0.4-0.4-0.5-0.7c0-0.1-0.1-0.2-0.1-0.2
	c0,0.1,0.1,0.6,0.2,0.7c0,0,0,0.1,0,0.1c0,0-0.1,0-0.1,0c0,0,0,0,0,0c-0.2-0.2-0.4-0.5-0.5-0.8c0-0.1,0-0.1,0-0.2c0,0,0-0.1-0.1-0.1
	c0,0,0,0.1,0,0.1c0,0.1,0,0.2,0,0.3c0,0.3,0,0.5,0.2,0.7c0.1,0.1,0.1,0.2,0.2,0.3c0.1,0.1,0.1,0.2,0.2,0.4c0,0.2,0,0.2-0.2,0.2
	c-0.2,0-0.3-0.1-0.4-0.2c-0.4-0.2-0.7-0.5-0.9-0.9c0,0,0-0.1-0.1-0.1c0,0,0,0,0,0.1c0,0.1,0.1,0.3,0.1,0.4c0.1,0.5,0.3,0.8,0.7,0.9
	c0.1,0,0.2,0.1,0.3,0.2c0.1,0.1,0.2,0.2,0.2,0.3c0,0.2-0.1,0.4-0.2,0.6c-0.1,0.1-0.1,0.1-0.2,0c0-0.1-0.1-0.2-0.1-0.3
	c0,0,0-0.1-0.1-0.1c0,0-0.1,0-0.1,0.1c0,0.2,0,0.4,0,0.5c0,0.1-0.1,0.2-0.2,0.2c-0.1,0-0.2-0.1-0.2-0.1c-0.2-0.1-0.4-0.3-0.5-0.5
	c-0.2-0.2-0.3-0.5-0.3-0.9c0,0,0-0.1,0-0.1c0,0,0-0.1-0.1-0.1c-0.1,0.1-0.1,0.3-0.2,0.4c-0.1,0.4-0.1,0.8,0.1,1.1
	c0.1,0.1,0.2,0.2,0.2,0.3C50,5,50,5,49.9,5.1c-0.1,0.1-0.2,0.1-0.3,0.2c-0.1,0.1-0.2,0.1-0.3,0c-0.1-0.1-0.2-0.3-0.3-0.4
	C49,4.8,49,4.7,49,4.6c-0.1-0.3-0.1-0.5,0-0.8c0,0,0-0.1,0-0.2c-0.1,0.2-0.2,0.4-0.3,0.6c0,0.1-0.1,0.3-0.1,0.4
	c0.1,0.4,0.2,0.7,0.5,1c0.1,0.1,0.1,0.1,0.1,0.3c0,0.1,0,0.1,0,0.2c0,0.1,0,0.1-0.1,0.1c-0.3-0.1-0.7-0.2-0.9-0.4
	c-0.1-0.1-0.2-0.2-0.3-0.3c-0.2-0.1-0.4-0.3-0.6-0.4c0,0-0.1-0.1-0.1,0c0,0.2,0.1,0.4,0.2,0.5c0.1,0.2,0.2,0.3,0.3,0.5
	c0.1,0.2,0.3,0.3,0.4,0.4c-0.6-0.1-1.1-0.5-1.5-0.9c0,0.4,0.2,0.7,0.4,0.9c0.2,0.3,0.5,0.4,0.9,0.6c-0.1,0-0.1,0-0.2,0
	c-0.1,0-0.2,0-0.4,0c-0.2,0.1-0.3,0.1-0.5,0c-0.1,0-0.3,0-0.3,0c-0.1,0-0.2,0-0.2,0.1c0,0.1-0.1,0.2-0.2,0.3
	c-0.2,0.3-0.2,0.3-0.1,0.6c0,0.1,0,0.1,0.1,0.2c0.1,0,0.1,0.1,0.1,0.2C46,8.8,46.1,9,46.3,9c0.2,0.1,0.4,0.1,0.5,0.1
	c0.2,0,0.3,0.1,0.5,0.1c0.1,0,0.2,0.1,0.3,0.3c0,0.1-0.1,0.2-0.2,0.3C47.2,10,47,9.9,46.8,10c0,0-0.1,0-0.1,0
	c-0.1-0.1-0.2-0.1-0.3,0c0,0-0.1,0-0.1,0c0,0,0-0.1,0-0.1c0,0,0-0.1,0-0.1c0-0.1,0-0.2-0.1-0.2c-0.1,0-0.1,0-0.1-0.1
	c0-0.1-0.1-0.1-0.1-0.2c-0.1-0.1-0.2,0-0.2,0.1c0,0.1,0,0.2,0,0.4c0,0.4,0,0.7-0.1,1.1c0,0.1-0.1,0.2-0.1,0.3
	c-0.1,0.1-0.2,0.2-0.1,0.4c0,0.1,0,0.2-0.1,0.2c-0.1,0-0.1,0-0.2-0.1c-0.1-0.2-0.2-0.4-0.3-0.6c-0.1-0.4-0.2-0.8-0.5-1.1
	c-0.2-0.2-0.4-0.3-0.6-0.1c-0.1,0-0.1,0.1-0.2,0.1c-0.2,0-0.4,0.1-0.6,0.1c-0.2,0-0.4,0-0.6,0.1c-0.1,0-0.2,0-0.4,0
	c-0.1,0-0.1,0-0.2,0.1c0,0-0.1,0.1-0.1,0.2c-0.1,0.2-0.2,0.4-0.4,0.5c-0.2,0.1-0.3,0.3-0.3,0.5c0,0.1-0.1,0.2-0.2,0.3
	c-0.8,0.5-1.1,1.3-0.8,2.1c0.2,0.7,0.8,1.1,1.5,1.2c0.2,0,0.2,0,0.3,0c0,0.1-0.1,0.2-0.1,0.3c-0.1,0.2-0.2,0.5-0.1,0.7
	c0.1,0.4,0.1,0.8,0,1.2c0,0.1,0.1,0.3,0.2,0.3c0.1,0,0.1,0.1,0.1,0.2c0,0.2,0.1,0.5,0.2,0.6c0.2,0.2,0.4,0.3,0.7,0.5
	c0.1,0.1,0.1,0.1,0.1-0.1c0-0.1,0-0.2,0-0.3c0.1,0.1,0.2,0.1,0.3,0.1c0.1,0,0.1,0,0-0.1C43.1,18.2,43,18,43,17.8
	c0-0.2-0.2-0.4-0.4-0.5c-0.1,0-0.1-0.1-0.1-0.2c0-0.1,0-0.1,0-0.2c-0.2-0.3-0.2-0.6-0.2-0.9c0-0.2,0.1-0.4,0.4-0.4
	c0.1,0,0.1,0,0.2,0c0.3-0.1,0.6-0.1,1-0.2c0.1,0,0.3,0,0.4,0c0.1,0,0.1,0.1,0.2,0.1c0.1,0.1,0.1,0.2,0.1,0.4
	c0.1,0.1,0.1,0.3,0.2,0.4c0.4,1.3,1.4,2,2,2.3c0,0,0,0.1,0,0.1c0,0.1,0,0.2,0,0.3c-1.7,0.2-3.2,0.7-3.8,0.9l-0.1,0
	c-0.3,0.1-0.5,0.5-0.4,0.8c0.1,0.3,0.3,0.4,0.6,0.4c0.1,0,0.1,0,0.2,0l0.2,0c0.7-0.2,2.5-0.8,4.6-0.9c2.7,0,4.9,0.7,4.9,0.8
	c0.3,0.1,0.7-0.1,0.8-0.4c0.1-0.3-0.1-0.7-0.4-0.8c-0.1,0-1.3-0.4-3-0.7c-0.1-0.3-0.3-0.7-0.4-1c-0.1-0.3-0.2-0.7-0.2-1
	c0.3-0.5,0.5-1.2,0.5-2.1v-2.6h-0.7c0,0,0,0,0,0c0,0,0-0.1,0.1-0.1c0.2-0.3,0.4-0.6,0.7-0.8c0.1-0.1,0.2-0.3,0.3-0.4
	c0.1-0.1,0.1-0.1,0-0.2c-0.1,0-0.1,0-0.2,0c0,0-0.1,0-0.1,0c0,0,0,0,0-0.1c0.2-0.5,0.3-1.1,0.4-1.6c0-0.1,0-0.2,0-0.4
	c0-0.1,0-0.1,0.1-0.1c0.3,0,0.5-0.2,0.7-0.3C51.8,8,52,7.7,52.1,7.3c0-0.1,0-0.1-0.1-0.1c-0.2,0-0.4,0-0.6,0c-0.3,0-0.5,0-0.8,0.1
	c-0.2,0.1-0.3-0.1-0.5-0.1c0.2-0.2,0.4-0.3,0.7-0.3c0.4,0,0.8-0.1,1.2-0.2c0.4-0.1,0.9-0.3,1.2-0.6c0.4-0.4,0.7-0.8,0.8-1.3
	c0.1-0.3,0.1-0.6,0.1-0.9c0-0.3,0.1-0.6,0-0.8c0-0.2,0-0.3,0-0.4c0-0.1,0.1-0.1,0.1-0.2c0.1-0.3,0.3-0.6,0.3-0.9
	C54.8,1.2,54.5,0.8,54.2,0.6L54.2,0.6z"/>
</svg>
