<svg xmlns:xlink="http://www.w3.org/1999/xlink" xmlns="http://www.w3.org/2000/svg" class="kg-logo" viewBox="299.5 0 191.6 30.9">
  <path class="kg-logo__fill" d="M299.5 0v8.1L311 19.4l11.3 11.5h8.1l-15.5-15.5zM299.5 19.6v11.3h11.3l-5.6-5.8zM311 0l8.4 8.4 8.4-8.4h-8.4zM352.3 13.8l7.2-8.3h4.8l-8.1 9.1 8.8 10.5h-5.1l-7-8.8-.5.5v8.3h-3.8V5.6h3.8v8.2zM370 15.4c0-5.7 4.6-10.3 10.5-10.3S391 9.6 391 15.3s-4.6 10.2-10.5 10.2c-5.9.1-10.5-4.3-10.5-10.1zm4 0c0 3.7 2.9 6.8 6.5 6.8 3.7 0 6.5-3 6.5-6.8 0-3.7-2.9-6.7-6.5-6.7a6.8 6.8 0 00-6.5 6.7zM399.1 25.3v-20h2.7L413.7 19V5.7h3.8v20h-2.7L402.9 12v13.2h-3.8zM435.2 17l6.2 8.3h-4.8l-5.3-7.8h-.5v7.8H427V5.6h5.7c2.1 0 3.8.5 4.9 1.4 1.3 1 1.9 2.7 1.9 4.5 0 2.1-.8 3.8-2.2 4.8-.6.2-1 .4-2.1.7zm-4.3-2.4h1.1c2.4 0 3.8-1 3.8-3s-1.3-2.9-3.7-2.9H431v5.9h-.1zM461.8 21.3h-8l-1.8 4.1h-4l8.4-20h2.9l8.3 20h-4.1l-1.7-4.1zm-1.1-3.2l-2.7-7-2.9 7h5.6zM475 25.3V5.6h5.6c6.2 0 10.5 4 10.5 9.7 0 2.9-1.3 5.7-3.5 7.6-1.9 1.6-4 2.2-7 2.2H475v.2zm3.8-3.3h1c2.5 0 4-.5 5.3-1.6 1.3-1.3 2.1-3 2.1-4.9 0-1.9-.8-3.7-2.1-4.9-1.3-1.1-2.7-1.6-5.3-1.6h-1v13z"/>
</svg>