<svg xmlns="http://www.w3.org/2000/svg" xmlns:xlink="http://www.w3.org/1999/xlink" version="1.1" id="layer" x="0px" y="0px" style="enable-background:new 0 0 652 652;" xml:space="preserve" viewBox="17.5 229.82 603.68 184.58">
<style type="text/css">
	.st0{fill:#5F5FA4;}
	.st1{fill:none;stroke:#FF975C;stroke-width:7.3614;stroke-linecap:round;stroke-linejoin:round;}
</style>
<path class="st0" d="M63.4,356.3l34-36.6c0.8-0.9,1-2.1,0.6-3.2c-0.5-1.1-1.6-1.8-2.7-1.8H76.7c-0.8,0-1.6,0.3-2.2,1L38.1,355v-37.3  c0-1.7-1.3-3-3-3H20.5c-1.7,0-3,1.3-3,3v92.6c0,1.7,1.3,3,3,3h14.5c1.7,0,3-1.3,3-3v-26.6l11.2-12.3l28.3,40.6  c0.6,0.8,1.5,1.3,2.5,1.3h17.9c1.1,0,2.1-0.6,2.7-1.6c0.5-1,0.4-2.2-0.2-3.1L63.4,356.3z M134.4,396.7c-9.3,0-16.8-8.2-16.8-18.2  c0-10,7.6-18.2,16.8-18.2s16.8,8.2,16.8,18.2C151.3,388.5,143.7,396.7,134.4,396.7 M134.4,342.4c-19.5,0-36.1,16.5-36.1,36  c0,19.5,16.5,36,36.1,36c19.5,0,36-16.5,36-36C170.5,359,154,342.4,134.4,342.4 M215.8,396.7c-9.3,0-16.8-8.2-16.8-18.2  c0-10,7.6-18.2,16.8-18.2s16.8,8.2,16.8,18.2C232.6,388.5,225.1,396.7,215.8,396.7 M215.8,342.4c-19.5,0-36.1,16.5-36.1,36  c0,19.5,16.5,36,36.1,36c19.5,0,36-16.5,36-36C251.8,359,235.3,342.4,215.8,342.4 M377.1,396.7c-9.3,0-16.8-8.2-16.8-18.2  c0-10,7.6-18.2,16.8-18.2c9.3,0,16.8,8.2,16.8,18.2C394,388.5,386.4,396.7,377.1,396.7 M377.1,342.4c-19.5,0-36.1,16.5-36.1,36  c0,19.5,16.5,36,36.1,36c19.5,0,36-16.5,36-36C413.2,359,396.7,342.4,377.1,342.4 M458.5,396.7c-9.3,0-16.8-8.2-16.8-18.2  c0-10,7.6-18.2,16.8-18.2c9.3,0,16.8,8.2,16.8,18.2C475.3,388.5,467.8,396.7,458.5,396.7 M458.5,342.4c-19.5,0-36.1,16.5-36.1,36  c0,19.5,16.5,36,36.1,36c19.5,0,36-16.5,36-36C494.5,359,478,342.4,458.5,342.4 M296.5,396.7c-7.8,0-16.2-7.3-16.2-18.2  c0-10.9,8.4-18.2,16.2-18.2c7.8,0,16.2,7.3,16.2,18.2C312.6,389.4,304.3,396.7,296.5,396.7 M328.9,314.7h-13.2c-1.7,0-3,1.3-3,3  v30.1c-3.9-2.6-9.9-5.4-17.5-5.4c-18.5,0-34.1,16.5-34.1,36c0,19.5,15.6,36,34.1,36c7.6,0,13.6-2.8,17.5-5.4v1c0,1.7,1.3,3,3,3h13.2  c1.7,0,3-1.3,3-3v-92.6C331.8,316,330.5,314.7,328.9,314.7"/>
<polyline id="Stroke-1" class="st1" points="534.7,336.7 507.4,336.7 501.4,283.6 540,253.5 "/>
<path id="Stroke-2" class="st1" d="M564,336.7h-17.6"/>
<polyline id="Stroke-3" class="st1" points="507.4,336.7 536.1,350.7 573.6,350.7 "/>
<polyline id="Stroke-4" class="st1" points="599.1,297 584,346.4 564,336.7 575.1,296.4 "/>
<polyline id="Stroke-5" class="st1" points="494.2,289.2 476.4,280.6 536.8,233.5 578.3,285.3 617.5,304.3 577.3,252.8 558.5,243.8   "/>
<polyline id="Stroke-7" class="st1" points="527.1,327 523.6,298.9 550.8,298.9 546,336.7 "/>
</svg>