<svg xmlns="http://www.w3.org/2000/svg" fill="none" viewBox="0.11 0 467.48 120.04">
  <path d="M180.436 92.7989H197.755L176.955 54.9476L197.576 30.3086H178.651L163.742 51.1982L157.136 64.4997V30.3086H143.031V92.7989H157.136V78.6939L167.402 66.4637L180.436 92.7989Z" fill="#1A1E23"/>
  <path d="M223.618 47.2702C210.406 47.2702 199.336 56.1082 199.336 70.5702C199.336 84.943 210.406 93.6916 223.618 93.6916C236.83 93.6916 247.9 84.943 247.9 70.5702C247.9 56.1082 236.83 47.2702 223.618 47.2702ZM223.618 81.3721C216.298 81.3721 212.905 77.8905 212.905 70.5702C212.905 63.0714 216.298 59.5898 223.618 59.5898C230.938 59.5898 234.331 63.0714 234.331 70.5702C234.331 77.8905 230.938 81.3721 223.618 81.3721Z" fill="#1A1E23"/>
  <path d="M277.931 47.2702C264.719 47.2702 253.649 56.1082 253.649 70.5702C253.649 84.943 264.719 93.6916 277.931 93.6916C291.143 93.6916 302.213 84.943 302.213 70.5702C302.213 56.1082 291.143 47.2702 277.931 47.2702ZM277.931 81.3721C270.61 81.3721 267.218 77.8905 267.218 70.5702C267.218 63.0714 270.61 59.5898 277.931 59.5898C285.251 59.5898 288.643 63.0714 288.643 70.5702C288.643 77.8905 285.251 81.3721 277.931 81.3721Z" fill="#1A1E23"/>
  <path d="M342.51 30.3086V58.5185C339.921 51.1982 334.475 47.2702 326.887 47.2702C314.657 47.2702 307.962 56.5545 307.962 70.5702C307.962 84.4073 315.014 93.6916 327.78 93.6916C334.922 93.6916 340.01 89.8529 342.51 82.8004V92.7989H356.079V30.3086H342.51ZM332.065 81.3721C324.923 81.3721 321.531 77.8905 321.531 70.5702C321.531 63.0714 324.923 59.5898 332.065 59.5898C339.475 59.5898 342.956 63.0714 342.956 70.5702C342.956 77.8905 339.475 81.3721 332.065 81.3721Z" fill="#1A1E23"/>
  <path d="M388.997 47.2702C375.785 47.2702 364.715 56.1082 364.715 70.5702C364.715 84.943 375.785 93.6916 388.997 93.6916C402.21 93.6916 413.279 84.943 413.279 70.5702C413.279 56.1082 402.21 47.2702 388.997 47.2702ZM388.997 81.3721C381.677 81.3721 378.285 77.8905 378.285 70.5702C378.285 63.0714 381.677 59.5898 388.997 59.5898C396.318 59.5898 399.71 63.0714 399.71 70.5702C399.71 77.8905 396.318 81.3721 388.997 81.3721Z" fill="#1A1E23"/>
  <path d="M443.31 47.2702C430.098 47.2702 419.028 56.1082 419.028 70.5702C419.028 84.943 430.098 93.6916 443.31 93.6916C456.523 93.6916 467.592 84.943 467.592 70.5702C467.592 56.1082 456.523 47.2702 443.31 47.2702ZM443.31 81.3721C435.99 81.3721 432.598 77.8905 432.598 70.5702C432.598 63.0714 435.99 59.5898 443.31 59.5898C450.631 59.5898 454.023 63.0714 454.023 70.5702C454.023 77.8905 450.631 81.3721 443.31 81.3721Z" fill="#1A1E23"/>
  <path d="M106.306 34.6657L56.7057 0L40.5703 11.3685V25.1595L76.3962 50.3153C80.6624 53.3108 83.2018 58.2446 83.2019 63.4574L83.207 113.805C102.778 103.912 113.141 82.6602 113.141 79.9499V47.7781C113.141 42.5529 110.589 37.659 106.306 34.6657Z" fill="#6156E1"/>
  <path d="M76.3962 50.3153L30.7287 18.249L19.1602 26.3968V40.4439L46.3108 59.4354C50.5907 62.4291 53.1399 67.3233 53.1399 72.5463V119.984C53.8203 120.018 54.5027 120.036 55.1865 120.036C72.4941 120.042 83.207 113.805 83.207 113.805L83.2019 63.4574C83.2018 58.2446 80.6624 53.3108 76.3962 50.3153Z" fill="#756AF1"/>
  <path d="M0.109375 47.9743C0.109326 42.8305 2.5823 38.007 6.75552 34.9998L9.03205 33.3594L46.3108 59.4354C50.5907 62.4291 53.1399 67.3233 53.1399 72.5463V120.027C28.0445 120.027 0.109375 95.9125 0.109873 76.1818C0.110371 56.4512 0.109472 58.2511 0.109375 47.9743Z" fill="#8D83FB"/>
</svg>