<?xml version="1.0" encoding="utf-8"?>
<!-- Generator: Adobe Illustrator 25.2.1, SVG Export Plug-In . SVG Version: 6.00 Build 0)  -->
<svg version="1.1" id="Layer_1" xmlns="http://www.w3.org/2000/svg" xmlns:xlink="http://www.w3.org/1999/xlink" x="0px" y="0px"
	 viewBox="0 0 1466 486" style="enable-background:new 0 0 1466 486;" xml:space="preserve">
<style type="text/css">
	.st0{fill:#00283C;}
</style>
<path class="st0" d="M1318.2,399.8h55.1c2.3,0,3.8-2.3,2.9-4.4l-122-277.3c-8.2-18.8-26.8-30.9-47.3-30.9l0,0
	c-20.5,0-39,12.1-47.3,30.8L1037,395.3c-0.9,2.1,0.6,4.4,2.9,4.4h55.3c2.5,0,4.7-1.5,5.7-3.7l28.6-64.7c0.5-1.1,1.6-1.9,2.9-1.9
	H1281c1.2,0,2.4,0.7,2.9,1.9l28.6,64.8C1313.5,398.3,1315.7,399.8,1318.2,399.8L1318.2,399.8z M1156.9,269.2l48.3-109.4
	c0.6-1.4,2.7-1.4,3.3,0l48.1,109.4c0.2,0.4-0.1,0.9-0.6,0.9h-98.5C1157,270.1,1156.7,269.6,1156.9,269.2L1156.9,269.2z"/>
<path class="st0" d="M600.3,250.9c-0.5-0.2-0.4-0.9,0.1-1c33-3.1,62.8-36.1,62.8-72.2c0-50.5-45.4-89.5-95.9-89.5h-166
	c-1.7,0-3.1,1.4-3.1,3.1v305.3c0,1.7,1.4,3.1,3.1,3.1h53.5c1.7,0,3.1-1.4,3.1-3.1V276.1c0-0.9,0.7-1.6,1.6-1.6h73.7h0.4
	c14.7,0,30.6,8.4,36.8,22.4l44,99.1c1,2.3,3.2,3.7,5.7,3.7h56.4c2.3,0,3.8-2.3,2.9-4.4l-41.6-94.9
	C634.9,293.1,620.2,257.4,600.3,250.9L600.3,250.9z M568.6,214.8H459.5c-0.9,0-1.6-0.7-1.6-1.6v-63.7c0-0.9,0.7-1.6,1.6-1.6h110.6
	c19.5,0,35.2,16.8,33.2,36.8C601.6,202.1,586,214.8,568.6,214.8z"/>
<path class="st0" d="M715.9,88.2h53.5c1.7,0,3.1,1.4,3.1,3.1v305.3c0,1.7-1.4,3.1-3.1,3.1h-53.5c-1.7,0-3.1-1.4-3.1-3.1V91.4
	C712.8,89.6,714.2,88.2,715.9,88.2z"/>
<path class="st0" d="M1050.7,88.3c-2.5,0-4.8,1.5-5.8,3.7L994,207.4c-7.9,18.1-19.8,27.9-36.5,27.9s-28.7-9.5-36.8-27.9L869.7,92
	c-1-2.3-3.2-3.7-5.7-3.7h-56.4c-2.3,0-3.8,2.3-2.9,4.4L866,231.6c20.4,49.4,68.6,61.9,93.7,53.7L911,395.4c-0.9,2.1,0.6,4.4,2.9,4.4
	h56.4c2.5,0,4.7-1.5,5.7-3.7l133.8-303c0.9-2.1-0.6-4.4-2.8-4.4L1050.7,88.3L1050.7,88.3z"/>
<path class="st0" d="M235.4,232.5L350.3,93.3c1.7-2,0.2-5.1-2.4-5.1h-63.4c-1.9,0-3.6,0.8-4.8,2.3L150.8,246.6
	c-0.4,0.5-1.1,0.2-1.1-0.4V91.4c0-1.7-1.4-3.1-3.1-3.1H93.1c-1.7,0-3.1,1.4-3.1,3.1v305.3c0,1.7,1.4,3.1,3.1,3.1h53.5
	c1.7,0,3.1-1.4,3.1-3.1v-55.8c0-2.9,1-5.7,2.9-8l32.1-38.9h0.1c8.2-10.5,19.6-16.4,32.8-16.6c17.2-0.3,32.6,10.6,39.6,26.3
	l40.7,92.3c1,2.3,3.2,3.7,5.7,3.7H360c2.3,0,3.8-2.3,2.9-4.4l-54.7-123.8C296,244.5,271.5,223.7,235.4,232.5L235.4,232.5z"/>
</svg>
