<svg xmlns="http://www.w3.org/2000/svg" viewBox="0 0 804 172.79">
    <g fill="#0069B4" fill-rule="nonzero">
        <path d="M155.451 0a44.015 44.015 0 0 0-34.475 16.521l-.974 1.217-1.19-1C94.227-3.692 59.151-5.608 32.486 12.02 5.822 29.65-6.13 62.655 3.072 93.251c9.202 30.595 37.384 51.55 69.357 51.569 33.871-.145 63.173-23.597 70.71-56.592l.351-1.514 1.516.378a44.237 44.237 0 0 0 44.82-15.018 44.153 44.153 0 0 0 5.624-46.9C188.102 9.769 172.531-.031 155.451 0zm-42.43 115.212H72.428c-20.612.014-38.319-14.625-42.165-34.86-3.846-20.233 7.256-40.34 26.438-47.878 19.182-7.539 41.019-.378 51.999 17.053 10.98 17.43 7.998 40.2-7.1 54.221l11.42 11.464zm42.457-47.777h-22.054l6.197-6.219c-8.191-7.605-9.812-19.956-3.86-29.413 5.953-9.458 17.795-13.349 28.204-9.267 10.408 4.082 16.44 14.983 14.365 25.961-2.075 10.978-11.67 18.93-22.852 18.938zM211.737 58.927h13.983v83.896h-13.983zM287.628 113.165a31.115 31.115 0 0 0-7.422-21.107c-11.364-10.977-29.483-10.869-40.713.244a31.791 31.791 0 0 0-7.75 22.057 31.225 31.225 0 0 0 7.86 22.138 27.754 27.754 0 0 0 20.901 8.302c2.82.017 5.633-.301 8.378-.95a23.983 23.983 0 0 0 7.34-2.957 28.45 28.45 0 0 0 6.249-5.209c1.756-1.92 3.327-4 4.693-6.212l-12.661-6.973a28.017 28.017 0 0 1-5.949 6.864 12.331 12.331 0 0 1-7.477 2.143 13.002 13.002 0 0 1-9.578-3.744 15.558 15.558 0 0 1-4.093-9.088v-.353h40.195v-3.961-1.03l.027-.164zm-41.613-5.263l.273-1.14a16.824 16.824 0 0 1 1.964-4.557 14.026 14.026 0 0 1 3.138-3.5 13.258 13.258 0 0 1 4.039-2.198 14.511 14.511 0 0 1 4.748-.786c6.822-.428 12.866 4.34 13.998 11.042l.328 1.139h-28.488zM336.383 85.464v5.587a24.172 24.172 0 0 0-16.886-7.152 24.873 24.873 0 0 0-19.187 8.555 30.663 30.663 0 0 0-7.66 21.24 31.713 31.713 0 0 0 7.66 21.592 25.416 25.416 0 0 0 19.593 8.528 25.042 25.042 0 0 0 16.535-6.666v5.074h14.126V85.464h-14.18zm-3.599 41.05a14.28 14.28 0 0 1-11.095 4.697 13.546 13.546 0 0 1-10.555-4.885 18.859 18.859 0 0 1-4.14-12.631 17.944 17.944 0 0 1 4.14-12.172 13.791 13.791 0 0 1 10.825-4.804c4.141-.091 8.108 1.66 10.825 4.777a18.348 18.348 0 0 1 4.276 12.496 18.456 18.456 0 0 1-4.276 12.522zM394.51 87.629l-6.31 13.016-.58-.409a11.25 11.25 0 0 0-6.625-2.56c-6.52 0-9.688 5.038-9.688 15.412v29.734h-13.752V85.478h13.752v4.112a23.86 23.86 0 0 1 5.28-4.194 14.582 14.582 0 0 1 6.73-1.497 20.663 20.663 0 0 1 10.717 3.43l.475.3zM447.443 107.82v35.002h-14.37V110.87a19.743 19.743 0 0 0-2.22-11.078 8.81 8.81 0 0 0-7.734-2.967 9.379 9.379 0 0 0-8.693 3.974c-1.7 2.722-2.578 7.512-2.578 14.344v27.68h-14.342v-57.32h14.342v4.382a21.806 21.806 0 0 1 14.809-5.961 20.29 20.29 0 0 1 15.85 6.369c3.264 3.593 4.936 9.499 4.936 17.528M470.36 67.862a8.726 8.726 0 0 1-2.687 6.351 8.512 8.512 0 0 1-6.26 2.691 8.942 8.942 0 0 1-6.364-2.634 8.969 8.969 0 0 1-2.611-6.381 8.484 8.484 0 0 1 2.687-6.27 8.593 8.593 0 0 1 6.26-2.692 8.7 8.7 0 0 1 6.342 2.691 8.484 8.484 0 0 1 2.687 6.324M454.435 85.893h13.983v56.929h-13.983zM525.347 107.82v35.002h-14.35V110.87a19.733 19.733 0 0 0-2.223-11.078 8.818 8.818 0 0 0-7.738-2.966 9.386 9.386 0 0 0-8.698 3.973c-1.701 2.722-2.579 7.513-2.579 14.344v27.68h-14.35v-57.32h14.35v4.382a21.797 21.797 0 0 1 14.817-5.96 20.223 20.223 0 0 1 15.86 6.396c3.264 3.565 4.91 9.471 4.91 17.5M574.143 85.419v5.404a23.085 23.085 0 0 0-16.946-6.917 24.433 24.433 0 0 0-19.873 9.268 32.895 32.895 0 0 0-6.968 21.077 31.173 31.173 0 0 0 7.51 21.294 25.14 25.14 0 0 0 17.831 8.446 25.153 25.153 0 0 0 18.446-7.014v6.35c0 11.187-4.447 16.673-13.557 16.673a13.386 13.386 0 0 1-11.224-4.972 14.24 14.24 0 0 1-2.359-6.107v-.487h-14.18v.649a25.21 25.21 0 0 0 8.785 17.483 28.395 28.395 0 0 0 18.978 6.188 26.858 26.858 0 0 0 21.284-8.89 24.098 24.098 0 0 0 5.422-11.106 51.18 51.18 0 0 0 .732-5.404c.163-2 .244-4.378.244-7V85.42h-14.125zm-3.308 40.533a13.575 13.575 0 0 1-11.252 5.134 13.575 13.575 0 0 1-11.089-5.08 18.872 18.872 0 0 1-3.714-12.079 19.114 19.114 0 0 1 3.714-12.187 13.33 13.33 0 0 1 11.09-5.188 13.902 13.902 0 0 1 10.844 4.783 18.066 18.066 0 0 1 4.203 12.538 18.576 18.576 0 0 1-3.823 12.079h.027zM644.46 92.575a24.806 24.806 0 0 0-19.43-8.673 24.376 24.376 0 0 0-16.697 6.781V85.47H594.26v87.316h14.072v-35.823a24.376 24.376 0 0 0 16.94 6.997 24.888 24.888 0 0 0 19.24-8.483 30.902 30.902 0 0 0 7.659-21.289 31.28 31.28 0 0 0-7.713-21.612m-32.473 8.86a14.327 14.327 0 0 1 11.068-4.7 13.54 13.54 0 0 1 10.662 4.89 18.648 18.648 0 0 1 4.113 12.616 17.758 17.758 0 0 1-4.302 12.212 13.54 13.54 0 0 1-10.608 4.808 13.92 13.92 0 0 1-10.987-4.781 18.378 18.378 0 0 1-4.276-12.509 18.216 18.216 0 0 1 4.249-12.535M709.306 93.548c-12.074-11.538-31.165-11.538-43.239 0a28.28 28.28 0 0 0-8.876 20.926 29.402 29.402 0 0 0 8.686 21.574 29.276 29.276 0 0 0 21.525 8.765 30.37 30.37 0 0 0 21.85-8.603 28.788 28.788 0 0 0 8.848-21.358 28.948 28.948 0 0 0-8.794-21.331m-9.989 33.952c-6.505 6.26-16.838 6.26-23.343 0a18.128 18.128 0 0 1-4.343-12.783 17.166 17.166 0 0 1 4.452-12.243 15.114 15.114 0 0 1 11.536-4.72c4.4-.168 8.662 1.55 11.698 4.72a17.7 17.7 0 0 1 4.37 12.54 17.7 17.7 0 0 1-4.37 12.54M774.253 92.557c-12.074-11.548-31.165-11.548-43.239 0a28.238 28.238 0 0 0-8.902 20.891 29.415 29.415 0 0 0 8.658 21.594 29.262 29.262 0 0 0 21.551 8.772 30.41 30.41 0 0 0 21.85-8.61 28.827 28.827 0 0 0 8.849-21.378 28.988 28.988 0 0 0-8.794-21.35m-9.989 34.036c-6.505 6.267-16.838 6.267-23.343 0a18.155 18.155 0 0 1-4.343-12.794 17.192 17.192 0 0 1 4.56-12.308 15.134 15.134 0 0 1 11.563-4.724 15.325 15.325 0 0 1 11.672 4.724 17.726 17.726 0 0 1 4.37 12.551 17.726 17.726 0 0 1-4.37 12.551M790.017 58.927H804v83.896h-13.983z"/>
    </g>
</svg>