<svg xmlns:xlink="http://www.w3.org/1999/xlink" xmlns="http://www.w3.org/2000/svg" fill="none" viewBox="0.63 3.75 78.75 43.8">
<clipPath id="mask0_6_135" style="mask-type:alpha" maskUnits="userSpaceOnUse" x="1" y="3" width="78" height="45">
<path fill-rule="evenodd" clip-rule="evenodd" d="M78.2633 3.75H78.2577C75.6458 3.75 73.2276 4.56703 71.2557 5.95613C71.1273 6.04664 71.0046 6.19499 71.0046 6.35115V37.8816C71.0046 38.1475 71.2231 38.3672 71.4933 38.369H71.4991C74.1186 38.369 76.5446 37.5521 78.5241 36.163C78.6543 36.0724 78.7501 35.924 78.7501 35.768V4.23752C78.752 3.97167 78.5335 3.75199 78.2633 3.75ZM67.9892 14.8422C68.2442 14.8422 68.4492 15.0542 68.4492 15.3086L68.4472 17.9038V34.4541C68.4472 36.2729 68.271 37.8008 67.9355 39.1111C66.6 42.9432 63.467 45.9218 59.5522 47.0297C58.6208 47.2609 57.5879 47.4209 56.4324 47.4941C56.3883 47.4941 56.3447 47.4956 56.3012 47.497C56.2576 47.4985 56.214 47.4999 56.1699 47.4999C51.8066 47.4999 47.9301 45.3323 45.7417 41.8316C45.3988 41.2824 46.1979 38.8759 47.2058 39.4463C48.3115 40.0705 51.8583 41.9644 54.8093 41.9644C57.7605 41.9644 59.2359 41.0204 59.9967 40.2112C60.7574 39.3576 61.338 37.7835 61.338 35.8047V35.0862H61.248C59.9066 36.8413 57.7605 38.2344 54.3169 38.2344C48.9055 38.2344 43.8965 34.458 43.8965 27.308C43.8965 20.1581 48.9055 16.3817 54.3169 16.3817C57.9387 16.3817 60.0234 18.0078 61.2039 19.5068V17.3354C61.2039 17.185 61.2729 17.0425 61.3955 16.9559C63.2524 15.6264 65.5269 14.8422 67.9854 14.8422H67.9892ZM51.1859 27.3542C51.1859 30.4119 53.1978 32.751 56.3731 32.751C59.5482 32.751 61.5162 30.4119 61.5162 27.3542C61.5162 24.3428 59.5482 22.0038 56.3731 22.0038C53.1978 22.0038 51.1859 24.3408 51.1859 27.3542ZM39.556 30.3635C40.2535 29.9705 41.2615 31.1322 41.0066 31.8856C39.0118 35.6157 35.097 38.1512 30.588 38.1512C25.3126 38.1512 20.8459 34.6735 19.3263 29.876C19.1098 28.9127 18.9929 27.876 18.9929 26.7644C18.9929 19.4352 24.3602 15.2524 30.8889 15.2524C37.4194 15.2524 41.936 19.6143 41.936 26.0901C41.936 27.169 41.846 28.4734 41.846 28.4734H26.148C26.2037 29.0533 26.3302 29.5735 26.516 30.0378C26.7096 30.4637 26.9375 30.824 27.1867 31.1034C27.9225 31.8856 29.3482 32.7988 32.2034 32.7988C35.0585 32.7988 38.4887 30.9665 39.556 30.3635ZM35.2713 24.383C35.2273 22.358 33.7517 19.9304 30.7548 19.9304C27.8038 19.9304 26.2823 22.2675 26.1921 24.383H35.2713ZM17.1394 31.6118C17.2428 31.6118 17.3406 31.66 17.4 31.7448C18.4865 33.2803 19.1285 35.1724 19.1285 37.2185V37.2223C19.1285 37.4323 18.9599 37.6 18.7567 37.6L3.10499 37.6365C2.08161 37.6385 1.25 36.8043 1.25 35.7754V9.42575H1.28646L1.25198 9.41808C1.25198 9.41808 2.37285 6.60706 8.10625 6.52991C8.3267 6.52607 8.51068 6.70909 8.51068 6.93075L8.50107 31.5713L8.48765 31.6118H17.1394Z" fill="#01B88E"/>
</clipPath>
<g clip-path="url(#mask0_6_135)">
<rect x="0.625" y="3.79785" width="78.75" height="43.75" fill="url(#paint0_linear_6_135)"/>
</g>
<defs>
<linearGradient id="paint0_linear_6_135" x1="54.214" y1="102.106" x2="-28.2451" y2="56.477" gradientUnits="userSpaceOnUse">
<stop stop-color="#01B88E"/>
<stop offset="0.94" stop-color="#86DBC8"/>
</linearGradient>
</defs>
</svg>