<svg xmlns="http://www.w3.org/2000/svg" xmlns:xlink="http://www.w3.org/1999/xlink" version="1.0" id="Layer_1" x="0px" y="0px" style="enable-background:new 0 0 622.8 457.5;" xml:space="preserve" viewBox="65.9 185.7 491 86.18">
<style type="text/css">
	.st0{fill:#6D2177;}
	.st1{fill:#6E2278;}
	.st2{fill:#6E2177;}
	.st3{fill:#6F2479;}
	.st4{fill:#70257A;}
	.st5{fill:#6F2378;}
	.st6{fill:#6D2077;}
	.st7{fill:#72287B;}
	.st8{fill:#71267A;}
</style>
<path class="st0" d="M346.2,245.2c0-19,0-38.1,0-57.1c0-1.9,0.5-2.3,2.3-2.3c4.1,0.1,8.2,0.1,12.4,0c1.2,0,1.7,0.2,1.7,1.6  c0,27,0,54,0,80.9c0,1.3-0.3,1.7-1.6,1.6c-5.6-0.1-11.2-0.1-16.8,0c-1.2,0.1-2.2-0.6-2.7-1.6c-12.3-21.6-24.5-43.2-36.9-64.9  c-0.6-1.3-1.9-2.1-3.3-1.9c-4.2,0.1-8.5,0-12.7,0.1c-1.2,0-1.6-0.4-1.6-1.6c0.1-4.3,0-8.6,0-12.9c0-1,0.2-1.4,1.3-1.4  c7.5,0.1,15,0.1,22.5,0c1.2,0,1.5,0.8,2,1.6l31.3,54.9c0.6,1,1.2,2.1,1.8,3.1L346.2,245.2z"/>
<path class="st1" d="M258.4,262.2c-2.7,5.3-8,8.8-13.9,9.2c-12.6,1.2-23.8-5.5-28.3-17.3c-4.6-12-3.9-23.8,4.4-34.1  c7-8.8,16.6-11.3,27.5-9c4.3,0.9,8,3.7,10.1,7.6c0-2.2,0-3.9,0-5.6c0-1,0.2-1.4,1.3-1.4c4.2,0.1,8.4,0.1,12.5,0  c1.6,0,1.6,0.7,1.6,1.9c0,13.2,0,26.4,0,39.6c0,5,0,10.1,0,15.1c0,1.2-0.2,1.7-1.6,1.7c-3.4-0.1-6.9-0.1-10.3,0  c-1.3,0-1.7-0.5-1.9-1.6C259.4,266.4,258.9,264.5,258.4,262.2z M229.4,240c-0.1,3.6,0.6,7.1,2.2,10.3c2.8,5.1,7,7.7,12.9,7.5  c5.7-0.2,9.5-3.2,11.8-8.2c1.9-4.3,2.4-9.1,1.4-13.7c-1.2-7.1-6.3-11.8-12.8-12.1c-7.6-0.3-13,3.7-14.9,11.1  C229.6,236.6,229.4,238.3,229.4,240z"/>
<path class="st2" d="M541.5,218.6c0-2.2,0-3.9,0-5.6c0-0.9,0.2-1.3,1.2-1.3c4.3,0,8.6,0.1,12.9,0c1.4,0,1.3,0.7,1.3,1.6  c0,8.4,0,16.7,0,25.1c0,9.9,0,19.8,0,29.7c0,1.5-0.3,2-1.9,2c-3.3-0.1-6.6-0.1-10,0c-1.2,0-1.8-0.2-2-1.5c-0.3-2-0.9-3.9-1.3-6  c-7.3,10-19.2,12.1-30.5,5.4c-8.6-5-12.8-13-14-22.6c-1.1-8.3,0.4-16.2,5.1-23.2c6.3-9.4,17.8-13.8,28.7-11.1  C535.4,211.9,539.2,214.7,541.5,218.6z M541.5,240.6c0-1.7-0.1-3.4-0.4-5.1c-1.3-6.2-5.4-10.4-11.2-11.5c-5.6-1.1-11.3,1.3-14.4,6.1  c-3.9,6.1-3.6,16.2,0.6,22c4.2,6.2,12.7,7.7,18.8,3.5c1.8-1.2,3.3-2.9,4.3-4.8C540.8,247.6,541.6,244.1,541.5,240.6L541.5,240.6z"/>
<path class="st2" d="M403.2,210.1c17.7,0,30.6,12.9,30.6,30.8c0,17.7-13,30.8-30.4,30.8s-30.4-13.2-30.4-30.8  S385.7,210.1,403.2,210.1z M388.7,240.7c-0.1,1.5,0.1,3.1,0.4,4.6c1.1,6.8,6.9,11.7,13.8,11.9c7,0.2,12.5-4,14.4-11  c0.8-3.3,0.9-6.7,0.2-10c-1.1-6.8-6.9-11.8-13.8-11.8c-6.7-0.3-12.4,4-14.3,10.8C388.9,236.9,388.6,238.8,388.7,240.7z"/>
<path class="st1" d="M151,211.7c5.4,0,10.8,0,16.1,0c1.3,0,1.3,0.9,1.6,1.6c4.3,11.6,8.5,23.1,12.8,34.7c0.3,0.7,0.6,1.5,1,2.5  c1.7-4.8,3.3-9.3,4.9-13.8c2.8-7.9,5.6-15.7,8.4-23.6c0.2-1,1.1-1.6,2.1-1.5c4.5,0.1,9,0.1,13.4,0c1.3,0,1.4,0.4,1,1.5  c-7.2,18.5-14.4,37-21.6,55.5c-0.2,0.8-1,1.4-1.9,1.2c-4.3,0-8.6,0-12.9,0c-0.9,0-1.4-0.1-1.8-1c-7.6-18.9-15.3-37.7-23-56.6  C151,212.1,151,211.9,151,211.7z"/>
<path class="st1" d="M465.8,250.5c1.7-4.8,3.2-9.1,4.8-13.4c2.8-8,5.7-15.9,8.5-23.9c0.2-1,1.1-1.6,2.1-1.5c4.4,0.1,8.8,0.1,13.3,0  c1.4,0,1.5,0.4,1,1.6c-7.1,18.5-14.2,37-21.3,55.5c-0.2,0.8-1,1.4-1.9,1.3c-4.4-0.1-8.7-0.1-13.1,0c-0.9,0.1-1.7-0.4-1.9-1.3  c-7.5-18.5-15-37-22.5-55.4c-0.6-1.4-0.1-1.6,1.2-1.6c4.6,0.1,9.2,0.1,13.8,0c1-0.1,2,0.5,2.2,1.6c4.3,11.8,8.7,23.5,13,35.2  C465.2,248.9,465.4,249.4,465.8,250.5z"/>
<path class="st3" d="M128.5,240.8c0-9.1,0-18.2,0-27.3c0-1.6,0.4-2,2-1.9c4.1,0.1,8.1,0.1,12.2,0c1.1,0,1.6,0.2,1.6,1.5  c0,18.4,0,36.8,0,55.3c0,1.2-0.4,1.6-1.6,1.5c-4.2-0.1-8.4-0.1-12.5,0c-1.3,0-1.6-0.4-1.6-1.7C128.5,259.1,128.5,250,128.5,240.8z"/>
<path class="st1" d="M93.4,254.2c8.5,0,17,0,25.4,0c1.4,0,1.9,0.2,1.9,1.8c-0.1,4.2-0.1,8.4,0,12.5c0,1.1-0.2,1.5-1.4,1.5  c-17.3,0-34.7,0-52,0c-1.2,0-1.4-0.4-1.4-1.5c0.1-4.2,0.1-8.5,0-12.7c0-1.4,0.5-1.6,1.7-1.6C76.2,254.2,84.8,254.2,93.4,254.2z"/>
<path class="st1" d="M136.4,185.9c2.1,0,4.3,0,6.4,0c1,0,1.4,0.1,1.4,1.3c0,4.4,0,8.8,0,13.2c0,1-0.3,1.3-1.3,1.3c-4.5,0-9,0-13.4,0  c-0.9,0-1.3-0.2-1.3-1.2c0-4.5,0-8.9,0-13.4c0-0.9,0.3-1.2,1.2-1.1C131.8,185.9,134.1,185.9,136.4,185.9z"/>
<path class="st4" d="M295.2,220.8c-2.3,0-4.5,0-6.8,0c-1,0-1.4-0.3-1.4-1.4c0.1-3.3,0.1-6.6,0-9.9c0-1,0.4-1.2,1.3-1.2  c4.7,0,9.3,0,14,0c0.9,0,1.2,0.2,1.2,1.1c0,3.4,0,6.8,0,10.1c0,1-0.4,1.3-1.3,1.2C299.9,220.8,297.6,220.8,295.2,220.8z"/>
<path class="st1" d="M74.1,247.5c-2.3,0-4.5,0-6.8,0c-1,0-1.4-0.2-1.4-1.3c0.1-3.3,0.1-6.6,0-10c0-1,0.3-1.3,1.3-1.3  c4.6,0,9.2,0,13.8,0c1.1,0,1.3,0.5,1.3,1.4c0,3.2-0.1,6.5,0,9.8c0,1.1-0.3,1.4-1.4,1.3C78.7,247.4,76.4,247.5,74.1,247.5z"/>
<path class="st5" d="M295.2,239.4c-2.2,0-4.4,0-6.6,0c-1,0-1.6-0.2-1.5-1.4c0.1-3.1,0.1-6.1,0-9.2c0-1,0.3-1.4,1.4-1.4  c4.6,0.1,9.2,0.1,13.8,0c1.1,0,1.3,0.4,1.3,1.4c-0.1,3-0.1,6,0,9c0,1.2-0.3,1.6-1.5,1.6C299.7,239.4,297.5,239.4,295.2,239.4z"/>
<path class="st6" d="M74.1,228.3c-2.3,0-4.7,0-7,0c-0.9,0-1.2-0.2-1.2-1.1c0-3.2,0-6.4,0-9.6c0-0.9,0.2-1.3,1.2-1.3  c4.7,0,9.3,0,14,0c0.9,0,1.2,0.2,1.2,1.1c0,3.2,0,6.4,0,9.6c0,0.9-0.2,1.3-1.2,1.3C78.7,228.3,76.4,228.3,74.1,228.3z"/>
<path class="st5" d="M295.2,255.2c-2.3,0-4.5,0-6.8,0c-1,0-1.5-0.2-1.4-1.3c0.1-2.1,0.1-4.3,0-6.4c0-0.9,0.2-1.4,1.2-1.3  c4.7,0,9.5,0,14.2,0c0.9,0,1.1,0.4,1.1,1.2c0,2.2-0.1,4.4,0,6.6c0,1-0.3,1.2-1.3,1.2C299.9,255.2,297.6,255.2,295.2,255.2z"/>
<path class="st6" d="M74.2,200.6c2.3,0,4.5,0,6.8,0c1,0,1.3,0.2,1.3,1.2c-0.1,2.1-0.1,4.3,0,6.4c0,1-0.2,1.4-1.3,1.4  c-4.6-0.1-9.2,0-13.8,0c-1,0-1.3-0.3-1.3-1.2c0.1-2.1,0.1-4.3,0-6.4c0-1,0.3-1.4,1.3-1.4C69.6,200.6,71.9,200.6,74.2,200.6z"/>
<path class="st7" d="M295.4,269.9c-2.4,0-4.8,0-7.2,0c-0.9,0-1.2-0.3-1.2-1.2c0-1.9,0-3.8,0-5.7c0-0.9,0.4-1.1,1.2-1.1  c4.7,0,9.3,0,14,0c1,0,1.3,0.3,1.3,1.3c-0.1,1.8-0.1,3.7,0,5.5c0,1-0.4,1.2-1.3,1.2C299.9,269.9,297.7,269.9,295.4,269.9z"/>
<path class="st8" d="M74,185.9c2.4,0,4.8,0,7.2,0c0.9,0,1.2,0.2,1.2,1.1c0,1.9,0,3.8,0,5.7c0,0.9-0.3,1.1-1.2,1.1  c-4.7,0-9.4,0-14.1,0c-0.8,0-1.1-0.3-1.1-1.1c0-1.9,0-3.8,0-5.7c0-1,0.3-1.2,1.3-1.2C69.4,185.9,71.7,185.9,74,185.9z"/>
</svg>