<?xml version="1.0" standalone="no"?>
<!DOCTYPE svg PUBLIC "-//W3C//DTD SVG 20010904//EN"
 "http://www.w3.org/TR/2001/REC-SVG-20010904/DTD/svg10.dtd">
<svg version="1.0" xmlns="http://www.w3.org/2000/svg"
 width="1000.000000pt" height="1000.000000pt" viewBox="0 0 1000.000000 1000.000000"
 preserveAspectRatio="xMidYMid meet">

<g transform="translate(0.000000,1000.000000) scale(0.100000,-0.100000)"
fill="#000000" stroke="none">
<path d="M7895 5767 c-227 -85 -409 -321 -524 -679 -39 -125 -78 -316 -88
-438 -8 -89 -9 -95 -29 -92 -19 2 -25 -7 -44 -70 -65 -215 -192 -388 -371
-505 -70 -46 -212 -103 -225 -90 -3 3 17 49 44 103 179 358 281 813 252 1120
-29 314 -147 482 -390 558 -108 34 -191 40 -279 22 -80 -17 -134 -44 -215
-111 l-54 -43 -32 33 c-70 72 -198 117 -335 118 -84 1 -145 -14 -166 -39 -7
-8 -22 -106 -35 -222 -13 -114 -45 -357 -70 -539 l-47 -333 -26 0 c-24 0 -29
-8 -64 -110 -159 -455 -397 -653 -471 -392 -51 182 -27 427 96 1012 34 163 62
321 65 370 4 76 2 89 -19 125 -47 81 -179 144 -319 152 -114 7 -175 -2 -205
-32 -20 -20 -24 -35 -25 -87 -1 -35 -4 -74 -8 -87 -6 -24 -8 -22 -44 27 -80
108 -218 171 -397 179 -173 9 -268 -25 -377 -134 -178 -178 -338 -566 -393
-950 l-12 -83 -30 3 c-29 2 -30 0 -68 -108 -50 -140 -137 -314 -195 -388 -53
-66 -125 -117 -168 -117 -19 0 -40 11 -62 33 -46 46 -65 137 -65 314 0 191 23
341 119 805 50 240 40 368 -38 482 -106 154 -399 204 -578 100 -87 -52 -178
-177 -291 -402 -38 -76 -86 -180 -107 -232 -39 -96 -61 -137 -51 -90 14 59 55
295 72 411 17 121 17 128 0 173 -43 113 -189 186 -371 186 -91 0 -145 -12
-168 -38 -11 -12 -22 -73 -37 -207 -11 -104 -45 -363 -75 -575 -106 -751 -116
-918 -63 -1031 14 -31 42 -73 63 -94 105 -105 342 -142 361 -57 13 55 175 574
234 747 160 468 316 792 448 934 22 23 47 41 54 39 34 -11 20 -144 -52 -513
-66 -336 -73 -395 -73 -570 0 -174 21 -281 78 -401 120 -248 444 -348 710
-218 121 59 237 184 314 337 19 37 36 66 38 64 2 -2 10 -31 18 -63 63 -245
254 -394 505 -394 131 0 248 40 325 111 62 57 152 178 195 261 19 38 38 68 41
68 3 0 11 -23 17 -51 32 -139 137 -275 254 -332 243 -117 530 -52 698 159 24
30 45 52 47 50 3 -2 -16 -143 -41 -313 -97 -657 -138 -1001 -140 -1173 -1
-111 1 -130 21 -165 54 -100 167 -155 322 -155 90 0 181 24 217 57 l26 24 -7
137 c-13 253 23 813 80 1257 36 276 37 285 45 285 3 0 16 -17 28 -38 30 -55
114 -129 175 -157 207 -95 555 -81 852 34 176 68 359 213 466 369 29 42 55 81
60 85 4 5 14 -16 23 -46 40 -137 140 -290 244 -373 287 -228 676 -201 912 64
111 124 209 306 279 514 l38 113 74 6 c251 22 491 165 580 345 17 35 29 70 25
79 -6 16 -89 58 -137 70 -24 6 -28 1 -52 -48 -59 -119 -220 -228 -361 -245
-49 -6 -69 -5 -72 3 -3 6 2 50 10 98 40 228 45 531 11 691 -43 205 -108 286
-229 286 -200 0 -336 -261 -336 -648 0 -259 72 -447 209 -543 34 -24 61 -47
61 -52 0 -31 -80 -241 -131 -346 -51 -102 -74 -136 -133 -196 -85 -88 -129
-106 -204 -86 -63 16 -109 55 -148 125 -120 217 -99 716 46 1131 54 155 105
240 198 332 89 90 96 109 68 178 -21 48 -89 111 -143 129 -66 22 -156 19 -228
-7z m-1626 -271 c88 -46 129 -245 102 -498 -34 -310 -119 -634 -217 -831 -67
-134 -166 -237 -226 -237 -116 0 -146 299 -72 724 61 353 173 674 275 790 58
66 88 77 138 52z m-2155 -47 c147 -116 99 -640 -109 -1169 -66 -168 -111 -253
-160 -303 -57 -57 -87 -67 -123 -40 -73 54 -107 196 -99 407 8 207 52 424 136
666 95 277 164 397 256 444 41 21 67 20 99 -5z"/>
</g>
</svg>
