<svg xmlns:xlink="http://www.w3.org/1999/xlink" xmlns="http://www.w3.org/2000/svg" fill="none" viewBox="0 0 120 25.63">
<g clip-path="url(#clip0)">
<path d="M22.4075 16.0625H18.4463H15.8149H15.1649L11.2037 20.0232L7.24253 16.0625H6.59258H3.9612H0V20.0232H5.60159L8.40267 22.8242L11.2037 25.6253L14.0048 22.8242L16.8053 20.0232H22.4075V16.0625Z" fill="#FF6336"/>
<path d="M22.4075 8.13867H0V12.0999H22.4075V8.13867Z" fill="#FFC500"/>
<path d="M22.4075 0.216797H0V4.178H22.4075V0.216797Z" fill="#A4A14A"/>
<path d="M31.3164 0.216797H34.88V19.6546H31.3164V0.216797Z" fill="black"/>
<path d="M40.4258 19.0993C39.3005 18.4781 38.4096 17.628 37.7531 16.5478C37.0955 15.4682 36.7676 14.2798 36.7676 12.9842C36.7676 11.6887 37.0955 10.5008 37.7531 9.42062C38.4096 8.34098 39.3005 7.49033 40.4258 6.8692C41.55 6.24807 42.77 5.9375 44.0841 5.9375C45.3976 5.9375 46.617 6.24807 47.7423 6.8692C48.8665 7.49033 49.7574 8.34044 50.415 9.42062C51.0715 10.5003 51.4005 11.6887 51.4005 12.9842C51.4005 14.2798 51.072 15.4677 50.415 16.5478C49.7574 17.6275 48.8665 18.4781 47.7423 19.0993C46.617 19.7204 45.3976 20.031 44.0841 20.031C42.77 20.031 41.5506 19.7204 40.4258 19.0993ZM45.9605 16.265C46.5272 15.9501 46.9814 15.5046 47.3235 14.9287C47.6651 14.3527 47.8369 13.7049 47.8369 12.9848C47.8369 12.2652 47.6656 11.6174 47.3235 11.0409C46.9814 10.4649 46.5272 10.0194 45.9605 9.70453C45.3938 9.38961 44.7677 9.23188 44.0841 9.23188C43.3998 9.23188 42.7749 9.38961 42.2076 9.70453C41.6409 10.0194 41.1862 10.4649 40.8441 11.0409C40.5014 11.6169 40.3312 12.2652 40.3312 12.9848C40.3312 13.7049 40.5014 14.3527 40.8441 14.9287C41.1856 15.5046 41.6403 15.9501 42.2076 16.265C42.7744 16.5799 43.3993 16.7377 44.0841 16.7377C44.7677 16.7371 45.3932 16.5799 45.9605 16.265Z" fill="black"/>
<path d="M53.291 0.216797H56.8546V11.7985L61.4978 6.31823H65.7359L60.4987 12.5007L66.1139 19.6546H61.5517L56.8546 13.4721V19.6546H53.291V0.216797Z" fill="black"/>
<path d="M69.4746 19.1676C68.4754 18.5916 67.6656 17.7681 67.045 16.6972C66.4238 15.6268 66.1133 14.3889 66.1133 12.9851C66.1133 11.7075 66.4102 10.5283 67.0042 9.44868C67.5981 8.36904 68.408 7.51404 69.4343 6.8842C70.4601 6.25437 71.5843 5.93945 72.8087 5.93945C73.6724 5.93945 74.4599 6.08359 75.1703 6.37131C75.8811 6.65903 76.4256 7.04628 76.8036 7.53198V6.31692H80.3672V19.6533H76.8036V18.4382C76.2455 18.9603 75.6516 19.3558 75.0218 19.6261C74.3914 19.8959 73.5815 20.0313 72.5916 20.0313C71.5126 20.0318 70.4737 19.7436 69.4746 19.1676ZM75.9671 15.6583C76.6328 14.9388 76.9662 14.0479 76.9662 12.9856C76.9662 11.924 76.6328 11.033 75.9671 10.3129C75.3013 9.59335 74.4191 9.23329 73.3215 9.23329C72.2234 9.23329 71.3412 9.5939 70.6755 10.3129C70.0098 11.033 69.6769 11.924 69.6769 12.9856C69.6769 14.0479 70.0098 14.9388 70.6755 15.6583C71.3412 16.3785 72.2229 16.738 73.3215 16.738C74.4191 16.738 75.3013 16.3785 75.9671 15.6583Z" fill="black"/>
<path d="M82.959 0.216797H86.5227V19.6546H82.959V0.216797Z" fill="black"/>
<path d="M89.304 3.83339C88.8722 3.40153 88.6562 2.87939 88.6562 2.26751C88.6562 1.63767 88.8722 1.10248 89.304 0.661379C89.7359 0.220822 90.2581 0 90.87 0C91.4993 0 92.035 0.220822 92.4761 0.661379C92.9167 1.10248 93.1375 1.63767 93.1375 2.26751C93.1375 2.87939 92.9172 3.40153 92.4761 3.83339C92.035 4.26524 91.4993 4.48117 90.87 4.48117C90.2581 4.48171 89.7359 4.26524 89.304 3.83339ZM89.1148 6.31736H92.6785V19.6537H89.1148V6.31736Z" fill="black"/>
<path d="M95.1094 18.7343L95.9192 15.3866H96.0813C97.2507 16.2868 98.4478 16.7366 99.6716 16.7366C100.176 16.7366 100.585 16.6419 100.9 16.4532C101.215 16.2645 101.373 15.9903 101.373 15.6297C101.373 15.2517 101.188 14.9461 100.82 14.7122C100.45 14.4783 99.7619 14.1906 98.7546 13.8479C97.7288 13.5064 96.9325 13.0109 96.3652 12.3631C95.7985 11.7153 95.5146 10.9506 95.5146 10.0684C95.5146 8.82668 95.9774 7.82754 96.9048 7.07152C97.8316 6.31551 99.0058 5.9375 100.428 5.9375C101.148 5.9375 101.787 6.00494 102.345 6.13983C102.902 6.27472 103.434 6.49554 103.938 6.80121L104.073 10.2027H103.884C103.236 9.78883 102.66 9.47881 102.156 9.27159C101.652 9.06491 101.085 8.96102 100.455 8.96102C100.005 8.96102 99.6362 9.05131 99.3485 9.2308C99.0608 9.41083 98.9167 9.64524 98.9167 9.93297C98.9167 10.311 99.0967 10.6215 99.4567 10.8647C99.8163 11.1078 100.491 11.4004 101.482 11.742C102.615 12.12 103.475 12.579 104.06 13.1191C104.644 13.6587 104.937 14.4957 104.937 15.6297C104.937 16.5658 104.703 17.367 104.235 18.0327C103.767 18.699 103.15 19.1983 102.385 19.5311C101.62 19.864 100.779 20.0304 99.8609 20.0304C98.0067 20.0304 96.4229 19.5986 95.1094 18.7343Z" fill="black"/>
<path d="M109.958 19.0865C108.842 18.4567 107.965 17.5973 107.326 16.5085C106.686 15.4196 106.367 14.2094 106.367 12.8774C106.367 11.5818 106.669 10.407 107.272 9.35458C107.875 8.3016 108.712 7.46944 109.783 6.85755C110.853 6.24567 112.064 5.93945 113.413 5.93945C114.781 5.93945 115.965 6.25926 116.963 6.8978C117.962 7.53688 118.718 8.38699 119.231 9.44922C119.744 10.5115 120 11.6542 120 12.8779V13.9309H109.769C109.985 14.9393 110.448 15.704 111.159 16.2256C111.87 16.7478 112.81 17.0083 113.98 17.0083C115.762 17.0083 117.318 16.4236 118.65 15.2537H119.028L118.893 18.628C118.083 19.0963 117.228 19.4471 116.329 19.681C115.428 19.9149 114.565 20.0318 113.737 20.0318C112.333 20.0313 111.073 19.7164 109.958 19.0865ZM116.437 11.5003C116.347 10.6904 116.009 10.0557 115.425 9.59716C114.84 9.13866 114.124 8.90859 113.278 8.90859C112.451 8.90859 111.726 9.12941 111.105 9.56997C110.484 10.0111 110.066 10.6545 109.85 11.5003H116.437Z" fill="black"/>
</g>
<defs>
<clipPath id="clip0">
<rect width="120" height="25.6235" fill="white"/>
</clipPath>
</defs>
</svg>