<svg xmlns="http://www.w3.org/2000/svg" fill="none" viewBox="0.53 0.48 98.22 41.52">
<path d="M95.4169 9.68237H94.6818V11.701H94.2758V9.68237H93.5469V9.35327H95.4169V9.68237Z" fill="#FD0000"/>
<path d="M96.2566 9.35327L96.9364 11.1536L97.6151 9.35327H98.1441V11.701H97.736V10.927L97.776 9.89151L97.0799 11.701H96.7867L96.0926 9.89356L96.1336 10.927V11.701H95.7256V9.35327H96.2566Z" fill="#FD0000"/>
<path d="M50.8198 14.7019C49.1375 14.0457 47.4756 14.628 46.0823 15.6246C46.1705 15.1796 46.3171 14.4517 46.0649 14.0478C45.8455 13.6951 45.3698 13.6172 44.9874 13.6182C43.9294 13.6203 43.4147 14.0724 43.2742 15.1037C43.0169 16.9901 42.8918 18.8888 42.8652 20.7916V20.8091C42.8365 22.514 41.2689 23.9206 39.7475 24.4127C39.7465 24.4117 39.7475 24.4127 39.7454 24.4107C39.8387 24.2446 39.932 24.0795 40.012 23.9052C40.2386 23.4121 40.417 22.9026 40.5338 22.3705C41.2136 19.2887 40.7819 14.1288 36.5027 14.2549C34.9946 14.2989 33.6618 15.2504 32.6694 16.3156C32.5064 16.495 32.3567 16.6898 32.2142 16.8907C31.0967 15.4985 27.977 13.7587 25.1546 13.8099C22.3721 13.6254 20.2756 15.7384 19.4851 18.0635C19.2575 18.7381 18.2231 22.8318 20.5114 25.4564C20.4714 25.4697 20.4355 25.4697 20.4201 25.4697C18.1421 25.4882 15.7995 24.6926 14.4267 22.7601C14.5446 22.6586 14.5456 22.6565 14.6656 22.5499C18.7921 18.7853 19.9864 12.309 20.0233 7.54687C20.0223 6.19768 19.9167 4.97973 19.7137 3.95656C19.3231 1.99429 18.0375 0.343694 15.7574 0.487225C14.9598 0.53746 14.2093 0.875782 13.6065 1.39967C10.2274 4.33179 9.59279 9.76646 9.59484 13.9391C9.59586 16.4232 9.90035 19.0662 10.6201 21.6867C10.6477 21.7861 10.7164 22.0045 10.7236 22.0281C9.44003 22.9077 8.00268 23.6787 6.45255 23.897C5.05313 24.0939 3.79929 23.5649 2.63156 22.8206C2.57005 22.7816 2.49931 22.757 2.4337 22.7242C1.8606 22.432 1.1614 22.594 0.7913 23.1189C0.785149 23.1281 0.777972 23.1373 0.771821 23.1466C0.297145 23.8212 0.570878 24.6711 1.23829 25.156C2.48086 26.0582 3.93974 26.7133 5.54318 26.7758C7.57926 26.8548 9.49744 26.4006 11.9528 24.7951C14.6307 28.3731 19.9762 29.5829 25.2602 27.3869C28.9315 25.8613 30.5021 21.1997 28.9294 17.5048C29.2124 17.6196 29.1898 17.6309 29.3723 17.7662C29.3785 17.7693 29.3826 17.7734 29.3877 17.7765C29.4174 17.799 29.4471 17.8216 29.4758 17.8462C29.5046 17.8708 29.5333 17.8944 29.5599 17.919C29.9095 18.2214 30.1566 18.569 30.3329 18.9473C30.335 18.9504 30.336 18.9545 30.337 18.9575C31.0578 20.521 30.5769 22.6012 31.0762 24.2323C31.6114 25.9751 32.9964 27.2772 34.8142 27.6145C37.1783 28.0522 39.9515 27.0034 41.9394 25.7896C40.7891 26.4919 39.7444 28.0922 39.1682 29.2671C38.181 31.2806 35.5974 37.4853 38.3399 40.5466C38.8402 41.1053 39.4861 41.5369 40.1986 41.7758C41.8953 42.3448 43.7735 41.823 44.7864 40.3261C46.1766 38.2716 46.0423 35.4799 46.0577 33.1148C46.0659 31.9183 46.0352 30.7219 45.9675 29.5275C45.9326 28.9185 45.866 28.3116 45.8342 27.7026C45.8199 27.434 45.8147 26.659 45.8199 26.6026C45.8455 26.579 45.8609 26.5595 45.8855 26.539C46.1613 26.3032 46.7302 26.1884 47.0727 26.0654C47.6632 25.8531 48.2404 25.6296 48.7981 25.3395C51.4155 23.9821 53.6966 21.5647 53.3952 18.4275C53.2435 16.82 52.4786 15.3488 50.8198 14.7019ZM12.3106 14.4907C12.3096 11.2756 12.8899 8.34654 13.7162 6.33711C14.0812 5.44107 14.5507 4.49172 15.3012 3.85404C15.4529 3.72486 15.6395 3.60286 15.8374 3.62849C16.4669 3.70948 16.5827 4.58604 16.6791 5.06277C16.88 6.06543 16.9303 7.07937 16.9395 8.09946C16.9754 12.147 15.8702 17.4576 13.1124 20.276C12.6387 18.2389 12.3106 16.4365 12.3106 14.4907ZM26.2546 21.2356C26.1306 21.7748 25.9594 22.2946 25.7574 22.7642C25.3709 23.6633 24.5938 24.8064 23.466 24.4168C22.367 24.0365 22.1056 22.7252 22.1414 21.7041C22.1784 20.643 22.3608 19.5706 22.8017 18.5977C23.1738 17.7775 23.8802 16.5473 24.928 16.5637C26.9036 16.5934 26.5222 20.0699 26.2546 21.2356ZM38.182 19.8208C38.1553 21.3268 37.8467 24.3409 36.0106 24.8208C34.198 25.2934 33.793 22.8411 33.8874 21.6159C34.0032 20.1232 34.4799 18.246 35.7225 17.2711C36.4145 16.7287 37.3126 16.8405 37.7586 17.6186C38.1266 18.2604 38.1943 19.098 38.182 19.8208ZM43.2199 34.1984C43.2004 36.0274 43.0097 37.5088 42.6745 38.3044C42.5094 38.7073 42.3403 38.9103 42.2152 39.0036C42.1988 39.0149 42.1834 39.0251 42.167 39.0354C42.165 39.0364 42.1629 39.0385 42.1598 39.0395C42.1465 39.0487 42.1321 39.0569 42.1178 39.0641C42.1096 39.0682 42.1004 39.0733 42.0922 39.0764C42.084 39.0805 42.0747 39.0856 42.0655 39.0887C42.0563 39.0918 42.0471 39.0969 42.0368 39.0989C42.0173 39.1072 41.9978 39.1133 41.9753 39.1184C41.964 39.1215 41.9527 39.1256 41.9394 39.1266C41.9271 39.1297 41.9138 39.1328 41.9015 39.1348C41.884 39.1369 41.8656 39.1389 41.8461 39.142C41.8277 39.1441 41.8092 39.1451 41.7908 39.1461C41.7703 39.1482 41.7487 39.1482 41.7251 39.1492C41.7139 39.1502 41.7026 39.1502 41.6893 39.1502C41.678 39.1502 41.6636 39.1502 41.6513 39.1512C41.555 39.1512 41.433 39.141 41.2894 39.1184C41.233 39.1072 41.1807 39.0948 41.1315 39.0805C41.1151 39.0764 41.0998 39.0723 41.0844 39.0672C41.0844 39.0672 41.0834 39.0672 41.0823 39.0672C41.0352 39.0538 40.9911 39.0385 40.9501 39.0231C40.948 39.0231 40.947 39.0221 40.946 39.021C40.9224 39.0118 40.8978 39.0026 40.8752 38.9913C40.8558 38.9831 40.8363 38.9739 40.8178 38.9636C40.8096 38.9595 40.8014 38.9554 40.7942 38.9513C40.7778 38.9421 40.7625 38.9339 40.7471 38.9236C40.7297 38.9134 40.7133 38.9021 40.6968 38.8908C40.6907 38.8878 40.6845 38.8826 40.6784 38.8785C40.663 38.8683 40.6487 38.857 40.6353 38.8457C40.5995 38.817 40.5666 38.7863 40.5338 38.7524C40.5133 38.7299 40.4928 38.7073 40.4723 38.6827C40.4518 38.6591 40.4313 38.6335 40.4118 38.6068C40.3985 38.5874 40.3831 38.5669 40.3698 38.5464C40.3472 38.5146 40.3237 38.4807 40.3011 38.4449C40.0622 38.0481 39.8941 37.3551 39.9105 36.4703C39.9269 34.7654 40.6159 32.4596 41.6995 30.5568C42.1045 29.8238 42.573 29.1564 43.062 28.5884C43.1584 30.6491 43.2445 32.5622 43.2199 34.1984ZM50.7635 19.4988C50.2785 21.0305 48.9888 22.2864 47.6294 23.0851C47.1116 23.3895 46.5078 23.6612 45.8096 23.9022C45.8168 23.407 45.8291 22.9087 45.8957 22.4105C46.1254 20.6881 46.8379 18.0072 48.7489 17.4207C49.9812 17.0424 50.8814 17.7611 50.8721 18.8437C50.8711 19.0508 50.8352 19.2702 50.7635 19.4988Z" fill="#FD0000"/>
<path d="M98.2035 22.3048C97.855 22.0557 97.0645 21.8301 96.4966 22.1326C95.6836 22.5652 94.889 24.5859 91.5817 24.9489C90.6026 25.0565 89.4872 24.8925 88.6475 24.3717C89.5507 23.6766 90.3842 22.9446 91.1008 22.1828C92.409 20.7588 93.4578 19.2179 93.3779 17.3069C93.2661 14.6403 90.2468 12.6852 87.7463 13.4592C86.4453 13.8622 85.3617 14.8525 84.682 16.011C83.8362 17.4514 83.3933 19.2374 83.5101 21.1002C83.5675 21.9747 83.7552 22.8707 84.1037 23.735C84.0566 23.7637 84.0084 23.7904 83.9612 23.817C82.9227 24.387 80.01 25.4102 80.0059 23.3116C80.0029 21.5954 80.3309 19.874 80.5401 18.1732C80.7564 16.4201 80.983 14.668 81.1224 12.9067C81.2003 11.9245 81.2506 10.9403 81.2547 9.95403C81.267 7.34075 80.6365 3.31677 76.7991 3.18452C75.1064 3.12608 73.828 3.52284 72.5618 4.97045C71.6238 6.04282 71.0538 7.2167 70.5914 8.58331C70.577 8.62534 70.5986 8.74119 70.5822 8.7822C70.5883 8.6602 70.5934 8.53718 70.5965 8.41518C70.6314 7.03831 70.3853 5.72193 69.5641 4.57574C69.2463 4.13284 68.8516 3.73403 68.3667 3.48183C65.7698 2.13059 62.6747 4.64135 61.5787 6.50212C61.0876 7.33562 60.6314 8.26037 60.21 9.27226C59.9722 9.84843 59.7682 10.5907 59.5754 11.336C59.5836 11.2109 59.5918 11.0859 59.599 10.9608C59.6615 9.88636 59.6872 8.80578 59.5775 7.73238C59.4831 6.81276 59.2996 5.81112 58.6958 5.07502C57.849 4.04262 56.3696 3.97906 55.2141 4.49167C54.1213 4.97557 53.2109 5.89724 52.5814 6.8835C52.0452 7.72418 51.5746 8.67455 51.4721 9.69567C51.3163 11.2468 53.1811 11.3934 53.7173 10.7086C54.1971 10.0965 54.3284 9.22817 54.8123 8.5423C55.0614 8.18963 55.1547 8.01534 55.5689 7.69342C55.981 7.37355 56.5787 7.51196 56.6833 8.05327C56.7653 8.47669 56.6802 9.74283 56.6341 10.5097C56.5808 11.3893 56.5264 12.27 56.4721 13.1496C56.3214 15.6101 56.1932 18.0666 55.9246 20.5168C55.8088 21.5738 55.6478 22.6103 55.5074 23.7514C55.3977 24.913 54.8697 27.109 56.0425 27.6503C56.7099 27.9579 57.6142 27.8799 58.2662 27.557C59.3201 27.0352 59.3089 25.5804 59.4657 24.588C59.7364 22.882 59.9814 21.175 60.3515 19.4855C60.533 18.6602 60.7401 17.841 60.98 17.0311C61.2988 15.9505 61.6351 14.913 61.9898 13.9155C62.3968 12.7764 62.8366 11.6497 63.3349 10.5476C63.7583 9.60955 64.1951 8.61509 64.842 7.78467C65.1341 7.41046 65.5309 6.87325 66.0199 6.78405C66.5038 6.69589 67.0103 6.96962 67.2502 7.38688C67.3907 7.63088 67.4593 7.90769 67.5178 8.18245C67.8766 9.86176 67.8387 11.5318 67.6459 13.2265C67.444 14.9981 67.2287 16.7676 66.997 18.5351C66.7837 20.1703 66.6269 21.6538 66.4485 23.3567C66.3511 24.2855 66.1747 25.5527 66.3654 26.4774C66.5387 27.3161 67.4245 27.7354 68.2026 27.6852C68.949 27.637 69.5026 27.1039 69.7999 26.4149C70.0173 25.9085 70.0583 25.3477 70.0962 24.7981C70.2264 22.8974 70.3863 21.053 70.6109 19.1615C70.8251 17.354 71.2916 15.5558 71.7591 13.7976C71.7601 13.7945 71.7601 13.7924 71.7612 13.7894C72.0205 12.8185 72.3045 11.9101 72.6131 11.0705C73.0109 9.98376 73.5696 8.6479 74.315 7.75186C74.7661 7.20952 75.3248 6.7615 76.0281 6.69691C76.8688 6.62002 77.3599 7.19722 77.528 7.94973C77.9401 9.79204 77.6572 11.8435 77.4829 13.7002C77.3096 15.5517 77.0646 17.3951 76.8216 19.2374C76.4915 21.7368 75.6754 25.5425 78.3266 27.1028C79.2575 27.6513 80.4499 27.7262 81.5048 27.6411C83.4712 27.4811 85.7533 26.2837 85.7851 26.3134C88.0539 27.8379 91.108 27.8717 93.098 27.6605C95.6723 27.3878 97.4787 25.5178 98.4024 24.4731C98.9479 23.856 98.8289 22.7508 98.2035 22.3048ZM87.6735 21.2878C87.4347 21.5123 86.8852 22.0147 86.8564 22.0147C86.8144 21.9542 86.6801 21.5154 86.6596 21.4324C86.3264 20.035 86.7457 18.4131 87.571 17.2536C87.9575 16.7112 88.5378 16.2294 89.2483 16.3678C89.6194 16.4406 89.9936 16.6774 90.1802 17.0116C90.3945 17.3951 90.295 17.8656 90.133 18.248C89.6245 19.4414 88.6034 20.4123 87.6735 21.2878Z" fill="#FD0000"/>
</svg>