<svg xmlns:xlink="http://www.w3.org/1999/xlink" xmlns="http://www.w3.org/2000/svg" fill="none" viewBox="0 0.5 160 51"><path fill="#000" fill-rule="evenodd" d="M119.34 1.783v15.339h11.871v33.297h17.055V17.122H160V1.783zm-7.55 21.818c-1.637-1.125-3.457-2.003-5.457-2.634a55.745 55.745 0 0 0-6.14-1.554c-3.002-.54-5.322-1.024-6.96-1.452-1.636-.428-2.455-1.137-2.455-2.128 0-.72.273-1.317.819-1.79.545-.473 1.523-.71 2.933-.71 1.501 0 2.649.304 3.445.912.796.608 1.217 1.52 1.263 2.736v.135h17.123v-.202c-.318-5.63-2.319-9.772-6.003-12.43C106.674 1.829 101.579.5 95.076.5c-6.959 0-12.303 1.464-16.032 4.391-3.73 2.928-5.594 6.89-5.594 11.889 0 2.567.454 4.717 1.364 6.45.91 1.735 2.137 3.142 3.684 4.222 1.591 1.081 3.365 1.937 5.321 2.567a51.799 51.799 0 0 0 6.072 1.554c3.092.54 5.502 1.058 7.231 1.554 1.728.496 2.593 1.328 2.593 2.499 0 .72-.284 1.295-.853 1.723-.569.428-1.558.641-2.967.641-1.638 0-2.877-.326-3.718-.98-.843-.652-1.308-1.609-1.4-2.87v-.406h-18.01v.136c.137 3.782.898 6.99 2.286 9.625 1.387 2.635 3.672 4.627 6.856 5.979 1.637.675 3.548 1.182 5.73 1.52 2.184.337 4.662.506 7.437.506 7.458 0 12.985-1.474 16.578-4.424 3.592-2.95 5.389-7.082 5.389-12.396 0-2.656-.477-4.885-1.432-6.687-.955-1.8-2.229-3.265-3.821-4.39M57.777 1.783l-6.14 13.105-6.071-13.104H27.828l14.804 30.194V50.42h17.67V31.843l15.213-30.06zM0 1.783V50.42h36.362V33.87H17.738V1.784z" clip-rule="evenodd"/></svg>