<svg xmlns="http://www.w3.org/2000/svg" viewBox="0 0 1000 357.39"><defs><style>.cls-1{fill:#3b3b3b;}</style></defs><title>print under 80mmAsset 10</title><g id="Layer_2" data-name="Layer 2"><g id="Layer_1-2" data-name="Layer 1"><g id="_Madgex_Gray_Logo_Group_" data-name="&lt;Madgex Gray Logo Group&gt;"><path class="cls-1" d="M291.75,167.14a49.95,49.95,0,1,1,50-50,50,50,0,0,1-50,50M326.61,55.81h0a70.59,70.59,0,1,0,0,122.79h0c29.2-16.86,35.77-6.57,35.77-6.57V62.38s-6.54,10.29-35.77-6.57"/><path class="cls-1" d="M406.25,117.18a50,50,0,1,1,49.95,50,49.95,49.95,0,0,1-49.95-50M526.8,0c-1.3.2-21.21,3.13-21.87,21.15v45A70.57,70.57,0,1,0,491.07,178.6c29.22-16.86,35.8-6.56,35.8-6.56V0Z"/><path class="cls-1" d="M175.73,185h0s22.12-2.57,22.12-22V101.06a54.66,54.66,0,0,0-98.5-32.62,56.92,56.92,0,0,0-44.74-22A54.26,54.26,0,0,0,21.18,57.91S9,68.37,0,62.37V185s22-2.57,22.13-21.77V101.06c0-18.73,13.83-33.92,32.52-33.92a34,34,0,0,1,33.92,33.38V185h0s21.84-2.55,22.16-21.62v-62.3c0-.15,0-.33,0-.45.24-18.51,13.9-33.47,32.49-33.47s32.51,15.19,32.51,33.92Z"/><path class="cls-1" d="M944.13,116.81l55.76-67.1H983.36c-5.24.18-10.47,1.23-14.94,6l-37.41,45L904.36,68.07c-12.49-15-29.58-18.15-40.74-18.36H861.8l-.92.06L916.64,118l-55.86,67.26h15c5.74,0,11.83-1.11,16.81-6.33l37.24-44.84,26.92,33c13.08,15.44,31.92,17.91,41.06,18.14H1000Z"/><path class="cls-1" d="M620.48,167.14c-27.62,0-49.18-22.37-49.18-49.95s21.56-49.94,49.18-49.94a49.95,49.95,0,1,1,0,99.89M691.12,62.37s-6.58,10.28-35.81-6.56v0a70.61,70.61,0,1,0,15.12,111.31v4.35a64.77,64.77,0,0,1-1.25,12,50,50,0,0,1-59.94,37.45,50.87,50.87,0,0,1-17.68-7.95c-1.54-1.05-12.67-8.69-27,2.4A70.39,70.39,0,0,0,604.59,241l0,0A70.66,70.66,0,0,0,689.3,188.1a69.48,69.48,0,0,0,1.79-15.17V118c0-.27,0-.57,0-.84Z"/><path class="cls-1" d="M784,67.17a47.26,47.26,0,0,1,46.91,39.05H735.93c4.89-22.87,23-39,48-39m46.77,60.35s11.41.42,16.83-5.38c4.81-5.09,4.24-9.4,4.28-12.93a57.07,57.07,0,0,0-2.83-16,15.4,15.4,0,0,0-.49-1.69c-.6-1.63-1.23-3.2-1.89-4.73-.15-.34-.25-.66-.43-1-.31-.74-1.25-2.77-1.43-3.09a65.41,65.41,0,0,0-14.6-19.21c-.07-.1-.17-.14-.24-.25-.6-.54-1.27-1.08-1.89-1.6C818.86,54,805,48.92,792.32,47.27a61.27,61.27,0,0,0-7.91-.59c-.18,0-.28,0-.42,0s-.31,0-.46,0v0c-40.67.43-69.31,30.72-69.31,70.81a70.6,70.6,0,0,0,70.5,70.52,71.66,71.66,0,0,0,60.64-33.66c-16.18-8.77-24.9-1.54-27.17.6a50.91,50.91,0,0,1-33.47,12.62,50.09,50.09,0,0,1-49-40.1h95Z"/><g id="_AWB_Gray_Group_" data-name="&lt;AWB Gray Group&gt;"><path class="cls-1" d="M543.4,338.13,537,320.28H514.8l-6.53,17.85H500l22.24-58.35h8.1l21.24,58.35Zm-17.19-48.77-8.93,24.38h17.44Z"/><path class="cls-1" d="M640,338.13h-7.6L617,289.78l-14.88,48.35h-7.77l-17.93-58.35h8.18l13.8,48.35,14.79-48.35h7.61l15.37,48.35,13.64-48.35h8Z"/><path class="cls-1" d="M661.63,287.38v-7.6H668v7.6Zm0,50.75V299.2H668v38.93Z"/><path class="cls-1" d="M678.65,338.13V279.78h6.28v58.35Z"/><path class="cls-1" d="M700.63,320.36c0,6,3.31,14.05,12.65,14.05,6.86,0,9.42-5.54,10.24-9.09l6.7.91c-.91,2.73-4.54,13.14-17.61,13.14-9.58,0-19.09-5.71-19.09-21.08,0-14.79,10.75-20.33,18.84-20.33,8.52,0,17.86,5.7,17.86,20.83v1.07H700.63Zm22.4-5.29c0-6.45-4.55-12-11.16-12-7,0-10.5,5.79-11.07,12Z"/><path class="cls-1" d="M768.48,299.2l-16.37,46c-3.14,8.84-5.29,12.15-12.15,12.15a20.49,20.49,0,0,1-5.87-.83v-5.95a13.24,13.24,0,0,0,4.39.66c3.88,0,5.37-1.57,7.6-8.1l1.65-4.79L734.5,299.2h7l9.75,30.91,10.34-30.91Z"/><path class="cls-1" d="M798.21,279.78h28c8.35,0,16.78,5.2,16.78,15,0,5.95-3.47,11.07-8.93,12.64,4.63,1.41,10.67,4.88,10.67,14.63,0,13-11,16.12-18.27,16.12H798.21Zm24.63,24.55c5.21,0,12-1,12-9.18,0-4.79-2.73-8.51-10-8.51H805.57v17.69Zm1.65,26.94c5.71,0,12.24-.91,12.24-9.84,0-7-5-10.49-12-10.49H805.57v20.33Z"/><path class="cls-1" d="M860.68,299.2v7.11a13.54,13.54,0,0,1,3.64-4.47,15.13,15.13,0,0,1,9.67-3.13v7.1a13.94,13.94,0,0,0-2.56-.24c-4.71,0-8.85,2.56-10.17,7.35a26.56,26.56,0,0,0-.58,7.19v18h-6.61V299.2Z"/><path class="cls-1" d="M903.16,313.5c0-3.64-.09-10.5-8.68-10.5-5.46,0-8.43,2.73-8.43,7.6v.59l-6.86-.42c0-1.9,1.15-12.81,15-12.81a20.24,20.24,0,0,1,9.75,2.32c5.54,3.13,5.87,7.19,5.87,14.13v13.72c0,2.31.08,4.55,3,4.55a7.54,7.54,0,0,0,2-.34v5.54a12.12,12.12,0,0,1-4.22.74,8.17,8.17,0,0,1-4.13-1,7.86,7.86,0,0,1-2.65-4.79c-1.82,2-5.78,6.36-13.3,6.36-7.77,0-13.23-4.46-13.23-11.16a10.45,10.45,0,0,1,4.22-8.43c4-3,10.83-4.05,15.79-4.38l5.95-.41Zm-13.89,8.43c-1.24.49-4.79,2.15-4.79,5.95,0,2.9,2.15,5.78,7.35,5.78,3.56,0,11.41-1.48,11.41-11.48v-3.06C900.18,319.61,892.33,320.61,889.27,321.93Z"/><path class="cls-1" d="M947,338.13V312.59c0-6-4.3-8.43-8.85-8.43-5.45,0-10.33,4-10.33,10.91v23.06h-6.61V299.2h6.61v5.7A13.85,13.85,0,0,1,940,298c1.73,0,7.6.5,11.07,5.37,2.23,3.14,2.4,6.53,2.4,10.17v24.63Z"/><path class="cls-1" d="M993.39,338.13v-5a16.17,16.17,0,0,1-13.31,6.2c-11.41,0-17.93-8.76-17.93-20.83,0-15.13,9.91-20.58,17.85-20.58,7.11,0,12,4.13,13.39,6.37V279.78H1000v58.35Zm-12-4.63c5.79,0,12.15-3.47,12.15-15.37,0-8-4.63-14.13-12-14.13-8.93,0-12.32,7.43-12.32,14.79C969.25,325.65,972,333.5,981.4,333.5Z"/></g></g></g></g></svg>