<svg xmlns:xlink="http://www.w3.org/1999/xlink" xmlns="http://www.w3.org/2000/svg" fill="none" viewBox="0 0 100 20.01">
<g id="MAGIC_LOGO_BLACK" clip-path="url(#clip0_706_654)">
<path id="Vector" d="M92.8583 20C87.2476 20 82.6841 15.5135 82.6841 10.0008C82.6841 4.48807 87.2476 0 92.8583 0C95.4365 0 97.8977 0.952527 99.7862 2.68272L100.002 2.88059L97.7823 5.1461L97.5747 4.95744C96.2855 3.79017 94.6109 3.14901 92.8583 3.14901C89.0127 3.14901 85.8851 6.22287 85.8851 10.0023C85.8851 13.7817 89.0127 16.8556 92.8583 16.8556C94.6094 16.8556 96.2855 16.2129 97.5747 15.0472L97.7823 14.8585L100.002 17.124L99.7862 17.3219C97.8977 19.0521 95.4365 20.0046 92.8583 20.0046V20Z" fill="#1E1E1E"/>
<path id="Vector_2" d="M77.6741 19.7867H74.4263V0.219238H77.6741V19.7852V19.7867Z" fill="#1E1E1E"/>
<path id="Vector_3" d="M47.0786 19.7821H43.7122L37.1011 4.80088L30.49 19.7821H27.1235L35.7526 0.219238H38.4511L47.0786 19.7821Z" fill="#1E1E1E"/>
<path id="Vector_4" d="M60.06 20C54.4493 20 49.8843 15.5135 49.8843 10.0008C49.8843 4.48807 54.4493 0 60.06 0C62.6383 0 65.0995 0.952527 66.9879 2.68272L67.2033 2.88059L64.984 5.1461L64.7764 4.95743C63.4873 3.79017 61.8127 3.14901 60.06 3.14901C56.2145 3.14901 53.0868 6.22287 53.0868 10.0023C53.0868 13.7817 56.2145 16.8556 60.06 16.8556C61.1338 16.8556 62.2075 16.6086 63.1627 16.1393C63.2157 16.1117 63.2719 16.0825 63.3281 16.0534L63.4124 16.0089C63.4654 15.9798 63.506 15.9567 63.5466 15.9337L63.5997 15.9031C63.6293 15.8862 63.6574 15.8693 63.6871 15.8524C63.7245 15.8294 63.7604 15.808 63.7963 15.785C63.8478 15.7527 63.8993 15.7205 63.9493 15.6868C64.0023 15.6515 64.0554 15.6147 64.1085 15.5779C64.149 15.5487 64.1834 15.5257 64.2161 15.5012C64.2692 15.4628 64.3223 15.4214 64.3753 15.38L64.3956 15.3647C64.4222 15.3432 64.4502 15.3233 64.4768 15.3018C64.5283 15.2604 64.5767 15.219 64.6266 15.176L64.6516 15.1545C64.6781 15.1315 64.7046 15.1085 64.7312 15.0855C64.803 15.0211 64.8748 14.9567 64.9434 14.8907L65.087 14.7527C65.1448 14.6944 65.2072 14.63 65.2665 14.5625L65.3289 14.495V11.2708H60.9996V8.32886H68.3535V15.8003L68.2303 15.9644C67.9727 16.3034 67.6809 16.6408 67.3625 16.9645L67.336 16.9921C67.1268 17.2022 66.9005 17.4078 66.643 17.6241L66.6212 17.644C66.5229 17.7253 66.4214 17.805 66.32 17.8833L66.2092 17.9676C66.1249 18.0305 66.039 18.0919 65.9532 18.1517C65.8876 18.1977 65.8221 18.2422 65.7565 18.2867L65.7128 18.3174C65.6879 18.3342 65.6645 18.3511 65.6395 18.368L65.5287 18.437C65.485 18.4646 65.4413 18.4907 65.3976 18.5168L65.3305 18.5582C65.3055 18.5735 65.2805 18.5888 65.2556 18.6042C65.2228 18.6241 65.1869 18.6441 65.1494 18.664C65.087 18.6993 65.0339 18.7284 64.9809 18.7576C64.9465 18.7775 64.9091 18.7975 64.8701 18.8189C64.8139 18.8481 64.7546 18.8787 64.6937 18.911L64.4393 19.0337C64.2911 19.1027 64.16 19.161 64.0257 19.2162L63.8993 19.2683C63.776 19.3174 63.6543 19.3634 63.5294 19.4079L63.4779 19.4263C63.4452 19.4386 63.4139 19.4493 63.3812 19.4616C63.2532 19.5046 63.1252 19.5444 62.9957 19.5828C62.888 19.615 62.7787 19.6441 62.6695 19.6733L62.618 19.6871C62.5462 19.7055 62.4744 19.7254 62.4026 19.7423C62.3199 19.7623 62.2356 19.7791 62.1513 19.796L62.1217 19.8021C62.0452 19.8175 61.9687 19.8328 61.8923 19.8466C61.8002 19.8635 61.7081 19.8773 61.6145 19.8926C61.5302 19.9049 61.4475 19.9172 61.3632 19.9279C61.2774 19.9386 61.1915 19.9494 61.1057 19.9571C61.0042 19.9678 60.8997 19.9755 60.7967 19.9831L60.7374 19.9877C60.6874 19.9908 60.6375 19.9954 60.5875 19.9985C60.4002 20.0077 60.227 20.0123 60.06 20.0123V20Z" fill="#1E1E1E"/>
<path id="Vector_5" d="M22.126 19.7823H16.2219L11.0622 13.9843L5.90255 19.7823H0V0.214844H2.66099L11.0638 9.65575L19.4666 0.214844H22.1275V19.7823H22.126ZM17.4548 16.8373H19.2262V4.81336L12.9897 11.82L17.4548 16.8373ZM2.89977 16.8373H4.67116L9.13631 11.82L2.89977 4.81336V16.8373Z" fill="#1E1E1E"/>
</g>
<defs>
<clipPath id="clip0_706_654">
<rect width="100" height="20" fill="white"/>
</clipPath>
</defs>
</svg>