<?xml version="1.0" encoding="utf-8"?>
<!-- Generator: Adobe Illustrator 19.2.1, SVG Export Plug-In . SVG Version: 6.00 Build 0)  -->
<svg version="1.1" id="layer" xmlns="http://www.w3.org/2000/svg" xmlns:xlink="http://www.w3.org/1999/xlink" x="0px" y="0px"
	 viewBox="0 0 652 652" style="enable-background:new 0 0 652 652;" xml:space="preserve">
<style type="text/css">
	.st0{fill:#002C77;}
</style>
<path class="st0" d="M127,343v-44.1h8.6l15.2,23.7l15.4-23.7h8.4V343h-8v-31.9l-15.8,24.4l-15.7-24.4V343H127z M192.9,344.1
	c-3.5,0-6.3-1-8.4-2.9c-2.1-2-3.3-4.7-3.2-7.6c0-2.1,0.5-4.2,1.7-5.9c1.2-1.7,2.8-3.1,4.8-3.9c2.3-1,4.7-1.5,7.2-1.4
	c3,0,6,0.5,8.8,1.7v-0.1c0-2.8-0.7-5-2.2-6.4c-1.5-1.5-3.8-2.2-6.9-2.2c-1.9,0-3.8,0.3-5.6,0.9c-1.9,0.6-3.7,1.4-5.4,2.6v-6.9
	c1.7-0.9,3.5-1.7,5.4-2.3c2.1-0.6,4.2-0.9,6.4-0.9c4.9,0,8.7,1.3,11.4,3.8c2.6,2.6,4,6.2,4,11V343h-6.7l-0.1-4.9
	c-1,1.9-2.5,3.4-4.4,4.3C197.5,343.5,195.2,344.1,192.9,344.1z M188.7,333.1c-0.1,1.5,0.5,2.9,1.6,3.9c1.3,1,2.9,1.4,4.5,1.3
	c2.7,0,4.9-0.8,6.4-2.4c1.5-1.6,2.4-3.8,2.6-6.8c-2.4-1-4.9-1.5-7.5-1.5c-2.5,0-4.3,0.5-5.6,1.4C189.3,330,188.6,331.5,188.7,333.1z
	 M219.2,343v-33.5h7.5l0.1,7c0.8-2.2,2.2-4.1,4.1-5.4c1.8-1.3,3.9-2,6.1-2c0.7,0,1.5,0.1,2.2,0.2c0.7,0.1,1.4,0.2,2,0.5v7.5
	c-0.8-0.2-1.6-0.4-2.4-0.5c-0.9-0.1-1.8-0.2-2.8-0.2c-2.9,0-5.1,0.9-6.6,2.8c-1.5,1.9-2.3,4.6-2.3,8.1V343L219.2,343z M256.9,344.1
	c-1.3,0-2.6-0.2-3.9-0.4c-1.4-0.3-2.7-0.7-4.1-1.2c-1.2-0.4-2.3-1-3.4-1.7v-6.8c3.2,2.4,7.1,3.6,11,3.7c2.3,0,3.9-0.3,5-0.8
	c1-0.5,1.6-1.5,1.6-2.6c0-1-0.5-2-1.4-2.5c-0.9-0.7-2.8-1.4-5.5-2.3c-3.8-1.2-6.5-2.6-8-4.2c-1.6-1.6-2.4-3.7-2.4-6.4
	c-0.1-2.9,1.2-5.6,3.4-7.4c2.3-1.8,5.4-2.7,9.3-2.7c1.7,0,3.5,0.3,5.2,0.8c1.8,0.5,3.5,1.1,5,2v6.8c-1.4-1-3-1.8-4.7-2.3
	c-1.7-0.6-3.5-0.9-5.3-0.9c-3.6,0-5.4,1.1-5.4,3.3c0,0.6,0.2,1.2,0.5,1.6c0.5,0.6,1.1,1,1.8,1.3c1.2,0.6,2.5,1,3.8,1.4
	c2.4,0.7,4.6,1.7,6.8,2.9c1.5,0.8,2.7,2.1,3.5,3.5c0.8,1.5,1.1,3.1,1.1,4.8c0.1,2.9-1.4,5.7-3.8,7.4
	C264.5,343.1,261.1,344.1,256.9,344.1z M277.6,343v-44.1h7.8v15.4c0.9-1.8,2.4-3.3,4.2-4.3c1.9-1,4.1-1.6,6.3-1.5
	c3.9,0,6.8,1.2,8.9,3.7c2.1,2.5,3.1,6,3.1,10.6V343h-7.8v-18.8c0-5.8-2.2-8.8-6.7-8.8c-2.2-0.1-4.4,0.8-5.8,2.5
	c-1.4,1.6-2.1,3.9-2.1,6.9V343L277.6,343z M317.3,343v-44.1h8.6l15.2,23.7l15.4-23.7h8.4V343h-8v-31.9L341,335.5l-15.7-24.4V343
	H317.3z M389.4,344.1c-3.3,0.1-6.5-0.7-9.4-2.1c-2.6-1.4-4.8-3.5-6.2-6.1c-2.9-5.9-2.9-12.8,0.1-18.7c1.4-2.6,3.6-4.8,6.2-6.3
	c2.8-1.5,6-2.3,9.2-2.3c1.6,0,3.2,0.2,4.8,0.7c1.4,0.4,2.8,0.9,4.2,1.5v7.2c-2.5-1.5-5.4-2.3-8.4-2.4c-3.1,0-5.6,1-7.5,2.9
	s-2.8,4.5-2.8,7.8c0,3.4,0.9,6.1,2.8,8c1.9,1.9,4.5,2.9,7.8,2.9c1.3,0,2.6-0.2,3.9-0.5c1.4-0.4,2.9-0.9,4.2-1.5v6.9
	c-1.3,0.6-2.7,1.1-4.1,1.5C392.7,343.9,391,344.1,389.4,344.1z M406.6,343v-44.1h8.1v36.8h20.3v7.2H406.6z M457.5,344.1
	c-3.3,0.1-6.6-0.6-9.7-2c-2.8-1.3-5.1-3.4-6.7-6c-1.6-2.6-2.4-5.9-2.4-9.7c-0.1-3.2,0.7-6.4,2.2-9.3c1.4-2.6,3.5-4.8,6-6.3
	c2.7-1.6,5.7-2.3,8.8-2.3c2.9-0.1,5.7,0.6,8.2,2.1c2.3,1.4,4.2,3.4,5.4,5.8c1.3,2.7,2,5.7,1.9,8.7c0,0.5,0,0.9-0.1,1.3
	s-0.1,1.1-0.2,2h-24.6c0.3,2.6,1.7,4.9,3.7,6.5c2,1.6,4.7,2.3,8.1,2.3c4.3,0,8.5-1.4,11.9-4.1v6.9c-1.8,1.2-3.8,2.2-5.9,2.9
	C462,343.7,459.8,344,457.5,344.1z M455.3,314.6c-2.2-0.1-4.4,0.7-6,2.3c-1.5,1.5-2.5,3.7-2.9,6.4h17.4c0-0.4,0-0.9-0.1-1.3
	c-0.2-2.1-1.2-4-2.7-5.5C459.4,315.1,457.3,314.4,455.3,314.6L455.3,314.6z M478.2,343v-33.5h7.5l0.1,5.4c0.9-2,2.4-3.6,4.2-4.7
	c2-1.1,4.2-1.7,6.5-1.7c3.9,0,6.8,1.2,8.9,3.7c2.1,2.5,3.1,6,3.1,10.6V343h-7.8v-18.8c0-5.8-2.2-8.8-6.7-8.8
	c-2.2-0.1-4.4,0.8-5.8,2.5c-1.4,1.6-2.1,4-2.1,6.9V343L478.2,343z M516.8,343v-33.5h7.5l0.1,5.4c0.9-2,2.4-3.6,4.2-4.7
	c2-1.1,4.2-1.7,6.5-1.7c3.9,0,6.8,1.2,8.9,3.7c2.1,2.5,3.1,6,3.1,10.6V343h-7.8v-18.8c0-5.8-2.2-8.8-6.7-8.8
	c-2.2-0.1-4.4,0.8-5.8,2.5c-1.4,1.6-2.1,4-2.1,6.9V343L516.8,343z M564.9,344.1c-3.5,0-6.3-1-8.4-2.9c-2.1-2-3.3-4.7-3.2-7.6
	c0-2.1,0.5-4.2,1.7-5.9c1.2-1.7,2.8-3.1,4.8-3.9c2.3-1,4.7-1.5,7.2-1.4c3,0,6,0.5,8.8,1.7v-0.1c0-2.8-0.7-5-2.2-6.4
	s-3.8-2.2-6.9-2.2c-1.9,0-3.8,0.3-5.6,0.9c-1.9,0.6-3.7,1.4-5.4,2.6v-6.9c1.7-0.9,3.5-1.7,5.4-2.3c2.1-0.6,4.2-0.9,6.4-0.9
	c4.9,0,8.7,1.3,11.4,3.8c2.6,2.6,4,6.2,4,11V343h-6.7l-0.1-4.9c-1,1.9-2.5,3.4-4.4,4.3C569.6,343.5,567.3,344.1,564.9,344.1z
	 M560.7,333.1c-0.1,1.5,0.5,2.9,1.6,3.9c1.3,1,2.9,1.4,4.5,1.3c2.7,0,4.9-0.8,6.4-2.4c1.5-1.6,2.4-3.8,2.6-6.8
	c-2.4-1-4.9-1.5-7.5-1.5c-2.5,0-4.3,0.5-5.6,1.4C561.3,330,560.6,331.5,560.7,333.1z M591.2,343v-33.5h7.6l0.1,5.4
	c0.9-2,2.3-3.6,4.2-4.7c2-1.1,4.2-1.7,6.5-1.7c3.9,0,6.8,1.2,8.9,3.7c2.1,2.5,3.1,6,3.1,10.6V343h-7.9v-18.8c0-5.8-2.2-8.8-6.7-8.8
	c-2.2-0.1-4.4,0.8-5.8,2.5c-1.4,1.6-2.1,3.9-2.1,6.9V343L591.2,343z M102.7,306.9L85,296.7c-1.4-0.7-3.1-0.7-4.5,0l-48.6,28
	l26.9-20.6L46,296.7c-1.4-0.7-3.1-0.7-4.5,0l-17.6,10.1c-1.3,0.9-2.2,2.3-2.3,3.9v20.3c0.1,1.6,0.9,3,2.3,3.9l17.6,10.1
	c1.4,0.7,3.1,0.7,4.5,0l48.6-28l-26.9,20.6l12.8,7.4c1.4,0.7,3.1,0.7,4.5,0l17.6-10.1c1.3-0.9,2.2-2.3,2.3-3.9v-20.3
	C104.8,309.2,104,307.7,102.7,306.9z"/>
</svg>
