<svg xmlns="http://www.w3.org/2000/svg" xmlns:xlink="http://www.w3.org/1999/xlink" version="1.1" id="layer" x="0px" y="0px" style="enable-background:new 0 0 652 652;" xml:space="preserve" viewBox="20.7 257.4 599.8 127.2">
<path id="ME_EM_BLACK_LOGO" d="M602.1,257.5l-43.3,66.8l-43-66.8h-18.9v127.1h23.6V305l31.9,50.5h12.6l31.9-50.1v79.2h23.6V257.5  H602.1z M386.7,257.5v127.1h85.9v-21.1h-62.3v-34.9h47.3v-21.1h-47.3v-29.4H473l-0.4-20.7H386.7z M171,257.5v127.1h85.9v-21.1h-62.3  v-34.9h47.3v-21.1h-47.3v-29.4h62.7l-0.4-20.7H171z M125.9,257.5l-43.3,66.8l-43-66.8H20.7v127.1h23.6V305l31.9,50.5h12.6l31.9-50.1  v79.2h23.6V257.5H125.9z M306.1,277.5v31.2h-34.2v20.3h34.2v31.2h21.6v-31.2h34.2v-20.3h-34.2v-31.2H306.1z"/>
</svg>