<svg xmlns="http://www.w3.org/2000/svg" xmlns:xlink="http://www.w3.org/1999/xlink" version="1.1" id="Layer_1" x="0px" y="0px" style="enable-background:new 0 0 418.1 93.7;" xml:space="preserve" viewBox="0.04 0.03 418.1 93.57">
<style type="text/css">
	.st0{fill:#262626;}
	.st1{fill:#E5293A;}
	.st2{fill:#FFD024;}
	.st3{fill:#339FA7;}
	.st4{enable-background:new    ;}
</style>
<g id="Methods-RGB-neutral_Small_Background" transform="translate(-7.26 -13.07)">
	<path id="Path_1" class="st0" d="M7.3,29.9h10.3v5c0,1-0.1,2-0.2,3h0.2c2.1-4.2,7.2-8.9,14-8.9c6.6,0,10.8,3,12.5,8.8h0.2   c2.9-5.4,8.5-8.8,14.6-8.8C67.8,29,73,34,73,45.3v28.6H62.2V47.2c0-4.9-0.9-8.6-5.9-8.6c-5.5,0-9.1,4.4-10.4,9.8   c-0.4,1.8-0.6,3.7-0.5,5.6v19.8H34.8V47.2c0-4.6-0.8-8.6-5.8-8.6c-5.6,0-9.2,4.4-10.5,9.9c-0.4,1.8-0.6,3.6-0.5,5.5v19.8H7.3V29.9z   "/>
	<path id="Path_2" class="st0" d="M107.8,46.1c-0.2-5.8-3.8-8.9-8.5-8.9c-5.5,0-9.3,3.4-10.3,8.9H107.8z M99.5,28.9   c12.4,0,19,9,19,20.4c0,1.3-0.2,4.1-0.2,4.1H88.7c0.7,7.5,6.5,11.4,12.9,11.4c6.9,0,12.4-4.7,12.4-4.7l4.1,7.7   c-4.9,4-11,6.2-17.3,6.2c-14.2,0-23.1-10.3-23.1-22.5C77.7,38.2,86.7,28.9,99.5,28.9"/>
	<path id="Path_3" class="st0" d="M126.7,38.8h-5.6v-8.5h5.8V17.9h10.4v12.4h9.8v8.5h-9.8v17.5c0,7.1,5.6,8.1,8.5,8.1   c0.7,0,1.3,0,1.9-0.2v9.3c-1.1,0.2-2.2,0.3-3.3,0.2c-6,0-17.8-1.8-17.8-16.2C126.7,57.7,126.7,38.8,126.7,38.8z"/>
	<path id="Path_4" class="st0" d="M153.2,13.1h10.7v20.7c0,1.2-0.1,2.4-0.2,3.6h0.2c3-5.4,8.7-8.6,14.8-8.5c9.5,0,14.9,5,14.9,16.3   v28.6H183V47.4c0-5.2-1.4-8.8-6.8-8.8c-5.4,0-10.2,3.7-11.6,8.9c-0.5,1.8-0.7,3.7-0.7,5.6v20.7h-10.7V13.1z"/>
	<path id="Path_5" class="st0" d="M221.9,64.8c6.9,0,12.7-5.4,12.7-13.4c0-7.9-5.8-13.4-12.7-13.4c-7,0-12.8,5.5-12.8,13.4   C209.1,59.4,214.9,64.8,221.9,64.8 M221.8,28.9c13.1,0,23.7,9.4,23.7,22.5c0,13.2-10.5,22.5-23.6,22.5s-23.7-9.3-23.7-22.5   C198.3,38.2,208.8,28.9,221.8,28.9"/>
	<path id="Path_6" class="st0" d="M271,64.8c5.6,0,10.8-4,10.8-13.5c0-6.7-3.5-13.2-10.7-13.2c-5.9,0-10.8,4.8-10.8,13.3   C260.3,59.5,264.7,64.8,271,64.8 M269,28.9c9.4,0,12.4,5.5,12.4,5.5h0.2c0,0-0.1-1.1-0.1-2.4V13.1h10.7v60.7h-10.1v-4.5   c0-0.9,0.1-1.9,0.2-2.8h-0.2c0,0-3.6,7.3-13.5,7.3c-11.6,0-19-9.2-19-22.5C249.5,37.7,257.6,28.9,269,28.9"/>
	<path id="Path_7" class="st0" d="M301.6,60c3.2,2.9,7.4,4.6,11.7,4.7c3,0,5.6-1.3,5.6-3.9c0-6.4-20.9-5.6-20.9-19.4   c0-8,7.2-12.6,16.4-12.6c9.7,0,14.4,4.9,14.4,4.9l-4,7.9c-3-2.4-6.7-3.7-10.5-3.7c-2.8,0-5.5,1.2-5.5,3.9c0,6.1,20.9,5.3,20.9,19.1   c0,7.2-6.2,12.9-16.4,12.9c-6.2,0.1-12.1-2.1-16.7-6.3L301.6,60z"/>
	<rect id="Rectangle_26" x="357.2" y="28.9" class="st1" width="13.6" height="44.9"/>
	<rect id="Rectangle_27" x="384.5" y="28.9" class="st2" width="13.6" height="44.9"/>
	<rect id="Rectangle_28" x="411.8" y="28.9" class="st3" width="13.6" height="44.9"/>
</g>
<g class="st4">
	<path d="M198.9,93.3l5.8-15.2h1.9l5.8,15.2h-1.9l-3.7-9.9c-0.1-0.3-0.2-0.6-0.3-1c-0.1-0.4-0.3-0.8-0.4-1.2   c-0.1-0.4-0.3-0.8-0.4-1.2c-0.1-0.4-0.2-0.7-0.3-1h0.4c-0.1,0.4-0.2,0.7-0.4,1.1c-0.1,0.4-0.3,0.7-0.4,1.1   c-0.1,0.4-0.3,0.7-0.4,1.1c-0.1,0.4-0.3,0.7-0.4,1.1l-3.7,9.8H198.9z M201.4,89.1l0.6-1.7h7.2l0.7,1.7H201.4z"/>
	<path d="M215.3,93.3V78.1h1.5l10,13.2l-0.3,0.4c0-0.2-0.1-0.6-0.1-1c0-0.5,0-1-0.1-1.6s0-1.2-0.1-1.8c0-0.6,0-1.3,0-1.9   c0-0.6,0-1.2,0-1.7v-5.6h1.7v15.2h-1.6l-9.9-13l0.3-0.5c0,0.6,0.1,1.2,0.1,1.7c0,0.6,0.1,1.1,0.1,1.6s0,1,0.1,1.4   c0,0.4,0,0.8,0,1.1c0,0.3,0,0.5,0,0.7v6.9H215.3z"/>
	<path d="M236.8,93.3l5.8-15.2h1.9l5.8,15.2h-1.9l-3.7-9.9c-0.1-0.3-0.2-0.6-0.3-1s-0.3-0.8-0.4-1.2c-0.1-0.4-0.3-0.8-0.4-1.2   c-0.1-0.4-0.2-0.7-0.3-1h0.4c-0.1,0.4-0.2,0.7-0.4,1.1c-0.1,0.4-0.3,0.7-0.4,1.1c-0.1,0.4-0.3,0.7-0.4,1.1   c-0.1,0.4-0.3,0.7-0.4,1.1l-3.7,9.8H236.8z M239.3,89.1l0.6-1.7h7.2l0.7,1.7H239.3z"/>
	<path d="M253.2,93.3V78.1h1.7v13.6h7.3v1.7H253.2z"/>
	<path d="M266.4,93.3V79.8h-4.4v-1.7h10.6v1.7h-4.5v13.6H266.4z"/>
	<path d="M275.5,93.3V78.1h9.2v1.7h-7.5v11.9h7.5v1.7H275.5z M276.3,86.3v-1.7h7.2v1.7H276.3z"/>
	<path d="M288.6,93.3V78.1h1.5l10,13.2l-0.3,0.4c0-0.2-0.1-0.6-0.1-1c0-0.5,0-1-0.1-1.6s0-1.2-0.1-1.8c0-0.6,0-1.3,0-1.9   c0-0.6,0-1.2,0-1.7v-5.6h1.7v15.2h-1.6l-9.9-13l0.3-0.5c0,0.6,0.1,1.2,0.1,1.7c0,0.6,0.1,1.1,0.1,1.6s0,1,0.1,1.4   c0,0.4,0,0.8,0,1.1c0,0.3,0,0.5,0,0.7v6.9H288.6z"/>
	<path d="M318.1,93.6c-1.1,0-2.1-0.2-3-0.6s-1.7-0.9-2.4-1.6s-1.2-1.5-1.6-2.5s-0.6-2-0.6-3.1c0-1.1,0.2-2.1,0.6-3.1   s0.9-1.8,1.6-2.5c0.7-0.7,1.5-1.2,2.4-1.6c0.9-0.4,1.9-0.6,3-0.6c0.7,0,1.4,0.1,2.1,0.3c0.7,0.2,1.3,0.5,1.9,0.9   c0.6,0.4,1.1,0.8,1.4,1.3l-1.2,1.2c-0.4-0.4-0.8-0.8-1.3-1.1s-1-0.6-1.5-0.7c-0.5-0.2-1-0.3-1.6-0.3c-0.8,0-1.6,0.1-2.3,0.4   c-0.7,0.3-1.3,0.7-1.8,1.3c-0.5,0.5-0.9,1.2-1.2,1.9s-0.4,1.5-0.4,2.4c0,0.9,0.1,1.7,0.4,2.5s0.7,1.4,1.2,1.9   c0.5,0.5,1.2,1,1.9,1.3c0.7,0.3,1.5,0.4,2.4,0.4c0.5,0,1-0.1,1.6-0.2s1-0.4,1.4-0.6s0.8-0.6,1.1-0.9l0.9,1.4   c-0.3,0.4-0.8,0.8-1.3,1.1c-0.6,0.3-1.2,0.6-1.8,0.7C319.4,93.5,318.8,93.6,318.1,93.6z"/>
	<path d="M332.8,93.6c-1.1,0-2.1-0.2-3-0.6s-1.7-0.9-2.4-1.6c-0.7-0.7-1.2-1.5-1.6-2.5c-0.4-1-0.6-2-0.6-3.1c0-1.1,0.2-2.2,0.6-3.1   s0.9-1.8,1.6-2.5c0.7-0.7,1.5-1.2,2.4-1.6s1.9-0.6,3-0.6c1.1,0,2.1,0.2,3,0.6s1.7,0.9,2.4,1.6s1.2,1.5,1.6,2.5c0.4,1,0.6,2,0.6,3.1   c0,1.1-0.2,2.2-0.6,3.1c-0.4,1-0.9,1.8-1.6,2.5s-1.5,1.2-2.4,1.6S333.9,93.6,332.8,93.6z M332.8,91.9c0.8,0,1.6-0.1,2.3-0.4   s1.3-0.7,1.8-1.3c0.5-0.6,0.9-1.2,1.2-1.9c0.3-0.7,0.4-1.6,0.4-2.4c0-0.9-0.1-1.7-0.4-2.5s-0.7-1.4-1.2-1.9c-0.5-0.6-1.1-1-1.8-1.3   c-0.7-0.3-1.5-0.5-2.3-0.5c-0.8,0-1.6,0.2-2.3,0.5c-0.7,0.3-1.3,0.7-1.8,1.3s-0.9,1.2-1.2,1.9s-0.4,1.6-0.4,2.5   c0,0.9,0.1,1.7,0.4,2.4c0.3,0.7,0.7,1.4,1.2,1.9s1.1,1,1.8,1.3S332,91.9,332.8,91.9z"/>
	<path d="M343.6,93.3V78.1h1.7l5.9,9.5l-0.8,0l5.9-9.5h1.5v15.2h-1.7v-7c0-1.3,0-2.5,0.1-3.5c0-1,0.1-2.1,0.2-3.1l0.3,0.6l-5.5,8.6   h-1.2l-5.3-8.5l0.2-0.7c0.1,1,0.2,2,0.2,3s0.1,2.2,0.1,3.6v7H343.6z"/>
	<path d="M362.3,93.3V78.1h6c0.8,0,1.5,0.2,2.2,0.6s1.1,0.9,1.5,1.6s0.6,1.5,0.6,2.3c0,0.9-0.2,1.7-0.6,2.4s-0.9,1.3-1.5,1.7   c-0.6,0.4-1.4,0.6-2.2,0.6H364v6H362.3z M364,85.7h4.4c0.4,0,0.9-0.1,1.2-0.4c0.4-0.3,0.6-0.6,0.9-1.1c0.2-0.5,0.3-1,0.3-1.6   c0-0.5-0.1-1-0.3-1.4c-0.2-0.4-0.5-0.8-0.9-1c-0.4-0.3-0.8-0.4-1.2-0.4H364V85.7z"/>
	<path d="M372.7,93.3l5.8-15.2h1.9l5.8,15.2h-1.9l-3.7-9.9c-0.1-0.3-0.2-0.6-0.3-1s-0.3-0.8-0.4-1.2s-0.3-0.8-0.4-1.2   c-0.1-0.4-0.2-0.7-0.3-1h0.4c-0.1,0.4-0.2,0.7-0.4,1.1c-0.1,0.4-0.2,0.7-0.4,1.1s-0.3,0.7-0.4,1.1c-0.1,0.4-0.3,0.7-0.4,1.1   l-3.7,9.8H372.7z M375.2,89.1l0.6-1.7h7.2l0.7,1.7H375.2z"/>
	<path d="M389.1,93.3V78.1h1.5l10,13.2l-0.3,0.4c0-0.2-0.1-0.6-0.1-1c0-0.5,0-1-0.1-1.6s0-1.2-0.1-1.8c0-0.6,0-1.3,0-1.9   c0-0.6,0-1.2,0-1.7v-5.6h1.7v15.2h-1.6l-9.9-13l0.3-0.5c0,0.6,0.1,1.2,0.1,1.7c0,0.6,0.1,1.1,0.1,1.6s0,1,0.1,1.4   c0,0.4,0,0.8,0,1.1c0,0.3,0,0.5,0,0.7v6.9H389.1z"/>
	<path d="M410.4,93.3v-7.6l0.2,1.1l-6.2-8.7h2.1l5.1,7.2l-0.5,0l4.6-7.2h2l-5.9,8.9l0.3-1.5v7.8H410.4z"/>
</g>
</svg>