<?xml version="1.0" encoding="utf-8"?>
<!-- Generator: Adobe Illustrator 19.2.1, SVG Export Plug-In . SVG Version: 6.00 Build 0)  -->
<svg version="1.1" id="layer" xmlns="http://www.w3.org/2000/svg" xmlns:xlink="http://www.w3.org/1999/xlink" x="0px" y="0px"
	 viewBox="0 0 652 652" style="enable-background:new 0 0 652 652;" xml:space="preserve">
<style type="text/css">
	.st0{fill:#005F80;}
	.st1{fill:#75BAD4;}
	.st2{fill:#FFFFFF;}
</style>
<path id="path4223" class="st0" d="M65.1,266.6c0,0,1,0.9,0.9,1.7c0,0-1.2-0.2-1.5-0.7v2.1c0,0,0.8-0.8,1.4-0.7c0,0,0.3,0.7-0.4,1.5
	c-0.7,0.8-1.1,1.5-0.9,2.1c0.2,0.6,0.6,1.2,1.6,1.1c0.9,0,1.3-0.6,1.5-1.1c0.2-0.6-0.2-1.4-0.9-2.1c-0.7-0.8-0.4-1.5-0.4-1.5
	c0.6-0.1,1.4,0.7,1.4,0.7v-2.1c-0.3,0.6-1.5,0.7-1.5,0.7c0-0.8,0.9-1.7,0.9-1.7h-1H65.1z M59.6,271.7c-0.4,0-0.7,0.3-0.7,0.7
	c0,0.4,0.3,0.7,0.7,0.7c0.4,0,0.7-0.3,0.7-0.7C60.3,272,60,271.7,59.6,271.7z M72.8,271.7c-0.4,0-0.7,0.3-0.7,0.7
	c0,0.4,0.3,0.7,0.7,0.7c0.4,0,0.7-0.3,0.7-0.7C73.5,272,73.2,271.7,72.8,271.7z M55.9,272.4c-0.4,0-0.7,0.3-0.7,0.7
	c0,0.4,0.3,0.7,0.7,0.7c0.4,0,0.7-0.3,0.7-0.7C56.6,272.7,56.3,272.4,55.9,272.4z M76.5,272.4c-0.4,0-0.7,0.3-0.7,0.7
	c0,0.4,0.3,0.7,0.7,0.7c0.4,0,0.7-0.3,0.7-0.7C77.2,272.7,76.9,272.4,76.5,272.4z M63,273c-0.4,0-0.7,0.3-0.7,0.7
	c0,0.4,0.3,0.7,0.7,0.7c0.4,0,0.7-0.3,0.7-0.7C63.7,273.3,63.4,273,63,273z M69.4,273c-0.4,0-0.7,0.3-0.7,0.7c0,0.4,0.3,0.7,0.7,0.7
	c0.4,0,0.7-0.3,0.7-0.7C70.1,273.3,69.7,273,69.4,273z M58.3,273.5c-1.4,0-2.8,0.6-3.5,1.9c-0.4,0.9-0.3,2.2-0.1,3.2
	c0.1,0.6,0.4,1.1,0.7,1.6l0.8-0.7c-0.1-0.3-0.3-0.8-0.4-1c-0.1-0.5-0.2-1-0.2-1.6c0.1-1.6,1-2.1,2.2-2.3c1.3-0.2,2.6,0.3,3.7,0.9
	c2,1,2.8,1,2.8,1v-1.1c-0.3-0.1-0.5-0.1-0.7-0.2c-0.8-0.3-1.5-0.7-2.4-1.1c-0.7-0.3-1.6-0.5-2.6-0.5
	C58.5,273.5,58.4,273.5,58.3,273.5z M73.8,273.5c-0.9,0-1.8,0.2-2.6,0.5c-0.9,0.4-1.6,0.8-2.4,1.1c-0.3,0.1-0.5,0.2-0.7,0.2v1.1
	c0,0,0.9,0,2.8-1c1.1-0.5,2.4-1.1,3.6-0.9c1.2,0.2,2.1,0.7,2.2,2.3c0,0.5,0,1.1-0.2,1.6c-0.1,0.3-0.2,0.7-0.4,1l0.8,0.7
	c0.2-0.5,0.5-1.1,0.7-1.6c0.2-0.9,0.4-2.3-0.1-3.2C76.8,274,75.3,273.5,73.8,273.5L73.8,273.5z M65.1,274.2v3.2h1.2h1.1v-3.2h-1.1
	H65.1z M53.6,275.2c-0.4,0-0.7,0.3-0.7,0.7c0,0.4,0.3,0.7,0.7,0.7c0.4,0,0.7-0.3,0.7-0.7C54.3,275.6,54,275.2,53.6,275.2z
	 M78.9,275.2c-0.4,0-0.7,0.3-0.7,0.7c0,0.4,0.3,0.7,0.7,0.7c0.4,0,0.7-0.3,0.7-0.7C79.5,275.6,79.2,275.2,78.9,275.2z M72,277.1
	c-0.3,0.1-0.7,0.3-0.9,0.6c-0.3,0.4-0.3,1-0.3,1.5c0,0.2,0.1,1.2,0,1.3c-0.1,0,0,0.1-0.3-0.3c-0.3-0.4-0.8-0.6-1.1-0.5
	c-0.6,0.1-0.8,0.9-0.7,1.4c0,0.3,0.2,1.1,0.6,0.7c0.2-0.2,0.3-0.3,0.5-0.2c0.4,0.1,0.7,0.8,0.2,1.6c-0.3,0.4-0.7,0.6-1.2,0.6
	c-0.3,0-0.6,0-0.9-0.1c-0.4-0.1-0.9-0.7-1.1-1c-0.2-0.5-0.4-1.1-0.3-1.7c0,0,0.3,0.1,0.3,0.1c0.5,0.2,0.7,0.7,0.7,0.7s0.1,0,0.1-0.1
	c0-0.5,0-0.3,0-0.8l0-0.4c0-0.5,0-0.5,0-0.9c0-0.1-0.1-0.1-0.1-0.1c0,0.2-0.1,0.3-0.3,0.4s-0.5,0.6-0.7,0.3c0-0.1,0-0.4,0-0.5
	c0,0,0-0.2,0-0.4c0-0.2,0.7-1,0.8-1.1c0.1-0.1,0-0.1,0-0.1l-1.3,0v7.8c0,0,5.6,0.4,7.6,1.8l3-6.7c-0.3-0.3-0.6-0.6-0.7-0.7
	c-0.1-0.1-0.2,0-0.2,0s0.2,1.3-0.3,1.9c-0.3,0.3-0.6,0.2-0.6-0.1c0-0.2,0-0.1,0-0.3c0-0.3-0.2,0-0.2,0c-0.2,0.5-0.4,0.9-0.6,1.4
	c0,0,0,0.2,0.1,0.1c0.3-0.1,0.4-0.2,0.6-0.1c0.2,0.1,0.3,0.2,0.2,0.5c-0.3,0.6-1.1,1.3-1.8,1.2c-0.8,0-1.8-0.4-1.9-1.3
	c-0.1-0.9,0.5-1.4,0.8-1.4c0.2,0,0.3,0.2,0.4,0.4c0.3,0.6,0.9-0.3,1-0.6c0.1-0.4,0.2-1.1-0.2-1.4c-0.3-0.2-0.8-0.3-1.2,0
	c-0.1,0.1-0.3,0.3-0.3,0c0-0.1,0.1-0.3,0.1-0.5c0.1-0.2,0.2-0.4,0.3-0.7c0.2-0.4,0.4-0.9,0.4-1.3C72.5,277.7,72.3,277.4,72,277.1
	L72,277.1z M54,278.8c-0.4,0-0.7,0.3-0.7,0.7c0,0.4,0.3,0.7,0.7,0.7c0.4,0,0.7-0.3,0.7-0.7C54.7,279.1,54.4,278.8,54,278.8z
	 M78.4,278.8c-0.4,0-0.7,0.3-0.7,0.7c0,0.4,0.3,0.7,0.7,0.7c0.4,0,0.7-0.3,0.7-0.7C79.1,279.1,78.8,278.8,78.4,278.8z M161.8,280.2
	c-9.1,0-14.5,5.3-14.5,12.5c0,3.4,0.9,6.1,2.7,8c1.8,1.8,4.5,3,8,3.5l4.8,0.7c1.3,0.2,2.1,0.6,2.6,1.1c0.6,0.6,0.8,1.4,0.8,2.3
	c0,2.3-1.8,3.6-5.7,3.6c-3.2,0-6.8-0.7-8.9-2.8l-6.3,6.2c4,4.1,9,5.2,15.1,5.2c8.4,0,15.4-4.4,15.4-12.5c0-3.7-0.8-6.6-3-8.7
	c-1.7-1.7-4.2-2.8-7.8-3.3l-4.8-0.7c-1.4-0.2-2.2-0.7-2.7-1.2c-0.6-0.6-0.8-1.3-0.8-1.8c0-1.7,1.4-3.7,4.8-3.7c1.7,0,5-0.2,7.5,2.3
	l6.1-6.1C171.8,281.6,167.5,280.2,161.8,280.2z M230,280.2c-4.6,0-8.2,1.6-11.1,4.5c-4.2,4.2-4,9.8-4,15.7c0,6-0.2,11.5,4,15.7
	c2.9,2.9,6.4,4.5,11.1,4.5c7.5,0,13.6-4.2,15.1-12.9h-9.9c-0.6,2.2-1.8,4.2-5.1,4.2c-1.8,0-3.1-0.7-3.9-1.7
	c-0.9-1.2-1.5-2.6-1.5-9.8c0-7.2,0.6-8.6,1.5-9.8c0.7-0.9,2.1-1.7,3.9-1.7c3.2,0,4.5,2,5.1,4.2h9.9
	C243.7,284.4,237.6,280.2,230,280.2z M423.2,280.2c-8.3,0-13.3,4.7-13.3,11.6c0,3.2,0.9,5.7,2.9,7.6c1.7,1.6,4.3,2.7,7.5,3.2
	l4.7,0.7c2.3,0.3,3.4,0.7,4.4,1.7c1.1,0.9,1.6,2.4,1.6,4.1c0,3.8-3,6.1-8.2,6.1c-4.1,0-7.3-0.9-10.2-3.8l-4,4
	c3.8,3.8,8.1,5.2,14.1,5.2c8.3,0,14.3-4.3,14.3-11.6c0-3.4-1.1-6.2-3.3-8.1c-1.7-1.5-3.7-2.4-7.4-2.9l-4.5-0.7
	c-1.8-0.3-3.5-0.9-4.5-1.8c-1.1-0.9-1.5-2.2-1.5-3.7c0-3.5,2.6-6.2,7.3-6.2c3.4,0,6.2,0.7,8.7,3.1l3.9-3.8
	C432.1,281.6,428.4,280.2,423.2,280.2z M574.9,280.2c-4.1,0-7.7,1.5-10.5,4.2c-3.9,3.9-3.9,8.3-3.9,15.9c0,7.6,0,12,3.9,15.9
	c2.7,2.7,6.3,4.2,10.5,4.2c7.2,0,12.8-4.3,14.2-12.2H583c-0.9,4-3.7,6.8-8.1,6.8c-2.3,0-4.5-0.9-5.9-2.4c-2-2.1-2.4-4.4-2.4-12.4
	c0-8,0.5-10.3,2.4-12.4c1.4-1.5,3.5-2.4,5.9-2.4c4.4,0,7.1,2.8,8,6.8h6.1C587.7,284.5,582.3,280.2,574.9,280.2z M182.3,280.6v39.7
	h27v-8.7h-17.3v-7h14.8v-8.7h-14.8v-6.6h17.3v-8.7H182.3z M249.6,280.6v25.8c0,8.7,6.8,14.3,15,14.3s15.1-5.6,15.1-14.3v-25.8H270
	v25.5c0,3.7-2.1,5.8-5.4,5.8c-3.2,0-5.3-2.1-5.3-5.8v-25.5H249.6z M287.1,280.6v39.7h9.8v-14.8h3.3l7,14.8h11.3l-8.6-16.6
	c3.1-1.6,6.5-4.9,6.5-10.4c0-6.5-4.7-12.8-13.6-12.8H287.1z M323.5,280.6v39.7h9.8v-39.7H323.5z M338.4,280.6v8.7h9.8v31h9.8v-31
	h9.8v-8.7H338.4L338.4,280.6z M370.3,280.6l12,23.5v16.2h9.8v-16.2l12-23.5h-10.7l-6.2,14.3l-6.3-14.3H370.3z M443.9,280.6v39.7
	h25.4v-5.4h-19.4v-11.9h16.5v-5.4h-16.5V286h19.4v-5.4H443.9z M477.6,280.6v39.7h6v-16.7h7.5l8.4,16.7h7l-9.2-17.6
	c4.5-1.2,7.9-4.9,7.9-10.5c0-6.7-4.8-11.6-12.3-11.6L477.6,280.6L477.6,280.6z M509.2,280.6l13.1,39.7h4.7l13.2-39.7h-6.4l-9.2,28.9
	l-9.2-28.9H509.2L509.2,280.6z M546.2,280.6v39.7h6v-39.7H546.2z M596.6,280.6v39.7H622v-5.4h-19.4v-11.9h16.5v-5.4h-16.5V286H622
	v-5.4H596.6z M483.6,286h8.9c4,0,6.8,2.3,6.8,6.3c0,3.9-2.7,6.2-6.8,6.2h-8.9V286z M56.4,287.7c-0.9,0-1.6,0.7-1.6,1.6
	c0,0.2,0.1,0.8,0.3,1c0.1,0.1,0.3,0.2,0.4,0.2v-1.2c0-0.5,0.4-0.9,0.9-0.9s0.9,0.4,0.9,0.9v1.2c0.1,0,0.3-0.1,0.4-0.2
	c0.2-0.3,0.3-0.6,0.3-1C58,288.5,57.2,287.7,56.4,287.7z M75.9,287.7c-0.9,0-1.6,0.7-1.6,1.6c0,0.4,0,0.7,0.3,1
	c0.1,0.1,0.3,0.1,0.4,0.2v-1.2c0-0.5,0.4-0.9,0.9-0.9s0.9,0.4,0.9,0.9v1.2c0.2,0,0.3-0.1,0.4-0.2c0.1-0.2,0.3-0.7,0.3-1
	C77.5,288.5,76.8,287.7,75.9,287.7z M58.6,288.3v16.7l2.1-3.1l-0.5-0.6v-2.7H63v2.7l-0.7,0.6l1.4,3.1l0,0l0,0h0h0l0,0l0,0l1.4-3.1
	l-0.7-0.6v-2.7h1.8h1.7v2.7l-0.7,0.6l1.4,3.1l0,0l0,0h0h0l0,0l0,0l1.4-3.1l-0.7-0.6v-2.7h2.9v2.7l-0.5,0.6l2.1,3.1v-16.7h-7.5H58.6
	L58.6,288.3z M296.9,289.3h5.5c2.7,0,4.2,2,4.2,4c0,2.1-1.6,4-4.2,4h-5.5V289.3z M60.1,289.7h2.8v2.9h-2.8V289.7z M64.4,289.7h1.7
	h0.1h1.7v2.9h-1.7h-1.8V289.7z M69.4,289.7h2.8v2.9h-2.8V289.7z M56.4,290.2c-0.2,0-0.4,0.2-0.4,0.4v1.6c0,0.2,0.2,0.4,0.4,0.4
	s0.4-0.2,0.4-0.4v-1.6C56.8,290.4,56.6,290.2,56.4,290.2z M75.9,290.2c-0.2,0-0.4,0.2-0.4,0.4v1.6c0,0.2,0.2,0.4,0.4,0.4
	s0.4-0.2,0.4-0.4v-1.6C76.3,290.4,76.1,290.2,75.9,290.2z M56.4,293.5c-0.2,0-0.4,0.2-0.4,0.4v1.6c0,0.2,0.2,0.4,0.4,0.4
	s0.4-0.2,0.4-0.4v-1.6C56.8,293.7,56.6,293.5,56.4,293.5z M75.9,293.5c-0.2,0-0.4,0.2-0.4,0.4v1.6c0,0.2,0.2,0.4,0.4,0.4
	s0.4-0.2,0.4-0.4v-1.6C76.3,293.7,76.1,293.5,75.9,293.5z M60.1,294.2h2.8v3h-2.8V294.2z M64.4,294.2h1.8h1.7v3h-1.7h-1.8V294.2z
	 M69.4,294.2h2.8v3h-2.8V294.2z M45.3,296.3c-1.1,0-2.1,0.3-3,0.7c0-0.1-0.1-0.2-0.2-0.3c-0.3-0.5-1.5-0.2-1.5-0.2s-0.6,1-0.2,1.5
	c0.1,0.1,0.1,0.2,0.2,0.2c-1.3,1.2-2.1,2.9-2.1,4.8c0,0.3,0,0.7,0.1,1c-0.1,0-0.2,0-0.4,0c-0.6,0.2-0.7,1.4-0.7,1.4s0.8,0.9,1.4,0.7
	c0.1,0,0.2-0.1,0.3-0.1c0.9,1.9,2.8,3.3,4.9,3.7c0,0.1,0,0.2,0,0.4c0,0.6,1.1,1.1,1.1,1.1s1.1-0.5,1.1-1.1c0-0.1,0-0.2,0-0.3
	c2.2-0.3,4.1-1.7,5-3.6c0.1,0.1,0.2,0.1,0.3,0.2c0.6,0.2,1.3-0.7,1.3-0.7s-0.1-1.2-0.7-1.3c-0.1,0-0.2,0-0.3,0
	c0.1-0.4,0.1-0.8,0.1-1.2c0-1.8-0.7-3.5-1.9-4.7c0.1-0.1,0.2-0.1,0.3-0.2c0.3-0.5-0.2-1.5-0.2-1.5s-1.2-0.2-1.5,0.2
	c-0.1,0.1-0.1,0.2-0.1,0.3C47.5,296.6,46.4,296.3,45.3,296.3z M87.7,296.3c-1.1,0-2.2,0.3-3.1,0.8c0-0.1-0.1-0.2-0.1-0.3
	c-0.3-0.5-1.5-0.2-1.5-0.2s-0.6,1-0.2,1.5c0.1,0.1,0.2,0.2,0.3,0.2c-1.2,1.2-1.9,2.9-1.9,4.7c0,0.4,0,0.8,0.1,1.2
	c-0.1,0-0.2,0-0.3,0c-0.6,0.2-0.7,1.3-0.7,1.3s0.8,0.9,1.3,0.7c0.1,0,0.2-0.1,0.3-0.2c1,1.9,2.8,3.3,5,3.6c0,0.1,0,0.2,0,0.3
	c0,0.6,1.1,1.1,1.1,1.1s1.1-0.5,1.1-1.1c0-0.1,0-0.2,0-0.4c2.2-0.4,4-1.8,4.9-3.7c0.1,0.1,0.2,0.1,0.3,0.1c0.6,0.2,1.4-0.7,1.4-0.7
	s-0.1-1.2-0.7-1.4c-0.1,0-0.2,0-0.4,0c0-0.3,0.1-0.7,0.1-1c0-1.9-0.8-3.6-2.1-4.8c0.1-0.1,0.2-0.1,0.2-0.2c0.4-0.5-0.2-1.5-0.2-1.5
	s-1.1-0.2-1.5,0.2c-0.1,0.1-0.1,0.2-0.1,0.3C89.9,296.6,88.8,296.3,87.7,296.3z M56.4,296.8c-0.2,0-0.4,0.2-0.4,0.4v1.6
	c0,0.2,0.2,0.4,0.4,0.4s0.4-0.2,0.4-0.4v-1.6C56.8,297,56.6,296.8,56.4,296.8z M75.9,296.8c-0.2,0-0.4,0.2-0.4,0.4v1.6
	c0,0.2,0.2,0.4,0.4,0.4s0.4-0.2,0.4-0.4v-1.6C76.3,297,76.1,296.8,75.9,296.8z M45.3,297.1c1.2,0,2.3,0.4,3.3,1
	c0.1,0.1,0.2,0.2,0.3,0.3c0.1,0.1,0.2,0.1,0.3,0.1c1.3,1.1,2.1,2.7,2.1,4.6c0,0.5-0.1,1.1-0.2,1.6c-0.1,0.1-0.1,0.2-0.2,0.4
	c0,0.1,0,0.2,0,0.4c-0.8,2.1-2.8,3.6-5.2,3.7c-0.1,0-0.3-0.1-0.4-0.1c-0.1,0-0.3,0-0.4,0.1c-2.3-0.2-4.3-1.7-5.1-3.8
	c0-0.1,0-0.3,0-0.4c0-0.1-0.1-0.2-0.2-0.3c-0.1-0.5-0.2-0.9-0.2-1.4c0-1.9,0.9-3.5,2.2-4.7c0.1,0,0.2-0.1,0.4-0.2
	c0.1-0.1,0.2-0.2,0.2-0.3C43,297.4,44.1,297.1,45.3,297.1z M87.7,297.1c1.2,0,2.2,0.3,3.2,0.9c0.1,0.1,0.1,0.2,0.2,0.3
	c0.1,0.1,0.2,0.1,0.4,0.2c1.4,1.1,2.2,2.8,2.2,4.7c0,0.5,0,1-0.2,1.4c-0.1,0.1-0.1,0.2-0.2,0.3c0,0.1,0,0.3,0,0.4
	c-0.8,2.1-2.8,3.6-5.1,3.8c-0.1,0-0.2-0.1-0.4-0.1c-0.1,0-0.3,0-0.4,0.1c-2.4-0.1-4.4-1.6-5.2-3.7c0-0.1,0-0.2,0-0.4
	c0-0.1-0.1-0.3-0.2-0.4c-0.1-0.5-0.2-1-0.2-1.5c0-1.8,0.8-3.5,2.1-4.6c0.1,0,0.2-0.1,0.3-0.1c0.1-0.1,0.2-0.2,0.3-0.3
	C85.4,297.4,86.5,297.1,87.7,297.1z M43.5,298.3c-0.1,0-0.2,0-0.3,0.1c-0.5,0.4,0.1,0.8,0.4,1.1c0.4,0.3,0.7,0.8,0.2,1.4
	c-0.7,0.3-1-0.1-1.2-0.6c-0.2-0.4-0.5-1-0.9-0.7c-0.6,0.4,0,1.5-0.3,2.2c-0.2,0.7-1.3,1.2-1,1.9c0.2,0.6,0.8,0.2,1.2,0
	c0.4-0.2,1-0.4,1.3,0.2c0.1,0.7-0.4,0.9-0.9,1c-0.4,0-1.1,0.1-1,0.7c0.2,0.7,1.4,0.5,2,1c0.6,0.4,0.8,1.6,1.5,1.6
	c0.6,0,0.4-0.7,0.4-1.1c-0.1-0.5-0.1-1.1,0.7-1.2c0.7,0.1,0.7,0.7,0.7,1.2c-0.1,0.4-0.2,1.1,0.4,1.1c0.7,0,0.9-1.2,1.5-1.6
	c0.6-0.5,1.8-0.2,2-1c0.2-0.6-0.6-0.6-1-0.7c-0.5,0-1-0.3-0.9-1c0.3-0.6,0.9-0.5,1.3-0.2c0.4,0.2,1,0.6,1.2,0c0.2-0.7-0.8-1.2-1-1.9
	c-0.2-0.7,0.3-1.8-0.3-2.2c-0.5-0.3-0.8,0.3-0.9,0.7c-0.2,0.5-0.6,0.9-1.2,0.6c-0.5-0.5-0.2-1,0.2-1.4c0.3-0.3,0.8-0.7,0.4-1.1
	c-0.6-0.5-1.4,0.4-2.1,0.4C44.7,298.8,44,298.2,43.5,298.3z M85.9,298.3c-0.1,0-0.2,0-0.4,0.1c-0.5,0.4,0.1,0.8,0.4,1.1
	c0.4,0.3,0.7,0.8,0.2,1.4c-0.7,0.3-1-0.1-1.2-0.6c-0.2-0.4-0.5-1-1-0.7c-0.6,0.4,0,1.5-0.3,2.2c-0.2,0.7-1.3,1.2-1,1.9
	c0.2,0.6,0.8,0.2,1.2,0c0.4-0.2,1-0.4,1.3,0.2c0.1,0.7-0.4,0.9-0.9,1c-0.4,0-1.1,0.1-1,0.7c0.2,0.7,1.4,0.5,2,1
	c0.6,0.4,0.8,1.6,1.5,1.6c0.6,0,0.4-0.7,0.4-1.1c-0.1-0.5-0.1-1.1,0.7-1.2c0.7,0.1,0.7,0.7,0.7,1.2c-0.1,0.4-0.2,1.1,0.4,1.1
	c0.7,0,0.9-1.2,1.5-1.6c0.6-0.5,1.8-0.2,2-1c0.2-0.6-0.5-0.6-1-0.7c-0.5,0-1-0.3-0.9-1c0.3-0.6,0.9-0.5,1.3-0.2c0.4,0.2,1,0.6,1.2,0
	c0.2-0.7-0.8-1.2-1-1.9c-0.2-0.7,0.3-1.8-0.3-2.2c-0.5-0.3-0.8,0.3-1,0.7c-0.2,0.5-0.6,0.9-1.2,0.6c-0.5-0.5-0.2-1,0.2-1.4
	c0.3-0.3,0.8-0.7,0.4-1.1c-0.6-0.5-1.4,0.4-2.2,0.4C87.1,298.8,86.5,298.2,85.9,298.3z M56.4,300.1c-0.2,0-0.4,0.2-0.4,0.4v1.6
	c0,0.2,0.2,0.4,0.4,0.4s0.4-0.2,0.4-0.4v-1.6C56.8,300.3,56.6,300.1,56.4,300.1z M75.9,300.1c-0.2,0-0.4,0.2-0.4,0.4v1.6
	c0,0.2,0.2,0.4,0.4,0.4s0.4-0.2,0.4-0.4v-1.6C76.3,300.3,76.1,300.1,75.9,300.1z M45.3,301.2c1,0,1.8,0.8,1.8,1.8
	c0,1-0.8,1.8-1.8,1.8c-1,0-1.8-0.8-1.8-1.8S44.3,301.2,45.3,301.2z M55.5,302.4c-0.2,0-0.3,0.1-0.4,0.2c-0.1,0.2-0.3,0.7-0.3,1
	c0,0.9,0.7,1.6,1.6,1.6s1.6-0.7,1.6-1.6c0-0.4-0.1-0.7-0.3-1c-0.1-0.1-0.3-0.1-0.4-0.2v1.2c0,0.5-0.4,0.9-0.9,0.9
	c-0.5,0-0.9-0.4-0.9-0.9L55.5,302.4L55.5,302.4z M75,302.4c-0.1,0-0.3,0.1-0.4,0.2c-0.2,0.3-0.3,0.6-0.3,1c0,0.9,0.7,1.6,1.6,1.6
	c0.9,0,1.6-0.7,1.6-1.6c0-0.2-0.1-0.8-0.3-1c-0.1-0.1-0.3-0.2-0.4-0.2v1.2c0,0.5-0.4,0.9-0.9,0.9c-0.5,0-0.9-0.4-0.9-0.9L75,302.4
	L75,302.4z M35.6,309.1c-0.2,0-0.8,0.1-1,0.2s-0.4,0.2-0.6,0.2c-0.1,0-0.3,0.1-0.4,0.2c-0.3,0.2-0.7,0.4-0.8,0.8
	c-0.3,0.7,0.3,1.5,0.7,2c0.7,1,0.3,1.5,0,1.7c-0.2,0.1-1.1,0.3-1.5-1c-0.2-0.7-0.5-1.6-1.2-1.8c-0.4-0.1-0.8,0-1.1,0.1
	c-0.1,0.1-0.2,0.1-0.4,0.2c-0.2,0.1-0.3,0.3-0.5,0.3c-0.2,0-0.6,0.5-0.7,0.7l0,0l0,0c-0.1,0.2-0.2,0.8-0.1,1c0.1,0.2,0,0.4,0,0.6
	c0,0.1,0,0.3,0,0.4c0.1,0.4,0.2,0.7,0.5,1c0.6,0.5,1.5,0.2,2.1,0c1.2-0.4,1.5,0.1,1.7,0.5c0,0.3,0,1.1-1.4,1.1c-0.7,0-1.6,0-2.1,0.6
	c-0.2,0.3-0.3,0.7-0.2,1.1c0,0.1,0,0.3,0.1,0.4c0,0.2,0.1,0.4,0.1,0.6s0.3,0.7,0.4,0.9c0.2,0.1,0.7,0.4,0.9,0.4
	c0.2,0,0.4,0.1,0.6,0.1c0.1,0,0.3,0.1,0.4,0.1c0.4,0,0.8,0,1.1-0.2c0.7-0.4,0.7-1.4,0.6-2.1c0-1.2,0.6-1.4,0.9-1.4
	c0.2,0,1.1,0.3,0.6,1.7c-0.2,0.6-0.6,1.5-0.1,2.1c0.2,0.3,0.6,0.5,1,0.6c0.1,0,0.3,0,0.4,0c0.2,0,0.4,0,0.6,0c0.2,0.1,0.8,0,1-0.1
	c0.2-0.1,0.6-0.6,0.7-0.7c0.1-0.2,0.2-0.4,0.3-0.5c0.1-0.1,0.1-0.2,0.2-0.4c0.2-0.3,0.3-0.7,0.2-1.1c-0.2-0.7-1.1-1-1.8-1.2
	c-1.2-0.3-1.1-1-1.1-1.4c0.1-0.2,0.7-0.9,1.8,0c0.5,0.4,1.3,1,2,0.7c0.4-0.1,0.7-0.4,0.8-0.8c0.1-0.1,0.1-0.2,0.2-0.4
	c0.1-0.2,0.1-0.4,0.2-0.6s0.2-0.7,0.2-1l0,0v0l0,0c-0.1-0.2-0.3-0.7-0.5-0.9c-0.2-0.1-0.3-0.3-0.4-0.5c-0.1-0.1-0.2-0.2-0.3-0.3
	c-0.3-0.3-0.6-0.5-1-0.5c-0.8,0-1.3,0.7-1.7,1.3c-0.7,1-1.3,0.8-1.6,0.6c-0.2-0.2-0.7-0.9,0.5-1.7c0.6-0.4,1.4-0.9,1.3-1.7
	c0-0.4-0.2-0.7-0.5-1c-0.1-0.1-0.2-0.2-0.3-0.3c-0.2-0.1-0.4-0.2-0.5-0.4C36.4,309.4,35.9,309.1,35.6,309.1L35.6,309.1L35.6,309.1
	L35.6,309.1z M97.3,309.1L97.3,309.1c-0.2,0.1-0.7,0.3-0.9,0.5s-0.3,0.3-0.5,0.4c-0.1,0.1-0.2,0.2-0.3,0.3c-0.3,0.3-0.5,0.6-0.5,1
	c0,0.8,0.8,1.3,1.3,1.7c1.2,0.8,0.7,1.5,0.5,1.7c-0.3,0.2-0.9,0.4-1.6-0.6c-0.4-0.6-0.9-1.3-1.7-1.3c-0.4,0-0.7,0.2-1,0.5
	c-0.1,0.1-0.2,0.2-0.3,0.3c-0.1,0.2-0.2,0.4-0.4,0.5c-0.2,0.1-0.4,0.6-0.5,0.9l0,0v0l0,0c0,0.2,0.1,0.8,0.2,1s0.2,0.4,0.2,0.6
	c0,0.1,0.1,0.2,0.2,0.4c0.2,0.3,0.5,0.7,0.8,0.8c0.7,0.3,1.5-0.3,2-0.7c1.1-0.9,1.7-0.2,1.8,0c0.1,0.3,0.1,1-1.1,1.4
	c-0.7,0.2-1.6,0.5-1.8,1.2c-0.1,0.4,0,0.8,0.1,1.1c0.1,0.1,0.1,0.2,0.2,0.4c0.1,0.2,0.3,0.3,0.3,0.5c0.1,0.2,0.5,0.6,0.7,0.7
	c0.2,0.1,0.8,0.2,1,0.1c0.2-0.1,0.4,0,0.6,0c0.1,0,0.3,0,0.4,0c0.4-0.1,0.7-0.2,1-0.6c0.5-0.6,0.2-1.5-0.1-2.1
	c-0.5-1.4,0.4-1.6,0.6-1.7c0.4,0,1,0.2,0.9,1.4c0,0.7,0,1.6,0.6,2.1c0.3,0.2,0.7,0.3,1.1,0.2c0.1,0,0.3,0,0.4-0.1
	c0.2,0,0.4-0.1,0.6-0.1c0.2,0,0.7-0.3,0.9-0.4l0,0c0.1-0.2,0.4-0.7,0.4-0.9c0-0.2,0.1-0.4,0.1-0.6c0-0.1,0-0.3,0.1-0.4
	c0-0.4,0-0.8-0.2-1.1c-0.4-0.6-1.4-0.6-2.1-0.6c-1.4,0.1-1.4-0.8-1.4-1.1c0.1-0.3,0.5-0.9,1.6-0.5c0.6,0.2,1.5,0.5,2.2,0
	c0.3-0.2,0.5-0.6,0.5-1c0-0.1,0-0.3,0-0.4c0-0.2,0-0.4,0-0.6c0.1-0.2,0-0.8-0.1-1c-0.1-0.2-0.6-0.6-0.7-0.7
	c-0.2-0.1-0.4-0.2-0.5-0.3c-0.1-0.1-0.2-0.1-0.4-0.2c-0.4-0.2-0.7-0.3-1.1-0.1c-0.7,0.2-1,1.1-1.2,1.8c-0.4,1.4-1.2,1.1-1.5,1
	c-0.3-0.2-0.7-0.7,0-1.7c0.4-0.5,1-1.3,0.7-2c-0.1-0.4-0.5-0.7-0.8-0.8c-0.1-0.1-0.2-0.1-0.4-0.2c-0.2-0.1-0.4-0.1-0.6-0.2
	C98.2,309.1,97.6,309,97.3,309.1L97.3,309.1z M82.5,312.2l-1,0.6c0,0-1.5,0.8-3,1.6c-0.7,0.4-1.5,0.8-2.1,1.1
	c-0.3,0.1-0.5,0.2-0.7,0.3c-0.1-0.1-0.2-0.1-0.2-0.1c-0.1,0-0.2,0-0.2,0c-0.1,0-0.1,0-0.2,0c-0.1,0-0.1,0-0.2,0.1
	c-0.1,0.1-0.3,0.1-0.5,0.3c-0.4,0.2-0.9,0.5-1.5,0.9s-1.1,0.7-1.6,1.1c-0.1,0.1-0.2,0.2-0.3,0.2c0-0.1,0-0.2-0.1-0.3
	c-0.1-0.1-0.2-0.2-0.3-0.3c0.2-0.1,0.6-0.3,0.6-0.3l1.4-0.8l-1.6-0.4l-4.6-1.2h0h0c0,0-0.5-0.1-1-0.1c-0.3,0-0.6,0-0.8,0
	c-0.1,0-0.3,0-0.4,0c-0.1,0-0.3,0-0.5,0.2c0,0-0.1,0-0.1,0h-0.1l-0.1,0c0,0-0.1,0-0.2,0.1c-0.1,0-0.2,0.1-0.3,0.2v0h0c0,0,0,0,0,0
	c0,0,0,0-0.1,0c-0.1,0-0.3,0.1-0.5,0.2c-0.2,0.1-0.4,0.1-0.5,0.2c-0.2,0.1-0.3,0.1-0.5,0.3c-0.2,0.2-0.3,0.5-0.4,0.8
	c0,0.3,0,0.6,0.2,0.9l0,0c0,0,0.1,0.1,0.1,0.1v0c0,0.1,0,0.1,0,0.2c0,0.1,0,0.2,0.1,0.3c0.1,0.2,0.1,0.4,0.2,0.6
	c-0.1,0-0.2,0-0.3-0.1c-0.6-0.1-1.1-0.3-1.1-0.3c0,0-0.1-0.1-0.4-0.1c-0.2,0-0.5,0.3-0.6,0.5c-0.1,0.2,0,0.3,0,0.4
	c0,0.1,0.1,0.2,0.2,0.3c0.2,0.4,0.6,0.7,1,0.9l-3.2-0.1c0.3-0.2,0.6-0.5,0.6-0.9c0-0.1,0-0.2,0-0.3c0.1-0.8-0.3-1.4-0.7-1.8
	c-0.2-0.2-0.4-0.4-0.6-0.6c-0.1-0.1-0.1-0.1-0.3-0.2c-0.1,0-0.3-0.1-0.6,0c-0.2,0.1-0.3,0.3-0.3,0.5c0,0.1,0,0.2,0,0.3l0,0
	c0,0,0,0.2,0,0.4c0,0.1,0,0.1,0,0.2c-0.1,0-0.3,0-0.5,0.2c-0.1-0.2-0.1-0.2-0.2-0.5c-0.1-0.2-0.1-0.3,0-0.5c0-0.1,0-0.2,0-0.4
	c0-0.2-0.1-0.4-0.3-0.5c-0.3-0.4-0.6-0.3-0.8-0.4c-0.2,0-0.5,0-0.7,0c-0.5,0-0.9,0-0.9,0l-1.2,0l0.7,1c0,0,0.1,0.1,0.2,0.2
	c0.1,0.1,0.2,0.1,0.3,0.2c0,0,0,0,0,0.1c0,0-0.1,0.1-0.1,0.2l0,0l0,0c-0.1,0.3-0.2,0.7-0.2,1c0,0-0.1,0-0.2,0
	c-0.2,0-0.3,0.1-0.5,0.1c-0.1,0.1-0.2,0.1-0.3,0.2c-0.2,0.2-0.4,0.3-0.6,0.5c-0.2,0.2-0.4,0.4-0.5,0.6c0,0,0,0,0,0l-0.9,0
	c0,0-0.2,8.8,1.2,15.7c-0.1,0.2-0.2,0.4-0.4,0.6c-0.3,0.5-0.6,1.3-0.5,2.1l0.2,1.3l1-0.9c0,0,0.2-0.1,0.4-0.3
	c0.1,0.3,0.2,0.5,0.2,0.7l0.6,1.8c1.2,3.8,4,7.3,6.9,10.1c0.1,0.3,0.2,0.6,0.4,0.8c1,1.9,2.8,3.5,5.6,4.2c1.2,0.8,2,1.4,2.2,1.5v0
	c0,0,0,0,0,0c0,0,0,0,0,0v0c0.3-0.2,1.2-0.7,2.4-1.7c0.4-0.1,0.9-0.3,1.4-0.5c1.6-0.7,3.5-2.1,4.4-4.3c0.1-0.1,0.2-0.2,0.3-0.3l0,0
	c0,0,0.3-0.2,0.6-0.5v0c0.2-0.2,0.2-0.3,0.3-0.5c0.5-0.5,1-1.1,1.4-1.6c0.6,0.4,1.2,0.5,1.2,0.5l1.3,0.2l-0.5-1.2c0,0,0-0.1,0-0.2
	c0-0.2,0-0.4,0-0.7c0-0.4,0-0.8,0.1-1.3c1-1.5,1.7-3,2.2-4.6l0.6-1.8c2.3-6.9,2.1-19.2,2.1-19.2h-0.1l0,0l-0.4,0.1l-1.8,0.1
	c0.5-0.3,0.9-0.6,1.3-0.9c0.7-0.7,1.3-1.6,1.3-2.8l0-1.1l-1,0.4c0,0-1.2,0.5-2.2,0.9c0.9-0.9,1.6-2.1,1.7-3.6L82.5,312.2L82.5,312.2
	z M81.8,313.4c-0.1,4.1-5.5,5.3-5.5,5.3s-0.5,0.2,0.1,0.5c0.6,0.3,6.9-2.5,6.9-2.5c-0.2,3.7-6.5,4.6-6.7,4.7c-0.2,0-0.4,0.4,0.3,0.6
	c1.6,0.4,5.7-1.1,5.7-1.1c-0.2,0.6-0.7,1.2-1.2,1.7c-0.8,0.8-1.8,1.2-2.8,1.4c-0.1,0-2.1,0.4-2.1,0.3c-0.2,0.6,0.1,0.6,0.5,0.7
	c0.7,0.1,1.3,0.2,2,0.4c0.7,0.1,1.5,0.2,2.2,0v0c-0.4,0.9-1.4,1.7-2.4,1.9c-0.7,0.1-1.4,0-2-0.1c-0.3,0-0.7-0.2-1-0.2
	c-0.7,0,0.5,1.3,0.7,1.4c0.6,0.6,1.1,0.9,1.6,1.5c0.2,0.3,0.6,0.5,0.2,0.7c-0.2,0.1-0.6,0.1-0.9,0.1c-0.4,0-0.7,0-1.2,0
	c-0.5-0.1-1-0.4-1.4-0.7c-0.1-0.1-0.7-0.6-0.9-0.3c-0.3,0.6,0.9,1.6,1.3,2.3c0.2,0.3,0.4,0.6,0.6,0.9c0.2,0.4,0.1,0.5-0.1,0.6
	c-0.6,0.5-1.5-0.1-2.1-0.3l-0.1-0.1c-0.2-0.1-1.7-1.3-1.7-1.4c-0.2,0.1-0.3,0.2-0.2,0.4c0.2,0.3,0.3,1,0.5,1.4
	c0.3,0.6,0.1,1.7,0.1,1.7s-0.3,0.2-0.5,0.3c-0.9,0.1-2.6-2.2-2.7-2.3c-0.2,0-1.3,0.2-1.3,0.2c4,2.1,6.8,11.5,6.8,11.5
	c0.2-2.5-2.6-8.5-2.6-8.5c0.6-0.2,2,0,2,0c-1.4,3.4,2,4.2,2,4.2c-2.4,2.2,0.3,4.7,0.3,4.7c-2.2,2.3-0.9,4.5-1.1,4.7
	c-0.2,0.2-0.6,0.4-0.6,0.4l-0.3-0.4c-1.2,5.5-7.8,5.9-7.8,5.9c-7.8-0.2-9.2-7.1-8.2-11c1.1-3.9,6.3-5.2,6.3-5.2
	c1.4,0.3,2.5,2.9,2.5,2.9c-2.8,0.1-6.8,4.7-3.5,7.4c3.3,2.8,5.5-1.4,5.5-1.4c1.8-6-4.6-10.8-4.6-11.1c0-0.2,0.2-0.2,0.2-0.5
	c0-0.2-0.3-0.5-0.3-0.5c-0.1-2.5,1.9-1.3,1.9-1.3c-1.1-1.2-1.3-3-1.3-3s-0.3,0.1-0.3,0.9c0,0.8,0.4,0.5,0,0.9
	c-0.4,0.5-1.1,1-1.2,1.6c-0.1,0.7,0.3,1.1,0.3,1.1s-0.8,0.5-1.4,0.7c-0.7,0.1-0.8-1.3-0.8-1.3s0-0.1-0.2-0.1c0,0-0.1,0.1-0.2,0.2
	c0,0.4-0.1,1.4-0.3,1.7c-0.3,0.3-1.9,0.5-1.9,0.3c0.1-0.3,0.1-1,0-1.3c-0.1-0.3-0.3-0.2-0.4,0.1c0,0.4,0.1,0.9-0.6,1.4
	c-0.7,0.5-1.9,0.1-1.9,0.1s0.2-1,0-1.2c-0.6-0.5-0.8,1-0.9,1.2c-0.2,0.5-0.6,1-1.1,1.1c0,0-0.7,0.1-0.7,0.1c0,0,0,0.1-0.2,0.8
	c-0.1,0.7-0.3,0.3-0.3,0.3c-0.7-0.9-0.7-2.2-0.7-2.2c1.3-1.1,1-1.8,1-1.8c-1.6,1.9-2.4,0.5-2.7,0.6c-0.3,0.1-1.1,0.9-1.1,0.9
	c-0.1-1.1,0.9-2.5,0.9-2.5c0.8,0.4,2.6-0.1,2-0.4c-0.6-0.3-0.9-1.2-0.9-1.2c-0.1,0-1-0.1-1,0c0.5-0.7,1.1-1.2,2-1.3
	c0.1,0,1.1,0,1.1,0.1c0.1,0.8,0.6,1.1,0.9,1c0.3-0.1,1.9-1.3,4.5-2.9c3.1-1.9,2.8-2.7,2.8-2.7l-2.4,1.4l-0.2-0.4
	c-0.3-2.2,2-3.6,1.4-3.5c-0.6,0.1-1.5,0.1-1.5,0.1c0.6-2.4,3.1-2.5,3.9-2.4c4.5-0.3,2.8-3.7,2.8-3.7c0.1,1.2-0.3,2.2-1.4,2.8
	s-2.6-0.1-2.6-0.1c0.1-0.1,0.1-0.3,0.2-0.7c0.1-0.4,0.5-1,0.5-1l0.5,0.4c0.5,0.4,1.4-0.1,1.4-0.1c0.6-0.9-0.2-2-0.6-2.2
	c-0.4-0.3-0.5-0.3-0.7-0.1c-0.1,0.1-0.6,0.7-0.6,0.7s-0.7-1.5-0.7-1.7c0.1-0.1,0.3-0.1,0.5-0.3c0.1-0.2-0.2-0.2-0.2-0.2
	s-0.4,0.2-0.6,0c-0.1-0.2-0.1-0.6,0.1-0.7c0.2-0.2,1.5-0.6,1.6-0.7c0.1-0.1,0.4-0.2,0.4-0.2s0.4,0,0.6-0.2c0.2-0.2,2.2,0,2.2,0
	l4.6,1.2c0,0-2.3,1.4-2.1,1.4c0.2,0,0.7-0.1,1.4,0c0.6,0.1,0.5,1,0.5,1c0,2.2-2,1.5-2,1.5s0.1,0.5,0.5,0.7c0.3,0.3,0.4,0.5,0.4,0.5
	c-0.3,0.9,1.2,2.9,1.1,3.4c-0.1,0.5-1.8-0.3-1.8-0.1c0,0.2,0.1,2.8,0.1,2.8c-1.9,0.9-2.6-1.7-2.6-1.8c0,0.1-1.2,2.3-1.2,2.3l1.2-0.6
	c0.8,1.2,2.6,0.8,2.6,0.8c4.5-1.6,2-8.3,2.3-9.3c0.3-1,4.3-3.3,4.4-3.2c0.1,0.1,0,0.2,0.3,0.2C75.9,316.6,81.8,313.4,81.8,313.4
	L81.8,313.4z M63.2,316.7l0,0.2c0.2,0,0.5,0.4,0.5,0.4s0.1,0.4,0.1,0.6c0,0.1,0.1,0.1,0.5,0c0.4-0.1,1.1-0.3,1.9-0.3
	c0.8,0,0.5-0.3,0.5-0.3C66,316.9,63.2,316.7,63.2,316.7z M51.8,316.8c0.1,0,0.4,0,0.6,0c0.4,0,0.9,0,1,0.2c0.2,0.3,0,0.5,0.2,1.2
	c0.2,0.7,0.4,1.1,0.6,1.4c0.2,0.3,0.4,0.3,0.4,0.1s-0.2-0.3,0.2-0.5c0.4-0.2,0.7-0.1,0.7-0.3s0.2-0.9,0.1-1.2c0-0.3,1.4,1,1.2,2
	c0,0,0.2,0.2-0.3,0.6c-0.5,0.4-0.8,1.1-0.2,1.8c0.6,0.7,2.8,2,2.8,2s-1.3,1.9-1,3.4c0,0-2-1.2-2.6-1.9c0,0-0.2,0.2,0,0.6
	c0.3,0.4,2.8,2.9,2.8,2.9v1c0,0-0.8-0.7-1.5-0.5c-0.7,0.1-1.1,0.8-1.3,0.9c-0.3,0-1.4-1.1-1.3-1.7c0.2-0.6,0.8-1,1-1.1
	c0.1-0.1-1.7,0.6-2.2-0.5c-0.4-1.1-0.5-1.3-0.3-1.3c0.1,0,1.4,0,1.5-0.3c0.1-0.2-2,0-2.2-1.4s0-0.9,0-0.9s0.8,0.2,1-0.1
	c0.1-0.3,0.2-1-0.4-1.1c-0.5-0.1-1.3-0.1-1.6-1c0,0-0.7-0.2-1.1-0.2c-0.4,0,1-1.4,1.3-1.4c0.3,0,1.5,1,2.1,0.9c0.6-0.1,0.3,0,0-0.2
	c-0.3-0.2-1.4-0.7-1.4-1.1c0-0.4,0-0.7,0.1-0.9s0.4-0.1,0.3-0.5c-0.1-0.4-0.2-0.5-0.4-0.7c-0.2-0.1-0.3-0.2-0.3-0.2
	S51.6,316.8,51.8,316.8z M59.6,319.4C59.6,319.4,59.6,319.4,59.6,319.4c0.1,0,2.3,0.7,3.1,0.7c0.7,0,0.8-0.1,0.9,0
	c0.1,0.2,0.5,0.7,0,0.7c-0.5,0-0.7,0-0.7,0l-0.4-0.4c0,0-0.1,0-0.3,0.2c-0.2,0.2-1.9-0.2-2.4-1C59.5,319.5,59.5,319.4,59.6,319.4z
	 M27.1,325c0,0-0.8,0.8-0.6,1.4c0,0.1,0.1,0.2,0.2,0.3c-1.5,0.9-2.7,2.4-3.1,4.2c-0.1,0.3-0.1,0.7-0.2,1c-0.1,0-0.2,0-0.4,0
	c-0.6,0-1,1.2-1,1.2s0.6,1,1.2,1c0.1,0,0.2,0,0.3-0.1c0.5,2.1,1.9,3.9,3.9,4.7c-0.1,0.1-0.1,0.2-0.1,0.3c-0.1,0.6,0.8,1.3,0.8,1.3
	s1.1-0.2,1.3-0.8c0-0.1,0-0.2,0-0.3c2.2,0.2,4.3-0.7,5.7-2.3c0.1,0.1,0.2,0.2,0.3,0.2c0.5,0.3,1.5-0.4,1.5-0.4s0.1-1.2-0.4-1.5
	c-0.1,0-0.2-0.1-0.3-0.1c0.1-0.4,0.3-0.7,0.4-1.1c0.4-1.8,0.1-3.6-0.8-5c0.1,0,0.2-0.1,0.3-0.2c0.4-0.4,0.1-1.5,0.1-1.5
	s-1.1-0.5-1.5-0.1c-0.1,0.1-0.1,0.2-0.2,0.3c-0.8-0.7-1.8-1.3-2.9-1.5c-1.1-0.3-2.1-0.2-3.1,0c0-0.1,0-0.2-0.1-0.4
	C28.2,325,27.1,325,27.1,325z M105.6,325c0,0-1.2,0-1.4,0.6c0,0.1-0.1,0.2-0.1,0.4c-1-0.2-2.1-0.2-3.1,0c-1.1,0.3-2.1,0.8-2.9,1.5
	c0-0.1-0.1-0.2-0.2-0.3c-0.4-0.4-1.5,0.1-1.5,0.1s-0.3,1.1,0.1,1.5c0.1,0.1,0.2,0.1,0.3,0.2c-0.9,1.5-1.2,3.3-0.8,5
	c0.1,0.4,0.2,0.7,0.4,1.1c-0.1,0-0.2,0.1-0.3,0.1c-0.5,0.3-0.4,1.5-0.4,1.5s1,0.7,1.4,0.4c0.1-0.1,0.2-0.1,0.3-0.2
	c1.4,1.6,3.5,2.5,5.7,2.3c0,0.1,0,0.2,0,0.3c0.1,0.6,1.3,0.8,1.3,0.8s0.9-0.7,0.8-1.3c0-0.1-0.1-0.2-0.1-0.3c2-0.9,3.5-2.7,3.9-4.8
	c0.1,0,0.2,0.1,0.3,0.1c0.6,0,1.2-1,1.2-1s-0.4-1.1-1-1.2c-0.1,0-0.2,0-0.4,0c0-0.3-0.1-0.7-0.2-1c-0.5-1.8-1.6-3.3-3.1-4.2
	c0.1-0.1,0.1-0.2,0.2-0.3C106.4,325.8,105.6,325,105.6,325z M30,326.4c0.5,0,1,0,1.5,0.2c1.2,0.3,2.2,0.9,2.9,1.7
	c0,0.1,0.1,0.2,0.2,0.4c0.1,0.1,0.2,0.2,0.3,0.2c1,1.4,1.4,3.2,1,4.9c-0.1,0.5-0.3,1-0.6,1.4c-0.1,0.1-0.2,0.2-0.3,0.3
	c-0.1,0.1-0.1,0.2-0.1,0.3c-1.3,1.8-3.6,2.8-6,2.4c-0.1-0.1-0.2-0.1-0.4-0.2s-0.2,0-0.4,0c-2.2-0.7-3.8-2.7-4.1-4.9
	c0-0.1,0-0.3,0-0.4c0-0.1,0-0.2-0.1-0.4c0-0.5,0-0.9,0.2-1.4c0.4-1.8,1.7-3.2,3.3-4c0.1,0,0.3,0,0.4-0.1c0.1,0,0.2-0.1,0.3-0.2
	C28.8,326.6,29.4,326.4,30,326.4L30,326.4z M102.7,326.4c0.6,0,1.2,0.1,1.8,0.3c0.1,0.1,0.2,0.1,0.3,0.2c0.1,0,0.3,0.1,0.4,0.1
	c1.6,0.7,2.8,2.2,3.3,4c0.1,0.5,0.2,0.9,0.2,1.4c0,0.1-0.1,0.2-0.1,0.4c0,0.1,0,0.3,0,0.4c-0.3,2.2-1.9,4.2-4.1,4.9
	c-0.1,0-0.2,0-0.4,0c-0.1,0-0.3,0.1-0.4,0.2c-2.3,0.4-4.6-0.5-6-2.4c0-0.1-0.1-0.2-0.1-0.3c-0.1-0.1-0.2-0.2-0.3-0.3
	c-0.2-0.4-0.4-0.9-0.6-1.4c-0.4-1.8,0-3.6,1-4.9c0.1,0,0.2-0.1,0.3-0.2c0.1-0.1,0.1-0.2,0.2-0.3c0.8-0.8,1.8-1.4,2.9-1.7
	C101.7,326.5,102.2,326.4,102.7,326.4L102.7,326.4z M29.3,327.4c-0.1,0-0.2,0-0.2,0c-0.6,0.2-0.1,0.8,0.1,1.2c0.3,0.4,0.5,1-0.1,1.4
	c-0.7,0.1-0.9-0.4-1-0.9c-0.1-0.4-0.2-1.1-0.8-0.9c-0.7,0.3-0.4,1.4-0.8,2.1c-0.4,0.7-1.5,0.9-1.5,1.6c0.1,0.6,0.7,0.4,1.2,0.3
	c0.5-0.1,1.1-0.1,1.2,0.6c-0.1,0.7-0.7,0.8-1.1,0.7c-0.4,0-1.1-0.2-1.1,0.4c0,0.7,1.2,0.8,1.7,1.4c0.5,0.6,0.4,1.7,1.1,1.9
	c0.6,0.1,0.6-0.6,0.6-1c0-0.5,0.2-1.1,0.9-1c0.7,0.3,0.6,0.8,0.3,1.3c-0.2,0.4-0.5,1,0.1,1.2c0.7,0.2,1.2-0.9,1.9-1.2
	c0.7-0.3,1.8,0.2,2.1-0.5c0.3-0.5-0.4-0.7-0.8-0.9c-0.5-0.2-0.9-0.5-0.7-1.2c0.5-0.6,1-0.3,1.4,0.1c0.3,0.3,0.8,0.8,1.1,0.3
	c0.4-0.6-0.5-1.4-0.6-2.1c-0.1-0.7,0.7-1.6,0.2-2.2c-0.4-0.4-0.8,0.1-1.1,0.5c-0.3,0.4-0.8,0.7-1.3,0.3c-0.4-0.6,0-1,0.5-1.3
	c0.4-0.2,1-0.5,0.6-1c-0.5-0.6-1.5,0-2.2-0.1C30.4,328.2,29.9,327.4,29.3,327.4z M103.4,327.4c-0.6,0-1.1,0.8-1.8,0.9l0,0
	c-0.7,0.2-1.7-0.5-2.2,0.1c-0.4,0.5,0.3,0.8,0.6,1c0.4,0.2,0.8,0.6,0.5,1.3c-0.6,0.5-1,0.1-1.3-0.3c-0.3-0.3-0.7-0.9-1.1-0.5
	c-0.5,0.6,0.3,1.4,0.2,2.2c0,0.7-1,1.5-0.6,2.1c0.3,0.5,0.8,0,1.1-0.3c0.4-0.3,0.9-0.6,1.4-0.1c0.3,0.7-0.2,1-0.7,1.2
	c-0.4,0.1-1.1,0.4-0.8,0.9c0.4,0.7,1.4,0.1,2.1,0.5c0.7,0.3,1.1,1.4,1.9,1.2c0.6-0.2,0.3-0.8,0.1-1.2c-0.2-0.5-0.3-1,0.3-1.3
	c0.7,0,0.9,0.5,0.9,1c0,0.4,0,1.1,0.6,1c0.7-0.1,0.6-1.4,1.1-1.9c0.5-0.6,1.7-0.7,1.7-1.4c0-0.6-0.7-0.5-1.1-0.4
	c-0.5,0.1-1.1,0-1.2-0.7c0.2-0.7,0.7-0.7,1.2-0.6c0.4,0.1,1.1,0.3,1.2-0.3c0.1-0.7-1.1-1-1.5-1.6c-0.4-0.6-0.1-1.8-0.8-2.1
	c-0.6-0.2-0.7,0.5-0.7,0.9c-0.1,0.5-0.3,1-1,0.9c-0.6-0.4-0.4-0.9-0.1-1.4c0.2-0.3,0.7-0.9,0.1-1.2
	C103.5,327.4,103.5,327.4,103.4,327.4L103.4,327.4z M30,330.6c0,0,0.1,0,0.1,0c0.1,0,0.2,0,0.4,0c1,0.2,1.6,1.2,1.4,2.2
	c-0.2,1-1.2,1.6-2.2,1.3c-1-0.2-1.6-1.2-1.3-2.2C28.5,331.2,29.2,330.6,30,330.6z M102.5,330.6c0.8,0,1.6,0.5,1.8,1.4
	c0.2,1-0.4,2-1.3,2.2c-1,0.2-2-0.4-2.2-1.3c-0.2-1,0.4-2,1.3-2.2C102.3,330.6,102.4,330.6,102.5,330.6z M80.6,330.9
	c0.2,0,0.4,0,0.7,0c0,0-1.2,0.5-1.2,5.2c0,0-0.1,2.2-2.5,3.3c0,0,1.1,1.3,1,2.3c-0.1,1-0.8,5.8-0.5,6.6c0,0-1.8-0.3-2.1-2.3
	c0,0,0.7-0.5,0.7-0.7c-0.1-0.2-1.5-0.7-1.4-2.2c0.1-1.5,0.9-2,0.9-2.3c0.1-0.3-2.2-0.9-2.3-2.9l0.1-0.3c0,0,1.8-0.4,2.6-2.5
	C77.4,333.2,78.5,331,80.6,330.9z M62.3,333.1c0,0-1,0.9-1.7,1.3c-0.7,0.4-1.9,1.1-1.9,1.1s3.9-1.2,4.1-1.3L62.3,333.1z M36,341.1
	c-0.2,0-0.5,0-0.7,0.2c-0.1,0.1-0.5,0.4-0.5,0.6c0,0.1,0,0.2,0,0.3l0.7-0.5c0.3-0.2,0.7-0.1,0.9,0.2c0.2,0.3,0.1,0.7-0.2,0.9
	l-0.7,0.5c0.1,0.1,0.2,0.2,0.3,0.2c0.3,0,0.5-0.1,0.7-0.2c0.6-0.3,0.7-1.1,0.4-1.6C36.7,341.3,36.4,341.1,36,341.1z M96.5,341.1
	c-0.4,0-0.7,0.2-1,0.5c-0.3,0.6-0.2,1.3,0.4,1.6c0.2,0.1,0.4,0.2,0.7,0.2c0.1,0,0.2-0.1,0.3-0.2l-0.7-0.5c-0.3-0.2-0.4-0.6-0.2-0.9
	c0.2-0.3,0.6-0.4,0.9-0.2l0.7,0.5c0-0.1,0.1-0.2,0-0.3c0-0.2-0.4-0.5-0.5-0.6C97,341.1,96.8,341.1,96.5,341.1z M35.1,342.5
	C35,342.5,35,342.5,35.1,342.5l-1.1,0.7c-0.1,0.1-0.2,0.3-0.1,0.4c0.1,0.1,0.3,0.2,0.4,0.1l1-0.6c0.1-0.1,0.2-0.3,0.1-0.4
	C35.3,342.5,35.2,342.5,35.1,342.5z M97.4,342.5c-0.1,0-0.2,0.1-0.2,0.1c-0.1,0.1-0.1,0.3,0.1,0.4l1,0.6c0.1,0.1,0.3,0,0.4-0.1
	c0.1-0.1,0.1-0.3-0.1-0.4l-1-0.6C97.5,342.5,97.4,342.5,97.4,342.5z M37.5,343.2L37.5,343.2l-6.3,4l-0.2,0.1l-4,2.5l2.8,0l0.1-0.6
	l1.7-1l1.1,1.8l-1.7,1.1l-0.6-0.2l-1.4,2.1l0,0l0,0l0,0v0l0,0l0,0l2.5-0.4l0-0.7l1.7-1.1L34,352l0.7,1.1l-1.7,1.1l-0.6-0.2l-1.4,2.1
	l0,0v0v0l0,0l0,0l2.5-0.4l0-0.7l1.7-1.1l1.1,1.8l-1.7,1l-0.6-0.1l-1.1,2.5l4-2.5l0.5-0.3l2.3-1.5l0,0l0.4-0.2l3.1-2l0.2-0.1v0
	l-3-4.7L37.5,343.2L37.5,343.2z M95,343.2l-3,4.8l-3,4.7l0,0l3,1.9l0.7,0.4l2,1.3l0.8,0.5l3.9,2.5l-1.1-2.5l-0.6,0.1l-1.7-1.1
	l1.1-1.8l1.7,1.1l0,0.7l2.5,0.4l0,0l0,0v0l0,0l-1.4-2.1l-0.7,0.2l-1.6-1.1l0.7-1.1l0.7-1.1l1.7,1.1l0.1,0.7l2.5,0.4l0,0v0l0,0v0
	l-1.4-2.1l-0.6,0.2l-1.7-1.1l1.1-1.8l1.7,1.1l0.1,0.6l2.8,0l-4-2.5l-0.8-0.5l-3-1.9l-2.7-1.7H95L95,343.2z M33,343.8
	c0,0-0.1,0-0.1,0l-1,0.7c-0.1,0.1-0.2,0.3-0.1,0.4c0.1,0.1,0.3,0.2,0.4,0.1l1-0.6c0.1-0.1,0.2-0.3,0.1-0.4
	C33.2,343.8,33.1,343.8,33,343.8z M99.4,343.8c-0.1,0-0.2,0.1-0.2,0.1c-0.1,0.1-0.1,0.3,0.1,0.4l1,0.6c0.1,0.1,0.3,0,0.4-0.1
	c0.1-0.1,0.1-0.3-0.1-0.4l-1-0.7C99.6,343.8,99.5,343.8,99.4,343.8z M37.2,344.7l1.1,1.8l-1.8,1.2l-1.1-1.8L37.2,344.7z M95.3,344.7
	l1.8,1.2l-1.1,1.8l-1.8-1.2L95.3,344.7z M30.9,345.1c0,0-0.1,0-0.1,0l-1,0.6c-0.1,0.1-0.2,0.3-0.1,0.4c0.1,0.1,0.3,0.2,0.4,0.1
	l1-0.6c0.1-0.1,0.2-0.3,0.1-0.4C31.2,345.1,31,345.1,30.9,345.1z M101.5,345.1c-0.1,0-0.2,0.1-0.2,0.1c-0.1,0.1-0.1,0.3,0.1,0.4
	l1,0.6c0.1,0.1,0.3,0,0.4-0.1s0.1-0.3-0.1-0.4l-1-0.6C101.6,345.1,101.6,345.1,101.5,345.1z M28.9,346.4c0,0-0.1,0-0.2,0l-1,0.6
	c-0.1,0.1-0.2,0.3-0.1,0.4c0.1,0.1,0.3,0.2,0.4,0.1l1-0.6c0.1-0.1,0.2-0.3,0.1-0.4C29.1,346.5,29,346.4,28.9,346.4z M103.6,346.4
	c-0.1,0-0.2,0.1-0.2,0.2c-0.1,0.1-0.1,0.3,0.1,0.4l1,0.6c0.1,0.1,0.3,0,0.4-0.1s0.1-0.3-0.1-0.4l-1-0.6
	C103.7,346.4,103.6,346.4,103.6,346.4z M34.4,346.5l1.1,1.8l-1.9,1.2l-1.1-1.8L34.4,346.5z M98.1,346.5l1.9,1.2l-1.1,1.8l-1.9-1.2
	L98.1,346.5z M105.5,346.8C105.5,346.8,105.5,346.8,105.5,346.8c-0.2,0-0.3,0.1-0.4,0.2l0.7,0.5c0.3,0.2,0.4,0.6,0.2,0.9
	c-0.2,0.3-0.6,0.4-0.9,0.2l-0.7-0.5c0,0.1-0.1,0.2,0,0.3c0.1,0.3,0.3,0.4,0.5,0.6c0.6,0.3,1.3,0.2,1.6-0.4c0.4-0.6,0.2-1.3-0.4-1.6
	C106.1,346.9,105.7,346.8,105.5,346.8L105.5,346.8z M27,346.8c-0.2,0-0.5,0.1-0.6,0.2c-0.6,0.3-0.7,1.1-0.4,1.6
	c0.3,0.6,1.1,0.7,1.6,0.4c0.2-0.1,0.4-0.3,0.5-0.6c0-0.1,0-0.2,0-0.3l-0.7,0.5c-0.3,0.2-0.7,0.1-0.9-0.2c-0.2-0.3-0.1-0.7,0.2-0.9
	l0.7-0.5C27.3,346.8,27.2,346.8,27,346.8C27,346.8,27,346.8,27,346.8z M38.9,347.5l0.7,1l0.7,1.1l-1.8,1.2l-0.7-1l-0.7-1.1
	L38.9,347.5z M93.6,347.5l1.8,1.2l-0.7,1.1l-0.7,1l-1.8-1.2l0.7-1.1L93.6,347.5z M36.1,349.2l0.7,1.1l0.7,1.1l-1.9,1.2l-0.7-1.1
	l-0.7-1.1L36.1,349.2z M96.4,349.2l1.9,1.2l-0.7,1.1l-0.7,1.1l-1.9-1.2l0.7-1.1L96.4,349.2z M40.9,350.6l1.1,1.8l-1.8,1.2l-1.1-1.8
	L40.9,350.6z M91.6,350.6l1.8,1.2l-1.1,1.8l-1.8-1.2L91.6,350.6z M94.4,352.3l1.9,1.2l-1.1,1.8l-1.9-1.2L94.4,352.3z M38.1,352.3
	l1.1,1.8l-1.9,1.2l-1.1-1.8L38.1,352.3z M43.6,353.3c-0.2,0-0.4,0.1-0.6,0.2c-0.2,0.2-0.4,0.3-0.5,0.6c0,0.1,0,0.2,0,0.3l0.7-0.5
	c0.3-0.2,0.7-0.1,0.9,0.2s0.1,0.7-0.2,0.9l-0.7,0.5c0.1,0.1,0.2,0.2,0.3,0.2c0.2,0,0.6-0.1,0.7-0.2c0.6-0.3,0.7-1.1,0.4-1.6
	C44.5,353.5,44.1,353.3,43.6,353.3z M88.7,353.3c-0.4,0-0.7,0.2-1,0.5c-0.4,0.6-0.2,1.3,0.4,1.6c0.1,0.1,0.6,0.2,0.7,0.2
	c0.1,0,0.2-0.1,0.3-0.2l-0.7-0.5c-0.3-0.2-0.4-0.6-0.2-0.9c0.2-0.3,0.6-0.4,0.9-0.2l0.7,0.5c0-0.1,0.1-0.2,0-0.3
	c-0.1-0.3-0.3-0.4-0.5-0.6C89.2,353.4,89,353.3,88.7,353.3z M42.9,354.7C42.8,354.7,42.8,354.7,42.9,354.7l-1.1,0.7
	c-0.1,0.1-0.2,0.3-0.1,0.4s0.3,0.2,0.4,0.1l1-0.6c0.1-0.1,0.2-0.3,0.1-0.4C43.1,354.7,43,354.7,42.9,354.7z M89.6,354.7
	c-0.1,0-0.2,0.1-0.2,0.2c-0.1,0.1-0.1,0.3,0.1,0.4l1,0.6c0.1,0.1,0.3,0,0.4-0.1s0.1-0.3-0.1-0.4l-1-0.6
	C89.7,354.7,89.7,354.7,89.6,354.7z M40.8,356C40.8,356,40.7,356,40.8,356l-1.1,0.7c-0.1,0.1-0.2,0.3-0.1,0.4
	c0.1,0.1,0.3,0.2,0.4,0.1l1-0.6c0.1-0.1,0.2-0.3,0.1-0.4C41,356,40.9,356,40.8,356z M91.7,356c-0.1,0-0.2,0.1-0.2,0.2
	c-0.1,0.1-0.1,0.3,0.1,0.4l1,0.6c0.1,0.1,0.3,0,0.4-0.1s0.1-0.3-0.1-0.4l-1-0.6C91.8,356,91.7,356,91.7,356L91.7,356z M48.5,356.6
	c0,0-1,0.7-0.9,1.2c0,0.1,0,0.2,0.1,0.3c-1.7,0.5-3.1,1.7-4,3.4c-0.1,0.3-0.3,0.6-0.4,0.9c-0.1,0-0.2-0.1-0.3-0.1
	c-0.6-0.1-1.2,0.9-1.2,0.9s0.3,1.1,0.9,1.2c0.1,0,0.2,0,0.3,0c0,2.1,1,4.2,2.8,5.5c-0.1,0.1-0.2,0.2-0.2,0.3
	c-0.3,0.5,0.5,1.4,0.5,1.4s1.2,0,1.4-0.5c0-0.1,0.1-0.2,0.1-0.3c2.1,0.7,4.4,0.3,6.1-1c0,0.1,0.1,0.2,0.2,0.3c0.4,0.4,1.5,0,1.5,0
	s0.4-1.1,0-1.5c-0.1-0.1-0.2-0.1-0.3-0.2c0.2-0.3,0.4-0.6,0.6-1c0.8-1.6,0.9-3.5,0.4-5.1c0.1,0,0.2,0,0.4-0.1
	c0.5-0.3,0.4-1.4,0.4-1.4s-0.9-0.7-1.4-0.4c-0.1,0-0.2,0.1-0.3,0.2c-0.6-0.9-1.4-1.6-2.5-2.1c-1-0.5-2-0.7-3-0.7c0-0.1,0-0.2,0-0.4
	C49.6,356.9,48.5,356.6,48.5,356.6L48.5,356.6z M84,356.6c0,0-1.1,0.3-1.2,0.9c0,0.1,0,0.2,0,0.4c-1,0-2.1,0.2-3,0.7
	c-1,0.5-1.9,1.2-2.5,2.1c-0.1-0.1-0.2-0.1-0.3-0.2c-0.5-0.3-1.4,0.4-1.4,0.4s-0.1,1.2,0.4,1.4c0.1,0,0.2,0.1,0.4,0.1
	c-0.5,1.6-0.5,3.5,0.4,5.1c0.2,0.4,0.4,0.7,0.6,1c-0.1,0-0.2,0.1-0.3,0.2c-0.4,0.4,0,1.5,0,1.5s1.1,0.4,1.5,0
	c0.1-0.1,0.2-0.2,0.2-0.3c1.7,1.3,4,1.7,6.1,0.9c0,0.1,0,0.2,0.1,0.3c0.3,0.5,1.4,0.5,1.4,0.5s0.7-0.9,0.5-1.4
	c0-0.1-0.1-0.2-0.2-0.3c1.8-1.3,2.8-3.4,2.8-5.5c0.1,0,0.2,0,0.3,0c0.6-0.1,0.9-1.2,0.9-1.2s-0.6-1-1.2-0.9c-0.1,0-0.2,0-0.3,0.1
	c-0.1-0.3-0.2-0.6-0.4-0.9c-0.8-1.7-2.3-2.9-4-3.4c0-0.1,0.1-0.2,0.1-0.3C85,357.3,84,356.6,84,356.6L84,356.6z M38.7,357.3
	C38.7,357.3,38.7,357.3,38.7,357.3l-1.1,0.7c-0.1,0.1-0.2,0.3-0.1,0.4c0.1,0.1,0.3,0.2,0.4,0.1l1-0.6c0.1-0.1,0.2-0.3,0.1-0.4
	C39,357.4,38.8,357.3,38.7,357.3z M93.7,357.3c-0.1,0-0.2,0-0.2,0.1c-0.1,0.1-0.1,0.3,0.1,0.4l1,0.6c0.1,0.1,0.3,0,0.4-0.1
	s0.1-0.3-0.1-0.4l-1-0.6C93.8,357.3,93.8,357.3,93.7,357.3z M49.8,358.6c0.9,0,1.8,0.2,2.6,0.6c1.1,0.5,1.9,1.4,2.5,2.3
	c0,0.1,0,0.3,0.1,0.4c0,0.1,0.1,0.2,0.2,0.3c0.7,1.6,0.7,3.4-0.1,5c-0.2,0.5-0.5,0.9-0.9,1.3c-0.1,0-0.2,0.1-0.3,0.2
	c-0.1,0.1-0.2,0.2-0.2,0.3c-1.7,1.5-4.2,1.9-6.3,1c-0.1-0.1-0.2-0.2-0.3-0.2c-0.1,0-0.2-0.1-0.4-0.1c-2-1.2-3.1-3.5-2.9-5.7
	c0.1-0.1,0.1-0.2,0.1-0.4c0-0.1,0-0.2,0-0.4c0.1-0.5,0.3-0.9,0.5-1.4c0.8-1.7,2.4-2.8,4.1-3.2c0.1,0,0.3,0,0.4,0
	c0.1,0,0.2-0.1,0.3-0.1C49.4,358.6,49.6,358.6,49.8,358.6L49.8,358.6z M82.6,358.6c0.2,0,0.4,0,0.6,0c0.1,0,0.2,0.1,0.3,0.1
	c0.1,0,0.3,0,0.4,0c1.7,0.4,3.2,1.5,4.1,3.2c0.2,0.4,0.4,0.9,0.5,1.3c0,0.1,0,0.2,0,0.4c0,0.1,0.1,0.3,0.1,0.4
	c0.2,2.2-0.9,4.5-2.9,5.7c-0.1,0-0.2,0-0.4,0.1c-0.1,0.1-0.2,0.1-0.3,0.2c-2.2,0.9-4.6,0.5-6.3-1c0-0.1-0.1-0.2-0.2-0.3
	c-0.1-0.1-0.2-0.2-0.4-0.2c-0.3-0.4-0.6-0.8-0.8-1.3c-0.8-1.6-0.8-3.5-0.1-5c0.1-0.1,0.2-0.2,0.2-0.3c0.1-0.1,0.1-0.3,0.1-0.4
	c0.6-1,1.4-1.8,2.5-2.3C80.9,358.8,81.8,358.6,82.6,358.6L82.6,358.6z M36.7,358.6C36.6,358.6,36.6,358.6,36.7,358.6l-1.1,0.7
	c-0.1,0.1-0.2,0.3-0.1,0.4c0.1,0.1,0.3,0.2,0.4,0.1l1-0.7c0.1-0.1,0.2-0.3,0.1-0.4C36.9,358.7,36.8,358.6,36.7,358.6z M95.8,358.6
	c-0.1,0-0.2,0-0.2,0.1c-0.1,0.1-0.1,0.3,0.1,0.4l1,0.7c0.1,0.1,0.3,0,0.4-0.1c0.1-0.1,0.1-0.3-0.1-0.4l-1-0.6
	C95.9,358.6,95.8,358.6,95.8,358.6z M34.9,359c-0.3,0-0.5,0-0.7,0.2c-0.6,0.3-0.7,1.1-0.4,1.6c0.4,0.6,1.1,0.7,1.6,0.4
	c0.1-0.1,0.5-0.4,0.5-0.6c0-0.1,0-0.2,0-0.4l-0.7,0.5c-0.3,0.2-0.7,0.1-0.9-0.2c-0.2-0.3-0.1-0.7,0.2-0.9l0.7-0.5
	C35.1,359.1,35,359,34.9,359z M97.6,359c-0.1,0-0.2,0.1-0.3,0.2l0.7,0.5c0.3,0.2,0.4,0.6,0.2,0.9c-0.2,0.3-0.6,0.4-0.9,0.2l-0.7-0.5
	c0,0.1-0.1,0.2,0,0.4c0,0.2,0.4,0.5,0.5,0.6c0.6,0.3,1.3,0.2,1.6-0.4c0.3-0.6,0.2-1.3-0.4-1.6C98.1,359,97.9,359,97.6,359z
	 M50,359.4c0,0-0.1,0-0.1,0c-0.6,0.1-0.3,0.8-0.2,1.2c0.2,0.5,0.2,1-0.5,1.3c-0.7,0-0.8-0.6-0.8-1.1c0-0.4,0-1.1-0.5-1.1
	c-0.7,0.1-0.7,1.3-1.2,1.8c-0.5,0.6-1.7,0.5-1.8,1.3c-0.1,0.6,0.7,0.5,1.1,0.5c0.5,0,1.1,0.1,1.1,0.8c-0.2,0.7-0.8,0.6-1.3,0.5
	c-0.4-0.1-1.1-0.4-1.2,0.2c-0.1,0.7,1,1.1,1.4,1.7c0.4,0.7,0,1.8,0.7,2.1c0.6,0.2,0.7-0.5,0.8-0.8c0.1-0.5,0.4-1,1.1-0.8
	c0.6,0.4,0.4,1,0,1.4c-0.3,0.3-0.7,0.9-0.2,1.2c0.7,0.4,1.3-0.7,2.1-0.7c0.7-0.1,1.7,0.6,2.2,0c0.4-0.4-0.2-0.8-0.6-1
	c-0.4-0.3-0.8-0.7-0.4-1.3c0.6-0.4,1,0,1.3,0.4c0.2,0.3,0.6,0.9,1,0.5c0.5-0.5-0.2-1.5-0.1-2.2c0.1-0.7,1.1-1.4,0.7-2.1
	c-0.3-0.5-0.8,0-1.2,0.2c-0.4,0.3-0.9,0.6-1.4,0c-0.2-0.7,0.3-1,0.7-1.1c0.4-0.1,1.1-0.3,0.8-0.8c-0.3-0.7-1.4-0.3-2.1-0.6
	C51,360.5,50.6,359.5,50,359.4z M82.5,359.4c-0.7,0-1,1-1.6,1.3l0,0c-0.7,0.3-1.8-0.1-2.1,0.6c-0.3,0.5,0.4,0.7,0.8,0.8
	c0.5,0.1,1,0.4,0.7,1.1c-0.4,0.6-1,0.3-1.4,0c-0.3-0.3-0.9-0.7-1.2-0.2c-0.4,0.7,0.6,1.3,0.7,2.1c0.1,0.7-0.6,1.7-0.1,2.2
	c0.4,0.4,0.8-0.2,1.1-0.5c0.3-0.4,0.7-0.8,1.3-0.4c0.4,0.6,0,1-0.4,1.3c-0.4,0.2-1,0.6-0.6,1c0.5,0.6,1.5-0.2,2.2,0
	c0.7,0.1,1.4,1.1,2.1,0.7c0.5-0.3,0.1-0.8-0.2-1.2c-0.3-0.4-0.5-0.9,0-1.4c0.7-0.2,1,0.3,1.1,0.8c0.1,0.4,0.3,1.1,0.8,0.8
	c0.7-0.3,0.3-1.4,0.7-2.1c0.3-0.7,1.5-1,1.4-1.7c-0.1-0.6-0.8-0.3-1.2-0.2c-0.5,0.2-1.1,0.2-1.3-0.5c0-0.7,0.6-0.8,1.1-0.8
	c0.4,0,1.1,0.1,1.1-0.5c-0.1-0.7-1.3-0.7-1.8-1.3c-0.5-0.5-0.5-1.7-1.2-1.8c-0.6-0.1-0.6,0.7-0.5,1.1c0,0.5-0.1,1.1-0.8,1.1
	c-0.7-0.2-0.6-0.8-0.5-1.3c0.1-0.4,0.4-1.1-0.2-1.2C82.5,359.5,82.5,359.4,82.5,359.4L82.5,359.4z M68.3,362.7
	c-0.4,0-0.8,0.1-1.1,0.4c-0.6,0.5-0.4,1.5-0.3,2.1c0.2,1.2-0.4,1.5-0.7,1.6c-0.3,0-1.1-0.2-0.9-1.6c0.1-0.7,0.3-1.6-0.3-2.1
	c-0.3-0.3-0.7-0.4-1.1-0.4c-0.1,0-0.3,0-0.4,0c-0.2,0-0.4,0.1-0.6,0c-0.2,0-0.7,0.2-1,0.3l0,0c-0.2,0.2-0.5,0.7-0.6,0.8
	c0,0.2-0.1,0.4-0.2,0.6c0,0.1-0.1,0.3-0.1,0.4c-0.1,0.4-0.1,0.8,0,1.2c0.3,0.7,1.3,0.8,2,0.9c1.2,0.1,1.3,0.8,1.3,1.2
	c-0.1,0.2-0.5,1-1.8,0.3c-0.6-0.3-1.4-0.8-2.1-0.4c-0.4,0.2-0.6,0.6-0.7,0.9c0,0.1-0.1,0.3-0.1,0.4c0,0.2,0,0.4-0.1,0.6
	c-0.1,0.2-0.1,0.8,0,1l0,0c0.1,0.2,0.4,0.7,0.6,0.8c0.2,0.1,0.3,0.3,0.5,0.4c0.1,0.1,0.2,0.2,0.3,0.3c0.3,0.2,0.7,0.4,1.1,0.3
	c0.8-0.1,1.2-1,1.5-1.6c0.5-1.1,1.2-1,1.5-0.8c0.2,0.1,0.8,0.8-0.2,1.8c-0.5,0.5-1.2,1.1-1,1.9c0.1,0.4,0.3,0.7,0.7,0.9
	c0.1,0.1,0.2,0.2,0.4,0.2c0.2,0.1,0.4,0.2,0.5,0.3c0.1,0.1,0.7,0.3,0.9,0.3l0,0l0,0l0,0l0,0c0.2,0,0.8-0.2,0.9-0.4
	c0.1-0.1,0.3-0.2,0.5-0.3c0.1-0.1,0.2-0.1,0.3-0.2c0.3-0.2,0.6-0.6,0.7-0.9c0.1-0.7-0.6-1.4-1.1-1.9c-0.9-0.8-0.6-1.4-0.4-1.7
	c0.2-0.1,1-0.6,1.6,0.7c0.3,0.6,0.7,1.5,1.5,1.6c0.4,0,0.8-0.1,1.1-0.3c0.1-0.1,0.2-0.2,0.3-0.3c0.2-0.1,0.3-0.3,0.5-0.4
	c0.2-0.1,0.5-0.6,0.6-0.8l0,0v0l0,0c0-0.2,0-0.8,0-1c-0.1-0.2-0.1-0.4-0.1-0.6c0-0.1-0.1-0.3-0.1-0.4c-0.1-0.4-0.3-0.7-0.7-0.9
	c-0.7-0.4-1.5,0.1-2.1,0.4c-1.1,0.6-1.5,0.1-1.7-0.2c-0.1-0.2-0.2-1.1,1.2-1.3c0.7-0.1,1.6-0.2,1.9-0.9c0.2-0.4,0.1-0.8,0-1.2
	c0-0.1-0.1-0.3-0.1-0.4c-0.1-0.2-0.2-0.4-0.2-0.6s-0.4-0.7-0.6-0.8l0,0c-0.2-0.1-0.8-0.3-1-0.3c-0.2,0-0.4,0-0.6,0
	C68.6,362.7,68.5,362.7,68.3,362.7L68.3,362.7z M82.7,362.7c0.7,0,1.3,0.4,1.6,1c0.4,0.9,0.1,2-0.8,2.4c-0.9,0.5-2,0.1-2.4-0.8
	c-0.4-0.9-0.1-2,0.8-2.4c0.2-0.1,0.5-0.2,0.7-0.2C82.6,362.7,82.7,362.7,82.7,362.7L82.7,362.7z M49.7,362.7c0.3,0,0.6,0,0.9,0.2
	c0.9,0.5,1.3,1.5,0.8,2.4c-0.4,0.9-1.5,1.3-2.4,0.8c-0.9-0.4-1.3-1.5-0.8-2.4C48.4,363.1,49,362.8,49.7,362.7z M51.7,366.4l0,0.1
	l0,0L51.7,366.4L51.7,366.4z M80.8,366.4l0,0.1l0,0L80.8,366.4L80.8,366.4z"/>
<path id="path4277" class="st1" d="M127.9,280v95.8h2.9V280H127.9L127.9,280z M149.1,335.7v39h7.7v-14.3c0-2.1-0.1-7.1-0.1-8.6
	c0.6,1.4,1.7,4.2,2.7,6.5l7.9,17.3l7.9-17.3c1-2.2,2.2-5,2.7-6.5c0,1.5-0.1,6.5-0.1,8.6v14.3h7.8v-39h-7.7l-7.9,17.7
	c-1,2.2-2.1,5.1-2.6,6.5c-0.5-1.4-1.7-4.3-2.7-6.5l-8.2-17.7H149.1z M194.3,335.7v39h7.8v-39H194.3z M211.8,335.7l-1.4,19.5l7.4,2.7
	c1.8-1.3,4.2-2.3,7.7-2.3c3.7,0,6.6,1.7,6.6,5.8c0,4.2-3.1,6.4-8.4,6.4c-4,0-7.8-1.2-11.4-3.3l-3.8,6.6c4.9,3.1,9.6,4.2,15.3,4.2
	c9.6,0,16.3-4.9,16.3-14.2c0-7.4-4.6-12.9-13.4-12.9c-3.7,0-6,0.6-8.2,1.8l0.4-6.7h18.8v-7.5L211.8,335.7L211.8,335.7z"/>
<path id="path4321" class="st0" d="M58.7,287.7c2-1.4,7.6-1.8,7.6-1.8v-7.8H65c0,0-0.1,0,0,0.1c0.1,0.1,0.8,0.9,0.8,1.1
	c0,0.2,0.1,0.4,0.1,0.4c0,0.1,0,0.4,0,0.5c-0.2,0.2-0.6-0.2-0.7-0.3c-0.1-0.2-0.2-0.2-0.3-0.4c0,0-0.1,0-0.1,0.1c0,0.5,0,0.5,0,0.9
	l0,0.4c0,0.5,0,0.3,0,0.8c0,0.1,0.1,0.1,0.1,0.1s0.2-0.5,0.7-0.7c0,0,0.3-0.1,0.3-0.1c0,0.6-0.1,1.2-0.3,1.7c-0.1,0.4-0.7,0.9-1.1,1
	c-0.2,0-0.6,0.1-0.9,0.1c-0.5,0-0.9-0.2-1.2-0.6c-0.5-0.8-0.1-1.5,0.2-1.6c0.2,0,0.4,0,0.5,0.2c0.4,0.4,0.6-0.4,0.6-0.7
	c0-0.5-0.1-1.3-0.7-1.4c-0.3-0.1-0.9,0-1.1,0.5c-0.2,0.4-0.2,0.3-0.3,0.3c-0.2-0.1,0-1.1,0-1.3c0-0.5,0-1.1-0.3-1.5
	c-0.2-0.3-0.6-0.5-0.9-0.6c-0.2,0.3-0.5,0.7-0.6,1.1c0,0.5,0.2,0.9,0.4,1.3c0.1,0.2,0.2,0.4,0.3,0.7c0.1,0.1,0.1,0.3,0.1,0.5
	c0,0.3-0.2,0.1-0.3,0c-0.4-0.3-1-0.2-1.2,0c-0.4,0.3-0.4,1-0.2,1.4c0.1,0.3,0.7,1.2,1,0.6c0.1-0.2,0.2-0.3,0.4-0.4
	c0.4-0.1,1,0.4,0.8,1.4c-0.1,0.9-1.1,1.3-1.9,1.3c-0.7,0-1.5-0.6-1.8-1.2c-0.1-0.3,0-0.4,0.2-0.5c0.2-0.1,0.3,0,0.6,0.1
	c0.2,0.1,0.1-0.1,0.1-0.1c-0.2-0.5-0.5-0.9-0.7-1.4c0,0-0.1-0.2-0.2,0c0,0.2,0,0.1,0,0.3c-0.1,0.4-0.4,0.5-0.6,0.1
	c-0.5-0.6-0.3-1.9-0.3-1.9s0-0.2-0.2,0c-0.1,0.1-0.4,0.4-0.7,0.7"/>
<path id="path5087" class="st2" d="M85.9,303.1c0,1,0.8,1.8,1.8,1.8c1,0,1.8-0.8,1.8-1.8s-0.8-1.8-1.8-1.8
	C86.7,301.2,85.9,302,85.9,303.1"/>
</svg>
