<svg enable-background="new 0 0 136 32" viewBox="0 0 136 32" xmlns="http://www.w3.org/2000/svg"><g fill="#388dff"><path d="m69.7 15.8v7.3h-3.1v-6.3c0-1.7-.8-2.6-2.3-2.6-1.3 0-2.4.9-2.4 2.6v6.3h-3.1v-6.3c0-1.7-.8-2.6-2.3-2.6-1.3 0-2.4.9-2.4 2.6v6.3h-3.1v-11.5h3v1.4c.8-1.2 2.1-1.7 3.4-1.7 1.7 0 3 .7 3.8 2 .9-1.5 2.4-2 3.9-2 2.8 0 4.6 1.8 4.6 4.5z"/><path d="m84.2 17.3c0 3.5-2.7 6.1-6.3 6.1s-6.2-2.6-6.2-6.1 2.6-6.1 6.2-6.1c3.7.1 6.3 2.7 6.3 6.1zm-9.3 0c0 1.9 1.3 3.2 3.1 3.2s3.1-1.3 3.1-3.2-1.3-3.2-3.1-3.2c-1.8.1-3.1 1.4-3.1 3.2z"/><path d="m97.3 15.8v7.3h-3.1v-6.3c0-1.7-.8-2.6-2.3-2.6-1.3 0-2.4.9-2.4 2.6v6.3h-3.1v-11.5h3v1.4c.8-1.2 2.1-1.7 3.4-1.7 2.6 0 4.5 1.8 4.5 4.5z"/><path d="m110.7 17.3c0 .4 0 .8-.1 1h-8.2c.3 1.7 1.5 2.4 3 2.4 1 0 2.1-.4 2.9-1.1l1.8 2c-1.3 1.2-3 1.7-4.9 1.7-3.5 0-6-2.4-6-6s2.4-6.1 5.8-6.1c3.5.1 5.7 2.5 5.7 6.1zm-8.2-1h5.1c-.3-1.5-1.2-2.3-2.5-2.3-1.5-.1-2.3.8-2.6 2.3z"/><path d="m117.4 13.8c-1.2 0-1.8.4-1.8 1 0 .7.8.8 1.9 1l1 .2c2.5.4 3.9 1.5 3.9 3.5 0 2.4-2 3.9-5.3 3.9-1.6 0-3.6-.3-5.1-1.4l1.2-2.4c1 .7 2.2 1.1 3.9 1.1 1.4 0 2.1-.4 2.1-1.1 0-.6-.6-.9-1.9-1.1l-.9-.1c-2.7-.4-4-1.5-4-3.5 0-2.4 1.8-3.8 4.9-3.8 1.8 0 3.3.3 4.8 1.1l-1 2.4c-1-.3-2.4-.8-3.7-.8z"/><path d="m135.2 17.3c0 .4 0 .8-.1 1h-8.2c.3 1.7 1.5 2.4 3 2.4 1 0 2.1-.4 2.9-1.1l1.8 2c-1.3 1.2-3 1.7-4.9 1.7-3.5 0-6-2.4-6-6s2.4-6.1 5.8-6.1c3.4.1 5.7 2.5 5.7 6.1zm-8.3-1h5.1c-.3-1.5-1.2-2.3-2.5-2.3-1.5-.1-2.3.8-2.6 2.3z"/><path d="m36.7.3c-2-.8-4.2-.2-5.7 1.3l-11 12.1-11.1-12c-1.4-1.6-3.6-2.1-5.6-1.4-1.8.7-3 2.3-3.3 4.2v.1.1.4 21.9c0 2.1 1.3 4 3.3 4.7.6.2 1.2.3 1.9.3 1.4 0 2.8-.6 3.8-1.7l4.3-4.7 3.1 4.4c.8 1.2 2.2 1.9 3.7 1.9s2.8-.7 3.7-1.9l3.1-4.4 4.3 4.7c1.4 1.6 3.7 2.1 5.7 1.3s3.3-2.6 3.3-4.7v-21.8c-.2-2.1-1.5-4-3.5-4.8zm-30.1 28c-.9.9-1.9.6-2.2.5s-1.3-.6-1.3-1.9v-15.8l8.3 11.9zm-3.1-22.1c-.3-.3-.4-.7-.4-1.1 0-1.3 1-1.7 1.3-1.8.1-.1.4-.1.8-.1s1 .1 1.5.7l11.2 12.1-4.3 4.7zm17.6 22.1c-.3.4-.7.6-1.1.6s-.9-.2-1.1-.6l-3.5-5 4.6-5 4.6 5zm5.3-7.6-4.3-4.7 11.3-12.3c.9-.9 1.9-.6 2.2-.5s1.3.6 1.3 1.9c0 .4-.1.8-.4 1.2zm10.5 6.2c0 1.3-1 1.7-1.3 1.9-.3.1-1.4.4-2.2-.5l-4.8-5.3 8.3-11.9z"/></g></svg>