<svg xmlns="http://www.w3.org/2000/svg" xmlns:xlink="http://www.w3.org/1999/xlink" version="1.1" id="layer" x="0px" y="0px" style="enable-background:new 0 0 652 652;" xml:space="preserve" viewBox="21 251.9 600.1 138.2">
<style type="text/css">
	.st0{fill:#00C2B5;}
</style>
<path id="Logo" class="st0" d="M358.4,297.4v34.3c0,11.7,5.2,15.3,13,15.3c8.5,0,14.8-5.6,14.8-16.5v-33.1h15.6v62.4  c0,18.2-11.3,30.3-30.9,30.3c-16.4,0-25.2-9.1-28.3-20.7l14.6-3c1.3,6.4,5.6,10.3,13.8,10.3c9.5,0,15.3-5.8,15.3-16.8V353l-0.1-0.4  c-4.4,5.3-9.7,9-19.6,9c-14.2,0-23.7-8.3-23.7-27.3v-36.9H358.4z M158.7,295.6c19.5,0,33.8,15.1,33.8,34.2  c0,19.2-14.3,34.3-33.8,34.3c-19.6,0-33.7-15.1-33.7-34.3C125.1,310.7,139.4,295.6,158.7,295.6z M302.7,295.6  c18.8,0,30.7,13.6,30.7,33.4v6h-48.5c0.7,8.2,7.7,16.2,17.9,16.2c9.1,0,14.3-5.5,15.9-9.9l13.1,4c-3.8,10.4-13.1,18.7-29,18.7  c-18.6,0-32.9-14.3-32.9-34.3C270,310.1,284.3,295.6,302.7,295.6z M430.5,271.3v33.4c3.5-4.5,10.3-9.1,20.1-9.1  c18.6,0,31.3,15.2,31.3,34.2s-13.4,34.3-31.5,34.3c-10.8,0-17.4-5.5-20.7-9.7l-2.1,7.9h-12.9v-91H430.5z M94.3,295.6  c12.1,0,20.9,7.1,20.9,23.8v42.9H99.6v-38.6c0-9.9-4.3-13.6-11.1-13.6c-7.1,0-12.6,5.2-12.6,15.5v36.8H60.4v-38.6  c0-9.9-4.7-13.6-11.2-13.6c-7,0-12.6,5.1-12.6,15.5v36.8H21v-64.9h12.9l2.1,7.7c3.9-5.2,10.8-9.5,20-9.5c9.7,0,14.9,4.7,17.5,9.7  C77.5,300.1,84.3,295.6,94.3,295.6z M237.3,295.6c14.7,0,23.3,8.4,23.3,27.4v39.3h-15.6v-37.2c0-11.4-5.3-15.1-12.6-15.1  c-7.9,0-14.3,5.6-14.3,16.6v35.6h-15.6v-64.9h12.9l2.2,7.8C221.5,299.9,227.7,295.6,237.3,295.6z M573.8,297.4l14.7,20.7l14.7-20.7  h17.2l-23,32l23.7,32.9h-17.3l-15.2-21.4l-15.2,21.4h-17.2l23.5-32.8l-23.3-32.1H573.8z M516.6,328.5c18.6,0,33.7,15.1,33.7,33.7  l0,0h-67.5C482.9,343.6,498,328.5,516.6,328.5z M448.3,309.6c-10.4,0-17.8,8.3-17.8,20.1c0,11.8,7.4,20.3,17.8,20.3  c10.4,0,18.1-8.5,18.1-20.3C466.4,318.1,458.7,309.6,448.3,309.6z M158.7,310c-10.5,0-18.1,8.3-18.1,19.8c0,11.6,7.5,19.9,18.1,19.9  c10.4,0,18.2-8.3,18.2-19.9C176.9,318.3,169.1,310,158.7,310z M302.9,308.5c-10.5,0-16.4,7.2-17.8,14.6h34.6  C319.2,317.2,314,308.5,302.9,308.5z M516.6,251.9c18.6,0,33.7,15.1,33.7,33.7s-15.1,33.7-33.7,33.7c-18.6,0-33.7-15.1-33.7-33.7  S498,251.9,516.6,251.9z"/>
</svg>