<svg xmlns="http://www.w3.org/2000/svg" xmlns:xlink="http://www.w3.org/1999/xlink" version="1.1" id="layer" x="0px" y="0px" style="enable-background:new 0 0 652 652;" xml:space="preserve" viewBox="21 222.6 600 197">
<style type="text/css">
	.st0{fill:#107C5D;}
</style>
<path class="st0" d="M270.6,358.1l46.4-89.7c1.2-3.4,4.4-5.7,8.1-5.5c4.2-0.2,7.8,3,8.1,7.2c0,0.3,0,0.6,0,0.8v108.4  c0.3,4.4-3.1,8.3-7.5,8.6c-0.2,0-0.3,0-0.5,0c-4.5,0.2-8.4-3.3-8.6-7.8c0-0.2,0-0.5,0-0.7v-75.6l-36.8,70.6  c-1.8,3.3-5.3,5.4-9.1,5.5c-3.8,0-7.4-2.1-9.1-5.5l-36.8-70.6v75.6c0.2,4.5-3.3,8.4-7.8,8.6c-0.2,0-0.5,0-0.7,0  c-4.5,0-8.1-3.6-8.1-8.1c0-0.2,0-0.3,0-0.5V271.3c-0.4-4.1,2.6-7.7,6.7-8.1c0.5,0,0.9,0,1.4,0c3.6,0,6.8,2.2,8.1,5.5L270.6,358.1z   M413.8,373.2c-26.5,0-47.9-21.4-47.9-47.9s21.4-47.9,47.9-47.9c26.5,0,47.9,21.4,47.9,47.9S440.2,373.2,413.8,373.2 M477.8,325.3  c0-35.4-28.7-64-64-64c-35.4,0-64,28.7-64,64s28.7,64,64,64l0,0C449.1,389.3,477.8,360.6,477.8,325.3 M557,373.2  c-26.5,0-47.9-21.4-47.9-47.9s21.4-47.9,47.9-47.9s47.9,21.4,47.9,47.9S583.4,373.2,557,373.2 M621,325.3c0-35.4-28.7-64-64-64  c-35.4,0-64,28.7-64,64s28.7,64,64,64l0,0C592.3,389.3,620.9,360.6,621,325.3 M86.5,402.4c27,0.3,49.1-21.4,49.4-48.4  c0-0.3,0-0.7,0-1c-0.1-3.4-0.4-6.8-1-10.1c-2-11.1-10.6-30.3-25.2-56c-11.1-19.7-20.7-33.8-20.7-33.8l-2.5-3.5l-2,3  c0,0-9.6,14.6-20.7,33.8c-15.1,25.7-23.7,44.9-25.2,56c-0.6,3.3-0.9,6.7-1,10.1c0,10.9,3.6,21.5,10.1,30.3  C56.7,395.3,71.2,402.6,86.5,402.4 M86.5,419.6c-20.4,0.2-39.7-9.3-51.9-25.7C25.7,382.5,20.9,368.5,21,354c0-4.5,0.5-9,1.5-13.4  c2.5-14.6,13.1-38.3,32.3-71.1c14.1-24.2,25.7-42.4,26.2-42.4c1-2,2.5-4.5,5.5-4.5s4.5,2.5,6.1,4.5c0,0,12.1,18.2,26.2,42.4  c19.2,32.8,29.7,56.5,32.3,71.1c1,4.3,1.5,8.7,1.5,13.1c0.1,14.4-4.7,28.5-13.6,39.8c-12.7,16-32,25.5-52.4,25.7"/>
</svg>