<?xml version="1.0" encoding="UTF-8" standalone="no"?>
<svg
   xmlns:dc="http://purl.org/dc/elements/1.1/"
   xmlns:cc="http://creativecommons.org/ns#"
   xmlns:rdf="http://www.w3.org/1999/02/22-rdf-syntax-ns#"
   xmlns:svg="http://www.w3.org/2000/svg"
   xmlns="http://www.w3.org/2000/svg"
   xmlns:sodipodi="http://sodipodi.sourceforge.net/DTD/sodipodi-0.dtd"
   xmlns:inkscape="http://www.inkscape.org/namespaces/inkscape"
   width="1000"
   height="200"
   viewBox="0 0 1000 200"
   version="1.1"
   id="svg16982"
   sodipodi:docname="A.svg"
   inkscape:version="0.92.4 (5da689c313, 2019-01-14)">
  <metadata
     id="metadata16988">
    <rdf:RDF>
      <cc:Work
         rdf:about="">
        <dc:format>image/svg+xml</dc:format>
        <dc:type
           rdf:resource="http://purl.org/dc/dcmitype/StillImage" />
        <dc:title></dc:title>
      </cc:Work>
    </rdf:RDF>
  </metadata>
  <defs
     id="defs16986" />
  <sodipodi:namedview
     pagecolor="#ffffff"
     bordercolor="#666666"
     borderopacity="1"
     objecttolerance="10"
     gridtolerance="10"
     guidetolerance="10"
     inkscape:pageopacity="0"
     inkscape:pageshadow="2"
     inkscape:window-width="1920"
     inkscape:window-height="1017"
     id="namedview16984"
     showgrid="false"
     fit-margin-top="0"
     fit-margin-left="0"
     fit-margin-right="0"
     fit-margin-bottom="0"
     inkscape:zoom="0.73141358"
     inkscape:cx="371.18402"
     inkscape:cy="-16.018147"
     inkscape:window-x="1912"
     inkscape:window-y="-8"
     inkscape:window-maximized="1"
     inkscape:current-layer="svg16982" />
  <path
     d="m 966.875,50 a 16.5625,16.5625 0 1 0 33.125,0 16.5625,16.5625 0 0 0 -33.125,0 z m -52.5,-15 h -35 l 47.5,82.5 -47.5,82.5 h 35 l 47.5,-82.5 z m -67.5,75 c 0,10 -8.125,16.25 -20.625,16.25 -10.625,0 -17.5,-5 -17.5,-12.5 0,-6.875 5,-11.25 16.25,-13.75 l 21.875,-2.5 z m 29.375,0.625 V 73.75 c 0,-17.5 -2.5,-23.125 -11.875,-30 a 52.5,52.5 0 0 0 -33.75,-10 c -16.875,0 -31.25,3.75 -45.625,12.5 l 12.5,22.5 c 11.875,-6.25 23.125,-10 32.5,-10 7.5,0 12.5,3.125 15,7.5 1.25,2.5 1.25,1.875 1.25,9.375 -25,1.875 -42.5,5 -52.5,11.25 a 30.625,30.625 0 0 0 -14.375,26.25 c 0,21.25 18.75,37.5 43.75,37.5 13.125,0 21.875,-3.75 28.125,-12.5 6.25,8.125 13.125,12.5 21.875,12.5 h 2.5 l 12.5,-21.875 c -10,-2.5 -11.875,-5 -11.875,-18.125 z m -487.5,8.125 -11.875,1.875 c -11.25,0 -14.375,-3.75 -14.375,-18.125 V 59.375 h 26.25 V 35 H 362.5 V 0 h -30 V 35 H 315 v 25 h 17.5 v 55.625 c 0,12.5 0.625,17.5 4.375,21.875 5,6.25 14.375,10 28.125,10 8.75,0 16.875,-0.625 23.75,-3.125 z m 37.5,-26.25 c 0,18.75 13.125,31.25 30.625,31.25 16.875,0 30,-12.5 30,-31.25 0,-18.75 -13.125,-31.875 -30.625,-31.875 -17.5,0 -30,12.5 -30,31.25 z m 89.375,0 c 0,33.125 -25,58.125 -58.75,58.125 -34.375,0 -59.375,-25 -59.375,-58.125 0,-33.75 25,-58.75 59.375,-58.75 33.75,0 58.75,25 58.75,58.75 z m -295,0 c 0,18.75 12.5,31.25 30,31.25 16.875,0 30,-12.5 30,-31.25 0,-18.75 -12.5,-31.875 -30,-31.875 -17.5,0 -30,12.5 -30,31.25 z m 89.375,0 c 0,33.125 -25,58.125 -59.375,58.125 -34.375,0 -59.375,-25 -59.375,-58.125 0,-33.75 25,-58.75 59.375,-58.75 33.75,0 59.375,25 59.375,58.75 z m 435,55 H 710 L 691.875,80 l -16.25,67.5 h -36.25 L 608.125,35 h 31.25 l 18.75,76.25 L 675,35 h 32.5 L 726.25,111.25 745,35 h 30.625 l -31.25,112.5 z m -215,0 V 35 h 28.125 L 560,47.5 c 9.375,-9.375 16.875,-13.75 26.25,-13.75 3.125,0 6.25,0 11.25,1.25 v 28.125 h -4.375 c -10.625,0 -17.5,1.875 -23.75,7.5 -7.5,6.25 -9.375,11.25 -9.375,26.875 v 50 z m -385,0 V 86.875 c 0,-18.125 -6.25,-26.25 -20,-26.25 -7.5,0 -14.375,3.75 -18.75,10 -3.125,5 -4.375,10.625 -4.375,20.625 V 147.5 H 72.5 V 90 C 72.5,80 71.25,73.75 68.75,69.375 A 19.375,19.375 0 0 0 51.875,61.25 c -14.375,0 -22.5,9.375 -22.5,27.5 V 147.5 H 0 V 35 h 27.5 l 1.875,9.375 C 40.625,36.25 48.125,33.75 58.75,33.75 c 14.375,0 25,5 35.625,16.875 12.5,-12.5 23.75,-16.875 37.5,-16.875 15,0 27.5,6.25 35,16.875 6.25,8.125 7.5,15 7.5,31.25 V 147.5 Z"
     class="LogoMotorway-module_fill__15tnE motorway-svg-fill"
     id="path16980"
     style="fill:#000000;fill-rule:evenodd;stroke-width:6.25"
     inkscape:connector-curvature="0" />
</svg>
