<svg xmlns:dc="http://purl.org/dc/elements/1.1/" xmlns:cc="http://creativecommons.org/ns#" xmlns:rdf="http://www.w3.org/1999/02/22-rdf-syntax-ns#" xmlns:svg="http://www.w3.org/2000/svg" xmlns="http://www.w3.org/2000/svg" xmlns:sodipodi="http://sodipodi.sourceforge.net/DTD/sodipodi-0.dtd" xmlns:inkscape="http://www.inkscape.org/namespaces/inkscape" aria-hidden="true" version="1.1" id="svg11" sodipodi:docname="A.svg" style="fill:none" inkscape:version="0.92.4 (5da689c313, 2019-01-14)" viewBox="0 0 1000 163.84">
  <metadata id="metadata17">
    <rdf:RDF>
      <cc:Work rdf:about="">
        <dc:format>image/svg+xml</dc:format>
        <dc:type rdf:resource="http://purl.org/dc/dcmitype/StillImage"/>
        <dc:title/>
      </cc:Work>
    </rdf:RDF>
  </metadata>
  <defs id="defs15">
    <clipPath clipPathUnits="userSpaceOnUse" id="clipPath1257">
      <path d="M 27.552,500.194 H 584.887 V 609.296 H 27.552 Z" id="path1255" inkscape:connector-curvature="0"/>
    </clipPath>
  </defs>
  <sodipodi:namedview pagecolor="#ffffff" bordercolor="#666666" borderopacity="1" objecttolerance="10" gridtolerance="10" guidetolerance="10" inkscape:pageopacity="0" inkscape:pageshadow="2" inkscape:window-width="1920" inkscape:window-height="1017" id="namedview13" showgrid="false" fit-margin-top="0" fit-margin-left="0" fit-margin-right="0" fit-margin-bottom="0" inkscape:zoom="0.74212858" inkscape:cx="525.29799" inkscape:cy="-56.918084" inkscape:window-x="1912" inkscape:window-y="-8" inkscape:window-maximized="1" inkscape:current-layer="svg11"/>
  <path inkscape:connector-curvature="0" d="m 267.23164,109.8305 c 0,18.96046 -10.44633,30.50848 -25.99435,30.50848 -15.98305,0 -26.45198,-11.54802 -26.45198,-30.50848 V 45.768357 h -24.12429 v 63.632773 c 0,32.46892 18.38418,53.60452 49.70056,53.60452 31.0904,0 50.79096,-21.56498 50.79096,-53.60452 V 45.768357 h -23.9209 V 109.83615 Z M 338.66667,0.24858 h -23.61582 v 161.1356 h 23.61582 V 0.25423 Z m 131.20339,45.65537 h -23.61582 v 115.48023 h 23.61582 z m 102.76271,0 -33.05085,84.81356 -33.27684,-84.81356 h -25.19774 l 46.32769,115.48023 h 24.06779 L 597.81356,45.90395 Z m 273.16384,47 -13.9435,-3.135593 c -8.54238,-2.016949 -12.81921,-6.485876 -12.81921,-12.531074 0,-8.288135 7.87005,-13.429378 18.43503,-13.19774 6.51977,0 13.04519,2.0113 19.33898,5.146893 a 71.146893,71.146893 0 0 1 17.0904,11.19774 V 56.192085 c -4.0452,-2.909604 -18.66102,-12.757062 -37.55368,-12.757062 -26.07909,0 -41.82486,17.0113 -41.82486,35.80226 0,17.683616 12.81921,26.412427 29.68927,30.440677 l 13.48588,3.13559 c 11.9209,2.68362 17.76836,6.93786 17.76836,15 0,8.0565 -6.97175,15.66667 -19.79096,15.66667 -8.09605,0 -16.19774,-2.68362 -22.71187,-6.27119 -7.87005,-4.03389 -13.71751,-8.9548 -15.28813,-10.51977 l -0.45198,24.62147 c 1.56497,1.56497 15.0678,12.53107 39.12429,12.53107 26.76271,0 43.40113,-18.35028 43.40113,-37.15254 0.0113,-16.32768 -11.46327,-28.864406 -33.94915,-33.78531 z M 653.80791,44.553667 c -31.92655,0 -55.99435,26.41243 -55.99435,59.079093 0,32.67797 26.08475,59.07345 61.38418,59.07345 26.99435,0 41.82486,-12.75706 41.82486,-12.75706 v -23.49718 c 0,0 -16.41243,14.54803 -40.02825,14.54803 -21.35593,0 -35.29943,-11.86441 -38.8983,-28.42373 h 85.22598 c 0.22599,-2.90961 0.45763,-6.0452 0.45763,-8.95481 0,-32.655363 -22.9435,-59.067793 -53.97175,-59.067793 z m -31.93785,50.135594 c 2.92655,-16.559322 14.17514,-28.644068 31.92655,-28.644068 17.53672,0 28.10734,12.084746 30.81356,28.644068 z M 449.58757,0 l -8.48023,14.60451 8.48023,14.615824 h 16.9435 L 475.00565,14.60451 466.53672,0 h -16.9435 z M 147.22034,45.90395 h -3.68927 v 0.0226 l -0.0395,-0.0226 -46.57632,76.35028 -0.22598,-76.35028 H 69.97175 v 0.0226 l -0.0339,-0.0226 -46.39548,76.07345 -0.14689,-4.46328 0.22599,-71.61582 H 0 v 115.48023 h 23.61582 c 1.44633,-2.46893 5.06215,-8.48588 9.71186,-16.22599 L 73.53107,79.231634 V 161.37853 H 96.9209 l 0.017,-0.0339 0.0508,0.0339 49.84746,-81.717518 v 81.728818 h 23.38983 V 45.90395 Z M 987.84177,124.19774 982.45197,129 c -4.7345,4.21468 -9.7062,7.45762 -14.7853,9.64971 -4.8983,2.10735 -10.9153,3.18079 -17.8757,3.18079 a 36.338983,36.338983 0 0 1 -17.5706,-4.39548 c -5.452,-2.9096 -9.7288,-6.9887 -13.0961,-12.45197 -2.8474,-4.63277 -4.4407,-9.70057 -4.8531,-15.45198 a 221.9209,221.9209 0 0 0 14.4633,3.92655 c 7.3559,1.70622 15.0113,2.55932 22.7345,2.55932 7.4406,0 14.6158,-1.21468 21.2994,-3.62146 7.0226,-2.51413 12.8305,-6.28249 17.2655,-11.19774 4.8249,-5.338988 7.2712,-11.864412 7.2712,-19.361587 0,-7.107344 -2.1186,-13.615819 -6.3107,-19.350282 -4.0396,-5.531074 -9.6441,-9.887006 -16.6667,-12.920904 -6.757,-2.920904 -14.2316,-4.41243 -22.2316,-4.41243 -9.5989,0 -18.9322,2.40678 -27.7571,7.152543 -8.8926,4.779661 -16.2938,11.887005 -21.983,21.112994 -5.72885,9.276836 -8.62716,20.435028 -8.62716,33.146896 0,11.40113 2.79096,21.45197 8.29946,29.8644 a 53.073446,53.073446 0 0 0 21.5198,19.01695 62.59887,62.59887 0 0 0 27.5028,6.29944 c 9.0113,0 17.1921,-1.63842 24.322,-4.86441 6.8362,-3.10734 13.5085,-7.49152 19.8362,-13.0339 l 4.7909,-4.20904 z m -70.9943,-33.870061 a 35.451977,35.451977 0 0 1 6.113,-10.949153 39.045198,39.045198 0 0 1 13.5254,-10.655367 c 5.1243,-2.39548 10.3729,-3.615819 15.5932,-3.615819 7.8136,0 14.113,1.734463 18.7514,5.129943 4.1074,3.016949 6.0226,6.711865 6.0226,11.621469 0,2.824859 -0.7175,6.463277 -6.2881,9.638418 -5.4011,3.062147 -11.8362,4.621469 -19.096,4.621469 -10.4803,-0.0226 -22.1017,-1.954802 -34.6215,-5.79096 z M 402.79661,13.00564 h -23.38983 v 32.672321 h -29.76836 v 20.361582 h 29.77401 v 95.118647 h 23.38418 V 66.045193 h 29.9096 V 45.677961 h -29.9096 z m 319.65537,32.672321 h -1.38983 V 161.15819 h 23.61017 V 65.887001 h 40.20904 V 45.519769 h -62.42938 z" id="path1556" style="fill:#232355;fill-opacity:1;stroke-width:5.64971733"/>
</svg>