<?xml version="1.0" encoding="utf-8"?>
<!-- Generator: Adobe Illustrator 19.2.1, SVG Export Plug-In . SVG Version: 6.00 Build 0)  -->
<svg version="1.1" id="layer" xmlns="http://www.w3.org/2000/svg" xmlns:xlink="http://www.w3.org/1999/xlink" x="0px" y="0px"
	 viewBox="0 0 652 652" style="enable-background:new 0 0 652 652;" xml:space="preserve">
<path d="M487.5,331.3c1.9,0,3.6-0.6,5.2-1.8c1.6-1.3,2.5-2.7,2.5-4.4v-6.7c0-0.1,0.1-0.4,0.5-1.1l0.8-1.2h-9.1l-0.2,0.1
	c-1.1,0.6-2,1.3-2.9,2.1c-0.9,0.8-1.8,1.8-2.4,2.9c-0.7,1.1-1,2.3-1,3.7c0,1.7,0.7,3.2,1.9,4.5C484.1,330.7,485.7,331.3,487.5,331.3
	 M468.7,316.2h-20l0.1,0.8c0.1,1.4,0.2,2.8,0.2,4.2c0,12.8-2.7,23.8-7.9,32.5c-5.2,8.7-13.1,14.6-23.7,17.6
	c-2.2,0.7-4.7,1.1-7.2,1.4c-5.4,0.5-10.3,0.6-16.1-0.4c-2.9-0.5-5.3-1.7-7.1-3.6c-0.5-0.5-1-1.3-1.4-2.5c-0.4-1.2-0.7-2.5-0.9-4
	c-0.2-1.5-0.4-3.1-0.5-4.7c-0.1-1.6-0.2-3.1-0.2-4.5c-0.1-3.3-0.1-7.5-0.1-12.7v-24.1H366v14.4c0,3,0,5.9-0.1,8.7l-0.2,7.8
	c-0.1,2.4-0.1,4.3-0.1,5.7c0,1.5,0,3.2-0.1,4.9c-0.1,1.7-0.2,3.2-0.4,4.7c-0.2,1.5-0.4,2.8-0.6,4c-0.3,1.3-0.6,1.9-0.9,2.2
	c-1.1,1.3-2.8,2.4-5,3.4c-2.3,1-4.6,1.6-7,1.9l-0.7,0.1v3H406c4.6,0,9.4-0.3,14.3-1c4.9-0.7,9.7-1.8,14.3-3.4
	c4.6-1.6,9.1-3.8,13.2-6.5c4.1-2.7,7.8-6.2,10.9-10.3c3.1-4.1,5.6-9.1,7.4-14.9c1.8-5.7,2.7-12.4,2.7-19.9c0-1.4,0-2.7-0.1-3.9
	L468.7,316.2z M591.3,316.2l-0.2,0.6c-0.6,2.2-1.3,4.8-2.2,7.8c-1,3.4-2.1,7.1-3.3,11c-1.2,3.9-2.3,7.6-3.4,11.1
	c-1.1,3.5-2,6.6-2.8,9.2c-0.4,1.2-0.7,2.2-0.9,3c-0.7-1.9-1.5-4-2.4-6.4c-1.2-3.2-2.4-6.6-3.7-10.1c-1.2-3.5-2.5-6.9-3.7-10.4
	c-1.2-3.4-2.4-6.6-3.3-9.5c-0.8-2.2-1.4-4.2-1.9-5.8l-0.2-0.5h-15.3l8.5,23c1.9,5,3.7,9.9,5.5,14.7c1.8,4.8,3.4,9.1,4.8,12.9
	c1.4,3.8,2.5,7,3.4,9.4c1,2.6,1.4,3.6,1.6,4.1c-0.1,0.5-0.4,1.4-0.7,2.7c-0.4,1.5-0.9,3.3-1.6,5.4c-0.6,2.1-1.4,4.5-2.2,7.1
	c-0.8,2.3-1.6,4.7-2.5,7.1c-1.2-1.1-2.4-2.2-3.5-3.2c-1.5-1.4-3.3-2-5.5-2c-2.2,0-4,0.7-5.4,2.2c-1.3,1.5-2,3.3-2,5.5
	c0,2.3,1,4.1,2.8,5.5c1.8,1.4,3.8,2,6,2c2.4,0,4.9-0.9,7.2-2.7c2.3-1.8,4.1-4.7,5.3-8.6c1.7-5.3,3.5-10.8,5.3-16.7
	c1.8-5.9,3.7-11.8,5.5-17.8c1.8-6,3.7-11.8,5.4-17.5l10.5-33.3H591.3z M517.9,358.5c0,1.5-0.5,2.7-1.6,3.6c-1.6,1.6-3.3,2.7-5.2,3.2
	c-1.9,0.6-4.2,0.9-6.6,0.9c-2.7,0-4.8-0.9-6.4-2.9c-1.7-2-2.5-4.1-2.5-6.5c0-2.4,0.8-4.5,2.6-6.4c1.8-2,4-3.8,6.4-5.5
	c2.5-1.7,5.1-3.2,7.8-4.7c2.1-1.1,4-2.3,5.6-3.3V358.5z M544.8,361.3c-0.4,1.4-1,2.4-2,3.3c-0.9,0.8-2.5,1.2-4.6,1.2
	c-1.8,0-3.4-0.6-4.8-2c-1.4-1.3-2.1-4.1-2.1-8.3c0-3.4,0-6.5,0.1-9.3c0-2.8,0.1-5.6,0.1-8.3c0-2.7,0-5.5,0.1-8.3
	c0.1-2.9,0.1-6.1,0.1-9.7c0-0.7,0-1.4-0.1-2.1l-0.1-1.5h-14.3l0.4,1.1c0.2,0.4,0.2,0.5,0.2,0.5v14.9c-0.9,0.5-2,1.1-3.2,1.8
	c-1.4,0.8-3.1,1.7-5,2.7c-1.9,1-4.1,2.3-6.7,3.8c-2.5,1.5-5.4,3.3-8.8,5.4c-3.3,2.1-6.2,4.5-8.4,7.2c-2.3,2.7-3.5,5.6-3.5,8.6
	c0,2.7,0.4,5,1.3,6.9c0.9,1.9,2.1,3.5,3.5,4.7c1.4,1.2,3,2.1,4.8,2.5c4.5,1.2,9,0.8,12.7-0.6c2.3-0.9,4.4-2,6.3-3.5
	c1.9-1.4,3.5-3,4.9-4.6c0.8-1,1.6-1.9,2.2-2.8c0.3,4.3,1.7,7.3,4.2,9.2c2.8,2.1,6,3.1,9.5,3.1c2.2,0,4.2-0.4,6.1-1.2
	c1.8-0.8,3.5-2,4.8-3.5c1.4-1.5,2.4-3.2,3.3-5.1c0.8-1.9,1.3-3.8,1.4-5.8l0-0.8h-2.3L544.8,361.3z M303.5,265.7v3.4l0.9,0.1
	c0.9,0.1,1.9,0.2,2.9,0.3c1,0.1,1.9,0.3,2.7,0.6c0.8,0.3,1.4,0.7,2,1.3c0.5,0.6,0.7,1.4,0.7,2.5c0,0.5-0.2,1.7-1,4.4
	c-0.7,2.2-1.5,4.8-2.5,7.6c-1,2.8-2.2,5.9-3.5,9.2c-1.3,3.3-2.6,6.4-3.8,9.5c-1.1,2.8-2.2,5.3-3.1,7.6h4.5c0.3-0.7,0.6-1.5,0.9-2.2
	c1.7-3.9,3.4-7.9,5.1-11.9c1.6-3.9,3.3-7.7,5-11.5c1.6-3.7,3-6.9,4.2-9.6c0.8-1.9,1.8-3.4,2.8-4.4c1-1,2.1-1.8,3.2-2.3
	c1.1-0.5,2.2-0.8,3.3-0.9c1.2-0.1,2.4-0.2,3.6-0.3l0.9-0.1v-3.5H303.5z M291.3,301.1c-1.2-3.3-2.3-6.5-3.4-9.6
	c-1.1-3.1-2.1-6.1-3-8.8c-0.9-2.7-1.6-4.9-2.1-6.6c-0.7-2.3-0.8-3-0.8-3.2c0-0.8,0.2-1.3,0.8-1.6c0.7-0.5,1.6-0.9,2.6-1.1
	c1.1-0.3,2.2-0.5,3.3-0.6l3.8-0.5v-3.4h-35.2v3.5l0.9,0c1.7,0.1,3,0.3,3.9,0.5c0.9,0.2,1.5,0.5,2,0.7c0.5,0.3,0.8,0.6,0.9,0.8
	c0.2,0.3,0.5,0.7,0.8,1c0.9,1.7,1.8,3.4,2.5,5.1c0.7,1.7,1.4,3.4,2.1,5.2c-1.2,3.4-2.5,6.9-3.8,10.3c-1.3,3.6-2.6,7-3.9,10.4
	c-1.3,3.3-2.4,6.3-3.5,9h4.6l8.9-23.2c1.6,4.7,3,8.9,4.3,12.5c1.3,3.9,2.5,7.4,3.6,10.7h14.7c-0.2-0.6-0.4-1.1-0.6-1.7
	C293.6,307.5,292.5,304.4,291.3,301.1L291.3,301.1z M245.9,289.4c-1.9-4.7-3.6-8.8-4.9-12.3c-1-2.8-1.7-4.7-2.1-5.7
	c0.3-0.2,0.7-0.4,1.2-0.6c0.8-0.3,1.6-0.5,2.6-0.8c0.9-0.2,1.8-0.4,2.6-0.5c0.9-0.1,1.8-0.2,2.4-0.3l0.8-0.1v-3.4h-34.8v3.5l0.9,0
	c3.8,0.1,5.3,0.7,6,1.1c1,0.6,1.8,1.2,2.4,1.7c0.7,1.2,1.4,2.6,2.1,4.1c0.7,1.6,1.4,3.1,2,4.4c4.1,9.9,8,19.3,11.5,27.9
	c0.5,1.3,1.1,2.6,1.6,3.9h15.1c-1-2.5-2.1-5-3.2-7.7C250,299.4,247.9,294.3,245.9,289.4L245.9,289.4z M151.7,229.6h-38.2v3.3
	l0.8,0.1c4.5,0.7,8,1.8,10.3,3.4c2.3,1.6,3.9,3.7,4.8,6.2c0.7,1.9,1.2,4.7,1.3,8.1c0.1,3.6,0.1,7.3,0.1,11.2v47.1l-67.6-79l-0.3-0.3
	H32v3.3l0.8,0.1c1.5,0.2,3.1,0.5,4.8,0.9c1.6,0.4,3.1,1.1,4.4,2.1c1.3,0.9,2.5,2.3,3.5,3.9c1,1.7,1.6,3.9,1.9,6.5
	c0.1,2.9,0.1,5.2,0.1,7.1v17.8c0,6.4-0.1,12.6-0.1,18.3c-0.1,5.7-0.3,10.7-0.4,14.8c-0.1,2.8-0.2,5.4-0.4,7.8h5.6
	c-0.1-2.4-0.1-5-0.1-7.8v-59.2c6,6.8,11.8,13.3,17.2,19.6c5.9,6.9,12,14,18.2,21.3c6.2,7.3,12.7,14.9,19.5,22.9
	c0.9,1,1.8,2.1,2.7,3.2h25.6c0-2.6,0-5.3,0-7.9V295c0-6.5,0.1-12.6,0.2-18.3c0.1-5.8,0.3-10.7,0.5-14.8c0.2-4.5,0.4-8.7,0.6-12.6
	c0.2-3.8,0.6-6.4,1.2-7.8c1.1-2.6,2.7-4.6,4.7-5.8c2.1-1.3,4.9-2.2,8.3-2.6l0.8-0.1V229.6z M167.9,282.6c0.8-2.1,2.1-4.2,3.6-6.3
	c1.5-2.1,3.4-3.9,5.5-5.4c2-1.5,4.3-2.2,6.8-2.2c3.9,0,7,1.2,9.3,3.6c2.3,2.4,3.5,5.2,3.5,8.6c0,1.5-0.2,2.3-0.4,2.6
	c-0.3,0.6-0.7,1.2-1.2,1.8c-0.8,0.3-1.8,0.5-2.9,0.6c-1.2,0.1-2.6,0.1-4,0.1c-2.2,0-4.3,0-6.2,0.1l-5.3,0.1
	c-1.6,0.1-3.4,0.1-5.2,0.1h-4.8C166.8,285.3,167.3,284.1,167.9,282.6L167.9,282.6z M166,290.3h47l-0.1-1c-0.3-4.2-1.3-7.9-2.9-11
	c-1.6-3.1-3.7-5.8-6.3-7.8c-2.6-2.1-5.6-3.6-9.1-4.6c-3.4-1-7.1-1.5-11-1.5c-4.8,0-9.3,1-13.2,3.1c-4,2-7.3,4.8-10.1,8.1
	c-2.7,3.3-4.9,7-6.4,11.2c-1.5,4.1-2.2,8.3-2.2,12.5c0,4.6,0.6,9,1.9,13.2h16.2c-0.9-1.8-1.7-3.6-2.4-5.6c-1.1-3.6-1.7-7.5-1.7-11.5
	c0-1,0-2.1,0.1-3.1C165.9,291.5,166,290.9,166,290.3L166,290.3z"/>
<polygon id="Fill-9" points="21.3,316.2 621.3,316.2 621.3,312.3 21.3,312.3 "/>
</svg>
