<svg width="186" height="42" viewBox="0 0 186 42" fill="none" xmlns="http://www.w3.org/2000/svg">
<path fill-rule="evenodd" clip-rule="evenodd" d="M16.6466 36.6126L12.6873 31.1963C12.1013 31.5447 11.4203 31.6714 10.7552 31.5605L9.50403 36.2642C10.3434 36.676 11.0244 37.4203 11.3411 38.3706L16.6466 36.6126Z" fill="#1CA8F3"/>
<path fill-rule="evenodd" clip-rule="evenodd" d="M18.0206 23.6155C17.5138 22.7128 17.4029 21.6042 17.783 20.6064L13.1744 18.4209C12.921 18.7693 12.5409 18.991 12.1291 19.0702L11.9866 25.8486C12.2716 25.9436 12.5567 26.0544 12.8101 26.2287C13.0477 26.387 13.2536 26.5771 13.4278 26.783L18.0206 23.6155Z" fill="#22C4CF"/>
<path fill-rule="evenodd" clip-rule="evenodd" d="M17.0713 11.578C16.6437 11.7047 16.1685 11.6889 15.7409 11.5146L12.9377 16.2341C13.4129 16.6459 13.6029 17.2794 13.4445 17.8812L18.0532 20.0668C18.0848 20.0192 18.1165 19.9559 18.1482 19.9084C18.5283 19.3382 19.0351 18.8948 19.6211 18.6414L17.0713 11.578Z" fill="#22CDBC"/>
<path fill-rule="evenodd" clip-rule="evenodd" d="M28.4309 7.64906L31.2816 4.11736C31.234 4.06985 31.2024 4.02233 31.1549 3.95898L18.7068 9.09025L25.4535 9.05858C25.501 8.78934 25.596 8.50427 25.7702 8.26671C26.3562 7.37983 27.5123 7.1106 28.4309 7.64906Z" fill="#25DDA1"/>
<path fill-rule="evenodd" clip-rule="evenodd" d="M34.4427 18.6419L38.4179 15.2685C37.8794 14.4925 37.6418 13.5106 37.8161 12.5445L29.2164 10.1689C29.1848 10.264 29.1214 10.359 29.0739 10.4382C28.9314 10.6599 28.7572 10.8341 28.5513 10.9766C29.6124 13.0038 31.1961 16.2029 32.2413 18.3093C32.9223 18.0876 33.6984 18.1509 34.3477 18.5785L34.4427 18.6419Z" fill="#22CDBC"/>
<path fill-rule="evenodd" clip-rule="evenodd" d="M33.2109 30.4909L40.4485 28.6063C40.4168 28.2578 40.5119 27.9094 40.7019 27.6243L36.0774 23.3008C34.7471 25.8664 33.4643 28.3212 32.7041 29.7941C32.9417 29.9841 33.1159 30.2217 33.2109 30.4909Z" fill="#1EB1E7"/>
<path fill-rule="evenodd" clip-rule="evenodd" d="M38.8202 15.7139L34.8926 19.0714C35.4786 19.784 35.6211 20.7976 35.1935 21.6528L35.9378 22.3497C37.1098 20.1166 38.3134 17.8519 39.2795 16.1098C39.1211 15.9989 38.9627 15.8564 38.8202 15.7139Z" fill="#22C4CF"/>
<path fill-rule="evenodd" clip-rule="evenodd" d="M13.8124 30.0116L20.3374 34.2401C20.3691 34.1768 20.4007 34.1134 20.4482 34.0501C20.7333 33.6066 21.1768 33.3216 21.6519 33.2107L21.0817 25.4188C20.4166 25.4029 19.7514 25.2129 19.1654 24.8328C18.8487 24.6269 18.5953 24.3894 18.3736 24.1201L13.7808 27.2717C14.2242 28.1111 14.2717 29.1247 13.8124 30.0116Z" fill="#1EB1E7"/>
<path fill-rule="evenodd" clip-rule="evenodd" d="M3.08545 16.3296L9.80044 26.1012C10.2914 25.8478 10.8299 25.7211 11.3842 25.7528L11.5267 19.0536C11.3367 19.0061 11.1466 18.9269 10.9566 18.8161C10.4181 18.4676 10.1647 17.8341 10.2439 17.2323C8.62848 16.6939 6.04701 15.8387 3.9565 15.126C3.75061 15.5853 3.46554 15.997 3.08545 16.3296Z" fill="#22C4CF"/>
<path fill-rule="evenodd" clip-rule="evenodd" d="M14.6688 10.4707L4.16867 12.9255C4.29537 13.4639 4.27953 14.0341 4.15283 14.5567C6.24335 15.2694 8.84066 16.1246 10.4402 16.6631L10.5036 16.5522C10.9312 15.9187 11.7389 15.6653 12.4357 15.9187L15.2389 11.2151C14.9855 11.0092 14.7955 10.7558 14.6688 10.4707Z" fill="#22CDBC"/>
<path fill-rule="evenodd" clip-rule="evenodd" d="M24.086 15.2826L17.7194 11.2441L17.6085 11.3233L20.19 18.4342C20.9185 18.2284 21.7104 18.2759 22.4389 18.5609L24.086 15.2826Z" fill="#22CDBC"/>
<path fill-rule="evenodd" clip-rule="evenodd" d="M27.8565 26.9707L31.3565 22.3145C31.0081 21.9978 30.7863 21.586 30.6755 21.1426L24.6732 21.7761C24.689 22.4254 24.5148 23.0906 24.1664 23.6765L27.8565 26.9707Z" fill="#22C4CF"/>
<path fill-rule="evenodd" clip-rule="evenodd" d="M23.0461 33.3833L27.4964 27.4602L23.8221 24.166C23.252 24.8312 22.4918 25.2429 21.6841 25.3696L22.2542 33.1616C22.5235 33.1774 22.7927 33.2566 23.0461 33.3833Z" fill="#1EB1E7"/>
<path fill-rule="evenodd" clip-rule="evenodd" d="M27.9356 27.8555L23.517 33.7469C23.6753 33.9053 23.7862 34.0795 23.8812 34.2696L30.1053 31.4505C30.0102 31.0229 30.0736 30.5636 30.3428 30.1835C30.3587 30.136 30.3903 30.1044 30.422 30.0568L27.9356 27.8555Z" fill="#1CA8F3"/>
<path fill-rule="evenodd" clip-rule="evenodd" d="M31.8357 22.6779L28.304 27.3657L30.8854 29.6621C31.2655 29.4404 31.7406 29.3771 32.1682 29.5196C32.9601 28.0151 34.2588 25.5128 35.6366 22.8838L34.8606 22.1553C34.1162 23.0263 32.8334 23.2639 31.8357 22.6779Z" fill="#22C4CF"/>
<path fill-rule="evenodd" clip-rule="evenodd" d="M18.1345 10.7985L24.3586 14.742L26.2749 10.9569C25.8156 10.6401 25.5463 10.165 25.4672 9.6582L18.4671 9.68988C18.4671 10.07 18.3721 10.4342 18.1504 10.7668L18.1345 10.7985Z" fill="#22CDBC"/>
<path fill-rule="evenodd" clip-rule="evenodd" d="M20.1459 34.8234L13.4942 30.5156C13.3834 30.6265 13.2884 30.7373 13.1775 30.8482L17.2477 36.4229L20.1459 35.4568C20.1142 35.251 20.1142 35.0292 20.1459 34.8234Z" fill="#1CA8F3"/>
<path fill-rule="evenodd" clip-rule="evenodd" d="M30.3615 31.9932L24.0582 34.8597C24.0899 35.0498 24.0899 35.2398 24.0582 35.4457L31.4384 37.7738C31.771 36.9661 32.4045 36.3009 33.1963 35.9208L31.9769 32.69C31.5809 32.7534 31.1692 32.6742 30.8049 32.4366C30.6148 32.3257 30.4723 32.1674 30.3615 31.9932Z" fill="#1CA8F3"/>
<path fill-rule="evenodd" clip-rule="evenodd" d="M31.1654 19.0525C31.3238 18.8625 31.5139 18.7041 31.7039 18.5774C30.6586 16.4077 29.0591 13.1294 28.1247 11.1973C27.6971 11.3556 27.2378 11.3715 26.7944 11.2448L24.8781 15.0616L31.1654 19.0525Z" fill="#22CDBC"/>
<path fill-rule="evenodd" clip-rule="evenodd" d="M30.9957 2.50228C28.1766 0.981909 24.9458 0.0791862 21.5408 0H21.525C21.5567 0.696839 21.3666 1.42535 20.939 2.05884C20.2105 3.16745 18.9594 3.73759 17.7241 3.64257L17.0906 7.79192C17.2648 7.83944 17.4232 7.91862 17.5815 8.02948C17.8349 8.20369 18.0408 8.40958 18.1833 8.66297L30.9323 3.40501C30.869 3.08826 30.9007 2.78735 30.9957 2.50228Z" fill="#25DDA1"/>
<path fill-rule="evenodd" clip-rule="evenodd" d="M39.1463 10.3902C37.7368 7.99876 35.868 5.8924 33.6666 4.22949C33.4608 4.43538 33.1915 4.59375 32.8906 4.6571C32.4788 4.75212 32.0829 4.68877 31.7503 4.49873L28.8838 8.01459C29.2639 8.4422 29.4539 9.02818 29.3906 9.58248L37.9902 11.9581C38.2278 11.3087 38.6237 10.7861 39.1463 10.3902Z" fill="#22D4B2"/>
<path fill-rule="evenodd" clip-rule="evenodd" d="M41.0968 27.1639C41.6986 25.2159 42.0154 23.1412 42.0154 21.0032C42.0154 19.5461 41.8728 18.1208 41.5878 16.743C41.1285 16.7746 40.6534 16.7271 40.1941 16.5687C40.0357 16.5212 39.8932 16.4579 39.7507 16.3945C38.8004 18.1366 37.5651 20.4647 36.3773 22.7611L41.0968 27.1639Z" fill="#22C4CF"/>
<path fill-rule="evenodd" clip-rule="evenodd" d="M35.915 35.7957C37.7679 33.9269 39.2725 31.7097 40.3335 29.2549L33.3335 31.0762C33.3335 31.3929 33.2385 31.6938 33.0643 31.9789C32.9217 32.1848 32.7475 32.359 32.5416 32.4857L33.7453 35.7165C34.1254 35.6056 34.5213 35.5581 34.9172 35.5898C35.2656 35.6056 35.6141 35.6848 35.915 35.7957Z" fill="#1CA8F3"/>
<path fill-rule="evenodd" clip-rule="evenodd" d="M22.537 41.9526C25.657 41.7309 28.5869 40.8282 31.1683 39.387C31.1525 39.2286 31.1525 39.0861 31.1683 38.9277C31.1842 38.7218 31.2 38.5318 31.2475 38.3417L23.8832 36.0137C23.8357 36.0929 23.804 36.1562 23.7565 36.2196C23.4398 36.6947 22.9646 36.9956 22.442 37.0906L22.537 41.9526Z" fill="#1B9EFC"/>
<path fill-rule="evenodd" clip-rule="evenodd" d="M21.3144 41.9999C21.5203 41.9999 21.7262 41.9999 21.9321 41.9841L21.8371 37.1062C21.552 37.0587 21.2669 36.9637 20.9977 36.7895C20.7126 36.5994 20.4751 36.3302 20.3325 36.0293L17.6085 36.932L21.3144 41.9999Z" fill="#1B9EFC"/>
<path fill-rule="evenodd" clip-rule="evenodd" d="M11.5002 39.7333C14.24 41.1269 17.3124 41.9346 20.5749 41.998L17.0115 37.1201L11.4685 38.9572C11.5002 39.2106 11.516 39.4799 11.5002 39.7333Z" fill="#1B9EFC"/>
<path fill-rule="evenodd" clip-rule="evenodd" d="M1.02856 27.493C2.12133 30.8504 4.0218 33.8278 6.52409 36.2034C6.74581 36.1084 6.98337 36.0292 7.23676 35.9817C7.82274 35.8709 8.39288 35.9025 8.93135 36.0451L10.1667 31.4047C9.97661 31.3414 9.78656 31.2305 9.59651 31.1197C8.59877 30.4545 8.13949 29.2984 8.32953 28.2056L1.18694 27.1445C1.15526 27.2554 1.09191 27.3821 1.02856 27.493Z" fill="#1EB1E7"/>
<path fill-rule="evenodd" clip-rule="evenodd" d="M0.332582 17.2348C0.110861 18.4542 0 19.7212 0 21.004C0 22.4294 0.142535 23.823 0.411768 25.1692C0.45928 25.2009 0.506792 25.2167 0.554304 25.2484C0.997746 25.5493 1.26698 26.0403 1.28282 26.5471L8.48876 27.624C8.55211 27.4339 8.64713 27.2439 8.77383 27.0697C8.91637 26.8321 9.10641 26.6262 9.3123 26.452L2.61315 16.6963C2.50228 16.7755 2.40726 16.823 2.2964 16.8863C1.66291 17.2031 0.981909 17.3139 0.332582 17.2348Z" fill="#20BADA"/>
<path fill-rule="evenodd" clip-rule="evenodd" d="M5.35215 7.00267C4.32273 8.14295 3.42001 9.3941 2.67566 10.7403C3.16661 11.0728 3.59422 11.5321 3.87929 12.1181C3.91096 12.1973 3.95848 12.2606 3.99015 12.3398L14.5219 9.88505C14.4902 9.67917 14.5061 9.45745 14.5536 9.25156L7.64855 6.51172C7.34765 7.00267 6.79334 7.31942 6.17569 7.27191C5.87478 7.25607 5.58971 7.16105 5.35215 7.00267Z" fill="#22D4B2"/>
<path fill-rule="evenodd" clip-rule="evenodd" d="M14.5374 1.01367C12.0034 1.82137 9.65952 3.12002 7.64819 4.78294C7.8224 5.05217 7.91743 5.38475 7.90159 5.74901C7.90159 5.81236 7.88575 5.89154 7.86991 5.95489L14.775 8.6789L14.8383 8.59971C15.2184 8.01373 15.8519 7.69699 16.4854 7.69699L17.1347 3.56347C16.7388 3.46844 16.3745 3.29423 16.0103 3.07251C15.2501 2.56572 14.7433 1.82137 14.5374 1.01367Z" fill="#25DDA1"/>
<path fill-rule="evenodd" clip-rule="evenodd" d="M23.0784 18.8928C23.902 19.4471 24.4246 20.2865 24.6146 21.1892L30.6169 20.5399C30.6328 20.2073 30.6961 19.8747 30.8545 19.5579L24.5988 15.5986L22.9834 18.8294L23.0784 18.8928Z" fill="#22C4CF"/>
<path fill-rule="evenodd" clip-rule="evenodd" d="M22.0941 34.1426C22.6325 34.1426 23.0918 34.586 23.0918 35.1403C23.0918 35.6946 22.6325 36.1381 22.0941 36.1381C21.5398 36.1381 21.0963 35.6946 21.0963 35.1403C21.0963 34.586 21.5398 34.1426 22.0941 34.1426Z" fill="#1B9EFC"/>
<path fill-rule="evenodd" clip-rule="evenodd" d="M11.1674 26.9434C12.1018 26.9434 12.8461 27.7035 12.8461 28.6379C12.8461 29.5565 12.1018 30.3167 11.1674 30.3167C10.233 30.3167 9.48865 29.5565 9.48865 28.6379C9.48865 27.7035 10.233 26.9434 11.1674 26.9434Z" fill="#1EB1E7"/>
<path fill-rule="evenodd" clip-rule="evenodd" d="M21.1285 19.8594C22.2529 19.8594 23.1557 20.7621 23.1557 21.8865C23.1557 23.011 22.2529 23.9137 21.1285 23.9137C20.004 23.9137 19.1013 23.011 19.1013 21.8865C19.1013 20.7621 20.004 19.8594 21.1285 19.8594Z" fill="#22C4CF"/>
<path fill-rule="evenodd" clip-rule="evenodd" d="M33.0353 19.4033C33.7321 19.4033 34.3023 19.9735 34.3023 20.6703C34.3023 21.3671 33.7321 21.9373 33.0353 21.9373C32.3385 21.9373 31.7683 21.3671 31.7683 20.6703C31.7683 19.9735 32.3385 19.4033 33.0353 19.4033Z" fill="#22C4CF"/>
<path fill-rule="evenodd" clip-rule="evenodd" d="M11.8612 16.5186C12.368 16.5186 12.7797 16.9303 12.7797 17.4371C12.7797 17.9439 12.368 18.3557 11.8612 18.3557C11.3544 18.3557 10.9426 17.9439 10.9426 17.4371C10.9426 16.9303 11.3544 16.5186 11.8612 16.5186Z" fill="#22C4CF"/>
<path fill-rule="evenodd" clip-rule="evenodd" d="M16.4721 8.69238C17.0423 8.69238 17.4857 9.13583 17.4857 9.69013C17.4857 10.2603 17.0423 10.7037 16.4721 10.7037C15.9178 10.7037 15.4744 10.2603 15.4744 9.69013C15.4744 9.13583 15.9178 8.69238 16.4721 8.69238Z" fill="#25DDA1"/>
<path fill-rule="evenodd" clip-rule="evenodd" d="M27.4157 8.29785C28.0017 8.29785 28.4768 8.77297 28.4768 9.35895C28.4768 9.94493 28.0017 10.42 27.4157 10.42C26.8298 10.42 26.3705 9.94493 26.3705 9.35895C26.3705 8.77297 26.8298 8.29785 27.4157 8.29785Z" fill="#22D4B2"/>
<path fill-rule="evenodd" clip-rule="evenodd" d="M31.71 30.2529C32.1535 30.2529 32.5177 30.6172 32.5177 31.0606C32.5177 31.5041 32.1535 31.8683 31.71 31.8683C31.2666 31.8683 30.9023 31.5041 30.9023 31.0606C30.9023 30.6172 31.2666 30.2529 31.71 30.2529Z" fill="#1CA8F3"/>
<path fill-rule="evenodd" clip-rule="evenodd" d="M57.8204 20.4797C57.6779 20.3372 57.5354 20.1788 57.4087 20.0204C57.282 19.8462 57.1553 19.6878 57.0286 19.5611C56.886 19.3869 56.7593 19.2285 56.6168 19.0543C56.6326 19.2444 56.6485 19.4503 56.6643 19.672C56.696 19.8462 56.7118 20.0362 56.7277 20.258C56.7435 20.4797 56.7435 20.6856 56.7435 20.8915V27.9232H54.9064V15.0317H55.1756L62.2073 22.6019C62.334 22.7286 62.4607 22.8869 62.5874 23.0612C62.7141 23.2195 62.8567 23.3779 62.9675 23.5204C63.1101 23.6946 63.2526 23.853 63.3793 24.0272C63.3635 23.8055 63.3318 23.5838 63.3159 23.3621C63.2843 23.172 63.2684 22.982 63.2684 22.7602C63.2526 22.5544 63.2526 22.3643 63.2526 22.1743V15.1584H65.0897V28.0499H64.8522L57.8204 20.4797ZM181.018 28.0974C180.416 28.0974 179.878 28.0182 179.387 27.8915C178.896 27.749 178.469 27.5589 178.088 27.3214C177.708 27.0838 177.376 26.7987 177.091 26.482C176.821 26.1653 176.6 25.8327 176.426 25.4684L178.057 24.5657C178.358 25.0566 178.722 25.4843 179.165 25.8327C179.593 26.1811 180.211 26.3395 180.987 26.3395C181.636 26.3395 182.159 26.1811 182.57 25.8643C182.982 25.5476 183.188 25.12 183.188 24.5974C183.188 24.3281 183.156 24.0747 183.061 23.8689C182.966 23.663 182.824 23.4729 182.65 23.3146C182.459 23.1403 182.238 22.982 181.984 22.8394C181.715 22.6811 181.414 22.5385 181.066 22.3802L180.226 22.0001C179.751 21.81 179.34 21.5883 178.975 21.3507C178.611 21.129 178.294 20.8598 178.041 20.5747C177.788 20.2738 177.597 19.9412 177.455 19.5611C177.312 19.181 177.249 18.7534 177.249 18.2625C177.249 17.7874 177.328 17.3597 177.518 16.9638C177.692 16.5679 177.93 16.2195 178.247 15.9344C178.548 15.6493 178.928 15.4276 179.371 15.2534C179.815 15.095 180.306 15.0158 180.828 15.0158C181.683 15.0158 182.396 15.1742 182.982 15.5068C183.568 15.8394 184.043 16.3462 184.439 17.043L182.871 17.9932C182.634 17.5656 182.349 17.2647 182.048 17.0588C181.731 16.853 181.335 16.7579 180.828 16.7579C180.321 16.7579 179.91 16.9005 179.625 17.1697C179.324 17.4548 179.181 17.8032 179.181 18.2308C179.181 18.7059 179.324 19.086 179.609 19.3711C179.894 19.6403 180.369 19.9095 181.018 20.1788L181.842 20.5589C182.38 20.7964 182.855 21.0498 183.283 21.3032C183.695 21.5566 184.043 21.8417 184.328 22.1584C184.613 22.4593 184.819 22.8236 184.962 23.2195C185.12 23.5996 185.184 24.0589 185.184 24.5657C185.184 25.1358 185.088 25.6268 184.867 26.0702C184.661 26.5137 184.376 26.8779 183.996 27.1788C183.631 27.4797 183.188 27.7015 182.681 27.8598C182.174 28.0182 181.62 28.0974 181.018 28.0974ZM167.763 22.301C167.889 22.0001 168.048 21.6992 168.222 21.3824C168.396 21.0498 168.57 20.7806 168.729 20.5747L172.862 15.1584H175.111L170.582 21.129L175.618 27.9232H173.211L169.267 22.6019L167.905 24.2648V27.9232H165.91V15.1584H167.905V20.4163C167.905 20.7014 167.889 21.0182 167.858 21.3824C167.826 21.7308 167.794 22.0317 167.763 22.301ZM155.568 20.4797C155.425 20.3372 155.283 20.1788 155.156 20.0204C155.029 19.8462 154.903 19.6878 154.776 19.5611C154.633 19.3869 154.491 19.2285 154.364 19.0543C154.364 19.2444 154.396 19.4503 154.412 19.672C154.443 19.8462 154.459 20.0362 154.475 20.258C154.491 20.4797 154.491 20.6856 154.491 20.8915V27.9232H152.654V15.0317H152.907L159.955 22.6019C160.081 22.7286 160.208 22.8869 160.335 23.0612C160.462 23.2195 160.588 23.3779 160.715 23.5204C160.857 23.6946 161 23.853 161.127 24.0272C161.111 23.8055 161.079 23.5838 161.063 23.3621C161.032 23.172 161.016 22.982 161.016 22.7602C161 22.5544 161 22.3643 161 22.1743V15.1584H162.837V28.0499H162.6L155.568 20.4797ZM147.554 15.1584H149.534V27.9232H147.554V15.1584ZM137.26 15.1584H139.256V26.1811H145.147V27.9232H137.26V15.1584ZM124.131 21.6358C123.45 22.0001 122.943 22.3802 122.611 22.8078C122.294 23.2195 122.135 23.7263 122.135 24.3281C122.135 24.9616 122.326 25.4526 122.737 25.8168C123.149 26.1653 123.751 26.3395 124.574 26.3395C125.572 26.3395 126.443 26.0227 127.172 25.3734L124.131 21.6358ZM124.859 19.6878C125.398 19.4028 125.778 19.1018 126.047 18.8009C126.301 18.5 126.427 18.1674 126.427 17.7874C126.427 17.4231 126.316 17.1222 126.079 16.9005C125.857 16.6787 125.572 16.5679 125.208 16.5679C124.844 16.5679 124.543 16.6787 124.305 16.9163C124.068 17.138 123.941 17.4389 123.941 17.8032C123.941 18.1358 124.02 18.4208 124.147 18.6901C124.273 18.9435 124.448 19.1969 124.654 19.4344L124.859 19.6878ZM128.264 23.853C128.423 23.4571 128.55 23.0453 128.645 22.586C128.724 22.1268 128.771 21.62 128.771 21.0815H130.545C130.545 21.905 130.45 22.6811 130.26 23.3937C130.07 24.1064 129.801 24.7557 129.468 25.31L131.59 27.9232H129.231L128.264 26.7196C127.758 27.163 127.188 27.4956 126.57 27.7331C125.952 27.9707 125.287 28.0974 124.574 28.0974C123.862 28.0974 123.244 28.0024 122.674 27.8282C122.12 27.654 121.66 27.4006 121.264 27.0838C120.884 26.7671 120.583 26.387 120.378 25.9435C120.187 25.5001 120.077 25.0091 120.077 24.4707C120.077 23.9797 120.156 23.5521 120.282 23.172C120.425 22.7919 120.631 22.4435 120.9 22.1268C121.169 21.8259 121.502 21.5408 121.882 21.2874C122.278 21.0182 122.706 20.7648 123.197 20.5114C122.816 20.0521 122.547 19.5928 122.389 19.1652C122.215 18.7218 122.135 18.2783 122.135 17.8349C122.135 17.4389 122.199 17.0747 122.341 16.7263C122.468 16.3937 122.674 16.0928 122.927 15.8394C123.197 15.586 123.513 15.3959 123.893 15.2376C124.273 15.095 124.685 15.0158 125.16 15.0158C125.62 15.0158 126.031 15.0792 126.396 15.2217C126.76 15.3643 127.077 15.5543 127.346 15.7919C127.599 16.0294 127.805 16.3303 127.948 16.6629C128.09 16.9955 128.169 17.3756 128.169 17.7874C128.169 18.4208 127.979 18.9751 127.583 19.4819C127.188 19.9729 126.602 20.4322 125.826 20.8439L128.264 23.853ZM110.574 28.0974C109.972 28.0974 109.434 28.0182 108.943 27.8915C108.452 27.749 108.009 27.5589 107.629 27.3214C107.248 27.0838 106.932 26.7987 106.647 26.482C106.377 26.1653 106.156 25.8327 105.981 25.4684L107.613 24.5657C107.914 25.0566 108.278 25.4843 108.721 25.8327C109.149 26.1811 109.751 26.3395 110.527 26.3395C111.176 26.3395 111.715 26.1811 112.126 25.8643C112.538 25.5476 112.744 25.12 112.744 24.5974C112.744 24.3281 112.696 24.0747 112.601 23.8689C112.506 23.663 112.38 23.4729 112.19 23.3146C112.015 23.1403 111.794 22.982 111.525 22.8394C111.271 22.6811 110.97 22.5385 110.622 22.3802L109.767 22.0001C109.307 21.81 108.896 21.5883 108.531 21.3507C108.167 21.129 107.85 20.8598 107.597 20.5747C107.343 20.2738 107.138 19.9412 107.011 19.5611C106.868 19.181 106.805 18.7534 106.805 18.2625C106.805 17.7874 106.884 17.3597 107.058 16.9638C107.233 16.5679 107.486 16.2195 107.787 15.9344C108.104 15.6493 108.484 15.4276 108.927 15.2534C109.371 15.095 109.862 15.0158 110.384 15.0158C111.239 15.0158 111.952 15.1742 112.538 15.5068C113.108 15.8394 113.599 16.3462 113.979 17.043L112.427 17.9932C112.174 17.5656 111.905 17.2647 111.588 17.0588C111.287 16.853 110.891 16.7579 110.384 16.7579C109.877 16.7579 109.466 16.9005 109.181 17.1697C108.88 17.4548 108.737 17.8032 108.737 18.2308C108.737 18.7059 108.88 19.086 109.165 19.3711C109.45 19.6403 109.925 19.9095 110.574 20.1788L111.398 20.5589C111.936 20.7964 112.411 21.0498 112.839 21.3032C113.251 21.5566 113.599 21.8417 113.884 22.1584C114.169 22.4593 114.375 22.8236 114.518 23.2195C114.66 23.5996 114.739 24.0589 114.739 24.5657C114.739 25.1358 114.629 25.6268 114.423 26.0702C114.217 26.5137 113.932 26.8779 113.552 27.1788C113.172 27.4797 112.744 27.7015 112.237 27.8598C111.73 28.0182 111.176 28.0974 110.574 28.0974ZM96.0357 15.1584H104.129V16.9163H98.0153V20.6856H103.448V22.396H98.0153V26.1811H104.129V27.9232H96.0357V15.1584ZM86.6125 26.1811C87.4361 26.1811 88.1646 26.0702 88.7664 25.8327C89.384 25.611 89.8908 25.2942 90.3026 24.8824C90.6985 24.4707 90.9994 23.9797 91.2053 23.4096C91.3954 22.8394 91.4904 22.2218 91.4904 21.5408C91.4904 20.8756 91.3954 20.2421 91.2053 19.672C90.9994 19.1018 90.6985 18.6109 90.3026 18.1991C89.8908 17.7874 89.384 17.4706 88.7664 17.2489C88.1646 17.0272 87.4361 16.9163 86.6125 16.9163H85.2188V26.1811H86.6125ZM83.2392 15.1584H86.7392C87.7686 15.1584 88.703 15.3167 89.5424 15.6177C90.3818 15.9344 91.0945 16.362 91.6804 16.9163C92.2823 17.4706 92.7415 18.1516 93.0741 18.9435C93.3909 19.7195 93.5492 20.5905 93.5492 21.5408C93.5492 22.5069 93.3909 23.3779 93.0741 24.1539C92.7415 24.9458 92.2823 25.611 91.6804 26.1653C91.0945 26.7196 90.3818 27.163 89.5424 27.4639C88.703 27.7648 87.7686 27.9232 86.7392 27.9232H83.2392V15.1584ZM74.1803 26.3078C74.8296 26.3078 75.4473 26.1811 76.0016 25.9435C76.5559 25.706 77.031 25.3576 77.4428 24.9458C77.8387 24.5182 78.1554 24.0114 78.3772 23.4254C78.5989 22.8553 78.7097 22.2218 78.7097 21.5408C78.7097 20.8756 78.5989 20.2421 78.3772 19.6561C78.1554 19.0702 77.8387 18.5792 77.4428 18.1516C77.031 17.724 76.5559 17.3914 76.0016 17.138C75.4473 16.9005 74.8296 16.7738 74.1803 16.7738C73.5151 16.7738 72.8975 16.9005 72.3432 17.138C71.773 17.3914 71.2979 17.724 70.8861 18.1516C70.4902 18.5792 70.1735 19.0702 69.9517 19.6561C69.73 20.2421 69.6192 20.8756 69.6192 21.5408C69.6192 22.2218 69.73 22.8553 69.9517 23.4254C70.1735 24.0114 70.4902 24.5182 70.8861 24.9458C71.2979 25.3576 71.773 25.706 72.3432 25.9435C72.8975 26.1811 73.5151 26.3078 74.1803 26.3078ZM74.1803 28.0974C73.2617 28.0974 72.4065 27.9232 71.5988 27.6064C70.807 27.2739 70.1101 26.8304 69.5083 26.2444C68.9223 25.6585 68.4472 24.9775 68.0988 24.1698C67.7662 23.3621 67.592 22.491 67.592 21.5408C67.592 20.5905 67.7662 19.7195 68.0988 18.9118C68.4472 18.1199 68.9223 17.4231 69.5083 16.8371C70.1101 16.267 70.807 15.8077 71.5988 15.491C72.4065 15.1584 73.2617 15 74.1803 15C75.083 15 75.9382 15.1584 76.7301 15.491C77.5219 15.8077 78.2188 16.267 78.8206 16.8371C79.4066 17.4231 79.8817 18.1199 80.2301 18.9118C80.5627 19.7195 80.7369 20.5905 80.7369 21.5408C80.7369 22.491 80.5627 23.3621 80.2301 24.1698C79.8817 24.9775 79.4066 25.6585 78.8206 26.2444C78.2188 26.8304 77.5219 27.2739 76.7301 27.6064C75.9382 27.9232 75.083 28.0974 74.1803 28.0974Z" fill="#595959"/>
</svg>
