<?xml version="1.0" encoding="utf-8"?>
<!-- Generator: Adobe Illustrator 19.2.1, SVG Export Plug-In . SVG Version: 6.00 Build 0)  -->
<svg version="1.1" id="layer" xmlns="http://www.w3.org/2000/svg" xmlns:xlink="http://www.w3.org/1999/xlink" x="0px" y="0px"
	 viewBox="0 0 652 652" style="enable-background:new 0 0 652 652;" xml:space="preserve">
<style type="text/css">
	.st0{fill:#172B38;}
</style>
<path class="st0" d="M312.3,228.6h22.1c1.7,0,3.1,1.4,3.1,3.1v186c0,1.7-1.4,3.1-3.1,3.1h-22.1c-1.7,0-3.1-1.4-3.1-3.1v-186
	C309.2,230,310.6,228.6,312.3,228.6z M612.3,296.2c-12.2-12.3-26.4-15.4-40.3-15.4c-13.9,0-28.1,3.1-40.3,15.4
	c-8.8,8.9-14.6,20.4-14.6,35v84.8c0,1.7,1.4,3.1,3.1,3.1h21c1.7,0,3.1-1.4,3.1-3.1v-79.5c0-20.9,12-30.2,27.3-30.2h0.8
	c15.3,0,27.3,9.4,27.3,30.2v79.5c0,1.7,1.4,3.1,3.1,3.1h21c1.7,0,3.1-1.4,3.1-3.1v-84.8C627,316.6,621.1,305.1,612.3,296.2z
	 M426.7,280.8c-39.1,0-70.9,31.6-70.9,70.8s31.6,70.9,70.8,70.9c16.7,0,32.9-5.9,45.7-16.7v10.2c0,1.7,1.4,3.1,3.1,3.1h18.9
	c1.7,0,3.1-1.4,3.1-3.1v-64.3l0,0C497.5,312.5,465.8,280.8,426.7,280.8z M426.7,396.3c-24.7,0-44.7-20-44.7-44.7s20-44.7,44.7-44.7
	s44.7,20,44.7,44.7C471.4,376.3,451.4,396.3,426.7,396.3z M232.8,228.6h-69.1c-1.7,0-3.1,1.4-3.1,3.1v184.2c0,1.7,1.4,3.1,3.1,3.1
	h22.6c1.7,0,3.1-1.4,3.1-3.1v-72h43.3c37.2,0,61-24.3,61-57.5S270,228.6,232.8,228.6z M231.2,317.9h-41.7v-63.4h41.7
	c20.3,0,33.7,11.5,33.7,31.8C264.9,306.4,251.6,317.9,231.2,317.9L231.2,317.9z M122.3,296.2c-12.2-12.3-26.4-15.4-40.3-15.4
	s-28.1,3.1-40.3,15.4c-8,7.8-13.1,18.1-14.4,29.3c-0.2,1.9-0.3,3.8-0.3,5.7v6.9c0,0.4,0.1,0.8,0.4,1.2l6.7,10
	c0.1,0.1,0.3,0.2,0.4,0.2h19.3c0.3,0,0.5-0.2,0.5-0.5v-12.5l0,0c0-20.9,12-30.2,27.3-30.2h0.8c15.3,0,27.3,9.4,27.3,30.2v79.6
	c0,1.7,1.4,3.1,3.1,3.1h21c1.7,0,3.1-1.4,3.1-3.1v-84.8C137,316.6,131.1,305.1,122.3,296.2z M27,345.9v10c0,0.1,0,0.2,0.1,0.3
	l6.9,10.4c0.1,0.1,0.3,0.2,0.4,0.2h19.3c0.3,0,0.5-0.2,0.5-0.5v-10.8c0-0.3-0.2-0.5-0.5-0.5H34.5c-0.2,0-0.3-0.1-0.4-0.2l-6.1-9.1
	c-0.1-0.3-0.5-0.3-0.7-0.2C27.1,345.5,27,345.7,27,345.9z M27,398.1v9.5c0,0.4,0.1,0.8,0.4,1.2l6.7,10c0.1,0.1,0.3,0.2,0.4,0.2h19.3
	c0.3,0,0.5-0.2,0.5-0.5v-10.9c0-0.3-0.2-0.5-0.5-0.5H34.5c-0.2,0-0.3-0.1-0.4-0.2l-6.1-9.1c-0.1-0.3-0.4-0.4-0.7-0.2
	C27.1,397.7,27,397.9,27,398.1z M27,380.7v10c0,0.1,0,0.2,0.1,0.3l6.9,10.4c0.1,0.1,0.3,0.2,0.4,0.2h19.3c0.3,0,0.5-0.2,0.5-0.5
	v-10.9c0-0.3-0.2-0.5-0.5-0.5H34.5c-0.2,0-0.3-0.1-0.4-0.2l-6.1-9.1c-0.1-0.3-0.5-0.4-0.7-0.2C27.1,380.3,27,380.5,27,380.7z
	 M27,363.3v10c0,0.1,0,0.2,0.1,0.3L34,384c0.1,0.1,0.3,0.2,0.4,0.2h19.3c0.3,0,0.5-0.2,0.5-0.5v-10.9c0-0.3-0.2-0.5-0.5-0.5H34.5
	c-0.2,0-0.3-0.1-0.4-0.2L28,363c-0.1-0.3-0.5-0.4-0.7-0.2C27.1,362.9,27,363.1,27,363.3z"/>
</svg>
