<svg enable-background="new 0 0 652 652" viewBox="0 0 652 652" xmlns="http://www.w3.org/2000/svg"><path d="m120.5 317.6c0 25.4-18.6 45.9-47.5 45.9-26.2 0-46.5-19.9-46.5-45.3 0-26.7 20.8-45.3 47-45.3s47 19.3 47 44.7m-47.1 28.8c15.6 0 26.7-12.6 26.7-28.2s-10-28.2-26.7-28.2c-16.4 0-26.7 12.6-26.7 28.2s11 28.2 26.7 28.2m275.1-28.8c0 25.4-18.6 45.9-47.5 45.9-26.2 0-46.5-19.9-46.5-45.3 0-26.7 20.8-45.3 47-45.3s47 19.3 47 44.7m-47.1 28.8c15.6 0 26.7-12.6 26.7-28.2s-9.9-28.2-26.7-28.2c-16.4 0-26.7 12.6-26.7 28.2s11 28.2 26.7 28.2m150.8-19.8s0-34.7 0-43.7c1.6-12.6 19.4-5.8 19.4-5.8v46.8c0 14.6 10 21.8 22.3 21.8s22.3-6.9 22.3-21.8c0 0 .1-32 .1-41 1.6-12.6 19.4-5.8 19.4-5.8v30.1c2.5 37.1 38 39.9 38 39.9 35.3 4.9 32.2-9.6 32.2-9.6-.9-7.3-6.4-9-15.8-10.2-5.8-.7-10.9-1.3-10.9-1.3-37.9-2.4-34.2-27.4-34.2-27.4.5-21.1 23.1-24.4 23.1-24.4 20-3.6 34.1-.1 34.1-.1 31.1 6.5 15.8 21.2 13.2 22.1 0 0-8.3-7.6-27.7-8.7-23.9-1.5-23.5 9.7-23.5 9.7-.8 8.2 9.8 9.7 9.8 9.7l25.6 3.6c30.2 4.2 26.5 25.7 26.5 25.7-2 26.8-33.9 27-33.9 27-43.7 2.5-60.1-20.2-60.1-20.2-6.1 12.2-18.3 20.3-38.7 20.3-24.2 0-41.3-13.6-41.3-37.9m-283.9-51.1c-34.9 2.5-42.9 35-42.1 44.4-.5 14.3 9.5 44.8 48.1 44.8 5.1-.1 9.7-.6 14-1.3v-17.3c-3.7.7-8.2 1.1-13.6 1.2-18 .5-28.3-14.3-28.2-27.4 0-15.1 12.4-27.5 28.2-27.4h31.2l.1 42.8s-2.3 36.2 43.5 28.6v-17.2c-25.4 5.5-24-10.5-24-10.5v-43.6h24v-17.1h-24v-20.2h-19.4v20.2zm205.4 115.2c-1.6 12.6-19.4 5.8-19.4 5.8v-77.1c1.1-24.6 15.8-44.6 46.2-45.3 26.8-.6 46 19.3 46.1 44.7.2 26.9-18.7 46.9-46.5 45.7-9.9-.5-19.6-4.5-26.3-13.1 0 0-.1 30.3-.1 39.3m26.3-43c15.4 0 26.4-12.6 26.4-28.2s-9.9-28.2-26.4-28.2c-16.2 0-26.4 12.6-26.4 28.2s10.8 28.2 26.4 28.2" fill="#0b0027"/></svg>