<svg xmlns="http://www.w3.org/2000/svg" xmlns:xlink="http://www.w3.org/1999/xlink" heigth="100%" class="logo_component" viewBox="0 0 72 17.1"><path d="m12.99,0H4.1C1.83,0,0,1.83,0,4.1v8.9c0,2.26,1.83,4.1,4.1,4.1h8.9c2.26,0,4.1-1.83,4.1-4.1V4.1c0-2.26-1.83-4.1-4.1-4.1Zm-1.98,14.74c-2.06,0-3.73-1.67-3.73-3.73s1.67-3.73,3.73-3.73,3.73,1.67,3.73,3.73-1.67,3.73-3.73,3.73Z" fill="currentColor"/><path d="m30.57,16.07c-4.25,0-7.53-2.73-7.53-7.53s3.28-7.53,7.53-7.53,7.51,2.81,7.51,7.53-3.3,7.53-7.51,7.53Zm-4.25-7.53c0,2.89,1.58,4.69,4.25,4.69s4.23-1.8,4.23-4.69-1.62-4.69-4.23-4.69-4.25,1.78-4.25,4.69Z" fill="currentColor"/><path d="m39.4,15.83V1.26h5.63c4.59,0,7.43,2.81,7.43,7.29s-2.83,7.29-7.59,7.29h-5.46Zm3.14-2.79h2.25c3,0,4.41-1.74,4.41-4.49s-1.4-4.49-4.25-4.49h-2.41v8.99Z" fill="currentColor"/><path d="m53.78,15.83V1.26h3.14v14.57h-3.14Z" fill="currentColor"/><path d="m58.77,15.83V1.26h4.8l5.2,11.11h.28V1.26h2.95v14.57h-4.86l-5.18-11.05h-.24v11.05h-2.95Z" fill="currentColor"/></svg>