<?xml version="1.0" encoding="UTF-8" standalone="no"?>
<!-- Created with Inkscape (http://www.inkscape.org/) -->

<svg
   xmlns:dc="http://purl.org/dc/elements/1.1/"
   xmlns:cc="http://creativecommons.org/ns#"
   xmlns:rdf="http://www.w3.org/1999/02/22-rdf-syntax-ns#"
   xmlns:svg="http://www.w3.org/2000/svg"
   xmlns="http://www.w3.org/2000/svg"
   xmlns:sodipodi="http://sodipodi.sourceforge.net/DTD/sodipodi-0.dtd"
   xmlns:inkscape="http://www.inkscape.org/namespaces/inkscape"
   width="999.99994"
   height="370.78217"
   id="svg4520"
   version="1.1"
   inkscape:version="0.48.5 r10040"
   sodipodi:docname="New document 4">
  <defs
     id="defs4522">
    <clipPath
       clipPathUnits="userSpaceOnUse"
       id="clipPath4327">
      <path
         inkscape:connector-curvature="0"
         d="m 0,125.99 0,-126.59712 235.32,0 0,126.59712"
         id="path4329" />
    </clipPath>
    <clipPath
       clipPathUnits="userSpaceOnUse"
       id="clipPath4317">
      <path
         inkscape:connector-curvature="0"
         d="m 0,125.99 0,-126.59712 235.32,0 0,126.59712"
         id="path4319" />
    </clipPath>
    <clipPath
       clipPathUnits="userSpaceOnUse"
       id="clipPath4307">
      <path
         inkscape:connector-curvature="0"
         d="m 0,125.99 0,-126.59712 235.32,0 0,126.59712"
         id="path4309" />
    </clipPath>
    <clipPath
       clipPathUnits="userSpaceOnUse"
       id="clipPath4297">
      <path
         inkscape:connector-curvature="0"
         d="m 0,125.62 0,-126.15208 234.72,0 0,126.15208"
         id="path4299" />
    </clipPath>
    <clipPath
       clipPathUnits="userSpaceOnUse"
       id="clipPath4287">
      <path
         inkscape:connector-curvature="0"
         d="m 0,125.62 0,-126.15208 234.72,0 0,126.15208"
         id="path4289" />
    </clipPath>
  </defs>
  <sodipodi:namedview
     id="base"
     pagecolor="#ffffff"
     bordercolor="#666666"
     borderopacity="1.0"
     inkscape:pageopacity="0.0"
     inkscape:pageshadow="2"
     inkscape:zoom="0.28027344"
     inkscape:cx="730.14229"
     inkscape:cy="-150.75501"
     inkscape:document-units="px"
     inkscape:current-layer="layer1"
     showgrid="false"
     fit-margin-left="0.5"
     fit-margin-bottom="0.5"
     fit-margin-top="0.5"
     fit-margin-right="0.5"
     inkscape:window-width="966"
     inkscape:window-height="1017"
     inkscape:window-x="890"
     inkscape:window-y="4"
     inkscape:window-maximized="0" />
  <metadata
     id="metadata4525">
    <rdf:RDF>
      <cc:Work
         rdf:about="">
        <dc:format>image/svg+xml</dc:format>
        <dc:type
           rdf:resource="http://purl.org/dc/dcmitype/StillImage" />
        <dc:title></dc:title>
      </cc:Work>
    </rdf:RDF>
  </metadata>
  <g
     inkscape:label="Layer 1"
     inkscape:groupmode="layer"
     id="layer1"
     transform="translate(-194.28574,-261.25682)">
    <g
       id="g4283"
       transform="matrix(5.4355512,0,0,-5.4205951,194.78574,942.69198)">
      <g
         id="g4285"
         clip-path="url(#clipPath4287)">
        <path
           d="m 18.604,79.165 0,0 c 7.126,0 9.001,6.379 9.001,12.308 0,5.478 -2.925,10.657 -9.001,10.657 -6.002,0 -8.9271,-5.254 -8.9271,-10.657 0,-5.854 1.8751,-12.308 8.9271,-12.308 l 0,0 z m 0,30.165 0,0 c 10.577,0 18.678,-7.13 18.678,-18.908 0,-10.281 -6.826,-18.461 -18.678,-18.461 C 6.8263,71.961 0,80.141 0,90.422 0,102.2 8.1016,109.33 18.604,109.33 z"
           style="fill:#f36917;fill-opacity:1;fill-rule:nonzero;stroke:none"
           id="path4291"
           inkscape:connector-curvature="0" />
      </g>
    </g>
    <g
       id="g4293"
       transform="matrix(5.4355512,0,0,-5.4205951,194.78574,942.69198)">
      <g
         id="g4295"
         clip-path="url(#clipPath4297)">
        <path
           d="m 42.758,101.68 0,0 -6.826,0 0,6.83 6.826,0 0,4.95 c 0,7.13 4.051,12.16 11.402,12.16 2.326,0 4.951,-0.38 6.752,-0.75 l -0.75,-7.73 c -0.826,0.52 -2.026,1.27 -4.051,1.27 -3.076,0 -4.051,-2.7 -4.051,-5.47 l 0,-4.43 8.102,0 0,-6.83 -8.102,0 0,-28.893 -9.302,0 0,28.893 z"
           style="fill:#f36917;fill-opacity:1;fill-rule:nonzero;stroke:none"
           id="path4301"
           inkscape:connector-curvature="0" />
      </g>
    </g>
    <g
       id="g4303"
       transform="matrix(5.4355512,0,0,-5.4205951,194.78574,942.69198)">
      <g
         id="g4305"
         clip-path="url(#clipPath4307)">
        <path
           d="m 84.616,91.022 0,0 c 0,6.079 -2.325,11.108 -7.726,11.108 -6.301,0 -8.327,-5.854 -8.327,-11.333 0,-4.803 2.551,-10.806 7.877,-10.806 5.851,0 8.176,5.103 8.176,11.031 l 0,0 z m 9.302,17.488 0,0 0,-32.271 c 0,-9.681 -3.901,-18.837 -18.829,-18.837 -3.675,0 -7.951,0.526 -12.377,2.402 l 0.75,7.955 c 2.851,-1.576 7.502,-3.152 10.427,-3.152 10.277,0 10.727,7.729 10.727,13.883 l -0.15,0 c -1.725,-3.077 -5.851,-5.703 -11.102,-5.703 -10.502,0 -14.553,8.48 -14.553,18.01 0,8.63 4.501,18.533 15.153,18.533 4.726,0 8.402,-1.65 10.952,-5.7 l 0.15,0 0,4.88 8.852,0 z"
           style="fill:#f36917;fill-opacity:1;fill-rule:nonzero;stroke:none"
           id="path4311"
           inkscape:connector-curvature="0" />
      </g>
    </g>
    <g
       id="g4313"
       transform="matrix(5.4355512,0,0,-5.4205951,194.78574,942.69198)">
      <g
         id="g4315"
         clip-path="url(#clipPath4317)">
        <path
           d="m 120.62,94.099 0,0 c -0.22,4.578 -2.32,8.401 -7.5,8.401 -5.25,0 -7.87,-3.598 -8.25,-8.401 l 15.75,0 0,0 z m 6.23,-19.286 0,0 c -3.38,-1.876 -7.28,-2.852 -12.23,-2.852 -11.78,0 -18.677,6.754 -18.677,18.536 0,10.283 5.477,18.833 16.577,18.833 13.28,0 16.95,-9.08 16.95,-21.535 l -24.6,0 c 0.38,-5.778 4.43,-9.08 10.13,-9.08 4.5,0 8.4,1.726 11.85,3.602 l 0,-7.504 z"
           style="fill:#f36917;fill-opacity:1;fill-rule:nonzero;stroke:none"
           id="path4321"
           inkscape:connector-curvature="0" />
      </g>
    </g>
    <g
       id="g4323"
       transform="matrix(5.4355512,0,0,-5.4205951,194.78574,942.69198)">
      <g
         id="g4325"
         clip-path="url(#clipPath4327)">
        <path
           d="m 131.43,108.51 0,0 8.7,0 0,-5.03 0.15,0 c 2.85,4.35 7.12,5.85 10.57,5.85 4.95,0 8.48,-1.87 10.51,-6.3 2.17,4.28 6.82,6.3 11.17,6.3 8.78,0 11.26,-6.08 11.26,-14.03 l 0,-22.513 -9.23,0 0,21.312 c 0,3.302 0,8.031 -5.33,8.031 -6.22,0 -6.97,-7.355 -6.97,-12.008 l 0,-17.335 -9.31,0 0,21.312 c 0,3.302 0,8.031 -5.32,8.031 -6.15,0 -6.9,-7.355 -6.9,-12.008 l 0,-17.335 -9.3,0 0,35.723 z"
           style="fill:#f36917;fill-opacity:1;fill-rule:nonzero;stroke:none"
           id="path4331"
           inkscape:connector-curvature="0" />
      </g>
    </g>
  </g>
</svg>
