<svg width="115" height="44" xmlns="http://www.w3.org/2000/svg"><g fill="#EE7402" fill-rule="evenodd"><path d="M11.853 10.298c6.742 0 11.897 4.537 11.897 12.028 0 6.522-4.362 11.722-11.897 11.722C4.362 34.048 0 28.848 0 22.326c0-7.49 5.155-12.028 11.853-12.028m0 19.166c4.538 0 5.727-4.053 5.727-7.842 0-3.48-1.849-6.742-5.727-6.742-3.834 0-5.685 3.35-5.685 6.742 0 3.746 1.19 7.842 5.685 7.842"/><path d="M26.614 15.01H22.5v-4.18h4.114V7.76c0-4.392 2.41-7.462 6.815-7.462 1.413 0 2.991.212 4.071.467L37.043 5.5c-.498-.299-1.204-.767-2.41-.767-1.87 0-2.451 1.662-2.451 3.37v2.728h4.86v4.18h-4.86v17.787h-5.568V15.01zM58.75 10.82v20.176c0 6.075-2.352 11.802-11.424 11.802-2.224 0-4.787-.348-7.476-1.52l.464-4.946c1.722.954 4.535 1.951 6.299 1.951 6.216 0 6.51-4.816 6.51-8.677h-.085c-1.05 1.912-3.569 3.559-6.72 3.559-6.383 0-8.818-5.293-8.818-11.28 0-5.382 2.688-11.587 9.155-11.587 2.855 0 5.081.999 6.635 3.559h.085v-3.038h5.375zM53.123 21.75c0-3.817-1.43-6.94-4.704-6.94-3.822 0-5.04 3.645-5.04 7.074 0 3.036 1.554 6.767 4.787 6.767 3.528 0 4.957-3.17 4.957-6.9zM79.582 32.241c-2.152 1.19-4.611 1.807-7.772 1.807-7.464 0-11.81-4.317-11.81-11.765 0-6.565 3.468-11.985 10.494-11.985 8.386 0 10.756 5.771 10.756 13.704H65.62c.263 3.657 2.809 5.729 6.453 5.729 2.855 0 5.313-1.06 7.509-2.293v4.803zM75.63 19.947c-.176-2.862-1.492-5.33-4.786-5.33-3.293 0-4.961 2.29-5.224 5.33h10.01zM82.5 10.81h5.374v3.074h.085c1.806-2.691 4.43-3.586 6.578-3.586 3.094 0 5.288 1.152 6.534 3.884 1.332-2.646 4.213-3.884 6.922-3.884 5.459 0 7.007 3.714 7.007 8.623v13.877h-5.76V19.69c0-2.05 0-4.953-3.31-4.953-3.828 0-4.3 4.526-4.3 7.386v10.674h-5.76V19.69c0-2.05 0-4.953-3.31-4.953-3.827 0-4.3 4.526-4.3 7.386v10.674H82.5V10.81z"/></g></svg>