<?xml version="1.0" encoding="UTF-8" standalone="no"?>
<svg
   xmlns:dc="http://purl.org/dc/elements/1.1/"
   xmlns:cc="http://creativecommons.org/ns#"
   xmlns:rdf="http://www.w3.org/1999/02/22-rdf-syntax-ns#"
   xmlns:svg="http://www.w3.org/2000/svg"
   xmlns="http://www.w3.org/2000/svg"
   xmlns:sodipodi="http://sodipodi.sourceforge.net/DTD/sodipodi-0.dtd"
   xmlns:inkscape="http://www.inkscape.org/namespaces/inkscape"
   inkscape:version="1.0 (4035a4fb49, 2020-05-01)"
   sodipodi:docname="logo (2).svg"
   id="svg18"
   version="1.1"
   fill="none"
   viewBox="0 0 4536.4267 1100.9287"
   height="1100.9287"
   width="4536.4268">
  <metadata
     id="metadata24">
    <rdf:RDF>
      <cc:Work
         rdf:about="">
        <dc:format>image/svg+xml</dc:format>
        <dc:type
           rdf:resource="http://purl.org/dc/dcmitype/StillImage" />
        <dc:title></dc:title>
      </cc:Work>
    </rdf:RDF>
  </metadata>
  <defs
     id="defs22" />
  <sodipodi:namedview
     inkscape:current-layer="layer2"
     inkscape:window-maximized="1"
     inkscape:window-y="-8"
     inkscape:window-x="-8"
     inkscape:cy="1811.0876"
     inkscape:cx="2403.2156"
     inkscape:zoom="0.16"
     fit-margin-bottom="0"
     fit-margin-right="0"
     fit-margin-left="0"
     fit-margin-top="0"
     lock-margins="false"
     showgrid="false"
     id="namedview20"
     inkscape:window-height="1017"
     inkscape:window-width="1920"
     inkscape:pageshadow="2"
     inkscape:pageopacity="0"
     guidetolerance="10"
     gridtolerance="10"
     objecttolerance="10"
     borderopacity="1"
     bordercolor="#666666"
     pagecolor="#ffffff" />
  <g
     style="display:inline"
     transform="translate(-11.691818,-20)"
     inkscape:label="Layer 2"
     id="layer3"
     inkscape:groupmode="layer" />
  <g
     transform="translate(-11.691818,-20)"
     inkscape:label="Layer 1"
     id="layer2"
     inkscape:groupmode="layer">
    <g
       transform="matrix(36.697625,0,0,36.697625,11.691827,19.999985)"
       id="g857"
       style="fill:#000000;fill-opacity:1;stroke-width:0.0272497">
      <path
         id="path2"
         fill="#fffcf8"
         d="m 14.9937,27.2212 c -1.8462,0 -3.6163,-0.4187 -5.17696,-1.161 -0.17129,-0.0761 -0.34259,-0.0761 -0.51389,0 -0.62808,0.3426 -1.2181,0.7232 -1.75102,1.161 -0.28549,0.2284 -0.24743,0.6471 0.0571,0.8374 C 9.79771,29.2958 12.3101,30 14.9937,30 c 2.6836,0 5.196,-0.7042 7.3847,-1.9414 0.3046,-0.1712 0.3426,-0.609 0.0571,-0.8374 -0.5519,-0.4378 -1.1419,-0.8184 -1.751,-1.161 -0.1522,-0.0761 -0.3426,-0.0761 -0.5139,0 -1.5607,0.7423 -3.3307,1.161 -5.1769,1.161 z"
         style="fill:#000000;fill-opacity:1;stroke-width:0.0272497" />
      <path
         id="path4"
         fill="#fffcf8"
         d="m 26.0139,23.1291 c -3.1024,-2.5123 -7.0232,-3.9017 -11.0201,-3.9017 -3.8256,0 -7.46086,1.2181 -10.50612,3.5211 0,0 -0.64712,0.5139 -1.14197,0.9516 -0.19033,0.1713 -0.2284,0.4568 -0.0571,0.6662 0.38066,0.4568 0.81841,0.9516 1.23714,1.3703 0.17129,0.1713 0.45679,0.1904 0.64712,0.0381 0.43775,-0.3616 1.00874,-0.7803 1.00874,-0.7803 2.56944,-1.9224 5.61469,-2.9501 8.83129,-2.9501 3.3688,0 6.6424,1.161 9.25,3.2736 0,0 0.2854,0.2284 0.5709,0.4568 0.1904,0.1523 0.4759,0.1523 0.6472,-0.019 0.4187,-0.4187 0.8564,-0.8946 1.2371,-1.3704 0.1713,-0.2093 0.1332,-0.4948 -0.0571,-0.6661 -0.3236,-0.3046 -0.6471,-0.5901 -0.6471,-0.5901 z"
         style="fill:#000000;fill-opacity:1;stroke-width:0.0272497" />
      <path
         id="path6"
         fill="#fffcf8"
         d="M 12.5391,0.194513 C 6.23925,1.20326 1.2336,6.18987 0.205819,12.4898 -0.289036,15.516 0.129688,18.409 1.2336,20.9404 1.38586,21.2829 1.80458,21.3781 2.07104,21.1497 2.623,20.6929 3.19398,20.2552 3.784,19.8555 v -0.0191 c 3.33076,-2.2268 7.1754,-3.3878 11.2104,-3.3878 4.0349,0 7.8986,1.18 11.2103,3.3878 v 0.0191 c 0.5901,0.3997 1.1801,0.8374 1.713,1.2942 0.2665,0.2284 0.7042,0.1332 0.8374,-0.1903 0.7994,-1.8272 1.2372,-3.8447 1.2372,-5.9573 0,-9.07869 -8.089,-16.29215 -17.4532,-14.807587 z M 14.9944,13.6698 c -4.3015,0 -8.4316,1.161 -12.02881,3.3878 -0.1142,-0.6661 -0.1713,-1.3703 -0.1713,-2.0745 0,-6.73768 5.48147,-12.21915 12.21911,-12.21915 6.7376,0 12.2191,5.48147 12.2191,12.21915 0,0.7042 -0.0571,1.3894 -0.1713,2.0745 -3.6353,-2.2078 -7.7654,-3.3878 -12.0668,-3.3878 z"
         style="fill:#000000;fill-opacity:1;stroke-width:0.0272497" />
      <path
         id="path8"
         fill="#fffcf8"
         d="m 70.3415,7.54126 c -2.1126,0 -3.8256,0.81841 -4.8724,1.86522 C 64.5175,8.20741 63.09,7.54126 61.4722,7.54126 c -1.713,0 -3.0262,0.72325 -3.9208,1.6178 V 8.39774 c 0,-0.26646 -0.2093,-0.47582 -0.4758,-0.47582 H 55.001 c -0.2664,0 -0.4758,0.20936 -0.4758,0.47582 V 21.7017 c 0,0.2665 0.2094,0.4759 0.4758,0.4759 h 2.0746 c 0.2665,0 0.4758,-0.2094 0.4758,-0.4759 V 12.033 c 0.6852,-0.9897 1.8272,-1.751 2.9882,-1.751 1.5607,0 3.2165,0.8945 3.2165,3.9398 v 7.4799 c 0,0.2665 0.2094,0.4759 0.4759,0.4759 h 2.0745 c 0.2665,0 0.4759,-0.2094 0.4759,-0.4759 v -8.0509 c 0,-0.5329 -0.0571,-1.0468 -0.1333,-1.5226 0.6852,-1.0468 1.9033,-1.8462 3.1405,-1.8462 1.5607,0 3.2165,0.8945 3.2165,3.9398 v 7.4799 c 0,0.2665 0.2094,0.4759 0.4758,0.4759 h 2.0746 c 0.2665,0 0.4759,-0.2094 0.4759,-0.4759 v -8.0509 c 0,-3.80656 -2.6647,-6.10954 -5.6909,-6.10954 z"
         style="fill:#000000;fill-opacity:1;stroke-width:0.0272497" />
      <path
         id="path10"
         fill="#fffcf8"
         d="m 92.4769,7.92192 h -2.0746 c -0.2664,0 -0.4758,0.20936 -0.4758,0.47582 V 9.76811 C 88.8417,8.43581 87.3,7.54126 85.3777,7.54126 c -4.016,0 -7.2706,3.36884 -7.2706,7.49894 0,4.1492 3.2546,7.499 7.2706,7.499 1.9223,0 3.464,-0.8946 4.5488,-2.2269 v 1.3704 c 0,0.2665 0.2094,0.4758 0.4758,0.4758 h 2.0746 c 0.2665,0 0.4759,-0.2093 0.4759,-0.4758 V 8.39774 c 0,-0.26646 -0.2094,-0.47582 -0.4759,-0.47582 z M 85.6441,19.7604 c -2.3791,0 -4.3204,-2.1127 -4.3204,-4.7012 0,-2.6075 1.9413,-4.7011 4.3204,-4.7011 2.3791,0 4.3205,2.1127 4.3205,4.7011 0,2.5885 -1.9223,4.7012 -4.3205,4.7012 z"
         style="fill:#000000;fill-opacity:1;stroke-width:0.0272497" />
      <path
         id="path12"
         fill="#fffcf8"
         d="m 116.269,7.54126 c -3.997,0.1142 -7.156,3.40684 -7.156,7.40384 0,4.4346 3.102,7.6131 7.499,7.6131 2.645,0 4.853,-1.0087 6.319,-2.9501 0.171,-0.2284 0.114,-0.5519 -0.134,-0.6852 l -1.598,-0.9897 c -0.21,-0.1332 -0.495,-0.0761 -0.648,0.1332 -0.875,1.1991 -2.188,2.0175 -3.958,2.0175 -2.361,0 -4.302,-1.3894 -4.721,-3.9588 h 11.249 c 0.247,0 0.457,-0.1903 0.476,-0.4378 0.019,-0.1903 0.019,-0.3997 0.019,-0.59 0.038,-4.2063 -2.912,-7.55604 -7.347,-7.55604 z m -4.301,6.18564 c 0.533,-2.3791 2.531,-3.6733 4.606,-3.6733 1.941,0 3.806,1.5417 4.168,3.6733 z"
         style="fill:#000000;fill-opacity:1;stroke-width:0.0272497" />
      <path
         id="path14"
         fill="#fffcf8"
         d="m 44.9144,7.16055 c -4.2634,0 -7.7084,3.46395 -7.7084,7.70835 0,4.2633 3.464,7.7083 7.7084,7.7083 4.2633,0 7.7083,-3.464 7.7083,-7.7083 0,-4.2634 -3.445,-7.70835 -7.7083,-7.70835 z m 0,12.71395 c -2.5885,0 -4.6821,-2.2268 -4.6821,-4.9866 0,-2.7598 2.0936,-4.98661 4.6821,-4.98661 2.5884,0 4.682,2.22681 4.682,4.98661 0,2.7598 -2.0936,4.9866 -4.682,4.9866 z"
         style="fill:#000000;fill-opacity:1;stroke-width:0.0272497" />
      <path
         id="path16"
         fill="#fffcf8"
         d="m 107.913,19.5319 c -0.114,-0.2093 -0.38,-0.3045 -0.609,-0.2093 -0.799,0.3426 -2.55,1.1039 -4.853,1.1419 -2.9503,0.0381 -4.1493,-0.7613 -4.1493,-0.7613 l 9.0593,-9.0596 c 0.153,-0.1523 0.248,-0.3617 0.248,-0.571 V 8.37865 c 0,-0.26646 -0.21,-0.47582 -0.476,-0.47582 H 96.3984 c -0.2665,0 -0.4758,0.20936 -0.4758,0.47582 v 1.63685 c 0,0.2664 0.2093,0.4758 0.4758,0.4758 l 7.5176,-0.1523 -8.2789,8.2793 c -0.1523,0.1523 -0.2475,0.3617 -0.2475,0.571 v 2.0556 c 0,0.1713 0.0952,0.3426 0.2665,0.4187 0.7423,0.3807 3.0262,1.3704 6.4139,1.3704 3.179,0 5.482,-0.9517 6.395,-1.3894 0.248,-0.1142 0.343,-0.4187 0.21,-0.6471 z"
         style="fill:#000000;fill-opacity:1;stroke-width:0.0272497" />
    </g>
  </g>
</svg>
