<?xml version="1.0" encoding="UTF-8"?>
<svg width="404px" height="75px" viewBox="0 0 404 75" version="1.1" xmlns="http://www.w3.org/2000/svg" xmlns:xlink="http://www.w3.org/1999/xlink">
    <!-- Generator: Sketch 52.5 (67469) - http://www.bohemiancoding.com/sketch -->
    <title>Branding / Logo / Logo mark</title>
    <desc>Created with Sketch.</desc>
    <defs>
        <path d="M40.4924298,60.4916536 C29.4435661,60.4916536 20.4866924,51.5371151 20.4866924,40.491132 C20.4866924,29.4451489 29.4435661,20.4906103 40.4924298,20.4906103 C51.5446075,20.4906103 60.5041678,29.4478347 60.5041678,40.4971309 L60.5041678,59.2228743 C66.6047886,52.8301383 70.005824,44.3324524 69.9999925,35.4970005 C69.9999925,16.444314 54.5606516,1 35.4939957,1 C16.4423411,1 1,16.4533125 1,35.4970005 C1,54.5406886 16.4423411,70 35.4939957,70 C42.1545742,70 48.3291104,68.0743349 53.6125693,64.8139019 L53.6125693,55.5815076 C49.9787481,58.7534517 45.3164417,60.4982964 40.4924298,60.4916536 Z" id="path-1"></path>
    </defs>
    <g id="Symbols" stroke="none" stroke-width="1" fill="none" fill-rule="evenodd">
        <g id="Branding-/-Logo-/-Full-Logo">
            <g id="Branding-/-Logo-/-Logo-mark" transform="translate(-1.000000, -1.000000)">
                <path d="M108.157193,21.2994012 C97.2398911,21.2994012 91.1263223,30.8023952 91.1263223,41.0299401 C91.1263223,51.2634731 97.2398911,60.7664671 108.157193,60.7664671 C119.074495,60.7664671 125.194072,51.2634731 125.194072,41.0299401 C125.194072,30.8023952 119.074495,21.2994012 108.157193,21.2994012 Z M108.157193,55.251497 C100.292169,55.251497 97.5162785,47.5628743 97.5162785,41.0299401 C97.5162785,34.502994 100.289165,26.8143713 108.157193,26.8143713 C116.013204,26.8143713 118.783086,34.502994 118.783086,41.0299401 C118.783086,47.5628743 116.013204,55.251497 108.157193,55.251497 Z M148.119204,21.2994012 C143.021059,21.2994012 139.602267,23.1107784 137.781715,26.5958084 L137.6285,26.5958084 L137.6285,24.7065868 C137.6285,22.6077844 136.402782,21.2994012 134.435024,21.2994012 C132.467266,21.2994012 131.23554,22.6077844 131.23554,24.7065868 L131.23554,72.5898204 C131.23554,74.6886228 132.47027,76 134.435024,76 C136.402782,76 137.6285,74.6886228 137.6285,72.5898204 L137.6285,55.5479042 L137.781715,55.5479042 C140.181563,58.8469518 144.030598,60.7900184 148.119204,60.7664671 C158.600896,60.7664671 164.630346,51.2634731 164.630346,41.0299401 C164.630346,30.8023952 158.600896,21.2994012 148.119204,21.2994012 Z M147.593467,55.251497 C139.752477,55.251497 136.982595,47.5628743 136.982595,41.0299401 C136.982595,34.502994 139.752477,26.8143713 147.593467,26.8143713 C155.476516,26.8143713 158.24039,34.502994 158.24039,41.0299401 C158.24039,47.5628743 155.473512,55.251497 147.593467,55.251497 Z M186.501001,21.2994012 C175.652796,21.2994012 169.097608,30.5808383 169.097608,41.0299401 C169.097608,51.2634731 174.484158,60.7664671 186.86451,60.7664671 C194.438125,60.7664671 202.369242,55.9820359 202.369242,52.8592814 C202.369242,51.0449102 201.200604,50.0269461 200.046987,50.0269461 C197.631601,50.0269461 195.453549,55.251497 186.933607,55.251497 C179.72951,55.251497 175.511598,50.0988024 175.511598,43.497006 L199.608372,43.497006 C202.372246,43.497006 203.165358,42.3353293 203.165358,40.0838323 C203.156345,30.8023952 197.054793,21.2994012 186.501001,21.2994012 Z M175.505589,38.7185629 C175.724897,32.8383234 178.56688,26.5299401 186.497996,26.8173653 C193.551883,26.8173653 196.757376,33.2005988 196.757376,38.7185629 L175.505589,38.7185629 Z M226.544126,21.2994012 C222.695732,21.2994012 218.676098,22.748503 215.846131,26.3742515 L215.686908,26.2275449 L215.686908,24.7005988 C215.686908,22.6017964 214.46119,21.2904192 212.490428,21.2904192 C210.531682,21.2904192 209.293948,22.6017964 209.293948,24.7005988 L209.293948,57.3473054 C209.293948,59.4461078 210.531682,60.760479 212.490428,60.760479 C214.46119,60.760479 215.686908,59.4491018 215.686908,57.3473054 L215.686908,36.3113772 C215.686908,29.5628743 220.433561,26.8053892 224.651473,26.8053892 C228.857368,26.8053892 233.601017,29.5598802 233.601017,36.3113772 L233.601017,57.3473054 C233.601017,59.4461078 234.835747,60.760479 236.797497,60.760479 C238.768259,60.760479 239.999986,59.4491018 239.999986,57.3473054 L239.999986,35.9461078 C240.012002,25.0748503 232.513492,21.2994012 226.544126,21.2994012 Z" id="open" fill="#F49622" fill-rule="nonzero"></path>
                <path d="M277.659355,21.364735 C276.355403,21.364735 274.682748,22.2396392 274.682748,24.494547 L274.682748,26.5359901 L274.553851,26.5359901 C271.556261,23.255851 268.435769,21.364735 264.002333,21.364735 C253.106092,21.364735 247,30.9075046 247,41.1778577 C247,51.4542239 253.106092,60.9969935 264.002333,60.9969935 C268.13601,60.9969935 271.778082,59.102871 274.553851,55.1703119 L274.682748,55.1703119 L274.682748,57.864175 C274.682748,60.1220893 276.364396,60.9969935 277.659355,60.9969935 C278.888367,60.9969935 280.635962,60.1220893 280.635962,57.864175 L280.635962,24.494547 C280.635962,22.2396392 278.888367,21.364735 277.659355,21.364735 Z M264.002333,55.45894 C256.160636,55.45894 253.399856,47.7381359 253.399856,41.1778577 C253.399856,34.6235925 256.160636,26.9027884 264.002333,26.9027884 C271.859017,26.9027884 274.598815,34.6235925 274.598815,41.1778577 C274.601813,47.7381359 271.862015,55.45894 264.002333,55.45894 Z M293.969244,31.7824088 C293.969244,28.5052762 297.089736,26.9027884 300.713823,26.9027884 C306.831905,26.9027884 307.926025,30.8383541 310.689804,30.8383541 C312.650228,30.8383541 313.582479,29.5966515 313.582479,28.2136415 C313.582479,24.2089253 306.028551,21.3677416 300.713823,21.3677416 C294.272001,21.3677416 287.581379,25.1559866 287.581379,32.2965277 C287.581379,43.0779933 308.201804,42.6420444 308.201804,50.2155279 C308.201804,52.8402405 305.390064,55.4619466 300.713823,55.4619466 C293.753418,55.4619466 291.427288,50.7326534 288.60056,50.7326534 C287.224666,50.7326534 285.977668,51.8961858 285.977668,53.6490008 C285.977668,56.9261333 292.380521,61 300.506989,61 C307.716194,61 314.610652,57.1365914 314.610652,49.048989 C314.607655,37.8315746 293.969244,38.5591582 293.969244,31.7824088 Z M326.235308,31.7824088 C326.235308,28.5052762 329.36779,26.9027884 333.000869,26.9027884 C339.100966,26.9027884 340.183096,30.8383541 342.940879,30.8383541 C344.901303,30.8383541 345.854537,29.5966515 345.854537,28.2136415 C345.854537,24.2089253 338.294614,21.3677416 333.000869,21.3677416 C326.526074,21.3677416 319.85044,25.1559866 319.85044,32.2965277 C319.85044,43.0779933 340.479857,42.6420444 340.479857,50.2155279 C340.479857,52.8402405 337.644137,55.4619466 333.000869,55.4619466 C326.016484,55.4619466 323.696349,50.7326534 320.875616,50.7326534 C319.484734,50.7326534 318.255722,51.8961858 318.255722,53.6490008 C318.255722,56.9261333 324.634594,61 332.782045,61 C339.964272,61 346.861728,57.1365914 346.861728,49.048989 C346.861728,37.8315746 326.235308,38.5591582 326.235308,31.7824088 Z M368.024716,21.364735 C357.194422,21.364735 350.671665,30.6850203 350.671665,41.1778577 C350.671665,51.4542239 356.040349,60.9969935 368.387424,60.9969935 C375.938355,60.9969935 383.851993,56.1925367 383.851993,53.0567117 C383.851993,51.2347462 382.688928,50.2125214 381.525863,50.2125214 C379.130788,50.2125214 376.948543,55.45894 368.465362,55.45894 C361.271145,55.45894 357.05953,50.2846784 357.05953,43.6552497 L381.100205,43.6552497 C383.857989,43.6552497 384.655348,42.4887107 384.655348,40.2277899 C384.646355,30.9075046 378.543261,21.364735 368.024716,21.364735 Z M357.056533,38.856806 C357.260369,32.9519543 360.102084,26.6171668 368.015723,26.905795 C375.069053,26.905795 378.267482,33.315746 378.267482,38.856806 L357.056533,38.856806 Z M401.810558,21.8036904 L399.190664,21.8036904 L399.190664,13.4274598 C399.190664,11.310853 397.955656,10 395.99823,10 C394.043801,10 392.805796,11.3138596 392.805796,13.4274598 L392.805796,21.8036904 L390.20089,21.8036904 C388.090586,21.8036904 387.002461,22.8229087 387.002461,24.566704 C387.002461,26.3165124 388.090586,27.3387373 390.20089,27.3387373 L392.805796,27.3387373 L392.805796,57.5755468 C392.805796,59.6831339 394.043801,61 395.99823,61 C397.955656,61 399.190664,59.6831339 399.190664,57.5755468 L399.190664,27.3417438 L401.810558,27.3417438 C403.908871,27.3417438 404.999994,26.319519 404.999994,24.5697105 C405.002991,22.8259152 403.908871,21.8036904 401.810558,21.8036904 Z" id="asset" fill="#9D9D9C" fill-rule="nonzero"></path>
                <g>
                    <mask id="mask-2" fill="white">
                        <use xlink:href="#path-1"></use>
                    </mask>
                    <use id="logo-mark" fill="#F49622" fill-rule="evenodd" xlink:href="#path-1"></use>
                    <g id="Branding-/-Colours-/-Primary-/-Orange" mask="url(#mask-2)" fill="#F49622" fill-rule="evenodd">
                        <rect id="Branding-/-Colours-/-Primary-Orange" x="0" y="0" width="71" height="71"></rect>
                    </g>
                </g>
            </g>
        </g>
    </g>
</svg>