<?xml version="1.0" encoding="UTF-8" standalone="no"?>
<!-- Created with Inkscape (http://www.inkscape.org/) -->

<svg
   xmlns:dc="http://purl.org/dc/elements/1.1/"
   xmlns:cc="http://creativecommons.org/ns#"
   xmlns:rdf="http://www.w3.org/1999/02/22-rdf-syntax-ns#"
   xmlns:svg="http://www.w3.org/2000/svg"
   xmlns="http://www.w3.org/2000/svg"
   xmlns:sodipodi="http://sodipodi.sourceforge.net/DTD/sodipodi-0.dtd"
   xmlns:inkscape="http://www.inkscape.org/namespaces/inkscape"
   width="74.083328mm"
   height="14.530916mm"
   viewBox="0 0 74.083328 14.530916"
   version="1.1"
   id="svg4277"
   inkscape:version="0.92.0 r15299"
   sodipodi:docname="paddypower betfair.svg">
  <defs
     id="defs4271">
    <clipPath
       id="clipPath4069"
       clipPathUnits="userSpaceOnUse">
      <path
         inkscape:connector-curvature="0"
         id="path4067"
         d="M 0,0 H 595.276 V 841.89 H 0 Z" />
    </clipPath>
    <clipPath
       id="clipPath4043"
       clipPathUnits="userSpaceOnUse">
      <path
         inkscape:connector-curvature="0"
         id="path4041"
         d="M 0,0 H 595.276 V 841.89 H 0 Z" />
    </clipPath>
    <linearGradient
       id="linearGradient4033"
       spreadMethod="pad"
       gradientTransform="matrix(40.097462,0,0,40.097462,12.551957,140.39797)"
       gradientUnits="userSpaceOnUse"
       y2="0"
       x2="1"
       y1="0"
       x1="0">
      <stop
         id="stop4029"
         offset="0"
         style="stop-opacity:1;stop-color:#fdc300" />
      <stop
         id="stop4031"
         offset="1"
         style="stop-opacity:1;stop-color:#f39200" />
    </linearGradient>
    <clipPath
       id="clipPath4003"
       clipPathUnits="userSpaceOnUse">
      <path
         inkscape:connector-curvature="0"
         id="path4001"
         d="M 0,0 H 595.276 V 841.89 H 0 Z" />
    </clipPath>
    <linearGradient
       id="linearGradient3993"
       spreadMethod="pad"
       gradientTransform="matrix(16.9019,-29.274949,29.274949,16.9019,-32.057077,152.66304)"
       gradientUnits="userSpaceOnUse"
       y2="0"
       x2="1"
       y1="0"
       x1="0">
      <stop
         id="stop3989"
         offset="0"
         style="stop-opacity:1;stop-color:#004330" />
      <stop
         id="stop3991"
         offset="1"
         style="stop-opacity:1;stop-color:#006556" />
    </linearGradient>
    <clipPath
       id="clipPath4069-2"
       clipPathUnits="userSpaceOnUse">
      <path
         inkscape:connector-curvature="0"
         id="path4067-9"
         d="M 0,0 H 595.276 V 841.89 H 0 Z" />
    </clipPath>
    <clipPath
       id="clipPath4043-2"
       clipPathUnits="userSpaceOnUse">
      <path
         inkscape:connector-curvature="0"
         id="path4041-6"
         d="M 0,0 H 595.276 V 841.89 H 0 Z" />
    </clipPath>
    <linearGradient
       id="linearGradient4033-3"
       spreadMethod="pad"
       gradientTransform="matrix(113.6621,0,0,-113.6621,149.86121,163.31627)"
       gradientUnits="userSpaceOnUse"
       y2="0"
       x2="1"
       y1="0"
       x1="0">
      <stop
         id="stop4029-4"
         offset="0"
         style="stop-opacity:1;stop-color:#fdc300" />
      <stop
         id="stop4031-9"
         offset="1"
         style="stop-opacity:1;stop-color:#f39200" />
    </linearGradient>
    <clipPath
       id="clipPath4003-1"
       clipPathUnits="userSpaceOnUse">
      <path
         inkscape:connector-curvature="0"
         id="path4001-3"
         d="M 0,0 H 595.276 V 841.89 H 0 Z" />
    </clipPath>
    <linearGradient
       id="linearGradient3993-8"
       spreadMethod="pad"
       gradientTransform="matrix(47.9109,82.984108,82.984108,-47.9109,23.4104,128.54914)"
       gradientUnits="userSpaceOnUse"
       y2="0"
       x2="1"
       y1="0"
       x1="0">
      <stop
         id="stop3989-8"
         offset="0"
         style="stop-opacity:1;stop-color:#004330" />
      <stop
         id="stop3991-0"
         offset="1"
         style="stop-opacity:1;stop-color:#006556" />
    </linearGradient>
  </defs>
  <sodipodi:namedview
     id="base"
     pagecolor="#ffffff"
     bordercolor="#666666"
     borderopacity="1.0"
     inkscape:pageopacity="0.0"
     inkscape:pageshadow="2"
     inkscape:zoom="3.2035715"
     inkscape:cx="169.03806"
     inkscape:cy="58.050853"
     inkscape:document-units="mm"
     inkscape:current-layer="layer1"
     showgrid="false"
     fit-margin-top="0"
     fit-margin-left="0"
     fit-margin-right="0"
     fit-margin-bottom="0"
     inkscape:window-width="1280"
     inkscape:window-height="744"
     inkscape:window-x="-4"
     inkscape:window-y="-4"
     inkscape:window-maximized="1" />
  <metadata
     id="metadata4274">
    <rdf:RDF>
      <cc:Work
         rdf:about="">
        <dc:format>image/svg+xml</dc:format>
        <dc:type
           rdf:resource="http://purl.org/dc/dcmitype/StillImage" />
        <dc:title></dc:title>
      </cc:Work>
    </rdf:RDF>
  </metadata>
  <g
     inkscape:label="Layer 1"
     inkscape:groupmode="layer"
     id="layer1"
     transform="translate(32.251439,-149.66171)">
    <g
       id="g3977"
       transform="matrix(0.35277777,0,0,-0.35277777,-47.998733,206.10615)">
      <g
         id="g3979">
        <g
           id="g3985">
          <g
             id="g3987">
            <path
               d="m 44.638,118.81 h 104.04 V 160 H 44.638 Z"
               style="fill:url(#linearGradient3993-8);stroke:none"
               id="path3995"
               inkscape:connector-curvature="0" />
          </g>
        </g>
      </g>
    </g>
    <g
       id="g3997"
       transform="matrix(0.35277777,0,0,-0.35277777,-47.998733,206.10615)">
      <g
         id="g3999"
         clip-path="url(#clipPath4003-1)">
        <g
           id="g4005"
           transform="translate(49.4739,140.7687)">
          <path
             d="M 0,0 C 0.335,0.07 1.117,0.179 1.697,0.227 2.102,0.263 2.641,0.3 3.121,0.288 3.691,0.27 4.358,0.172 4.938,-0.094 5.885,-0.526 6.706,-1.366 6.831,-2.812 6.893,-3.504 6.774,-4.119 6.556,-4.62 6.276,-5.224 5.868,-5.697 5.379,-6.005 5.056,-6.22 4.675,-6.386 4.285,-6.511 3.838,-6.656 3.356,-6.738 2.887,-6.792 L 3.163,-9.914 0.889,-10.117 Z M 4.497,-3.028 C 4.455,-2.532 4.192,-2.142 3.804,-1.924 3.527,-1.778 3.207,-1.712 2.839,-1.745 2.743,-1.756 2.614,-1.768 2.456,-1.792 l 0.261,-2.967 c 0.059,0.004 0.306,0.026 0.41,0.05 0.35,0.054 0.668,0.188 0.89,0.367 0.159,0.132 0.315,0.308 0.39,0.539 0.088,0.232 0.116,0.473 0.093,0.758 z"
             style="fill:#ffffff;fill-opacity:1;fill-rule:nonzero;stroke:none"
             id="path4007"
             inkscape:connector-curvature="0" />
        </g>
        <g
           id="g4009"
           transform="translate(58.7802,132.8615)">
          <path
             d="M 0,0 -0.453,-1.505 -2.927,-1.727 0.736,9.007 1.075,9.035 6.483,-0.91 3.777,-1.135 3.094,0.27 Z M 2.218,2.139 1.208,4.338 0.564,1.992 Z m 13.11,3.048 C 15.497,3.243 14.798,1.647 13.412,0.549 12.567,-0.12 11.395,-0.514 10.038,-0.631 9.394,-0.694 8.765,-0.733 8.344,-0.756 8.076,-0.767 7.681,-0.772 7.406,-0.771 L 6.524,9.277 c 0.256,0.05 0.582,0.119 1.18,0.197 0.615,0.08 1.113,0.139 1.595,0.18 1.552,0.134 2.707,-0.079 3.604,-0.529 1.66,-0.833 2.294,-2.445 2.425,-3.926 z M 12.838,4.911 C 12.758,5.835 12.37,6.642 11.668,7.101 11.189,7.416 10.556,7.571 9.775,7.503 9.531,7.48 9.287,7.434 9.115,7.401 L 9.627,1.6 C 9.628,1.576 9.642,1.579 9.656,1.579 9.845,1.57 10.054,1.573 10.252,1.592 c 0.59,0.051 1.145,0.269 1.597,0.643 0.662,0.575 1.097,1.457 0.989,2.667 z M 25.012,6.029 C 25.184,4.089 24.479,2.492 23.095,1.404 22.255,0.722 21.082,0.336 19.724,0.216 19.077,0.161 18.449,0.116 18.027,0.096 17.76,0.088 17.366,0.077 17.089,0.077 l -0.875,10.052 c 0.926,0.152 2.287,0.326 2.771,0.368 1.55,0.137 2.704,-0.08 3.603,-0.518 1.661,-0.842 2.293,-2.454 2.424,-3.935 z M 22.522,5.758 C 22.443,6.688 22.055,7.487 21.354,7.955 20.873,8.267 20.241,8.424 19.462,8.354 19.215,8.331 18.968,8.285 18.801,8.256 l 0.51,-5.81 c 0,-0.025 0.012,-0.025 0.029,-0.025 0.192,-0.008 0.398,-0.002 0.597,0.014 0.589,0.052 1.148,0.272 1.594,0.654 0.663,0.574 1.099,1.446 0.991,2.655 z M 30.711,5.555 31.082,1.25 28.681,1.039 28.31,5.221 l -3.942,5.67 2.705,0.239 2.237,-3.362 1.679,3.708 2.565,0.224 z m 3.549,6.167 c 0.333,0.072 1.117,0.177 1.695,0.222 0.407,0.032 0.944,0.069 1.43,0.059 0.563,-0.017 1.232,-0.109 1.813,-0.375 0.948,-0.429 1.765,-1.283 1.891,-2.727 C 41.149,8.22 41.032,7.602 40.814,7.092 40.542,6.497 40.126,6.027 39.64,5.707 39.313,5.494 38.943,5.337 38.546,5.21 38.097,5.065 37.614,4.982 37.154,4.928 L 37.426,1.806 35.147,1.605 Z M 38.767,8.683 C 38.722,9.184 38.449,9.581 38.061,9.795 37.786,9.944 37.468,10.01 37.104,9.978 37.001,9.968 36.87,9.956 36.715,9.928 l 0.26,-2.964 c 0.063,0.005 0.316,0.027 0.415,0.047 0.347,0.051 0.664,0.183 0.885,0.36 0.16,0.134 0.313,0.317 0.401,0.55 0.085,0.231 0.115,0.471 0.091,0.753 z M 52.868,8.325 c 0.264,-2.992 -1.79,-5.485 -4.862,-5.754 -3.016,-0.267 -5.54,1.823 -5.788,4.75 -0.256,2.939 1.864,5.429 4.968,5.701 3.049,0.269 5.423,-1.772 5.681,-4.684 z M 50.413,8.07 c -0.145,1.668 -1.45,2.875 -3.088,2.732 -1.703,-0.15 -2.806,-1.531 -2.655,-3.263 0.151,-1.695 1.449,-2.902 3.183,-2.746 1.718,0.147 2.705,1.571 2.562,3.264 z m 13.011,-4.191 -0.325,-0.03 -3.501,5.773 -2.49,-6.293 -0.32,-0.027 -4.073,10.077 2.477,0.206 1.853,-4.677 2.078,4.958 0.34,0.03 2.915,-4.481 0.976,4.885 2.273,0.204 z m 3.025,10.697 5.417,0.475 0.175,-2.02 -3.01,-0.265 0.177,-1.989 2.658,0.228 0.173,-2.018 -2.653,-0.234 0.183,-2.088 3.058,0.27 0.176,-2.031 -5.467,-0.484 z m 7.058,0.583 c 0.222,0.038 0.587,0.094 0.923,0.137 0.288,0.04 0.914,0.108 1.27,0.136 0.837,0.073 1.497,0.054 2.1,-0.054 0.897,-0.157 2.133,-0.79 2.297,-2.663 0.099,-1.118 -0.368,-1.976 -0.744,-2.339 C 79.14,10.155 78.901,9.933 78.747,9.852 L 78.753,9.817 C 78.847,9.691 82.044,5.701 82.044,5.701 L 79.321,5.467 c 0,0 -1.788,2.431 -2.742,3.696 L 76.345,9.141 76.688,5.244 74.397,5.043 Z m 4.296,-2.833 c -0.068,0.8 -0.593,1.224 -1.38,1.157 -0.22,-0.017 -0.336,-0.042 -0.454,-0.065 l 0.228,-2.595 c 0.09,-0.005 0.225,0.006 0.34,0.016 0.341,0.03 0.634,0.158 0.843,0.337 0.221,0.18 0.472,0.582 0.423,1.134 z"
             style="fill:#ffffff;fill-opacity:1;fill-rule:nonzero;stroke:none"
             id="path4011"
             inkscape:connector-curvature="0" />
        </g>
        <g
           id="g4013"
           transform="translate(144.3944,140.0304)">
          <path
             d="m 0,0 c -0.002,-0.778 -0.625,-1.414 -1.415,-1.414 -0.789,0.005 -1.433,0.644 -1.431,1.422 0.005,0.788 0.647,1.428 1.435,1.425 C -0.617,1.433 0.001,0.79 0,0"
             style="fill:#67b547;fill-opacity:1;fill-rule:nonzero;stroke:none"
             id="path4015"
             inkscape:connector-curvature="0" />
        </g>
      </g>
    </g>
    <g
       id="g4017"
       transform="matrix(0.35277777,0,0,-0.35277777,-47.998733,206.10615)">
      <g
         id="g4019">
        <g
           id="g4025">
          <g
             id="g4027">
            <path
               d="m 151.428,118.81 h 103.21 V 160 h -103.21 z"
               style="fill:url(#linearGradient4033-3);stroke:none"
               id="path4035"
               inkscape:connector-curvature="0" />
          </g>
        </g>
      </g>
    </g>
    <g
       id="g4037"
       transform="matrix(0.35277777,0,0,-0.35277777,-47.998733,206.10615)">
      <g
         id="g4039"
         clip-path="url(#clipPath4043-2)">
        <g
           id="g4045"
           transform="translate(184.6927,139.638)">
          <path
             d="m 0,0 c 0,2.311 1.48,2.355 3.477,2.355 h 0.227 c 1.947,0 3.015,-0.329 3.015,-2.565 v -1.56 c 0,-1.878 -0.485,-2.675 -3.086,-2.675 H 3.138 C 0.672,-4.445 0,-3.766 0,-1.898 Z m 0,-4.975 h 0.043 c 0.61,-0.808 1.734,-1.224 3.121,-1.224 h 0.717 c 2.896,0 5.015,0.737 5.015,4.078 v 2.041 c 0,3.088 -1.366,4.187 -4.925,4.187 H 2.866 C 1.31,4.107 0.442,3.578 0.038,3.011 H 0 V 7.949 H -2.177 V -5.879 H 0 Z"
             style="fill:#000000;fill-opacity:1;fill-rule:nonzero;stroke:none"
             id="path4047"
             inkscape:connector-curvature="0" />
        </g>
        <g
           id="g4049"
           transform="translate(220.0033,143.5005)">
          <path
             d="m 0,0 h -2.923 v 0.894 c 0,0.851 0.558,1.536 1.748,1.536 L 0.998,2.428 v 1.659 h -2.891 c -1.747,0 -3.211,-0.91 -3.211,-3.205 V 0 h -1.175 v -1.748 h 1.175 v -8.31 h 2.181 v 8.31 H 0 Z"
             style="fill:#000000;fill-opacity:1;fill-rule:nonzero;stroke:none"
             id="path4051"
             inkscape:connector-curvature="0" />
        </g>
        <g
           id="g4053"
           transform="translate(207.4119,136.6524)">
          <path
             d="m 0,0 c 0,-2.298 1.466,-3.21 3.213,-3.21 h 2.706 v 1.752 L 3.745,-1.46 c -1.19,0 -1.566,0.595 -1.566,1.448 V 5.1 H 5.104 V 6.848 H 2.179 v 4.087 H 0.002 V 6.848 H -1.173 V 5.1 h 1.175 z"
             style="fill:#000000;fill-opacity:1;fill-rule:nonzero;stroke:none"
             id="path4055"
             inkscape:connector-curvature="0" />
        </g>
      </g>
    </g>
    <path
       d="m 34.026331,154.82039 h 0.767652 v -0.78 h -0.767652 z"
       style="fill:#000000;fill-opacity:1;fill-rule:nonzero;stroke:none;stroke-width:0.35277778"
       id="path4057"
       inkscape:connector-curvature="0" />
    <g
       id="g4059"
       transform="matrix(0.35277777,0,0,-0.35277777,34.024561,159.03125)">
      <path
         d="M 0,0 H 2.181 V 10.304 H 0.005 Z"
         style="fill:#000000;fill-opacity:1;fill-rule:nonzero;stroke:none"
         id="path4061"
         inkscape:connector-curvature="0" />
    </g>
    <g
       id="g4063"
       transform="matrix(0.35277777,0,0,-0.35277777,-47.998733,206.10615)">
      <g
         id="g4065"
         clip-path="url(#clipPath4069-2)">
        <g
           id="g4071"
           transform="translate(196.8586,139.815)">
          <path
             d="m 0,0 c 0,1.98 0.921,2.178 3.168,2.178 h 0.441 c 2.53,0 2.857,-0.637 2.857,-1.938 L 6.468,-0.314 0,-0.316 Z m 2.374,-6.374 h 1.96 c 2.64,0 3.845,0.838 4.154,2.304 L 6.55,-3.485 C 6.23,-4.386 5.451,-4.622 3.744,-4.622 H 3.241 c -2.787,0 -3.243,0.354 -3.246,2.554 L 0,-2.064 h 8.646 v 1.902 c 0,3.451 -1.79,4.091 -4.654,4.091 H 2.925 c -2.264,0 -5.011,-0.392 -5.011,-3.905 V -2.41 c 0,-3.41 2.379,-3.966 4.46,-3.964"
             style="fill:#000000;fill-opacity:1;fill-rule:nonzero;stroke:none"
             id="path4073"
             inkscape:connector-curvature="0" />
        </g>
        <g
           id="g4075"
           transform="translate(228.3969,136.5201)">
          <path
             d="m 0,0 c 0,-0.97 -0.663,-1.327 -3.248,-1.327 h -0.58 c -2.191,0 -2.47,0.422 -2.47,1.26 v 0.54 c 0,0.971 0.547,1.338 2.36,1.338 h 0.972 C -1.312,1.811 0,1.485 0,0.398 Z m -2.708,7.224 h -0.816 c -2.955,0 -4.237,-0.905 -4.319,-2.271 l 2.077,-0.687 c 0.095,0.932 1.162,1.207 2.784,1.207 2.408,0 2.978,-0.141 2.978,-1.882 V 2.646 H -0.048 C -0.594,3.373 -1.335,3.56 -3.223,3.56 h -0.851 c -2.784,0 -4.405,-0.695 -4.405,-2.892 V 0.035 c 0.003,-1.816 0.695,-3.114 3.6,-3.114 h 2.115 c 2.104,0 2.314,0.343 2.728,0.947 H 0 v -0.946 h 2.177 v 6.625 c 0,2.887 -1.916,3.677 -4.885,3.677"
             style="fill:#000000;fill-opacity:1;fill-rule:nonzero;stroke:none"
             id="path4077"
             inkscape:connector-curvature="0" />
        </g>
        <g
           id="g4079"
           transform="translate(241.3351,143.7445)">
          <path
             d="M 0,0 C -0.965,0 -1.956,-0.366 -2.567,-1.367 H -2.644 V 0 l -2.067,-0.001 v -10.303 h 2.178 v 6.202 c 0,1.25 0.724,2.351 2.413,2.351 1.214,0 1.793,-0.329 1.926,-0.674 l 1.373,0.928 C 2.839,-0.56 1.929,0 0,0"
             style="fill:#000000;fill-opacity:1;fill-rule:nonzero;stroke:none"
             id="path4081"
             inkscape:connector-curvature="0" />
        </g>
      </g>
    </g>
    <g
       id="g4083"
       transform="matrix(0.35277777,0,0,-0.35277777,14.972339,154.05258)">
      <path
         d="m 0,0 h -5.643 v -2.831 h -3.016 l 5.839,-6.818 5.835,6.818 H 0 Z"
         style="fill:#000000;fill-opacity:1;fill-rule:nonzero;stroke:none"
         id="path4085"
         inkscape:connector-curvature="0" />
    </g>
    <g
       id="g4087"
       transform="matrix(0.35277777,0,0,-0.35277777,9.2945656,158.0089)">
      <path
         d="M 0,0 H 3.015 V -2.835 H 8.654 V 0 h 3.018 L 5.837,6.815 Z"
         style="fill:#000000;fill-opacity:1;fill-rule:nonzero;stroke:none"
         id="path4089"
         inkscape:connector-curvature="0" />
    </g>
  </g>
</svg>
