<svg xmlns="http://www.w3.org/2000/svg" version="1.1" viewBox="86.3 223.8 668.7 147.3">
  <defs>
    <style>
      .cls-1 {
        fill: #8c50fb;
      }
    </style>
  </defs>
  <!-- Generator: Adobe Illustrator 28.7.1, SVG Export Plug-In . SVG Version: 1.2.0 Build 142)  -->
  <g>
    <g id="katman_1">
      <path class="cls-1" d="M224,223.9c28.1,0,50.9,22.8,50.9,51s-24.9,52-48.6,68.9c-24.3,17.3-41.6,27.2-46.3,27.2s-6.9-3.1-6.9-6.9c-.7,1.7-2.1-56.5,0-89.1,1.7-27.6,22.8-50.9,51-50.9h0Z"/>
      <path class="cls-1" d="M157.3,287.3c1.4,22.8.7,61.8.2,60.6,0,2.7-1.2,6.7-5.1,6.4-3.2-.3-15.3-6.9-32.2-18.9-16.6-11.8-33.9-28.2-33.9-48s15.9-35.5,35.5-35.5,34.3,16.3,35.5,35.5Z"/>
      <path class="cls-1" d="M378.2,267.7c-5.2-3.5-11.3-5.3-18.1-5.3s-12.1,1.6-17.1,4.8c-1.8,1.2-3.5,2.6-5,4.2l-2.2-6.8h-21v106.5h28.3v-31.6c4.8,2.7,10.3,4,16.6,4s12.9-1.7,18.1-5.1c5.4-3.5,9.6-8.4,12.6-14.5,3.1-6.1,4.7-13.1,4.7-20.8s-1.5-14.7-4.6-20.8c-3-6.1-7.2-11-12.5-14.4h0ZM362.9,312.1c-2.4,2.4-5.3,3.6-8.6,3.6s-6.3-1.2-8.7-3.6c-2.5-2.5-3.8-5.6-3.8-9.3s1.2-6.7,3.8-9.3c2.5-2.5,5.4-3.8,8.7-3.8s6.2,1.2,8.6,3.8c2.4,2.5,3.6,5.6,3.6,9.3s-1.2,6.7-3.6,9.3Z"/>
      <path class="cls-1" d="M460.7,266.4c-5.1-2.7-11.4-4-18.9-4s-12.5.9-18.3,2.5c-5.7,1.6-11,3.5-15.8,5.9l8.2,19.7c4-2.1,8-3.5,11.6-4.2,3.8-.7,7.1-1.1,9.8-1.1s6.1.8,7.8,2.5c1.9,1.6,2.8,3.6,2.8,6.1v2.9c-4.7-3-10.6-4.5-17.7-4.5s-9.3,1-13.6,3c-4.2,1.9-7.6,4.7-10.3,8.5-2.6,3.8-3.9,8.5-3.9,14.1s1.2,9.3,3.6,13.2c2.4,3.9,5.7,6.9,9.8,9.1,4.2,2.2,8.9,3.3,14.1,3.3,8.5,0,15-2,19.6-5.8.4-.3.7-.6,1-.9l1.5,4.6h24.4v-45.7c0-6.9-1.3-12.8-3.9-17.7-2.6-5-6.5-8.8-11.7-11.4h0ZM440.4,324.9c-2.6,0-4.6-.7-6.1-2-1.4-1.4-2-3.2-2-5.1s.7-3.7,2-5c1.4-1.4,3.5-2.2,6.1-2.2s4.3.7,5.8,2.2c1.4,1.4,2.2,3,2.2,5s-.7,3.7-2.2,5.1c-1.4,1.4-3.4,2-5.8,2Z"/>
      <path class="cls-1" d="M518.3,264.5h-28.5v76.7h28.5v-76.7Z"/>
      <path class="cls-1" d="M504.1,223.8c-4.8,0-8.7,1.4-11.6,4.4-2.9,2.9-4.4,6.9-4.4,11.7s1.4,8.5,4.4,11.4c2.9,2.8,6.8,4.2,11.6,4.2s8.7-1.4,11.6-4.2c2.9-2.9,4.4-6.7,4.4-11.4s-1.4-8.8-4.4-11.7c-2.8-2.9-6.6-4.4-11.6-4.4Z"/>
      <path class="cls-1" d="M575.1,262.3c-3.5,0-6.9.9-10.2,2.7-3.3,1.8-6.1,3.8-8.6,6.3-.3.3-.7.6-.9.9l-2.7-7.7h-20.8v76.7h28.3v-47.4c.4-.3.9-.6,1.4-.8,4.3-2.2,9.6-3.3,16-3.3h5.3v-25.8c-.8-.5-2-.9-3.3-1.1-1.2-.3-2.7-.4-4.6-.4h0Z"/>
      <path class="cls-1" d="M648.9,268c-5.7-3.8-12.6-5.6-20.8-5.6s-14.7,1.8-20.5,5.3c-5.9,3.5-10.4,8.2-13.6,14.4-3.3,6.1-4.8,13-4.8,20.8s1.6,15.2,4.8,21.1c3.3,5.9,7.8,10.6,13.6,13.8,5.9,3.3,12.6,4.8,20.5,4.8s15.7-1.8,22-5.3c6.5-3.5,11.3-8.2,14.4-14.1l-18.3-9.5c-1.7,2.3-3.8,4.2-6.3,5.8-2.4,1.4-5.6,2.2-9.5,2.2s-9.3-1.2-12.4-3.8c-2-1.7-3.3-4-3.9-6.7h52.3c.2-.8.4-2,.4-3.6,0-1.6.1-3.3.1-5.1,0-7.2-1.6-13.8-4.7-19.9-3.1-6.1-7.6-10.9-13.4-14.5ZM628.4,283.9c4.9,0,8.5,1.2,10.8,3.8,1.4,1.4,2.4,3.2,3,5.2h-27.7c.6-2,1.7-3.6,3.1-5,2.7-2.6,6.3-3.9,10.8-3.9h0Z"/>
      <path class="cls-1" d="M726.6,234.6v31.8c-4.7-2.7-10.3-4.1-16.6-4.1s-12.9,1.8-18.3,5.3c-5.3,3.5-9.5,8.2-12.6,14.4-3,6.1-4.6,13-4.6,20.8s1.5,14.7,4.6,20.8c3,6.1,7.2,11,12.5,14.5,5.3,3.5,11.3,5.1,18.1,5.1s12.1-1.6,17.1-4.8c1.8-1.2,3.5-2.6,5-4.2l2.2,6.8h21v-106.6h-28.3ZM715.4,315.7c-3.3,0-6.2-1.2-8.6-3.6-2.4-2.5-3.6-5.6-3.6-9.3s1.2-6.7,3.6-9.3c2.4-2.5,5.3-3.8,8.6-3.8s6.4,1.2,8.7,3.8c2.5,2.5,3.8,5.6,3.8,9.3s-1.2,6.7-3.8,9.3c-2.4,2.4-5.3,3.6-8.7,3.6Z"/>
    </g>
  </g>
</svg>