<svg xmlns:xlink="http://www.w3.org/1999/xlink" xmlns="http://www.w3.org/2000/svg" class="w-[152px] h-[50px]" fill="none" viewBox="0 0 151.96 50.01"><title>Pando</title> <path d="M137.545 10.4526C129.599 10.4526 123.134 16.93 123.134 24.8919C123.134 32.8523 129.599 39.3312 137.545 39.3312C145.491 39.3312 151.955 32.8523 151.955 24.8919C151.955 16.93 145.491 10.4526 137.545 10.4526ZM137.545 32.3337C133.45 32.3337 130.118 28.9948 130.118 24.8919C130.118 20.7859 133.45 17.4502 137.545 17.4502C141.64 17.4502 144.972 20.7875 144.972 24.8919C144.972 28.9948 141.64 32.3337 137.545 32.3337Z" fill="#182430"/> <path d="M120.317 24.8922C120.317 8.75086 120.317 0 120.317 0H113.393V12.3366C111.225 11.0943 108.752 10.4249 106.235 10.4249C98.2884 10.4249 91.8239 16.9023 91.8239 24.8642C91.8239 32.8246 98.2884 39.3035 106.235 39.3035C114.959 39.3035 120.317 33.1197 120.317 24.8922ZM106.235 32.3075C102.14 32.3075 98.8076 28.9687 98.8076 24.8658C98.8076 20.7598 102.14 17.4241 106.235 17.4241C110.329 17.4241 113.662 20.7614 113.662 24.8658C113.662 28.9671 110.329 32.3075 106.235 32.3075Z" fill="#182430"/> <path d="M68.6424 12.8082C70.7456 11.4727 73.3664 10.6931 76.4429 10.6931C83.811 10.6931 89.5393 15.456 89.5393 23.258V39.0903H82.5618V24.0811C82.5618 20.3757 79.8759 17.6845 76.1748 17.6845C73.0456 17.6845 69.8901 19.6055 69.7955 23.8901V39.0903H62.8134C62.8134 39.0903 62.8134 31.2013 62.8134 23.727C62.8134 16.2527 68.6424 12.8082 68.6424 12.8082Z" fill="#182430"/> <path d="M45.2205 10.7093C37.2743 10.7093 30.8098 17.1866 30.8098 25.1486C30.8098 33.109 37.2743 39.5879 45.2205 39.5879C48.1064 39.5879 50.9349 38.7089 53.3062 37.1001C53.3062 38.3424 53.2721 39.0925 53.2721 39.0925L59.3027 39.1344C59.3027 39.1344 59.3027 39.8426 59.3027 25.1486C59.3027 10.4546 45.2205 10.7093 45.2205 10.7093ZM45.2205 32.5903C41.1258 32.5903 37.7935 29.2515 37.7935 25.1486C37.7935 21.0426 41.1258 17.7069 45.2205 17.7069C49.3153 17.7069 52.6475 21.0441 52.6475 25.1486C52.6475 29.2515 49.3153 32.5903 45.2205 32.5903Z" fill="#182430"/> <path d="M0 25.1191C0 41.2605 0 50.0113 0 50.0113H6.92327V37.6747C9.09154 38.9171 11.5651 39.5864 14.0821 39.5864C22.0283 39.5864 28.4928 33.109 28.4928 25.1471C28.4928 17.1867 22.0283 10.7078 14.0821 10.7078C5.35945 10.7078 0 16.8916 0 25.1191ZM14.0821 17.7038C18.1769 17.7038 21.5091 21.0426 21.5091 25.1455C21.5091 29.2515 18.1769 32.5872 14.0821 32.5872C9.98737 32.5872 6.65514 29.25 6.65514 25.1455C6.65514 21.0442 9.98737 17.7038 14.0821 17.7038Z" fill="#182430"/> </svg>