<svg width="738" height="110" viewBox="0 0 738 110" fill="none" xmlns="http://www.w3.org/2000/svg">
<g clip-path="url(#clip0)">
<path d="M732.379 92.8889C721.872 65.2667 711.608 37.6444 701.1 10.0222C698.901 4.15555 694.991 0.977775 688.637 0.244442L688.393 -2.71069e-06H686.438C686.193 0.488886 685.949 0.244442 685.705 0.244442C680.328 1.22222 676.419 3.91111 674.708 9.04444C662.245 41.8 650.026 74.5556 637.564 107.311V107.8H658.091C660.779 100.711 663.467 93.8667 665.911 86.7778C666.155 85.8 666.644 85.5556 667.866 85.5556H707.942C708.92 85.5556 709.409 85.8 709.897 86.7778C712.585 93.8667 715.274 100.711 717.717 107.8H738.244C736.045 102.911 734.334 98.0222 732.379 92.8889V92.8889ZM673.486 66.4889C678.129 54.0222 682.772 41.5556 687.66 28.8444C692.547 41.5556 697.19 54.0222 701.833 66.4889H673.486ZM630.966 47.9111V2.44444C630.966 2.2 631.21 1.71111 630.721 1.95555H613.126C612.149 1.95555 611.66 2.2 611.66 3.17778V108.044C611.66 108.289 611.66 108.289 611.905 108.289H630.721C630.966 108.289 630.966 108.289 630.966 108.044V47.9111ZM600.908 95.8222C589.911 66.9778 579.159 38.3778 568.407 9.53333C566.207 3.91111 562.297 0.733331 556.188 0.244442C555.944 0.244442 555.699 0.244442 555.699 -2.71069e-06H553.744C553.5 0.488886 553.011 0.244442 552.523 0.488886C547.146 1.71111 543.481 4.64444 541.526 9.77777C533.706 30.3111 526.13 50.8444 518.311 71.1333C513.668 83.3556 509.024 95.5778 504.626 107.556C505.115 108.044 505.603 107.8 506.092 107.8H525.153C527.841 100.956 530.529 93.8667 532.973 87.0222C533.462 85.8 533.95 85.5556 535.172 85.5556H575.005C575.982 85.5556 576.471 85.8 576.96 86.7778C579.648 93.8667 582.091 100.711 584.779 107.8H605.551V107.556C603.596 103.889 602.374 99.7333 600.908 95.8222ZM557.654 66.4889H541.77C541.037 66.4889 540.548 66.4889 541.037 65.5111C545.68 53.5333 550.079 41.3111 554.722 28.8444C559.609 41.5556 564.252 53.7778 568.895 66.4889H557.654ZM505.848 55H463.083C457.218 55 453.064 59.1556 453.064 64.5333C453.064 69.9111 457.462 74.0667 463.083 74.0667H488.986C487.276 76.7556 485.321 79.2 483.121 81.1556C462.594 99.4889 430.826 89.7111 424.228 62.8222C419.34 42.7778 433.27 22.2444 453.797 19.5556C468.215 17.6 479.944 22.9778 488.497 34.7111C488.986 35.4444 489.475 35.6889 490.452 35.6889H509.269C510.246 35.6889 510.491 35.6889 510.002 34.4667C502.182 16.3778 488.742 5.13333 469.436 0.733331C466.993 0.244442 464.305 -2.71069e-06 461.861 -0.244447V-0.488892H456.24V-0.244447C431.07 1.22222 410.299 19.0667 405.167 43.7556C404.678 46.4444 404.434 49.1333 404.189 51.8222C404.189 52.0667 404.434 52.5556 403.945 52.8V56.2222C404.678 57.4444 404.434 58.9111 404.434 60.1333C406.877 84.5778 425.45 104.378 449.642 108.533C451.109 108.778 452.33 108.533 453.797 109.267H463.816C466.015 108.778 467.97 108.533 470.17 108.044C491.674 103.889 508.536 87.0222 512.934 65.5111C513.423 63.5556 513.423 61.6 514.156 59.8889V54.0222C511.224 55 508.536 55 505.848 55V55ZM395.148 1.71111H377.064C376.331 1.71111 376.087 1.95555 376.087 2.68889V72.8444C374.132 69.9111 372.421 67.2222 370.711 64.7778C358.003 45.4667 345.296 25.9111 332.344 6.35555C329.901 2.68889 326.968 0.488886 322.57 0.244442L322.325 -2.71069e-06H310.84C310.107 -2.71069e-06 310.107 -2.74711e-06 310.107 0.733331V107.8H328.434C329.412 107.8 329.412 107.556 329.412 106.578V38.1333C329.412 37.6444 329.168 37.1556 329.656 36.4222C332.344 40.3333 334.788 44.2444 337.476 48.1556C349.939 66.9778 362.158 85.5556 374.621 104.378C376.087 106.578 378.042 108.044 380.485 108.778C380.974 109.022 381.463 108.778 381.952 109.267H385.862C386.35 108.778 386.839 109.022 387.328 108.778C391.482 107.311 394.17 104.622 395.148 100.467C395.148 99.9778 395.148 99.4889 395.636 99.2444V0.977775C395.392 1.71111 395.392 1.71111 395.148 1.71111V1.71111ZM301.065 96.5556C290.068 67.7111 279.072 38.6222 268.319 9.77777C266.12 4.15555 262.21 0.977775 256.345 0.488886C256.101 0.488886 255.856 0.488886 255.856 0.244442H253.901C253.168 0.733331 252.191 0.733331 251.213 0.977775C246.57 2.44444 243.149 5.37777 241.438 10.0222C232.397 33.9778 223.355 58.1778 214.313 82.1333C211.136 90.4444 207.96 99 204.783 107.311C204.783 107.556 204.783 107.8 204.538 108.044H225.066C227.754 101.2 230.442 94.3556 232.885 87.2667C233.374 86.0444 233.863 85.5556 235.329 85.5556H274.673C276.139 85.5556 276.628 86.0444 277.117 87.2667C279.56 94.1111 282.248 100.956 284.936 107.8V108.044H304.486C304.975 108.044 305.464 108.289 305.708 107.8V107.556C303.753 103.889 302.531 100.222 301.065 96.5556V96.5556ZM240.705 66.4889C245.348 54.0222 249.991 41.8 254.879 28.8444C259.766 41.5556 264.409 54.0222 269.052 66.4889H240.705Z" fill="black"/>
<path d="M70.3788 54.5111C70.3788 56.8223 70.8339 59.111 71.7181 61.2463C72.6023 63.3816 73.8983 65.3218 75.5322 66.9561C77.166 68.5905 79.1056 69.8869 81.2403 70.7713C83.375 71.6558 85.6629 72.1111 87.9735 72.1111C90.2841 72.1111 92.572 71.6558 94.7067 70.7713C96.8414 69.8869 98.781 68.5905 100.415 66.9561C102.049 65.3218 103.345 63.3816 104.229 61.2463C105.113 59.111 105.568 56.8223 105.568 54.5111C105.568 49.8433 103.714 45.3666 100.415 42.066C97.1152 38.7654 92.6399 36.9111 87.9735 36.9111C83.3071 36.9111 78.8318 38.7654 75.5322 42.066C72.2325 45.3666 70.3788 49.8433 70.3788 54.5111" fill="#F8C800"/>
<path d="M0 89.7111C0 94.3789 1.85372 98.8555 5.15337 102.156C8.45302 105.457 12.9283 107.311 17.5947 107.311C22.2611 107.311 26.7364 105.457 30.036 102.156C33.3357 98.8555 35.1894 94.3789 35.1894 89.7111C35.1894 85.0433 33.3357 80.5666 30.036 77.266C26.7364 73.9654 22.2611 72.1111 17.5947 72.1111C12.9283 72.1111 8.45302 73.9654 5.15337 77.266C1.85372 80.5666 0 85.0433 0 89.7111" fill="#2930A3"/>
<path d="M216.757 36.1778C213.58 18.5778 199.651 5.13334 182.056 2.44446C181.323 2.20001 180.346 2.44446 179.368 1.95557H141.735C140.513 1.95557 140.269 2.20001 140.269 3.42223V108.289H159.574V87.5111C159.574 86.2889 160.063 86.0445 161.04 86.0445H175.214C196.23 86.0445 213.824 70.6445 216.757 49.6222C216.757 48.8889 216.757 47.9111 217.246 47.4222V41.0667C217.001 39.1111 217.246 37.6445 216.757 36.1778V36.1778ZM192.32 59.1556C187.921 64.0445 182.056 66.4889 175.458 66.4889H161.529C160.552 66.4889 160.307 66.2445 160.307 65.2667V22C160.307 21.5111 160.063 20.7778 161.04 20.7778C166.661 20.7778 172.526 20.5333 178.146 21.0222C187.432 22 193.786 26.8889 196.963 35.6889C200.14 44.2445 198.429 52.3111 192.32 59.1556V59.1556Z" fill="black"/>
<path d="M0 54.5111C0 59.1789 1.85372 63.6555 5.15337 66.9561C8.45302 70.2568 12.9283 72.1111 17.5947 72.1111C22.2611 72.1111 26.7364 70.2568 30.036 66.9561C33.3357 63.6555 35.1894 59.1789 35.1894 54.5111C35.1894 49.8433 33.3357 45.3666 30.036 42.066C26.7364 38.7654 22.2611 36.9111 17.5947 36.9111C12.9283 36.9111 8.45302 38.7654 5.15337 42.066C1.85372 45.3666 0 49.8433 0 54.5111" fill="#F9400F"/>
<path d="M70.3788 17.1111H70.8675V22.7333L70.3788 22.2444V17.1111Z" fill="#B6C6F8"/>
<path d="M0 19.3111C0 23.9789 1.85372 28.4556 5.15337 31.7562C8.45302 35.0568 12.9283 36.9111 17.5947 36.9111C22.2611 36.9111 26.7364 35.0568 30.036 31.7562C33.3357 28.4556 35.1894 23.9789 35.1894 19.3111C35.1894 14.6433 33.3357 10.1667 30.036 6.86604C26.7364 3.5654 22.2611 1.71112 17.5947 1.71112C12.9283 1.71112 8.45302 3.5654 5.15337 6.86604C1.85372 10.1667 0 14.6433 0 19.3111" fill="#019D20"/>
<path d="M35.1894 54.7556C35.1894 57.0668 35.6445 59.3555 36.5287 61.4908C37.4129 63.6261 38.7089 65.5664 40.3428 67.2007C41.9766 68.835 43.9162 70.1314 46.0509 71.0159C48.1856 71.9003 50.4735 72.3556 52.7841 72.3556C55.0947 72.3556 57.3826 71.9003 59.5173 71.0159C61.652 70.1314 63.5916 68.835 65.2254 67.2007C66.8593 65.5664 68.1553 63.6261 69.0395 61.4908C69.9237 59.3555 70.3788 57.0668 70.3788 54.7556C70.3788 50.0878 68.5251 45.6111 65.2254 42.3105C61.9258 39.0099 57.4505 37.1556 52.7841 37.1556C48.1177 37.1556 43.6424 39.0099 40.3428 42.3105C37.0431 45.6111 35.1894 50.0878 35.1894 54.7556" fill="#FF4D82"/>
<path d="M35.1894 19.5556C35.1894 21.8668 35.6445 24.1555 36.5287 26.2908C37.4129 28.4261 38.7089 30.3663 40.3428 32.0006C41.9766 33.635 43.9162 34.9314 46.0509 35.8158C48.1856 36.7003 50.4735 37.1556 52.7841 37.1556C55.0947 37.1556 57.3826 36.7003 59.5173 35.8158C61.652 34.9314 63.5916 33.635 65.2254 32.0006C66.8593 30.3663 68.1553 28.4261 69.0395 26.2908C69.9237 24.1555 70.3788 21.8668 70.3788 19.5556C70.3788 14.8878 68.5251 10.4111 65.2254 7.11049C61.9258 3.80985 57.4505 1.95557 52.7841 1.95557C48.1177 1.95557 43.6424 3.80985 40.3428 7.11049C37.0431 10.4111 35.1894 14.8878 35.1894 19.5556" fill="#9762F2"/>
<path d="M70.3788 19.0666C70.3788 21.3779 70.8339 23.6665 71.7181 25.8018C72.6023 27.9372 73.8983 29.8774 75.5322 31.5117C77.166 33.146 79.1056 34.4424 81.2403 35.3269C83.375 36.2114 85.6629 36.6666 87.9735 36.6666C90.2841 36.6666 92.572 36.2114 94.7067 35.3269C96.8414 34.4424 98.781 33.146 100.415 31.5117C102.049 29.8774 103.345 27.9372 104.229 25.8018C105.113 23.6665 105.568 21.3779 105.568 19.0666C105.568 14.3988 103.714 9.92217 100.415 6.62153C97.1152 3.32089 92.6399 1.46661 87.9735 1.46661C83.3071 1.46661 78.8318 3.32089 75.5322 6.62153C72.2325 9.92217 70.3788 14.3988 70.3788 19.0666" fill="#73C1F6"/>
</g>
<defs>
<clipPath id="clip0">
<rect width="738" height="110" fill="white"/>
</clipPath>
</defs>
</svg>
