<svg xmlns="http://www.w3.org/2000/svg" xmlns:xlink="http://www.w3.org/1999/xlink" version="1.1" id="Layer_1" x="0px" y="0px" style="enable-background:new 0 0 478.7 67.5;" xml:space="preserve" viewBox="0 -0.03 478.7 67.63">
<style type="text/css">
	.st0{fill:#398CCB;}
	.st1{fill:#242F62;}
	.st2{fill:#0058A5;}
</style>
<g>
	<g>
		<path class="st0" d="M54.5,34.7L24.2,52.2v13.9c8.6,2.5,18.1,1.7,26.5-3.1c8.4-4.8,13.9-12.7,15.9-21.4L54.5,34.7z"/>
		<path class="st1" d="M24.2,15.3L66.9,40c2.6-13.7-3.5-28.1-16.3-35.5c-8.4-4.8-17.9-5.7-26.5-3.1V15.3z"/>
		<path class="st2" d="M22.6,1.9C9.4,6.5,0,19,0,33.8v33.8h22.6V1.9z"/>
		<path class="st1" d="M120.5,29.1c0,8-5.2,12.9-13.6,12.9h-7.3v9.6h-9.4V16.1h16.7C115.4,16.1,120.5,21.1,120.5,29.1 M111.2,29.1    c0-2.8-1.8-4.6-4.7-4.6h-7.1v9.1h7.1C109.5,33.7,111.2,31.9,111.2,29.1"/>
		<path class="st1" d="M148.4,26.6v25.1h-7.8l-0.5-2.9c-2.1,2.3-4.7,3.5-7.8,3.5c-6.7,0-11.4-5.4-11.4-13.1s4.7-13.1,11.4-13.1    c3.2,0,5.7,1.1,7.8,3.4l0.5-2.9H148.4z M139.5,39.1c0-3.2-2-5.4-4.9-5.4c-2.9,0-4.9,2.2-4.9,5.4s2,5.4,4.9,5.4    C137.6,44.6,139.5,42.4,139.5,39.1"/>
		<path class="st1" d="M173.4,28.7l-3.6,6.5c-1.4-0.9-2.4-1.2-3.6-1.2c-2.8,0-4.7,1.6-4.7,5.5v12.2h-9V26.6h7.9l0.6,3    c1.6-2.6,3.9-3.6,6.2-3.6C169.2,26,171.7,26.8,173.4,28.7"/>
		<path class="st1" d="M198.8,41.7h-17.1c0.5,1.9,2.5,3.4,5.6,3.4c2.2,0,4.4-0.6,6.3-1.9l4.4,5.1c-3,2.6-6.9,4-11.2,4    c-8.8,0-14.2-4.9-14.2-13c0-7.9,5.4-13.2,13.4-13.2C195.3,26,200.6,32.5,198.8,41.7 M181.7,37.1h8.9c0-2.5-1.6-4-4.3-4    C183.6,33.1,181.8,34.6,181.7,37.1"/>
		<path class="st1" d="M227.4,37.3v14.4h-9V37.8c0-2.6-1.3-4.2-3.5-4.2c-2.5,0-4.1,1.9-4.1,4.8v13.2h-9V26.6h7.8l0.5,2.9    c1.8-2.2,4.5-3.5,7.7-3.5C223.6,26,227.4,30.1,227.4,37.3"/>
		<path class="st1" d="M249.4,50.6c-2.2,1.2-4.5,1.7-7.1,1.7c-4.9,0-9-2.3-9-10.2v-8.3h-3.9v-7.2h3.9v-6l8.9-1v7.1h5.6v7.2h-5.6v8.3    c0,1.8,1.1,2.4,2.5,2.4c0.9,0,1.9-0.3,2.6-0.7L249.4,50.6z"/>
		<path class="st1" d="M282.4,29.1c0,8-5.2,12.9-13.6,12.9h-7.3v9.6h-9.4V16.1h16.7C277.3,16.1,282.4,21.1,282.4,29.1 M273.1,29.1    c0-2.8-1.8-4.6-4.7-4.6h-7.1v9.1h7.1C271.4,33.7,273.1,31.9,273.1,29.1"/>
		<path class="st1" d="M310.3,26.6v25.1h-7.8l-0.5-2.9c-2.1,2.3-4.7,3.5-7.8,3.5c-6.7,0-11.4-5.4-11.4-13.1s4.7-13.1,11.4-13.1    c3.2,0,5.7,1.1,7.8,3.4l0.5-2.9H310.3z M301.4,39.1c0-3.2-2-5.4-4.9-5.4c-2.9,0-4.9,2.2-4.9,5.4s2,5.4,4.9,5.4    C299.5,44.6,301.4,42.4,301.4,39.1"/>
	</g>
	<polygon class="st1" points="340.8,26.6 325.7,62.1 316.2,62.1 320.9,51.1 311.5,26.6 321.1,26.6 323.2,32.6 325.9,41.2    328.7,32.6 331.1,26.6  "/>
	<g>
		<path class="st1" d="M373,32.5v14.1c-3.7,3.9-8.2,5.7-13.5,5.7c-10.6,0-17.7-7.4-17.7-18.4c0-10.9,7.3-18.4,17.9-18.4    c4.8,0,9.2,1.9,12.6,5.4l-2.5,2.6c-2.7-2.7-6.4-4.3-10.1-4.3c-8.4,0-14.1,6-14.1,14.7c0,8.8,5.6,14.7,13.9,14.7    c3.8,0,7.1-1.3,9.9-3.7v-8.9h-11v-3.6H373z"/>
		<path class="st1" d="M395,28l-1.7,3.1c-1.3-0.9-2.6-1.2-4.1-1.2c-4.4,0-7.4,3.8-7.4,9.2v12.5h-3.6V26.6h3.3l0.1,4.8    c1.8-3.4,4.5-5.2,7.9-5.2C391.5,26.2,393.6,26.9,395,28"/>
		<path class="st1" d="M395,39.1c0-7.5,5.1-13.1,12.7-13.1c7.6,0,12.7,5.6,12.7,13.1s-5.1,13.1-12.7,13.1    C400.1,52.2,395,46.6,395,39.1 M416.7,39.1c0-5.3-3.6-9.5-9-9.5c-5.4,0-9.1,4.2-9.1,9.5c0,5.3,3.6,9.5,9.1,9.5    C413.1,48.7,416.7,44.5,416.7,39.1"/>
		<path class="st1" d="M447.1,26.6v25.1h-3.3l0-4.1c-2,2.8-5.2,4.5-8.9,4.5c-6.3,0-10.3-4.3-10.3-11.4V26.6h3.6v13.9    c0,5.2,2.6,8.1,7.1,8.1c4.8,0,8.1-3.7,8.1-8.5V26.6H447.1z"/>
		<path class="st1" d="M478.7,39.1c0,7.7-5,13.1-12.2,13.1c-4,0-7.4-1.7-9.4-4.4v15.8h-3.6v-37h3.3l0.1,4.4c1.8-3,5.4-4.9,9.7-4.9    C473.6,26.1,478.7,31.5,478.7,39.1 M475,39.1c0-5.7-3.7-9.5-9-9.5c-5.2,0-9,3.9-9,9.5s3.7,9.5,9,9.5C471.3,48.7,475,44.8,475,39.1    "/>
	</g>
</g>
</svg>