<svg xmlns="http://www.w3.org/2000/svg" xmlns:xlink="http://www.w3.org/1999/xlink" version="1.1" id="layer" x="0px" y="0px" style="enable-background:new -153 -46 652 652;" xml:space="preserve" viewBox="-126.6 144.1 599.9 272.7">
<style type="text/css">
	.st0{fill:#009FE3;}
	.st1{fill:#1D0E46;}
</style>
<path class="st0" d="M-105.2,284.9c-3.8,0-7.1-0.7-9.6-2.1c-2.6-1.4-4.6-3.3-6.2-5.7c-1.5-2.4-2.6-5.1-3.3-8.2c-0.6-3.1-1-6.3-1-9.5  c0-3.5,0.4-6.8,1.2-9.9c0.8-3.2,2-5.9,3.7-8.4c1.7-2.4,3.9-4.3,6.5-5.8c2.7-1.4,5.9-2.1,9.7-2.1c3,0,5.7,0.6,8,1.6  c2.3,1.1,4.4,2.5,6,4.1c0.8,0.8,1.5,1.6,2.1,2.6c0.6,1,1,1.9,1,2.9c0,1.4-0.5,2.4-1.4,3.1c-0.9,0.7-1.9,1-3,1  c-0.8,0-1.5-0.2-2.1-0.7c-0.6-0.5-1.2-1.1-1.8-1.7c-0.5-0.5-1.1-1.1-1.6-1.6c-0.6-0.5-1.2-1-1.9-1.5c-0.7-0.4-1.5-0.8-2.4-1.1  c-0.9-0.3-1.9-0.4-3.1-0.4c-2.1,0-3.9,0.5-5.4,1.4c-1.4,0.9-2.6,2.2-3.6,3.8c-0.9,1.6-1.6,3.5-2,5.6c-0.4,2.1-0.6,4.4-0.6,6.7  c0,2.4,0.2,4.7,0.6,6.9c0.4,2.2,1.1,4.1,2,5.7c0.9,1.6,2.1,2.9,3.5,3.8c1.4,0.9,3.1,1.4,5,1.4c2.2,0,4-0.5,5.3-1.5  c1.3-1,2.5-2.2,3.6-3.6c0.4-0.5,0.9-1.1,1.6-1.7c0.6-0.6,1.4-1,2.3-1c1.1,0,2.1,0.4,3,1.1c0.9,0.8,1.3,1.8,1.3,3  c0,1.8-0.9,3.7-2.7,5.6c-0.8,0.9-1.7,1.7-2.6,2.4c-0.9,0.8-2,1.4-3.2,2c-1.2,0.6-2.5,1-4,1.3C-101.7,284.7-103.4,284.9-105.2,284.9   M-82.9,280c0,1.5,0.4,2.5,1.1,3.2c0.7,0.7,1.9,1,3.5,1c1.7,0,2.9-0.4,3.5-1.3c0.6-0.8,0.9-1.8,0.9-2.9v-17.6h17.6V280  c0,2.8,1.5,4.2,4.5,4.2c1.7,0,2.9-0.4,3.5-1.2c0.6-0.8,0.9-1.8,0.9-2.9v-42.2c0-1.5-0.4-2.5-1.2-3.1c-0.8-0.6-1.9-0.9-3.2-0.9  c-1.4,0-2.5,0.3-3.3,0.9c-0.8,0.6-1.2,1.7-1.2,3.1l0,16.2h-17.6v-16.3c0-1.4-0.4-2.4-1.2-3c-0.8-0.6-1.9-0.9-3.2-0.9  c-1.4,0-2.5,0.3-3.3,0.9c-0.8,0.6-1.2,1.6-1.2,3V280z M-25.5,254c0.1-0.2,0.2-0.5,0.2-0.7c0-0.3,0-0.6-0.2-1l-3.2-9.2  c-0.2-0.6-0.5-0.9-0.9-0.9c-0.2,0-0.4,0.1-0.5,0.2c-0.1,0.1-0.2,0.3-0.2,0.5l-12.1,35c-0.3,0.7-0.4,1.4-0.4,2.3  c0,1.2,0.4,2.2,1.1,2.9c0.8,0.8,2,1.2,3.7,1.2c0.8,0,1.6-0.2,2.3-0.6c0.7-0.4,1.2-1.1,1.6-2.1l2.3-6.8l12.8,0c0.8,0,1-0.5,0.6-1.4  l-2-5.7c-0.1-0.4-0.4-0.6-0.9-0.6h-8.1L-25.5,254z M-12.2,281.8c0.3,0.9,0.8,1.5,1.6,1.8c0.8,0.4,1.6,0.5,2.6,0.5  c1.5,0,2.6-0.4,3.3-1.3c0.7-0.8,1-1.9,1-3.1c0-0.7-0.1-1.4-0.3-2.1l-13.9-40.4c-0.5-1.4-1.2-2.3-2.1-2.8c-0.9-0.5-1.9-0.7-3-0.7  c-0.8,0-1.5,0.1-2.2,0.3c-0.7,0.2-1.3,0.6-1.8,1.2c-0.2,0.3-0.4,0.6-0.5,0.9c-0.1,0.3,0,0.7,0.1,1.1L-12.2,281.8z M0.7,280  c0,1.5,0.4,2.5,1.1,3.2c0.7,0.7,1.9,1,3.5,1c1.7,0,2.8-0.4,3.4-1.3c0.6-0.8,0.9-1.8,0.9-2.9v-28.8l18.5,30c1.2,2,2.8,3,4.8,3  c1,0,1.8-0.1,2.4-0.4c0.6-0.3,1-0.6,1.3-1.1c0.3-0.4,0.5-0.9,0.6-1.5c0.1-0.5,0.1-1.1,0.1-1.6v-41.7c0-1.5-0.4-2.6-1.2-3.2  c-0.8-0.6-1.9-0.9-3.2-0.9c-1.4,0-2.4,0.3-3.2,0.9c-0.8,0.6-1.1,1.7-1.1,3.2l0,30.3L10.4,237c-0.8-1.3-1.6-2.2-2.4-2.6  s-1.7-0.6-2.6-0.6c-1.3,0-2.4,0.4-3.3,1.1c-0.9,0.7-1.3,1.9-1.3,3.5V280z M75.3,280.8c0,0.4,0,0.8,0.1,1.2c0.1,0.4,0.2,0.8,0.5,1.1  c0.3,0.3,0.7,0.6,1.2,0.8c0.5,0.2,1.2,0.3,2.1,0.3c0.9,0,1.6-0.1,2.2-0.3c0.5-0.2,0.9-0.5,1.2-0.8c0.2-0.4,0.4-0.8,0.5-1.2  c0.1-0.4,0.1-0.9,0.1-1.3l0-19.2c0-1.5-0.4-2.6-1.1-3.2c-0.7-0.6-1.7-0.9-2.8-0.9H67.1c-2.7,0-4,1.4-4,4.1c0,1.1,0.3,2.1,0.8,2.8  c0.5,0.7,1.6,1.1,3.2,1.1l7.8,0c-0.3,1.8-0.7,3.4-1.3,4.7c-0.6,1.4-1.3,2.6-2.4,3.6c-1.1,1.1-2.2,1.9-3.4,2.4  c-1.2,0.5-2.6,0.8-4.3,0.8c-4,0-7-1.5-8.9-4.5c-1.9-3-2.8-7.4-2.8-13.3c0-2.5,0.2-4.8,0.6-6.9c0.4-2.2,1.1-4,2-5.7  c0.9-1.6,2.1-2.9,3.6-3.8c1.5-0.9,3.3-1.4,5.4-1.4c1.1,0,2.2,0.2,3.1,0.5c1,0.3,1.8,0.7,2.6,1.2c0.8,0.5,1.5,1,2.1,1.6  c0.6,0.6,1.2,1.1,1.7,1.6c0.7,0.6,1.3,1.1,2,1.6c0.6,0.4,1.4,0.6,2.2,0.6c1.2,0,2.2-0.4,2.9-1.1c0.8-0.7,1.1-1.7,1.1-2.9  c0-1-0.3-1.9-1-2.8c-0.6-1-1.3-1.8-2.1-2.6c-1.9-1.8-4-3.3-6.4-4.3c-2.4-1-4.9-1.5-7.6-1.5c-3.9,0-7.3,0.7-10,2.2  c-2.7,1.4-5,3.4-6.7,5.8c-1.7,2.4-3,5.2-3.8,8.4c-0.8,3.2-1.2,6.4-1.2,9.8c0,4,0.4,7.6,1.2,10.7c0.8,3.2,2.1,5.9,3.8,8.1  c1.7,2.2,3.8,3.9,6.2,5.1c2.5,1.1,5.3,1.7,8.6,1.7c2.4,0,4.5-0.3,6.2-1c1.7-0.7,3.3-1.6,4.6-2.8c0.3-0.3,0.7-0.6,1-0.9  c0.4-0.3,0.7-0.7,1-1.2L75.3,280.8z M116.1,283.7c1.3,0,2.2-0.4,2.7-1.2c0.5-0.8,0.8-1.8,0.8-3c0-1.3-0.3-2.3-0.8-3.1  c-0.5-0.8-1.2-1.1-2.2-1.1H97.7v-12.4h16.7c1.3,0,2.2-0.4,2.7-1.2c0.5-0.8,0.7-1.8,0.7-3c0-2.6-1.1-3.9-3.4-3.9H97.7l0-12.1h18.5  c1.2,0,2.1-0.4,2.6-1.1c0.5-0.8,0.8-1.8,0.8-3c0-2.7-1.2-4.1-3.6-4.1H92.2c-1.1,0-1.9,0.3-2.6,1c-0.6,0.7-0.9,1.5-0.9,2.6v42  c0,2.5,1.2,3.8,3.5,3.8L116.1,283.7z M154.9,254c0.1-0.2,0.2-0.5,0.2-0.7c0-0.3,0-0.6-0.2-1l-3.2-9.2c-0.2-0.6-0.5-0.9-0.8-0.9  c-0.2,0-0.4,0.1-0.5,0.2c-0.1,0.1-0.2,0.3-0.3,0.5l-12.1,35c-0.3,0.7-0.4,1.4-0.4,2.3c0,1.2,0.4,2.2,1.1,3c0.8,0.8,2,1.2,3.7,1.2  c0.8,0,1.6-0.2,2.3-0.6c0.7-0.4,1.2-1.1,1.6-2.1l2.3-6.8h12.8c0.8,0,1-0.5,0.6-1.4l-2-5.7c-0.1-0.4-0.4-0.6-0.8-0.6l-8.1,0  L154.9,254z M168.2,281.8c0.3,0.9,0.8,1.5,1.6,1.8c0.8,0.4,1.6,0.5,2.6,0.5c1.5,0,2.6-0.4,3.3-1.3c0.7-0.8,1-1.9,1-3.1  c0-0.7-0.1-1.4-0.4-2.1l-13.9-40.4c-0.5-1.4-1.2-2.3-2.1-2.8c-0.9-0.5-1.9-0.7-3-0.7c-0.8,0-1.5,0.1-2.2,0.3  c-0.7,0.2-1.3,0.6-1.8,1.2c-0.2,0.3-0.4,0.6-0.5,0.9c-0.1,0.3,0,0.7,0.1,1.1L168.2,281.8z M193.7,242.4l11.3,0  c1.3,0,2.2-0.4,2.7-1.2c0.5-0.8,0.7-1.8,0.7-2.9c0-1.1-0.3-2.1-0.8-2.8c-0.6-0.8-1.4-1.1-2.5-1.1h-31.4c-1.1,0-1.9,0.4-2.5,1.2  c-0.5,0.8-0.8,1.8-0.8,2.9c0,1.1,0.3,2.1,0.8,2.9c0.5,0.8,1.4,1.2,2.6,1.2h10.8v37.8c0,2.7,1.5,4,4.6,4c1.7,0,2.8-0.4,3.5-1.2  c0.6-0.8,1-1.7,1-2.8V242.4z M232.9,242.4l11.3,0c1.3,0,2.2-0.4,2.7-1.2c0.5-0.8,0.7-1.8,0.7-2.9c0-1.1-0.3-2.1-0.8-2.8  c-0.5-0.8-1.4-1.1-2.5-1.1H213c-1.1,0-1.9,0.4-2.5,1.2c-0.5,0.8-0.8,1.7-0.8,2.9c0,1.1,0.3,2.1,0.8,2.9c0.5,0.8,1.4,1.2,2.6,1.2  l10.8,0v37.8c0,2.7,1.5,4,4.5,4c1.7,0,2.8-0.4,3.5-1.2c0.6-0.8,0.9-1.7,0.9-2.8V242.4z M251.6,280c0,1.5,0.4,2.5,1.1,3.2  c0.7,0.7,1.9,1,3.5,1c1.7,0,2.9-0.4,3.5-1.3c0.6-0.8,0.9-1.8,0.9-2.9v-42.2c0-1.4-0.4-2.4-1.2-3c-0.8-0.6-1.9-0.9-3.2-0.9  c-1.4,0-2.5,0.3-3.3,0.9c-0.8,0.6-1.2,1.6-1.2,3V280z M288.2,242.4l11.3,0c1.3,0,2.2-0.4,2.7-1.2c0.5-0.8,0.7-1.8,0.7-2.9  c0-1.1-0.3-2.1-0.8-2.8c-0.6-0.8-1.4-1.1-2.4-1.1h-31.4c-1.1,0-1.9,0.4-2.5,1.2c-0.5,0.8-0.8,1.8-0.8,2.9c0,1.1,0.3,2.1,0.8,2.9  c0.5,0.8,1.4,1.2,2.6,1.2h10.8v37.8c0,2.7,1.5,4,4.6,4c1.7,0,2.8-0.4,3.4-1.2c0.6-0.8,1-1.7,1-2.8V242.4z M348.1,280.3  c0,1.1,0.3,1.9,1,2.5c0.6,0.6,1.5,0.9,2.5,0.9h4.6c0.6,0,0.9-0.5,0.9-1.4v-46.5c0-0.9-0.3-1.4-0.9-1.4h-4.6c-1,0-1.9,0.3-2.5,0.9  c-0.6,0.6-1,1.4-1,2.5V280.3z M363.2,283.7c3.4,0,6.5-0.5,9.2-1.6c2.7-1.1,5.1-2.7,7-4.8c1.9-2.1,3.4-4.7,4.5-7.9  c1-3.1,1.6-6.7,1.6-10.8c0-4.1-0.5-7.7-1.6-10.7c-1-3-2.5-5.5-4.5-7.5c-1.9-2-4.3-3.5-7-4.5c-2.8-1-5.8-1.5-9.2-1.5l-2.2,0  c-0.6,0-0.9,0.5-0.9,1.4v5.4c0,0.9,0.3,1.4,0.9,1.4h2.8c3.9,0,6.9,1.2,9.2,3.7c2.2,2.5,3.3,6.6,3.3,12.3c0,5.9-1.1,10.2-3.3,12.9  c-2.2,2.8-5.3,4.1-9.2,4.1H361c-0.6,0-0.9,0.5-0.9,1.4v5.2c0,1,0.3,1.4,0.9,1.4H363.2z M418.2,283.7c1.3,0,2.2-0.4,2.7-1.2  c0.5-0.8,0.7-1.8,0.8-3c0-1.3-0.2-2.3-0.8-3.1c-0.5-0.8-1.2-1.1-2.2-1.1h-18.8v-12.5h16.7c1.3,0,2.2-0.4,2.7-1.2  c0.5-0.8,0.8-1.8,0.8-3.1c0-2.6-1.1-3.9-3.4-3.9h-16.7l0-12.1h18.5c1.2,0,2.1-0.4,2.6-1.1c0.5-0.8,0.7-1.8,0.7-3  c0-2.7-1.2-4.1-3.6-4.1h-23.8c-1.1,0-1.9,0.3-2.5,1c-0.6,0.7-0.9,1.5-0.9,2.6v42c0,2.5,1.2,3.8,3.5,3.8H418.2z M443.5,263.3  c2.6,0.5,4.5,1.3,5.7,2.4c1.2,1.1,1.9,2.7,1.9,4.8c0,2-0.7,3.5-2,4.7c-1.3,1.1-3.2,1.7-5.7,1.7c-1.2,0-2.3-0.1-3.2-0.3  c-0.9-0.2-1.7-0.5-2.5-0.8c-0.7-0.3-1.3-0.7-1.9-1.1c-0.6-0.4-1.1-0.8-1.7-1.2c-0.7-0.5-1.4-1-1.9-1.3c-0.6-0.3-1.2-0.5-2-0.5  c-1.2,0-2.2,0.6-3.1,1.7c-0.9,1.1-1.3,2.4-1.3,3.8c0,0.6,0.2,1.2,0.6,1.8c0.4,0.7,1.2,1.4,2.3,2.1c1.4,1,3.2,1.8,5.4,2.6  c2.3,0.8,5.1,1.2,8.5,1.2c2.5,0,4.8-0.3,6.9-0.9c2.2-0.6,4-1.5,5.6-2.8c1.6-1.2,2.8-2.9,3.7-4.8c0.9-2,1.4-4.3,1.4-7.1  c0-2.6-0.4-4.7-1.3-6.3c-0.9-1.6-2-3-3.3-4.1c-1.4-1.1-2.9-1.9-4.6-2.5c-1.7-0.6-3.3-1.1-4.9-1.5l-3.6-0.9c-2.1-0.5-3.8-1.3-5-2.3  c-1.2-1-1.8-2.4-1.8-4.2c0-0.8,0.1-1.5,0.4-2.3c0.2-0.8,0.6-1.4,1.2-2c0.6-0.6,1.3-1,2.3-1.4c1-0.4,2.1-0.5,3.6-0.5  c1.1,0,2.2,0.1,3.1,0.4c0.9,0.2,1.7,0.5,2.4,0.9c0.7,0.4,1.4,0.8,1.9,1.2c0.6,0.5,1.1,0.9,1.6,1.3c0.5,0.5,1,0.9,1.6,1  c0.5,0.2,1.1,0.2,1.8,0.2c0.8,0,1.5-0.3,2.1-0.7c0.6-0.4,1.1-1,1.3-1.7c0.3-0.7,0.5-1.5,0.5-2.3c0-1.3-0.5-2.4-1.4-3.5  c-0.9-1-2.2-1.9-3.7-2.7c-1.5-0.8-3.2-1.3-5.1-1.8c-1.9-0.4-3.8-0.6-5.7-0.6c-2.8,0-5.3,0.4-7.4,1.1c-2.2,0.8-4,1.8-5.4,3.2  c-1.5,1.3-2.6,2.9-3.4,4.8c-0.7,1.9-1.1,3.9-1.1,6c0,2.4,0.4,4.5,1.1,6.1c0.8,1.6,1.8,3,3.1,4.1c1.3,1.1,2.7,2,4.4,2.6  c1.7,0.6,3.4,1.1,5.2,1.5L443.5,263.3z M468,285c1.6,0,2.8-0.6,3.8-1.7c1-1.1,1.5-2.5,1.5-4.2c0-1.7-0.5-3-1.5-4.1  c-1-1.1-2.3-1.6-3.9-1.6c-1.6,0-2.9,0.5-3.9,1.6c-1,1.1-1.6,2.4-1.6,4.1c0,1.7,0.5,3.1,1.6,4.2C465.1,284.5,466.4,285,468,285   M306.8,266.5c0,6,1.5,10.6,4.5,13.7c3,3.1,7.4,4.7,13.2,4.7c2.7,0,5.3-0.4,7.5-1.2c2.3-0.8,4.2-2,5.8-3.5c1.6-1.5,2.9-3.5,3.7-5.7  c0.9-2.3,1.3-4.9,1.3-7.9v-28.7c0-1.5-0.4-2.5-1.2-3.1c-0.8-0.6-1.9-0.9-3.2-0.9c-1.4,0-2.5,0.3-3.3,0.9c-0.8,0.6-1.2,1.7-1.2,3.1  v27.5c0,4.1-0.8,7.1-2.3,8.8c-1.5,1.8-3.8,2.6-6.7,2.6c-3,0-5.3-0.9-6.8-2.6c-1.5-1.8-2.3-4.7-2.3-8.8v-27.6c0-1.4-0.4-2.4-1.2-3  c-0.8-0.6-1.9-0.9-3.2-0.9c-1.4,0-2.5,0.3-3.3,0.9c-0.8,0.6-1.2,1.6-1.2,3V266.5z M-27.4,346.1c0,1.1,0.3,1.9,1,2.5  c0.7,0.6,1.5,0.9,2.5,0.9h4.6c0.6,0,0.9-0.5,0.9-1.4l0-46.5c0-0.9-0.3-1.4-0.9-1.4h-4.6c-1,0-1.9,0.3-2.5,0.9c-0.6,0.6-1,1.4-1,2.5  V346.1z M-12.3,349.5c3.4,0,6.5-0.5,9.2-1.6c2.8-1.1,5.1-2.7,7-4.8c1.9-2.1,3.4-4.7,4.5-7.9c1-3.1,1.6-6.7,1.6-10.8  c0-4.1-0.5-7.7-1.6-10.7c-1.1-3-2.5-5.5-4.5-7.5c-1.9-2-4.3-3.5-7-4.5c-2.7-1-5.8-1.5-9.2-1.5h-2.2c-0.6,0-0.9,0.5-0.9,1.4v5.4  c0,1,0.3,1.4,0.9,1.4h2.8c3.9,0,7,1.2,9.2,3.7c2.2,2.5,3.3,6.6,3.3,12.3c0,5.9-1.1,10.2-3.3,12.9c-2.2,2.8-5.3,4.1-9.2,4.1l-2.8,0  c-0.6,0-0.9,0.5-0.9,1.4l0,5.2c0,0.9,0.3,1.4,0.9,1.4H-12.3z M-123.3,345.9c0,1.5,0.4,2.5,1.1,3.2c0.7,0.7,1.9,1,3.4,1  c1.7,0,2.9-0.4,3.5-1.3c0.6-0.8,1-1.8,1-2.9v-17.1h16.5c1.2,0,2.1-0.4,2.6-1.1c0.5-0.7,0.8-1.7,0.8-3c0-1.3-0.3-2.3-0.8-3  c-0.5-0.7-1.4-1.1-2.5-1.1h-16.5v-12.1l18.3,0c1.2,0,2.1-0.4,2.6-1.1c0.5-0.7,0.7-1.7,0.7-2.9c0-1.3-0.3-2.4-0.9-3.1  c-0.6-0.7-1.4-1.1-2.6-1.1h-23.5c-1.2,0-2.1,0.3-2.6,1c-0.6,0.7-0.8,1.5-0.8,2.5V345.9z M-86.8,345.9c0,1.5,0.4,2.5,1.1,3.2  c0.7,0.7,1.9,1,3.5,1c1.7,0,2.9-0.4,3.5-1.3c0.6-0.8,0.9-1.8,0.9-2.9v-42.2c0-1.4-0.4-2.4-1.2-3.1c-0.8-0.6-1.9-0.9-3.2-0.9  c-1.4,0-2.5,0.3-3.3,0.9c-0.8,0.6-1.2,1.6-1.2,3V345.9z M-70.6,345.9c0,1.5,0.4,2.5,1.1,3.2c0.7,0.7,1.9,1,3.5,1  c1.7,0,2.9-0.4,3.4-1.3c0.6-0.8,0.9-1.8,0.9-2.9v-28.8l18.5,30c1.2,2,2.8,3,4.8,3c1,0,1.8-0.1,2.4-0.4c0.6-0.3,1-0.6,1.3-1.1  c0.3-0.4,0.5-0.9,0.6-1.5c0.1-0.5,0.1-1.1,0.1-1.6v-41.7c0-1.5-0.4-2.6-1.2-3.2c-0.8-0.6-1.9-0.9-3.2-0.9c-1.4,0-2.4,0.3-3.2,0.9  c-0.8,0.6-1.1,1.7-1.1,3.2v30.3L-61,302.9c-0.8-1.3-1.6-2.2-2.4-2.6c-0.8-0.4-1.7-0.6-2.6-0.6c-1.3,0-2.4,0.4-3.3,1.1  c-0.9,0.7-1.3,1.9-1.3,3.5V345.9z M40.1,319.9c0.1-0.2,0.2-0.5,0.2-0.7c0-0.3,0-0.6-0.2-1l-3.2-9.2c-0.2-0.6-0.5-0.9-0.9-0.9  c-0.2,0-0.4,0.1-0.5,0.2c-0.1,0.1-0.2,0.3-0.3,0.5l-12.1,35c-0.3,0.7-0.4,1.4-0.4,2.3c0,1.2,0.4,2.2,1.1,2.9c0.8,0.8,2,1.2,3.7,1.2  c0.8,0,1.6-0.2,2.3-0.6c0.7-0.4,1.2-1.1,1.6-2.1l2.4-6.8h12.8c0.8,0,1-0.5,0.6-1.4l-2-5.7c-0.1-0.4-0.4-0.6-0.8-0.6h-8.1L40.1,319.9  z M53.4,347.7c0.3,0.8,0.8,1.4,1.6,1.8c0.8,0.4,1.6,0.5,2.6,0.5c1.5,0,2.6-0.4,3.3-1.3c0.7-0.8,1-1.9,1-3.1c0-0.7-0.1-1.4-0.4-2.1  l-13.9-40.4c-0.5-1.4-1.2-2.3-2.1-2.8c-0.9-0.5-1.9-0.7-3-0.7c-0.8,0-1.5,0.1-2.2,0.3c-0.7,0.2-1.3,0.6-1.8,1.2  c-0.2,0.3-0.4,0.6-0.5,0.9c-0.1,0.3,0,0.7,0.2,1.1L53.4,347.7z M95.2,350.8c1.9,0,3.5-0.1,5-0.5c1.5-0.3,2.8-0.7,4-1.3  c1.2-0.6,2.3-1.2,3.2-2c0.9-0.8,1.8-1.6,2.6-2.4c1.8-1.9,2.7-3.8,2.7-5.6c0-1.2-0.4-2.2-1.3-3c-0.9-0.8-1.9-1.1-3-1.1  c-0.9,0-1.7,0.3-2.4,1c-0.6,0.6-1.1,1.2-1.6,1.7c-1.1,1.4-2.3,2.6-3.6,3.6c-1.3,1-3.1,1.5-5.3,1.5c-2,0-3.6-0.5-5-1.4  c-1.4-1-2.5-2.2-3.5-3.8c-0.9-1.6-1.6-3.5-2-5.7c-0.4-2.2-0.6-4.5-0.6-6.9c0-2.3,0.2-4.5,0.6-6.7c0.4-2.1,1.1-4,2-5.6  c0.9-1.6,2.1-2.9,3.6-3.8c1.4-0.9,3.2-1.4,5.4-1.4c1.1,0,2.2,0.1,3.1,0.4c0.9,0.3,1.7,0.6,2.4,1.1c0.7,0.4,1.4,0.9,1.9,1.5  c0.6,0.5,1.1,1.1,1.6,1.6c0.7,0.7,1.3,1.2,1.9,1.7c0.6,0.5,1.3,0.7,2.1,0.7c1,0,2-0.3,3-1c0.9-0.7,1.4-1.7,1.4-3.1  c0-1-0.3-1.9-1-2.9c-0.6-1-1.3-1.8-2.1-2.6c-1.7-1.6-3.7-3-6-4.1c-2.3-1.1-5-1.6-8-1.6c-3.8,0-7,0.7-9.7,2.1  c-2.7,1.4-4.9,3.3-6.5,5.8c-1.7,2.4-2.9,5.2-3.7,8.4c-0.8,3.2-1.2,6.5-1.2,9.9c0,3.3,0.3,6.4,1,9.5c0.6,3.1,1.7,5.8,3.3,8.2  c1.5,2.4,3.6,4.3,6.2,5.7C88.1,350,91.3,350.8,95.2,350.8 M116.7,332.4c0,6,1.5,10.6,4.5,13.7c3,3.1,7.4,4.6,13.2,4.6  c2.7,0,5.3-0.4,7.5-1.2c2.3-0.8,4.2-2,5.8-3.5c1.6-1.5,2.9-3.5,3.7-5.7c0.9-2.3,1.3-4.9,1.3-7.9l0-28.7c0-1.5-0.4-2.5-1.2-3.1  c-0.8-0.6-1.9-0.9-3.2-0.9c-1.4,0-2.5,0.3-3.3,0.9c-0.8,0.6-1.2,1.7-1.2,3.1l0,27.5c0,4.1-0.8,7.1-2.3,8.8c-1.5,1.8-3.8,2.6-6.8,2.6  c-3,0-5.2-0.9-6.8-2.6c-1.5-1.8-2.3-4.7-2.3-8.8v-27.6c0-1.4-0.4-2.4-1.2-3.1c-0.8-0.6-1.9-0.9-3.2-0.9c-1.4,0-2.5,0.3-3.3,0.9  c-0.8,0.6-1.2,1.6-1.2,3.1V332.4z M167.2,301.6c0-0.9-0.3-1.4-0.9-1.4h-4.3c-1,0-1.9,0.3-2.5,0.9c-0.6,0.6-1,1.4-1,2.5v42.3  c0,1.5,0.4,2.5,1.1,3.2c0.7,0.7,1.9,1,3.5,1c1.7,0,2.8-0.4,3.3-1.2c0.6-0.8,0.9-1.8,0.9-2.8V301.6z M174.1,308.2  c1.5,0,2.7,0.2,3.7,0.6c1,0.4,1.8,0.9,2.4,1.6c0.6,0.7,1,1.5,1.3,2.3c0.2,0.9,0.4,1.8,0.4,2.8c0,1-0.1,2-0.4,3  c-0.2,0.9-0.7,1.7-1.3,2.4c-0.6,0.7-1.4,1.3-2.4,1.7c-1,0.4-2.2,0.6-3.7,0.6l-3.1,0c-0.6,0-0.9,0.5-0.9,1.4v5c0,0.9,0.3,1.4,0.9,1.4  h4.4l8,16c0.5,1,1,1.7,1.6,2.2c0.6,0.5,1.3,0.7,2.3,0.7c1,0,1.7-0.1,2.3-0.4c0.6-0.3,1.1-0.5,1.6-0.9c0.5-0.4,0.8-0.8,1-1.2  c0.2-0.4,0.2-0.9,0.2-1.6c0-0.4-0.1-0.8-0.2-1.2c-0.2-0.4-0.3-0.8-0.5-1.2l-7.4-15c2.5-1.7,4.2-3.7,5.2-6c1-2.3,1.5-4.7,1.5-7.1  c0-5.1-1.3-9-3.8-11.5c-2.5-2.5-6.6-3.8-12.3-3.8h-3.9c-0.6,0-0.9,0.5-0.9,1.4l0,5.2c0,0.9,0.3,1.4,0.9,1.4H174.1z M223.8,349.5  c1.3,0,2.2-0.4,2.7-1.2c0.5-0.8,0.7-1.8,0.7-3c0-1.3-0.2-2.3-0.7-3.1c-0.5-0.8-1.2-1.1-2.2-1.1h-18.9l0-12.5h16.7  c1.3,0,2.2-0.4,2.7-1.2c0.5-0.8,0.7-1.8,0.8-3.1c0-2.6-1.1-3.9-3.4-3.9l-16.7,0v-12.1h18.5c1.2,0,2.1-0.4,2.6-1.1  c0.5-0.8,0.7-1.8,0.7-3c0-2.7-1.2-4.1-3.6-4.1h-23.8c-1.1,0-2,0.3-2.6,1c-0.6,0.7-0.9,1.5-0.9,2.6v42c0,2.5,1.2,3.8,3.5,3.8H223.8z   M237.3,350.9c1.6,0,2.8-0.6,3.8-1.7c1-1.1,1.5-2.5,1.5-4.2s-0.5-3-1.5-4.1c-1-1.1-2.3-1.6-3.9-1.6c-1.6,0-2.9,0.5-3.9,1.6  c-1,1.1-1.6,2.4-1.6,4.1c0,1.7,0.5,3.1,1.6,4.2C234.5,350.3,235.8,350.9,237.3,350.9 M-105.6,402.8c0,1.4-0.1,2.5-0.4,3.3  c-0.2,0.9-0.6,1.5-1.1,2c-0.5,0.5-1.1,0.8-1.8,0.9c-0.7,0.2-1.4,0.3-2.2,0.3c-2.3,0-3.9-0.6-4.8-1.9c-0.9-1.2-1.6-3-2-5.1  c-0.1-0.9-0.4-1.5-0.7-2c-0.3-0.5-0.6-0.9-1-1.1c-0.4-0.3-0.8-0.4-1.2-0.5c-0.4-0.1-0.8-0.1-1.3-0.1c-1.2,0-2.3,0.3-3.2,1  c-0.9,0.7-1.3,1.9-1.3,3.6c0,0.7,0.1,1.6,0.3,2.6c0.2,1,0.5,2.1,1,3.2c0.4,1,1,2.1,1.7,3c0.7,0.9,1.6,1.8,2.7,2.5  c1.1,0.7,2.4,1.3,3.9,1.7c1.5,0.4,3.3,0.6,5.3,0.6c3,0,5.6-0.4,7.8-1.2c2.2-0.8,3.9-2.2,5.2-4.2c1-1.4,1.6-3,1.8-5  c0.3-1.9,0.4-4.1,0.4-6.5l0-30.2c0-1.4-0.4-2.4-1.2-3c-0.8-0.6-1.9-0.9-3.2-0.9c-1.4,0-2.5,0.3-3.3,0.9c-0.8,0.6-1.2,1.6-1.2,3  V402.8z M-72.8,407.9c-1.6-0.3-3-1-4.2-2c-1.2-1-2.1-2.2-2.8-3.7c-0.7-1.5-1.3-3.2-1.6-5.2c-0.4-1.9-0.5-4-0.5-6.3  c0-2.3,0.2-4.4,0.5-6.3c0.4-1.9,0.9-3.7,1.7-5.2c0.8-1.5,1.7-2.7,2.9-3.7c1.2-1,2.5-1.6,4.1-1.9c0.3-0.1,0.5-0.2,0.7-0.4  c0.2-0.2,0.2-0.5,0.2-1l0-5.8c0-0.9-0.4-1.4-1.1-1.3c-2.9,0.3-5.5,1.2-7.8,2.6c-2.3,1.4-4.2,3.2-5.8,5.5c-1.6,2.3-2.7,4.9-3.6,7.9  c-0.8,3-1.2,6.3-1.2,9.8c0,3.6,0.4,7,1.2,10c0.8,3,2,5.7,3.6,7.9c1.6,2.2,3.5,4,5.8,5.4c2.3,1.4,4.9,2.2,7.8,2.4  c0.8,0.1,1.1-0.4,1.1-1.3l0-5.8c0-0.5-0.1-0.9-0.2-1.1C-72.2,408-72.5,407.9-72.8,407.9 M-67.9,407.9c-0.3,0-0.5,0.2-0.7,0.4  c-0.2,0.2-0.3,0.5-0.2,1.1l0,5.8c0,0.9,0.4,1.4,1.1,1.3c2.9-0.3,5.5-1.1,7.7-2.4c2.3-1.4,4.2-3.1,5.8-5.4c1.6-2.2,2.8-4.8,3.6-7.9  c0.8-3,1.2-6.4,1.2-10c0-3.5-0.4-6.8-1.2-9.8c-0.8-3-2-5.6-3.6-7.9c-1.6-2.3-3.5-4.1-5.8-5.5c-2.3-1.4-4.9-2.3-7.8-2.6  c-0.8,0-1.1,0.4-1.1,1.4l0,5.8c0,0.5,0.1,0.9,0.2,1c0.2,0.2,0.4,0.3,0.7,0.4c1.6,0.3,2.9,1,4.1,1.9c1.2,1,2.1,2.2,2.9,3.7  c0.8,1.5,1.3,3.2,1.7,5.2c0.4,1.9,0.5,4.1,0.5,6.3s-0.2,4.4-0.5,6.3c-0.4,1.9-0.9,3.7-1.7,5.2c-0.8,1.5-1.7,2.7-2.9,3.7  C-64.9,406.9-66.3,407.6-67.9,407.9 M-44.5,411.7c0,1.5,0.3,2.5,1.1,3.2c0.7,0.7,1.9,1,3.5,1c1.7,0,2.9-0.4,3.5-1.3  c0.6-0.9,0.9-1.8,0.9-2.9v-42.2c0-1.4-0.4-2.4-1.2-3.1c-0.8-0.6-1.9-0.9-3.2-0.9c-1.4,0-2.5,0.3-3.3,0.9c-0.8,0.6-1.2,1.6-1.2,3  V411.7z M-28.6,411.7c0,1.5,0.4,2.5,1.1,3.2c0.7,0.7,1.9,1,3.5,1c1.7,0,2.8-0.4,3.4-1.3c0.6-0.9,0.9-1.8,0.8-2.9v-28.8l18.5,30  c1.2,2,2.8,3,4.8,3c1,0,1.8-0.1,2.4-0.4c0.6-0.3,1-0.6,1.3-1.1c0.3-0.4,0.5-0.9,0.6-1.5c0.1-0.5,0.1-1.1,0.1-1.6v-41.7  c0-1.5-0.4-2.6-1.2-3.2c-0.8-0.6-1.9-0.9-3.2-0.9c-1.4,0-2.4,0.3-3.2,0.9c-0.8,0.6-1.1,1.7-1.1,3.2V400l-18.1-31.2  c-0.8-1.3-1.6-2.2-2.4-2.6c-0.8-0.4-1.7-0.6-2.6-0.6c-1.3,0-2.4,0.4-3.3,1.1c-0.9,0.7-1.3,1.9-1.3,3.5V411.7z M27.1,398.3  c0,6,1.5,10.6,4.5,13.7c3,3.1,7.4,4.7,13.2,4.7c2.7,0,5.3-0.4,7.5-1.2c2.3-0.8,4.2-2,5.8-3.5c1.6-1.5,2.9-3.5,3.7-5.7  c0.9-2.3,1.3-4.9,1.3-7.9v-28.7c0-1.5-0.4-2.5-1.2-3.1c-0.8-0.6-1.9-0.9-3.2-0.9c-1.4,0-2.5,0.3-3.3,0.9c-0.8,0.6-1.2,1.6-1.2,3.1  v27.5c0,4.1-0.8,7.1-2.3,8.8c-1.5,1.7-3.8,2.6-6.8,2.6c-3,0-5.3-0.9-6.8-2.6c-1.5-1.8-2.3-4.7-2.3-8.8v-27.6c0-1.4-0.4-2.4-1.2-3  c-0.8-0.6-1.9-0.9-3.2-0.9c-1.4,0-2.5,0.3-3.3,0.9c-0.8,0.6-1.2,1.6-1.2,3V398.3z M84.1,395c2.6,0.5,4.4,1.3,5.7,2.4  c1.2,1.1,1.8,2.7,1.8,4.8c0,2-0.7,3.5-2,4.7c-1.4,1.1-3.2,1.7-5.7,1.7c-1.2,0-2.3-0.1-3.2-0.3c-0.9-0.2-1.7-0.4-2.5-0.8  c-0.7-0.3-1.3-0.7-1.9-1.1c-0.6-0.4-1.1-0.8-1.7-1.2c-0.7-0.5-1.4-1-1.9-1.3c-0.6-0.3-1.2-0.5-2-0.5c-1.2,0-2.2,0.6-3.1,1.7  c-0.9,1.1-1.3,2.4-1.3,3.8c0,0.6,0.2,1.2,0.6,1.8c0.4,0.7,1.2,1.4,2.3,2.1c1.4,0.9,3.2,1.8,5.4,2.6c2.2,0.8,5.1,1.2,8.5,1.2  c2.5,0,4.8-0.3,6.9-0.9c2.1-0.6,4-1.5,5.6-2.8c1.6-1.2,2.8-2.9,3.7-4.8c0.9-2,1.3-4.3,1.3-7.1c0-2.6-0.4-4.7-1.3-6.3  c-0.9-1.6-2-3-3.3-4.1c-1.3-1.1-2.9-1.9-4.6-2.5c-1.7-0.6-3.3-1.1-4.9-1.5l-3.6-0.9c-2.1-0.5-3.8-1.3-5-2.3c-1.2-1-1.8-2.4-1.8-4.2  c0-0.8,0.1-1.5,0.4-2.3c0.2-0.8,0.6-1.4,1.2-2c0.6-0.6,1.3-1,2.3-1.4c1-0.4,2.1-0.5,3.6-0.5c1.1,0,2.2,0.1,3.1,0.4  c0.9,0.2,1.7,0.5,2.4,0.9c0.7,0.4,1.4,0.8,1.9,1.2c0.6,0.5,1.1,0.9,1.6,1.3c0.5,0.5,1.1,0.9,1.6,1c0.5,0.2,1.1,0.3,1.8,0.3  c0.8-0.1,1.5-0.3,2.1-0.8c0.6-0.5,1.1-1,1.3-1.7c0.3-0.7,0.5-1.5,0.5-2.3c0-1.3-0.5-2.5-1.4-3.5c-1-1-2.2-1.9-3.7-2.7  c-1.5-0.7-3.2-1.3-5.1-1.8s-3.8-0.6-5.6-0.6c-2.8,0-5.3,0.4-7.4,1.1c-2.2,0.8-4,1.8-5.4,3.2c-1.5,1.3-2.6,2.9-3.4,4.8  c-0.8,1.9-1.1,3.9-1.1,6c0,2.4,0.4,4.5,1.1,6.1c0.8,1.6,1.8,3,3.1,4.1c1.3,1.1,2.8,2,4.4,2.6c1.7,0.6,3.4,1.2,5.2,1.5L84.1,395z   M108.5,416.8c1.6,0,2.8-0.6,3.8-1.7c1-1.1,1.5-2.5,1.5-4.2c0-1.7-0.5-3-1.5-4.1c-1-1.1-2.3-1.6-3.9-1.6c-1.6,0-2.9,0.5-3.9,1.6  c-1,1.1-1.6,2.4-1.6,4.1c0,1.7,0.5,3,1.6,4.2C105.6,416.2,106.9,416.8,108.5,416.8"/>
<path class="st1" d="M-112.8,209.4c0,1.3-0.3,2.4-1,3.4s-2,1.4-4,1.4c-1.9,0-3.3-0.4-4.2-1.2c-0.9-0.8-1.3-2.1-1.3-3.8v-50.8  c0-1.2,0.4-2.2,1.1-2.9c0.8-0.7,1.8-1.1,3-1.1l5.2,0c0.7,0,1.1,0.6,1.1,1.7V209.4z M-104.9,182.6c1.8,0,3.2-0.3,4.4-0.8  c1.2-0.5,2.1-1.2,2.9-2.1c0.7-0.9,1.2-1.9,1.5-3c0.3-1.1,0.5-2.3,0.5-3.6c0-1.2-0.2-2.3-0.5-3.4c-0.3-1.1-0.8-2.1-1.5-2.9  c-0.7-0.9-1.7-1.5-2.9-2c-1.2-0.5-2.7-0.7-4.4-0.7h-3.2c-0.7,0-1.1-0.6-1.1-1.7v-6.2c0-1.1,0.4-1.7,1.1-1.7l4.1,0  c6.8,0,11.7,1.7,14.8,5c3.1,3.3,4.6,8,4.6,14c0,2.1-0.3,4.2-0.8,6.4c-0.5,2.2-1.5,4.2-2.9,6.1c-1.4,1.9-3.4,3.4-5.8,4.6  c-2.4,1.2-5.6,1.8-9.5,1.8h-4.5c-0.7,0-1.1-0.6-1.1-1.7v-6.1c0-1.1,0.4-1.7,1.1-1.7H-104.9z M-73.6,193.4h9.7c0.5,0,0.9,0.3,1,0.8  l2.4,6.8c0.5,1.1,0.2,1.7-0.8,1.7h-15.4l-2.8,8.2c-0.4,1.2-1,2.1-1.9,2.6c-0.9,0.5-1.8,0.8-2.7,0.8c-2,0-3.5-0.5-4.4-1.4  c-0.9-0.9-1.4-2.1-1.4-3.5c0-1,0.2-1.9,0.5-2.7l14.5-42c0.1-0.2,0.2-0.4,0.3-0.6c0.1-0.1,0.3-0.2,0.6-0.2c0.4,0,0.8,0.4,1,1.1  L-69,176c0.2,0.5,0.2,0.8,0.2,1.2c0,0.3-0.1,0.6-0.2,0.9L-73.6,193.4z M-71.4,158c-0.2-0.6-0.3-1-0.2-1.4c0.1-0.3,0.3-0.7,0.6-1  c0.6-0.7,1.3-1.2,2.2-1.4c0.8-0.3,1.7-0.4,2.6-0.4c1.3,0,2.5,0.3,3.6,0.8c1.1,0.5,1.9,1.7,2.6,3.4l16.7,48.5  c0.3,0.9,0.4,1.7,0.4,2.6c0,1.4-0.4,2.6-1.2,3.7c-0.8,1-2.1,1.5-4,1.5c-1.1,0-2.2-0.2-3.1-0.6c-0.9-0.4-1.5-1.1-1.9-2.2L-71.4,158z   M-27.8,209.4c0,1.3-0.3,2.4-1,3.4c-0.7,1-2,1.4-4,1.4c-1.9,0-3.3-0.4-4.2-1.2c-0.9-0.8-1.3-2.1-1.3-3.8v-50.8c0-1.3,0.4-2.2,1.1-3  c0.8-0.7,1.8-1.1,3-1.1h5.2c0.7,0,1.1,0.6,1.1,1.7V209.4z M-23.1,164c-0.7,0-1.1-0.6-1.1-1.7v-6.2c0-1.1,0.4-1.7,1.1-1.7h4.6  c6.8,0,11.8,1.5,14.8,4.6c3,3.1,4.6,7.6,4.6,13.8c0,2.9-0.6,5.8-1.8,8.5c-1.2,2.8-3.3,5.2-6.3,7.3l8.9,18c0.2,0.5,0.4,0.9,0.6,1.4  c0.2,0.5,0.3,1,0.3,1.4c0,0.7-0.1,1.4-0.3,1.9c-0.2,0.5-0.6,1-1.2,1.5c-0.6,0.5-1.2,0.8-1.9,1.1c-0.7,0.3-1.6,0.4-2.8,0.4  c-1.1,0-2.1-0.3-2.7-0.9c-0.7-0.6-1.3-1.5-1.9-2.6l-9.6-19.2h-5.3c-0.7,0-1.1-0.6-1.1-1.7v-6c0-1.1,0.4-1.7,1.1-1.7l3.7,0  c1.8,0,3.2-0.3,4.4-0.8c1.2-0.5,2.2-1.2,2.9-2c0.7-0.9,1.2-1.8,1.5-2.9c0.3-1.1,0.4-2.3,0.4-3.5c0-1.2-0.1-2.3-0.4-3.4  c-0.3-1.1-0.8-2-1.5-2.8c-0.8-0.8-1.7-1.5-2.9-1.9c-1.2-0.5-2.7-0.7-4.4-0.7H-23.1z M7.7,209.2c0,1.8,0.4,3,1.3,3.8  c0.8,0.8,2.2,1.2,4.2,1.2c2,0,3.4-0.5,4.2-1.5c0.7-1,1.1-2.2,1.1-3.5l0-15.5l6.2-7.2l15.1,24.2c0.6,1.1,1.3,1.9,2.1,2.6  c0.8,0.6,1.8,0.9,3,0.9c1.8,0,3.2-0.5,4.2-1.5c1-1,1.5-2.2,1.5-3.7c0-1-0.3-1.9-0.8-2.7l-17.2-27.7l13.6-15.6c0.6-0.6,1-1.3,1.4-2  c0.3-0.7,0.5-1.4,0.5-2c0-0.8-0.2-1.5-0.5-2.1c-0.3-0.6-0.7-1.2-1.2-1.7c-0.5-0.5-1-0.8-1.6-1.1c-0.5-0.3-1.2-0.4-2-0.4  c-1.1,0-2,0.3-2.8,0.9c-0.8,0.6-1.5,1.3-2.2,2.1l-19.3,22.4v-20.7c0-1.7-0.5-2.9-1.5-3.7c-1-0.7-2.3-1.1-3.8-1.1c-1.6,0-3,0.4-4,1.1  c-1,0.7-1.5,2-1.5,3.7V209.2z M55.2,209.2c0,1.8,0.4,3,1.3,3.8c0.9,0.8,2.2,1.2,4.2,1.2c2.1,0,3.4-0.5,4.2-1.5  c0.7-1,1.1-2.2,1.1-3.5v-50.6c0-1.7-0.5-2.9-1.5-3.7c-1-0.7-2.3-1.1-3.8-1.1c-1.6,0-3,0.4-4,1.1c-1,0.7-1.5,2-1.5,3.7V209.2z   M74.1,209.2c0,1.8,0.4,3.1,1.3,3.8c0.9,0.8,2.3,1.2,4.2,1.2c2.1,0,3.4-0.5,4.1-1.5c0.7-1,1-2.2,1-3.5l0-34.6l22.2,36  c1.4,2.4,3.4,3.6,5.8,3.6c1.2,0,2.1-0.2,2.8-0.5c0.7-0.3,1.2-0.8,1.5-1.3c0.3-0.5,0.6-1.1,0.7-1.8c0.1-0.6,0.2-1.3,0.2-1.9v-50  c0-1.8-0.5-3.1-1.5-3.8c-1-0.7-2.2-1.1-3.8-1.1c-1.7,0-2.9,0.4-3.8,1.1c-0.9,0.7-1.4,2-1.4,3.8v36.4l-21.7-37.5  c-1-1.6-1.9-2.6-2.9-3.1c-1-0.5-2-0.7-3.2-0.7c-1.6,0-2.9,0.4-4,1.3c-1.1,0.9-1.6,2.3-1.6,4.2V209.2z M144.4,189.1  c3.1,0.6,5.3,1.6,6.8,2.9c1.5,1.3,2.2,3.2,2.2,5.8c0,2.4-0.8,4.3-2.4,5.6c-1.6,1.3-3.9,2-6.8,2c-1.5,0-2.8-0.1-3.9-0.3  c-1.1-0.2-2.1-0.5-3-0.9c-0.8-0.4-1.6-0.8-2.3-1.3c-0.7-0.5-1.4-0.9-2-1.4c-0.8-0.6-1.6-1.1-2.3-1.5c-0.7-0.4-1.5-0.6-2.4-0.6  c-1.4,0-2.7,0.7-3.7,2c-1.1,1.3-1.6,2.9-1.6,4.6c0,0.7,0.2,1.4,0.7,2.2c0.5,0.8,1.4,1.6,2.8,2.6c1.6,1.1,3.8,2.2,6.5,3.1  c2.7,0.9,6.1,1.4,10.2,1.4c3,0,5.7-0.4,8.3-1.1c2.6-0.7,4.8-1.8,6.7-3.3c1.9-1.5,3.4-3.4,4.5-5.8c1.1-2.4,1.6-5.2,1.6-8.6  c0-3.1-0.5-5.6-1.5-7.6c-1-2-2.3-3.6-4-4.9c-1.6-1.3-3.4-2.3-5.5-3c-2-0.7-4-1.3-5.9-1.8l-4.4-1c-2.6-0.6-4.6-1.6-6-2.8  c-1.4-1.2-2.1-2.9-2.1-5c0-0.9,0.1-1.8,0.4-2.7c0.3-0.9,0.8-1.7,1.5-2.4c0.7-0.7,1.6-1.2,2.7-1.7c1.1-0.4,2.6-0.6,4.3-0.6  c1.4,0,2.6,0.1,3.7,0.4c1.1,0.3,2,0.6,2.9,1.1c0.9,0.4,1.6,0.9,2.3,1.5c0.7,0.5,1.3,1.1,2,1.6c0.6,0.6,1.3,1,1.9,1.2  c0.6,0.2,1.3,0.3,2.1,0.3c1-0.1,1.8-0.4,2.6-0.9c0.7-0.5,1.3-1.2,1.6-2c0.4-0.9,0.6-1.8,0.6-2.7c0-1.5-0.6-2.9-1.7-4.2  c-1.1-1.3-2.6-2.3-4.4-3.2c-1.8-0.9-3.8-1.6-6.1-2.1c-2.2-0.5-4.5-0.8-6.8-0.8c-3.4,0-6.3,0.5-8.9,1.4c-2.6,0.9-4.8,2.2-6.5,3.8  c-1.8,1.6-3.1,3.5-4,5.8c-0.9,2.2-1.4,4.6-1.4,7.3c0,2.9,0.5,5.3,1.4,7.3c0.9,2,2.1,3.6,3.7,4.9c1.5,1.3,3.3,2.3,5.3,3.1  c2,0.8,4.1,1.4,6.2,1.8L144.4,189.1z M189.3,204.6c0.3,0.1,0.6,0.2,0.8,0.4c0.2,0.2,0.3,0.6,0.3,1.3v7c0,1.1-0.5,1.7-1.4,1.6  c-3.5-0.3-6.7-1.3-9.4-2.9c-2.7-1.6-5-3.8-6.9-6.5c-1.9-2.7-3.3-5.8-4.3-9.5c-1-3.6-1.5-7.6-1.5-12c0-4.2,0.5-8.1,1.5-11.7  c1-3.6,2.4-6.8,4.3-9.5c1.9-2.7,4.2-4.9,6.9-6.6c2.7-1.7,5.9-2.7,9.4-3.1c0.9-0.1,1.4,0.5,1.4,1.6l0,7c0,0.6-0.1,1-0.3,1.2  c-0.2,0.2-0.5,0.4-0.8,0.5c-1.9,0.4-3.5,1.2-4.9,2.3c-1.4,1.2-2.5,2.6-3.5,4.4c-0.9,1.8-1.6,3.9-2,6.2c-0.4,2.3-0.6,4.9-0.6,7.6  c0,2.7,0.2,5.3,0.6,7.6c0.4,2.3,1.1,4.4,2,6.2c0.9,1.8,2,3.3,3.4,4.4C185.7,203.4,187.4,204.2,189.3,204.6 M195.1,204.6  c1.9-0.4,3.6-1.2,5-2.3c1.4-1.2,2.5-2.6,3.4-4.4c0.9-1.8,1.6-3.9,2-6.2c0.4-2.3,0.6-4.9,0.6-7.6c0-2.7-0.2-5.3-0.6-7.6  c-0.4-2.3-1.1-4.4-2-6.2c-0.9-1.8-2.1-3.3-3.5-4.4c-1.4-1.2-3-1.9-4.9-2.3c-0.3-0.1-0.6-0.3-0.8-0.5c-0.2-0.2-0.3-0.6-0.3-1.2l0-7  c0-1.1,0.5-1.7,1.4-1.6c3.5,0.4,6.7,1.4,9.4,3.1c2.7,1.7,5,3.9,6.9,6.6c1.9,2.7,3.3,5.9,4.3,9.5c1,3.6,1.5,7.5,1.5,11.7  c0,4.4-0.5,8.4-1.5,12c-1,3.6-2.4,6.8-4.3,9.5c-1.9,2.7-4.2,4.8-6.9,6.4c-2.7,1.6-5.8,2.6-9.3,2.9c-0.9,0.1-1.4-0.5-1.4-1.6v-7  c0-0.6,0.1-1,0.3-1.3C194.5,204.8,194.8,204.6,195.1,204.6 M221.8,209.2c0,1.8,0.4,3,1.3,3.8c0.9,0.8,2.3,1.2,4.2,1.2  c2.1,0,3.4-0.5,4.1-1.5c0.7-1,1-2.2,1-3.5l0-34.6l22.2,36c1.4,2.4,3.4,3.6,5.8,3.6c1.2,0,2.1-0.2,2.8-0.5c0.7-0.3,1.2-0.8,1.5-1.3  c0.3-0.5,0.6-1.1,0.7-1.8c0.1-0.6,0.2-1.3,0.2-1.9v-50c0-1.8-0.5-3.1-1.4-3.8c-1-0.7-2.3-1.1-3.8-1.1c-1.7,0-2.9,0.4-3.8,1.1  c-0.9,0.7-1.4,2-1.4,3.8v36.4l-21.7-37.5c-1-1.6-1.9-2.6-2.9-3.1c-1-0.5-2-0.7-3.2-0.7c-1.6,0-2.9,0.4-4,1.3  c-1.1,0.9-1.6,2.3-1.6,4.2V209.2z M305.5,189.1c3.1,0.6,5.3,1.6,6.8,2.9c1.5,1.3,2.2,3.2,2.2,5.8c0,2.4-0.8,4.3-2.4,5.6  c-1.6,1.3-3.9,2-6.8,2c-1.5,0-2.8-0.1-3.9-0.3c-1.1-0.2-2.1-0.5-3-0.9c-0.8-0.4-1.6-0.8-2.3-1.3c-0.7-0.5-1.4-0.9-2-1.4  c-0.9-0.6-1.6-1.1-2.3-1.5c-0.7-0.4-1.5-0.6-2.4-0.6c-1.4,0-2.7,0.7-3.7,2c-1.1,1.3-1.6,2.9-1.6,4.6c0,0.7,0.2,1.4,0.7,2.2  c0.5,0.8,1.4,1.6,2.8,2.6c1.6,1.1,3.8,2.2,6.5,3.1c2.7,0.9,6.1,1.4,10.2,1.4c3,0,5.7-0.4,8.3-1.1c2.6-0.7,4.8-1.8,6.7-3.3  c1.9-1.5,3.4-3.4,4.5-5.8c1.1-2.4,1.6-5.2,1.6-8.6c0-3.1-0.5-5.6-1.5-7.6c-1-2-2.3-3.6-4-4.9c-1.6-1.3-3.4-2.3-5.5-3  c-2-0.7-4-1.3-5.9-1.7l-4.3-1c-2.6-0.6-4.6-1.6-6-2.8c-1.4-1.2-2.1-2.9-2.1-5c0-0.9,0.1-1.8,0.4-2.7c0.3-0.9,0.8-1.7,1.5-2.4  c0.7-0.7,1.6-1.2,2.7-1.7c1.1-0.4,2.6-0.6,4.3-0.6c1.4,0,2.6,0.1,3.7,0.4c1.1,0.3,2.1,0.6,2.9,1.1c0.9,0.4,1.6,0.9,2.3,1.5  c0.7,0.5,1.3,1.1,2,1.6c0.6,0.6,1.3,1,1.9,1.2c0.6,0.2,1.3,0.3,2.1,0.3c1-0.1,1.8-0.4,2.6-0.9c0.7-0.5,1.3-1.2,1.6-2  c0.4-0.9,0.6-1.8,0.6-2.7c0-1.5-0.6-2.9-1.7-4.2c-1.1-1.3-2.6-2.3-4.4-3.2c-1.8-0.9-3.8-1.6-6.1-2.1c-2.2-0.5-4.5-0.8-6.8-0.8  c-3.4,0-6.3,0.5-8.9,1.4c-2.6,0.9-4.8,2.2-6.5,3.8c-1.8,1.6-3.1,3.5-4,5.8c-0.9,2.2-1.4,4.6-1.4,7.3c0,2.9,0.5,5.3,1.4,7.3  c0.9,2,2.1,3.6,3.7,4.9c1.5,1.3,3.3,2.3,5.3,3.1c2,0.8,4.1,1.4,6.2,1.8L305.5,189.1z M329.7,163.9c0,3.6,0.9,6.4,2.7,8.3  c1.8,1.9,4.5,2.8,8,2.8c1.7,0,3.2-0.2,4.5-0.7c1.4-0.5,2.5-1.2,3.5-2.1c1-0.9,1.7-2.1,2.3-3.5c0.5-1.4,0.8-3,0.8-4.8v-17.3  c0-0.9-0.2-1.5-0.7-1.9c-0.5-0.4-1.1-0.6-1.9-0.6c-0.8,0-1.5,0.2-2,0.6c-0.5,0.4-0.8,1-0.8,1.9v16.6c0,2.5-0.5,4.3-1.4,5.3  c-0.9,1.1-2.3,1.6-4.1,1.6c-1.8,0-3.2-0.5-4.1-1.6c-0.9-1.1-1.4-2.8-1.4-5.3l0-16.7c0-0.9-0.3-1.5-0.7-1.8c-0.5-0.4-1.1-0.6-1.9-0.6  c-0.8,0-1.5,0.2-2,0.6c-0.5,0.4-0.7,1-0.7,1.8V163.9z M355.5,172c0,0.9,0.2,1.5,0.6,1.9c0.4,0.4,1.1,0.6,2.1,0.6  c1,0,1.7-0.3,2.1-0.8c0.4-0.5,0.6-1.1,0.6-1.8v-7.8l3.1-3.6l7.6,12.2c0.3,0.5,0.7,1,1.1,1.3c0.4,0.3,0.9,0.5,1.5,0.5  c0.9,0,1.6-0.3,2.1-0.8c0.5-0.5,0.7-1.1,0.7-1.8c0-0.5-0.1-0.9-0.4-1.3l-8.7-13.9l6.8-7.9c0.3-0.3,0.5-0.7,0.7-1  c0.2-0.4,0.3-0.7,0.3-1c0-0.4-0.1-0.7-0.2-1.1c-0.2-0.3-0.4-0.6-0.6-0.8c-0.3-0.2-0.5-0.4-0.8-0.5c-0.3-0.1-0.6-0.2-1-0.2  c-0.5,0-1,0.2-1.4,0.5c-0.4,0.3-0.7,0.7-1.1,1.1l-9.7,11.3l0-10.4c0-0.9-0.3-1.5-0.8-1.8c-0.5-0.4-1.1-0.6-1.9-0.6  c-0.8,0-1.5,0.2-2,0.6c-0.5,0.4-0.8,1-0.8,1.8V172z M281,157c0-2.9-1.7-4.3-5.2-4.3c-1.7,0-3.1,0.4-4,1.1c-0.9,0.7-1.4,1.8-1.4,3.2  v6.7l1.3,8.3c0.2,1.3,0.6,2.3,1.2,3c0.6,0.7,1.5,1,2.9,1c1.3,0,2.3-0.3,2.9-1c0.6-0.7,1-1.6,1.2-3l1.1-8.4L281,157z"/>
</svg>