<svg xmlns="http://www.w3.org/2000/svg" xmlns:xlink="http://www.w3.org/1999/xlink" version="1.1" id="Layer_1" x="0px" y="0px" style="enable-background:new 0 0 450 122;" xml:space="preserve" viewBox="5.5 24.19 437 81.46">
<style type="text/css">
	.st0{fill:#77CC00;}
	.st1{fill:#F4F7FA;}
	.st2{opacity:0.7;fill:#F4F7FA;enable-background:new    ;}
	.st3{fill:#FF3E47;}
	.st4{fill:none;}
	.st5{fill:#F36F21;}
	.st6{fill:#EF4651;}
	.st7{fill:#FE5000;}
	.st8{fill:#F37421;}
	.st9{fill:#F47B2C;}
	.st10{fill:#BE0000;}
	.st11{fill:#666666;}
	.st12{fill:url(#SVGID_1_);}
	.st13{fill:#666666;stroke:#666666;stroke-width:10.3367;stroke-linecap:round;stroke-linejoin:round;}
	.st14{fill:#D4D4D4;stroke:#D4D4D4;stroke-width:5.1683;stroke-linecap:round;stroke-linejoin:round;}
	.st15{fill:#663399;}
	.st16{fill-rule:evenodd;clip-rule:evenodd;fill:#282D70;}
	.st17{fill-rule:evenodd;clip-rule:evenodd;fill:#231F20;}
	.st18{fill:#273458;}
	.st19{fill:#ECA033;}
	.st20{fill:#3F454D;}
	.st21{fill:#00AFAA;}
	.st22{fill:#C6002B;}
	.st23{fill:#101820;}
	.st24{fill:#919395;}
	.st25{fill:#D62021;}
	.st26{fill:#000005;}
	.st27{fill:#237BBD;}
	.st28{fill:#FFFFFF;}
	.st29{fill:#0A0A45;}
	.st30{fill:#00FF80;}
</style>
<g>
	<path class="st29" d="M27.22,24.59H9.27c-1.86-0.2-3.53,1.16-3.73,3.02c-0.02,0.23-0.02,0.46,0,0.69v6.36h19.69   c6.75,0,10.61,4.24,10.61,10.92S31.91,56.7,24.97,56.7H5.54v28.66c-0.27,1.83,0.99,3.54,2.82,3.81c0.3,0.04,0.61,0.05,0.91,0.01   h4.24c1.84,0.23,3.51-1.07,3.74-2.91c0.04-0.3,0.03-0.61-0.01-0.91v-18.5h10.01c12.13,0,20.6-8.76,20.6-21.34   S39.35,24.59,27.22,24.59"/>
	<path class="st29" d="M69.47,80.08c6.36,0,10.46-6.36,10.46-11.96v-1.7h-1.87c-5.73,0-15.46,0.89-15.46,7.68   c0.1,3.42,2.95,6.11,6.37,6.02C69.14,80.11,69.31,80.1,69.47,80.08 M77.96,59.53h1.82v-1c0-5.98-3.84-8.04-8.49-8.04   c-3.32,0.08-6.56,0.97-9.46,2.59c-2.25,0.98-3.95,0.64-5.01-1.53l-0.89-1.68c-1.07-1.5-0.72-3.58,0.77-4.65   c0.2-0.14,0.42-0.26,0.65-0.36c4.58-2.43,9.67-3.72,14.85-3.75c11.79,0,18.84,6.6,18.84,18.14v24.73c0.27,1.8-0.98,3.47-2.77,3.73   c-0.32,0.05-0.64,0.05-0.96,0h-2.93c-1.79,0.23-3.43-1.03-3.66-2.82c-0.04-0.3-0.04-0.61,0.01-0.91v-1.8   c-0.01-0.65,0.05-1.31,0.17-1.95h-0.17c-2.9,5.18-8.36,8.42-14.3,8.49c-8.29,0-15.08-5.37-15.08-13.66   c0-13.3,16.42-15.55,26.6-15.55"/>
	<path class="st29" d="M101,45.8c-0.24-1.82,1.04-3.5,2.86-3.74c0.26-0.04,0.53-0.04,0.79-0.01h3.48c1.87-0.16,3.51,1.22,3.68,3.08   c0.02,0.22,0.02,0.45-0.01,0.67v4.24c0.02,1.09-0.04,2.17-0.19,3.25h0.17c1.78-5.45,6.79-11.52,13.22-11.52   c2.5,0,3.39,1.25,3.39,3.73V49c0.18,1.89-1.21,3.57-3.1,3.74c-0.25,0.02-0.49,0.02-0.74-0.01c-8.32,0-12.32,8.23-12.32,16.53v14.72   c0.26,1.8-0.98,3.47-2.78,3.73c-0.29,0.04-0.59,0.05-0.89,0.01h-3.99c-1.79,0.18-3.4-1.12-3.58-2.92   c-0.03-0.27-0.02-0.55,0.02-0.82V45.8z"/>
	<path class="st29" d="M133.05,28c-0.21-1.86,1.13-3.54,2.99-3.75c0.25-0.03,0.51-0.03,0.76,0h3.84c1.84-0.24,3.52,1.06,3.75,2.89   c0.04,0.29,0.04,0.58,0,0.86v30.19h5.62l9.46-13.58c0.86-1.65,2.62-2.63,4.48-2.5h4.24c3.03,0,4.01,2.12,2.31,4.48l-11.33,15.89   v0.3l13.39,20.53c1.53,2.59,0.53,4.48-2.5,4.48h-4.77c-1.86,0.12-3.59-0.92-4.37-2.61l-10.61-17.31h-5.92v16.12   c0.27,1.81-0.99,3.49-2.79,3.75c-0.32,0.05-0.64,0.05-0.96,0h-3.84c-1.84,0.24-3.52-1.06-3.75-2.89c-0.04-0.29-0.04-0.58,0-0.86V28   z"/>
	<path class="st29" d="M199.94,79.08c7.49-0.03,13.53-6.12,13.51-13.6c0-0.2-0.01-0.39-0.01-0.59c0.42-7.47-5.3-13.87-12.78-14.29   c-7.47-0.42-13.87,5.3-14.29,12.78c-0.03,0.5-0.03,1.01,0,1.52c-0.4,7.43,5.3,13.77,12.73,14.17c0.25,0.01,0.51,0.02,0.76,0.02    M199.85,41.05c13.83,0,25.1,9.91,25.1,23.84s-11.26,23.84-25.1,23.84c-13.83,0-24.93-9.82-24.93-23.84s11.16-23.84,25.01-23.84"/>
	<path class="st29" d="M252.86,79.19c6.26,0,11.43-5.09,11.43-14.13c0-8.66-4.65-14.28-11.24-14.28c-5.9,0-11.52,4.24-11.52,14.38   C241.54,72.21,245.46,79.19,252.86,79.19 M230.55,45.8c-0.21-1.86,1.13-3.54,2.99-3.75c0.25-0.03,0.51-0.03,0.76,0h2.84   c2.42,0,3.67,1.36,3.67,3.14v2.12c0,0.98,0,1.78,0,1.78H241c3.05-5.16,8.67-8.24,14.66-8.04c12.32,0,20.26,9.74,20.26,23.84   c0,14.47-8.93,23.84-20.9,23.84c-5.33,0.25-10.38-2.37-13.24-6.87h-0.17c0.19,1.3,0.29,2.61,0.28,3.92v16.08   c0.27,1.81-0.99,3.49-2.79,3.75c-0.32,0.05-0.64,0.05-0.96,0h-3.84c-1.84,0.24-3.52-1.06-3.75-2.89c-0.04-0.29-0.04-0.58,0-0.86   L230.55,45.8z"/>
	<path class="st29" d="M313.13,59.72c-0.19-6.36-4.03-10.1-9.21-10.1c-5.81,0-9.91,4.03-10.99,10.1L313.13,59.72z M304.2,41.05   c12.94,0,20.17,9.21,20.17,21.7c-0.06,2.13-1.79,3.83-3.92,3.84H292.6c0.32,7.22,6.44,12.82,13.66,12.49c0,0,0,0,0,0   c3.49-0.05,6.89-1.07,9.82-2.95c2.23-1.06,3.84-0.78,5.01,1.25l1.06,1.8c1.08,1.52,0.73,3.62-0.78,4.71   c-0.15,0.11-0.3,0.2-0.47,0.28c-4.61,2.97-9.97,4.55-15.44,4.56c-15.1,0-24.48-10.9-24.48-23.84c0-14.02,9.48-23.84,23.14-23.84"/>
	<path class="st29" d="M352.04,79.19c5.9,0,11.43-4.24,11.43-14.38c0-7.06-3.65-14.02-11.33-14.02c-6.17,0-11.43,5.09-11.43,14.11   C340.71,73.55,345.35,79.19,352.04,79.19 M349.91,41.01c10.01,0,13.32,6.51,13.32,6.51h0.17c-0.11-0.86-0.17-1.72-0.17-2.59V27.96   c-0.24-1.82,1.04-3.5,2.86-3.74c0.26-0.04,0.53-0.04,0.79-0.01h3.95c1.83-0.19,3.47,1.14,3.66,2.96c0.03,0.26,0.02,0.53-0.01,0.79   v56.02c0.27,1.8-0.96,3.47-2.76,3.74c-0.29,0.04-0.59,0.05-0.89,0.01h-3.31c-2.42,0-3.67-1.17-3.67-3.39v-1.8   c0-0.54,0.06-1.07,0.19-1.59h-0.19c-2.94,5.06-8.43,8.08-14.28,7.85c-12.32,0-20.28-9.74-20.28-23.84   c0-14.47,8.49-23.84,20.62-23.84"/>
	<path class="st29" d="M384.68,45.8c-0.24-1.82,1.04-3.5,2.86-3.74c0.26-0.04,0.53-0.04,0.79-0.01h3.92   c1.83-0.17,3.45,1.18,3.62,3.01c0.02,0.25,0.02,0.5-0.02,0.74v38.18c0.26,1.8-0.98,3.47-2.78,3.73c-0.29,0.04-0.59,0.05-0.89,0.01   h-3.92c-1.79,0.2-3.41-1.1-3.6-2.89c-0.03-0.28-0.02-0.56,0.02-0.84V45.8z"/>
	<path class="st29" d="M420.83,80.08c6.36,0,10.46-6.36,10.46-11.96v-1.7h-1.89c-5.71,0-15.44,0.89-15.44,7.68   C413.96,77.13,416.27,80.08,420.83,80.08 M429.32,59.53h1.87v-1c0-5.98-3.84-8.04-8.49-8.04c-3.32,0.09-6.56,0.97-9.46,2.59   c-1.53,1.04-3.61,0.65-4.66-0.87c-0.14-0.2-0.26-0.42-0.35-0.65l-0.89-1.68c-1.06-1.52-0.69-3.61,0.83-4.67   c0.19-0.13,0.4-0.25,0.61-0.34c4.58-2.43,9.67-3.72,14.85-3.75c11.79,0,18.84,6.6,18.84,18.14v24.73c0.25,1.81-1.01,3.48-2.82,3.74   c-0.31,0.04-0.63,0.04-0.94,0h-2.97c-1.79,0.23-3.43-1.03-3.66-2.82c-0.04-0.3-0.04-0.61,0.01-0.91v-1.8   c-0.01-0.65,0.05-1.31,0.17-1.95h-0.17c-2.91,5.18-8.36,8.41-14.3,8.49c-8.32,0-15.08-5.37-15.08-13.66   c0-13.3,16.42-15.55,26.6-15.55"/>
	<path class="st30" d="M11.01,47.09v-2.67c-0.25-1.82,1.03-3.5,2.86-3.75c0.27-0.04,0.54-0.04,0.81-0.01H24.8   c1.86-0.21,3.54,1.13,3.75,2.99c0.03,0.25,0.03,0.51,0,0.76v2.67c0.2,1.83-1.11,3.48-2.94,3.68c-0.27,0.03-0.54,0.03-0.81-0.01   H14.68c-1.79,0.24-3.43-1.02-3.67-2.81C10.97,47.67,10.97,47.38,11.01,47.09"/>
</g>
</svg>