<svg xmlns="http://www.w3.org/2000/svg" fill="currentColor" viewBox="0 0 528.5 176">
<path d="M160.5 39.702c.2 5.1.3 11 .3 17.8 0 6.8.1 13.7.3 20.7H172c2.3 0 4.4-.5 6.4-1.5s3.7-2.4 5.2-4.2c1.5-1.8 2.6-3.9 3.4-6.2.8-2.4 1.2-4.9 1.2-7.5 0-2.6-.4-5.1-1.1-7.4-.8-2.3-1.8-4.3-3-6-1.3-1.7-2.8-3-4.4-4.1-1.7-1-3.5-1.5-5.3-1.5h-13.9v-.1zm-24.5-4.1h38.2c4.3 0 8.4.6 12.1 1.8 3.8 1.2 7.1 2.9 10 5 2.9 2.1 5.1 4.5 6.8 7.3 1.7 2.8 2.5 5.8 2.6 9 0 3.2-.9 6.3-2.6 9.1-1.7 2.9-4.1 5.4-7.1 7.5-3 2.1-6.6 3.8-10.7 5-4.1 1.2-8.5 1.8-13.1 1.8h-10.9c.1 5.5.2 10.7.3 15.5.1 4.8.1 9 .1 12.6 0 2.3.7 4.2 2 5.8 1.4 1.6 3 2.4 5 2.4h1.1v.9h-32.5l-.1-.9h1.1c1.9 0 3.4-.8 4.7-2.3 1.3-1.6 1.9-3.4 2-5.7 0-.1 0-1.8-.1-5 0-3.3-.1-7.3-.1-12.2 0-4.9-.1-10.1-.2-15.8-.1-5.7-.2-10.9-.3-15.8-.1-4.9-.2-10.5-.3-17 0-2.3-.7-4.2-2-5.8-1.4-1.6-3-2.4-5-2.4h-1v-.8zM237.3 55.202l-10.4 30.6 23.9.1-13.5-30.7zm16.5 63.3l3-.1c2.1 0 3.7-.7 4.8-2.1 1.1-1.4 1.1-3.1.2-5.1l-9.4-21.2h-27l-6.2 18.4c-.9 2.8-.8 5.2.4 7.2 1.2 2 3.1 3 5.8 3l1.8-.1v1l-25-.1v-.8l1.1-.1c1.9 0 3.9-.8 5.7-2.4 1.9-1.6 3.2-3.6 4.1-5.8 4.6-12.8 9.1-25.5 13.5-38.2 4.4-12.7 9-25.5 13.5-38.3h4.2l35.3 77.4c1.2 2.5 2.7 4.3 4.5 5.6 1.8 1.3 3.7 1.9 5.8 1.9v.8h-36.1v-1zM347.2 59.202c-.8-3.6-2-6.7-3.6-9.3-1.5-2.5-3.2-4.6-5-6.2-1.8-1.6-3.8-2.8-5.9-3.6-2.1-.8-4.2-1.1-6.2-1.1-2.1 0-4.1.4-6.1 1.1-1.9.8-3.7 1.8-5.2 3.2-1.5 1.4-2.7 3-3.6 5-.8 1.9-1.3 4.1-1.3 6.4.1 2.5 1.2 4.6 3.4 6.4 2.2 1.8 4.8 3.5 8.1 5.1 3.2 1.6 6.7 3.2 10.5 4.9 3.8 1.7 7.3 3.6 10.5 5.8 3.2 2.2 5.9 4.8 8.1 7.7 2.2 3 3.3 6.6 3.4 10.8.1 4.4-.7 8.2-2.5 11.2-1.7 3.1-4.1 5.6-7 7.6-2.9 2-6.3 3.5-10 4.4-3.8.9-7.6 1.4-11.6 1.4-4.3 0-8.5-.5-12.5-1.5s-7.6-2.4-10.7-4.1l-.3-18.5h.8c1 3.6 2.4 6.6 4.2 9.1 1.8 2.5 3.8 4.6 6 6.2 2.2 1.6 4.6 2.8 7.1 3.6 2.5.8 5 1.1 7.4 1.1 2.4 0 4.6-.3 6.7-1 2.1-.7 4-1.6 5.6-2.8 1.6-1.2 2.9-2.6 3.8-4.3.9-1.7 1.4-3.6 1.4-5.7-.1-2.8-1.2-5.2-3.4-7.2s-4.8-3.8-8.1-5.5c-3.2-1.7-6.7-3.4-10.4-5-3.7-1.7-7.2-3.5-10.4-5.7-3.2-2.1-5.9-4.6-8.1-7.4-2.2-2.8-3.3-6.2-3.4-10.3-.1-4.4.7-8.2 2.2-11.4 1.6-3.2 3.7-5.9 6.3-8 2.6-2.1 5.7-3.7 9.1-4.8 3.5-1.1 7.1-1.6 10.8-1.6 3.6 0 7.1.5 10.6 1.4 3.5.9 6.8 2.2 9.8 3.9l.3 18.5h-.8v.2zM442.4 55.902c-.5-1.9-1.1-3.9-1.7-5.8-.6-1.9-1.5-3.6-2.5-5.1-1.1-1.5-2.4-2.8-4-3.7-1.6-1-3.6-1.5-6.1-1.5h-16.9l.3 25.7c0 3.6 0 7.3.1 11.2.1 3.9.1 7.9.2 11.7 0 3.9.1 7.7.2 11.4s.2 7.2.3 10.4c.1 2.3.6 4.2 1.5 5.8.9 1.6 2.7 2.4 5.5 2.4h1.1v.9h-32.5v-.9h1.1c1.9 0 3.4-.7 4.8-2.2 1.3-1.5 2-3.3 2-5.5 0-3.2 0-6.7-.1-10.4 0-3.7-.1-7.6-.1-11.5 0-3.9-.1-7.9-.1-11.8 0-3.9-.1-7.7-.2-11.4-.2-8.6-.3-17.2-.5-25.9h-16.9c-2.5 0-4.5.5-6.1 1.5-1.6 1-2.9 2.2-3.9 3.7s-1.8 3.2-2.4 5.1c-.6 1.9-1.1 3.8-1.7 5.8h-.8l1.5-20.3H441l2 20.3h-.6v.1zM475.9 55.202l-10.4 30.6 23.9.1-13.5-30.7zm16.5 63.3l3-.1c2.1 0 3.7-.7 4.8-2.1 1.1-1.4 1.1-3.1.2-5.1l-9.4-21.2h-27l-6.2 18.4c-.9 2.8-.8 5.2.4 7.2 1.2 2 3.1 3 5.8 3l1.8-.1v1l-25-.1v-.8l1.1-.1c1.9 0 3.9-.8 5.7-2.4 1.9-1.6 3.2-3.6 4.1-5.8 4.6-12.8 9.1-25.5 13.5-38.2 4.4-12.7 9-25.5 13.5-38.3h4.2l35.3 77.4c1.2 2.5 2.7 4.3 4.5 5.6 1.8 1.3 3.7 1.9 5.8 1.9v.8h-36.1v-1zM136 136.302v-.4h28.1v2.6c0 .7 0 1.3.1 2v3.8h-.2l-.2-1c-.3-1.5-1.1-2.8-2.4-3.9-1.3-1.1-2.7-1.6-4.3-1.6h-10c0 2 .1 4.3.1 6.8 0 2.6.1 5.2.1 8h7.4c.6 0 1.2-.1 1.8-.2.6-.1 1.2-.3 1.7-.6s.9-.7 1.3-1.1c.3-.5.6-1 .6-1.7h.3l.2 9.5h-.3c-.3-1.4-.9-2.4-1.9-3.1-1-.7-2.2-1-3.6-1h-7.4c0 1.8.1 3.6.1 5.3 0 1.7 0 3.4.1 4.9 0 1.5.1 2.9.1 4.1v3.1H158c1 0 1.9-.2 2.7-.5.8-.3 1.6-.8 2.2-1.4.6-.6 1.2-1.3 1.7-2.1s.9-1.6 1.2-2.5h.3l-1.4 8.4h-28.1l-.1-.4h.5c.8 0 1.5-.4 2.1-1.1.6-.7.9-1.6.9-2.5v-1.3c0-.9 0-2-.1-3.4 0-1.4 0-3-.1-4.7 0-1.8 0-3.6-.1-5.4 0-1.8 0-3.7-.1-5.4 0-1.8 0-3.3-.1-4.7 0-1.4 0-2.9-.1-4.6 0-1-.4-1.9-.9-2.6-.6-.7-1.3-1.1-2.2-1.1h-.3v-.2zM211.2 136.302l-.5-.1c-.9 0-1.7.4-2.6 1.1-.8.7-1.4 1.6-1.8 2.6-2.1 5.8-4.1 11.5-6.1 17.2-2 5.7-4 11.4-6 17.2h-1.8l-16.1-34.3c-.5-1-1.2-1.9-2-2.6-.8-.7-1.6-1.1-2.2-1.1l-.5-.1v-.3l15.8-.1v.5l-1-.1c-1 0-1.7.4-2.1 1.1-.4.7-.4 1.5 0 2.4l11.3 25.1 8.1-23.8c.2-.6.3-1.3.2-1.8-.1-.6-.3-1.1-.6-1.5-.3-.4-.7-.8-1.2-1-.5-.2-1-.4-1.7-.4l-.9-.1v-.3l11.5-.1.2.5zM222.8 144.702l-4.7 13.8 10.7.1-6-13.9zm7.5 28.5l1.4-.1c1 0 1.7-.3 2.1-1 .5-.6.5-1.4.1-2.3l-4.2-9.6h-12.2l-2.8 8.3c-.4 1.3-.4 2.3.2 3.2.5.9 1.4 1.3 2.6 1.3l.8-.1v.5l-11.3.2v-.3l.5-.1c.9 0 1.7-.4 2.6-1.1.8-.7 1.4-1.6 1.8-2.6 2.1-5.8 4.1-11.5 6.1-17.2 2-5.7 4-11.5 6.1-17.2h1.9l15.9 34.8c.5 1.1 1.2 1.9 2 2.5.8.6 1.7.9 2.6.9v.3h-16.2v-.4zM260.8 135.902l19.9 27.2-.3-23.1c0-1-.4-1.9-.9-2.6-.6-.7-1.3-1.1-2.2-1.1h-.5v-.4h9.4v.4h-.5c-.8 0-1.6.3-2.2 1-.6.7-.9 1.5-.9 2.5l.5 35h-2.8c-4-5.4-8-10.8-11.9-16.1-3.9-5.4-7.9-10.7-11.9-16.1l.4 27c0 1 .4 1.9.9 2.6.6.7 1.3 1.1 2.2 1.1h.5v.4h-9.4v-.4h.5c.8 0 1.6-.3 2.2-1 .6-.7.9-1.5.9-2.5l-.5-29.7c0-1-.4-1.9-.9-2.6-.6-.7-1.3-1.1-2.2-1.1h-.6v-.4h10.3v-.1zM327.8 146.702c-.2-1.2-.8-2.3-1.6-3.3s-1.8-1.9-3-2.6c-1.2-.7-2.5-1.3-3.9-1.7-1.4-.4-2.9-.6-4.4-.6-1.7 0-3.4.3-5 .9-1.6.6-3.1 1.5-4.4 2.8-1.3 1.3-2.3 3-3.1 5.1-.8 2.1-1.1 4.6-1.1 7.6 0 2.8.4 5.2 1.1 7.4.7 2.1 1.7 3.9 3 5.3s2.8 2.5 4.6 3.2c1.8.7 3.8 1.1 6 1.1 1.8 0 3.8-.3 6-.8 0-2.1-.1-3.9-.1-5.5v-2c0-.7 0-1.3-.1-1.8 0-.5 0-1.1-.1-1.7 0-1-.3-1.9-.9-2.6-.6-.7-1.4-1.1-2.2-1.1h-.5v-.4H332v.4h-.5c-.8 0-1.5.4-2.1 1.1-.6.7-.9 1.6-.9 2.5 0 1.5.1 2.9.1 4.2v3.4c0 1.1.1 2.1.1 3-1.9 1.1-3.9 1.9-6.1 2.5-2.2.6-4.4.8-6.7.8-2.8 0-5.6-.4-8.3-1.2-2.7-.8-5.1-2-7.3-3.7-2.2-1.6-3.9-3.6-5.2-6-1.3-2.4-2-5.1-2.1-8.3 0-3.2.6-5.9 1.8-8.3 1.2-2.4 2.9-4.4 4.9-5.9 2.1-1.6 4.4-2.8 7.1-3.6 2.6-.8 5.4-1.2 8.1-1.2 2.3 0 4.5.3 6.7.8s4.2 1.3 6.1 2.4l.1 7.7v.1zM338.9 136.302v-.4H367v2.6c0 .7 0 1.3.1 2v3.8h-.3l-.2-1c-.3-1.5-1.1-2.8-2.4-3.9-1.3-1.1-2.7-1.6-4.3-1.6h-10c0 2 .1 4.3.1 6.8 0 2.6.1 5.2.1 8h7.4c.6 0 1.2-.1 1.8-.2.6-.1 1.2-.3 1.7-.6s.9-.7 1.3-1.1c.3-.5.6-1 .6-1.7h.3l.2 9.5h-.3c-.3-1.4-.9-2.4-1.9-3.1-1-.7-2.2-1-3.6-1h-7.4c0 1.8.1 3.6.1 5.3 0 1.7 0 3.4.1 4.9 0 1.5.1 2.9.1 4.1v3.1h10.3c1 0 1.9-.2 2.7-.5.8-.3 1.6-.8 2.2-1.4.6-.6 1.2-1.3 1.7-2.1s.9-1.6 1.2-2.5h.3l-1.4 8.4h-28.1l-.1-.4h.5c.8 0 1.5-.4 2.1-1.1.6-.7.9-1.6.9-2.5v-1.3c0-.9 0-2-.1-3.4 0-1.4 0-3-.1-4.7 0-1.8 0-3.6-.1-5.4 0-1.8 0-3.7-.1-5.4 0-1.8 0-3.3-.1-4.7 0-1.4 0-2.9-.1-4.6 0-1-.4-1.9-.9-2.6-.6-.7-1.3-1.1-2.2-1.1h-.2v-.2zM376.1 173.202l.5-.1c.8 0 1.5-.4 2.1-1.1.6-.7.9-1.6.9-2.5v-2.3c0-1.5 0-3.3-.1-5.5 0-2.2 0-4.6-.1-7.1 0-2.5-.1-4.9-.1-7.1 0-2.2-.1-4.7-.1-7.6 0-1-.3-1.9-.9-2.6-.6-.7-1.4-1.1-2.2-1.1h-.5v-.4h14.6v.4h-.5c-.8 0-1.5.3-2.1 1-.6.7-.9 1.5-.9 2.5 0 1.6.1 3.4.1 5.4 0 2 .1 4 .1 6 0 2.1 0 4.1.1 6.2 0 2.1.1 4 .1 5.8 0 1.8.1 3.5.1 4.9v3.6h10.9c.7 0 1.4-.1 2.1-.4.7-.3 1.4-.6 1.9-1.1.6-.5 1.1-1 1.6-1.7.5-.6.8-1.3 1-2l.6-2.1h.5c-.1.5-.2 1.2-.3 1.9-.1.7-.2 1.5-.4 2.2-.1.8-.3 1.5-.4 2.2-.1.7-.2 1.4-.3 1.9l-.2.9-28.1-.1v-.1zM412.1 173.202l.5-.1c.8 0 1.5-.4 2.1-1.1.6-.7.9-1.6.9-2.5v-1.3c0-.9 0-2-.1-3.4 0-1.4 0-3-.1-4.7 0-1.7 0-3.5-.1-5.4 0-1.8 0-3.7-.1-5.4 0-1.8 0-3.3-.1-4.7 0-1.4 0-2.9-.1-4.6 0-1-.4-1.9-.9-2.6-.6-.7-1.3-1.1-2.2-1.1h-.5v-.4h14.7v.4h-.5c-.8 0-1.6.3-2.1 1-.6.7-.9 1.5-.9 2.5 0 2.2 0 4.7.1 7.4s.1 5.5.2 8.2c.1 2.7.1 5.3.1 7.8s.1 4.6.1 6.3c0 1 .3 1.9.9 2.6.6.7 1.4 1.1 2.2 1.1l.5-.1v.5l-14.7-.1.1-.3zM455.7 146.502c-.4-1.6-.9-3-1.6-4.2-.7-1.1-1.4-2.1-2.3-2.8-.8-.7-1.7-1.3-2.7-1.6-1-.3-1.9-.5-2.8-.5-1 0-1.9.2-2.7.5-.9.3-1.7.8-2.3 1.4-.7.6-1.2 1.4-1.6 2.2-.4.9-.6 1.8-.6 2.9 0 1.1.5 2.1 1.5 2.9 1 .8 2.2 1.6 3.6 2.3 1.4.7 3 1.5 4.7 2.2 1.7.7 3.3 1.6 4.7 2.6 1.4 1 2.7 2.2 3.6 3.5 1 1.3 1.5 3 1.5 4.9 0 2-.3 3.7-1.1 5.1-.8 1.4-1.8 2.5-3.1 3.4-1.3.9-2.8 1.6-4.5 2-1.7.4-3.4.6-5.2.6-1.9 0-3.8-.2-5.6-.7-1.8-.4-3.4-1.1-4.8-1.9l-.1-8.3h.3c.5 1.6 1.1 3 1.9 4.1.8 1.1 1.7 2.1 2.7 2.8 1 .7 2.1 1.3 3.2 1.6 1.1.3 2.2.5 3.3.5 1.1 0 2.1-.2 3-.5 1-.3 1.8-.7 2.5-1.3.7-.5 1.3-1.2 1.7-1.9.4-.8.6-1.6.6-2.6 0-1.3-.5-2.3-1.5-3.2-1-.9-2.2-1.7-3.6-2.5s-3-1.5-4.7-2.3c-1.7-.7-3.2-1.6-4.7-2.5-1.4-1-2.7-2.1-3.6-3.3-1-1.3-1.5-2.8-1.5-4.6 0-2 .3-3.7 1-5.1.7-1.4 1.6-2.6 2.8-3.6 1.2-1 2.6-1.7 4.1-2.1 1.6-.5 3.2-.7 4.9-.7 1.6 0 3.2.2 4.8.6 1.6.4 3.1 1 4.4 1.8l.1 8.3h-.3zM497.9 145.102c-.2-.9-.5-1.7-.8-2.6-.3-.9-.7-1.6-1.1-2.3-.5-.7-1.1-1.2-1.8-1.7-.7-.4-1.6-.7-2.7-.7h-7.6c0 3.9.1 7.7.1 11.5 0 1.6 0 3.3.1 5.1 0 1.8.1 3.5.1 5.3 0 1.8 0 3.5.1 5.1 0 1.7.1 3.2.1 4.7 0 1 .3 1.9.7 2.6.4.7 1.2 1.1 2.5 1.1h.5v.4h-14.6v-.4h.5c.8 0 1.6-.3 2.1-1 .6-.7.9-1.5.9-2.5v-4.7c0-1.7 0-3.4-.1-5.2 0-1.8 0-3.5-.1-5.3 0-1.8 0-3.5-.1-5.1-.1-3.8-.2-7.7-.2-11.7h-7.6c-1.1 0-2 .2-2.7.7-.7.4-1.3 1-1.8 1.7s-.8 1.5-1.1 2.3c-.3.9-.5 1.7-.7 2.6h-.3l.7-9.1h34.4l.9 9.1h-.4v.1zM525.4 146.502c-.4-1.6-.9-3-1.6-4.2-.7-1.1-1.4-2.1-2.3-2.8-.8-.7-1.7-1.3-2.7-1.6-1-.3-1.9-.5-2.8-.5-1 0-1.9.2-2.7.5-.9.3-1.7.8-2.3 1.4-.7.6-1.2 1.4-1.6 2.2-.4.9-.6 1.8-.6 2.9 0 1.1.5 2.1 1.5 2.9 1 .8 2.2 1.6 3.6 2.3 1.4.7 3 1.5 4.7 2.2 1.7.7 3.3 1.6 4.7 2.6 1.4 1 2.7 2.2 3.6 3.5 1 1.3 1.5 3 1.5 4.9 0 2-.3 3.7-1.1 5.1-.8 1.4-1.8 2.5-3.1 3.4-1.3.9-2.8 1.6-4.5 2-1.7.4-3.4.6-5.2.6-1.9 0-3.8-.2-5.6-.7-1.8-.4-3.4-1.1-4.8-1.9l-.1-8.3h.3c.5 1.6 1.1 3 1.9 4.1.8 1.1 1.7 2.1 2.7 2.8 1 .7 2.1 1.3 3.2 1.6 1.1.3 2.2.5 3.3.5 1.1 0 2.1-.2 3-.5 1-.3 1.8-.7 2.5-1.3.7-.5 1.3-1.2 1.7-1.9.4-.8.6-1.6.6-2.6 0-1.3-.5-2.3-1.5-3.2-1-.9-2.2-1.7-3.6-2.5s-3-1.5-4.7-2.3c-1.7-.7-3.2-1.6-4.7-2.5-1.4-1-2.7-2.1-3.6-3.3-1-1.3-1.5-2.8-1.5-4.6 0-2 .3-3.7 1-5.1.7-1.4 1.6-2.6 2.8-3.6 1.2-1 2.6-1.7 4.1-2.1 1.6-.5 3.2-.7 4.9-.7 1.6 0 3.2.2 4.8.6 1.6.4 3.1 1 4.4 1.8l.1 8.3h-.3zM44.162 54.305s1.914-3.36 9.955-5.406c8.04-2.045 8.883-.073 8.883.73 0 .804-.69 1.17-2.604 1.024-1.914-.147-8.806 1.534-10.184 2.118-1.379.584-3.446 1.242-3.6 2.557-.23 1.242-2.373.438-2.527.146-.23-.365.077-1.169.077-1.169zM68.796 67.624s-1.764-7.838-7.67-9.342c-5.905-1.504-10.813 3.325-11.81 7.125-.997 3.8.614 1.9 1.38 2.296.69.396.844 1.267 1.151 3.246.307 1.98 3.451.555 3.451.555s1.227-.396-.767-.95c-1.994-.555-1.917-.396-1.38-1.505.46-1.108.537-2.77.306-4.75-.23-1.98 1.918-4.75 6.75-3.325 4.83 1.425 7.361 7.6 7.285 8.55-.077.95 1.15.159 1.15.159s.69-.317.154-2.059z"/>
<path d="M57.938 55.071s6.274 0 10.24 4.951 5.12 8.35 4.76 9.385c-.289 1.109-.794.444-1.659-.221-.865-.592-.721-2.291-1.947-4.508-1.298-2.217-3.534-5.838-6.851-6.651-3.318-.813-4.904-1.626-5.12-1.922-.289-.221-.866-1.403.577-1.034zM85.316 55.619s-.302.39-1.206.858c-2.261 1.248-3.316 11.156 0 17.085 3.316 6.007 2.864 4.68 6.105 7.567 3.241 2.886 2.261 6.085 2.412 7.957.226 1.794.754 5.46 5.578 3.198s4.145-3.9 4.372-7.567c.226-3.744-1.659-4.915-1.508-7.645.226-2.73 3.995.39 6.708-2.184 2.714-2.653 1.885-2.263.754-1.95-1.206.311-6.708 2.184-11.08-.079-4.371-2.34-4.296-4.992 1.508-3.822 5.803 1.248 10.401-3.433 10.703-4.525.226-1.092 1.281-4.135-2.035-2.106-3.317 2.028-12.588 4.915-17.94-1.716 0 0-2.939-3.199-3.617-6.32 0-.078-.528-1.326-.754 1.249zM18.14 75.444c-2.49.46-3.296.921-2.417-.46.879-1.306.22-3.379-2.05-2.688.951-1.459 2.123-2.764 3.441-3.148 3.296-.921 5.713 2.995 6.885 4.453 1.172 1.459-3.37 1.305-5.86 1.843zM13.452 64.08c3.809-1.612 1.319.998-.22 1.996-1.537.998-3.588 6.373-3.734 3.839.073 0 .146-4.146 3.955-5.835zm32.372 21.804c-.22-2.15-4.101-8.215-5.64-5.528-1.464 2.61-4.833 1.536-4.833 1.536-7.324-1.536-4.907-9.213-4.541-16.814.366-7.524-2.49-7.831-8.203-10.595-5.712-2.764-5.126-.921-11.498-.384-6.372.538-4.98 16.353-4.98 16.353s-.147-3.454.586 7.985c.22 3.916.732 5.374 1.245 5.451-.074.384-.147.845-.22 1.229-.733 5.527 5.2 1.074 8.056-.461 2.856-1.536 3.076-5.835 6.592-8.215 3.515-2.38 3.002 1.228 3.002 1.228-5.053 17.966-8.642 16.89-11.352 15.355-2.71-1.535-4.687-2.38-4.833-.23-.147 2.15 3.002 33.935 5.492 19.424 2.49-14.51 12.89-12.284 13.476-16.353.586-4.146 5.713-2.687 7.251-2.073 1.538.614 3.735.23 2.93-3.455-.88-3.685.366-5.22 1.098-4.069a5.994 5.994 0 001.758 1.766c5.493 3.762 4.907 0 4.614-2.15z"/>
<path d="M19.598 114.553s-2.738 9.719-1.902 13.086c.913 3.367-5.325 4.592-1.369 8.571 3.956 4.056 1.826 6.505 6.086 7.653 4.26 1.225 7.988 1.837 10.955 2.985 3.043 1.148 4.412 7.27 12.552 8.035 8.14.689 11.716-1.76 15.52-4.898 3.804-3.061 8.52-.612 11.564-1.454 3.042-.841 4.868-6.505 3.575-7.04-1.293-.612-5.858-5.357-9.433-1.837-3.576 3.52-5.478 8.495-11.412 6.964-5.934-1.53-11.183-4.515-9.585-9.872 1.597-5.28-1.522-3.291-2.054-.842-.533 2.449-.076 7.194 1.597 8.418 1.674 1.225-3.119.613-5.02-4.285-1.903-4.898 2.434-7.653 2.434-7.653s2.054-1.607-.761-1.225c-2.815.383-7.836 4.056-6.39 8.419 0 0 1.14 2.755-3.196-1.608-4.412-4.285-5.02-6.122-3.88-9.106 1.142-2.985.533-3.75-3.27-5.281-3.805-1.53-5.174-10.178-5.174-10.178s-.152-1.454-.837 1.148z"/>
<path d="M52.911 131.381s1.367 4.346 7.233 4.956c5.866.61 7.554.229 4.018 1.906-3.456 1.677-3.134 3.507-7.634 2.44-4.581-1.068-5.304-4.803-5.465-6.633-.16-1.677-.16-3.965 1.848-2.669zM37.41 147s4.845 7.311 3.845 11.881c-1.077 4.569-7.614 2.589-8.229 4.265-.615 1.599 9.844 10.967 11.92 12.109 2.077 1.142 6.23 1.142 8.768-1.219 2.538-2.284-.922-4.112 2.692-6.092 3.692-1.904 1.077-1.447 5.614-.381 4.615 1.066 12.998-.686 10.537-5.331-2.538-4.646-4.46-2.742-9.152-3.808-4.692-1.066-3.922-1.143-6.076-2.666-2.153-1.447-4.153-4.569-4.153-4.569L37.41 147zM94.305 104.965s.423-8.27 2.816-6.787c2.393 1.56 1.9 4.213 1.69 6.553-.212 2.34-.845 11-3.52 10.219-2.745-.858-4.575-2.34-2.182-3.978 2.323-1.638 3.308-.702 3.449-3.823.14-3.12-.352-4.212-.775-3.354-.492.78-1.337 2.808-1.478 1.17zM20 96.541s2.1 5.024 1.425 8.734c-.675 3.709-2.25 7.187 1.05 6.26 3.301-.928 6.077-3.865 13.053-3.555 6.977.386 5.251-2.164 10.278-.232 5.026 1.932 5.25 8.27 6.6 9.815 1.351 1.546 4.802 5.565 14.254 2.01 9.377-3.555-3.6 1.7-7.127-1.391-3.525-3.092-6.376-16.695-12.527-18.859-6.152-2.164-6.602-1.39-9.452-1.082-2.776.31-5.927-.618-6.227 2.242-.3 2.859-1.575 6.105-4.426 4.869-2.85-1.237-2.25-9.352-2.25-9.352L20 96.541z"/>
<path d="M34.892 91.371s5.15 6.006 4.928 8.903c-.22 2.897 6.18 1.272 6.18 1.272s-3.016-7.278-8.68-10.245c-5.592-2.968-2.428.07-2.428.07zM12.001 114.143s1.077 1.032 1 3.413c0 2.301-5.153 5.158-5.768 5-.616-.08-5.307-2.302-6.846 1.666-1.615 3.889 2.154 7.699 5.153 7.778 3 0 6.077-2.063 6.153-2.937.077-.873-.307-2.063 6.153-6.269L19 120.968l-.154-3.333s-1.692 5.635-3.615 4.682c-1.922-.952-1.461-6.666-1.076-10.317L12 114.143zM108.542 86.817s3.011-5.898 3.819-5.816c.808.082 1.984 1.638 1.543 4.751-.441 3.113-1.175 6.554-2.644 6.226-1.47-.327-.588-1.802-1.69-1.884-.955-.164-2.351-2.048-1.028-3.277zM18.31 138l-1.318.211s.542.703-.466 1.407c-1.008.703-8.994 3.587-7.288 10.409 1.706 6.753 6.746-2.25 7.909-3.446 1.085-1.125 1.163-1.336 2.17-1.266 1.009.07 3.8.492 5.273 2.391 1.55 1.899 3.8 3.587 3.49 6.471-.233 2.884 9.148 4.15 8.916.915-.31-3.236.62-3.166-1.396-4.924-2.016-1.758-2.946-1.688-2.636-3.728.31-2.039-2.791-3.728-2.791-3.728L18.31 138z"/>
<path d="M35.275 162.579s-3.787 1.13-7.573-.829c-3.787-2.034-7.202-3.842-7.202-8.588-.074-4.746-3.712-.527-2.079 1.733 1.634 2.26 2.005 9.718 11.657 13.032 9.651 3.315 8.909-2.109 8.909-2.109l-3.712-3.239zM23.01 18.684s-8.701-3.34-11.067.389c-2.367 3.728.152.621 2.824 1.01 2.672.466 5.801 1.398 5.496 2.874-.306 1.398-2.596.854-3.512 1.553-.916.7-3.969 1.787-1.832 7.225 2.138 5.438 2.138 5.515 4.046 4.66 1.985-.854 2.443.7 1.909 1.632-.535.932-4.428.855-6.489 3.884-1.984 3.03-3.435 6.759-2.748 7.07.687.31 2.214-3.185 4.657-4.895 2.442-1.63.686-3.262 9.694-7.146 9.007-3.807 11.831-5.36 11.984-10.177.229-4.816-.916-11.342-4.504-11.73-3.587-.31-5.8 1.631-7.175 3.107-1.221 1.476-3.282.544-3.282.544zM33.88 8.508S27.28 4.59 23.484 6.548c-3.796 1.96.577.246 3.3 1.634 2.724 1.388 6.108 4.735 9.078 4.817 2.971.081-.66-3.674-1.98-4.49zM47.404 3.761s-3.676-1.948-3.388.39c.216 2.337-.36 2.182 1.226 4.597 1.513 2.416 3.027 5.767 3.099 7.56.072 1.791 2.379-.469 3.676-.39 1.297.077.937-3.975.937-5.377 0-1.403-3.027-5.611-5.55-6.78zM55.52 15.14s-1.451-.71-1.669 1.066c-.218 1.775-2.83 3.48-1.451 3.764 1.379.213 3.193-.71 3.556-2.202.217-1.562-.436-2.628-.436-2.628z"/>
<path d="M14.152 1.509s-1.646 11.187 5.91 15.154c0 0 1.496 1.349 1.796-1.349.224-2.618.299-4.284-.674-5.474-.898-1.19-5.76-4.681-5.76-8.014 0-3.332-1.198-1.27-1.272-.317zM60.312 25.921s2.602 1.673 3.27 5.895c.67 4.223 4.535 8.445 7.731 8.365 3.197-.08 14.867.956 17.32 6.214 2.453 5.258 6.244 3.904 6.467 1.354.223-2.549 2.304-5.974-.744-6.93-3.122-1.036-2.676-2.31-5.723-2.39-3.122-.08-4.089-.717-4.089-2.55 0-1.832 4.98-1.673 2.082-2.868-2.9-1.195-3.494 1.275-6.467 1.594-2.974.318-8.92 1.673-10.556-1.992-1.71-3.665 2.75-.319 4.015-.637 1.263-.24 2.898-.478 3.345-2.868.446-2.39-3.866-2.072-5.798-1.912-2.007.16-13.157-3.983-10.853-1.275zM90.917 20.242s9.582 2.5 10.025 8.94c.442 6.44-1.77 3.183-1.917 1.364-.147-1.818-2.654-5.076-5.381-5.607C90.917 24.333 89 21.984 89 21.302c.147-.606-.221-1.818 1.917-1.06z"/>
<path d="M78.315 42.347s1.585 1.341 4.755 2.832c3.17 1.49 5.888 2.83 6.34 6.333.53 3.576 1.133 4.321-.301 2.607-1.434-1.639-3.095-4.992-6.039-6.482-2.944-1.564-5.359-3.725-6.265-3.949-.755-.298-1.887-2.533 1.51-1.34zM105.932 43.034s-1.815-.666-2.304 3.923c-.488 4.515-.628 5.921-.628 5.921s1.047 1.11 3.701 1.259c2.653.148 4.608 3.256 4.259 1.11-.35-2.22-4.469-3.257-4.469-3.257s3.351-2.147 3.002-4.59c-.279-2.516-1.117-4.218-3.561-4.366z"/>
</svg>