<svg xmlns="http://www.w3.org/2000/svg" viewBox="0 0 635 119.01"><defs><clipPath id="wtwsczxd"><path fill="#5ef078" d="M0 0h634.999v119.004H0z"/></clipPath></defs><g clip-path="url(#wtwsczxd)"><path d="M104.8 7.674C98.074-.375 86.351-2.219 73.445 2.741c-14.53 5.58-28.436 18.948-38.159 36.668a126.21 126.21 0 0 0-11.877 31.456c-.39-.345-.772-.691-1.146-1.058-6.32-6.262-9.084-15.522-7.776-26.083 1.389-11.238 7.136-22.461 16.191-31.6a.5.5 0 0 0 .058-.058l-9.95-10.081c-.059.059-.119.11-.169.162C9.372 13.5 2.2 27.649.428 41.981-1.425 57 2.787 70.445 12.29 79.868a39.57 39.57 0 0 0 8.283 6.277 187.238 187.238 0 0 0-1.5 31.588h14.17a173.488 173.488 0 0 1 1-26.716 49.631 49.631 0 0 0 8.791.772c1.411 0 2.837-.073 4.27-.191a59.689 59.689 0 0 0 22.806-6.042C81.47 80 91.862 70.593 99.36 59.076c12.677-19.462 14.868-40.121 5.438-51.41Zm-17.31 43.67a66.212 66.212 0 0 1-8.04 10.025 56.818 56.818 0 0 1-27.9 15.471 44.964 44.964 0 0 1-14.978.14c7.254-33.4 24.82-54.431 41.951-61.008 6.886-2.646 12.781-2.345 15.4.786 4.446 5.321 3.256 19.718-6.431 34.594Z" fill="#5ef078"/><path d="M143.059 60.34c-3.521-5.027-11.061-9.679-20.116-9.679-17.227 0-30.3 14.706-30.3 32.683s13.075 32.69 30.3 32.69c9.055 0 16.6-4.652 20.116-9.679v8.422h13.831V51.925h-13.831v8.415Zm-17.6 43.12c-11.186 0-18.734-8.8-18.734-20.115s7.548-20.116 18.734-20.116 18.734 8.8 18.734 20.116-7.541 20.115-18.734 20.115" transform="translate(5.417 2.962)" fill="#5ef078"/><path d="M187.983 52.82h17.977v12.318h-17.977v28.039c0 7.79 3.4 10.686 10.561 10.686a22.407 22.407 0 0 0 7.416-1.257v12.326a33.437 33.437 0 0 1-10.312 1.381c-12.068 0-21.5-6.666-21.5-20.872v-30.3h-13.071V52.82h13.074V35.343h13.832Z" transform="translate(9.418 2.066)" fill="#5ef078"/><path d="M221.784 83.35c0 11.193 7.923 19.865 19.108 19.865a18.739 18.739 0 0 0 17.228-11.06l12.068 6.534a32.524 32.524 0 0 1-29.3 17.353c-18.859 0-33.19-14.082-33.19-32.691s14.332-32.683 33.19-32.683a32.524 32.524 0 0 1 29.3 17.353l-12.068 6.532a18.739 18.739 0 0 0-17.228-11.061c-11.186 0-19.108 8.679-19.108 19.865Z" transform="translate(12.144 2.962)" fill="#5ef078"/><path d="M333.118 78.608v37.842h-13.833V80.872c0-9.937-5.027-15.971-13.074-15.971-9.18 0-16.221 7.166-16.221 20.623v30.926h-13.831V22.157h13.831v39.982c3.77-6.284 10.936-9.8 19.11-9.8 14.58 0 24.01 10.312 24.01 26.274Z" transform="translate(16.147 1.296)" fill="#5ef078"/><path d="M416 51.855h14.7l-21.123 62.86h-13.072l-13.832-40.738-13.7 40.738H355.9l-21.123-62.86h14.581L362.94 95.1l14.46-43.245h10.56L402.288 95.1Z" transform="translate(19.574 3.032)" fill="#5ef078"/><path d="M460 50.661a32.688 32.688 0 1 0 32.94 32.683A32.44 32.44 0 0 0 460 50.661m0 52.549c-11.195 0-18.985-8.679-18.985-19.865S448.809 63.478 460 63.478s18.858 8.681 18.858 19.866S471.071 103.21 460 103.21" transform="translate(24.97 2.962)" fill="#5ef078"/><path d="M530.411 51.258a26.732 26.732 0 0 1 5.409.507v14.207a21.48 21.48 0 0 0-6.92-1.132c-7.924 0-15.09 6.658-15.09 19.233v30.677h-13.826V51.89h13.831v11.193a17.686 17.686 0 0 1 16.6-11.818Z" transform="translate(29.234 2.997)" fill="#5ef078"/><path d="M603.325 116.452H585.6l-30.047-30.427v30.427h-13.832V22.157h13.832v55.32l24.011-23.885h17.476L569 81.623Z" transform="translate(31.674 1.295)" fill="#5ef078"/></g></svg>