<svg xmlns="http://www.w3.org/2000/svg" xmlns:xlink="http://www.w3.org/1999/xlink" version="1.1" id="Layer_1" x="0px" y="0px" style="enable-background:new 0 0 284 60;" xml:space="preserve" viewBox="0 0 284 60">
<style type="text/css">
	.st0{clip-path:url(#SVGID_00000042697165412198983390000012012262862115259777_);}
	.st1{fill:#001C72;}
</style>
<g>
	<defs>
		<rect id="SVGID_1_" width="284" height="60"/>
	</defs>
	<clipPath id="SVGID_00000005261559190881348370000001634612180324470698_">
		<use xlink:href="#SVGID_1_" style="overflow:visible;"/>
	</clipPath>
	<g style="clip-path:url(#SVGID_00000005261559190881348370000001634612180324470698_);">
		<path class="st1" d="M191.7,19.2c-5.9,0-13.5,5.3-19.2,15.5h-0.2l8.6-34.4L180.5,0l-14,1.8L166,3.7l4.3,0.6c2,0.2,2.2,0.8,1.6,3.8    l-8.9,39c-1.4,2.9-4.8,8.2-6.8,8.2c-1.4,0-1.4-1.7-0.7-4.2l8.2-31h-6.8l-0.2,1c-1.8-1.2-4-1.9-6.2-1.8c-16.1,0-24.6,16.1-26.3,27    c-3.8,8.2-7.5,9.6-15.6,9.6c-9.5,0-10-0.6-8.6-6.7l8.6-38.3c0.6-2.6,1.3-3.8,3.3-3.9l4.6-0.3l0.6-2.3H94.9l-0.5,2.3l4.5,0.4    c1.8,0.1,2.3,1.3,1.6,3.8l-2.1,9.4H86.3l2.8-10.7L88.2,9l-7.1,4.2l-1.8,7.1H73l-0.7,2.5c-1.4-2-4-3.5-7.9-3.5    c-6.5,0-11.6,2.9-15.8,7.6c0.9-2.5,1.4-5.1,1.4-7.7c0-11.8-8.8-14.8-18.4-14.8H11.6l-0.5,2.3l4.5,0.4c1.8,0.2,2.3,1.3,1.7,3.8    L8,52.2c-0.6,2.7-1.3,3.6-3.2,3.8l-4.2,0.4L0,58.7h22.6l0.5-2.3l-5.4-0.5c-1.9-0.2-2.2-1.3-1.7-3.8l3.5-15.3    c2.8,0.7,5.7,1.1,8.6,1c5.1,0,10.4-0.8,14.6-3.5c0.8-0.5,1.5-1,2.1-1.7c-2.2,4.4-3.4,9.2-3.5,14.2c0,10.9,6.6,12.9,11.4,12.9    c6.2,0,13.1-2.7,18.5-11.4l-1.9-1.6c-3,4.2-7.4,9-13.2,9c-5.3,0-7-4.7-7-10.7c0-0.4,0.1-2.3,0.2-2.9c8-0.9,24.3-4,24.3-14.8    c0-1.4-0.3-2.7-0.9-3.9h5.9l-6.9,28.4c-1.2,4.6-0.2,7.9,3.8,7.9c6.2,0,11.1-5.2,14.2-11.2L87.9,47c-1.8,3.2-6,8.3-8.1,8.3    c-1.5,0-1.6-1.7-1.1-3.7l6.8-28.2h12.1l-6.5,28.7c-0.6,2.8-1.3,3.6-3.2,3.8l-4.3,0.4l-0.5,2.3H123l1.2-4.1    c0.8,3.1,2.7,5.1,6.7,5.1c8.3,0,15.5-9.2,20-17.1h0.2l-2.4,8.1c-1.7,5.7-0.7,9,3.5,9c3.7,0,6.7-2.1,9.2-5.2l-1,4.2h2.8l2.5-4.5    c1.4,3.3,5.3,5.5,9.8,5.5c9.1,0,15.9-6.1,19.8-12.9c2.9-5.4,4.6-11.4,4.8-17.5C200,23.4,197.5,19.2,191.7,19.2z M27.3,34.9    c-3.7,0-7.1-0.8-6.6-3.2l4.8-21.8C26,7.4,26.3,7,30.1,7c7.6,0,11.5,4.1,11.5,11.1C41.5,29.3,36.5,34.9,27.3,34.9z M49.6,39.3    C50.9,29.9,56.4,22,62.5,22c2.7,0,4.2,2,4.2,4.7C66.7,34.2,59.5,38,49.6,39.3L49.6,39.3z M134.9,55.2c-2.5,0-3.2-2.2-3.2-5.3    c0-8.6,7.5-27.7,19.5-27.7c1.7-0.1,3.4,0.5,4.7,1.6c-0.5,1.8-1.1,3.9-1.8,6.2C151.7,37.7,141.9,55.2,134.9,55.2z M176.4,56.9    c-3.9,0-6.2-2.9-6.2-6.8c0-3.8,1.8-9.1,4.3-13.7c3.4-6.3,9.1-12.8,13.9-12.8c2.7,0,3.9,1.8,3.9,6.2    C192.2,35.7,187.5,56.9,176.4,56.9L176.4,56.9z"/>
		<path class="st1" d="M279.8,33.2c0-10.8-7.6-13.9-13.9-13.9c-17,0-22.2,16.7-22.8,24.7c-4.3,7.9-8.6,13.2-18.1,13.2    c-8.9,0-15-6-15-18c0-14.4,6.5-33.5,23.3-33.5c9.6,0,12.9,4.8,12.5,13.3h2.4L251,7.1c-4.5-2.8-11.8-4.3-17.2-4.3    c-14.5,0-22.9,6.8-27.4,14.3c-3.6,6-5.5,12.8-5.4,19.8c0,10.7,4.9,23,24.3,23c5.5,0.2,11-1,16-3.3l2.3-7c1.4,6,5.8,10,13.8,10    c8.5,0,14-4.3,17.6-10.1C278,44.6,279.7,39,279.8,33.2z M257.6,56.8c-4.3,0-6.8-2.8-6.8-8.2c0-8.4,5-26.5,14.9-26.5    c4.8,0,6.4,3.5,6.4,8.2C272.1,35.9,268,56.8,257.6,56.8z"/>
		<path class="st1" d="M279.7,49c-3.2,0-5.2,2.6-5.2,5.8c0,2.8,1.2,4.8,4.1,4.8c0.7,0,1.4-0.1,2.1-0.4c0.7-0.3,1.3-0.7,1.8-1.2    c0.5-0.5,0.9-1.1,1.1-1.8c0.3-0.7,0.4-1.4,0.3-2.1C284,51.1,282.8,49,279.7,49z"/>
	</g>
</g>
</svg>