<svg xmlns="http://www.w3.org/2000/svg" fill="none" viewBox="0 0 300 61.04">
<path fill-rule="evenodd" clip-rule="evenodd" d="M293.617 20.5639C293.617 22.3555 295.028 23.7606 296.799 23.7606C298.609 23.7606 300 22.3555 300 20.5639C300 18.8075 298.609 17.422 296.799 17.422C295.06 17.422 293.617 18.7723 293.617 20.5639ZM294.296 20.5639C294.296 19.1588 295.391 17.9835 296.799 17.9835C298.226 17.9835 299.286 19.1588 299.286 20.5809C299.286 22.0212 298.226 23.1795 296.818 23.1795C295.514 23.1795 294.296 22.1283 294.296 20.5639ZM296.262 22.268V20.8982C296.957 20.8982 297.253 20.8982 297.374 21.4244C297.461 21.8632 297.531 22.144 297.634 22.268H298.296C298.21 22.144 298.14 21.952 298.036 21.4597C297.95 21.0209 297.792 20.7584 297.496 20.6514V20.5991C297.844 20.4933 298.14 20.2492 298.14 19.8444C298.14 19.2815 297.722 18.8963 296.767 18.8963C296.314 18.8963 295.948 18.9485 295.635 19.0021V22.268H296.262ZM296.262 19.4225C296.349 19.4056 296.487 19.3886 296.712 19.3886C297.271 19.3886 297.478 19.6158 297.478 19.9149C297.478 20.4242 296.853 20.4242 296.262 20.4242V19.4225Z" fill="#418272"/>
<path fill-rule="evenodd" clip-rule="evenodd" d="M49.7115 23.6292L45.0899 30.6482H40.5712L44.5832 23.6201L40.5712 16.609H45.0899L49.7115 23.6292ZM42.1916 23.6201L37.5856 30.6482H33.0487L37.062 23.6292L33.0487 16.609H37.5856L42.1916 23.6201Z" fill="#418272"/>
<path fill-rule="evenodd" clip-rule="evenodd" d="M16.9325 17.0987V1.24959C16.9325 0.816051 16.9781 0.656721 17.0627 0.498713C17.1461 0.339399 17.2698 0.21405 17.4262 0.12917C17.5838 0.0455955 17.7414 -0.000108102 18.1713 -0.000108102H29.2407C29.6706 -0.000108102 29.8269 0.0455955 29.9845 0.12917C30.1421 0.21405 30.2659 0.339399 30.3505 0.498713C30.4339 0.656721 30.4782 0.816051 30.4782 1.24959V16.8963L34.911 23.6293L30.4782 30.3623V46.056C30.4782 46.4909 30.4339 46.6489 30.3505 46.8082C30.2659 46.9662 30.1421 47.0916 29.9845 47.1751C29.8269 47.2613 29.6706 47.307 29.2407 47.307H18.1713C17.7414 47.307 17.5838 47.2613 17.4262 47.1751C17.2698 47.0916 17.1461 46.9662 17.0627 46.8082C16.9781 46.6489 16.9325 46.4909 16.9325 46.056V30.7775H0.967806C0.432438 30.7775 0 30.3414 0 29.8034V18.0729C0 17.5349 0.432438 17.0987 0.967806 17.0987H16.9325Z" fill="#418272"/>
<path fill-rule="evenodd" clip-rule="evenodd" d="M137.504 17.9367L130.795 36.7279C129.985 39.0771 129.226 41.3715 128.686 43.1749H128.577C128.038 41.3166 127.281 38.9139 126.521 36.8389L119.274 17.9367H115.702L126.307 45.3047C126.521 45.9067 126.631 46.288 126.631 46.5623C126.631 47.4372 123.601 55.5753 116.623 58.1974L117.651 61.0389C125.333 58.4703 128.686 50.1129 132.743 39.461L141.075 17.9367H137.504ZM159.551 19.0845C157.983 18.0463 155.71 17.2263 153.006 17.2263C147.327 17.2263 143.864 20.9963 143.864 25.367C143.864 28.9176 146.514 31.5945 151.276 33.5063C155.386 35.2 157.172 36.8937 157.172 39.952C157.172 42.9568 155.061 45.3609 150.681 45.3609C148.083 45.3609 145.703 44.2679 144.189 43.3381L143.053 46.0712C145.001 47.2713 147.651 48.0927 150.519 48.0927C156.36 48.0927 160.472 44.9234 160.472 39.5159C160.472 35.089 157.657 32.6863 152.952 30.7745C149.058 29.0808 147.164 27.8232 147.164 24.8733C147.164 22.2512 149.058 19.9568 152.628 19.9568C155.386 19.9568 157.28 21.0511 158.307 21.7615L159.551 19.0845ZM178.818 17.3908H174.599V22.1428H178.818V37.7112C178.818 41.6457 179.522 44.1582 181.038 45.7983C182.335 47.2713 184.444 48.0927 186.933 48.0927C189.042 48.0927 190.719 47.8185 191.803 47.3823L191.585 42.5193C190.829 42.7387 190.07 42.9019 188.827 42.9019C186.175 42.9019 185.039 41.0999 185.039 37.3834V22.1428H192.127V17.3908H185.039V9.9605L178.818 11.9271V17.3908ZM235.954 28.9724C235.954 22.579 233.518 16.7353 224.754 16.7353C220.751 16.7353 217.234 17.8818 215.126 19.2477L216.424 23.4539C218.318 22.1976 221.022 21.3789 223.673 21.3789C229.677 21.3789 229.677 25.8566 229.677 28.0975C219.453 28.0975 213.015 31.8113 213.015 39.2965C213.015 43.9401 216.207 48.0927 221.779 48.0927C225.512 48.0927 228.434 46.3429 230.111 43.9936H230.272L230.706 47.4907H236.385C236.007 45.5241 235.954 42.902 235.954 40.3333V28.9724ZM261.897 41.8102C260.491 42.4109 258.759 43.0103 256.271 43.0103C251.077 43.0103 247.236 39.0771 247.236 32.4669C247.236 26.5696 250.482 21.7615 256.324 21.7615C258.868 21.7615 260.598 22.417 261.679 22.9629L262.924 18.1012C261.626 17.4456 259.139 16.7353 256.271 16.7353C246.694 16.7353 240.853 23.6184 240.853 32.7411C240.853 42.138 246.479 48.0927 255.08 48.0927C258.543 48.0927 261.355 47.2178 262.763 46.5623L261.897 41.8102ZM59.5952 47.4907H62.8973V29.9557C64.3028 30.337 65.8724 30.3919 67.6023 30.3919C74.2025 30.3919 82.4246 27.442 82.4246 17.3908C82.4246 13.6744 81.019 5.6995 68.4125 5.6995C64.8447 5.6995 61.923 6.08211 59.5952 6.51957V47.4907ZM111.723 29.5169C111.723 18.8651 104.745 17.2263 101.713 17.2263C97.6037 17.2263 93.7623 19.74 92.1393 22.9067H92.0325V3.84386H88.677V47.4907H92.0325V29.3002C92.0325 28.151 92.0859 27.3871 92.4102 26.5122C93.5448 23.0177 96.9003 20.1213 100.796 20.1213C106.476 20.1213 108.37 24.7649 108.37 29.9009V47.4907H111.723V29.5169ZM169.97 17.9367H166.617V47.4907H169.97V17.9367ZM211.361 16.8985C210.822 16.7901 210.389 16.7353 209.794 16.7353C206.548 16.7353 203.41 19.0845 202.058 22.9067H201.84L201.625 17.3908H196.161C196.322 20.1762 196.379 23.0726 196.379 26.5696V47.4907H202.653V31.5397C202.653 26.2954 205.303 22.7983 209.523 22.7983C210.227 22.7983 210.822 22.8532 211.361 22.9629V16.8985ZM280.212 29.7912L290.708 17.3908H283.294L275.885 27.442C275.126 28.4788 274.316 29.7912 273.614 30.939H273.503V3.67804H267.228V47.4907H273.503V36.6743L275.939 33.6695L284.486 47.4907H292.06L280.212 29.7912ZM229.84 37.3299C229.84 40.8269 227.026 43.4491 223.619 43.4491C221.293 43.4491 219.237 41.9735 219.237 38.6409C219.237 33.2882 224.917 32.3585 229.84 32.3585V37.3299ZM62.8973 8.97717C63.9784 8.70425 65.8724 8.4862 68.3591 8.4862C74.3119 8.4862 79.0704 11.1083 79.0704 17.7186C79.0704 24.1094 74.7978 27.6065 67.7638 27.6065C65.8724 27.6065 64.196 27.4955 62.8973 27.0593V8.97717ZM170.836 9.52433C170.836 8.04872 169.863 6.84735 168.347 6.84735C166.888 6.84735 165.804 8.10226 165.804 9.52433C165.804 10.9986 166.832 12.2549 168.293 12.2549C169.753 12.2549 170.836 11.1632 170.836 9.52433Z" fill="#418272"/>
</svg>