<svg width="502" height="117" viewBox="0 0 502 117" fill="none" xmlns="http://www.w3.org/2000/svg">
<path fill-rule="evenodd" clip-rule="evenodd" d="M153.169 21.9145H178.386C193.329 21.9145 202.669 31.2685 202.669 46.2349C202.669 61.2013 193.329 70.555 178.386 70.555H166.712V88.796C166.712 89.731 166.245 90.666 165.311 90.666H153.169C152.235 90.666 151.768 90.199 151.768 88.796V23.3176C151.301 22.3822 152.235 21.9145 153.169 21.9145ZM166.712 56.0566H176.051C183.523 56.0566 186.792 52.7827 186.792 45.7672C186.792 39.2194 183.056 35.4778 176.051 35.4778H166.712V56.0566ZM234.423 91.134C234.89 91.134 235.357 90.199 235.357 89.263V79.442C235.357 78.506 234.89 77.571 233.489 78.039C232.555 78.039 231.621 78.039 230.687 78.039C226.952 78.039 225.084 75.7 225.084 71.023V23.3176C225.084 22.3822 224.617 21.4468 223.683 21.4468H212.475C211.541 21.4468 210.607 21.9145 210.607 23.3176V72.894C210.607 84.586 217.145 91.602 228.353 91.602C230.687 91.602 233.022 91.134 234.423 91.134ZM283.923 59.7982V69.1522C283.923 70.088 283.456 70.555 282.055 70.555H254.97V71.958C254.97 77.103 258.239 79.442 263.376 79.442C268.046 79.442 272.248 78.039 275.517 76.168C276.451 75.7 276.918 75.7 277.852 76.635L282.989 83.183C283.456 84.119 283.456 85.054 282.522 85.522C277.852 89.263 271.314 91.602 262.909 91.602C250.3 91.602 240.494 85.054 240.494 71.491V59.3305C240.494 44.8318 250.767 38.7517 262.909 38.7517C274.116 39.2194 283.923 45.2995 283.923 59.7982ZM269.447 58.8628C269.447 53.7181 266.178 51.3796 261.975 51.3796C257.772 51.3796 254.503 53.7181 254.503 58.8628V60.7336H269.447V58.8628ZM305.404 90.666C306.338 90.666 306.805 90.199 306.805 88.796V53.2504C308.206 52.7827 311.007 52.315 313.342 52.315C318.479 52.315 321.281 54.6535 321.281 61.669V88.796C321.281 89.731 321.748 90.666 323.149 90.666H334.356C335.29 90.666 336.224 90.199 336.224 88.796V61.669C336.224 47.1703 327.819 39.2194 313.342 39.2194C306.338 39.2194 298.866 40.6225 293.262 42.961C292.328 43.4287 291.861 43.8964 291.861 44.8318V88.328C291.861 89.263 292.328 90.199 293.729 90.199L305.404 90.666ZM360.974 71.491V54.1858H369.38C370.314 54.1858 371.247 53.7181 371.247 52.7827V43.4287C371.247 42.4933 370.78 42.0256 369.38 42.0256H360.974L360.04 30.3331C360.04 29.3977 359.573 28.93 358.172 28.93H347.899C346.965 28.93 346.031 29.3977 346.031 30.3331V73.362C346.031 85.522 353.502 91.602 364.71 91.602C367.045 91.602 368.913 91.602 370.781 91.134C371.714 91.134 372.181 90.199 372.181 89.263V79.909C372.181 78.974 371.714 78.506 370.314 78.506C369.38 78.506 367.979 78.506 367.045 78.506C363.309 78.506 360.974 76.168 360.974 71.491ZM392.728 90.199C393.662 90.199 394.129 89.731 394.129 88.328V42.0256C394.129 41.0902 393.662 40.6225 392.728 40.6225H381.521C380.587 40.6225 379.653 41.0902 379.653 42.0256V88.328C379.653 89.263 380.12 90.199 381.521 90.199H392.728ZM395.063 25.6561C395.063 20.9791 391.794 17.7052 387.125 17.7052C382.455 17.7052 379.186 20.9791 379.186 25.6561C379.186 30.3331 382.455 33.607 387.125 33.607C391.794 33.607 395.063 29.8654 395.063 25.6561ZM430.087 33.607C431.02 33.607 431.487 33.1393 431.487 32.2039V23.3176C431.487 22.3822 431.02 21.4468 430.087 21.4468C428.219 20.9791 426.351 20.9791 424.016 20.9791C412.808 20.9791 405.337 27.5269 405.337 40.1548V89.263C405.337 90.199 405.804 91.134 407.205 91.134H418.412C419.346 91.134 419.813 90.666 419.813 89.263V54.1858H428.686C429.62 54.1858 430.087 53.7181 430.087 52.7827V43.4287C430.087 42.4933 429.62 42.0256 428.686 42.0256H419.813V40.1548C419.813 35.4778 421.681 33.1393 425.884 33.1393C427.752 33.1393 429.153 33.1393 430.087 33.607ZM450.633 90.199C451.567 90.199 452.034 89.731 452.034 88.328V42.0256C452.034 41.0902 451.567 40.6225 450.633 40.6225H439.426C438.492 40.6225 437.558 41.0902 437.558 42.0256V88.328C437.558 89.263 438.025 90.199 439.426 90.199H450.633ZM452.968 25.6561C452.968 20.9791 449.7 17.7052 445.03 17.7052C440.36 17.7052 437.091 20.9791 437.091 25.6561C437.091 30.3331 440.36 33.607 445.03 33.607C449.7 33.607 452.968 29.8654 452.968 25.6561ZM501.067 86.457C502.001 85.989 502.001 85.054 501.534 84.119L496.397 76.635C495.93 75.7 494.996 75.7 494.062 76.168C491.26 78.039 487.992 78.974 484.723 78.974C479.586 78.974 476.317 76.168 476.317 71.023V60.2659C476.317 55.1212 479.586 52.315 484.723 52.315C487.525 52.315 490.327 53.2504 492.661 54.6535C493.595 55.1212 494.529 55.1212 494.996 54.1858L500.133 46.7026C500.6 45.7672 500.6 44.8318 499.666 44.3641C494.529 41.5579 489.393 39.6871 483.789 39.6871C469.313 39.6871 461.374 47.638 461.374 60.2659V71.023C461.374 84.119 469.78 92.07 484.256 92.07C490.793 91.602 496.397 89.731 501.067 86.457Z" fill="#010D1B"/>
<path d="M28.9529 69.6201C31.7548 69.6201 33.6227 71.959 33.6227 74.297C33.6227 76.636 31.2878 78.974 28.9529 78.974H28.019C20.0803 78.974 12.6087 75.7 7.00501 70.555C-1.86755 61.6692 -1.86755 46.2351 7.00501 37.3488L34.0897 10.2222C40.1603 4.14212 48.5659 0.868225 56.9715 0.868225H95.7306C107.872 0.868225 117.678 10.6899 117.678 22.3824V60.2661C117.678 68.6847 114.409 77.103 108.339 83.183L80.3203 110.31C70.9808 119.196 56.0376 119.196 47.165 110.31C41.5613 104.698 38.7594 97.214 38.7594 89.731V52.3152C38.7594 37.3488 50.9008 25.6563 65.8441 25.6563C80.7873 25.6563 92.9287 37.8165 92.9287 52.3152C92.9287 67.2816 80.7873 78.974 65.8441 78.974H57.9055C55.1036 78.974 53.2357 76.636 53.2357 74.297C53.2357 71.959 55.5706 69.6201 57.9055 69.6201H65.8441C75.1836 69.6201 83.1222 61.6692 83.1222 52.3152C83.1222 42.9612 75.1836 35.0103 65.8441 35.0103C56.5045 35.0103 48.5659 42.9612 48.5659 52.3152V89.731C48.5659 94.876 50.9008 100.021 54.1697 103.762C59.3064 108.907 68.1789 108.907 73.7827 103.762L100.867 76.636C105.07 72.426 107.405 66.3462 107.405 60.2661V22.3824C107.405 15.8346 101.801 10.2222 95.2636 10.2222H57.4385C51.3678 10.2222 45.7641 12.5607 41.5613 16.77L14.4766 43.8966C8.87292 49.509 8.87292 58.3953 14.4766 63.54C18.2124 67.2816 23.3492 69.1524 28.4859 69.1524L28.9529 69.6201Z" fill="#14C59C"/>
</svg>
