<svg xmlns:xlink="http://www.w3.org/1999/xlink" xmlns="http://www.w3.org/2000/svg" fill="none" viewBox="0 0 154 27"><g clip-path="url(#a)"><path d="M49.1 2.15a6.61 6.61 0 0 1 2.81 2.59c.66 1.11 1 2.44 1 3.97a7.7 7.7 0 0 1-1 3.95 6.5 6.5 0 0 1-2.82 2.6 9.7 9.7 0 0 1-4.31.89H41v5.76h-4.34l.01-20.68h8.1c1.65 0 3.1.3 4.31.92Zm-1.6 9.19c.68-.62 1.02-1.5 1.02-2.63 0-1.16-.34-2.05-1.02-2.67-.67-.61-1.66-.92-2.96-.92H41v7.14h3.53c1.3 0 2.29-.3 2.96-.92ZM69.68 5.84v16.07h-3.95v-2.13a5.58 5.58 0 0 1-4.47 2.12c-1.88 0-3.38-.6-4.48-1.8-1.1-1.19-1.66-2.96-1.66-5.31V5.84h4.17v8.27c0 2.55.97 3.82 2.9 3.82a3 3 0 0 0 2.41-1.07c.61-.72.91-1.78.91-3.2V5.85h4.17ZM72.07 0h4.17v21.91h-4.17V0ZM80.89 21.42a8.68 8.68 0 0 1-2.73-1.22l1.4-3.3c.63.45 1.4.82 2.32 1.1.9.29 1.8.43 2.67.43 1.76 0 2.64-.48 2.64-1.44 0-.45-.24-.77-.72-.97a9.85 9.85 0 0 0-2.22-.5c-1.17-.2-2.14-.42-2.9-.68a4.48 4.48 0 0 1-2-1.35 4.1 4.1 0 0 1-.84-2.77c0-1 .26-1.88.79-2.66a5.12 5.12 0 0 1 2.3-1.8c1-.44 2.19-.65 3.56-.65 1.02 0 2.03.12 3.03.36 1.01.25 1.84.59 2.5 1.02l-1.39 3.26a7.72 7.72 0 0 0-4.14-1.17c-.89 0-1.56.14-2 .4-.45.28-.67.64-.67 1.07 0 .49.24.83.72 1.03.48.2 1.25.38 2.3.56 1.17.21 2.14.44 2.88.69.75.24 1.4.7 1.95 1.34.56.64.83 1.55.83 2.7 0 .98-.27 1.86-.8 2.62a5.14 5.14 0 0 1-2.34 1.78 9.57 9.57 0 0 1-3.65.63c-1.18 0-2.35-.16-3.5-.48ZM109.86 0h4.17v21.91h-4.17V0ZM120.64 6h-4.17v15.91h4.17V6.01ZM120.59.06h-4.16v4.16h4.16V.06ZM138.72 6.09l-6.06 15.82h-4.3L122.3 6.1h4.3l3.99 10.76L134.7 6.1h4.01ZM153.92 15.06h-10.88c.2.98.66 1.75 1.4 2.32a4.3 4.3 0 0 0 2.72.85c.75 0 1.41-.12 1.99-.36a4.8 4.8 0 0 0 1.62-1.17l2.22 2.65c-1.36 1.7-3.34 2.56-5.94 2.56a8.69 8.69 0 0 1-4.3-1.04 7.25 7.25 0 0 1-2.88-2.9 8.6 8.6 0 0 1-1.02-4.2c0-1.55.33-2.95 1-4.2a7.38 7.38 0 0 1 6.67-3.95c1.4 0 2.68.33 3.82 1a6.98 6.98 0 0 1 2.68 2.87c.65 1.24.98 2.69.98 4.33l-.08 1.24Zm-9.75-5.1a3.88 3.88 0 0 0-1.18 2.42h7.08c-.14-1-.53-1.8-1.17-2.4-.65-.6-1.43-.9-2.36-.9-.94 0-1.73.3-2.37.89ZM107.69 15.06H96.8c.2.98.66 1.75 1.4 2.32a4.3 4.3 0 0 0 2.72.85c.75 0 1.41-.12 1.99-.36a4.8 4.8 0 0 0 1.62-1.17l2.22 2.65c-1.36 1.7-3.34 2.56-5.94 2.56a8.69 8.69 0 0 1-4.3-1.04 7.25 7.25 0 0 1-2.89-2.9 8.6 8.6 0 0 1-1.01-4.2c0-1.55.33-2.95 1-4.2a7.38 7.38 0 0 1 6.67-3.95c1.4 0 2.68.33 3.82 1a6.97 6.97 0 0 1 2.68 2.87c.65 1.24.98 2.69.98 4.33l-.08 1.24Zm-9.75-5.1a3.88 3.88 0 0 0-1.18 2.42h7.08c-.14-1-.53-1.8-1.17-2.4-.65-.6-1.43-.9-2.36-.9-.94 0-1.73.3-2.37.89Z" fill="#000"/><path d="M21.42 17.2c1.3 0 2.35-1.06 2.35-2.36V6.1L8.1 7.76a2.51 2.51 0 0 0-2.52 2.51l-.01 8.3 15.84-1.37Z" fill="#10101C"/><path d="m8.13 7.76 15.7-1.68V3.05c0-1.3-1.06-2.36-2.36-2.36L2.36 2.35A2.36 2.36 0 0 0 0 4.71v11.8c0 1.3 1.06 2.34 2.36 2.34l3.23-.28.02-8.3c0-1.39 1.13-2.5 2.52-2.5Z" fill="#EC1840"/><path d="M21.49 17.2c1.3 0 2.35-1.06 2.35-2.36V6.08L8.13 7.76a2.52 2.52 0 0 0-2.53 2.51l-.01 8.3 15.9-1.37Z" fill="#141414"/><path d="M30.43 8.16a2.52 2.52 0 0 0-2.52-2.51l-4.09.43v8.76c0 1.3-1.05 2.36-2.35 2.36L5.59 18.57V27l4.16-3.43 18.16-1.74c1.4 0 2.52-1.13 2.52-2.51V8.16Z" fill="#0059FF"/></g><defs><clipPath id="a"><path fill="#fff" d="M0 0h154v27H0z"/></clipPath></defs></svg>