<?xml version="1.0" encoding="UTF-8"?>
<svg width="970px" height="387px" viewBox="0 0 970 387" version="1.1" xmlns="http://www.w3.org/2000/svg" xmlns:xlink="http://www.w3.org/1999/xlink">
    <!-- Generator: Sketch 51.3 (57544) - http://www.bohemiancoding.com/sketch -->
    <title>logo</title>
    <desc>Created with Sketch.</desc>
    <defs></defs>
    <g id="Page-1" stroke="none" stroke-width="1" fill="none" fill-rule="evenodd">
        <g id="logo" fill="#373A36" fill-rule="nonzero">
            <path d="M903,57.58 C902.874324,44.1472123 910.872525,31.9681613 923.249278,26.7459426 C935.62603,21.5237239 949.931142,24.2921663 959.465945,33.7548887 C969.000748,43.217611 971.877662,57.5013033 966.749512,69.9173275 C961.621362,82.3333518 949.503355,90.4237406 936.07,90.4 C917.72,90.4 903,76.23 903,57.58 Z M964.62,57.43 C964.62,40.72 952.54,28.49 936.12,28.49 C919.86,28.49 907.63,40.87 907.63,57.58 C907.63,74.44 920.16,86.23 936.12,86.23 C952.19,86.23 964.57,74.14 964.57,57.43 L964.62,57.43 Z M925,39.82 L936.19,39.82 C943.65,39.82 948.58,43.11 948.58,49.82 L948.58,50 C948.58,55.22 945.58,58.06 940.97,59.1 L950.67,73.87 L944.55,73.87 L935.48,60 L930.55,60 L930.55,73.84 L925,73.84 L925,39.82 Z M936,55.82 C940.78,55.82 943.17,53.88 943.17,50.15 L943.17,50 C943.17,45.82 940.63,44.18 936,44.18 L930.48,44.18 L930.48,55.79 L936,55.82 Z" id="Shape"></path>
            <path d="M792.15,320.28 L860.27,320.28 L860.27,29.41 L792.15,29.41 L792.15,320.28 Z M808.89,44.58 L843.53,44.58 L843.53,305.11 L808.89,305.11 L808.89,44.58 Z" id="Shape"></path>
            <path d="M662.62,203.28 C662.62,139.35 629.32,98.04 577.78,98.04 C557.65,98.04 539.42,104.39 526.45,115.92 L526.24,116.1 L525.83,116.46 L525.56,116.71 L525.42,115.8 L523.11,101.18 L459.21,101.18 L459.21,386.94 L527.33,386.94 L527.33,320.1 L527.58,320.16 L527.95,320.25 L528.13,320.25 C528.26,320.25 541.13,323.37 552.68,323.37 C586.04,323.37 613.89,312.12 633.23,290.84 C652.57,269.56 662.62,239.43 662.62,203.28 Z M510.62,371.77 L476,371.77 L476,116.35 L509,116.35 L509,116.52 L509,116.78 L510.59,127.91 L510.59,371.77 L510.62,371.77 Z M567.31,298.83 C560.75,304.16 552.72,306.76 542.76,306.76 C537.756222,306.709039 532.770589,306.149495 527.88,305.09 L527.76,305.09 L527.52,305.04 L527.36,305.04 L527.36,134.74 L527.43,134.68 L527.53,134.59 C536.13,127.22 547.33,122.27 555.41,122.27 C567.41,122.27 575.79,129.56 581.17,144.57 C586.44,159.26 589,182.07 589,214.3 C589,236.8 587.4,254.3 584.09,267.87 C580.57,282.34 575.07,292.48 567.28,298.83 L567.31,298.83 Z M623.18,277.83 C608.18,296.6 590.41,303.72 581.12,306.29 L580.45,306.48 L579.09,306.85 L578.19,307.1 L578.91,306.5 L579.99,305.61 L580.54,305.16 C597.01,291.55 606.22,258.43 605.79,214.29 C605.58,184.15 603.16,162.61 598.17,146.49 C592.82,129.2 584.28,117.96 572.04,112.13 L571.47,111.85 L570.32,111.3 L569.55,110.94 L570.4,110.94 L571.67,110.94 L573.67,110.94 C591.51,110.94 607.46,117.34 619.79,129.45 C636.67,146.03 645.97,172.28 645.97,203.37 C645.89,233.79 638.23,258.87 623.15,277.8 L623.18,277.83 Z" id="Shape"></path>
            <path d="M689.8,320.28 L757.13,320.28 L757.13,101.18 L689.8,101.18 L689.8,320.28 Z M706.54,116.35 L740.39,116.35 L740.39,304.71 L706.54,304.71 L706.54,116.35 Z" id="Shape"></path>
            <path d="M356.47,280 L356.47,280.05 L356.42,280.13 C348.78,291.38 338.02,298.13 327.62,298.13 C318.55,298.13 312.1,295.51 307.89,290.13 C303.68,284.75 301.48,275.98 301.48,263.75 L301.48,101.57 L232.16,101.57 L232.16,257.4 C232.16,278.28 237.97,294.7 249.42,306.2 C261.05,317.88 277.85,323.81 299.35,323.81 C322.01,323.81 341.35,316.41 355.35,302.43 L355.61,302.17 L356.12,301.66 L356.46,301.32 L356.46,320.67 L425.36,320.67 L425.36,101.57 L356.46,101.57 L356.47,280 Z M311.09,309.14 L309.87,309.35 L309.27,309.46 C305.149146,310.185494 300.974183,310.56017 296.79,310.58 C284.35,310.58 273.87,307.06 265.65,300.14 C254.65,290.91 248.9,276.14 248.9,257.45 L248.9,116.74 L284.71,116.74 L284.71,263.67 C284.71,275.59 286.87,285.5 291.14,293.11 C295.015267,300.298633 301.552232,305.683284 309.35,308.11 L309.94,308.3 L311.11,308.67 L311.9,308.92 L311.09,309.14 Z M373.21,116.79 L408.63,116.79 L408.63,305.5 L373.21,305.5 L373.21,116.79 Z" id="Shape"></path>
            <path d="M722.88,0 C699,0 682.35,16 682.35,39 C682.35,50.75 686.25,60.87 693.63,68.25 C701.01,75.63 711.13,79.53 722.88,79.53 C746.36,79.53 763.41,62.53 763.41,39 C763.41,16.38 746.36,0 722.88,0 Z M722.88,63.53 C708.64,63.53 698.7,53.43 698.7,38.96 C698.612656,32.703344 701.070523,26.6795828 705.51,22.27 C715.362387,13.3244415 730.397613,13.3244415 740.25,22.27 C744.699547,26.6892704 747.158255,32.7295319 747.06,39 C747.06,53.43 737.12,63.53 722.88,63.53 Z" id="Shape"></path>
            <path d="M210.47,131.12 C210.47,101.56 202.07,78.2 185.47,61.71 C174.9,51.19 160.76,43.2 143.47,37.97 C126.36,32.81 105.65,30.19 81.92,30.19 L0,30.19 L0,320.28 L70.86,320.28 L70.86,230.86 L73.25,230.86 C127.42,230.86 164.43,220.23 186.38,198.38 C194.49243,190.247603 200.677564,180.399229 204.48,169.56 C208.45,158.46 210.47,145.52 210.47,131.12 Z M54.12,304.71 L16.74,304.71 L16.74,45.76 L54.12,45.76 L54.12,304.71 Z M103,211.93 C95.11,214.23 85.1,215.3 71.49,215.3 L70.84,215.3 L70.84,45.76 L71.49,45.76 C94.67,45.76 112.27,48.5 122.79,61.89 C132.22,73.89 136.06,93.95 136.06,131.12 C136.06,167.62 132.26,187.33 122.93,199.12 C118.17,205.24 111.65,209.41 103,211.93 Z M133.21,210.93 L132.68,211.06 L131.61,211.32 L130.89,211.5 L131.42,210.98 L132.21,210.21 L132.61,209.83 C142,200.69 153.19,179.6 153.19,131.08 C153.19,91.58 146.45,65.3 132.59,50.74 L132.23,50.36 L131.51,49.61 L131.03,49.11 L131.7,49.28 L132.7,49.53 L133.21,49.66 C172.53,59.66 193.31,87.83 193.31,131.08 C193.31,174.33 173.12,201.18 133.23,211 L133.21,210.93 Z" id="Shape"></path>
        </g>
    </g>
</svg>