<svg xmlns="http://www.w3.org/2000/svg" xmlns:xlink="http://www.w3.org/1999/xlink" version="1.1" id="layer" x="0px" y="0px" style="enable-background:new -153 -46 652 652;" xml:space="preserve" viewBox="-131.2 230.6 600.1 88.7">
<style type="text/css">
	.st0{fill:#14E66E;}
	.st1{fill:#342243;}
</style>
<path class="st0" d="M-50.9,319.3c-1.2,0-2.4-0.5-3.3-1.4l-14.9-14.8c-1.8-1.8-1.8-4.8,0-6.6c1.8-1.8,4.8-1.8,6.6,0l14.9,14.9  c1.8,1.8,1.8,4.8,0,6.6C-48.5,318.8-49.7,319.3-50.9,319.3z"/>
<path class="st1" d="M-81.4,306.2h-33.1c-9.2,0-16.7-7.5-16.7-16.7v-24.8c0-9.2,7.5-16.6,16.7-16.7H-76c9.2,0,16.7,7.5,16.7,16.7  v19.4c-0.1,2.6-2.3,4.5-4.9,4.4c-2.4-0.1-4.3-2-4.4-4.4v-19.4c0-4.1-3.3-7.3-7.4-7.3h-38.5c-4.1,0-7.3,3.3-7.3,7.3v24.8  c0,4.1,3.3,7.3,7.3,7.3h33.1c2.6-0.1,4.8,1.8,4.9,4.4c0.1,2.6-1.8,4.8-4.4,4.9C-81.1,306.3-81.2,306.3-81.4,306.2z M185.3,306.6  c-2.6,0-4.7-2.1-4.7-4.7v-37.2c0-4.1-3.3-7.3-7.3-7.3h-38.5c-4.1,0-7.4,3.3-7.4,7.3V302c0.1,2.6-1.8,4.8-4.4,4.9  c-2.6,0.1-4.8-1.8-4.9-4.4c0-0.2,0-0.3,0-0.5v-37.2c0-9.2,7.5-16.6,16.7-16.6h38.5c9.2,0,16.7,7.5,16.7,16.7V302  C189.9,304.6,187.8,306.6,185.3,306.6z M90.2,306.2H51.7c-9.2,0-16.7-7.5-16.7-16.7v-5.1c0-9.2,7.5-16.6,16.7-16.6h45.9v-3  c0-4.1-3.3-7.3-7.4-7.3H51.7c-2.6-0.1-4.5-2.3-4.4-4.9c0.1-2.4,2-4.3,4.4-4.4h38.5c9.2,0,16.7,7.5,16.7,16.7v24.7  C106.8,298.8,99.4,306.2,90.2,306.2z M51.7,277.1c-4.1,0-7.3,3.3-7.3,7.3v5.1c0,4.1,3.3,7.3,7.3,7.3h38.5c4.1,0,7.4-3.2,7.4-7.3  c0,0,0,0,0-0.1v-12.5H51.7z M299.1,306.2h-38.5c-9.2,0-16.6-7.5-16.6-16.7v-24.8c0-9.2,7.5-16.6,16.6-16.7H299  c9.2,0,16.7,7.5,16.7,16.7v15c0,2.6-2.1,4.6-4.7,4.6h-57.8v5.2c0,4,3.3,7.3,7.3,7.3H299c2.6-0.1,4.8,1.8,4.9,4.4  c0.1,2.6-1.8,4.8-4.4,4.9C299.4,306.3,299.2,306.3,299.1,306.2L299.1,306.2z M253.2,275.1h53.2v-10.3c0-4.1-3.3-7.3-7.4-7.3h-38.5  c-4.1,0-7.4,3.3-7.4,7.3L253.2,275.1z M452.2,306.2h-38.5c-9.2,0-16.7-7.5-16.7-16.7v-5.1c0-9.2,7.5-16.6,16.7-16.6h45.8v-3  c0-4-3.2-7.3-7.3-7.4h-38.5c-2.6,0.1-4.8-1.8-4.9-4.4c-0.1-2.6,1.8-4.8,4.4-4.9c0.2,0,0.3,0,0.5,0h38.5c9.2,0,16.7,7.5,16.7,16.7  v24.8C468.8,298.8,461.4,306.2,452.2,306.2z M413.7,277.1c-4,0-7.3,3.3-7.3,7.3v5.1c0,4.1,3.3,7.3,7.4,7.3h38.4  c4.1,0,7.3-3.3,7.3-7.3v-12.5H413.7z M7.6,306.2h-38.5c-9.2,0-16.7-7.5-16.7-16.7v-37.2c0-2.6,2.1-4.7,4.7-4.7  c2.6,0,4.7,2.1,4.7,4.7v37.2c0,4.1,3.3,7.3,7.4,7.3H7.6c4.1,0,7.4-3.3,7.4-7.3v-37.2c0-2.6,2.1-4.7,4.7-4.7c2.6,0,4.7,2.1,4.7,4.7  v37.2C24.3,298.8,16.8,306.2,7.6,306.2z M233.6,248.2h-17.8v-12.9c0-2.6-2.1-4.7-4.7-4.7c-2.6,0-4.7,2.1-4.7,4.7v12.9h-4.3  c-2.6-0.1-4.8,1.8-4.9,4.4c-0.1,2.6,1.8,4.8,4.4,4.9c0.2,0,0.3,0,0.5,0h4.3V302c0,2.6,2.1,4.7,4.7,4.7c2.6,0,4.7-2.1,4.7-4.7v-44.5  h17.8c2.6,0.1,4.8-1.8,4.9-4.4c0.1-2.6-1.8-4.8-4.4-4.9C234,248.2,233.8,248.2,233.6,248.2L233.6,248.2z M364.3,277.2l22.9-21.4  c1.9-1.8,1.9-4.8,0.1-6.6c-1.8-1.9-4.8-1.9-6.6-0.1l0,0l-23.2,21.8L334.2,249c-1.9-1.8-4.8-1.7-6.6,0.2c-1.8,1.9-1.7,4.8,0.2,6.6  l22.9,21.4l-22.9,21.4c-1.9,1.8-2,4.7-0.2,6.6c1.8,1.9,4.7,2,6.6,0.2l23.3-21.9l23.2,21.8c1.9,1.8,4.8,1.7,6.6-0.2  c1.8-1.9,1.7-4.8-0.2-6.6L364.3,277.2z"/>
</svg>