<?xml version="1.0" encoding="UTF-8"?>
<svg width="126.6" height="40.3" version="1.1" viewBox="0 0 126.6 40.3" xmlns="http://www.w3.org/2000/svg" xmlns:cc="http://creativecommons.org/ns#" xmlns:dc="http://purl.org/dc/elements/1.1/" xmlns:rdf="http://www.w3.org/1999/02/22-rdf-syntax-ns#">
 <metadata>
  <rdf:RDF>
   <cc:Work rdf:about="">
    <dc:format>image/svg+xml</dc:format>
    <dc:type rdf:resource="http://purl.org/dc/dcmitype/StillImage"/>
    <dc:title/>
   </cc:Work>
  </rdf:RDF>
 </metadata>
 <path d="m48.9 32.6c-0.2 0.2-0.4 0.3-0.6 0.3h-4.7c-0.2 0-0.4-0.1-0.6-0.3s-0.3-0.4-0.3-0.6v-1c-1.2 0.8-2.3 1.4-3.3 1.7s-2.2 0.5-3.6 0.5c-1.5 0-2.8-0.2-3.7-0.7-1-0.5-1.7-1.2-2.3-2.1-0.5-0.9-0.9-1.9-1.1-3.1s-0.3-2.4-0.3-3.8v-14.1c0-0.2 0.1-0.4 0.3-0.6s0.4-0.3 0.6-0.3h5.1c0.2 0 0.4 0.1 0.6 0.3s0.3 0.4 0.3 0.6v14.1c0 0.7 0 1.4 0.1 1.9s0.2 0.9 0.5 1.2c0.2 0.3 0.5 0.5 1 0.7 0.4 0.1 0.9 0.2 1.6 0.2 0.6 0 1.3-0.1 1.9-0.4 0.7-0.3 1.3-0.6 2.1-1v-16.7c0-0.2 0.1-0.4 0.3-0.6s0.4-0.3 0.6-0.3h5.1c0.2 0 0.4 0.1 0.6 0.3s0.3 0.4 0.3 0.6v22.6c-0.3 0.2-0.4 0.4-0.5 0.6m11.2-0.6c0 0.2-0.1 0.4-0.3 0.6s-0.4 0.3-0.6 0.3h-5.2c-0.2 0-0.4-0.1-0.6-0.3s-0.3-0.4-0.3-0.6v-22.7c0-0.2 0.1-0.4 0.3-0.6s0.4-0.3 0.6-0.3h5.2c0.2 0 0.4 0.1 0.6 0.3s0.3 0.4 0.3 0.6zm24.4-1.1c0 0.3-0.1 0.6-0.2 0.8-0.2 0.2-0.5 0.3-1.1 0.5-1.2 0.3-2.6 0.6-4.2 0.8s-3.2 0.3-4.8 0.3c-3.4 0-6.1-1-7.9-2.8-1.8-1.9-2.7-4.6-2.7-8v-3.5c0-3.3 0.9-6 2.6-7.9 1.7-2 4.4-2.9 8-2.9 0.4 0 0.9 0 1.6 0.1 0.6 0.1 1.3 0.1 1.9 0.2v-7.4c0-0.2 0.1-0.4 0.3-0.6s0.4-0.3 0.6-0.3h5.1c0.2 0 0.4 0.1 0.6 0.3s0.3 0.4 0.3 0.6v29.8zm-6.9-16.8c-0.5-0.1-1.1-0.1-1.7-0.1s-1.2-0.1-1.7-0.1c-0.8 0-1.4 0.1-1.9 0.4s-0.9 0.6-1.1 1.1c-0.3 0.5-0.5 1-0.6 1.7-0.1 0.6-0.2 1.3-0.2 2.1v3.3c0 0.8 0.1 1.5 0.2 2.1s0.3 1.2 0.6 1.7 0.7 0.8 1.1 1.1c0.5 0.3 1.1 0.4 1.9 0.4 0.7 0 1.4 0 2-0.1s1.1-0.1 1.5-0.2v-13.4zm26.1 18.2c-0.1 0.1-0.4 0.2-0.7 0.3-0.6 0.1-1.4 0.3-2.3 0.4s-2 0.2-3.3 0.2c-3 0-5.4-0.9-7.2-2.8-1.8-1.8-2.7-4.5-2.7-8v-3.6c0-3.5 0.9-6.1 2.7-8 1.8-1.8 4.2-2.8 7.2-2.8 1.3 0 2.4 0.1 3.3 0.2s1.7 0.3 2.3 0.4c0.3 0.1 0.5 0.2 0.7 0.3 0.1 0.1 0.2 0.4 0.2 0.7v3.8c0 0.2-0.1 0.4-0.2 0.5-0.2 0.1-0.3 0.2-0.6 0.2h-0.1c-0.8-0.1-1.5-0.2-2.3-0.2-0.7-0.1-1.7-0.1-2.9-0.1-0.5 0-0.9 0.1-1.4 0.2-0.4 0.2-0.8 0.4-1.1 0.8s-0.6 0.9-0.7 1.5c-0.2 0.6-0.3 1.4-0.3 2.4v3.6c0 0.9 0.1 1.7 0.3 2.4 0.2 0.6 0.4 1.1 0.7 1.5s0.7 0.6 1.1 0.8 0.9 0.2 1.4 0.2c1.2 0 2.2 0 2.9-0.1s1.5-0.1 2.3-0.2h0.1c0.2 0 0.4 0.1 0.6 0.2s0.2 0.3 0.2 0.5v3.8c0 0.5-0.1 0.7-0.2 0.9m22.9-10.1c0 1.7-0.2 3.2-0.7 4.6s-1.1 2.5-2 3.5-2 1.7-3.3 2.2-2.8 0.8-4.6 0.8c-1.7 0-3.2-0.3-4.6-0.8-1.3-0.5-2.4-1.3-3.3-2.2s-1.6-2.1-2.1-3.5-0.7-2.9-0.7-4.6v-3c0-1.7 0.2-3.2 0.7-4.6s1.2-2.5 2.1-3.5 2-1.7 3.3-2.2 2.8-0.8 4.6-0.8c1.7 0 3.2 0.3 4.6 0.8 1.3 0.5 2.4 1.3 3.3 2.2 0.9 1 1.6 2.1 2 3.5 0.5 1.4 0.7 2.9 0.7 4.6zm-6.8-3c0-3.5-1.2-5.2-3.7-5.2-1.2 0-2.2 0.4-2.8 1.3s-1 2.2-1 3.9v3c0 1.7 0.3 3 1 3.9 0.6 0.9 1.6 1.3 2.8 1.3 2.5 0 3.7-1.7 3.7-5.2zm-59.5-14.3c0 0.2-0.1 0.4-0.3 0.6s-0.4 0.3-0.6 0.3h-5.4c-0.2 0-0.4-0.1-0.6-0.3s-0.3-0.4-0.3-0.6v-4c0-0.2 0.1-0.4 0.3-0.6s0.4-0.3 0.6-0.3h5.5c0.2 0 0.4 0.1 0.6 0.3s0.3 0.4 0.3 0.6v4zm-36.1 3.3c-0.7-1.7-1.5-3.1-2.7-4.2-1.1-1.1-2.4-1.9-4-2.4-1.5-0.5-3.2-0.7-4.9-0.7s-3.4 0.3-4.9 0.7c-1.5 0.5-2.8 1.3-4 2.4-1.1 1.1-2 2.5-2.7 4.2-0.6 1.7-1 3.8-1 6.3v5.1c0 2.5 0.3 4.6 1 6.3 0.6 1.7 1.5 3.1 2.7 4.2 1.1 1.1 2.4 1.9 4 2.4 0.8 0.3 1.7 0.5 2.6 0.6 0.1 0.2 0.3 0.4 0.5 0.7 0.8 1 1.9 2.1 3.3 3.2 0.4 0.3 0.8 0.6 1.3 0.9s1 0.6 1.4 0.9c0.5 0.3 1 0.5 1.4 0.8 0.5 0.2 0.8 0.4 1.1 0.5s0.5 0.1 0.8 0.2c0.2 0 0.4-0.1 0.6-0.3l2.4-3.2c0.2-0.2 0.2-0.4 0.2-0.7s-0.2-0.5-0.4-0.6l-0.1-0.1c-0.3-0.2-0.7-0.5-1.2-0.8s-0.9-0.6-1.4-0.9-1-0.6-1.4-0.9c-0.2-0.1-0.4-0.3-0.5-0.4 1.2-0.5 2.3-1.2 3.2-2.1 1.1-1.1 2-2.5 2.7-4.2 0.6-1.7 1-3.8 1-6.3v-5.1c0-2.6-0.3-4.7-1-6.5zm-15.4 17c-0.8-1.1-1.3-3-1.3-5.6v-5.1c0-2.6 0.4-4.5 1.3-5.6 0.8-1.1 2.2-1.7 3.9-1.7 1.8 0 3.1 0.6 4 1.7s1.3 3 1.3 5.6v5.1c0 2.6-0.4 4.5-1.3 5.6s-2.2 1.7-4 1.7c-1.7 0-3-0.6-3.9-1.7z" fill="#1d7bce"/>
</svg>
