<svg xmlns:xlink="http://www.w3.org/1999/xlink" xmlns="http://www.w3.org/2000/svg" fill="none" viewBox="0 0 59.53 24">
<path fill-rule="evenodd" clip-rule="evenodd" d="M35.4016 6.7601V3.75064C35.4016 1.38435 36.7481 0 39.3121 0H45.3431V3.34824H40.8289C39.8194 3.34824 39.3792 3.36199 39.3792 3.36199V6.7601H44.3285V10.0378H39.3792V20.2803H44.0894V23.6612H30.9579V20.2803H35.4016V10.0413H30.9579V6.7601H35.4016ZM53.4979 18.9304C53.4979 19.9433 53.5203 20.282 53.5203 20.282H59.5289V23.6629H53.5976C50.8375 23.6629 49.522 22.3113 49.522 19.945V10.0378H45.3448V6.76011H49.522V1.28633H53.4979V6.76011H58.7894V10.0378H53.4979V18.9304ZM0 10.4729V23.6371H3.97592V10.1359H5.32417H10.8427V6.75494H4.07567C1.31557 6.75494 0 8.10662 0 10.4729ZM27.7816 19.9433V20.043H27.7799C27.7834 20.2132 27.7885 20.282 27.7885 20.282H29.9141V23.6629H27.8659C25.6492 23.6629 24.3646 22.7911 23.945 21.2227C23.0662 22.6586 20.8822 24 17.8762 24C13.4652 24 11.037 21.9054 11.037 18.9991C11.037 15.2485 14.0344 13.7266 17.8762 13.4875L23.9072 13.0834V12.6414C23.9072 10.6793 22.3595 9.66466 19.7627 9.66466H19.2245C17.2348 9.66466 15.7524 10.4454 15.5512 11.8624H11.5099C11.847 8.71711 14.9803 6.42132 19.4583 6.42132C24.8805 6.42132 27.7816 9.09372 27.7816 12.8444V19.9433ZM18.6879 20.7567C21.1815 20.7567 23.9089 19.6767 23.9089 17.2399V16.0567L18.9596 16.3611C16.0637 16.5641 15.0525 17.3757 15.0525 18.6621C15.0525 19.9484 15.9605 20.7567 18.2202 20.7567H18.6879Z" fill="#1E1E1E"/>
</svg>