<svg xmlns:dc="http://purl.org/dc/elements/1.1/" xmlns:cc="http://creativecommons.org/ns#" xmlns:rdf="http://www.w3.org/1999/02/22-rdf-syntax-ns#" xmlns:svg="http://www.w3.org/2000/svg" xmlns="http://www.w3.org/2000/svg" xmlns:sodipodi="http://sodipodi.sourceforge.net/DTD/sodipodi-0.dtd" xmlns:inkscape="http://www.inkscape.org/namespaces/inkscape" version="1.1" id="svg2" xml:space="preserve" sodipodi:docname="rb_monogram (2).ai" viewBox="0 0 630.52 463.25"><metadata id="metadata8"><rdf:RDF><cc:Work rdf:about=""><dc:format>image/svg+xml</dc:format><dc:type rdf:resource="http://purl.org/dc/dcmitype/StillImage"/></cc:Work></rdf:RDF></metadata><defs id="defs6"><clipPath clipPathUnits="userSpaceOnUse" id="clipPath18"><path d="M 0,407.708 H 507.234 V 0 H 0 Z" id="path16"/></clipPath></defs><sodipodi:namedview pagecolor="#ffffff" bordercolor="#666666" borderopacity="1" objecttolerance="10" gridtolerance="10" guidetolerance="10" inkscape:pageopacity="0" inkscape:pageshadow="2" inkscape:window-width="640" inkscape:window-height="480" id="namedview4"/><g id="g10" inkscape:groupmode="layer" inkscape:label="rb_monogram (2)" transform="matrix(1.3333333,0,0,-1.3333333,0,543.61067)"><g id="g12"><g id="g14" clip-path="url(#clipPath18)"><g id="g20" transform="translate(432.3679,156.0862)"><path d="m 0,0 c 19.161,7.011 32.044,20.362 32.044,44.734 0,33.383 -24.19,48.073 -57.805,48.073 h -135.465 l 16.72,-15.619 V -51.159 c -28.915,5.087 -40.036,28.96 -39.464,47.633 0.504,16.432 9.302,32.963 9.302,50.99 0,32.383 -17.906,46.738 -42.096,51.746 17.908,7.011 28.902,21.365 28.902,44.067 0,33.717 -24.19,48.073 -57.802,48.073 h -127.314 l 16.721,-15.621 0.014,-34.122 -4.712,0.335 c -19.477,0 -37.07,-14.356 -37.07,-37.392 0,-22.032 17.279,-41.395 41.782,-45.402 V 2.729 h 36.127 v 61.094 c 23.873,8.679 45.235,25.706 70.681,25.706 22.932,0 38.383,-15.691 38.326,-40.063 -0.046,-19.093 -9.367,-36.122 -8.838,-55.961 0.916,-34.321 32.085,-58.347 71.981,-58.347 1.174,0 2.322,0.007 3.46,0.017 v -30.989 h 125.03 c 34.87,0 59.999,15.358 59.999,49.075 C 40.523,-18.694 23.561,-5.008 0,0 m -246.452,102.085 c -11.216,-2.017 -24.03,-7.55 -24.03,-7.55 -17.278,-7.344 -33.3,-18.027 -49.634,-22.033 -13.95,-3.653 -25.022,-0.023 -31.067,2.968 -3.726,1.844 -7.046,4.574 -9.463,8.106 -3.844,5.619 -5.965,12.879 -5.965,21.643 0,9.347 3.453,16.91 10.368,21.365 15.717,9.546 30.768,-3.838 33.517,-6.052 3.36,-2.709 6.932,-3.771 8.901,-4.067 2.174,-0.327 5.959,-0.396 8.473,1.106 l 27.016,15.357 -1.257,3.338 -27.959,-13.353 c -5.6,-2.207 -9.862,2.191 -12.564,4.197 v 58.231 h 63.77 c 21.673,-0.147 32.044,-19.029 32.044,-42.398 0,-19.446 -6.479,-38.042 -22.15,-40.858 M -108.38,86.798 h 43.982 c 0,0 25.045,0 39.895,-6.342 C -9.055,73.857 -2.2,60.758 -2.2,41.062 -2.2,21.535 -10.536,2.336 -30.883,2.007 l 0.009,-0.018 C -43.132,1.583 -53.583,-9.158 -62.52,-19.638 -77.318,-36.793 -90.227,-46.08 -108.38,-49.947 Z m 80.108,-176.602 h -80.108 v 28.802 c 18.084,4.789 32.281,15.01 50.572,35.689 9.74,11.016 18.539,21.306 29.849,21.306 7.602,0 16.852,-4.411 22.473,-10.255 6.928,-7.203 9.57,-19.186 9.57,-32.477 0,-23.369 -10.052,-43.065 -32.356,-43.065" style="fill:#000000;fill-opacity:1;fill-rule:nonzero;stroke:none" id="path22"/></g></g></g></g></svg>