<svg xmlns="http://www.w3.org/2000/svg" viewBox="0 0 408.06 93.12"><defs><style>.a{fill:#45039a;}</style></defs><g transform="translate(-114.209 -131.969)"><path class="a" d="M72.316,66.584c2.89-3.1,4.334-7.184,4.334-12.081s-1.526-9.389-4.092-12.166c-3.048-3.266-7.54-4.735-14.841-4.735h-16.8A34.675,34.675,0,0,1,9.1,3.056c0-.17.012-.34.012-.51.012-.858.057-1.7.13-2.546a34.5,34.5,0,0,0-.813,5.091c-.024.271-.045.538-.061.813-.045.712-.073,1.425-.073,2.149A34.681,34.681,0,0,0,39.7,42.568l-.3,2.469-.3,2.453A34.675,34.675,0,0,1,7.526,12.963c0-.72.028-1.437.073-2.149a33.8,33.8,0,0,1,.514-4.181,34.535,34.535,0,0,0-1.8,8.467q-.1,1.226-.121,2.469c0,.166-.012.328-.012.49,0,.7.028,1.4.069,2.088a34.042,34.042,0,0,0,.676,5.059A34.7,34.7,0,0,0,38.49,52.649l-.3,2.489-.3,2.432A34.7,34.7,0,0,1,6.15,30.111a35.219,35.219,0,0,1-.676-5.059c-.04-.692-.069-1.384-.069-2.088,0-.166.008-.328.012-.49.012-.83.053-1.655.121-2.469a34.893,34.893,0,0,0-.773,4.905q-.1,1.226-.121,2.469c0,.166-.012.328-.012.49,0,.7.024,1.4.065,2.092a34.333,34.333,0,0,0,.68,5.075A34.672,34.672,0,0,0,37.3,62.48L36.7,67.393a.37.37,0,0,1-.065,0A34.68,34.68,0,0,1,4.6,39.925a35.219,35.219,0,0,1-.676-5.059c-.04-.692-.069-1.384-.069-2.088,0-.166.012-.328.012-.49.012-.83.053-1.655.121-2.469a34.889,34.889,0,0,0-.769,4.905q-.1,1.226-.121,2.469c0,.166-.012.328-.012.49,0,.7.028,1.4.069,2.088a34.114,34.114,0,0,0,.676,5.059A34.7,34.7,0,0,0,35.872,72.3c.081,0,.162,0,.243.008l-.243,2.015-.348,2.9c-.138,0-.279-.008-.417-.016A34.7,34.7,0,0,1,3.07,49.735a35.219,35.219,0,0,1-.676-5.059c-.04-.692-.069-1.384-.069-2.088,0-.166.008-.328.012-.49.012-.83.053-1.655.121-2.469a34.893,34.893,0,0,0-.773,4.905q-.1,1.226-.121,2.469c0,.166-.012.328-.012.49,0,.7.028,1.4.069,2.088A34.042,34.042,0,0,0,2.3,54.64,34.7,34.7,0,0,0,34.334,82.112c.2.012.4.012.595.02l-.595,4.913-.008.069v-.069c-.255-.008-.51-.012-.765-.028A34.681,34.681,0,0,1,.783,52.4c0-.166.008-.328.012-.49.012-.83.053-1.655.121-2.469a34.893,34.893,0,0,0-.773,4.905C.063,55.32.01,56.308.01,57.3A34.678,34.678,0,0,0,33.553,91.951c.061,0,.125,0,.186.008l-.012.089H47.285l2.566-21.636L62.045,92.048H77.772L65.254,70.9C68.945,69.6,70.39,68.708,72.316,66.584ZM53.218,62.5H50.81l1.684-13.959h2.566c5.7,0,7.621,1.631,7.621,6.366C62.688,60.051,59.717,62.5,53.218,62.5Z" transform="translate(114.199 131.969)"/><path class="a" d="M213.729,134.67c-7.3,0-12.194,2.7-15.322,5.8a20.923,20.923,0,0,0-5.856,15.1c0,6.532,2.566,10.612,4.893,12.9,2.007,1.878,6.176,4.816,13.72,4.816,4.254,0,10.992-.979,15.565-5.8a17.131,17.131,0,0,0,3.93-6.613h-14.44a4.41,4.41,0,0,1-1.765,2.449,5.791,5.791,0,0,1-3.371.979,5.6,5.6,0,0,1-4.092-1.388c-1.845-1.716-1.845-4.9-1.845-6.2h26.8c.081-.979.162-2.04.162-3.1,0-4.735-1.125-10.122-4.812-13.878C224.721,137.119,220.467,134.67,213.729,134.67Zm-7.7,14.448a8.039,8.039,0,0,1,1.926-4,6.51,6.51,0,0,1,4.573-1.8,6.034,6.034,0,0,1,4.173,1.469,6.492,6.492,0,0,1,1.845,4.326Z" transform="translate(-0.418 51.802)"/><path class="a" d="M326.111,139.895c-3.853-4-6.581-5.225-11.635-5.225-10.83,0-18.856,9.062-18.856,21.389,0,10.531,5.856,17.225,14.922,17.225,4.974,0,8.1-1.307,12.194-5.063l-.963,4h13.238l4.411-36.493H326.184Zm-9.79,22.858c-4.411,0-7.22-3.019-7.22-7.673,0-5.553,3.691-9.8,8.5-9.8,4.335,0,7.062,2.938,7.062,7.592C324.666,158.589,321.133,162.753,316.321,162.753Z" transform="translate(-61.774 51.802)"/><path class="a" d="M431.394,145.282c2.809,0,4.735.9,7.3,3.266l1.364-11.348a23.489,23.489,0,0,0-10.83-2.529c-11.474,0-19.819,8.653-19.819,20.491,0,10.612,7.062,18.123,17.091,18.123,3.047,0,4.893-.409,9.466-1.959l1.364-11.429c-2.89,2.125-4.654,2.776-7.062,2.776-4.573,0-7.382-3.019-7.382-7.839C422.891,149.28,426.42,145.282,431.394,145.282Z" transform="translate(-129.511 51.802)"/><path class="a" d="M513.782,102.37c-4.254,0-7.3,1.141-11.793,4.326L505.2,80.41H491.96l-7.22,59.513h13.238l2.084-17.306c.8-6.694,2.647-9.062,6.9-9.062,3.29,0,4.812,1.878,4.812,5.8a41.4,41.4,0,0,1-.563,5.961l-1.765,14.614h13.238l2.246-18.613a50.052,50.052,0,0,0,.482-6.042C525.418,106.939,521.326,102.37,513.782,102.37Z" transform="translate(-174.354 84.102)"/><path class="a" d="M627.737,80.4l-3.29,27.755c-3.691-4.245-6.9-5.8-11.874-5.8-10.272,0-18.212,9.551-18.212,22.041,0,9.96,5.856,16.573,14.6,16.573,4.893,0,8.345-1.469,12.595-5.387l-.963,4.326h13.157L640.975,80.4Zm-12.676,50.047c-4.411,0-7.22-3.019-7.22-7.673,0-5.553,3.61-9.8,8.5-9.8,4.335,0,7.062,2.938,7.062,7.592C623.406,126.282,619.873,130.447,615.061,130.447Z" transform="translate(-239.609 84.108)"/><path class="a" d="M729.339,134.67c-7.3,0-12.194,2.7-15.323,5.8a20.923,20.923,0,0,0-5.856,15.1c0,6.532,2.566,10.612,4.893,12.9,2.007,1.878,6.176,4.816,13.72,4.816,4.254,0,10.992-.979,15.565-5.8a17.13,17.13,0,0,0,3.93-6.613h-14.44a4.41,4.41,0,0,1-1.765,2.449,5.791,5.791,0,0,1-3.371.979,5.6,5.6,0,0,1-4.092-1.388c-1.846-1.716-1.846-4.9-1.846-6.2h26.8c.081-.979.162-2.04.162-3.1,0-4.735-1.125-10.122-4.812-13.878C740.331,137.119,736.077,134.67,729.339,134.67Zm-7.7,14.448a8.039,8.039,0,0,1,1.927-4,6.51,6.51,0,0,1,4.573-1.8,6.034,6.034,0,0,1,4.173,1.469,6.491,6.491,0,0,1,1.845,4.326Z" transform="translate(-307.353 51.802)"/><path class="a" d="M830.288,144.145c2.809,0,4.974.737,8.746,3.1l3.128-9.223c-4.893-2.614-8.9-3.756-13.319-3.756-9.308,0-15.4,5.063-15.4,12.574,0,5.715,2.89,8.981,9.628,10.612l4.334.979c1.364.409,2.007.979,2.007,1.959,0,1.631-1.765,2.529-4.893,2.529-3.61,0-6.1-.979-11.154-4.245L808.47,167.5c6.176,4.084,10.591,5.553,16.529,5.553,10.191,0,16.686-5.225,16.686-13.554,0-5.225-2.967-8.41-9.547-10.2l-4.335-1.141c-1.526-.409-2.084-.9-2.084-1.8C825.715,144.882,827.322,144.145,830.288,144.145Z" transform="translate(-367.066 52.04)"/><path class="a" d="M924.841,120.084l15.646-16.654H923.8l-11.474,13.064,4.411-36.084H903.5l-7.22,59.513h13.238L911.6,122.78c3.29,4.573,5.456,7.346,8.584,11.02l5.294,6.123h16.128Z" transform="translate(-419.338 84.102)"/></g></svg>