<?xml version="1.0" encoding="utf-8"?>
<!-- Generator: Adobe Illustrator 19.2.1, SVG Export Plug-In . SVG Version: 6.00 Build 0)  -->
<svg version="1.1" id="layer" xmlns="http://www.w3.org/2000/svg" xmlns:xlink="http://www.w3.org/1999/xlink" x="0px" y="0px"
	 viewBox="0 0 652 652" style="enable-background:new 0 0 652 652;" xml:space="preserve">
<style type="text/css">
	.st0{fill:#EC6528;}
	.st1{fill:#6E716E;}
</style>
<path class="st0" d="M290.8,422.3c-1.2,0-2.1,0.2-3,0.4v16.9c1.1,0.4,2,0.7,3.3,0.7c4.5,0,7.1-3.7,7.1-9.2
	C298.3,425.1,295.1,422.3,290.8,422.3 M291.5,446c-1.3,0-2.5-0.2-3.7-0.7v14.2h-6.5v-41.3c2.6-1,5.8-1.9,9.9-1.9
	c9.1,0,13.7,5.6,13.7,14.4C305.1,439.7,299.3,446,291.5,446"/>
<path class="st0" d="M321.1,422c-4.1,0-6.1,3.8-6.1,9.1c0,5.5,2.3,9.3,6.2,9.3c4,0,6.1-3.9,6.1-9.3C327.4,425.7,325.1,422,321.1,422
	 M330.4,441.9c-2.3,2.6-5.4,4.1-9.2,4.1c-3.6,0-6.6-1.3-8.8-3.6c-2.5-2.6-3.9-6.5-3.9-11.1c0-4.4,1.3-8.3,3.7-11
	c2.3-2.5,5.3-4,9.1-4c3.9,0,7.2,1.5,9.4,4.1c2.3,2.6,3.4,6.4,3.4,10.7C334,435.4,332.8,439.3,330.4,441.9"/>
<polygon class="st0" points="365.3,445.6 360.4,445.6 354.7,426.3 354.6,426.3 348.8,445.6 343.9,445.6 334.7,417 341.2,417 
	346.7,436.2 346.8,436.2 352.4,417 357.4,417 363,436.3 363.2,436.3 368.5,417 374.7,417 "/>
<g>
	<path class="st0" d="M387,421.7c-3.1,0-5,3.1-5,6.3h9.9C391.8,424.9,390.3,421.7,387,421.7 M382.2,433.1c0.1,4.2,3.2,7.1,7.2,7.1
		c2.4,0,4.4-0.7,6.6-2l1.6,4.6c-2.9,2.2-6.2,3.1-9.3,3.1c-8.9,0-12.7-7.2-12.7-14.8c0-8.1,4.3-14.8,11.6-14.8
		c6.9,0,11.4,5.8,11.4,14.7v2.1H382.2z"/>
	<path class="st0" d="M417.5,423.7c-1.1-0.7-2.2-0.9-3-0.9c-1.6,0-3,0.7-5,2.5v20.1h-6.5V417h5.4l0.8,3c2.6-2.6,4.6-3.7,6.9-3.7
		c1.3,0,2.7,0.4,3.7,1.2L417.5,423.7z"/>
	<path class="st1" d="M449.7,409.4c-1-0.5-2.2-0.8-3.2-0.8c-2,0-3,1.4-3,3.8v4.5h6.7l-1.7,5.5h-5.1v22.9h-6.5v-22.9h-3.7V417h3.7v-4
		c0-8.4,5.4-10.2,9-10.2c1.3,0,3.3,0.4,5,1.3L449.7,409.4z"/>
	<path class="st1" d="M464.1,422c-4.1,0-6.1,3.8-6.1,9.1c0,5.5,2.3,9.3,6.2,9.3c4,0,6.1-3.9,6.1-9.3
		C470.4,425.7,468.1,422,464.1,422 M473.4,441.9c-2.3,2.6-5.4,4.1-9.2,4.1c-3.6,0-6.6-1.3-8.8-3.6c-2.5-2.6-3.9-6.5-3.9-11.1
		c0-4.4,1.3-8.3,3.7-11c2.3-2.5,5.3-4,9-4c3.9,0,7.2,1.5,9.4,4.1c2.3,2.6,3.4,6.4,3.4,10.7C477,435.4,475.8,439.3,473.4,441.9"/>
	<path class="st1" d="M496,423.7c-1.1-0.7-2.2-0.9-3-0.9c-1.6,0-3,0.7-5,2.5v20.1h-6.5V417h5.4l0.8,3c2.6-2.6,4.6-3.7,7-3.7
		c1.3,0,2.7,0.4,3.7,1.2L496,423.7z"/>
	<path class="st1" d="M523.2,421.7c-2.4,0-4.3,1.7-4.3,5c0,3,1.7,5.5,4.5,5.5c2.5,0,4.5-1.7,4.5-5.2
		C528,424.4,526.2,421.7,523.2,421.7 M518.7,446.3c-0.9,0.7-2.2,1.7-2.2,3.7c0,2.4,2.7,4.5,7.1,4.5c3.7,0,6.5-1.3,6.5-3.6
		C530.1,447.3,521.5,447.6,518.7,446.3 M523.1,459.6c-7.7,0-12.1-3.8-12.1-8.4c0-3.2,2.1-5.5,4.7-6.8c-1.2-0.7-1.7-2.3-1.7-3.5
		c0-1.7,1.1-3.8,3.2-5.3c-2.7-1.6-4.4-5.1-4.4-8.7c0-5.4,3.7-10.6,10.6-10.6c2.1,0,3.7,0.5,4.9,1.3c0.3,0.2,0.5,0.1,0.6-0.2
		c1.5-1.6,3.8-2.7,8-2.2l-1.3,5.3c-1.3-0.3-2.6-0.5-3.6,0c1.5,1.8,2.4,3.9,2.4,7.1c0,6.2-4.7,10.2-10.5,10.2c-1.3,0-2.4-0.1-3.4-0.5
		c-0.4,0.8-0.7,1.4-0.7,2.3c0,4.3,17.4,0.2,17.4,10.6C537.2,455.1,532.7,459.6,523.1,459.6"/>
	<path class="st1" d="M551.1,422c-4.1,0-6.1,3.8-6.1,9.1c0,5.5,2.3,9.3,6.3,9.3c4,0,6.1-3.9,6.1-9.3
		C557.3,425.7,555.1,422,551.1,422 M560.3,441.9c-2.3,2.6-5.4,4.1-9.2,4.1c-3.6,0-6.6-1.3-8.8-3.6c-2.5-2.6-3.9-6.5-3.9-11.1
		c0-4.4,1.3-8.3,3.7-11c2.3-2.5,5.3-4,9.1-4c3.9,0,7.2,1.5,9.4,4.1c2.3,2.6,3.4,6.4,3.4,10.7C564,435.4,562.7,439.3,560.3,441.9"/>
	<path class="st1" d="M580.1,422c-4.1,0-6.1,3.8-6.1,9.1c0,5.5,2.3,9.3,6.2,9.3c4,0,6.1-3.9,6.1-9.3
		C586.3,425.7,584.1,422,580.1,422 M589.3,441.9c-2.3,2.6-5.4,4.1-9.2,4.1c-3.6,0-6.6-1.3-8.8-3.6c-2.5-2.6-3.9-6.5-3.9-11.1
		c0-4.4,1.3-8.3,3.7-11c2.3-2.5,5.3-4,9.1-4c3.9,0,7.2,1.5,9.4,4.1c2.3,2.6,3.4,6.4,3.4,10.7C592.9,435.4,591.7,439.3,589.3,441.9"
		/>
	<path class="st1" d="M613.7,422.5c-0.9-0.2-1.6-0.4-3-0.4c-4.6,0-7.9,3.4-7.9,9c0,5.2,3,9,8,9c1,0,2.2-0.2,2.9-0.4V422.5z
		 M610.2,446c-7.6,0-13.9-5-13.9-14.6c0-8.8,5.9-15.1,14.1-15.1c1.3,0,2.3,0.1,3.2,0.2v-13.7h6.5v40.9
		C617.8,445.1,614.6,446,610.2,446"/>
	<path class="st0" d="M184.9,185.9c-0.5,0-114.7,0-114.7,0c-35.9,0-50.1,27.9-50.1,55.6l0,139.7v0.3c0.1,1.2,1,2.2,2.1,2.3h34.1
		c1.2,0,2.1-1.1,2.1-2.4v0c0-18.9,0-141.2,0-141.4c0-6.6,4.5-12,12-12c0.2,0,51.5,0,51.5,0c-5.9,9.2-8.1,22.6-8.1,28v56.8
		c0,41.6,23,71,65.2,71c0.2,0,45.1,0,55.7,0h0.1c1.2,0,2.1-1.1,2.1-2.4l0-35.4v-0.2c0-1.3-1-2.3-2.1-2.3h-0.1c-9.6,0-46,0-46.1,0
		c-37.9,0-36.6-27.2-36.6-43.3v-31c0-8.6,3.3-41.7,33.2-41.7c34.3,0,33.3,29.1,33.3,41.7H179c-1.1,0-2,1-2.1,2.2v28.9
		c0.1,1.2,0.9,2.2,2,2.2h75.3c1.1-0.1,2-1.1,2-2.3V259C256.3,224.3,237,185.9,184.9,185.9 M355.8,269.1h-25.6
		c-11.6,0-19.3-9.4-19.3-20.6c0-11.4,6.9-20.6,21.6-20.6c0.7,0,51.2,0,62.4,0h0.1c1.2,0,2.1-1.1,2.1-2.4v-37.3c0-1.3-1-2.4-2.2-2.4
		h0h-65c-32.5,0-55.3,30.5-55.3,62.7c0,27.3,19.1,54,52.3,54c0.4,0,24.2,0,24.2,0c12.6,0,19.5,10,19.5,20.4c0,11.3-8,20.6-19.2,20.6
		h-64.8h-0.2c-1.1,0.1-2,1-2.1,2.3v35.8c0.1,1.3,1,2.3,2.2,2.3h0c11.4,0,63.3,0,63.5,0c35.4,0,56.7-29.8,56.7-60.9
		C406.8,296.6,388,269.1,355.8,269.1"/>
</g>
</svg>
