<svg xmlns="http://www.w3.org/2000/svg" xmlns:xlink="http://www.w3.org/1999/xlink" version="1.1" id="layer" x="0px" y="0px" style="enable-background:new 0 0 652 652;" xml:space="preserve" viewBox="21.9 287.7 600 66.5">
<path d="M45.5,321.7l-4.9-0.1v-0.5h4.9c10.6,0,17.2-5.7,17.2-15.7c0-10.2-6.9-16.3-18.8-16.3H21.9V353h9v-28.3h9.5  c8,0,10.8,3.4,12.8,16c0.8,4.8,1.3,9.2,2.3,12.3h10c-1.4-3.6-1.8-5.6-3.2-13.2C59.2,322.6,54.3,322.2,45.5,321.7z M31,318.1v-22.4  h10.9c7.2,0,11.2,3.6,11.2,11c0,7.3-3.8,11.4-11.2,11.4H31z M90.9,289h-9V353h9V289z M135.1,325c-2.3,7.9-3.9,16.4-3.8,20.6h-0.6  c-0.1-4-1.8-12.7-4.1-20.6L116,289h-9.7l19.4,63.9h8l19.4-63.9h-7.6L135.1,325z M176.9,323.3h23.9v-6.7h-23.9v-20.9h26V289h-35.1  V353h35.6v-6.7h-26.6V323.3z M244.6,321.7l-2.6-0.1v-0.5h2.6c10.6,0,17.2-5.7,17.2-15.7c0-10.2-6.9-16.3-18.8-16.3H221V353h9v-28.3  h9.5c8,0,10.8,3.4,12.8,16c0.8,4.8,1.3,9.2,2.3,12.3h10c-1.4-3.6-1.8-5.6-3.2-13.2C258.3,322.6,253.3,322.2,244.6,321.7z   M230.1,318.1v-22.4h10.9c7.2,0,11.2,3.6,11.2,11c0,7.3-3.8,11.4-11.2,11.4H230.1z M317.4,289h-9V353h9V289z M364.9,318.3l-9.9-3.9  c-5.5-2.3-8.6-4.8-8.6-10.6c0-6.1,4.2-9,10.9-9c6.8,0,11.5,3.1,12.1,12.7l8.7-2.5c-0.5-11.8-9.2-17.3-20.6-17.3  c-12.1,0-20.3,5.8-20.3,16.9c0,9.7,5.7,14.7,13.2,17.7l10.4,4.2c5.4,2.1,8.2,5.2,8.2,10.5c0,6.9-4.7,10.1-11.8,10.1  c-9,0-13.1-5.6-13.6-15.2l-8.9,2.6c0.3,12.5,8.7,19.7,22.4,19.7c13.1,0,21.1-6.5,21.1-18.3C378.3,327.2,373.4,321.7,364.9,318.3z   M406.4,289h-9V353h34.4v-7.2h-25.4V289z M464.9,289L444.8,353h7.9l5.5-18.2h21.2l5.5,18.2h9.6L474.2,289H464.9z M460,328.3  l5.7-18.9c1.6-5.3,2.2-9.1,2.6-14.1h0.5c0.2,4.5,1.2,8.9,2.8,14.1l5.7,18.9H460z M547.1,332.2c0,4.6,0.2,8.2,1.2,14.5h-0.5  c-1.4-6.7-3.4-11.2-5-15l-20-42.7H511V353h7.3v-43.1c0-4.6-0.2-8.2-1.2-14.5h0.5c1.3,6.5,3.4,11.3,5,15l20,42.7h11.7V289h-7.3V332.2  z M595.1,289h-17.4V353h17.4c18.9,0,26.8-12.6,26.8-32C621.9,301.7,614,289,595.1,289z M594.3,346.3h-7.5v-50.6h7.5  c14.2,0,18.1,10,18.1,25.3S608.4,346.3,594.3,346.3z"/>
</svg>