<?xml version="1.0" encoding="utf-8"?>
<!-- Generator: Adobe Illustrator 26.0.3, SVG Export Plug-In . SVG Version: 6.00 Build 0)  -->
<svg version="1.1" id="Layer_1" xmlns="http://www.w3.org/2000/svg" xmlns:xlink="http://www.w3.org/1999/xlink" height="55" width="209" x="0px" y="0px"
	 viewBox="0 0 209 55" style="enable-background:new 0 0 209 55;" xml:space="preserve">
<style type="text/css">
	.st0{fill:#050505;}
</style>
<g>
	<path class="st0" d="M35.41,39.1c-0.6,0.89-1.2,1.53-1.81,1.93c-0.6,0.39-1.4,0.59-2.4,0.59c-1.07,0-1.96-0.31-2.65-0.94
		s-1.21-1.73-1.55-3.3l-0.87-3.93c-0.31-1.36-0.61-2.41-0.88-3.14c-0.28-0.73-0.69-1.32-1.24-1.77c-0.55-0.45-1.32-0.67-2.32-0.67
		h-3.73v9.04c0,1,0.08,1.72,0.24,2.16c0.16,0.45,0.45,0.75,0.88,0.9c0.43,0.16,1.12,0.26,2.06,0.31v0.79
		c-1.2-0.08-2.87-0.12-4.99-0.12c-2.25,0-3.93,0.04-5.03,0.12v-0.79c0.94-0.05,1.63-0.16,2.06-0.31c0.43-0.16,0.73-0.46,0.88-0.9
		c0.16-0.44,0.24-1.17,0.24-2.16V17.41c0-1-0.08-1.72-0.24-2.16c-0.16-0.44-0.45-0.75-0.88-0.9c-0.43-0.16-1.12-0.26-2.06-0.31
		v-0.79c1.1,0.08,2.7,0.12,4.8,0.12l4.24-0.04c0.5-0.03,1.06-0.04,1.69-0.04c3.04,0,5.38,0.64,7.02,1.91
		c1.64,1.27,2.46,2.91,2.46,4.93c0,1.02-0.24,2.05-0.73,3.09c-0.49,1.04-1.3,1.96-2.44,2.79c-1.14,0.83-2.63,1.38-4.46,1.67
		l0.47,0.08c1.73,0.29,2.99,0.81,3.77,1.57c0.79,0.76,1.36,1.96,1.73,3.62l0.98,4.01c0.26,1.21,0.54,2.04,0.83,2.52
		c0.29,0.47,0.68,0.71,1.18,0.71c0.44,0,0.82-0.12,1.12-0.35c0.3-0.24,0.65-0.62,1.04-1.14L35.41,39.1z M19.04,14.3
		c-0.41,0.18-0.69,0.51-0.85,0.98c-0.16,0.47-0.24,1.18-0.24,2.12v9.67h2.63c2.59,0,4.38-0.58,5.35-1.73
		c0.97-1.15,1.45-2.75,1.45-4.79c0-2.15-0.51-3.77-1.53-4.87c-1.02-1.1-2.69-1.65-4.99-1.65C20.06,14.03,19.45,14.12,19.04,14.3z"/>
	<path class="st0" d="M52.04,22.93c-1.64-1.77-3.79-2.65-6.46-2.65c-0.57,0-1.12,0.05-1.64,0.13c1.75,0.35,3.22,1.16,4.42,2.45
		c1.64,1.77,2.46,4.45,2.46,8.04c0,3.59-0.82,6.26-2.46,8.02c-1.29,1.38-2.9,2.21-4.83,2.5c0.65,0.13,1.33,0.2,2.05,0.2
		c2.67,0,4.83-0.88,6.46-2.63c1.64-1.76,2.46-4.43,2.46-8.02C54.49,27.38,53.67,24.7,52.04,22.93z"/>
	<path class="st0" d="M71.42,21.53c1.23,0.81,1.85,1.82,1.85,3.03c0,0.68-0.2,1.22-0.59,1.61c-0.39,0.39-0.89,0.59-1.49,0.59
		c-0.6,0-1.11-0.18-1.53-0.53c-0.42-0.35-0.63-0.83-0.63-1.43c0-0.55,0.16-1.02,0.47-1.4c0.31-0.38,0.71-0.63,1.18-0.77
		c-0.26-0.47-0.73-0.86-1.4-1.18c-0.67-0.31-1.38-0.47-2.14-0.47c-0.97,0-1.87,0.31-2.71,0.92c-0.84,0.62-1.53,1.64-2.08,3.07
		c-0.55,1.43-0.83,3.31-0.83,5.64c0,3.25,0.52,5.61,1.57,7.09c1.05,1.48,2.41,2.22,4.09,2.22c1.13,0,2.19-0.33,3.2-0.98
		c1.01-0.65,1.84-1.68,2.5-3.07l0.75,0.28c-0.45,1.49-1.28,2.78-2.5,3.85c-1.22,1.07-2.8,1.61-4.74,1.61c-1.63,0-3.1-0.42-4.42-1.26
		c-1.32-0.84-2.37-2.05-3.12-3.64c-0.76-1.58-1.14-3.43-1.14-5.52c0-2.12,0.39-4.01,1.16-5.66c0.77-1.65,1.85-2.94,3.24-3.87
		c1.39-0.93,2.97-1.4,4.76-1.4C68.61,20.28,70.13,20.69,71.42,21.53z"/>
	<path class="st0" d="M94.22,39.65c0.39,0.31,0.86,0.51,1.42,0.59v0.83c-1.57-0.1-2.63-0.16-3.18-0.16c-0.71,0-2.16,0.05-4.36,0.16
		v-0.83c0.37,0,0.66-0.07,0.88-0.22c0.22-0.14,0.33-0.32,0.33-0.53c0-0.21-0.08-0.41-0.24-0.59l-4.52-6.6
		c-0.45-0.65-0.87-1.09-1.28-1.32c-0.41-0.22-0.96-0.36-1.67-0.41v6.84c0,1.07,0.19,1.81,0.57,2.22c0.38,0.41,1.05,0.61,2.02,0.61
		v0.83c-2.2-0.1-3.65-0.16-4.36-0.16c-0.76,0-2.35,0.05-4.76,0.16v-0.83c1.1,0,1.87-0.2,2.32-0.61c0.45-0.41,0.67-1.15,0.67-2.22
		V14.97c0-1.2-0.22-2.08-0.67-2.63c-0.45-0.55-1.22-0.83-2.32-0.83v-0.83c0.84,0.08,1.65,0.12,2.44,0.12c1.65,0,3.01-0.18,4.09-0.55
		v19.49c0.76-0.1,1.4-0.28,1.91-0.53c0.51-0.25,1-0.61,1.47-1.08l2.91-3.03c0.84-0.86,1.26-1.59,1.26-2.16c0-0.45-0.27-0.78-0.81-1
		c-0.54-0.22-1.24-0.33-2.1-0.33v-0.79c1.83,0.11,3.31,0.16,4.44,0.16c1.23,0,2.37-0.05,3.42-0.16v0.79
		c-1.28,0.1-2.46,0.72-3.54,1.85l-4.8,5.03l7.11,9.71C93.38,38.85,93.83,39.34,94.22,39.65z"/>
	<path class="st0" d="M112.89,36.35c-0.47,1.44-1.36,2.68-2.65,3.71s-2.86,1.55-4.7,1.55c-1.86,0-3.47-0.43-4.83-1.28
		c-1.36-0.85-2.4-2.04-3.12-3.58c-0.72-1.53-1.08-3.31-1.08-5.33c0-2.28,0.37-4.26,1.1-5.93c0.73-1.68,1.77-2.97,3.1-3.87
		c1.34-0.9,2.9-1.36,4.68-1.36c2.36,0,4.17,0.71,5.44,2.14c1.27,1.43,1.91,3.6,1.91,6.5h-12.3c-0.08,0.73-0.12,1.57-0.12,2.52
		c0,1.73,0.28,3.24,0.85,4.52c0.56,1.28,1.31,2.27,2.24,2.97c0.93,0.69,1.91,1.04,2.93,1.04c1.26,0,2.37-0.3,3.34-0.9
		c0.97-0.6,1.78-1.61,2.44-3.03L112.89,36.35z M102.04,22.83c-0.89,1.21-1.44,2.99-1.65,5.34h8.57c0.05-2.04-0.24-3.75-0.88-5.11
		c-0.64-1.36-1.59-2.04-2.85-2.04C103.99,21.02,102.93,21.62,102.04,22.83z"/>
	<path class="st0" d="M121.35,20.86h5.82v0.79h-5.82v15.21c0,1.18,0.22,2.03,0.65,2.55c0.43,0.52,1.05,0.79,1.87,0.79
		c0.81,0,1.51-0.33,2.08-0.98c0.58-0.65,1.06-1.73,1.45-3.22l0.79,0.2c-0.65,3.62-2.36,5.42-5.11,5.42c-0.89,0-1.63-0.1-2.2-0.31
		c-0.58-0.21-1.09-0.54-1.53-0.98c-0.58-0.58-0.98-1.28-1.2-2.12c-0.22-0.84-0.33-1.96-0.33-3.38V21.65h-3.77v-0.79h3.77v-6.01
		c1.47-0.05,2.65-0.24,3.54-0.55V20.86z"/>
	<path class="st0" d="M158.64,14.34c-0.43,0.16-0.73,0.46-0.88,0.9c-0.16,0.45-0.24,1.17-0.24,2.16V36.9c0,1,0.08,1.72,0.24,2.16
		c0.16,0.45,0.45,0.75,0.88,0.9c0.43,0.16,1.12,0.26,2.06,0.31v0.79c-1.21-0.08-2.87-0.12-4.99-0.12c-2.25,0-3.93,0.04-5.03,0.12
		v-0.79c0.94-0.05,1.63-0.16,2.06-0.31c0.43-0.16,0.73-0.46,0.88-0.9c0.16-0.44,0.24-1.17,0.24-2.16V15.83l-9.47,25.43h-0.63
		l-9.9-25.51v20.75c0,1.02,0.08,1.78,0.26,2.28c0.17,0.5,0.5,0.86,1,1.08c0.5,0.22,1.27,0.36,2.32,0.41v0.79
		c-0.94-0.08-2.28-0.12-4.01-0.12c-1.57,0-2.79,0.04-3.66,0.12v-0.79c0.92-0.05,1.6-0.19,2.04-0.41c0.45-0.22,0.75-0.59,0.9-1.1
		c0.16-0.51,0.24-1.26,0.24-2.26v-19.1c0-1-0.08-1.72-0.24-2.16c-0.16-0.44-0.45-0.75-0.88-0.9c-0.43-0.16-1.12-0.26-2.06-0.31
		v-0.79c0.87,0.08,2.08,0.12,3.66,0.12c1.36,0,2.48-0.04,3.34-0.12L145.41,36l8.45-22.64h1.85c2.12,0,3.79-0.04,4.99-0.12v0.79
		C159.76,14.08,159.07,14.18,158.64,14.34z"/>
	<path class="st0" d="M170.15,37.41c0,1.07,0.22,1.81,0.67,2.22c0.45,0.41,1.22,0.61,2.32,0.61v0.83c-2.41-0.1-4-0.16-4.76-0.16
		c-0.76,0-2.35,0.05-4.76,0.16v-0.83c1.1,0,1.87-0.2,2.32-0.61c0.45-0.41,0.67-1.15,0.67-2.22v-12.3c0-1.2-0.22-2.08-0.67-2.63
		c-0.45-0.55-1.22-0.83-2.32-0.83v-0.83c0.84,0.08,1.65,0.12,2.44,0.12c1.65,0,3.01-0.18,4.09-0.55V37.41z M169.87,11.75
		c0.5,0.5,0.75,1.09,0.75,1.77c0,0.68-0.25,1.27-0.75,1.77c-0.5,0.5-1.09,0.75-1.77,0.75c-0.68,0-1.27-0.25-1.77-0.75
		c-0.5-0.5-0.75-1.09-0.75-1.77c0-0.68,0.25-1.27,0.75-1.77c0.5-0.5,1.09-0.75,1.77-0.75C168.78,11,169.37,11.25,169.87,11.75z"/>
	<path class="st0" d="M181.96,37.41c0,1.07,0.22,1.81,0.67,2.22c0.45,0.41,1.22,0.61,2.32,0.61v0.83c-2.41-0.1-4-0.16-4.76-0.16
		c-0.76,0-2.35,0.05-4.76,0.16v-0.83c1.1,0,1.87-0.2,2.32-0.61c0.45-0.41,0.67-1.15,0.67-2.22V14.97c0-1.2-0.22-2.08-0.67-2.63
		c-0.45-0.55-1.22-0.83-2.32-0.83v-0.83c0.81,0.08,1.62,0.12,2.44,0.12c1.65,0,3.01-0.18,4.09-0.55V37.41z"/>
	<path class="st0" d="M193.76,37.41c0,1.07,0.22,1.81,0.67,2.22c0.45,0.41,1.22,0.61,2.32,0.61v0.83c-2.41-0.1-4-0.16-4.76-0.16
		c-0.76,0-2.35,0.05-4.76,0.16v-0.83c1.1,0,1.87-0.2,2.32-0.61c0.45-0.41,0.67-1.15,0.67-2.22V14.97c0-1.2-0.22-2.08-0.67-2.63
		c-0.45-0.55-1.22-0.83-2.32-0.83v-0.83c0.81,0.08,1.62,0.12,2.44,0.12c1.65,0,3.01-0.18,4.09-0.55V37.41z"/>
</g>
</svg>
