<?xml version="1.0" encoding="utf-8"?>
<!-- Generator: Adobe Illustrator 14.0.0, SVG Export Plug-In . SVG Version: 6.00 Build 43363)  -->
<!DOCTYPE svg PUBLIC "-//W3C//DTD SVG 1.1//EN" "http://www.w3.org/Graphics/SVG/1.1/DTD/svg11.dtd">
<svg version="1.1" id="Layer_1" xmlns="http://www.w3.org/2000/svg" xmlns:xlink="http://www.w3.org/1999/xlink" x="0px" y="0px"
	 width="423.131662772" height="236.333058474" viewBox="0 0 709 396" enable-background="new 0 0 709 396" xml:space="preserve">
<path fill="#0A2D81" stroke="#0A2D81" stroke-width="0.0938" d="M103.4,12.4c167.1,0,334.1,0,501.199,0c32.4,32.3,64.601,64.7,97,97
	c0.2,58.2,0,116.4,0.101,174.6c0.399,2.7-2.2,4.2-3.8,5.9c-29.2,29.199-58.301,58.399-87.5,87.5c-2.801,2.399-4.9,6.3-8.5,7.399
	c-164.9,0-329.9,0-494.9,0c-1.399,0.2-2.6-0.399-3.5-1.399C71,350.9,39,318,6.4,285.6C6.2,226.9,6.3,168.1,6.4,109.4
	C38.8,77.1,71.1,44.7,103.4,12.4z"/>
<path fill="#FFFFFF" stroke="#FFFFFF" stroke-width="0.0938" d="M107.4,45.4c1.5-1.5,2.8-3.3,4.7-4.4c3.3-0.3,6.6-0.1,9.899-0.1
	c143.3,0,286.7,0,430,0c13.6,0.1,27.2-0.4,40.8,0.2c27.2,26.8,54.101,54,81.101,81c0.1,49.6,0,99.3,0.1,149c-0.2,1.301,0.2,3-0.9,4
	C646.9,301.3,620.7,327.4,594.599,353.7c-159.5,0.2-319.1,0-478.6,0.1c-2.2,0.3-3.399-1.8-4.8-3c-25.3-25.399-50.6-50.7-75.9-76
	c-1.199-0.899-1.6-2.3-1.5-3.8c0-50,0-100,0.101-150.1c-0.4-2.5,2-3.9,3.5-5.5C60.7,92.1,84,68.7,107.4,45.4z"/>
<path fill="#0A2D81" stroke="#0A2D81" stroke-width="0.0938" d="M118.3,66.3c1.7-1.5,3.101-3.9,5.7-3.5c144.3,0,288.7,0,433,0
	c9.6,0.1,19.3-0.4,28.9,0.2c21.199,20.8,42,42,63.1,63c1.3,1.5,3.4,2.7,3.1,5c0.101,43.3,0,86.7,0.101,130c-0.101,1.5,0.2,3.1-1,4.2
	c-23.2,23.2-46.4,46.3-69.5,69.6c-152.5,0.2-305,0-457.5,0.101c-22.7-22.7-45.3-45.4-68-68c-1-1.2-2.7-2.2-2.5-3.9
	c-0.1-43.7,0-87.4-0.1-131c-0.2-1.6,0.6-2.8,1.6-3.8C76.3,107.6,97.2,86.9,118.3,66.3z"/>
<path fill="#FFFFFF" stroke="#FFFFFF" stroke-width="0.0938" d="M227,128.9c14.5-4.9,30.5-2.8,44.5,2.6c5.7,2.4,11.5,5,15.8,9.4
	c-4.699,6-9.399,11.9-14.3,17.7c-4.899-5-10.899-9.3-18-10.3c-7.3-1.4-15.6,0.3-20.899,5.8c-3.7,3.5-4.9,9.5-2.2,14
	c2.399,4.1,6.899,6.1,11,8c12.899,5.4,27.3,8.5,38.2,17.7c3.6,2.8,5.899,6.7,8.6,10.2c-0.1-24.7-0.2-49.5,0-74.3
	c13.8-0.3,27.5-0.1,41.3-0.1c12.8,0,26.2,1.4,37.6,7.8c8,4.5,14,12.5,15.801,21.6c4-4.9,7.8-9.9,12.699-13.9
	c23.2-20.2,58.2-24.3,86.2-12.4c1,0.5,2.7,0.9,2.4,2.4c0,9.7,0,19.4,0,29.1c-2.3-1.3-4.2-3.1-6.3-4.7
	c-10.2-7.1-23.101-10.1-35.5-8.3c-11.801,1.5-23.101,7.9-30.101,17.6c-8.7,11.8-11.399,27.8-6.399,41.601
	c4.5,13.6,16,24.5,29.8,28.3c14.5,4.2,30.6,1.1,42.8-7.7c0.8-0.6,1.3-1.3,1.7-2.3c15.5-34.1,30.899-68.4,46.399-102.5
	c8,0,15.9,0,23.801,0c17.199,38.6,34.1,77.3,51,115.899c2.699,6.601,6.3,12.801,8.199,19.601c-10.8-0.3-21.699,0.5-32.5-0.4
	c-4.1-8.899-7.699-18.1-11.899-27.1c-1.4-0.7-3.101-0.3-4.7-0.5c-16.6,0.2-33.3-0.101-49.9,0.2c-3.899,8.8-8,17.399-12,26.1
	c-0.6,2.4-3.3,1.5-5.1,1.7c-7.6,0.2-15.3-0.4-23,0.3c-16.7,4.8-34.8,4-51.1-1.8c-17.101-6.2-32.101-18.4-40.5-34.5
	c-3.7-7.4-6.5-15.4-6.9-23.7c-4.2,2-7.8,4.9-12.3,6.3c-13,5.101-27.2,3.8-40.9,4c-0.1,16.5,0.4,33-0.2,49.5
	c-10.1-0.1-20.1-0.2-30.199,0c-0.7-7.899-0.101-15.899-0.3-23.899c-1.801,2.3-2.801,5-4.4,7.3c-6.5,9.399-16.9,15.7-27.9,18.1
	c-9.8,2.101-20.1,2.8-29.899,0.4c-3.2-0.8-6.2-2.2-9.4-2c-11,0-21.899,0-32.899,0c-1.4,0.2-2.101-1.2-2.801-2.101
	c-10.899-15.399-22-30.6-32.899-46c-1.2-1.6-2.101-3.699-4-4.6c0.1,15.3,0,30.7,0.1,46c0,2.3,0,4.5-0.399,6.8
	c-10-0.2-20.101-0.1-30.2,0c-0.2-1.6-0.2-3.2-0.3-4.8c0.199-42.4-0.101-84.9,0.199-127.3c13.7-0.3,27.4-0.1,41.2-0.1
	c12.9,0,26.5,1.7,37.5,8.9c3.8,2.4,6.8,5.8,9.601,9.2C208.6,139,217.1,132,227,128.9z"/>
<path fill="#0A2D81" stroke="#0A2D81" stroke-width="0.0938" d="M145.3,151.1c5-0.9,10.2-0.3,15.101,0.3c5.3,0.8,10.899,2.6,14.2,7
	c3.899,5.1,3.8,12,2.699,18c-1.5,7-8.3,11.4-15,12.8c-5.5,1-11.3,1.7-17,0.8C145.5,177,145.5,164,145.3,151.1z"/>
<path fill="#0A2D81" stroke="#0A2D81" stroke-width="0.0938" d="M320.3,151.2c8.8,0,18.2-0.9,26.2,3.3c5.7,2.8,8,9.5,7.9,15.5
	c0.199,6.3-1.4,13.8-7.4,17.1c-8,4.6-17.8,3.5-26.7,3.7C320.4,177.6,320.4,164.4,320.3,151.2z"/>
<path fill="#0A2D81" stroke="#0A2D81" stroke-width="0.0938" d="M535.2,173.2c1.1-2.7,1.6-5.8,3.399-8.2
	c6.301,16,13.2,31.7,19.301,47.7c-12.2,0-24.5,0.1-36.801,0C525.599,199.5,530.5,186.4,535.2,173.2z"/>
<path fill="#0A2D81" stroke="#0A2D81" stroke-width="0.0938" d="M205.2,185.8c5.5,5.5,12.2,9.7,19.4,12.6c9.1,4.2,19.3,5.8,28,11
	C257.3,212.3,261,217.3,260.8,223c0.4,8-5.199,15.8-12.8,18.1c-10.2,3.4-21.6-0.699-28.899-8.199c-2.9-2.7-4.801-6.301-6.9-9.601
	c-4.5,3.5-8.8,7.2-13.2,10.7c-7.3-9.4-14.899-18.4-22-27.9C189,204.3,199.9,196.8,205.2,185.8z"/>
</svg>
