<svg xmlns:xlink="http://www.w3.org/1999/xlink" xmlns="http://www.w3.org/2000/svg" style="enable-background:new 0 0 1150.5 685.3" xml:space="preserve" viewBox="178.9 179.2 795.5 328.6"><path d="M492.1 179.3h26.8c12.9 0 19.5 7.2 19.5 19.4 0 8.4-3.7 14.6-9.9 17.8l11.6 20v4.5h-13.3L514 218.1h-8.2V241h-13.7v-61.7zm24.5 27.4c5 0 7.9-1.9 7.9-7.8 0-5.7-2.9-7.7-7.9-7.7h-10.8v15.5h10.8zm27.1 29.8 20.9-57.2H578l21 57.2v4.5h-13.5l-4.6-14h-19.8l-4.9 14h-12.6v-4.5zm33.1-20.9-5.7-18-5.8 18h11.5zm27.3-36.3h13.7V241h-13.7v-61.7zm22.4 0h13.7v49.8h27.4V241h-41.1v-61.7zM488.1 309.5h13.7c0 7.1 7.1 8.8 12.2 8.8 6.1 0 9-2.4 9-5.9 0-3.7-4.1-5-11.8-7.6l-4.9-1.7c-7.7-2.6-16.6-6.6-16.6-17.7 0-11.5 8.7-19 23.1-19 13.4 0 23.4 6.8 23.4 21.1h-13.8c0-6-4.8-8.6-10-8.6-5.6 0-8.9 2.1-8.9 5.7 0 4.3 4.5 5.1 10.1 7.1l4.6 1.6c10 3.4 18.6 7.8 18.6 18.3 0 11-7.8 19.1-24.1 19.1-13.4.1-24.6-7-24.6-21.2zm51 15.5 20.9-57.2h13.4l21 57.2v4.5h-13.5l-4.6-14h-19.8l-4.9 14H539V325zm33.1-20.9-5.7-18-5.8 18h11.5zm27.3-36.4h41.4v11.9h-27.7v14.1h23.5v11.4h-23.5v24.3h-13.7v-61.7zm47.2 0h40.7v11.9h-27v13.2h22.9v11.4h-22.9v13.3h27.2v11.9h-40.8v-61.7zm61.6 12h-17v-11.9h47.6v11.9H722v49.8h-13.7v-49.8zm54 25.4-19.8-32.8v-4.5H756l13.3 24.5 14-24.5h12.6v4.5l-19.8 32.3v25h-13.8v-24.5zm49 19.9 20.9-57.2h13.4l21 57.2v4.5h-13.5l-4.6-14h-19.8l-4.9 14h-12.6V325zm33.1-20.9-5.7-18-5.8 18h11.5zm27.3-36.4h12.5l22 36.2v-36.2h13.7v61.7h-12.5l-22-36.2v36.2h-13.7v-61.7zm55.3 0h22.6c15.3 0 24.8 7.6 24.8 21.2v19.4c0 13.7-9.5 21.2-24.8 21.2H927v-61.8zm22.5 49.9c7.5 0 11.1-4.4 11.1-8.9v-20.1c0-4.5-3.6-8.9-11.1-8.9h-8.9v37.9h8.9zm-461.4 80.3h13.7c0 7.1 7.1 8.8 12.2 8.8 6.1 0 9-2.4 9-5.9 0-3.7-4.1-5-11.8-7.6l-4.9-1.7c-7.7-2.6-16.6-6.6-16.6-17.7 0-11.5 8.7-19 23.1-19 13.4 0 23.4 6.8 23.4 21.1h-13.8c0-6-4.8-8.6-10-8.6-5.6 0-8.9 2.1-8.9 5.7 0 4.3 4.5 5.1 10.1 7.1l4.6 1.6c10 3.4 18.6 7.8 18.6 18.3 0 11-7.8 19.1-24.1 19.1-13.4.2-24.6-7-24.6-21.2zm68.8-29.8h-17v-11.9h47.6v11.9h-16.9V418h-13.7v-49.9zm24.1 45.4 20.9-57.2h13.4l21 57.2v4.5h-13.5l-4.6-14h-19.8l-4.9 14H581v-4.5zm33-20.9-5.7-18-5.8 18H614zm27.3-36.4h12.5l22 36.2v-36.2h13.7V418H677l-22-36.2V418h-13.7v-61.8zm57.1 0H721c15.3 0 24.8 7.6 24.8 21.2v19.4c0 13.7-9.5 21.2-24.8 21.2h-22.6v-61.8zm22.6 49.9c7.5 0 11.1-4.4 11.1-8.9V377c0-4.5-3.6-8.9-11.1-8.9h-8.9V406h8.9zm27 7.4 20.9-57.2h13.4l21 57.2v4.5h-13.5l-4.6-14h-19.8l-4.9 14H748v-4.5zm33.1-20.9-5.7-18-5.8 18h11.5zm27.3-36.4h26.8c12.9 0 19.5 7.2 19.5 19.4 0 8.4-3.7 14.6-9.9 17.8l11.6 20v4.5h-13.3L830.2 395H822v23h-13.7v-61.8zm24.5 27.5c5 0 7.9-1.9 7.9-7.8 0-5.7-2.9-7.7-7.9-7.7H822v15.5h10.9zm29.8-27.5h22.6c15.3 0 24.8 7.6 24.8 21.2v19.4c0 13.7-9.5 21.2-24.8 21.2h-22.6v-61.8zm22.6 49.9c7.5 0 11.1-4.4 11.1-8.9V377c0-4.5-3.6-8.9-11.1-8.9h-8.9V406h8.9zm30.1-8.2H929c0 7.1 7.1 8.8 12.2 8.8 6.1 0 9-2.4 9-5.9 0-3.7-4.1-5-11.8-7.6l-4.9-1.7c-7.7-2.6-16.6-6.6-16.6-17.7 0-11.5 8.7-19 23.1-19 13.4 0 23.4 6.8 23.4 21.1h-13.8c0-6-4.8-8.6-10-8.6-5.6 0-8.9 2.1-8.9 5.7 0 4.3 4.5 5.1 10.1 7.1l4.6 1.6c10 3.4 18.6 7.8 18.6 18.3 0 11-7.8 19.1-24.1 19.1-13.3.2-24.5-7-24.5-21.2zm-423.3 46.8h26.1c11.5 0 18.7 5.7 18.7 17.2 0 5.7-2.1 9.9-6.6 12.5 4.9 2.4 9.2 6.1 9.2 14.6 0 11.8-7.2 17.5-18.7 17.5h-28.7v-61.8zm25.2 25.6c2.7 0 5.7-1.9 5.7-6.8s-3-6.9-5.7-6.9h-11.6v13.7h11.6zm2.9 24.2c2.5 0 5.4-1.8 5.4-6.4s-2.9-6.4-5.4-6.4h-14.5v12.9h14.5zm74.3-28.7v19.7c0 14.1-9.7 22.3-24.8 22.3-15.1 0-24.8-8.2-24.8-22.3v-19.7c0-14.2 9.7-22.4 24.8-22.4 15.1 0 24.8 8.2 24.8 22.4zm-13.7 20.3v-21c0-4.5-3.3-9.2-11.1-9.2s-11.1 4.7-11.1 9.2v21c0 4.5 3.3 9.2 11.1 9.2s11.1-4.7 11.1-9.2zm16 15.9 20.9-57.2h13.4l21 57.2v4.5h-13.5l-4.6-14h-19.8l-4.9 14h-12.6V502zm33-20.9-5.7-18-5.8 18h11.5zm27.3-36.4h26.8c12.9 0 19.5 7.2 19.5 19.4 0 8.4-3.7 14.6-9.9 17.8l11.6 20v4.5h-13.3L679 483.5h-8.2v22.9h-13.7v-61.7zm24.5 27.4c5 0 7.9-1.9 7.9-7.8 0-5.7-2.9-7.7-7.9-7.7h-10.8v15.5h10.8zm29.9-27.4h22.6c15.3 0 24.8 7.6 24.8 21.2v19.4c0 13.7-9.5 21.2-24.8 21.2h-22.6v-61.8zm22.6 49.8c7.5 0 11.1-4.4 11.1-8.9v-20.1c0-4.5-3.6-8.9-11.1-8.9h-8.9v37.9h8.9z" style="fill:#21214f"/><path d="M306.4 323.9H178.9v-50.5h154.7l-17.7 44c-1.5 3.9-5.3 6.5-9.5 6.5zM178.9 179.2h262.5v50.5H178.9z" style="fill:#10b6be"/><path d="M383.1 273.5 351.6 351c-4.2 10.2-14.1 16.9-25.1 16.9H178.9v50.5h157.2c25.1 0 47.6-15.3 56.9-38.5l42.5-106.3h-52.4z" style="fill:#4f13e1"/></svg>