<svg xmlns="http://www.w3.org/2000/svg" xmlns:xlink="http://www.w3.org/1999/xlink" version="1.1" id="layer" x="0px" y="0px" style="enable-background:new 0 0 652 652;" xml:space="preserve" viewBox="21.97 192.34 599.94 258.22">
<style type="text/css">
	.st0{fill:#FE5F5A;}
</style>
<path class="st0" d="M142.2,381.1L144,399l27.7-3c1.5-0.3,3,0.6,3.4,2.1c0,0.2,0.1,0.4,0.1,0.6l1.6,12.7c0.3,1.5-0.6,3-2.1,3.3  c-0.2,0-0.4,0.1-0.6,0.1l-27.9,3.1l3,27.8c0.3,1.5-0.6,3-2.1,3.4c-0.2,0-0.4,0.1-0.6,0.1l-13.5,1.3c-1.5,0.3-3-0.6-3.3-2.1  c0-0.2-0.1-0.4-0.1-0.6l-7.6-80.7c-0.3-1.5,0.6-3,2.1-3.3c0.2,0,0.4-0.1,0.6-0.1l15.3-1.6l28.1-3.1c1.5-0.3,3,0.6,3.4,2.2  c0,0.2,0.1,0.4,0.1,0.6l1.8,13c0.3,1.5-0.6,3-2.1,3.3c-0.2,0-0.4,0.1-0.6,0.1L142.2,381.1z"/>
<path class="st0" d="M188.3,356.1l12.4-1.8c1.5-0.4,3,0.5,3.4,2c0.1,0.2,0.1,0.4,0.1,0.6l12.4,80.1c0.4,1.5-0.5,3-2,3.4  c-0.2,0.1-0.4,0.1-0.6,0.1l-13.5,2c-1.5,0.4-3-0.5-3.4-2c-0.1-0.2-0.1-0.4-0.1-0.6l-11.4-80.3c-0.4-1.5,0.5-3,2-3.4  C187.8,356.1,188.1,356.1,188.3,356.1z"/>
<path class="st0" d="M266.1,342.6l11.7-2.4c1.5-0.5,3.1,0.4,3.5,1.8c0.1,0.2,0.1,0.4,0.1,0.6l17.2,79.3c0.5,1.5-0.4,3.1-1.8,3.5  c-0.2,0.1-0.4,0.1-0.6,0.1l-8.9,1.8c-1.5,0.4-3.1-0.1-4.1-1.2l-37.6-40.3l8.2,44.9c0.5,1.5-0.4,3.1-1.9,3.5  c-0.2,0.1-0.4,0.1-0.6,0.1l-13.4,2.4c-1.5,0.5-3.1-0.4-3.5-1.8c-0.1-0.2-0.1-0.4-0.1-0.6l-13.5-80c-0.5-1.5,0.4-3.1,1.8-3.5  c0.2-0.1,0.4-0.1,0.6-0.1l9-1.6c1.5-0.4,3.1,0.1,4.2,1.2l36.2,40.4l-8.8-44.6c-0.4-1.5,0.4-3.1,1.9-3.5  C265.7,342.6,265.9,342.6,266.1,342.6z"/>
<path class="st0" d="M388,402.7l-14.6,4.1c-1.6,0.6-3.3-0.2-4-1.7l-6-10.1l-29.4,7.5l-0.5,11.8c0.1,1.7-1.1,3.1-2.7,3.4l-14.7,3.5  c-2.2,0.6-3.6-0.4-3.4-2.7l5.4-84.8c0-1.7,1.2-3.1,2.8-3.4l19.1-4.9c1.6-0.5,3.3,0.2,4.1,1.6l45.6,71.7  C390.9,400.6,390.1,402.1,388,402.7z M353.3,378.3l-17.6-29.4l-1.2,34.2L353.3,378.3z"/>
<path class="st0" d="M423.8,300.1l11.6-4c1.4-0.6,3.1,0,3.7,1.4c0.1,0.2,0.1,0.4,0.2,0.6l26.7,76.6c0.6,1.4,0,3.1-1.4,3.7  c-0.2,0.1-0.4,0.1-0.6,0.2l-8.6,3c-1.4,0.5-3.1,0.3-4.3-0.7l-42.4-35.4l13.7,43.6c0.6,1.4,0,3.1-1.4,3.7c-0.2,0.1-0.4,0.2-0.6,0.2  l-13.1,4c-1.4,0.6-3.1,0-3.7-1.4c-0.1-0.2-0.1-0.4-0.2-0.6l-23.3-77.6c-0.6-1.4,0-3.1,1.4-3.7c0.2-0.1,0.4-0.1,0.6-0.2l8.7-2.7  c1.4-0.6,3.1-0.3,4.3,0.7l41.1,35.6l-14.5-43c-0.6-1.4,0-3.1,1.5-3.7C423.4,300.2,423.6,300.1,423.8,300.1z"/>
<path class="st0" d="M465.1,332.8c-9.5-23.7,0.8-48.9,25.1-58.7c18.4-7.4,38.7-2.1,50.1,12.7c1.2,1.8,0.7,3.5-1.2,4.2l-13.6,5.5  c-1.6,0.6-2.9,0.2-4.1-1c-6-5.7-15.2-7-24-3.5c-14.2,5.7-19.6,19-13.9,33.3s18.8,20.3,33.1,14.6c8.7-3.5,14.5-10.8,14.9-19.1  c0.1-1.8,0.7-3,2.3-3.6l13.6-5.5c2-0.8,3.5,0,3.7,2c2.2,18.6-8.8,36.6-27.3,44.1C499.5,367.6,474.6,356.5,465.1,332.8z"/>
<path class="st0" d="M615.6,297.6l5.9,11.7c0.8,1.3,0.4,3.1-0.9,3.9c-0.2,0.1-0.4,0.2-0.5,0.3l-39,18.3l-2.8,1.3  c-1.3,0.8-3.1,0.4-3.9-0.9c-0.1-0.2-0.2-0.3-0.3-0.5l-33.2-73.9c-0.8-1.3-0.4-3.1,0.9-3.9c0.2-0.1,0.4-0.2,0.6-0.3l13.9-6.4l25-11.9  c1.3-0.8,3-0.4,3.9,0.9c0.1,0.2,0.2,0.4,0.3,0.6l5.8,11.7c0.8,1.3,0.4,3-0.9,3.9c-0.2,0.1-0.4,0.2-0.6,0.3l-25.1,11.8l6.1,13.2  l22.7-10.8c1.3-0.8,3.1-0.4,3.9,1c0.1,0.2,0.2,0.3,0.2,0.5l5.5,11.1c0.8,1.3,0.4,3-0.9,3.9c-0.2,0.1-0.4,0.2-0.6,0.3l-23,10.9  l6.6,14l26.2-12.4c1.3-0.8,3-0.4,3.9,0.9C615.4,297.2,615.5,297.4,615.6,297.6z"/>
<path class="st0" d="M22.5,330.9c-0.3-1.5,0.7-2.9,2.2-3.2c0.2,0,0.5-0.1,0.7,0l13.2-0.5c1.8-0.1,2.8,0.8,3.2,2.7  c1.1,4.3,4.8,6.3,11.9,6c7.8-0.3,10.2-3.4,10-6.9c-0.2-4.9-6.3-6.8-13.7-9.1c-12-3.6-27.3-7.9-28-26.2  c-0.7-16.8,12.6-25.8,26.9-26.4c14-0.6,27.8,6.4,30,23.8c0.2,2-0.9,3.2-2.9,3.2l-13.2,0.5c-1.8,0.1-2.8-0.8-3.2-2.7  c-1.1-4.4-4.4-6.3-9.9-6.1c-6,0.2-8.6,3.4-8.5,6.8c0.2,5,5.2,7.2,12.3,9.5c12.2,3.7,28.7,7.3,29.4,25.8  c0.7,16.8-12.4,25.8-28.5,26.4C38.8,355.3,24.6,348.3,22.5,330.9z"/>
<path class="st0" d="M165.6,343.7l-14.6,1.8c-1.6,0.3-3.2-0.6-3.6-2.2l-4.2-10.3l-29.3,2.9l-2.1,10.9c-0.1,1.6-1.5,2.8-3.1,2.8  l-14.6,1.1c-2.1,0.2-3.4-0.9-2.8-3.1l17.5-80.1c0.2-1.6,1.6-2.8,3.2-2.9l19-1.9c1.6-0.3,3.2,0.6,3.7,2.2l33,75.1  C168.7,342.2,167.8,343.5,165.6,343.7z M136.2,315.6l-12.5-30.7l-6.2,32.6L136.2,315.6z"/>
<path class="st0" d="M228,318.7l2.1,12.2c0.4,1.5-0.5,3-1.9,3.3c-0.2,0-0.4,0.1-0.6,0.1l-35.2,5.6L186,341c-1.5,0.4-3-0.5-3.3-1.9  c0-0.2-0.1-0.4-0.1-0.6L171.6,261c-0.4-1.5,0.5-3,1.9-3.3c0.2,0,0.4-0.1,0.5-0.1l11.3-1.7c1.5-0.4,3,0.5,3.3,1.9  c0,0.2,0.1,0.4,0.1,0.5l9.7,61.9l26.1-4.1c1.5-0.4,3,0.5,3.3,1.9C228,318.3,228,318.5,228,318.7z"/>
<path class="st0" d="M316.3,315.6L302,319c-1.5,0.5-3.2-0.3-3.8-1.7l-5.4-9.8l-28.8,6.3l-0.8,11.2c0,1.6-1.1,3-2.7,3.2l-14.4,2.8  c-2.1,0.5-3.4-0.5-3.2-2.7l8.1-81.6c0.1-1.6,1.3-3,2.9-3.2l18.7-4.1c1.6-0.5,3.2,0.3,3.9,1.7l41.6,70.7  C319.2,313.8,318.4,315.2,316.3,315.6z M283.7,291l-16-29l-2.3,33.1L283.7,291z"/>
<path class="st0" d="M392.3,290.4c2,1.4,1.7,3.4-0.7,4.1l-14.5,4.5c-1.4,0.5-2.9,0.2-4.1-0.7l-26.8-19.2l-3.4,0.8l6.6,23.8  c0.6,1.4-0.1,3-1.5,3.6c-0.2,0.1-0.4,0.1-0.5,0.2l-12.7,3.5c-1.4,0.6-3-0.1-3.6-1.5c-0.1-0.2-0.1-0.4-0.2-0.6l-20-75.8  c-0.6-1.4,0.1-3,1.5-3.6c0.2-0.1,0.4-0.1,0.6-0.2l14-3.9l9.2-2.5c15.3-4.4,31.3,4.5,35.7,19.9c0,0,0,0,0,0  c2.7,9.7-0.4,20.2-7.6,27.2L392.3,290.4L392.3,290.4z M338.3,263.7l8.8-2.4c5.1-1.5,7.9-7.2,6.3-13c-1.7-5.9-7.1-9.2-12.2-7.7  l-8.7,2.4L338.3,263.7z"/>
<path class="st0" d="M431.7,195.4l-10.8,50.3l11.3,32.2c0.6,1.4,0,3-1.4,3.6c-0.2,0.1-0.3,0.1-0.5,0.2l-11.4,3.9  c-1.4,0.6-3,0-3.6-1.4c-0.1-0.2-0.1-0.3-0.2-0.5l-10.9-32.3L366.1,218c-1.8-1.7-1.4-3.3,0.8-4.1l14.8-4.8c1.4-0.6,3-0.2,4,0.9  l21.3,20.4l4.6-29.3c0.1-1.5,1.2-2.8,2.6-3.2l14.6-5.4C430.8,191.9,432.2,193,431.7,195.4z"/>
</svg>