<svg xmlns="http://www.w3.org/2000/svg" xmlns:xlink="http://www.w3.org/1999/xlink" version="1.0" id="Layer_1" x="0px" y="0px" style="enable-background:new 0 0 407.77 140.17;" xml:space="preserve" viewBox="5 27.87 398.37 85.22">
<style type="text/css">
	.st0{fill:#103457;}
	.st1{fill:#002856;}
</style>
<g>
	<path class="st0" d="M389.07,32.17v1.41h1.99v5.6h1.71v-5.6h1.99v-1.41H389.07z M403.17,32.08l-3.42,3.6l-3.4-3.6h-0.21v7.09h1.66   v-3.65l1.85,2.16h0.21l1.85-2.16v3.65h1.66v-7.09H403.17z"/>
	<g>
		<path class="st1" d="M28.9,110.43c-6.55,0-12.02-1.95-16.26-5.81c-3.87-3.57-6.44-8.6-7.63-14.94c-0.06-0.3,0.14-0.59,0.43-0.66    l8.79-1.95c0.31-0.07,0.61,0.15,0.66,0.47c0.6,3.93,1.53,6.66,2.84,8.37c2.65,3.68,6.57,5.56,11.64,5.56    c4.01,0,7.4-1.37,10.06-4.07c2.66-2.7,4.01-6.15,4.01-10.26c0-1.65-0.23-3.19-0.7-4.58c-0.47-1.41-1.21-2.72-2.2-3.9    c-0.97-1.15-2.23-2.24-3.75-3.24c-1.48-0.97-3.26-1.9-5.29-2.78l-7.65-3.18C13.37,65.06,8.28,58.82,8.28,50.42    c0-5.66,2.11-10.27,6.44-14.08c4.32-3.83,9.77-5.77,16.23-5.77c8.27,0,14.66,3.7,19.53,11.32c0.17,0.27,0.09,0.63-0.19,0.79    l-6.82,4.05c-0.26,0.15-0.59,0.06-0.75-0.19c-1.62-2.55-3.16-4.22-4.71-5.13c-1.84-1.18-4.27-1.79-7.17-1.79    c-3.57,0-6.59,1.04-8.97,3.09c-2.43,2.05-3.66,4.68-3.66,7.81c0,4.33,3.13,7.81,9.29,10.35l7.89,3.23    c6.22,2.51,10.81,5.6,13.64,9.17c2.8,3.52,4.22,7.92,4.22,13.07c0,6.93-2.34,12.73-6.94,17.24    C41.66,108.13,35.81,110.43,28.9,110.43"/>
		<path class="st1" d="M69.86,108.39V32.61c0-0.31,0.25-0.55,0.55-0.55h8.62c0.31,0,0.55,0.25,0.55,0.55v76.33v0h-9.17    C70.11,108.95,69.86,108.7,69.86,108.39"/>
		<path class="st1" d="M136.02,110.46c-10.71,0-20.01-3.92-27.65-11.66c-7.64-7.77-11.51-17.23-11.51-28.12    c0-11.12,3.94-20.68,11.71-28.42c7.77-7.77,17.37-11.72,28.52-11.72c5.99,0,11.66,1.24,16.84,3.69c4.58,2.26,9.18,5.9,13.67,10.81    c0.2,0.22,0.2,0.58-0.02,0.79l-6.02,5.79c-0.23,0.22-0.6,0.19-0.8-0.06c-6.46-7.94-14.36-11.96-23.46-11.96    c-8.64,0-15.99,3.03-21.85,8.99c-5.85,5.85-8.82,13.28-8.82,22.09c0,9.1,3.31,16.7,9.84,22.6c6.09,5.46,12.81,8.23,19.95,8.23    c6.12,0,11.68-2.09,16.55-6.21c4.89-4.17,7.65-9.25,8.22-15.08l0.12-1.22h-19.28c-0.31,0-0.55-0.25-0.55-0.55v-7.9    c0-0.31,0.25-0.55,0.55-0.55h29.92v1.51c0,5.8-0.69,11-2.05,15.45c-1.31,4.05-3.56,7.92-6.69,11.48    C156.13,106.41,146.98,110.46,136.02,110.46"/>
		<path class="st1" d="M198.9,54.33v54.06c0,0.31-0.25,0.55-0.55,0.55l-8.62,0c-0.31,0-0.55-0.25-0.55-0.55l-0.02-74.04    c0-0.97,1.16-1.47,1.87-0.81l55.84,52.63V32.61c0-0.31,0.25-0.55,0.55-0.55h8.62c0.31,0,0.55,0.25,0.55,0.55v74.3    c0,0.97-1.17,1.47-1.87,0.8L198.9,54.33z"/>
		<path class="st1" d="M356.09,108.39V32.61c0-0.31,0.25-0.55,0.55-0.55h8.62c0.31,0,0.55,0.25,0.55,0.55v67.33h25.47    c0.31,0,0.55,0.25,0.55,0.55v7.9c0,0.31-0.25,0.55-0.55,0.55h-34.64C356.34,108.95,356.09,108.7,356.09,108.39"/>
		<path class="st1" d="M307.03,71.59c2.83,0.03,5.65,0.45,8.36,1.25l2.27,0.67l-10.5-27.87l-10.92,27.69l2.29-0.64    c2.65-0.74,5.41-1.11,8.19-1.11L307.03,71.59z M306.72,80.09c-6.86,0-13.2,3.12-17.42,8.56l-0.08,0.1l-1.58,3.48l19.39,11.19    l18.89-10.9l-1.55-3.58l-0.08-0.11c-4.12-5.45-10.4-8.63-17.24-8.73C306.89,80.1,306.81,80.09,306.72,80.09 M270.35,91.44    l3.7-6.41c0.15-0.26,0.49-0.36,0.76-0.2l4.95,2.86l26.56-59.51c0.2-0.42,0.8-0.42,1,0l26.47,59.81l5.48-3.16    c0.27-0.15,0.6-0.06,0.76,0.2l3.7,6.41c0.15,0.27,0.06,0.6-0.2,0.76l-35.93,20.74c-0.34,0.2-0.76,0.2-1.11,0l-35.93-20.74    C270.28,92.04,270.19,91.7,270.35,91.44"/>
	</g>
</g>
</svg>