<svg xmlns="http://www.w3.org/2000/svg" xmlns:xlink="http://www.w3.org/1999/xlink" version="1.1" viewBox="0 0 86 32.27">
    <!-- Generator: Sketch 52.6 (67491) - http://www.bohemiancoding.com/sketch -->
    <title>Group Copy 3</title>
    <desc>Created with Sketch.</desc>
    <g id="Overview" stroke="none" stroke-width="1" fill="none" fill-rule="evenodd">
        <g id="Group-Copy-3" fill="#000000">
            <g id="Group-Copy-2">
                <g id="Signol_logo">
                    <polygon id="Shape" points="86 0 86 26.1473904 80.7560976 26.1473904 80.7560976 0"/>
                    <path d="M77.4835486,13.2824144 C77.0521301,12.120344 76.4468333,11.132381 75.6676582,10.3185254 C74.8703396,9.49239748 73.9162719,8.85329679 72.868064,8.44316319 C71.780843,8.00677732 70.5758397,7.78858438 69.2530541,7.78858438 C67.9190879,7.78858438 66.7046389,8.00677732 65.609707,8.44316319 C64.5545035,8.85438507 63.5923212,9.49311605 62.7846673,10.3185254 C61.9943116,11.131162 61.3834244,12.119125 60.9520059,13.2824144 C60.5205873,14.4457037 60.304878,15.7522203 60.304878,17.201964 C60.304878,18.66471 60.5205873,19.9830097 60.9520059,21.1568634 C61.3834244,22.330717 61.9943116,23.3274158 62.7846673,24.1469599 C63.5924803,24.9782093 64.5557932,25.6229258 65.6131769,26.0399969 C66.706181,26.4824776 67.92063,26.7037179 69.256524,26.7037179 C70.5793096,26.7037179 71.7843129,26.4824776 72.8715339,26.0399969 C73.9206989,25.6235648 74.8746778,24.9785007 75.6711281,24.1469599 C76.4503031,23.3270095 77.0555999,22.3303107 77.4870185,21.1568634 C77.9184371,19.9834161 78.1341463,18.6651163 78.1341463,17.201964 C78.1322186,15.7510013 77.9153527,14.4444848 77.4835486,13.2824144 Z M71.9011313,21.2976527 C71.3351595,22.1883024 70.4522743,22.6336273 69.2524758,22.6336273 C68.0187498,22.6336273 67.1163949,22.1883024 66.5454111,21.2976527 C65.9744273,20.4070029 65.6885498,19.0533534 65.6877788,17.2367042 C65.6877788,15.420055 65.9736562,14.0694529 66.5454111,13.184898 C67.117166,12.300343 68.0195209,11.8580655 69.2524758,11.8580655 C70.4518888,11.8580655 71.334774,12.300343 71.9011313,13.184898 C72.4674886,14.0694529 72.7504745,15.420055 72.750089,17.2367042 C72.750089,19.0537598 72.4671031,20.4074092 71.9011313,21.2976527 Z" id="Shape"/>
                    <path d="M43,26.1473904 L43,8.06862751 L46.2132627,8.06862751 C46.5367185,8.06862751 46.8072242,8.1440908 47.0247799,8.29501739 C47.2504775,8.45766433 47.4136152,8.69851488 47.4852152,8.97478752 L47.7862248,10.0208649 C48.1157445,9.69947946 48.461569,9.39679008 48.8222041,9.11410437 C49.178432,8.8356209 49.5628985,8.59880352 49.968688,8.40791207 C50.3939262,8.20997477 50.8374964,8.05805351 51.2924394,7.95453181 C51.8011369,7.84030142 52.3203221,7.78472173 52.8406531,7.78879281 C53.7891497,7.78879281 54.6286767,7.96013652 55.3592341,8.30282393 C56.069823,8.6301136 56.7015505,9.11855837 57.2084573,9.73262313 C57.7253327,10.3710956 58.1124509,11.1125097 58.3463079,11.9118509 C58.6096072,12.8010259 58.7394893,13.7273468 58.7313469,14.6579541 L58.7313469,26.1473904 L53.5433924,26.1473904 L53.5433924,14.6585546 C53.5433924,13.7754139 53.3480911,13.0868364 52.9574885,12.592822 C52.5668859,12.0988077 51.9923011,11.8518005 51.2337339,11.8518005 C50.6771103,11.8489466 50.1273759,11.9802667 49.6273903,12.2355223 C49.1040287,12.5065241 48.6196896,12.8527855 48.1885301,13.2641851 L48.1885301,26.1473904 L43,26.1473904 Z" id="Shape"/>
                    <path d="M35.2186157,8.65377515 C34.6475745,8.36929064 34.047459,8.15469564 33.4300198,8.01419204 C32.7557924,7.86052719 32.0676284,7.78503198 31.3778115,7.78905401 C30.4354384,7.77950173 29.4968377,7.91571801 28.5920237,8.19334698 C27.7348583,8.46486623 26.9903186,8.85203994 26.3584047,9.35486812 C25.7381444,9.84342527 25.2286883,10.4710615 24.8668688,11.1924005 C24.5040475,11.9149921 24.3226368,12.7269621 24.3226368,13.6283104 C24.3226368,14.7147856 24.5781235,15.6682879 25.0890969,16.4888175 C25.6000703,17.3093471 26.3007691,17.9680401 27.1911931,18.4648964 C26.8245939,18.6425407 26.4815556,18.8697945 26.1707581,19.1409077 C25.9036343,19.3741769 25.6655395,19.6420418 25.4621226,19.9381472 C25.2828797,20.1996662 25.1437995,20.4892553 25.0499802,20.7962993 C24.9655758,21.0678604 24.9210325,21.3514064 24.9178906,21.6371331 C24.9178906,22.2741284 25.0333509,22.8000477 25.2642716,23.2148909 C25.4908706,23.6279673 25.8064228,23.9791902 26.1854977,24.2402543 C25.3831334,24.552382 24.7512195,24.982951 24.2897561,25.5319613 C23.8282927,26.0809717 23.597561,26.7541961 23.597561,27.5516346 C23.6000038,28.1737036 23.7592542,28.7839272 24.0590244,29.3198938 C24.3666667,29.8864215 24.8419249,30.3862638 25.4847989,30.8194206 C26.127673,31.2525774 26.9353285,31.6021286 27.9077653,31.8680741 C28.8802022,32.1340197 30.0368842,32.2669924 31.3778115,32.2669924 C32.7402813,32.2669924 33.9496858,32.0848516 35.006025,31.7205699 C36.0623643,31.3562882 36.9524105,30.8737643 37.6761635,30.272998 C38.4014283,29.6718337 38.9509514,28.9840778 39.324733,28.2097304 C39.6887758,27.476504 39.8810169,26.6621747 39.8854054,25.8347332 C39.8854054,24.9680214 39.7342298,24.2543876 39.4318787,23.6938317 C39.1441426,23.1495012 38.7337438,22.688064 38.2368359,22.3501697 C37.7161486,22.0037443 37.1412942,21.757277 36.5389453,21.6222035 C35.8978147,21.4713445 35.2481104,21.3642261 34.5938827,21.3015162 C33.9343793,21.2378167 33.286025,21.1980045 32.64882,21.1820796 C32.011615,21.1661547 31.4445177,21.1307218 30.947528,21.075781 C30.4531839,21.023627 30.0548363,20.9310636 29.7524852,20.7980908 C29.450134,20.6651181 29.2989585,20.4483406 29.2989585,20.1477584 C29.2989585,19.8471763 29.4858493,19.5814298 29.8596309,19.350519 C30.3622471,19.4219264 30.8689483,19.4566458 31.3761107,19.4544289 C32.297322,19.4616264 33.2144211,19.3243633 34.0972709,19.04715 C34.9434762,18.7756307 35.6770556,18.388457 36.2980092,17.8856288 C36.9081739,17.3962766 37.4089986,16.7718763 37.7651681,16.056457 C38.1223204,15.3398372 38.3008965,14.5308532 38.3008965,13.6295048 C38.3020782,13.0828223 38.224277,12.5391337 38.0701648,12.0171104 L39.3230323,11.722102 C39.7077741,11.6297376 39.9797012,11.4967649 40.1388134,11.3231836 C40.2979257,11.1496024 40.3776708,10.9127198 40.3780488,10.6125357 L40.3780488,8.65377515 L35.2186157,8.65377515 Z M30.5370864,25.2369529 C31.0204702,25.2544703 31.4876027,25.2743764 31.9384838,25.2966712 C32.389365,25.318966 32.809633,25.3536027 33.1992881,25.4005811 C33.5460562,25.4372518 33.8881304,25.5127235 34.2197231,25.6257191 C34.476932,25.7094982 34.7133274,25.8522613 34.9119183,26.0437473 C35.0823687,26.2169304 35.1675939,26.4480402 35.1675939,26.7370769 C35.1697702,26.9931318 35.1131738,27.2459485 35.0026236,27.4740008 C34.8926434,27.6993379 34.6976269,27.8930243 34.4175742,28.05506 C34.1375214,28.2170957 33.7616612,28.3446938 33.2899934,28.4378544 C32.8175698,28.5302187 32.2128675,28.5764008 31.4758866,28.5764008 C30.7955966,28.5764008 30.2324676,28.5330055 29.7864997,28.4462149 C29.3405318,28.3594243 28.986214,28.2399877 28.7235465,28.0879051 C28.4589892,27.937813 28.274933,27.7586581 28.1713777,27.5504403 C28.0656823,27.3364826 28.011927,27.0982839 28.014911,26.8571107 C28.0114713,26.5094993 28.1188701,26.1707274 28.3199077,25.8950487 C28.5398888,25.5952818 28.8042358,25.3347638 29.1028082,25.1234881 C29.5767436,25.1832064 30.0548363,25.221028 30.5370864,25.2369529 Z M33.2151615,15.4789809 C32.8372226,15.9240814 32.2245836,16.1466316 31.3772446,16.1466316 C31.0108737,16.1559937 30.6459277,16.0952933 30.3001187,15.9674767 C30.0181633,15.8597681 29.7621194,15.6881112 29.5500989,15.4646485 C29.3507872,15.2490548 29.2007271,14.9884577 29.1113118,14.7026429 C29.0149414,14.3944573 28.9676273,14.0716021 28.9712854,13.7471499 C28.9712854,13.0189846 29.1602549,12.4468832 29.5381938,12.0308456 C29.9161327,11.6148081 30.5287717,11.4067893 31.3761107,11.4067893 C32.222316,11.4067893 32.834955,11.6148081 33.2140277,12.0308456 C33.5931004,12.4468832 33.7820699,13.0189846 33.7809361,13.7471499 C33.7816919,14.4546128 33.5931004,15.0318898 33.2151615,15.4789809 Z" id="Shape"/>
                    <path d="M20.8216429,7.85693303 L20.8216429,26.1473904 L16.2560976,26.1473904 L16.2560976,7.85693303 L20.8216429,7.85693303 Z M18.6158537,1.66898237 C19.919111,1.66898237 20.9756098,2.8538212 20.9756098,4.31539398 L20.9756098,4.76325747 L16.2560976,4.76325747 L16.2560976,4.31539398 C16.2560976,2.8538212 17.3125964,1.66898237 18.6158537,1.66898237 Z" id="Shape"/>
                    <path d="M11.8767832,12.0883324 C11.7750913,12.2807524 11.6334628,12.4444136 11.4632944,12.5661463 C11.2922101,12.6669214 11.0995139,12.7157482 10.9052797,12.7075403 C10.659327,12.7055995 10.4163773,12.6483394 10.191579,12.5393302 L9.42096084,12.1736563 C9.11681748,12.0318261 8.8052758,11.9097226 8.48796039,11.8079823 C8.10250722,11.6901211 7.70352788,11.6334702 7.30329535,11.6397723 C6.66492663,11.6397723 6.17554781,11.7724307 5.83515889,12.0377475 C5.49476997,12.3030642 5.3243895,12.6715823 5.3240175,13.1433017 C5.31680698,13.4662791 5.43909639,13.7765904 5.65882627,13.9928842 C5.92048945,14.2442435 6.21963011,14.444809 6.54327944,14.5858854 C6.95134594,14.7730182 7.36842643,14.9357802 7.79267418,15.0734507 C8.25768636,15.2266275 8.73367283,15.3976816 9.22063359,15.5866132 C9.70854193,15.7759043 10.1854153,15.9975493 10.648593,16.2503114 C11.1037763,16.4964833 11.5244789,16.8123159 11.8979877,17.1882651 C12.2704023,17.5725414 12.568491,18.0344718 12.7746287,18.5467438 C12.9978346,19.0773773 13.1094375,19.7142594 13.1094375,20.4573902 C13.1177554,21.32018 12.9631293,22.1755792 12.6552136,22.9701797 C12.3519618,23.7376141 11.8878741,24.4165035 11.3003541,24.9521325 C10.7003024,25.5051127 9.95944495,25.9355922 9.07778185,26.243571 C8.19611875,26.5515497 7.18202018,26.7049296 6.03548614,26.7037107 C5.45843215,26.7033827 4.88266649,26.6442118 4.31568508,26.5269683 C3.75158748,26.4115977 3.19584929,26.2519116 2.65280151,26.0491543 C2.13921667,25.8592196 1.64226637,25.6193515 1.1679246,25.3324334 C0.749611467,25.083331 0.357905242,24.7842886 0,24.4407984 L1.1679246,22.4216687 C1.29675238,22.1987453 1.46804319,22.0087535 1.67013776,21.8646254 C1.86469886,21.7289197 2.11896752,21.6610669 2.43294375,21.6610669 C2.70758805,21.6562861 2.97867518,21.7293606 3.21974436,21.8731578 L3.97418013,22.3332975 C4.27825039,22.5149399 4.59553719,22.6688429 4.92280498,22.7934372 C5.28514248,22.9348312 5.74215645,23.0055281 6.29384691,23.0055281 C6.62794343,23.0132674 6.96132423,22.9685228 7.28376484,22.8726666 C7.52128157,22.8021317 7.74244779,22.6775118 7.93273585,22.5069927 C8.2315778,22.2363167 8.40409498,21.8339941 8.40314217,21.4099708 C8.41283858,21.0697076 8.28874158,20.7411797 8.06219524,20.5073656 C7.80020516,20.2477461 7.49784482,20.0413497 7.16937185,19.897909 C6.7596153,19.7107887 6.33976227,19.5512194 5.91216491,19.4200951 C5.44157258,19.2726066 4.96298204,19.1045997 4.47639329,18.9160745 C3.98423679,18.7246974 3.50454341,18.4970498 3.04062167,18.234702 C2.57528221,17.9733368 2.15092258,17.6328752 1.78341473,17.2260514 C1.40084708,16.7948061 1.09774057,16.2872664 0.890591334,15.7310544 C0.666269457,15.1427256 0.554108518,14.4298646 0.554108518,13.5924712 C0.551160496,12.8290615 0.691901798,12.0731361 0.967597352,11.3716114 C1.24897018,10.6613347 1.67312991,10.0293487 2.20862187,9.52252015 C2.76031232,8.99188662 3.45262246,8.57014267 4.28555229,8.25728829 C5.11848211,7.94443391 6.09203162,7.78820987 7.20620081,7.78861618 C7.79682607,7.78701107 8.38627617,7.84618669 8.96673694,7.96535859 C9.51229333,8.07639588 10.0472864,8.24226399 10.5648908,8.46084679 C11.0409164,8.66133888 11.4974079,8.91328023 11.9275625,9.21291621 C12.319645,9.48535798 12.6840385,9.80264358 13.014575,10.1594023 L11.8767832,12.0883324 Z" id="Shape"/>
                </g>
            </g>
        </g>
    </g>
</svg>