<?xml version="1.0" encoding="utf-8"?>
<!-- Generator: Adobe Illustrator 19.2.1, SVG Export Plug-In . SVG Version: 6.00 Build 0)  -->
<svg version="1.1" id="layer" xmlns="http://www.w3.org/2000/svg" xmlns:xlink="http://www.w3.org/1999/xlink" x="0px" y="0px"
	 viewBox="0 0 652 652" style="enable-background:new 0 0 652 652;" xml:space="preserve">
<style type="text/css">
	.st0{fill:#47484D;}
	.st1{fill:#92979F;}
	.st2{fill:#4BB74F;}
</style>
<path class="st0" d="M411.9,322.4h-9.6v-16.3h9.8c4.1,0,7,0.5,8.6,1.6c1.6,1.1,2.4,3.2,2.4,6.1c0,3-0.8,5.1-2.4,6.5
	C419.2,321.7,416.2,322.4,411.9,322.4 M421.1,328.1c6.6-2,9.8-6.7,9.8-14.2c0-5.2-1.5-8.9-4.5-11.3c-3-2.3-8-3.5-14.9-3.5h-17v45.6
	h7.7v-15.3h10.1l10.9,15.3h9.8L421.1,328.1z"/>
<path class="st0" d="M180.9,305.1c-2.2,0-4.1,0.5-5.5,1.4c-1.4,0.9-2.2,2.3-2.2,4.1c0,1.8,0.7,3.3,2.2,4.2c1.4,1,4.5,2,9.2,3.2
	c4.7,1.1,8.2,2.7,10.6,4.8c2.4,2,3.6,5,3.6,9c0,4-1.5,7.2-4.5,9.7c-3,2.5-6.9,3.7-11.8,3.7c-7.1,0-13.4-2.4-19-7.4l4.8-5.8
	c4.6,4,9.4,6,14.3,6c2.5,0,4.4-0.5,5.9-1.6c1.5-1,2.2-2.5,2.2-4.2c0-1.8-0.7-3.1-2.1-4.1c-1.4-1-3.7-1.9-7.1-2.7
	c-3.3-0.8-5.9-1.5-7.6-2.2c-1.7-0.7-3.3-1.6-4.6-2.6c-2.7-2.1-4-5.2-4-9.4c0-4.2,1.5-7.5,4.6-9.7c3.1-2.3,6.9-3.4,11.4-3.4
	c2.9,0,5.8,0.5,8.7,1.5c2.9,1,5.3,2.3,7.4,4l-4.1,5.8c-1.3-1.2-3.2-2.2-5.5-3C185.5,305.5,183.2,305.1,180.9,305.1"/>
<rect x="217.9" y="299.1" class="st0" width="7.7" height="45.6"/>
<polygon class="st0" points="247.4,344.7 247.4,299.1 255.1,299.1 255.1,337.4 275.9,337.4 272.7,344.7 "/>
<polygon class="st0" points="308.8,344.7 300.2,344.7 281.9,299.1 290.5,299.1 304.5,333.2 318.5,299.1 327.2,299.1 "/>
<polygon class="st0" points="373.9,299.1 373.9,306.4 349.5,306.4 349.5,318.4 371.4,318.4 371.4,325.3 349.5,325.3 349.5,337.5 
	374.7,337.5 374.7,344.7 341.8,344.7 341.8,299.1 "/>
<polygon class="st1" points="592.1,344.7 592.1,299.1 599.8,299.1 599.8,337.4 620.6,337.4 617.4,344.7 "/>
<path class="st1" d="M532.7,327.2h-16.6l8.3-18.8L532.7,327.2z M548.6,344.7l-20.1-45.6h-8.2l-20.1,45.6h8.2l4.6-10.4h22.8l4.6,10.4
	H548.6z"/>
<rect x="564.1" y="299.1" class="st1" width="7.7" height="45.6"/>
<path class="st1" d="M468.2,322.4h-9.6v-16.3h9.8c4.1,0,7,0.5,8.6,1.6c1.6,1.1,2.4,3.2,2.4,6.1c0,3-0.8,5.1-2.4,6.5
	C475.5,321.7,472.5,322.4,468.2,322.4 M477.4,328.1c6.6-2,9.8-6.7,9.8-14.2c0-5.2-1.5-8.9-4.5-11.3c-3-2.3-8-3.5-14.9-3.5h-17v45.6
	h7.7v-15.3h10.1l10.9,15.3h9.8L477.4,328.1z"/>
<path class="st2" d="M49.6,304l-10.5,22.7L71,346.3H36.3l0,0c-5,0.1-6.9,2.8-9.1,7.9l0,0l0,0l-6.5,15h78.4h2.1l0.5,0
	c2.4-0.1,5.8-1.6,6.8-3.8h0l8.9-20L49.6,304z"/>
<path class="st1" d="M120.3,339.3l10.5-22.7l-31.9-19.7h34.7l0,0c5-0.1,6.9-2.8,9.1-7.9l0,0l0,0l6.5-15H70.9h-2.1l-0.5,0
	c-2.4,0.1-5.8,1.6-6.8,3.8h0l-8.9,20L120.3,339.3z"/>
</svg>
