<?xml version="1.0" encoding="utf-8"?>
<!-- Generator: Adobe Illustrator 19.2.1, SVG Export Plug-In . SVG Version: 6.00 Build 0)  -->
<svg version="1.1" id="layer" xmlns="http://www.w3.org/2000/svg" xmlns:xlink="http://www.w3.org/1999/xlink" x="0px" y="0px"
	 viewBox="0 0 652 652" style="enable-background:new 0 0 652 652;" xml:space="preserve">
<style type="text/css">
	.st0{clip-path:url(#SVGID_2_);fill:url(#SVGID_3_);}
	.st1{clip-path:url(#SVGID_5_);fill:url(#SVGID_6_);}
	.st2{clip-path:url(#SVGID_8_);fill:url(#SVGID_9_);}
	.st3{clip-path:url(#SVGID_11_);fill:url(#SVGID_12_);}
</style>
<g>
	<defs>
		<path id="SVGID_1_" d="M215.1,228.7c-4.8,0-8.7,3.9-8.7,8.7v176.3h49.9c4.7-0.1,8.5-4,8.5-8.7V228.7H215.1z"/>
	</defs>
	<clipPath id="SVGID_2_">
		<use xlink:href="#SVGID_1_"  style="overflow:visible;"/>
	</clipPath>
	
		<linearGradient id="SVGID_3_" gradientUnits="userSpaceOnUse" x1="-56.6337" y1="1631.7682" x2="-52.4834" y2="1631.7682" gradientTransform="matrix(0 58.5693 -58.5693 0 95807.1172 3542.4561)">
		<stop  offset="0" style="stop-color:#1EAEE5"/>
		<stop  offset="0.1503" style="stop-color:#1EAEE5"/>
		<stop  offset="0.3505" style="stop-color:#159DD9"/>
		<stop  offset="0.7677" style="stop-color:#067DC2"/>
		<stop  offset="0.9996" style="stop-color:#0071BA"/>
		<stop  offset="1" style="stop-color:#0071BA"/>
	</linearGradient>
	<rect x="206.4" y="228.7" class="st0" width="58.3" height="185"/>
</g>
<g>
	<defs>
		<path id="SVGID_4_" d="M284.1,228.7c-4.8,0-8.7,3.9-8.7,8.7v44.5h59.4l0.2,0.2v131.6h49.6c4.7-0.1,8.5-4,8.5-8.7v-123h59.8
			l20.1-53.2H284.1z"/>
	</defs>
	<clipPath id="SVGID_5_">
		<use xlink:href="#SVGID_4_"  style="overflow:visible;"/>
	</clipPath>
	
		<linearGradient id="SVGID_6_" gradientUnits="userSpaceOnUse" x1="-56.7031" y1="1629.9849" x2="-52.5528" y2="1629.9849" gradientTransform="matrix(0 58.3829 -58.3829 0 95537.375 3536.1709)">
		<stop  offset="0" style="stop-color:#1EAEE5"/>
		<stop  offset="0.1503" style="stop-color:#1EAEE5"/>
		<stop  offset="0.3506" style="stop-color:#159DD9"/>
		<stop  offset="0.768" style="stop-color:#067DC2"/>
		<stop  offset="1" style="stop-color:#0071BA"/>
		<stop  offset="1" style="stop-color:#0071BA"/>
	</linearGradient>
	<rect x="275.4" y="228.7" class="st1" width="197.5" height="185"/>
</g>
<g>
	<defs>
		<path id="SVGID_7_" d="M26.2,286.6v0.5c0,40.7,39.3,52.1,79.5,60.3c20.7,4.1,27,7.3,27,13.3v0.5c0,6-5.8,9-17.2,9
			c-24.4,0-52.1-9.1-71-23.2L21,391.6c21.6,17.2,55.8,27.4,91.6,27.4c51.3,0,83.1-24.4,83.1-63.6v-0.5c0-38-32.2-51.7-80.6-60.6
			c-19.4-3.7-26-7-26-13.1v-0.5c0-2.6,1.4-8.7,14.7-8.7c15.9,0,39.6,3.8,63,21.8l24-44.9c-22.3-17.4-49.2-25.5-84.8-25.5
			C57.5,223.3,26.2,248.2,26.2,286.6"/>
	</defs>
	<clipPath id="SVGID_8_">
		<use xlink:href="#SVGID_7_"  style="overflow:visible;"/>
	</clipPath>
	
		<linearGradient id="SVGID_9_" gradientUnits="userSpaceOnUse" x1="-63.996" y1="1635.8622" x2="-59.8457" y2="1635.8622" gradientTransform="matrix(0 44.046 -44.046 0 72161.5625 3050.0718)">
		<stop  offset="0" style="stop-color:#1EAEE5"/>
		<stop  offset="0.1503" style="stop-color:#1EAEE5"/>
		<stop  offset="0.3505" style="stop-color:#159DD9"/>
		<stop  offset="0.7677" style="stop-color:#067DC2"/>
		<stop  offset="0.9996" style="stop-color:#0071BA"/>
		<stop  offset="1" style="stop-color:#0071BA"/>
	</linearGradient>
	<rect x="21" y="223.3" class="st2" width="174.8" height="195.6"/>
</g>
<g>
	<defs>
		<path id="SVGID_10_" d="M492.2,228.7c-4.9,0-9,3-10.7,7.3l-67.1,177.7h63.7l39.7-105.1l12.6,33.5h-13.9l-18.3,48.4h50.5l8.8,23.2
			H621L553.9,236c-1.7-4.3-5.8-7.3-10.7-7.3H492.2z"/>
	</defs>
	<clipPath id="SVGID_11_">
		<use xlink:href="#SVGID_10_"  style="overflow:visible;"/>
	</clipPath>
	
		<linearGradient id="SVGID_12_" gradientUnits="userSpaceOnUse" x1="-63.6851" y1="1628.7747" x2="-59.5348" y2="1628.7747" gradientTransform="matrix(0 44.575 -44.575 0 73120.3438 3067.4199)">
		<stop  offset="0" style="stop-color:#1EAEE5"/>
		<stop  offset="0.1503" style="stop-color:#1EAEE5"/>
		<stop  offset="0.3505" style="stop-color:#159DD9"/>
		<stop  offset="0.7677" style="stop-color:#067DC2"/>
		<stop  offset="0.9996" style="stop-color:#0071BA"/>
		<stop  offset="1" style="stop-color:#0071BA"/>
	</linearGradient>
	<rect x="414.4" y="228.7" class="st3" width="206.6" height="185"/>
</g>
</svg>
