<?xml version="1.0" encoding="UTF-8"?>
<svg xmlns="http://www.w3.org/2000/svg" width="1920px" height="516px" viewBox="0 0 119 32" fill="none">
  <g clip-path="url(#clip0_2089_688)">
    <path fill-rule="evenodd" clip-rule="evenodd" d="M59.229 20.5096C58.7486 20.0271 58.2121 19.6039 57.631 19.249C56.9605 18.8395 56.2604 18.4806 55.5364 18.1755C54.7345 17.8167 54.0712 17.4463 53.5456 17.0604C53.0201 16.6754 52.7582 16.207 52.7582 15.6553C52.7582 15.0773 52.9435 14.608 53.3168 14.2511C53.6911 13.8924 54.2768 13.7139 55.0797 13.7139C55.9932 13.7139 56.8222 14.0582 57.5679 14.7457C57.8453 15.0221 58.1149 15.1248 58.3767 15.056C58.6404 14.9891 58.8955 14.8301 59.1447 14.5808L59.8913 13.7954C60.1405 13.5481 60.2579 13.2659 60.2443 12.9488C60.2266 12.6222 60.1026 12.3103 59.8913 12.0606C59.5035 11.6475 58.8819 11.2354 58.0247 10.8213C57.1675 10.4082 56.1861 10.2007 55.0797 10.2007C54.1682 10.2007 53.3439 10.3471 52.6118 10.6351C51.8797 10.9251 51.2562 11.3168 50.7461 11.8124C50.2371 12.3039 49.8345 12.8947 49.5631 13.5481C49.2855 14.2157 49.1447 14.9323 49.149 15.6553C49.149 16.3981 49.2596 17.0458 49.4816 17.5976C49.7027 18.1493 50.013 18.6507 50.4135 19.1054C50.814 19.5602 51.3056 19.9791 51.8865 20.3661C52.4683 20.752 53.1316 21.1224 53.8773 21.4812C55.039 22.0591 55.8332 22.5421 56.2627 22.9261C56.6904 23.313 56.9056 23.7678 56.9056 24.2894C56.9056 24.8422 56.6564 25.2815 56.159 25.6121C55.6605 25.9438 55.039 26.1067 54.2923 26.1067C53.6833 26.1067 53.1645 26.0048 52.7369 25.7983C52.3454 25.6146 51.9767 25.3858 51.6382 25.1166C50.974 24.5377 50.4077 24.5251 49.9374 25.0759L49.1907 25.9835C49.0723 26.0938 48.9793 26.2286 48.9182 26.3785C48.857 26.5283 48.8293 26.6897 48.8368 26.8514C48.8504 27.1821 48.9696 27.472 49.1907 27.7193C49.6872 28.2982 50.3515 28.7588 51.1815 29.104C52.0106 29.4482 53.0608 29.6199 54.333 29.6199C55.1078 29.6199 55.8748 29.5016 56.6361 29.2688C57.3761 29.0457 58.0658 28.6808 58.6666 28.1944C59.2645 27.7103 59.7524 27.1044 60.0979 26.417C60.4576 25.7149 60.638 24.9101 60.638 24.0014C60.638 23.2577 60.5129 22.6031 60.2647 22.0378C60.0138 21.4705 59.663 20.9529 59.229 20.5096ZM69.1393 28.8771C69.3614 28.657 69.4719 28.3534 69.4719 27.9675V26.9348C69.4719 26.5498 69.3614 26.2463 69.1403 26.0262C68.9192 25.8061 68.6147 25.6945 68.2278 25.6945H67.8128C67.3435 25.6945 66.9827 25.5646 66.7345 25.3028C66.4862 25.041 66.3612 24.6899 66.3612 24.2478V2.35103C66.3612 1.96606 66.2496 1.66254 66.0295 1.44242C65.8075 1.2223 65.503 1.11272 65.118 1.11272H63.8719C63.485 1.11272 63.1805 1.2223 62.9604 1.44242C62.7384 1.66351 62.6288 1.96606 62.6288 2.35103V23.8347C62.6288 25.487 63.0235 26.7951 63.8099 27.76C64.5982 28.7248 65.8763 29.2058 67.647 29.2058H68.2278C68.6147 29.2058 68.9192 29.0953 69.1393 28.8761V28.8771ZM73.0501 2.75927C72.6477 2.75927 72.3326 2.87854 72.1018 3.11321C71.8719 3.34787 71.7575 3.67175 71.7575 4.0829V6.28703C71.7575 6.69818 71.8719 7.02012 72.1018 7.25575C72.3316 7.49139 72.6477 7.60775 73.0501 7.60775H74.3427C74.7452 7.60775 75.0603 7.49139 75.2921 7.25575C75.5209 7.02012 75.6363 6.69818 75.6363 6.28606V4.08484C75.6363 3.67272 75.5199 3.34884 75.2921 3.11515C75.0613 2.87951 74.7452 2.76024 74.3418 2.76024H73.0501V2.75927ZM75.6363 27.7134V11.7455C75.6363 11.3644 75.5199 11.0628 75.2921 10.8436C75.0622 10.6264 74.7452 10.5168 74.3437 10.5168H73.0501C72.6477 10.5168 72.3326 10.6264 72.1018 10.8436C71.8719 11.0628 71.7575 11.3644 71.7575 11.7455V27.7134C71.7575 28.0945 71.8719 28.3961 72.1018 28.6143C72.3316 28.8315 72.6477 28.9411 73.0501 28.9411H74.3437C74.7452 28.9411 75.0613 28.8315 75.2921 28.6143C75.5209 28.3961 75.6363 28.0945 75.6363 27.7134ZM81.1316 10.5168H79.837C79.4346 10.5168 79.1185 10.6264 78.8887 10.8436C78.6588 11.0628 78.5454 11.3644 78.5454 11.7455V27.7134C78.5454 28.0945 78.6588 28.3961 78.8887 28.6133C79.1185 28.8315 79.4346 28.9411 79.837 28.9411H81.1316C81.5321 28.9411 81.8501 28.8315 82.0799 28.6133C82.3088 28.3961 82.4242 28.0945 82.4242 27.7134V11.7455C82.4242 11.3644 82.3088 11.0628 82.0799 10.8436C81.8501 10.6264 81.5321 10.5168 81.1316 10.5168ZM81.1316 2.75927H79.837C79.4346 2.75927 79.1185 2.87854 78.8887 3.11321C78.6588 3.34787 78.5454 3.67175 78.5454 4.0829V6.28703C78.5454 6.69818 78.6588 7.02012 78.8887 7.25575C79.1185 7.49139 79.4346 7.60775 79.837 7.60775H81.1316C81.5321 7.60775 81.8501 7.49139 82.0799 7.25575C82.3088 7.02012 82.4242 6.69818 82.4242 6.28606V4.08484C82.4242 3.67272 82.3088 3.34884 82.0799 3.11515C81.8501 2.87951 81.5321 2.76024 81.1316 2.76024V2.75927ZM89.1064 21.9098V17.3629C89.1064 16.3147 89.4361 15.4671 90.0916 14.8184C90.7481 14.1716 91.6092 13.8458 92.671 13.8458H96.6535C96.9328 13.8458 97.0734 13.9855 97.0734 14.2599V25.0138C97.0734 25.2882 96.9328 25.425 96.6535 25.425H92.671C91.6916 25.425 90.8528 25.103 90.1546 24.4553C89.4564 23.8065 89.1073 22.959 89.1073 21.9098H89.1064ZM99.5898 28.9411C99.9805 28.9411 100.288 28.8305 100.512 28.6114C100.735 28.3903 100.848 28.0868 100.848 27.7018V2.06012C100.848 1.67515 100.735 1.37163 100.512 1.15151C100.287 0.931389 99.9805 0.819874 99.5898 0.819874H98.3321C97.9393 0.819874 97.6339 0.931389 97.4099 1.15151C97.1849 1.37163 97.0734 1.67515 97.0734 2.06012V9.91854C97.0734 10.1939 96.9328 10.3326 96.6535 10.3326H92.5032C91.4685 10.3326 90.5124 10.511 89.631 10.8688C88.7868 11.2041 88.0173 11.7031 87.3667 12.337C86.7264 12.9748 86.2203 13.7345 85.8782 14.5711C85.5113 15.4561 85.326 16.4059 85.3333 17.3639V21.9098C85.3333 22.9028 85.5078 23.8347 85.8579 24.7025C86.1888 25.5445 86.6959 26.306 87.3454 26.9358C87.9883 27.5564 88.7641 28.0451 89.6727 28.4048C90.5822 28.7627 91.581 28.9411 92.671 28.9411H99.5898ZM114.37 18.0271C114.37 18.3025 114.224 18.4402 113.934 18.4402H107.156C106.865 18.4402 106.721 18.3025 106.721 18.0271V17.8206C106.721 16.7753 106.997 15.8812 107.551 15.1384C108.104 14.3956 109.067 14.0242 110.436 14.0242C111.835 14.0242 112.841 14.3956 113.452 15.1394C114.063 15.8822 114.37 16.7753 114.37 17.8206V18.0271ZM117.756 14.993C117.402 14.114 116.866 13.3196 116.183 12.6618C115.499 12.0024 114.676 11.4788 113.714 11.0938C112.752 10.7108 111.659 10.5168 110.436 10.5168C109.212 10.5168 108.126 10.7108 107.181 11.0938C106.232 11.4798 105.431 12.0014 104.776 12.6618C104.119 13.3235 103.613 14.1185 103.29 14.993C102.953 15.8973 102.783 16.8554 102.788 17.8206V22.6904C102.788 23.6795 102.976 24.6153 103.354 25.4958C103.729 26.3695 104.28 27.1566 104.973 27.8075C105.671 28.4669 106.51 28.9828 107.486 29.3551C108.462 29.7265 109.561 29.9108 110.786 29.9108C112.359 29.9108 113.714 29.6238 114.85 29.0439C115.986 28.4669 116.846 27.8356 117.427 27.1471C117.661 26.8727 117.784 26.5828 117.801 26.2802C117.814 25.9767 117.689 25.7023 117.427 25.455L116.599 24.753C116.335 24.5067 116.046 24.3748 115.725 24.3622C115.403 24.3486 115.084 24.4931 114.764 24.7947C114.442 25.1244 113.976 25.4764 113.364 25.8478C112.753 26.2191 111.891 26.4034 110.785 26.4034C109.387 26.4034 108.361 26.0475 107.704 25.3319C107.049 24.6153 106.721 23.7358 106.721 22.6904V21.9476C106.721 21.6722 106.866 21.5345 107.156 21.5345H116.991C117.398 21.5345 117.721 21.424 117.952 21.2039C118.185 20.9838 118.303 20.6831 118.303 20.2962V17.8206C118.303 16.8305 118.121 15.889 117.756 14.993ZM44.4218 16.7791C44.3267 16.5532 43.9912 16.0228 42.9808 16.0587C41.7163 16.1052 40.1221 16.3981 40.0542 16.4107C39.9644 16.4262 39.8808 16.467 39.8134 16.5283C39.7459 16.5896 39.6972 16.6689 39.6732 16.7568C39.6557 16.8247 39.2533 18.4267 40.8659 19.6737C40.9696 19.7536 41.1006 19.7894 41.2305 19.7736C41.9936 19.6824 43.4404 18.799 44.0067 18.2715C44.4528 17.8565 44.6186 17.2572 44.4208 16.7782" fill="#00A3E0"></path>
    <path fill-rule="evenodd" clip-rule="evenodd" d="M40.767 20.1828C40.6535 20.1222 40.5209 20.1081 40.3971 20.1434C40.2734 20.1786 40.1682 20.2606 40.1037 20.3719C39.4637 21.5084 37.8269 22.5886 35.8322 23.1888C34.1158 23.7076 33.1364 24.3932 30.3243 27.0531C27.3037 29.9069 23.3696 31.216 18.9352 30.8398C14.0024 30.4199 7.134 26.705 3.70903 19.537C3.68382 19.4865 1.70855 15.3886 2.16043 12.177C4.02612 14.8339 7.71679 18.4276 10.0247 19.7299C12.8523 21.327 14.6181 22.0398 15.7488 22.0398C16.2724 22.0398 16.6739 21.8836 16.9415 21.5753C17.2538 21.2145 17.3439 20.6987 17.2179 19.9995C17.181 19.7939 17.1413 19.5913 17.1015 19.3886C16.8319 18 16.5973 16.8005 17.3614 15.8822C17.5718 15.6301 17.9568 15.5767 18.2428 15.5767C19.3328 15.5767 21.0685 16.3467 22.0858 17.6335C23.7721 19.7687 23.7362 20.9673 23.6838 22.7816L23.6799 22.9202C23.6664 23.3721 23.5995 23.8366 23.5345 24.2856C23.3987 25.2019 23.3027 25.8623 23.6683 26.2696C23.7798 26.3956 23.9835 26.544 24.318 26.544C24.6283 26.544 25.0094 26.4102 25.5136 26.1222C26.8586 25.3532 28.2656 23.1888 29.6252 21.0972C30.5134 19.7299 31.3532 18.4402 32.0048 17.8293C34.0402 15.919 36.4412 15.279 39.0477 15.9675C39.0942 15.9801 39.135 15.9859 39.1873 15.985C39.455 15.983 39.6722 15.7716 39.6722 15.5108C39.671 15.4094 39.6375 15.311 39.5764 15.2301C39.5153 15.1491 39.43 15.0898 39.3328 15.0608C37.791 14.4015 35.8816 14.0388 33.951 14.0388C32.4489 14.0388 31.0012 14.2482 29.6475 14.6613C28.0698 15.1433 26.8334 15.4419 25.5456 15.4419C25.4293 15.4419 25.3148 15.44 25.2004 15.4342C26.686 12.1896 26.6685 9.77406 25.1752 7.22569C23.9466 5.13115 21.7561 3.8783 20.3461 3.8783C20.0727 3.8783 19.8312 3.92485 19.6266 4.01891C18.366 4.58909 18.59 6.44121 18.7878 8.07515C18.8538 8.62691 18.9168 9.1486 18.9216 9.57818C18.9381 11.0938 18.0324 11.9539 17.5573 12.2991C16.3965 11.2907 11.8128 7.65527 3.68479 5.32897L0.647698 4.44654C0.579642 4.42662 0.508123 4.42141 0.437899 4.43128C0.367675 4.44114 0.300358 4.46585 0.240426 4.50375C0.181794 4.54075 0.131968 4.59013 0.0944441 4.64842C0.0569205 4.70672 0.0326083 4.77252 0.0232135 4.84121C-0.0747259 5.59563 0.0940013 8.52412 1.42927 11.0085C0.275335 14.6497 2.70733 19.6989 2.82564 19.9394C6.40964 27.4448 13.6445 31.3401 18.8508 31.7833C19.3793 31.8279 19.901 31.8511 20.4169 31.8511C24.5003 31.8511 28.1376 30.4422 31.006 27.7299C33.8317 25.0594 34.6773 24.529 36.1221 24.0936C37.8676 23.567 40.0552 22.4325 40.9609 20.8257C40.9915 20.771 41.0108 20.7107 41.0176 20.6484C41.0245 20.5861 41.0186 20.523 41.0005 20.463C40.9824 20.403 40.9524 20.3473 40.9123 20.2991C40.8722 20.251 40.8227 20.2114 40.767 20.1828Z" fill="#00A3E0"></path>
    <path fill-rule="evenodd" clip-rule="evenodd" d="M35.8787 17.7896C35.8787 18.1755 36.032 18.5456 36.3049 18.8184C36.5778 19.0913 36.9479 19.2446 37.3338 19.2446C37.7197 19.2446 38.0897 19.0913 38.3626 18.8184C38.6355 18.5456 38.7888 18.1755 38.7888 17.7896C38.7888 17.4037 38.6355 17.0336 38.3626 16.7607C38.0897 16.4878 37.7197 16.3345 37.3338 16.3345C36.9479 16.3345 36.5778 16.4878 36.3049 16.7607C36.032 17.0336 35.8787 17.4037 35.8787 17.7896Z" fill="#00A3E0"></path>
  </g>
  <defs>
    <clipPath id="clip0_2089_688">
      <rect width="118.303" height="32" fill="white" transform="translate(-6.10352e-05 -0.000488281)"></rect>
    </clipPath>
  </defs>
</svg>
