<svg width="651" height="189" viewBox="0 0 651 189" fill="none" xmlns="http://www.w3.org/2000/svg">
<path d="M108.863 146.778C108.863 172.936 88.5418 188.922 55.8829 188.922C42.0936 189.648 27.5786 185.289 15.9666 177.296C5.80602 168.576 0 156.95 0 143.871V141.691H23.9498V143.144C25.4013 159.857 37.0134 167.85 55.1572 167.85C74.0267 167.85 84.1873 162.037 84.1873 148.231C84.1873 137.331 75.4783 133.698 52.2542 130.065C15.2408 123.526 2.90301 117.713 2.90301 92.2809C2.90301 79.9284 9.43478 69.0291 18.8696 61.7628C29.0301 55.2232 39.9164 52.3168 51.5284 52.3168C72.5752 52.3168 98.7023 59.583 103.057 92.2809V94.4608H79.107V93.0076C76.204 79.2018 66.7692 72.6622 51.5284 72.6622C37.7391 72.6622 26.1271 79.9284 26.1271 90.8277C26.1271 101 32.6589 103.907 58.0602 108.267C84.913 113.353 108.863 116.986 108.863 146.778ZM185.793 52.3168C170.552 51.5901 156.763 58.1297 146.602 69.7557V54.4966H122.652V186.015H146.602V106.813C145.876 89.3745 158.94 74.842 176.358 74.1154C177.809 74.1154 178.535 74.1154 179.987 74.1154C199.582 74.1154 208.291 83.5615 208.291 104.634V186.015H232.241V106.087C232.241 61.7628 206.839 52.3168 185.793 52.3168ZM359.247 71.2089C371.585 84.2881 378.117 101.727 378.117 119.166V121.346C378.843 139.511 371.585 156.95 359.247 170.029C346.91 182.382 329.492 188.922 312.074 188.922C276.512 189.648 247.482 162.037 246.756 126.432C246.756 124.979 246.756 123.526 246.756 122.072V119.893C245.304 84.2881 272.883 54.4966 307.719 53.0434C309.171 53.0434 310.622 53.0434 312.074 53.0434C329.492 52.3168 346.91 58.8563 359.247 71.2089ZM271.431 121.346C271.431 149.684 287.398 167.85 312.074 167.85C322.96 168.576 333.846 163.49 341.829 155.497C349.813 146.051 353.441 133.698 352.716 121.346V119.166C352.716 90.8277 337.475 73.3888 312.074 73.3888C287.398 73.3888 271.431 91.5543 271.431 119.166V121.346ZM502.221 71.2089C514.559 84.2881 521.09 101.727 521.09 119.166V121.346C521.816 139.511 514.559 156.95 502.221 170.029C489.883 182.382 472.465 188.922 455.047 188.922C419.485 189.648 390.455 162.037 389.729 126.432C389.729 124.979 389.729 123.526 389.729 122.072V119.893C388.278 84.2881 415.856 54.4966 450.692 53.0434C452.144 53.0434 453.595 53.0434 455.047 53.0434C472.465 52.3168 489.883 58.8563 502.221 71.2089ZM415.13 121.346C415.13 149.684 430.371 167.123 455.773 167.123C480.448 167.123 496.415 148.957 496.415 121.346V119.893C496.415 91.5543 480.448 73.3888 455.773 73.3888C444.886 72.6622 434 77.7485 426.017 85.7413C418.033 95.1874 414.405 107.54 415.13 119.893V121.346ZM588.585 109.72L645.194 55.2232L646.645 54.4966H617.615L558.104 110.446V0H534.154V186.015H558.104V138.785L572.619 124.979L621.244 186.015H651L588.585 109.72Z" fill="#F40033"/>
</svg>
