<svg xmlns="http://www.w3.org/2000/svg" xmlns:xlink="http://www.w3.org/1999/xlink" version="1.1" id="Layer_1" x="0px" y="0px" style="enable-background:new 0 0 314.27 150.9;" xml:space="preserve" viewBox="-31.31 -31.31 376.88 212.18"><style type="text/css">
	.st0{display:none;}
	.st1{display:inline;}
	.st2{fill:#FFED00;}
	.st3{display:inline;fill:#C6C6C6;}
</style><g id="Artwork"><g><path d="M200.74,87.21V0h-87.21v87.21H200.74z M172.78,3.23h24.72v24.76h-24.72V3.23z M172.78,31.25h24.72v24.75h-24.72V31.25z     M172.78,59.23h24.72v24.75h-24.72V59.23z M141.52,83.98h-24.76V59.23h24.76V83.98z M141.52,55.99h-24.76V31.25h24.76V55.99z     M141.52,27.99h-24.76V3.23h24.76V27.99z M144.78,3.23h24.72v24.76h-24.72V3.23z M144.78,31.25h24.72v24.75h-24.72V31.25z     M144.78,59.23h24.72v24.75h-24.72V59.23z"/><polygon points="179.45,132.17 162.59,132.17 162.59,118.43 158.98,118.43 158.98,149.65 162.59,149.65 162.59,135.69     179.45,135.69 179.45,149.65 183.06,149.65 183.06,118.43 179.45,118.43   "/><path d="M252.57,138.1c0,5.49-2.54,8.43-8.21,8.43c-5.66,0-8.21-2.94-8.21-8.43v-19.67h-3.61v19.67c0,8.25,4.64,12.04,11.82,12.04    c7.18,0,11.82-3.79,11.82-12.04v-19.67h-3.61V138.1z"/><path d="M277.16,132.35c-3.84-0.94-7.4-1.74-7.4-5.75c0-3.03,2.41-5,5.58-5c2.81,0,5.4,1.38,6.6,3.61l3.34-1.83    c-1.6-3.3-5.17-5.44-9.59-5.44c-5.8,0-9.59,3.43-9.59,8.97c0,6.29,4.95,7.54,9.37,8.65c3.84,0.94,7.36,1.74,7.36,5.71    c0,3.48-2.9,5.26-6.47,5.26c-3.97,0-7.98-2.23-7.98-6.47c0-0.27,0-1.03,0.09-1.7h-3.79c-0.09,0.62-0.09,1.43-0.09,1.83    c0,6.47,5.8,9.95,11.64,9.95c5.44,0,10.3-2.94,10.3-9.23C286.53,134.58,281.66,133.42,277.16,132.35z"/><polygon points="314.27,121.93 314.27,118.43 294.68,118.43 294.68,149.65 314.27,149.65 314.27,146.15 298.3,146.15     298.3,135.74 311.99,135.74 311.99,132.23 298.3,132.23 298.3,121.93   "/><path d="M44.85,117.97c-9.09,0-16.46,7.37-16.46,16.46c0,9.09,7.37,16.46,16.46,16.46c9.09,0,16.46-7.37,16.46-16.46    C61.32,125.34,53.95,117.97,44.85,117.97z M44.85,147c-6.93,0-12.57-5.64-12.57-12.57c0-6.93,5.64-12.57,12.57-12.57    c6.93,0,12.57,5.64,12.57,12.57C57.42,141.36,51.79,147,44.85,147z"/><path d="M12.62,132.51c-3.85-0.94-7.43-1.75-7.43-5.77c0-3.04,2.41-5.01,5.59-5.01c2.82,0,5.41,1.39,6.62,3.62l3.36-1.83    c-1.61-3.31-5.19-5.46-9.62-5.46c-5.82,0-9.62,3.45-9.62,8.99c0,6.31,4.97,7.56,9.4,8.68c3.85,0.94,7.38,1.75,7.38,5.73    c0,3.49-2.91,5.28-6.49,5.28c-3.98,0-8.01-2.24-8.01-6.49c0-0.27,0-1.03,0.09-1.7h-3.8C0,139.18,0,139.99,0,140.39    c0,6.49,5.82,9.98,11.68,9.98c5.46,0,10.34-2.95,10.34-9.26C22.02,134.75,17.14,133.59,12.62,132.51z"/><path d="M207.65,117.97c-9.09,0-16.46,7.37-16.46,16.46c0,9.09,7.37,16.46,16.46,16.46c9.09,0,16.46-7.37,16.46-16.46    C224.11,125.34,216.74,117.97,207.65,117.97z M207.65,147c-6.93,0-12.57-5.64-12.57-12.57c0-6.93,5.64-12.57,12.57-12.57    c6.93,0,12.57,5.64,12.57,12.57C220.22,141.36,214.58,147,207.65,147z"/><polygon points="89.81,132.17 72.95,132.17 72.95,118.43 69.34,118.43 69.34,149.65 72.95,149.65 72.95,135.69 89.81,135.69     89.81,149.65 93.42,149.65 93.42,118.43 89.81,118.43   "/><path d="M118,117.97c-9.09,0-16.46,7.37-16.46,16.46c0,9.09,7.37,16.46,16.46,16.46c9.09,0,16.46-7.37,16.46-16.46    C134.47,125.34,127.1,117.97,118,117.97z M118,147c-6.93,0-12.57-5.64-12.57-12.57c0-6.93,5.64-12.57,12.57-12.57    c6.93,0,12.57,5.64,12.57,12.57C130.58,141.36,124.94,147,118,147z"/></g></g><g id="Clearspace_and_alignment" class="st0"><g class="st1"><rect x="134.28" y="121.69" class="st2" width="24.7" height="24.7"/></g><path class="st3" d="M169.48,90.52v24.69h-24.69V90.52H169.48 M172.79,87.21h-31.31v31.31h31.31V87.21L172.79,87.21z"/><path class="st3" d="M169.48,152.87v24.69h-24.69v-24.69H169.48 M172.79,149.56h-31.31v31.31h31.31V149.56L172.79,149.56z"/><path class="st3" d="M169.48-28v24.69h-24.69V-28H169.48 M172.79-31.31h-31.31V0h31.31V-31.31L172.79-31.31z"/><path class="st3" d="M342.27,113.63v24.69h-24.69v-24.69H342.27 M345.57,110.32h-31.31v31.31h31.31V110.32L345.57,110.32z"/><path class="st3" d="M-3.31,113.63v24.69H-28v-24.69H-3.31 M0,110.32h-31.31v31.31H0V110.32L0,110.32z"/></g></svg>