<svg xmlns="http://www.w3.org/2000/svg" xmlns:xlink="http://www.w3.org/1999/xlink" version="1.1" id="layer" x="0px" y="0px" style="enable-background:new -153 -46 652 652;" xml:space="preserve" viewBox="-131.1 199.7 600.1 151.9">
<style type="text/css">
	.st0{fill:#FF2E2E;}
</style>
<title>TechOnSite-logo</title>
<path d="M-31.6,232.3c-1.7-2-3.9-3.9-6.7-5.7c-2.8-1.8-6-3.5-9.5-4.9c-3.5-1.5-7.3-2.7-11.5-3.6c-4.1-0.9-8.4-1.4-12.9-1.4  c-11.6,0-20.1,2.2-25.5,6.5c-5.4,4.3-8.1,10.3-8.1,17.9c0,4.1,0.8,7.4,2.3,10.1c1.5,2.7,4,4.9,7.2,6.8c3.3,1.9,7.4,3.5,12.3,4.9  c4.9,1.4,10.7,2.9,17.4,4.4c7.7,1.7,14.7,3.6,20.9,5.8c6.2,2.2,11.6,4.9,16,8.1c4.4,3.2,7.8,7.1,10.1,11.8c2.3,4.6,3.5,10.3,3.5,17  c0,7.1-1.4,13.3-4.2,18.6c-2.8,5.3-6.6,9.6-11.5,13c-4.8,3.4-10.5,6-17.1,7.6c-6.6,1.6-13.7,2.4-21.4,2.4c-11.5,0-22.4-1.8-32.7-5.4  c-10.3-3.6-19.7-8.8-28.1-15.7l9-16c2.2,2.4,5.1,4.8,8.7,7.1c3.6,2.4,7.6,4.5,12.2,6.4c4.5,1.9,9.5,3.4,14.7,4.6  c5.3,1.2,10.8,1.8,16.5,1.8c10.7,0,18.9-1.9,24.8-5.7c5.9-3.8,8.8-9.5,8.8-17c0-4.2-0.9-7.7-2.8-10.6c-1.9-2.9-4.7-5.4-8.3-7.5  c-3.6-2.1-8.2-4-13.6-5.6c-5.4-1.6-11.5-3.3-18.4-4.9c-7.6-1.8-14.2-3.8-20-5.9c-5.7-2.1-10.5-4.6-14.4-7.6s-6.8-6.5-8.7-10.7  c-2-4.2-2.9-9.2-2.9-15.1c0-7.1,1.3-13.4,4-18.9c2.7-5.5,6.4-10.1,11.1-13.9c4.8-3.8,10.4-6.6,17-8.5c6.6-1.9,13.7-2.8,21.4-2.8  c10.1,0,19.2,1.5,27.3,4.6c8.1,3.1,15.3,7.2,21.6,12.4L-31.6,232.3z M181.3,350.2v-45.6l25.9-26.9l54.2,72.5h20.6l-63.3-83.4  l59.9-65.8h-20.4l-76.9,82.6v-82.4h-18.9v149H181.3z M302.9,350.2h18.9V201h-18.9V350.2z M453,350.2h16v-149H450v116L357.6,201  h-14.7v149.2h18.9V236.3L453,350.2z"/>
<path class="st0" d="M74.4,262c0.2-0.1,0.3-0.2,0.5-0.2c2.4-1.1,5-1.8,7.6-1.8c2.6,0.1,5.3,1,7.2,2.8c3.1,2.9,3.7,7.7,3.3,11.9  c-0.6,6.8-3.5,13.4-2.6,20.3c0.2,1.8,0.7,3.6,1.9,4.9c1.3,1.5,3.2,2.3,5.2,2.6c2.5,0.3,5,0,7.4-0.4c2.3-0.3,4.6-1,6.9-0.5  c0.9,0.2,1.8,0.6,2.7,0.8c1.2,0.3,2.3,0.2,3.4-0.4c2.2-1.1,4.4-5,4.1-7.5c-0.3-2.5-2.9-2.5-4.5-1.3c-1.2,0.9-2.1,2.1-3.3,3  c-0.9,0.6-1.9,1-2.9,1.1c-3.2,0.1-5.7-3.1-7.2-5.6c-0.3-0.5-0.6-1-0.5-1.5c0.2-3.2,6.4-3.6,8.5-3.1c1.4,0.3,8.2,3.5,7.7-0.2  c-0.1-0.5-0.3-0.9-0.5-1.3c-1.7-2.7-4.2-4.8-6-7.4c-2.5-3.6-4.8-7.5-7-11.3c-0.5-0.9-0.8-2-0.3-2.9c0.4-0.6,1.1-1,1.8-0.9  c0.7,0.1,1.4,0.6,2.1,0.6c1.1-0.1,1.8-1.3,1.6-2.4c-0.2-1.5-1.6-3.2-2.6-4.4c-1.2-1.3-2.6-2.5-3.9-3.7c-2.6-2.3-5.2-4.7-8.2-6.4  c-4.1-2.4-8.6-4.2-13.2-5.4c-12.5-3.2-25.6-2-38.1,0.6c-0.8,0.2-1.7,0.4-2.5,0.6c-0.7,0.2-1.6,0.7-1.5,1.6c0.1,0.5,0.4,0.9,0.8,1.2  c0.3,0.3,0.7,0.6,1,1c0.2,0.2,1.1,1.6,0.4,1.7c-0.2,0-0.4-0.1-0.6-0.2c-2.3-1.7-4.6-3.3-7.1-4.6c-2.3-1.1-5.3-2.6-7.9-2.6  c-3.6-0.5-7.6-0.1-10.7,1.8c-1.8,1.1-3.3,2.7-4,4.7c-0.9,2.8-0.1,5.9,1.2,8.5c0.8,1.5,1.7,2.9,2.7,4.3c0.7,1,2.7,2.8,2.5,4.1  c-0.2,1.5-3.7,3-4.8,3.7c-5.2,3.5-10.5,7.3-16.1,10.2c-0.5,0.3-0.8,0.4-1,0.4c-0.2-0.1-0.3-0.4-0.3-1.1c-0.1-1-0.1-2-0.1-3  c0.1-2,0.3-4,0.6-5.9c1.4-8.3,3.6-16.3,7.4-23.9c15.6-31.1,51.5-46.9,84.7-37.2c35.2,10.2,57.3,44.7,51.8,80.9  c-2.8,18.8-11.8,34.3-26.6,46.3c-12,9.7-27.1,15.3-42.6,15.8c-4.8,0.2-9.5-0.2-14.2-1c-0.2,0-0.5-0.1-0.7-0.2  c-0.7-0.5-0.3-2.2-0.3-3c0-1.4,0-2.9,0-4.3c0.1-5.9,2.3-11.8,5.7-16.6c2.8-3.9,6.6-7.1,10.9-9.3c5-2.5,10.7-2.6,16.2-2.4  c5,0.1,11.2,1,15.7-1.8c0.5-0.3,1.3-1,0.7-1.7c-0.5-0.7-2.1-0.1-2.7,0.1c-5.9,1.8-11.2,0.2-16.4-2.6c-2.7-1.4-4.4-5.1-5.4-7.8  c-1.5-3.9-1.5-8.2-0.3-12.2c1.4-4.4,4.3-10,1.2-14.3c-1.1-1.5-2.8-2.4-4.6-2.8c-1.8-0.4-3.6-0.4-5.5-0.3c-0.9,0.1-1.8,0.1-2.7-0.1  c-0.9-0.2-1.7-0.8-2-1.7c-0.3-1,0.3-2.2,1-3C71.1,263.9,72.7,262.9,74.4,262 M47.6,309c0-0.2,0-0.4,0-0.6c-0.6-3.9-7-2.8-9.3-1.7  c-1.1,0.5-2,1.3-2.6,2.4c-0.5,1-0.6,2.4,0.1,3.4c0.5,0.8,1.4,1.3,2.4,1.5c1.5,0.3,3.1,0.1,4.6-0.4c1.2-0.4,2.5-0.9,3.4-1.8  C46.9,311.1,47.5,310.1,47.6,309 M35.6,269.6c1.5,0,3.1-0.4,4.1-1c0.8-0.5,1.3-1.3,1.5-2.2c0.1-0.9-0.1-1.9-0.8-2.5  c-2.2-2.2-9.1-1.5-10.1,1.7c-0.5,1.5,0.7,3.1,2.1,3.6C33.2,269.5,34.4,269.6,35.6,269.6 M5.1,294.1c2.7,0,5.6-2,5.8-4.7  c0.3-3.9-5.2-4.3-7.4-2.3c-0.7,0.6-1.2,1.4-1.6,2.3c-0.3,0.5-0.5,1.1-0.5,1.7c0,1.4,1.1,2.5,2.4,2.9C4.3,294,4.7,294.1,5.1,294.1   M26,302.7c2.6-0.1,5.9-1.6,4.2-4.6c-0.9-1.6-3.2-2-4.8-2.4c-1.7-0.4-3.6,0.2-4.2,2c-0.3,1.1,0,2.4,0.7,3.3c0.7,0.9,1.8,1.5,3,1.6  C25.3,302.7,25.6,302.7,26,302.7 M49.5,291.4c0.6,0,1.2-0.1,1.8-0.2c1.2-0.2,2.8-0.7,3.2-2c0.2-0.6,0-1.4-0.4-1.9  c-0.7-1.1-1.8-1.8-3-2.1c-1.5-0.5-3.5-0.6-5,0c-1,0.4-1.8,1.3-1.9,2.4c-0.2,2.1,2,3.5,3.8,3.8C48.5,291.4,49,291.4,49.5,291.4   M50.1,333.6c2.5-0.2,5.4-2.4,5.7-4.8c0.2-1.8-1-1.9-2.4-1.8c-2.5,0.2-7.9-0.3-6.7,4C47.1,333.1,48.5,333.8,50.1,333.6 M34.9,253.8  c0.5,0.1,1.1,0,1.8-0.5c1.2-0.9,1.2-2.5,0.1-3.6c-1.3-1.3-3.2-1.9-4.7-2.9c-1.3-0.9-2.7-1.9-4.3-2.3c-0.7-0.2-3.5-0.2-1.8,1  c2.1,1.6,4.7,2.8,6.1,5.2C32.8,251.9,33.7,253.6,34.9,253.8 M46.1,340.8c0,0.6,0.4,1.1,0.9,1.5c0.6,0.5,1.3,0.9,2.1,1.3  c0.8,0.3,2.4,0.8,2.8-0.4c0.2-0.5,0.1-1-0.2-1.4c-0.3-0.4-0.6-0.7-1-1C49.8,340.2,45.9,338,46.1,340.8  C46.1,340.8,46.1,340.8,46.1,340.8 M57.9,255.8c-0.9-2.2-7.1-1.2-5.7,1.3c0.3,0.5,0.9,0.7,1.5,0.8C54.6,258,58.7,257.6,57.9,255.8"/>
</svg>