<svg xmlns="http://www.w3.org/2000/svg" fill="none" viewBox="80 53 548 161.01">
<g clip-path="url(#clip0_153_4142)">
<path d="M627.641 85.5702L597.527 115.012L626.681 151.47C627.505 152.494 626.768 154.012 625.449 154.012H606.349C605.86 154.012 605.402 153.79 605.105 153.401L584.903 127.341L579.306 132.815C579.158 132.963 578.984 133.056 578.799 133.105V152.439C578.799 153.303 578.093 154.006 577.226 154.006H562.516C561.649 154.006 560.943 153.303 560.943 152.439V57.4677C560.943 56.6038 561.649 55.9003 562.516 55.9003H577.226C578.093 55.9003 578.799 56.6038 578.799 57.4677V110.458L605.507 84.0151C605.805 83.7251 606.201 83.5585 606.616 83.5585H626.811C627.87 83.5585 628.39 84.8359 627.635 85.5764L627.641 85.5702ZM462.052 85.5702L431.467 115.129L460.529 151.47C461.352 152.494 460.615 154.012 459.297 154.012H440.197C439.708 154.012 439.249 153.79 438.952 153.401L418.781 127.378L413.154 132.815C413.005 132.963 412.832 133.056 412.646 133.105V152.439C412.646 153.303 411.94 154.006 411.073 154.006H396.363C395.496 154.006 394.791 153.303 394.791 152.439V100.93C390.482 102.812 385.838 103.984 381.22 104.404C382.829 108.545 383.721 113.043 383.721 117.746C383.721 138.202 367.023 154.839 346.506 154.839C339.256 154.839 332.483 152.753 326.756 149.162C326.39 149.983 326.161 150.847 326.093 151.71C325.883 154.432 327.282 157.443 329.498 159.042C332.39 161.121 337.083 161.744 344.277 160.998C346.159 160.8 348.041 160.56 350.035 160.3C355.223 159.628 360.59 158.924 366.255 159.097C373.524 159.319 383.764 161.189 391.299 168.866C397.83 175.518 400.647 185.299 398.648 194.389C396.766 202.935 390.766 210.26 382.804 213.864C381.975 214.241 381.003 213.84 380.681 212.994L375.586 199.677C375.313 198.961 375.586 198.134 376.26 197.77C378.923 196.314 381.028 193.605 381.671 190.68C382.408 187.329 381.288 183.435 378.879 180.985C375.208 177.246 369.066 176.518 365.735 176.419C361.47 176.289 357.012 176.869 352.294 177.486C350.276 177.746 348.196 178.017 346.085 178.239C338.729 179.005 327.951 179.301 319.332 173.099C312.237 167.989 308.089 159.072 308.77 150.371C309.167 145.299 311.203 140.405 314.373 136.419C311.154 130.933 309.297 124.558 309.297 117.758C309.297 97.3012 325.994 80.6643 346.512 80.6643C349.453 80.6643 352.307 81.0161 355.056 81.664C358.684 82.3428 362.052 83.3672 365.735 84.4903C367.884 85.1444 370.1 85.8232 372.645 86.5206C377.839 87.946 384.656 86.8846 390.017 83.8238C391.33 83.0772 393.199 81.8121 394.803 80.0287V57.4677C394.803 56.6038 395.509 55.9003 396.376 55.9003H411.086C411.953 55.9003 412.658 56.6038 412.658 57.4677V110.569L440.048 83.8979C440.271 83.6819 440.568 83.5585 440.878 83.5585H461.234C462.293 83.5585 462.813 84.8359 462.058 85.5764L462.052 85.5702ZM366.342 117.752C366.342 109.106 360.739 101.763 352.969 99.0846C352.517 98.9303 352.053 98.7946 351.589 98.6711C351.471 98.6403 351.353 98.6094 351.236 98.5786C350.839 98.4798 350.437 98.3935 350.028 98.3194C349.775 98.2762 349.514 98.2392 349.254 98.2022C348.951 98.159 348.648 98.1096 348.338 98.0849C347.738 98.0294 347.131 97.9923 346.512 97.9923C345.893 97.9923 345.292 98.0294 344.692 98.0849C344.592 98.0972 344.493 98.0972 344.394 98.1096C343.887 98.1651 343.385 98.2453 342.884 98.3379C342.698 98.3749 342.506 98.4058 342.32 98.4428C333.393 100.368 326.681 108.292 326.681 117.758C326.681 128.656 335.578 137.523 346.512 137.523C357.445 137.523 366.342 128.656 366.342 117.758V117.752ZM127.709 97.7023C125.939 97.3135 124.18 96.968 122.478 96.6347C118.076 95.777 113.921 94.9624 110.269 93.5061C105.83 91.735 102.573 88.9211 101.552 85.9837C100.282 82.3181 102.338 77.2271 106.232 74.3885C110.82 71.05 115.599 69.933 121.735 70.7785C130.266 71.9509 136.786 75.7584 141.132 82.1083C141.596 82.7871 142.525 82.9784 143.231 82.5465L155.557 75.0673C156.325 74.6045 156.535 73.5986 156.046 72.8519C148.908 62.0281 137.906 55.3264 124.137 53.4381C113.439 51.9633 104.195 54.1971 95.8742 60.257C85.7764 67.6128 81.1887 80.8433 84.9591 91.7103C87.7018 99.6091 94.3759 106.021 103.743 109.76C108.925 111.828 114.101 112.84 119.104 113.815C120.775 114.142 122.36 114.45 123.92 114.796C128.31 115.758 133.795 117.283 137.312 120.529C139.132 122.207 139.702 125.836 138.531 128.286C134.569 136.585 123.19 138.943 114.002 136.974C102.92 134.605 98.3197 127.866 97.583 121.868C97.4839 121.059 96.8091 120.448 95.9918 120.467L81.5354 120.775C80.6315 120.794 79.9319 121.572 80 122.472C81.102 138.042 92.8281 150.353 110.324 154.092C113.736 154.821 117.122 155.172 120.422 155.172C135.393 155.172 148.604 147.934 154.393 135.802C158.882 126.397 156.715 114.574 149.248 107.675C142.636 101.571 134.26 99.134 127.709 97.69V97.7023ZM234.148 117.752C234.148 138.208 217.45 154.845 196.933 154.845C176.415 154.845 159.718 138.208 159.718 117.752C159.718 97.295 176.415 80.6582 196.933 80.6582C217.45 80.6582 234.148 97.295 234.148 117.752ZM216.763 117.752C216.763 106.854 207.866 97.9862 196.933 97.9862C185.999 97.9862 177.102 106.854 177.102 117.752C177.102 128.65 185.999 137.517 196.933 137.517C207.866 137.517 216.763 128.65 216.763 117.752ZM557.185 137.597L545.366 129.637C544.685 129.18 543.763 129.322 543.255 129.97C539.503 134.722 533.776 137.517 527.666 137.517C512.98 137.517 501.966 121.516 511.259 106.089C511.401 105.854 512.169 104.848 512.85 104.114C513.575 103.33 514.231 102.818 514.609 102.534C523.864 95.5795 535.12 97.0605 541.868 103.966C542.444 104.552 543.373 104.595 543.998 104.071L554.907 94.913C555.594 94.333 555.656 93.2963 555.043 92.636C547.998 85.0087 538.11 80.6643 527.666 80.6643C507.142 80.6643 490.451 97.3012 490.451 117.758C490.451 138.215 507.148 154.851 527.666 154.851C539.497 154.851 550.548 149.273 557.563 139.85C558.102 139.128 557.934 138.103 557.185 137.604V137.597ZM269.394 80.3373C252.034 81.2752 237.869 96.7705 237.869 114.099V152.192C237.869 153.056 238.575 153.759 239.441 153.759H253.681C254.548 153.759 255.254 153.056 255.254 152.192V113.549C255.254 104.274 263.247 96.8199 272.731 97.6838C281.015 98.4366 287.225 105.626 287.225 113.92V152.198C287.225 153.062 287.931 153.765 288.798 153.765H303.037C303.904 153.765 304.61 153.062 304.61 152.198V113.555C304.61 94.6045 288.63 79.3067 269.394 80.3434V80.3373ZM483.646 83.6943H469.407C468.54 83.6943 467.834 84.3977 467.834 85.2617V152.192C467.834 153.056 468.54 153.759 469.407 153.759H483.646C484.513 153.759 485.219 153.056 485.219 152.192V85.2679C485.219 84.4039 484.513 83.7004 483.646 83.7004V83.6943ZM476.434 53.58C470.639 53.58 465.94 58.2638 465.94 64.0398C465.94 69.8158 470.639 74.4995 476.434 74.4995C482.229 74.4995 486.928 69.8158 486.928 64.0398C486.928 58.2638 482.229 53.58 476.434 53.58Z" fill="url(#paint0_linear_153_4142)"/>
</g>
<defs>
<linearGradient id="paint0_linear_153_4142" x1="353.997" y1="50.439" x2="353.997" y2="210.513" gradientUnits="userSpaceOnUse">
<stop stop-color="#FF00B0"/>
<stop offset="1" stop-color="#FF2945"/>
</linearGradient>
<clipPath id="clip0_153_4142">
<rect width="548" height="161" fill="white" transform="translate(80 53)"/>
</clipPath>
</defs>
</svg>