<?xml version="1.0" encoding="utf-8"?>
<!-- Generator: Adobe Illustrator 18.1.1, SVG Export Plug-In . SVG Version: 6.00 Build 0)  -->
<svg version="1.1" id="Layer_1" xmlns="http://www.w3.org/2000/svg" xmlns:xlink="http://www.w3.org/1999/xlink" x="0px" y="0px"
	 width="128px" height="30px" viewBox="0 0 128 30" enable-background="new 0 0 128 30" xml:space="preserve">
<g>
	<g>
		<path fill="#4D4D4D" d="M13,7.3C12.8,6,11.8,4,8.9,4C6.7,4,5.3,5.4,5.3,6.9c0,1.3,0.8,2.3,2.5,2.6l3.2,0.6
			c4.1,0.8,6.3,3.6,6.3,6.9c0,3.6-2.9,7.2-8.2,7.1c-6,0-8.7-4-9-7.3l4.1-1.1c0.2,2.3,1.8,4.4,5,4.4c2.4,0,3.7-1.2,3.7-2.8
			c0-1.3-1-2.4-2.8-2.8l-3.2-0.7c-3.6-0.8-6-3.2-5.9-6.7C0.9,3.1,4.5,0,8.8,0c5.5,0,7.6,3.4,8.1,6.1L13,7.3z"/>
		<path fill="#4D4D4D" d="M20,30l0.1-22.3l4.1,0l0,2c0.7-1.2,2.5-2.3,4.9-2.3c4.6,0,7.3,3.6,7.3,8.4c0,4.9-3,8.5-7.5,8.5
			c-2.2,0-3.8-0.9-4.6-2l0,7.8L20,30z M28.3,11.2c-2.2,0-4,1.7-4,4.5c0,2.9,1.8,4.6,3.9,4.6c2.2,0,3.9-1.7,3.9-4.5
			C32.2,12.9,30.4,11.2,28.3,11.2z"/>
		<path fill="#4D4D4D" d="M54.6,15.8c0,4.9-3.6,8.5-8.3,8.5c-4.7,0-8.3-3.6-8.3-8.6c0-5,3.6-8.5,8.3-8.5S54.6,10.8,54.6,15.8z
			 M50.3,15.8c0-3-1.9-4.6-4-4.6s-4,1.5-4,4.6c0,3,1.9,4.6,4,4.6S50.3,18.8,50.3,15.8z"/>
		<path fill="#4D4D4D" d="M62.7,7.8l3.2,0l0,3.9l-3.2,0l0,6.8c0,1.4,0.6,1.9,1.9,1.9c0.5,0,1.1-0.1,1.3-0.1l0,3.6
			c-0.4,0.2-1.2,0.4-2.4,0.4c-3.1,0-5-1.9-5-5l0-7.5l-2.9,0l0-3.9l0.8,0c1.7,0,2.4-1.1,2.4-2.5l0-2.3l3.9,0L62.7,7.8z"/>
		<path fill="#4D4D4D" d="M68.8,23.9l0.1-23.7l4.3,0L73,23.9L68.8,23.9z"/>
		<path fill="#4D4D4D" d="M91.1,19.4c-0.8,2.8-3.3,5.1-7.2,5.1c-4.3,0-8.1-3.2-8.1-8.6c0-5.1,3.8-8.5,7.8-8.5c4.9,0,7.8,3.2,7.8,8.4
			c0,0.6-0.1,1.3-0.1,1.3L80,17c0.1,2.1,1.8,3.7,4,3.7c2,0,3.1-1,3.6-2.4L91.1,19.4z M87.1,14.1c-0.1-1.6-1.1-3.2-3.5-3.2
			c-2.2,0-3.4,1.7-3.5,3.2L87.1,14.1z"/>
		<path fill="#4D4D4D" d="M96.5,18.7c0.1,1.3,1,2.5,2.9,2.5c1.4,0,2.1-0.7,2.1-1.6c0-0.7-0.5-1.3-1.7-1.6l-2.1-0.5
			c-3-0.7-4.4-2.6-4.4-4.8c0-2.9,2.5-5.3,5.9-5.3c4.5,0,6,2.9,6.2,4.7l-3.6,0.8c-0.1-1-0.8-2.2-2.6-2.2c-1.1,0-2,0.7-2,1.6
			c0,0.8,0.6,1.3,1.4,1.4l2.2,0.5c3.1,0.7,4.7,2.6,4.7,5c0,2.6-2,5.3-6.1,5.3c-4.8,0-6.4-3.2-6.6-5L96.5,18.7z"/>
		<path fill="#4D4D4D" d="M110.8,18.7c0.1,1.3,1,2.5,2.9,2.5c1.4,0,2.1-0.7,2.1-1.6c0-0.7-0.5-1.3-1.7-1.6l-2.1-0.5
			c-3-0.7-4.4-2.6-4.4-4.8c0-2.9,2.5-5.3,5.9-5.3c4.5,0,6,2.9,6.2,4.7l-3.6,0.8c-0.1-1-0.8-2.2-2.6-2.2c-1.1,0-2,0.7-2,1.6
			c0,0.8,0.6,1.3,1.4,1.4l2.2,0.5c3.1,0.7,4.7,2.6,4.7,5c0,2.6-2,5.3-6.1,5.3c-4.7,0-6.4-3.2-6.6-5L110.8,18.7z"/>
	</g>
	<g>
		<path fill="#4D4D4D" d="M124.9,18.9c1.4,0,2.6,1.2,2.6,2.7c0,1.5-1.2,2.7-2.6,2.6s-2.6-1.2-2.6-2.7
			C122.3,20.2,123.4,18.9,124.9,18.9z"/>
	</g>
</g>
</svg>
