<svg xmlns="http://www.w3.org/2000/svg" xmlns:xlink="http://www.w3.org/1999/xlink" version="1.1" id="layer" x="0px" y="0px" style="enable-background:new 0 0 652 652;" xml:space="preserve" viewBox="26.4 309.6 600 33">
<path d="M607.3,320.3c-0.9,0-1.7,0.7-1.7,1.7c0,0.9,0.8,1.7,1.7,1.7c0.9,0,1.7-0.7,1.7-1.7C609,321.1,608.3,320.3,607.3,320.3   M603,315.4c-0.9,0-1.7,0.7-1.7,1.7c0,0.9,0.7,1.7,1.7,1.7c0.9,0,1.7-0.8,1.7-1.7C604.7,316.1,603.9,315.4,603,315.4 M598.7,310.4  c-0.9,0-1.7,0.7-1.7,1.7c0,0.9,0.8,1.7,1.7,1.7c0.9,0,1.7-0.7,1.7-1.7C600.4,311.2,599.6,310.4,598.7,310.4 M451.4,333.8  c-0.9,0.1-1.6,0.9-1.6,1.8c0.1,0.9,0.9,1.6,1.8,1.6c0.9-0.1,1.6-0.9,1.6-1.8C453.2,334.4,452.4,333.7,451.4,333.8 M447.5,329.1  c-0.9,0.1-1.6,0.9-1.6,1.8c0.1,0.9,0.9,1.6,1.8,1.6c0.9-0.1,1.6-0.9,1.6-1.8C449.3,329.7,448.5,329.1,447.5,329.1 M455.4,338.4  c-0.9,0.1-1.6,0.9-1.6,1.8c0.1,0.9,0.9,1.6,1.8,1.6c0.9-0.1,1.6-0.9,1.6-1.8C457.1,339,456.3,338.3,455.4,338.4 M239,316.8  c0-0.9-0.8-1.7-1.7-1.7c-0.9,0-1.7,0.8-1.7,1.7c0,0.9,0.8,1.7,1.7,1.7C238.3,318.5,239,317.8,239,316.8 M227,333.8  c-0.9,0-1.7,0.8-1.7,1.7c0,0.9,0.8,1.7,1.7,1.7s1.7-0.8,1.7-1.7C228.7,334.6,227.9,333.8,227,333.8 M229.6,329.1  c-0.9,0-1.7,0.8-1.7,1.7c0,0.9,0.8,1.7,1.7,1.7s1.7-0.8,1.7-1.7C231.3,329.9,230.5,329.1,229.6,329.1 M232.1,324.5  c-0.9,0-1.7,0.8-1.7,1.7c0,0.9,0.8,1.7,1.7,1.7c0.9,0,1.7-0.8,1.7-1.7C233.8,325.2,233.1,324.5,232.1,324.5 M234.8,329.1  c-0.9,0-1.7,0.8-1.7,1.7c0,0.9,0.8,1.7,1.7,1.7s1.7-0.8,1.7-1.7C236.5,329.9,235.7,329.1,234.8,329.1 M224.4,338.5  c-0.9,0-1.7,0.8-1.7,1.7c0,0.9,0.8,1.7,1.7,1.7s1.7-0.8,1.7-1.7C226.1,339.2,225.3,338.5,224.4,338.5 M234.8,319.8  c-0.9,0-1.7,0.8-1.7,1.7c0,0.9,0.8,1.7,1.7,1.7s1.7-0.8,1.7-1.7C236.5,320.6,235.7,319.8,234.8,319.8 M240,329.1  c-0.9,0-1.7,0.8-1.7,1.7c0,0.9,0.8,1.7,1.7,1.7s1.7-0.8,1.7-1.7C241.7,329.9,240.9,329.1,240,329.1 M240,310.5  c-0.9,0-1.7,0.8-1.7,1.7c0,0.9,0.8,1.7,1.7,1.7s1.7-0.8,1.7-1.7C241.7,311.2,240.9,310.5,240,310.5 M270.5,322.8  c-0.9,0-1.7,0.7-1.7,1.7c0,0.9,0.7,1.7,1.7,1.7c0.9,0,1.7-0.7,1.7-1.7C272.2,323.6,271.4,322.8,270.5,322.8 M274.3,327  c-0.9,0-1.7,0.7-1.7,1.7c0,0.9,0.7,1.7,1.7,1.7c0.9,0,1.7-0.7,1.7-1.7C276,327.7,275.3,327,274.3,327 M266.7,318.7  c-0.9,0-1.7,0.7-1.7,1.7c0,0.9,0.7,1.7,1.7,1.7c0.9,0,1.7-0.7,1.7-1.7C268.4,319.5,267.7,318.7,266.7,318.7 M259.2,310.4  c-0.9,0-1.7,0.7-1.7,1.7c0,0.9,0.7,1.7,1.7,1.7c0.9,0,1.7-0.7,1.7-1.7C260.9,311.2,260.1,310.4,259.2,310.4 M263,314.5  c-0.9,0-1.7,0.7-1.7,1.7c0,0.9,0.7,1.7,1.7,1.7c0.9,0,1.7-0.7,1.7-1.7C264.7,315.3,263.9,314.5,263,314.5 M190.3,310.5  c-0.9,0-1.7,0.8-1.7,1.7c0,0.9,0.8,1.7,1.7,1.7c0.9,0,1.7-0.8,1.7-1.7C192,311.2,191.3,310.5,190.3,310.5 M197.4,338.5  c-0.9,0-1.7,0.8-1.7,1.7c0,0.9,0.8,1.7,1.7,1.7s1.7-0.8,1.7-1.7C199.1,339.2,198.3,338.5,197.4,338.5 M190.3,316  c-0.9,0-1.7,0.8-1.7,1.7c0,0.9,0.8,1.7,1.7,1.7c0.9,0,1.7-0.8,1.7-1.7C192,316.8,191.3,316,190.3,316 M190.3,321.6  c-0.9,0-1.7,0.8-1.7,1.7s0.8,1.7,1.7,1.7c0.9,0,1.7-0.8,1.7-1.7S191.3,321.6,190.3,321.6 M204.3,338.5c-0.9,0-1.7,0.8-1.7,1.7  c0,0.9,0.8,1.7,1.7,1.7s1.7-0.8,1.7-1.7C206,339.2,205.3,338.5,204.3,338.5 M153.6,327.2c-0.9,0-1.7,0.8-1.7,1.7  c0,0.9,0.8,1.7,1.7,1.7c0.9,0,1.7-0.8,1.7-1.7C155.3,328,154.5,327.2,153.6,327.2 M153.6,321.6c-0.9,0-1.7,0.8-1.7,1.7  s0.8,1.7,1.7,1.7c0.9,0,1.7-0.8,1.7-1.7S154.5,321.6,153.6,321.6 M153.6,338.5c-0.9,0-1.7,0.8-1.7,1.7c0,0.9,0.8,1.7,1.7,1.7  c0.9,0,1.7-0.8,1.7-1.7C155.3,339.2,154.5,338.5,153.6,338.5 M153.6,332.9c-0.9,0-1.7,0.8-1.7,1.7s0.8,1.7,1.7,1.7  c0.9,0,1.7-0.8,1.7-1.7C155.3,333.6,154.5,332.9,153.6,332.9 M130.7,310.5c-0.9,0-1.7,0.8-1.7,1.7c0,0.9,0.8,1.7,1.7,1.7  s1.7-0.8,1.7-1.7C132.4,311.2,131.6,310.5,130.7,310.5 M153.6,316c-0.9,0-1.7,0.8-1.7,1.7c0,0.9,0.8,1.7,1.7,1.7  c0.9,0,1.7-0.8,1.7-1.7C155.3,316.8,154.5,316,153.6,316 M190.3,327.2c-0.9,0-1.7,0.8-1.7,1.7c0,0.9,0.8,1.7,1.7,1.7  c0.9,0,1.7-0.8,1.7-1.7C192,328,191.3,327.2,190.3,327.2 M190.3,338.5c-0.9,0-1.7,0.8-1.7,1.7c0,0.9,0.8,1.7,1.7,1.7  c0.9,0,1.7-0.8,1.7-1.7C192,339.2,191.3,338.5,190.3,338.5 M190.3,332.9c-0.9,0-1.7,0.8-1.7,1.7s0.8,1.7,1.7,1.7  c0.9,0,1.7-0.8,1.7-1.7C192,333.6,191.3,332.9,190.3,332.9 M167.6,338.5c-0.9,0-1.7,0.8-1.7,1.7c0,0.9,0.8,1.7,1.7,1.7  c0.9,0,1.7-0.8,1.7-1.7C169.3,339.2,168.6,338.5,167.6,338.5 M153.6,310.5c-0.9,0-1.7,0.8-1.7,1.7c0,0.9,0.8,1.7,1.7,1.7  c0.9,0,1.7-0.8,1.7-1.7C155.3,311.2,154.5,310.5,153.6,310.5 M160.6,338.5c-0.9,0-1.7,0.8-1.7,1.7c0,0.9,0.8,1.7,1.7,1.7  s1.7-0.8,1.7-1.7C162.3,339.2,161.5,338.5,160.6,338.5 M289.6,327.2c-0.9,0-1.7,0.8-1.7,1.7c0,0.9,0.8,1.7,1.7,1.7  c0.9,0,1.7-0.8,1.7-1.7C291.3,328,290.5,327.2,289.6,327.2 M130.7,338.5c-0.9,0-1.7,0.8-1.7,1.7c0,0.9,0.8,1.7,1.7,1.7  s1.7-0.8,1.7-1.7C132.4,339.2,131.6,338.5,130.7,338.5 M289.6,338.5c-0.9,0-1.7,0.8-1.7,1.7c0,0.9,0.8,1.7,1.7,1.7  c0.9,0,1.7-0.8,1.7-1.7C291.3,339.2,290.5,338.5,289.6,338.5 M289.6,321.6c-0.9,0-1.7,0.8-1.7,1.7s0.8,1.7,1.7,1.7  c0.9,0,1.7-0.8,1.7-1.7S290.5,321.6,289.6,321.6 M289.6,316c-0.9,0-1.7,0.8-1.7,1.7c0,0.9,0.8,1.7,1.7,1.7c0.9,0,1.7-0.8,1.7-1.7  C291.3,316.8,290.5,316,289.6,316 M259.1,327.2c-0.9,0-1.7,0.8-1.7,1.7c0,0.9,0.8,1.7,1.7,1.7c0.9,0,1.7-0.8,1.7-1.7  C260.8,328,260.1,327.2,259.1,327.2 M259.1,332.9c-0.9,0-1.7,0.8-1.7,1.7s0.8,1.7,1.7,1.7c0.9,0,1.7-0.8,1.7-1.7  C260.8,333.6,260.1,332.9,259.1,332.9 M259.1,321.6c-0.9,0-1.7,0.8-1.7,1.7s0.8,1.7,1.7,1.7c0.9,0,1.7-0.8,1.7-1.7  S260.1,321.6,259.1,321.6 M259.1,338.5c-0.9,0-1.7,0.8-1.7,1.7c0,0.9,0.8,1.7,1.7,1.7c0.9,0,1.7-0.8,1.7-1.7  C260.8,339.2,260.1,338.5,259.1,338.5 M259.1,316c-0.9,0-1.7,0.8-1.7,1.7c0,0.9,0.8,1.7,1.7,1.7c0.9,0,1.7-0.8,1.7-1.7  C260.8,316.8,260.1,316,259.1,316 M289.6,332.9c-0.9,0-1.7,0.8-1.7,1.7s0.8,1.7,1.7,1.7c0.9,0,1.7-0.8,1.7-1.7  C291.3,333.6,290.5,332.9,289.6,332.9 M443.9,313.9c0.9,0,1.7-0.8,1.7-1.7s-0.8-1.7-1.7-1.7c-0.9,0-1.7,0.8-1.7,1.7  S442.9,313.9,443.9,313.9 M449.2,313.9c0.9,0,1.7-0.8,1.7-1.7s-0.8-1.7-1.7-1.7c-0.9,0-1.7,0.8-1.7,1.7S448.3,313.9,449.2,313.9   M453.9,315.8c0.9,0,1.7-0.8,1.7-1.7s-0.8-1.7-1.7-1.7c-0.9,0-1.7,0.8-1.7,1.7C452.1,315.1,452.9,315.8,453.9,315.8 M124.4,310.5  c-0.9,0-1.7,0.8-1.7,1.7c0,0.9,0.8,1.7,1.7,1.7c0.9,0,1.7-0.8,1.7-1.7C126.1,311.2,125.3,310.5,124.4,310.5 M111.9,316  c-0.9,0-1.7,0.8-1.7,1.7c0,0.9,0.8,1.7,1.7,1.7s1.7-0.8,1.7-1.7C113.6,316.8,112.9,316,111.9,316 M111.9,310.5  c-0.9,0-1.7,0.8-1.7,1.7c0,0.9,0.8,1.7,1.7,1.7s1.7-0.8,1.7-1.7C113.6,311.2,112.9,310.5,111.9,310.5 M118.2,338.5  c-0.9,0-1.7,0.8-1.7,1.7c0,0.9,0.8,1.7,1.7,1.7c0.9,0,1.7-0.8,1.7-1.7C119.9,339.2,119.1,338.5,118.2,338.5 M111.9,327.2  c-0.9,0-1.7,0.8-1.7,1.7c0,0.9,0.8,1.7,1.7,1.7s1.7-0.8,1.7-1.7C113.6,328,112.9,327.2,111.9,327.2 M118.2,324.5  c-0.9,0-1.7,0.8-1.7,1.7c0,0.9,0.8,1.7,1.7,1.7c0.9,0,1.7-0.8,1.7-1.7C119.9,325.2,119.1,324.5,118.2,324.5 M111.9,332.9  c-0.9,0-1.7,0.8-1.7,1.7c0,0.9,0.8,1.7,1.7,1.7s1.7-0.8,1.7-1.7C113.6,333.6,112.9,332.9,111.9,332.9 M111.9,321.6  c-0.9,0-1.7,0.8-1.7,1.7s0.8,1.7,1.7,1.7s1.7-0.8,1.7-1.7S112.9,321.6,111.9,321.6 M118.2,310.5c-0.9,0-1.7,0.8-1.7,1.7  c0,0.9,0.8,1.7,1.7,1.7c0.9,0,1.7-0.8,1.7-1.7C119.9,311.2,119.1,310.5,118.2,310.5 M124.4,324.5c-0.9,0-1.7,0.8-1.7,1.7  c0,0.9,0.8,1.7,1.7,1.7c0.9,0,1.7-0.8,1.7-1.7C126.1,325.2,125.3,324.5,124.4,324.5 M124.4,338.5c-0.9,0-1.7,0.8-1.7,1.7  c0,0.9,0.8,1.7,1.7,1.7c0.9,0,1.7-0.8,1.7-1.7C126.1,339.2,125.3,338.5,124.4,338.5 M72,310.5c-0.9,0-1.7,0.8-1.7,1.7  c0,0.9,0.8,1.7,1.7,1.7c0.9,0,1.7-0.8,1.7-1.7C73.7,311.2,72.9,310.5,72,310.5 M80.4,338.5c-0.9,0-1.7,0.8-1.7,1.7  c0,0.9,0.8,1.7,1.7,1.7c0.9,0,1.7-0.8,1.7-1.7C82.1,339.2,81.3,338.5,80.4,338.5 M111.9,338.5c-0.9,0-1.7,0.8-1.7,1.7  c0,0.9,0.8,1.7,1.7,1.7s1.7-0.8,1.7-1.7C113.6,339.2,112.9,338.5,111.9,338.5 M80.4,326.8c-0.9,0-1.7,0.8-1.7,1.7  c0,0.9,0.8,1.7,1.7,1.7c0.9,0,1.7-0.8,1.7-1.7C82.1,327.5,81.3,326.8,80.4,326.8 M66.4,310.5c-0.9,0-1.7,0.8-1.7,1.7  c0,0.9,0.8,1.7,1.7,1.7c0.9,0,1.7-0.8,1.7-1.7C68.1,311.2,67.3,310.5,66.4,310.5 M77.5,310.5c-0.9,0-1.7,0.8-1.7,1.7  s0.8,1.7,1.7,1.7c0.9,0,1.7-0.8,1.7-1.7C79.2,311.2,78.5,310.5,77.5,310.5 M80.4,332.6c-0.9,0-1.7,0.8-1.7,1.7  c0,0.9,0.8,1.7,1.7,1.7c0.9,0,1.7-0.8,1.7-1.7C82.1,333.4,81.3,332.6,80.4,332.6 M80.4,321c-0.9,0-1.7,0.8-1.7,1.7s0.8,1.7,1.7,1.7  c0.9,0,1.7-0.8,1.7-1.7C82.1,321.7,81.3,321,80.4,321 M94.4,310.5c-0.9,0-1.7,0.8-1.7,1.7c0,0.9,0.8,1.7,1.7,1.7  c0.9,0,1.7-0.8,1.7-1.7C96.1,311.2,95.3,310.5,94.4,310.5 M83.2,310.5c-0.9,0-1.7,0.8-1.7,1.7c0,0.9,0.8,1.7,1.7,1.7  c0.9,0,1.7-0.8,1.7-1.7C84.8,311.2,84.1,310.5,83.2,310.5 M88.8,310.5c-0.9,0-1.7,0.8-1.7,1.7c0,0.9,0.8,1.7,1.7,1.7  c0.9,0,1.7-0.8,1.7-1.7C90.5,311.2,89.7,310.5,88.8,310.5 M80.4,315.1c-0.9,0-1.7,0.8-1.7,1.7c0,0.9,0.8,1.7,1.7,1.7  c0.9,0,1.7-0.8,1.7-1.7C82.1,315.8,81.3,315.1,80.4,315.1 M542.9,332.9c-0.9,0-1.7,0.8-1.7,1.7s0.8,1.7,1.7,1.7s1.7-0.8,1.7-1.7  C544.6,333.6,543.8,332.9,542.9,332.9 M542.9,327.2c-0.9,0-1.7,0.8-1.7,1.7c0,0.9,0.8,1.7,1.7,1.7s1.7-0.8,1.7-1.7  C544.6,328,543.8,327.2,542.9,327.2 M542.9,316c-0.9,0-1.7,0.8-1.7,1.7c0,0.9,0.8,1.7,1.7,1.7s1.7-0.8,1.7-1.7  C544.6,316.8,543.8,316,542.9,316 M542.9,310.5c-0.9,0-1.7,0.8-1.7,1.7c0,0.9,0.8,1.7,1.7,1.7s1.7-0.8,1.7-1.7  C544.6,311.2,543.8,310.5,542.9,310.5 M563.6,338.5c-0.9,0-1.7,0.8-1.7,1.7c0,0.9,0.8,1.7,1.7,1.7s1.7-0.8,1.7-1.7  C565.3,339.2,564.5,338.5,563.6,338.5 M542.9,321.6c-0.9,0-1.7,0.8-1.7,1.7s0.8,1.7,1.7,1.7s1.7-0.8,1.7-1.7  S543.8,321.6,542.9,321.6 M517.5,338.5c-0.9,0-1.7,0.8-1.7,1.7c0,0.9,0.8,1.7,1.7,1.7s1.7-0.8,1.7-1.7  C519.3,339.2,518.5,338.5,517.5,338.5 M494,310.5c-0.9,0-1.7,0.8-1.7,1.7c0,0.9,0.8,1.7,1.7,1.7c0.9,0,1.7-0.8,1.7-1.7  C495.7,311.2,494.9,310.5,494,310.5 M499.5,310.5c-0.9,0-1.7,0.8-1.7,1.7s0.8,1.7,1.7,1.7c0.9,0,1.7-0.8,1.7-1.7  C501.2,311.2,500.5,310.5,499.5,310.5 M488.4,310.5c-0.9,0-1.7,0.8-1.7,1.7s0.8,1.7,1.7,1.7c0.9,0,1.7-0.8,1.7-1.7  C490.1,311.2,489.3,310.5,488.4,310.5 M485.5,321c-0.9,0-1.7,0.8-1.7,1.7s0.8,1.7,1.7,1.7c0.9,0,1.7-0.8,1.7-1.7  C487.2,321.7,486.5,321,485.5,321 M563.6,332.9c-0.9,0-1.7,0.8-1.7,1.7s0.8,1.7,1.7,1.7c0.9,0,1.7-0.8,1.7-1.7  C565.3,333.6,564.5,332.9,563.6,332.9 M485.5,315.1c-0.9,0-1.7,0.8-1.7,1.7c0,0.9,0.8,1.7,1.7,1.7c0.9,0,1.7-0.8,1.7-1.7  C487.2,315.8,486.5,315.1,485.5,315.1 M517.5,321.6c-0.9,0-1.7,0.8-1.7,1.7s0.8,1.7,1.7,1.7s1.7-0.8,1.7-1.7  S518.5,321.6,517.5,321.6 M517.5,316c-0.9,0-1.7,0.8-1.7,1.7c0,0.9,0.8,1.7,1.7,1.7s1.7-0.8,1.7-1.7  C519.3,316.8,518.5,316,517.5,316 M517.5,332.9c-0.9,0-1.7,0.8-1.7,1.7s0.8,1.7,1.7,1.7s1.7-0.8,1.7-1.7  C519.3,333.6,518.5,332.9,517.5,332.9 M517.5,327.2c-0.9,0-1.7,0.8-1.7,1.7c0,0.9,0.8,1.7,1.7,1.7s1.7-0.8,1.7-1.7  C519.3,328,518.5,327.2,517.5,327.2 M611.7,338.5c-0.9,0-1.7,0.8-1.7,1.7c0,0.9,0.8,1.7,1.7,1.7c0.9,0,1.7-0.8,1.7-1.7  C613.4,339.2,612.6,338.5,611.7,338.5 M582.3,310.5c-0.9,0-1.7,0.8-1.7,1.7c0,0.9,0.8,1.7,1.7,1.7c0.9,0,1.7-0.8,1.7-1.7  C584,311.2,583.2,310.5,582.3,310.5 M582.3,338.5c-0.9,0-1.7,0.8-1.7,1.7c0,0.9,0.8,1.7,1.7,1.7c0.9,0,1.7-0.8,1.7-1.7  C584,339.2,583.2,338.5,582.3,338.5 M611.7,331.9c-0.9,0-1.7,0.8-1.7,1.7c0,0.9,0.8,1.7,1.7,1.7c0.9,0,1.7-0.8,1.7-1.7  C613.4,332.7,612.6,331.9,611.7,331.9 M563.6,310.5c-0.9,0-1.7,0.8-1.7,1.7c0,0.9,0.8,1.7,1.7,1.7c0.9,0,1.7-0.8,1.7-1.7  C565.3,311.2,564.5,310.5,563.6,310.5 M576,310.5c-0.9,0-1.7,0.8-1.7,1.7s0.8,1.7,1.7,1.7c0.9,0,1.7-0.8,1.7-1.7  C577.8,311.2,577,310.5,576,310.5 M569.8,324.5c-0.9,0-1.7,0.8-1.7,1.7c0,0.9,0.8,1.7,1.7,1.7c0.9,0,1.7-0.8,1.7-1.7  C571.5,325.2,570.8,324.5,569.8,324.5 M569.8,338.5c-0.9,0-1.7,0.8-1.7,1.7c0,0.9,0.8,1.7,1.7,1.7c0.9,0,1.7-0.8,1.7-1.7  C571.5,339.2,570.8,338.5,569.8,338.5 M563.6,321.6c-0.9,0-1.7,0.8-1.7,1.7s0.8,1.7,1.7,1.7c0.9,0,1.7-0.8,1.7-1.7  S564.5,321.6,563.6,321.6 M563.6,316c-0.9,0-1.7,0.8-1.7,1.7c0,0.9,0.8,1.7,1.7,1.7c0.9,0,1.7-0.8,1.7-1.7  C565.3,316.8,564.5,316,563.6,316 M576,338.5c-0.9,0-1.7,0.8-1.7,1.7c0,0.9,0.8,1.7,1.7,1.7c0.9,0,1.7-0.8,1.7-1.7  C577.8,339.2,577,338.5,576,338.5 M576,324.5c-0.9,0-1.7,0.8-1.7,1.7c0,0.9,0.8,1.7,1.7,1.7c0.9,0,1.7-0.8,1.7-1.7  C577.8,325.2,577,324.5,576,324.5 M563.6,327.2c-0.9,0-1.7,0.8-1.7,1.7c0,0.9,0.8,1.7,1.7,1.7c0.9,0,1.7-0.8,1.7-1.7  C565.3,328,564.5,327.2,563.6,327.2 M569.8,310.5c-0.9,0-1.7,0.8-1.7,1.7c0,0.9,0.8,1.7,1.7,1.7c0.9,0,1.7-0.8,1.7-1.7  C571.5,311.2,570.8,310.5,569.8,310.5 M455.6,323.7c0-0.9-0.8-1.7-1.7-1.7c-0.9,0-1.7,0.8-1.7,1.7c0,0.9,0.8,1.7,1.7,1.7  C454.8,325.4,455.6,324.7,455.6,323.7 M485.5,326.8c-0.9,0-1.7,0.8-1.7,1.7c0,0.9,0.8,1.7,1.7,1.7c0.9,0,1.7-0.8,1.7-1.7  C487.2,327.5,486.5,326.8,485.5,326.8 M611.7,325.3c-0.9,0-1.7,0.8-1.7,1.7c0,0.9,0.8,1.7,1.7,1.7c0.9,0,1.7-0.8,1.7-1.7  C613.4,326,612.6,325.3,611.7,325.3 M457.3,318.9c0-0.9-0.8-1.7-1.7-1.7c-0.9,0-1.7,0.8-1.7,1.7c0,0.9,0.8,1.7,1.7,1.7  C456.5,320.6,457.3,319.9,457.3,318.9 M485.5,338.5c-0.9,0-1.7,0.8-1.7,1.7c0,0.9,0.8,1.7,1.7,1.7c0.9,0,1.7-0.8,1.7-1.7  C487.2,339.2,486.5,338.5,485.5,338.5 M482.7,310.5c-0.9,0-1.7,0.8-1.7,1.7s0.8,1.7,1.7,1.7c0.9,0,1.7-0.8,1.7-1.7  C484.4,311.2,483.7,310.5,482.7,310.5 M485.5,332.6c-0.9,0-1.7,0.8-1.7,1.7c0,0.9,0.8,1.7,1.7,1.7c0.9,0,1.7-0.8,1.7-1.7  C487.2,333.4,486.5,332.6,485.5,332.6 M471.5,310.5c-0.9,0-1.7,0.8-1.7,1.7c0,0.9,0.8,1.7,1.7,1.7c0.9,0,1.7-0.8,1.7-1.7  C473.2,311.2,472.5,310.5,471.5,310.5 M477.1,310.5c-0.9,0-1.7,0.8-1.7,1.7s0.8,1.7,1.7,1.7c0.9,0,1.7-0.8,1.7-1.7  C478.8,311.2,478,310.5,477.1,310.5 M433.1,327.2c-0.9,0-1.7,0.8-1.7,1.7c0,0.9,0.8,1.7,1.7,1.7c0.9,0,1.7-0.8,1.7-1.7  C434.8,328,434.1,327.2,433.1,327.2 M438.5,310.5c-0.9,0-1.7,0.8-1.7,1.7c0,0.9,0.8,1.7,1.7,1.7c0.9,0,1.7-0.8,1.7-1.7  C440.2,311.2,439.4,310.5,438.5,310.5 M433.1,338.5c-0.9,0-1.7,0.8-1.7,1.7c0,0.9,0.8,1.7,1.7,1.7c0.9,0,1.7-0.8,1.7-1.7  C434.8,339.2,434.1,338.5,433.1,338.5 M433.1,332.9c-0.9,0-1.7,0.8-1.7,1.7c0,0.9,0.8,1.7,1.7,1.7c0.9,0,1.7-0.8,1.7-1.7  C434.8,333.6,434.1,332.9,433.1,332.9 M433.1,310.5c-0.9,0-1.7,0.8-1.7,1.7c0,0.9,0.8,1.7,1.7,1.7c0.9,0,1.7-0.8,1.7-1.7  C434.8,311.2,434.1,310.5,433.1,310.5 M443.8,327.9c0.9,0,1.7-0.8,1.7-1.7c0-0.9-0.8-1.7-1.7-1.7c-0.9,0-1.7,0.8-1.7,1.7  C442.1,327.1,442.9,327.9,443.8,327.9 M449.2,327.9c0.9,0,1.7-0.8,1.7-1.7c0-0.9-0.8-1.7-1.7-1.7c-0.9,0-1.7,0.8-1.7,1.7  C447.5,327.1,448.3,327.9,449.2,327.9 M438.3,324.5c-0.9,0-1.7,0.8-1.7,1.7c0,0.9,0.8,1.7,1.7,1.7c0.9,0,1.7-0.8,1.7-1.7  C440.1,325.2,439.3,324.5,438.3,324.5 M433.1,316c-0.9,0-1.7,0.8-1.7,1.7c0,0.9,0.8,1.7,1.7,1.7c0.9,0,1.7-0.8,1.7-1.7  C434.8,316.8,434.1,316,433.1,316 M433.1,321.6c-0.9,0-1.7,0.8-1.7,1.7s0.8,1.7,1.7,1.7c0.9,0,1.7-0.8,1.7-1.7  S434.1,321.6,433.1,321.6 M276.4,324.5c0,0.9,0.8,1.7,1.7,1.7c0.9,0,1.7-0.8,1.7-1.7c0-0.9-0.8-1.7-1.7-1.7  C277.1,322.8,276.4,323.6,276.4,324.5 M280.2,320.4c0,0.9,0.8,1.7,1.7,1.7c0.9,0,1.7-0.8,1.7-1.7c0-0.9-0.8-1.7-1.7-1.7  C280.9,318.7,280.1,319.5,280.2,320.4 M287.7,312.2c0,0.9,0.8,1.7,1.7,1.7c0.9,0,1.7-0.8,1.7-1.7c0-0.9-0.8-1.7-1.7-1.7  C288.5,310.5,287.7,311.2,287.7,312.2 M283.9,316.3c0,0.9,0.8,1.7,1.7,1.7c0.9,0,1.7-0.8,1.7-1.7c0-0.9-0.8-1.7-1.7-1.7  C284.7,314.6,283.9,315.3,283.9,316.3 M403,318.5c0.9,0,1.7-0.8,1.7-1.7c0-0.9-0.8-1.7-1.7-1.7c-0.9,0-1.7,0.8-1.7,1.7  C401.3,317.8,402.1,318.5,403,318.5 M411.7,335.5c0,0.9,0.8,1.7,1.7,1.7c0.9,0,1.7-0.8,1.7-1.7c0-0.9-0.8-1.7-1.7-1.7  C412.4,333.8,411.7,334.6,411.7,335.5 M409.1,330.8c0,0.9,0.8,1.7,1.7,1.7c0.9,0,1.7-0.8,1.7-1.7c0-0.9-0.8-1.7-1.7-1.7  C409.8,329.1,409.1,329.9,409.1,330.8 M406.5,326.2c0,0.9,0.8,1.7,1.7,1.7c0.9,0,1.7-0.8,1.7-1.7c0-0.9-0.8-1.7-1.7-1.7  C407.3,324.5,406.5,325.2,406.5,326.2 M403.9,330.8c0,0.9,0.8,1.7,1.7,1.7c0.9,0,1.7-0.8,1.7-1.7c0-0.9-0.8-1.7-1.7-1.7  C404.6,329.1,403.9,329.9,403.9,330.8 M414.3,340.2c0,0.9,0.8,1.7,1.7,1.7c0.9,0,1.7-0.8,1.7-1.7c0-0.9-0.8-1.7-1.7-1.7  C415,338.5,414.3,339.2,414.3,340.2 M403.9,321.5c0,0.9,0.8,1.7,1.7,1.7c0.9,0,1.7-0.8,1.7-1.7c0-0.9-0.8-1.7-1.7-1.7  C404.6,319.8,403.9,320.6,403.9,321.5 M398.7,330.8c0,0.9,0.8,1.7,1.7,1.7c0.9,0,1.7-0.8,1.7-1.7c0-0.9-0.8-1.7-1.7-1.7  C399.4,329.1,398.7,329.9,398.7,330.8 M398.7,312.2c0,0.9,0.8,1.7,1.7,1.7c0.9,0,1.7-0.8,1.7-1.7c0-0.9-0.8-1.7-1.7-1.7  C399.4,310.5,398.7,311.2,398.7,312.2 M614.3,322c0,0.9,0.8,1.7,1.7,1.7c0.9,0,1.7-0.8,1.7-1.7c0-0.9-0.8-1.7-1.7-1.7  C615,320.3,614.3,321.1,614.3,322 M618.6,317.1c0,0.9,0.8,1.7,1.7,1.7s1.7-0.8,1.7-1.7c0-0.9-0.8-1.7-1.7-1.7  C619.4,315.4,618.6,316.1,618.6,317.1 M623,312.1c0,0.9,0.8,1.7,1.7,1.7c0.9,0,1.7-0.8,1.7-1.7s-0.8-1.7-1.7-1.7  C623.7,310.4,623,311.2,623,312.1 M538.6,333.8c-0.9,0-1.7,0.8-1.7,1.7c0,0.9,0.7,1.7,1.7,1.7c0.9,0,1.7-0.8,1.7-1.7  C540.4,334.6,539.6,333.8,538.6,333.8 M534.4,329.1c-0.9,0-1.7,0.7-1.7,1.7c0,0.9,0.8,1.7,1.7,1.7s1.7-0.8,1.7-1.7  C536.2,329.9,535.4,329.1,534.4,329.1 M542.9,338.5c-0.9,0-1.7,0.7-1.7,1.7c0,0.9,0.7,1.7,1.7,1.7c0.9,0,1.7-0.7,1.7-1.7  C544.6,339.2,543.8,338.5,542.9,338.5 M530.2,324.5c-0.9,0-1.7,0.7-1.7,1.7c0,0.9,0.7,1.7,1.7,1.7c0.9,0,1.7-0.8,1.7-1.7  C531.9,325.2,531.2,324.5,530.2,324.5 M526,319.8c-0.9,0-1.7,0.7-1.7,1.7c0,0.9,0.7,1.7,1.7,1.7c0.9,0,1.7-0.7,1.7-1.7  C527.7,320.6,526.9,319.8,526,319.8 M521.8,315.1c-0.9,0-1.7,0.7-1.7,1.7c0,0.9,0.7,1.7,1.7,1.7c0.9,0,1.7-0.7,1.7-1.7  C523.5,315.8,522.7,315.1,521.8,315.1 M517.5,310.5c-0.9,0-1.7,0.7-1.7,1.7c0,0.9,0.7,1.7,1.7,1.7c0.9,0,1.7-0.7,1.7-1.7  C519.3,311.2,518.5,310.5,517.5,310.5 M330.6,335.4c-0.9,0-1.7,0.8-1.7,1.7s0.8,1.7,1.7,1.7c0.9,0,1.7-0.8,1.7-1.7  C332.3,336.2,331.5,335.4,330.6,335.4 M325.7,338.2c-0.9,0-1.7,0.8-1.7,1.7c0,0.9,0.8,1.7,1.7,1.7s1.7-0.8,1.7-1.7  C327.4,339,326.6,338.2,325.7,338.2 M320,339c-0.9,0-1.7,0.8-1.7,1.7c0,0.9,0.8,1.7,1.7,1.7c0.9,0,1.7-0.8,1.7-1.7  C321.7,339.8,320.9,339,320,339 M314.5,337.9c-0.9,0-1.7,0.8-1.7,1.7c0,0.9,0.8,1.7,1.7,1.7c0.9,0,1.7-0.8,1.7-1.7  C316.2,338.6,315.5,337.9,314.5,337.9 M310.4,334c-0.9,0-1.7,0.8-1.7,1.7c0,0.9,0.8,1.7,1.7,1.7c0.9,0,1.7-0.8,1.7-1.7  C312.1,334.7,311.4,334,310.4,334 M309,328.4c-0.9,0-1.7,0.8-1.7,1.7c0,0.9,0.8,1.7,1.7,1.7c0.9,0,1.7-0.8,1.7-1.7  C310.7,329.2,309.9,328.4,309,328.4 M310.4,322.9c-0.9,0-1.7,0.8-1.7,1.7s0.8,1.7,1.7,1.7c0.9,0,1.7-0.8,1.7-1.7  S311.4,322.9,310.4,322.9 M314.5,319c-0.9,0-1.7,0.8-1.7,1.7c0,0.9,0.8,1.7,1.7,1.7c0.9,0,1.7-0.8,1.7-1.7  C316.2,319.7,315.5,319,314.5,319 M320,317.8c-0.9,0-1.7,0.8-1.7,1.7c0,0.9,0.8,1.7,1.7,1.7c0.9,0,1.7-0.8,1.7-1.7  C321.7,318.6,320.9,317.8,320,317.8 M325.7,318.6c-0.9,0-1.7,0.8-1.7,1.7c0,0.9,0.8,1.7,1.7,1.7s1.7-0.8,1.7-1.7  C327.4,319.4,326.6,318.6,325.7,318.6 M330.6,321.4c-0.9,0-1.7,0.8-1.7,1.7c0,0.9,0.8,1.7,1.7,1.7c0.9,0,1.7-0.8,1.7-1.7  C332.3,322.2,331.5,321.4,330.6,321.4 M379.9,314.9c-0.9,0-1.7,0.8-1.7,1.7s0.8,1.7,1.7,1.7c0.9,0,1.7-0.8,1.7-1.7  C381.6,315.6,380.9,314.9,379.9,314.9 M375.4,311.6c-0.9,0-1.7,0.8-1.7,1.7s0.8,1.7,1.7,1.7c0.9,0,1.7-0.8,1.7-1.7  S376.3,311.6,375.4,311.6 M369.9,309.9c-0.9,0-1.7,0.8-1.7,1.7c0,0.9,0.8,1.7,1.7,1.7c0.9,0,1.7-0.8,1.7-1.7  C371.6,310.7,370.8,309.9,369.9,309.9 M364,309.6c-0.9,0-1.7,0.8-1.7,1.7c0,0.9,0.8,1.7,1.7,1.7s1.7-0.8,1.7-1.7  C365.7,310.4,365,309.6,364,309.6 M358.3,310.7c-0.9,0-1.7,0.8-1.7,1.7c0,0.9,0.8,1.7,1.7,1.7c0.9,0,1.7-0.8,1.7-1.7  C360.1,311.4,359.3,310.7,358.3,310.7 M353.8,313.6c-0.9,0-1.7,0.8-1.7,1.7c0,0.9,0.8,1.7,1.7,1.7c0.9,0,1.7-0.8,1.7-1.7  S354.7,313.6,353.8,313.6 M350.7,318.6c-0.9,0-1.7,0.8-1.7,1.7c0,0.9,0.8,1.7,1.7,1.7c0.9,0,1.7-0.8,1.7-1.7  C352.4,319.4,351.6,318.6,350.7,318.6 M349.5,324.3c-0.9,0-1.7,0.8-1.7,1.7c0,0.9,0.8,1.7,1.7,1.7c0.9,0,1.7-0.8,1.7-1.7  C351.2,325.1,350.5,324.3,349.5,324.3 M379.9,337.2c-0.9,0-1.7-0.8-1.7-1.7c0-0.9,0.8-1.7,1.7-1.7c0.9,0,1.7,0.8,1.7,1.7  C381.6,336.4,380.9,337.2,379.9,337.2 M375.4,340.5c-0.9,0-1.7-0.8-1.7-1.7c0-0.9,0.8-1.7,1.7-1.7c0.9,0,1.7,0.8,1.7,1.7  C377.1,339.7,376.3,340.5,375.4,340.5 M369.9,342.2c-0.9,0-1.7-0.8-1.7-1.7s0.8-1.7,1.7-1.7c0.9,0,1.7,0.8,1.7,1.7  S370.8,342.2,369.9,342.2 M364,342.5c-0.9,0-1.7-0.8-1.7-1.7c0-0.9,0.8-1.7,1.7-1.7s1.7,0.8,1.7,1.7  C365.7,341.7,365,342.5,364,342.5 M358.3,341.4c-0.9,0-1.7-0.8-1.7-1.7c0-0.9,0.8-1.7,1.7-1.7c0.9,0,1.7,0.8,1.7,1.7  C360.1,340.6,359.3,341.4,358.3,341.4 M353.8,338.5c-0.9,0-1.7-0.8-1.7-1.7c0-0.9,0.8-1.7,1.7-1.7c0.9,0,1.7,0.8,1.7,1.7  C355.5,337.7,354.7,338.5,353.8,338.5 M350.7,333.5c-0.9,0-1.7-0.8-1.7-1.7c0-0.9,0.8-1.7,1.7-1.7c0.9,0,1.7,0.8,1.7,1.7  C352.4,332.7,351.6,333.5,350.7,333.5 M37.5,338.9c-0.9,0-1.7,0.8-1.7,1.7c0,0.9,0.8,1.7,1.7,1.7s1.7-0.8,1.7-1.7  C39.2,339.7,38.5,338.9,37.5,338.9 M38.6,325.8c0-0.9-0.8-1.7-1.7-1.7s-1.7,0.8-1.7,1.7c0,0.9,0.8,1.7,1.7,1.7  C37.8,327.5,38.6,326.7,38.6,325.8 M32.2,336.9c-0.9,0-1.7,0.8-1.7,1.7c0,0.9,0.8,1.7,1.7,1.7s1.7-0.8,1.7-1.7  C33.9,337.7,33.2,336.9,32.2,336.9 M28.8,320.7c0.9,0,1.7-0.8,1.7-1.7c0-0.9-0.8-1.7-1.7-1.7s-1.7,0.8-1.7,1.7  C27.1,319.9,27.9,320.7,28.8,320.7 M28.1,332.7c-0.9,0-1.7,0.8-1.7,1.7c0,0.9,0.8,1.7,1.7,1.7c0.9,0,1.7-0.8,1.7-1.7  S29,332.7,28.1,332.7 M48.9,337.9c-0.9,0-1.7,0.8-1.7,1.7c0,0.9,0.8,1.7,1.7,1.7s1.7-0.8,1.7-1.7C50.6,338.7,49.8,337.9,48.9,337.9   M29.8,323.9c0,0.9,0.8,1.7,1.7,1.7s1.7-0.8,1.7-1.7s-0.8-1.7-1.7-1.7C30.5,322.2,29.8,323,29.8,323.9 M53,334.1  c-0.9,0-1.7,0.8-1.7,1.7s0.8,1.7,1.7,1.7s1.7-0.8,1.7-1.7C54.7,334.8,53.9,334.1,53,334.1 M50.1,326.9c0-0.9-0.8-1.7-1.7-1.7  s-1.7,0.8-1.7,1.7c0,0.9,0.8,1.7,1.7,1.7S50.1,327.9,50.1,326.9 M43.3,339.2c-0.9,0-1.7,0.8-1.7,1.7c0,0.9,0.8,1.7,1.7,1.7  c0.9,0,1.7-0.8,1.7-1.7C45,340,44.2,339.2,43.3,339.2 M44.3,326.2c0-0.9-0.8-1.7-1.7-1.7c-0.9,0-1.7,0.8-1.7,1.7  c0,0.9,0.8,1.7,1.7,1.7C43.6,327.9,44.3,327.2,44.3,326.2 M36.2,313.5c0.9,0,1.7-0.8,1.7-1.7c0-0.9-0.8-1.7-1.7-1.7  s-1.7,0.8-1.7,1.7C34.5,312.7,35.2,313.5,36.2,313.5 M53,328.4c-0.9,0-1.7,0.8-1.7,1.7c0,0.9,0.8,1.7,1.7,1.7c0.9,0,1.7-0.8,1.7-1.7  C54.7,329.2,53.9,328.4,53,328.4 M41.9,313.2c0.9,0,1.7-0.8,1.7-1.7s-0.8-1.7-1.7-1.7s-1.7,0.8-1.7,1.7S41,313.2,41.9,313.2   M30.8,315.5c0.9,0,1.7-0.8,1.7-1.7c0-0.9-0.8-1.7-1.7-1.7c-1,0.1-1.7,0.8-1.7,1.8C29.1,314.8,29.8,315.5,30.8,315.5 M52.4,317.3  c0.9,0,1.7-0.8,1.7-1.7c0-0.9-0.8-1.7-1.7-1.7s-1.7,0.8-1.7,1.7C50.7,316.5,51.4,317.3,52.4,317.3 M47.6,314.2  c0.9,0,1.7-0.8,1.7-1.7c0-0.9-0.8-1.7-1.7-1.7c-0.9,0-1.7,0.8-1.7,1.7C45.9,313.4,46.6,314.2,47.6,314.2"/>
</svg>