<svg xmlns="http://www.w3.org/2000/svg" xmlns:xlink="http://www.w3.org/1999/xlink" version="1.1" id="layer" x="0px" y="0px" style="enable-background:new 0 0 652 652;" xml:space="preserve" viewBox="20.4 244.7 599.95 152.1">
<style type="text/css">
	.st0{fill:#13233F;}
	.st1{fill:#4F86FA;}
</style>
<title>Matrix_BW_Logo</title>
<desc>Created with Sketch.</desc>
<path class="st0" d="M34.2,366.7c5.8,8.4,15.6,12.6,24.8,12.6c7.7,0,13.5-5,13.5-10c0-16.8-45.7-13.5-45.8-43.8  c0-17.4,15.3-26.8,29.9-26.8c12.4,0,22.5,4.7,29.1,13.7c-4.6,3.6-9,7.4-13.3,11.2c-3.7-4.9-9.4-7.9-15.6-8c-5.6,0-10.4,3.2-10.4,9  c0,14.6,46.3,13.7,46.4,43.4c0,16.2-12.9,28.8-34.1,28.8c-15.8,0-29.7-5.9-38.3-18.1L34.2,366.7z M122.6,300.5l-0.1-36.7h20.9  l0.1,36.7h14.8v19h-14.8l0.1,75.2h-20.9l-0.1-75.2h-14.8v-19H122.6z M172.1,347.3c0-27.5,21.3-49.1,48.4-49.2  c26.9,0,48.5,21.5,48.6,49c0,27.7-21.5,49.3-48.4,49.4C193.6,396.6,172.2,375.1,172.1,347.3z M248.5,347.2c0-17.8-11.2-30.7-28-30.7  c-17,0-28.1,13.2-28,30.8c0,18,11.8,30.9,28.2,30.9C237.4,378.1,248.6,365.1,248.5,347.2L248.5,347.2z M297.5,300.2l-0.1-36.7h20.9  l0.1,36.7h14.8v19h-14.8l0.1,75.2h-20.9l-0.1-75.2h-14.8v-19H297.5z M353.2,394.3l-0.3-149.6H374l0.3,149.6L353.2,394.3z   M394.6,346.9c0-26.9,18.2-49.1,46.8-49.1c30.5-0.1,44.1,22.2,44.2,49v5.1l-70.2,0.1c2,18.4,14.4,26.7,28.2,26.7  c12.8,0,21.5-6.2,26.7-13.8l14.2,10.7c-9.4,12.4-20.1,20.4-41.7,20.4C414.2,396.2,394.6,375.1,394.6,346.9z M415.9,338.1l48.9-0.1  c-1.8-14.2-10.6-22.9-23.6-22.9C429,315.2,418.7,322.9,415.9,338.1L415.9,338.1z M512.7,365.9c5.8,8.4,15.6,12.6,24.8,12.6  c7.7,0,13.5-5,13.5-10c0-16.8-45.7-13.5-45.8-43.8c0-17.4,15.3-26.8,29.9-26.8c12.4,0,22.5,4.7,29.1,13.7c-4.6,3.6-9,7.4-13.3,11.2  c-3.7-4.9-9.4-7.9-15.6-8c-5.6,0-10.4,3.2-10.4,9c0,14.6,46.3,13.7,46.4,43.4c0,16.2-12.9,28.8-34.1,28.8  c-15.8,0-29.7-5.9-38.3-18.1L512.7,365.9z"/>
<path id="Path_5_" class="st1" d="M605.4,366.1c6-0.1,11.5,3.5,13.8,9.1c2.3,5.6,1.1,12-3.2,16.2c-4.3,4.3-10.7,5.5-16.2,3.2  c-5.6-2.3-9.2-7.8-9.2-13.8C590.8,372.8,597.3,366.3,605.4,366.1z"/>
</svg>