<svg xmlns="http://www.w3.org/2000/svg" viewBox="0 0 621.53 136.28"><title>logoAsset 1</title><g id="Layer_2" data-name="Layer 2"><g id="Layer_1-2" data-name="Layer 1"><path d="M584.08,11.77c1.66,4.76,6,14.32,9.12,16.48,2.85,1.92,12.7,1.66,18.35,1.44-3.65,3.37-11.52,7.65-13,13.34-1.31,4.68,2.4,14.16,4.14,18.52-3.71-2.9-12.49-8.78-15.88-8.8-4.44-.06-12.13,7.07-15.34,9.91.85-3.35,4.4-14.12,2.91-18.66s-8.14-8.24-15.16-13.18c7.06-.79,16.55-.26,19.19-2.69,2.46-2.26,4.34-11.78,5.67-16.36m2.38,49.64c-.12-.06,16.9,12.84,23,10,6.22-2.92-2.14-24-2.2-26.8,4.62-4.28,14.21-11.83,14.27-17.27s-7.85-6.5-23-6.36C596.05,15.62,589.21.06,583.82,0c-5.77,0-10.29,16.81-11.26,21.07-14,.71-24.74,1.76-24.82,8.05-.06,5.45,11,14.09,17.49,17.6-1.15,6.16-4.78,21.61-.86,24.78,5.06,4.06,17-6.21,22.09-10.09"/><path d="M70.21,79.11c1.9,13.19,6.66,31.46,19.52,31.58,7.18.06,13.14-6,18.08-16.39,1.67,9.55,6.38,16.63,14.35,16.73,12.17.16,14.87-19.19,26.25-24.5,5.17-2.38,10.42-2.24,15.91-2.2,14.17.14,16.53,1.82,16.47,9.25,0,2.52-.16,6-2.38,7.75-2.49,1.91-8.91,1.75-12.46,1.75-3.35-.06-11.54-.79-12.29-4.7a13.7,13.7,0,0,1-.12-3c0-2.12-2.18-2.84-4.56-2.86-3.29,0-4.58,1.53-4.6,3.35l-.26,29.81c0,1.19.56,2.92,4.15,3,4.08,0,4.93-1.35,5-3.45l.12-17c2.87,2.08,6.92,2.94,16,3.11,17.24.24,21.15-6,21.23-17.4,0-7.53-2.05-11.24-4.07-13C182.89,77.83,179,76.14,164,76c-10.95-.12-16.67,1.85-21.35,4.74C131.87,87.3,128,103.06,122.44,103c-7-.06-7.77-16.61-7.91-24.36-.14-3.55-8.33-4-9.12-1.59-2.52,9-8.6,25.39-15,25.33-6.15,0-9.62-15.6-10.81-25.37-.17-1.5-1.58-1.78-3.44-1.7-5.46.26-6.23,1.6-5.91,3.78m198.37.2c-8.18-.08-9.87,14.37-23.35,21.49-5.09,2.64-11.87,3.57-20.63,3.49-14-.12-17.21-1.45-17.15-10.69,0-1.92.12-4.08,1.29-5.65,2.36-3.27,10.25-3.35,14.37-3.31,9.68.08,10.81,1,10.77,4.23s-1,3.33-7,3.39l-3.53,0c-1.37,0-3-.18-3,2.47,0,2.42-.14,3.63,1.37,3.93a29.48,29.48,0,0,0,4.83.41c12.83.1,17.09-4.12,17.15-10.48.06-8.23-3.95-11.91-21.33-12-9-.1-21.39,1.09-23.79,11.08a30.43,30.43,0,0,0-.91,7.23c-.12,15.58,13.3,17.15,27.93,17.27,21.74.2,33.7-10,41.13-23.17,1.49,6.85,1.13,23.35,11.22,23.42,12.33.1,11.34-26.54,27.45-26.4l2.18.08c2.56,0,3.07-2.26,3.11-5,0-3.47-.77-4.07-4.91-4.11-11.64-.1-17.78,9.18-22.46,18.58-2.77,5.63-3.63,8.56-4.48,8.54-2.4,0-.71-24.62-10.23-24.7M530.72,128c6.92,0,12.83-6.48,13.74-13.4-7.93.24-18.43,3-18.47,9.28,0,2,1.64,4.08,4.73,4.12m-101.62-50c-11.62-.09-18.1,9.2-22.78,18.56-2.81,5.65-3.66,8.56-4.5,8.56-2.41,0-.67-24.62-10.22-24.72-10.05-.08-16.85,24.48-24.8,24.4-2.46,0-3.53-2.65-3.47-10l.3-32.64c0-2.06-.87-3.19-4.94-3.23-3.59,0-4.32,1.72-4.34,2.87l-.18,19.68c-3.09-2.45-11.93-3.88-19.28-3.92C318,77.37,312.79,84.62,312.71,95c0,5,1.34,10.19,4.61,13.14,4.5,4.13,11.36,4.56,16.89,4.7,5.24.06,13.12-.32,15.32-1.58a2.83,2.83,0,0,0,1.41-2.76c0-2.3-.93-5-3.09-5a95.19,95.19,0,0,1-14.13,1c-8.61-.06-11.2-3.12-11.12-10.57,0-5.59,1.76-8.19,13.77-8.11,5.08.08,14.06.42,16.4,4.15,1,1.68,1,3.41,1.34,7.81.8,10.56,4.9,15.22,11.06,15.28,12.71.12,17.66-15.2,24.52-23.07,1.53,6.86,1.11,23.37,11.28,23.45,12.31.11,11.66-26.55,27.71-26.41,2.32,0,3.43.24,4.22.24,2.74,0,3.39-2.42,3.39-5.19,0-3.41-.79-4.05-7.19-4.09m82.34,28.55c-5.38-1.37-11-3.45-10.93-12.23.12-11.44,9.34-15.21,27.26-15,7.93.06,15,1.53,20.44,5.63,6.52,4.86,7.21,14.12,6.95,21.55,3.21-.14,8.53.08,11.18.1,2.82,0,3.17,2,3.15,3.7,0,2-.19,4.6-2.81,4.56-3.95,0-11.89-.23-12.75-.19-3,12.42-11.91,21.74-23.48,21.62-7.22-.06-14-4.24-14-12,.1-11,14.11-17.13,28.9-17.54.3-3.87.2-8.29-1.31-11.76-2.93-6.78-10.32-7.33-18.15-7.39-13.7-.12-16,2-16.06,7.37-.06,7.71,13.34,5.49,13.3,11.32,0,5.23-11.65,8.46-20.51,8.41-13.28-.12-22.42-6.09-25.2-18.91-4.34,11.25-11,18.41-18.15,18.37-12.87-.1-17.72-18.39-19.63-31.56-.31-2.2.56-3.56,6-3.84,1.9-.08,3.29.28,3.47,1.72,1.19,9.8,4.7,25.36,10.84,25.39,6.42.06,12.49-16.29,15-25.35.82-2.38,9-1.94,9.14,1.63-.18,20.22,8,27.21,27.32,24.83ZM68,62.34C68.11,51,51.7,49.78,43.69,49.68a81.05,81.05,0,0,0-27.87,4.91C9.08,57.11.06,61.71,0,70.17c-.1,11,17.13,15.13,31.89,19C43.05,92.06,52.07,94.4,52,98.94c-.06,5.9-15.42,5.19-19,5.19-14.55-.14-23.64-3.19-24.89-3.19-2.76,0-4.44,7.43-1.59,8.32A89.22,89.22,0,0,0,31.34,113c19.54.18,30.42-3.83,30.52-14.13.08-9.68-11.37-14.37-26.7-18.3-11.41-2.91-25.33-6-25.27-10.39,0-3.88,5.41-6.16,9.48-7.69a66.28,66.28,0,0,1,23.6-4c2.36,0,15.5.1,15.48,4.46,0,1.13-.89,2.26-2.89,3.37-2.68,1.45.65,8.34,3.93,6.94C64.28,71.3,68,67.1,68,62.34"/></g></g></svg>