<svg xmlns="http://www.w3.org/2000/svg" xmlns:xlink="http://www.w3.org/1999/xlink" version="1.1" id="layer" x="0px" y="0px" style="enable-background:new 0 0 652 652;" xml:space="preserve" viewBox="26.1 269.9 600.2 112">
<style type="text/css">
	.st0{fill:#032555;}
</style>
<path class="st0" d="M204,336.2c0,1.7-0.3,3.1-0.8,4.4c-0.6,1.3-1.3,2.5-2.3,3.5c-1,1-2.1,1.9-3.4,2.6c-1.3,0.7-2.6,1.3-4.1,1.8  c-1.5,0.5-2.9,0.8-4.5,1c-1.5,0.2-3,0.3-4.5,0.3c-3.2,0-6.1-0.1-8.8-0.4c-2.7-0.3-5.3-0.7-7.8-1.4v-7.5c2.7,0.8,5.5,1.4,8.2,1.8  c2.7,0.4,5.4,0.6,8.1,0.6c3.9,0,6.8-0.5,8.7-1.6c1.9-1.1,2.8-2.6,2.8-4.5c0-0.8-0.1-1.6-0.4-2.3c-0.3-0.7-0.8-1.3-1.6-1.9  c-0.8-0.6-2-1.2-3.6-1.9c-1.6-0.7-3.9-1.4-6.7-2.2c-2.1-0.6-4.1-1.3-5.9-2.1s-3.3-1.7-4.7-2.8c-1.3-1.1-2.3-2.4-3.1-3.8  s-1.1-3.2-1.1-5.2c0-1.3,0.3-2.7,0.9-4.3c0.6-1.6,1.6-3,3.1-4.4c1.5-1.3,3.4-2.5,5.9-3.3c2.5-0.9,5.6-1.3,9.4-1.3  c1.8,0,3.9,0.1,6.1,0.3c2.2,0.2,4.6,0.6,7,1.1v7.3c-2.6-0.6-5-1.1-7.3-1.4s-4.3-0.4-6-0.4c-2,0-3.7,0.2-5.1,0.5s-2.5,0.7-3.4,1.3  c-0.9,0.5-1.5,1.2-1.8,1.9c-0.4,0.7-0.6,1.5-0.6,2.4s0.2,1.6,0.5,2.3c0.3,0.7,0.9,1.3,1.8,2c0.9,0.6,2.1,1.3,3.7,1.9  c1.6,0.6,3.7,1.3,6.2,2.1c2.8,0.8,5.1,1.7,7,2.6c1.9,0.9,3.4,1.9,4.6,3s2,2.3,2.6,3.7S204,334.4,204,336.2z M263,302l-6.8,47h-9.9  l-6.8-19.7l-1.4-4.8l-1.5,5.1l-6.5,19.4h-9.6l-6.8-47h8l3.9,31.9l0.8,7.1l2-6.2l6.8-21.1h5.9l7.3,20.8l2.1,6.2l0.7-6.6L255,302H263z   M311.9,323c0,1.2,0,2.1,0,2.9c0,0.8-0.1,1.5-0.1,2.2h-33c0,4.8,1.3,8.5,4,11.1c2.7,2.6,6.6,3.9,11.6,3.9c1.4,0,2.7-0.1,4.1-0.2  c1.4-0.1,2.7-0.3,4-0.4s2.5-0.4,3.7-0.6s2.3-0.5,3.3-0.8v6.7c-2.2,0.6-4.7,1.1-7.5,1.5c-2.8,0.4-5.7,0.6-8.7,0.6  c-4,0-7.5-0.5-10.4-1.6c-2.9-1.1-5.3-2.7-7.1-4.8c-1.9-2.1-3.2-4.6-4.1-7.6s-1.3-6.4-1.3-10.2c0-3.3,0.5-6.4,1.4-9.4  c1-2.9,2.3-5.5,4.2-7.8c1.8-2.2,4.1-4,6.7-5.3c2.7-1.3,5.7-2,9-2c3.3,0,6.2,0.5,8.7,1.5c2.5,1,4.7,2.5,6.4,4.4  c1.7,1.9,3,4.2,3.9,6.9C311.5,316.7,311.9,319.7,311.9,323z M303.4,321.9c0.1-2.1-0.1-4-0.6-5.7c-0.5-1.7-1.3-3.2-2.3-4.5  c-1-1.2-2.3-2.2-3.9-2.9c-1.6-0.7-3.4-1.1-5.4-1.1c-1.8,0-3.4,0.3-4.9,1c-1.5,0.7-2.7,1.7-3.8,2.9c-1.1,1.2-1.9,2.7-2.6,4.5  c-0.7,1.7-1.1,3.7-1.2,5.8H303.4z M355.1,349l-0.2-6.3c-2.6,2.5-5.2,4.4-7.8,5.5c-2.6,1.1-5.4,1.7-8.3,1.7c-2.7,0-5-0.3-6.9-1  c-1.9-0.7-3.5-1.6-4.7-2.8c-1.2-1.2-2.1-2.6-2.7-4.2c-0.6-1.6-0.9-3.4-0.9-5.3c0-4.7,1.8-8.4,5.3-11.1c3.5-2.7,8.7-4,15.6-4h9.7  v-4.1c0-2.8-0.9-5-2.7-6.7c-1.8-1.7-4.5-2.5-8.1-2.5c-2.7,0-5.3,0.3-7.8,0.9c-2.6,0.6-5.2,1.4-8,2.5v-7.3c1-0.4,2.2-0.7,3.4-1.1  s2.6-0.7,4-1c1.4-0.3,2.9-0.5,4.4-0.7c1.5-0.2,3.1-0.3,4.6-0.3c2.8,0,5.4,0.3,7.7,0.9c2.3,0.6,4.2,1.6,5.8,2.9s2.8,2.9,3.6,4.8  s1.3,4.2,1.3,6.8V349H355.1z M354.2,327.6h-10.3c-2,0-3.8,0.2-5.2,0.6c-1.5,0.4-2.7,1-3.6,1.7c-0.9,0.7-1.6,1.6-2.1,2.7  c-0.5,1-0.7,2.2-0.7,3.5c0,0.9,0.1,1.8,0.4,2.6c0.3,0.8,0.7,1.6,1.4,2.2c0.6,0.6,1.4,1.1,2.4,1.5c1,0.4,2.2,0.6,3.7,0.6  c1.9,0,4-0.6,6.4-1.7s5-2.9,7.7-5.4V327.6z M415.5,348.3c-1.8,0.5-3.7,0.8-5.7,1c-2,0.2-4,0.3-6,0.3c-5.9,0-10.3-1.3-13.2-4  s-4.4-6.8-4.4-12.3v-24.5h-13.2V302h13.2v-12.9l8.1-2.1v15h21.1v6.8h-21.1v23.9c0,3.4,0.9,5.9,2.7,7.6c1.8,1.7,4.4,2.5,7.9,2.5  c1.5,0,3.1-0.1,4.9-0.4c1.8-0.2,3.6-0.6,5.6-1.1V348.3z M466.8,347.3c-2.1,0.8-4.3,1.4-6.5,1.8c-2.2,0.4-4.5,0.6-6.9,0.6  c-7.4,0-13.1-2-17.2-6s-6-9.9-6-17.6c0-3.7,0.6-7.1,1.7-10.1s2.8-5.6,4.9-7.8c2.1-2.2,4.6-3.8,7.5-5c2.9-1.2,6.1-1.8,9.6-1.8  c2.4,0,4.7,0.2,6.8,0.5c2.1,0.3,4.2,0.9,6.1,1.7v7.8c-2-1.1-4.1-1.8-6.2-2.3c-2.1-0.5-4.3-0.7-6.5-0.7c-2.1,0-4.1,0.4-5.9,1.2  s-3.5,1.9-4.9,3.4s-2.5,3.3-3.3,5.5c-0.8,2.2-1.2,4.6-1.2,7.3c0,5.7,1.4,9.9,4.1,12.8c2.8,2.8,6.6,4.2,11.5,4.2  c2.2,0,4.4-0.2,6.4-0.7c2.1-0.5,4.1-1.2,6-2.2V347.3z M523.9,325.1c0,3.7-0.5,7-1.5,10c-1,3-2.5,5.6-4.4,7.8s-4.3,3.9-7.1,5.1  c-2.8,1.2-5.9,1.8-9.5,1.8c-3.4,0-6.4-0.5-9.1-1.6c-2.7-1-4.9-2.6-6.8-4.6c-1.9-2-3.3-4.5-4.3-7.5c-1-3-1.5-6.4-1.5-10.3  c0-3.7,0.5-7,1.5-10s2.5-5.6,4.4-7.8s4.3-3.9,7.1-5.1c2.8-1.2,5.9-1.8,9.5-1.8c3.4,0,6.4,0.5,9.1,1.6c2.7,1,4.9,2.6,6.8,4.6  c1.9,2,3.3,4.5,4.3,7.5C523.5,317.8,523.9,321.3,523.9,325.1z M515.6,325.5c0-2.9-0.3-5.4-1-7.6c-0.6-2.2-1.6-4-2.7-5.4  s-2.6-2.5-4.3-3.3s-3.6-1.1-5.7-1.1c-2.4,0-4.5,0.5-6.2,1.4c-1.7,1-3.2,2.2-4.3,3.8s-1.9,3.4-2.4,5.5c-0.5,2.1-0.8,4.3-0.8,6.6  c0,2.9,0.3,5.4,1,7.6s1.6,4,2.7,5.5c1.2,1.5,2.6,2.5,4.3,3.3c1.7,0.7,3.6,1.1,5.7,1.1c2.4,0,4.5-0.5,6.2-1.4c1.7-1,3.2-2.2,4.3-3.8  c1.1-1.6,1.9-3.4,2.4-5.5C515.4,330.1,515.6,327.8,515.6,325.5z M551.7,308.7h-13.9V302H560v40.2h14v6.8h-37.7v-6.8h15.4V308.7z   M554.6,282.3c0.9,0,1.7,0.2,2.5,0.5c0.8,0.3,1.5,0.8,2,1.4c0.6,0.6,1,1.3,1.4,2c0.3,0.8,0.5,1.6,0.5,2.5c0,0.9-0.2,1.7-0.5,2.5  s-0.8,1.5-1.4,2.1c-0.6,0.6-1.3,1.1-2,1.4c-0.8,0.3-1.6,0.5-2.5,0.5s-1.7-0.2-2.5-0.5c-0.8-0.3-1.5-0.8-2-1.4  c-0.6-0.6-1-1.3-1.4-2.1s-0.5-1.6-0.5-2.5c0-0.9,0.2-1.7,0.5-2.5c0.3-0.8,0.8-1.4,1.4-2c0.6-0.6,1.3-1.1,2-1.4  C552.9,282.5,553.7,282.3,554.6,282.3z M588.4,302h7.3l0.3,7.6c1.4-1.6,2.7-3,4-4c1.3-1.1,2.5-1.9,3.8-2.6c1.2-0.7,2.5-1.1,3.8-1.4  c1.3-0.3,2.6-0.4,4-0.4c4.8,0,8.5,1.4,11,4.3c2.5,2.9,3.7,7.2,3.7,12.9V349h-8.1v-30c0-3.7-0.7-6.4-2.1-8.2  c-1.4-1.8-3.4-2.6-6.1-2.6c-1,0-2,0.1-2.9,0.4c-1,0.3-1.9,0.8-3,1.5c-1,0.7-2.1,1.7-3.3,3c-1.2,1.2-2.6,2.8-4,4.7V349h-8.1V302z"/>
<path class="st0" d="M82.1,376.8c6.9,0,13.5-1.3,19.8-4c6-2.5,11.5-6.2,16.2-10.9c4.7-4.7,8.3-10.1,10.9-16.2c2.7-6.3,4-12.9,4-19.8  s-1.3-13.5-4-19.8c-2.6-6-6.2-11.5-10.9-16.2c-4.6-4.6-10.1-8.3-16.2-10.9c-6.3-2.6-13-4-19.8-4c-6.8,0-13.5,1.3-19.8,4  c-6,2.5-11.5,6.2-16.2,10.9c-4.6,4.6-8.3,10.1-10.9,16.2c-2.7,6.3-4,12.9-4,19.8c0,6.9,1.3,13.5,4,19.8c2.6,6.1,6.2,11.5,10.9,16.2  c4.6,4.6,10.1,8.3,16.2,10.9C68.6,375.5,75.3,376.8,82.1,376.8L82.1,376.8z M82.1,381.9c-7.5,0-14.9-1.5-21.8-4.4  c-6.6-2.8-12.7-6.9-17.8-12c-5.1-5.1-9.2-11.1-12-17.8c-2.9-6.9-4.4-14.2-4.4-21.8s1.5-14.9,4.4-21.8c2.8-6.6,6.9-12.7,12-17.8  c5.1-5.1,11.1-9.2,17.8-12c6.9-2.9,14.2-4.4,21.8-4.4s14.9,1.5,21.8,4.4c6.6,2.8,12.7,6.9,17.8,12c5.1,5.1,9.2,11.1,12,17.8  c2.9,6.9,4.4,14.2,4.4,21.8s-1.5,14.9-4.4,21.8c-2.8,6.7-6.9,12.6-12,17.8c-5.1,5.1-11.1,9.2-17.8,12  C97,380.4,89.7,381.9,82.1,381.9z M81.3,353.9c-7.1-0.4-12.1-2.8-16.4-6.6l3.8-3.9l0.2,0.1c3.9,3.2,9,5.2,14.8,5  c8.9-0.4,14.6-5.3,15.5-11.2c0.9-6-1.9-11.5-9.9-13.3c-2-0.4-3.6-0.5-6.9-0.5c-2.5,0-3.5-0.1-4.7-0.3c-5.5-1-7-3.9-6.5-7.6  c0.5-3.4,4.1-6.6,10.6-6.9c4.4-0.2,8.3,1.4,11.4,3.9l1.4,1.1l0.5,0.4l1.8,1.6l10.8-11l-1.8-1.8c-0.2-0.2-0.5-0.5-1-1  c-5.4-5-11.6-8.4-20.6-8.9c-5.8-0.3-11.4,0.8-16,3c-1.5,0.7-2.9,1.6-4.3,2.6c-1.5,1.1-3,2.3-4.3,3.6c-0.8,0.8-1.3,1.4-1.6,1.7l4,3.2  c0,0,0.1-0.1,0.3-0.3c0.3-0.3,0.6-0.7,0.9-1c1-1,2.3-2.1,3.6-3.1c1.1-0.8,2.3-1.5,3.6-2.2c3.7-1.8,8.5-2.8,13.4-2.5  c7.1,0.4,12.1,2.8,16.4,6.6l-3.8,3.9l-0.2-0.1c-3.9-3.2-9-5.2-14.8-5c-8.9,0.4-14.6,5.3-15.5,11.2c-0.9,6.2,2.1,11.9,10.6,13.4  c1.6,0.3,2.8,0.3,5.6,0.3c3,0,4.3,0.1,5.9,0.4c5,1.1,6.5,3.9,5.9,7.5c-0.5,3.4-4.1,6.6-10.6,6.9c-4.4,0.2-8.3-1.4-11.4-3.9l-1.4-1.1  l-0.5-0.4l-1.8-1.6l-10.8,11l1.8,1.8c0.2,0.2,0.5,0.5,1,1c5.4,5,11.6,8.4,20.6,8.9c5.8,0.3,11.4-0.8,16-3.1c1.5-0.7,2.9-1.6,4.3-2.6  c1.5-1.1,3-2.3,4.3-3.6c0.8-0.8,1.3-1.4,1.6-1.7l-4-3.2c0,0-0.1,0.1-0.3,0.3c-0.3,0.3-0.6,0.7-0.9,1c-1,1-2.3,2.1-3.6,3.1  c-1.1,0.8-2.3,1.5-3.6,2.2C91,353.2,86.3,354.2,81.3,353.9z"/>
</svg>