<?xml version="1.0" encoding="utf-8"?>
<!-- Generator: Adobe Illustrator 19.2.1, SVG Export Plug-In . SVG Version: 6.00 Build 0)  -->
<svg version="1.1" id="layer" xmlns="http://www.w3.org/2000/svg" xmlns:xlink="http://www.w3.org/1999/xlink" x="0px" y="0px"
	 viewBox="0 0 652 652" style="enable-background:new 0 0 652 652;" xml:space="preserve">
<style type="text/css">
	.st0{fill:#0B3850;}
	.st1{fill:#96D3E1;}
	.st2{fill:#082330;}
</style>
<path class="st0" d="M128.2,238.8l-22.2,11.4c-3.9-6.2-7.6-10.3-11.2-12.2c-3.7-2.1-8.4-3.2-14.4-3.2c-7.1,0-13.1,1.8-17.8,5.6
	s-7.1,8.3-7.1,13.7c0,7.6,6.2,13.7,18.6,18.4l17.1,6.4c13.9,5.1,24,11.4,30.5,18.9c6.5,7.5,9.7,16.4,9.7,27.2
	c0,14.4-5.2,26.3-15.7,35.7c-10.6,9.5-23.6,14.2-39.3,14.2c-14.9,0-27.1-4-36.8-12c-9.5-8.2-15.4-19.5-17.8-34.1l26.2-5.3
	c1.2,9.2,3.2,15.5,6.2,19.1c5.3,6.8,13.1,10.1,23.3,10.1c8.1,0,14.7-2.4,20-7.4c5.3-5,8-11.2,8-18.8c0-2.9-0.5-5.7-1.4-8.4
	c-1-2.6-2.4-5-4.3-7c-2.2-2.3-4.8-4.4-7.6-6c-3.5-2-7.2-3.8-11.1-5.3l-16.5-6.3c-23.4-9-35.1-22.3-35.2-39.7
	c0-11.7,4.9-21.5,14.7-29.5c9.8-8,22.1-12,36.7-12C100.4,212.5,117.1,221.3,128.2,238.8L128.2,238.8z M135.1,252.8l33.3,72.6
	l30.5-71.4l30.7,71.4l31.3-69.2l48-43.7l-23.6,51.3l-56.5,116l-30-69.5l-30.4,69.5l-56.4-116L135.1,252.8z M270.5,317
	c0-15.6,5.6-28.8,16.7-39.8c11.1-10.9,24.7-16.4,40.8-16.4s29.8,5.5,41,16.5c11.1,11,16.6,24.5,16.6,40.6c0,16.2-5.6,29.7-16.7,40.6
	c-11.2,10.9-25,16.3-41.3,16.3c-16.2,0-29.7-5.6-40.6-16.6C276.1,347.2,270.6,333.5,270.5,317L270.5,317z M296,317.4
	c0,10.8,2.9,19.3,8.6,25.6c5.9,6.4,13.6,9.5,23.4,9.5c9.8,0,17.5-3.1,23.4-9.4c5.9-6.3,8.7-14.7,8.7-25.2c0-10.5-2.9-18.9-8.7-25.2
	c-5.9-6.4-13.6-9.5-23.4-9.5c-9.5,0-17.2,3.2-23.2,9.5C299,299.1,296,307.3,296,317.4L296,317.4z M390.9,317
	c0-15.6,5.6-28.8,16.7-39.8c11.1-10.9,24.7-16.4,40.8-16.4c16.1,0,29.8,5.5,41,16.5c11.1,11,16.6,24.5,16.6,40.6
	c0,16.2-5.6,29.7-16.7,40.6s-25,16.3-41.3,16.3c-16.2,0-29.7-5.6-40.6-16.6C396.4,347.2,391,333.5,390.9,317L390.9,317z
	 M416.4,317.4c0,10.8,2.9,19.3,8.6,25.6c5.9,6.4,13.6,9.5,23.4,9.5c9.8,0,17.5-3.1,23.4-9.4s8.7-14.7,8.7-25.2
	c0-10.5-2.9-18.9-8.7-25.2c-5.9-6.4-13.6-9.5-23.4-9.5c-9.5,0-17.2,3.2-23.2,9.5C419.3,299.1,416.4,307.3,416.4,317.4L416.4,317.4z
	 M537,430l-24.9,0.3V269.7l24.9,0.4v5.3c9.8-9.8,21-14.7,33.4-14.7c14.9,0,27.1,5.5,36.7,16.4c9.8,10.9,14.6,24.6,14.6,41.1
	c0,16.2-4.8,29.6-14.5,40.5c-9.6,10.7-21.7,16.1-36.4,16.1c-12.6,0-24-5.1-33.9-15.2L537,430L537,430L537,430z M596.3,318.4
	c0-10.3-2.8-18.8-8.4-25.2c-5.3-6.4-13.2-10-21.5-9.8c-9.2,0-16.6,3.2-22.2,9.5c-5.6,6.4-8.5,14.7-8.5,25.1
	c0,10.1,2.9,18.4,8.5,25.1c5.6,6.4,13,9.7,22.2,9.7c8.2,0.2,16.1-3.4,21.4-9.8C593.4,336.3,596.3,328.1,596.3,318.4L596.3,318.4
	L596.3,318.4z"/>
<path class="st1" d="M305.8,240.8l-19.1,22.1l-25.8-6.7L305.8,240.8z"/>
<path class="st2" d="M301.4,255.4l-17.3,10.9l-23.3-10.2L301.4,255.4z"/>
</svg>
