<svg xmlns="http://www.w3.org/2000/svg" fill="none" viewBox="0 0 165 41">
<g clip-path="url(#clip0_1_2)">
<path d="M9.81197 11.608V22.41C9.81197 24.94 10.912 26.15 13.772 26.15C14.432 26.15 15.334 26.106 15.884 26.04V29.736C14.982 30.242 13.574 30.528 12.232 30.528C7.43597 30.528 4.79597 27.954 4.79597 22.63V11.608H0.417969V7.208H4.79597V1.752L9.81197 0.608002V7.208H15.62V11.608H9.81197Z" fill="#0D213D"/>
<path d="M17.6966 18.604C17.6966 11.982 22.4046 6.68 28.8286 6.68C32.1506 6.68 34.9226 8.066 36.8366 10.31V7.208H41.8306V30H36.8366V26.92C34.9226 29.142 32.1506 30.528 28.8286 30.528C22.4046 30.528 17.6966 25.248 17.6966 18.604ZM22.7786 18.604C22.7786 22.762 25.8146 26.062 29.8186 26.062C33.8226 26.062 36.8366 22.762 36.8366 18.604C36.8366 14.468 33.8666 11.146 29.8186 11.146C25.7706 11.146 22.7786 14.468 22.7786 18.604Z" fill="#0D213D"/>
<path d="M58.1907 6.68C63.6687 6.68 67.2987 10.332 67.2987 15.942V30H62.2827V16.382C62.2827 13.302 60.1927 11.146 57.1567 11.146C54.0327 11.146 51.2607 13.742 51.2607 17.46V30H46.2227V7.208H51.2607V10.244C52.8007 8.132 55.2867 6.68 58.1907 6.68Z" fill="#0D213D"/>
<path d="M70.5722 18.604C70.5722 11.982 75.2802 6.68 81.7042 6.68C85.0262 6.68 87.7982 8.066 89.7122 10.31V7.208H94.7062V28.966C94.7062 35.654 90.5262 40.208 82.8922 40.208C78.6682 40.208 75.4122 38.382 72.7282 35.302L75.2582 32.552C77.1502 34.554 79.7022 35.896 82.7382 35.896C86.9402 35.896 89.7122 33.432 89.7122 29.296V26.92C87.7982 29.142 85.0262 30.528 81.7042 30.528C75.2802 30.528 70.5722 25.248 70.5722 18.604ZM75.6542 18.604C75.6542 22.762 78.6902 26.062 82.6942 26.062C86.6982 26.062 89.7122 22.762 89.7122 18.604C89.7122 14.468 86.7422 11.146 82.6942 11.146C78.6462 11.146 75.6542 14.468 75.6542 18.604Z" fill="#0D213D"/>
<path d="M103.542 20.144C104.026 23.752 107.018 26.392 111.044 26.392C114.234 26.392 116.5 25.248 118.722 23.048L121.406 25.666C118.92 28.526 115.796 30.528 111.11 30.528C103.52 30.528 98.4383 25.248 98.4383 18.604C98.4383 11.982 103.674 6.68 110.67 6.68C117.556 6.68 122.44 11.85 122.44 18.164C122.44 18.802 122.352 19.594 122.22 20.144H103.542ZM110.648 10.816C107.304 10.816 104.51 13.126 103.696 16.316H117.226C116.588 13.126 114.036 10.816 110.648 10.816Z" fill="#0D213D"/>
<path d="M138.137 6.68C143.615 6.68 147.245 10.332 147.245 15.942V30H142.229V16.382C142.229 13.302 140.139 11.146 137.103 11.146C133.979 11.146 131.207 13.742 131.207 17.46V30H126.169V7.208H131.207V10.244C132.747 8.132 135.233 6.68 138.137 6.68Z" fill="#0D213D"/>
<path d="M158.382 11.608V22.41C158.382 24.94 159.482 26.15 162.342 26.15C163.002 26.15 163.904 26.106 164.454 26.04V29.736C163.552 30.242 162.144 30.528 160.802 30.528C156.006 30.528 153.366 27.954 153.366 22.63V11.608H148.988V7.208H153.366V1.752L158.382 0.608002V7.208H164.19V11.608H158.382Z" fill="#0D213D"/>
</g>
<defs>
<clipPath id="clip0_1_2">
<rect width="165" height="41" fill="white"/>
</clipPath>
</defs>
</svg>