<svg xmlns="http://www.w3.org/2000/svg" xmlns:xlink="http://www.w3.org/1999/xlink" version="1.1" id="layer" x="0px" y="0px" style="enable-background:new 0 0 652 652;" xml:space="preserve" viewBox="19.8 258.2 602 126.4">
<style type="text/css">
	.st0{fill:none;stroke:#000000;stroke-width:2;}
</style>
<g>
	<rect x="20.8" y="259.2" class="st0" width="600" height="124.4"/>
	<g>
		<path d="M87.9,294.8h-9.6v24.3h-4v-24.3h-9.6v-3.6h23.1L87.9,294.8L87.9,294.8z"/>
		<path d="M120.4,319.2h-4v-12.1h-15.5v12.1h-4v-27.9h4v12.1h15.6v-12.1h4v27.9H120.4z"/>
		<path d="M147.7,294.8H136v8.4h11.3v3.6H136v8.7h12.1v3.6H132v-27.7h15.7V294.8z"/>
		<path d="M202.4,319.5h-0.8l-9.1-22.8l-9.2,22.8h-0.8l-11.2-28.1h4l7.6,19.2l7.7-19.2h3.7l7.7,19.2l7.6-19.2h4L202.4,319.5z"/>
		<path d="M245.6,319.2h-4v-12.1H226v12.1h-4v-27.9h4v12.1h15.6v-12.1h4V319.2z"/>
		<path d="M261.1,319.2h-4v-27.9h4V319.2z"/>
		<path d="M293.3,294.8h-9.6v24.3h-4v-24.3h-9.6v-3.6h23.2V294.8L293.3,294.8z"/>
		<path d="M318.3,294.8h-11.7v8.4h11.3v3.6h-11.3v8.7h12.1v3.6h-16.1v-27.7h15.7V294.8z"/>
		<path d="M368.5,297.5c-3.5-2-6.4-2.9-9.6-2.9c-6.4,0-11.1,4.5-11.1,10.7c0,6.3,4.5,10.5,11.2,10.5c3.2,0,6.5-1.1,9.7-3.2v4.4    c-2.8,1.5-5.7,2.4-10.1,2.4c-10.4,0-15.1-8-15.1-13.9c0-8.5,6.4-14.7,15.2-14.7c2.8,0,5.7,0.7,9.6,2.3v4.4H368.5z"/>
		<path d="M381.9,305.4c0-6.1,4.7-10.7,10.8-10.7c6.3,0,10.8,4.5,10.8,10.7s-4.7,10.7-10.8,10.7    C386.5,315.8,381.9,311.4,381.9,305.4z M377.7,305.4c0,7.6,5.7,14.3,14.8,14.3c9.5,0,15.1-6.8,15.1-14.3c0-7.7-5.7-14.3-14.9-14.3    C383.6,291,377.7,297.5,377.7,305.4z"/>
		<path d="M443.6,319.2h-4v-21.7h-0.1l-8.5,10.8h-0.7l-8.5-10.8h-0.1v21.7h-4v-27.9h3.7l9.2,11.5l9.2-11.5h3.7L443.6,319.2    L443.6,319.2z"/>
		<path d="M460.3,294.8h4.7c3.6,0,4.8,2.3,4.8,4.3c0,2.8-1.9,4.4-4.9,4.4h-4.5V294.8L460.3,294.8z M456.3,291.4v27.9h4v-12h4.1    c6.4,0,9.3-3.5,9.3-7.9c0-4.4-2.8-8-8.8-8H456.3z"/>
		<path d="M492.9,297.4l4.5,10.1h-8.7L492.9,297.4z M494.3,291.2h-2.8l-12,28h4.1l3.5-8.1h11.9l3.7,8.1h4.1L494.3,291.2z"/>
		<path d="M540.9,319.2h-3.5l-18.5-21.5v21.5h-3.7v-27.9h3.2l18.8,21.6v-21.6h3.7V319.2z"/>
		<path d="M568.9,291.4h4.8l-10.3,13.2v14.7h-4v-14.7l-10.3-13.1h4.8l7.5,9.6L568.9,291.4z"/>
		<path d="M265.6,340.6h-2.1v12.9h8v-2.4c0,0-4.8,0-5.5,0c0-0.7,0-10.5,0-10.5H265.6L265.6,340.6z"/>
		<path d="M281.7,346.8c0,3.7,2.9,6.5,6.8,6.5c4.5,0,6.9-3.3,6.9-6.5c0-3.9-2.9-6.7-6.9-6.7C284.8,340.3,281.7,343.2,281.7,346.8z     M284.4,346.8c0-2.4,1.9-4.3,4.3-4.3c2.5,0,4.3,1.7,4.3,4.3c0,2.4-1.9,4.3-4.3,4.3C286.1,351.3,284.4,349.5,284.4,346.8z"/>
		<path d="M315.5,340.6h-2c0,0,0,7.1,0,8.7c-1.2-1.3-7.5-8.5-7.5-8.5l-1.7-0.1h-0.4v12.9h2.4c0,0,0-6.9,0-8.7    c1.2,1.3,7.3,8.5,7.3,8.5l1.7,0.1h0.4v-12.9H315.5z"/>
		<path d="M325.6,340.6h-0.4v12.9h5.1c4.4,0,6.8-3.3,6.8-6.4c0-3.1-2.1-6.4-6.8-6.4h-4.7V340.6z M329.9,342.8c2.8,0,4.5,1.5,4.5,4.1    c0,1.5-0.9,4.1-4.4,4.1c0,0-1.7,0-2.4,0c0-0.7,0-7.5,0-8.1C328.3,342.8,329.9,342.8,329.9,342.8z"/>
		<path d="M345.3,346.8c0,3.7,2.9,6.5,6.8,6.5c4.5,0,6.9-3.3,6.9-6.5c0-3.9-2.9-6.7-6.9-6.7C348.4,340.3,345.3,343.2,345.3,346.8z     M347.9,346.8c0-2.4,1.9-4.3,4.3-4.3c2.5,0,4.3,1.7,4.3,4.3c0,2.4-1.9,4.3-4.3,4.3C349.9,351.3,347.9,349.5,347.9,346.8z"/>
		<path d="M379.2,340.6h-2c0,0,0,7.1,0,8.7c-1.2-1.3-7.5-8.5-7.5-8.5l-1.7-0.1h-0.4v12.9h2.4c0,0,0-6.9,0-8.7    c1.2,1.3,7.3,8.5,7.3,8.5l1.7,0.1h0.4v-12.9H379.2z"/>
	</g>
</g>
</svg>