<svg xmlns:dc="http://purl.org/dc/elements/1.1/" xmlns:cc="http://creativecommons.org/ns#" xmlns:rdf="http://www.w3.org/1999/02/22-rdf-syntax-ns#" xmlns:svg="http://www.w3.org/2000/svg" xmlns="http://www.w3.org/2000/svg" xmlns:sodipodi="http://sodipodi.sourceforge.net/DTD/sodipodi-0.dtd" xmlns:inkscape="http://www.inkscape.org/namespaces/inkscape" focusable="false" aria-label="The Body Coach" version="1.1" id="svg2882" sodipodi:docname="A.svg" style="fill:none" inkscape:version="0.92.4 (5da689c313, 2019-01-14)" viewBox="0 0 1000 917.06">
  <metadata id="metadata2888">
    <rdf:RDF>
      <cc:Work rdf:about="">
        <dc:format>image/svg+xml</dc:format>
        <dc:type rdf:resource="http://purl.org/dc/dcmitype/StillImage"/>
        <dc:title/>
      </cc:Work>
    </rdf:RDF>
  </metadata>
  <defs id="defs2886"/>
  <sodipodi:namedview pagecolor="#ffffff" bordercolor="#111111" borderopacity="1" objecttolerance="10" gridtolerance="10" guidetolerance="10" inkscape:pageopacity="0" inkscape:pageshadow="2" inkscape:window-width="1920" inkscape:window-height="1017" id="namedview2884" showgrid="false" fit-margin-top="0" fit-margin-left="0" fit-margin-right="0" fit-margin-bottom="0" inkscape:zoom="0.43382353" inkscape:cx="989.74181" inkscape:cy="136.90125" inkscape:window-x="1912" inkscape:window-y="-8" inkscape:window-maximized="1" inkscape:current-layer="svg2882"/>
  <path d="M 576.60437,917.0556 A 17.291783,17.291783 0 0 1 575.1423,882.57044 C 797.65802,863.3386 965.45861,763.18685 965.45861,649.59529 c 0,-59.50903 -41.42999,-113.64778 -116.68439,-152.42073 a 17.265711,17.265711 0 1 1 15.82971,-30.6894 c 87.31648,44.98675 135.39602,110.02072 135.39602,183.11013 0,133.80748 -177.41646,246.2603 -421.89134,267.39001 a 12.821224,12.821224 0 0 1 -1.50424,0.0703 z M 445.21494,564.61251 C 527.10489,547.18014 646.4463,513.35573 750.05642,451.07719 796.449,423.21352 837.54159,386.26815 865.78483,347.05939 900.57928,298.75486 914.76416,248.45405 906.83525,201.55536 898.24559,150.91715 865.32091,105.66329 811.60392,70.657974 754.58321,33.557964 676.58743,9.9961535 586.06565,2.6014535 485.80142,-5.6086265 374.22022,5.6380635 254.42894,36.004124 a 17.547865,17.547865 0 1 0 8.61777,34.02123 c 116.0377,-29.41009 223.75286,-40.33344 320.15103,-32.4467 84.7438,6.91672 157.08812,28.55253 209.24463,62.517526 45.26792,29.5085 72.87854,66.62257 79.78119,107.36369 13.73502,81.06051 -60.53529,165.66372 -140.2462,213.54649 C 550.06219,530.33823 297.01171,561.95548 171.32997,556.52895 h -0.25305 C 99.983794,554.47643 54.673703,538.66078 40.081125,510.79711 c -6.579313,-12.55412 -6.621488,-28.48224 -0.09841,-43.69339 13.242976,-30.92839 51.298956,-56.73954 107.180935,-72.73795 9.32069,-2.67109 14.7191,-12.38542 12.03395,-21.70611 A 17.530775,17.530775 0 0 0 137.50556,360.61165 C 52.621181,384.90449 20.062019,424.42254 7.7047206,453.28436 -3.0077497,478.23795 -2.5157071,505.1597 8.969973,527.09075 c 21.453058,40.90982 74.115674,61.99736 160.968217,64.51381 10.1642,0.43581 20.67985,0.66074 31.51884,0.66074 72.90666,-0.0422 159.80138,-9.79867 243.77197,-27.66685 z" id="path2878" inkscape:connector-curvature="0" style="fill:#00cfda;stroke-width:14.0583601"/>
  <path d="m 438.93085,505.72204 c 39.99604,0 70.64326,-29.35386 70.64326,-67.8597 0,-38.73079 -30.64722,-67.85971 -70.64326,-67.85971 -39.99603,0 -70.64326,29.12892 -70.64326,67.85971 0,38.49179 30.64723,67.8597 70.64326,67.8597 z m 0,-99.75812 c 17.46048,0 30.64723,13.67878 30.64723,31.91247 0,18.20558 -13.17269,31.89842 -30.64723,31.89842 -17.22149,0 -30.36606,-13.69284 -30.36606,-31.91247 0,-18.21964 13.14457,-31.89842 30.36606,-31.89842 z m -187.11677,79.75307 c 7.59151,12.91964 21.25624,19.99099 38.47773,19.99099 35.20213,0 62.27854,-28.5947 62.27854,-67.8597 0,-39.23689 -27.10452,-67.85971 -62.27854,-67.85971 -17.22149,0 -30.88622,7.08542 -38.47773,20.00505 V 330.99068 H 212.0711 v 171.65258 h 39.74298 z m 0,-52.15651 c 2.01035,-15.92812 14.43794,-27.59656 30.36606,-27.59656 17.23555,0 30.39417,13.69284 30.39417,31.91247 0,18.21964 -13.15862,31.89842 -30.38011,31.89842 -15.9703,0 -28.36977,-11.64032 -30.38012,-27.61062 v -8.58965 z M 464.742,574.74859 c -15.5626,-2.03847 -32.43264,0.0703 -45.61938,7.02918 l -4.31591,32.86844 c 12.4557,-7.31035 25.55809,-9.9252 38.61831,-8.19602 18.58515,2.43209 29.18516,13.0321 27.30134,27.32945 l -0.95597,7.28223 c -6.76207,-6.74801 -17.3199,-11.97772 -29.36792,-13.55226 -26.09231,-3.4443 -46.70187,9.43316 -49.85094,33.51513 -3.14907,23.84298 12.3573,43.76368 36.95943,46.9971 14.78939,1.96817 28.07454,-3.69735 35.3146,-14.24112 l -2.06658,15.5626 39.4337,5.18754 10.22043,-77.55997 C 524.6025,605.08653 501.6452,579.61278 464.742,574.74859 Z m 12.1886,87.92098 c -2.34775,11.93555 -12.24483,19.31619 -23.54775,17.84006 -10.03767,-1.32149 -16.3077,-8.01327 -15.32362,-15.54855 1.0122,-7.53528 8.54749,-12.41353 18.83821,-11.04987 6.76207,0.89974 13.77719,3.85199 20.13157,8.01327 z m 141.44116,-67.70506 c -41.65492,-5.48276 -75.52151,16.88409 -80.90586,57.77986 -5.34218,40.67083 21.52335,71.27588 63.17827,76.75864 10.05172,1.32149 27.28727,0.28117 39.5321,-7.29629 l 5.17348,-39.39152 A 48.388875,48.388875 0 0 1 607.35,694.14624 c -19.31618,-2.53051 -32.60133,-18.07905 -30.22547,-36.1581 2.38992,-18.07906 19.23184,-29.63503 38.56208,-27.10452 a 46.954922,46.954922 0 0 1 33.1215,19.94881 l 5.11724,-38.89948 c -10.05173,-10.79682 -25.51592,-15.64696 -35.55359,-16.96844 z m 136.2958,17.95252 c -15.56261,-2.03846 -30.67534,4.13316 -39.32124,15.49232 l 7.3947,-56.17721 -39.15253,-5.15942 -22.04351,167.36478 39.16659,5.15942 8.85677,-67.28332 c 2.22122,-16.82785 14.01618,-26.99205 27.83555,-25.20663 13.80531,1.82758 22.24033,13.39761 20.11751,29.46632 l -9.10981,69.2796 39.15253,5.15942 9.82679,-74.56555 c 4.63926,-35.32866 -12.59629,-59.55121 -42.72335,-63.54378 z m -491.66303,-386.61895 20.0894,-2.64298 5.72175,43.41222 c 5.06101,38.40744 30.16924,52.71885 59.29817,48.88092 8.53342,-1.12467 18.55703,-4.47056 26.92176,-8.89894 l -4.49868,-34.1337 c -4.16127,3.35995 -10.10796,6.69178 -19.40054,7.91485 -10.02361,1.32149 -20.93289,-3.8801 -23.16817,-20.94695 l -5.45465,-41.41593 40.15068,-5.27188 -4.25968,-32.37641 -40.15068,5.27189 -4.42838,-33.64166 -39.41965,5.18754 4.42839,33.64165 -20.0894,2.62892 z m 194.38495,-61.60374 c -15.56261,2.03847 -28.55253,11.93555 -33.97906,25.16447 l -6.69178,-50.97562 -39.16659,5.15942 21.34059,162.16318 39.16659,-5.15941 -8.85676,-67.28331 c -2.23528,-16.8138 6.55119,-29.71938 20.34244,-31.53291 13.80531,-1.82758 24.95359,7.16977 27.06235,23.26659 l 9.13793,69.2796 39.15253,-5.15942 -9.82679,-74.56554 c -4.63926,-35.38489 -27.55439,-54.3215 -57.68145,-50.35705 z m 154.78254,116.69845 c 22.33874,-2.95226 38.23874,-10.13608 47.75625,-21.36871 l -4.30186,-32.62945 c -12.0199,11.52785 -25.86738,18.73979 -40.43184,20.63767 -22.35279,2.9382 -36.62203,-6.66366 -42.66712,-21.46711 l 86.59949,-11.38728 c 1.22308,-43.07481 -24.75677,-73.60957 -67.91593,-67.92999 -39.40559,5.18753 -62.06766,38.81513 -57.1613,75.95732 5.30001,40.4459 36.69232,63.64219 78.12231,58.18755 z M 593.3057,178.93546 c 12.56818,-1.65888 22.88701,6.93077 25.50187,19.11937 l -49.20426,6.46685 c 1.39177,-14.76128 10.16419,-23.81486 23.70239,-25.58622 z M 731.99142,420.9923 c 2.75544,-1.65888 5.52494,-3.374 8.28038,-5.11724 L 723.7954,373.0533 h -42.28755 l 27.06235,61.3788 c 7.90079,-4.34404 15.74536,-8.8146 23.42122,-13.4398 z m 63.8109,-47.939 h -11.52786 l -6.36843,15.60478 -24.74272,60.49312 -0.0984,0.0562 c -1.0122,0.61857 -1.99628,1.26525 -3.02254,1.85571 -8.99735,5.39841 -18.12123,10.58594 -27.3154,15.5626 l 12.41354,28.18701 -22.95731,57.87827 h 34.68198 l 64.90745,-146.82551 14.50822,-32.84033 H 795.80233 Z M 558.34256,498.22893 A 938.59234,938.59234 0 0 0 665.79061,456.11009 V 331.03286 h -39.504 v 59.00294 c -7.59151,-12.9337 -21.25624,-20.00505 -38.47773,-20.00505 -35.20213,0 -62.54564,28.5947 -62.54564,67.8597 0.0281,27.2451 13.21486,49.3589 33.07932,60.33848 z m 37.578,-92.25095 c 15.94218,0 28.36977,11.64032 30.38011,27.59656 v 8.58965 c -2.01034,15.94218 -14.43793,27.61062 -30.36605,27.61062 -17.2215,0 -30.39418,-13.67878 -30.39418,-31.91247 0,-18.20558 13.17268,-31.88436 30.38012,-31.88436 z M 144.35198,554.95442 a 451.27335,451.27335 0 0 0 26.739,1.5183 h 0.25305 a 767.72704,767.72704 0 0 0 65.87747,-0.25305 c -10.07984,-10.12202 -24.88329,-14.7191 -34.6398,-15.99842 -22.92918,-3.00848 -43.49656,2.4321 -58.22972,14.73317 z m 47.23609,84.43451 c -19.31619,-2.53051 -32.60134,-18.07906 -30.22548,-36.15811 0.59045,-4.35809 2.01035,-8.3366 4.10504,-11.83714 a 449.13648,449.13648 0 0 1 -41.78144,-3.374 77.995781,77.995781 0 0 0 -1.96817,9.98143 c -5.3703,40.67084 21.50929,71.27589 63.16421,76.75865 10.05173,1.33554 27.27322,0.28117 39.51805,-7.29629 l 5.18753,-39.39152 a 48.374817,48.374817 0 0 1 -37.99974,11.31698 z m 64.99179,-48.88092 a 68.393921,68.393921 0 0 0 -7.87268,24.22255 c -5.01883,38.15439 21.50929,71.26183 61.18199,76.5056 39.64457,5.20159 73.86262,-19.90664 78.86739,-58.06103 2.81168,-21.32653 -4.13315,-40.92389 -17.62918,-55.05254 -39.18065,6.0451 -77.92549,10.24855 -114.54752,12.38542 z m 92.51807,37.43741 c -2.37586,18.07905 -17.20743,29.93025 -34.54139,27.62468 -17.05279,-2.24934 -28.32759,-17.51672 -25.95173,-35.59577 2.38992,-18.07905 17.22149,-29.90213 34.27428,-27.66685 17.34802,2.30557 28.60876,17.57295 26.21884,35.63794 z" id="path2880" style="fill:#0053c7;fill-opacity:1;stroke-width:14.0583601" inkscape:connector-curvature="0"/>
</svg>