<svg xmlns="http://www.w3.org/2000/svg" xmlns:xlink="http://www.w3.org/1999/xlink" version="1.1" id="layer" x="0px" y="0px" style="enable-background:new -153 -46 652 652;" xml:space="preserve" viewBox="-132 220.8 600.1 110.79">
<path d="M115.3,264.8c-1.7-14.3-16-22.6-34.2-22.7c-24.1,0-38.6,15.8-38.6,34.8c0,19,14.4,34.8,38.6,34.8c19.5,0,33.2-11,34.3-26.9  h-13.8c-1.1,9.7-8,17.4-20.5,17.4c-17.3,0-24.5-12.6-24.5-25.3c0-12.8,7.2-25.3,24.5-25.3c11.7,0,17.7,5.6,20.1,13.2H115.3z   M160.4,293.5c0,6.9-9,9.4-14.8,9.4c-4.6,0-12.2-1.4-12.2-6.3c0-5.7,5.1-7.5,10.8-8.2c5.8-0.9,12.2-0.8,16.2-3V293.5z M173.6,273.7  c0-10.4-12.3-14.3-24-14.3c-13.2,0-26.3,3.7-27.2,16.4h13.2c0.6-5.3,5.8-7.8,13.2-7.8c5.3,0,12.4,1,12.4,6.7c0,6.4-8.5,5.5-17.9,7  c-11.1,1.1-23,3.1-23,15.4c0,9.6,9.7,14.4,20.5,14.4c7.1,0,15.5-1.8,20.7-6c1,4.5,4.9,6,10.2,6c2.2,0,6.4-0.7,8.4-1.3v-7.5  c-1.4,0.2-2.4,0.2-3.2,0.2c-2.4,0-3.1-1-3.1-3.7V273.7z M189,310.1h13.2v-29.3c0-8.2,6.2-12.8,13.1-12.8c8,0,10.5,3.6,10.5,10.4  v31.7H239v-28.9c0-8.3,3.8-13.2,12.7-13.2c10.3,0,10.9,5.4,10.9,13.3v28.8h13.2v-34.1c0-12-7.4-16.6-20-16.6  c-8.7,0-14.4,3.2-18.8,8.2c-2.7-5.6-9.5-8.2-16.8-8.2c-9.5,0-14.5,3.3-18.4,8.2h-0.3v-6.9H189V310.1z M296.2,286  c0-8.9,4.4-18,16.8-18c10.2,0,16.5,6.5,16.5,17.4c0,8.6-5,17.5-16.8,17.5C301.3,302.9,296.2,294.5,296.2,286 M342.3,242h-13.2v25.2  h-0.2c-4.1-5.5-12.4-7.7-19.9-7.7c-13.1,0-25.9,7.8-25.9,25.7c0,14.8,9.1,26.4,28,26.4c7.5,0,15-2.4,18.5-8h0.2v6.7h12.5V242z   M407.4,288.3c2.2-14.8-9.4-28.8-28.2-28.8c-17.8,0-29,12-29,26.1c0,15.2,10.5,26,29.3,26c13.1,0,24.2-6,27.1-16.8h-12.5  c-2.3,5.4-6.9,8.2-14.6,8.2c-11,0-16.1-6.9-16.1-14.6H407.4z M363.4,281.1c0.4-7.4,6.6-13.1,15.8-13.1c8.9,0,14.6,6.2,15,13.1H363.4  z M415.5,310.1h13.2V281c0-7.3,5.7-13,14.5-13c7.7,0,11.5,3.3,11.7,11.1v31h13.2v-33.9c0-11.1-8.2-16.8-21.2-16.8  c-7.9,0-14.7,3.3-18.6,8.8L428,268v-7.3h-12.5V310.1z M-52.8,221c0,0,16.7-0.5,36.4,0.2c17.4,0.6,19,19.6,19,19.6h-31.9  c-3.4,0-3.3,2.9-0.2,2.4c3.1-0.5,9.2,0.5,9.2,0.5c5.3,2.6,2.4,5.7,2.4,5.7h-15.8l-19.2-8.4V221 M20.3,272c0,0-16.7,0.5-36.4-0.2  c-17.4-0.6-19-19.6-19-19.6h31.9c3.4,0,3.3-2.9,0.2-2.4c-3.1,0.5-9.2-0.5-9.2-0.5c-5.2-2.5-2.4-5.7-2.4-5.7H1.1l19.2,8.4V272   M-52.8,331.4v-19.9l19.2-8.4h15.8c0,0,2.9,3.2-2.4,5.7c0,0-6.2,0.9-9.2,0.5c-3.1-0.5-3.3,2.4,0.2,2.4H2.6c0,0-1.7,19-19,19.6  C-36.2,331.9-52.8,331.4-52.8,331.4 M20.3,280.4v19.9l-19.2,8.4h-15.8c0,0-2.9-3.2,2.4-5.7c0,0,6.2-1,9.2-0.5  c3.1,0.5,3.3-2.4-0.2-2.4h-31.9c0,0,1.7-19,19-19.6C3.6,279.9,20.3,280.4,20.3,280.4 M-58.8,221v19.9l-19.2,8.4h-15.8  c0,0-2.9-3.2,2.4-5.7c0,0,6.2-1,9.3-0.5c3.1,0.5,3.3-2.4-0.2-2.4h-31.9c0,0,1.7-19,19-19.6C-75.5,220.5-58.8,221-58.8,221   M-131.9,272v-19.9l19.2-8.4h15.8c0,0,2.9,3.2-2.4,5.7c0,0-6.2,1-9.2,0.5c-3.1-0.5-3.3,2.4,0.2,2.4h31.9c0,0-1.7,19-19,19.6  C-115.2,272.5-131.9,272-131.9,272 M-58.8,331.4c0,0-16.7,0.5-36.4-0.2c-17.4-0.6-19-19.6-19-19.6h31.9c3.4,0,3.3-2.9,0.2-2.4  c-3.1,0.5-9.3-0.5-9.3-0.5c-5.3-2.6-2.4-5.7-2.4-5.7H-78l19.2,8.4V331.4 M-131.9,280.4c0,0,16.7-0.5,36.4,0.2  c17.4,0.6,19,19.6,19,19.6h-31.9c-3.4,0-3.3,2.9-0.2,2.4c3.1-0.5,9.2,0.5,9.2,0.5c5.3,2.6,2.4,5.7,2.4,5.7h-15.8l-19.2-8.4V280.4"/>
</svg>