<svg xmlns="http://www.w3.org/2000/svg" xmlns:xlink="http://www.w3.org/1999/xlink" version="1.1" id="layer" x="0px" y="0px" style="enable-background:new 0 0 652 652;" xml:space="preserve" viewBox="26.9 261.2 600 127.4">
<style type="text/css">
	.st0{fill:#121212;}
</style>
<path class="st0" d="M160.3,367.5v-85H211V298h-33.2v19.6h26.5v13.8h-26.5v20.9h34.9v15.2H160.3z M242.1,367.5  c-13.8,0-24.5-9.3-24.5-28.7v-0.9c0-19.2,10.8-30.4,25-30.4c9.1,0,14.8,4.1,17.9,10v-35.1h15.7v85.1h-15.7v-10.1  C257.6,363.3,250.5,367.5,242.1,367.5z M246.9,355.7c8.3,0,14-5.7,14-17.5v-0.9c0-11.6-5-17.5-13.6-17.5c-8.8,0-13.7,6.1-13.7,17.7  v0.9C233.7,350,239.1,355.7,246.9,355.7z M312.7,388.6c-18.4,0-26.8-9.1-28.3-21.1h15.7c1,5.1,4.6,9.3,12.6,9.3  c9.6,0,14.4-5.1,14.4-14.3v-8.8c-3.2,5.7-9.9,10.8-18.3,10.8c-13.8,0-24.8-10.6-24.8-27.9v-0.8c0-16.7,10.9-28.4,25-28.4  c9.2,0,14.8,4.1,18.1,10v-8.7h15.7v53.7C342.7,379.8,331.4,388.6,312.7,388.6z M313.5,352.4c8.3,0,14-6,14-15.9v-0.8  c0-9.9-5.1-15.9-13.7-15.9c-8.8,0-13.7,6.5-13.7,16.1v0.9C300.1,346.4,305.7,352.4,313.5,352.4z M378.8,367.5  c-17.2,0-29.7-11.6-29.7-30.2v-0.9c0-18.4,12.7-30.3,29.3-30.3c14.7,0,27.7,8.8,27.7,29.7v4.5h-41c0.4,9.7,5.5,15.3,14.1,15.3  c7.3,0,10.9-3.2,11.9-8.1H406C404.2,359.9,394.4,367.5,378.8,367.5z M365.3,331.6h25.5c-0.5-8.8-4.9-13-12.4-13  C371.3,318.6,366.5,323.4,365.3,331.6z M417.7,367.1v-46.8h-7.5v-11.5h7.5v-6.7c0-13.6,7.7-19.6,20.3-19.6c3.4,0,5.7,0.3,8.2,1.1  v12.2c-1.5-0.6-3.5-1-5.8-1c-5,0-7.1,2.4-7.1,6.9v7.1h12.4v11.5h-12.4v46.8H417.7z M477.1,354.7c8.8,0,13.9-6.7,13.9-17.7v-0.8  c0-11.1-5.1-17.8-13.9-17.8c-8.7,0-13.9,6.5-13.9,17.6v0.9C463.2,348,468.2,354.7,477.1,354.7z M477,367.5c-17,0-30-12.2-30-30.4  v-0.9c0-18.3,12.9-30.2,30-30.2c17.1,0,29.9,11.7,29.9,29.9v0.9C507,355.2,494.1,367.5,477,367.5z M515.3,367.1v-84.7h15.7v84.7  H515.3z M542.4,367.2v-58.3h15.7v58.3H542.4z M550,300c-5,0-8.9-3.8-8.9-8.8c0-5,3.9-8.8,8.9-8.8c5.1,0,9,3.8,9,8.8  C559,296.2,555.1,300,550,300z M597,354.7c8.8,0,13.9-6.7,13.9-17.7v-0.8c0-11.1-5.1-17.8-13.9-17.8c-8.7,0-13.9,6.5-13.9,17.6v0.9  C583,348,588,354.7,597,354.7z M597,367.5c-17,0-30-12.2-30-30.4v-0.9c0-18.3,12.9-30.2,30-30.2s29.9,11.7,29.9,29.9v0.9  C626.9,355.2,614,367.5,597,367.5z M26.9,270.2c0,0,12.3,8.2,12.3,17.7c0,14.9,0,38.4,0,38.4s-12.3-8.6-12.3-15.3  C26.9,299.6,26.9,270.2,26.9,270.2z M49.2,263.4c0,0,18.9,13.6,18.9,29.4c0,24.8,0,63.7,0,63.7s-18.9-14.3-18.9-25.4  C49.2,312.3,49.2,263.4,49.2,263.4z M80.4,261.2c0,0,26.7,18.5,26.7,40.1c0,33.7,0,86.8,0,86.8s-26.7-19.5-26.7-34.6  C80.4,327.8,80.4,261.2,80.4,261.2z"/>
</svg>