<?xml version="1.0" encoding="utf-8"?>
<!-- Generator: Adobe Illustrator 19.2.1, SVG Export Plug-In . SVG Version: 6.00 Build 0)  -->
<svg version="1.1" id="layer" xmlns="http://www.w3.org/2000/svg" xmlns:xlink="http://www.w3.org/1999/xlink" x="0px" y="0px"
	 viewBox="0 0 652 652" style="enable-background:new 0 0 652 652;" xml:space="preserve">
<rect x="26.8" y="288.6" transform="matrix(0.7071 -0.7071 0.7071 0.7071 -201.9703 117.2406)" width="27.6" height="27.6"/>
<polygon points="60,302.4 79.5,321.9 99,302.4 79.5,282.9 "/>
<polygon points="60,341.4 79.5,360.9 99,341.4 79.5,321.9 "/>
<polygon points="99,302.4 118.5,321.9 138,302.4 118.5,282.9 "/>
<polygon points="191.5,282.7 191.5,298.5 215.3,298.5 215.3,360.6 232.4,360.6 232.4,298.5 256.1,298.5 256.1,282.7 "/>
<rect x="292.3" y="282.7" width="17.1" height="77.9"/>
<g>
	<path d="M381.5,360.6h-30.4v-77.9h30.4c24.5,0,41.4,16.8,41.4,38.7v0.2C422.9,343.6,406,360.6,381.5,360.6 M405,321.6
		c0-13.8-9.5-23.5-23.5-23.5h-13.2v47h13.2c14,0,23.5-9.5,23.5-23.3V321.6z"/>
	<path d="M512.9,360.6l-7.1-17.5h-32.9l-7.1,17.5h-17.5l33.4-78.5h15.8l33.4,78.5H512.9z M489.3,302.7L478.9,328h20.7L489.3,302.7z"
		/>
	<polygon points="565.1,360.6 565.1,282.7 582.2,282.7 582.2,345 621.1,345 621.1,360.6 	"/>
</g>
</svg>
