<?xml version="1.0" encoding="utf-8"?>
<!-- Generator: Adobe Illustrator 26.1.0, SVG Export Plug-In . SVG Version: 6.00 Build 0)  -->
<svg version="1.1" id="Layer_1" xmlns="http://www.w3.org/2000/svg" xmlns:xlink="http://www.w3.org/1999/xlink" x="0px" y="0px"
	 viewBox="0 0 5483 1707" style="enable-background:new 0 0 5483 1707;" xml:space="preserve">
<style type="text/css">
	.st0{fill:#263D4F;}
	.st1{fill:#29ED00;}
	.st2{fill:#273C4E;}
</style>
<g id="Finals">
	<g>
		<path class="st0" d="M283.97,788.93c-33.53,0-67.08-6.24-98.87-18.77c-66.57-26.22-120-77.82-148.53-143.43
			s-29.82-139.87-3.6-206.44c26.23-66.58,77.82-120,143.44-148.53l296.33-128.85c65.61-28.53,139.88-29.83,206.45-3.61
			c66.57,26.23,120,77.82,148.53,143.44c28.53,65.61,29.82,139.88,3.6,206.44c-26.23,66.58-77.82,120-143.44,148.53L391.54,766.55
			C357.27,781.46,320.63,788.93,283.97,788.93"/>
	</g>
	<path class="st1" d="M681.6,340.63l-228.88-99.52c-27.02-11.75-58.46,0.63-70.21,27.65s0.62,58.46,27.65,70.21l228.88,99.52
		c6.93,3.01,14.15,4.44,21.25,4.44c20.6,0,40.22-12,48.95-32.09C721,383.81,708.62,352.38,681.6,340.63 M567.68,455.75L338.8,356.23
		c-27.03-11.75-58.46,0.63-70.21,27.66c-11.75,27.02,0.63,58.45,27.66,70.21l228.88,99.52c6.93,3.01,14.15,4.44,21.25,4.44
		c20.59,0,40.22-12,48.95-32.09C607.09,498.93,594.7,467.5,567.68,455.75 M451.46,570.59l-228.89-99.52
		c-27.02-11.75-58.46,0.63-70.21,27.65c-11.75,27.02,0.63,58.46,27.65,70.21l228.89,99.52c6.93,3.02,14.15,4.44,21.24,4.44
		c20.6,0,40.23-11.99,48.96-32.09C490.87,613.77,478.48,582.34,451.46,570.59"/>
</g>
<g id="Layer_3">
	<polygon class="st2" points="5052.02,1029.44 5422,183.25 5251.97,183.25 5107.1,538.5 4950.24,183.25 4771.83,183.25 
		5022.08,713.66 4883.19,1029.44 	"/>
	<path class="st2" d="M4769.45,183.27c-11.97-1.23-23.95-2.46-37.12-2.46c-50.29,0-131.71,14.8-167.63,94.98v-90.05h-154.46v606.89
		h159.25V515.08c0-130.76,70.64-171.46,152.06-171.46c14.37,0,29.94,1.23,47.9,4.93V183.27z"/>
	<path class="st2" d="M4199.98,785.92h151.73c-2.39-20.9-5.98-62.72-5.98-109.46V180.8h-158.89v351.76
		c0,70.11-40.62,119.31-111.11,119.31c-74.07,0-107.52-54.12-107.52-121.76V180.8h-158.9v382.51c0,131.6,81.24,238.61,223.41,238.61
		c62.12,0,130.22-24.6,162.48-81.18C4195.2,745.34,4197.59,773.63,4199.98,785.92"/>
	<path class="st2" d="M3435.29,346.84c0-34.43,34.44-60.26,77.49-60.26c68.88,0,94.7,45.5,99.62,81.18L3748.93,337
		c-7.39-65.18-65.19-174.65-237.38-174.65c-130.37,0-226.3,89.79-226.3,198.02c0,84.87,52.88,154.97,169.73,180.8l79.94,18.45
		c46.74,9.84,65.19,31.98,65.19,59.04c0,31.98-25.82,60.27-79.94,60.27c-71.34,0-107-44.28-110.69-92.25l-140.21,30.75
		c7.39,68.88,70.11,186.95,252.13,186.95c158.67,0,234.92-100.86,234.92-199.25c0-88.56-60.26-161.12-179.57-185.72l-86.09-18.45
		C3457.43,394.81,3435.29,376.36,3435.29,346.84"/>
	<path class="st2" d="M3216.3,689.99V392.35c0-121.76-71.34-230-263.2-230c-162.35,0-249.68,104.55-259.51,199.25l145.13,30.75
		c4.92-52.89,44.28-98.4,115.62-98.4c68.88,0,102.08,35.68,102.08,78.71c0,20.92-11.07,38.13-45.5,43.05l-148.83,22.14
		c-100.85,14.76-180.8,75.02-180.8,183.26c0,94.7,78.71,182.03,207.86,182.03c89.79,0,147.6-41.82,178.34-89.78
		c0,23.37,2.46,56.57,6.15,72.57h150.05C3219.99,765.02,3216.3,721.97,3216.3,689.99z M3056.41,541.16
		c0,107.01-63.95,140.22-132.83,140.22c-52.89,0-78.72-34.44-78.72-70.11c0-46.73,33.21-70.11,75.03-76.26l136.52-20.91V541.16z"/>
	<path class="st2" d="M2635.31,475.98c0-194.33-108.54-313.64-289.83-313.64c-150.27,0-288.62,125.46-288.62,318.56
		c0,204.16,141.93,323.47,302.94,323.47c144.31,0,237.35-87.33,267.16-191.87l-132.38-40.59c-19.08,54.11-59.64,92.25-133.58,92.25
		c-78.72,0-144.31-57.8-147.89-137.75h419.82C2632.92,523.95,2635.31,499.35,2635.31,475.98z M2216.68,414.48
		c3.57-55.35,48.9-119.3,131.2-119.3c90.64,0,128.8,59.04,131.19,119.3L2216.68,414.48L2216.68,414.48z"/>
	<path class="st2" d="M1988.85,338.23c14.76,0,30.75,1.23,49.2,4.92V178.34c-12.3-1.23-24.59-2.46-38.12-2.46
		c-51.66,0-135.3,14.76-172.19,94.71V180.8h-158.66v605.12h163.58V509.19C1832.66,378.82,1905.22,338.23,1988.85,338.23"/>
	<path class="st2" d="M1496.9,794.53c47.97,0,77.48-8.61,92.24-14.76V644.48c-8.61,2.46-30.74,4.92-50.42,4.92
		c-46.74,0-71.34-17.23-71.34-70.11V325.93h121.76V180.8h-121.76V0H1319.8v84.87c0,54.11-29.52,95.93-93.48,95.93h-30.75v145.13
		h109.47v281.66C1305.04,724.42,1378.83,794.53,1496.9,794.53"/>
	<path class="st1" d="M4193.85,848.61v71.33c-20.9-40.59-76.25-82.4-172.18-82.4c-166.04,0-281.66,135.29-281.66,295.18
		c0,169.73,120.53,293.95,281.66,293.95c87.32,0,143.89-38.13,168.5-77.49v44.28c0,116.85-57.8,168.5-161.12,168.5
		c-77.48,0-130.38-47.97-141.44-114.38l-147.59,39.36c17.22,115.61,127.91,218.92,293.95,218.92
		c227.53,0,317.32-151.28,317.32-317.32V848.61H4193.85z M4049.95,1286.47c-84.87,0-145.13-59.04-145.13-153.74
		c0-93.47,63.95-152.5,145.13-152.5c78.71,0,142.67,59.04,142.67,152.5C4192.62,1226.2,4133.59,1286.47,4049.95,1286.47z"/>
	<path class="st1" d="M3286.17,1105.67c0-70.11,41.82-125.45,113.15-125.45c78.71,0,111.93,52.89,111.93,120.53v352.99h163.58
		v-381.28c0-132.83-68.88-239.84-218.92-239.84c-65.18,0-137.75,28.29-174.65,91.02v-75.03h-158.65v605.12h163.58v-348.06H3286.17z"
		/>
	<rect x="2870.46" y="848.61" class="st1" width="163.57" height="605.12"/>
	<path class="st1" d="M2819.8,846.15c-12.3-1.23-24.6-2.46-38.13-2.46c-51.65,0-135.29,14.75-172.19,94.71v-89.79h-158.67v605.13
		h163.59v-276.73c0-130.38,72.57-170.96,156.2-170.96c14.76,0,30.74,1.23,49.19,4.92L2819.8,846.15L2819.8,846.15z"/>
	<path class="st1" d="M1197.53,1285.24c7.37,68.88,70.11,186.95,252.13,186.95c158.67,0,234.92-100.85,234.92-199.25
		c0-88.56-60.26-161.12-179.57-185.72l-86.09-18.45c-33.21-6.15-55.35-24.6-55.35-54.11c0-34.44,34.44-60.26,77.49-60.26
		c68.88,0,94.7,45.5,99.62,81.17l136.52-30.75c-7.39-65.19-65.19-174.65-237.38-174.65c-130.37,0-226.3,89.79-226.3,198.02
		c0,84.87,52.88,154.97,169.73,180.8l79.94,18.45c46.74,9.83,65.19,31.98,65.19,59.04c0,31.98-25.82,60.27-79.95,60.27
		c-71.33,0-107-44.28-110.69-92.25L1197.53,1285.24z"/>
	<path class="st1" d="M2100.29,835.09c-91.01,0-158.66,40.59-185.72,87.33v-73.8h-158.66v838.81h163.57V1394.7
		c29.52,40.59,91.02,73.8,174.65,73.8c170.96,0,285.35-135.29,285.35-318.55C2379.49,970.37,2277.4,835.09,2100.29,835.09z
		 M2068.32,1322.14c-83.64,0-151.28-63.95-151.28-170.96s67.64-169.73,151.28-169.73c83.63,0,150.05,62.72,150.05,169.73
		C2218.37,1259.41,2151.95,1322.14,2068.32,1322.14z"/>
</g>
</svg>
