<?xml version="1.0" encoding="utf-8"?>
<!-- Generator: Adobe Illustrator 18.0.0, SVG Export Plug-In . SVG Version: 6.00 Build 0)  -->
<!DOCTYPE svg PUBLIC "-//W3C//DTD SVG 1.1//EN" "http://www.w3.org/Graphics/SVG/1.1/DTD/svg11.dtd">
<svg version="1.1" id="Layer_1" xmlns="http://www.w3.org/2000/svg" xmlns:xlink="http://www.w3.org/1999/xlink" x="0px" y="0px"
	 viewBox="0 0 385.1 141.4" enable-background="new 0 0 385.1 141.4" xml:space="preserve">
<path fill="#26358C" d="M314.4,0c-26,0-48.6,14-60.9,34.8c6.2,10.5,9.8,22.8,9.8,35.8c0,13.1-3.6,25.3-9.8,35.8
	c12.3,20.9,35,34.9,60.9,34.9c39,0,70.7-31.6,70.7-70.7C385.1,31.6,353.4,0,314.4,0z"/>
<path fill="#0068B3" d="M253.5,34.8C241.2,14,218.5,0,192.5,0c-26,0-48.6,14-60.9,34.8c6.2,10.5,9.8,22.8,9.8,35.8
	c0,13.1-3.6,25.3-9.8,35.8c12.3,20.9,35,34.9,60.9,34.9c26,0,48.6-14,60.9-34.9c-6.2-10.5-9.8-22.8-9.8-35.8
	C243.7,57.6,247.3,45.4,253.5,34.8z"/>
<path fill="#36BCEE" d="M131.6,34.8C119.3,14,96.6,0,70.7,0C31.6,0,0,31.6,0,70.7c0,39,31.6,70.7,70.7,70.7c26,0,48.6-14,60.9-34.9
	c-6.2-10.5-9.8-22.8-9.8-35.8C121.9,57.6,125.4,45.4,131.6,34.8z"/>
<g>
	<path fill="#005C9E" d="M131.6,106.5c6.2-10.5,9.8-22.8,9.8-35.8c0-13.1-3.6-25.3-9.8-35.8c-6.2,10.5-9.8,22.8-9.8,35.8
		C121.9,83.8,125.4,96,131.6,106.5z"/>
	<path fill="#005C9E" d="M131.6,106.5L131.6,106.5c-6.4-10.8-9.8-23.2-9.8-35.8c0-12.6,3.4-25,9.8-35.8l0,0l0,0
		c6.4,10.8,9.8,23.2,9.8,35.8C141.4,83.3,138,95.7,131.6,106.5L131.6,106.5z M131.6,34.9c-6.4,10.8-9.8,23.2-9.8,35.8
		c0,12.6,3.4,25,9.8,35.8c6.4-10.8,9.8-23.2,9.8-35.8C141.4,58.1,138,45.7,131.6,34.9z"/>
</g>
<path fill="#002F60" d="M253.5,106.5c6.2-10.5,9.8-22.7,9.8-35.8c0-13.1-3.6-25.3-9.8-35.8c-6.2,10.5-9.8,22.8-9.8,35.8
	C243.7,83.8,247.3,96,253.5,106.5z"/>
<g>
	<path fill="#FFFFFF" d="M97.3,46H76.7v63H62.5V46H42.4V33.1h54.9L97.3,46L97.3,46z"/>
</g>
<g>
	<path fill="#FFFFFF" d="M289.8,33.1h26.6c10.1,0.1,12.8,0.2,16.4,1.3c7.6,2.3,13,9,13,17.3c0,3.3-0.7,7.4-2.9,10.3
		c-2.4,3.1-5.4,4.7-9.5,5.5c8.4,1.5,15.7,8.3,15.7,20c0,8.7-3.9,16.4-13,19.7c-4.8,1.7-8.6,1.8-17.2,1.8h-29.1V33.1z M303.8,44.7
		v18.9h4.4c4,0,6.9,0,8.6-0.1c3.5,0,7.1-0.1,9.7-1.5c3-1.5,5-4.4,5-7.9c0-2.9-1.5-5.8-4.4-7.5c-3-1.7-4.5-1.8-14.8-1.9H303.8z
		 M303.8,74.3v22.5h13.5c8.4,0,10.6,0,14.3-2.6c1.9-1.4,3.4-4.3,3.4-7.9c0-1.7-0.3-3.8-1.4-5.7c-3.4-6.1-11.4-6.2-16.2-6.2
		L303.8,74.3L303.8,74.3z"/>
</g>
<path fill="#FFFFFF" d="M199.8,64l-7.8-1.7c-6.8-1.3-13.9-2.6-13.9-9c0-5.8,6.6-9.2,14.2-9.2c11.4,0,16.4,6.7,19.1,10.6l11.2-8.9
	c-5.4-7.1-13.8-14.3-29.5-14.3c-17.7,0-29.8,9.2-29.8,23.5c0,12.5,9.3,17.1,12.7,18.4c2.3,1,4.7,1.5,9.5,2.7l9.1,1.9
	c6.8,1.6,7,1.7,8.8,2.3c2.3,1,5.7,2.7,5.7,7.5c0,2.6-1,6.4-6.4,8.6c-2.7,1.1-5.4,1.3-8.1,1.3c-15.1,0-20.9-7.8-23-10.9L160,95.5
	c5.7,8.7,13.9,11.9,18.8,13.4c4.6,1.3,9.3,1.7,13.4,1.7c16,0,32-6.9,32-24.2C224.3,70.3,210,66.1,199.8,64z"/>
</svg>
