<svg xmlns:xlink="http://www.w3.org/1999/xlink" xmlns="http://www.w3.org/2000/svg" fill="none" viewBox="0 0 72 24">
<path d="M0 6.03965V0H4.89124V6.03965H8.88358V10.1764H4.89124V16.8173C4.89124 18.5933 5.66807 19.3324 7.52413 19.3324H9.74364V23.6594H6.61413C1.92265 23.6594 0 21.5469 0 17.5205V6.03965Z" fill="#0E113A"/>
<path d="M17.3423 23.4813L11.4717 6.04077H16.4656L20.2443 18.349L24.9607 6.04077H30.0573L34.746 18.349L38.5247 6.04077H43.5547L37.6813 23.4813H32.2574L27.4993 11.1703L22.7828 23.4813H17.3423Z" fill="#0E113A"/>
<path d="M46.0653 21.3718C44.3091 19.593 43.4324 17.4143 43.4324 14.753C43.4324 12.0917 44.3091 9.9213 46.032 8.17835C47.7549 6.4354 50.1491 5.52808 53.1177 5.52808C56.0863 5.52808 58.4834 6.39955 60.2035 8.14526C61.9236 9.89096 62.8364 12.1027 62.8364 14.764C62.8364 17.4254 61.9569 19.6261 60.2035 21.3828C58.4501 23.1396 56.1196 24 53.1177 24C50.1824 23.989 47.8187 23.1148 46.0653 21.3718ZM53.1177 19.7033C54.6353 19.7033 55.8505 19.2317 56.7244 18.3244C57.5984 17.4171 58.0423 16.2119 58.0423 14.7696C58.0423 13.3272 57.6011 12.1193 56.7244 11.2147C55.8477 10.3102 54.6325 9.83581 53.1177 9.83581C51.6029 9.83581 50.385 10.3046 49.511 11.2147C48.6371 12.1248 48.196 13.3272 48.196 14.7696C48.196 16.2119 48.6343 17.4198 49.511 18.3244C50.3877 19.229 51.6001 19.7033 53.1177 19.7033Z" fill="#0E113A"/>
<ellipse cx="69.2" cy="21.1999" rx="2.8" ry="2.8" fill="#FBCE49"/>
</svg>