<svg xmlns="http://www.w3.org/2000/svg" xmlns:xlink="http://www.w3.org/1999/xlink" version="1.1" id="Layer_1" x="0px" y="0px" enable-background="new 0 0 906.5 453.5" xml:space="preserve" viewBox="46.71 50.87 813.08 351.76">
<g>
	<linearGradient id="SVGID_1_" gradientUnits="userSpaceOnUse" x1="141.9023" y1="487.8535" x2="157.544" y2="-92.0322">
		<stop offset="0" style="stop-color:#25215E"/>
		<stop offset="1" style="stop-color:#00AEEF"/>
	</linearGradient>
	<path fill-rule="evenodd" clip-rule="evenodd" fill="url(#SVGID_1_)" d="M192.348,224.346V334.17   c0,37.738-24.19,47.656-45.72,47.656c-21.045,0-44.026-10.402-44.026-48.139V224.346H79.136v115.873   c0,32.414,20.078,62.41,66.766,62.41c47.655,0,69.911-29.996,69.911-65.555V224.346H192.348z"/>
	<linearGradient id="SVGID_2_" gradientUnits="userSpaceOnUse" x1="308.4326" y1="493.9004" x2="324.0546" y2="-85.2562">
		<stop offset="0" style="stop-color:#25215E"/>
		<stop offset="1" style="stop-color:#00AEEF"/>
	</linearGradient>
	<path fill-rule="evenodd" clip-rule="evenodd" fill="url(#SVGID_2_)" d="M242.816,398.033h69.427   c57.09,0,74.023-50.316,74.023-89.262c0-50.074-27.819-84.426-73.055-84.426h-70.395V398.033L242.816,398.033z M266.281,244.424   h43.785c31.931,0,52.009,22.014,52.009,65.799s-19.836,67.732-50.316,67.732h-45.478V244.424z"/>
	<linearGradient id="SVGID_3_" gradientUnits="userSpaceOnUse" x1="415.4927" y1="497.8271" x2="431.286" y2="-87.7172">
		<stop offset="0" style="stop-color:#25215E"/>
		<stop offset="1" style="stop-color:#00AEEF"/>
	</linearGradient>
	<rect x="409.883" y="224.346" fill-rule="evenodd" clip-rule="evenodd" fill="url(#SVGID_3_)" width="21.288" height="173.688"/>
	<linearGradient id="SVGID_4_" gradientUnits="userSpaceOnUse" x1="464.959" y1="499.1689" x2="480.7523" y2="-86.3771">
		<stop offset="0" style="stop-color:#25215E"/>
		<stop offset="1" style="stop-color:#00AEEF"/>
	</linearGradient>
	<path fill-rule="evenodd" clip-rule="evenodd" fill="url(#SVGID_4_)" d="M480.673,271.518h-21.288v126.516h21.288V271.518   L480.673,271.518z M480.673,248.537v-24.191h-21.288v24.191H480.673z"/>
	<linearGradient id="SVGID_5_" gradientUnits="userSpaceOnUse" x1="547.0146" y1="499.1455" x2="562.6571" y2="-80.7709">
		<stop offset="0" style="stop-color:#25215E"/>
		<stop offset="1" style="stop-color:#00AEEF"/>
	</linearGradient>
	<polygon fill-rule="evenodd" clip-rule="evenodd" fill="url(#SVGID_5_)" points="552.671,374.568 552.188,374.568 519.288,271.518    494.613,271.518 540.817,398.033 563.557,398.033 611.695,271.518 588.473,271.518  "/>
	<linearGradient id="SVGID_6_" gradientUnits="userSpaceOnUse" x1="666.2686" y1="500.9072" x2="681.7232" y2="-72.0471">
		<stop offset="0" style="stop-color:#25215E"/>
		<stop offset="1" style="stop-color:#00AEEF"/>
	</linearGradient>
	<path fill-rule="evenodd" clip-rule="evenodd" fill="url(#SVGID_6_)" d="M705.224,358.361   c-0.726,9.434-12.579,24.916-32.657,24.916c-24.433,0-36.77-15.24-36.77-41.607h92.407c0-44.752-17.9-73.781-54.429-73.781   c-41.849,0-60.718,31.205-60.718,70.395c0,36.527,21.046,63.379,56.606,63.379c20.319,0,28.544-4.838,34.35-8.709   c15.966-10.643,21.771-28.545,22.497-34.592H705.224L705.224,358.361z M635.797,324.736c0-19.594,15.481-37.736,35.076-37.736   c25.884,0,34.108,18.143,35.318,37.736H635.797z"/>
	<rect x="741.053" y="376.934" fill-rule="evenodd" clip-rule="evenodd" fill="#939598" width="21.101" height="21.1"/>
	<path fill-rule="evenodd" clip-rule="evenodd" fill="#939598" d="M769.904,398.033h19.286v-58.879h-19.286V398.033L769.904,398.033   z M789.19,317.033h-19.286v14.748h19.286V317.033z"/>
	<path fill-rule="evenodd" clip-rule="evenodd" fill="#939598" d="M817.021,368.65c0-7.486,2.723-16.449,11.685-16.449   s11.799,8.963,11.799,16.449c0,7.488-2.837,16.338-11.799,16.338S817.021,376.139,817.021,368.65L817.021,368.65z M797.735,368.65   c0,17.699,12.706,31.084,30.971,31.084s31.084-13.385,31.084-31.084c0-17.697-12.819-31.197-31.084-31.197   S797.735,350.953,797.735,368.65z"/>
	<linearGradient id="SVGID_7_" gradientUnits="userSpaceOnUse" x1="328.3315" y1="394.0176" x2="333.3085" y2="84.3215">
		<stop offset="0" style="stop-color:#25215E"/>
		<stop offset="1" style="stop-color:#00AEEF"/>
	</linearGradient>
	<path fill="url(#SVGID_7_)" d="M614.097,252.82c2.722-42.311-17.24-76.125-56.065-94.561c-24.37-11.568-54.146-14.205-82.835-8.24   c-12.845-17.332-30.508-29.96-50.46-36.836c-19.446-6.699-41.083-7.937-62.539-2.744c-23.076-36.511-60.883-59.568-104.094-59.568   c-7.479,0-14.931,0.71-22.25,2.108c-52.121,9.979-87.708,51.362-96.946,102.754c-66.318,13.509-96.759,68.123-91.647,126.679   c15.892-70.998,44.593-96.851,111.802-107.019l1.071-8.55c1.979-15.801,6.771-30.694,14.123-43.755   c28.879-51.295,94.725-65.513,141.796-30.057c12.386,9.331,22.937,21.634,30.914,36.115l4.528,8.221   c20.5-8.262,41.661-11.093,65.889-2.746c23.648,8.15,36.927,22.772,47.615,41.089c23.785-7.13,59.193-10.143,87.169,5.01   c25.389,13.748,42.224,41.691,40.353,70.746c-0.135,2.086-0.356,4.143-0.643,6.176h21.783   C613.839,256.045,613.992,254.439,614.097,252.82z"/>
	<linearGradient id="SVGID_8_" gradientUnits="userSpaceOnUse" x1="596.6621" y1="398.3486" x2="601.6398" y2="88.6046">
		<stop offset="0" style="stop-color:#25215E"/>
		<stop offset="1" style="stop-color:#00AEEF"/>
	</linearGradient>
	<path fill="url(#SVGID_8_)" d="M586.236,277.537h23.138c0.623-1.891,1.185-3.807,1.69-5.748h-22.561   C587.826,273.75,587.075,275.67,586.236,277.537z"/>
</g>
</svg>