<svg xmlns:xlink="http://www.w3.org/1999/xlink" xmlns="http://www.w3.org/2000/svg" fill="none" viewBox="0 0 114 24">
<g clip-path="url(#clip0_932_28508)">
<path d="M48.0801 0V23.5301H44.3453L33.6692 9.14235V23.5301H28.7598V0H32.4974L43.1735 14.3533V0H48.0801Z" fill="#020417"/>
<path d="M88.8821 0V23.5301H83.9727V0H88.8821Z" fill="#020417"/>
<path d="M114 19.0917H103.78V0H98.8701V23.5301H112.823L114 19.0917Z" fill="#020417"/>
<path d="M75.4547 0H56.8818V4.43845H63.5702V23.5301H68.4825V4.43845H74.2772L75.4547 0Z" fill="#020417"/>
<path d="M11.418 19.4129C12.75 19.4129 13.7983 18.4227 13.7983 17.1645V0H18.7049V17.2574C18.7049 20.9897 15.5153 24 11.5669 24H7.14081C3.18962 24 0 20.9871 0 17.2574V0H4.86733V17.1645C4.86733 18.4227 5.91555 19.4129 7.2476 19.4129H11.418Z" fill="#020417"/>
</g>
<defs>
<clipPath id="clip0_932_28508">
<rect width="114" height="24" fill="white"/>
</clipPath>
</defs>
</svg>