<?xml version="1.0" encoding="utf-8"?>
<!-- Generator: Adobe Illustrator 25.3.1, SVG Export Plug-In . SVG Version: 6.00 Build 0)  -->
<svg version="1.1" id="Layer_1" xmlns="http://www.w3.org/2000/svg" xmlns:xlink="http://www.w3.org/1999/xlink" x="0px" y="0px"
	 viewBox="0 0 640 300" style="enable-background:new 0 0 640 300;" xml:space="preserve">
<style type="text/css">
	.st0{fill-rule:evenodd;clip-rule:evenodd;fill:#E98467;}
</style>
<g id="g887">
	<path id="path883" class="st0" d="M236,166.2c0,0.9-0.3,1.5-1,2c-0.7,0.4-1.2,0.7-1.7,0.7c-0.5,0-0.9,0-1.3-0.1
		c-0.4-0.1-0.7-0.3-0.9-0.6c-0.6-0.4-0.9-1.1-0.9-1.9v-3.3c-1.5,3.3-4.3,5.4-8.3,6.2c-1.3,0.3-2.6,0.5-4.1,0.5c-1.5,0-3-0.3-4.5-0.8
		c-1.5-0.5-2.9-1.3-4.1-2.5c-2.5-2.4-3.8-6-3.8-10.8v-19.8c0-0.9,0.3-1.6,0.9-2.1c0.6-0.5,1.2-0.8,2-0.8s1.4,0.3,2,0.8
		c0.6,0.5,0.9,1.2,0.9,2.1v20.3c0,3.4,0.7,5.8,2.1,7.1c1.4,1.3,3.5,2,6.2,2c4.7,0,7.9-1.9,9.6-5.7c0.7-1.3,1.1-2.8,1.1-4.5v-19.2
		c0-0.9,0.3-1.6,0.9-2.1c0.6-0.5,1.3-0.8,2.1-0.8c0.8,0,1.4,0.3,2,0.8c0.6,0.5,0.9,1.2,0.9,2.1C236,135.8,236,166.2,236,166.2z
		 M251.5,139c1.5-4.5,4.8-6.7,9.9-6.7c0.9,0,1.7,0.3,2.1,0.8c0.5,0.5,0.7,1.1,0.7,1.7s-0.2,1.2-0.7,1.7c-0.5,0.5-1.3,0.8-2.6,0.8
		c-1.3,0-2.5,0.3-3.8,0.8c-1.2,0.5-2.3,1.2-3.1,2.2c-1.7,2.1-2.5,4.8-2.5,8.2v17.8c0,0.9-0.3,1.5-0.9,2c-0.6,0.4-1.2,0.7-1.7,0.7
		c-0.4,0-0.8,0-1.2-0.1c-0.4-0.1-0.7-0.3-0.9-0.6c-0.6-0.4-0.9-1-0.9-1.9v-30.4c0-0.8,0.3-1.5,0.9-2c0.6-0.5,1.3-0.8,2.1-0.8
		c0.8,0,1.5,0.3,2,0.8c0.5,0.5,0.7,1.2,0.7,2L251.5,139L251.5,139z M288.1,169.6c-5.7,0-10-2.3-13.1-7v3.7c-0.1,0.8-0.4,1.4-0.9,1.9
		c-0.5,0.4-1.2,0.7-1.9,0.7c-0.7,0-1.4-0.2-1.9-0.7c-0.6-0.5-0.9-1.1-0.9-1.9v-46.1c0-0.9,0.3-1.5,0.9-2c0.6-0.4,1.3-0.7,2.1-0.7
		c0.8,0,1.4,0.2,2,0.6c0.6,0.4,0.9,1.1,0.9,2v18.7c1.1-2.1,3-3.7,5.5-4.9c2.1-1.1,4.6-1.6,7.2-1.6c2.7,0,5,0.5,6.9,1.6
		c1.8,1,3.4,2.4,4.6,4.1c2.5,3.3,3.8,7.7,3.8,12.9c0,5.2-1.2,9.4-3.6,12.8C296.8,167.6,293,169.6,288.1,169.6L288.1,169.6z
		 M275.2,150.4c0,1.9,0.2,3.8,0.6,5.6s1,3.4,2,4.7c2,3,5,4.4,9.2,4.4c4.7,0,7.7-2.6,9.3-7.9c0.5-2,0.8-4,0.8-6.1
		c0-2.2-0.1-4.1-0.5-5.7c-0.4-1.5-0.9-3-1.7-4.4c-1.9-2.9-4.7-4.3-8.4-4.3c-3.8,0-6.7,1.4-8.6,4.1
		C276.1,143.1,275.2,146.3,275.2,150.4L275.2,150.4z M327.6,147c1.3,0,2.6,0,4,0.1v-3c0-4.9-2.7-7.4-8.2-7.4c-2.5,0-4.2,0.2-5.4,0.7
		c-2,0.8-3.5,1.4-4.3,1.9c-0.9,0.5-1.6,0.8-2.1,0.8c-0.5,0-1-0.2-1.4-0.6c-0.4-0.4-0.7-0.9-0.7-1.5c0-0.5,0.3-1,0.9-1.5
		c3-2.8,7.3-4.2,13.1-4.2c6.7,0,11,2.2,12.8,6.7c0.6,1.6,0.9,3.4,0.9,5.5l-0.2,21.8c0,0.8-0.3,1.5-0.8,1.9c-0.6,0.4-1.2,0.7-1.9,0.7
		c-0.7,0-1.3-0.2-1.9-0.6c-0.6-0.4-0.8-1-0.8-1.9V163c-1.5,3.3-4.2,5.3-8.1,6.1c-1.3,0.3-2.7,0.5-4.1,0.5c-1.5,0-3-0.2-4.5-0.7
		c-1.4-0.4-2.8-1.1-3.9-2.1c-2.3-2-3.5-4.6-3.5-7.9C307.5,151,314.2,147,327.6,147L327.6,147z M331.5,151.3
		c-1.2,0.1-2.3,0.2-3.5,0.2c-1.3,0-2.7,0-4.1,0c-1.3,0-2.7,0.2-4,0.5c-1.3,0.3-2.4,0.7-3.4,1.3c-2.1,1.1-3.3,3-3.4,5.6
		c0,2,0.8,3.6,2.5,4.7c1.3,1,3.1,1.5,5.4,1.6c2.8,0,5.3-0.9,7.4-2.7c1.9-1.8,2.9-4.4,3.1-7.9C331.5,154.5,331.5,151.3,331.5,151.3z
		 M346.8,135.7c0-0.8,0.3-1.5,0.9-2c0.6-0.5,1.3-0.8,1.9-0.8c1.3,0,2.2,0.5,2.6,1.5c0.4,1,0.5,2.5,0.3,4.5c0.8-1.9,2.4-3.5,4.9-4.9
		c2.2-1.2,4.4-1.8,6.6-1.8c2.2,0,4,0.3,5.5,0.8c1.5,0.6,3,1.4,4.2,2.5c2.5,2.4,3.8,5.9,3.8,10.6v20c0,0.9-0.3,1.5-1,2
		c-0.7,0.4-1.3,0.7-2,0.7c-0.8,0-1.4-0.2-2-0.7c-0.6-0.5-0.8-1.1-0.8-1.9v-20.4c0-3-0.8-5.2-2.5-6.8c-1.5-1.5-3.4-2.3-5.7-2.3
		c-3,0-5.6,0.9-7.7,2.6c-2.1,1.9-3.2,4.8-3.2,8.7v18.1c0,0.9-0.3,1.5-0.9,2c-0.6,0.4-1.3,0.7-2.1,0.7c-0.7,0-1.4-0.2-1.9-0.7
		c-0.5-0.5-0.8-1.1-0.8-1.9L346.8,135.7L346.8,135.7z M399.2,181.7c-1-0.1-1.5-0.7-1.5-1.8c0-0.4,0.2-0.9,0.5-1.3
		c0.3-0.4,0.9-0.7,1.9-0.7c0.9,0,1.8-0.1,2.6-0.2c0.8-0.1,1.3-0.4,1.7-0.9c0.6-0.6,0.9-2.4,0.9-5.3V136c0-0.9,0.3-1.7,0.9-2.2
		c0.6-0.5,1.1-0.8,1.7-0.8c0.6,0,1,0.1,1.4,0.2c0.4,0.2,0.7,0.4,0.9,0.7c0.6,0.5,0.9,1.2,0.9,2.1v34c0,2.3-0.1,4.2-0.3,5.8
		c-0.2,1.6-0.6,2.9-1.3,3.9c-1.2,1.8-3.9,2.6-8.1,2.6h-0.6c-0.3,0-0.7-0.1-1-0.2C399.4,181.9,399.2,181.8,399.2,181.7L399.2,181.7z
		 M412,120.5c0,1-0.4,1.8-1.1,2.5c-0.7,0.6-1.7,0.9-2.9,0.9c-1.2,0-2.2-0.3-2.8-0.9c-0.7-0.6-1-1.5-1-2.5c0-0.9,0.3-1.6,1-2.3
		c0.7-0.6,1.6-0.9,2.9-0.9c1.2,0,2.2,0.3,2.9,0.9C411.7,118.8,412,119.6,412,120.5z M451.5,166.2c0,0.9-0.3,1.5-1,2
		c-0.7,0.4-1.2,0.7-1.7,0.7c-0.5,0-0.9,0-1.3-0.1c-0.4-0.1-0.7-0.3-0.9-0.6c-0.6-0.4-0.9-1.1-0.9-1.9v-3.3c-1.5,3.3-4.3,5.4-8.3,6.2
		c-1.3,0.3-2.6,0.5-4.1,0.5c-1.4,0-3-0.3-4.5-0.8c-1.5-0.5-2.9-1.3-4.1-2.5c-2.5-2.4-3.8-6-3.8-10.8v-19.8c0-0.9,0.3-1.6,0.9-2.1
		c0.6-0.5,1.2-0.8,2-0.8s1.4,0.3,2,0.8c0.6,0.5,0.9,1.2,0.9,2.1v20.3c0,3.4,0.7,5.8,2.1,7.1c1.4,1.3,3.5,2,6.2,2
		c4.7,0,7.9-1.9,9.6-5.7c0.7-1.3,1.1-2.8,1.1-4.5v-19.2c0-0.9,0.3-1.6,0.9-2.1c0.6-0.5,1.3-0.8,2.1-0.8c0.8,0,1.4,0.3,2,0.8
		c0.6,0.5,0.9,1.2,0.9,2.1L451.5,166.2L451.5,166.2z M461.3,135.7c0-0.8,0.3-1.5,0.9-2c0.6-0.5,1.3-0.8,1.9-0.8
		c1.3,0,2.2,0.5,2.5,1.5c0.4,1,0.5,2.5,0.3,4.5c0.8-1.9,2.4-3.5,4.9-4.9c2.2-1.2,4.4-1.8,6.6-1.8c2.2,0,4,0.3,5.5,0.8
		c1.5,0.6,3,1.4,4.2,2.5c2.5,2.4,3.8,5.9,3.8,10.6v20c0,0.9-0.3,1.5-1,2c-0.7,0.4-1.3,0.7-2,0.7c-0.8,0-1.4-0.2-2-0.7
		c-0.6-0.5-0.9-1.1-0.9-1.9v-20.4c0-3-0.8-5.2-2.5-6.8c-1.5-1.5-3.4-2.3-5.7-2.3c-3,0-5.6,0.9-7.7,2.6c-2.1,1.9-3.2,4.8-3.2,8.7
		v18.1c0,0.9-0.3,1.5-0.9,2c-0.6,0.4-1.3,0.7-2.1,0.7c-0.7,0-1.4-0.2-1.9-0.7c-0.5-0.5-0.8-1.1-0.8-1.9V135.7L461.3,135.7z
		 M516.1,136.8c-7.1,0-10.6,4.7-10.6,14.1c0,4.4,1.1,7.9,3.3,10.4c1.9,2.2,4.3,3.3,7.4,3.4c3.1,0,5.7-1.2,7.8-3.5
		c2.3-2.5,3.4-5.8,3.4-10.1c0-6.4-2-10.8-6-13C520,137.2,518.3,136.8,516.1,136.8L516.1,136.8z M514.6,132.3c6.2,0,10.5,2.4,13,7.1
		v-4c0.1-0.8,0.4-1.4,0.9-1.8c0.5-0.4,1.1-0.7,1.8-0.7c0.7,0,1.3,0.3,1.9,0.8c0.6,0.5,0.9,1.2,0.9,2v33.9c0,4.9-1.6,8.6-4.7,11
		c-2.8,2.3-6.9,3.4-12.3,3.4c-4.8,0-8.4-0.8-10.8-2.5c-1.9-1.4-2.8-2.5-2.8-3.4c0-0.6,0.2-1.1,0.6-1.6c0.4-0.4,0.9-0.6,1.4-0.6
		c0.5,0,1.1,0.2,1.6,0.5c0.5,0.3,1.1,0.7,1.8,1c0.7,0.3,1.4,0.6,2.1,0.8c1.8,0.6,3.7,0.9,5.6,0.9c1.9,0,3.6-0.2,5-0.5
		c1.3-0.3,2.6-0.8,3.6-1.6c2.1-1.4,3.2-3.8,3.2-7.2v-8.2c-1.8,3.5-4.7,5.7-8.7,6.7c-1.2,0.2-2.4,0.4-3.7,0.4c-5.2,0-9.2-1.8-12-5.4
		c-2.6-3.2-3.9-7.3-3.9-12.4c0-5.3,1.3-9.7,3.9-13.1C505.8,134.2,509.6,132.3,514.6,132.3z M542.3,120.3c0-1,0.3-1.7,0.9-2.2
		c0.6-0.4,1.2-0.7,1.7-0.7c0.5,0,0.9,0,1.2,0.1c0.3,0.1,0.6,0.3,0.9,0.6c0.7,0.4,1,1.2,1,2.2V166c0,0.9-0.3,1.7-0.9,2.1
		c-0.6,0.5-1.3,0.7-2.1,0.7c-0.8,0-1.4-0.2-2-0.7s-0.9-1.2-0.9-2.1L542.3,120.3L542.3,120.3z M590,149.9c0,1.3-0.8,2-2.3,2.2h-25.9
		c0.3,6.4,2.8,10.6,7.6,12.5c1.3,0.4,2.8,0.7,4.5,0.7c3.5,0,7.1-1.3,10.8-3.9c1.1-0.6,2.1-0.6,2.8,0.2c0.4,0.4,0.5,0.8,0.4,1.1
		c0,0.9-0.2,1.5-0.7,1.9c-3.5,3.5-8,5.2-13.7,5.1c-5.2,0-9.3-1.7-12.5-5c-3.5-3.5-5.3-8-5.3-13.7c0-5.2,1.5-9.5,4.3-12.9
		c3-3.8,7.3-5.7,12.8-5.7c5.5,0,9.8,1.7,12.7,5C588.4,140.3,589.9,144.5,590,149.9z M584.4,148.2c-0.2-3.4-1.3-6.2-3.3-8.4
		c-1.9-2-4.6-3-8.1-3c-3,0-5.6,1.1-7.7,3.4c-2,2.3-3,4.9-3.2,8H584.4L584.4,148.2z M110.9,197.7c-33.6,0-60.9-27.3-60.9-60.9
		c0-10.9,2.9-21.6,8.5-31c1.1-1.8,3.4-2.4,5.3-1.4c1.8,1.1,2.4,3.4,1.4,5.3l0,0c-4.8,8.2-7.4,17.6-7.4,27.1
		c0,29.4,23.9,53.2,53.2,53.2c29.4,0,53.2-23.9,53.2-53.2c0-10.2-2.9-20.1-8.3-28.6c-1.1-1.8-0.5-4.2,1.3-5.3c1.8-1.1,4-0.6,5.2,1.1
		c6.3,9.8,9.6,21.2,9.6,32.8C171.9,170.4,144.5,197.7,110.9,197.7"/>
	<path id="path885" class="st0" d="M110.4,182.7c-22,0-41.3-15.3-46.1-36.8c-0.5-2.1,0.8-4.1,2.9-4.6c2.1-0.5,4.1,0.8,4.6,2.9
		c4.2,18.2,20.8,31.2,39.5,30.8c10.5-0.2,20.5-4.6,27.8-12.2c7.3-7.6,11.2-17.8,11-28.3c-0.1-4.1-0.8-8.1-2.1-12
		c-0.7-2,0.4-4.2,2.4-4.9c2-0.7,4.2,0.4,4.9,2.4c1.6,4.6,2.4,9.4,2.5,14.3c0.3,12.6-4.4,24.7-13.1,33.8
		C135.7,177.4,123.3,182.7,110.4,182.7 M151.8,109.1c0.1-2.5-1.9-4.5-4.3-4.6c-2.5-0.1-4.5,1.9-4.6,4.3c0,0.1,0,0.2,0,0.2
		c0.1,2.5,2.1,4.4,4.6,4.3C149.8,113.4,151.7,111.5,151.8,109.1"/>
</g>
</svg>
