<svg xmlns="http://www.w3.org/2000/svg" xmlns:xlink="http://www.w3.org/1999/xlink" viewBox="0 0 225 79" width="225" height="79" preserveAspectRatio="xMidYMid meet" style="width: 100%; height: 100%; transform: translate3d(0px, 0px, 0px); content-visibility: visible;"><defs><clipPath id="__lottie_element_2"><rect width="225" height="79" x="0" y="0"></rect></clipPath><clipPath id="__lottie_element_4"><path d="M0,0 L463,0 L463,130 L0,130z"></path></clipPath><clipPath id="__lottie_element_8"><path d="M0,0 L64,0 L64,63 L0,63z"></path></clipPath><clipPath id="__lottie_element_12"><path d="M0,0 L56,0 L56,64 L0,64z"></path></clipPath><clipPath id="__lottie_element_16"><path d="M0,0 L17,0 L17,29 L0,29z"></path></clipPath><clipPath id="__lottie_element_20"><path d="M0,0 L74,0 L74,76 L0,76z"></path></clipPath><clipPath id="__lottie_element_24"><path d="M0,0 L12,0 L12,12 L0,12z"></path></clipPath><clipPath id="__lottie_element_28"><path d="M0,0 L41,0 L41,47 L0,47z"></path></clipPath><clipPath id="__lottie_element_32"><path d="M0,0 L35,0 L35,58 L0,58z"></path></clipPath><clipPath id="__lottie_element_36"><path d="M0,0 L30,0 L30,53 L0,53z"></path></clipPath><clipPath id="__lottie_element_40"><path d="M0,0 L12,0 L12,12 L0,12z"></path></clipPath><clipPath id="__lottie_element_44"><path d="M0,0 L12,0 L12,12 L0,12z"></path></clipPath></defs><g clip-path="url(#__lottie_element_2)"><g clip-path="url(#__lottie_element_4)" transform="matrix(1,0,0,1,-119.14600372314453,-25.367000579833984)" opacity="1" style="display: block;"><g clip-path="url(#__lottie_element_8)" transform="matrix(1,0,0,1,109.54100036621094,25.83599853515625)" opacity="1" style="display: block;"><g transform="matrix(1,0,0,1,32.04100036621094,31.472000122070312)" opacity="1" style="display: block;"><g opacity="1" transform="matrix(1,0,0,1,0,0)"><path fill="rgb(26,26,24)" fill-opacity="1" d=" M2.796999931335449,23.472000122070312 C2.796999931335449,23.472000122070312 5.73799991607666,14.842000007629395 5.73799991607666,14.842000007629395 C5.73799991607666,14.842000007629395 -7.065999984741211,-21.38599967956543 -7.065999984741211,-21.38599967956543 C-7.065999984741211,-21.38599967956543 0.1420000046491623,-22.99799919128418 0.1420000046491623,-22.99799919128418 C0.1420000046491623,-22.99799919128418 0.1420000046491623,-23.472000122070312 0.1420000046491623,-23.472000122070312 C0.1420000046491623,-23.472000122070312 -24.041000366210938,-23.472000122070312 -24.041000366210938,-23.472000122070312 C-24.041000366210938,-23.472000122070312 -24.041000366210938,-22.99799919128418 -24.041000366210938,-22.99799919128418 C-24.041000366210938,-22.99799919128418 -18.635000228881836,-21.291000366210938 -18.635000228881836,-21.291000366210938 C-18.635000228881836,-21.291000366210938 -2.513000011444092,23.472000122070312 -2.513000011444092,23.472000122070312 C-2.513000011444092,23.472000122070312 2.796999931335449,23.472000122070312 2.796999931335449,23.472000122070312z M10.194999694824219,-22.99799919128418 C10.194999694824219,-22.99799919128418 16.45400047302246,-21.38599967956543 16.45400047302246,-21.38599967956543 C16.45400047302246,-21.38599967956543 7.065000057220459,7.919000148773193 7.065000057220459,7.919000148773193 C7.065000057220459,7.919000148773193 8.109000205993652,7.919000148773193 8.109000205993652,7.919000148773193 C8.109000205993652,7.919000148773193 19.393999099731445,-21.38599967956543 19.393999099731445,-21.38599967956543 C19.393999099731445,-21.38599967956543 24.041000366210938,-22.99799919128418 24.041000366210938,-22.99799919128418 C24.041000366210938,-22.99799919128418 24.041000366210938,-23.472000122070312 24.041000366210938,-23.472000122070312 C24.041000366210938,-23.472000122070312 10.194999694824219,-23.472000122070312 10.194999694824219,-23.472000122070312 C10.194999694824219,-23.472000122070312 10.194999694824219,-22.99799919128418 10.194999694824219,-22.99799919128418z"></path></g></g></g><g clip-path="url(#__lottie_element_12)" transform="matrix(1,0,0,1,159.00900268554688,25.182998657226562)" opacity="1" style="display: block;"><g transform="matrix(1,0,0,1,27.958999633789062,32.18299865722656)" opacity="1" style="display: block;"><g opacity="1" transform="matrix(1,0,0,1,0,0)"><path fill="rgb(26,26,24)" fill-opacity="1" d=" M-3.509000062942505,20.201000213623047 C-7.586999893188477,20.201000213623047 -9.958000183105469,17.450000762939453 -9.958000183105469,11.760000228881836 C-9.958000183105469,11.760000228881836 -9.958000183105469,11.00100040435791 -9.958000183105469,11.00100040435791 C-9.958000183105469,3.7939999103546143 -6.543000221252441,0.3799999952316284 -0.3790000081062317,-0.1889999955892563 C-0.3790000081062317,-0.1889999955892563 -0.3790000081062317,-0.8529999852180481 -0.3790000081062317,-0.8529999852180481 C-0.3790000081062317,-0.8529999852180481 -2.4660000801086426,-0.8529999852180481 -2.4660000801086426,-0.8529999852180481 C-12.708000183105469,-0.8529999852180481 -20.958999633789062,3.6050000190734863 -20.958999633789062,12.708999633789062 C-20.958999633789062,19.25200080871582 -16.59600067138672,23.993999481201172 -9.86299991607666,23.993999481201172 C-4.267000198364258,23.993999481201172 -0.8529999852180481,21.054000854492188 0.7590000033378601,19.53700065612793 C0.7590000033378601,19.53700065612793 0.7590000033378601,19.062000274658203 0.7590000033378601,19.062000274658203 C-0.7580000162124634,19.820999145507812 -2.2760000228881836,20.201000213623047 -3.509000062942505,20.201000213623047z M-1.4229999780654907,-24.183000564575195 C-3.8889999389648438,-24.183000564575195 -6.070000171661377,-23.993000030517578 -8.25100040435791,-23.61400032043457 C-8.25100040435791,-23.61400032043457 -8.156000137329102,-22.950000762939453 -8.156000137329102,-22.950000762939453 C-0.7590000033378601,-23.045000076293945 3.509000062942505,-18.87299919128418 3.509000062942505,-11.095999717712402 C3.509000062942505,-11.095999717712402 3.509000062942505,16.597000122070312 3.509000062942505,16.597000122070312 C3.509000062942505,21.527999877929688 6.543000221252441,24.183000564575195 11.664999961853027,24.183000564575195 C16.216999053955078,24.183000564575195 19.441999435424805,22.19300079345703 20.958999633789062,20.864999771118164 C20.958999633789062,20.864999771118164 20.768999099731445,20.485000610351562 20.768999099731445,20.485000610351562 C19.820999145507812,20.770000457763672 18.966999053955078,20.958999633789062 18.20800018310547,20.958999633789062 C15.458000183105469,20.958999633789062 14.130999565124512,19.25200080871582 14.130999565124512,16.406999588012695 C14.130999565124512,16.406999588012695 14.130999565124512,-10.810999870300293 14.130999565124512,-10.810999870300293 C14.130999565124512,-19.72599983215332 7.7769999504089355,-24.183000564575195 -1.4229999780654907,-24.183000564575195z"></path></g></g></g><g clip-path="url(#__lottie_element_16)" transform="matrix(1,0,0,1,278.7760009765625,33.683998107910156)" opacity="1" style="display: block;"><g transform="matrix(1,0,0,1,8.392999649047852,14.319999694824219)" opacity="1" style="display: block;"><g opacity="1" transform="matrix(1,0,0,1,0,0)"><path fill="rgb(26,26,24)" fill-opacity="1" d=" M-6.401000022888184,-13.845999717712402 C-6.401000022888184,-13.845999717712402 -6.401000022888184,-14.319999694824219 -6.401000022888184,-14.319999694824219 C-6.401000022888184,-14.319999694824219 8.392999649047852,-14.319999694824219 8.392999649047852,-14.319999694824219 C8.392999649047852,-14.319999694824219 8.392999649047852,-13.845999717712402 8.392999649047852,-13.845999717712402 C8.392999649047852,-13.845999717712402 2.7980000972747803,-12.234000205993652 2.7980000972747803,-12.234000205993652 C2.7980000972747803,-12.234000205993652 -7.349999904632568,14.319999694824219 -7.349999904632568,14.319999694824219 C-7.349999904632568,14.319999694824219 -8.392999649047852,14.319999694824219 -8.392999649047852,14.319999694824219 C-8.392999649047852,14.319999694824219 -0.1420000046491623,-12.234000205993652 -0.1420000046491623,-12.234000205993652 C-0.1420000046491623,-12.234000205993652 -6.401000022888184,-13.845999717712402 -6.401000022888184,-13.845999717712402z"></path></g></g></g><g clip-path="url(#__lottie_element_20)" transform="matrix(1,0,0,1,284.927001953125,19.230998992919922)" opacity="1" style="display: block;"><g transform="matrix(1,0,0,1,37.1619987487793,38.23099899291992)" opacity="1" style="display: block;"><g opacity="1" transform="matrix(1,0,0,1,0,0)"><path fill="rgb(26,26,24)" fill-opacity="1" d=" M3.6510000228881836,19.48900032043457 C-3.4619998931884766,21.575000762939453 -7.919000148773193,17.87700080871582 -7.919000148773193,11.428000450134277 C-7.919000148773193,11.428000450134277 -7.919000148773193,-23.37700080871582 -7.919000148773193,-23.37700080871582 C-7.919000148773193,-23.37700080871582 -23.66200065612793,-23.37700080871582 -23.66200065612793,-23.37700080871582 C-23.66200065612793,-23.37700080871582 -23.66200065612793,-22.71299934387207 -23.66200065612793,-22.71299934387207 C-23.66200065612793,-22.71299934387207 -18.541000366210938,-19.868000030517578 -18.541000366210938,-19.868000030517578 C-18.541000366210938,-19.868000030517578 -18.541000366210938,12.185999870300293 -18.541000366210938,12.185999870300293 C-18.541000366210938,20.81599998474121 -13.515000343322754,24.231000900268555 -7.349999904632568,24.231000900268555 C-3.0829999446868896,24.231000900268555 0.8999999761581421,22.333999633789062 3.6510000228881836,20.058000564575195 C3.6510000228881836,20.058000564575195 3.6510000228881836,19.48900032043457 3.6510000228881836,19.48900032043457z M18.160999298095703,18.731000900268555 C18.160999298095703,18.731000900268555 18.160999298095703,0.1420000046491623 18.160999298095703,0.1420000046491623 C18.160999298095703,-9.246999740600586 18.35099983215332,-24.231000900268555 18.35099983215332,-24.231000900268555 C18.35099983215332,-24.231000900268555 1.8489999771118164,-21.290000915527344 1.8489999771118164,-21.290000915527344 C1.8489999771118164,-21.290000915527344 1.8489999771118164,-20.72100067138672 1.8489999771118164,-20.72100067138672 C1.8489999771118164,-20.72100067138672 7.539999961853027,-18.540000915527344 7.539999961853027,-18.540000915527344 C7.539999961853027,-18.540000915527344 7.539999961853027,23.851999282836914 7.539999961853027,23.851999282836914 C7.539999961853027,23.851999282836914 23.66200065612793,21.195999145507812 23.66200065612793,21.195999145507812 C23.66200065612793,21.195999145507812 23.66200065612793,20.62700080871582 23.66200065612793,20.62700080871582 C23.66200065612793,20.62700080871582 18.160999298095703,18.731000900268555 18.160999298095703,18.731000900268555z"></path></g></g></g><g clip-path="url(#__lottie_element_24)" transform="matrix(1,0,0,1,212.8489990234375,57.3033332824707)" opacity="1" style="display: block;"><g transform="matrix(1,0,0,1,5.784999847412109,5.784999847412109)" opacity="1" style="display: block;"><g opacity="1" transform="matrix(1,0,0,1,0,0)"><path fill="rgb(26,26,24)" fill-opacity="1" d=" M5.784999847412109,0.0949999988079071 C5.784999847412109,3.130000114440918 3.2239999771118164,5.784999847412109 0,5.784999847412109 C-3.130000114440918,5.784999847412109 -5.784999847412109,3.130000114440918 -5.784999847412109,0.0949999988079071 C-5.784999847412109,-3.2239999771118164 -3.130000114440918,-5.784999847412109 0,-5.784999847412109 C3.2239999771118164,-5.784999847412109 5.784999847412109,-3.2239999771118164 5.784999847412109,0.0949999988079071z"></path></g></g></g><g clip-path="url(#__lottie_element_28)" transform="matrix(1,0,0,1,201.1179962158203,66.0633316040039)" opacity="1" style="display: block;"><g transform="matrix(1,0,0,1,20.358999252319336,23.423999786376953)" opacity="1" style="display: block;"><g opacity="1" transform="matrix(1,0,0,1,0,0)"><path fill="rgb(26,26,24)" fill-opacity="1" d=" M0.1420000046491623,-0.5690000057220459 C0.1420000046491623,-0.5690000057220459 0.1420000046491623,0.1899999976158142 0.1420000046491623,0.1899999976158142 C0.1420000046491623,5.880000114440918 2.513000011444092,8.630000114440918 6.591000080108643,8.630000114440918 C7.823999881744385,8.630000114440918 9.342000007629395,8.25100040435791 10.859000205993652,7.492000102996826 C10.859000205993652,7.492000102996826 10.859000205993652,7.966000080108643 10.859000205993652,7.966000080108643 C9.246999740600586,9.484000205993652 5.833000183105469,12.423999786376953 0.2370000034570694,12.423999786376953 C-6.495999813079834,12.423999786376953 -10.859000205993652,7.682000160217285 -10.859000205993652,1.1380000114440918 C-10.859000205993652,-7.966000080108643 -2.6080000400543213,-12.423999786376953 7.633999824523926,-12.423999786376953 C7.633999824523926,-12.423999786376953 9.720999717712402,-12.423999786376953 9.720999717712402,-12.423999786376953 C9.720999717712402,-12.423999786376953 9.720999717712402,-11.758999824523926 9.720999717712402,-11.758999824523926 C3.556999921798706,-11.1899995803833 0.1420000046491623,-7.7769999504089355 0.1420000046491623,-0.5690000057220459z"></path></g></g></g><g clip-path="url(#__lottie_element_32)" transform="matrix(1,0,0,1,220.62600708007812,49.00733184814453)" opacity="1" style="display: block;"><g transform="matrix(1,0,0,1,17.604999542236328,29.183000564575195)" opacity="1" style="display: block;"><g opacity="1" transform="matrix(1,0,0,1,0,0)"><path fill="rgb(26,26,24)" fill-opacity="1" d=" M11.854000091552734,20.958999633789062 C12.61299991607666,20.958999633789062 13.467000007629395,20.770000457763672 14.414999961853027,20.485000610351562 C14.414999961853027,20.485000610351562 14.604999542236328,20.86400032043457 14.604999542236328,20.86400032043457 C13.088000297546387,22.191999435424805 9.862000465393066,24.183000564575195 5.310999870300293,24.183000564575195 C0.1889999955892563,24.183000564575195 -2.8450000286102295,21.52899932861328 -2.8450000286102295,16.597000122070312 C-2.8450000286102295,16.597000122070312 -2.8450000286102295,-11.095999717712402 -2.8450000286102295,-11.095999717712402 C-2.8450000286102295,-18.871999740600586 -7.11299991607666,-23.04599952697754 -14.510000228881836,-22.951000213623047 C-14.510000228881836,-22.951000213623047 -14.604999542236328,-23.61400032043457 -14.604999542236328,-23.61400032043457 C-12.423999786376953,-23.993000030517578 -10.243000030517578,-24.183000564575195 -7.7769999504089355,-24.183000564575195 C1.4229999780654907,-24.183000564575195 7.7769999504089355,-19.72599983215332 7.7769999504089355,-10.810999870300293 C7.7769999504089355,-10.810999870300293 7.7769999504089355,16.406999588012695 7.7769999504089355,16.406999588012695 C7.7769999504089355,19.25200080871582 9.104000091552734,20.958999633789062 11.854000091552734,20.958999633789062z"></path></g></g></g><g clip-path="url(#__lottie_element_36)" transform="matrix(1,0,0,1,247.59201049804688,33.832000732421875)" opacity="1" style="display: block;"><g transform="matrix(1,0,0,1,14.793999671936035,26.468000411987305)" opacity="1" style="display: block;"><g opacity="1" transform="matrix(1,0,0,1,0,0)"><path fill="rgb(26,26,24)" fill-opacity="1" d=" M10.053000450134277,-25.993999481201172 C10.053000450134277,-25.993999481201172 2.371000051498413,-24.381999969482422 2.371000051498413,-24.381999969482422 C2.371000051498413,-24.381999969482422 14.793999671936035,9.380000114440918 14.793999671936035,9.380000114440918 C14.793999671936035,9.380000114440918 8.87399959564209,26.468000411987305 8.87399959564209,26.468000411987305 C8.87399959564209,26.468000411987305 7.829999923706055,26.468000411987305 7.829999923706055,26.468000411987305 C7.829999923706055,26.468000411987305 10.234999656677246,17.631000518798828 10.234999656677246,17.631000518798828 C10.234999656677246,17.631000518798828 6.732999801635742,17.631000518798828 6.732999801635742,17.631000518798828 C6.732999801635742,17.631000518798828 -9.388999938964844,-24.28700065612793 -9.388999938964844,-24.28700065612793 C-9.388999938964844,-24.28700065612793 -14.793999671936035,-25.993999481201172 -14.793999671936035,-25.993999481201172 C-14.793999671936035,-25.993999481201172 -14.793999671936035,-26.468000411987305 -14.793999671936035,-26.468000411987305 C-14.793999671936035,-26.468000411987305 10.053000450134277,-26.468000411987305 10.053000450134277,-26.468000411987305 C10.053000450134277,-26.468000411987305 10.053000450134277,-25.993999481201172 10.053000450134277,-25.993999481201172z"></path></g></g></g><g clip-path="url(#__lottie_element_40)" transform="matrix(1,0,0,1,257.6570129394531,84.98100280761719)" opacity="1" style="display: block;"><g transform="matrix(1,0,0,1,5.784999847412109,5.784999847412109)" opacity="1" style="display: block;"><g opacity="1" transform="matrix(1,0,0,1,0,0)"><path fill="rgb(26,26,24)" fill-opacity="1" d=" M5.784999847412109,0.0949999988079071 C5.784999847412109,3.130000114440918 3.2239999771118164,5.784999847412109 0,5.784999847412109 C-3.130000114440918,5.784999847412109 -5.784999847412109,3.130000114440918 -5.784999847412109,0.0949999988079071 C-5.784999847412109,-3.2239999771118164 -3.130000114440918,-5.784999847412109 0,-5.784999847412109 C3.2239999771118164,-5.784999847412109 5.784999847412109,-3.2239999771118164 5.784999847412109,0.0949999988079071z"></path></g></g></g><g clip-path="url(#__lottie_element_44)" transform="matrix(-1,0,0,1,180.08099365234375,36.50299835205078)" opacity="1" style="display: block;"><g transform="matrix(-1,0,0,1,5.784999847412109,5.784999847412109)" opacity="1" style="display: block;"><g opacity="1" transform="matrix(1,0,0,1,0,0)"><path fill="rgb(26,26,24)" fill-opacity="1" d=" M-5.784999847412109,0.0949999988079071 C-5.784999847412109,-3.2239999771118164 -3.2239999771118164,-5.784999847412109 0,-5.784999847412109 C3.130000114440918,-5.784999847412109 5.784999847412109,-3.2239999771118164 5.784999847412109,0.0949999988079071 C5.784999847412109,3.130000114440918 3.130000114440918,5.784999847412109 0,5.784999847412109 C-3.2239999771118164,5.784999847412109 -5.784999847412109,3.130000114440918 -5.784999847412109,0.0949999988079071z"></path></g></g></g></g></g></svg>