<svg enable-background="new 0 0 286 52" viewBox="0 0 286 52" xmlns="http://www.w3.org/2000/svg"><g fill="#192033"><path d="m33.6 50.9h-13.5l-20.1-49.8h15.3l11.6 29.7 11.4-29.7h15.3z"/><path d="m95.2 50.9h-38v-49.8h37.8v12h-24.1v7.4h22.1v10.9h-22.1v7.4h24.3z"/><path d="m139.3 50.9h-38.1v-49.8h37.8v12h-24.1v7.4h22.1v10.9h-22.1v7.4h24.3v12.1z"/><path d="m165.5 1.1c7.8 0 14.1 2.3 18.9 6.8 4.8 4.6 7.1 10.6 7.1 18.1 0 7.4-2.4 13.4-7.1 18-4.8 4.6-11.1 6.9-18.9 6.9h-20.2v-49.8zm-1 37.8c4 0 7.1-1.2 9.6-3.6 2.4-2.4 3.6-5.5 3.6-9.3s-1.2-6.9-3.6-9.3-5.6-3.6-9.6-3.6h-5.5v25.7h5.5z"/><path d="m202.8 36c2.1 0 3.9.8 5.4 2.3 1.4 1.5 2.1 3.3 2.1 5.4 0 2.2-.7 4-2.1 5.4s-3.2 2.2-5.4 2.2-3.9-.7-5.3-2.2c-1.4-1.4-2.1-3.2-2.1-5.4 0-2.1.7-3.9 2.1-5.4 1.3-1.6 3.1-2.3 5.3-2.3z"/><path d="m215.2 50.9v-49.8h13.7v49.8z"/><path d="m260.2 0c7.2 0 13.4 2.5 18.3 7.5 4.9 5.1 7.4 11.2 7.4 18.5s-2.5 13.4-7.4 18.4c-5 5.1-11.1 7.6-18.3 7.6s-13.3-2.5-18.3-7.6c-5-5-7.5-11.1-7.5-18.4s2.5-13.4 7.5-18.5c5-5 11.1-7.5 18.3-7.5zm0 39.1c3.4 0 6.3-1.3 8.6-3.8 2.2-2.5 3.4-5.6 3.4-9.4 0-3.7-1.1-6.8-3.4-9.4-2.3-2.5-5.1-3.8-8.6-3.8-3.4 0-6.3 1.3-8.5 3.8-2.3 2.5-3.4 5.6-3.4 9.4s1.1 6.9 3.4 9.4c2.3 2.6 5.1 3.8 8.5 3.8z"/></g></svg>