<?xml version="1.0" encoding="UTF-8" standalone="no"?>
<svg
   xmlns:dc="http://purl.org/dc/elements/1.1/"
   xmlns:cc="http://creativecommons.org/ns#"
   xmlns:rdf="http://www.w3.org/1999/02/22-rdf-syntax-ns#"
   xmlns:svg="http://www.w3.org/2000/svg"
   xmlns="http://www.w3.org/2000/svg"
   xmlns:sodipodi="http://sodipodi.sourceforge.net/DTD/sodipodi-0.dtd"
   xmlns:inkscape="http://www.inkscape.org/namespaces/inkscape"
   version="1.1"
   id="Layer_1"
   inkscape:version="1.0 (4035a4fb49, 2020-05-01)"
   sodipodi:docname="ViacomCBS Networks International.svg"
   x="0px"
   y="0px"
   width="999.998px"
   height="199.982px"
   viewBox="0 0 999.998 199.982"
   enable-background="new 0 0 999.998 199.982"
   xml:space="preserve"><metadata
   id="metadata1250"><rdf:RDF><cc:Work
       rdf:about=""><dc:format>image/svg+xml</dc:format><dc:type
         rdf:resource="http://purl.org/dc/dcmitype/StillImage" /></cc:Work></rdf:RDF></metadata><defs
   id="defs1248">
	
	

		
		
		
		
		
		
		
		
		
	
		
		
		
		
		
		
		
		
		
		
		
		
		
		
		
		
		
		
		
		
		
	<style
   id="style2">.cls-1{fill:#071886;}.cls-2{fill:#00a3e0;}</style><style
   id="style35">.cls-1{fill:#071886;}.cls-2{fill:#00a3e0;}</style></defs>
<sodipodi:namedview
   showgrid="false"
   inkscape:cy="122.03435"
   inkscape:cx="450.55566"
   inkscape:zoom="0.88250087"
   borderopacity="1"
   bordercolor="#666666"
   pagecolor="#ffffff"
   id="namedview162"
   inkscape:window-maximized="1"
   inkscape:window-y="-8"
   inkscape:window-x="-8"
   inkscape:window-height="705"
   inkscape:window-width="1366"
   inkscape:pageshadow="2"
   inkscape:current-layer="Layer_1"
   inkscape:pageopacity="0"
   guidetolerance="10"
   objecttolerance="10"
   gridtolerance="10"
   inkscape:document-rotation="0">
	</sodipodi:namedview>
<g
   id="g3164"><path
     style="fill:#1476ff;fill-opacity:1"
     d="M 648.978,60.576 V 60.24 c 0,-16.143 5.78,-35.219 15.628,-46.208 V 2.393 H 629.667 L 601.199,48.574 572.746,2.393 h -34.938 v 119.286 h 32.368 V 53.34 l 30.333,46.533 h 0.675 l 30.509,-46.694 v 68.5 h 32.898 V 106.757 C 654.878,95.999 648.978,77.084 648.978,60.576 Z"
     fill="#001884"
     inkscape:connector-curvature="0"
     id="path108" /><path
     style="fill:#1476ff;fill-opacity:1"
     d="m 498.111,62.381 v -0.354 c 0,-17.374 -12.269,-32.281 -30.507,-32.281 -18.24,0 -30.315,14.731 -30.315,31.886 v 0.336 c 0,17.213 12.443,32.21 30.668,32.21 18.228,0 30.172,-14.675 30.172,-31.858 z m -94.589,0 V 62.027 C 403.537,27.779 431.14,0 467.956,0 c 36.818,0 64.066,27.44 64.066,61.632 v 0.336 c 0,34.264 -27.601,62.043 -64.419,62.043 -36.818,0 -64.066,-27.382 -64.066,-61.629 z"
     fill="#001884"
     inkscape:connector-curvature="0"
     id="path110" /><path
     style="fill:#1476ff;fill-opacity:1"
     d="M 293.629,62.381 V 62.027 C 293.629,27.265 320.219,0 356.347,0 c 24.373,0 40.046,10.271 50.609,24.711 l -24.889,19.313 c -6.808,-8.351 -14.673,-13.971 -26.062,-13.971 -16.714,0 -28.469,14.322 -28.469,31.696 v 0.335 c 0,17.905 11.739,31.874 28.469,31.874 12.43,0 19.753,-5.87 26.912,-14.481 l 24.945,17.727 c -11.255,15.514 -26.413,26.928 -52.666,26.928 -34.072,0 -61.514,-26.076 -61.514,-61.63 z"
     fill="#001884"
     inkscape:connector-curvature="0"
     id="path112" /><path
     style="fill:#1476ff;fill-opacity:1"
     d="m 251.206,74.472 -13.294,-33.75 -13.457,33.75 z M 222.24,1.542 h 31.869 l 50.773,120.136 h -35.438 l -8.524,-21.467 h -46.179 l -8.525,21.467 h -34.529 z"
     fill="#001884"
     inkscape:connector-curvature="0"
     id="path114" /><rect
     style="fill:#1476ff;fill-opacity:1"
     height="119.286"
     width="33.063"
     fill="#001884"
     y="2.3929999"
     x="132.933"
     id="rect116" /><polyline
     style="fill:#1476ff;fill-opacity:1"
     points="0,2.393 36.803,2.393 63.907,77.876 91.171,2.393 127.299,2.393     78.873,122.531 48.219,122.531 0,2.393   "
     fill="#001884"
     id="polyline118" /><path
     style="fill:#010a55;fill-opacity:1"
     d="M 664.239,62.381 V 62.027 C 664.239,27.265 690.812,0 726.955,0 c 24.356,0 40.047,10.271 50.61,24.711 l -24.888,19.313 c -6.811,-8.351 -14.676,-13.971 -26.076,-13.971 -16.699,0 -28.454,14.322 -28.454,31.696 v 0.335 c 0,17.905 11.739,31.874 28.454,31.874 12.445,0 19.766,-5.87 26.927,-14.481 l 24.946,17.727 c -11.256,15.514 -26.414,26.928 -52.666,26.928 -34.087,0 -61.513,-26.076 -61.513,-61.63"
     fill="#439cd6"
     inkscape:connector-curvature="0"
     id="path4" /><path
     style="fill:#010a55;fill-opacity:1"
     d="M 843.349,73.106 H 818.127 V 95.12 h 25.634 c 10.271,0 15.849,-3.919 15.849,-10.902 V 83.88 c -0.077,-6.503 -5.181,-10.774 -16.261,-10.774 z m 11.418,-33.911 c 0,-6.646 -5.282,-10.271 -14.996,-10.271 h -21.644 v 20.97 h 20.792 c 10.052,0 15.848,-3.404 15.848,-10.403 z M 785.914,2.393 h 61.192 c 14.997,0 25.563,3.742 32.545,10.565 5.074,5.175 7.837,12.185 7.661,19.429 v 0.337 c 0,13.81 -7.835,22.01 -18.401,26.575 14.482,4.784 23.686,12.959 23.686,29.14 v 0.354 c 0,20.438 -16.698,32.885 -45.15,32.885 h -61.53 V 2.393"
     fill="#439cd6"
     inkscape:connector-curvature="0"
     id="path6" /><path
     style="fill:#010a55;fill-opacity:1"
     d="m 895.841,103.954 18.415,-22.013 c 11.93,9.376 24.943,14.321 38.682,14.321 9.04,0 13.81,-3.069 13.81,-8.188 v -0.338 c 0,-5.104 -3.92,-7.675 -20.277,-11.593 C 921.07,70.366 901.479,63.204 901.479,38.83 v -0.337 c 0,-22.158 17.609,-38.153 46.182,-38.153 20.277,0 36.126,5.531 49.082,15.805 l -16.509,23.392 c -10.898,-7.836 -22.832,-11.74 -33.396,-11.74 -8.014,0 -11.932,3.243 -11.932,7.674 v 0.338 c 0,5.458 4.098,7.835 20.793,11.592 27.267,5.959 44.315,14.821 44.302,37.143 v 0.351 c 0,24.359 -19.253,38.841 -48.22,38.841 -21.132,0 -41.09,-6.633 -55.907,-19.764"
     fill="#439cd6"
     inkscape:connector-curvature="0"
     id="path8" /><path
     style="fill:#000000"
     d="m 36.14,199.232 v -43.717 h 4.619 l 27.543,35.036 v -35.036 h 4.809 v 43.717 H 69.175 L 40.947,163.383 v 35.849 z"
     inkscape:connector-curvature="0"
     id="path125" /><path
     style="fill:#000000"
     d="m 85.477,199.232 v -43.717 h 31.601 v 4.498 H 90.41 v 14.925 h 23.856 v 4.498 H 90.41 v 15.3 h 26.979 v 4.496 z"
     inkscape:connector-curvature="0"
     id="path127" /><path
     style="fill:#000000"
     d="m 138.873,199.232 v -39.155 h -14.676 v -4.562 h 34.349 v 4.562 h -14.677 v 39.155 z"
     inkscape:connector-curvature="0"
     id="path129" /><path
     style="fill:#000000"
     d="m 180.029,199.545 -15.612,-44.029 h 5.37 l 12.491,36.411 11.991,-36.536 h 4.059 l 11.991,36.536 12.49,-36.411 h 5.185 l -15.614,44.029 h -4.184 l -11.991,-35.474 -12.053,35.474 z"
     inkscape:connector-curvature="0"
     id="path131" /><path
     style="fill:#000000"
     d="m 271.022,193.331 c -4.206,4.433 -9.555,6.65 -16.05,6.65 -6.494,0 -11.824,-2.194 -15.987,-6.59 -4.164,-4.392 -6.246,-9.688 -6.246,-15.894 v -0.125 c 0,-6.203 2.102,-11.523 6.308,-15.957 4.205,-4.434 9.557,-6.649 16.051,-6.649 6.495,0 11.824,2.195 15.988,6.587 4.163,4.396 6.245,9.691 6.245,15.896 0.041,0.041 0.041,0.084 0,0.125 -0.002,6.205 -2.104,11.523 -6.309,15.957 z m -28.26,-3.152 c 3.269,3.495 7.38,5.243 12.334,5.243 4.955,0 9.046,-1.728 12.271,-5.183 3.227,-3.455 4.841,-7.701 4.841,-12.74 v -0.125 c 0,-5.037 -1.635,-9.308 -4.903,-12.804 -3.269,-3.497 -7.379,-5.244 -12.333,-5.244 -4.955,0 -9.047,1.728 -12.272,5.183 -3.228,3.457 -4.84,7.703 -4.84,12.74 v 0.125 c 0,5.039 1.633,9.305 4.902,12.805 z"
     inkscape:connector-curvature="0"
     id="path133" /><path
     style="fill:#000000"
     d="m 287.759,199.232 v -43.717 h 18.797 c 5.371,0 9.515,1.459 12.43,4.373 2.248,2.247 3.372,5.12 3.372,8.618 v 0.123 c 0,3.498 -1.083,6.33 -3.247,8.494 -2.166,2.166 -5.038,3.582 -8.619,4.248 l 13.428,17.859 h -6.058 l -12.679,-16.986 h -0.124 -12.365 v 16.986 z m 4.935,-21.42 h 13.427 c 3.33,0 6.036,-0.813 8.118,-2.436 2.082,-1.625 3.123,-3.812 3.123,-6.56 v -0.125 c 0,-2.705 -0.989,-4.817 -2.966,-6.338 -1.979,-1.519 -4.717,-2.277 -8.213,-2.277 h -13.489 z"
     inkscape:connector-curvature="0"
     id="path135" /><path
     style="fill:#000000"
     d="m 332.91,199.232 v -43.717 h 4.934 v 26.104 l 25.105,-26.104 h 6.371 l -18.735,19.11 19.547,24.605 h -6.183 l -16.8,-21.171 -9.307,9.431 v 11.74 z"
     inkscape:connector-curvature="0"
     id="path137" /><path
     style="fill:#000000"
     d="m 392.177,199.855 c -6.701,0 -12.655,-2.33 -17.859,-6.993 l 3.061,-3.62 c 2.331,2.123 4.673,3.684 7.025,4.683 2.352,1 5.006,1.498 7.962,1.498 2.914,0 5.267,-0.695 7.058,-2.091 1.79,-1.396 2.687,-3.174 2.687,-5.34 v -0.125 c 0,-2.123 -0.791,-3.812 -2.373,-5.06 -1.583,-1.248 -4.581,-2.332 -8.992,-3.248 -5.164,-1.123 -8.899,-2.633 -11.211,-4.526 -2.312,-1.896 -3.467,-4.591 -3.467,-8.089 v -0.125 c 0,-3.454 1.353,-6.308 4.06,-8.556 2.706,-2.248 6.143,-3.373 10.307,-3.373 5.785,0 10.905,1.791 15.361,5.373 l -2.873,3.809 c -3.872,-3.164 -8.077,-4.745 -12.613,-4.745 -2.79,0 -5.039,0.676 -6.745,2.027 -1.708,1.354 -2.562,3.029 -2.562,5.027 v 0.125 c 0,2.166 0.821,3.873 2.467,5.121 1.646,1.25 4.777,2.375 9.398,3.373 4.954,1.084 8.565,2.592 10.835,4.526 2.27,1.938 3.403,4.552 3.403,7.839 v 0.125 c 0,3.707 -1.395,6.691 -4.185,8.962 -2.791,2.27 -6.372,3.403 -10.744,3.403 z"
     inkscape:connector-curvature="0"
     id="path139" /><path
     style="fill:#000000"
     id="path1217"
     d="m 436.331,199.233 v -43.717 h 4.934 v 43.717 z" /><path
     style="fill:#000000"
     id="path1219"
     d="m 454.068,199.233 v -43.717 h 4.621 l 27.541,35.035 v -35.035 h 4.809 v 43.717 h -3.934 l -28.229,-35.849 v 35.849 z" /><path
     style="fill:#000000"
     id="path1221"
     d="m 514.958,199.233 v -39.158 h -14.676 v -4.559 h 34.348 v 4.559 h -14.676 v 39.158 z" /><path
     style="fill:#000000"
     id="path1223"
     d="m 543.872,199.233 v -43.717 h 31.602 v 4.496 h -26.668 v 14.926 h 23.857 v 4.496 h -23.857 v 15.301 h 26.98 v 4.498 z" /><path
     style="fill:#000000"
     id="path1225"
     d="m 585.716,199.233 v -43.717 h 18.799 c 5.371,0 9.514,1.457 12.428,4.371 2.248,2.248 3.371,5.121 3.371,8.619 v 0.125 c 0,3.496 -1.082,6.328 -3.246,8.492 -2.166,2.167 -5.039,3.582 -8.619,4.246 l 13.428,17.863 h -6.059 L 603.14,182.244 h -0.125 -12.365 v 16.988 h -4.934 z m 4.934,-21.422 h 13.426 c 3.332,0 6.039,-0.812 8.119,-2.436 2.082,-1.623 3.123,-3.81 3.123,-6.557 v -0.126 c 0,-2.706 -0.988,-4.817 -2.965,-6.338 -1.979,-1.521 -4.715,-2.28 -8.213,-2.28 h -13.49 z" /><path
     style="fill:#000000"
     id="path1227"
     d="m 630.868,199.233 v -43.717 h 4.621 l 27.541,35.035 v -35.035 h 4.811 v 43.717 h -3.936 l -28.229,-35.849 v 35.849 z" /><path
     style="fill:#000000"
     id="path1229"
     d="m 676.458,199.233 19.922,-44.029 h 4.621 l 19.924,44.029 h -5.309 l -5.123,-11.555 H 686.7 l -5.184,11.555 z m 12.178,-15.99 h 19.922 l -9.93,-22.295 z" /><path
     style="fill:#000000"
     id="path1231"
     d="m 735.476,199.233 v -39.158 h -14.678 v -4.559 h 34.35 v 4.559 h -14.676 v 39.158 z" /><path
     style="fill:#000000"
     id="path1233"
     d="m 764.827,199.233 v -43.717 h 4.934 v 43.717 z" /><path
     style="fill:#000000"
     id="path1235"
     d="m 818.909,193.33 c -4.205,4.434 -9.555,6.651 -16.051,6.651 -6.494,0 -11.824,-2.196 -15.986,-6.589 -4.164,-4.393 -6.246,-9.689 -6.246,-15.895 v -0.125 c 0,-6.202 2.102,-11.522 6.309,-15.955 4.205,-4.436 9.555,-6.652 16.051,-6.652 6.494,0 11.822,2.197 15.988,6.59 4.162,4.393 6.244,9.689 6.244,15.893 0.041,0.043 0.041,0.085 0,0.125 0,6.204 -2.102,11.523 -6.309,15.957 z m -28.257,-3.154 c 3.268,3.498 7.379,5.246 12.334,5.246 4.953,0 9.045,-1.727 12.27,-5.184 3.227,-3.455 4.842,-7.702 4.842,-12.74 v -0.125 c 0,-5.037 -1.635,-9.305 -4.902,-12.803 -3.27,-3.496 -7.381,-5.246 -12.336,-5.246 -4.955,0 -9.045,1.729 -12.27,5.186 -3.227,3.455 -4.842,7.702 -4.842,12.738 v 0.125 c -0.001,5.039 1.634,9.305 4.904,12.803 z" /><path
     style="fill:#000000"
     id="path1237"
     d="m 835.646,199.233 v -43.717 h 4.621 l 27.543,35.035 v -35.035 h 4.807 v 43.717 h -3.934 l -28.227,-35.849 v 35.849 z" /><path
     style="fill:#000000"
     id="path1239"
     d="m 881.238,199.233 19.92,-44.029 h 4.623 l 19.922,44.029 h -5.309 l -5.121,-11.555 H 891.48 l -5.186,11.555 z m 12.177,-15.99 h 19.922 l -9.93,-22.295 z" /><path
     style="fill:#000000"
     id="path1241"
     d="m 934.322,199.233 v -43.717 h 4.932 v 39.158 h 24.605 v 4.559 z" /></g>
</svg>
