<?xml version="1.0" encoding="UTF-8" standalone="no"?>
<svg
   xmlns:dc="http://purl.org/dc/elements/1.1/"
   xmlns:cc="http://creativecommons.org/ns#"
   xmlns:rdf="http://www.w3.org/1999/02/22-rdf-syntax-ns#"
   xmlns:svg="http://www.w3.org/2000/svg"
   xmlns="http://www.w3.org/2000/svg"
   xmlns:sodipodi="http://sodipodi.sourceforge.net/DTD/sodipodi-0.dtd"
   xmlns:inkscape="http://www.inkscape.org/namespaces/inkscape"
   inkscape:version="1.0 (4035a4fb49, 2020-05-01)"
   sodipodi:docname="ViacomCBS Logo.svg"
   xml:space="preserve"
   enable-background="new 0 0 1000 124.287"
   viewBox="0 0 1000 124.287"
   height="124.287px"
   width="1000px"
   y="0px"
   x="0px"
   id="Layer_1"
   version="1.1"><metadata
   id="metadata30"><rdf:RDF><cc:Work
       rdf:about=""><dc:format>image/svg+xml</dc:format><dc:type
         rdf:resource="http://purl.org/dc/dcmitype/StillImage" /></cc:Work></rdf:RDF></metadata><defs
   id="defs28"><style
     id="style2">.cls-1{fill:#071886;}.cls-2{fill:#00a3e0;}</style><style
     id="style35">.cls-1{fill:#071886;}.cls-2{fill:#00a3e0;}</style></defs><sodipodi:namedview
   inkscape:current-layer="Layer_1"
   inkscape:window-maximized="1"
   inkscape:window-y="-8"
   inkscape:window-x="-8"
   inkscape:cy="17.202707"
   inkscape:cx="522.2695"
   inkscape:zoom="0.82519361"
   inkscape:guide-bbox="true"
   showguides="true"
   showgrid="false"
   id="namedview26"
   inkscape:window-height="705"
   inkscape:window-width="1366"
   inkscape:pageshadow="2"
   inkscape:pageopacity="0"
   guidetolerance="10"
   gridtolerance="10"
   objecttolerance="10"
   borderopacity="1"
   bordercolor="#666666"
   pagecolor="#ffffff" />

<g
   id="g903"><path
     fill="#071886"
     d="M0,2.39h36.782l27.354,75.421L91.09,2.39h36.118L78.741,122.56H48.333L0,2.39L0,2.39z M132.918,2.39h32.93  v119.107h-32.93V2.39L132.918,2.39z M222.147,1.593h31.868l50.857,120.17H269.42l-8.631-21.379h-45.943l-8.63,21.379h-34.392  L222.147,1.593L222.147,1.593z M251.229,74.359L237.949,40.5l-13.278,33.859H251.229L251.229,74.359z M293.587,62.276V62.01  c0-34.922,26.688-62.01,62.807-62.01c24.299,0,40.101,10.224,50.591,24.565l-24.963,19.519c-6.771-8.365-14.475-13.81-25.895-13.81  c-16.598,0-28.547,14.341-28.547,31.736v0.266c0,17.794,11.949,31.868,28.547,31.868c12.217,0,19.52-5.709,26.824-14.34  l24.963,17.659c-11.287,15.536-26.425,26.823-52.716,26.823C321.072,124.021,293.587,97.995,293.587,62.276L293.587,62.276z   M403.399,62.276V62.01c0-34.258,27.753-62.01,64.533-62.01c36.781,0,64.003,27.486,64.003,61.745v0.265  c0,34.258-27.753,62.011-64.535,62.011C430.621,124.021,403.399,96.402,403.399,62.276L403.399,62.276z M498.207,62.276V62.01  c0-17.395-12.348-32.399-30.406-32.399c-18.06,0-30.276,14.739-30.276,32.134v0.265c0,16.996,12.349,32.134,30.674,32.134  C486.125,93.878,498.207,79.406,498.207,62.276L498.207,62.276z M648.783,60.55v-0.399c0-15.934,5.845-35.055,15.803-45.943V2.655  h-35.188l-28.549,45.944L572.434,2.655h-34.922v119.108h32.399V53.512l30.274,46.606h0.663l30.675-46.606v68.384h32.931v-14.872  C654.76,96.003,648.783,77.148,648.783,60.55L648.783,60.55z"
     id="path21"
     style="fill:#1476ff;fill-opacity:1" /><path
     fill="#00A3E0"
     d="M895.765,103.837l18.323-21.776c11.818,9.295,24.964,14.341,38.906,14.341  c9.029,0,13.811-2.921,13.811-8.365v-0.266c0-5.046-3.984-7.569-20.185-11.553c-25.361-5.843-45.146-12.747-45.146-37.445v-0.266  c0-22.042,17.661-37.977,46.209-37.977c20.184,0,35.853,5.71,48.997,15.934l-16.73,23.238  c-10.755-7.834-22.839-11.817-33.328-11.817c-8.233,0-11.95,3.186-11.95,7.568v0.266c0,5.444,4.249,7.834,20.979,11.552  c27.354,6.108,44.35,14.872,44.35,37.18v0.266c0,24.299-19.121,38.641-48.067,38.641  C930.287,123.755,910.371,116.85,895.765,103.837L895.765,103.837z M785.818,2.39h61.08c15.139,0,25.363,3.718,32.534,10.489  c5.045,5.312,7.833,12.217,7.568,19.387v0.265c0,13.81-7.836,22.042-18.458,26.424c14.473,4.781,23.769,13.013,23.769,29.345v0.266  c0,20.316-16.598,32.931-45.146,32.931h-61.347V2.39L785.818,2.39z M854.601,39.171c0-6.772-5.311-10.225-15.137-10.225h-21.643  v20.847h20.978c9.826,0,15.802-3.585,15.802-10.224V39.171L854.601,39.171z M843.183,73.165h-25.23v21.777h25.893  c10.226,0,15.802-3.985,15.802-10.89v-0.266C859.383,77.414,854.335,73.165,843.183,73.165L843.183,73.165z M664.055,62.276V62.01  c0-34.922,26.424-62.01,62.809-62.01c24.299,0,40.101,10.224,50.591,24.565L752.49,44.084c-6.772-8.365-14.474-13.81-26.026-13.81  c-16.863,0-28.549,14.341-28.549,31.736v0.266c0,17.794,11.817,31.868,28.549,31.868c12.216,0,19.519-5.709,26.823-14.34  l24.963,17.659c-11.286,15.536-26.424,26.823-52.717,26.823C691.542,124.021,664.055,97.995,664.055,62.276L664.055,62.276z"
     id="path23"
     style="fill:#010a55;fill-opacity:1" /></g>
</svg>
