<?xml version="1.0" encoding="utf-8"?>
<!-- Generator: Adobe Illustrator 19.0.0, SVG Export Plug-In . SVG Version: 6.00 Build 0)  -->
<svg version="1.1" id="layer" xmlns="http://www.w3.org/2000/svg" xmlns:xlink="http://www.w3.org/1999/xlink" x="0px" y="0px"
	 viewBox="-153 -46 652 652" style="enable-background:new -153 -46 652 652;" xml:space="preserve">
<style type="text/css">
	.st0{fill:#98F5DA;}
</style>
<path class="st0" d="M601.6,517.9c1.9,0.3,3.8,1.2,3.8,4.4c0,1.2-0.7,2.2-1.7,2.9H394.2c-1-0.7-1.7-1.8-1.7-3.1
	c0-1.8,0.9-3.8,3.3-4.1c2.1-0.3,4.3-0.5,6.5-0.7c7.4-0.6,17.1-1.9,22.2-4.3c6.4-3.1,10.3-9.6,10.3-15.3c0-4.5-2-10.4-4-16.3
	l-115-318.8c0,0,44.2-131.9,45.1-134.8c1.1-3.3,4.2-3.4,5.5-0.1c1.1,2.9,167.8,438.2,172.1,449.2c13.2,34.5,35.4,38.6,55.7,40.3
	C598.2,517.5,600.8,517.8,601.6,517.9L601.6,517.9z M359.6,486.7c3,0.9,3.6,4.5,2.6,7c-5.4,12.6-24.2,27.7-49,31.5h-25.8
	c-24.4-3.1-41.9-14-52.1-27.9c-17.8,12.8-38.8,22.8-62.9,27.9h-69.8c-50.9-11.4-78.1-48.5-78.1-92.9c0-48.1,34.1-83.1,74.2-101.9
	c7.4-3.4,16.1-7.2,23.2-9.8c0,0-5.9-9-11.2-17.9c-19.9-32.9-24.2-72.3-7.3-99.3c17.5-27.9,49.7-39.1,79.9-39.1
	c24.2,0,45.5,7.6,59.7,17.1c13.8,9.2,24,23,24,40.8c0,30-24.1,48.4-39.9,57.5c-16.2,9.4-39.9,21.8-39.9,21.8s57.5,90.9,89.2,140.9
	c17.4-26.3,29.4-61.3,32.5-85.1c1.4-10.6,2.1-18.4-5.3-23.4c-4.6-3.1-12-4.3-22.2-4.8c-1.6-0.1-3.8-0.3-5.1-0.6
	c-1.8-0.4-3.1-1.6-3.1-3.5c0-2.1,1.2-3.8,3.9-3.8l80.9,0c1.6,0,3.2,1,3.5,3.2c0.2,1.5-0.4,3.5-2.5,4.1c-1.5,0.4-3.3,0.6-7.3,1
	c-9.3,0.9-15.7,2.9-21.5,9.8c-4.2,5-7.1,17-9,24.9c-5.6,23-17.7,57.8-38.9,87.6c8.4,13.2,13.9,22,14.4,22.8
	c9.8,15.4,23,30.5,36.1,30.5c7,0,14.3-2.2,17.7-10.2C353.2,488,355.7,485.5,359.6,486.7L359.6,486.7z M183.7,504.2
	c15.9,0,31.7-5.7,46-15.3c-32.5-50.3-36.3-56.3-103.2-160.3l-0.2-0.3l-0.1-0.1c-30.7,19.8-39.1,51.3-39.1,75.5
	C87.1,453.5,129.5,504.2,183.7,504.2L183.7,504.2z M149.3,186.4c-12.1,17.6-3.9,43.6,5,60.5c10.2,19.3,27.9,46.8,27.9,46.8
	c20.6-13.6,33.3-38.1,33.3-63.6c0-40.5-20.9-56.6-38-56.6C164.9,173.6,155.5,177.4,149.3,186.4z M138.3,46.8
	c-6.1,3.6-9.7,10.8-11.9,16.3c-2.5,6.1-171.1,432.3-182.9,462.1h-5.7C-71.8,496.3-207.6,85.1-211,74.9
	c-3.5-10.6-10.5-23.8-20.8-28.8c-5.1-2.4-9.5-3.6-23.2-4.6c-6.2-0.4-9.4-0.9-10.5-1.4c-1.1-0.5-2-1.6-1.9-3.5
	c0.2-2.4,2.1-3.6,3.8-3.6l187.1,0c2.9,0,4.4,0.6,5,3.2c0.5,2.6-0.8,4.6-3.2,4.8c-2.2,0.2-3.4,0.3-5.9,0.5
	c-18,1.2-25.2,4.2-28.8,12.8c-2,4.7-0.4,13.2,3.4,25.3c3.8,12.1,92.4,292.6,93.8,296.8h0.5c0,0,111.8-288.7,116-300.1
	c4.2-11.5,6.2-21.1,2.5-26.6c-4-5.8-9.3-7.2-23.2-8.2c-5.8-0.4-10.9-0.7-13.2-1c-3-0.4-3.6-2.1-3.6-3.7c0-3.1,2.6-3.8,4.9-3.8
	l97.1,0c1.7,0,3.6,1.3,3.6,3.8c0,2.3-1.8,3.6-4,3.7C152.2,41.5,144.3,43.2,138.3,46.8L138.3,46.8z"/>
</svg>
