<svg xmlns="http://www.w3.org/2000/svg" viewBox="0 0 200 91.56"><g><g><path fill="#004137" d="M0 31.1h27.85v2.985h-3.606c-.747 0-1.433.292-2.054.873-.622.584-.93 1.372-.93 2.367 0 .832.245 1.995.743 3.49l11.215 30.827 9.835-27.316a18.57 18.57 0 0 0 .848-5.495c0-1.165-.413-2.248-1.232-3.247-.824-.999-1.856-1.5-3.101-1.5h-3.235V31.1h23.628v2.985h-5.33c-2.819 0-5.143 2.571-6.965 7.713L29.75 91.558h-3.98L7.483 41.3c-.913-2.653-1.928-4.518-3.047-5.598-1.12-1.077-.166-1.617-2.323-1.617H0z"/></g><g><path fill="#004137" d="M67.3 15.799c1.74 1.74 3.937 2.612 6.592 2.612 2.653 0 4.852-.872 6.593-2.612 1.742-1.743 2.612-3.938 2.612-6.594 0-2.653-.87-4.85-2.612-6.593C78.744.87 76.545 0 73.892 0c-2.655 0-4.851.87-6.593 2.612-1.74 1.742-2.612 3.94-2.612 6.593 0 2.656.872 4.851 2.612 6.594zm-7.34 74.264h30.456V87.08h-7.319c-.747 0-1.265-.145-1.554-.436-.29-.29-.435-.809-.435-1.556V31.1H59.96v2.984h4.727c.747 0 1.264.146 1.554.435.291.293.435.81.435 1.555v49.013c0 .747-.144 1.267-.435 1.556-.29.291-.807.436-1.554.436H59.96z"/></g><g><path fill="#004137" d="M90.42 87.082h4.727c.747 0 1.264-.144 1.555-.435.291-.29.435-.808.435-1.555V36.079c0-.747-.144-1.263-.435-1.555-.291-.29-.808-.435-1.555-.435H90.42v-2.986h21.149v12.316l.621.123c1.279-3.813 3.2-7.09 5.761-9.827 2.562-2.736 5.378-4.105 8.451-4.105 3.074 0 5.64 1.079 7.7 3.234 2.061 2.158 3.091 4.895 3.091 8.21 0 2.987-.871 5.6-2.612 7.838-1.74 2.24-3.9 3.359-6.468 3.359-2.241 0-4.15-.684-5.722-2.053-1.578-1.368-2.365-3.048-2.365-5.039 0-1.99.787-4.144 2.359-6.468.916-1.325 1.374-2.28 1.374-2.862 0-.827-.458-1.243-1.368-1.243-1.743 0-3.443 1.163-5.1 3.484-1.66 2.322-3.03 5.472-4.106 9.453-1.078 3.982-1.616 8.17-1.616 12.565v25.004c0 .747.143 1.265.434 1.555.289.29.808.435 1.554.435h3.981v2.986H90.42z"/></g><g><path fill="#004137" d="M173.62 84.045c-2 2.348-4.182 3.52-6.54 3.52-6.774 0-10.158-9.088-10.158-27.268 0-18.175 3.384-26.391 10.158-26.391 1.331 0 2.743.545 4.23 1.634 1.488 1.088 2.9 2.681 4.234 4.773 1.334 2.095 2.465 4.985 3.386 8.67.924 3.688 1.387 7.001 1.387 11.692 0 4.859-.616 9.382-1.848 13.57-1.23 4.19-2.846 7.457-4.848 9.8zm23.067-49.962h3.317V31.1h-19.687v7.964l-.871.25c-1.551-2.737-3.536-4.892-5.951-6.469-2.423-1.575-5.18-2.364-8.276-2.364-5.032 0-9.534 1.494-13.5 4.479-3.97 2.984-6.967 6.841-9.002 11.568-2.032 4.728-3.047 8.828-3.047 14.054 0 5.225 1.062 10.2 3.194 14.927 2.127 4.727 5.225 8.583 9.29 11.57 4.067 2.985 8.612 4.478 13.647 4.478 3.095 0 5.806-.871 8.128-2.614 2.324-1.74 4.16-3.771 5.517-6.095h.871v7.216h19.687v-2.985h-3.317c-.872 0-1.477-.145-1.814-.436-.342-.29-.51-.809-.51-1.555V36.073c0-.745.168-1.264.51-1.554.337-.291.942-.436 1.814-.436z"/></g></g></svg>