<svg xmlns="http://www.w3.org/2000/svg" xmlns:xlink="http://www.w3.org/1999/xlink" version="1.1" id="layer" x="0px" y="0px" style="enable-background:new 0 0 652 652;" xml:space="preserve" viewBox="22.46 157.5 599.74 328.94">
<style type="text/css">
	.st0{fill:#F41C5E;}
</style>
<path class="st0" d="M155.6,318.6c-0.2-10.2-7.3-18.9-17.2-21.1c-24.6,27.8-26.9,73.3-28.6,88.6c-0.8,18,17.2,18.5,17.2,18.5  c20.8-5.1,17.8-21.2,17.8-21.2c-1.5-1.4-2.3-3.5-2-5.6C142.9,373.8,155.6,322.8,155.6,318.6z M431.4,299.1c4.4,0,13.9-7.4,13.9-13.3  c0-2.8-10.4-25.3-24.6-25.3c-4.9,0.6-8.9,4.4-9.8,9.3C410.9,276.6,416.8,299.1,431.4,299.1z M161.3,283c4.4,0,12.2-2.9,12.2-8.9  c0-2.8-11.2-29.6-25.3-29.6c-4.9,0.6-8.9,4.4-9.8,9.3C138.4,260.7,140,283,161.3,283z M205,160c-5.8-6.6-80.3-15-144.6,187.6  c-0.2,0.7-1,1.2-1.8,0.9c-0.4-0.1-0.8-0.5-0.9-0.9c-10.1-53.8-5.6-114.5-6.9-124.4c-3.2-24.6-23.9-16.8-23.9-16.8  c-9.3,19.3-3.4,175.7,12.2,196.1c9.3,4,35.9,2.6,41.5-3.7C80.7,398.8,117.9,201,205,160z M604.7,304.7c-1.4,0.2-2.5,1.1-3.1,2.4  c-22.5,40.7-42.9,73.1-60.3,74.4c-3.2,0.3-6.1-2-6.5-5.2v-0.5c-2.1-15.6,12.5-54.3,11.5-65.3c-0.4-4.1-2.4-3.6-5.1-5.3  c-1,0.9-1.9,1.8-2.8,2.9c-0.4,0.5-1.1,0.7-1.7,0.4c-10.1-3.5-20.5-6-31.1-7.6c8-22.2,24.7-69.6,24.7-73.8c0-10.5-7.7-14.1-20.8-17.8  c-21.1,37.1-34.4,87.6-35.6,91.4c-6.8,6.1-17.1,0.5-19.1,12.5c5.1,5.4,14.7,9.9,14.7,14.1c0,4.2-7.2,21.3-4.4,77.3  c3.7,1.4,18.8-14.8,19.3-19.6c4.2-43.5,15.2-59.1,15.2-59.1c9.2,0.3,18.4-0.2,27.5-1.5c0.2-0.1,0.4,0.1,0.4,0.2c0,0.1,0,0.2,0,0.3  c-2.4,5-17.2,35.6-17.3,49.5c0,18.3,5.8,28.6,21,30c3.2,0.4,6.5,0.4,9.7,0c17.8-2.7,33.9-11.9,45.3-25.8c0.5-0.5,1.3-0.6,1.8-0.2  c0.4,0.3,0.6,0.9,0.4,1.4c-22.2,79.6-65.3,99.4-83.5,103.8c0.6,5.6,32,4,53.8-14.6c24.2-21.5,42-49.1,51.6-80  c2.4-8.1,4.7-16.5,6.5-25.1c3.2-15.5,5-31.2,5.4-47C622.5,314.3,607.8,304.7,604.7,304.7z M455.7,393.9h-0.8  c-23.3,0,4.1-82.3-28.8-77.9c-5.9,1.4-11.6,3.6-16.9,6.7c-0.6,0.3-1.1,0.8-1.5,1.4c-11.7,19.1-25.4,37-40.8,53.3  c-1.4,1.5-3.8,1.6-5.3,0.2c-0.5-0.4-0.8-1-1-1.6c-12-38.6,40.8-152.3,41.5-154.8c4-12.8-13.3-18.9-22.2-19.8  c-19.1,27.2-51.1,112.8-47.9,181c0,0.9-0.5,1.7-1.3,2c-5.4,2.2-24.9,9.3-22.6-6.6c0.6-4.2,9.8-28.7,9.8-32.9  c0-2.8-11.7-18.5-20.5-18.5c-3.8,0-36.7,41.8-47.9,51.6c-1.6,1.4-4,1.2-5.3-0.4c-0.2-0.3-0.4-0.6-0.6-0.9  c-5.9-13.4,8.7-49.8,50-63.6c3.8-3.3,7.3-6.8,10.6-10.5c0.6-1,0.8-2.1,0.5-3.2c-0.6-1.4-1.7-2.6-3.2-3.3  c-23.1-10.7-74.4-9.2-83.2-10.4c6.4-29.4,26.7-76.6,27.2-81.2c0.8-7.1-6.1-14-20.4-17.8c-17,31.6-31.3,64.6-42.8,98.6  c-3.8,4-9.6,2.4-13.3,13.7c0,5.1,8.3,10.8,8.3,15.4s-7.9,29.2-4.8,90.4c11.4,0.7,23.6-17.3,24.4-22.6c3.1-23.4,7.9-46.5,14.4-69.2  c15.2,0,30.4-1,45.6-2.9c0.2-0.1,0.5,0.1,0.5,0.3c0,0.2,0,0.4-0.2,0.5c-22.2,18.7-43,36.8-42.5,71.6c0,14.1,15.2,22.2,23.8,22.2  c14.8,0,30-13.3,37.2-21.4c0.8-1.1,2.3-1.4,3.4-0.6c0.6,0.4,1,1.1,1,1.8c1.8,11.8,12.1,20.5,24,20.2c9.9,0,24.5-9.3,30.1-12.4  c0.5-0.3,1.1-0.2,1.5,0.3c3.7,4.4,11.2,12.2,18.4,12.2c21.4,0,43.2-31.1,55.2-50.4c0.7-1,2-1.3,3.1-0.7c0.5,0.3,0.8,0.8,1,1.4  c4.4,20.6,4.4,49.7,25.2,49.7c6.4-0.2,12.8-1.4,18.9-3.6c2-0.6,3.2-2.6,2.6-4.6C459.8,394.5,457.7,393.3,455.7,393.9z"/>
</svg>