<?xml version="1.0" encoding="utf-8"?>
<!-- Generator: Adobe Illustrator 19.2.1, SVG Export Plug-In . SVG Version: 6.00 Build 0)  -->
<svg version="1.1" id="layer" xmlns="http://www.w3.org/2000/svg" xmlns:xlink="http://www.w3.org/1999/xlink" x="0px" y="0px"
	 viewBox="0 0 652 652" style="enable-background:new 0 0 652 652;" xml:space="preserve">
<style type="text/css">
	.st0{fill:#00C1DE;}
</style>
<path class="st0" d="M112.7,228.3c24.4,0,47,9.7,64,27.2c17,17.6,26.5,40.5,26.5,65.2c0,24.7-9.2,47.6-26.5,65.2
	c-17.3,17.2-40,26.9-64.4,26.9c-24.4,0-47-9.3-64.3-26.9c-17-17.6-26.5-40.5-26.5-65.2c0-24.7,9.5-47.6,26.9-65.5
	C65.6,238,88.3,228.3,112.7,228.3L112.7,228.3z M77.3,370.1c-2.5-0.7-6.7-3.2-6.7-11.5V255.1c-4.4,3.1-8.6,6.6-12.4,10.4
	c-14.5,14.7-22.7,34.5-22.6,55.2c0,20.8,8.1,40.5,23.3,54.8c14.5,14.7,33.9,22.9,54.4,22.9c20.5,0,40-8.3,54.4-22.9
	c14.5-14.7,22.7-34.5,22.6-55.1c0-20.8-8.1-40.5-22.6-55.2c-3.6-3.6-7.5-6.8-11.7-9.7v103.1c0,8.2-4.2,10.8-6.7,11.5
	c-4.6,1.1-8.5-1.1-12-6.1l-24.1-36.2l-24,36.2C84.7,371.2,79.8,370.8,77.3,370.1L77.3,370.1z M141.3,345.7v-97.4
	c-18-7.5-38.9-7.5-56.9-0.4v97.8L101,320c2.8-4.3,7.1-6.8,11.7-6.8c4.6,0,8.8,2.5,11.6,6.8L141.3,345.7z M141.3,345.7 M330.6,366.2
	h-15.8l-17.9-61.4l-18.1,61.4h-15.9l-22.5-85.7h17l14.1,59.9l17.6-59.9H305l17.6,60l14.1-60h16.4L330.6,366.2z M388.8,315.1
	c-3.8,0-7.2,1.1-10.1,3.3c-2.9,2.2-4.6,5.4-5.2,9.8h28.9c-0.1-4-1.3-7.2-3.9-9.5C396,316.3,392.7,315.1,388.8,315.1L388.8,315.1z
	 M417.3,339.2h-44.1c0.2,4.9,1.8,8.6,4.9,11.3c3.1,2.6,6.9,3.9,11.5,3.9c3.4,0,6.3-0.8,8.9-2.3c2.5-1.5,4.2-3.8,4.9-6.9h13.9
	c-1.2,7-4.4,12.5-9.8,16.4c-5.4,3.9-11.6,5.9-18.6,5.9c-8.4,0-15.5-2.9-21.5-8.5c-6-5.6-8.9-13.7-8.9-24.2c0-10.4,2.9-18.4,8.8-24.2
	c5.9-5.8,13.1-8.7,21.7-8.7c8.2,0,15,2.7,20.4,8.1c5.4,5.4,8,13,8,23V339.2z M505.1,320.3v45.9h-15v-9.5c-1.8,3.1-4.8,5.9-9,8.2
	c-4.3,2.3-9.5,3.5-15.8,3.5c-12,0-21.6-4.3-29-13c-7.4-8.7-11-19.3-11-32.1c0-5.8,0.8-11.4,2.6-16.7c1.7-5.2,4.3-10,7.6-14.3
	c3.3-4.3,7.8-7.6,13.3-10.1c5.5-2.5,11.8-3.7,18.7-3.7c10.3,0,18.9,2.7,25.7,8c6.8,5.4,10.7,12.9,11.8,22.5h-16.3
	c-0.5-4.8-2.8-8.6-6.9-11.4c-4.1-2.8-9-4.3-14.8-4.3c-8.4,0-14.7,2.8-19.1,8.5c-4.4,5.7-6.6,12.8-6.6,21.4c0,9.1,2.4,16.4,7.1,21.8
	c4.7,5.5,11.1,8.2,19.2,8.2c6,0,11.1-1.6,15.3-4.7c4.2-3.1,6.7-7.7,7.4-13.6H465v-14.9H505.1z M520.5,303.1h15.3v63.1h-15.3V303.1z
	 M520,294.8v-17.2h16.2v17.2H520z M621.5,366.2h-10c-6.5,0-11.4-1.4-14.6-4.3c-3.2-2.9-4.8-8.3-4.8-16.2v-28.8H569v49.4h-15.3v-49.4
	h-9.4v-13.7h9.4v-3.4c0-7.9,1.6-13.3,4.9-16.2c3.2-2.9,8.1-4.3,14.6-4.3h9.2v13.5h-6.9c-2.5,0-4.3,0.5-5.1,1.6
	c-0.9,1.1-1.3,2.7-1.3,4.8v4.1H592V289l15.3-4.2v18.4H620v13.7h-12.6v29.5c0,2.2,0.4,3.8,1.3,4.8c0.9,1.1,2.6,1.6,5.1,1.6h7.7V366.2
	z M621.5,366.2"/>
</svg>
