<?xml version="1.0" encoding="UTF-8" standalone="no"?>
<!-- Created with Inkscape (http://www.inkscape.org/) -->

<svg
   xmlns:dc="http://purl.org/dc/elements/1.1/"
   xmlns:cc="http://creativecommons.org/ns#"
   xmlns:rdf="http://www.w3.org/1999/02/22-rdf-syntax-ns#"
   xmlns:svg="http://www.w3.org/2000/svg"
   xmlns="http://www.w3.org/2000/svg"
   xmlns:sodipodi="http://sodipodi.sourceforge.net/DTD/sodipodi-0.dtd"
   xmlns:inkscape="http://www.inkscape.org/namespaces/inkscape"
   width="200.99892"
   height="24.004999"
   viewBox="0 0 53.180965 6.3513228"
   version="1.1"
   id="svg1262"
   inkscape:version="0.92.0 r15299"
   sodipodi:docname="whitbread.svg">
  <defs
     id="defs1256" />
  <sodipodi:namedview
     id="base"
     pagecolor="#ffffff"
     bordercolor="#666666"
     borderopacity="1.0"
     inkscape:pageopacity="0.0"
     inkscape:pageshadow="2"
     inkscape:zoom="4.485024"
     inkscape:cx="99.999464"
     inkscape:cy="11.502501"
     inkscape:document-units="mm"
     inkscape:current-layer="layer1"
     showgrid="false"
     fit-margin-top="0"
     fit-margin-left="0"
     fit-margin-right="0"
     fit-margin-bottom="0"
     units="px"
     inkscape:window-width="1280"
     inkscape:window-height="744"
     inkscape:window-x="-4"
     inkscape:window-y="-4"
     inkscape:window-maximized="1" />
  <metadata
     id="metadata1259">
    <rdf:RDF>
      <cc:Work
         rdf:about="">
        <dc:format>image/svg+xml</dc:format>
        <dc:type
           rdf:resource="http://purl.org/dc/dcmitype/StillImage" />
        <dc:title></dc:title>
      </cc:Work>
    </rdf:RDF>
  </metadata>
  <g
     inkscape:label="Layer 1"
     inkscape:groupmode="layer"
     id="layer1"
     transform="translate(102.05342,-266.47776)">
    <path
       id="path1264"
       d="m -100.07012,272.26367 -1.80711,-4.92337 a 0.53842708,0.53842708 0 0 1 -0.0439,-0.20372 c 0,-0.28893 0.25294,-0.50959 0.54981,-0.50959 0.26193,0 0.46302,0.16139 0.5326,0.38206 l 1.405733,4.08305 1.379273,-4.06665 c 0.08731,-0.2458 0.270668,-0.4154 0.541337,-0.4154 h 0.07885 c 0.269875,0 0.462227,0.1696 0.541337,0.4154 l 1.378744,4.06665 1.405996,-4.09179 c 0.07832,-0.21246 0.261937,-0.37359 0.523081,-0.37359 0.288925,0 0.533136,0.22067 0.533136,0.50059 0,0.068 -0.02646,0.15293 -0.05239,0.21247 l -1.806839,4.92389 c -0.09657,0.263 -0.297392,0.43286 -0.559065,0.43286 h -0.10451 c -0.262203,0 -0.454555,-0.1614 -0.550334,-0.43312 l -1.362339,-3.87932 -1.361546,3.87958 c -0.09604,0.27173 -0.296863,0.43312 -0.5588,0.43312 h -0.10504 c -0.261673,0 -0.453494,-0.16139 -0.558274,-0.43312 z m 7.900454,-0.127 v -4.99216 c 0,-0.28839 0.236009,-0.51779 0.541073,-0.51779 0.296863,0 0.532871,0.2294 0.532871,0.51779 v 1.99496 h 2.915708 v -1.99496 c 0,-0.28839 0.236273,-0.51752 0.532607,-0.51752 0.305593,0 0.541337,0.22939 0.541337,0.51779 v 4.99189 c 0,0.2884 -0.235744,0.51753 -0.541337,0.51753 -0.296334,0 -0.532871,-0.22913 -0.532871,-0.51753 v -2.02935 h -2.915709 v 2.02935 c 0,0.2884 -0.235479,0.51753 -0.532606,0.51753 -0.305064,0 -0.540808,-0.22913 -0.540808,-0.51753 z m 6.434402,0 v -4.99216 c 0,-0.28839 0.23548,-0.51779 0.541338,-0.51779 0.296333,0 0.531812,0.2294 0.531812,0.51779 v 4.9919 c 0,0.28839 -0.235479,0.51752 -0.531812,0.51752 -0.305858,0 -0.541338,-0.22913 -0.541338,-0.51752 z m 3.945732,0 v -4.4995 h -1.484313 c -0.2794,0 -0.497417,-0.2204 -0.497417,-0.48393 0,-0.26299 0.218017,-0.48392 0.497417,-0.48392 h 4.059767 c 0.270933,0 0.488421,0.22093 0.488421,0.48419 0,0.26326 -0.217488,0.48366 -0.488421,0.48366 h -1.493044 v 4.4995 c 0,0.2884 -0.24421,0.51753 -0.541073,0.51753 -0.296598,0 -0.541337,-0.22913 -0.541337,-0.51753 z m 3.893608,-0.0513 v -4.8895 c 0,-0.29739 0.236008,-0.52652 0.541602,-0.52652 h 2.199746 c 0.698235,0 1.248833,0.18706 1.597554,0.52652 0.270933,0.263 0.410104,0.58553 0.410104,0.98425 v 0.0175 c 0,0.71332 -0.418571,1.09538 -0.87286,1.32424 0.715962,0.23786 1.213644,0.63686 1.213644,1.44331 v 0.0169 c 0,1.06098 -0.899055,1.6301 -2.261394,1.6301 h -2.286794 c -0.305594,0 -0.541602,-0.2294 -0.541602,-0.52652 z m 1.056217,-2.91174 h 1.46685 c 0.689768,0 1.15226,-0.26299 1.15226,-0.80645 v -0.0167 c 0,-0.46699 -0.383646,-0.75591 -1.073679,-0.75591 h -1.545167 v 1.57903 z m 0,2.51275 h 1.781175 c 0.733425,0 1.178454,-0.28046 1.178454,-0.81492 v -0.0169 c 0,-0.50112 -0.40984,-0.79798 -1.256771,-0.79798 h -1.702858 z m 4.98475,0.45006 v -4.94057 c 0,-0.29739 0.236273,-0.52652 0.541602,-0.52652 h 2.182812 c 0.767556,0 1.370542,0.22066 1.763184,0.59452 0.323056,0.32253 0.506412,0.76385 0.506412,1.28164 v 0.0169 c 0,0.95039 -0.567531,1.52797 -1.388004,1.7743 l 1.169458,1.43484 c 0.10504,0.127 0.174625,0.23733 0.174625,0.39899 0,0.28839 -0.252941,0.48366 -0.514879,0.48366 -0.24421,0 -0.401373,-0.11007 -0.523875,-0.27173 l -1.484312,-1.84177 h -1.35308 v 1.59571 c 0,0.28839 -0.235743,0.51779 -0.532341,0.51779 -0.305329,0 -0.541602,-0.2294 -0.541602,-0.51779 z m 1.073943,-2.52122 h 1.571625 c 0.768086,0 1.257036,-0.39079 1.257036,-0.99351 v -0.0169 c 0,-0.63659 -0.471488,-0.98478 -1.266031,-0.98478 h -1.56263 z m 5.445125,2.99667 c -0.306123,0 -0.541866,-0.22939 -0.541866,-0.52652 v -4.8895 c 0,-0.29739 0.235479,-0.52652 0.541866,-0.52652 h 3.55309 c 0.261937,0 0.479954,0.2122 0.479954,0.46699 0,0.263 -0.218281,0.46673 -0.479954,0.46673 h -3.020748 v 1.54516 h 2.627577 c 0.262202,0 0.480219,0.21246 0.480219,0.47519 0,0.25453 -0.218017,0.45853 -0.480219,0.45853 h -2.627312 v 1.59596 h 2.627577 c 0.261937,0 0.480483,0.2122 0.480483,0.46699 0,0.263 -0.218546,0.46699 -0.480483,0.46699 z m 10.805055,-0.52652 v -4.8895 c 0,-0.29739 0.235479,-0.52652 0.541072,-0.52652 h 1.737784 c 1.92061,0 3.247231,1.28191 3.247231,2.95407 v 0.0167 c 0,1.6727 -1.326621,2.9718 -3.247231,2.9718 h -1.737784 c -0.305593,0 -0.541072,-0.22939 -0.541072,-0.52652 z m 1.073679,-0.42439 h 1.205177 c 1.283229,0 2.121164,-0.84058 2.121164,-2.00342 v -0.0175 c 0,-1.16284 -0.837935,-2.02009 -2.121164,-2.02009 h -1.205177 z m -3.046413,0.48974 v -0.97366 h -3.005666 l -0.601928,1.19988 c -0.130175,0.25929 -0.445558,0.36513 -0.711729,0.23813 -0.275166,-0.13018 -0.383116,-0.43656 -0.253471,-0.69586 l 2.021153,-4.02934 c 0.08308,-0.18626 0.561445,-1.22052 2.141272,-1.22052 l 0.942975,-0.006 c 0.275432,0 0.4953,0.18706 0.535517,0.44238 l 0.0053,0.0836 v 4.9612 c 0,0.2884 -0.235744,0.51806 -0.532342,0.51806 -0.305329,0 -0.541073,-0.22966 -0.541073,-0.51806 z m 0,-4.52755 -0.323585,-0.003 -0.124354,0.003 c -0.516467,0.0254 -0.879475,0.20902 -1.043252,0.53393 l -1.050396,2.09444 h 2.541587 v -2.6281 z"
       inkscape:connector-curvature="0"
       style="fill:#004687;fill-rule:evenodd;stroke-width:0.26458332" />
  </g>
</svg>
