<svg xmlns="http://www.w3.org/2000/svg" xmlns:xlink="http://www.w3.org/1999/xlink" version="1.1" id="layer" x="0px" y="0px" style="enable-background:new 0 0 652 652;" xml:space="preserve" viewBox="32.98 255.7 600.12 129.45">
<style type="text/css">
	.st0{fill:#F19F00;}
</style>
<path d="M340.8,301.3h13.8v57.6h-13.8V301.3z M308.9,336.5h-0.2l-9.3-35.2h-11l-9.4,35.2h-0.2l-10.5-35.2h-14.7l20.7,57.6h8.5  l10.9-37.4h0.2l10.8,37.4h8.5l21.1-57.6h-14.7L308.9,336.5z M394.3,299.3c-6.6,0-11.2,2.5-15.8,7v-5h-12.8v57.6h13.8v-27.4  c0-4.3,0-10.8,2.5-14.4c2.1-3,5.8-5.1,9.4-5.1c10.3,0,11.6,10.5,11.6,18.5v28.4H417v-32c0-6.7-0.8-14.2-5.3-19.6  C407.6,302.4,400.7,299.3,394.3,299.3 M618.2,301.3l-10.6,35.2h-0.2l-9.3-35.2h-11l-9.4,35.2h-0.2L567,301.3h-14.7l20.8,57.6h8.5  l10.9-37.4h0.2l10.8,37.4h8.5l21.1-57.6H618.2z M456.6,299.3c-6.6,0-11.2,2.5-15.8,7v-5h-12.8v57.6h13.8v-27.4  c0-4.3,0-10.8,2.5-14.4c2.1-3,5.8-5.1,9.4-5.1c10.3,0,11.6,10.5,11.6,18.5v28.4h13.8v-32c0-6.7-0.8-14.2-5.3-19.6  C469.9,302.4,462.9,299.3,456.6,299.3 M518,348.1c9.8,0,16.7-8.4,16.7-17.8c0-9.2-7-18.3-16.7-18.3s-16.9,8.8-16.9,18.2  C501.1,339.8,508.1,348.1,518,348.1 M518,299.3c16.8,0,30.5,13.6,30.5,30.4c0,0.1,0,0.2,0,0.2c0,17.4-13.1,30.8-30.5,30.8  c-16.8,0-30.7-13.8-30.7-30.6C487.3,313.2,501,299.3,518,299.3"/>
<path class="st0" d="M222.7,299.4c0-9.3-5.3-17.8-13.6-21.9c0.8-0.5,1.6-1.1,2.3-1.8c3.4-3.4,4.7-8.4,3.5-13.1  c-3.5-0.9-7.2-0.4-10.3,1.3c-1-3.5-3.2-6.4-6.3-8.2c-3.1,1.8-5.4,4.8-6.3,8.3c-3.1-1.8-6.8-2.3-10.3-1.4c-1.2,4.7,0.1,9.7,3.5,13.1  c0.7,0.7,1.4,1.3,2.3,1.8c-12.1,6-17.1,20.7-11.1,32.8c0.2,0.5,0.5,0.9,0.7,1.4h0l21.2,36.7l21.2-36.7h0  C221.6,307.9,222.7,303.7,222.7,299.4 M175.7,381.8c-11.7,6.8-26.7,2.8-33.4-8.9c0,0,0,0,0,0l-14.1-24.5L114,372.9  c-6.8,11.7-21.7,15.7-33.4,9c-3.7-2.1-6.8-5.2-9-9l-35.3-61.2c-6.8-11.7-2.8-26.7,8.9-33.5s26.7-2.8,33.5,8.9c0,0,0,0,0,0l14.1,24.5  l14.1-24.5c6.8-11.7,21.7-15.7,33.4-9c3.7,2.1,6.8,5.2,9,9l35.3,61.2C191.4,360.1,187.4,375.1,175.7,381.8z"/>
</svg>