<svg xmlns="http://www.w3.org/2000/svg" xmlns:xlink="http://www.w3.org/1999/xlink" version="1.1" id="layer" x="0px" y="0px" style="enable-background:new 0 0 652 652;" xml:space="preserve" viewBox="25.7 223 600.1 205.2">
<style type="text/css">
	.st0{fill:#FDB913;}
</style>
<rect x="75.5" y="243.1" transform="matrix(0.7071 -0.7071 0.7071 0.7071 -152.8175 132.6147)" class="st0" width="16.3" height="15.4"/>
<polygon class="st0" points="161.1,339.8 202.8,381.5 214.4,369.9 172.7,328.2 "/>
<polygon class="st0" points="128.1,223 71,280.1 82.5,291.6 128.6,245.6 145,262 156.5,250.5 129,223 "/>
<rect x="195.4" y="272.3" transform="matrix(0.7073 -0.7069 0.7069 0.7073 -138.7941 225.7032)" class="st0" width="15.4" height="16.3"/>
<rect x="69.6" y="376.4" transform="matrix(0.7071 -0.7071 0.7071 0.7071 -242.8758 182.6869)" class="st0" width="59" height="16.3"/>
<rect x="128.3" y="316.6" transform="matrix(0.7071 -0.7071 0.7071 0.7071 -183.1421 207.4296)" class="st0" width="61.1" height="16.3"/>
<polygon class="st0" points="162.3,279.3 208.3,325.4 192,341.8 203.5,353.3 231.4,325.4 173.8,267.8 "/>
<rect x="46.3" y="362.1" transform="matrix(0.7071 -0.7071 0.7071 0.7071 -246.0119 146.6275)" class="st0" width="15.3" height="16.3"/>
<rect x="128.6" y="258" transform="matrix(0.7071 -0.7071 0.7071 0.7071 -141.9201 189.7442)" class="st0" width="59" height="16.3"/>
<polygon class="st0" points="25.7,325.4 83.3,383 94.8,371.5 48.8,325.4 65.2,308.9 53.7,297.4 "/>
<rect x="119.8" y="264.6" transform="matrix(0.7071 -0.7071 0.7071 0.7071 -171.1793 176.9481)" class="st0" width="16.3" height="61.1"/>
<rect x="165.3" y="392.2" transform="matrix(0.7071 -0.7071 0.7071 0.7071 -231.9807 239.816)" class="st0" width="16.3" height="15.4"/>
<rect x="61.3" y="266.4" transform="matrix(0.7071 -0.7071 0.7071 0.7071 -188.87 135.7386)" class="st0" width="16.3" height="59"/>
<rect x="121" y="325.1" transform="matrix(0.7071 -0.7071 0.7071 0.7071 -213.6167 195.4844)" class="st0" width="16.3" height="61.1"/>
<polygon class="st0" points="128.6,405.2 112.2,388.8 100.6,400.3 128.6,428.2 186.2,370.6 174.7,359.1 "/>
<rect x="67.8" y="317.8" transform="matrix(0.7071 -0.7071 0.7071 0.7071 -201.6786 164.9916)" class="st0" width="61.1" height="16.3"/>
<g>
	<path d="M289.7,245.2c-0.5-1.6-1-2.7-1.6-3.1c-0.5-0.3-1.4-0.4-1.8-0.4c-0.5,0-0.7,0-0.7-0.4c0-0.3,0.4-0.4,1-0.4   c2.3,0,4.7,0.1,5.1,0.1c0.4,0,2.3-0.1,4.9-0.1c0.6,0,0.9,0.1,0.9,0.4c0,0.4-0.4,0.4-0.8,0.4c-0.3,0-0.8,0-1.1,0.2   c-0.4,0.2-0.5,0.5-0.5,1c0,0.6,0.4,2.1,1,4.1c0.7,2.9,4.8,16.3,5.6,18.8h0.1l8.6-23c0.4-1.3,0.7-1.6,1.1-1.6c0.5,0,0.7,0.7,1.3,2.1   l9.2,22.2h0.1c0.8-3,4.3-14.6,5.9-19.8c0.3-1,0.4-1.9,0.4-2.6c0-0.7-0.4-1.3-2.1-1.3c-0.4,0-0.7-0.2-0.7-0.4c0-0.3,0.3-0.4,1-0.4   c2.3,0,4.2,0.1,4.6,0.1c0.3,0,2.2-0.1,3.7-0.1c0.5,0,0.8,0.1,0.8,0.3c0,0.3-0.2,0.4-0.6,0.4c-0.5,0-1.1,0-1.5,0.2   c-1.1,0.4-1.5,2.2-2.5,4.7c-2,5.6-6.6,19.6-8.8,26.2c-0.5,1.5-0.7,2.1-1.3,2.1c-0.5,0-0.7-0.5-1.4-2.2l-9.2-22.1h-0.1   c-0.8,2.3-6.7,17.9-8.6,21.9c-0.9,1.8-1.1,2.4-1.6,2.4c-0.5,0-0.6-0.5-1-1.6L289.7,245.2z"/>
	<path d="M343.6,257.6c0-7.5,5-17.3,18.2-17.3c11,0,17.8,6.4,17.8,16.5c0,10.1-7.1,18.1-18.3,18.1   C348.7,274.8,343.6,265.4,343.6,257.6 M373.5,258.4c0-9.9-5.7-16-12.9-16c-5.1,0-10.9,2.8-10.9,13.8c0,9.2,5.1,16.5,13.6,16.5   C366.3,272.6,373.5,271.1,373.5,258.4"/>
	<path d="M395.8,253.7c0-6.7,0-8-0.1-9.3c-0.1-1.5-0.4-2.2-1.9-2.5c-0.4-0.1-1.1-0.1-1.7-0.1c-0.5,0-0.8-0.1-0.8-0.4   c0-0.3,0.3-0.4,1-0.4c2.4,0,5.1,0.1,6.1,0.1c1.5,0,4.8-0.1,6.2-0.1c2.8,0,5.8,0.3,8.1,1.9c1.2,0.8,3,3.1,3,6c0,3.3-1.4,6.2-5.8,9.9   c3.9,5,7,8.9,9.6,11.6c2.5,2.6,4.3,2.9,5,3c0.5,0.1,0.9,0.1,1.2,0.1c0.4,0,0.5,0.2,0.5,0.4c0,0.3-0.3,0.4-0.8,0.4h-4.2   c-2.5,0-3.6-0.2-4.7-0.8c-1.9-1-3.6-3.1-6-6.5c-1.8-2.4-3.8-5.4-4.4-6.1c-0.2-0.2-0.5-0.3-0.8-0.3l-3.8-0.1c-0.2,0-0.4,0.1-0.4,0.4   v0.6c0,4.1,0,7.6,0.2,9.4c0.1,1.3,0.4,2.3,1.7,2.4c0.7,0.1,1.6,0.2,2.1,0.2c0.4,0,0.6,0.2,0.6,0.4c0,0.3-0.3,0.4-0.9,0.4   c-2.6,0-5.8-0.1-6.5-0.1c-0.8,0-3.6,0.1-5.4,0.1c-0.6,0-0.9-0.1-0.9-0.4c0-0.2,0.2-0.4,0.7-0.4c0.7,0,1.2-0.1,1.6-0.2   c0.9-0.2,1.1-1.1,1.3-2.4c0.2-1.9,0.2-5.3,0.2-9.4V253.7z M401,257.2c0,0.5,0.1,0.6,0.4,0.8c0.9,0.3,2.3,0.4,3.4,0.4   c1.8,0,2.3-0.2,3.1-0.7c1.3-1,2.6-3,2.6-6.6c0-6.2-4.1-8-6.8-8c-1.1,0-1.9,0-2.3,0.2c-0.3,0.1-0.4,0.3-0.4,0.6V257.2z"/>
	<path d="M441.5,261.4c0,5.6,0,8.7,0.9,9.5c0.7,0.7,1.9,1,5.3,1c2.3,0,4.1-0.1,5.2-1.2c0.5-0.6,1.1-1.8,1.1-2.6   c0-0.4,0.1-0.7,0.5-0.7c0.3,0,0.4,0.2,0.4,0.7c0,0.5-0.3,3.8-0.7,5.1c-0.3,1-0.5,1.2-2.8,1.2c-3.2,0-5.5-0.1-7.4-0.1   c-2-0.1-3.6-0.1-5.4-0.1c-0.5,0-1.5,0-2.5,0c-1,0-2.1,0.1-3,0.1c-0.6,0-0.9-0.1-0.9-0.4c0-0.2,0.2-0.4,0.7-0.4   c0.7,0,1.2-0.1,1.6-0.2c0.9-0.2,1.1-1.1,1.3-2.4c0.2-1.9,0.2-5.3,0.2-9.4v-7.8c0-6.7,0-7.9-0.1-9.3c-0.1-1.5-0.5-2.2-1.9-2.5   c-0.3-0.1-0.9-0.1-1.5-0.1c-0.5,0-0.8-0.1-0.8-0.4c0-0.3,0.3-0.4,1-0.4c2.1,0,4.9,0.1,6,0.1c1.1,0,4.3-0.1,6-0.1   c0.6,0,0.9,0.1,0.9,0.4c0,0.3-0.3,0.4-0.8,0.4c-0.5,0-1.2,0-1.7,0.1c-1.2,0.2-1.6,1-1.6,2.5c-0.1,1.4-0.1,2.6-0.1,9.3V261.4z"/>
	<path d="M469.6,253.7c0-6.7,0-8-0.1-9.4c-0.1-1.5-0.4-2.2-1.9-2.5c-0.3-0.1-1.1-0.1-1.7-0.1c-0.5,0-0.8-0.1-0.8-0.4   c0-0.3,0.3-0.4,1-0.4c2.3,0,5.1,0.1,6.4,0.1c1.4,0,4.1-0.1,6.8-0.1c5.5,0,12.9,0,17.7,5c2.2,2.3,4.3,6,4.3,11.2   c0,5.6-2.3,9.8-4.8,12.3c-2,2.1-6.6,5.2-14.8,5.2c-1.6,0-3.4-0.1-5.1-0.3c-1.7-0.1-3.2-0.3-4.3-0.3c-0.5,0-1.5,0-2.5,0   c-1,0-2.1,0.1-3,0.1c-0.6,0-0.9-0.1-0.9-0.4c0-0.2,0.2-0.4,0.7-0.4c0.7,0,1.2-0.1,1.6-0.2c0.9-0.2,1.1-1.1,1.3-2.4   c0.2-1.9,0.2-5.3,0.2-9.4V253.7z M475.1,258.5c0,4.7,0,8.1,0.1,8.9c0,1.1,0.1,2.9,0.5,3.4c0.6,0.8,2.3,1.8,5.8,1.8   c4.5,0,7.5-0.9,10.1-3.2c2.8-2.4,3.7-6.4,3.7-11c0-5.6-2.3-9.2-4.2-11c-4.1-3.9-9.1-4.4-12.5-4.4c-0.9,0-2.5,0.1-2.9,0.3   c-0.4,0.2-0.6,0.4-0.6,0.9c0,1.5,0,5.4,0,8.8V258.5z"/>
	<path d="M293.7,325.3c0-6.7,0-8-0.1-9.4c-0.1-1.5-0.4-2.2-1.9-2.5c-0.3-0.1-1.1-0.1-1.7-0.1c-0.5,0-0.7-0.1-0.7-0.4   c0-0.3,0.3-0.4,1-0.4c2.3,0,5.1,0.2,6,0.2c1.5,0,4.8-0.2,6.2-0.2c2.8,0,5.7,0.3,8.1,1.9c1.2,0.8,3,3.1,3,6c0,3.2-1.4,6.3-5.8,9.9   c3.9,4.9,7,8.9,9.6,11.6c2.5,2.6,4.3,2.9,4.9,3c0.5,0.1,0.9,0.2,1.2,0.2c0.3,0,0.5,0.1,0.5,0.3c0,0.4-0.3,0.4-0.8,0.4H319   c-2.5,0-3.6-0.2-4.7-0.8c-1.9-1-3.6-3.1-6-6.5c-1.8-2.4-3.8-5.4-4.4-6.1c-0.2-0.3-0.5-0.3-0.8-0.3l-3.8-0.1c-0.2,0-0.4,0.1-0.4,0.3   v0.6c0,4.1,0,7.6,0.2,9.4c0.1,1.3,0.4,2.3,1.7,2.4c0.7,0.1,1.6,0.2,2.2,0.2c0.4,0,0.5,0.1,0.5,0.3c0,0.3-0.3,0.4-0.9,0.4   c-2.6,0-5.8-0.1-6.5-0.1c-0.9,0-3.6,0.1-5.4,0.1c-0.6,0-0.9-0.1-0.9-0.4c0-0.2,0.2-0.3,0.7-0.3c0.7,0,1.2-0.1,1.6-0.2   c0.9-0.2,1.1-1.2,1.3-2.4c0.2-1.9,0.2-5.3,0.2-9.4V325.3z M298.9,328.7c0,0.5,0.1,0.7,0.4,0.8c0.9,0.3,2.3,0.4,3.4,0.4   c1.8,0,2.3-0.2,3.1-0.7c1.3-1,2.6-3,2.6-6.6c0-6.3-4.1-8.1-6.7-8.1c-1.1,0-1.9,0-2.3,0.2c-0.3,0.1-0.4,0.3-0.4,0.6V328.7z"/>
	<path d="M333.9,325.3c0-6.7,0-8-0.1-9.4c-0.1-1.5-0.4-2.2-1.9-2.5c-0.4-0.1-1.1-0.1-1.7-0.1c-0.5,0-0.8-0.1-0.8-0.4   c0-0.3,0.3-0.4,1-0.4c1.2,0,2.5,0.1,3.6,0.1c1.1,0,2.2,0.1,2.8,0.1c1.4,0,10.2,0,11-0.1c0.8-0.1,1.5-0.2,1.9-0.3   c0.2,0,0.5-0.2,0.7-0.2c0.2,0,0.3,0.2,0.3,0.4c0,0.3-0.2,0.8-0.4,2.9c0,0.4-0.1,2.4-0.2,2.9c0,0.2-0.1,0.5-0.5,0.5   c-0.3,0-0.4-0.2-0.4-0.6c0-0.3,0-1.1-0.3-1.6c-0.3-0.8-0.8-1.3-3-1.6c-0.7-0.1-5.4-0.2-6.3-0.2c-0.2,0-0.3,0.1-0.3,0.4v11.2   c0,0.3,0,0.5,0.3,0.5c1,0,6,0,7.1-0.1c1.1-0.1,1.7-0.2,2.1-0.7c0.3-0.4,0.5-0.6,0.7-0.6c0.2,0,0.3,0.1,0.3,0.4c0,0.3-0.2,1-0.3,3.2   c0,0.9-0.2,2.6-0.2,3c0,0.3,0,0.8-0.4,0.8c-0.3,0-0.4-0.2-0.4-0.4c0-0.4,0-1-0.2-1.6c-0.2-0.9-0.8-1.5-2.5-1.7   c-0.8-0.1-5.2-0.1-6.3-0.1c-0.2,0-0.3,0.2-0.3,0.5v3.5c0,1.5,0,5.6,0,6.9c0.1,3,0.8,3.7,5.3,3.7c1.2,0,3,0,4.2-0.5   c1.2-0.6,1.7-1.5,2-3.3c0.1-0.5,0.2-0.7,0.5-0.7c0.4,0,0.4,0.4,0.4,0.8c0,1-0.4,4-0.6,4.9c-0.3,1.1-0.7,1.1-2.4,1.1   c-3.3,0-5.7-0.1-7.6-0.1c-1.9-0.1-3.3-0.1-4.6-0.1c-0.5,0-1.5,0-2.5,0.1c-1,0-2.1,0.1-3,0.1c-0.6,0-0.9-0.1-0.9-0.4   c0-0.2,0.2-0.3,0.7-0.3c0.7,0,1.2-0.1,1.6-0.2c0.9-0.2,1.1-1.2,1.3-2.4c0.2-1.9,0.2-5.3,0.2-9.4V325.3z"/>
	<path d="M366.3,345.3c-0.7-0.3-0.8-0.5-0.8-1.5c0-2.4,0.2-5.1,0.2-5.8c0-0.7,0.2-1.1,0.5-1.1c0.4,0,0.4,0.4,0.4,0.7   c0,0.6,0.2,1.5,0.4,2.3c1,3.3,3.6,4.5,6.3,4.5c4,0,5.9-2.7,5.9-5.1c0-2.2-0.7-4.2-4.3-7l-2-1.6c-4.9-3.8-6.5-6.9-6.5-10.4   c0-4.9,4.1-8.3,10.2-8.3c2.9,0,4.7,0.5,5.9,0.8c0.4,0.1,0.6,0.2,0.6,0.5c0,0.6-0.2,1.8-0.2,5.3c0,1-0.1,1.3-0.5,1.3   c-0.3,0-0.4-0.3-0.4-0.8c0-0.4-0.2-1.8-1.1-2.9c-0.7-0.8-1.9-2.2-4.8-2.2c-3.3,0-5.2,1.9-5.2,4.5c0,2,1,3.6,4.7,6.4l1.2,0.9   c5.4,4,7.2,7.1,7.2,11.2c0,2.5-1,5.6-4.1,7.7c-2.2,1.4-4.7,1.8-7,1.8C370.1,346.4,368.2,346.1,366.3,345.3"/>
	<path d="M396.5,329.1c0-7.5,5-17.3,18.2-17.3c11,0,17.8,6.4,17.8,16.5c0,10.1-7.1,18.1-18.3,18.1   C401.6,346.4,396.5,337,396.5,329.1 M426.3,330c0-9.9-5.7-16-12.9-16c-5.1,0-10.9,2.8-10.9,13.8c0,9.2,5.1,16.4,13.5,16.4   C419.2,344.2,426.3,342.7,426.3,330"/>
	<path d="M447.2,325.3c0-6.7,0-8-0.1-9.4c-0.1-1.5-0.4-2.2-1.9-2.5c-0.4-0.1-1.1-0.1-1.7-0.1c-0.5,0-0.8-0.1-0.8-0.4   c0-0.3,0.3-0.4,1-0.4c2.3,0,5.1,0.2,6.4,0.2c1.1,0,3.8-0.2,5.4-0.2c0.7,0,1,0.1,1,0.4c0,0.3-0.3,0.4-0.7,0.4c-0.5,0-0.8,0-1.3,0.1   c-1.2,0.2-1.5,1-1.6,2.5c-0.1,1.4-0.1,2.6-0.1,9.4v6.2c0,6.4,1.3,9.1,3.4,10.9c2,1.6,4,1.8,5.5,1.8c1.9,0,4.3-0.6,6.1-2.4   c2.4-2.4,2.5-6.4,2.5-10.9v-5.5c0-6.7,0-8-0.1-9.4c-0.1-1.5-0.5-2.2-1.9-2.5c-0.3-0.1-1.1-0.1-1.6-0.1c-0.5,0-0.7-0.1-0.7-0.4   c0-0.3,0.3-0.4,0.9-0.4c2.2,0,5,0.2,5,0.2c0.6,0,3.4-0.2,5.1-0.2c0.6,0,0.9,0.1,0.9,0.4c0,0.3-0.3,0.4-0.8,0.4   c-0.5,0-0.8,0-1.3,0.1c-1.2,0.2-1.6,1-1.6,2.5c-0.1,1.4-0.1,2.6-0.1,9.4v4.7c0,4.9-0.5,10.1-4.2,13.3c-3.1,2.7-6.3,3.2-9.2,3.2   c-2.3,0-6.6-0.1-9.8-3.1c-2.3-2-3.9-5.3-3.9-11.7V325.3z"/>
	<path d="M493.5,325.3c0-6.7,0-8-0.1-9.4c-0.1-1.5-0.4-2.2-1.9-2.5c-0.4-0.1-1.1-0.1-1.7-0.1c-0.5,0-0.8-0.1-0.8-0.4   c0-0.3,0.3-0.4,1-0.4c2.3,0,5.1,0.2,6,0.2c1.5,0,4.9-0.2,6.2-0.2c2.8,0,5.7,0.3,8.1,1.9c1.3,0.8,3,3.1,3,6c0,3.2-1.4,6.3-5.8,9.9   c3.9,4.9,7,8.9,9.6,11.6c2.5,2.6,4.3,2.9,4.9,3c0.5,0.1,0.9,0.2,1.2,0.2c0.4,0,0.5,0.1,0.5,0.3c0,0.4-0.3,0.4-0.9,0.4h-4.2   c-2.5,0-3.6-0.2-4.7-0.8c-1.9-1-3.6-3.1-6-6.5c-1.8-2.4-3.8-5.4-4.4-6.1c-0.2-0.3-0.5-0.3-0.8-0.3l-3.8-0.1c-0.2,0-0.4,0.1-0.4,0.3   v0.6c0,4.1,0,7.6,0.2,9.4c0.1,1.3,0.4,2.3,1.7,2.4c0.6,0.1,1.6,0.2,2.1,0.2c0.4,0,0.5,0.1,0.5,0.3c0,0.3-0.3,0.4-0.9,0.4   c-2.6,0-5.8-0.1-6.5-0.1c-0.8,0-3.6,0.1-5.4,0.1c-0.6,0-0.9-0.1-0.9-0.4c0-0.2,0.2-0.3,0.7-0.3c0.7,0,1.2-0.1,1.6-0.2   c0.9-0.2,1.1-1.2,1.3-2.4c0.2-1.9,0.2-5.3,0.2-9.4V325.3z M498.8,328.7c0,0.5,0.1,0.7,0.4,0.8c0.9,0.3,2.2,0.4,3.4,0.4   c1.8,0,2.3-0.2,3.1-0.7c1.3-1,2.6-3,2.6-6.6c0-6.3-4.1-8.1-6.7-8.1c-1.1,0-1.9,0-2.3,0.2c-0.3,0.1-0.4,0.3-0.4,0.6V328.7z"/>
	<path d="M534.2,341.6c-4.3-3.8-5.5-8.7-5.5-13c0-3,0.9-8.2,5.2-12.1c3.2-2.9,7.3-4.7,13.9-4.7c2.7,0,4.4,0.2,6.4,0.5   c1.7,0.2,3.1,0.6,4.4,0.7c0.5,0.1,0.7,0.3,0.7,0.5c0,0.4-0.1,0.9-0.2,2.4c-0.1,1.5-0.1,3.9-0.1,4.8c0,0.7-0.1,1-0.5,1   c-0.3,0-0.4-0.4-0.4-1c-0.1-1.4-0.6-2.9-1.7-4c-1.5-1.5-4.9-2.7-8.9-2.7c-3.8,0-6.4,1-8.3,2.7c-3.2,2.9-4.1,7.1-4.1,11.4   c0,10.5,8,15.7,13.9,15.7c3.9,0,6.3-0.4,8.1-2.5c0.8-0.8,1.3-2.1,1.5-2.9c0.1-0.7,0.2-0.9,0.6-0.9c0.3,0,0.4,0.3,0.4,0.7   c0,0.5-0.5,4.4-1,5.9c-0.2,0.8-0.4,1-1.1,1.3c-1.8,0.7-5.1,1-8,1C543.3,346.4,538.2,345.1,534.2,341.6"/>
	<path d="M575.7,325.3c0-6.7,0-8-0.1-9.4c-0.1-1.5-0.5-2.2-1.9-2.5c-0.3-0.1-1.1-0.1-1.7-0.1c-0.5,0-0.8-0.1-0.8-0.4   c0-0.3,0.3-0.4,1-0.4c1.2,0,2.5,0.1,3.6,0.1c1.2,0,2.2,0.1,2.8,0.1c1.4,0,10.2,0,11-0.1c0.8-0.1,1.5-0.2,1.9-0.3   c0.2,0,0.5-0.2,0.7-0.2c0.2,0,0.3,0.2,0.3,0.4c0,0.3-0.2,0.8-0.3,2.9c0,0.4-0.1,2.4-0.2,2.9c0,0.2-0.1,0.5-0.4,0.5   c-0.3,0-0.4-0.2-0.4-0.6c0-0.3,0-1.1-0.3-1.6c-0.3-0.8-0.7-1.3-2.9-1.6c-0.7-0.1-5.4-0.2-6.3-0.2c-0.2,0-0.3,0.1-0.3,0.4v11.2   c0,0.3,0.1,0.5,0.3,0.5c1,0,6,0,7.1-0.1c1.1-0.1,1.7-0.2,2.1-0.7c0.3-0.4,0.5-0.6,0.7-0.6c0.2,0,0.3,0.1,0.3,0.4   c0,0.3-0.2,1-0.3,3.2c-0.1,0.9-0.2,2.6-0.2,3c0,0.3,0,0.8-0.4,0.8c-0.3,0-0.4-0.2-0.4-0.4c0-0.4,0-1-0.2-1.6   c-0.2-0.9-0.8-1.5-2.5-1.7c-0.8-0.1-5.2-0.1-6.2-0.1c-0.2,0-0.3,0.2-0.3,0.5v3.5c0,1.5,0,5.6,0,6.9c0.1,3,0.8,3.7,5.3,3.7   c1.2,0,3,0,4.1-0.5c1.1-0.6,1.7-1.5,2-3.3c0.1-0.5,0.2-0.7,0.5-0.7c0.3,0,0.3,0.4,0.3,0.8c0,1-0.3,4-0.6,4.9   c-0.3,1.1-0.7,1.1-2.4,1.1c-3.3,0-5.7-0.1-7.6-0.1c-1.9-0.1-3.3-0.1-4.6-0.1c-0.5,0-1.5,0-2.5,0.1c-1,0-2.2,0.1-3.1,0.1   c-0.6,0-0.9-0.1-0.9-0.4c0-0.2,0.2-0.3,0.7-0.3c0.7,0,1.2-0.1,1.6-0.2c0.9-0.2,1.1-1.2,1.3-2.4c0.2-1.9,0.2-5.3,0.2-9.4V325.3z"/>
	<path d="M608.1,345.3c-0.7-0.3-0.8-0.5-0.8-1.5c0-2.4,0.2-5.1,0.2-5.8c0-0.7,0.2-1.1,0.5-1.1c0.4,0,0.4,0.4,0.4,0.7   c0,0.6,0.2,1.5,0.4,2.3c1,3.3,3.6,4.5,6.3,4.5c4,0,5.9-2.7,5.9-5.1c0-2.2-0.7-4.2-4.3-7l-2-1.6c-4.8-3.8-6.5-6.9-6.5-10.4   c0-4.9,4.1-8.3,10.2-8.3c2.9,0,4.7,0.5,5.9,0.8c0.4,0.1,0.6,0.2,0.6,0.5c0,0.6-0.2,1.8-0.2,5.3c0,1-0.1,1.3-0.5,1.3   c-0.3,0-0.4-0.3-0.4-0.8c0-0.4-0.2-1.8-1.1-2.9c-0.7-0.8-2-2.2-4.8-2.2c-3.3,0-5.2,1.9-5.2,4.5c0,2,1,3.6,4.7,6.4l1.2,0.9   c5.3,4,7.2,7.1,7.2,11.2c0,2.5-1,5.6-4.1,7.7c-2.2,1.4-4.7,1.8-7,1.8C612,346.4,610,346.1,608.1,345.3"/>
	<path d="M293.7,396.8c0-6.7,0-7.9-0.1-9.4c-0.1-1.5-0.5-2.2-1.5-2.5c-0.5-0.1-1.1-0.2-1.6-0.2c-0.4,0-0.7-0.1-0.7-0.5   c0-0.2,0.4-0.3,1-0.3c1.7,0,4.5,0.1,5.7,0.1c1.1,0,3.7-0.1,5.4-0.1c0.6,0,0.9,0.1,0.9,0.3c0,0.4-0.3,0.5-0.7,0.5   c-0.4,0-0.8,0-1.3,0.1c-1.2,0.2-1.5,1-1.6,2.5c-0.1,1.4-0.1,2.7-0.1,9.4v7.8c0,4.3,0,7.8,0.2,9.7c0.1,1.2,0.4,2,1.7,2.1   c0.6,0.1,1.6,0.2,2.3,0.2c0.5,0,0.7,0.1,0.7,0.4c0,0.3-0.3,0.4-0.8,0.4c-2.9,0-5.7-0.1-6.9-0.1c-1,0-3.8,0.1-5.5,0.1   c-0.6,0-0.9-0.1-0.9-0.4c0-0.2,0.2-0.4,0.7-0.4c0.7,0,1.2-0.1,1.6-0.2c0.9-0.2,1.1-0.9,1.3-2.2c0.2-1.9,0.2-5.3,0.2-9.6V396.8z"/>
	<path d="M323,411.4c0.1,3.4,0.7,4.6,1.5,4.9c0.8,0.3,1.6,0.3,2.3,0.3c0.5,0,0.7,0.1,0.7,0.4c0,0.3-0.4,0.4-1,0.4   c-2.9,0-4.7-0.1-5.5-0.1c-0.4,0-2.5,0.1-4.8,0.1c-0.6,0-1,0-1-0.4c0-0.3,0.3-0.4,0.7-0.4c0.6,0,1.4-0.1,2-0.2   c1.2-0.4,1.3-1.7,1.4-5.5l0.4-26.1c0-0.9,0.1-1.5,0.6-1.5c0.5,0,0.9,0.6,1.6,1.4c0.5,0.6,7.2,7.8,13.7,14.2c3,3,8.9,9.4,9.7,10.1   h0.2l-0.5-19.8c0-2.7-0.5-3.5-1.5-4c-0.7-0.2-1.7-0.2-2.3-0.2c-0.5,0-0.7-0.1-0.7-0.4c0-0.4,0.5-0.4,1.2-0.4c2.3,0,4.4,0.1,5.3,0.1   c0.5,0,2.2-0.1,4.3-0.1c0.6,0,1,0,1,0.4c0,0.3-0.3,0.4-0.8,0.4c-0.4,0-0.8,0-1.3,0.1c-1.2,0.4-1.6,1.3-1.6,3.8l-0.5,27.8   c0,1-0.2,1.4-0.6,1.4c-0.5,0-1-0.5-1.5-1c-2.8-2.7-8.4-8.4-13-13c-4.8-4.8-9.7-10.3-10.5-11.1h-0.1L323,411.4z"/>
	<path d="M366.8,416.9c-0.7-0.3-0.8-0.5-0.8-1.5c0-2.4,0.2-5.1,0.2-5.8c0.1-0.6,0.2-1.1,0.5-1.1c0.4,0,0.5,0.4,0.5,0.8   c0,0.6,0.2,1.5,0.4,2.2c1,3.3,3.6,4.5,6.3,4.5c3.9,0,5.9-2.7,5.9-5c0-2.2-0.7-4.2-4.3-7.1l-2-1.6c-4.8-3.8-6.5-6.9-6.5-10.5   c0-4.9,4-8.3,10.2-8.3c2.9,0,4.7,0.4,5.9,0.7c0.4,0.1,0.6,0.2,0.6,0.5c0,0.6-0.2,1.9-0.2,5.3c0,1-0.1,1.3-0.5,1.3   c-0.3,0-0.5-0.3-0.5-0.8c0-0.4-0.2-1.8-1.1-2.9c-0.7-0.9-2-2.2-4.8-2.2c-3.3,0-5.2,1.9-5.2,4.5c0,2,1,3.6,4.7,6.4l1.2,0.9   c5.3,4,7.2,7.1,7.2,11.2c0,2.6-1,5.6-4.1,7.7c-2.2,1.4-4.7,1.8-7,1.8C370.7,418,368.7,417.7,366.8,416.9"/>
	<path d="M407.6,386.5l-6.6,0.2c-2.6,0.1-3.6,0.3-4.3,1.3c-0.4,0.7-0.7,1.2-0.8,1.5c-0.1,0.4-0.2,0.5-0.5,0.5   c-0.3,0-0.4-0.2-0.4-0.7c0-0.7,0.8-4.7,0.9-5.1c0.1-0.6,0.3-0.8,0.5-0.8c0.4,0,0.8,0.4,1.9,0.5c1.3,0.1,3,0.2,4.4,0.2h17.5   c1.4,0,2.4-0.1,3-0.2c0.7-0.1,1-0.2,1.2-0.2c0.3,0,0.3,0.3,0.3,0.9c0,0.9-0.1,4-0.1,5.1c0,0.5-0.1,0.7-0.4,0.7   c-0.4,0-0.5-0.2-0.5-0.9l0-0.5c-0.1-1.1-1.3-2.4-5.2-2.5l-5.6-0.1v18.1c0,4.1,0,7.5,0.2,9.4c0.1,1.2,0.4,2.2,1.7,2.4   c0.6,0.1,1.6,0.2,2.2,0.2c0.5,0,0.7,0.1,0.7,0.4c0,0.3-0.4,0.4-0.8,0.4c-2.9,0-5.7-0.1-6.9-0.1c-1,0-3.8,0.1-5.6,0.1   c-0.6,0-0.9-0.1-0.9-0.4c0-0.2,0.2-0.4,0.7-0.4c0.7,0,1.2-0.1,1.6-0.2c0.9-0.2,1.1-1.1,1.3-2.4c0.2-1.9,0.2-5.3,0.2-9.4V386.5z"/>
	<path d="M440,396.8c0-6.7,0-7.9-0.1-9.4c-0.1-1.5-0.5-2.2-1.5-2.5c-0.5-0.1-1.1-0.2-1.6-0.2c-0.4,0-0.7-0.1-0.7-0.5   c0-0.2,0.4-0.3,1-0.3c1.7,0,4.5,0.1,5.8,0.1c1.1,0,3.7-0.1,5.4-0.1c0.6,0,0.9,0.1,0.9,0.3c0,0.4-0.3,0.5-0.7,0.5   c-0.4,0-0.8,0-1.3,0.1c-1.2,0.2-1.6,1-1.6,2.5c-0.1,1.4-0.1,2.7-0.1,9.4v7.8c0,4.3,0,7.8,0.2,9.7c0.2,1.2,0.4,2,1.8,2.1   c0.6,0.1,1.6,0.2,2.3,0.2c0.5,0,0.7,0.1,0.7,0.4c0,0.3-0.4,0.4-0.9,0.4c-2.9,0-5.7-0.1-6.9-0.1c-1,0-3.8,0.1-5.6,0.1   c-0.6,0-0.9-0.1-0.9-0.4c0-0.2,0.2-0.4,0.7-0.4c0.7,0,1.2-0.1,1.6-0.2c0.9-0.2,1.1-0.9,1.3-2.2c0.2-1.9,0.2-5.3,0.2-9.6V396.8z"/>
	<path d="M472.7,386.5l-6.6,0.2c-2.6,0.1-3.6,0.3-4.3,1.3c-0.4,0.7-0.7,1.2-0.7,1.5c-0.1,0.4-0.2,0.5-0.5,0.5   c-0.3,0-0.4-0.2-0.4-0.7c0-0.7,0.8-4.7,0.9-5.1c0.1-0.6,0.3-0.8,0.5-0.8c0.3,0,0.8,0.4,1.9,0.5c1.3,0.1,2.9,0.2,4.4,0.2h17.5   c1.4,0,2.4-0.1,3.1-0.2c0.6-0.1,1-0.2,1.2-0.2c0.3,0,0.4,0.3,0.4,0.9c0,0.9-0.1,4-0.1,5.1c0,0.5-0.1,0.7-0.4,0.7   c-0.4,0-0.4-0.2-0.5-0.9l0-0.5c-0.1-1.1-1.3-2.4-5.2-2.5l-5.6-0.1v18.1c0,4.1,0,7.5,0.2,9.4c0.1,1.2,0.4,2.2,1.7,2.4   c0.6,0.1,1.6,0.2,2.2,0.2c0.5,0,0.7,0.1,0.7,0.4c0,0.3-0.4,0.4-0.9,0.4c-2.9,0-5.7-0.1-6.9-0.1c-1,0-3.8,0.1-5.6,0.1   c-0.6,0-0.9-0.1-0.9-0.4c0-0.2,0.2-0.4,0.7-0.4c0.7,0,1.2-0.1,1.6-0.2c0.9-0.2,1.2-1.1,1.3-2.4c0.2-1.9,0.2-5.3,0.2-9.4V386.5z"/>
	<path d="M503.2,396.8c0-6.7,0-7.9-0.1-9.4c-0.1-1.5-0.4-2.2-1.9-2.5c-0.4-0.1-1.1-0.1-1.7-0.1c-0.5,0-0.8-0.1-0.8-0.4   c0-0.3,0.3-0.4,1-0.4c2.3,0,5.1,0.1,6.4,0.1c1.1,0,3.8-0.1,5.4-0.1c0.7,0,1,0.1,1,0.4c0,0.3-0.3,0.4-0.7,0.4c-0.5,0-0.8,0-1.3,0.1   c-1.2,0.2-1.5,1-1.6,2.5c-0.1,1.4-0.1,2.7-0.1,9.4v6.2c0,6.4,1.3,9.1,3.4,10.9c2,1.6,4,1.8,5.5,1.8c1.9,0,4.3-0.6,6.1-2.4   c2.4-2.4,2.5-6.4,2.5-10.9v-5.5c0-6.7,0-7.9-0.1-9.4c-0.1-1.5-0.4-2.2-1.9-2.5c-0.3-0.1-1.1-0.1-1.6-0.1c-0.5,0-0.8-0.1-0.8-0.4   c0-0.3,0.3-0.4,0.9-0.4c2.3,0,5,0.1,5.1,0.1c0.5,0,3.3-0.1,5-0.1c0.6,0,0.9,0.1,0.9,0.4c0,0.3-0.3,0.4-0.8,0.4   c-0.5,0-0.7,0-1.3,0.1c-1.2,0.2-1.5,1-1.6,2.5c-0.1,1.4-0.1,2.7-0.1,9.4v4.7c0,4.9-0.5,10.1-4.2,13.3c-3.1,2.7-6.3,3.2-9.2,3.2   c-2.3,0-6.6-0.1-9.8-3c-2.3-2-3.9-5.3-3.9-11.7V396.8z"/>
	<path d="M555.5,386.5l-6.6,0.2c-2.6,0.1-3.6,0.3-4.3,1.3c-0.4,0.7-0.7,1.2-0.8,1.5c-0.1,0.4-0.2,0.5-0.5,0.5   c-0.3,0-0.4-0.2-0.4-0.7c0-0.7,0.8-4.7,0.9-5.1c0.1-0.6,0.3-0.8,0.5-0.8c0.3,0,0.8,0.4,1.9,0.5c1.3,0.1,3,0.2,4.4,0.2h17.5   c1.4,0,2.4-0.1,3.1-0.2c0.7-0.1,1-0.2,1.2-0.2c0.3,0,0.3,0.3,0.3,0.9c0,0.9-0.1,4-0.1,5.1c-0.1,0.5-0.1,0.7-0.4,0.7   c-0.3,0-0.5-0.2-0.5-0.9l0-0.5c-0.1-1.1-1.3-2.4-5.2-2.5l-5.6-0.1v18.1c0,4.1,0,7.5,0.2,9.4c0.1,1.2,0.4,2.2,1.7,2.4   c0.6,0.1,1.6,0.2,2.3,0.2c0.5,0,0.7,0.1,0.7,0.4c0,0.3-0.4,0.4-0.8,0.4c-2.9,0-5.7-0.1-6.9-0.1c-1,0-3.8,0.1-5.6,0.1   c-0.6,0-0.9-0.1-0.9-0.4c0-0.2,0.2-0.4,0.7-0.4c0.7,0,1.2-0.1,1.6-0.2c0.9-0.2,1.1-1.1,1.3-2.4c0.2-1.9,0.2-5.3,0.2-9.4V386.5z"/>
	<path d="M587.8,396.8c0-6.7,0-7.9-0.1-9.4c-0.1-1.5-0.4-2.2-1.9-2.5c-0.4-0.1-1.1-0.1-1.7-0.1c-0.5,0-0.7-0.1-0.7-0.4   c0-0.3,0.3-0.4,1-0.4c1.2,0,2.5,0,3.6,0c1.1,0.1,2.1,0.1,2.8,0.1c1.4,0,10.2,0,11,0c0.8-0.1,1.5-0.2,1.9-0.3   c0.2-0.1,0.5-0.2,0.7-0.2c0.2,0,0.3,0.2,0.3,0.4c0,0.3-0.2,0.8-0.3,2.9c-0.1,0.4-0.1,2.4-0.3,2.9c0,0.2-0.1,0.5-0.4,0.5   c-0.3,0-0.4-0.2-0.4-0.6c0-0.3,0-1.1-0.3-1.6c-0.3-0.8-0.7-1.3-3-1.6c-0.7-0.1-5.4-0.2-6.2-0.2c-0.2,0-0.3,0.2-0.3,0.4V398   c0,0.3,0.1,0.5,0.3,0.5c1,0,6.1,0,7.1-0.1c1-0.1,1.7-0.2,2.1-0.7c0.3-0.4,0.5-0.6,0.7-0.6c0.2,0,0.3,0.1,0.3,0.3   c0,0.3-0.2,1-0.3,3.2c-0.1,0.9-0.2,2.7-0.2,3c0,0.4,0,0.9-0.4,0.9c-0.3,0-0.4-0.2-0.4-0.4c0-0.4,0-1-0.2-1.6   c-0.2-0.9-0.8-1.5-2.5-1.7c-0.8-0.1-5.2-0.2-6.3-0.2c-0.2,0-0.3,0.2-0.3,0.4v3.5c0,1.5,0,5.6,0,6.8c0.1,3.1,0.8,3.7,5.3,3.7   c1.2,0,3,0,4.2-0.5c1.1-0.5,1.7-1.4,2-3.3c0.1-0.5,0.2-0.7,0.5-0.7c0.4,0,0.4,0.4,0.4,0.8c0,1-0.4,4-0.6,4.9   c-0.3,1.1-0.7,1.1-2.4,1.1c-3.3,0-5.7-0.1-7.6-0.1c-1.9-0.1-3.3-0.1-4.6-0.1c-0.5,0-1.5,0-2.5,0c-1,0-2.2,0.1-3,0.1   c-0.6,0-0.9-0.1-0.9-0.4c0-0.2,0.2-0.4,0.7-0.4c0.7,0,1.2-0.1,1.6-0.2c0.9-0.2,1.1-1.1,1.3-2.4c0.2-1.9,0.2-5.4,0.2-9.4V396.8z"/>
</g>
</svg>