<svg xmlns="http://www.w3.org/2000/svg" xmlns:xlink="http://www.w3.org/1999/xlink" version="1.0" id="Layer_1" x="0px" y="0px" style="enable-background:new 0 0 244.2 155.5;" xml:space="preserve" viewBox="28.7 68.85 186.8 17.79">
<style type="text/css">
	.st0{fill:#FA1C45;}
	.st1{fill:none;}
</style>
<path class="st0" d="M60.1,69c4.8-0.9,9.4,2.4,10.3,7.2c0.9,4.8-2.4,9.4-7.2,10.3c-3.9,0.7-7.8-1.3-9.6-4.9  c-2.1-4.4-0.2-9.7,4.2-11.8C58.6,69.4,59.3,69.2,60.1,69 M60.8,72.2c-1.6,0.3-3,1.2-3.8,2.6c-0.9,1.5-1.1,3.4-0.5,5.1  c0.5,1.3,1.5,2.4,2.8,3c1.3,0.6,2.9,0.7,4.2,0.2c1.3-0.5,2.3-1.4,3-2.5c0.8-1.4,0.9-3.1,0.4-4.6c-0.4-1.3-1.3-2.4-2.4-3.1  C63.4,72.2,62.1,72,60.8,72.2 M187.7,69.1c1.6-0.3,3.3-0.3,4.9,0.2c1.4,0.4,2.6,1.4,3.3,2.8c0.4,0.8,0.5,1.6,0.5,2.5H193  c0-0.8-0.4-1.6-1.1-2.1c-0.9-0.6-2-0.8-3-0.6c-0.8,0-1.6,0.4-2.1,1.1c-0.5,0.8-0.4,1.8,0.4,2.4c0,0,0,0,0,0c0.8,0.4,1.6,0.6,2.5,0.7  c1.2,0.2,2.4,0.5,3.5,0.9c1,0.4,1.8,1.1,2.4,2c0.9,1.8,0.6,4-0.7,5.5c-1.2,1.2-2.8,1.9-4.5,2c-1.7,0.2-3.5-0.1-5.1-0.7  c-1.2-0.6-2.2-1.6-2.7-2.8c-0.3-0.8-0.5-1.6-0.5-2.4h3.4c0.2,1.8,1.7,3.1,3.5,3c1,0.2,2.1,0,2.9-0.6c0.8-0.6,1-1.8,0.4-2.6  c-0.6-0.5-1.3-0.8-2.1-0.8c-1.1-0.2-2.1-0.4-3.2-0.7c-0.9-0.2-1.8-0.6-2.5-1.2c-0.6-0.5-1-1.1-1.2-1.8c-0.4-1.3-0.3-2.6,0.3-3.8  C184.5,70.4,186,69.4,187.7,69.1 M28.7,69.1h3.4l1.6,13.4c0.1-0.2,0.1-0.4,0.2-0.6l3.9-12.9h2.9L44.7,82c0.1,0.2,0.1,0.4,0.2,0.5  c0.6-4.5,1.1-9,1.7-13.5h3.4c-0.9,5.7-1.7,11.4-2.6,17.2c-1.5,0-3,0-4.4,0l-3.4-11.1c-0.1-0.3-0.2-0.6-0.3-0.9c-1.1,4-2.3,8-3.5,12  h-4.5C30.5,80.6,29.6,74.8,28.7,69.1 M74.6,69.1h8.3c1.6,0,3.2,0.7,4.3,1.9c0.7,0.9,1.1,2,1,3.2C88,75.9,87,77.4,85.4,78  c0.5,0,0.9,0.2,1.3,0.5c0.4,0.4,0.6,0.9,0.8,1.4c0.7,2.1,1.4,4.2,2.1,6.4h-3.7c-0.5-1.7-1.1-3.4-1.6-5c-0.1-0.4-0.3-0.8-0.6-1.1  c-0.3-0.2-0.6-0.4-1-0.3H78c0,2.2,0,4.3,0,6.5h-3.4V69.1 M78,72.2c0,1.6,0,3.2,0,4.8h3.3c0.8,0.1,1.6-0.1,2.3-0.4  c0.6-0.3,1-0.9,1.1-1.5c0.2-0.8,0-1.5-0.5-2.2c-0.6-0.5-1.4-0.8-2.2-0.8C80.7,72.2,79.3,72.2,78,72.2 M94,69.2h3.4v14.2h7.7v3H93.9  L94,69.2 M109.3,69.2h7c4.7,0.1,8.5,4.1,8.3,8.8c-0.1,2.7-1.4,5.2-3.6,6.8c-1.4,1-3,1.6-4.8,1.6h-7  C109.3,80.6,109.3,74.9,109.3,69.2 M112.7,72.2c0,3.8,0,7.5,0,11.3c1.2,0,2.3,0,3.5,0c1.3,0,2.5-0.5,3.5-1.3c1-1,1.6-2.3,1.7-3.7  c0.2-1.6-0.2-3.3-1.2-4.6c-1-1.1-2.4-1.8-3.9-1.8L112.7,72.2 M129.1,69.1h12.8c0,1,0,2,0,3h-9.4c0,1.5,0,2.9,0,4.4h8.2  c0,1,0,2,0,2.9h-8.2c0,2.3,0,4.6,0,6.9H129L129.1,69.1 M146.5,69.2h12.7c0,1,0,2,0,3h-4.6c0,3.8,0,7.5,0,11.3c1.5,0,3.1,0,4.6,0  c0,1,0,2,0,3c-4.2,0-8.4,0-12.7,0v-3c1.5,0,3.1,0,4.6,0c0-3.8,0-7.5,0-11.3h-4.6L146.5,69.2 M164.2,69.2h8.4c1.7,0,3.4,0.8,4.4,2.2  c1,1.5,1,3.5,0,5.1c-0.5,0.7-1.2,1.3-2,1.6c0.6,0,1.2,0.4,1.6,0.9c0.4,0.8,0.7,1.7,0.9,2.6c0.5,1.6,1,3.2,1.6,4.9h-3.7  c-0.5-1.7-1.1-3.4-1.6-5.1c-0.1-0.5-0.4-0.9-0.8-1.2c-0.4-0.2-0.8-0.2-1.2-0.2h-4.2c0,2.2,0,4.3,0,6.5h-3.4L164.2,69.2 M167.5,72.2  c0,1.6,0,3.2,0,4.8c1,0,2,0,3,0c0.9,0.1,1.8,0,2.6-0.3c0.6-0.3,1-0.8,1.1-1.4c0.2-0.8,0.1-1.6-0.5-2.3c-0.6-0.5-1.4-0.8-2.2-0.8  C170.2,72.2,168.9,72.2,167.5,72.2 M199.9,69.2h15.6v3h-6.1c0,4.7,0,9.5,0,14.2c-1.1,0-2.3,0-3.4,0c0-4.7,0-9.5,0-14.2  c-2,0-4,0-6.1,0C199.9,71.2,199.9,70.2,199.9,69.2L199.9,69.2z"/>
<rect x="24.2" y="64.5" class="st1" width="195.8" height="26.5"/>
</svg>