<?xml version="1.0" encoding="UTF-8"?>
<svg width="265px" height="75px" viewBox="0 0 265 75" version="1.1" xmlns="http://www.w3.org/2000/svg" xmlns:xlink="http://www.w3.org/1999/xlink">
    <!-- Generator: Sketch 59.1 (86144) - https://sketch.com -->
    <title>YOOBIC_Logo_horizontal</title>
    <desc>Created with Sketch.</desc>
    <defs>
        <path d="M24.2713175,75 L24.2539745,75 C23.9568343,75 23.6586147,74.9939651 23.3594061,74.9821678 L18.2866142,74.7897014 L31.7821559,45.1504043 C31.877866,45.0541758 31.9735819,44.861707 32.0692978,44.6692441 L32.1650079,44.5730156 L31.9735819,44.5730156 C24.3165361,43.2257754 17.6166261,37.8368086 13.8838162,29.6571328 L0.196850197,0.0178124999 L5.46106636,0.0178124999 C5.75039679,0.00629251315 6.03886984,-9.12758163e-09 6.32639569,-9.12758163e-09 L6.38488256,-9.12758163e-09 C15.6804147,0.0121500527 23.9786849,5.81670956 28.240772,15.3186328 L36.8549478,33.9875508 L45.4691236,15.3186328 C49.823862,5.81670956 58.125115,0.0121500527 67.5075257,-9.12758163e-09 L67.5665661,-9.12758163e-09 C67.856782,-9.12758163e-09 68.1480325,0.00629251315 68.4402261,0.0178124999 L73.5130413,0.0178124999 L59.8260853,30.2345215 L46.3305377,59.6813613 C41.9725827,69.1902874 33.6622968,74.9964277 24.2713175,75 L24.2713175,75 Z" id="path-1"></path>
        <linearGradient x1="13.2869264%" y1="-35.023%" x2="72.1671668%" y2="66.961%" id="linearGradient-3">
            <stop stop-color="#45E2FF" offset="0%"></stop>
            <stop stop-color="#7B6BFF" offset="100%"></stop>
        </linearGradient>
    </defs>
    <g id="Yoobic" stroke="none" stroke-width="1" fill="none" fill-rule="evenodd">
        <g id="YOOBIC_Logo_horizontal" transform="translate(-93.000000, -188.000000)">
            <g transform="translate(93.000000, 188.000000)">
                <g id="Group" transform="translate(89.000000, 22.000000)" fill="#20274F" fill-rule="nonzero">
                    <g id="Yoobic_Tagline">
                        <polygon id="Path" points="11.3516409 17.9714286 0.431541285 0.644857143 7.73616695 0.644857143 14.5145227 12.1095714 21.4191833 0.644857143 28.5185637 0.644857143 17.5984641 17.8234286 17.5984641 29.2088572 11.3516409 29.2088572"></polygon>
                        <path d="M31.3604209,14.9268572 C31.3604209,6.808 37.7388117,0.158571428 46.5064675,0.158571428 C55.2741234,0.158571428 61.5735736,6.72342857 61.5735736,14.9268572 C61.5735736,23.0457143 55.1951829,29.6951429 46.427527,29.6951429 C37.6598711,29.6951429 31.3604209,23.125 31.3604209,14.9268572 Z M55.0425646,14.9268572 C55.0425646,10.0322858 51.4691922,5.94114286 46.4327897,5.94114286 C41.3963872,5.94114286 37.907218,9.93714285 37.907218,14.9268572 C37.907218,19.8214286 41.4805903,23.9125715 46.5169929,23.9125715 C51.5533955,23.9125715 55.0320392,19.906 55.0320392,14.9268572 L55.0425646,14.9268572 Z" id="Shape"></path>
                        <path d="M67.0888817,14.9268572 C67.0888817,6.808 73.4620097,0.158571428 82.2296655,0.158571428 C90.9973214,0.158571428 97.2915086,6.72342857 97.2915086,14.9268572 C97.2915086,23.0457143 90.9183809,29.6951429 82.150725,29.6951429 C73.3830692,29.6951429 67.0888817,23.125 67.0888817,14.9268572 Z M90.7710252,14.9268572 C90.7710252,10.0322858 87.2029156,5.94114286 82.1665131,5.94114286 C77.1301106,5.94114286 73.6409415,9.93714285 73.6409415,14.9268572 C73.6409415,19.8214286 77.2143138,23.9125715 82.2454536,23.9125715 C87.2765934,23.9125715 90.7552371,19.906 90.7552371,14.9268572 L90.7710252,14.9268572 Z" id="Shape"></path>
                        <path d="M104.075128,0.644857143 L117.268713,0.644857143 C120.515798,0.644857143 123.057681,1.54342857 124.699643,3.17671429 C126.007528,4.47643163 126.713714,6.26686867 126.646842,8.1135714 C126.646842,11.3378572 124.941728,13.1297143 122.910326,14.2714286 C126.199512,15.54 128.230914,17.4428572 128.230914,21.3754286 C128.230914,26.5977143 124.020755,29.2088572 117.595,29.2088572 L104.075128,29.2088572 L104.075128,0.644857143 Z M115.931987,12.1941428 C118.689641,12.1941428 120.436857,11.2955714 120.436857,9.0914286 C120.436857,7.215 118.973827,6.15257143 116.337215,6.15257143 L110.16407,6.15257143 L110.16407,12.1941428 L115.931987,12.1941428 Z M117.595,23.7011429 C120.352654,23.7011429 122.020929,22.718 122.020929,20.5297143 C122.020929,18.6162857 120.600001,17.4322857 117.389755,17.4322857 L110.16407,17.4322857 L110.16407,23.7011429 L117.595,23.7011429 Z" id="Shape"></path>
                        <polygon id="Path" points="135.698684 0.644857143 141.950769 0.644857143 141.950769 29.1877143 135.698684 29.1877143"></polygon>
                        <path d="M149.018573,14.9268572 C149.018573,6.808 155.107515,0.158571428 163.83307,0.158571428 C169.190497,0.158571428 172.195498,2.19885714 174.837373,4.81 L171.100856,9.13371428 C168.906312,7.13571428 167.043316,5.96228572 163.790969,5.96228572 C159.001912,5.96228572 155.554845,9.95828573 155.554845,14.948 C155.554845,19.8425714 158.922972,23.9337143 163.790969,23.9337143 C167.043316,23.9337143 169.053667,22.6281428 171.264,20.5878572 L175.247863,24.8428571 C172.321803,27.9825714 169.074718,29.6951429 163.596249,29.6951429 C155.249608,29.6951429 149.018573,23.2095714 149.018573,14.9268572 Z" id="Path"></path>
                    </g>
                </g>
                <g id="Y">
                    <mask id="mask-2" fill="white">
                        <use xlink:href="#path-1"></use>
                    </mask>
                    <g id="Clip-2"></g>
                    <polygon id="Fill-1" fill="url(#linearGradient-3)" mask="url(#mask-2)" points="-1 75 74 75 74 0 -1 0"></polygon>
                </g>
            </g>
        </g>
    </g>
</svg>