<?xml version="1.0" encoding="UTF-8"?><svg xmlns:xlink="http://www.w3.org/1999/xlink"  id="Layer_1" xmlns="http://www.w3.org/2000/svg" viewBox="0 0 850.39 850.39"><defs><style>.cls-1{fill:#eb5e44;}</style></defs><path class="cls-1" d="M425.2,40.99c-71.98,0-137.14,23.96-183.47,67.46-48.71,45.74-74.46,109.72-74.46,185.05,0,79.67,26.23,145.27,75.85,189.72,45.21,40.49,109.87,62.79,182.08,62.79s136.87-22.3,182.07-62.79c49.62-44.44,75.85-110.05,75.85-189.72,0-75.32-25.75-139.31-74.46-185.05-46.33-43.5-111.49-67.46-183.47-67.46m0,531.83c-78.82,0-149.84-24.73-199.97-69.63-55.47-49.67-84.78-122.18-84.78-209.7,0-82.92,28.67-153.67,82.92-204.6C274.69,40.71,346.37,14.17,425.2,14.17s150.5,26.54,201.83,74.72c54.25,50.93,82.92,121.68,82.92,204.6,0,87.51-29.32,160.02-84.78,209.7-50.14,44.9-121.15,69.63-199.97,69.63"/><path class="cls-1" d="M516.95,278.56c2.63,0,4.94-1.78,5.57-4.32,3.2-12.76,13.24-19.81,24.74-19.81s21.54,7.05,24.73,19.81c.64,2.55,2.95,4.32,5.57,4.32h15.89c3.58,0,6.35-3.24,5.69-6.76-4.76-25.48-25.87-40.66-51.89-40.66s-47.13,15.18-51.89,40.66c-.66,3.52,2.11,6.76,5.69,6.76h15.89Z"/><path class="cls-1" d="M272.83,278.56c2.63,0,4.94-1.78,5.57-4.32,3.2-12.76,13.24-19.81,24.74-19.81s21.54,7.05,24.73,19.81c.64,2.55,2.95,4.32,5.58,4.32h15.89c3.58,0,6.35-3.24,5.69-6.76-4.77-25.48-25.88-40.66-51.89-40.66s-47.13,15.18-51.89,40.66c-.66,3.52,2.11,6.76,5.69,6.76h15.89Z"/><path class="cls-1" d="M468.99,369.21c0,3.7-3.15,6.64-6.84,6.37-15.5-1.13-28.29-6.2-37.27-15.11-9.82-9.74-15.01-23.77-15.01-40.58v-125.58c0-3.52,2.86-6.38,6.38-6.38h14.59c3.52,0,6.38,2.86,6.38,6.38v125.58c0,9.49,2.33,16.61,6.92,21.17,4.14,4.1,10.49,6.51,18.92,7.21,3.34,.28,5.94,3.01,5.94,6.36v14.58Z"/><path class="cls-1" d="M425.26,464.31c-56.04,0-108.55-21.33-148.56-60.21-2.45-2.38-2.46-6.31-.02-8.69l11.04-10.74c2.33-2.27,6.04-2.29,8.38-.03,34.83,33.71,80.46,52.2,129.16,52.2s94.22-18.45,129.04-52.08c2.34-2.26,6.05-2.23,8.38,.04l11.03,10.75c2.45,2.38,2.43,6.31-.02,8.69-40,38.8-92.46,60.08-148.43,60.08"/><path class="cls-1" d="M306.51,683.98v97.51c0,35.65-22.65,54.73-53.47,54.73-15.31,0-29.15-5.24-37.95-12.16-2.52-2.1-2.73-5.24-.42-8.39l7.76-10.06c1.89-2.52,5.03-2.52,7.97-.63,7.34,4.61,14.26,6.92,21.81,6.92,15.31,0,27.68-10.28,27.68-28.31v-14.05c-7.97,6.71-18.24,10.06-29.57,10.06-26.63,0-50.12-16.78-50.12-49.49v-46.13c0-2.52,1.68-4.19,4.19-4.19h18.87c2.52,0,4.19,1.68,4.19,4.19v44.04c0,17.41,10.49,27.47,26,27.47s25.79-10.06,25.79-27.47v-44.04c0-2.52,1.68-4.19,4.19-4.19h18.87c2.52,0,4.19,1.68,4.19,4.19"/><path class="cls-1" d="M409.05,732.21c0-17.82-10.69-29.57-26.63-29.57s-26.84,11.74-26.84,29.57,10.69,29.57,26.84,29.57,26.63-11.74,26.63-29.57m-82.41,0c0-32.29,22.23-53.68,55.78-53.68s55.57,21.39,55.57,53.68-22.23,53.68-55.57,53.68-55.78-21.39-55.78-53.68"/><path class="cls-1" d="M524.17,683.98v15.1c0,2.52-1.68,4.19-4.19,4.19h-26.42v32.92c0,16.57,7.97,22.23,24.32,23.49,2.73,.21,4.61,2.1,4.61,4.61v15.73c0,3.15-2.31,5.24-5.87,5.03-29.36-1.47-49.91-16.99-49.91-46.55v-35.23h-15.73c-2.31,0-4.19-1.89-4.19-4.19v-15.1c0-2.31,1.89-4.19,4.19-4.19h15.73v-31.45c0-2.52,1.68-4.19,4.19-4.19h18.87c2.52,0,4.19,1.68,4.19,4.19v31.45h26c2.52,0,4.19,1.68,4.19,4.19"/><path class="cls-1" d="M621.26,732.21c0-17.82-10.69-29.57-26.63-29.57s-26.84,11.74-26.84,29.57,10.69,29.57,26.84,29.57,26.63-11.74,26.63-29.57m-82.41,0c0-32.29,22.23-53.68,55.78-53.68s55.57,21.39,55.57,53.68-22.23,53.68-55.57,53.68-55.78-21.39-55.78-53.68"/></svg>