<svg xmlns:xlink="http://www.w3.org/1999/xlink" xmlns="http://www.w3.org/2000/svg" fill="none" style="width:calc(1em * (87 / 32));height:1em;font-size:1em" viewBox="0.02 0.11 86.5 31.68"><title>Zappi</title><path fill-rule="evenodd" clip-rule="evenodd" d="M84.61 24.684a1.914 1.914 0 0 1-1.915-1.914V8.298a1.914 1.914 0 0 1 3.829 0V22.77a1.914 1.914 0 0 1-1.914 1.914Zm.007-20.748h-.015a1.914 1.914 0 1 1 0-3.827 1.92 1.92 0 0 1 1.922 1.913c0 1.057-.85 1.914-1.907 1.914ZM63.465 31.79a1.914 1.914 0 0 1-1.914-1.91l-.029-14.31c.022-2.657 1.027-5.149 2.757-6.837 1.614-1.576 3.782-2.389 6.26-2.35a9.221 9.221 0 0 1 6.997 3.396c1.67 2.037 2.361 4.636 1.9 7.13-1.119 6.034-6.23 8.228-10.51 7.713a1.914 1.914 0 1 1 .457-3.799c.544.066 5.343.492 6.288-4.61.256-1.385-.143-2.846-1.097-4.01a5.4 5.4 0 0 0-4.095-1.994c-1.457-.019-2.645.402-3.525 1.261-.99.967-1.59 2.511-1.603 4.131l.028 14.272a1.914 1.914 0 0 1-1.91 1.917h-.004Zm-21.285 0a1.914 1.914 0 0 1-1.914-1.91c-.011-5.316-.03-14.246-.029-14.31.022-2.657 1.027-5.149 2.757-6.837 1.614-1.576 3.78-2.389 6.26-2.35A9.221 9.221 0 0 1 56.25 9.78c1.669 2.037 2.361 4.636 1.899 7.13-1.118 6.033-6.23 8.228-10.51 7.713a1.913 1.913 0 1 1 .458-3.799c.544.066 5.342.492 6.288-4.61.256-1.385-.144-2.846-1.097-4.01a5.4 5.4 0 0 0-4.095-1.994c-1.457-.019-2.645.402-3.526 1.261-.99.967-1.59 2.511-1.602 4.131l.028 14.272a1.914 1.914 0 0 1-1.91 1.917h-.004Zm-16.013-7.18c-3.619 0-8.284-1.907-9.37-7.707-.46-2.458.22-5.024 1.868-7.04a9.245 9.245 0 0 1 7.028-3.402c2.493-.038 4.667.776 6.284 2.354 1.714 1.673 2.71 4.135 2.732 6.755l.043 4.555c.014.08.068.32.22.432.078.059.406.238 1.31.071a1.913 1.913 0 1 1 .693 3.763c-2.238.412-3.627-.234-4.398-.848-1.52-1.21-1.642-3.023-1.65-3.225l-.002-.065-.044-4.652c-.014-1.583-.604-3.097-1.58-4.049-.882-.862-2.076-1.283-3.55-1.265a5.425 5.425 0 0 0-4.121 1.998c-.933 1.14-1.323 2.567-1.07 3.914.998 5.33 6.274 4.555 6.498 4.519a1.913 1.913 0 1 1 .6 3.779 9.567 9.567 0 0 1-1.491.114Zm-12.852.216H1.997a1.914 1.914 0 0 1-1.576-3l6.242-9.044a1.914 1.914 0 0 1 3.152 2.173L5.643 21h7.672a1.914 1.914 0 1 1 0 3.826Zm-3.293-14.51H1.997a1.914 1.914 0 1 1 0-3.826h8.025a1.914 1.914 0 1 1 0 3.826Z" fill="#FFB600"/></svg>