<?xml version="1.0" encoding="UTF-8" standalone="no"?>
<svg
   xmlns:dc="http://purl.org/dc/elements/1.1/"
   xmlns:cc="http://creativecommons.org/ns#"
   xmlns:rdf="http://www.w3.org/1999/02/22-rdf-syntax-ns#"
   xmlns:svg="http://www.w3.org/2000/svg"
   xmlns="http://www.w3.org/2000/svg"
   xmlns:xlink="http://www.w3.org/1999/xlink"
   xmlns:sodipodi="http://sodipodi.sourceforge.net/DTD/sodipodi-0.dtd"
   xmlns:inkscape="http://www.inkscape.org/namespaces/inkscape"
   inkscape:version="1.0 (4035a4fb49, 2020-05-01)"
   height="80.216301"
   width="400"
   sodipodi:docname="Zava_Logo_RGB_(Colour_Palette).svg"
   xml:space="preserve"
   viewBox="0 0 399.99999 80.216297"
   y="0px"
   x="0px"
   id="Layer_1"
   version="1.1"><metadata
   id="metadata27"><rdf:RDF><cc:Work
       rdf:about=""><dc:format>image/svg+xml</dc:format><dc:type
         rdf:resource="http://purl.org/dc/dcmitype/StillImage" /><dc:title></dc:title></cc:Work></rdf:RDF></metadata><defs
   id="defs25" /><sodipodi:namedview
   inkscape:current-layer="Layer_1"
   inkscape:window-maximized="1"
   inkscape:window-y="-8"
   inkscape:window-x="-8"
   inkscape:cy="208.00133"
   inkscape:cx="1038.56"
   inkscape:zoom="0.33667941"
   fit-margin-bottom="0"
   fit-margin-right="0"
   fit-margin-left="0"
   fit-margin-top="0"
   showgrid="false"
   id="namedview23"
   inkscape:window-height="837"
   inkscape:window-width="1600"
   inkscape:pageshadow="2"
   inkscape:pageopacity="0"
   guidetolerance="10"
   gridtolerance="10"
   objecttolerance="10"
   borderopacity="1"
   bordercolor="#666666"
   pagecolor="#ffffff" />
<style
   id="style2"
   type="text/css">
	.st0{clip-path:url(#SVGID_2_);fill:#0F62F4;}
</style>
<g
   transform="matrix(0.19265769,0,0,0.19265769,-63.424838,-67.458839)"
   id="g20">
	<defs
   id="defs5">
		<rect
   x="0"
   height="1116.3"
   width="2735.54"
   y="0"
   id="SVGID_1_" />
	</defs>
	<clipPath
   id="SVGID_2_">
		<use
   height="100%"
   width="100%"
   y="0"
   x="0"
   id="use7"
   style="overflow:visible"
   xlink:href="#SVGID_1_" />
	</clipPath>
	<path
   id="path10"
   clip-path="url(#SVGID_2_)"
   d="M 1083.24,766.5 H 863.71 c -14.44,0 -27.73,-7.91 -34.62,-20.6 -6.89,-12.7 -6.27,-28.14 1.6,-40.26 L 1010.64,428.92 H 863.71 c -21.75,0 -39.38,-17.63 -39.38,-39.38 0,-21.75 17.63,-39.38 39.38,-39.38 h 219.53 c 14.44,0 27.73,7.91 34.62,20.6 6.89,12.7 6.27,28.14 -1.6,40.25 L 936.3,687.73 h 146.94 c 21.75,0 39.38,17.63 39.38,39.38 0.01,21.75 -17.63,39.39 -39.38,39.39"
   class="st0" />
	<path
   id="path12"
   clip-path="url(#SVGID_2_)"
   d="m 1548.79,766.5 c -14.59,0 -28.61,-8.14 -35.43,-22.13 L 1384.19,479.39 1254.95,744.38 c -9.54,19.55 -33.11,27.67 -52.66,18.13 -19.55,-9.54 -27.67,-33.11 -18.13,-52.66 l 164.65,-337.57 c 6.6,-13.53 20.34,-22.12 35.4,-22.12 v 0 c 15.06,0 28.8,8.59 35.4,22.12 l 164.57,337.58 c 9.53,19.55 1.41,43.13 -18.14,52.66 -5.58,2.7 -11.46,3.98 -17.25,3.98"
   class="st0" />
	<path
   id="path14"
   clip-path="url(#SVGID_2_)"
   d="m 2036.79,766.5 c -5.79,0 -11.68,-1.28 -17.24,-3.99 -19.55,-9.54 -27.67,-33.11 -18.13,-52.66 l 164.65,-337.57 c 6.6,-13.53 20.34,-22.12 35.4,-22.12 v 0 c 15.06,0 28.8,8.59 35.4,22.12 l 164.57,337.58 c 9.53,19.55 1.41,43.13 -18.14,52.66 -19.55,9.54 -43.13,1.41 -52.66,-18.14 L 2201.46,479.4 2072.22,744.39 c -6.83,13.98 -20.84,22.11 -35.43,22.11"
   class="st0" />
	<path
   id="path16"
   clip-path="url(#SVGID_2_)"
   d="m 1793.63,766.5 v 0 c -15.06,0 -28.8,-8.59 -35.4,-22.12 L 1593.66,406.8 c -9.53,-19.55 -1.41,-43.13 18.14,-52.66 19.55,-9.53 43.13,-1.41 52.66,18.14 l 129.18,264.98 129.24,-264.98 c 9.54,-19.55 33.11,-27.67 52.66,-18.13 19.55,9.54 27.67,33.11 18.13,52.66 l -164.65,337.58 c -6.59,13.52 -20.33,22.11 -35.39,22.11"
   class="st0" />
	<path
   id="path18"
   clip-path="url(#SVGID_2_)"
   d="m 666.98,558.51 c 0,21.75 -17.63,39.38 -39.38,39.38 h -50.82 v 50.83 c 0,21.75 -17.63,39.38 -39.38,39.38 -21.75,0 -39.38,-17.63 -39.38,-39.38 V 597.9 h -50.83 c -21.75,0 -39.38,-17.63 -39.38,-39.38 0,-21.75 17.63,-39.38 39.38,-39.38 h 50.83 V 468.3 c 0,-21.75 17.63,-39.38 39.38,-39.38 21.75,0 39.38,17.63 39.38,39.38 v 50.83 h 50.82 c 21.75,0 39.38,17.63 39.38,39.38 M 745.56,766.5 V 435.02 c 0,-84.87 -84.87,-84.87 -84.87,-84.87 H 414.08 c -84.87,0 -84.87,84.87 -84.87,84.87 v 246.61 c 0,84.87 84.87,84.87 84.87,84.87 z"
   class="st0" />
</g>
</svg>
