<?xml version="1.0" encoding="utf-8"?>
<!-- Generator: Adobe Illustrator 24.3.0, SVG Export Plug-In . SVG Version: 6.00 Build 0)  -->
<svg version="1.0" id="katman_1" xmlns="http://www.w3.org/2000/svg" xmlns:xlink="http://www.w3.org/1999/xlink" x="0px" y="0px"
	 viewBox="0 0 614 437" style="enable-background:new 0 0 614 437;" xml:space="preserve">
<style type="text/css">
	.st0{fill:url(#SVGID_1_);}
</style>
<g>
	<path d="M155.62,241.23l30.99-37.36h-30.48v-3.27h35.2v3.02l-30.9,37.36h30.73v3.27h-35.54L155.62,241.23L155.62,241.23z
		 M219.36,245.1c-3.09,0-5.95-0.6-8.59-1.81c-2.6-1.17-4.93-2.86-6.86-4.95c-4.02-4.39-6.23-10.13-6.19-16.08
		c0-3.08,0.55-5.97,1.64-8.69c1.1-2.71,2.6-5.09,4.5-7.14c1.91-2.05,4.22-3.69,6.78-4.83c2.66-1.19,5.55-1.79,8.47-1.76
		c3.09,0,5.95,0.6,8.58,1.81c2.64,1.2,4.91,2.82,6.82,4.87c1.93,2.07,3.44,4.5,4.46,7.14c1.07,2.71,1.6,5.58,1.6,8.6v1.05
		c0.02,0.27-0.01,0.54-0.09,0.79h-38.4c0.31,4.73,2.29,9.19,5.6,12.59c1.54,1.57,3.33,2.8,5.35,3.7c2.04,0.9,4.25,1.36,6.48,1.34
		c1.51,0,3.01-0.21,4.46-0.63c1.43-0.41,2.8-0.99,4.08-1.72c1.24-0.71,2.38-1.6,3.37-2.64c0.98-1.04,1.75-2.17,2.31-3.4l3.71,1.01
		c-0.62,1.57-1.53,3.01-2.74,4.32c-1.21,1.32-2.61,2.45-4.21,3.4c-1.6,0.95-3.35,1.69-5.26,2.22
		C223.34,244.83,221.36,245.1,219.36,245.1L219.36,245.1z M236.54,220.75c-0.14-2.44-0.72-4.83-1.73-7.05
		c-0.93-2.05-2.21-3.91-3.79-5.5c-1.53-1.53-3.35-2.76-5.34-3.61c-2.05-0.87-4.26-1.32-6.48-1.3c-2.23-0.01-4.43,0.43-6.48,1.3
		c-4.1,1.75-7.35,5.03-9.05,9.15c-0.94,2.23-1.5,4.6-1.64,7.01L236.54,220.75L236.54,220.75z M270.56,204.38
		c-3.93,0.11-7.37,1.28-10.32,3.48c-2.95,2.21-5.01,5.25-6.19,9.11v27.29h-4.21v-43.65h4.04v10.74c1.52-3.08,3.52-5.58,6.02-7.52
		c2.5-1.93,5.18-3.03,8.04-3.31c0.56-0.06,1.07-0.09,1.51-0.09h1.1L270.56,204.38L270.56,204.38z M296.92,245.1
		c-3.09,0-5.94-0.6-8.55-1.81c-2.56-1.17-4.87-2.84-6.78-4.91c-1.93-2.1-3.44-4.55-4.46-7.22c-1.07-2.76-1.61-5.69-1.6-8.65
		c-0.02-2.99,0.54-5.95,1.64-8.73c1.09-2.74,2.6-5.15,4.5-7.22c1.91-2.07,4.21-3.74,6.77-4.91c2.66-1.21,5.55-1.83,8.47-1.81
		c3.03,0,5.83,0.6,8.42,1.81c2.58,1.2,4.84,2.84,6.78,4.91c4.01,4.34,6.22,10.04,6.19,15.95c0,3.02-0.55,5.91-1.64,8.65
		c-1.05,2.66-2.57,5.11-4.51,7.22c-1.91,2.07-4.21,3.74-6.77,4.91C302.77,244.5,299.95,245.1,296.92,245.1L296.92,245.1z
		 M279.74,222.68c0,2.57,0.45,4.99,1.35,7.26c0.9,2.27,2.12,4.24,3.66,5.92c1.54,1.68,3.36,3.01,5.43,3.99
		c2.08,0.98,4.29,1.47,6.65,1.47c2.36,0,4.58-0.49,6.65-1.47c2.08-0.98,3.94-2.36,5.47-4.07c3.3-3.66,5.11-8.42,5.05-13.35
		c0.02-2.48-0.44-4.95-1.35-7.26c-0.86-2.2-2.11-4.22-3.71-5.96c-1.54-1.68-3.38-3.06-5.43-4.07c-2.06-1.01-4.32-1.52-6.61-1.51
		c-2.36,0-4.58,0.5-6.65,1.51c-2.06,1-3.91,2.4-5.43,4.11c-1.54,1.73-2.78,3.76-3.71,6.09C280.2,217.67,279.73,220.17,279.74,222.68
		L279.74,222.68z M364.19,244.26h-4.21v-24.34c0-10.8-3.62-16.2-10.86-16.2c-1.8,0-3.55,0.34-5.26,1.01s-3.31,1.62-4.8,2.85
		c-1.49,1.23-2.79,2.67-3.91,4.32c-1.11,1.63-1.97,3.43-2.53,5.33v27.03h-4.21v-61.29h4.21v28.04c1.72-3.33,4.29-6.14,7.45-8.14
		c3.04-1.98,6.6-3.03,10.23-3.02c2.42,0,4.49,0.45,6.23,1.34c1.74,0.9,3.19,2.18,4.34,3.86c1.15,1.68,1.99,3.71,2.53,6.09
		c0.53,2.38,0.8,5.05,0.8,8.02V244.26L364.19,244.26z M395.52,245.1c-3.09,0-5.95-0.6-8.59-1.81c-2.6-1.17-4.93-2.86-6.86-4.95
		c-4.02-4.39-6.23-10.13-6.19-16.08c0-3.08,0.55-5.97,1.64-8.69c1.09-2.71,2.6-5.09,4.5-7.14c1.91-2.05,4.22-3.69,6.77-4.83
		c2.66-1.19,5.55-1.79,8.47-1.76c3.09,0,5.95,0.6,8.59,1.81c2.63,1.2,4.91,2.82,6.82,4.87c1.93,2.07,3.44,4.5,4.46,7.14
		c1.07,2.71,1.6,5.58,1.6,8.6v1.05c0.02,0.27-0.01,0.54-0.08,0.79h-38.4c0.31,4.73,2.29,9.19,5.6,12.59c1.54,1.57,3.33,2.8,5.34,3.7
		c2.04,0.9,4.25,1.36,6.48,1.34c1.51,0,3.01-0.21,4.46-0.63c1.43-0.41,2.8-0.99,4.08-1.72c1.24-0.71,2.38-1.6,3.37-2.64
		c0.98-1.04,1.76-2.17,2.32-3.4l3.7,1.01c-0.62,1.57-1.53,3.01-2.74,4.32c-1.2,1.32-2.61,2.45-4.21,3.4
		c-1.6,0.95-3.35,1.69-5.26,2.22C399.49,244.83,397.51,245.1,395.52,245.1L395.52,245.1z M412.7,220.75
		c-0.14-2.44-0.72-4.83-1.73-7.05c-0.92-2.04-2.21-3.91-3.79-5.5c-1.54-1.53-3.35-2.76-5.35-3.61c-2.05-0.87-4.26-1.32-6.48-1.3
		c-2.23-0.01-4.43,0.43-6.48,1.3c-4.1,1.75-7.35,5.03-9.05,9.15c-0.94,2.23-1.5,4.6-1.64,7.01L412.7,220.75L412.7,220.75z
		 M426,244.26v-43.65h4.21v43.65L426,244.26L426,244.26z M426,190.69v-7.72h4.21v7.72H426L426,190.69z M461.11,244.93
		c-2.89,0.03-5.74-0.62-8.33-1.89c-2.49-1.23-4.71-2.94-6.53-5.04c-1.84-2.12-3.29-4.55-4.3-7.18c-1.03-2.65-1.56-5.47-1.56-8.31
		c0-2.97,0.49-5.82,1.48-8.56c0.93-2.66,2.35-5.12,4.17-7.26c1.8-2.1,3.94-3.76,6.44-5c2.5-1.23,5.26-1.84,8.29-1.84
		c3.82,0,7.14,0.99,9.98,2.98c2.82,1.97,5.26,4.43,7.2,7.26v-9.49h3.87v44.5c0,2.97-0.56,5.57-1.69,7.81
		c-1.07,2.17-2.61,4.08-4.5,5.58c-1.88,1.48-4.07,2.6-6.57,3.36c-2.5,0.75-5.12,1.13-7.87,1.13c-2.29,0.02-4.58-0.22-6.82-0.71
		c-1.87-0.42-3.67-1.09-5.35-2.01c-1.53-0.85-2.92-1.93-4.12-3.19c-1.21-1.26-2.27-2.65-3.16-4.15l2.86-1.93
		c1.74,2.97,4.1,5.14,7.07,6.51c2.97,1.37,6.15,2.05,9.51,2.05c2.25,0,4.37-0.3,6.36-0.92c1.99-0.62,3.73-1.52,5.22-2.73
		c1.49-1.2,2.66-2.7,3.54-4.49c0.87-1.79,1.3-3.89,1.3-6.3v-9.56c-1.78,2.84-4.24,5.19-7.16,6.84
		C467.63,244.04,464.4,244.92,461.11,244.93L461.11,244.93z M462.13,241.32c1.86,0,3.7-0.36,5.43-1.05c1.77-0.7,3.37-1.61,4.8-2.73
		c1.43-1.12,2.61-2.38,3.54-3.77c0.93-1.4,1.5-2.8,1.72-4.2v-14.36c-1.34-3.34-3.6-6.22-6.53-8.31c-1.43-1.01-2.98-1.81-4.63-2.39
		c-1.61-0.58-3.3-0.88-5.01-0.88c-2.63,0-4.99,0.56-7.07,1.68c-2.03,1.08-3.82,2.57-5.26,4.37c-1.45,1.82-2.56,3.88-3.28,6.09
		c-0.75,2.2-1.13,4.51-1.14,6.84c0,2.52,0.45,4.9,1.35,7.14c0.9,2.24,2.13,4.23,3.7,5.96c1.57,1.73,3.42,3.1,5.56,4.11
		C457.43,240.81,459.76,241.33,462.13,241.32L462.13,241.32z M530.75,244.26h-4.21v-24.34c0-10.8-3.62-16.2-10.86-16.2
		c-1.8,0-3.55,0.34-5.26,1.01s-3.31,1.62-4.8,2.85c-1.49,1.23-2.79,2.67-3.91,4.32c-1.12,1.63-1.97,3.43-2.53,5.33v27.03h-4.21
		v-61.29h4.21v28.04c1.72-3.33,4.29-6.14,7.45-8.14c3.04-1.98,6.6-3.03,10.23-3.02c2.41,0,4.49,0.45,6.23,1.34
		c1.74,0.9,3.18,2.18,4.34,3.86c1.15,1.68,1.99,3.71,2.53,6.09c0.53,2.38,0.8,5.05,0.8,8.02V244.26L530.75,244.26z M563,242.16
		c-0.23,0.11-0.61,0.32-1.14,0.63c-0.53,0.31-1.2,0.6-2.02,0.88c-0.9,0.3-1.81,0.55-2.74,0.75c-1.01,0.23-2.11,0.34-3.28,0.34
		c-1.18,0-2.29-0.17-3.33-0.5c-1-0.32-1.93-0.83-2.74-1.51c-0.79-0.67-1.42-1.5-1.86-2.43c-0.47-1.06-0.7-2.2-0.67-3.36v-32.91
		h-6.15v-3.44h6.15v-14.94h4.21v14.94h10.19v3.44h-10.19v31.9c0,1.62,0.56,2.84,1.69,3.65s2.38,1.22,3.79,1.22
		c1.74,0,3.24-0.3,4.5-0.88c1.26-0.59,2.04-0.96,2.32-1.13L563,242.16L563,242.16z"/>
	
		<linearGradient id="SVGID_1_" gradientUnits="userSpaceOnUse" x1="-110.548" y1="512.2977" x2="-109.863" y2="513.2977" gradientTransform="matrix(69.0183 0 0 -83.394 7686.0698 42975.2852)">
		<stop  offset="0" style="stop-color:#EC407A"/>
		<stop  offset="1" style="stop-color:#FFA000"/>
	</linearGradient>
	<path class="st0" d="M57.1,174l6.1,13.01H51L57.1,174z M51,189.06h12.2v58.19H51V189.06z M51,249.31h12.2v7.07H51V249.31z
		 M72.71,186.97l8.45-8.44l38.85,38.88l-39.05,39.98l-8.44-8.02l30.67-31.91L72.71,186.97L72.71,186.97z"/>
</g>
</svg>
