<?xml version="1.0" encoding="utf-8"?>
<!-- Generator: Adobe Illustrator 19.0.0, SVG Export Plug-In . SVG Version: 6.00 Build 0)  -->
<svg version="1.1" id="layer" xmlns="http://www.w3.org/2000/svg" xmlns:xlink="http://www.w3.org/1999/xlink" x="0px" y="0px"
	 viewBox="-153 -46 652 652" style="enable-background:new -153 -46 652 652;" xml:space="preserve">
<style type="text/css">
	.st0{fill:#6A148E;}
</style>
<path class="st0" d="M29.6,220c-30.3,0-55,24.3-55,54.9c0,30,24,55.2,54.5,55.2c30.7,0,54.9-25,54.9-55.4
	C83.9,244.9,59.8,220,29.6,220z M29.1,306.6c-17.8,0-31-14.9-31-32c0-17.4,14.4-31.3,31.5-31.3c17.4,0,30.8,14.9,30.8,31.8
	C60.5,292.6,46.5,306.6,29.1,306.6z M146.9,220c-30.3,0-55,24.3-55,54.9c0,30,24,55.2,54.5,55.2c30.7,0,54.9-25,54.9-55.4
	C201.2,244.9,177,220,146.9,220z M146.3,306.6c-17.8,0-31-14.9-31-32c0-17.4,14.4-31.3,31.5-31.3c17.4,0,30.8,14.9,30.8,31.8
	C177.7,292.6,163.7,306.6,146.3,306.6z M338.8,187.9c-6.8,0-12.2,5.5-12.2,12.2l0,0l0,0v117.7c0,6.8,5.5,12.2,12.2,12.2
	c6.8,0,12.2-5.5,12.2-12.2l0,0l0,0V200.1C351.1,193.5,345.6,187.9,338.8,187.9z M264.3,220c-11.5,0-22.1,3.5-30.7,9.5l0,0
	c-1.3-5.4-6.2-9.5-12-9.5c-6.8,0-12,5.5-12,12.2v117.7c0,6.8,5.2,12.2,12,12.2c6.8,0,12-5.5,12-12.2l0,0v-29.3
	c8.5,5.8,19.1,9.5,30.1,9.5c30.3,0,55-24.3,55-54.9C318.6,245.1,294.7,220,264.3,220z M264.3,306.6c-17.4,0-31.4-14-31.4-31.4
	c0-17,13.4-31.8,30.8-31.8c17.1,0,31.5,13.9,31.5,31.3C295.3,291.8,282,306.6,264.3,306.6z M456.1,220c-5.8,0-10.7,4.1-12,9.5
	c-8.8-5.9-19.2-9.5-30.7-9.5c-30.4,0-54.5,25.2-54.5,55.2c0,30.4,24.8,54.9,55,54.9c11,0,21.6-3.7,30.1-9.5c1.3,5.4,6.2,9.5,12,9.5
	c6.8,0,12-5.5,12-12.2v-85.7C468.1,225.4,462.9,220,456.1,220z M413.4,306.6c-17.8,0-31-14.9-31-32c0-17.4,14.4-31.3,31.5-31.3
	c17.4,0,30.8,14.9,30.8,31.8C444.8,292.6,430.8,306.6,413.4,306.6z M-42.5,280.3c-6.8,0-12.2,5.5-12.2,12.2v12.4h-44.8l62.8-91.9
	c1.7-2.5,2.7-5.5,2.7-8.8c0-8.5-6.8-15.3-15.3-15.4h-70.4l0,0l0,0c-6.6,0-12.2,5.4-12.2,12.2c0,6.8,5.5,12.2,12.2,12.2h53.5
	l-62.7,91.5c0,0-3,4.1-3,9.1c0,8.5,6.9,15.4,15.4,15.4h86.1v-36.8C-30.3,285.7-35.7,280.3-42.5,280.3z"/>
</svg>
