<?xml version="1.0" encoding="utf-8"?>
<!-- Generator: Adobe Illustrator 21.0.0, SVG Export Plug-In . SVG Version: 6.00 Build 0)  -->
<svg version="1.1" id="logo" xmlns="http://www.w3.org/2000/svg" xmlns:xlink="http://www.w3.org/1999/xlink" x="0px" y="0px"
	 width="100px" height="50px" viewBox="0 0 100 50" style="enable-background:new 0 0 100 50;" xml:space="preserve">
<style type="text/css">
	.st0{fill:#00C8B4;}
	.st1{fill:#FFFFFF;}
</style>
<rect id="base" class="st0" width="100" height="50"/>
<g id="zopa">
	<path id="Z" class="st1" d="M8.9,21.5h5.9c0,1.6-6.2,5.5-6.2,9.8V32h12.5v-3.5h-5.9c0-1.6,6.2-5.5,6.2-9.8V18H8.9V21.5z"/>
	<path id="O" class="st1" d="M38,17.9c-4.5,0-7.7,3-7.7,7.1s3.2,7.2,7.7,7.2s7.7-3.1,7.7-7.2C45.6,20.8,42.4,17.9,38,17.9z M40.9,25
		c0.2,1.7-1.1,3.2-2.8,3.3c0,0-0.1,0-0.1,0c-1.7-0.1-3.1-1.6-3-3.3c0,0,0,0,0,0c-0.1-1.7,1.2-3.2,2.9-3.3c0,0,0,0,0.1,0
		c1.7,0.1,3,1.4,2.9,3.1C40.9,24.9,40.9,24.9,40.9,25z"/>
	<path id="P" class="st1" d="M61.6,18h-6.3v14h4.4v-3.6h1.9c3.6,0,5.7-2,5.7-5.3C67.3,19.8,65.2,18,61.6,18z M61.6,24.8
		c-0.1,0-0.2,0-0.3,0h-1.7v-3.3h1.7c0.8-0.1,1.5,0.5,1.6,1.3c0,0.1,0,0.2,0,0.3C63,24,62.4,24.7,61.6,24.8z"/>
	<path id="A" class="st1" d="M85.7,18h-4.8L75,32h4.8l0.7-2h5.2l0.7,2h4.9L85.7,18z M81.7,26.7L81.7,26.7l1.5-4.1l1.4,4.1H81.7z"/>
</g>
</svg>
