<svg xmlns="http://www.w3.org/2000/svg" xmlns:xlink="http://www.w3.org/1999/xlink" version="1.1" id="layer" x="0px" y="0px" style="enable-background:new -153 -46 652 652;" xml:space="preserve" viewBox="-131.9 201.12 600.4 147.58">
<style type="text/css">
	.st0{fill:#DC0606;}
</style>
<title>Artboard</title>
<desc>Created with Sketch.</desc>
<path class="st0" d="M-36.4,201.8c0,0,9.9-0.9,17.1,3.9c2.6,0,5.1,0.9,6.4,3.9c1.3,2.6,3.9,9,2.1,12.4c-0.9,0.9-2.1-2.1-2.1-2.1  s-0.9,3.9-3,5.1c0.4,7.7-3,13.3-3.9,15c-0.4,0.9,0,2.1,0.4,3c0.4,0.9,5.6,19.3,5.1,25.7c-0.4,6-3.4,13.3-6,15.9  c0.4,5.1-1.7,9.4-3,11.6c-1.3,2.1-3.9,9.9-4.3,13.7c-0.9,3.9-0.9,7.7,0,8.6c0.9,1.3,4.3,4.7,3.9,6.9c-0.4,1.7-3.9,3.9-6,3.9  c-1.7,0-5.6-1.3-6.4-3.9c-0.9-2.6-0.9-6.9-0.4-9.4c0.9-2.6,5.1-20.6,2.6-31.3c-6.4,3-17.1,2.6-17.1,2.6s-1.7,9.4-3.9,15  c-0.9,1.3-0.9,10.3-0.9,15.9c0,5.6,2.1,14.1,2.1,14.1s2.6,2.1,2.1,4.3c-0.4,2.1-3.4,3.9-6.4,3.9c-2.6,0-6.4-2.1-6.4-5.6  c0-3.4,0.4-11.1,0.4-16.7c0-5.6,0-9.4-0.9-12.9c-0.9-3.4-3.4-12.9-3.9-20.1c-0.9,0-1.7-0.9-1.7-0.9s-4.3,5.1-7.3,7.7  c0.4,2.1,1.3,5.6,1.3,6.4s0.9,1.3,2.1,2.1c1.3,0.4,5.1,2.6,5.1,5.1c0,2.1-5.1,2.6-9.9,0.9c-0.9-0.4-4.7-13.3-5.1-15  c-0.4-1.7-0.9-2.6-0.4-3.9c0.9-1.3,2.6-6,2.1-9c-0.4-2.6-5.1-6.9-8.6-6.9c-2.6,0-6.4,3.9-9.4,6.4c-3.4,2.6-7.7,6.9-8.6,7.7  c-0.9,0.9-9.4,15.4-10.7,19.7c-0.9,1.7-2.1,10.3-9,9.9c-3-0.4-6-3.9,3-9.9c2.1-5.1,5.6-10.7,5.6-11.6c0-1.3,2.6-14.6,6.4-27  c3.9-12.9,9.9-18.9,10.7-19.7c0.9-0.9,1.3-1.3,0.4-1.7c-0.9-0.4-10.3-8.6-8.6-25.3c0.4-2.1,1.3-1.3,1.7,3c0.4,4.3,4.3,15,12.4,18.4  c0.9,0.4,6.4-4.3,36-6.4c0-5.1,0.9-10.7,0.9-10.7s-2.1-1.7-2.1-4.7c-0.9,1.7-1.7,2.1-3,1.7c-1.3,0-1.3-6.4-0.9-10.7s5.1-6,7.3-6.4  c2.6-1.3,5.1-1.3,5.1-1.3S-49.2,199.7-36.4,201.8L-36.4,201.8z M18.9,228.4h82.3l-42.4,69.4h43.3v19.3H18.9l44.6-69.4H18.9V228.4z   M105.1,228.4h24.9l20.1,52.7l21.4-52.7h23.1l-47.1,118.3h-24.9l15-33.4L105.1,228.4z M198.5,228.8h23.1v7.7c0,0,9-9.4,24.9-9.4  c15.9,0,26.1,12.9,26.1,27.4V318h-23.1v-61.3c0-13.7-15.4-12.4-28.3,6v54.9h-23.1L198.5,228.8z M364.4,292.2v-63.9h-23.1v3.9  c0,0-9-4.7-17.6-5.6c-13.7-0.9-40.3,9.4-40.3,45c0,38.6,27,43.7,35.1,43.7c5.1,0,14.1-0.9,22.7-8.1c0,18-9.9,21.4-18.9,21.4h-24.4  v20.1c0,0,12.9,0,27-0.9C366.1,345.8,364.4,312.8,364.4,292.2L364.4,292.2z M341.2,283.7c0,0-7.3,10.3-20.1,10.3  s-14.1-12.4-14.1-21.4s2.6-26.1,17.1-26.1c10.3,0,16.7,7.7,16.7,7.7L341.2,283.7L341.2,283.7z M453.1,299.5  c-9.9,2.6-9.9-1.7-9.9-8.1v-37.7c0-19.3-14.1-27.4-30.4-27.4c-16.3,0-31.7,7.7-31.7,7.7v21.4c0,0,14.1-9.9,28.3-9.9  c14.1,0,10.7,10.7,10.7,15.4c-30.4,0.4-46.3,12-46.3,31.7c0,19.7,18.9,26.1,27,26.1c8.1,0,17.1-3.9,24-9c2.6,4.7,7.7,9,15,9  s15.4-4.3,15.4-4.3S453.5,304.2,453.1,299.5L453.1,299.5z M420.1,293.1c0,0-6.4,6-14.1,6c-7.7,0-9-6-9-7.7c0-2.1,0.9-13.3,23.1-12.4  V293.1z M456.1,239.5v-9h3.9c0.9,0,1.3,0,1.7,0.4c0.4,0,0.9,0.4,0.9,0.9c0.4,0.4,0.4,0.9,0.4,1.3c0,0.4,0,1.3-0.4,1.7  c-0.4,0.4-0.9,0.9-1.7,0.9c0.4,0,0.4,0.4,0.9,0.4c0.4,0.4,0.9,0.9,0.9,1.3l1.7,2.6h-1.3l-1.3-1.7c-0.4-0.4-0.4-0.9-0.9-1.3  c-0.4-0.4-0.4-0.4-0.4-0.4s-0.4,0-0.4-0.4c-0.4,0-0.4,0-0.9,0h-1.3v3.9L456.1,239.5L456.1,239.5z M457.4,234.8h2.6  c0.4,0,0.9,0,1.3,0c0.4,0,0.4-0.4,0.9-0.4c0-0.4,0.4-0.4,0.4-0.9s0-0.9-0.4-0.9c-0.4-0.4-0.9-0.4-1.3-0.4h-3v2.6H457.4z   M451.8,235.2c0-4.7,3.9-8.1,8.6-8.1c4.7,0,8.1,3.9,8.1,8.1c0,4.7-3.9,8.1-8.1,8.1C455.6,243.4,451.8,240,451.8,235.2z M453.1,235.2  c0,3.9,3,6.9,6.9,6.9s6.9-3,6.9-6.9s-3-6.9-6.9-6.9C456.1,228,453.1,231.4,453.1,235.2z"/>
</svg>