<svg xmlns="http://www.w3.org/2000/svg" width="101" height="100" viewBox="0 0 101 100">
  <path fill="#C9003A" fill-rule="evenodd" d="M1357.99609,779.154189 L1360.92349,779.154189 L1370.00239,791.013516 L1360.49095,803.680288 L1356.6072,803.680288 L1356.6072,810.6875 L1356.60778,810.6875 L1374.79999,810.6875 L1374.79999,803.679716 L1371.44976,803.679716 L1375.07076,798.612435 C1375.77408,797.587534 1376.15156,796.779515 1376.25941,796.779515 L1376.36783,796.779515 C1376.36783,796.779515 1376.85373,797.641325 1377.6104,798.612435 L1381.50218,803.679716 L1378.04295,803.679716 L1378.04295,810.6875 L1397.12607,810.6875 L1397.12607,803.679716 L1393.05244,803.679716 L1383.7567,791.660732 L1393.21422,779.154762 L1397.2322,779.154762 L1397.2322,772.145833 L1379.01474,772.145833 L1379.01474,779.154189 L1382.25713,779.154189 L1378.68947,784.005732 C1377.9328,785.030061 1377.5014,785.839224 1377.5014,785.784288 L1377.39355,785.784288 C1377.39355,785.784288 1376.90708,784.975125 1376.15098,784.005732 L1372.47663,779.154189 L1375.82686,779.154189 L1375.82686,772.145833 L1357.99609,772.145833 L1338.98125,772.145833 L1338.98125,779.162841 L1342.60472,779.162841 L1342.60472,796.002054 C1342.60472,797.781086 1342.3333,799.184831 1341.74466,800.319286 C1340.74832,802.154468 1339.11868,803.017342 1337.03438,803.017342 C1334.81495,803.017342 1333.04903,801.991175 1332.18897,800.263136 C1331.68965,799.238116 1331.37357,797.727228 1331.37357,796.001481 L1331.37357,779.162841 L1334.99647,779.162841 L1334.99647,772.145833 L1316.32942,772.145833 L1316.32942,779.162841 L1320.64575,779.162841 L1320.64575,796.001481 C1320.64689,800.047705 1321.61689,803.610926 1323.88328,806.200692 C1326.68734,809.439047 1331.48809,811.381944 1336.99029,811.381944 C1342.06017,811.381944 1347.18502,809.708909 1350.15113,806.039691 C1352.14667,803.557641 1353.33369,799.831127 1353.33369,796.000908 L1353.33369,779.162841 L1357.99609,779.162841 L1357.99609,779.154189 Z M1306.78081,756 L1406.78081,756 L1406.78081,856 L1306.78081,856 L1306.78081,756 Z M1318.92751,835.25693 L1325.66138,835.25693 C1326.44742,835.25693 1327.1134,835.21656 1327.79903,834.992134 C1329.27053,834.481866 1330.41963,833.053996 1330.41963,831.156037 C1330.41963,829.524978 1329.59293,828.117197 1328.06111,827.667963 L1328.06111,827.627593 C1329.16975,827.056483 1329.85501,825.93397 1329.85501,824.526764 C1329.85501,822.976062 1329.0285,821.792899 1327.89982,821.283014 C1327.19395,820.956419 1326.42776,820.854634 1325.39949,820.854634 L1318.92751,820.854634 L1318.92751,822.425807 L1320.70155,822.425807 L1320.70155,833.666241 L1318.92751,833.666241 L1318.92751,835.25693 Z M1322.71819,826.913562 L1322.71819,822.52721 L1325.39968,822.52721 C1326.00476,822.52721 1326.46822,822.608715 1326.87155,822.813243 C1327.47645,823.159927 1327.79922,823.873958 1327.79922,824.710055 C1327.79922,826.015858 1326.99276,826.913371 1325.70241,826.913371 L1322.71819,826.913562 Z M1322.71819,833.584353 L1322.71819,828.586521 L1325.9036,828.586521 C1327.39571,828.586521 1328.36328,829.565348 1328.36328,831.053868 C1328.36328,832.135437 1327.83931,833.033715 1327.01261,833.380399 C1326.62933,833.543792 1326.14526,833.583779 1325.74249,833.583779 L1322.71819,833.583779 L1322.71819,833.584353 Z M1331.24047,835.25693 L1336.24057,835.25693 L1336.24057,833.727274 L1334.72842,833.727274 L1334.72842,830.992644 C1334.72842,828.973958 1335.6559,826.750169 1337.83365,826.750169 C1338.15604,826.750169 1338.3977,826.811203 1338.3977,826.811203 L1338.3977,824.853167 C1338.3977,824.853167 1338.15585,824.812032 1337.89359,824.812032 C1336.32112,824.812032 1335.13155,825.995578 1334.66753,827.504761 L1334.62744,827.504761 C1334.62744,827.504761 1334.66753,827.19883 1334.66753,826.790922 L1334.66753,826.138116 C1334.66753,825.301636 1334.24435,824.934481 1333.35733,824.934481 L1331.05894,824.934481 L1331.05894,826.464519 L1332.32925,826.464519 C1332.61137,826.464519 1332.77266,826.607249 1332.77266,826.913371 L1332.77266,833.726891 L1331.24028,833.726891 L1331.24028,835.257121 L1331.24047,835.25693 Z M1340.83696,822.874851 L1342.89312,822.874851 L1342.89312,820.855016 L1340.83696,820.855016 L1340.83696,822.874851 Z M1339.28415,835.25693 L1344.44573,835.25693 L1344.44573,833.727274 L1342.83261,833.727274 L1342.83261,824.934672 L1339.18337,824.934672 L1339.18337,826.464902 L1340.87686,826.464902 L1340.87686,833.727657 L1339.28396,833.727657 L1339.28396,835.25693 L1339.28415,835.25693 Z M1355.41123,835.25693 L1360.57168,835.25693 L1360.57168,833.727274 L1358.9595,833.727274 L1358.9595,830.421917 C1358.9595,828.218983 1360.3703,826.505463 1362.36652,826.505463 C1363.99912,826.505463 1364.30166,827.647874 1364.30166,829.096598 L1364.30166,835.257504 L1367.85031,835.257504 L1367.85031,833.727848 L1366.25799,833.727848 L1366.25799,828.647363 C1366.25799,826.015858 1365.14879,824.689583 1362.74999,824.689583 C1360.71369,824.689583 1359.38344,826.056419 1358.93965,827.055909 L1358.89975,827.055909 C1358.89975,827.055909 1358.95969,826.688562 1358.95969,826.198958 L1358.95969,820.854442 L1355.31064,820.854442 L1355.31064,822.384289 L1357.02417,822.384289 L1357.02417,833.727083 L1355.41161,833.727083 L1355.41123,835.25693 Z M1368.83225,831.482822 C1368.83225,834.930718 1371.4328,835.338626 1372.72353,835.338626 C1373.1469,835.338626 1373.42902,835.298065 1373.42902,835.298065 L1373.42902,833.646343 C1373.42902,833.646343 1373.24731,833.666241 1372.965,833.666241 C1372.19881,833.666241 1370.78706,833.40068 1370.78706,831.298766 L1370.78706,826.46471 L1373.22651,826.46471 L1373.22651,824.934481 L1370.78706,824.934481 L1370.78706,822.099213 L1368.87158,822.099213 L1368.87158,824.934863 L1367.11721,824.934863 L1367.11721,826.465093 L1368.83131,826.465093 L1368.83131,831.482822 L1368.83225,831.482822 Z M1384.64091,835.25693 L1389.80306,835.25693 L1389.80306,833.727274 L1388.18955,833.727274 L1388.18955,830.463052 C1388.18955,828.402657 1389.54022,826.505271 1391.59752,826.505271 C1393.22993,826.505271 1393.513,827.647682 1393.513,829.096407 L1393.513,835.257312 L1397.08131,835.257312 L1397.08131,833.727657 L1395.46837,833.727657 L1395.46837,828.647172 C1395.46837,826.015667 1394.41968,824.689391 1392.08121,824.689391 C1389.50014,824.689391 1388.31038,826.647427 1388.10919,827.198448 L1388.06892,827.198448 C1388.06892,827.198448 1388.12923,826.933269 1388.12923,826.606866 L1388.12923,826.0767 C1388.12923,825.321726 1387.72553,824.934098 1386.83889,824.934098 L1384.5405,824.934098 L1384.5405,826.464328 L1385.79057,826.464328 C1386.07307,826.464328 1386.23493,826.607057 1386.23493,826.912988 L1386.23493,833.7267 L1384.64166,833.7267 L1384.64166,835.256356 L1384.64091,835.256356 L1384.64091,835.25693 Z M1373.28532,830.075233 C1373.28532,833.217197 1375.74424,835.501636 1378.78915,835.501636 C1381.83425,835.501636 1384.29412,833.216624 1384.29412,830.075233 C1384.29412,826.954315 1381.83444,824.689774 1378.78915,824.689774 C1375.74424,824.689774 1373.28532,826.954315 1373.28532,830.075233 Z M1375.28116,830.075233 C1375.28116,827.933715 1376.85401,826.403294 1378.78915,826.403294 C1380.70425,826.403294 1382.29733,827.933524 1382.29733,830.075233 C1382.29733,832.237606 1380.70444,833.787925 1378.78915,833.787925 C1376.85457,833.787733 1375.28116,832.237606 1375.28116,830.075233 Z M1346.10235,837.174404 L1345.4568,838.684927 C1346.46483,839.194621 1347.7151,839.541687 1348.94493,839.541687 C1351.52582,839.541687 1354.08591,838.235884 1354.08591,834.829315 L1354.08591,826.873001 C1354.08591,826.607631 1354.26724,826.464902 1354.53008,826.464902 L1355.65894,826.464902 L1355.65894,824.934672 L1353.48157,824.934672 C1352.63464,824.934672 1352.31224,825.3223 1352.31224,825.975106 C1352.31224,826.240667 1352.35233,826.383588 1352.35233,826.383588 L1352.31224,826.383588 C1351.748,825.200042 1350.33682,824.689965 1349.00582,824.689965 C1346.16324,824.689965 1344.52988,826.89309 1344.52988,829.85119 C1344.52988,832.829379 1346.26383,835.134481 1349.08637,835.134481 C1350.57848,835.134481 1351.54624,834.482057 1352.15114,833.462095 L1352.19123,833.462095 C1352.19123,833.462095 1352.13091,833.788116 1352.13091,834.11471 L1352.13091,834.930718 C1352.13091,837.052912 1350.67927,837.868537 1348.90485,837.868537 C1347.37209,837.868154 1346.10235,837.174404 1346.10235,837.174404 Z M1349.46909,833.421343 C1347.63398,833.421343 1346.52534,831.951955 1346.52534,829.810629 C1346.52534,827.709289 1347.53376,826.403294 1349.28738,826.403294 C1350.88046,826.403294 1352.1708,827.17855 1352.1708,829.87147 C1352.17062,832.563626 1350.88046,833.421343 1349.46909,833.421343 Z" transform="translate(-1306 -756)"/>
</svg>
