<?xml version="1.0" encoding="UTF-8"?>
<svg width="101px" height="139px" viewBox="0 0 101 139" version="1.1" xmlns="http://www.w3.org/2000/svg" xmlns:xlink="http://www.w3.org/1999/xlink">
    <!-- Generator: Sketch 47.1 (45422) - http://www.bohemiancoding.com/sketch -->
    <title>UX-Brighton-2018-logo-stacked-cutout-white</title>
    <desc>Created with Sketch.</desc>
    <defs></defs>
    <g id="Page-1" stroke="none" stroke-width="1" fill="none" fill-rule="evenodd">
        <g id="The-grid" transform="translate(-941.000000, -3048.000000)" fill="#FFFFFF">
            <g id="UX-Brighton-2018-logo-stacked-cutout-white" transform="translate(941.012507, 3047.636684)">
                <g id="Group-3">
                    <path d="M51.8208213,24.1258667 L54.748224,24.1258667 L63.827122,35.9851932 L54.3156768,48.6519657 L50.4319324,48.6519657 L50.4319324,55.6591773 L50.432506,55.6591773 L68.6247226,55.6591773 L68.6247226,48.6513934 L65.274491,48.6513934 L68.8954945,43.5841122 C69.598814,42.5592109 69.9762886,41.7511927 70.0841383,41.7511927 L70.1925619,41.7511927 C70.1925619,41.7511927 70.6784605,42.6130025 71.4351306,43.5841122 L75.3269067,48.6513934 L71.8676779,48.6513934 L71.8676779,55.6591773 L90.9508035,55.6591773 L90.9508035,48.6513934 L86.8771744,48.6513934 L77.5814289,36.632409 L87.038949,24.126439 L91.0569324,24.126439 L91.0569324,17.1175106 L72.8394744,17.1175106 L72.8394744,24.1258667 L76.081856,24.1258667 L72.5142035,28.9774094 C71.7575331,30.0017384 71.3261334,30.8109011 71.3261334,30.755965 L71.2182838,30.755965 C71.2182838,30.755965 70.7318115,29.9468023 69.975715,28.9774094 L66.3013598,24.1258667 L69.6515914,24.1258667 L69.6515914,17.1175106 L51.6636187,17.1175106 L32.8059825,17.1175106 L32.8059825,24.1345178 L36.4294504,24.1345178 L36.4294504,40.9737308 C36.4294504,42.752763 36.1580339,44.1565082 35.5693921,45.2909635 C34.573053,47.1261456 32.9434086,47.9890191 30.8591129,47.9890191 C28.6396815,47.9890191 26.8737563,46.9628527 26.013698,45.2348137 C25.5143832,44.2097932 25.1983032,42.698905 25.1983032,40.9731579 L25.1983032,24.1345178 L28.8211985,24.1345178 L28.8211985,17.1175106 L10.1541546,17.1175106 L10.1541546,24.1345178 L14.470479,24.1345178 L14.470479,40.9731579 C14.4716242,45.0193818 15.4416234,48.5826028 17.7080087,51.1723695 C20.5120735,54.4107238 25.3128249,56.3536217 30.815022,56.3536217 C35.8848996,56.3536217 41.0097475,54.6805867 43.9758606,51.0113685 C45.9714018,48.5293178 47.1584199,44.802804 47.1584199,40.9725849 L47.1584199,24.1345178 L51.8208213,24.1345178 L51.8208213,24.1258667 Z M0.60554348,0.971677296 L100.605543,0.971677296 L100.605543,100.971677 L0.60554348,100.971677 L0.60554348,0.971677296 Z M12.7522436,80.2286069 L19.4861057,80.2286069 C20.2721516,80.2286069 20.9381255,80.188237 21.6237647,79.963811 C23.0952607,79.4535432 24.2443588,78.0256733 24.2443588,76.1277141 C24.2443588,74.4966554 23.4176586,73.0888748 21.885843,72.6396401 L21.885843,72.5992702 C22.9944759,72.0281605 23.6797369,70.9056477 23.6797369,69.4984411 C23.6797369,67.9477396 22.8532259,66.7645763 21.7245495,66.2546911 C21.0186777,65.9280967 20.2524863,65.826311 19.2242165,65.826311 L12.7522436,65.826311 L12.7522436,67.3974845 L14.5262831,67.3974845 L14.5262831,78.6379182 L12.7522436,78.6379182 L12.7522436,80.2286069 Z M16.5429247,71.8852396 L16.5429247,67.4988875 L19.2244056,67.4988875 C19.8294926,67.4988875 20.2929514,67.5803926 20.6962798,67.7849207 C21.3011777,68.1316044 21.6239538,68.845635 21.6239538,69.6817319 C21.6239538,70.9875355 20.8174863,71.8850483 19.5271382,71.8850483 L16.5429247,71.8852396 Z M16.5429247,78.5560304 L16.5429247,73.5581988 L19.7283296,73.5581988 C21.2204364,73.5581988 22.1880083,74.5370253 22.1880083,76.0255457 C22.1880083,77.1071146 21.6640408,78.0053926 20.8373407,78.3520763 C20.4540559,78.5154692 19.9699863,78.5554564 19.5672252,78.5554564 L16.5429247,78.5554564 L16.5429247,78.5560304 Z M25.0651971,80.2286069 L30.0652958,80.2286069 L30.0652958,78.6989513 L28.5531456,78.6989513 L28.5531456,75.9643212 C28.5531456,73.945635 29.4806305,71.7218467 31.6583765,71.7218467 C31.9807744,71.7218467 32.222431,71.7828799 32.222431,71.7828799 L32.222431,69.8248442 C32.222431,69.8248442 31.9805853,69.783709 31.7183179,69.783709 C30.145848,69.783709 28.9562848,70.9672549 28.4922587,72.4764385 L28.4521717,72.4764385 C28.4521717,72.4764385 28.4922587,72.1705074 28.4922587,71.7625993 L28.4922587,71.1097932 C28.4922587,70.2733135 28.0690759,69.906158 27.1820562,69.906158 L24.883671,69.906158 L24.883671,71.4361962 L26.1539755,71.4361962 C26.4360974,71.4361962 26.5973909,71.5789258 26.5973909,71.8850483 L26.5973909,78.6985687 L25.065008,78.6985687 L25.065008,80.2287983 L25.0651971,80.2286069 Z M34.6616881,67.8465278 L36.7178494,67.8465278 L36.7178494,65.8266937 L34.6616881,65.8266937 L34.6616881,67.8465278 Z M33.1088835,80.2286069 L38.2704648,80.2286069 L38.2704648,78.6989513 L36.6573407,78.6989513 L36.6573407,69.9063493 L33.0080987,69.9063493 L33.0080987,71.4365789 L34.701586,71.4365789 L34.701586,78.699334 L33.1086944,78.699334 L33.1086944,80.2286069 L33.1088835,80.2286069 Z M49.235965,80.2286069 L54.3964119,80.2286069 L54.3964119,78.6989513 L52.7842334,78.6989513 L52.7842334,75.3935942 C52.7842334,73.1906605 54.1950313,71.4771401 56.1912515,71.4771401 C57.8238518,71.4771401 58.1263952,72.6195508 58.1263952,74.0682753 L58.1263952,80.2291809 L61.6750414,80.2291809 L61.6750414,78.6995253 L60.0827171,78.6995253 L60.0827171,73.6190406 C60.0827171,70.9875355 58.9735171,69.66126 56.5747251,69.66126 C54.5384185,69.66126 53.2081723,71.0280967 52.7643789,72.0275865 L52.724481,72.0275865 C52.724481,72.0275865 52.7844223,71.6602396 52.7844223,71.170635 L52.7844223,65.8261197 L49.1353695,65.8261197 L49.1353695,67.3559666 L50.8489001,67.3559666 L50.8489001,78.69876 L49.2363435,78.69876 L49.235965,80.2286069 Z M62.6569841,76.4544998 C62.6569841,79.9023952 65.2575348,80.3103034 66.5482612,80.3103034 C66.9716327,80.3103034 67.2537546,80.2697421 67.2537546,80.2697421 L67.2537546,78.6180202 C67.2537546,78.6180202 67.0720393,78.6379182 66.7897285,78.6379182 C66.0235372,78.6379182 64.6117935,78.3723569 64.6117935,76.2704437 L64.6117935,71.4363875 L67.0512397,71.4363875 L67.0512397,69.906158 L64.6117935,69.906158 L64.6117935,67.0708901 L62.696315,67.0708901 L62.696315,69.9065406 L60.9419407,69.9065406 L60.9419407,71.4367702 L62.656039,71.4367702 L62.656039,76.4544998 L62.6569841,76.4544998 Z M78.465639,80.2286069 L83.6277876,80.2286069 L83.6277876,78.6989513 L82.0142851,78.6989513 L82.0142851,75.4347294 C82.0142851,73.374334 83.3649529,71.4769488 85.4222487,71.4769488 C87.0546598,71.4769488 87.3377272,72.6193595 87.3377272,74.068084 L87.3377272,80.2289896 L90.906039,80.2289896 L90.906039,78.699334 L89.2931035,78.699334 L89.2931035,73.6188493 C89.2931035,70.9873442 88.2444122,69.6610687 85.90594,69.6610687 C83.3248657,69.6610687 82.1351133,71.6191044 81.933922,72.1701248 L81.8936459,72.1701248 C81.8936459,72.1701248 81.9539654,71.9049462 81.9539654,71.5785432 L81.9539654,71.0483773 C81.9539654,70.2934029 81.5502591,69.9057753 80.6636174,69.9057753 L78.3652324,69.9057753 L78.3652324,71.4360049 L79.6153042,71.4360049 C79.8978042,71.4360049 80.059665,71.5787345 80.059665,71.8846656 L80.059665,78.6983773 L78.4663952,78.6983773 L78.4663952,80.228033 L78.465639,80.228033 L78.465639,80.2286069 Z M67.1100466,75.0469105 C67.1100466,78.1888748 69.5689688,80.4733135 72.6138803,80.4733135 C75.6589806,80.4733135 78.1188483,78.1883008 78.1188483,75.0469105 C78.1188483,71.9259921 75.6591695,69.6614513 72.6138803,69.6614513 C69.5689688,69.6614513 67.1100466,71.9259921 67.1100466,75.0469105 Z M69.1058883,75.0469105 C69.1058883,72.9053926 70.6787362,71.3749717 72.6138803,71.3749717 C74.5289806,71.3749717 76.1220612,72.9052013 76.1220612,75.0469105 C76.1220612,77.209283 74.5291695,78.7596018 72.6138803,78.7596018 C70.6793035,78.7594105 69.1058883,77.209283 69.1058883,75.0469105 Z M39.9270796,82.1460814 L39.2815274,83.6566044 C40.2895646,84.1662983 41.5398256,84.5133646 42.769665,84.5133646 C45.3505502,84.5133646 47.9106355,83.207561 47.9106355,79.8009921 L47.9106355,71.8446784 C47.9106355,71.5793085 48.0919726,71.4365789 48.3548074,71.4365789 L49.4836726,71.4365789 L49.4836726,69.9063493 L47.3063049,69.9063493 C46.4593721,69.9063493 46.1369742,70.2939768 46.1369742,70.946783 C46.1369742,71.2123442 46.1770612,71.3552651 46.1770612,71.3552651 L46.1369742,71.3552651 C45.5727306,70.1717192 44.1615542,69.6616426 42.8305518,69.6616426 C39.9879665,69.6616426 38.3546097,71.8647676 38.3546097,74.8228671 C38.3546097,77.8010559 40.0885622,80.106158 42.9111041,80.106158 C44.4032108,80.106158 45.3709718,79.4537345 45.9758698,78.4337727 L46.0159568,78.4337727 C46.0159568,78.4337727 45.9556372,78.7597932 45.9556372,79.0863875 L45.9556372,79.9023952 C45.9556372,82.0245891 44.5039956,82.8402141 42.729578,82.8402141 C41.1968169,82.8398314 39.9270796,82.1460814 39.9270796,82.1460814 Z M43.2938216,78.3930202 C41.4587061,78.3930202 40.3500733,76.9236324 40.3500733,74.7823059 C40.3500733,72.6809666 41.3584886,71.3749717 43.1121064,71.3749717 C44.7051871,71.3749717 45.9955351,72.1502268 45.9955351,74.8431477 C45.995346,77.5353034 44.7051871,78.3930202 43.2938216,78.3930202 Z" id="Rectangle-1-copy"></path>
                </g>
                <text id="2018" font-family="MuseoSlab-500, Museo Slab" font-size="37" font-weight="normal">
                    <tspan x="8" y="137.842">2018</tspan>
                </text>
            </g>
        </g>
    </g>
</svg>