<?xml version="1.0" encoding="UTF-8" standalone="no"?><!DOCTYPE svg PUBLIC "-//W3C//DTD SVG 1.1//EN" "http://www.w3.org/Graphics/SVG/1.1/DTD/svg11.dtd"><svg width="100%" height="100%" viewBox="0 0 33 30" version="1.1" xmlns="http://www.w3.org/2000/svg" xmlns:xlink="http://www.w3.org/1999/xlink" xml:space="preserve" xmlns:serif="http://www.serif.com/" style="fill-rule:evenodd;clip-rule:evenodd;stroke-linejoin:round;stroke-miterlimit:1.41421;"><path d="M31.523,18.423c1.328,0.247 1.17,2.232 1.161,3.889c-0.015,0.866 -0.124,1.73 -0.35,2.565c-0.078,0.287 -0.17,0.571 -0.275,0.849c-0.735,1.943 -2.338,3.856 -4.597,3.941c-7.384,0.093 -14.769,0.092 -22.153,0c-2.929,-0.109 -4.727,-3.422 -5.105,-5.895c-0.235,-1.534 -0.289,-3.461 -0.046,-4.304c0.338,-1.175 2.273,-1.026 2.953,-2.424c1.071,-2.201 0.269,-5.695 -1.714,-5.719c0,0 -0.386,-0.025 -0.663,-0.217c-0.931,-0.646 -0.657,-2.269 -0.648,-3.714c0.015,-0.896 0.132,-1.789 0.377,-2.649c0.08,-0.282 0.173,-0.56 0.28,-0.833c0.75,-1.909 2.34,-3.758 4.563,-3.842c7.382,-0.095 14.758,-0.091 22.155,-0.001c2.857,0.105 4.69,3.318 5.088,5.757c0.253,1.555 0.292,3.523 0.079,4.379c-0.178,0.714 -1.185,1.125 -1.32,1.119c-0.128,-0.005 -0.141,0.006 -0.205,0.017c-2.747,0.567 -2.578,7.034 0.277,7.07c0.066,0.001 0.07,0.004 0.143,0.012Zm-10.008,9.476c0,0 -0.098,0.103 -0.312,0.169c0,0 0.37,-0.227 0.312,-0.169Zm1.335,-24.662c0,1.147 0.183,2.35 -0.224,3.075c-0.357,0.635 -1.297,0.931 -1.918,0.376c-0.356,-0.318 -0.516,-0.793 -0.524,-1.26l0,-2.191c-4.953,0 -9.909,-0.182 -14.859,0.002c-0.052,0.003 -0.104,0.008 -0.155,0.015c-1.954,0.32 -2.41,2.765 -2.419,4.264l0,0.894c0.074,0.029 0.147,0.06 0.219,0.093c2.889,1.359 3.591,5.158 3.159,7.85c-0.341,2.13 -1.397,4.164 -3.361,4.962c0,0 0.12,2.95 0.878,4.056c0.401,0.584 1.021,1.117 1.764,1.127l14.775,0c0,-1.149 -0.185,-2.354 0.223,-3.082c0.357,-0.636 1.297,-0.931 1.919,-0.377c0.356,0.318 0.516,0.793 0.524,1.261l0,2.198c1.682,0 3.499,0.42 5.02,-0.082c1.728,-0.571 2.138,-2.723 2.147,-4.23l0,-0.857c-0.073,-0.029 -0.145,-0.06 -0.217,-0.092c-2.883,-1.353 -3.594,-5.171 -3.161,-7.873c0.342,-2.134 1.396,-4.162 3.362,-4.96c0,0 -0.118,-2.922 -0.831,-3.998c-1.115,-1.68 -3.966,-1.171 -6.321,-1.171Z" style="fill:#193849;fill-rule:nonzero;"/></svg>