<?xml version="1.0" encoding="UTF-8" standalone="no"?><!DOCTYPE svg PUBLIC "-//W3C//DTD SVG 1.1//EN" "http://www.w3.org/Graphics/SVG/1.1/DTD/svg11.dtd"><svg width="100%" height="100%" viewBox="0 0 177 112" version="1.1" xmlns="http://www.w3.org/2000/svg" xmlns:xlink="http://www.w3.org/1999/xlink" xml:space="preserve" xmlns:serif="http://www.serif.com/" style="fill-rule:evenodd;clip-rule:evenodd;stroke-linejoin:round;stroke-miterlimit:1.41421;"><path d="M172.589,82.711l0,-8.129c-0.001,-1.603 -1.301,-2.903 -2.904,-2.902l-0.129,0.012c-2.923,-0.022 -5.63,-0.793 -7.973,-2.143c-4.814,-2.786 -8.035,-7.962 -8.036,-13.965c0.001,-2.965 0.783,-5.707 2.15,-8.079c2.745,-4.743 7.817,-7.924 13.705,-8.018l0.281,0.028c1.603,0 2.903,-1.3 2.903,-2.903l0,-8.245c0,-9.092 -4.924,-17.078 -12.302,-21.333c-3.613,-2.088 -7.828,-3.284 -12.316,-3.284l-21.712,0l-97.887,0.001c-9.107,0.002 -17.083,4.984 -21.333,12.354c-2.086,3.609 -3.284,7.811 -3.284,12.263l0,8.245c0,0.764 0.31,1.511 0.85,2.052c0.54,0.54 1.287,0.849 2.052,0.85c2.981,0 5.741,0.788 8.122,2.16c4.812,2.785 8.019,7.942 8.018,13.864c-0.001,2.974 -0.785,5.727 -2.154,8.103c-2.788,4.817 -7.967,8.035 -13.987,8.038c-1.603,0 -2.902,1.298 -2.903,2.903l0,8.129c0.004,9.141 5.016,17.184 12.429,21.464c3.59,2.075 7.763,3.27 12.188,3.27l97.887,0l21.712,0c9.144,0 17.072,-5 21.303,-12.342c2.112,-3.654 3.32,-7.901 3.32,-12.393Zm-24.618,18.927l-21.713,0l-7.228,0l-0.001,-11.079c0,-1.603 -1.301,-2.903 -2.904,-2.903c-1.603,0.001 -2.902,1.299 -2.902,2.904l0,11.078l-84.853,-0.001c-3.378,-0.001 -6.537,-0.905 -9.285,-2.49c-5.683,-3.281 -9.532,-9.459 -9.527,-16.435l0,-5.42c6.901,-0.905 12.79,-4.985 16.112,-10.746c1.867,-3.231 2.933,-7.001 2.931,-11.005c0.001,-8.061 -4.385,-15.122 -10.923,-18.892c-2.442,-1.41 -5.194,-2.364 -8.121,-2.747l0,-5.533c0.002,-3.41 0.911,-6.596 2.506,-9.359c3.264,-5.646 9.356,-9.454 16.306,-9.451l84.852,0l0,11.052c0,1.603 1.3,2.904 2.903,2.903c1.603,0 2.903,-1.299 2.903,-2.903l0,-11.053l7.229,0l21.712,0.001c3.455,0.001 6.652,0.911 9.412,2.505c5.638,3.26 9.401,9.342 9.399,16.306l-0.001,5.489c-6.9,0.899 -12.791,4.982 -16.113,10.745c-1.865,3.226 -2.928,6.988 -2.927,10.982c-0.002,8.123 4.389,15.217 10.939,18.992c2.438,1.41 5.182,2.357 8.103,2.738l-0.001,5.397c0,3.452 -0.921,6.687 -2.536,9.489c-3.258,5.631 -9.286,9.435 -16.272,9.436Z" style="fill:none;stroke:#193849;stroke-width:7.5px;"/><path d="M119.028,47.373c0,-1.604 -1.301,-2.904 -2.904,-2.903c-1.603,0 -2.902,1.299 -2.902,2.903l0,13.928c0,1.604 1.3,2.904 2.903,2.903c1.603,0 2.903,-1.299 2.903,-2.903l0,-13.928Z" style="fill:none;stroke:#193849;stroke-width:7.5px;"/></svg>