<svg xmlns="http://www.w3.org/2000/svg" width="100" height="100" viewBox="0 0 100 100">
  <path fill="#001731" d="M49.863,5.68434189e-14 C22.324,5.68434189e-14 5.68434189e-14,22.324 5.68434189e-14,49.863 C5.68434189e-14,77.402 22.324,99.726 49.863,99.726 C77.402,99.726 99.726,77.402 99.726,49.863 C99.726,22.324 77.401,5.68434189e-14 49.863,5.68434189e-14 Z M49.107,9.903 C52.679,9.903 55.571,12.794 55.571,16.343 C55.571,19.915 52.679,22.806 49.107,22.806 C45.56,22.806 42.669,19.914 42.667,16.343 C42.667,12.794 45.558,9.903 49.107,9.903 Z M77.05,30.728 L57.866,33.152 L57.874,52.356 L67.168,83.381 C67.659,85.34 66.481,87.3 64.543,87.784 C62.606,88.268 60.625,87.201 60.137,85.242 L50.616,57 L47.684,57 L38.925,85.828 C38.192,87.709 36.097,88.574 34.218,87.841 C32.357,87.115 31.221,84.997 31.955,83.116 L40,52.67 L40,33.152 L22.326,30.747 C20.512,30.601 19.28,29.004 19.428,27.19 C19.561,25.362 21.211,24.005 23.024,24.151 L44.497,26 L53.914,26 L76.78,24.115 C78.597,24.042 80.137,25.455 80.198,27.286 C80.271,29.104 78.868,30.653 77.05,30.728 Z"/>
</svg>
