<svg xmlns="http://www.w3.org/2000/svg" width="90" height="90" viewBox="0 0 90 90">
  <path fill="#001731" d="M0.60801039,73.4043945 C-4.0761938,41.0455305 19.8424744,22.6704937 19.8574484,22.6589937 L18.1581656,15.8024441 L63.4723739,15.8024441 L61.7406089,22.6589937 C61.7406089,22.6589937 85.675717,41.0354035 80.9900469,73.4043945 C77.9260156,82.7425514 65.0707983,88.6146982 65.0707983,88.6146982 C48.2825906,90.5520646 35.6039465,90.3692085 16.527259,88.6146982 C15.4462909,87.9416929 3.67204169,82.7425514 0.60801039,73.4043945 Z M25.6795479,14.8617402 L27.637658,11.1812424 L22.6748161,1.65702992 L57.2451297,6.2810395 L53.6406881,11.7746124 L55.8699482,14.8617402 L25.6795479,14.8617402 Z M54.6675197,11.5091184 L68.9770137,3.4623502 C68.9770137,3.4623502 71.8010506,5.8915889 75.5674405,5.0013288 C79.3338304,4.11106864 80.1343068,0 80.1343068,0 C80.1343068,0 82.8124097,4.74297991 84.3197297,9.8432312 C85.8270497,14.9434825 90,39.1821894 90,39.1821894 L83.853714,38.9950298 C83.853714,38.9950298 81.0693565,11.7545689 75.5674405,9.8432312 C70.0655245,7.9318935 66.8746568,14.7922356 66.8746568,14.7922356 L57.5364883,14.8536925 L54.6675197,11.5091184 Z M60.5776509,24.531102 L21.0204064,24.531102 C21.0204064,24.531102 10.59983,32.5315999 5.293725,47.2367753 C31.0664444,45.7889555 56.6133356,57.9209145 77.2840283,50.2369743 C72.4197674,33.623001 60.5776509,24.531102 60.5776509,24.531102 Z M2.65410181,72.5351256 C14.0208375,81.3978847 70.1635225,79.4194623 78.9439555,72.5351256 C76.0359115,81.3978847 5.5621458,81.3978847 2.65410181,72.5351256 Z"/>
</svg>
