<svg xmlns="http://www.w3.org/2000/svg" width="59" height="89" viewBox="0 0 59 89">
  <g fill-rule="evenodd">
    <path fill="#001731" d="M39.1 66.1L43.3 68.9C43.9 69.2 44.7 68.7 44.6 68L43.1 63.1C43 62.6 42.5 62.3 42.1 62.4 39.7 63 39.1 64.2 38.8 65.1 38.5 65.4 38.7 65.9 39.1 66.1zM36.6 72.2C36.8 72.6 37.2 72.8 37.6 72.7L42.5 71.7C43.2 71.5 43.3 70.6 42.7 70.2L38.2 67.8C37.8 67.5 37.2 67.6 37 68 35.7 70.1 36.2 71.4 36.6 72.2z"/>
    <path fill="#001731" fill-rule="nonzero" d="M58.9,2.2 C58.6,1.1 57.5,0.5 56.4,0.8 L47.4,3.3 C45.1,3.9 43.3,5.6 42.3,7.7 L38,17.2 C37,17.1 36,17 35,17 L34,17 C23,16.4 13.5,17.1 5.8,19.2 C4.6,19.5 3.5,20.1 2.6,20.9 C2.5,20.9 2.5,20.8 2.5,20.8 L2.4,21.1 C0.7,22.8 -0.2,25.1 0.1,27.6 L5.5,80.1 C5.9,83 7.7,85.4 10.4,86.4 C13.6,87.6 18.9,89 25.9,89 C30.9,89 36.8,88.3 43.5,86.2 C46.6,85.3 48.8,82.4 49,79.2 C49.3,74.8 49.6,68.9 50,62.7 C50,62.6 50.1,62.4 50,62.3 C50.5,53.6 51.1,44.4 51.7,38.3 C51.9,37 52,35.8 52,35.4 C52,35.3 52,35.2 52,35.1 C52.3,31.8 52.6,28.9 52.9,26.7 C53.4,22.5 50.4,18.7 46.2,18.2 C45,18 43.7,17.9 42.5,17.7 L46.2,9.4 C46.7,8.3 47.6,7.5 48.7,7.2 L57.7,4.7 C58.6,4.3 59.2,3.2 58.9,2.2 Z M33.8,20.8 L34.9,20.9 C35.4,20.9 36,21 36.5,21 L34.5,25.5 C33.4,25.7 32.2,25.8 31.1,25.8 C30.9,25.2 30.6,24.7 30.2,24.2 C29.5,23.4 28.4,22.9 27.3,22.8 L16.2,22.2 C14.7,22.1 13.4,22.8 12.6,24 C10.7,23.6 9,23.1 7.6,22.6 C14.8,20.9 23.6,20.2 33.8,20.8 Z M12.6,74.7 L11.5,74.1 C10.6,73.6 10.3,72.4 10.8,71.5 L15.7,62.8 C15.9,62.4 16.4,62 16.8,61.9 C17.3,61.8 17.8,61.8 18.2,62.1 L12.6,74.7 Z M15.5,78.9 C15.4,78.9 15.2,78.9 15.1,78.8 L15.2,78.7 L15.5,78.9 Z M21.7,64 L27.9,67.4 C28,67.5 28.1,67.5 28.2,67.6 C28.9,68.2 29.1,69.2 28.6,70 L23.7,78.7 C23.5,79.1 23,79.5 22.6,79.6 C22.1,79.7 21.6,79.7 21.2,79.4 L16.1,76.6 L21.7,64 Z M29.8,72.6 C30.1,74.9 30.7,77.5 31.7,79.5 C29.6,79.8 27.6,79.9 25.7,79.9 L29.8,72.6 Z M30.3,66.6 C30.1,66.4 29.9,66.1 29.7,65.9 C29.5,65.7 29.3,65.6 29.1,65.5 L22.7,62 L28.4,49.3 L29.6,55.8 C30,57.8 31.7,59.2 33.7,59.2 C34,59.2 34.2,59.2 34.5,59.1 L35.4,58.9 C33,60.9 31.2,63.5 30.3,66.6 Z M28.5,37.1 C28.4,38.1 27.6,38.9 26.6,38.9 L15.4,38.3 C15.3,38.3 15.3,38.3 15.2,38.3 C14.7,37.7 14.2,37.1 13.6,36.5 C13.6,36.4 13.6,36.4 13.6,36.3 L14,29.5 C15.1,29.7 16.2,29.9 17.4,30.1 C21,30.7 24.4,30.9 27.8,30.9 C28.2,30.9 28.6,30.9 28.9,30.9 L28.5,37.1 Z M15.4,24.6 C15.6,24.5 15.8,24.5 16,24.5 L27.2,25.1 C27.7,25.1 28.2,25.4 28.5,25.7 C28.5,25.7 28.6,25.8 28.6,25.9 C23.9,26 19.4,25.4 15.4,24.6 Z M31.1,30.8 C31.5,30.8 31.8,30.7 32.2,30.7 L31,33.4 L31.1,30.8 Z M3.8,27.2 C3.8,27 3.8,26.9 3.8,26.7 C5.8,27.4 8.5,28.2 11.7,29 L11.4,34.8 C10.8,34.4 10.1,34 9.5,33.7 C7.9,32.9 6.1,32.4 4.3,32.2 L3.8,27.2 Z M6.9,57.7 C7.4,57.4 8,57 8.6,56.2 C8.9,55.8 8.8,55.2 8.4,55 L6.4,53.2 L6.2,51 L9.7,53.7 C10,54 10.5,54 10.8,53.7 C11.5,53.1 12.5,52.2 12.2,49.7 C12.1,49.2 11.7,48.9 11.2,48.9 L6.1,49.1 C6,49.1 6,49.1 6,49.1 L5.8,47.6 C5.9,47.7 6.1,47.7 6.3,47.7 L11.3,47 C11.7,47 12.1,46.7 12.1,46.2 C12.2,45.3 12.2,43.9 10.3,42.3 C9.9,42 9.3,42.1 9.1,42.5 L5.7,46.1 L5.5,44.1 L7.8,41.1 C8.1,40.8 8.1,40.3 7.8,40 C7.3,39.4 6.6,38.7 4.9,38.6 L4.7,36 C5.8,36.2 6.8,36.6 7.8,37 C14.1,40.1 16.7,47.7 13.6,53.9 C12.3,56.5 10.2,58.6 7.6,59.8 C7.4,59.9 7.3,60 7.2,60.1 L6.9,57.7 Z M7.4,63.2 C7.7,63.4 8,63.4 8.3,63.4 C8.6,63.4 8.8,63.3 9.1,63.2 C12.5,61.6 15.3,58.9 16.9,55.5 C19.3,50.6 19,45.1 16.6,40.6 L26.3,41.1 C26.4,41.1 26.4,41.1 26.5,41.1 C26.8,41.1 27.2,41 27.5,41 L19.1,60 C18.2,59.5 17.1,59.4 16.1,59.7 C15,60 14.1,60.7 13.6,61.7 L8.7,70.4 C8.5,70.8 8.4,71.2 8.3,71.6 L7.4,63.2 Z M8.6,74.1 C8.9,74.7 9.2,75.2 9.7,75.6 C9.9,75.8 10.1,75.9 10.3,76 L11.6,76.7 L11.2,77.5 C11.2,77.6 11.1,77.7 11.1,77.8 C10.2,77.5 9.4,77.3 8.8,77.1 L8.6,74.1 Z M42.3,82.7 C27.3,87.3 16.6,84.8 11.6,82.9 C10.5,82.5 9.7,81.7 9.3,80.6 C12.7,81.7 18.2,82.9 25.1,82.9 C30.9,82.9 37.7,82 45,79.3 C44.9,80.9 43.8,82.2 42.3,82.7 Z M46.2,61.1 C45.9,61.2 45.6,61.3 45.3,61.4 C44.9,61.6 44.7,62 44.8,62.4 L45.8,67.3 C45.8,67.3 45.8,67.3 45.8,67.3 C45.6,70.4 45.4,73.3 45.3,76 C44.2,76.4 43.2,76.8 42.2,77.1 L44.1,74.2 C44.4,73.6 43.9,72.8 43.2,72.9 L38.3,74.4 C37.8,74.5 37.5,75 37.6,75.4 C37.9,76.7 38.4,77.5 39,78 C37.9,78.3 36.7,78.5 35.6,78.8 C35.6,78.5 35.5,78.2 35.4,78 C34,75.5 33.4,70.8 33.6,69.3 C34.6,63 40.2,58.5 46.4,58.7 C46.3,59.5 46.2,60.3 46.2,61.1 Z M46.1,53.9 C45.8,54.3 45.4,54.6 44.9,54.7 L34,56.8 C33,57 32,56.3 31.8,55.3 L30,45.6 L30.9,43.5 C31.1,43.4 31.2,43.3 31.4,43.3 L42.3,41.2 C42.4,41.2 42.5,41.2 42.6,41.2 C43.5,41.2 44.3,41.9 44.5,42.7 L46.4,52.5 C46.5,53 46.4,53.5 46.1,53.9 Z M48,35.3 C48,35.3 48,35.3 48,35.3 C47.8,37.7 47.5,40.9 47.2,44.6 L46.8,42.3 C46.4,40.3 44.7,38.9 42.7,38.9 C42.4,38.9 42.2,38.9 41.9,39 L32,40.9 L36.8,30.2 C41.3,29.4 45.3,28 49,26 C49,26.1 49,26.2 49,26.3 C48.7,28.7 48.4,31.8 48,35.3 Z M45.6,21.9 C45.7,21.9 45.8,22 45.9,22 C43.8,23.1 41.6,23.9 39.4,24.5 L40.8,21.4 C42.3,21.5 44,21.7 45.6,21.9 Z"/>
  </g>
</svg>
