<svg xmlns="http://www.w3.org/2000/svg" width="96" height="86" viewBox="0 0 96 86">
  <g fill-rule="evenodd">
    <path fill="#001731" d="M9.3,35 C9.3,34.4 8.8,33.9 8.2,33.9 L1.6,33.9 C1,33.9 0.5,34.4 0.5,35 L0.5,84.5 C0.5,85.1 1,85.6 1.6,85.6 L8.2,85.6 C8.8,85.6 9.3,85.1 9.3,84.5 L9.3,74.8 L86.6,74.8 L86.6,84.5 C86.6,85.1 87.1,85.6 87.7,85.6 L94.3,85.6 C94.9,85.6 95.4,85.1 95.4,84.5 L95.4,66 L9.2,66 L9.2,35 L9.3,35 Z"/>
    <circle fill="#001731" cx="23.3" cy="52" r="10.2"/>
    <path fill="#001731" d="M86.1 50L44.2 41C40.6 40.2 37.1 43 37.1 46.7L37.1 62.2 95.4 62.2 95.4 61.6C95.5 56 91.6 51.1 86.1 50zM7.8 16.5C8 16.7 8 16.9 8 17.1L6.6 25.1C6.5 25.6 7.1 26.1 7.6 25.8L14.8 22C15 21.9 15.2 21.9 15.4 22L22.6 25.8C23.1 26.1 23.7 25.6 23.6 25.1L22.2 17.1C22.2 16.9 22.2 16.7 22.4 16.5L28.2 10.8C28.6 10.4 28.4 9.7 27.8 9.7L19.7 8.5C19.5 8.5 19.3 8.3 19.2 8.1L15.6.8C15.4.3 14.7.3 14.4.8L10.8 8.1C10.7 8.3 10.5 8.4 10.3 8.5L2.2 9.7C1.7 9.8 1.4 10.4 1.8 10.8L7.8 16.5zM40.7 16.5C40.9 16.7 40.9 16.9 40.9 17.1L39.5 25.1C39.4 25.6 40 26.1 40.5 25.8L47.7 22C47.9 21.9 48.1 21.9 48.3 22L55.5 25.8C56 26.1 56.6 25.6 56.5 25.1L55.1 17.1C55.1 16.9 55.1 16.7 55.3 16.5L61.1 10.8C61.5 10.4 61.3 9.7 60.7 9.7L52.6 8.5C52.4 8.5 52.2 8.3 52.1 8.1L48.5.8C48.3.3 47.6.3 47.3.8L43.7 8.1C43.6 8.3 43.4 8.4 43.2 8.5L35.1 9.7C34.6 9.8 34.3 10.4 34.7 10.8L40.7 16.5zM73.6 16.5C73.8 16.7 73.8 16.9 73.8 17.1L72.4 25.1C72.3 25.6 72.9 26.1 73.4 25.8L80.6 22C80.8 21.9 81 21.9 81.2 22L88.4 25.8C88.9 26.1 89.5 25.6 89.4 25.1L88 17.1C88 16.9 88 16.7 88.2 16.5L94 10.8C94.4 10.4 94.2 9.7 93.6 9.7L85.5 8.5C85.3 8.5 85.1 8.3 85 8.1L81.4.8C81.2.3 80.5.3 80.2.8L76.6 8.1C76.5 8.3 76.3 8.4 76.1 8.5L68 9.7C67.5 9.8 67.2 10.4 67.6 10.8L73.6 16.5z"/>
  </g>
</svg>
