<svg xmlns="http://www.w3.org/2000/svg" width="91" height="74" viewBox="0 0 91 74">
  <g fill-rule="evenodd">
    <path fill="#001731" fill-rule="nonzero" d="M10.1,2.4 C9.9,1.6 10.6,0.7 11.4,0.7 C21.1,0.7 30.8,0.7 40.5,0.7 C41.3,0.7 41.9,1.4 41.9,2.2 C41.9,2.9 41.2,3.5 40.5,3.4 C38.4,3.4 36.4,3.4 34.3,3.4 C32.2,5.5 30.1,7.6 27.9,9.8 C32.1,9.8 36.4,9.8 40.6,9.8 C42.2,9.7 43.8,10.3 45.1,11.4 C46,12.1 46.5,13 47,14 C50,19.8 53.2,25.5 57.3,30.5 C58.8,32.3 60.4,34 62.2,35.6 C63.7,36.9 65.3,38.1 67.1,39 C68.9,39.9 70.8,40.7 72.6,41.6 C77.2,43.6 81.9,45.4 86.7,46.9 C87.6,47.2 88.6,47.3 89.4,47.9 C90,48.3 90.5,48.9 90.5,49.6 C90.5,52.7 90.5,55.9 90.5,59 C90.5,59.8 90.2,60.6 89.6,61.1 C89.2,61.5 88.6,61.6 88,61.6 C64,61.6 40.1,61.6 16.1,61.6 C13.9,61.6 11.7,61.6 9.6,61.6 C7.5,60.9 5.5,59.8 3.9,58.2 C2.1,56.5 1,54.1 0.6,51.7 C0.5,50.6 0.5,49.6 0.5,48.5 C0.5,43.3 0.5,38.1 0.5,32.9 C0.5,29.5 0.7,26 1.4,22.7 C2,20.2 2.8,17.7 4.2,15.4 C5.4,13.4 7.2,11.6 9.4,10.6 C10.9,9.9 12.5,9.7 14.1,9.7 C17.1,9.7 20.2,9.7 23.2,9.7 C21.1,7.6 19,5.5 16.9,3.4 C15.1,3.4 13.2,3.4 11.4,3.4 C10.8,3.4 10.2,3 10.1,2.4 Z M20.8,3.4 C22.4,5 24,6.6 25.6,8.2 C27.2,6.6 28.8,5 30.4,3.4 C27.2,3.4 24,3.4 20.8,3.4 Z M12,14.1 C10.3,14.1 8.7,15.3 8.3,16.9 C7.4,19.6 6.5,22.4 5.6,25.1 C5.4,25.8 5.4,26.7 6,27.2 C6.5,27.7 7.3,27.7 8,27.7 C17.8,27.7 27.5,27.7 37.3,27.7 C37.9,27.7 38.6,27.6 39.1,27.2 C39.8,26.7 40,25.8 39.9,25 C39.6,22.3 39.2,19.5 38.8,16.8 C38.6,15.2 37.1,13.9 35.5,14.1 C27.7,14.1 19.9,14.2 12,14.1 Z M52.1,28.7 C52.1,29.9 52.1,31.1 52.1,32.4 C52.2,36.8 52.3,41.2 52.4,45.7 C54,47.2 56,48.3 57.9,49.3 C57.9,48.1 57.8,46.8 57.8,45.6 C57.7,44.3 57.8,42.9 57.7,41.6 C57.7,40.5 57.7,39.5 57.6,38.4 C57.6,37.4 57.6,36.3 57.5,35.3 C55.7,33.2 53.8,31 52.1,28.7 Z M59.6,44.1 C59.7,45.3 59.6,46.6 59.7,47.8 C59.7,48.5 59.7,49.2 59.7,49.9 C59.7,50.1 59.9,50.1 60,50.1 C61.7,50.7 63.4,51.3 65.2,51.7 C65.1,50.6 65.2,49.6 65.1,48.5 C65,47.3 65.1,46.1 65,44.8 C65,43.6 65,42.3 64.9,41.1 C62.9,39.9 61.1,38.5 59.4,36.9 C59.6,39.4 59.6,41.8 59.6,44.1 Z M8.9,40.2 C7.2,40.6 5.9,42 5.7,43.7 C5.5,45.4 6.4,47.1 7.9,47.9 C9,48.5 10.4,48.5 11.6,48 C12.7,47.5 13.5,46.5 13.9,45.4 C14.4,43.8 13.8,42 12.5,40.9 C11.4,40.2 10.1,39.9 8.9,40.2 Z M36.1,40.2 C34.7,40.5 33.5,41.6 33.1,43 C32.7,44.2 32.9,45.6 33.6,46.6 C34.6,48.1 36.7,48.8 38.4,48.2 C39.6,47.8 40.6,46.8 41,45.6 C41.5,44 41,42 39.6,41 C38.6,40.2 37.3,39.9 36.1,40.2 Z M67.1,52.3 C68.9,52.7 70.7,53.1 72.6,53.4 C72.6,52.9 72.6,52.4 72.6,51.9 C72.5,50.7 72.6,49.5 72.5,48.3 C72.5,47.2 72.5,46.1 72.4,44.9 C70.5,44.1 68.7,43.2 66.9,42.3 C67,45.6 67,49 67.1,52.3 Z M74.2,45.7 C74.2,48.4 74.3,51.1 74.3,53.7 C75.8,54 77.3,54.2 78.9,54.4 C78.9,52.1 78.8,49.7 78.8,47.4 C77.2,46.9 75.7,46.3 74.2,45.7 Z M80.6,48.1 C80.6,50.1 80.7,52 80.7,54 C80.7,54.2 80.7,54.5 80.8,54.7 C82,54.9 83.2,55 84.4,55.1 C84.4,53.2 84.3,51.2 84.3,49.3 C83.1,48.9 81.9,48.5 80.6,48.1 Z M86.1,49.9 C86.1,50.4 86.1,50.9 86.1,51.5 C86.1,52.8 86.1,54 86.2,55.3 C86.8,55.4 87.4,55.4 88,55.5 C88,55 88,54.6 88,54.1 C87.9,52.9 88,51.7 87.9,50.5 C87.3,50.3 86.7,50.1 86.1,49.9 Z"/>
    <path d="M7.8,64.3 C11.4,64.3 15.1,64.3 18.7,64.3 C18.7,65.2 18.7,66.1 18.7,67 C23.8,67 29,67 34.1,67 C34.1,66.1 34.1,65.2 34.1,64.3 C52.9,64.3 71.7,64.3 90.4,64.3 C90.4,65.4 90.4,66.6 90.4,67.7 C90.4,67.9 90.2,67.9 90,67.9 C73.8,69.7 57.5,71.6 41.3,73.3 C28,73.3 14.6,73.3 1.3,73.3 C1.3,71.2 1.3,69.1 1.3,66.9 C3.4,66.9 5.5,66.9 7.7,66.9 C7.8,66.1 7.8,65.2 7.8,64.3 Z"/>
  </g>
</svg>
