<svg xmlns="http://www.w3.org/2000/svg" width="100" height="70" viewBox="0 0 100 70">
  <g fill-rule="evenodd">
    <path fill="#001731" d="M12.67,31.94 C11.89,31.3 11.16,30.77 10.51,30.14 C7,26.77 3.52,23.38 0,20 C31.13,-6.57 71.07,-5.81 100,20 L88,32.33 C63,13.15 37.87,13.2 12.67,31.94 Z"/>
    <path fill="#001731" d="M81.36 38.55L69.06 50.71C63.5 47.49 57.33 45.18 50.42 45.2 43.7004262 45.1386801 37.1144783 47.0775664 31.5 50.77L19.5 38.18C33.89 24.05 66.44 24.11 81.36 38.55zM50.17 69.64L39.75 59.26C44.29 53.26 55.08 53.13 60.92 59.07L50.17 69.64z"/>
  </g>
</svg>
