<?xml version="1.0" encoding="UTF-8"?>
<svg width="256px" height="256px" viewBox="0 0 256 256" version="1.1" xmlns="http://www.w3.org/2000/svg" xmlns:xlink="http://www.w3.org/1999/xlink">
    <!-- Generator: Sketch 46.2 (44496) - http://www.bohemiancoding.com/sketch -->
    <title>placeholder</title>
    <desc>Created with Sketch.</desc>
    <defs>
        <path d="M0,0.271887404 L256,0.271887404 L256,254.87298 L0,254.87298 L0,0.271887404 Z M153.20695,132.613824 L163.28973,132.613824 L163.28973,122.531044 L153.20695,122.531044 L153.20695,132.613824 Z M122.95861,132.613824 L133.04139,132.613824 L133.04139,122.531044 L122.95861,122.531044 L122.95861,132.613824 Z M92.7102698,132.613824 L102.79305,132.613824 L102.79305,122.531044 L92.7102698,122.531044 L92.7102698,132.613824 Z" id="path-1"></path>
    </defs>
    <g id="Symbols" stroke="none" stroke-width="1" fill="none" fill-rule="evenodd">
        <g id="placeholder">
            <g id="Combined-Shape">
                <use fill-opacity="0.07" fill="#000000" fill-rule="evenodd" xlink:href="#path-1"></use>
                <path stroke-opacity="0.0994112319" stroke="#000000" stroke-width="0.5" d="M0.25,0.521887404 L0.25,254.62298 L255.75,254.62298 L255.75,0.521887404 L0.25,0.521887404 Z M163.53973,132.863824 L152.95695,132.863824 L152.95695,122.281044 L163.53973,122.281044 L163.53973,132.863824 Z M133.29139,132.863824 L122.70861,132.863824 L122.70861,122.281044 L133.29139,122.281044 L133.29139,132.863824 Z M92.4602698,132.863824 L92.4602698,122.281044 L103.04305,122.281044 L103.04305,132.863824 L92.4602698,132.863824 Z"></path>
            </g>
        </g>
    </g>
</svg>