<?xml version="1.0" encoding="UTF-8" standalone="no"?>
<!DOCTYPE svg PUBLIC "-//W3C//DTD SVG 1.1//EN" "http://www.w3.org/Graphics/SVG/1.1/DTD/svg11.dtd">
<svg width="100%" height="100%" viewBox="0 0 280 44" version="1.1" xmlns="http://www.w3.org/2000/svg" xmlns:xlink="http://www.w3.org/1999/xlink" xml:space="preserve" style="fill-rule:evenodd;clip-rule:evenodd;">
    <g id="Group" transform="matrix(1,0,0,1,0,0.284741)">
        <g id="Rectangle">
            <rect id="path.2e..-1" x="0.183" y="0.154" width="279.18" height="42.639" style="fill:rgb(74,144,226);"/>
            <rect x="0.683" y="0.653" width="278.181" height="41.64" style="fill:none;stroke:rgb(74,144,226);stroke-width:1px;"/>
        </g>
        <g transform="matrix(1.94856,0,0,1.94856,-41.2337,-41.0107)">
            <path d="M28.147,35.263L31.483,35.263L31.483,34.327L30.415,34.327L30.415,27.775L32.407,27.775L32.407,29.095L33.451,29.095L33.451,26.791L26.179,26.791L26.179,29.095L27.223,29.095L27.223,27.775L29.215,27.775L29.215,34.327L28.147,34.327L28.147,35.263Z" style="fill:white;fill-rule:nonzero;"/>
            <path d="M35.251,27.979L36.475,27.979L36.475,26.791L35.251,26.791L35.251,27.979ZM34.327,35.263L37.399,35.263L37.399,34.363L36.439,34.363L36.439,29.191L34.267,29.191L34.267,30.091L35.275,30.091L35.275,34.363L34.327,34.363L34.327,35.263Z" style="fill:white;fill-rule:nonzero;"/>
            <path d="M38.203,32.239C38.203,34.195 39.727,35.407 41.479,35.407C42.763,35.407 43.639,34.723 43.915,34.471L43.471,33.619C43.255,33.787 42.559,34.399 41.527,34.399C40.363,34.399 39.391,33.595 39.391,32.215C39.391,30.919 40.231,30.055 41.455,30.055C41.995,30.055 42.763,30.283 42.763,30.751L42.763,31.171L43.795,31.171L43.795,30.427C43.795,29.383 42.319,29.047 41.419,29.047C39.607,29.047 38.203,30.379 38.203,32.239Z" style="fill:white;fill-rule:nonzero;"/>
            <path d="M44.743,35.263L47.671,35.263L47.671,34.363L46.855,34.363L46.855,32.407L47.335,32.407C47.599,32.407 47.767,32.431 47.899,32.647L49.099,34.699C49.363,35.167 49.543,35.263 50.095,35.263L51.007,35.263L51.007,34.363L50.623,34.363C50.311,34.363 50.215,34.315 50.095,34.123L49.063,32.359C48.823,31.951 48.631,31.867 48.619,31.867L48.619,31.843L50.119,30.091L50.923,30.091L50.923,29.191L48.163,29.191L48.163,30.091L48.955,30.091L47.743,31.519L46.855,31.519L46.855,26.791L44.683,26.791L44.683,27.691L45.703,27.691L45.703,34.363L44.743,34.363L44.743,35.263Z" style="fill:white;fill-rule:nonzero;"/>
            <path d="M51.823,32.227C51.823,34.027 53.131,35.407 55.039,35.407C56.491,35.407 57.403,34.567 57.403,34.567L56.923,33.715C56.923,33.715 56.167,34.399 55.111,34.399C54.031,34.399 53.083,33.679 53.011,32.335L57.451,32.335C57.451,32.335 57.487,32.047 57.487,31.891C57.487,30.319 56.587,29.047 54.859,29.047C53.131,29.047 51.823,30.295 51.823,32.227ZM53.059,31.591C53.227,30.571 53.947,29.971 54.835,29.971C55.603,29.971 56.251,30.523 56.287,31.591L53.059,31.591Z" style="fill:white;fill-rule:nonzero;"/>
            <path d="M59.227,33.043C59.227,35.071 60.775,35.311 61.543,35.311C61.795,35.311 61.963,35.287 61.963,35.287L61.963,34.315C61.963,34.315 61.855,34.327 61.687,34.327C61.231,34.327 60.391,34.171 60.391,32.935L60.391,30.091L61.843,30.091L61.843,29.191L60.391,29.191L60.391,27.523L59.251,27.523L59.251,29.191L58.207,29.191L58.207,30.091L59.227,30.091L59.227,33.043Z" style="fill:white;fill-rule:nonzero;"/>
            <path d="M62.791,33.955C62.791,34.915 64.063,35.407 65.167,35.407C66.547,35.407 67.603,34.771 67.603,33.619C67.603,32.491 66.535,32.095 65.599,31.783C64.867,31.531 64.195,31.291 64.195,30.715C64.195,30.223 64.699,29.983 65.275,29.983C65.863,29.983 66.343,30.235 66.343,30.607L66.343,31.003L67.363,31.003L67.363,30.271C67.363,29.383 66.115,29.047 65.263,29.047C64.207,29.047 63.019,29.527 63.019,30.727C63.019,31.831 64.015,32.239 64.915,32.575C65.755,32.875 66.427,33.067 66.427,33.679C66.427,34.183 65.887,34.459 65.203,34.459C64.531,34.459 63.811,34.219 63.811,33.703L63.811,33.307L62.791,33.307L62.791,33.955Z" style="fill:white;fill-rule:nonzero;"/>
            <path d="M72.427,27.979L73.651,27.979L73.651,26.791L72.427,26.791L72.427,27.979ZM70.891,36.763L70.891,37.711C70.891,37.711 71.047,37.735 71.287,37.735C72.043,37.735 73.615,37.471 73.615,35.443L73.615,29.191L71.431,29.191L71.431,30.091L72.451,30.091L72.451,35.407C72.451,36.619 71.599,36.775 71.155,36.775C70.999,36.775 70.891,36.763 70.891,36.763Z" style="fill:white;fill-rule:nonzero;"/>
            <path d="M75.895,33.079C75.895,34.687 76.579,35.407 77.887,35.407C79.399,35.407 80.083,34.291 80.203,33.967L80.227,33.967C80.227,33.967 80.203,34.123 80.203,34.327L80.203,34.591C80.203,35.023 80.443,35.263 80.971,35.263L82.231,35.263L82.231,34.375L81.595,34.375C81.427,34.375 81.331,34.279 81.331,34.111L81.331,29.191L79.147,29.191L79.147,30.091L80.167,30.091L80.167,31.987C80.167,33.187 79.411,34.351 78.199,34.351C77.227,34.351 77.059,33.679 77.059,32.839L77.059,29.191L74.875,29.191L74.875,30.091L75.895,30.091L75.895,33.079Z" style="fill:white;fill-rule:nonzero;"/>
            <path d="M83.095,33.955C83.095,34.915 84.367,35.407 85.471,35.407C86.851,35.407 87.907,34.771 87.907,33.619C87.907,32.491 86.839,32.095 85.903,31.783C85.171,31.531 84.499,31.291 84.499,30.715C84.499,30.223 85.003,29.983 85.579,29.983C86.167,29.983 86.647,30.235 86.647,30.607L86.647,31.003L87.667,31.003L87.667,30.271C87.667,29.383 86.419,29.047 85.567,29.047C84.511,29.047 83.323,29.527 83.323,30.727C83.323,31.831 84.319,32.239 85.219,32.575C86.059,32.875 86.731,33.067 86.731,33.679C86.731,34.183 86.191,34.459 85.507,34.459C84.835,34.459 84.115,34.219 84.115,33.703L84.115,33.307L83.095,33.307L83.095,33.955Z" style="fill:white;fill-rule:nonzero;"/>
            <path d="M89.623,33.043C89.623,35.071 91.171,35.311 91.939,35.311C92.191,35.311 92.359,35.287 92.359,35.287L92.359,34.315C92.359,34.315 92.251,34.327 92.083,34.327C91.627,34.327 90.787,34.171 90.787,32.935L90.787,30.091L92.239,30.091L92.239,29.191L90.787,29.191L90.787,27.523L89.647,27.523L89.647,29.191L88.603,29.191L88.603,30.091L89.623,30.091L89.623,33.043Z" style="fill:white;fill-rule:nonzero;"/>
            <path d="M96.223,35.263L102.559,35.263L102.559,32.911L101.515,32.911L101.515,34.279L98.455,34.279L98.455,31.435L100.615,31.435L100.615,30.595L98.455,30.595L98.455,29.011C98.455,28.291 98.983,27.715 99.871,27.715C100.603,27.715 101.203,28.207 101.203,28.207L101.863,27.391C101.863,27.391 101.071,26.647 99.859,26.647C98.347,26.647 97.255,27.631 97.255,28.963L97.255,30.595L96.439,30.595L96.439,31.435L97.255,31.435L97.255,34.303L96.223,34.303L96.223,35.263Z" style="fill:white;fill-rule:nonzero;"/>
            <path d="M103.687,35.263L108.559,35.263L108.559,34.279L106.711,34.279L106.711,26.791L105.655,26.791L103.627,28.759L104.347,29.503L105.139,28.723C105.451,28.423 105.547,28.243 105.547,28.243L105.571,28.243C105.571,28.243 105.559,28.495 105.559,28.759L105.559,34.279L103.687,34.279L103.687,35.263Z" style="fill:white;fill-rule:nonzero;"/>
            <path d="M112.663,35.407C114.259,35.407 115.447,34.231 115.447,32.551C115.447,31.003 114.355,29.779 112.759,29.779C111.967,29.779 111.211,30.103 110.839,30.583L110.815,30.583C110.995,29.155 111.811,27.703 113.371,27.703C114.055,27.703 114.595,27.991 114.595,27.991L114.967,26.995C114.967,26.995 114.319,26.647 113.347,26.647C110.683,26.647 109.495,29.203 109.495,31.447C109.495,33.823 110.815,35.407 112.663,35.407ZM110.743,32.071C110.743,31.387 111.475,30.775 112.423,30.775C113.587,30.775 114.235,31.531 114.235,32.551C114.235,33.595 113.635,34.339 112.651,34.339C111.523,34.339 110.743,33.055 110.743,32.071Z" style="fill:white;fill-rule:nonzero;"/>
            <path d="M116.491,34.315C116.491,34.315 117.391,35.407 119.107,35.407C120.871,35.407 122.179,34.159 122.179,32.563C122.179,31.051 121.003,29.875 119.251,29.875C118.519,29.875 118.051,30.139 118.051,30.139L118.027,30.139C118.027,30.139 118.063,29.959 118.087,29.803L118.303,27.775L120.607,27.775L120.607,28.855L121.651,28.855L121.651,26.791L117.271,26.791L116.851,31.039L117.547,31.291C117.547,31.291 118.135,30.859 119.035,30.859C120.199,30.859 120.955,31.567 120.955,32.611C120.955,33.571 120.115,34.339 119.047,34.339C117.823,34.339 117.115,33.475 117.115,33.475L116.491,34.315Z" style="fill:white;fill-rule:nonzero;"/>
            <path d="M126.259,32.311L128.947,32.311L128.947,35.263L129.931,35.263L129.931,32.311L132.607,32.311L132.607,31.375L129.931,31.375L129.931,28.423L128.947,28.423L128.947,31.375L126.259,31.375L126.259,32.311Z" style="fill:white;fill-rule:nonzero;"/>
            <path d="M139.759,35.263L141.031,35.263L143.707,27.715L144.547,27.715L144.547,26.791L141.523,26.791L141.523,27.715L142.459,27.715L140.563,33.295C140.467,33.595 140.419,33.955 140.419,33.955L140.383,33.955C140.383,33.955 140.335,33.595 140.239,33.295L138.343,27.715L139.279,27.715L139.279,26.791L136.255,26.791L136.255,27.715L137.083,27.715L139.759,35.263Z" style="fill:white;fill-rule:nonzero;"/>
            <path d="M144.067,35.263L147.007,35.263L147.007,34.327L146.095,34.327L146.755,32.443L149.755,32.443L150.415,34.327L149.515,34.327L149.515,35.263L152.455,35.263L152.455,34.327L151.639,34.327L148.939,26.791L147.583,26.791L144.883,34.327L144.067,34.327L144.067,35.263ZM147.055,31.483L148.099,28.543C148.207,28.195 148.243,27.895 148.243,27.895L148.279,27.895C148.279,27.895 148.303,28.195 148.423,28.543L149.455,31.483L147.055,31.483Z" style="fill:white;fill-rule:nonzero;"/>
            <path d="M154.303,35.263L157.639,35.263L157.639,34.327L156.571,34.327L156.571,27.775L158.563,27.775L158.563,29.095L159.607,29.095L159.607,26.791L152.335,26.791L152.335,29.095L153.379,29.095L153.379,27.775L155.371,27.775L155.371,34.327L154.303,34.327L154.303,35.263Z" style="fill:white;fill-rule:nonzero;"/>
        </g>
    </g>
</svg>
