<?xml version="1.0" encoding="UTF-8"?>
<svg width="82px" height="103px" viewBox="0 0 82 103" version="1.1" xmlns="http://www.w3.org/2000/svg" xmlns:xlink="http://www.w3.org/1999/xlink">
    <!-- Generator: Sketch 47.1 (45422) - http://www.bohemiancoding.com/sketch -->
    <title>UX-Brighton-2020-logo-stacked-white</title>
    <desc>Created with Sketch.</desc>
    <defs></defs>
    <g id="Page-1" stroke="none" stroke-width="1" fill="none" fill-rule="evenodd">
        <g id="The-grid" transform="translate(-768.000000, -5332.000000)" fill="#FFFFFF">
            <g id="UX-Brighton-2020-logo-stacked-white" transform="translate(767.846660, 5331.273368)">
                <path d="M3.5480394,63.7698564 L10.258601,63.7698564 C11.0419269,63.7698564 11.7055964,63.7296261 12.3888632,63.5059767 C13.8552675,62.9974745 15.0003894,61.5745453 15.0003894,59.6831534 C15.0003894,58.0577386 14.1765499,56.6548292 12.6500347,56.2071489 L12.6500347,56.1669187 C13.7548314,55.5977852 14.4377213,54.4791566 14.4377213,53.0768192 C14.4377213,51.5314834 13.6140702,50.3524141 12.4892992,49.8442932 C11.7858699,49.5188289 11.0223296,49.4173954 9.99761791,49.4173954 L3.5480394,49.4173954 L3.5480394,50.9831323 L5.31594034,50.9831323 L5.31594034,62.1846717 L3.5480394,62.1846717 L3.5480394,63.7698564 L3.5480394,63.7698564 Z M7.3256039,55.4553588 L7.3256039,51.0841845 L9.99780636,51.0841845 C10.6007996,51.0841845 11.0626548,51.1654075 11.4645875,51.3692279 C12.0673924,51.714712 12.3890516,52.4262719 12.3890516,53.2594757 C12.3890516,54.560761 11.5853746,55.4551682 10.2994914,55.4551682 L7.3256039,55.4553588 L7.3256039,55.4553588 Z M7.3256039,62.1030673 L7.3256039,57.1225292 L10.4999867,57.1225292 C11.9869305,57.1225292 12.9511544,58.0979688 12.9511544,59.5813386 C12.9511544,60.659165 12.4289999,61.5543349 11.6051603,61.8998189 C11.2232018,62.0626464 10.7408072,62.1024953 10.3394397,62.1024953 L7.3256039,62.1024953 L7.3256039,62.1030673 L7.3256039,62.1030673 Z" id="Shape"></path>
                <path d="M15.8183875,63.7698564 L20.8011848,63.7698564 L20.8011848,62.2454937 L19.2942669,62.2454937 L19.2942669,59.520326 C19.2942669,57.5086248 20.2185426,55.2925313 22.3887531,55.2925313 C22.7100355,55.2925313 22.9508559,55.3533533 22.9508559,55.3533533 L22.9508559,53.4020928 C22.9508559,53.4020928 22.709847,53.3610999 22.4484872,53.3610999 C20.8814583,53.3610999 19.6960112,54.5405505 19.2335908,56.0445121 L19.1936424,56.0445121 C19.1936424,56.0445121 19.2335908,55.7396396 19.2335908,55.3331429 L19.2335908,54.6825956 C19.2335908,53.8490104 18.8118723,53.4831252 17.9279218,53.4831252 L15.6374895,53.4831252 L15.6374895,55.0078692 L16.9033985,55.0078692 C17.1845442,55.0078692 17.3452796,55.1501049 17.3452796,55.4551682 L17.3452796,62.2451123 L15.8181991,62.2451123 L15.8181991,63.770047 L15.8183875,63.7698564 L15.8183875,63.7698564 Z" id="Shape"></path>
                <path d="M25.3816726,51.4306219 L27.4307192,51.4306219 L27.4307192,49.4177767 L25.3816726,49.4177767 L25.3816726,51.4306219 L25.3816726,51.4306219 Z M23.8342411,63.7698564 L28.9779623,63.7698564 L28.9779623,62.2454937 L27.3704199,62.2454937 L27.3704199,53.4833159 L23.733805,53.4833159 L23.733805,55.0082505 L25.4214325,55.0082505 L25.4214325,62.245875 L23.8340527,62.245875 L23.8340527,63.7698564 L23.8342411,63.7698564 L23.8342411,63.7698564 Z" id="Shape"></path>
                <path d="M30.6288448,65.680696 L29.9855264,67.1859922 C30.9900755,67.6939225 32.2360104,68.0397879 33.4615942,68.0397879 C36.0335491,68.0397879 38.5847759,66.7385027 38.5847759,63.3437212 L38.5847759,55.4149379 C38.5847759,55.1504863 38.7654856,55.0082505 39.0274109,55.0082505 L40.1523701,55.0082505 L40.1523701,53.4833159 L37.9825364,53.4833159 C37.1385342,53.4833159 36.8172519,53.8696022 36.8172519,54.5201494 C36.8172519,54.7847918 36.8572002,54.9272182 36.8572002,54.9272182 L36.8172519,54.9272182 C36.2549606,53.7477675 34.8486672,53.239456 33.5222704,53.239456 C30.689521,53.239456 29.061816,55.4349577 29.061816,58.3828215 C29.061816,61.3507052 30.7897687,63.6478311 33.6025439,63.6478311 C35.0894877,63.6478311 36.0539001,62.9976651 36.6567049,61.9812327 L36.6966532,61.9812327 C36.6966532,61.9812327 36.6365423,62.306125 36.6365423,62.6315893 L36.6365423,63.4447734 C36.6365423,65.559624 35.1899238,66.3724268 33.4216459,66.3724268 C31.8941886,66.3720455 30.6288448,65.680696 30.6288448,65.680696 L30.6288448,65.680696 L30.6288448,65.680696 Z M33.9839372,61.9406212 C32.1551716,61.9406212 31.0503748,60.4763178 31.0503748,58.3424007 C31.0503748,56.2483325 32.0553008,54.9468566 33.8028508,54.9468566 C35.390419,54.9468566 36.6763022,55.7194292 36.6763022,58.403032 C36.6761138,61.0858722 35.390419,61.9406212 33.9839372,61.9406212 L33.9839372,61.9406212 L33.9839372,61.9406212 Z" id="Shape"></path>
                <path d="M39.9055195,63.7698564 L45.0481102,63.7698564 L45.0481102,62.2454937 L43.4415102,62.2454937 L43.4415102,58.9515738 C43.4415102,56.7562627 44.8474265,55.0486714 46.8367393,55.0486714 C48.4636905,55.0486714 48.765187,56.1871292 48.765187,57.6308407 L48.765187,63.7704284 L52.3015541,63.7704284 L52.3015541,62.2460657 L50.7147396,62.2460657 L50.7147396,57.1831605 C50.7147396,54.560761 49.6093777,53.2390747 47.218886,53.2390747 C45.1896254,53.2390747 43.8639822,54.6011819 43.4217244,55.5972132 L43.3819645,55.5972132 C43.3819645,55.5972132 43.4416984,55.2311374 43.4416984,54.7432269 L43.4416984,49.4172047 L39.8052721,49.4172047 L39.8052721,50.9417581 L41.5128735,50.9417581 L41.5128735,62.245303 L39.9058967,62.245303 L39.9055195,63.7698564 L39.9055195,63.7698564 Z" id="Shape"></path>
                <path d="M53.2800991,60.0088084 C53.2800991,63.4447734 55.8716514,63.8512701 57.1579116,63.8512701 C57.5798182,63.8512701 57.8609638,63.8108492 57.8609638,63.8108492 L57.8609638,62.1648426 C57.8609638,62.1648426 57.6798773,62.1846717 57.3985434,62.1846717 C56.6350033,62.1846717 55.2281445,61.9200294 55.2281445,59.8253892 L55.2281445,55.0080599 L57.6591496,55.0080599 L57.6591496,53.4831252 L55.2281445,53.4831252 L55.2281445,50.657668 L53.3192939,50.657668 L53.3192939,53.4835065 L51.5709901,53.4835065 L51.5709901,55.0084412 L53.2791573,55.0084412 L53.2791573,60.0088084 L53.2800991,60.0088084 L53.2800991,60.0088084 Z" id="Shape"></path>
                <path d="M57.7177531,58.6060897 C57.7177531,61.7371821 60.1681669,64.0137162 63.2025424,64.0137162 C66.237106,64.0137162 68.6884621,61.7366101 68.6884621,58.6060897 C68.6884621,55.4959703 66.2372943,53.2392653 63.2025424,53.2392653 C60.1681669,53.2392653 57.7177531,55.4959703 57.7177531,58.6060897 L57.7177531,58.6060897 L57.7177531,58.6060897 Z M59.7066887,58.6060897 C59.7066887,56.4719819 61.2740943,54.9468566 63.2025424,54.9468566 C65.1110161,54.9468566 66.6985842,56.4717913 66.6985842,58.6060897 C66.6985842,60.7609799 65.1112043,62.3059343 63.2025424,62.3059343 C61.2746597,62.3057437 59.7066887,60.7609799 59.7066887,58.6060897 L59.7066887,58.6060897 L59.7066887,58.6060897 Z" id="Shape"></path>
                <path d="M69.0340528,63.7698564 L74.1783393,63.7698564 L74.1783393,62.2454937 L72.5704199,62.2454937 L72.5704199,58.9925666 C72.5704199,56.9393006 73.916414,55.0484807 75.9665912,55.0484807 C77.5933538,55.0484807 77.8754417,56.1869385 77.8754417,57.6306501 L77.8754417,63.7702377 L81.4314064,63.7702377 L81.4314064,62.245875 L79.8240521,62.245875 L79.8240521,57.1829698 C79.8240521,54.5605703 78.7789894,53.238884 76.4486088,53.238884 C73.8764656,53.238884 72.6908299,55.1901445 72.4903348,55.7392583 L72.4501981,55.7392583 C72.4501981,55.7392583 72.5103088,55.4749973 72.5103088,55.1497236 L72.5103088,54.6213923 C72.5103088,53.8690302 72.1079995,53.4827439 71.2244258,53.4827439 L68.9339936,53.4827439 L68.9339936,55.0076786 L70.17974,55.0076786 C70.4612624,55.0076786 70.6225631,55.1499143 70.6225631,55.4547868 L70.6225631,62.2449217 L69.0348064,62.2449217 L69.0348064,63.7692844 L69.0340528,63.7692844 L69.0340528,63.7698564 L69.0340528,63.7698564 Z" id="Shape"></path>
                <path d="M41.0979202,39.2854421 L59.2271881,39.2854421 L59.2271881,32.3019066 L55.888549,32.3019066 L59.497023,27.2521592 C60.1979088,26.2308043 60.5740773,25.425582 60.6815538,25.425582 L60.7896022,25.425582 C60.7896022,25.425582 61.2738195,26.2844098 62.0278714,27.2521592 L65.9061811,32.3019066 L62.458922,32.3019066 L62.458922,39.2854421 L81.4760161,39.2854421 L81.4760161,32.3019066 L77.4164825,32.3019066 L68.1529022,20.3245103 L77.5776974,7.86181355 L81.5817777,7.86181355 L81.5817777,0.877137565 L63.4273559,0.877137565 L63.4273559,7.86124331 L66.6585182,7.86124331 L63.1032105,12.6959986 C62.3491583,13.7167832 61.9192514,14.5231461 61.9192514,14.4684001 L61.8117749,14.4684001 C61.8117749,14.4684001 61.326986,13.6620373 60.5735057,12.6959986 L56.9118645,7.86124331 L60.2505036,7.86124331 L60.2505036,0.877137565 L42.1681143,0.877137565 L42.1681143,7.86124331 L45.398705,7.86124331 L54.4461881,19.6795341 L44.9676545,32.3024769 L41.0973486,32.3024769 L41.0973486,39.2854421 L41.0979202,39.2854421 L41.0979202,39.2854421 Z" id="Shape-copy"></path>
                <path d="M21.5483168,39.9774836 C26.6006515,39.9774836 31.7077664,38.3102376 34.6636162,34.6537157 C36.6522524,32.1802534 37.8351631,28.4666341 37.8351631,24.6496683 L37.8351631,7.86986445 L42.4814317,7.86986445 L42.4814317,0.877137565 L23.5323882,0.877137565 L23.5323882,7.86986445 L27.1433182,7.86986445 L27.1433182,24.6508103 C27.1433182,26.4236867 26.8728408,27.8225746 26.2862358,28.9531045 C25.2933442,30.7819364 23.6693388,31.6418242 21.5922551,31.6418242 C19.3805035,31.6418242 17.6206887,30.6192086 16.7636064,28.8971489 C16.2660193,27.8756752 15.951033,26.370015 15.951033,24.6502393 L15.951033,7.86986445 L19.5613924,7.86986445 L19.5613924,0.877137565 L0.958940301,0.877137565 L0.958940301,7.86986445 L5.26032937,7.86986445 L5.26032937,24.6502393 C5.26147061,28.6824625 6.22811338,32.233354 8.48665649,34.8141596 C11.2810187,38.0413085 16.0651585,39.9774836 21.5483168,39.9774836 Z" id="Shape-copy"></path>
                <text id="2020" font-family="MuseoSlab-500, Museo Slab" font-size="34" font-weight="normal">
                    <tspan x="2.20026043" y="102.4435">2020</tspan>
                </text>
            </g>
        </g>
    </g>
</svg>