<?xml version="1.0" encoding="UTF-8" standalone="no"?>
<svg width="1102px" height="270px" viewBox="0 0 1102 270" version="1.1" xmlns="http://www.w3.org/2000/svg" xmlns:xlink="http://www.w3.org/1999/xlink" xmlns:sketch="http://www.bohemiancoding.com/sketch/ns">
    <title>Balsamiq logo</title>
    <description>Created with Sketch (http://www.bohemiancoding.com/sketch)</description>
    <defs></defs>
    <g id="Page-1" stroke="none" stroke-width="1" fill="none" fill-rule="evenodd" sketch:type="MSPage">
        <path d="M27.3443908,153.458116 C27.3443908,156.712877 27.6402782,159.963014 28.5279401,162.926511 C33.2621373,180.975637 48.6482782,193.402905 67.5804437,193.402905 C95.0979648,193.402905 111.07588,171.211356 111.07588,138.367863 C111.07588,109.671415 96.2815141,85.1127676 68.1768415,85.1127676 C50.7194894,85.1127676 34.1497993,97.5400352 28.8238275,117.063975 C27.9361655,120.318736 27.3443908,123.874007 27.3443908,128.011806 L27.3443908,153.458116 L27.3443908,153.458116 L27.3443908,153.458116 L27.3443908,153.458116 Z M1.6068169,0.789503521 L27.3443908,0.789503521 L27.3443908,90.7346268 L27.9361655,90.7346268 C37.1086725,74.7567113 53.6783627,64.6965423 76.7529507,64.6965423 C112.555317,64.6965423 137.405229,94.2852746 137.405229,137.480201 C137.405229,188.664085 104.862246,214.110394 72.9110387,214.110394 C52.1989261,214.110394 35.6292359,206.12606 24.6814049,187.480535 L24.0896303,187.480535 L22.6101937,210.855634 L0.423267606,210.855634 C1.01041901,201.091352 1.6068169,186.592873 1.6068169,173.869718 L1.6068169,0.789503521 L1.6068169,0.789503521 Z M1.6068169,0.789503521" id="Fill-1" fill="#712910" sketch:type="MSShapeGroup"></path>
        <path d="M240.43412,137.776088 C212.03356,137.17969 179.781842,142.214398 179.781842,170.023183 C179.781842,187.189271 191.02556,194.877718 204.044602,194.877718 C222.981391,194.877718 235.108148,183.042225 239.25057,170.915468 C240.138232,167.956595 240.43412,164.993099 240.43412,162.626 L240.43412,137.776088 L240.43412,137.776088 L240.43412,137.776088 L240.43412,137.776088 Z M265.584542,176.532704 C265.584542,188.959972 266.176317,201.091352 267.655754,210.855634 L244.280655,210.855634 L242.209444,192.806507 L241.321782,192.806507 C233.332824,204.050225 217.951306,214.110394 197.535081,214.110394 C168.538123,214.110394 153.74838,193.694169 153.74838,172.98668 C153.74838,138.367863 184.516039,119.435697 239.842345,119.731585 L239.842345,116.768088 C239.842345,105.233106 236.587585,83.633331 207.299363,83.9292183 C193.688546,83.9292183 179.781842,87.7757535 169.726296,94.581162 L163.803926,77.1238099 C175.639419,69.7266268 193.096771,64.6965423 211.145898,64.6965423 C254.932599,64.6965423 265.584542,94.581162 265.584542,122.981722 L265.584542,176.532704 L265.584542,176.532704 Z M265.584542,176.532704" id="Fill-2" fill="#712910" sketch:type="MSShapeGroup"></path>
        <path d="M299.912095,0.789503521 L325.945556,0.789503521 L325.945556,210.855634 L299.912095,210.855634 L299.912095,210.855634 L299.912095,0.789503521 L299.912095,0.789503521 Z M299.912095,0.789503521" id="Fill-3" fill="#712910" sketch:type="MSShapeGroup"></path>
        <path d="M356.454313,184.526285 C364.443271,189.255859 378.054088,194.581831 391.07313,194.581831 C409.709408,194.581831 418.586028,185.409324 418.586028,173.282567 C418.586028,160.850676 411.188845,154.345778 392.25668,147.244482 C366.218595,137.776088 354.087215,123.874007 354.087215,106.712542 C354.087215,83.633331 373.024004,64.6965423 403.500398,64.6965423 C417.994254,64.6965423 430.717408,68.5430775 438.410479,73.573162 L432.196845,92.5099507 C426.574986,88.9593028 416.21893,83.9292183 402.908623,83.9292183 C387.522482,83.9292183 379.237637,92.805838 379.237637,103.457782 C379.237637,115.288651 387.522482,120.614623 406.158761,128.011806 C430.717408,137.17969 443.736451,149.611581 443.736451,170.915468 C443.736451,196.357155 423.912,214.110394 390.481356,214.110394 C374.799327,214.110394 360.300849,209.967972 350.24068,204.050225 L356.454313,184.526285" id="Fill-4" fill="#712910" sketch:type="MSShapeGroup"></path>
        <path d="M548.272518,137.776088 C519.867335,137.17969 487.620239,142.214398 487.620239,170.023183 C487.620239,187.189271 498.863958,194.877718 511.878377,194.877718 C530.815165,194.877718 542.946546,183.042225 547.088968,170.915468 C547.97663,167.956595 548.272518,164.993099 548.272518,162.626 L548.272518,137.776088 L548.272518,137.776088 L548.272518,137.776088 L548.272518,137.776088 Z M573.418317,176.532704 C573.418317,188.959972 574.010092,201.091352 575.494151,210.855634 L552.119053,210.855634 L550.047842,192.806507 L549.155556,192.806507 C541.171222,204.050225 525.785081,214.110394 505.368856,214.110394 C476.376521,214.110394 461.582155,193.694169 461.582155,172.98668 C461.582155,138.367863 492.354437,119.435697 547.67612,119.731585 L547.67612,116.768088 C547.67612,105.233106 544.425982,83.633331 515.133137,83.9292183 C501.526944,83.9292183 487.620239,87.7757535 477.56007,94.581162 L471.642324,77.1238099 C483.477817,69.7266268 500.935169,64.6965423 518.979673,64.6965423 C562.770996,64.6965423 573.418317,94.581162 573.418317,122.981722 L573.418317,176.532704 L573.418317,176.532704 Z M573.418317,176.532704" id="Fill-5" fill="#712910" sketch:type="MSShapeGroup"></path>
        <path d="M607.570187,106.416655 C607.570187,91.3264014 606.978412,79.4909085 606.386637,67.6554155 L629.169961,67.6554155 L630.353511,91.0305141 L631.236549,91.0305141 C639.23013,77.4196972 652.54506,64.6965423 676.50731,64.6965423 C695.739986,64.6965423 710.534352,76.5320352 716.743363,93.3976127 L717.335137,93.3976127 C721.773447,85.1127676 727.691194,79.1950211 733.60894,74.7567113 C742.189673,68.2471901 751.36218,64.6965423 764.968373,64.6965423 C784.201049,64.6965423 812.305722,77.1238099 812.305722,126.828257 L812.305722,210.855634 L786.864035,210.855634 L786.864035,130.083018 C786.864035,102.274232 776.507979,86.0004296 755.800489,86.0004296 C740.710236,86.0004296 729.466518,96.9482606 724.73232,109.375528 C723.548771,113.21744 722.661109,117.65575 722.661109,122.389947 L722.661109,210.855634 L697.219423,210.855634 L697.219423,125.052933 C697.219423,102.274232 687.159254,86.0004296 667.334803,86.0004296 C651.356887,86.0004296 639.23013,99.0194718 635.083085,112.033891 C633.608271,115.584539 633.011873,120.318736 633.011873,124.757046 L633.011873,210.855634 L607.570187,210.855634 L607.570187,106.416655" id="Fill-6" fill="#712910" sketch:type="MSShapeGroup"></path>
        <path d="M846.947655,67.6554155 L872.981116,67.6554155 L872.981116,210.855634 L846.947655,210.855634 L846.947655,210.855634 L846.947655,67.6554155 L846.947655,67.6554155 Z M875.939989,27.4193627 C875.939989,36.2959824 869.726356,43.3972782 859.370299,43.3972782 C849.901905,43.3972782 843.688271,36.2959824 843.688271,27.4193627 C843.688271,18.542743 850.202415,11.1455599 859.962074,11.1455599 C869.430468,11.1455599 875.939989,18.2468556 875.939989,27.4193627 L875.939989,27.4193627 Z M875.939989,27.4193627" id="Fill-7" fill="#712910" sketch:type="MSShapeGroup"></path>
        <path d="M1007.09667,125.644708 C1007.09667,122.09406 1006.8054,118.247525 1005.91312,114.997387 C1001.77532,99.0194718 988.164504,85.4086549 968.63594,85.4086549 C941.714817,85.4086549 925.436391,108.187356 925.436391,140.143187 C925.436391,168.839634 939.047208,193.402905 967.743655,193.402905 C984.613856,193.402905 999.112335,183.042225 1005.02546,165.293609 C1006.21363,161.447074 1007.09667,156.416989 1007.09667,152.570454 L1007.09667,125.644708 L1007.09667,125.644708 L1007.09667,125.644708 L1007.09667,125.644708 Z M1007.09667,188.959972 L1006.50489,188.959972 C998.52056,202.866676 982.838532,214.110394 959.75932,214.110394 C926.328676,214.110394 899.107042,185.409324 899.107042,141.918511 C899.107042,88.0716408 933.721236,64.6965423 963.901743,64.6965423 C986.088669,64.6965423 1000.88304,75.6443732 1007.98895,89.2551901 L1008.58073,89.2551901 L1009.46377,67.6554155 L1034.01779,67.6554155 C1033.43064,79.4909085 1032.83887,92.2140634 1032.83887,107.00843 L1032.83887,269.436701 L1007.09667,269.436701 L1007.09667,188.959972 L1007.09667,188.959972 Z M1007.09667,188.959972" id="Fill-8" fill="#712910" sketch:type="MSShapeGroup"></path>
        <path d="M1076.54235,83.8783627 L1078.87246,83.8783627 C1081.59555,83.8783627 1083.79159,82.9675845 1083.79159,80.7669225 C1083.79159,78.825162 1082.37225,77.5306549 1079.26081,77.5306549 C1077.96631,77.5306549 1077.06477,77.6601056 1076.54235,77.7895563 L1076.54235,83.8783627 L1076.54235,83.8783627 L1076.54235,83.8783627 L1076.54235,83.8783627 Z M1076.4129,95.7832042 L1071.49377,95.7832042 L1071.49377,74.5532887 C1073.43553,74.2943873 1076.154,73.9060352 1079.64917,73.9060352 C1083.66676,73.9060352 1085.47907,74.5532887 1086.8984,75.5888944 C1088.19754,76.4950493 1089.10369,78.0484577 1089.10369,80.119669 C1089.10369,82.7133063 1087.16193,84.3915423 1084.70237,85.1682465 L1084.70237,85.4317711 C1086.77358,86.0744014 1087.80918,87.7618838 1088.45181,90.6097993 C1089.10369,93.8414437 1089.61687,95.0065 1090.00522,95.7832042 L1084.83182,95.7832042 C1084.17994,95.0065 1083.79159,93.1941901 1083.14896,90.6097993 C1082.76061,88.4045141 1081.46148,87.3735317 1078.74301,87.3735317 L1076.4129,87.3735317 L1076.4129,95.7832042 L1076.4129,95.7832042 L1076.4129,95.7832042 L1076.4129,95.7832042 Z M1063.33838,84.7798944 C1063.33838,94.2297958 1070.46279,101.737937 1079.90807,101.737937 C1089.10369,101.867387 1096.0894,94.2297958 1096.0894,84.9093451 C1096.0894,75.4594437 1089.10369,67.8264754 1079.64917,67.8264754 C1070.46279,67.8264754 1063.33838,75.4594437 1063.33838,84.7798944 C1063.33838,84.7798944 1063.33838,75.4594437 1063.33838,84.7798944 L1063.33838,84.7798944 L1063.33838,84.7798944 Z M1101.52633,84.7798944 C1101.52633,96.6893592 1091.94698,106.139261 1079.78324,106.139261 C1067.61025,106.139261 1057.90145,96.6893592 1057.90145,84.7798944 C1057.90145,72.8704296 1067.61025,63.5499789 1079.90807,63.5499789 C1091.94698,63.5499789 1101.52633,72.8704296 1101.52633,84.7798944 L1101.52633,84.7798944 Z M1101.52633,84.7798944" id="Fill-9" fill="#712910" sketch:type="MSShapeGroup"></path>
    </g>
</svg>